<svg xmlns="http://www.w3.org/2000/svg" width="24" height="24">
  <defs/>
  <path  d="M12,4 C16.418,4 20,7.582 20,12 C20,16.418 16.418,20 12,20 C7.582,20 4,16.418 4,12 C4,7.582 7.582,4 12,4 Z M10,15 L10,13 L11,13 L11,15 C11,15.552 11.448,16 12,16 L14,16 C15.105,16 16,15.105 16,14 L16,10 C16,8.895 15.105,8 14,8 L11,8 C9.343,8 8,9.343 8,11 L8,15 C8,15.552 8.448,16 9,16 C9.552,16 10,15.552 10,15 Z M4.799,6.6 C3.67,8.105 3,9.973 3,12 C2.997,13.948 3.628,15.844 4.799,17.4 C5.026,17.685 5.08,18.07 4.94,18.406 C4.8,18.743 4.489,18.976 4.127,19.016 C3.765,19.057 3.41,18.897 3.2,18.6 C1.819,16.762 1,14.475 1,12 C0.997,9.62 1.768,7.303 3.199,5.4 C3.53,4.958 4.157,4.869 4.599,5.2 C5.041,5.531 5.13,6.158 4.799,6.6 Z M20.8,5.4 C22.181,7.238 23,9.525 23,12 C23.003,14.38 22.232,16.697 20.801,18.6 C20.47,19.042 19.843,19.131 19.401,18.8 C18.959,18.469 18.87,17.842 19.201,17.4 C20.33,15.895 21,14.027 21,12 C21.003,10.052 20.372,8.156 19.201,6.6 C18.974,6.315 18.92,5.93 19.06,5.594 C19.2,5.257 19.511,5.024 19.873,4.984 C20.235,4.943 20.59,5.103 20.8,5.4 Z M14,11 L13,11 L13,10 L14,10 Z M14,14 L13,14 L13,13 L14,13 Z M11,10 L11,11 L10,11 C10,10.448 10.448,10 11,10 Z"/>
</svg>

