<svg xmlns="http://www.w3.org/2000/svg" width="24" height="24">
  <defs/>
  <path  d="M3.13,7.378 L6.526,10.774 L5.53,14.758 A1 1 0 0 0 7.435,15.354 L7.47,15.243 L7.78,14 L9.752,14 L10.375,14.624 L10.53,15.242 A1 1 0 0 0 11.612,15.994 L11.726,15.974 L16.622,20.87 A9.957 9.957 0 0 1 12,22 C6.477,22 2,17.523 2,12 C2,10.46 2.348,9.003 2.969,7.7 Z M12,2 C17.523,2 22,6.477 22,12 A9.956 9.956 0 0 1 19.95,18.067 L19.743,18.329 L20.707,19.293 A1 1 0 0 1 19.387,20.79 L19.293,20.707 L3.293,4.707 A1 1 0 0 1 4.613,3.21 L4.707,3.293 L5.671,4.257 A9.959 9.959 0 0 1 12,2 M16,8 L14,8 A1 1 0 0 0 13,9 L13,11.586 L15,13.586 L15,10 L16,10 A1 1 0 0 1 17,11 L17,13 A1 1 0 0 1 16,14 L15.414,14 L17.175,15.761 A3 3 0 0 0 19,13 L19,11 A3 3 0 0 0 16,8 M9.425,8.01 L11.236,9.822 L11.159,9.515 A2 2 0 0 0 9.426,8.01"/>
</svg>

