<svg xmlns="http://www.w3.org/2000/svg" width="24" height="24">
  <defs/>
  <path  d="M12,2 C17.523,2 22,6.477 22,12 C22,17.523 17.523,22 12,22 C6.477,22 2,17.523 2,12 C2,6.477 6.477,2 12,2 M9.22,8 L8.78,8 A2 2 0 0 0 6.84,9.515 L5.53,14.758 A1 1 0 1 0 7.47,15.243 L7.78,14 L10.22,14 L10.53,15.242 A1 1 0 1 0 12.47,14.757 L11.16,9.515 A2 2 0 0 0 9.22,8 M16,8 L14,8 A1 1 0 0 0 13,9 L13,15 A1 1 0 0 0 14,16 L16,16 A3 3 0 0 0 19,13 L19,11 A3 3 0 0 0 16,8 M16,10 A1 1 0 0 1 17,11 L17,13 A1 1 0 0 1 16,14 L15,14 L15,10 Z M9.22,10 L9.72,12 L8.28,12 L8.78,10 Z"/>
</svg>

