<svg xmlns="http://www.w3.org/2000/svg" width="24" height="24">
  <defs/>
  <path  d="M12,2 C17.523,2 22,6.477 22,12 C22,17.523 17.523,22 12,22 C6.477,22 2,17.523 2,12 C2,6.477 6.477,2 12,2 Z M12,4 C7.582,4 4,7.582 4,12 C4,16.418 7.582,20 12,20 C16.418,20 20,16.418 20,12 C20,7.582 16.418,4 12,4 Z M16,8 C17.589,8 18.902,9.238 18.995,10.824 L19,11 L19,13 C19,14.589 17.762,15.902 16.176,15.995 L16,16 L14,16 C13.493,16 13.066,15.62 13.007,15.117 L13,15 L13,9 C13,8.493 13.38,8.066 13.883,8.007 L14,8 Z M9.22,8 C10.078,8 10.84,8.547 11.114,9.36 L11.159,9.515 L12.47,14.758 C12.596,15.271 12.301,15.793 11.797,15.95 C11.294,16.108 10.754,15.847 10.565,15.354 L10.53,15.243 L10.22,14 L7.78,14 L7.47,15.242 C7.342,15.756 6.835,16.08 6.315,15.982 C5.794,15.884 5.44,15.397 5.508,14.872 L5.53,14.758 L6.84,9.515 C7.048,8.682 7.764,8.075 8.62,8.006 L8.78,8 Z M16,10 L15,10 L15,14 L16,14 C16.507,14 16.934,13.62 16.993,13.117 L17,13 L17,11 C17,10.493 16.62,10.066 16.117,10.007 Z M9.22,10 L8.78,10 L8.28,12 L9.72,12 Z"/>
</svg>

