<svg xmlns="http://www.w3.org/2000/svg" width="24" height="24">
  <defs/>
  <path  d="M12,2 C17.523,2 22,6.477 22,12 A9.959 9.959 0 0 1 19.743,18.329 L20.707,19.293 A1 1 0 0 1 19.387,20.79 L19.293,20.707 L18.328,19.744 A9.959 9.959 0 0 1 12,22 C6.477,22 2,17.523 2,12 C2,9.6 2.846,7.396 4.256,5.672 L3.293,4.707 A1 1 0 0 1 4.613,3.21 L4.707,3.293 L5.672,4.256 A9.959 9.959 0 0 1 12,2 M5.68,7.095 A8 8 0 0 0 16.904,18.32 Z M12,4 C10.151,4 8.45,4.627 7.094,5.68 L9.424,8.01 A2 2 0 0 1 11.115,9.363 L11.159,9.515 L11.236,9.822 L13,11.586 L13,9 A1 1 0 0 1 13.883,8.007 L14,8 L16,8 A3 3 0 0 1 18.995,10.824 L19,11 L19,13 A3 3 0 0 1 17.351,15.68 L17.175,15.761 L18.32,16.906 A8 8 0 0 0 12,4 M6.526,10.774 L9.752,14 L7.78,14 L7.47,15.242 A1 1 0 1 1 5.529,14.757 Z M10.376,14.624 L11.726,15.974 A1 1 0 0 1 10.53,15.242 Z M16,10 L15,10 L15,13.586 L15.414,14 L16,14 A1 1 0 0 0 17,13 L17,11 A1 1 0 0 0 16,10"/>
</svg>

