<svg xmlns="http://www.w3.org/2000/svg" width="24" height="24">
  <defs/>
  <path  d="M19,4 A3 3 0 0 1 22,7 L22,17 A3 3 0 0 1 19,20 L5,20 A3 3 0 0 1 2,17 L2,7 A3 3 0 0 1 5,4 Z M9.22,8 L8.78,8 A2 2 0 0 0 6.886,9.36 L6.84,9.515 L5.53,14.758 A1 1 0 0 0 7.435,15.354 L7.47,15.243 L7.78,14 L10.22,14 L10.53,15.242 A1 1 0 0 0 12.492,14.872 L12.47,14.758 L11.16,9.515 A2 2 0 0 0 9.22,8 M18,8 A1 1 0 0 0 17.007,8.883 L17,9 L17,10.17 A3 3 0 1 0 15.824,15.994 L16,16 L18,16 A1 1 0 0 0 18.993,15.117 L19,15 L19,9 A1 1 0 0 0 18,8 M16,12 A1 1 0 0 1 16.993,12.883 L17,13 L17,14 L16,14 A1 1 0 1 1 16,12 M9.22,10 L9.72,12 L8.28,12 L8.78,10 Z"/>
</svg>

