<svg xmlns="http://www.w3.org/2000/svg" width="24" height="24">
  <defs/>
  <path  d="M19,4 C20.589,4 21.902,5.238 21.995,6.824 L22,7 L22,17 C22,18.589 20.762,19.902 19.176,19.995 L19,20 L5,20 C3.411,20 2.098,18.762 2.005,17.176 L2,17 L2,7 C2,5.411 3.238,4.098 4.824,4.005 L5,4 Z M19,6 L5,6 C4.493,6 4.066,6.38 4.007,6.883 L4,7 L4,17 C4,17.507 4.38,17.934 4.883,17.993 L5,18 L19,18 C19.507,18 19.934,17.62 19.993,17.117 L20,17 L20,7 C20,6.448 19.552,6 19,6 Z M9.22,8 C10.078,8 10.84,8.547 11.114,9.36 L11.159,9.515 L12.47,14.758 C12.596,15.271 12.301,15.793 11.797,15.95 C11.294,16.108 10.754,15.847 10.565,15.354 L10.53,15.243 L10.22,14 L7.78,14 L7.47,15.242 C7.342,15.756 6.835,16.08 6.315,15.982 C5.794,15.884 5.44,15.397 5.508,14.872 L5.53,14.758 L6.84,9.515 C7.048,8.682 7.764,8.075 8.62,8.006 L8.78,8 Z M18,8 C18.507,8 18.934,8.38 18.993,8.883 L19,9 L19,15 C19,15.507 18.62,15.934 18.117,15.993 L18,16 L16,16 C14.831,15.998 13.77,15.317 13.281,14.256 C12.791,13.194 12.963,11.945 13.721,11.055 C14.478,10.165 15.684,9.796 16.81,10.11 L17,10.17 L17,9 C17,8.448 17.448,8 18,8 Z M16,12 C15.471,12.001 15.034,12.413 15.003,12.941 C14.972,13.47 15.358,13.931 15.883,13.993 L16,14 L17,14 L17,13 C17,12.448 16.552,12 16,12 Z M9.22,10 L8.78,10 L8.28,12 L9.72,12 Z"/>
</svg>

