<svg xmlns="http://www.w3.org/2000/svg" width="24" height="24">
  <defs/>
  <path  d="M3.293,3.293 C3.649,2.937 4.215,2.901 4.613,3.21 L4.707,3.293 L5.414,4 L19,4 C20.589,4 21.902,5.238 21.995,6.824 L22,7 L22,17 C22,17.91 21.595,18.724 20.956,19.274 L20.805,19.396 L20.769,19.36 C21.097,19.752 21.076,20.329 20.721,20.696 C20.365,21.064 19.79,21.104 19.387,20.79 L19.293,20.707 L3.293,4.707 C2.903,4.317 2.903,3.683 3.293,3.293 Z M19,6 L7.414,6 L9.424,8.01 C10.262,8.096 10.956,8.698 11.16,9.515 L11.236,9.822 L13.239,11.825 C13.859,10.367 15.506,9.642 17,10.17 L17,9 C17,8.448 17.448,8 18,8 C18.552,8 19,8.448 19,9 L19,15 C19,15.552 18.552,16 18,16 L17.414,16 L19.351,17.937 C19.742,17.791 20,17.417 20,17 L20,7 C20,6.448 19.552,6 19,6 Z M2.076,6.325 L4,8.248 L4,17 C4,17.552 4.448,18 5,18 L13.752,18 L15.752,20 L5,20 C3.343,20 2,18.657 2,17 L2,7 C2,6.768 2.026,6.542 2.076,6.325 Z M6.526,10.774 L9.752,14 L7.78,14 L7.47,15.242 C7.336,15.778 6.793,16.104 6.257,15.97 C5.721,15.836 5.395,15.293 5.529,14.757 Z M16,12 C15.471,12.001 15.034,12.413 15.003,12.941 C14.972,13.47 15.358,13.931 15.883,13.993 L16,14 L17,14 L17,13 C17,12.448 16.552,12 16,12 Z M10.376,14.624 L11.726,15.974 C11.194,16.097 10.662,15.771 10.53,15.242 Z"/>
</svg>

