<svg xmlns="http://www.w3.org/2000/svg" width="24" height="24">
  <defs/>
  <path  d="M3.293,3.293 A1 1 0 0 1 4.613,3.21 L4.707,3.293 L5.414,4 L19,4 A3 3 0 0 1 21.995,6.824 L22,7 L22,17 C22,17.91 21.595,18.724 20.956,19.274 L20.805,19.396 L20.769,19.36 A1 1 0 0 1 19.387,20.79 L19.293,20.707 L3.293,4.707 A1 1 0 0 1 3.293,3.293 M2.076,6.325 L6.526,10.775 L5.53,14.758 A1 1 0 1 0 7.47,15.243 L7.78,14 L9.752,14 L10.375,14.624 L10.53,15.242 A1 1 0 0 0 11.726,15.974 L15.75,20 L5,20 A3 3 0 0 1 2,17 L2,7 C2,6.768 2.026,6.542 2.076,6.325 M18,8 A1 1 0 0 0 17,9 L17,10.17 A3 3 0 0 0 13.239,11.824 L17.414,16 L18,16 A1 1 0 0 0 19,15 L19,9 A1 1 0 0 0 18,8 M16,12 A1 1 0 0 1 16.993,12.883 L17,13 L17,14 L16,14 A1 1 0 1 1 16,12 M9.425,8.01 L11.236,9.822 L11.159,9.515 A2 2 0 0 0 9.426,8.01"/>
</svg>

