<svg xmlns="http://www.w3.org/2000/svg" width="24" height="24">
  <defs/>
  <path  d="M3,5 C3,3.895 3.895,3 5,3 L19,3 C20.105,3 21,3.895 21,5 L21,19 C21,20.105 20.105,21 19,21 L5,21 C3.895,21 3,20.105 3,19 Z M19,5 L5,5 L5,19 L19,19 Z M12,7 C12.552,7 13,7.448 13,8 L13,11 L16,11 C16.552,11 17,11.448 17,12 C17,12.552 16.552,13 16,13 L13,13 L13,16 C13,16.552 12.552,17 12,17 C11.448,17 11,16.552 11,16 L11,13 L8,13 C7.448,13 7,12.552 7,12 C7,11.448 7.448,11 8,11 L11,11 L11,8 C11,7.448 11.448,7 12,7 Z"/>
</svg>

