<svg xmlns="http://www.w3.org/2000/svg" width="24" height="24">
  <defs/>
  <path  d="M19.997,2.929 C20.037,3.48 19.622,3.959 19.071,3.998 L13,4.43 L13,7 L16.382,7 C17.14,7 17.832,7.428 18.171,8.106 L20.198,12.161 C20.758,13.28 20.878,14.568 20.534,15.771 L19.169,20.549 C18.924,21.408 18.139,22 17.246,22 L6.754,22 C5.861,22 5.077,21.408 4.831,20.55 L3.466,15.77 C3.122,14.567 3.242,13.28 3.801,12.161 L5.83,8.106 C6.169,7.429 6.861,7 7.618,7 L11,7 L11,4.574 L5.071,4.997 C4.708,5.034 4.354,4.871 4.147,4.571 C3.939,4.271 3.912,3.882 4.074,3.556 C4.237,3.229 4.565,3.018 4.929,3.003 L18.929,2.003 C19.48,1.964 19.958,2.378 19.997,2.929 Z M7.617,9 L5.617,13 L18.382,13 L16.382,9 Z"/>
</svg>

