<svg xmlns="http://www.w3.org/2000/svg" width="24" height="24">
  <defs/>
  <path  d="M9.107,5.448 C9.705,3.698 12.123,3.645 12.832,5.289 L12.892,5.449 L13.699,7.809 A4 4 0 0 0 15.975,10.22 L16.192,10.301 L18.552,11.107 C20.302,11.705 20.355,14.123 18.712,14.832 L18.552,14.892 L16.192,15.699 A4 4 0 0 0 13.78,17.975 L13.699,18.191 L12.893,20.552 C12.295,22.302 9.877,22.355 9.169,20.712 L9.107,20.552 L8.301,18.192 A4 4 0 0 0 6.025,15.78 L5.809,15.699 L3.449,14.893 C1.698,14.295 1.645,11.877 3.289,11.169 L3.449,11.107 L5.809,10.301 A4 4 0 0 0 8.22,8.025 L8.301,7.809 Z M19,2 A1 1 0 0 1 19.898,2.56 L19.946,2.677 L20.296,3.703 L21.323,4.053 A1 1 0 0 1 21.441,5.898 L21.323,5.946 L20.297,6.296 L19.947,7.323 A1 1 0 0 1 18.102,7.44 L18.054,7.323 L17.704,6.297 L16.677,5.947 A1 1 0 0 1 16.559,4.102 L16.677,4.054 L17.703,3.704 L18.053,2.677 A1 1 0 0 1 19,2"/>
</svg>

