<svg xmlns="http://www.w3.org/2000/svg" width="24" height="24">
  <defs/>
  <path  d="M12,2 A1 1 0 0 1 12.993,2.883 L13,3 L13,3.055 A9.005 9.005 0 0 1 20.911,10.729 L20.945,11 L21,11 A1 1 0 0 1 21.117,12.993 L21,13 L20.945,13 A9.005 9.005 0 0 1 13.271,20.911 L13,20.945 L13,21 A1 1 0 0 1 11.007,21.117 L11,21 L11,20.945 A9.005 9.005 0 0 1 3.089,13.271 L3.055,13 L3,13 A1 1 0 0 1 2.883,11.007 L3,11 L3.055,11 A9.005 9.005 0 0 1 10.729,3.089 L11,3.055 L11,3 A1 1 0 0 1 12,2 M12,7 A5 5 0 1 0 12,17 A5 5 0 0 0 12,7 M12,9 A3 3 0 1 1 12,15 A3 3 0 0 1 12,9"/>
</svg>

