<svg xmlns="http://www.w3.org/2000/svg" width="24" height="24">
  <defs/>
  <path  d="M13,19.938 L13,21 A1 1 0 0 1 11.007,21.117 L11,21 L11,19.938 A8.069 8.069 0 0 0 12.67,19.972 Z M13,4.062 A8.004 8.004 0 0 1 19.938,11 L19,11 A1 1 0 1 0 19,13 L19.938,13 A8.004 8.004 0 0 1 13,19.938 L13,19 A1 1 0 1 0 11,19 L11,19.938 A8.004 8.004 0 0 1 4.062,13 L5,13 A1 1 0 1 0 5,11 L4.062,11 A8.079 8.079 0 0 0 4.062,13 L3,13 A1 1 0 1 1 3,11 L4.062,11 A8.004 8.004 0 0 1 11,4.062 L11,5 A1 1 0 1 0 13,5 Z M12,10.5 A1.5 1.5 0 1 0 12,13.5 A1.5 1.5 0 0 0 12,10.5 M21,11 A1 1 0 1 1 21,13 L19.938,13 A8.069 8.069 0 0 0 19.938,11 Z M12,2 A1 1 0 0 1 13,3 L13,4.062 A8.079 8.079 0 0 0 11,4.062 L11,3 A1 1 0 0 1 12,2"/>
</svg>

