<svg xmlns="http://www.w3.org/2000/svg" width="24" height="24">
  <defs/>
  <path  d="M12,2 A1 1 0 0 1 13,3 L13,3.055 A9.004 9.004 0 0 1 20.945,11 L21,11 A1 1 0 1 1 21,13 L20.945,13 A9.004 9.004 0 0 1 13,20.945 L13,21 A1 1 0 1 1 11,21 L11,20.945 A9.004 9.004 0 0 1 3.055,13 L3,13 A1 1 0 1 1 3,11 L3.055,11 A9.004 9.004 0 0 1 11,3.055 L11,3 A1 1 0 0 1 12,2 M13,5.07 L13,6 A1 1 0 0 1 11.007,6.117 L11,6 L11,5.07 A7.006 7.006 0 0 0 5.112,10.746 L5.071,11 L6,11 A1 1 0 0 1 6.117,12.993 L6,13 L5.07,13 A7.006 7.006 0 0 0 10.746,18.888 L11,18.929 L11,18 A1 1 0 0 1 12.993,17.883 L13,18 L13,18.93 A7.006 7.006 0 0 0 18.888,13.254 L18.929,13 L18,13 A1 1 0 0 1 17.883,11.007 L18,11 L18.93,11 A7.006 7.006 0 0 0 13.254,5.112 Z M12,10.5 A1.5 1.5 0 1 1 12,13.5 A1.5 1.5 0 0 1 12,10.5"/>
</svg>

