<svg xmlns="http://www.w3.org/2000/svg" width="24" height="24">
  <defs/>
  <path  d="M12,2 C12.552,2 13,2.448 13,3 L13,3.055 C17.179,3.523 20.477,6.821 20.945,11 L21,11 C21.552,11 22,11.448 22,12 C22,12.552 21.552,13 21,13 L20.945,13 C20.477,17.179 17.179,20.477 13,20.945 L13,21 C13,21.552 12.552,22 12,22 C11.448,22 11,21.552 11,21 L11,20.945 C6.821,20.477 3.523,17.179 3.055,13 L3,13 C2.448,13 2,12.552 2,12 C2,11.448 2.448,11 3,11 L3.055,11 C3.523,6.821 6.821,3.523 11,3.055 L11,3 C11,2.448 11.448,2 12,2 Z M12,5 C8.134,5 5,8.134 5,12 C5,15.866 8.134,19 12,19 C15.866,19 19,15.866 19,12 C19,8.134 15.866,5 12,5 Z M12,8 C14.209,8 16,9.791 16,12 C16,14.209 14.209,16 12,16 C9.791,16 8,14.209 8,12 C8,9.791 9.791,8 12,8 Z M12,10 C10.895,10 10,10.895 10,12 C10,13.105 10.895,14 12,14 C13.105,14 14,13.105 14,12 C14,10.895 13.105,10 12,10 Z"/>
</svg>

