<svg xmlns="http://www.w3.org/2000/svg" width="24" height="24">
  <defs/>
  <path  d="M19,6 C20.657,6 22,7.343 22,9 L22,15 C22,16.657 20.657,18 19,18 L5,18 C3.343,18 2,16.657 2,15 L2,9 C2,7.343 3.343,6 5,6 Z M19,8 L5,8 C4.493,8 4.066,8.38 4.007,8.883 L4,9 L4,15 C4,15.507 4.38,15.934 4.883,15.993 L5,16 L5,14 C5,13.493 5.38,13.066 5.883,13.007 L6,13 L18,13 C18.507,13 18.934,13.38 18.993,13.883 L19,14 L19,16 C19.507,16 19.934,15.62 19.993,15.117 L20,15 L20,9 C20,8.493 19.62,8.066 19.117,8.007 Z M17,15 L7,15 L7,16 L17,16 Z M17,9 C17.552,9 18,9.448 18,10 C18,10.552 17.552,11 17,11 C16.448,11 16,10.552 16,10 C16,9.448 16.448,9 17,9 Z"/>
</svg>

