<svg xmlns="http://www.w3.org/2000/svg" width="24" height="24">
  <defs/>
  <path  d="M13,19 C13.552,19 14,19.448 14,20 L14,21 C14,21.552 13.552,22 13,22 L11,22 C10.448,22 10,21.552 10,21 L10,20 C10,19.448 10.448,19 11,19 L12,19 C11.29,19 10.448,18.747 9.63,18.355 C8.698,17.901 7.837,17.314 7.074,16.612 C5.431,15.106 4,12.856 4,10 C4,5.582 7.582,2 12,2 C16.418,2 20,5.582 20,10 C20,12.856 18.569,15.106 16.926,16.612 C16.163,17.314 15.302,17.901 14.37,18.355 C13.552,18.747 12.71,19 12,19 Z M12,3 C11.108,3 10.254,3.167 9.47,3.471 C9.275,3.794 9.061,4.183 8.847,4.633 C8.177,6.042 7.5,8.064 7.5,10.5 C7.5,12.792 8.099,14.72 8.729,16.113 L8.847,16.368 L8.943,16.565 L9.134,16.936 L9.387,17.092 C10.23,17.59 11.042,17.892 11.664,17.976 L11.844,17.994 L12,18 L12.156,17.994 L12.336,17.976 C12.958,17.891 13.77,17.59 14.613,17.092 L14.866,16.936 L15.056,16.566 L15.153,16.368 L15.271,16.113 C16.074,14.35 16.493,12.437 16.5,10.5 C16.5,8.064 15.824,6.042 15.153,4.633 C14.939,4.183 14.725,3.794 14.531,3.471 C13.724,3.158 12.866,2.999 12,3 Z M12,3.008 C12.001,3.143 12.03,3.277 12.084,3.401 L12.148,3.524 L12.357,3.804 L12.559,4.094 L12.731,4.361 L12.844,4.549 C13.001,4.812 13.174,5.129 13.347,5.492 C13.927,6.708 14.5,8.436 14.5,10.5 C14.5,12.564 13.926,14.292 13.347,15.508 C13.203,15.811 13.059,16.081 12.924,16.315 L12.825,16.484 L12.599,16.844 L12.559,16.906 L12.357,17.196 L12.163,17.453 C12.102,17.546 12.057,17.65 12.03,17.758 L12.01,17.865 L12,17.994 L11.991,17.864 L11.963,17.731 C11.947,17.672 11.925,17.614 11.898,17.559 L11.852,17.477 L11.643,17.195 L11.441,16.906 L11.269,16.639 L11.156,16.451 C10.974,16.145 10.806,15.83 10.653,15.508 C10.073,14.292 9.5,12.564 9.5,10.5 C9.5,8.436 10.074,6.708 10.653,5.492 C10.797,5.189 10.941,4.919 11.076,4.685 L11.175,4.516 L11.401,4.156 L11.441,4.094 L11.643,3.804 L11.769,3.639 L11.852,3.524 C11.948,3.369 11.999,3.19 12,3.008 Z"/>
</svg>

