<svg xmlns="http://www.w3.org/2000/svg" width="24" height="24">
  <defs/>
  <path  d="M18,3 C19.589,3 20.902,4.238 20.995,5.824 L21,6 L21,12 C21,13.589 19.762,14.902 18.176,14.995 L18,15 L6,15 C4.411,15 3.098,13.762 3.005,12.176 L3,12 L3,6 C3,4.411 4.238,3.098 5.824,3.005 L6,3 Z M18,11 L6,11 C5.448,11 5,11.448 5,12 L5,13 L19,13 L19,12 C19,11.448 18.552,11 18,11 Z M14,16 C14.507,16 14.934,16.38 14.993,16.883 L15,17 L15,18.172 C15,18.392 15.072,18.605 15.206,18.78 L15.293,18.879 L15.707,19.293 C16.079,19.666 16.097,20.265 15.749,20.66 C15.4,21.056 14.804,21.113 14.387,20.79 L14.293,20.707 L13.879,20.293 C13.365,19.779 13.055,19.095 13.007,18.37 L13,18.172 L13,17 C13,16.448 13.448,16 14,16 Z M10,16 C10.552,16 11,16.448 11,17 L11,18.172 C11,18.967 10.683,19.73 10.121,20.292 L9.707,20.707 C9.315,21.086 8.691,21.081 8.305,20.695 C7.919,20.309 7.914,19.685 8.293,19.293 L8.707,18.879 C8.895,18.692 9,18.437 9,18.172 L9,17 C9,16.448 9.448,16 10,16 Z M18,16 C18.507,16 18.934,16.38 18.993,16.883 L19,17 L19,17.613 L20.316,18.051 C20.82,18.218 21.106,18.749 20.968,19.261 C20.83,19.773 20.315,20.088 19.796,19.979 L19.684,19.949 L18.368,19.509 C17.607,19.256 17.071,18.572 17.006,17.773 L17,17.613 L17,17 C17,16.448 17.448,16 18,16 Z M6,16 C6.507,16 6.934,16.38 6.993,16.883 L7,17 L7,17.613 C7,18.415 6.52,19.139 5.782,19.453 L5.632,19.51 L4.316,19.949 C3.814,20.114 3.27,19.861 3.074,19.37 C2.878,18.879 3.098,18.321 3.576,18.095 L3.684,18.051 L5,17.613 L5,17 C5,16.448 5.448,16 6,16 Z M17,6 C16.448,6 16,6.448 16,7 C16,7.552 16.448,8 17,8 C17.552,8 18,7.552 18,7 C18,6.448 17.552,6 17,6 Z"/>
</svg>

