<svg xmlns="http://www.w3.org/2000/svg" width="24" height="24">
  <defs/>
  <path  d="M13,19 C13.552,19 14,19.448 14,20 L14,21 C14,21.552 13.552,22 13,22 L11,22 C10.448,22 10,21.552 10,21 L10,20 C10,19.448 10.448,19 11,19 L12,19 L11.759,18.99 C11.103,18.942 10.357,18.703 9.63,18.355 C8.698,17.901 7.837,17.314 7.074,16.612 C5.431,15.106 4,12.856 4,10 C4,5.582 7.582,2 12,2 C16.418,2 20,5.582 20,10 C20,12.856 18.569,15.106 16.926,16.612 C16.163,17.314 15.302,17.901 14.37,18.355 C13.552,18.747 12.71,19 12,19 Z M12,4.82 C11.337,6.01 10.5,8.008 10.5,10.5 C10.5,12.992 11.337,14.99 12,16.181 C12.663,14.991 13.5,12.992 13.5,10.501 C13.5,8.008 12.663,6.01 12,4.819 Z M9.988,4.346 C7.597,5.198 6,7.462 6,10 C6,12.144 7.069,13.894 8.426,15.138 C8.832,15.51 9.272,15.844 9.739,16.136 C8.929,14.367 8.507,12.445 8.5,10.5 C8.5,7.9 9.27,5.77 9.988,4.346 Z M14.012,4.346 C14.73,5.769 15.5,7.9 15.5,10.5 C15.5,12.8 14.897,14.734 14.26,16.136 C14.728,15.845 15.168,15.51 15.574,15.138 C16.931,13.894 18,12.144 18,10 C18,7.462 16.403,5.198 14.012,4.346 Z"/>
</svg>

