<svg xmlns="http://www.w3.org/2000/svg" width="24" height="24">
  <defs/>
  <path  d="M18,4 C19.657,4 21,5.343 21,7 L21,12 C21,13.657 19.657,15 18,15 L6,15 C4.343,15 3,13.657 3,12 L3,7 C3,5.343 4.343,4 6,4 Z M18,6 L6,6 C5.493,6 5.066,6.38 5.007,6.883 L5,7 L5,12 C5,12.507 5.38,12.934 5.883,12.993 L6,13 L6,11 C6,10.493 6.38,10.066 6.883,10.007 L7,10 L17,10 C17.507,10 17.934,10.38 17.993,10.883 L18,11 L18,13 C18.507,13 18.934,12.62 18.993,12.117 L19,12 L19,7 C19,6.493 18.62,6.066 18.117,6.007 Z M13,17 C13,16.448 13.448,16 14,16 C14.552,16 15,16.448 15,17 L15,18.172 C15,18.437 15.105,18.692 15.293,18.879 L15.707,19.293 C15.967,19.544 16.071,19.916 15.98,20.266 C15.888,20.615 15.615,20.888 15.266,20.98 C14.916,21.071 14.544,20.967 14.293,20.707 L13.879,20.293 C13.316,19.731 13,18.968 13,18.172 Z M10,16 C10.552,16 11,16.448 11,17 L11,18.172 C11,18.967 10.683,19.73 10.121,20.292 L9.707,20.707 C9.315,21.086 8.691,21.081 8.305,20.695 C7.919,20.309 7.914,19.685 8.293,19.293 L8.707,18.879 C8.895,18.692 9,18.437 9,18.172 L9,17 C9,16.448 9.448,16 10,16 Z M6,16 C6.552,16 7,16.448 7,17 L7,17.613 C7,18.474 6.449,19.238 5.632,19.51 L4.316,19.949 C3.792,20.124 3.226,19.84 3.051,19.316 C2.876,18.792 3.16,18.226 3.684,18.051 L5,17.613 L5,17 C5,16.448 5.448,16 6,16 Z M17,17 C17,16.448 17.448,16 18,16 C18.552,16 19,16.448 19,17 L19,17.613 L20.316,18.051 C20.84,18.226 21.124,18.792 20.949,19.316 C20.774,19.84 20.208,20.124 19.684,19.949 L18.368,19.509 C17.552,19.237 17.001,18.474 17,17.614 Z M16,12 L8,12 L8,13 L16,13 Z M16,7 C16.552,7 17,7.448 17,8 C17,8.552 16.552,9 16,9 C15.448,9 15,8.552 15,8 C15,7.448 15.448,7 16,7 Z"/>
</svg>

