<svg xmlns="http://www.w3.org/2000/svg" width="24" height="24">
  <defs/>
  <path  d="M12,2.065 C12.992,2.065 13.899,2.508 14.678,3.228 C16.138,4.577 17.45,6.925 18.521,9.271 C19.61,11.656 20.515,14.185 21.121,16.02 C21.793,18.053 20.914,20.218 19.117,21.296 C17.195,22.454 14.72,22.069 13.241,20.382 C12.826,19.907 12.413,19.432 12,18.955 C11.576,19.445 11.152,19.932 10.758,20.382 C9.279,22.068 6.804,22.453 4.883,21.296 C3.086,20.218 2.207,18.053 2.879,16.02 C3.485,14.185 4.39,11.656 5.479,9.271 C6.55,6.925 7.86,4.577 9.32,3.228 C10.1,2.508 11.007,2.065 11.999,2.065 Z M13.316,17.419 C13.796,17.975 14.287,18.54 14.747,19.065 C15.589,20.023 16.996,20.241 18.088,19.581 C19.122,18.96 19.586,17.749 19.222,16.647 C18.627,14.847 17.748,12.393 16.702,10.102 C15.638,7.773 14.464,5.752 13.322,4.697 C12.805,4.221 12.36,4.065 12,4.065 C11.639,4.065 11.194,4.221 10.678,4.697 C9.536,5.752 8.361,7.772 7.298,10.102 C6.252,12.393 5.373,14.847 4.778,16.647 C4.414,17.749 4.878,18.961 5.912,19.581 C7.004,20.241 8.412,20.024 9.254,19.065 C9.712,18.539 10.204,17.975 10.684,17.419 C10.053,16.674 9.513,16.018 9.2,15.599 C8.259,14.346 8.019,12.749 8.486,11.419 C8.972,10.035 10.213,8.999 12,8.999 C13.787,8.999 15.028,10.035 15.514,11.419 C15.981,12.749 15.74,14.346 14.8,15.599 C14.486,16.018 13.946,16.674 13.316,17.419 Z M12,15.877 C12.412,15.395 12.812,14.902 13.2,14.4 C13.759,13.654 13.862,12.752 13.627,12.082 C13.41,11.464 12.9,11 12,11 C11.099,11 10.59,11.464 10.373,12.082 C10.137,12.751 10.24,13.654 10.8,14.4 C11.188,14.902 11.588,15.394 12,15.877 Z"/>
</svg>

