<svg xmlns="http://www.w3.org/2000/svg" width="24" height="24">
  <defs/>
  <path  d="M12,1.565 C13.15,1.565 14.172,2.08 15.018,2.861 C16.558,4.283 17.903,6.713 18.976,9.064 C20.076,11.471 20.987,14.02 21.596,15.863 C22.345,18.129 21.362,20.533 19.374,21.724 C17.245,23.006 14.504,22.58 12.865,20.711 C12.589,20.395 12.297,20.061 12,19.718 C11.703,20.061 11.41,20.395 11.135,20.711 C9.497,22.58 6.754,23.008 4.625,21.725 C2.638,20.532 1.655,18.129 2.404,15.863 C3.013,14.02 3.924,11.471 5.024,9.063 C6.097,6.713 7.442,4.283 8.982,2.861 C9.828,2.081 10.851,1.565 12,1.565 Z M13.973,17.415 C14.361,17.863 14.752,18.311 15.123,18.735 C15.805,19.512 16.947,19.687 17.831,19.152 C18.674,18.646 19.035,17.673 18.747,16.804 C18.155,15.012 17.283,12.578 16.247,10.31 C15.186,7.985 14.045,6.046 12.982,5.065 C12.313,4.447 11.687,4.447 11.018,5.065 C9.955,6.046 8.814,7.985 7.753,10.31 C6.717,12.578 5.845,15.012 5.253,16.804 C4.965,17.672 5.326,18.646 6.169,19.152 C7.053,19.687 8.195,19.512 8.877,18.735 C9.248,18.311 9.639,17.863 10.027,17.415 C9.51,16.8 9.072,16.263 8.8,15.9 C7.765,14.519 7.489,12.748 8.015,11.252 C8.568,9.678 9.992,8.5 12,8.5 C14.008,8.5 15.432,9.678 15.985,11.252 C16.511,12.748 16.236,14.519 15.2,15.9 C14.928,16.263 14.49,16.799 13.973,17.415 Z M12,15.098 C12.339,14.69 12.617,14.344 12.8,14.1 C13.265,13.481 13.333,12.752 13.155,12.247 C13.005,11.822 12.68,11.5 12,11.5 C11.32,11.5 10.995,11.822 10.845,12.247 C10.667,12.752 10.736,13.48 11.2,14.1 C11.459,14.439 11.726,14.771 12,15.098 Z"/>
</svg>

