<svg xmlns="http://www.w3.org/2000/svg" width="24" height="24">
  <defs/>
  <path  d="M12,4 C8.288,3.998 5.063,6.55 4.211,10.162 C3.358,13.774 5.102,17.499 8.422,19.157 C8.916,19.404 9.116,20.005 8.868,20.5 C8.621,20.994 8.02,21.193 7.526,20.946 C4.138,19.251 1.999,15.788 2,12 C2,6.477 6.477,2 12,2 C17.523,2 22,6.477 22,12 C22.001,15.788 19.862,19.251 16.474,20.946 C15.98,21.193 15.379,20.994 15.132,20.5 C14.884,20.005 15.084,19.404 15.578,19.157 C18.898,17.499 20.642,13.774 19.789,10.162 C18.937,6.55 15.712,3.998 12,4 Z M12,8 C10.144,7.999 8.531,9.275 8.104,11.081 C7.678,12.888 8.55,14.75 10.211,15.579 C10.691,15.833 10.881,16.425 10.638,16.911 C10.394,17.397 9.807,17.599 9.316,17.367 C6.828,16.122 5.522,13.33 6.161,10.622 C6.801,7.914 9.218,6.001 12,6.001 C14.783,6.001 17.2,7.914 17.84,10.622 C18.479,13.33 17.173,16.122 14.685,17.367 C14.192,17.609 13.596,17.409 13.35,16.918 C13.104,16.426 13.3,15.829 13.789,15.579 C15.45,14.75 16.322,12.888 15.896,11.081 C15.469,9.275 13.856,7.999 12,8 Z M10,12 C10,10.895 10.895,10 12,10 C13.105,10 14,10.895 14,12 C14,13.105 13.105,14 12,14 C10.895,14 10,13.105 10,12 Z"/>
</svg>

