<svg xmlns="http://www.w3.org/2000/svg" width="24" height="24">
  <defs/>
  <path  d="M12,4.5 C8.52,4.498 5.496,6.89 4.697,10.277 C3.898,13.664 5.533,17.155 8.646,18.71 C9.387,19.081 9.687,19.983 9.316,20.723 C8.944,21.464 8.043,21.764 7.302,21.393 C3.745,19.614 1.499,15.977 1.5,12 C1.5,6.201 6.201,1.5 12,1.5 C17.799,1.5 22.5,6.201 22.5,12 C22.501,15.977 20.255,19.614 16.698,21.393 C15.957,21.764 15.056,21.464 14.684,20.723 C14.313,19.983 14.613,19.081 15.354,18.71 C18.467,17.155 20.102,13.664 19.303,10.277 C18.504,6.89 15.48,4.498 12,4.5 Z M12,8.5 C10.376,8.499 8.964,9.615 8.591,11.196 C8.218,12.777 8.981,14.407 10.435,15.132 C11.159,15.512 11.445,16.401 11.079,17.132 C10.713,17.863 9.83,18.166 9.092,17.814 C6.396,16.465 4.982,13.44 5.675,10.507 C6.368,7.573 8.986,5.501 12,5.501 C15.015,5.501 17.633,7.573 18.326,10.507 C19.019,13.44 17.605,16.465 14.909,17.814 C14.429,18.059 13.855,18.028 13.404,17.733 C12.954,17.438 12.696,16.923 12.729,16.386 C12.763,15.848 13.082,15.37 13.565,15.132 C15.019,14.407 15.782,12.777 15.409,11.196 C15.036,9.615 13.624,8.499 12,8.5 Z M9.5,12 C9.5,10.619 10.619,9.5 12,9.5 C13.381,9.5 14.5,10.619 14.5,12 C14.5,13.381 13.381,14.5 12,14.5 C10.619,14.5 9.5,13.381 9.5,12 Z"/>
</svg>

