<svg xmlns="http://www.w3.org/2000/svg" width="24" height="24">
  <defs/>
  <path  d="M6.5,4 C8.985,4 11,6.015 11,8.5 L11,17.5 C11,18.881 9.881,20 8.5,20 C7.119,20 6,18.881 6,17.5 L6,12.973 C3.623,12.712 1.866,10.637 1.999,8.25 C2.132,5.862 4.109,3.996 6.5,4 Z M17.5,4 C19.891,3.996 21.868,5.862 22.001,8.25 C22.134,10.637 20.377,12.712 18,12.973 L18,17.5 C18,18.881 16.881,20 15.5,20 C14.119,20 13,18.881 13,17.5 L13,8.5 C13,6.015 15.015,4 17.5,4 Z M4,8.5 C4,9.226 4.315,9.916 4.863,10.391 C5.412,10.866 6.14,11.079 6.858,10.975 C7.145,10.934 7.436,11.019 7.655,11.209 C7.874,11.399 8,11.675 8,11.965 L8,17.5 C8,17.776 8.224,18 8.5,18 C8.776,18 9,17.776 9,17.5 L9,8.5 C9,7.119 7.881,6 6.5,6 C5.119,6 4,7.119 4,8.5 Z M15,8.5 L15,17.5 C15,17.776 15.224,18 15.5,18 C15.776,18 16,17.776 16,17.5 L16,11.965 C16,11.675 16.126,11.399 16.345,11.209 C16.564,11.019 16.855,10.934 17.142,10.975 C18.175,11.124 19.192,10.616 19.693,9.701 C20.194,8.785 20.073,7.654 19.39,6.865 C18.707,6.075 17.606,5.794 16.627,6.158 C15.649,6.522 15,7.456 15,8.5 Z"/>
</svg>

