<svg xmlns="http://www.w3.org/2000/svg" width="24" height="24">
  <defs/>
  <path  d="M19.71,2.837 C20.443,2.984 21.016,3.557 21.163,4.29 A3.557 3.557 0 0 1 20.39,7.285 L17.639,10.537 L19.583,17.668 A1.25 1.25 0 0 1 19.261,18.881 L17.959,20.183 A1.01 1.01 0 0 1 16.362,19.959 L13.369,14.572 L10.111,16.827 L10.111,17.614 C10.111,17.945 9.979,18.264 9.745,18.498 L8.062,20.18 A1.01 1.01 0 0 1 6.389,19.785 L5.845,18.154 L4.214,17.61 A1.01 1.01 0 0 1 3.819,15.937 L5.502,14.254 A1.25 1.25 0 0 1 6.386,13.888 L7.173,13.888 L9.428,10.63 L4.041,7.637 A1.01 1.01 0 0 1 3.817,6.04 L5.119,4.738 A1.25 1.25 0 0 1 6.332,4.416 L13.462,6.36 L16.715,3.609 A3.557 3.557 0 0 1 19.71,2.836 Z"/>
</svg>

