<svg xmlns="http://www.w3.org/2000/svg" width="24" height="24">
  <defs/>
  <path  d="M19.71,2.837 C20.443,2.984 21.016,3.557 21.163,4.29 C21.376,5.354 21.091,6.457 20.39,7.285 L17.639,10.537 L19.583,17.668 C19.701,18.101 19.578,18.564 19.261,18.881 L17.959,20.183 C17.735,20.407 17.419,20.513 17.105,20.469 C16.791,20.425 16.516,20.236 16.362,19.959 L13.42,14.663 L10.562,17.044 L10.772,18.097 C10.855,18.507 10.727,18.931 10.431,19.227 L8.767,20.89 C8.537,21.119 8.212,21.224 7.891,21.172 C7.571,21.12 7.295,20.917 7.15,20.627 L5.89,18.11 L3.374,16.85 C3.084,16.705 2.881,16.429 2.829,16.109 C2.777,15.788 2.882,15.463 3.111,15.233 L4.775,13.569 C5.071,13.274 5.494,13.146 5.904,13.228 L6.957,13.438 L9.338,10.581 L4.042,7.638 C3.765,7.484 3.576,7.209 3.532,6.895 C3.488,6.581 3.594,6.265 3.818,6.041 L5.12,4.739 C5.437,4.422 5.9,4.299 6.333,4.417 L13.463,6.361 L16.716,3.61 C17.544,2.909 18.647,2.624 19.711,2.837 Z M19.218,4.782 C18.782,4.724 18.343,4.852 18.007,5.136 L14.357,8.225 C14.103,8.44 13.76,8.516 13.439,8.428 L6.226,6.46 L6.159,6.526 L11.354,9.412 C11.617,9.558 11.801,9.814 11.856,10.11 C11.912,10.406 11.832,10.711 11.639,10.942 L8.115,15.17 C7.878,15.455 7.504,15.587 7.141,15.514 L5.904,15.267 L5.496,15.675 L7.053,16.454 C7.266,16.56 7.439,16.733 7.545,16.946 L8.325,18.503 L8.732,18.095 L8.485,16.858 C8.412,16.495 8.544,16.121 8.829,15.884 L13.058,12.36 C13.289,12.167 13.594,12.087 13.89,12.143 C14.186,12.198 14.442,12.382 14.588,12.645 L17.473,17.84 L17.539,17.773 L15.572,10.56 C15.485,10.239 15.561,9.896 15.776,9.642 L18.864,5.992 C19.149,5.655 19.276,5.215 19.218,4.781 Z"/>
</svg>

