<svg xmlns="http://www.w3.org/2000/svg" width="24" height="24">
  <defs/>
  <path  d="M11.178,15.957 A1.01 1.01 0 0 1 12.741,15.857 L12.821,15.957 L15.802,20.125 A1.01 1.01 0 0 1 15.09,21.717 L14.98,21.723 L9.02,21.723 A1.01 1.01 0 0 1 8.139,20.218 L8.198,20.125 Z M12,18.247 L10.944,19.723 L13.056,19.723 L12,18.246 Z M20,4 A2 2 0 0 1 21.995,5.85 L22,6 L22,17 A2 2 0 0 1 20.15,18.995 L20,19 L16,19 L16,17 L20,17 L20,6 L4,6 L4,17 L8,17 L8,19 L4,19 A2 2 0 0 1 2.005,17.15 L2,17 L2,6 A2 2 0 0 1 3.85,4.005 L4,4 Z"/>
</svg>

