<svg xmlns="http://www.w3.org/2000/svg" width="24" height="24">
  <defs/>
  <path  d="M12,4 A9 9 0 1 1 12,22 A9 9 0 0 1 12,4 M12,6 A7 7 0 1 0 12,20 A7 7 0 0 0 12,6 M12,8 A1 1 0 0 1 12.993,8.883 L13,9 L13,12.586 L14.813,14.398 A1 1 0 0 1 13.493,15.896 L13.398,15.812 L11.293,13.707 A0.996 0.996 0 0 1 11.007,13.117 L11,12.987 L11,9 A1 1 0 0 1 12,8 M16.634,2.97 A1 1 0 0 1 18.001,2.606 A12.054 12.054 0 0 1 21.272,5.382 A1 1 0 0 1 19.728,6.652 A10.053 10.053 0 0 0 16.999,4.337 A1 1 0 0 1 16.634,2.971 Z M6,2.607 A1 1 0 1 1 7.002,4.338 A10.053 10.053 0 0 0 4.273,6.654 A1 1 0 1 1 2.729,5.384 A12.053 12.053 0 0 1 6,2.607"/>
</svg>

