<svg xmlns="http://www.w3.org/2000/svg" width="24" height="24">
  <defs/>
  <path  d="M17.5,3 A3.5 3.5 0 0 1 20.026,8.923 A8.962 8.962 0 0 1 21,13 A8.973 8.973 0 0 1 18.286,19.44 L18.064,19.65 L18.707,20.293 A1 1 0 0 1 17.387,21.79 L17.293,21.707 L16.425,20.839 A8.96 8.96 0 0 1 12,22 A8.962 8.962 0 0 1 7.88,21.004 L7.575,20.839 L6.707,21.707 A1 1 0 0 1 5.21,20.387 L5.293,20.293 L5.936,19.65 A8.977 8.977 0 0 1 3,13 A8.96 8.96 0 0 1 3.974,8.923 A3.5 3.5 0 1 1 9.307,4.41 A8.996 8.996 0 0 1 12,4 C12.938,4 13.842,4.143 14.693,4.41 A3.494 3.494 0 0 1 17.5,3 M12,6 A7 7 0 1 0 12,20 A7 7 0 0 0 12,6 M12,8 A1 1 0 0 1 13,9 L13,12.586 L14.813,14.398 A1 1 0 0 1 13.398,15.813 L11.293,13.707 A0.997 0.997 0 0 1 11,12.987 L11,9 A1 1 0 0 1 12,8 M6.5,5 A1.5 1.5 0 0 0 5.152,7.16 A9.044 9.044 0 0 1 7.372,5.28 A1.494 1.494 0 0 0 6.5,5 M17.5,5 C17.175,5 16.874,5.103 16.628,5.28 A9.043 9.043 0 0 1 18.848,7.16 A1.5 1.5 0 0 0 17.5,5"/>
</svg>

