<svg xmlns="http://www.w3.org/2000/svg" width="24" height="24">
  <defs/>
  <path  d="M12,4 A9 9 0 1 1 12,22 A9 9 0 0 1 12,4 M12,8 A1 1 0 0 0 11.007,8.883 L11,9 L11,12.986 A0.998 0.998 0 0 0 11.202,13.603 L11.292,13.707 L13.398,15.812 A1 1 0 0 0 14.896,14.492 L14.812,14.398 L13,12.586 L13,9 A1 1 0 0 0 12,8 M18,2.606 A12.054 12.054 0 0 1 21.272,5.382 A1 1 0 0 1 19.728,6.652 A10.053 10.053 0 0 0 16.999,4.337 A1 1 0 1 1 18.001,2.606 Z M7.366,2.971 A1 1 0 0 1 7,4.337 A10.053 10.053 0 0 0 4.271,6.653 A1 1 0 1 1 2.727,5.383 A12.053 12.053 0 0 1 5.998,2.606 A1 1 0 0 1 7.365,2.971 Z"/>
</svg>

