<svg xmlns="http://www.w3.org/2000/svg" width="24" height="24">
  <defs/>
  <path  d="M17.5,3 A3.5 3.5 0 0 1 20.026,8.923 A8.962 8.962 0 0 1 21,13 A8.977 8.977 0 0 1 18.064,19.65 L18.707,20.293 A1 1 0 0 1 17.293,21.707 L16.425,20.839 A8.96 8.96 0 0 1 12,22 A8.96 8.96 0 0 1 7.575,20.839 L6.707,21.707 A1 1 0 0 1 5.293,20.293 L5.936,19.65 A8.977 8.977 0 0 1 3,13 A8.96 8.96 0 0 1 3.974,8.923 A3.5 3.5 0 1 1 9.307,4.41 A8.996 8.996 0 0 1 12,4 C12.938,4 13.842,4.143 14.693,4.41 A3.494 3.494 0 0 1 17.5,3 M12,8 A1 1 0 0 0 11.007,8.883 L11,9 L11,12.986 A0.998 0.998 0 0 0 11.202,13.603 L11.292,13.707 L13.398,15.812 A1 1 0 0 0 14.896,14.492 L14.812,14.398 L13,12.586 L13,9 A1 1 0 0 0 12,8"/>
</svg>

