<svg xmlns="http://www.w3.org/2000/svg" width="24" height="24">
  <defs/>
  <path  d="M4.18,6 L19.82,6 C20.408,6 20.966,6.259 21.346,6.708 C21.725,7.156 21.889,7.749 21.792,8.329 L20.126,18.329 C19.965,19.293 19.131,20 18.153,20 L5.847,20 C4.869,20 4.035,19.293 3.874,18.329 L2.208,8.329 C2.111,7.749 2.275,7.156 2.654,6.708 C3.034,6.259 3.592,6 4.18,6 Z M4.18,8 L5.847,18 L18.153,18 L19.82,8 Z M6,3 L18,3 C18.552,3 19,3.448 19,4 C19,4.552 18.552,5 18,5 L6,5 C5.448,5 5,4.552 5,4 C5,3.448 5.448,3 6,3 Z"/>
</svg>

