<svg xmlns="http://www.w3.org/2000/svg" width="24" height="24">
  <defs/>
  <path  d="M15.314,2 C15.844,2 16.353,2.211 16.728,2.586 L21.414,7.272 C21.789,7.647 22,8.156 22,8.686 L22,15.314 C22,15.844 21.789,16.353 21.414,16.728 L16.728,21.414 C16.353,21.789 15.844,22 15.314,22 L8.686,22 C8.156,22 7.647,21.789 7.272,21.414 L2.586,16.728 C2.211,16.353 2,15.844 2,15.314 L2,8.686 C2,8.156 2.211,7.647 2.586,7.272 L7.272,2.586 C7.647,2.211 8.156,2 8.686,2 Z M12,6 C11.493,6 11.066,6.38 11.007,6.883 L11,7 L11,13 C11.001,13.529 11.413,13.966 11.941,13.997 C12.47,14.028 12.931,13.642 12.993,13.117 L13,13 L13,7 C13,6.448 12.552,6 12,6 Z M12,15 C11.448,15 11,15.448 11,16 C11,16.552 11.448,17 12,17 C12.552,17 13,16.552 13,16 C13,15.448 12.552,15 12,15 Z"/>
</svg>

