<svg xmlns="http://www.w3.org/2000/svg" width="24" height="24">
  <defs/>
  <path  d="M13.414,2.807 L21.192,10.586 C21.973,11.367 21.973,12.633 21.192,13.414 L13.414,21.192 C12.633,21.973 11.367,21.973 10.586,21.192 L2.808,13.414 C2.027,12.633 2.027,11.367 2.808,10.586 L10.586,2.807 C11.367,2.026 12.633,2.026 13.414,2.807 Z M12,8 C11.61,8 11.237,8.158 10.966,8.438 C10.694,8.717 10.548,9.095 10.56,9.485 L10.57,9.62 L11.008,13.124 C11.068,13.603 11.461,13.971 11.943,13.999 C12.425,14.027 12.858,13.706 12.972,13.237 L12.992,13.124 L13.43,9.62 C13.481,9.21 13.354,8.797 13.08,8.487 C12.807,8.177 12.413,8 12,8 Z M12.002,15 C11.473,15 11.034,15.412 11.003,15.94 C10.971,16.469 11.357,16.93 11.883,16.993 L12.003,17 C12.555,17 13.003,16.552 13.003,16 C13.003,15.448 12.555,15 12.003,15 Z"/>
</svg>

