<svg xmlns="http://www.w3.org/2000/svg" width="24" height="24">
  <defs/>
  <path  d="M15.314,2 A2 2 0 0 1 16.728,2.586 L21.414,7.272 A2 2 0 0 1 22,8.686 L22,15.314 A2 2 0 0 1 21.414,16.728 L16.728,21.414 A2 2 0 0 1 15.314,22 L8.686,22 A2 2 0 0 1 7.272,21.414 L2.586,16.728 A2 2 0 0 1 2,15.314 L2,8.686 A2 2 0 0 1 2.586,7.272 L7.272,2.586 A2 2 0 0 1 8.686,2 Z M15.314,4 L8.686,4 L4,8.686 L4,15.314 L8.686,20 L15.314,20 L20,15.314 L20,8.686 Z M12,15 A1 1 0 1 1 12,17 A1 1 0 0 1 12,15 M12,6 A1 1 0 0 1 13,7 L13,13 A1 1 0 1 1 11,13 L11,7 A1 1 0 0 1 12,6"/>
</svg>

