<svg xmlns="http://www.w3.org/2000/svg" width="24" height="24" viewBox="0 0 24 24">
  <defs/>
  <path  d="M12,2 C17.523,2 22,6.477 22,12 C22.003,13.92 21.451,15.801 20.41,17.414 C20.379,17.482 20.341,17.545 20.297,17.604 L20.225,17.689 C18.359,20.391 15.284,22.002 12,22 C6.477,22 2,17.523 2,12 C2,6.477 6.477,2 12,2 Z M17.984,6.695 C15.779,4.21 12.268,3.346 9.162,4.525 C6.056,5.703 4.002,8.678 4,12 C4,15.306 6.034,18.272 9.118,19.463 C12.203,20.655 15.702,19.825 17.924,17.377 L16.257,16.598 L16.257,16.598 L14.517,15.782 L14.517,15.782 L13.698,15.406 L13.698,15.406 C13.39,15.84 13.08,16.208 12.77,16.52 C11.648,17.641 10.52,18 9.5,18 C7.632,18 6,16.82 6,15 C6,13.316 7.48,12 9,12 C10.267,12 11.494,12.334 12.887,12.884 C13.043,12.582 13.191,12.277 13.331,11.967 L13.534,11.5 L9,11.5 C8.448,11.5 8,11.052 8,10.5 C8,9.987 8.386,9.564 8.883,9.507 L9,9.5 L11,9.5 L11,9 L8,9 C7.448,9 7,8.552 7,8 C7,7.487 7.386,7.064 7.883,7.007 L8,7 L11,7 L11,6 C11,5.448 11.448,5 12,5 C12.513,5 12.936,5.386 12.993,5.883 L13,6 L13,7 L16,7 C16.552,7 17,7.448 17,8 C17,8.513 16.614,8.936 16.117,8.993 L16,9 L13,9 L13,9.5 L15,9.5 C15.326,9.5 15.632,9.659 15.819,9.927 C16.006,10.194 16.051,10.536 15.939,10.842 C15.542,11.937 15.137,12.876 14.729,13.677 L15.51,14.038 L15.51,14.038 L18.6,15.486 C18.76,15.56 18.923,15.636 19.089,15.712 C20.629,12.768 20.189,9.18 17.984,6.695 Z M9,14 C8.52,14 8,14.484 8,15 C8,15.38 8.368,16 9.5,16 L9.7,15.991 C10.148,15.952 10.702,15.759 11.355,15.105 C11.512,14.948 11.659,14.782 11.797,14.608 C10.687,14.194 9.827,14 9,14 Z"/>
</svg>

