<svg xmlns="http://www.w3.org/2000/svg" width="24" height="24">
  <defs/>
  <path  d="M20.893,16.578 A9.957 9.957 0 0 0 22,12 C22,6.477 17.523,2 12,2 C6.477,2 2,6.477 2,12 C2,17.523 6.477,22 12,22 A9.981 9.981 0 0 0 19.794,18.265 L19.069,17.903 A258.153 258.153 0 0 1 15.877,16.419 C15.072,16.04 14.355,15.703 13.697,15.406 A8.582 8.582 0 0 1 12.77,16.52 C11.648,17.64 10.52,18 9.5,18 C7.632,18 6,16.82 6,15 C6,13.316 7.48,12 9,12 C10.268,12 11.494,12.334 12.887,12.884 C13.099,12.477 13.315,12.018 13.534,11.5 L9,11.5 A1 1 0 1 1 9,9.5 L11,9.5 L11,9 L8,9 A1 1 0 0 1 8,7 L11,7 L11,6 A1 1 0 1 1 13,6 L13,7 L16,7 A1 1 0 1 1 16,9 L13,9 L13,9.5 L15,9.5 A1 1 0 0 1 15.94,10.842 A25.217 25.217 0 0 1 14.728,13.677 C15.357,13.964 16.041,14.286 16.788,14.637 C17.726,15.079 18.763,15.567 19.914,16.09 L19.947,16.106 Z"/>
  <path  d="M9,14 C9.827,14 10.687,14.194 11.797,14.608 A5.85 5.85 0 0 1 11.355,15.105 C10.602,15.86 9.98,16 9.5,16 C8.368,16 8,15.38 8,15 C8,14.484 8.52,14 9,14"/>
</svg>

