<svg xmlns="http://www.w3.org/2000/svg" width="24" height="24">
  <defs/>
  <path  d="M7.457,5.027 C7.682,4.734 7.917,4.457 8.157,4.198 C9.106,5.341 10.515,6.001 12,6 C13.486,6.002 14.895,5.341 15.844,4.198 C16.084,4.456 16.318,4.734 16.544,5.028 C17.896,6.79 19,9.25 19,12 C19,14.75 17.897,17.209 16.543,18.973 C16.318,19.266 16.083,19.543 15.843,19.802 C14.894,18.659 13.485,17.999 12,18 C10.514,17.998 9.105,18.659 8.156,19.802 C7.916,19.544 7.682,19.266 7.456,18.972 C6.104,17.21 5,14.75 5,12 C5,9.25 6.103,6.791 7.457,5.027 Z M13,9 C13,8.448 12.552,8 12,8 C11.448,8 11,8.448 11,9 C10.448,9 10,9.448 10,10 C10,10.552 10.448,11 11,11 L11,13 C10.448,13 10,13.448 10,14 C10,14.552 10.448,15 11,15 C11,15.552 11.448,16 12,16 C12.552,16 13,15.552 13,15 C13.552,15 14,14.552 14,14 C14,13.448 13.552,13 13,13 L13,11 C13.552,11 14,10.552 14,10 C14,9.448 13.552,9 13,9 Z M12,2 C12.793,2 13.617,2.378 14.34,2.878 C13.771,3.588 12.91,4.001 12,4 C11.054,4 10.21,3.562 9.66,2.878 C10.383,2.378 11.207,2 12,2 Z M9.66,21.122 C10.21,20.438 11.054,20 12,20 C12.91,19.999 13.771,20.412 14.34,21.122 C13.617,21.622 12.793,22 12,22 C11.207,22 10.383,21.622 9.66,21.122 Z"/>
</svg>

