<svg xmlns="http://www.w3.org/2000/svg" width="24" height="24">
  <defs/>
  <path  d="M11,9.874 C9.054,9.366 7.788,7.493 8.042,5.498 C8.295,3.503 9.989,2.006 12,2 C14.016,1.998 15.718,3.496 15.972,5.496 C16.226,7.496 14.952,9.372 13,9.874 L13,19.938 C16.625,19.48 19.48,16.625 19.938,13 L18,13 C17.448,13 17,12.552 17,12 C17,11.448 17.448,11 18,11 L21,11 C21.552,11 22,11.448 22,12 C22,17.523 17.523,22 12,22 C6.477,22 2,17.523 2,12 C2,11.448 2.448,11 3,11 L6,11 C6.552,11 7,11.448 7,12 C7,12.552 6.552,13 6,13 L4.062,13 C4.52,16.625 7.375,19.48 11,19.938 Z M12,4 C10.895,4 10,4.895 10,6 C10,7.105 10.895,8 12,8 C13.105,8 14,7.105 14,6 C14,4.895 13.105,4 12,4 Z"/>
</svg>

