<svg xmlns="http://www.w3.org/2000/svg" width="24" height="24">
  <defs/>
  <path  d="M10.5,10.244 C8.437,9.511 7.2,7.399 7.571,5.241 C7.941,3.083 9.81,1.504 12,1.5 C14.193,1.498 16.068,3.078 16.439,5.239 C16.81,7.401 15.568,9.515 13.5,10.244 L13.5,19.35 C16.445,18.747 18.747,16.445 19.35,13.5 L18,13.5 C17.172,13.5 16.5,12.828 16.5,12 C16.5,11.172 17.172,10.5 18,10.5 L21,10.5 C21.828,10.5 22.5,11.172 22.5,12 C22.5,17.799 17.799,22.5 12,22.5 C6.201,22.5 1.5,17.799 1.5,12 C1.5,11.172 2.172,10.5 3,10.5 L6,10.5 C6.828,10.5 7.5,11.172 7.5,12 C7.5,12.828 6.828,13.5 6,13.5 L4.65,13.5 C5.253,16.445 7.555,18.747 10.5,19.35 Z M12,4.5 C11.172,4.5 10.5,5.172 10.5,6 C10.5,6.828 11.172,7.5 12,7.5 C12.828,7.5 13.5,6.828 13.5,6 C13.5,5.172 12.828,4.5 12,4.5 Z"/>
</svg>

