<svg xmlns="http://www.w3.org/2000/svg" width="24" height="24">
  <defs/>
  <path  d="M8.017,2.861 C9.685,1.235 12.356,1.268 13.982,2.936 C15.608,4.604 15.575,7.275 13.907,8.901 L13.741,9.05 L12.5,10.11 L16.599,14.893 C16.929,14.205 17.26,13.411 17.587,12.494 C17.866,11.714 18.725,11.307 19.505,11.586 C20.285,11.865 20.692,12.724 20.413,13.504 C19.936,14.839 19.432,15.992 18.903,16.984 L18.703,17.348 L20.139,19.023 C20.66,19.629 20.614,20.538 20.035,21.088 C19.455,21.639 18.546,21.638 17.967,21.087 L17.861,20.975 L16.914,19.87 C16.615,20.198 16.293,20.503 15.95,20.785 C14.232,22.192 12.484,22.5 11,22.5 C7.77,22.5 4.5,19.924 4.5,16 C4.5,14.864 4.93,13.817 5.445,12.957 C5.966,12.086 6.638,11.298 7.272,10.65 C7.518,10.4 7.762,10.164 7.998,9.949 L8.23,9.739 L7.631,9.041 C6.18,7.348 6.211,4.84 7.704,3.183 L7.863,3.016 Z M10.183,12.018 C9.936,12.238 9.675,12.484 9.416,12.749 C8.878,13.299 8.378,13.899 8.02,14.497 C7.655,15.107 7.5,15.611 7.5,16 C7.5,18.076 9.23,19.5 11,19.5 C12.016,19.5 13.018,19.308 14.05,18.464 C14.28,18.276 14.516,18.052 14.759,17.781 L14.942,17.571 Z M11.861,4.983 C11.422,4.544 10.723,4.505 10.238,4.893 L10.138,4.983 L9.984,5.137 L9.884,5.247 C9.482,5.742 9.454,6.447 9.818,6.971 L9.908,7.089 L10.548,7.834 L11.792,6.77 L11.892,6.673 C12.338,6.193 12.325,5.447 11.862,4.983 Z"/>
</svg>

