<svg xmlns="http://www.w3.org/2000/svg" width="24" height="24">
  <defs/>
  <path  d="M11.795,10.057 L11.794,10.057 L16.708,15.789 C17.162,14.934 17.615,13.905 18.058,12.664 C18.244,12.144 18.816,11.872 19.336,12.058 C19.856,12.244 20.128,12.816 19.942,13.336 C19.36,14.966 18.742,16.307 18.093,17.406 L19.759,19.349 C20.111,19.769 20.06,20.394 19.644,20.751 C19.228,21.108 18.602,21.063 18.241,20.651 L16.916,19.106 C16.532,19.578 16.102,20.011 15.633,20.399 C14.03,21.711 12.406,22 11,22 C8.014,22 5,19.616 5,16 C5,14.988 5.384,14.032 5.875,13.214 C6.369,12.388 7.012,11.631 7.63,11 C8.045,10.577 8.48,10.174 8.933,9.792 L8.011,8.716 C6.672,7.154 6.761,4.825 8.216,3.37 L8.371,3.215 C9.335,2.251 10.749,1.892 12.056,2.278 C13.363,2.665 14.353,3.736 14.637,5.07 C14.921,6.403 14.452,7.784 13.416,8.67 Z M15.59,17.559 L10.235,11.31 C9.826,11.655 9.433,12.019 9.058,12.4 C8.504,12.965 7.976,13.596 7.591,14.24 C7.2,14.892 7,15.487 7,16 C7,18.384 8.986,20 11,20 C12.094,20 13.22,19.789 14.367,18.851 C14.824,18.47 15.234,18.036 15.59,17.559 Z M12.215,4.63 C11.544,3.959 10.456,3.959 9.785,4.63 L9.63,4.784 C8.915,5.5 8.871,6.646 9.53,7.414 L10.493,8.538 L12.117,7.15 C12.877,6.499 12.923,5.337 12.215,4.63 Z"/>
</svg>

