<svg xmlns="http://www.w3.org/2000/svg" width="24" height="24">
  <defs/>
  <path  d="M12,3 C13.33,3 14.584,3.324 15.687,3.899 L16.293,3.293 A1 1 0 1 1 17.707,4.707 L17.357,5.057 A7.98 7.98 0 0 1 20,11 L20,19 A3 3 0 0 1 17,22 L7,22 A3 3 0 0 1 4,19 L4,11 A7.98 7.98 0 0 1 6.644,5.058 L6.293,4.708 A1 1 0 0 1 7.707,3.293 L8.313,3.899 A7.966 7.966 0 0 1 12,3 M18,14 L6,14 L6,19 A1 1 0 0 0 7,20 L17,20 A1 1 0 0 0 18,19 Z M12,5 A6 6 0 0 0 6.004,10.775 L6,11 L6,12 L18,12 L18,11 A6 6 0 0 0 12,5 M9,8 A1 1 0 1 1 9,10 A1 1 0 0 1 9,8 M15,8 A1 1 0 1 1 15,10 A1 1 0 0 1 15,8"/>
</svg>

