<svg xmlns="http://www.w3.org/2000/svg" width="24" height="24">
  <defs/>
  <path  d="M18.447,4.106 A1 1 0 0 1 18.894,5.447 L17.72,7.797 A9.989 9.989 0 0 1 22,16 L22,17 A2 2 0 0 1 20,19 L4,19 A2 2 0 0 1 2,17 L2,16 A9.988 9.988 0 0 1 6.28,7.796 L5.106,5.447 A1 1 0 0 1 6.894,4.553 L8.028,6.82 A9.967 9.967 0 0 1 12,6 C13.411,6 14.755,6.292 15.972,6.82 L17.106,4.553 A1 1 0 0 1 18.447,4.106 M12,8 A8 8 0 0 0 4,16 L4,17 L20,17 L20,16 A8 8 0 0 0 12,8 M8.5,12 A1.5 1.5 0 1 1 8.5,15 A1.5 1.5 0 0 1 8.5,12 M15.5,12 A1.5 1.5 0 1 1 15.5,15 A1.5 1.5 0 0 1 15.5,12"/>
</svg>

