<svg xmlns="http://www.w3.org/2000/svg" width="24" height="24">
  <defs/>
  <path  d="M20,14 L20,19 C20,20.657 18.657,22 17,22 L7,22 C5.343,22 4,20.657 4,19 L4,14 Z M12,3 C13.33,3 14.584,3.324 15.687,3.899 L16.293,3.293 C16.544,3.033 16.916,2.929 17.266,3.02 C17.615,3.112 17.888,3.385 17.98,3.734 C18.071,4.084 17.967,4.456 17.707,4.707 L17.357,5.057 C19.042,6.573 20.003,8.734 20,11 L20,12 L4,12 L4,11 C3.998,8.734 4.959,6.573 6.644,5.058 L6.293,4.708 C5.902,4.318 5.902,3.684 6.293,3.293 C6.683,2.903 7.316,2.903 7.707,3.293 L8.313,3.899 C9.452,3.307 10.717,2.998 12,3 Z M9,7 C8.448,7 8,7.448 8,8 C8,8.552 8.448,9 9,9 C9.552,9 10,8.552 10,8 C10,7.448 9.552,7 9,7 Z M15,7 C14.448,7 14,7.448 14,8 C14,8.552 14.448,9 15,9 C15.552,9 16,8.552 16,8 C16,7.448 15.552,7 15,7 Z"/>
</svg>

