<svg xmlns="http://www.w3.org/2000/svg" width="24" height="24">
  <defs/>
  <path  d="M18.447,4.106 C18.941,4.353 19.141,4.953 18.894,5.447 L17.72,7.797 C20.403,9.666 22.002,12.73 22,16 L22,17 C22,18.105 21.105,19 20,19 L4,19 C2.895,19 2,18.105 2,17 L2,16 C1.997,12.73 3.596,9.665 6.28,7.796 L5.106,5.447 C4.933,5.126 4.948,4.736 5.146,4.43 C5.344,4.124 5.693,3.949 6.056,3.975 C6.42,4 6.741,4.222 6.894,4.553 L8.028,6.82 C9.282,6.277 10.634,5.998 12,6 C13.411,6 14.755,6.292 15.972,6.82 L17.106,4.553 C17.353,4.059 17.953,3.859 18.447,4.106 Z M7.5,12 C6.672,12 6,12.672 6,13.5 C6,14.328 6.672,15 7.5,15 C8.328,15 9,14.328 9,13.5 C9,12.672 8.328,12 7.5,12 Z M16.5,12 C15.672,12 15,12.672 15,13.5 C15,14.328 15.672,15 16.5,15 C17.328,15 18,14.328 18,13.5 C18,12.672 17.328,12 16.5,12 Z"/>
</svg>

