<svg xmlns="http://www.w3.org/2000/svg" width="24" height="24">
  <defs/>
  <path  d="M12,2 C14.536,2 16.862,2.228 18.58,2.61 C19.432,2.799 20.19,3.038 20.758,3.336 C21.041,3.486 21.327,3.674 21.553,3.92 C21.783,4.17 22,4.536 22,5 C22,5.464 21.784,5.83 21.553,6.08 C21.323,6.318 21.054,6.516 20.758,6.664 C20.682,6.703 20.606,6.741 20.528,6.776 C21.493,8.347 22.003,10.156 22,12 C22,17.523 17.523,22 12,22 C6.477,22 2,17.523 2,12 C2,10.085 2.538,8.297 3.471,6.776 C3.394,6.741 3.317,6.703 3.242,6.664 C2.946,6.516 2.677,6.318 2.447,6.08 C2.217,5.83 2,5.464 2,5 C2,4.536 2.216,4.17 2.447,3.92 C2.673,3.674 2.959,3.485 3.242,3.336 C3.811,3.038 4.568,2.799 5.419,2.61 C7.138,2.228 9.464,2 12,2 Z M12,4 C9.565,4 7.391,4.22 5.853,4.562 L5.421,4.664 L5.188,4.728 L5,4.788 C4.584,4.937 4.584,5.063 5,5.211 L5.188,5.272 L5.421,5.336 L5.853,5.438 C7.391,5.78 9.565,6 12,6 C14.435,6 16.609,5.78 18.147,5.438 L18.579,5.336 L18.812,5.272 L19,5.212 C19.416,5.063 19.416,4.937 19,4.789 L18.812,4.728 L18.579,4.664 L18.147,4.562 C16.609,4.22 14.435,4 12,4 Z M13.984,15.25 C13.454,15.718 12.761,16 12,16 C11.269,16.001 10.563,15.734 10.016,15.25 C9.602,14.884 8.97,14.924 8.604,15.338 C8.238,15.752 8.278,16.384 8.692,16.75 C9.605,17.557 10.782,18.001 12,18 C13.218,18.002 14.395,17.557 15.308,16.75 C15.722,16.384 15.762,15.752 15.396,15.338 C15.03,14.924 14.398,14.884 13.984,15.25 Z M8.5,10 C7.413,10 6.542,10.68 6.106,11.552 C5.868,12.026 6.041,12.603 6.5,12.867 C6.96,13.132 7.545,12.992 7.836,12.549 L7.894,12.448 C8.056,12.124 8.304,12 8.5,12 C8.67,12 8.882,12.095 9.041,12.336 L9.106,12.448 C9.264,12.77 9.583,12.983 9.942,13.005 C10.3,13.027 10.643,12.855 10.84,12.555 C11.037,12.255 11.057,11.872 10.894,11.552 C10.457,10.681 9.587,10 8.5,10 Z M15.5,10 C14.413,10 13.543,10.68 13.106,11.552 C12.868,12.026 13.041,12.603 13.5,12.867 C13.96,13.132 14.545,12.992 14.836,12.549 L14.894,12.448 C15.056,12.124 15.304,12 15.5,12 C15.67,12 15.882,12.095 16.041,12.336 L16.106,12.448 C16.264,12.77 16.583,12.983 16.942,13.005 C17.3,13.027 17.643,12.855 17.84,12.555 C18.037,12.255 18.057,11.872 17.894,11.552 C17.458,10.681 16.587,10 15.5,10 Z"/>
</svg>

