<svg xmlns="http://www.w3.org/2000/svg" width="24" height="24">
  <defs/>
  <path  d="M12,2 C14.536,2 16.862,2.228 18.58,2.61 C19.432,2.799 20.19,3.038 20.758,3.336 C21.041,3.486 21.327,3.674 21.553,3.92 C21.783,4.17 22,4.536 22,5 C22,5.464 21.784,5.83 21.553,6.08 C21.323,6.318 21.054,6.516 20.758,6.664 C20.189,6.962 19.432,7.201 18.581,7.39 C16.862,7.772 14.536,8 12,8 C9.464,8 7.138,7.772 5.42,7.39 C4.568,7.201 3.81,6.962 3.242,6.664 C2.946,6.516 2.677,6.318 2.447,6.08 C2.217,5.83 2,5.464 2,5 C2,4.536 2.216,4.17 2.447,3.92 C2.673,3.674 2.959,3.485 3.242,3.336 C3.811,3.038 4.568,2.799 5.419,2.61 C7.138,2.228 9.464,2 12,2 Z M21.43,8.667 C21.808,9.738 22.001,10.865 22,12 C22,17.523 17.523,22 12,22 C6.477,22 2,17.523 2,12 C2,10.833 2.2,9.71 2.57,8.667 C2.681,8.32 2.972,8.062 3.33,7.992 C3.687,7.922 4.054,8.052 4.288,8.33 C4.522,8.609 4.586,8.993 4.455,9.333 C3.287,12.648 4.418,16.337 7.245,18.426 C10.071,20.515 13.929,20.515 16.755,18.426 C19.582,16.337 20.713,12.648 19.545,9.333 C19.361,8.812 19.634,8.241 20.155,8.057 C20.676,7.873 21.247,8.146 21.431,8.667 Z M12,4 C9.565,4 7.391,4.22 5.853,4.562 L5.421,4.664 C4.316,4.947 4.461,5.129 5.853,5.438 C7.391,5.78 9.565,6 12,6 C14.435,6 16.609,5.78 18.147,5.438 L18.579,5.336 C19.684,5.053 19.539,4.871 18.147,4.562 C16.609,4.22 14.435,4 12,4 Z M15.396,15.338 C15.762,15.752 15.722,16.384 15.308,16.75 C14.395,17.557 13.218,18.002 12,18 C10.782,18.002 9.605,17.557 8.692,16.75 C8.278,16.384 8.238,15.752 8.604,15.338 C8.97,14.924 9.602,14.884 10.016,15.25 C10.546,15.718 11.239,16 12,16 C12.761,16 13.455,15.718 13.984,15.25 C14.398,14.884 15.03,14.924 15.396,15.338 Z M15.5,10 C16.587,10 17.457,10.68 17.894,11.552 C18.132,12.026 17.959,12.603 17.5,12.867 C17.04,13.132 16.455,12.992 16.164,12.549 L16.106,12.448 C15.944,12.124 15.696,12 15.5,12 C15.33,12 15.118,12.095 14.959,12.336 L14.894,12.448 C14.736,12.77 14.417,12.983 14.058,13.005 C13.7,13.027 13.357,12.855 13.16,12.555 C12.963,12.255 12.943,11.872 13.106,11.552 C13.543,10.68 14.413,10 15.5,10 Z M8.5,10 C9.587,10 10.457,10.68 10.894,11.552 C11.132,12.026 10.959,12.603 10.5,12.867 C10.04,13.132 9.455,12.992 9.164,12.549 L9.106,12.448 C8.944,12.124 8.696,12 8.5,12 C8.33,12 8.118,12.095 7.959,12.336 L7.894,12.448 C7.644,12.937 7.047,13.133 6.555,12.887 C6.064,12.641 5.864,12.045 6.106,11.552 C6.542,10.68 7.413,10 8.5,10 Z"/>
</svg>

