<svg xmlns="http://www.w3.org/2000/svg" width="24" height="24">
  <defs/>
  <path  d="M12,2 C17.523,2 22,6.477 22,12 C22,17.523 17.523,22 12,22 C6.477,22 2,17.523 2,12 C2,6.477 6.477,2 12,2 Z M12,13 C10.782,12.999 9.606,13.443 8.693,14.25 C8.279,14.615 8.239,15.247 8.604,15.661 C8.97,16.076 9.602,16.115 10.016,15.75 C10.563,15.266 11.269,14.999 12,15 C12.731,14.998 13.437,15.265 13.984,15.75 C14.398,16.116 15.03,16.076 15.396,15.662 C15.762,15.248 15.722,14.616 15.308,14.25 C14.395,13.443 13.218,12.998 12,13 Z M15.553,8.106 L13.553,9.106 C13.222,9.259 13,9.58 12.975,9.944 C12.949,10.307 13.124,10.656 13.43,10.854 C13.736,11.052 14.126,11.067 14.447,10.894 L16.447,9.894 C16.778,9.741 17,9.42 17.025,9.056 C17.051,8.693 16.876,8.344 16.57,8.146 C16.264,7.948 15.874,7.933 15.553,8.106 Z M7.106,8.553 C6.859,9.047 7.059,9.647 7.553,9.894 L9.553,10.894 C9.874,11.067 10.264,11.052 10.57,10.854 C10.876,10.656 11.051,10.307 11.025,9.944 C11,9.58 10.778,9.259 10.447,9.106 L8.447,8.106 C7.953,7.859 7.353,8.059 7.106,8.553 Z"/>
</svg>

