<svg xmlns="http://www.w3.org/2000/svg" width="24" height="24">
  <defs/>
  <path  d="M12,2 C17.523,2 22,6.477 22,12 C22,17.523 17.523,22 12,22 C6.477,22 2,17.523 2,12 C2,6.477 6.477,2 12,2 M12,4 A8 8 0 1 0 12,20 A8 8 0 0 0 12,4 M12,13 C13.268,13 14.427,13.473 15.308,14.25 A1 1 0 1 1 13.984,15.75 A2.985 2.985 0 0 0 12,15 C11.239,15 10.545,15.282 10.016,15.75 A1 1 0 1 1 8.693,14.25 A4.985 4.985 0 0 1 12,13 M8.34,8.06 L8.447,8.106 L10.447,9.106 A1 1 0 0 1 9.66,10.941 L9.553,10.894 L7.553,9.894 A1 1 0 0 1 8.23,8.027 L8.34,8.059 Z M15.553,8.106 A1 1 0 0 1 16.549,9.836 L16.447,9.894 L14.447,10.894 A1 1 0 0 1 13.451,9.164 L13.553,9.106 Z"/>
</svg>

