<svg xmlns="http://www.w3.org/2000/svg" width="24" height="24">
  <defs/>
  <path  d="M16,3 C16.507,3 16.934,3.38 16.993,3.883 L17,4 L17,5 L19,5 C20.047,5 20.917,5.806 20.995,6.85 L21,7 L21,19 C21,20.047 20.194,20.917 19.15,20.995 L19,21 L5,21 C3.953,21 3.083,20.194 3.005,19.15 L3,19 L3,7 C3,5.953 3.806,5.083 4.85,5.005 L5,5 L7,5 L7,4 C7.001,3.471 7.413,3.034 7.941,3.003 C8.47,2.972 8.931,3.358 8.993,3.883 L9,4 L9,5 L15,5 L15,4 C15,3.448 15.448,3 16,3 Z M19,7 L5,7 L5,19 L19,19 Z M15.166,8.876 C16.278,9.524 17.032,10.818 16.999,12.298 C16.958,14.134 15.589,15.642 13.561,16.898 L13.315,17.047 C12.912,17.287 12.485,17.555 12,17.555 C11.636,17.555 11.305,17.405 10.992,17.227 L10.685,17.047 C8.522,15.762 7.044,14.207 7.001,12.298 C6.968,10.818 7.722,9.524 8.834,8.876 C9.788,8.32 10.969,8.269 12,8.913 C13.03,8.269 14.212,8.32 15.166,8.876 Z M14.159,10.604 C13.78,10.384 13.329,10.358 12.881,10.74 L12.77,10.845 C12.381,11.238 11.758,11.275 11.325,10.93 L11.23,10.845 C10.746,10.355 10.251,10.365 9.841,10.605 C9.38,10.873 8.983,11.475 9.001,12.253 C9.018,13.033 9.619,14.033 11.469,15.183 L11.707,15.327 C11.804,15.385 11.901,15.444 12,15.499 L12.147,15.414 L12.293,15.327 C14.329,14.117 14.981,13.065 14.999,12.253 C15.017,11.475 14.62,10.873 14.159,10.604 Z"/>
</svg>

