<svg xmlns="http://www.w3.org/2000/svg" width="24" height="24">
  <defs/>
  <path  d="M8,3 C8.552,3 9,3.448 9,4 L9,5 L15,5 L15,4 C15,3.448 15.448,3 16,3 C16.552,3 17,3.448 17,4 L17,5 L19,5 C20.105,5 21,5.895 21,7 L21,19 C21,20.105 20.105,21 19,21 L5,21 C3.895,21 3,20.105 3,19 L3,7 C3,5.895 3.895,5 5,5 L7,5 L7,4 C7,3.448 7.448,3 8,3 Z M11.941,10.141 C10.303,8.484 7.951,10.017 8.001,12.276 C8.031,13.636 9.096,14.94 11.196,16.187 L11.249,16.219 C11.496,16.366 11.814,16.555 12,16.555 C12.186,16.555 12.504,16.366 12.75,16.219 L12.804,16.187 C14.904,14.94 15.969,13.636 15.999,12.276 C16.049,10.016 13.697,8.484 12.059,10.141 C12.027,10.173 11.974,10.173 11.942,10.141 Z"/>
</svg>

