<svg xmlns="http://www.w3.org/2000/svg" width="24" height="24">
  <defs/>
  <path  d="M15.992,3.013 C17.326,2.236 19,3.197 19,4.741 L19,8 C20.657,8 22,9.343 22,11 C22,12.657 20.657,14 19,14 L19,17 C19,18.648 17.119,19.589 15.8,18.6 L13.74,17.054 C12.639,16.228 11.357,15.677 10,15.446 L10,18.29 C10,19.642 9.004,20.787 7.666,20.974 C6.327,21.162 5.055,20.334 4.684,19.034 L3.114,13.538 C1.962,12.177 1.679,10.281 2.383,8.643 C3.088,7.005 4.659,5.907 6.44,5.808 L9.458,5.64 C10.935,5.558 12.371,5.126 13.648,4.381 Z M5.634,15.078 L6.607,18.485 C6.704,18.826 7.037,19.043 7.388,18.994 C7.74,18.945 8.001,18.644 8,18.29 L8,15.28 L6.44,15.193 C6.169,15.178 5.899,15.139 5.634,15.078 Z M20,11 C20,10.448 19.552,10 19,10 L19,12 C19.552,12 20,11.552 20,11 Z"/>
</svg>

