<svg xmlns="http://www.w3.org/2000/svg" width="24" height="24">
  <defs/>
  <path  d="M19,4.741 L19,8 C20.657,8 22,9.343 22,11 C22,12.657 20.657,14 19,14 L19,17 C19,18.648 17.119,19.589 15.8,18.6 L13.74,17.054 C12.639,16.228 11.357,15.677 10,15.446 L10,18.29 C10,19.642 9.004,20.787 7.666,20.974 C6.327,21.162 5.055,20.334 4.684,19.034 L3.114,13.538 C1.962,12.177 1.679,10.281 2.383,8.643 C3.088,7.005 4.659,5.907 6.44,5.808 L9.458,5.64 C10.935,5.558 12.371,5.126 13.648,4.381 L15.992,3.013 C17.326,2.236 19,3.197 19,4.741 Z M17,4.741 L14.655,6.11 C13.23,6.94 11.642,7.45 10,7.604 L10,13.423 C11.787,13.669 13.488,14.366 14.94,15.454 L17,17 Z M8,7.724 L6.55,7.804 C5.152,7.881 4.044,9.015 4,10.415 C3.956,11.814 4.989,13.016 6.38,13.181 L6.55,13.196 L8,13.276 Z M5.634,15.078 L6.607,18.485 C6.704,18.826 7.037,19.043 7.388,18.994 C7.74,18.945 8.001,18.644 8,18.29 L8,15.28 L6.44,15.193 C6.169,15.178 5.899,15.139 5.634,15.078 Z M19,10 L19,12 C19.529,11.999 19.966,11.587 19.997,11.059 C20.028,10.53 19.642,10.069 19.117,10.007 Z"/>
</svg>

