<svg xmlns="http://www.w3.org/2000/svg" width="24" height="24">
  <defs/>
  <path  d="M20,8 A2 2 0 0 1 21.995,9.85 L22,10 L22,19 A2 2 0 0 1 20.15,20.995 L20,21 L10,21 A2 2 0 0 1 8.005,19.15 L8,19 L8,10 A2 2 0 0 1 9.85,8.005 L10,8 Z M20,10 L10,10 L10,19 L20,19 Z M10.94,3.658 A1 1 0 0 1 10.342,4.94 C8.463,5.623 7.082,6.982 6.08,8.456 C5.078,9.93 4.496,11.464 4.205,12.391 C3.974,13.126 3.257,13.192 2.972,13.151 C2.688,13.111 2,12.844 2,12.056 L2,7 A1 1 0 0 1 4,7 L4,7.995 C4.134,7.775 4.275,7.553 4.426,7.331 C5.576,5.638 7.261,3.931 9.658,3.06 A1 1 0 0 1 10.94,3.658"/>
</svg>

