<svg xmlns="http://www.w3.org/2000/svg" width="24" height="24">
  <defs/>
  <path  d="M14,8 A2 2 0 0 1 15.995,9.85 L16,10 L16,19 A2 2 0 0 1 14.15,20.995 L14,21 L4,21 A2 2 0 0 1 2.005,19.15 L2,19 L2,10 A2 2 0 0 1 3.85,8.005 L4,8 Z M14,10 L4,10 L4,19 L14,19 Z M18,3 A1 1 0 1 1 18,5 L17.005,5 C17.225,5.134 17.447,5.275 17.668,5.426 C19.362,6.576 21.068,8.261 21.94,10.658 A1 1 0 1 1 20.06,11.342 C19.377,9.463 18.018,8.082 16.544,7.08 C15.07,6.078 13.536,5.496 12.609,5.205 C11.874,4.974 11.808,4.257 11.849,3.972 C11.889,3.688 12.156,3 12.944,3 Z"/>
</svg>

