<svg xmlns="http://www.w3.org/2000/svg" width="24" height="24">
  <defs/>
  <path  d="M9.886,2.452 C10.474,1.986 11.175,1.75 11.996,1.75 C12.814,1.75 13.515,1.986 14.102,2.45 C14.649,2.882 15.023,3.455 15.32,3.987 C15.418,4.161 15.51,4.334 15.598,4.507 C15.768,4.471 15.94,4.437 16.115,4.407 C16.72,4.299 17.408,4.224 18.093,4.374 C18.831,4.534 19.463,4.931 19.984,5.575 C20.537,6.258 20.788,6.999 20.765,7.792 C20.745,8.517 20.495,9.202 20.244,9.797 C20.194,9.914 20.144,10.03 20.092,10.147 C20.225,10.259 20.358,10.372 20.489,10.49 C20.953,10.903 21.446,11.402 21.758,12.036 C22.096,12.723 22.178,13.473 21.988,14.292 C21.808,15.07 21.436,15.691 20.87,16.157 C20.34,16.593 19.716,16.833 19.144,17.004 C18.944,17.064 18.724,17.122 18.498,17.179 C18.493,17.437 18.485,17.689 18.468,17.923 C18.426,18.507 18.326,19.154 18.016,19.754 C17.687,20.392 17.172,20.88 16.472,21.222 C15.699,21.599 14.937,21.682 14.18,21.495 C13.485,21.324 12.88,20.942 12.366,20.573 C12.243,20.484 12.121,20.394 12,20.303 C11.88,20.393 11.76,20.483 11.637,20.571 C11.122,20.941 10.517,21.324 9.822,21.496 C9.065,21.685 8.302,21.601 7.528,21.224 C6.828,20.883 6.314,20.396 5.985,19.759 C5.675,19.161 5.573,18.514 5.531,17.931 C5.514,17.695 5.505,17.441 5.5,17.182 C5.285,17.129 5.071,17.072 4.859,17.01 C4.286,16.839 3.659,16.6 3.129,16.164 C2.562,15.697 2.189,15.076 2.009,14.297 C1.819,13.479 1.9,12.73 2.237,12.043 C2.547,11.409 3.039,10.911 3.502,10.497 C3.635,10.379 3.768,10.264 3.902,10.151 C3.851,10.036 3.801,9.921 3.752,9.806 C3.5,9.21 3.25,8.524 3.228,7.799 C3.204,7.005 3.454,6.263 4.008,5.579 C4.528,4.936 5.159,4.539 5.898,4.378 C6.581,4.228 7.268,4.302 7.873,4.408 C8.049,4.439 8.222,4.473 8.393,4.508 C8.481,4.338 8.572,4.165 8.668,3.992 C8.965,3.46 9.34,2.885 9.886,2.452 Z M6.951,10.854 L6.952,10.854 C7.32,11.736 7.608,12.65 7.812,13.584 L7.822,13.631 L7.829,13.677 C7.897,14.189 7.942,14.705 7.964,15.221 C8.55,15.382 9.127,15.576 9.692,15.8 L9.736,15.818 L9.779,15.839 C10.553,16.225 11.296,16.671 11.999,17.175 C12.634,16.725 13.377,16.251 14.232,15.831 L14.275,15.81 L14.319,15.793 C14.928,15.55 15.502,15.367 16.032,15.22 C16.054,14.698 16.1,14.178 16.17,13.66 L16.176,13.613 L16.186,13.566 C16.391,12.637 16.678,11.729 17.044,10.851 C16.455,10.333 15.904,9.773 15.394,9.176 L15.363,9.139 L15.335,9.101 C14.91,8.511 14.551,7.911 14.244,7.351 C13.52,7.487 12.788,7.575 12.052,7.615 L11.99,7.618 L11.93,7.615 C11.15,7.576 10.412,7.472 9.75,7.352 C9.44,7.915 9.078,8.519 8.65,9.113 L8.621,9.153 L8.591,9.189 C8.084,9.782 7.536,10.338 6.951,10.854 Z M13.029,5.018 C12.833,4.692 12.683,4.515 12.552,4.411 C12.44,4.323 12.297,4.25 11.995,4.25 C11.693,4.25 11.55,4.323 11.438,4.412 C11.308,4.515 11.158,4.692 10.962,5.018 C11.284,5.061 11.624,5.095 11.992,5.115 C12.362,5.095 12.705,5.061 13.029,5.018 Z M7.17,6.828 C6.815,6.78 6.591,6.785 6.432,6.82 C6.29,6.851 6.142,6.916 5.951,7.152 C5.752,7.398 5.721,7.561 5.726,7.724 C5.731,7.893 5.779,8.11 5.894,8.426 C6.142,8.181 6.394,7.913 6.65,7.612 C6.844,7.341 7.015,7.08 7.17,6.828 Z M18.1,8.422 C18.214,8.106 18.261,7.889 18.266,7.721 C18.271,7.557 18.24,7.394 18.041,7.149 C17.85,6.912 17.702,6.847 17.561,6.816 C17.401,6.782 17.177,6.777 16.822,6.826 C16.975,7.075 17.144,7.332 17.336,7.6 C17.595,7.904 17.849,8.175 18.1,8.422 Z M14.131,18.75 C14.418,18.935 14.621,19.028 14.781,19.067 C14.933,19.105 15.097,19.11 15.377,18.974 C15.639,18.846 15.736,18.723 15.796,18.607 C15.869,18.465 15.932,18.242 15.966,17.851 C15.746,17.925 15.52,18.006 15.291,18.096 C14.864,18.308 14.481,18.527 14.131,18.75 Z M8.034,17.855 C8.069,18.245 8.132,18.468 8.206,18.61 C8.266,18.726 8.363,18.85 8.625,18.977 C8.905,19.114 9.069,19.108 9.22,19.07 C9.381,19.03 9.583,18.937 9.87,18.752 C9.522,18.532 9.144,18.314 8.72,18.104 C8.494,18.014 8.265,17.931 8.034,17.854 Z M4.937,12.577 C4.687,12.82 4.554,12.997 4.482,13.144 C4.417,13.278 4.376,13.435 4.445,13.734 C4.512,14.024 4.613,14.146 4.718,14.233 C4.844,14.336 5.049,14.445 5.415,14.564 C5.399,14.396 5.381,14.228 5.359,14.061 C5.249,13.558 5.108,13.062 4.937,12.577 Z M18.583,14.56 C18.95,14.44 19.154,14.33 19.28,14.227 C19.386,14.14 19.486,14.017 19.553,13.729 C19.623,13.429 19.582,13.272 19.516,13.139 C19.444,12.992 19.31,12.815 19.06,12.572 C18.903,13.021 18.76,13.505 18.642,14.044 C18.619,14.216 18.599,14.388 18.583,14.56 Z"/>
</svg>

