<svg xmlns="http://www.w3.org/2000/svg" width="24" height="24">
  <defs/>
  <path  d="M17,3 C19.131,3 20.888,4.671 20.995,6.8 L21,7 L21,17 C21,19.131 19.329,20.888 17.2,20.995 L17,21 L7,21 C4.869,21 3.112,19.329 3.005,17.2 L3,17 L3,7 C3,4.869 4.671,3.112 6.8,3.005 L7,3 Z M11.996,4.971 C11.471,4.971 11.036,5.121 10.671,5.409 C10.327,5.682 10.083,6.052 9.876,6.422 C9.774,6.606 9.678,6.792 9.583,6.983 C9.39,6.94 9.196,6.901 9.001,6.866 C8.58,6.791 8.135,6.746 7.703,6.841 C7.246,6.941 6.853,7.186 6.519,7.598 C6.165,8.035 6.012,8.497 6.027,8.99 C6.04,9.45 6.2,9.899 6.378,10.318 C6.44,10.464 6.506,10.611 6.575,10.762 C6.423,10.887 6.273,11.015 6.125,11.145 C5.801,11.434 5.485,11.759 5.289,12.16 C5.08,12.585 5.027,13.05 5.149,13.574 C5.264,14.074 5.499,14.459 5.849,14.748 C6.183,15.022 6.586,15.179 6.982,15.298 C7.185,15.358 7.412,15.414 7.647,15.471 C7.649,15.731 7.654,15.984 7.671,16.215 C7.701,16.617 7.769,17.032 7.963,17.407 C8.167,17.801 8.486,18.107 8.933,18.325 C9.429,18.566 9.903,18.615 10.373,18.499 C10.814,18.389 11.209,18.143 11.57,17.884 C11.713,17.781 11.855,17.674 12,17.563 C12.145,17.674 12.288,17.783 12.432,17.885 C12.793,18.144 13.187,18.389 13.627,18.498 C14.097,18.614 14.572,18.564 15.066,18.324 C15.515,18.104 15.833,17.799 16.037,17.404 C16.231,17.028 16.299,16.612 16.327,16.209 C16.344,15.979 16.349,15.728 16.352,15.469 C16.587,15.412 16.815,15.355 17.019,15.294 C17.415,15.175 17.817,15.017 18.149,14.744 C18.499,14.454 18.734,14.07 18.849,13.571 C18.969,13.047 18.916,12.581 18.707,12.155 C18.51,11.755 18.193,11.429 17.869,11.14 C17.722,11.01 17.573,10.883 17.421,10.759 C17.49,10.608 17.556,10.459 17.619,10.312 C17.796,9.893 17.955,9.446 17.968,8.986 C17.982,8.493 17.828,8.032 17.475,7.595 C17.141,7.183 16.747,6.938 16.289,6.839 C15.857,6.744 15.412,6.789 14.99,6.864 C14.797,6.899 14.606,6.939 14.41,6.982 C14.316,6.792 14.218,6.604 14.116,6.419 C13.909,6.049 13.664,5.68 13.32,5.409 C12.956,5.12 12.521,4.971 11.996,4.971 Z M13.758,8.35 C13.946,8.703 14.163,9.083 14.419,9.467 L14.633,9.775 L14.648,9.793 C15.085,10.31 15.538,10.737 15.954,11.097 C15.741,11.598 15.522,12.177 15.355,12.841 L15.272,13.201 L15.269,13.224 C15.204,13.694 15.177,14.129 15.165,14.524 C14.823,14.614 14.453,14.724 14.062,14.867 L13.744,14.988 L13.724,14.998 C13.119,15.299 12.542,15.653 11.999,16.055 C11.601,15.765 11.142,15.457 10.611,15.172 L10.264,14.993 L10.242,14.985 C9.737,14.783 9.263,14.64 8.832,14.525 C8.823,14.231 8.806,13.915 8.771,13.579 L8.727,13.214 L8.722,13.192 C8.549,12.381 8.292,11.686 8.042,11.099 C8.372,10.813 8.728,10.483 9.079,10.099 L9.356,9.784 L9.369,9.766 C9.719,9.281 10.001,8.795 10.236,8.351 C10.647,8.431 11.102,8.506 11.591,8.548 L11.993,8.575 L12.023,8.574 C12.658,8.543 13.243,8.452 13.758,8.35 Z M11.997,6.171 L11.998,6.171 C12.274,6.171 12.441,6.242 12.577,6.35 C12.733,6.473 12.885,6.674 13.069,7.004 C13.109,7.075 13.151,7.154 13.194,7.237 C12.797,7.308 12.396,7.354 11.994,7.375 C11.594,7.354 11.196,7.308 10.802,7.238 L10.925,7.006 C11.11,6.676 11.262,6.473 11.418,6.35 C11.554,6.242 11.721,6.171 11.997,6.171 Z M8.793,8.047 L9.015,8.09 C8.845,8.394 8.65,8.71 8.41,9.046 C8.136,9.367 7.841,9.671 7.528,9.954 L7.483,9.849 C7.314,9.452 7.233,9.179 7.226,8.954 C7.22,8.764 7.268,8.58 7.452,8.353 C7.627,8.137 7.789,8.051 7.96,8.013 C8.157,7.97 8.414,7.981 8.793,8.047 Z M16.033,8.011 C16.205,8.048 16.367,8.134 16.543,8.351 C16.726,8.577 16.773,8.761 16.768,8.951 C16.763,9.143 16.703,9.371 16.58,9.682 L16.467,9.952 C16.152,9.667 15.855,9.361 15.58,9.037 C15.362,8.733 15.162,8.416 14.98,8.089 L15.2,8.046 C15.58,7.979 15.836,7.968 16.034,8.011 Z M8.853,15.777 C9.149,15.863 9.457,15.965 9.777,16.092 C10.245,16.323 10.642,16.569 10.998,16.816 L10.871,16.909 C10.535,17.15 10.294,17.282 10.085,17.334 C9.906,17.379 9.719,17.372 9.461,17.247 C9.223,17.13 9.105,17 9.03,16.856 C8.946,16.693 8.894,16.469 8.869,16.127 C8.861,16.01 8.856,15.894 8.853,15.777 Z M15.148,15.776 C15.145,15.892 15.14,16.007 15.132,16.123 C15.107,16.466 15.056,16.691 14.972,16.853 C14.897,16.998 14.779,17.129 14.541,17.245 C14.283,17.371 14.096,17.377 13.916,17.333 C13.738,17.289 13.536,17.186 13.27,17.006 L13.003,16.816 C13.394,16.543 13.805,16.299 14.232,16.087 C14.549,15.962 14.854,15.861 15.148,15.776 Z M16.918,11.903 L17.069,12.035 C17.365,12.298 17.538,12.498 17.629,12.683 C17.709,12.843 17.742,13.026 17.679,13.3 C17.618,13.564 17.514,13.71 17.385,13.816 C17.238,13.938 17.019,14.04 16.674,14.143 L16.378,14.225 C16.392,13.965 16.415,13.693 16.453,13.409 C16.566,12.895 16.722,12.391 16.918,11.903 Z M7.078,11.906 C7.255,12.353 7.42,12.847 7.544,13.42 C7.581,13.7 7.604,13.97 7.619,14.227 L7.325,14.147 C6.979,14.043 6.759,13.941 6.612,13.82 C6.482,13.713 6.378,13.568 6.317,13.303 C6.254,13.029 6.287,12.847 6.367,12.687 C6.445,12.527 6.582,12.359 6.805,12.147 L6.925,12.039 C6.972,11.996 7.023,11.952 7.077,11.906 Z"/>
</svg>

