<svg xmlns="http://www.w3.org/2000/svg" width="24" height="24">
  <defs/>
  <path  d="M13.064,6.685 L13.809,6.379 C14.414,6.139 15.196,5.894 16.119,6.049 C18.01,6.367 19.314,7.388 20.091,8.742 C20.391,9.264 20.149,9.952 19.589,10.171 A2.501 2.501 0 0 0 19.722,14.877 C20.24,15.047 20.532,15.622 20.362,16.14 C19.92,17.482 19.284,18.721 18.531,19.721 C17.787,20.709 16.879,21.529 15.868,21.93 C15.208,22.19 14.5,22.093 13.823,21.925 L13.421,21.818 L12.824,21.645 C12.553,21.566 12.274,21.498 12,21.498 C11.725,21.498 11.447,21.566 11.176,21.645 L10.579,21.818 L10.177,21.925 C9.5,22.093 8.791,22.191 8.132,21.93 C6.859,21.426 5.736,20.25 4.887,18.863 A13.453 13.453 0 0 1 3.103,13.877 C2.876,12.323 2.999,10.578 3.718,9.102 C4.458,7.581 5.814,6.397 7.881,6.049 C8.721,5.908 9.443,6.097 10.021,6.314 L10.352,6.444 L10.936,6.685 C11.336,6.842 11.651,6.934 12,6.934 C12.348,6.934 12.664,6.842 13.064,6.685 M11.768,2.768 C12.744,1.791 14.243,1.707 14.596,2.061 C14.95,2.414 14.866,3.913 13.889,4.889 C12.913,5.865 11.414,5.949 11.061,5.596 C10.707,5.243 10.791,3.744 11.768,2.768"/>
</svg>

