<svg xmlns="http://www.w3.org/2000/svg" width="24" height="24">
  <defs/>
  <path  d="M13.064,6.685 L13.809,6.379 C14.414,6.139 15.196,5.894 16.119,6.049 C18.01,6.367 19.314,7.388 20.091,8.742 C20.391,9.264 20.149,9.952 19.589,10.171 A2.501 2.501 0 0 0 19.722,14.877 C20.24,15.047 20.532,15.622 20.362,16.14 C19.92,17.482 19.284,18.721 18.531,19.721 C17.787,20.709 16.879,21.529 15.868,21.93 C15.196,22.196 14.478,22.09 13.79,21.917 L13.382,21.807 L12.797,21.644 L12.478,21.565 A2.256 2.256 0 0 0 12,21.498 C11.87,21.498 11.715,21.522 11.522,21.565 L11.202,21.645 L10.415,21.863 C9.667,22.066 8.871,22.223 8.132,21.93 C6.859,21.426 5.736,20.25 4.887,18.863 A13.453 13.453 0 0 1 3.103,13.877 C2.876,12.323 2.999,10.578 3.718,9.102 C4.458,7.581 5.814,6.397 7.881,6.049 C8.721,5.908 9.443,6.097 10.021,6.314 L10.352,6.444 L10.936,6.685 C11.336,6.842 11.651,6.934 12,6.934 C12.348,6.934 12.664,6.842 13.064,6.685 M10.19,8.542 L9.842,8.399 C9.111,8.093 8.704,7.939 8.212,8.021 C6.82,8.256 5.991,9.003 5.516,9.978 C5.02,10.996 4.896,12.31 5.082,13.588 C5.31,15.146 5.871,16.638 6.593,17.82 C7.331,19.025 8.164,19.792 8.868,20.07 C9.108,20.165 9.453,20.09 9.773,19.992 L10.216,19.846 L10.338,19.808 L10.771,19.688 C11.157,19.588 11.592,19.498 12,19.498 C12.407,19.498 12.843,19.588 13.229,19.688 L13.662,19.808 L13.784,19.846 L14.227,19.992 C14.547,20.09 14.892,20.165 15.132,20.07 C15.679,19.854 16.315,19.338 16.932,18.518 C17.392,17.908 17.812,17.166 18.155,16.341 A4.496 4.496 0 0 1 16,12.5 C16,11.053 16.682,9.768 17.74,8.945 C17.267,8.495 16.633,8.164 15.788,8.021 C15.345,7.947 14.971,8.064 14.368,8.312 L14.158,8.399 C13.617,8.626 12.882,8.934 12,8.934 C11.295,8.934 10.683,8.737 10.19,8.542 M11.768,2.768 C12.744,1.791 14.243,1.707 14.596,2.061 C14.95,2.414 14.866,3.913 13.889,4.889 C12.913,5.865 11.414,5.949 11.061,5.596 C10.707,5.243 10.791,3.744 11.768,2.768"/>
</svg>

