<svg xmlns="http://www.w3.org/2000/svg" width="24" height="24">
  <defs/>
  <path  d="M17,3.25 C19.071,3.25 20.75,4.929 20.75,7 L20.75,17 C20.75,19.071 19.071,20.75 17,20.75 L7,20.75 C4.929,20.75 3.25,19.071 3.25,17 L3.25,7 C3.25,4.929 4.929,3.25 7,3.25 Z M17,4.75 L7,4.75 C5.757,4.75 4.75,5.757 4.75,7 L4.75,17 C4.75,18.243 5.757,19.25 7,19.25 L17,19.25 C18.243,19.25 19.25,18.243 19.25,17 L19.25,7 C19.25,5.757 18.243,4.75 17,4.75 Z M11.997,5.775 C12.472,5.775 12.869,5.91 13.202,6.173 C13.515,6.421 13.735,6.753 13.917,7.08 C13.999,7.226 14.075,7.374 14.15,7.523 C14.302,7.49 14.452,7.459 14.604,7.433 C14.975,7.367 15.377,7.325 15.769,7.411 C16.188,7.501 16.547,7.726 16.849,8.099 C17.169,8.494 17.309,8.915 17.297,9.365 C17.285,9.782 17.141,10.185 16.985,10.553 L16.835,10.893 C16.955,10.991 17.071,11.09 17.185,11.191 C17.471,11.446 17.757,11.738 17.936,12.102 C18.128,12.492 18.176,12.917 18.066,13.392 C17.962,13.842 17.749,14.194 17.428,14.458 C17.126,14.708 16.763,14.849 16.413,14.954 L16.244,15.002 L15.882,15.094 L15.872,15.498 C15.87,15.561 15.866,15.625 15.862,15.688 C15.836,16.044 15.776,16.42 15.599,16.763 C15.413,17.124 15.121,17.403 14.715,17.601 C14.268,17.819 13.835,17.865 13.406,17.759 C13.006,17.659 12.652,17.439 12.334,17.211 C12.222,17.131 12.111,17.047 12,16.962 L11.668,17.209 C11.35,17.438 10.995,17.66 10.595,17.759 C10.166,17.866 9.732,17.82 9.285,17.602 C8.906,17.429 8.595,17.135 8.401,16.766 C8.224,16.424 8.164,16.049 8.138,15.694 L8.127,15.502 L8.117,15.096 L7.756,15.005 C7.7,14.99 7.644,14.974 7.588,14.957 C7.238,14.853 6.874,14.711 6.571,14.462 C6.25,14.198 6.036,13.846 5.931,13.395 C5.822,12.921 5.87,12.495 6.061,12.107 C6.239,11.743 6.524,11.45 6.81,11.196 C6.924,11.094 7.041,10.994 7.16,10.896 L7.012,10.558 C6.856,10.189 6.711,9.786 6.698,9.368 C6.685,8.918 6.825,8.497 7.146,8.101 C7.448,7.728 7.806,7.505 8.224,7.413 C8.617,7.327 9.018,7.368 9.389,7.433 C9.542,7.461 9.693,7.492 9.844,7.524 C9.919,7.376 9.994,7.229 10.076,7.084 C10.258,6.756 10.478,6.422 10.791,6.174 C11.124,5.911 11.521,5.774 11.997,5.774 Z M13.497,8.891 C13.145,8.959 12.756,9.021 12.34,9.056 L11.993,9.079 L11.964,9.077 C11.471,9.05 10.98,8.988 10.496,8.892 C10.344,9.175 10.171,9.477 9.969,9.782 L9.744,10.108 L9.73,10.125 C9.362,10.56 8.979,10.925 8.627,11.233 C8.804,11.654 8.984,12.139 9.125,12.689 L9.209,13.049 L9.212,13.072 C9.265,13.46 9.289,13.822 9.301,14.152 C9.574,14.225 9.867,14.312 10.175,14.423 L10.51,14.551 L10.531,14.561 C11.101,14.841 11.587,15.159 11.998,15.456 C12.329,15.217 12.708,14.965 13.14,14.729 L13.494,14.546 L13.516,14.538 C13.937,14.37 14.334,14.248 14.696,14.151 C14.704,13.901 14.72,13.633 14.75,13.35 L14.788,13.038 L14.793,13.016 C14.928,12.404 15.121,11.807 15.368,11.231 C15.057,10.961 14.761,10.674 14.482,10.371 L14.244,10.099 L14.231,10.081 C13.961,9.701 13.716,9.303 13.498,8.891 Z M11.996,6.975 C11.77,6.975 11.64,7.032 11.536,7.115 C11.431,7.197 11.326,7.327 11.201,7.533 L11.064,7.777 C11.349,7.823 11.654,7.86 11.994,7.878 C12.334,7.86 12.642,7.823 12.929,7.776 L12.869,7.665 C12.709,7.379 12.581,7.213 12.457,7.115 C12.352,7.032 12.222,6.975 11.996,6.975 Z M9.18,8.615 C8.851,8.557 8.638,8.551 8.48,8.585 C8.348,8.615 8.22,8.679 8.077,8.856 C7.927,9.041 7.892,9.186 7.897,9.333 C7.902,9.513 7.968,9.74 8.113,10.083 C8.337,9.875 8.566,9.643 8.798,9.369 C8.983,9.112 9.136,8.867 9.271,8.632 Z M15.513,8.583 C15.381,8.554 15.211,8.554 14.967,8.589 L14.722,8.631 C14.856,8.864 15.008,9.106 15.191,9.361 C15.425,9.638 15.656,9.871 15.881,10.081 C16.026,9.738 16.091,9.511 16.097,9.331 C16.101,9.183 16.065,9.039 15.916,8.854 C15.772,8.676 15.645,8.612 15.513,8.583 Z M13.982,15.645 C13.704,15.782 13.455,15.925 13.227,16.07 L13.005,16.216 L13.032,16.235 C13.324,16.444 13.525,16.552 13.693,16.594 C13.832,16.628 13.978,16.624 14.188,16.522 C14.384,16.427 14.475,16.323 14.532,16.212 C14.6,16.064 14.641,15.905 14.652,15.742 L14.664,15.602 C14.668,15.539 14.672,15.473 14.674,15.406 C14.44,15.476 14.209,15.556 13.982,15.645 Z M9.334,15.605 C9.356,15.9 9.4,16.085 9.467,16.213 C9.524,16.323 9.615,16.427 9.81,16.523 C10.021,16.625 10.167,16.628 10.306,16.593 C10.45,16.558 10.619,16.473 10.848,16.317 L10.993,16.215 C10.683,16.004 10.359,15.815 10.023,15.648 C9.794,15.558 9.56,15.477 9.324,15.406 L9.334,15.605 Z M16.336,12.04 C16.184,12.432 16.062,12.835 15.972,13.245 C15.945,13.445 15.925,13.646 15.912,13.847 L16.069,13.802 C16.368,13.712 16.548,13.627 16.665,13.53 C16.765,13.448 16.847,13.336 16.897,13.12 C16.949,12.895 16.92,12.754 16.859,12.63 C16.799,12.506 16.689,12.37 16.506,12.195 Z M7.661,12.044 L7.609,12.09 C7.353,12.319 7.211,12.485 7.139,12.634 C7.077,12.758 7.049,12.899 7.101,13.124 C7.151,13.34 7.234,13.453 7.333,13.534 C7.451,13.631 7.631,13.717 7.931,13.806 L8.085,13.85 C8.072,13.651 8.053,13.453 8.027,13.256 C7.937,12.843 7.815,12.437 7.661,12.043 Z"/>
</svg>

