<svg xmlns="http://www.w3.org/2000/svg" width="24" height="24">
  <defs/>
  <path  d="M12,2 C17.523,2 22,6.477 22,12 C22,17.523 17.523,22 12,22 C6.477,22 2,17.523 2,12 C2,6.477 6.477,2 12,2 M12,4 A8 8 0 1 0 12,20 A8 8 0 0 0 12,4 M12.5,13 A1 1 0 0 1 12.617,14.993 L12.5,15 L9.106,15 L8.273,16.489 A1 1 0 0 1 6.476,15.617 L6.528,15.511 L6.814,15.001 L6.3,15.001 A1 1 0 0 1 6.183,13.007 L6.3,13 Z M14.393,10.012 L16.066,13 L17.7,13 A1 1 0 1 1 17.7,15 L17.186,15 L17.473,15.512 A1 1 0 0 1 15.728,16.489 L12.648,10.989 A1 1 0 0 1 14.393,10.012 M11.873,5.512 L12,5.739 L12.127,5.512 A1 1 0 0 1 13.873,6.489 L10.793,11.989 A1 1 0 0 1 9.048,11.012 L10.854,7.786 L10.128,6.489 A1 1 0 1 1 11.873,5.512"/>
</svg>

