<svg xmlns="http://www.w3.org/2000/svg" width="24" height="24">
  <defs/>
  <path  d="M12,2 C17.523,2 22,6.477 22,12 C22,17.523 17.523,22 12,22 C6.477,22 2,17.523 2,12 C2,6.477 6.477,2 12,2 Z M14.393,10.012 C14.136,9.545 13.559,9.362 13.08,9.594 C12.601,9.827 12.388,10.394 12.596,10.884 L12.648,10.989 L15.728,16.489 C15.987,16.951 16.561,17.131 17.037,16.899 C17.513,16.668 17.727,16.106 17.524,15.617 L17.472,15.511 L17.186,15.001 L17.7,15.001 C18.233,15.005 18.675,14.591 18.706,14.06 C18.737,13.528 18.346,13.065 17.817,13.007 L17.7,13 L16.066,13 Z M12.5,13 L6.3,13 C5.748,13 5.3,13.448 5.3,14 C5.3,14.552 5.748,15 6.3,15 L6.814,15 L6.527,15.511 C6.257,15.993 6.429,16.603 6.911,16.873 C7.393,17.143 8.003,16.971 8.273,16.489 L9.106,15 L12.5,15 C13.052,15 13.5,14.552 13.5,14 C13.5,13.448 13.052,13 12.5,13 Z M11.873,5.512 C11.616,5.045 11.039,4.862 10.56,5.094 C10.081,5.327 9.868,5.894 10.076,6.384 L10.127,6.489 L10.854,7.786 L9.047,11.012 C8.786,11.475 8.932,12.06 9.38,12.346 C9.827,12.632 10.42,12.518 10.73,12.087 L10.793,11.989 L13.873,6.489 C14.138,6.026 13.993,5.437 13.544,5.15 C13.094,4.863 12.499,4.979 12.19,5.413 L12.128,5.511 L12,5.74 L11.873,5.513 Z"/>
</svg>

