<svg xmlns="http://www.w3.org/2000/svg" width="24" height="24">
  <defs/>
  <path  d="M7.71,5.012 C8.046,5.064 8.332,5.283 8.47,5.594 L9.617,8.176 L12.141,5.336 C12.367,5.082 12.706,4.959 13.042,5.012 C13.378,5.064 13.665,5.283 13.803,5.594 L14.95,8.176 L17.475,5.336 C17.701,5.082 18.04,4.96 18.376,5.012 C18.712,5.064 18.998,5.284 19.136,5.594 L20.914,9.594 C21.138,10.099 20.911,10.69 20.406,10.914 C19.901,11.138 19.31,10.911 19.086,10.406 L17.94,7.824 L15.415,10.664 C15.189,10.918 14.85,11.04 14.514,10.988 C14.178,10.936 13.892,10.716 13.754,10.406 L12.606,7.824 L10.082,10.664 C9.856,10.918 9.517,11.04 9.181,10.988 C8.845,10.936 8.559,10.716 8.421,10.406 L7.272,7.824 L4.747,10.664 C4.375,11.055 3.761,11.081 3.358,10.723 C2.954,10.364 2.908,9.751 3.253,9.336 L6.808,5.336 C7.034,5.082 7.373,4.96 7.709,5.012 Z M7.709,13.012 C8.045,13.064 8.331,13.283 8.469,13.594 L9.616,16.176 L12.14,13.336 C12.366,13.082 12.705,12.959 13.041,13.012 C13.377,13.064 13.664,13.283 13.802,13.594 L14.949,16.176 L17.474,13.336 C17.7,13.082 18.039,12.96 18.375,13.012 C18.711,13.064 18.997,13.284 19.135,13.594 L20.913,17.594 C21.137,18.099 20.91,18.69 20.405,18.914 C19.9,19.138 19.309,18.911 19.085,18.406 L17.938,15.824 L15.413,18.664 C15.187,18.918 14.848,19.04 14.512,18.988 C14.176,18.936 13.89,18.716 13.752,18.406 L12.604,15.824 L10.08,18.664 C9.854,18.918 9.515,19.04 9.179,18.988 C8.843,18.936 8.557,18.716 8.419,18.406 L7.271,15.824 L4.746,18.664 C4.374,19.055 3.76,19.081 3.357,18.723 C2.953,18.364 2.907,17.751 3.252,17.336 L6.807,13.336 C7.033,13.082 7.372,12.96 7.708,13.012 Z"/>
</svg>

