<svg xmlns="http://www.w3.org/2000/svg" width="24" height="24">
  <defs/>
  <path  d="M18,2 C20.209,2 22,3.791 22,6 L22,18 C22,20.209 20.209,22 18,22 L6,22 C3.791,22 2,20.209 2,18 L2,6 C2,3.791 3.791,2 6,2 Z M15.4,12.669 L14.061,14.176 L13.506,12.927 C13.368,12.617 13.082,12.398 12.746,12.346 C12.411,12.294 12.072,12.416 11.846,12.669 L10.506,14.176 L9.951,12.927 C9.813,12.617 9.527,12.397 9.191,12.345 C8.855,12.293 8.516,12.415 8.29,12.669 L5.92,15.336 C5.669,15.601 5.581,15.982 5.693,16.329 C5.804,16.677 6.096,16.937 6.454,17.006 C6.813,17.076 7.181,16.945 7.414,16.664 L8.754,15.158 L9.308,16.406 C9.446,16.717 9.733,16.936 10.069,16.988 C10.405,17.041 10.744,16.918 10.97,16.664 L12.309,15.158 L12.864,16.406 C13.002,16.716 13.288,16.936 13.624,16.988 C13.96,17.04 14.299,16.918 14.525,16.664 L15.865,15.158 L16.419,16.406 C16.643,16.911 17.234,17.138 17.739,16.914 C18.244,16.69 18.471,16.099 18.247,15.594 L17.062,12.927 C16.924,12.617 16.638,12.397 16.302,12.345 C15.966,12.293 15.627,12.415 15.401,12.669 Z M16.303,7.012 C16.011,6.966 15.714,7.052 15.491,7.247 L15.401,7.336 L14.062,8.842 L13.507,7.594 C13.378,7.304 13.119,7.093 12.809,7.024 C12.499,6.956 12.175,7.038 11.936,7.247 L11.846,7.336 L10.506,8.842 L9.952,7.594 C9.823,7.304 9.564,7.092 9.254,7.023 C8.943,6.955 8.619,7.038 8.38,7.247 L8.29,7.336 L5.92,10.002 C5.565,10.396 5.579,10.999 5.952,11.376 C6.326,11.753 6.929,11.772 7.326,11.42 L7.416,11.331 L8.754,9.824 L9.309,11.073 C9.438,11.363 9.697,11.575 10.007,11.644 C10.318,11.712 10.642,11.629 10.881,11.42 L10.971,11.331 L12.31,9.824 L12.865,11.073 C12.994,11.363 13.253,11.574 13.563,11.643 C13.873,11.711 14.197,11.629 14.436,11.42 L14.526,11.331 L15.866,9.824 L16.42,11.073 C16.631,11.563 17.19,11.801 17.69,11.613 C18.19,11.426 18.454,10.878 18.29,10.37 L18.248,10.26 L17.063,7.594 C16.925,7.283 16.639,7.064 16.303,7.012 Z"/>
</svg>

