<svg xmlns="http://www.w3.org/2000/svg" width="24" height="24">
  <defs/>
  <path  d="M11.5,3.7 C12.371,3.7 13.168,4.193 13.557,4.972 L16.29,10.437 C16.965,9.619 17.417,8.641 17.604,7.597 C17.827,6.346 19.021,5.513 20.271,5.735 C21.522,5.958 22.356,7.152 22.133,8.403 C21.688,10.888 20.386,13.139 18.453,14.764 L19.557,16.972 C19.938,17.708 19.892,18.593 19.439,19.287 C18.985,19.98 18.193,20.376 17.366,20.323 C16.538,20.27 15.804,19.775 15.443,19.029 L14.384,16.911 C13.466,17.165 12.499,17.301 11.5,17.301 C10.501,17.301 9.534,17.165 8.616,16.911 L7.557,19.029 C6.979,20.147 5.611,20.593 4.485,20.03 C3.36,19.468 2.895,18.105 3.443,16.972 L4.547,14.764 C3.682,14.036 2.937,13.178 2.337,12.22 C1.663,11.143 1.99,9.724 3.067,9.05 C4.144,8.376 5.563,8.703 6.237,9.78 C6.381,10.01 6.539,10.23 6.71,10.437 L9.443,4.972 C9.832,4.193 10.629,3.7 11.5,3.7 Z M10.744,12.655 C11.246,12.716 11.754,12.716 12.256,12.655 L11.5,11.143 Z"/>
</svg>

