<svg xmlns="http://www.w3.org/2000/svg" width="24" height="24">
  <defs/>
  <path  d="M9.306,4.637 C10.227,2.794 12.856,2.794 13.778,4.637 L16.013,9.107 C16.204,8.71 16.343,8.284 16.423,7.837 C16.697,6.296 18.168,5.27 19.709,5.544 C21.25,5.818 22.276,7.289 22.002,8.83 C21.6,11.081 20.481,13.142 18.812,14.706 L19.576,16.233 C20.276,17.632 19.708,19.334 18.309,20.034 C16.91,20.734 15.208,20.166 14.508,18.767 L13.796,17.344 C12.31,17.665 10.774,17.665 9.288,17.344 L8.576,18.767 C7.876,20.166 6.174,20.734 4.775,20.034 C3.376,19.334 2.808,17.632 3.508,16.233 L4.271,14.706 C3.601,14.077 3.015,13.365 2.528,12.586 C1.743,11.341 2.042,9.702 3.217,8.815 C4.391,7.927 6.05,8.087 7.033,9.183 Z M8.445,10.831 C8.878,11.178 9.37,11.454 9.903,11.641 L11.095,9.258 C11.18,9.089 11.353,8.982 11.542,8.982 C11.731,8.982 11.904,9.089 11.989,9.258 L16.296,17.873 C16.502,18.285 17.002,18.452 17.414,18.246 C17.826,18.04 17.993,17.54 17.787,17.128 L11.99,5.53 C11.905,5.361 11.732,5.254 11.543,5.254 C11.354,5.254 11.181,5.361 11.096,5.53 Z M12.072,13.897 C9.488,14.096 7.008,12.841 5.637,10.642 C5.393,10.252 4.879,10.133 4.489,10.377 C4.099,10.621 3.98,11.135 4.224,11.525 C6.051,14.457 9.452,16.014 12.865,15.483 Z M17.869,12.82 C18.992,11.611 19.743,10.104 20.033,8.48 C20.106,8.031 19.805,7.607 19.357,7.527 C18.909,7.447 18.48,7.741 18.393,8.188 C18.197,9.285 17.74,10.318 17.059,11.2 Z M5.884,15.953 L5.296,17.128 C5.09,17.54 5.257,18.04 5.669,18.246 C6.081,18.452 6.581,18.285 6.787,17.873 L7.359,16.728 C6.845,16.508 6.352,16.248 5.884,15.953 Z"/>
</svg>

