<svg xmlns="http://www.w3.org/2000/svg" width="24" height="24">
  <defs/>
  <path  d="M16.586,3 C17.116,3 17.625,3.211 18,3.586 L20.414,6 C20.789,6.375 21,6.884 21,7.414 L21,19 C21,20.105 20.105,21 19,21 L5,21 C3.895,21 3,20.105 3,19 L3,7.414 C3,6.884 3.211,6.375 3.586,6 L6,3.586 C6.375,3.211 6.884,3 7.414,3 Z M19,9 L5,9 L5,19 L19,19 Z M12,10 C12.552,10 13,10.448 13,11 L13,14.186 L13.414,13.772 C13.665,13.512 14.037,13.408 14.387,13.499 C14.736,13.591 15.009,13.864 15.101,14.213 C15.192,14.563 15.088,14.935 14.828,15.186 L12.708,17.307 C12.52,17.495 12.266,17.6 12,17.6 C11.735,17.6 11.481,17.495 11.293,17.307 L9.172,15.186 C8.912,14.935 8.808,14.563 8.899,14.213 C8.991,13.864 9.264,13.591 9.613,13.499 C9.963,13.408 10.335,13.512 10.586,13.772 L11,14.186 L11,11 C11,10.448 11.448,10 12,10 Z M16.586,5 L7.414,5 L5.414,7 L18.586,7 Z"/>
</svg>

