<svg xmlns="http://www.w3.org/2000/svg" width="24" height="24">
  <defs/>
  <path  d="M21,9 L21,19 C21,20.105 20.105,21 19,21 L5,21 C3.895,21 3,20.105 3,19 L3,9 Z M7.414,3 L16.586,3 C17.116,3 17.625,3.211 18,3.586 L20.414,6 C20.688,6.274 20.877,6.621 20.957,7 L3.043,7 C3.123,6.621 3.312,6.274 3.586,6 L6,3.586 C6.375,3.211 6.884,3 7.414,3 Z M12,11 C11.448,11 11,11.448 11,12 L11,15.186 L10.586,14.771 C10.195,14.381 9.562,14.381 9.172,14.771 C8.781,15.162 8.781,15.796 9.172,16.186 L11.293,18.307 C11.481,18.495 11.735,18.6 12,18.6 C12.266,18.6 12.52,18.495 12.708,18.307 L14.828,16.186 C15.219,15.796 15.219,15.162 14.828,14.771 C14.438,14.381 13.805,14.381 13.414,14.771 L13,15.186 L13,12 C13,11.448 12.552,11 12,11 Z"/>
</svg>

