<svg xmlns="http://www.w3.org/2000/svg" width="24" height="24">
  <defs/>
  <path  d="M6,2 L18,2 C20.209,2 22,3.791 22,6 L22,18 C22,20.209 20.209,22 18,22 L6,22 C3.791,22 2,20.209 2,18 L2,6 C2,3.791 3.791,2 6,2 Z M13.57,6.918 C13.102,7.588 12.863,8.423 12.697,9.09 C12.569,9.603 12.291,10.86 12,12.206 C11.71,10.868 11.435,9.615 11.303,9.09 C11.137,8.423 10.898,7.587 10.43,6.918 C9.915,6.183 9.122,5.653 7.993,5.666 C6.336,5.668 4.995,7.013 4.997,8.67 C4.998,10.326 6.343,11.668 8,11.666 C8.552,11.666 9,11.218 9,10.666 C9,10.114 8.552,9.666 8,9.666 C7.448,9.666 7,9.218 7,8.666 C7,8.114 7.448,7.666 8,7.666 L8.013,7.666 C8.398,7.661 8.603,7.798 8.792,8.066 C9.027,8.402 9.197,8.91 9.363,9.576 C9.525,10.221 9.937,12.116 10.313,13.876 C10.549,14.979 10.784,16.082 11.017,17.185 C11.105,17.654 11.512,17.996 11.99,18.001 C12.467,18.006 12.882,17.673 12.979,17.205 C13.214,16.09 13.451,14.976 13.689,13.862 C14.068,12.098 14.48,10.202 14.637,9.575 C14.803,8.91 14.973,8.402 15.208,8.065 C15.396,7.798 15.601,7.661 15.987,7.666 L16,7.666 C16.552,7.666 17,8.114 17,8.666 C17,9.218 16.552,9.666 16,9.666 C15.448,9.666 15,10.114 15,10.666 C15,11.218 15.448,11.666 16,11.666 C17.657,11.668 19.002,10.326 19.003,8.67 C19.005,7.013 17.664,5.668 16.007,5.666 C14.878,5.653 14.085,6.183 13.57,6.918 Z"/>
</svg>

