<svg xmlns="http://www.w3.org/2000/svg" width="24" height="24">
  <defs/>
  <path  d="M10.47,7.758 C10.22,6.757 9.88,5.585 9.235,4.665 C8.544,3.68 7.501,2.983 5.993,3 A4 4 0 0 0 6,11 A1 1 0 1 0 6,9 A2 2 0 1 1 6,5 L6.013,5 C6.778,4.99 7.233,5.293 7.597,5.813 C8.008,6.4 8.28,7.243 8.53,8.243 C8.773,9.216 9.393,12.189 9.958,14.951 A1357.31 1357.31 0 0 1 11.016,20.181 A1 1 0 0 0 12.98,20.197 A1461.07 1461.07 0 0 1 14.048,14.929 C14.614,12.159 15.234,9.188 15.47,8.243 C15.72,7.243 15.992,6.4 16.403,5.813 C16.767,5.293 17.223,4.99 17.987,5 L18,5 A2 2 0 1 1 18,9 A1 1 0 1 0 18,11 A4 4 0 0 0 18.007,3 C16.499,2.983 15.457,3.679 14.765,4.665 C14.12,5.585 13.78,6.757 13.53,7.758 C13.28,8.756 12.65,11.784 12.088,14.528 L12.001,14.958 L11.917,14.55 C11.357,11.812 10.727,8.784 10.47,7.758"/>
</svg>

