<svg xmlns="http://www.w3.org/2000/svg" width="24" height="24">
  <defs/>
  <path  d="M12.293,6.293 C12.684,5.903 13.316,5.903 13.707,6.293 L18.707,11.293 C19.097,11.684 19.097,12.316 18.707,12.707 L13.707,17.707 C13.315,18.086 12.691,18.081 12.305,17.695 C11.919,17.309 11.914,16.685 12.293,16.293 L16.586,12 L12.293,7.707 C11.903,7.317 11.903,6.683 12.293,6.293 Z M6.293,6.293 C6.683,5.903 7.317,5.903 7.707,6.293 L12.707,11.293 C13.097,11.684 13.097,12.316 12.707,12.707 L7.707,17.707 C7.315,18.086 6.691,18.081 6.305,17.695 C5.919,17.309 5.914,16.685 6.293,16.293 L10.586,12 L6.293,7.707 C5.903,7.317 5.903,6.683 6.293,6.293 Z"/>
</svg>

