<svg xmlns="http://www.w3.org/2000/svg" width="24" height="24">
  <defs/>
  <path  d="M12,22 C6.477,22 2,17.523 2,12 C2,6.477 6.477,2 12,2 C17.523,2 22,6.477 22,12 C22,17.523 17.523,22 12,22 Z M15.003,9.003 C14.451,9.003 14.003,9.451 14.003,10.003 L14.003,12.589 L9.707,8.293 C9.315,7.914 8.691,7.919 8.305,8.305 C7.919,8.691 7.914,9.315 8.293,9.707 L12.589,14.003 L10.003,14.003 C9.451,14.003 9.003,14.451 9.003,15.003 C9.003,15.555 9.451,16.003 10.003,16.003 L15.003,16.003 C15.555,16.003 16.003,15.555 16.003,15.003 L16.003,10.003 C16.003,9.451 15.555,9.003 15.003,9.003 Z"/>
</svg>

