<svg xmlns="http://www.w3.org/2000/svg" width="24" height="24">
  <defs/>
  <path  d="M12,2 C17.523,2 22,6.477 22,12 C22,17.523 17.523,22 12,22 C6.477,22 2,17.523 2,12 C2,6.477 6.477,2 12,2 Z M12,4 A8 8 0 1 0 12,20 A8 8 0 0 0 12,4 Z M12.005,7.758 A1 1 0 0 1 13.325,7.674 L13.419,7.758 L16.954,11.293 A1 1 0 0 1 17.037,12.613 L16.954,12.707 L13.419,16.243 A1 1 0 0 1 11.921,14.923 L12.005,14.829 L13.833,12.999 L7.757,12.999 A1 1 0 0 1 7.641,11.007 L7.757,11 L13.833,11 L12.005,9.172 A1 1 0 0 1 12.005,7.758 Z"/>
</svg>

