<svg xmlns="http://www.w3.org/2000/svg" width="24" height="24">
  <defs/>
  <path  d="M12,11 C12.265,11 12.52,11.105 12.707,11.293 L17.707,16.293 C18.086,16.685 18.081,17.309 17.695,17.695 C17.309,18.081 16.685,18.086 16.293,17.707 L12,13.414 L7.707,17.707 C7.315,18.086 6.691,18.081 6.305,17.695 C5.919,17.309 5.914,16.685 6.293,16.293 L11.293,11.293 C11.48,11.105 11.735,11 12,11 Z M12,5 C12.265,5 12.52,5.105 12.707,5.293 L17.707,10.293 C18.086,10.685 18.081,11.309 17.695,11.695 C17.309,12.081 16.685,12.086 16.293,11.707 L12,7.414 L7.707,11.707 C7.315,12.086 6.691,12.081 6.305,11.695 C5.919,11.309 5.914,10.685 6.293,10.293 L11.293,5.293 C11.48,5.105 11.735,5 12,5 Z"/>
</svg>

