<svg xmlns="http://www.w3.org/2000/svg" width="24" height="24">
  <defs/>
  <path  d="M5.94,5.94 C6.526,5.355 7.474,5.355 8.06,5.94 L12,9.878 L15.94,5.938 C16.529,5.37 17.464,5.378 18.043,5.957 C18.621,6.536 18.629,7.472 18.06,8.06 L13.06,13.06 C12.474,13.645 11.526,13.645 10.94,13.06 L5.94,8.06 C5.354,7.474 5.354,6.524 5.94,5.938 Z M5.94,11.94 C6.526,11.355 7.474,11.355 8.06,11.94 L12,15.878 L15.94,11.938 C16.529,11.37 17.464,11.378 18.043,11.957 C18.621,12.536 18.629,13.472 18.06,14.06 L13.06,19.06 C12.474,19.645 11.526,19.645 10.94,19.06 L5.94,14.06 C5.354,13.474 5.354,12.524 5.94,11.938 Z"/>
</svg>

