<svg xmlns="http://www.w3.org/2000/svg" width="24" height="24">
  <defs/>
  <path  d="M12,22 C6.477,22 2,17.523 2,12 C2,6.477 6.477,2 12,2 C17.523,2 22,6.477 22,12 C22,17.523 17.523,22 12,22 Z M11.995,16.242 C12.385,15.852 12.385,15.219 11.995,14.828 L10.168,13 L16.244,13 C16.796,13 17.244,12.552 17.244,12 C17.244,11.448 16.796,11 16.244,11 L10.168,11 L11.997,9.171 C12.387,8.78 12.387,8.147 11.997,7.757 C11.606,7.366 10.972,7.366 10.582,7.757 L7.047,11.293 C6.657,11.684 6.657,12.316 7.047,12.707 L10.582,16.242 C10.77,16.43 11.024,16.535 11.29,16.535 C11.555,16.535 11.809,16.43 11.997,16.242 Z"/>
</svg>

