<svg xmlns="http://www.w3.org/2000/svg" width="24" height="24">
  <defs/>
  <path  d="M12,22 C6.477,22 2,17.523 2,12 C2,6.477 6.477,2 12,2 C17.523,2 22,6.477 22,12 C22,17.523 17.523,22 12,22 Z M14.997,15.003 C14.997,14.451 14.549,14.003 13.997,14.003 L11.41,14.003 L15.706,9.707 C16.085,9.315 16.08,8.691 15.694,8.305 C15.308,7.919 14.684,7.914 14.292,8.293 L9.996,12.589 L9.996,10.003 C9.996,9.451 9.548,9.003 8.996,9.003 C8.444,9.003 7.996,9.451 7.996,10.003 L7.996,15.003 C7.996,15.555 8.444,16.003 8.996,16.003 L13.996,16.003 C14.548,16.003 14.996,15.555 14.996,15.003 Z"/>
</svg>

