<svg xmlns="http://www.w3.org/2000/svg" width="24" height="24">
  <defs/>
  <path  d="M18.06,5.94 C18.645,6.526 18.645,7.474 18.06,8.06 L14.122,12 L18.062,15.94 C18.63,16.529 18.622,17.464 18.043,18.043 C17.464,18.621 16.528,18.629 15.94,18.06 L10.94,13.06 C10.355,12.474 10.355,11.526 10.94,10.94 L15.94,5.94 C16.526,5.354 17.476,5.354 18.062,5.94 Z M12.06,5.94 C12.645,6.526 12.645,7.474 12.06,8.06 L8.122,12 L12.062,15.94 C12.63,16.529 12.622,17.464 12.043,18.043 C11.464,18.621 10.528,18.629 9.94,18.06 L4.94,13.06 C4.355,12.474 4.355,11.526 4.94,10.94 L9.94,5.94 C10.526,5.354 11.476,5.354 12.062,5.94 Z"/>
</svg>

