<svg xmlns="http://www.w3.org/2000/svg" width="24" height="24">
  <defs/>
  <path  d="M12,22 C6.477,22 2,17.523 2,12 C2,6.477 6.477,2 12,2 C17.523,2 22,6.477 22,12 C22,17.523 17.523,22 12,22 Z M12.005,7.758 C11.615,8.148 11.615,8.781 12.005,9.172 L13.833,11 L7.757,11 C7.205,11 6.757,11.448 6.757,12 C6.757,12.552 7.205,13 7.757,13 L13.833,13 L12.005,14.829 C11.626,15.221 11.631,15.845 12.017,16.231 C12.403,16.617 13.027,16.622 13.419,16.243 L16.954,12.707 C17.344,12.316 17.344,11.684 16.954,11.293 L13.42,7.758 C13.03,7.368 12.396,7.368 12.006,7.758 Z"/>
</svg>

