<svg xmlns="http://www.w3.org/2000/svg" width="24" height="24">
  <defs/>
  <path  d="M12,2 C17.523,2 22,6.477 22,12 C22,17.523 17.523,22 12,22 C6.477,22 2,17.523 2,12 C2,6.477 6.477,2 12,2 Z M7.758,11.996 C8.148,12.386 8.781,12.386 9.172,11.996 L11,10.167 L11,16.243 C11,16.795 11.448,17.243 12,17.243 C12.552,17.243 13,16.795 13,16.243 L13,10.167 L14.829,11.996 C15.22,12.386 15.853,12.386 16.243,11.995 C16.634,11.605 16.634,10.971 16.243,10.581 L12.707,7.046 C12.316,6.656 11.684,6.656 11.293,7.046 L7.758,10.58 C7.57,10.768 7.465,11.022 7.465,11.288 C7.465,11.553 7.57,11.807 7.758,11.995 Z"/>
</svg>

