<svg xmlns="http://www.w3.org/2000/svg" width="24" height="24">
  <defs/>
  <path  d="M12,2 C17.523,2 22,6.477 22,12 C22,17.523 17.523,22 12,22 C6.477,22 2,17.523 2,12 C2,6.477 6.477,2 12,2 Z M12,4 A8 8 0 1 0 12,20 A8 8 0 0 0 12,4 Z M8.293,8.293 A1 1 0 0 1 9.613,8.21 L9.707,8.293 L14.003,12.589 L14.003,10.003 A1 1 0 0 1 15.996,9.887 L16.003,10.003 L16.003,15.003 A1 1 0 0 1 15.12,15.997 L15.003,16.003 L10.003,16.003 A1 1 0 0 1 9.886,14.01 L10.003,14.003 L12.589,14.003 L8.293,9.707 A1 1 0 0 1 8.293,8.293 Z"/>
</svg>

