<svg xmlns="http://www.w3.org/2000/svg" width="24" height="24">
  <defs/>
  <path  d="M12,2 C17.523,2 22,6.477 22,12 C22,17.523 17.523,22 12,22 C6.477,22 2,17.523 2,12 C2,6.477 6.477,2 12,2 Z M12,4 A8 8 0 1 0 12,20 A8 8 0 0 0 12,4 Z M12,6.757 A1 1 0 0 1 12.993,7.641 L13,7.757 L13,13.833 L14.828,12.005 A1 1 0 0 1 16.326,13.325 L16.242,13.419 L12.707,16.954 A1 1 0 0 1 11.387,17.037 L11.293,16.954 L7.757,13.419 A1 1 0 0 1 9.077,11.921 L9.171,12.005 L11.001,13.833 L11.001,7.757 A1 1 0 0 1 12.001,6.757 Z"/>
</svg>

