<svg xmlns="http://www.w3.org/2000/svg" width="24" height="24">
  <defs/>
  <path  d="M12,2 C17.523,2 22,6.477 22,12 C22,17.523 17.523,22 12,22 C6.477,22 2,17.523 2,12 C2,6.477 6.477,2 12,2 Z M16.242,12.005 C15.852,11.615 15.219,11.615 14.828,12.005 L13,13.833 L13,7.757 C13,7.205 12.552,6.757 12,6.757 C11.448,6.757 11,7.205 11,7.757 L11,13.833 L9.171,12.005 C8.779,11.626 8.155,11.631 7.769,12.017 C7.383,12.403 7.378,13.027 7.757,13.419 L11.293,16.954 C11.684,17.344 12.316,17.344 12.707,16.954 L16.242,13.419 C16.43,13.231 16.535,12.977 16.535,12.712 C16.535,12.446 16.43,12.192 16.242,12.004 Z"/>
</svg>

