<svg xmlns="http://www.w3.org/2000/svg" width="24" height="24">
  <defs/>
  <path  d="M17.707,6.293 C18.097,6.683 18.097,7.317 17.707,7.707 L13.414,12 L17.707,16.293 C18.086,16.685 18.081,17.309 17.695,17.695 C17.309,18.081 16.685,18.086 16.293,17.707 L11.293,12.707 C10.903,12.316 10.903,11.684 11.293,11.293 L16.293,6.293 C16.684,5.903 17.316,5.903 17.707,6.293 Z M11.707,6.293 C12.097,6.683 12.097,7.317 11.707,7.707 L7.414,12 L11.707,16.293 C12.086,16.685 12.081,17.309 11.695,17.695 C11.309,18.081 10.685,18.086 10.293,17.707 L5.293,12.707 C4.903,12.316 4.903,11.684 5.293,11.293 L10.293,6.293 C10.684,5.903 11.316,5.903 11.707,6.293 Z"/>
</svg>

