<svg xmlns="http://www.w3.org/2000/svg" width="24" height="24">
  <defs/>
  <path  d="M12,10.5 C12.398,10.5 12.779,10.659 13.06,10.94 L18.06,15.94 C18.611,16.531 18.594,17.452 18.023,18.023 C17.452,18.594 16.531,18.611 15.94,18.06 L12,14.122 L8.06,18.062 C7.471,18.63 6.536,18.622 5.957,18.043 C5.379,17.464 5.371,16.528 5.94,15.94 L10.94,10.94 C11.221,10.659 11.602,10.5 12,10.5 Z M12,4.5 C12.398,4.5 12.779,4.659 13.06,4.94 L18.06,9.94 C18.611,10.531 18.594,11.452 18.023,12.023 C17.452,12.594 16.531,12.611 15.94,12.06 L12,8.122 L8.06,12.062 C7.471,12.63 6.536,12.622 5.957,12.043 C5.379,11.464 5.371,10.528 5.94,9.94 L10.94,4.94 C11.221,4.659 11.602,4.5 12,4.5 Z"/>
</svg>

