<svg xmlns="http://www.w3.org/2000/svg" width="24" height="24">
  <defs/>
  <path  d="M12,22 C6.477,22 2,17.523 2,12 C2,6.477 6.477,2 12,2 C17.523,2 22,6.477 22,12 C22,17.523 17.523,22 12,22 Z M9.003,8.997 C9.003,9.549 9.451,9.997 10.003,9.997 L12.589,9.997 L8.293,14.293 C8.033,14.544 7.929,14.916 8.02,15.266 C8.112,15.615 8.385,15.888 8.734,15.98 C9.084,16.071 9.456,15.967 9.707,15.707 L14.003,11.411 L14.003,13.997 C14.003,14.549 14.451,14.997 15.003,14.997 C15.555,14.997 16.003,14.549 16.003,13.997 L16.003,8.997 C16.003,8.445 15.555,7.997 15.003,7.997 L10.003,7.997 C9.451,7.997 9.003,8.445 9.003,8.997 Z"/>
</svg>

