<svg xmlns="http://www.w3.org/2000/svg" width="24" height="24">
  <defs/>
  <path  d="M5.94,5.94 C6.526,5.355 7.474,5.355 8.06,5.94 L13.06,10.94 C13.645,11.526 13.645,12.474 13.06,13.06 L8.06,18.06 C7.469,18.611 6.548,18.594 5.977,18.023 C5.406,17.452 5.389,16.531 5.94,15.94 L9.878,12 L5.938,8.06 C5.353,7.474 5.353,6.526 5.938,5.94 Z M11.94,5.94 C12.526,5.355 13.474,5.355 14.06,5.94 L19.06,10.94 C19.645,11.526 19.645,12.474 19.06,13.06 L14.06,18.06 C13.469,18.611 12.548,18.594 11.977,18.023 C11.406,17.452 11.389,16.531 11.94,15.94 L15.878,12 L11.938,8.06 C11.353,7.474 11.353,6.526 11.938,5.94 Z"/>
</svg>

