<svg xmlns="http://www.w3.org/2000/svg" width="24" height="24">
  <defs/>
  <path  d="M12,22 C6.477,22 2,17.523 2,12 C2,6.477 6.477,2 12,2 C17.523,2 22,6.477 22,12 C22,17.523 17.523,22 12,22 Z M8.997,14.997 C9.549,14.997 9.997,14.549 9.997,13.997 L9.997,11.41 L14.293,15.706 C14.544,15.966 14.916,16.07 15.266,15.979 C15.615,15.887 15.888,15.614 15.98,15.265 C16.071,14.915 15.967,14.543 15.707,14.292 L11.411,9.996 L13.997,9.996 C14.549,9.996 14.997,9.548 14.997,8.996 C14.997,8.444 14.549,7.996 13.997,7.996 L8.997,7.996 C8.445,7.996 7.997,8.444 7.997,8.996 L7.997,13.996 C7.997,14.548 8.445,14.996 8.997,14.996 Z"/>
</svg>

