<svg xmlns="http://www.w3.org/2000/svg" width="24" height="24">
  <defs/>
  <path  d="M5,17 A2 2 0 0 1 7,19 L7,20 A1 1 0 1 1 5,20 L5,19 L4,19 A1 1 0 1 1 4,17 Z M20,17 A1 1 0 0 1 20.117,18.993 L20,19 L19,19 L19,20 A1 1 0 0 1 17.007,20.117 L17,20 L17,19 A2 2 0 0 1 18.85,17.005 L19,17 Z M16,6 A2 2 0 0 1 18,8 L18,16 A2 2 0 0 1 16,18 L8,18 A2 2 0 0 1 6,16 L6,8 A2 2 0 0 1 8,6 Z M16,8 L8,8 L8,16 L16,16 Z M6,3 A1 1 0 0 1 7,4 L7,5 A2 2 0 0 1 5,7 L4,7 A1 1 0 0 1 4,5 L5,5 L5,4 A1 1 0 0 1 6,3 M18,3 A1 1 0 0 1 18.993,3.883 L19,4 L19,5 L20,5 A1 1 0 0 1 20.117,6.993 L20,7 L19,7 A2 2 0 0 1 17.005,5.15 L17,5 L17,4 A1 1 0 0 1 18,3"/>
</svg>

