<svg xmlns="http://www.w3.org/2000/svg" width="24" height="24">
  <defs/>
  <path  d="M6,8 C6,6.895 6.895,6 8,6 L16,6 C17.105,6 18,6.895 18,8 L18,16 C18,17.105 17.105,18 16,18 L8,18 C6.895,18 6,17.105 6,16 Z M18,3 C18.552,3 19,3.448 19,4 L19,5 L20,5 C20.552,5 21,5.448 21,6 C21,6.552 20.552,7 20,7 L19,7 C17.895,7 17,6.105 17,5 L17,4 C17,3.448 17.448,3 18,3 Z M7,20 C7,20.552 6.552,21 6,21 C5.448,21 5,20.552 5,20 L5,19 L4,19 C3.448,19 3,18.552 3,18 C3,17.448 3.448,17 4,17 L5,17 C6.105,17 7,17.895 7,19 Z M17,20 L17,19 C17,17.895 17.895,17 19,17 L20,17 C20.552,17 21,17.448 21,18 C21,18.552 20.552,19 20,19 L19,19 L19,20 C19,20.552 18.552,21 18,21 C17.448,21 17,20.552 17,20 Z M6,3 C6.552,3 7,3.448 7,4 L7,5 C7,6.105 6.105,7 5,7 L4,7 C3.448,7 3,6.552 3,6 C3,5.448 3.448,5 4,5 L5,5 L5,4 C5,3.448 5.448,3 6,3 Z"/>
</svg>

