<svg xmlns="http://www.w3.org/2000/svg" width="24" height="24">
  <defs/>
  <path  d="M20,4 C21.105,4 22,4.895 22,6 L22,18 C22,19.105 21.105,20 20,20 L4,20 C2.895,20 2,19.105 2,18 L2,6 C2,4.895 2.895,4 4,4 Z M18,12 C17.448,12 17,12.448 17,13 L17,15 L15,15 C14.448,15 14,15.448 14,16 C14,16.552 14.448,17 15,17 L18,17 C18.552,17 19,16.552 19,16 L19,13 C19,12.448 18.552,12 18,12 Z M9,7 L6,7 C5.493,7 5.066,7.38 5.007,7.883 L5,8 L5,11 C5.001,11.529 5.413,11.966 5.941,11.997 C6.47,12.028 6.931,11.642 6.993,11.117 L7,11 L7,9 L9,9 C9.529,8.999 9.966,8.587 9.997,8.059 C10.028,7.53 9.642,7.069 9.117,7.007 Z"/>
</svg>

