<svg xmlns="http://www.w3.org/2000/svg" width="24" height="24">
  <defs/>
  <path  d="M2,6 C2,4.895 2.895,4 4,4 L20,4 C21.105,4 22,4.895 22,6 L22,18 C22,19.105 21.105,20 20,20 L4,20 C2.895,20 2,19.105 2,18 Z M20,6 L4,6 L4,18 L20,18 Z M6,9 C6,8.448 6.448,8 7,8 L10,8 C10.552,8 11,8.448 11,9 C11,9.552 10.552,10 10,10 L8,10 L8,12 C8,12.552 7.552,13 7,13 C6.448,13 6,12.552 6,12 Z M18,12 L18,15 C18,15.552 17.552,16 17,16 L14,16 C13.448,16 13,15.552 13,15 C13,14.448 13.448,14 14,14 L16,14 L16,12 C16,11.448 16.448,11 17,11 C17.552,11 18,11.448 18,12 Z"/>
</svg>

