<svg xmlns="http://www.w3.org/2000/svg" width="24" height="24">
  <defs/>
  <path  d="M4.5,12 C4.499,14.595 5.841,17.006 8.046,18.375 C10.251,19.743 13.007,19.874 15.332,18.721 C16.074,18.352 16.975,18.655 17.344,19.396 C17.712,20.138 17.41,21.039 16.668,21.408 C15.26,22.107 13.674,22.5 12,22.5 C6.201,22.5 1.5,17.799 1.5,12 C1.5,6.201 6.201,1.5 12,1.5 C18.949,1.5 23.083,7.333 22.491,12.666 C22.327,14.142 21.866,15.218 21.281,15.992 C20.857,16.562 20.306,17.024 19.671,17.342 C18.3,18.027 16.826,18.036 15.718,17.158 C15.491,16.979 15.297,16.775 15.134,16.554 C14.219,17.17 13.141,17.499 12.038,17.5 C9.018,17.5 6.5,15.056 6.5,12 C6.5,8.948 9.008,6.5 12.031,6.5 C13.336,6.498 14.6,6.96 15.597,7.802 C16.073,7.443 16.716,7.4 17.236,7.692 C17.755,7.984 18.052,8.556 17.993,9.149 L17.493,14.149 C17.491,14.172 17.487,14.198 17.484,14.226 C17.455,14.457 17.409,14.827 17.703,14.838 C18.155,14.854 18.627,14.528 18.887,14.184 C19.108,13.892 19.397,13.343 19.51,12.334 C19.917,8.667 17.05,4.5 12,4.5 C7.858,4.5 4.5,7.858 4.5,12 Z M9.5,12 C9.5,13.363 10.638,14.5 12.038,14.5 C13.234,14.5 14.274,13.659 14.514,12.516 C14.838,10.981 13.639,9.5 12.03,9.5 C10.635,9.5 9.5,10.634 9.5,12 Z"/>
</svg>

