<svg xmlns="http://www.w3.org/2000/svg" width="24" height="24">
  <defs/>
  <path  d="M4,12 C3.999,14.769 5.43,17.341 7.782,18.8 C10.135,20.26 13.075,20.399 15.555,19.169 C16.049,18.928 16.644,19.131 16.889,19.623 C17.133,20.115 16.935,20.712 16.445,20.96 C15.064,21.646 13.542,22.002 12,22 C6.477,22 2,17.523 2,12 C2,6.477 6.477,2 12,2 C18.633,2 22.556,7.554 21.994,12.611 C21.838,14.009 21.406,14.997 20.882,15.691 C20.358,16.384 19.785,16.726 19.448,16.894 C18.2,17.518 16.945,17.492 16.028,16.766 C15.7,16.506 15.45,16.184 15.275,15.824 C14.388,16.564 13.25,17 12.038,17 C9.288,17 7,14.774 7,12 C7,9.229 9.279,7 12.03,7 C13.384,6.998 14.681,7.543 15.628,8.51 C15.86,8.097 16.35,7.903 16.801,8.046 C17.253,8.189 17.543,8.629 17.495,9.1 L16.992,14.132 L16.986,14.164 C16.898,14.695 17.08,15.048 17.27,15.198 C17.42,15.317 17.8,15.482 18.553,15.105 C18.715,15.025 19.005,14.858 19.286,14.485 C19.568,14.113 19.886,13.476 20.006,12.39 C20.445,8.445 17.367,4 12,4 C7.582,4 4,7.582 4,12 Z M9,12 C9,13.645 10.368,15 12.038,15 C13.465,15 14.713,13.998 15.004,12.62 C15.394,10.767 13.95,9 12.03,9 C10.364,9 9,10.353 9,12 Z"/>
</svg>

