<svg xmlns="http://www.w3.org/2000/svg" width="24" height="24">
  <defs/>
  <path  d="M18.718,18.718 C20.475,16.961 20.475,14.111 18.718,12.354 L11.646,5.283 C11.06,4.697 11.06,3.747 11.646,3.161 C12.232,2.575 13.182,2.575 13.768,3.161 L20.838,10.232 C23.745,13.164 23.736,17.895 20.816,20.815 C17.897,23.736 13.166,23.747 10.233,20.84 L1.748,12.355 C-0.4,10.207 -0.4,6.725 1.748,4.576 C3.895,2.428 7.378,2.428 9.526,4.576 L17.658,12.708 C19.025,14.075 19.025,16.291 17.658,17.658 C16.291,19.025 14.075,19.025 12.708,17.658 L5.283,10.233 C4.697,9.647 4.698,8.697 5.284,8.111 C5.869,7.526 6.819,7.526 7.405,8.112 L14.829,15.537 C15.024,15.733 15.341,15.733 15.536,15.538 C15.732,15.342 15.732,15.026 15.537,14.83 L7.404,6.697 C6.427,5.728 4.85,5.731 3.876,6.704 C2.903,7.677 2.899,9.254 3.868,10.232 L12.354,18.718 C14.111,20.475 16.961,20.475 18.718,18.718 Z"/>
</svg>

