<svg xmlns="http://www.w3.org/2000/svg" width="24" height="24">
  <defs/>
  <path  d="M18.71,17.565 C20.369,15.905 20.369,13.215 18.71,11.555 L12.17,5.015 C11.779,4.625 11.779,3.991 12.17,3.601 C12.56,3.21 13.193,3.21 13.584,3.6 L20.124,10.14 C22.565,12.581 22.566,16.538 20.125,18.979 C17.684,21.42 13.727,21.421 11.286,18.98 L3.332,11.025 C1.574,9.267 1.575,6.417 3.332,4.66 C5.09,2.902 7.94,2.902 9.698,4.66 L17.651,12.613 C18.699,13.692 18.686,15.413 17.622,16.476 C16.559,17.54 14.838,17.552 13.759,16.504 L6.513,9.257 C6.122,8.867 6.122,8.233 6.512,7.843 C6.903,7.452 7.536,7.452 7.927,7.842 L15.174,15.089 C15.467,15.383 15.943,15.383 16.236,15.09 C16.53,14.796 16.53,14.321 16.237,14.027 L8.284,6.074 C7.308,5.097 5.724,5.097 4.747,6.073 C3.77,7.049 3.77,8.633 4.746,9.61 L12.7,17.564 C14.36,19.223 17.05,19.223 18.71,17.564 Z"/>
</svg>

