<svg xmlns="http://www.w3.org/2000/svg" width="24" height="24">
  <defs/>
  <path  d="M2.686,10.462 L2.687,10.463 C3.243,9.906 4.028,9.644 4.807,9.756 L9.757,4.807 C9.604,3.741 10.151,2.698 11.113,2.216 C12.076,1.735 13.239,1.924 14,2.685 L16.828,5.512 C17.589,6.273 17.778,7.435 17.297,8.398 C16.816,9.361 15.772,9.907 14.707,9.755 L13.735,10.727 L20.748,16.806 C21.537,17.491 21.878,18.559 21.632,19.575 C21.385,20.59 20.592,21.383 19.577,21.63 C18.561,21.876 17.493,21.535 16.808,20.746 L10.73,13.732 L9.757,14.705 C9.909,15.77 9.362,16.812 8.4,17.294 C7.438,17.775 6.276,17.586 5.515,16.826 L2.686,13.998 C1.709,13.022 1.709,11.438 2.686,10.462 Z M12.94,8.695 L10.819,6.573 L6.576,10.816 L8.698,12.937 Z M18.32,19.436 L18.319,19.437 C18.515,19.655 18.816,19.746 19.1,19.675 C19.384,19.604 19.606,19.382 19.677,19.098 C19.748,18.814 19.657,18.513 19.439,18.317 L12.506,12.309 L12.312,12.504 Z M11.878,4.805 L14.707,7.634 C14.833,7.764 15.018,7.816 15.193,7.77 C15.368,7.725 15.505,7.588 15.55,7.413 C15.596,7.238 15.544,7.053 15.414,6.927 L12.585,4.098 C12.459,3.968 12.274,3.916 12.099,3.962 C11.924,4.007 11.787,4.144 11.742,4.319 C11.696,4.494 11.748,4.679 11.878,4.805 Z M4.1,12.584 L6.929,15.412 C7.055,15.542 7.24,15.594 7.415,15.548 C7.59,15.503 7.727,15.366 7.772,15.191 C7.818,15.016 7.766,14.831 7.636,14.705 L4.807,11.876 C4.611,11.681 4.295,11.681 4.1,11.877 C3.904,12.072 3.904,12.389 4.1,12.584 Z"/>
</svg>

