<svg xmlns="http://www.w3.org/2000/svg" width="24" height="24">
  <defs/>
  <path  d="M19,4 A3 3 0 0 1 21.995,6.824 L22,7 L22,17 A3 3 0 0 1 19.176,19.995 L19,20 L5,20 A3 3 0 0 1 2.005,17.176 L2,17 L2,7 A3 3 0 0 1 4.824,4.005 L5,4 Z M6.22,6 L5,6 A1 1 0 0 0 4.007,6.883 L4,7 L4,17 A1 1 0 0 0 4.883,17.993 L5,18 L19,18 A1 1 0 0 0 19.993,17.117 L20,17 L20,7 A1 1 0 0 0 19.117,6.007 L19,6 L17.78,6 L16.97,9.243 A1 1 0 0 1 16.113,9.993 L16,10 L8,10 A1 1 0 0 1 7.064,9.351 L7.03,9.243 Z M8.5,12 A1.5 1.5 0 1 1 8.5,15 A1.5 1.5 0 0 1 8.5,12 M15.5,12 A1.5 1.5 0 1 1 15.5,15 A1.5 1.5 0 0 1 15.5,12 M15.72,6 L8.28,6 L8.78,8 L15.22,8 Z"/>
</svg>

