<svg xmlns="http://www.w3.org/2000/svg" width="24" height="24">
  <defs/>
  <path  d="M19.03,4 C20.607,4.016 21.903,5.25 21.995,6.825 L22,7 L22,17 C22,18.589 20.762,19.902 19.176,19.995 L19,20 L5,20 C3.411,20 2.098,18.762 2.005,17.176 L2,17 L2,7 C2,5.423 3.221,4.115 4.795,4.007 L4.969,4 L6.029,8.243 C6.131,8.647 6.473,8.946 6.887,8.993 L7,9 L17,9 C17.417,9 17.79,8.741 17.936,8.35 L17.97,8.243 Z M16.97,4 L16.22,7 L7.78,7 L7.03,4 Z M8.5,12 C7.672,12 7,12.672 7,13.5 C7,14.328 7.672,15 8.5,15 C9.328,15 10,14.328 10,13.5 C10,12.672 9.328,12 8.5,12 Z M15.5,12 C14.672,12 14,12.672 14,13.5 C14,14.328 14.672,15 15.5,15 C16.328,15 17,14.328 17,13.5 C17,12.672 16.328,12 15.5,12 Z"/>
</svg>

