<svg xmlns="http://www.w3.org/2000/svg" width="24" height="24">
  <defs/>
  <path  d="M12,4 C16.418,4 20,7.582 20,12 C20,16.418 16.418,20 12,20 C7.582,20 4,16.418 4,12 C4,7.582 7.582,4 12,4 Z M14,8 C13.493,8 13.066,8.38 13.007,8.883 L13,9 L13,11 L11,11 L11,9 C10.999,8.471 10.587,8.034 10.059,8.003 C9.53,7.972 9.069,8.358 9.007,8.883 L9,9 L9,15 C9.001,15.529 9.413,15.966 9.941,15.997 C10.47,16.028 10.931,15.642 10.993,15.117 L11,15 L11,13 L13,13 L13,15 C13.001,15.529 13.413,15.966 13.941,15.997 C14.47,16.028 14.931,15.642 14.993,15.117 L15,15 L15,9 C15,8.448 14.552,8 14,8 Z M3.2,5.4 C3.41,5.103 3.765,4.943 4.127,4.984 C4.489,5.024 4.8,5.257 4.94,5.594 C5.08,5.93 5.026,6.315 4.799,6.6 C3.628,8.156 2.997,10.052 3,12 C3,14.027 3.67,15.895 4.799,17.4 C5.13,17.842 5.041,18.469 4.599,18.8 C4.157,19.131 3.53,19.042 3.199,18.6 C1.768,16.697 0.997,14.38 1,12 C1,9.525 1.819,7.238 3.2,5.4 Z M19.4,5.2 C19.842,4.869 20.469,4.958 20.8,5.4 C22.231,7.303 23.003,9.619 23,12 C23,14.475 22.181,16.762 20.8,18.6 C20.59,18.897 20.235,19.057 19.873,19.016 C19.511,18.976 19.2,18.743 19.06,18.406 C18.92,18.07 18.974,17.685 19.201,17.4 C20.372,15.844 21.003,13.948 21,12 C21,9.973 20.33,8.105 19.201,6.6 C18.87,6.158 18.959,5.531 19.401,5.2 Z"/>
</svg>

