<svg xmlns="http://www.w3.org/2000/svg" width="24" height="24">
  <defs/>
  <path  d="M12,4 A8 8 0 1 1 12,20 A8 8 0 0 1 12,4 M4.6,5.2 A1 1 0 0 1 4.799,6.6 A8.956 8.956 0 0 0 3,12 C3,14.027 3.67,15.895 4.799,17.4 A1 1 0 0 1 3.199,18.6 A10.956 10.956 0 0 1 1,12 C1,9.525 1.819,7.238 3.2,5.4 A1 1 0 0 1 4.6,5.2 M20.8,5.4 A10.956 10.956 0 0 1 23,12 C23,14.475 22.181,16.762 20.8,18.6 A1 1 0 1 1 19.201,17.4 A8.956 8.956 0 0 0 21,12 C21,9.973 20.33,8.105 19.201,6.6 A1 1 0 0 1 20.801,5.4 Z M12,6 A6 6 0 1 0 12,18 A6 6 0 0 0 12,6 M14,8 A1 1 0 0 1 15,9 L15,15 A1 1 0 1 1 13,15 L13,13 L11,13 L11,15 A1 1 0 1 1 9,15 L9,9 A1 1 0 1 1 11,9 L11,11 L13,11 L13,9 A1 1 0 0 1 14,8"/>
</svg>

