<svg xmlns="http://www.w3.org/2000/svg" width="24" height="24">
  <defs/>
  <path  d="M15.638,8.699 L9.229,19.8 C8.961,20.264 8.465,20.55 7.929,20.55 L3.481,20.55 C2.945,20.55 2.45,20.264 2.182,19.8 C1.914,19.336 1.914,18.764 2.182,18.3 L10.816,3.347 C11.084,2.883 11.579,2.597 12.115,2.597 C12.651,2.597 13.146,2.883 13.414,3.347 L15.638,7.199 C15.906,7.663 15.906,8.235 15.638,8.699 Z M20.749,20.551 L14.481,20.551 C13.945,20.551 13.45,20.265 13.182,19.801 C12.914,19.337 12.914,18.765 13.182,18.301 L16.316,12.873 C16.584,12.409 17.079,12.123 17.615,12.123 C18.151,12.123 18.646,12.409 18.914,12.873 L22.048,18.301 C22.316,18.765 22.316,19.337 22.048,19.801 C21.78,20.265 21.285,20.551 20.749,20.551 Z"/>
</svg>

