<svg xmlns="http://www.w3.org/2000/svg" width="24" height="24">
  <defs/>
  <path  d="M10.816,3.347 C11.071,2.906 11.532,2.624 12.041,2.598 C12.55,2.573 13.037,2.808 13.334,3.222 L13.414,3.347 L15.927,7.699 C16.167,8.114 16.193,8.619 15.999,9.057 L15.927,9.199 L9.806,19.8 C9.564,20.22 9.133,20.496 8.651,20.543 L8.506,20.55 L3.481,20.55 C2.969,20.55 2.492,20.288 2.216,19.856 C1.941,19.424 1.905,18.882 2.121,18.417 L2.182,18.3 Z M16.316,12.873 C16.571,12.432 17.032,12.15 17.541,12.124 C18.05,12.099 18.537,12.334 18.834,12.748 L18.914,12.873 L22.048,18.301 C22.305,18.745 22.317,19.289 22.08,19.744 C21.843,20.199 21.391,20.501 20.88,20.546 L20.749,20.551 L14.48,20.551 C13.968,20.551 13.491,20.289 13.215,19.857 C12.94,19.425 12.904,18.883 13.12,18.418 L13.181,18.301 Z M12.115,5.097 L4.347,18.55 L8.217,18.55 L14.05,8.45 Z M17.615,14.623 L15.347,18.551 L19.883,18.551 Z"/>
</svg>

