<svg xmlns="http://www.w3.org/2000/svg" width="24" height="24">
  <defs/>
  <path  d="M12,2 C15.397,2 18.423,4.145 19.549,7.35 C20.674,10.556 19.652,14.122 17,16.245 L17,20.855 C17,21.216 16.823,21.554 16.527,21.759 C16.23,21.965 15.852,22.012 15.514,21.885 L12,20.569 L8.486,21.887 C8.148,22.014 7.769,21.966 7.473,21.761 C7.176,21.555 7,21.217 7,20.856 L7,16.246 C4.347,14.123 3.325,10.556 4.45,7.351 C5.575,4.145 8.603,1.999 12,2 Z M12,4 C8.686,4 6,6.686 6,10 C6,13.314 8.686,16 12,16 C15.314,16 18,13.314 18,10 C18,6.686 15.314,4 12,4 Z M12,6 C14.209,6 16,7.791 16,10 C16,12.209 14.209,14 12,14 C9.791,14 8,12.209 8,10 C8,7.791 9.791,6 12,6 Z M12,8 C10.895,8 10,8.895 10,10 C10,11.105 10.895,12 12,12 C13.105,12 14,11.105 14,10 C14,8.895 13.105,8 12,8 Z M15,17.419 C14.047,17.804 13.028,18.001 12,18 C10.972,18.001 9.953,17.804 9,17.419 L9,19.557 L11.298,18.695 C11.751,18.525 12.249,18.525 12.702,18.695 L15,19.557 Z"/>
</svg>

