<svg xmlns="http://www.w3.org/2000/svg" width="24" height="24">
  <defs/>
  <path  d="M6.778,2.025 C7.046,1.964 7.327,2.016 7.555,2.168 C8.746,2.962 10.397,3.452 12.273,3.726 C14.135,3.999 16.133,4.048 17.958,4.022 C19.02,4.006 19.911,4.817 19.994,5.876 L20,6.029 L20,8.97 C19.999,9.508 19.783,10.024 19.399,10.401 C19.015,10.778 18.496,10.986 17.958,10.977 C17.526,10.971 17.094,10.969 16.662,10.973 L16,10.983 L16,21 C16,21.507 15.62,21.934 15.117,21.993 L15,22 L12,22 C11.493,22 11.066,21.62 11.007,21.117 L11,21 L11,11.502 C9.652,11.793 8.468,12.223 7.555,12.832 C7.327,12.984 7.046,13.036 6.778,12.975 C6.387,12.885 6.219,12.685 6.084,12.427 L5.937,12.113 L5.88,11.987 L5.754,11.685 C5.679,11.496 5.611,11.305 5.548,11.112 C5.178,9.944 4.994,8.725 5,7.5 C5,5.974 5.271,4.745 5.548,3.888 C5.641,3.602 5.734,3.357 5.818,3.156 L5.937,2.886 C6.116,2.5 6.326,2.128 6.777,2.025 Z M7.478,4.422 C7.154,5.416 6.993,6.455 7,7.5 C7,8.838 7.247,9.89 7.478,10.578 C8.832,9.916 10.404,9.526 11.983,9.295 C13.998,9 16.131,8.973 18,9 L18.003,8.636 L18,6 C16.13,6.027 13.999,6 11.983,5.705 C10.403,5.475 8.832,5.084 7.478,4.422 Z M14,11.083 C13.665,11.109 13.331,11.141 13,11.179 L13,20 L14,20 Z"/>
</svg>

