<svg xmlns="http://www.w3.org/2000/svg" width="24" height="24">
  <defs/>
  <path  d="M7.555,2.168 A1 1 0 0 0 6.778,2.025 C6.326,2.128 6.116,2.5 5.937,2.887 A8.89 8.89 0 0 0 5.548,3.887 A11.768 11.768 0 0 0 5,7.5 C5,9.026 5.271,10.255 5.548,11.112 C5.688,11.541 5.828,11.878 5.937,12.113 C6.125,12.52 6.24,12.853 6.777,12.975 A1 1 0 0 0 7.555,12.832 C8.468,12.223 9.652,11.793 11,11.502 L11,21 A1 1 0 0 0 12,22 L15,22 A1 1 0 0 0 16,21 L16,10.984 A52.356 52.356 0 0 1 17.958,10.978 A2.01 2.01 0 0 0 20,8.97 L20,6.03 A2.01 2.01 0 0 0 17.958,4.023 C16.133,4.049 14.135,4 12.273,3.727 C10.397,3.453 8.746,2.963 7.555,2.169 Z"/>
</svg>

