<svg xmlns="http://www.w3.org/2000/svg" width="24" height="24">
  <defs/>
  <path  d="M16.999,3 L17,3 C17.828,3.001 18.499,3.672 18.499,4.5 L18.499,16.207 L18.768,15.939 C19.354,15.353 20.304,15.354 20.889,15.939 C21.475,16.525 21.475,17.475 20.889,18.061 L18.061,20.889 C17.475,21.475 16.525,21.475 15.939,20.889 L13.111,18.061 C12.525,17.475 12.525,16.525 13.111,15.939 C13.696,15.354 14.646,15.353 15.232,15.939 L15.5,16.207 L15.5,4.5 C15.5,3.672 16.171,3.001 16.999,3 Z M10.759,13 C12.136,13 12.849,14.61 11.985,15.628 L11.89,15.731 L8.62,19 L11,19 C11.8,19 12.459,19.629 12.498,20.428 C12.536,21.227 11.94,21.916 11.144,21.993 L11,22 L5.24,22 C3.862,22 3.15,20.39 4.014,19.372 L4.109,19.269 L7.379,16 L4.999,16 C4.199,16 3.54,15.371 3.501,14.572 C3.463,13.773 4.059,13.084 4.855,13.007 L5,13 Z M8,2 C8.871,2 9.66,2.511 10.017,3.305 L10.082,3.466 L12.414,9.996 C12.681,10.749 12.311,11.579 11.572,11.884 C10.833,12.188 9.985,11.86 9.644,11.138 L9.585,11 L6.414,11 C6.14,11.746 5.332,12.15 4.571,11.92 C3.81,11.69 3.36,10.907 3.545,10.134 L3.587,9.995 L5.92,3.467 C6.234,2.588 7.066,2.001 8,2 Z M8,6.56 L7.487,8 L8.515,8 Z"/>
</svg>

