<svg xmlns="http://www.w3.org/2000/svg" width="24" height="24">
  <defs/>
  <path  d="M17,4 C17.552,4 18,4.448 18,5 L18,17.414 L19.121,16.293 C19.511,15.902 20.145,15.902 20.535,16.292 C20.926,16.683 20.926,17.316 20.536,17.707 L17.707,20.535 C17.316,20.925 16.684,20.925 16.293,20.535 L13.465,17.707 C13.086,17.315 13.091,16.691 13.477,16.305 C13.863,15.919 14.487,15.914 14.879,16.293 L16,17.414 L16,5 C16,4.448 16.448,4 17,4 Z M8,3 C8.674,3 9.28,3.396 9.556,4.002 L9.61,4.135 L11.942,10.664 C12.12,11.163 11.879,11.714 11.391,11.921 C10.903,12.128 10.339,11.919 10.104,11.444 L10.058,11.336 L9.581,10 L6.419,10 L5.942,11.336 C5.766,11.837 5.228,12.113 4.718,11.964 C4.208,11.815 3.904,11.293 4.025,10.776 L4.058,10.664 L6.39,4.134 C6.633,3.454 7.278,3 8,3 Z M10.759,13 C11.699,13 12.189,14.092 11.614,14.792 L11.536,14.878 L7.414,19 L11,19 C11.529,19.001 11.966,19.413 11.997,19.941 C12.028,20.47 11.642,20.931 11.117,20.993 L11,21 L5.241,21 C4.301,21 3.811,19.908 4.386,19.208 L4.464,19.122 L8.586,15 L5,15 C4.471,14.999 4.034,14.587 4.003,14.059 C3.972,13.53 4.358,13.069 4.883,13.007 L5,13 Z M8,5.573 L7.133,8 L8.867,8 Z"/>
</svg>

