<svg xmlns="http://www.w3.org/2000/svg" width="24" height="24">
  <defs/>
  <path  d="M16.293,4.293 C16.684,3.903 17.316,3.903 17.707,4.293 L20.536,7.121 C20.927,7.512 20.927,8.145 20.536,8.536 C20.145,8.927 19.512,8.927 19.121,8.536 L18,7.414 L18,20 C18,20.552 17.552,21 17,21 C16.448,21 16,20.552 16,20 L16,7.414 L14.879,8.536 C14.488,8.927 13.855,8.927 13.464,8.536 C13.073,8.145 13.073,7.512 13.464,7.121 Z M4.664,11.942 C4.144,11.756 3.872,11.184 4.058,10.664 L6.39,4.134 C6.633,3.454 7.278,3 8,3 C8.722,3 9.367,3.454 9.61,4.134 L11.942,10.664 C12.128,11.184 11.856,11.756 11.336,11.942 C10.816,12.128 10.244,11.856 10.058,11.336 L9.581,10 L6.419,10 L5.942,11.336 C5.756,11.856 5.184,12.128 4.664,11.942 Z M5,13 L10.759,13 C11.739,13 12.229,14.185 11.536,14.878 L7.414,19 L11,19 C11.552,19 12,19.448 12,20 C12,20.552 11.552,21 11,21 L5.24,21 C4.26,21 3.77,19.815 4.464,19.122 L8.586,15 L5,15 C4.448,15 4,14.552 4,14 C4,13.448 4.448,13 5,13 Z M8,5.573 L7.133,8 L8.867,8 Z"/>
</svg>

