<svg xmlns="http://www.w3.org/2000/svg" width="24" height="24">
  <defs/>
  <path  d="M15.94,3.94 C16.526,3.355 17.474,3.355 18.06,3.94 L20.89,6.768 C21.476,7.354 21.475,8.304 20.889,8.889 C20.304,9.475 19.354,9.475 18.768,8.889 L18.5,8.621 L18.5,20 C18.5,20.828 17.828,21.5 17,21.5 C16.172,21.5 15.5,20.828 15.5,20 L15.5,8.621 L15.232,8.889 C14.855,9.279 14.298,9.435 13.773,9.298 C13.249,9.161 12.839,8.751 12.702,8.227 C12.565,7.702 12.721,7.145 13.111,6.768 L15.939,3.939 Z M5,13 L10.757,13 C12.183,13 12.897,14.723 11.889,15.731 L8.62,19 L11,19 C11.828,19 12.5,19.672 12.5,20.5 C12.5,21.328 11.828,22 11,22 L5.241,22 C3.816,22 3.102,20.277 4.11,19.269 L7.379,16 L5,16 C4.172,16 3.5,15.328 3.5,14.5 C3.5,13.672 4.172,13 5,13 Z M4.495,11.913 L4.494,11.914 C3.714,11.635 3.307,10.777 3.586,9.997 L5.918,3.467 C6.232,2.588 7.065,2.001 7.999,2.001 C8.933,2.001 9.766,2.588 10.08,3.467 L12.413,9.995 C12.692,10.775 12.285,11.634 11.505,11.913 C10.725,12.192 9.866,11.785 9.587,11.005 L9.407,10.5 L6.593,10.5 L6.413,11.004 C6.279,11.379 6.002,11.686 5.642,11.856 C5.283,12.027 4.87,12.047 4.495,11.913 Z M8,6.56 L7.664,7.5 L8.336,7.5 Z"/>
</svg>

