<svg xmlns="http://www.w3.org/2000/svg" width="24" height="24">
  <defs/>
  <path  d="M11.41,2.017 C12.2,2.087 12.663,2.357 12.944,2.669 C13.287,3.05 13.5,3.652 13.5,4.5 C13.5,5.04 13.21,5.539 12.74,5.805 C12.27,6.072 11.694,6.065 11.23,5.788 L11.1,5.7 C10.658,5.369 10.031,5.458 9.7,5.9 C9.369,6.342 9.458,6.969 9.9,7.3 C10.961,8.095 12.38,8.223 13.565,7.63 C14.751,7.038 15.5,5.826 15.5,4.5 C15.5,3.815 15.398,3.131 15.152,2.507 C19.13,3.827 22,7.578 22,12 C22,17.523 17.523,22 12,22 C6.477,22 2,17.523 2,12 C2,6.675 6.162,2.323 11.41,2.017 Z M14.64,15.232 C14.216,14.879 13.586,14.936 13.232,15.36 C12.873,15.79 12.434,16 12,16 C11.566,16 11.127,15.79 10.768,15.36 C10.411,14.951 9.792,14.903 9.375,15.25 C8.958,15.598 8.895,16.215 9.232,16.64 C9.904,17.447 10.876,18 12,18 C13.124,18 14.096,17.447 14.768,16.64 C15.121,16.216 15.064,15.586 14.64,15.232 Z M8.5,10 C7.672,10 7,10.672 7,11.5 C7,12.328 7.672,13 8.5,13 C9.328,13 10,12.328 10,11.5 C10,10.672 9.328,10 8.5,10 Z M15.5,10 C14.672,10 14,10.672 14,11.5 C14,12.328 14.672,13 15.5,13 C16.328,13 17,12.328 17,11.5 C17,10.672 16.328,10 15.5,10 Z"/>
</svg>

