<svg xmlns="http://www.w3.org/2000/svg" width="24" height="24">
  <defs/>
  <path  d="M7.746,2.609 C8.51,2.313 9.312,2.702 9.623,3.382 L12.643,10 L18,10 L18,8.5 C18,7.119 19.119,6 20.5,6 L21,6 C21.552,6 22,6.448 22,7 C22,7.552 21.552,8 21,8 L20.5,8 C20.224,8 20,8.224 20,8.5 L20,11 C20,13.314 19.109,15.539 17.511,17.213 C18.652,17.717 19.246,18.985 18.904,20.184 C18.563,21.384 17.39,22.148 16.155,21.975 C14.919,21.803 14,20.747 14,19.5 L14,19.485 C12.059,20.171 9.941,20.171 8,19.485 L8,19.5 C8,20.747 7.081,21.803 5.845,21.975 C4.61,22.148 3.437,21.384 3.096,20.184 C2.754,18.985 3.348,17.717 4.489,17.213 C2.415,15.039 1.562,11.974 2.216,9.041 C2.87,6.108 4.945,3.695 7.746,2.609 Z M8.012,4.669 C5.887,5.672 4.407,7.674 4.072,10 L10.444,10 L8.012,4.67 Z"/>
</svg>

