<svg xmlns="http://www.w3.org/2000/svg" width="24" height="24">
  <defs/>
  <path  d="M7.746,2.609 C8.431,2.346 9.204,2.625 9.563,3.265 L9.623,3.382 L12.643,10 L18,10 L18,8.5 C18,7.183 19.022,6.091 20.336,6.005 L20.5,6 L21,6 C21.529,6.001 21.966,6.413 21.997,6.941 C22.028,7.47 21.642,7.931 21.117,7.993 L21,8 L20.5,8 C20.259,8 20.051,8.172 20.008,8.41 L20,8.5 L20,11 C20,13.314 19.109,15.539 17.511,17.213 C18.632,17.709 19.228,18.945 18.918,20.132 C18.608,21.318 17.483,22.104 16.263,21.988 C15.042,21.872 14.086,20.888 14.005,19.664 L14,19.485 C12.185,20.127 10.212,20.17 8.371,19.608 L8,19.485 L8,19.5 C8,20.747 7.081,21.803 5.845,21.975 C4.61,22.148 3.437,21.384 3.096,20.184 C2.754,18.985 3.348,17.717 4.489,17.213 C2.415,15.039 1.563,11.974 2.217,9.042 C2.871,6.109 4.945,3.697 7.746,2.61 Z M17.928,12 L4.072,12 C4.57,15.443 7.521,17.999 11,17.999 C14.479,17.999 17.43,15.443 17.928,12 Z M8.012,4.67 C5.985,5.627 4.538,7.497 4.122,9.7 L4.072,10 L10.444,10 Z M5.5,19 C5.224,19 5,19.224 5,19.5 C5,19.776 5.224,20 5.5,20 C5.776,20 6,19.776 6,19.5 C6,19.224 5.776,19 5.5,19 Z M16.5,19 C16.224,19 16,19.224 16,19.5 C16,19.776 16.224,20 16.5,20 C16.776,20 17,19.776 17,19.5 C17,19.224 16.776,19 16.5,19 Z"/>
</svg>

