<svg xmlns="http://www.w3.org/2000/svg" width="24" height="24">
  <defs/>
  <path  d="M12,2 C17.523,2 22,6.477 22,12 C22,17.523 17.523,22 12,22 C6.477,22 2,17.523 2,12 C2,6.477 6.477,2 12,2 M12,4 A8 8 0 1 0 14.97,4.57 A3 3 0 0 1 10.016,7.25 A1 1 0 0 1 11.24,5.673 L11.339,5.75 A1 1 0 1 0 12,4 M14.64,15.232 A1 1 0 0 1 14.768,16.64 C14.096,17.447 13.124,18 12,18 C10.876,18 9.904,17.447 9.232,16.64 A1 1 0 0 1 10.768,15.36 C11.127,15.79 11.566,16 12,16 C12.434,16 12.873,15.79 13.232,15.36 A1 1 0 0 1 14.64,15.232 M8.5,10 A1.5 1.5 0 1 1 8.5,13 A1.5 1.5 0 0 1 8.5,10 M15.5,10 A1.5 1.5 0 1 1 15.5,13 A1.5 1.5 0 0 1 15.5,10"/>
</svg>

