<svg xmlns="http://www.w3.org/2000/svg" width="24" height="24">
  <defs/>
  <path  d="M8,13 L16,13 A1 1 0 1 1 16,15 L15.847,15 L14.987,20.164 A1 1 0 0 1 13.293,20.707 L13,20.414 L12.707,20.707 A1 1 0 0 1 11.293,20.707 L11,20.414 L10.707,20.707 A1 1 0 0 1 9.014,20.164 L8.153,15 L8,15 A1 1 0 1 1 8,13 M13.82,15 L10.18,15 L10.689,18.05 A1 1 0 0 1 11.707,18.293 L12,18.586 L12.293,18.293 A1 1 0 0 1 13.311,18.049 Z M20,4 A2 2 0 0 1 21.995,5.85 L22,6 L22,16 A2 2 0 0 1 20.15,17.995 L20,18 L18,18 A1 1 0 0 1 17.883,16.007 L18,16 L20,16 L20,6 L4,6 L4,16 L6,16 A1 1 0 0 1 6.117,17.993 L6,18 L4,18 A2 2 0 0 1 2.005,16.15 L2,16 L2,6 A2 2 0 0 1 3.85,4.005 L4,4 Z M15,8 A1 1 0 0 1 15.993,8.883 L16,9 L16,11 A1 1 0 0 1 14.007,11.117 L14,11 L14,10 L10,10 L10,11 A1 1 0 0 1 8.007,11.117 L8,11 L8,9 A1 1 0 0 1 8.883,8.007 L9,8 Z"/>
</svg>

