<svg xmlns="http://www.w3.org/2000/svg" width="24" height="24">
  <defs/>
  <path  d="M2.614,5.426 C2.846,4.865 3.393,4.5 4,4.5 L14,4.5 C18.142,4.5 21.5,7.858 21.5,12 C21.5,16.142 18.142,19.5 14,19.5 L5,19.5 C4.172,19.5 3.5,18.828 3.5,18 C3.5,17.172 4.172,16.5 5,16.5 L14,16.5 C16.485,16.5 18.5,14.485 18.5,12 C18.5,9.515 16.485,7.5 14,7.5 L7.621,7.5 L8.561,8.44 C9.129,9.029 9.121,9.964 8.542,10.543 C7.963,11.121 7.027,11.129 6.439,10.56 L2.939,7.06 C2.51,6.631 2.382,5.986 2.614,5.426 Z"/>
</svg>

