<svg xmlns="http://www.w3.org/2000/svg" width="24" height="24">
  <defs/>
  <path  d="M12,2 C13.855,2 15.467,3.275 15.894,5.08 C18.271,5.513 19.999,7.583 20,10 L20,19 C20,20.657 18.657,22 17,22 L7,22 C5.343,22 4,20.657 4,19 L4,10 C4,7.583 5.728,5.512 8.106,5.08 C8.533,3.275 10.145,2 12,2 Z M15,18 L9,18 L9,20 L15,20 Z M14,14 L10,14 C9.493,14 9.066,14.38 9.007,14.883 L9,15 L9,16 L15,16 L15,15 C15,14.493 14.62,14.066 14.117,14.007 Z M13,9 L11,9 C10.448,9 10,9.448 10,10 C10,10.552 10.448,11 11,11 L13,11 C13.552,11 14,10.552 14,10 C14,9.448 13.552,9 13,9 Z M12,4 C11.285,4 10.625,4.381 10.268,5 L13.732,5 C13.375,4.381 12.715,4 12,4 Z"/>
</svg>

