<svg xmlns="http://www.w3.org/2000/svg" width="24" height="24">
  <defs/>
  <path  d="M20.753,4.342 A1 1 0 0 1 20.658,5.752 L4.658,19.752 A1 1 0 1 1 3.342,18.247 L19.342,4.247 A1 1 0 0 1 20.752,4.342 Z M20.753,10.717 A1 1 0 0 1 20.658,12.127 L11.944,19.753 A1 1 0 1 1 10.627,18.247 L19.341,10.622 A1 1 0 0 1 20.753,10.717 M19.341,16.497 A1 1 0 0 1 20.748,17.914 L20.658,18.003 L18.658,19.753 A1 1 0 0 1 17.252,18.336 L17.342,18.247 L19.342,16.497 Z M13.468,4.342 A1 1 0 0 1 13.374,5.752 L4.66,13.378 A1 1 0 1 1 3.343,11.872 L12.057,4.247 A1 1 0 0 1 13.467,4.342 Z M5.77,4.247 A1 1 0 0 1 7.176,5.664 L7.087,5.753 L4.66,7.878 A1 1 0 0 1 3.252,6.46 L3.342,6.371 Z"/>
</svg>

