<svg xmlns="http://www.w3.org/2000/svg" width="24" height="24">
  <defs/>
  <path  d="M4,4 L20,4 C21.105,4 22,4.895 22,6 L22,16 C22,17.105 21.105,18 20,18 L15.347,18 L14.986,20.164 C14.924,20.533 14.662,20.837 14.305,20.952 C13.948,21.066 13.558,20.972 13.293,20.707 L13,20.414 L12.707,20.707 C12.316,21.097 11.684,21.097 11.293,20.707 L11,20.414 L10.707,20.707 C10.442,20.972 10.051,21.067 9.694,20.953 C9.337,20.838 9.074,20.534 9.013,20.164 L8.653,18 L4,18 C2.895,18 2,17.105 2,16 L2,6 C2,4.895 2.895,4 4,4 Z M15.514,17 L15.847,15 L16,15 C16.552,15 17,14.552 17,14 C17,13.448 16.552,13 16,13 L8,13 C7.448,13 7,13.448 7,14 C7,14.552 7.448,15 8,15 L8.153,15 L8.486,17 Z M9,8 C8.448,8 8,8.448 8,9 L8,11 C8,11.552 8.448,12 9,12 C9.552,12 10,11.552 10,11 L10,10 L14,10 L14,11 C14,11.552 14.448,12 15,12 C15.552,12 16,11.552 16,11 L16,9 C16,8.448 15.552,8 15,8 Z"/>
</svg>

