<svg xmlns="http://www.w3.org/2000/svg" width="24" height="24">
  <defs/>
  <path  d="M21.129,4.012 A1.5 1.5 0 0 1 20.988,6.129 L4.988,20.129 A1.5 1.5 0 0 1 3.012,17.871 L19.012,3.871 A1.5 1.5 0 0 1 21.129,4.012 M21.129,10.387 A1.5 1.5 0 0 1 20.988,12.504 L12.273,20.129 A1.5 1.5 0 0 1 10.298,17.871 L19.012,10.246 A1.5 1.5 0 0 1 21.129,10.387 M21.129,16.262 A1.5 1.5 0 0 1 21.099,18.272 L20.988,18.379 L18.988,20.129 A1.5 1.5 0 0 1 16.902,17.978 L17.012,17.871 L19.012,16.121 A1.5 1.5 0 0 1 21.129,16.262 M13.843,4.012 A1.5 1.5 0 0 1 13.703,6.129 L4.988,13.754 A1.5 1.5 0 0 1 3.012,11.496 L11.727,3.871 A1.5 1.5 0 0 1 13.843,4.012 M7.557,4.012 A1.5 1.5 0 0 1 7.527,6.022 L7.417,6.129 L4.987,8.254 A1.5 1.5 0 0 1 2.902,6.103 L3.012,5.996 L5.441,3.871 A1.5 1.5 0 0 1 7.557,4.012"/>
</svg>

