<svg xmlns="http://www.w3.org/2000/svg" width="24" height="24">
  <defs/>
  <path  d="M12,2 A4.002 4.002 0 0 1 15.894,5.08 A5.002 5.002 0 0 1 20,10 L20,19 A3 3 0 0 1 17,22 L7,22 A3 3 0 0 1 4,19 L4,10 A5 5 0 0 1 8.106,5.08 A4.002 4.002 0 0 1 12,2 M15,7 L9,7 A3 3 0 0 0 6.005,9.824 L6,10 L6,19 A1 1 0 0 0 6.883,19.993 L7,20 L8,20 L8,15 A2 2 0 0 1 9.85,13.005 L10,13 L14,13 A2 2 0 0 1 15.995,14.85 L16,15 L16,20 L17,20 A1 1 0 0 0 17.993,19.117 L18,19 L18,10 A3 3 0 0 0 15.176,7.005 Z M14,18 L10,18 L10,20 L14,20 Z M14,15 L10,15 L10,16 L14,16 Z M13,9 A1 1 0 1 1 13,11 L11,11 A1 1 0 1 1 11,9 Z M12,4 C11.317,4 10.713,4.343 10.353,4.866 L10.268,5 L13.732,5 A2 2 0 0 0 12,4"/>
</svg>

