<svg xmlns="http://www.w3.org/2000/svg" width="24" height="24">
  <defs/>
  <path  d="M3.905,5.707 C3.481,4.519 3.912,3.194 4.954,2.483 C5.996,1.771 7.387,1.853 8.339,2.682 C8.85,2.24 9.504,1.998 10.179,2 C10.873,2 11.509,2.25 12,2.667 C12.509,2.235 13.155,1.999 13.822,2 C14.532,2 15.172,2.26 15.662,2.682 C16.614,1.853 18.005,1.771 19.047,2.483 C20.089,3.194 20.52,4.519 20.096,5.707 L16,17.173 L16,18 C16,20.209 14.209,22 12,22 C9.791,22 8,20.209 8,18 L8,17.173 Z M14.653,15 L18.211,5.034 C18.311,4.759 18.247,4.451 18.046,4.238 C17.845,4.025 17.541,3.944 17.26,4.029 C16.98,4.113 16.771,4.348 16.721,4.637 L16.601,5.305 L16.598,5.321 L15.184,13.177 C15.127,13.535 14.881,13.834 14.542,13.959 C14.202,14.084 13.821,14.015 13.546,13.779 C13.271,13.544 13.145,13.178 13.216,12.823 L14.632,4.958 C14.68,4.654 14.554,4.349 14.306,4.168 C14.057,3.986 13.729,3.959 13.454,4.096 C13.179,4.234 13.004,4.514 13,4.821 L13,13 C13,13.552 12.552,14 12,14 C11.448,14 11,13.552 11,13 L11,4.82 C11.002,4.508 10.826,4.221 10.547,4.081 C10.268,3.941 9.933,3.971 9.684,4.159 C9.434,4.347 9.313,4.66 9.37,4.967 L10.784,12.823 C10.869,13.361 10.509,13.868 9.973,13.964 C9.438,14.061 8.923,13.711 8.816,13.177 L7.278,4.637 C7.228,4.348 7.019,4.113 6.739,4.029 C6.458,3.944 6.154,4.025 5.953,4.238 C5.752,4.451 5.688,4.759 5.788,5.034 L9.348,15 Z M10,17 L10,18 C10,19.105 10.895,20 12,20 C13.105,20 14,19.105 14,18 L14,17 L10,17 Z"/>
</svg>

