<svg xmlns="http://www.w3.org/2000/svg" width="24" height="24">
  <defs/>
  <path  d="M12,3 C12.552,3 13,3.448 13,4 L13,5 L13.764,5 C14.074,5 14.38,5.072 14.658,5.211 L16.236,6 L20,6 C20.552,6 21,6.448 21,7 C21,7.552 20.552,8 20,8 L19.618,8 L21.894,12.553 C21.964,12.692 22,12.845 22,13 C22,15.209 20.209,17 18,17 C15.791,17 14,15.209 14,13 C14,12.845 14.036,12.692 14.106,12.553 L16.382,8 L16.236,8 C15.926,8 15.62,7.928 15.342,7.789 L13.764,7 L13,7 L13,19 L16,19 C16.552,19 17,19.448 17,20 C17,20.552 16.552,21 16,21 L8,21 C7.448,21 7,20.552 7,20 C7,19.448 7.448,19 8,19 L11,19 L11,7 L10.236,7 L8.658,7.789 C8.38,7.928 8.074,8 7.764,8 L7.618,8 L9.894,12.553 C9.964,12.692 10,12.845 10,13 C10,15.209 8.209,17 6,17 C3.791,17 2,15.209 2,13 C2,12.845 2.036,12.692 2.106,12.553 L4.382,8 L4,8 C3.448,8 3,7.552 3,7 C3,6.448 3.448,6 4,6 L7.764,6 L9.342,5.211 C9.62,5.072 9.926,5 10.236,5 L11,5 L11,4 C11,3.448 11.448,3 12,3 Z"/>
</svg>

