<svg xmlns="http://www.w3.org/2000/svg" width="24" height="24">
  <defs/>
  <path  d="M12,2 C16.43,2 20,5.66 20,10.059 C20,12.564 18.882,15.016 17.399,16.829 C16.391,18.06 15.114,19.112 13.777,19.639 L13.49,19.744 L13.894,20.553 A1 1 0 0 1 13.129,21.992 L13,22 L11,22 A1 1 0 0 1 10.055,20.672 L10.105,20.552 L10.51,19.744 C9.07,19.261 7.681,18.148 6.601,16.828 C5.118,15.016 4,12.564 4,10.058 C4,5.66 7.57,2 12,2 M12,4 C8.698,4 6,6.74 6,10.059 C6,11.995 6.882,14.013 8.149,15.562 C9.449,17.15 10.943,18 12,18 C13.057,18 14.552,17.15 15.851,15.562 C17.118,14.013 18,11.995 18,10.059 C18,6.74 15.302,4 12,4 M13.278,5.181 C14.932,5.66 16.198,7.021 16.726,8.701 A1 1 0 1 1 14.818,9.3 C14.466,8.177 13.653,7.372 12.722,7.102 A1 1 0 1 1 13.278,5.182 Z"/>
</svg>

