<svg xmlns="http://www.w3.org/2000/svg" width="24" height="24">
  <defs/>
  <path  d="M4,10.059 L4,10.058 C4.001,5.658 7.57,2 12,2 C16.43,2 20,5.66 20,10.059 C20,12.564 18.882,15.016 17.399,16.829 C16.319,18.149 14.931,19.261 13.489,19.744 L13.894,20.553 C14.049,20.863 14.032,21.231 13.85,21.526 C13.668,21.82 13.346,22 13,22 L11,22 C10.654,22 10.332,21.82 10.15,21.526 C9.968,21.231 9.951,20.863 10.106,20.553 L10.51,19.743 C9.07,19.261 7.681,18.148 6.601,16.828 C5.118,15.016 4,12.565 4,10.059 Z M12.04,5.864 C11.887,6.394 12.192,6.948 12.722,7.102 C13.653,7.372 14.466,8.177 14.818,9.3 C14.921,9.645 15.203,9.908 15.554,9.988 C15.906,10.069 16.273,9.953 16.516,9.687 C16.758,9.42 16.839,9.043 16.726,8.701 C16.198,7.021 14.932,5.66 13.278,5.181 C12.748,5.028 12.193,5.334 12.04,5.864 Z"/>
</svg>

