<svg xmlns="http://www.w3.org/2000/svg" width="24" height="24">
  <defs/>
  <path  d="M13,1 C13.552,1 14,1.448 14,2 L14,4.382 L15.442,5.102 C15.784,5.274 16,5.624 16,6.006 L16,21 C16.552,21 17,21.448 17,22 C17,22.552 16.552,23 16,23 L7,23 C6.448,23 6,22.552 6,22 C6,21.448 6.448,21 7,21 L7,15.004 C7,14.736 7.106,14.479 7.296,14.29 L10,11.586 L10,4.016 C10,3.266 10.79,2.777 11.462,3.113 L12,3.382 L12,2 C12,1.448 12.448,1 13,1 Z M10.094,14.32 L9,15.414 L9,19.586 L12.478,16.108 Z M14,17.414 L10.414,21 L14,21 Z M14,10.414 L11.522,12.892 L14,14.75 Z M12,5.618 L12,9.586 L14,7.586 L14,6.618 Z"/>
</svg>

