<svg xmlns="http://www.w3.org/2000/svg" width="24" height="24">
  <defs/>
  <path  d="M13,1 C13.552,1 14,1.448 14,2 L14,4.382 L15.442,5.103 C15.784,5.274 16,5.624 16,6.006 L16,21 C16.552,21 17,21.448 17,22 C17,22.552 16.552,23 16,23 L7,23 C6.448,23 6,22.552 6,22 C6,21.448 6.448,21 7,21 L7,15.004 C7,14.736 7.107,14.479 7.296,14.29 L10,11.587 L10,4.017 C9.999,3.667 10.18,3.341 10.478,3.156 C10.776,2.972 11.149,2.955 11.462,3.112 L12,3.382 L12,2 C12,1.448 12.448,1 13,1 Z M13.52,13.122 L13.521,13.123 C13.437,13.168 13.36,13.226 13.293,13.293 L9.146,17.439 C9.052,17.533 9,17.66 9,17.793 L9,18.5 C9,18.776 9.224,19 9.5,19 L10.207,19 C10.34,19 10.467,18.948 10.561,18.854 L13.854,15.561 C13.948,15.467 14,15.34 14,15.207 L14,13.5 C14,13.224 13.763,12.99 13.52,13.122 Z M13.146,7.44 L13.146,7.439 L12.146,8.439 C12.052,8.533 12,8.66 12,8.793 L12,10.207 C12,10.41 12.121,10.592 12.309,10.67 C12.496,10.747 12.711,10.704 12.854,10.561 L13.854,9.561 C13.948,9.467 14,9.34 14,9.207 L14,7.793 C14,7.591 13.878,7.408 13.691,7.331 C13.504,7.254 13.289,7.297 13.146,7.44 Z"/>
</svg>

