<svg xmlns="http://www.w3.org/2000/svg" width="24" height="24">
  <defs/>
  <path  d="M12.67,2.217 L21.17,6.967 C21.679,7.221 22,7.741 22,8.31 L22,9.75 C22,10.44 21.44,11 20.75,11 L20,11 L20,19 L21,19 C21.552,19 22,19.448 22,20 C22,20.552 21.552,21 21,21 L3,21 C2.448,21 2,20.552 2,20 C2,19.448 2.448,19 3,19 L4,19 L4,11 L3.25,11 C2.56,11 2,10.44 2,9.75 L2,8.31 C2,7.788 2.27,7.308 2.706,7.036 L11.329,2.217 C11.751,2.006 12.249,2.006 12.671,2.217 Z M17,11 L7,11 L7,19 L9,19 L9,13 L11,13 L11,19 L13,19 L13,13 L15,13 L15,19 L17,19 Z M12,6 C11.448,6 11,6.448 11,7 C11,7.552 11.448,8 12,8 C12.552,8 13,7.552 13,7 C13,6.448 12.552,6 12,6 Z"/>
</svg>

