<svg xmlns="http://www.w3.org/2000/svg" width="24" height="24">
  <defs/>
  <path  d="M12.67,2.217 L21.17,6.967 A1.5 1.5 0 0 1 22,8.31 L22,9.75 C22,10.44 21.44,11 20.75,11 L20,11 L20,19 L21,19 A1 1 0 1 1 21,21 L3,21 A1 1 0 1 1 3,19 L4,19 L4,11 L3.25,11 C2.56,11 2,10.44 2,9.75 L2,8.31 C2,7.788 2.27,7.308 2.706,7.036 L11.329,2.217 A1.5 1.5 0 0 1 12.671,2.217 Z M18,11 L6,11 L6,19 L9,19 L9,13 L11,13 L11,19 L13,19 L13,13 L15,13 L15,19 L18,19 Z M12,4.118 L4,8.618 L4,9 L20,9 L20,8.618 Z M12,6 A1 1 0 1 1 12,8 A1 1 0 0 1 12,6"/>
</svg>

