<svg xmlns="http://www.w3.org/2000/svg" width="24" height="24">
  <defs/>
  <path  d="M2,13 L2,11 C2,9.122 3.306,7.497 5.14,7.093 C5.524,5.88 6.66,5 8,5 C9.105,5 10,5.895 10,7 L10,10 L14,10 L14,7 C14,5.895 14.895,5 16,5 C17.307,5 18.464,5.847 18.86,7.093 C20.694,7.497 22,9.122 22,11 L22,13 C22,14.878 20.694,16.503 18.86,16.907 C18.476,18.12 17.34,19 16,19 C14.895,19 14,18.105 14,17 L14,14 L10,14 L10,17 C10,18.105 9.105,19 8,19 C6.693,19 5.536,18.153 5.14,16.907 C3.306,16.503 2,14.878 2,13 Z"/>
</svg>

