<svg xmlns="http://www.w3.org/2000/svg" width="24" height="24">
  <defs/>
  <path  d="M16,5 C17.34,5 18.476,5.88 18.86,7.093 C20.619,7.481 21.903,8.997 21.995,10.796 L22,11 L22,13 C22,14.878 20.694,16.503 18.86,16.907 C18.464,18.153 17.307,19 16,19 C14.953,19 14.083,18.194 14.005,17.15 L14,17 L14,13 L10,13 L10,17 C10,18.105 9.105,19 8,19 C6.66,19 5.524,18.12 5.14,16.907 C3.381,16.519 2.097,15.003 2.005,13.204 L2,13 L2,11 C2,9.122 3.306,7.497 5.14,7.093 C5.536,5.847 6.693,5 8,5 C9.047,5 9.917,5.806 9.995,6.85 L10,7 L10,11 L14,11 L14,7 C14,5.895 14.895,5 16,5 Z M8,7 C7.448,7 7,7.448 7,8 L7,16 C7,16.552 7.448,17 8,17 Z M16,7 L16,17 C16.552,17 17,16.552 17,16 L17,8 C17,7.448 16.552,7 16,7 Z M19,9.268 L19,14.732 C19.567,14.405 19.938,13.821 19.993,13.169 L20,13 L20,11 C20,10.317 19.657,9.713 19.134,9.353 Z M5,9.268 C4.433,9.595 4.062,10.179 4.007,10.831 L4,11 L4,13 C4,13.683 4.343,14.287 4.866,14.647 L5,14.732 Z"/>
</svg>

