<svg xmlns="http://www.w3.org/2000/svg" width="24" height="24">
  <defs/>
  <path  d="M8,9 C8.552,9 9,9.448 9,10 C9,9.448 9.448,9 10,9 C10.552,9 11,9.448 11,10 L11,14 C11,14.552 10.552,15 10,15 C9.448,15 9,14.552 9,14 C9,14.552 8.552,15 8,15 C7.448,15 7,14.552 7,14 L7,10 C7,9.448 7.448,9 8,9 Z M16.5,9.134 C16.809,8.955 17.191,8.955 17.5,9.134 C17.809,9.313 18,9.643 18,10 L18,14 C18,14.357 17.809,14.687 17.5,14.866 C17.191,15.045 16.809,15.045 16.5,14.866 C16.191,15.045 15.809,15.045 15.5,14.866 C15.191,14.687 15,14.357 15,14 L15,10 C15,9.643 15.191,9.313 15.5,9.134 C15.809,8.955 16.191,8.955 16.5,9.134 Z M16,4 C16,3.448 16.448,3 17,3 L19,3 C20.105,3 21,3.895 21,5 L21,7 C21,7.552 20.552,8 20,8 C19.448,8 19,7.552 19,7 L19,5 L17,5 C16.448,5 16,4.552 16,4 Z M4,16 C4.552,16 5,16.448 5,17 L5,19 L7,19 C7.552,19 8,19.448 8,20 C8,20.552 7.552,21 7,21 L5,21 C3.895,21 3,20.105 3,19 L3,17 C3,16.448 3.448,16 4,16 Z M3,5 C3,3.895 3.895,3 5,3 L7,3 C7.552,3 8,3.448 8,4 C8,4.552 7.552,5 7,5 L5,5 L5,7 C5,7.552 4.552,8 4,8 C3.448,8 3,7.552 3,7 Z M20,16 C20.552,16 21,16.448 21,17 L21,19 C21,20.105 20.105,21 19,21 L17,21 C16.448,21 16,20.552 16,20 C16,19.448 16.448,19 17,19 L19,19 L19,17 C19,16.448 19.448,16 20,16 Z M13,9 C13.552,9 14,9.448 14,10 L14,14 C14,14.552 13.552,15 13,15 C12.448,15 12,14.552 12,14 L12,10 C12,9.448 12.448,9 13,9 Z M4,10 C4.552,10 5,10.448 5,11 L5,13 C5,13.552 4.552,14 4,14 C3.448,14 3,13.552 3,13 L3,11 C3,10.448 3.448,10 4,10 Z M20,10 C20.552,10 21,10.448 21,11 L21,13 C21,13.552 20.552,14 20,14 C19.448,14 19,13.552 19,13 L19,11 C19,10.448 19.448,10 20,10 Z"/>
</svg>

