<svg xmlns="http://www.w3.org/2000/svg" width="24" height="24">
  <defs/>
  <path  d="M20,5 C21.047,5 21.917,5.806 21.995,6.85 L22,7 L22,17 C22,18.047 21.194,18.917 20.15,18.995 L20,19 L4,19 C2.953,19 2.083,18.194 2.005,17.15 L2,17 L2,7 C2,5.953 2.806,5.083 3.85,5.005 L4,5 Z M12,8 C11.448,8 11,8.448 11,9 C10.999,8.471 10.587,8.034 10.059,8.003 C9.53,7.972 9.069,8.358 9.007,8.883 L9,9 L9,15 C9,15.552 9.448,16 10,16 C10.552,16 11,15.552 11,15 C11.001,15.529 11.413,15.966 11.941,15.997 C12.47,16.028 12.931,15.642 12.993,15.117 L13,15 L13,9 C13,8.448 12.552,8 12,8 Z M6,8 C5.448,8 5,8.448 5,9 L5,15 C5,15.552 5.448,16 6,16 C6.552,16 7,15.552 7,15 L7,9 C7,8.448 6.552,8 6,8 Z M18,8 C17.448,8 17,8.448 17,9 L17,15 C17,15.552 17.448,16 18,16 C18.552,16 19,15.552 19,15 L19,9 C19,8.448 18.552,8 18,8 Z M15,8 C14.493,8 14.066,8.38 14.007,8.883 L14,9 L14,15 C14.001,15.529 14.413,15.966 14.941,15.997 C15.47,16.028 15.931,15.642 15.993,15.117 L16,15 L16,9 C16,8.448 15.552,8 15,8 Z"/>
</svg>

