<svg xmlns="http://www.w3.org/2000/svg" width="24" height="24">
  <defs/>
  <path  d="M2,7 C2,5.895 2.895,5 4,5 L20,5 C21.105,5 22,5.895 22,7 L22,17 C22,18.105 21.105,19 20,19 L4,19 C2.895,19 2,18.105 2,17 Z M20,7 L4,7 L4,17 L20,17 Z M10,8 C10.552,8 11,8.448 11,9 C11,8.448 11.448,8 12,8 C12.552,8 13,8.448 13,9 L13,15 C13,15.552 12.552,16 12,16 C11.448,16 11,15.552 11,15 C11,15.552 10.552,16 10,16 C9.448,16 9,15.552 9,15 L9,9 C9,8.448 9.448,8 10,8 Z M15,8 C15.552,8 16,8.448 16,9 L16,15 C16,15.552 15.552,16 15,16 C14.448,16 14,15.552 14,15 L14,9 C14,8.448 14.448,8 15,8 Z M6,8 C6.552,8 7,8.448 7,9 L7,15 C7,15.552 6.552,16 6,16 C5.448,16 5,15.552 5,15 L5,9 C5,8.448 5.448,8 6,8 Z M18,8 C18.552,8 19,8.448 19,9 L19,15 C19,15.552 18.552,16 18,16 C17.448,16 17,15.552 17,15 L17,9 C17,8.448 17.448,8 18,8 Z"/>
</svg>

