<svg xmlns="http://www.w3.org/2000/svg" width="24" height="24">
  <defs/>
  <path  d="M7,5.5 L5.5,5.5 L5.5,7 A1.5 1.5 0 1 1 2.5,7 L2.5,5 A2.5 2.5 0 0 1 5,2.5 L7,2.5 A1.5 1.5 0 1 1 7,5.5 M17,2.5 A1.5 1.5 0 0 0 17,5.5 L18.5,5.5 L18.5,7 A1.5 1.5 0 0 0 21.5,7 L21.5,5 A2.5 2.5 0 0 0 19,2.5 Z M5.5,17 A1.5 1.5 0 0 0 2.5,17 L2.5,19 A2.5 2.5 0 0 0 5,21.5 L7,21.5 A1.5 1.5 0 0 0 7,18.5 L5.5,18.5 Z M21.5,17 A1.5 1.5 0 0 0 18.5,17 L18.5,18.5 L17,18.5 A1.5 1.5 0 0 0 17,21.5 L19,21.5 A2.5 2.5 0 0 0 21.5,19 Z M9,10 A1 1 0 0 0 7,10 L7,14 A1 1 0 1 0 9,14 A1 1 0 1 0 11,14 L11,10 A1 1 0 1 0 9,10 M14,10 A1 1 0 1 0 12,10 L12,14 A1 1 0 1 0 14,14 Z M16,9 C16.182,9 16.353,9.049 16.5,9.134 A1 1 0 0 1 18,10 L18,14 A1 1 0 0 1 16.5,14.866 A1 1 0 0 1 15,14 L15,10 A1 1 0 0 1 16,9 M5,11 A1 1 0 1 0 3,11 L3,13 A1 1 0 1 0 5,13 Z M21,11 A1 1 0 1 0 19,11 L19,13 A1 1 0 1 0 21,13 Z"/>
</svg>

