<svg xmlns="http://www.w3.org/2000/svg" width="24" height="24">
  <defs/>
  <path  d="M12,2 A9.96 9.96 0 0 1 18.5,4.4 A10.047 10.047 0 0 0 16.404,6.888 L16.36,6.868 A1 1 0 1 0 15.514,8.68 L15.557,8.7 A9.941 9.941 0 0 0 15.049,11 L15,11 A1 1 0 1 0 15,13 L15.05,13 A9.97 9.97 0 0 0 15.557,15.3 L15.514,15.32 A1 1 0 1 0 16.36,17.132 L16.404,17.112 C16.964,18.052 17.674,18.892 18.5,19.6 A9.96 9.96 0 0 1 12,22 A9.96 9.96 0 0 1 5.5,19.6 A10.05 10.05 0 0 0 7.596,17.112 L7.64,17.132 A1 1 0 1 0 8.486,15.32 L8.443,15.3 A9.944 9.944 0 0 0 8.95,13 L9,13 A1 1 0 1 0 9,11 L8.95,11 A9.946 9.946 0 0 0 8.443,8.7 L8.486,8.68 A1 1 0 0 0 7.64,6.867 L7.596,6.888 C7.036,5.948 6.326,5.108 5.5,4.4 A9.96 9.96 0 0 1 12,2 M4.115,5.849 A8.042 8.042 0 0 1 5.773,7.74 A1 1 0 0 0 6.618,9.55 C6.768,10.016 6.876,10.502 6.938,11.002 A1 1 0 0 0 6.938,12.998 C6.876,13.498 6.768,13.984 6.618,14.451 A1 1 0 0 0 5.773,16.26 A8.041 8.041 0 0 1 4.115,18.151 A9.957 9.957 0 0 1 2,12 C2,9.68 2.79,7.545 4.115,5.849 M19.885,5.849 A9.957 9.957 0 0 1 22,12 C22,14.32 21.21,16.455 19.885,18.151 A8.043 8.043 0 0 1 18.227,16.26 A1 1 0 0 0 17.382,14.45 A7.951 7.951 0 0 1 17.062,12.998 A1 1 0 0 0 17.062,11.002 C17.124,10.502 17.232,10.016 17.382,9.549 A1 1 0 0 0 18.227,7.74 A8.043 8.043 0 0 1 19.885,5.849"/>
</svg>

