<svg xmlns="http://www.w3.org/2000/svg" width="24" height="24">
  <defs/>
  <path  d="M12,9 A1 1 0 0 1 13,10 L13,19 L15,19 A1 1 0 1 1 15,21 L9,21 A1 1 0 1 1 9,19 L11,19 L11,10 A1 1 0 0 1 12,9 M7.05,3.636 A1 1 0 0 1 7.05,5.05 A6.975 6.975 0 0 0 5,10 C5,11.933 5.782,13.682 7.05,14.95 A1 1 0 0 1 5.636,16.364 A8.975 8.975 0 0 1 3,10 A8.975 8.975 0 0 1 5.636,3.636 A1 1 0 0 1 7.05,3.636 M18.364,3.636 A8.975 8.975 0 0 1 21,10 A8.975 8.975 0 0 1 18.364,16.364 A1 1 0 0 1 16.95,14.95 A6.975 6.975 0 0 0 19,10 A6.975 6.975 0 0 0 16.95,5.05 A1 1 0 0 1 18.364,3.636 M9.879,6.464 A1 1 0 0 1 9.879,7.879 A2.987 2.987 0 0 0 9,10 C9,10.829 9.335,11.577 9.879,12.121 A1 1 0 1 1 8.464,13.536 A4.987 4.987 0 0 1 7,10 C7,8.62 7.56,7.368 8.464,6.464 A1 1 0 0 1 9.879,6.464 M15.536,6.464 A4.987 4.987 0 0 1 17,10 C17,11.38 16.44,12.632 15.536,13.536 A1 1 0 1 1 14.121,12.121 A2.987 2.987 0 0 0 15,10 C15,9.171 14.665,8.423 14.121,7.879 A1 1 0 0 1 15.536,6.464"/>
</svg>

