<svg xmlns="http://www.w3.org/2000/svg" width="24" height="24">
  <defs/>
  <path  d="M12,8.5 A1.5 1.5 0 0 1 13.417,10.494 L17.371,19.391 A1.5 1.5 0 1 1 14.629,20.609 L14.136,19.5 L9.864,19.5 L9.371,20.61 A1.5 1.5 0 0 1 6.629,19.39 L10.583,10.494 A1.5 1.5 0 0 1 12,8.5 M12,14.693 L11.197,16.5 L12.803,16.5 Z M7.404,3.283 A1.5 1.5 0 0 1 7.404,5.403 C7.003,5.805 6.654,6.257 6.369,6.751 A6.463 6.463 0 0 0 5.5,10 C5.5,11.187 5.817,12.295 6.369,13.25 A1.5 1.5 0 1 1 3.772,14.752 A9.463 9.463 0 0 1 2.5,10 A9.463 9.463 0 0 1 5.282,3.282 A1.5 1.5 0 0 1 7.404,3.282 Z M18.718,3.283 A9.463 9.463 0 0 1 21.5,10 A9.463 9.463 0 0 1 20.228,14.75 A1.5 1.5 0 0 1 17.631,13.249 A6.463 6.463 0 0 0 18.5,10 A6.463 6.463 0 0 0 16.596,5.404 A1.5 1.5 0 1 1 18.718,3.282 Z M10.232,6.11 A1.5 1.5 0 0 1 10.335,8.117 L10.232,8.231 A2.482 2.482 0 0 0 9.535,10.423 L9.579,10.625 A1.5 1.5 0 1 1 6.673,11.373 A5.507 5.507 0 0 1 8.111,6.11 A1.5 1.5 0 0 1 10.232,6.11 M15.889,6.11 A5.482 5.482 0 0 1 17.5,10 C17.501,10.471 17.441,10.932 17.328,11.373 A1.5 1.5 0 0 1 14.393,10.767 L14.423,10.625 A2.507 2.507 0 0 0 13.916,8.392 L13.769,8.232 A1.5 1.5 0 1 1 15.89,6.11 Z"/>
</svg>

