<svg xmlns="http://www.w3.org/2000/svg" width="24" height="24">
  <defs/>
  <path  d="M10.825,4.835 L18.598,15.288 L20.465,16.621 C20.824,16.877 21.052,17.279 21.089,17.718 C21.125,18.158 20.966,18.591 20.654,18.903 L18.66,20.896 C18.348,21.208 17.915,21.366 17.476,21.33 C17.036,21.294 16.635,21.066 16.379,20.707 L15.045,18.84 L4.592,11.068 C3.189,10.025 2.525,8.259 2.895,6.55 C3.264,4.842 4.599,3.507 6.307,3.138 C8.016,2.768 9.782,3.432 10.825,4.835 Z M15.708,4.636 C16.464,3.868 17.574,3.564 18.615,3.84 C19.657,4.117 20.47,4.93 20.746,5.972 C21.022,7.014 20.718,8.123 19.95,8.879 C18.778,10.051 16.879,10.051 15.707,8.879 C14.535,7.707 14.535,5.808 15.707,4.636 Z M15.968,15.103 L14.86,16.21 L16.365,17.328 C16.42,17.369 16.471,17.416 16.517,17.468 L16.581,17.549 L17.663,19.064 L18.823,17.904 L17.308,16.823 C17.252,16.783 17.2,16.737 17.153,16.686 L17.087,16.606 Z"/>
</svg>

