<svg xmlns="http://www.w3.org/2000/svg" width="24" height="24">
  <defs/>
  <path  d="M12,8.5 A1.5 1.5 0 0 1 13.5,10 L13.5,18.5 L15,18.5 A1.5 1.5 0 0 1 15,21.5 L9,21.5 A1.5 1.5 0 0 1 9,18.5 L10.5,18.5 L10.5,10 A1.5 1.5 0 0 1 12,8.5 M7.404,3.282 A1.5 1.5 0 0 1 7.404,5.404 A6.475 6.475 0 0 0 5.5,10 C5.5,11.795 6.226,13.418 7.404,14.596 A1.5 1.5 0 1 1 5.282,16.718 A9.475 9.475 0 0 1 2.5,10 C2.5,7.377 3.565,5 5.282,3.282 A1.5 1.5 0 0 1 7.404,3.282 M18.718,3.282 A9.475 9.475 0 0 1 21.5,10 C21.5,12.623 20.435,15 18.718,16.718 A1.5 1.5 0 1 1 16.596,14.596 A6.475 6.475 0 0 0 18.5,10 A6.475 6.475 0 0 0 16.596,5.404 A1.5 1.5 0 1 1 18.718,3.282 M10.232,6.111 A1.5 1.5 0 0 1 10.335,8.118 L10.232,8.232 A2.488 2.488 0 0 0 9.5,10 C9.5,10.392 9.59,10.76 9.748,11.088 L9.834,11.248 A1.5 1.5 0 1 1 7.237,12.751 A5.482 5.482 0 0 1 6.5,10 C6.5,8.482 7.117,7.105 8.11,6.11 A1.5 1.5 0 0 1 10.232,6.11 Z M15.889,6.111 A5.488 5.488 0 0 1 17.5,10 C17.5,11 17.232,11.94 16.763,12.751 A1.5 1.5 0 0 1 14.1,11.377 L14.166,11.249 A2.48 2.48 0 0 0 14.5,10 C14.5,9.378 14.275,8.812 13.899,8.373 L13.768,8.233 A1.5 1.5 0 1 1 15.889,6.111"/>
</svg>

