<svg xmlns="http://www.w3.org/2000/svg" width="24" height="24">
  <defs/>
  <path  d="M12,8.5 A1.5 1.5 0 0 1 13.102,11.018 L16.914,19.594 A1 1 0 1 1 15.086,20.406 L14.461,19 L9.54,19 L8.915,20.406 A1 1 0 0 1 7.087,19.594 L10.899,11.017 A1.5 1.5 0 0 1 12,8.5 M12,13.462 L10.428,17 L13.572,17 Z M7.05,3.636 A1 1 0 0 1 7.05,5.05 A6.963 6.963 0 0 0 5,10 C5,11.277 5.341,12.471 5.936,13.5 A1 1 0 1 1 4.206,14.502 A8.963 8.963 0 0 1 3,10 A8.963 8.963 0 0 1 5.636,3.636 A1 1 0 0 1 7.05,3.636 M18.364,3.636 A8.963 8.963 0 0 1 21,10 A8.964 8.964 0 0 1 19.795,14.502 A1 1 0 0 1 18.064,13.5 A6.964 6.964 0 0 0 19,10 A6.963 6.963 0 0 0 16.95,5.05 A1 1 0 0 1 18.364,3.636 M9.879,6.464 A1 1 0 0 1 9.879,7.879 A2.982 2.982 0 0 0 9,10 C9,10.47 9.107,10.912 9.298,11.307 L9.401,11.499 A1 1 0 1 1 7.67,12.501 A4.981 4.981 0 0 1 7,10 A4.982 4.982 0 0 1 8.464,6.464 A1 1 0 0 1 9.879,6.464 M15.536,6.464 A4.981 4.981 0 0 1 17,10 A4.98 4.98 0 0 1 16.33,12.501 A1 1 0 0 1 14.547,11.604 L14.599,11.5 A2.98 2.98 0 0 0 15,10 A2.981 2.981 0 0 0 14.121,7.879 A1 1 0 0 1 15.536,6.464"/>
</svg>

