<svg xmlns="http://www.w3.org/2000/svg" width="24" height="24">
  <defs/>
  <path  d="M12,2 C17.523,2 22,6.477 22,12 C22,17.523 17.523,22 12,22 C6.477,22 2,17.523 2,12 C2,6.477 6.477,2 12,2 Z M12,4 C10.395,3.998 8.826,4.48 7.5,5.385 C7.91,5.849 8.277,6.353 8.596,6.888 L8.64,6.868 C9.12,6.645 9.69,6.834 9.942,7.3 C10.193,7.766 10.038,8.346 9.588,8.625 L9.442,8.7 C9.698,9.432 9.872,10.202 9.951,11 L10,11 C10.552,11 11,11.448 11,12 C11,12.552 10.552,13 10,13 L9.95,13 C9.872,13.784 9.702,14.556 9.442,15.3 L9.486,15.32 C9.815,15.468 10.04,15.781 10.073,16.141 C10.106,16.5 9.943,16.849 9.646,17.055 C9.349,17.26 8.965,17.29 8.64,17.132 L8.596,17.112 C8.277,17.646 7.91,18.149 7.499,18.615 C8.825,19.52 10.394,20.003 12,20 C13.605,20.002 15.174,19.52 16.5,18.615 C16.09,18.15 15.723,17.647 15.404,17.112 L15.36,17.132 C14.862,17.355 14.276,17.138 14.045,16.643 C13.814,16.148 14.023,15.559 14.514,15.32 L14.557,15.3 C14.297,14.556 14.127,13.784 14.049,13 L14,13 C13.448,13 13,12.552 13,12 C13,11.448 13.448,11 14,11 L14.05,11 C14.128,10.216 14.298,9.444 14.557,8.7 L14.514,8.68 C14.013,8.446 13.797,7.851 14.031,7.351 C14.264,6.85 14.859,6.633 15.36,6.867 L15.404,6.888 C15.722,6.354 16.089,5.851 16.5,5.385 C15.174,4.48 13.605,3.998 12,4 Z M6,6.708 C4.709,8.168 3.997,10.051 4,12 C3.997,13.949 4.709,15.832 6,17.292 C6.285,16.969 6.543,16.624 6.773,16.259 C6.311,16.005 6.126,15.437 6.349,14.959 C6.572,14.482 7.127,14.26 7.618,14.451 C7.768,13.984 7.876,13.498 7.938,12.998 C7.411,12.965 7.001,12.528 7.001,12 C7.001,11.472 7.411,11.035 7.938,11.002 C7.876,10.502 7.768,10.016 7.618,9.549 C7.126,9.745 6.566,9.523 6.342,9.043 C6.118,8.563 6.307,7.992 6.773,7.74 C6.543,7.376 6.285,7.031 6,6.708 Z M18,6.708 C17.715,7.031 17.457,7.376 17.227,7.74 C17.693,7.992 17.882,8.563 17.658,9.043 C17.434,9.523 16.874,9.745 16.382,9.549 C16.232,10.016 16.124,10.502 16.062,11.002 C16.589,11.035 16.999,11.472 16.999,12 C16.999,12.528 16.589,12.965 16.062,12.998 C16.124,13.498 16.232,13.984 16.382,14.451 C16.873,14.26 17.428,14.482 17.651,14.959 C17.874,15.437 17.689,16.005 17.227,16.259 C17.457,16.624 17.716,16.969 18,17.292 C19.291,15.832 20.003,13.949 20,12 C20.003,10.051 19.291,8.168 18,6.708 Z"/>
</svg>

