<svg xmlns="http://www.w3.org/2000/svg" width="24" height="24">
  <defs/>
  <path  d="M10.825,4.835 L18.598,15.288 L20.465,16.622 C20.823,16.878 21.051,17.279 21.087,17.718 C21.124,18.157 20.965,18.59 20.654,18.902 L18.66,20.897 C18.348,21.209 17.915,21.367 17.475,21.331 C17.036,21.294 16.635,21.066 16.379,20.707 L15.045,18.841 L4.592,11.068 C3.189,10.025 2.525,8.259 2.895,6.55 C3.264,4.842 4.599,3.507 6.307,3.138 C8.016,2.768 9.782,3.432 10.825,4.835 Z M5.515,5.758 C5.011,6.262 4.751,6.961 4.803,7.672 C4.854,8.384 5.213,9.037 5.785,9.463 L13.238,15.005 L14.762,13.481 L9.22,6.03 C8.794,5.458 8.141,5.099 7.429,5.047 C6.718,4.995 6.019,5.255 5.515,5.759 Z M15.707,4.637 C16.879,3.465 18.778,3.465 19.95,4.637 C21.122,5.809 21.122,7.708 19.95,8.88 C18.778,10.052 16.879,10.052 15.707,8.88 C14.535,7.708 14.535,5.809 15.707,4.637 Z M15.968,15.103 L14.86,16.211 L16.365,17.33 C16.42,17.371 16.471,17.418 16.517,17.47 L16.581,17.55 L17.663,19.065 L18.823,17.906 L17.308,16.825 C17.252,16.784 17.2,16.738 17.153,16.687 L17.087,16.607 Z M18.535,6.051 C18.144,5.661 17.511,5.661 17.121,6.051 C16.73,6.442 16.73,7.076 17.121,7.466 C17.512,7.857 18.145,7.857 18.536,7.466 C18.927,7.075 18.927,6.442 18.536,6.051 Z"/>
</svg>

