<svg xmlns="http://www.w3.org/2000/svg" width="24" height="24">
  <defs/>
  <path  d="M12,13.414 L13.458,14.872 A8.005 8.005 0 0 0 12.091,22 A9.974 9.974 0 0 1 5.953,19.966 L5.671,19.743 Z M14.887,16.301 L18.329,19.743 A9.941 9.941 0 0 1 14.119,21.774 A6.008 6.008 0 0 1 14.887,16.301 M9.127,10.542 L10.587,12 L4.257,18.329 A9.97 9.97 0 0 1 2,11.909 A8.005 8.005 0 0 0 9.128,10.542 Z M21.774,14.118 A9.94 9.94 0 0 1 19.974,18.036 L19.744,18.329 L16.301,14.887 A6.008 6.008 0 0 1 21.774,14.118 M19.744,5.671 A9.971 9.971 0 0 1 22,12.09 A8.008 8.008 0 0 0 15.122,13.27 L14.872,13.457 L13.414,12 Z M11.908,2 A9.973 9.973 0 0 1 18.046,4.033 L18.328,4.256 L12,10.586 L10.542,9.128 A8.005 8.005 0 0 0 11.909,2 Z M4.257,5.67 L7.699,9.112 A6.008 6.008 0 0 1 2.226,9.881 A9.94 9.94 0 0 1 4.256,5.67 Z M9.882,2.225 A6.011 6.011 0 0 1 9.271,7.465 L9.113,7.698 L5.67,4.257 A9.94 9.94 0 0 1 9.88,2.226 Z"/>
</svg>

