<svg xmlns="http://www.w3.org/2000/svg" width="24" height="24">
  <defs/>
  <path  d="M10.464,3.282 C10.826,2.848 11.355,2.587 11.919,2.564 C12.484,2.541 13.032,2.759 13.428,3.162 L13.536,3.282 L17.468,8 L20.453,8 C20.877,7.999 21.282,8.179 21.566,8.495 C21.849,8.811 21.984,9.233 21.937,9.655 L21.845,10.421 L21.745,11.161 L21.663,11.715 L21.568,12.31 L21.46,12.935 L21.338,13.583 L21.202,14.244 C21.13,14.577 21.053,14.911 20.97,15.243 C20.749,16.121 20.471,16.984 20.138,17.826 L19.917,18.366 L19.703,18.854 L19.501,19.288 L19.407,19.482 L19.158,19.972 C18.838,20.582 18.234,20.942 17.595,20.994 L17.435,21 L6.555,21 C5.843,21.006 5.185,20.618 4.845,19.992 L4.613,19.542 L4.433,19.172 C4.401,19.104 4.369,19.036 4.338,18.967 L4.138,18.518 C3.681,17.457 3.311,16.362 3.03,15.242 C2.976,15.025 2.924,14.807 2.874,14.588 L2.732,13.94 L2.605,13.306 L2.493,12.693 L2.393,12.106 L2.306,11.552 L2.232,11.039 L2.142,10.356 L2.076,9.8 C2.07,9.749 2.065,9.698 2.059,9.647 C2.017,9.25 2.136,8.853 2.389,8.544 C2.643,8.236 3.009,8.042 3.407,8.007 L3.543,8 L6.532,8 Z M12,4.562 L9.135,8 L14.865,8 Z M9.961,12.722 C9.821,12.234 9.337,11.928 8.836,12.011 C8.334,12.095 7.975,12.541 8.001,13.048 L8.014,13.164 L8.514,16.164 L8.539,16.278 C8.679,16.766 9.163,17.072 9.664,16.989 C10.166,16.905 10.525,16.459 10.499,15.952 L10.486,15.836 L9.986,12.836 Z M15.164,12.014 C14.664,11.931 14.18,12.235 14.039,12.722 L14.014,12.836 L13.514,15.836 C13.427,16.358 13.763,16.858 14.279,16.975 C14.795,17.092 15.314,16.787 15.461,16.278 L15.486,16.164 L15.986,13.164 C16.076,12.62 15.708,12.105 15.164,12.014 Z"/>
</svg>

