<svg xmlns="http://www.w3.org/2000/svg" width="24" height="24">
  <defs/>
  <path  d="M19.071,4.929 C22.976,8.834 22.976,15.166 19.071,19.071 C15.166,22.976 8.834,22.976 4.929,19.071 C1.024,15.166 1.024,8.834 4.929,4.929 C8.834,1.024 15.166,1.024 19.071,4.929 Z M12,13.414 L7.094,18.32 C8.437,19.365 10.08,19.953 11.781,19.997 C11.729,18.146 12.321,16.334 13.458,14.872 Z M12.219,4.003 C12.268,5.74 11.75,7.445 10.742,8.86 L10.542,9.128 L12,10.586 L16.906,5.68 C15.563,4.635 13.92,4.047 12.219,4.003 Z M9.127,10.542 C7.665,11.678 5.854,12.271 4.003,12.219 C4.045,13.802 4.556,15.336 5.473,16.627 L5.68,16.906 L10.586,12 Z M13.413,12 L14.871,13.458 C16.333,12.321 18.145,11.729 19.996,11.781 C19.954,10.198 19.443,8.664 18.526,7.373 L18.32,7.095 L13.413,12 Z M10.222,4.199 C9.083,4.457 8.015,4.962 7.094,5.679 L9.113,7.7 C9.84,6.678 10.228,5.454 10.222,4.2 Z M14.887,16.301 C14.16,17.323 13.772,18.547 13.778,19.801 C14.917,19.543 15.985,19.038 16.906,18.321 Z M5.679,7.094 C4.962,8.015 4.457,9.083 4.199,10.222 C5.353,10.228 6.483,9.9 7.455,9.278 L7.699,9.113 Z M19.801,13.778 C18.647,13.772 17.517,14.1 16.545,14.722 L16.301,14.887 L18.321,16.906 C19.038,15.985 19.543,14.917 19.801,13.778 Z"/>
</svg>

