<svg xmlns="http://www.w3.org/2000/svg" width="24" height="24">
  <defs/>
  <path  d="M10.464,3.282 A2 2 0 0 1 13.428,3.162 L13.536,3.282 L17.469,8 L20.454,8 A1.49 1.49 0 0 1 21.938,9.655 L21.846,10.421 L21.746,11.161 L21.664,11.715 L21.569,12.31 L21.461,12.935 L21.339,13.583 L21.203,14.244 C21.131,14.577 21.054,14.911 20.971,15.243 A21.018 21.018 0 0 1 20.139,17.826 L19.918,18.366 L19.704,18.854 L19.502,19.288 L19.408,19.482 L19.159,19.972 C18.839,20.582 18.235,20.942 17.596,20.994 L17.436,21 L6.555,21 A1.929 1.929 0 0 1 4.845,19.992 L4.613,19.542 L4.433,19.172 A20.09 20.09 0 0 1 4.338,18.967 L4.138,18.518 A21.536 21.536 0 0 1 3.03,15.242 A32.366 32.366 0 0 1 2.874,14.588 L2.732,13.94 L2.605,13.306 L2.493,12.693 L2.393,12.106 L2.306,11.552 L2.232,11.039 L2.142,10.356 L2.076,9.8 A39.802 39.802 0 0 1 2.059,9.647 A1.488 1.488 0 0 1 3.407,8.007 L3.543,8 L6.532,8 Z M19.883,10 L4.113,10 L4.175,10.484 L4.251,11.032 L4.343,11.636 L4.451,12.284 C4.491,12.506 4.532,12.734 4.577,12.966 L4.72,13.673 C4.796,14.031 4.88,14.395 4.97,14.757 A19.532 19.532 0 0 0 5.97,17.714 L6.166,18.155 L6.348,18.539 L6.511,18.862 L6.583,19 L17.41,19 L17.564,18.697 L17.741,18.332 L17.935,17.909 C18.302,17.084 18.722,15.991 19.03,14.757 C19.155,14.257 19.266,13.749 19.365,13.25 L19.505,12.512 L19.625,11.803 L19.678,11.464 L19.773,10.827 L19.85,10.257 Z M9.986,12.836 L10.486,15.836 A1 1 0 0 1 8.514,16.164 L8.014,13.164 A1 1 0 1 1 9.986,12.836 M15.048,12 L15.164,12.013 A1 1 0 0 1 16,13.048 L15.987,13.164 L15.487,16.164 A1 1 0 0 1 13.502,15.952 L13.515,15.836 L14.015,12.836 A1 1 0 0 1 15.048,12 M12,4.562 L9.135,8 L14.865,8 Z"/>
</svg>

