<svg xmlns="http://www.w3.org/2000/svg" width="24" height="24">
  <defs/>
  <path  d="M9.447,3.106 C9.941,3.353 10.141,3.953 9.894,4.447 L8.618,7 L15.382,7 L14.106,4.447 C13.933,4.126 13.948,3.736 14.146,3.43 C14.344,3.124 14.693,2.949 15.056,2.975 C15.42,3 15.741,3.222 15.894,3.553 L17.618,7 L20,7 C21.105,7 22,7.895 22,9 L22,10 C22,10.778 21.549,11.486 20.843,11.814 L19.324,18.651 C19.019,20.023 17.802,21 16.396,21 L7.604,21 C6.198,21 4.981,20.023 4.676,18.65 L3.156,11.814 C2.451,11.486 2,10.778 2,10 L2,9 C2,7.895 2.895,7 4,7 L6.382,7 L8.106,3.553 C8.353,3.059 8.953,2.859 9.447,3.106 Z M20,9 L4,9 L4,10 L20,10 L20,9 Z"/>
</svg>

