<svg xmlns="http://www.w3.org/2000/svg" width="24" height="24">
  <defs/>
  <path  d="M7,6 L7,11 L20,11 C21.105,11 22,11.895 22,13 L22,14 C22.001,15.986 21.018,17.844 19.375,18.961 L19.707,19.293 C20.086,19.685 20.081,20.309 19.695,20.695 C19.309,21.081 18.685,21.086 18.293,20.707 L17.417,19.832 C16.963,19.942 16.488,20 16,20 L8,20 C7.512,20 7.037,19.942 6.583,19.832 L5.707,20.707 C5.456,20.967 5.084,21.071 4.734,20.98 C4.385,20.888 4.112,20.615 4.02,20.266 C3.929,19.916 4.033,19.544 4.293,19.293 L4.625,18.961 C2.982,17.844 1.999,15.986 2,14 L2,13 C2,11.895 2.895,11 4,11 L5,11 L5,6 C5,4.343 6.343,3 8,3 L9,3 C10.105,3 11,3.895 11,5 L11,6 C11,6.552 10.552,7 10,7 C9.448,7 9,6.552 9,6 L9,5 L8,5 C7.448,5 7,5.448 7,6 Z M4,13 L4,14 C4,16.209 5.791,18 8,18 L16,18 C18.209,18 20,16.209 20,14 L20,13 Z"/>
</svg>

