<svg xmlns="http://www.w3.org/2000/svg" width="24" height="24">
  <defs/>
  <path  d="M18,6 C19.105,6 20,6.895 20,8 L20,9 C21.105,9 22,9.895 22,11 L22,13 C22,14.105 21.105,15 20,15 L20,16 C20,17.105 19.105,18 18,18 L4,18 C2.895,18 2,17.105 2,16 L2,8 C2,6.895 2.895,6 4,6 Z M12,9 C11.448,9 11,9.448 11,10 L11,14 C11,14.552 11.448,15 12,15 C12.552,15 13,14.552 13,14 L13,10 C13,9.448 12.552,9 12,9 Z M6,9 C5.448,9 5,9.448 5,10 L5,14 C5,14.552 5.448,15 6,15 C6.552,15 7,14.552 7,14 L7,10 C7,9.448 6.552,9 6,9 Z M9,9 C8.493,9 8.066,9.38 8.007,9.883 L8,10 L8,14 C8.001,14.529 8.413,14.966 8.941,14.997 C9.47,15.028 9.931,14.642 9.993,14.117 L10,14 L10,10 C10,9.448 9.552,9 9,9 Z"/>
</svg>

