<svg xmlns="http://www.w3.org/2000/svg" width="24" height="24">
  <defs/>
  <path  d="M18,3 A1 1 0 0 1 19,4 L19,5 L20,5 A2 2 0 0 1 22,7 L22,19 A2 2 0 0 1 20,21 L4,21 A2 2 0 0 1 2,19 L2,7 A2 2 0 0 1 4,5 L5,5 L5,4 A1 1 0 0 1 7,4 L7,5 L17,5 L17,4 A1 1 0 0 1 18,3 M20,7 L4,7 L4,19 L20,19 Z M16,10 A1 1 0 0 1 16.993,10.883 L17,11 L17,12 L18,12 A1 1 0 0 1 18.117,13.993 L18,14 L17,14 L17,15 A1 1 0 0 1 15.007,15.117 L15,15 L15,14 L14,14 A1 1 0 0 1 13.883,12.007 L14,12 L15,12 L15,11 A1 1 0 0 1 16,10 M9,12 A1 1 0 0 1 9.117,13.993 L9,14 L6,14 A1 1 0 0 1 5.883,12.007 L6,12 Z"/>
</svg>

