<svg xmlns="http://www.w3.org/2000/svg" width="24" height="24">
  <defs/>
  <path  d="M18,6 A2 2 0 0 1 20,8 L20,9 A2 2 0 0 1 22,11 L22,13 A2 2 0 0 1 20,15 L20,16 A2 2 0 0 1 18,18 L4,18 A2 2 0 0 1 2,16 L2,8 A2 2 0 0 1 4,6 Z M18,8 L4,8 L4,16 L18,16 Z M6,9 A1 1 0 0 1 6.993,9.883 L7,10 L7,14 A1 1 0 0 1 5.007,14.117 L5,14 L5,10 A1 1 0 0 1 6,9 M9,9 A1 1 0 0 1 10,10 L10,14 A1 1 0 1 1 8,14 L8,10 A1 1 0 0 1 9,9 M12,9 A1 1 0 0 1 12.993,9.883 L13,10 L13,14 A1 1 0 0 1 11.007,14.117 L11,14 L11,10 A1 1 0 0 1 12,9"/>
</svg>

