<svg xmlns="http://www.w3.org/2000/svg" width="24" height="24">
  <defs/>
  <path  d="M18,6 C19.047,6 19.917,6.806 19.995,7.85 L20,8 L20,9 C21.047,9 21.917,9.806 21.995,10.85 L22,11 L22,13 C22,14.047 21.194,14.917 20.15,14.995 L20,15 L20,16 C20,17.047 19.194,17.917 18.15,17.995 L18,18 L4,18 C2.953,18 2.083,17.194 2.005,16.15 L2,16 L2,8 C2,6.953 2.806,6.083 3.85,6.005 L4,6 Z M9,9 C8.448,9 8,9.448 8,10 L8,14 C8,14.552 8.448,15 9,15 C9.552,15 10,14.552 10,14 L10,10 C10,9.448 9.552,9 9,9 Z M6,9 C5.493,9 5.066,9.38 5.007,9.883 L5,10 L5,14 C5.001,14.529 5.413,14.966 5.941,14.997 C6.47,15.028 6.931,14.642 6.993,14.117 L7,14 L7,10 C7,9.448 6.552,9 6,9 Z"/>
</svg>

