<svg xmlns="http://www.w3.org/2000/svg" width="24" height="24">
  <defs/>
  <path  d="M8,6 A1 1 0 1 1 8,8 L4,8 L4,16 L7,16 A1 1 0 1 1 7,18 L4,18 A2 2 0 0 1 2,16 L2,8 A2 2 0 0 1 4,6 Z M18,6 A2 2 0 0 1 20,8 L20,9 A2 2 0 0 1 22,11 L22,13 A2 2 0 0 1 20,15 L20,16 A2 2 0 0 1 18,18 L14,18 A1 1 0 1 1 14,16 L18,16 L18,8 L15,8 A1 1 0 1 1 15,6 Z M12.515,6.143 A1 1 0 0 1 12.857,7.515 L10.768,11 L12.983,11 C13.768,11 14.253,11.857 13.849,12.53 L10.859,17.515 A1 1 0 1 1 9.144,16.485 L11.233,13 L9.019,13 A1.01 1.01 0 0 1 8.153,11.47 L11.143,6.486 A1 1 0 0 1 12.516,6.143 Z"/>
</svg>

