<svg xmlns="http://www.w3.org/2000/svg" width="24" height="24">
  <defs/>
  <path  d="M18,6 A2 2 0 0 1 19.995,7.85 L20,8 L20,9 A2 2 0 0 1 21.995,10.85 L22,11 L22,13 A2 2 0 0 1 20.15,14.995 L20,15 L20,16 A2 2 0 0 1 18.15,17.995 L18,18 L4,18 A2 2 0 0 1 2.005,16.15 L2,16 L2,8 A2 2 0 0 1 3.85,6.005 L4,6 Z M18,8 L4,8 L4,16 L18,16 Z M6,9 A1 1 0 0 1 7,10 L7,14 A1 1 0 1 1 5,14 L5,10 A1 1 0 0 1 6,9 M9,9 A1 1 0 0 1 9.993,9.883 L10,10 L10,14 A1 1 0 0 1 8.007,14.117 L8,14 L8,10 A1 1 0 0 1 9,9 M12,9 A1 1 0 0 1 13,10 L13,14 A1 1 0 1 1 11,14 L11,10 A1 1 0 0 1 12,9 M15,9 A1 1 0 0 1 15.993,9.883 L16,10 L16,14 A1 1 0 0 1 14.007,14.117 L14,14 L14,10 A1 1 0 0 1 15,9"/>
</svg>

