<svg xmlns="http://www.w3.org/2000/svg" width="24" height="24">
  <defs/>
  <path  d="M18,6 A2 2 0 0 1 20,8 L20,9 A2 2 0 0 1 22,11 L22,13 A2 2 0 0 1 20,15 L20,16 A2 2 0 0 1 18,18 L12.899,18 L15.563,13.559 C16.549,11.917 15.76,9.909 14.158,9.234 L14.573,8.544 C15.051,7.745 15.116,6.814 14.828,6 Z M9.101,6 L6.437,10.441 C5.484,12.028 6.19,13.957 7.684,14.694 L7.842,14.766 L7.428,15.456 A2.992 2.992 0 0 0 7.111,17.81 L7.171,18 L4,18 A2 2 0 0 1 2.005,16.15 L2,16 L2,8 A2 2 0 0 1 3.85,6.006 L4,6 Z M11.142,6.486 A1 1 0 0 1 12.912,7.411 L12.857,7.515 L10.768,11 L12.983,11 C13.729,11 14.204,11.773 13.903,12.427 L13.849,12.53 L10.859,17.515 A1 1 0 0 1 9.089,16.589 L9.144,16.485 L11.233,13 L9.019,13 A1.01 1.01 0 0 1 8.099,11.573 L8.153,11.47 L11.143,6.486 Z"/>
</svg>

