<svg xmlns="http://www.w3.org/2000/svg" width="24" height="24">
  <defs/>
  <path  d="M7,4 L7,5 L17,5 L17,4 C17,3.448 17.448,3 18,3 C18.552,3 19,3.448 19,4 L19,5 L20,5 C21.105,5 22,5.895 22,7 L22,19 C22,20.105 21.105,21 20,21 L4,21 C2.895,21 2,20.105 2,19 L2,7 C2,5.895 2.895,5 4,5 L5,5 L5,4 C5,3.448 5.448,3 6,3 C6.552,3 7,3.448 7,4 Z M17,11 C17,10.448 16.552,10 16,10 C15.448,10 15,10.448 15,11 L15,12 L14,12 C13.448,12 13,12.448 13,13 C13,13.552 13.448,14 14,14 L15,14 L15,15 C15,15.552 15.448,16 16,16 C16.552,16 17,15.552 17,15 L17,14 L18,14 C18.552,14 19,13.552 19,13 C19,12.448 18.552,12 18,12 L17,12 Z M6,12 C5.448,12 5,12.448 5,13 C5,13.552 5.448,14 6,14 L9,14 C9.552,14 10,13.552 10,13 C10,12.448 9.552,12 9,12 Z"/>
</svg>

