<svg xmlns="http://www.w3.org/2000/svg" width="24" height="24">
  <defs/>
  <path  d="M5.353,14.513 A4.501 4.501 0 0 1 10.667,12.491 A6.502 6.502 0 0 0 15.93,21.198 A10.02 10.02 0 0 1 7,20.66 A4.5 4.5 0 0 1 5.353,14.513 M21.198,8.07 A10.02 10.02 0 0 1 20.66,17 A4.5 4.5 0 0 1 12.491,13.333 A6.502 6.502 0 0 0 21.198,8.07 M9.487,5.353 A4.502 4.502 0 0 1 11.509,10.667 A6.502 6.502 0 0 0 2.802,15.93 A10.02 10.02 0 0 1 3.34,7 A4.5 4.5 0 0 1 9.487,5.353 M12,2 C13.752,2 15.483,2.464 17,3.34 A4.5 4.5 0 0 1 13.333,11.509 A6.502 6.502 0 0 0 8.07,2.802 A9.968 9.968 0 0 1 12,2"/>
</svg>

