<svg xmlns="http://www.w3.org/2000/svg" width="24" height="24">
  <defs/>
  <path  d="M12,2 C17.523,2 22,6.477 22,12 C22.004,14.542 21.036,16.989 19.294,18.841 L19.024,19.118 C17.155,20.968 14.63,22.004 12,22 C6.477,22 2,17.523 2,12 C2,6.477 6.477,2 12,2 Z M11.293,6.342 C9.926,4.975 7.71,4.975 6.343,6.342 C4.716,7.964 3.868,10.208 4.015,12.5 C4.76,11.166 6.027,10.203 7.511,9.84 C8.995,9.477 10.563,9.748 11.84,10.587 C12.644,9.213 12.419,7.469 11.293,6.344 Z M6.343,12.707 C4.976,14.074 4.976,16.29 6.343,17.657 C7.964,19.283 10.208,20.131 12.499,19.985 C11.165,19.24 10.202,17.973 9.839,16.489 C9.476,15.005 9.747,13.437 10.586,12.16 C9.212,11.357 7.469,11.582 6.343,12.707 Z M12,4 C11.832,4 11.666,4.005 11.5,4.015 C12.834,4.76 13.798,6.027 14.161,7.511 C14.524,8.995 14.253,10.563 13.414,11.84 C14.933,12.723 16.872,12.343 17.946,10.952 C19.02,9.561 18.896,7.589 17.657,6.343 C16.158,4.84 14.122,3.997 12,4 Z M19.985,11.5 C19.238,12.832 17.972,13.795 16.489,14.158 C15.005,14.521 13.437,14.251 12.16,13.414 C11.284,14.926 11.655,16.852 13.031,17.928 C14.407,19.005 16.367,18.903 17.623,17.689 C19.27,16.066 20.132,13.808 19.985,11.5 Z"/>
</svg>

