<svg xmlns="http://www.w3.org/2000/svg" width="24" height="24">
  <defs/>
  <path  d="M11.98,13.594 C10.64,15.373 8.428,16.226 6.32,15.948 C3.937,15.634 1.774,13.898 1.026,10.7 C0.938,10.324 1.074,9.932 1.376,9.691 C1.677,9.45 2.09,9.404 2.437,9.573 C4.53,10.589 6.471,9.509 8.091,8.218 C8.819,7.638 9.626,7.355 10.43,7.45 C11.05,7.523 11.576,7.811 11.98,8.211 C12.385,7.811 12.91,7.523 13.531,7.45 C14.335,7.355 15.142,7.638 15.871,8.218 C17.49,9.509 19.431,10.589 21.524,9.573 C21.871,9.405 22.283,9.451 22.584,9.692 C22.886,9.932 23.022,10.325 22.934,10.7 C22.187,13.898 20.024,15.634 17.641,15.948 C15.533,16.226 13.321,15.373 11.981,13.594 Z"/>
</svg>

