<svg xmlns="http://www.w3.org/2000/svg" width="24" height="24">
  <defs/>
  <path  d="M18.5,2 C20.075,1.999 21.456,3.05 21.875,4.569 C22.294,6.087 21.648,7.698 20.296,8.505 C21.709,11.865 20.956,15.746 18.388,18.334 C15.821,20.922 11.945,21.705 8.574,20.317 C5.203,18.929 3.002,15.645 3,12 C3,10.76 3.25,9.58 3.704,8.505 C2.452,7.757 1.796,6.311 2.056,4.876 C2.317,3.441 3.44,2.318 4.875,2.057 C6.31,1.797 7.756,2.453 8.504,3.705 C9.61,3.238 10.799,2.998 12,2.999 C13.24,2.999 14.42,3.249 15.495,3.703 C16.127,2.646 17.268,1.999 18.5,2 Z M12,12 C11.381,12 10.825,12.38 10.601,12.957 C10.377,13.535 10.531,14.191 10.988,14.608 C10.937,14.837 10.734,15 10.5,15 C9.948,15 9.5,15.448 9.5,16 C9.5,16.552 9.948,17 10.5,17 C11.041,17.001 11.568,16.825 12,16.5 C12.418,16.814 12.937,17 13.5,17 C14.052,17 14.5,16.552 14.5,16 C14.5,15.448 14.052,15 13.5,15 C13.266,15 13.063,14.837 13.012,14.608 C13.469,14.191 13.623,13.535 13.399,12.957 C13.175,12.38 12.619,12 12,12 Z M9,8 C8.448,8 8,8.448 8,9 L8,10 C8,10.552 8.448,11 9,11 C9.552,11 10,10.552 10,10 L10,9 C10,8.448 9.552,8 9,8 Z M15,8 C14.493,8 14.066,8.38 14.007,8.883 L14,9 L14,10 C14.001,10.529 14.413,10.966 14.941,10.997 C15.47,11.028 15.931,10.642 15.993,10.117 L16,10 L16,9 C16,8.448 15.552,8 15,8 Z"/>
</svg>

