<svg xmlns="http://www.w3.org/2000/svg" width="24" height="24">
  <defs/>
  <path  d="M18.5,2 C20.075,1.999 21.456,3.05 21.875,4.569 C22.294,6.087 21.648,7.698 20.296,8.505 C21.709,11.865 20.956,15.746 18.388,18.334 C15.821,20.922 11.945,21.705 8.574,20.317 C5.203,18.929 3.002,15.645 3,12 C3,10.76 3.25,9.58 3.704,8.505 C2.452,7.757 1.796,6.311 2.056,4.876 C2.317,3.441 3.44,2.318 4.875,2.057 C6.31,1.797 7.756,2.453 8.504,3.705 C9.61,3.238 10.799,2.998 12,2.999 C13.24,2.999 14.42,3.249 15.495,3.703 C16.127,2.646 17.268,1.999 18.5,2 Z M12,5 C8.134,5 5,8.134 5,12 C5,15.866 8.134,19 12,19 C15.866,19 19,15.866 19,12 C19,8.134 15.866,5 12,5 Z M12,12 C12.619,12 13.175,12.38 13.399,12.957 C13.623,13.535 13.469,14.191 13.012,14.608 C13.063,14.837 13.266,15 13.5,15 C14.052,15 14.5,15.448 14.5,16 C14.5,16.552 14.052,17 13.5,17 C12.959,17.001 12.432,16.825 12,16.5 C11.568,16.825 11.041,17.001 10.5,17 C9.948,17 9.5,16.552 9.5,16 C9.5,15.448 9.948,15 10.5,15 C10.734,15 10.937,14.837 10.988,14.608 C10.531,14.191 10.377,13.535 10.601,12.957 C10.825,12.38 11.381,12 12,12 Z M15,9 C15.552,9 16,9.448 16,10 L16,11 C16,11.552 15.552,12 15,12 C14.448,12 14,11.552 14,11 L14,10 C14,9.448 14.448,9 15,9 Z M9,9 C9.507,9 9.934,9.38 9.993,9.883 L10,10 L10,11 C9.999,11.529 9.587,11.966 9.059,11.997 C8.53,12.028 8.069,11.642 8.007,11.117 L8,11 L8,10 C8,9.448 8.448,9 9,9 Z M18.5,4 C17.992,4 17.519,4.257 17.242,4.683 C18.042,5.257 18.743,5.958 19.317,6.758 C19.876,6.397 20.13,5.711 19.941,5.073 C19.752,4.435 19.165,3.998 18.5,4 Z M5.5,4 C4.836,4 4.25,4.437 4.062,5.074 C3.873,5.711 4.126,6.396 4.683,6.758 C5.257,5.958 5.958,5.257 6.758,4.683 C6.481,4.257 6.008,4 5.5,4 Z"/>
</svg>

