<svg xmlns="http://www.w3.org/2000/svg" width="24" height="24">
  <defs/>
  <path  d="M3,5 C3.507,5 3.934,5.38 3.993,5.883 L4,6 L4,13 L11,13 L11,8 C11,7.493 11.38,7.066 11.883,7.007 L12,7 L19,7 C20.589,7 21.902,8.238 21.995,9.824 L22,10 L22,18 C21.999,18.529 21.587,18.966 21.059,18.997 C20.53,19.028 20.069,18.642 20.007,18.117 L20,18 L20,15 L4,15 L4,18 C3.999,18.529 3.587,18.966 3.059,18.997 C2.53,19.028 2.069,18.642 2.007,18.117 L2,18 L2,6 C2,5.448 2.448,5 3,5 Z M7.5,7 C8.881,7 10,8.119 10,9.5 C10,10.881 8.881,12 7.5,12 C6.119,12 5,10.881 5,9.5 C5,8.119 6.119,7 7.5,7 Z"/>
</svg>

