<svg xmlns="http://www.w3.org/2000/svg" width="24" height="24">
  <defs/>
  <path  d="M7,4 L17,4 C18.657,4 20,5.343 20,7 L20,9.17 C21.199,9.594 22,10.728 22,12 L22,17 C22,17.552 21.552,18 21,18 L20,18 L20,19 C20,19.552 19.552,20 19,20 C18.448,20 18,19.552 18,19 L18,18 L6,18 L6,19 C6,19.552 5.552,20 5,20 C4.448,20 4,19.552 4,19 L4,18 L3,18 C2.448,18 2,17.552 2,17 L2,12 C2,10.728 2.801,9.594 4,9.17 L4,7 C4,5.343 5.343,4 7,4 Z M18,9 L18,7 C18,6.448 17.552,6 17,6 L7,6 C6.448,6 6,6.448 6,7 L6,9 Z"/>
</svg>

