<svg xmlns="http://www.w3.org/2000/svg" width="24" height="24">
  <defs/>
  <path  d="M19,3 A2 2 0 0 1 21,5 L21,17 A2 2 0 0 1 19,19 L17.618,19 L17.894,19.553 A1 1 0 1 1 16.106,20.447 L15.382,19 L8.618,19 L7.894,20.447 A1 1 0 1 1 6.106,19.553 L6.382,19 L5,19 A2 2 0 0 1 3,17 L3,5 A2 2 0 0 1 5,3 Z M19,9 L13,9 L13,17 L19,17 Z M11,9 L5,9 L5,17 L11,17 Z M15,11 A1 1 0 0 1 15.993,11.883 L16,12 L16,14 A1 1 0 0 1 14.007,14.117 L14,14 L14,12 A1 1 0 0 1 15,11 M9,11 A1 1 0 0 1 10,12 L10,14 A1 1 0 1 1 8,14 L8,12 A1 1 0 0 1 9,11 M19,5 L5,5 L5,7 L19,7 Z"/>
</svg>

