<svg xmlns="http://www.w3.org/2000/svg" width="24" height="24">
  <defs/>
  <path  d="M11,3 L11,19 L8.618,19 L7.894,20.447 C7.657,20.921 7.092,21.128 6.605,20.919 C6.118,20.711 5.879,20.158 6.059,19.66 L6.106,19.553 L6.382,19 L5,19 C3.953,19 3.083,18.194 3.005,17.15 L3,17 L3,5 C3,3.953 3.806,3.083 4.85,3.005 L5,3 Z M19,3 C20.047,3 20.917,3.806 20.995,4.85 L21,5 L21,17 C21,18.047 20.194,18.917 19.15,18.995 L19,19 L17.618,19 L17.894,19.553 C18.129,20.026 17.955,20.601 17.497,20.864 C17.039,21.128 16.455,20.99 16.164,20.549 L16.106,20.447 L15.382,19 L13,19 L13,3 Z M16,9 C15.448,9 15,9.448 15,10 L15,12 C15,12.552 15.448,13 16,13 C16.552,13 17,12.552 17,12 L17,10 C17,9.448 16.552,9 16,9 Z M8,9 C7.493,9 7.066,9.38 7.007,9.883 L7,10 L7,12 C7.001,12.529 7.413,12.966 7.941,12.997 C8.47,13.028 8.931,12.642 8.993,12.117 L9,12 L9,10 C9,9.448 8.552,9 8,9 Z"/>
</svg>

