<svg xmlns="http://www.w3.org/2000/svg" width="24" height="24">
  <defs/>
  <path  d="M3,5 C3,3.895 3.895,3 5,3 L19,3 C20.105,3 21,3.895 21,5 L21,17 C21,18.105 20.105,19 19,19 L17.618,19 L17.894,19.553 C18.067,19.874 18.052,20.264 17.854,20.57 C17.656,20.876 17.307,21.051 16.944,21.025 C16.58,21 16.259,20.778 16.106,20.447 L15.382,19 L8.618,19 L7.894,20.447 C7.741,20.778 7.42,21 7.056,21.025 C6.693,21.051 6.344,20.876 6.146,20.57 C5.948,20.264 5.933,19.874 6.106,19.553 L6.382,19 L5,19 C3.895,19 3,18.105 3,17 Z M13,17 L15.978,17 C15.992,17 16.006,17 16.02,17 L19,17 L19,5 L13,5 Z M8.022,17 L11,17 L11,5 L5,5 L5,17 L7.98,17 C7.994,17 8.008,17 8.022,17 Z M9,9 C9.552,9 10,9.448 10,10 L10,12 C10,12.552 9.552,13 9,13 C8.448,13 8,12.552 8,12 L8,10 C8,9.448 8.448,9 9,9 Z M15,9 C15.552,9 16,9.448 16,10 L16,12 C16,12.552 15.552,13 15,13 C14.448,13 14,12.552 14,12 L14,10 C14,9.448 14.448,9 15,9 Z"/>
</svg>

