<svg xmlns="http://www.w3.org/2000/svg" width="24" height="24">
  <defs/>
  <path  d="M8,4.5 C9.775,4.5 11.383,5.543 12.108,7.163 C12.832,8.783 12.537,10.677 11.354,12 C12.537,13.323 12.832,15.217 12.108,16.837 C11.383,18.457 9.775,19.5 8,19.5 L4,19.5 C2.619,19.5 1.5,18.381 1.5,17 L1.5,7 C1.5,5.619 2.619,4.5 4,4.5 Z M17.5,8.5 C20.443,8.5 22.5,11.157 22.5,14 C22.5,14.773 21.913,15.419 21.144,15.493 L21,15.5 L20.504,15.5 C21.12,15.501 21.673,15.879 21.897,16.452 C22.122,17.026 21.974,17.678 21.523,18.098 C20.627,18.931 19.337,19.5 17.5,19.5 C14.557,19.5 12.5,16.843 12.5,14 C12.5,11.157 14.557,8.5 17.5,8.5 L16,8.5 C15.172,8.5 14.5,7.828 14.5,7 C14.5,6.172 15.172,5.5 16,5.5 L19,5.5 C19.828,5.5 20.5,6.172 20.5,7 C20.5,7.828 19.828,8.5 19,8.5 Z M8,7.5 L4.5,7.5 L4.5,10.5 L8,10.5 C8.828,10.5 9.5,9.828 9.5,9 C9.5,8.172 8.828,7.5 8,7.5 Z M8,13.5 L4.5,13.5 L4.5,16.5 L8,16.5 C8.8,16.5 9.459,15.871 9.498,15.072 C9.536,14.273 8.94,13.584 8.144,13.507 Z M15.9,15.5 C16.297,16.145 16.928,16.5 17.5,16.5 C18.663,16.5 19.198,16.163 19.477,15.902 C19.753,15.644 20.117,15.501 20.495,15.5 L15.9,15.5 Z M17.499,11.5 C16.927,11.5 16.296,11.855 15.899,12.5 L19.099,12.5 C18.702,11.855 18.071,11.5 17.499,11.5 Z"/>
</svg>

