<svg xmlns="http://www.w3.org/2000/svg" width="24" height="24">
  <defs/>
  <path  d="M8,5 C9.664,5 11.154,6.03 11.742,7.586 C12.33,9.142 11.894,10.9 10.646,12 C11.894,13.1 12.33,14.858 11.742,16.414 C11.154,17.97 9.664,19 8,19 L4,19 C2.895,19 2,18.105 2,17 L2,7 C2,5.895 2.895,5 4,5 Z M17.5,9 C20.107,9 22,11.368 22,14 C22,14.507 21.62,14.934 21.117,14.993 L21,15 L15.14,15 C15.498,16.224 16.493,17 17.5,17 C18.58,17 19.192,16.489 19.74,15.85 C20.099,15.43 20.73,15.381 21.15,15.74 C21.57,16.099 21.619,16.73 21.26,17.15 L21.153,17.272 L20.924,17.518 C20.202,18.26 19.146,19 17.5,19 C14.893,19 13,16.632 13,14 C13,11.368 14.893,9 17.5,9 Z M8,13 L4,13 L4,17 L8,17 C9.079,17.005 9.967,16.153 10.008,15.075 C10.048,13.997 9.226,13.081 8.15,13.005 Z M8,7 L4,7 L4,11 L8,11 C9.105,11 10,10.105 10,9 C10,7.895 9.105,7 8,7 Z M19,6 C19.552,6 20,6.448 20,7 C20,7.552 19.552,8 19,8 L16,8 C15.448,8 15,7.552 15,7 C15,6.448 15.448,6 16,6 Z M17.5,11 C16.493,11 15.498,11.776 15.14,13 L19.86,13 C19.502,11.776 18.507,11 17.5,11 Z"/>
</svg>

