<svg xmlns="http://www.w3.org/2000/svg" width="24" height="24">
  <defs/>
  <path  d="M5,10 C5,6.134 8.134,3 12,3 C15.866,3 19,6.134 19,10 L19,13.764 L20.822,17.408 C20.993,17.749 20.974,18.154 20.774,18.478 C20.573,18.803 20.219,19 19.838,19 L4.162,19 C3.781,19 3.427,18.803 3.226,18.478 C3.026,18.154 3.007,17.749 3.178,17.408 L5,13.764 Z M6.972,3.777 C6.108,4.476 5.399,5.345 4.888,6.332 C4.728,6.656 4.405,6.868 4.044,6.887 C3.683,6.906 3.34,6.728 3.147,6.423 C2.953,6.117 2.94,5.731 3.112,5.413 C3.75,4.181 4.636,3.095 5.714,2.223 C5.991,1.987 6.373,1.92 6.713,2.048 C7.053,2.175 7.298,2.477 7.351,2.836 C7.405,3.195 7.26,3.556 6.972,3.777 Z M18.286,2.223 C19.369,3.099 20.258,4.191 20.896,5.429 C21.149,5.92 20.956,6.523 20.465,6.776 C19.974,7.029 19.371,6.836 19.118,6.345 C18.607,5.353 17.895,4.479 17.028,3.777 C16.74,3.556 16.595,3.195 16.649,2.836 C16.702,2.477 16.947,2.175 17.287,2.048 C17.627,1.92 18.009,1.987 18.286,2.223 Z M9,20 L15,20 C15,21.105 14.105,22 13,22 L11,22 C9.895,22 9,21.105 9,20 Z"/>
</svg>

