<svg xmlns="http://www.w3.org/2000/svg" width="24" height="24">
  <defs/>
  <path  d="M12,3 A7 7 0 0 1 19,10 L19,13.764 L20.822,17.408 A1.1 1.1 0 0 1 19.838,19 L4.162,19 A1.1 1.1 0 0 1 3.178,17.408 L5,13.764 L5,10 A7 7 0 0 1 12,3 M12,5 A5 5 0 0 0 7,10 L7,13.764 A2 2 0 0 1 6.789,14.658 L5.619,17 L18.382,17 L17.212,14.658 A2 2 0 0 1 17,13.764 L17,10 A5 5 0 0 0 12,5 M16.88,2.37 A1 1 0 0 1 18.286,2.223 A10.04 10.04 0 0 1 20.896,5.429 A1 1 0 0 1 19.118,6.344 A8.037 8.037 0 0 0 17.028,3.777 A1 1 0 0 1 16.88,2.371 Z M7.12,2.37 A1 1 0 0 1 6.972,3.777 A8.038 8.038 0 0 0 4.888,6.332 A1 1 0 1 1 3.112,5.414 A10.038 10.038 0 0 1 5.714,2.223 A1 1 0 0 1 7.12,2.371 Z M9,20 L15,20 A2 2 0 0 1 13,22 L11,22 A2 2 0 0 1 9,20"/>
</svg>

