<svg xmlns="http://www.w3.org/2000/svg" width="24" height="24">
  <defs/>
  <path  d="M12,1 C12.507,1 12.934,1.38 12.993,1.883 L13,2 L13,3.697 L14.832,6.445 C14.874,6.509 14.909,6.577 14.936,6.648 L14.97,6.758 L15.28,8 L16,8 C16.507,8 16.934,8.38 16.993,8.883 L17,9 L17,15 C17,15.507 16.62,15.934 16.117,15.993 L16,16 L16,21 C16.529,21.001 16.966,21.413 16.997,21.941 C17.028,22.47 16.642,22.931 16.117,22.993 L16,23 L8,23 C7.471,22.999 7.034,22.587 7.003,22.059 C6.972,21.53 7.358,21.069 7.883,21.007 L8,21 L8,16 C7.493,16 7.066,15.62 7.007,15.117 L7,15 L7,9 C7,8.493 7.38,8.066 7.883,8.007 L8,8 L8.72,8 L9.03,6.757 C9.048,6.683 9.075,6.612 9.11,6.544 L9.168,6.445 L11,3.697 L11,2 C11,1.448 11.448,1 12,1 Z M12,9 C11.448,9 11,9.448 11,10 L11,12 C11,12.552 11.448,13 12,13 L13,13 C13.552,13 14,12.552 14,12 C14,11.448 13.552,11 13,11 L13,10 C13,9.448 12.552,9 12,9 Z"/>
</svg>

