<svg xmlns="http://www.w3.org/2000/svg" width="24" height="24">
  <defs/>
  <path  d="M12,1 A1 1 0 0 1 12.993,1.883 L13,2 L13,3.697 L14.832,6.445 C14.874,6.509 14.909,6.577 14.936,6.648 L14.97,6.758 L15.28,8 L16,8 A1 1 0 0 1 16.993,8.883 L17,9 L17,15 A1 1 0 0 1 16.117,15.993 L16,16 L16,21 A1 1 0 0 1 16.117,22.993 L16,23 L8,23 A1 1 0 0 1 7.883,21.007 L8,21 L8,16 A1 1 0 0 1 7.007,15.117 L7,15 L7,9 A1 1 0 0 1 7.883,8.007 L8,8 L8.72,8 L9.03,6.757 A1 1 0 0 1 9.11,6.544 L9.168,6.445 L11,3.697 L11,2 A1 1 0 0 1 12,1 M14,17 L10,17 L10,21 L14,21 Z M12,5.803 L10.928,7.41 L10.47,9.242 A1 1 0 0 1 9.5,10 L9,10 L9,14 A1 1 0 0 1 10,15 L14,15 A1 1 0 0 1 15,14 L15,10 L14.5,10 A1 1 0 0 1 13.53,9.243 L13.072,7.411 Z M12,9 A1 1 0 0 1 12.993,9.883 L13,10 L13,11 A1 1 0 0 1 13.117,12.993 L13,13 L12,13 A1 1 0 0 1 11.007,12.117 L11,12 L11,10 A1 1 0 0 1 12,9"/>
</svg>

