<svg xmlns="http://www.w3.org/2000/svg" width="24" height="24">
  <defs/>
  <path  d="M6.445,3.168 C6.904,2.861 7.526,2.985 7.832,3.445 L9.535,6 L14.465,6 L16.168,3.445 C16.475,2.985 17.095,2.861 17.555,3.168 C18.015,3.475 18.139,4.095 17.832,4.555 L16.87,6 L18,6 C20.209,6 22,7.791 22,10 L22,17 C22,19.209 20.209,21 18,21 L6,21 C3.791,21 2,19.209 2,17 L2,10 C2,7.791 3.791,6 6,6 L7.131,6 L6.168,4.555 C5.861,4.096 5.985,3.474 6.445,3.168 Z M6,8 C4.895,8 4,8.895 4,10 L4,17 C4,18.105 4.895,19 6,19 L18,19 C19.105,19 20,18.105 20,17 L20,10 C20,8.895 19.105,8 18,8 L6,8 Z M9,11 C9.552,11 10,11.448 10,12 L10,14 C10,14.552 9.552,15 9,15 C8.448,15 8,14.552 8,14 L8,12 C8,11.448 8.448,11 9,11 Z M15,11 C15.552,11 16,11.448 16,12 L16,14 C16,14.552 15.552,15 15,15 C14.448,15 14,14.552 14,14 L14,12 C14,11.448 14.448,11 15,11 Z"/>
</svg>

