<svg xmlns="http://www.w3.org/2000/svg" width="24" height="24">
  <defs/>
  <path  d="M17.555,3.168 C18.015,3.474 18.139,4.096 17.832,4.555 L16.87,6 L18,6 C20.209,6 22,7.791 22,10 L22,17 C22,19.209 20.209,21 18,21 L6,21 C3.791,21 2,19.209 2,17 L2,10 C2,7.791 3.791,6 6,6 L7.131,6 L6.168,4.555 C5.861,4.095 5.985,3.475 6.445,3.168 C6.905,2.861 7.525,2.985 7.832,3.445 L9.535,6 L14.465,6 L16.168,3.445 C16.474,2.985 17.096,2.861 17.555,3.168 Z M15,11 C14.448,11 14,11.448 14,12 L14,14 C14,14.552 14.448,15 15,15 C15.552,15 16,14.552 16,14 L16,12 C16,11.448 15.552,11 15,11 Z M9,11 C8.493,11 8.066,11.38 8.007,11.883 L8,12 L8,14 C8.001,14.529 8.413,14.966 8.941,14.997 C9.47,15.028 9.931,14.642 9.993,14.117 L10,14 L10,12 C10,11.448 9.552,11 9,11 Z"/>
</svg>

