<svg xmlns="http://www.w3.org/2000/svg" width="24" height="24">
  <defs/>
  <path  d="M18,3 C19.589,3 20.902,4.238 20.995,5.824 L21,6 L21,20 C21,20.338 20.829,20.653 20.545,20.838 C20.262,21.022 19.904,21.051 19.595,20.914 L19.475,20.852 L16.75,19.174 L14.024,20.852 C13.74,21.026 13.389,21.048 13.086,20.91 L12.976,20.852 L10.25,19.174 L7.524,20.852 C7.234,21.031 6.872,21.049 6.565,20.901 C6.258,20.753 6.048,20.458 6.007,20.12 L6,20 L6,14 L4,14 C3.493,14 3.066,13.62 3.007,13.117 L3,13 L3,5.5 C3,4.183 4.022,3.091 5.336,3.005 L5.5,3 Z M16,8 L11,8 C10.471,8.001 10.034,8.413 10.003,8.941 C9.972,9.47 10.358,9.931 10.883,9.993 L11,10 L16,10 C16.529,9.999 16.966,9.587 16.997,9.059 C17.028,8.53 16.642,8.069 16.117,8.007 Z M15,12 L11,12 C10.448,12 10,12.448 10,13 C10,13.552 10.448,14 11,14 L15,14 C15.552,14 16,13.552 16,13 C16,12.448 15.552,12 15,12 Z M5.5,5 C5.224,5 5,5.224 5,5.5 L5,12 L6,12 L6,5.5 C6,5.224 5.776,5 5.5,5 Z"/>
</svg>

