<svg xmlns="http://www.w3.org/2000/svg" width="24" height="24">
  <defs/>
  <path  d="M4,5 C4,3.343 5.343,2 7,2 L17,2 C18.657,2 20,3.343 20,5 L20,21 C20,21.384 19.779,21.735 19.433,21.901 C19.086,22.067 18.675,22.02 18.375,21.78 L16.5,20.28 L14.625,21.78 C14.227,22.099 13.654,22.067 13.293,21.707 L12,20.414 L10.707,21.707 C10.347,22.067 9.773,22.099 9.375,21.781 L7.5,20.28 L5.625,21.78 C5.325,22.02 4.914,22.067 4.567,21.901 C4.221,21.735 4,21.384 4,21 Z M7,4 C6.448,4 6,4.448 6,5 L6,18.92 L6.875,18.22 C7.24,17.927 7.76,17.927 8.125,18.22 L9.925,19.66 L11.293,18.293 C11.684,17.903 12.316,17.903 12.707,18.293 L14.074,19.66 L15.875,18.22 C16.24,17.927 16.76,17.927 17.125,18.22 L18,18.92 L18,5 C18,4.448 17.552,4 17,4 Z M8,9 C8,8.448 8.448,8 9,8 L15,8 C15.552,8 16,8.448 16,9 C16,9.552 15.552,10 15,10 L9,10 C8.448,10 8,9.552 8,9 Z M9,12 L12,12 C12.552,12 13,12.448 13,13 C13,13.552 12.552,14 12,14 L9,14 C8.448,14 8,13.552 8,13 C8,12.448 8.448,12 9,12 Z"/>
</svg>

