<svg xmlns="http://www.w3.org/2000/svg" width="24" height="24">
  <defs/>
  <path  d="M17,2 C18.657,2 20,3.343 20,5 L20,21 C20,21.384 19.779,21.735 19.433,21.901 C19.086,22.067 18.675,22.02 18.375,21.78 L16.5,20.28 L14.625,21.78 C14.227,22.099 13.654,22.067 13.293,21.707 L12,20.414 L10.707,21.707 C10.347,22.067 9.773,22.099 9.375,21.781 L7.5,20.28 L5.625,21.78 C5.325,22.02 4.914,22.067 4.567,21.901 C4.221,21.735 4,21.384 4,21 L4,5 C4,3.343 5.343,2 7,2 Z M15,8 L9,8 C8.471,8.001 8.034,8.413 8.003,8.941 C7.972,9.47 8.358,9.931 8.883,9.993 L9,10 L15,10 C15.529,9.999 15.966,9.587 15.997,9.059 C16.028,8.53 15.642,8.069 15.117,8.007 Z M12,12 L9,12 C8.448,12 8,12.448 8,13 C8,13.552 8.448,14 9,14 L12,14 C12.552,14 13,13.552 13,13 C13,12.448 12.552,12 12,12 Z"/>
</svg>

