<svg xmlns="http://www.w3.org/2000/svg" width="24" height="24">
  <defs/>
  <path  d="M3,5.5 C3,4.119 4.119,3 5.5,3 L18,3 C19.657,3 21,4.343 21,6 L21,20 C21,20.362 20.804,20.696 20.488,20.873 C20.172,21.05 19.785,21.042 19.476,20.852 L16.75,19.174 L14.024,20.852 C13.703,21.05 13.297,21.05 12.976,20.852 L10.25,19.174 L7.524,20.852 C7.215,21.042 6.828,21.05 6.512,20.873 C6.196,20.696 6,20.362 6,20 L6,14 L4,14 C3.448,14 3,13.552 3,13 Z M8,18.21 L9.726,17.148 C10.047,16.95 10.453,16.95 10.774,17.148 L13.5,18.826 L16.226,17.148 C16.547,16.95 16.953,16.95 17.274,17.148 L19,18.21 L19,6 C19,5.448 18.552,5 18,5 L7.95,5 C7.983,5.162 8,5.329 8,5.5 Z M10,9 C10,8.448 10.448,8 11,8 L16,8 C16.552,8 17,8.448 17,9 C17,9.552 16.552,10 16,10 L11,10 C10.448,10 10,9.552 10,9 Z M10,13 C10,12.448 10.448,12 11,12 L15,12 C15.552,12 16,12.448 16,13 C16,13.552 15.552,14 15,14 L11,14 C10.448,14 10,13.552 10,13 Z M5.5,5 C5.224,5 5,5.224 5,5.5 L5,12 L6,12 L6,5.5 C6,5.224 5.776,5 5.5,5 Z"/>
</svg>

