<svg xmlns="http://www.w3.org/2000/svg" width="24" height="24">
  <defs/>
  <path  d="M8.11,13.768 L11.646,17.303 A0.5 0.5 0 0 0 12.353,17.303 L15.889,13.768 A0.5 0.5 0 0 1 16.596,13.768 L18.152,15.323 A0.5 0.5 0 0 1 18.152,16.03 L12.353,21.829 A0.5 0.5 0 0 1 11.646,21.829 L5.848,16.03 A0.5 0.5 0 0 1 5.848,15.323 L7.404,13.768 A0.5 0.5 0 0 1 8.111,13.768 Z M20.204,10.033 L20.273,10.091 L21.829,11.646 A0.5 0.5 0 0 1 21.887,12.284 L21.829,12.354 L20.273,13.909 A0.5 0.5 0 0 1 19.635,13.967 L19.566,13.909 L18.01,12.353 A0.5 0.5 0 0 1 17.953,11.716 L18.01,11.646 L19.566,10.091 A0.5 0.5 0 0 1 20.128,9.99 Z M4.434,10.091 L5.99,11.646 A0.5 0.5 0 0 1 5.99,12.353 L4.434,13.91 A0.5 0.5 0 0 1 3.727,13.91 L2.17,12.353 A0.5 0.5 0 0 1 2.17,11.646 L3.726,10.091 A0.5 0.5 0 0 1 4.433,10.091 Z M12.284,10.033 L12.354,10.091 L13.909,11.646 A0.5 0.5 0 0 1 13.967,12.284 L13.909,12.354 L12.354,13.909 A0.5 0.5 0 0 1 11.716,13.967 L11.646,13.909 L10.091,12.353 A0.5 0.5 0 0 1 10.033,11.716 L10.091,11.646 L11.646,10.091 A0.5 0.5 0 0 1 12.208,9.99 Z M12.354,2.171 L18.152,7.969 A0.5 0.5 0 0 1 18.152,8.676 L16.596,10.232 A0.5 0.5 0 0 1 15.889,10.232 L12.354,6.697 A0.5 0.5 0 0 0 11.646,6.697 L8.111,10.232 A0.5 0.5 0 0 1 7.404,10.232 L5.848,8.676 A0.5 0.5 0 0 1 5.848,7.969 L11.646,2.171 A0.5 0.5 0 0 1 12.353,2.171 Z"/>
</svg>

