<svg xmlns="http://www.w3.org/2000/svg" width="24" height="24">
  <defs/>
  <path  d="M19.921,9.75 L19.991,9.808 L21.829,11.646 A0.5 0.5 0 0 1 21.887,12.284 L21.829,12.354 L12.353,21.829 A0.5 0.5 0 0 1 11.716,21.887 L11.646,21.829 L9.808,19.99 A0.5 0.5 0 0 1 9.75,19.353 L9.808,19.283 L19.283,9.808 A0.5 0.5 0 0 1 19.845,9.707 Z M16.171,5.99 L18.011,7.828 A0.5 0.5 0 0 1 18.011,8.535 L8.535,18.011 A0.5 0.5 0 0 1 7.828,18.011 L5.989,16.172 A0.5 0.5 0 0 1 5.989,15.465 L15.465,5.99 A0.5 0.5 0 0 1 16.172,5.99 Z M4.01,9.808 A0.5 0.5 0 0 1 4.647,9.75 L4.717,9.808 L6.555,11.646 A0.5 0.5 0 0 1 6.613,12.284 L6.555,12.354 L4.717,14.192 A0.5 0.5 0 0 1 4.079,14.25 L4.009,14.192 L2.171,12.354 A0.5 0.5 0 0 1 2.113,11.716 L2.171,11.646 Z M12.284,2.113 L12.354,2.171 L14.192,4.01 A0.5 0.5 0 0 1 14.25,4.648 L14.192,4.717 L8.535,10.374 A0.5 0.5 0 0 1 7.897,10.432 L7.828,10.374 L5.989,8.535 A0.5 0.5 0 0 1 5.932,7.897 L5.989,7.828 L11.646,2.171 A0.5 0.5 0 0 1 12.208,2.071 Z"/>
</svg>

