<svg xmlns="http://www.w3.org/2000/svg" width="24" height="24">
  <defs/>
  <path  d="M19.778,9.525 L21.546,11.293 C21.936,11.684 21.936,12.316 21.546,12.707 L12.707,21.546 C12.316,21.936 11.684,21.936 11.293,21.546 L9.525,19.778 C9.135,19.388 9.135,18.754 9.525,18.364 L18.364,9.525 C18.754,9.135 19.388,9.135 19.778,9.525 Z M14.828,5.99 C15.184,5.633 15.75,5.597 16.148,5.906 L16.243,5.99 L18.01,7.757 C18.367,8.113 18.403,8.679 18.094,9.077 L18.01,9.172 L9.172,18.01 C8.816,18.367 8.25,18.403 7.852,18.094 L7.757,18.01 L5.99,16.243 C5.633,15.887 5.597,15.321 5.906,14.923 L5.99,14.828 Z M11.293,2.455 C11.649,2.099 12.215,2.063 12.613,2.372 L12.707,2.455 L14.475,4.223 C14.831,4.579 14.867,5.145 14.558,5.543 L14.475,5.637 L9.172,10.94 C8.816,11.296 8.25,11.332 7.852,11.023 L7.757,10.94 L5.99,9.172 C5.633,8.816 5.597,8.25 5.906,7.852 L5.99,7.757 Z M4.222,9.526 C4.578,9.17 5.144,9.134 5.542,9.443 L5.636,9.526 L7.404,11.294 C7.76,11.65 7.796,12.216 7.487,12.614 L7.404,12.708 L5.636,14.476 C5.28,14.832 4.714,14.868 4.316,14.559 L4.222,14.476 L2.454,12.708 C2.098,12.352 2.062,11.786 2.371,11.388 L2.454,11.294 Z M19.071,11.646 L11.646,19.071 L12,19.425 L19.425,12 Z M15.536,8.11 L8.11,15.537 L8.463,15.89 L15.888,8.465 L15.535,8.112 Z M12,4.575 L8.11,8.465 L8.464,8.818 L12.354,4.928 Z M4.929,11.647 L4.575,12 L4.929,12.354 L5.282,12 Z"/>
</svg>

