<svg xmlns="http://www.w3.org/2000/svg" width="24" height="24">
  <defs/>
  <path  d="M12.709,2.099 L18.012,7.403 C18.402,7.793 18.402,8.427 18.012,8.817 L16.244,10.585 C15.854,10.975 15.22,10.975 14.83,10.585 L12.002,7.756 L9.173,10.585 C8.783,10.975 8.149,10.975 7.759,10.585 L5.99,8.817 C5.6,8.427 5.6,7.793 5.99,7.403 L11.294,2.099 C11.684,1.709 12.318,1.709 12.708,2.099 Z M9.175,13.415 L12.003,16.244 L14.832,13.416 C15.222,13.026 15.856,13.026 16.246,13.416 L18.014,15.183 C18.202,15.371 18.307,15.625 18.307,15.891 C18.307,16.156 18.202,16.41 18.014,16.598 L12.71,21.9 C12.319,22.29 11.686,22.29 11.296,21.9 L5.993,16.596 C5.603,16.205 5.603,15.573 5.993,15.182 L7.76,13.414 C7.948,13.226 8.202,13.121 8.467,13.121 C8.733,13.121 8.987,13.226 9.175,13.414 Z M4.58,9.234 C4.8,9.234 5.013,9.306 5.188,9.44 L5.287,9.526 L7.054,11.294 C7.411,11.65 7.447,12.216 7.138,12.614 L7.054,12.708 L5.287,14.476 C4.931,14.832 4.365,14.868 3.967,14.559 L3.872,14.476 L2.105,12.708 C1.748,12.352 1.712,11.786 2.021,11.388 L2.105,11.294 L3.87,9.526 C4.058,9.339 4.313,9.234 4.578,9.234 Z M20.132,9.524 L21.9,11.292 C22.29,11.682 22.29,12.316 21.9,12.706 L20.132,14.474 C19.742,14.864 19.108,14.864 18.718,14.474 L16.95,12.706 C16.56,12.316 16.56,11.682 16.95,11.292 L18.718,9.524 C19.108,9.134 19.742,9.134 20.132,9.524 Z M12.613,9.441 L12.708,9.524 L14.476,11.292 C14.832,11.648 14.868,12.214 14.559,12.612 L14.476,12.706 L12.708,14.474 C12.353,14.828 11.791,14.865 11.393,14.56 L11.293,14.474 L9.526,12.706 C9.17,12.35 9.134,11.784 9.443,11.386 L9.526,11.292 L11.294,9.524 C11.65,9.168 12.216,9.132 12.614,9.441 Z M12,4.221 L8.11,8.11 L8.464,8.463 L11.293,5.635 C11.684,5.245 12.316,5.245 12.707,5.635 L15.535,8.463 L15.889,8.11 L12,4.22 Z M15.539,15.537 L12.71,18.365 C12.319,18.755 11.686,18.755 11.296,18.365 L8.468,15.537 L8.114,15.89 L12.004,19.78 L15.892,15.89 Z M12.002,11.645 L11.648,11.999 L12.002,12.352 L12.355,11.999 Z M19.426,11.645 L19.073,11.999 L19.426,12.352 L19.78,11.999 Z M4.58,11.648 L4.225,12 L4.579,12.354 L4.932,12 Z"/>
</svg>

