<svg xmlns="http://www.w3.org/2000/svg" width="24" height="24">
  <defs/>
  <path  d="M15,2 C16.908,2 18.65,3.086 19.49,4.799 L19.584,5 L21,5 C21.344,5 21.665,5.177 21.847,5.469 C22.03,5.761 22.05,6.126 21.9,6.436 L21.832,6.555 L20.28,8.882 C20.161,9.061 20.103,9.273 20.114,9.488 L20.128,9.616 L20.269,10.39 C21.258,15.828 17.161,20.841 11.676,20.996 L11.414,21 L3,21 C2.656,21 2.335,20.823 2.153,20.531 C1.97,20.239 1.95,19.874 2.1,19.564 L2.168,19.445 L9.613,8.277 C9.865,7.899 10,7.455 10,7 C10,4.239 12.239,2 15,2 Z M11.5,11 C11.229,11 10.837,11.07 10.464,11.209 C10.089,11.349 9.882,11.504 9.81,11.587 L6.426,16.664 C7.424,16.377 8.491,16.061 9.489,15.67 C10.556,15.253 11.467,14.778 12.098,14.224 C12.71,13.687 13,13.132 13,12.5 C13,11.672 12.328,11 11.5,11 Z M15,6 C14.448,6 14,6.448 14,7 C14,7.552 14.448,8 15,8 C15.552,8 16,7.552 16,7 C16,6.448 15.552,6 15,6 Z"/>
</svg>

