<svg xmlns="http://www.w3.org/2000/svg" width="24" height="24">
  <defs/>
  <path  d="M15,2 A5 5 0 0 1 19.49,4.799 L19.584,5 L21,5 A1 1 0 0 1 21.9,6.436 L21.832,6.555 L20.28,8.882 A1 1 0 0 0 20.114,9.488 L20.128,9.616 L20.269,10.39 C21.258,15.828 17.161,20.841 11.676,20.996 L11.414,21 L3,21 A1 1 0 0 1 2.168,19.445 L6.16,13.435 L8.172,10.44 L9.613,8.277 A2.3 2.3 0 0 0 10,7 A5 5 0 0 1 15,2 M15,4 A3 3 0 0 0 12.005,6.824 L12,7 A4.3 4.3 0 0 1 11.507,9 A3.5 3.5 0 0 1 15,12.5 C15,13.868 14.325,14.93 13.418,15.727 C12.529,16.507 11.367,17.083 10.218,17.533 C9.392,17.856 8.532,18.129 7.729,18.368 L5.784,18.933 L5.56,19 L11.413,19 C15.781,19 19.082,15.045 18.3,10.748 L18.16,9.974 A3 3 0 0 1 18.615,7.773 L19.131,7 C18.591,7 18.059,6.846 17.905,6.25 A3.002 3.002 0 0 0 15,4 M11.5,11 C11.229,11 10.837,11.07 10.464,11.209 C10.089,11.349 9.882,11.504 9.81,11.587 L6.426,16.664 C7.424,16.377 8.491,16.061 9.489,15.67 C10.556,15.253 11.467,14.778 12.098,14.224 C12.71,13.687 13,13.132 13,12.5 A1.5 1.5 0 0 0 11.5,11 M15,6 A1 1 0 1 1 15,8 A1 1 0 0 1 15,6"/>
</svg>

