<svg xmlns="http://www.w3.org/2000/svg" width="24" height="24">
  <defs/>
  <path  d="M18,9 C19.589,9 20.902,10.238 20.995,11.824 L21,12 L21,15 C21,15.64 20.621,16.139 20.118,16.367 L20,16.414 L20,20 C20,21.047 19.194,21.917 18.15,21.995 L18,22 L6,22 C4.953,22 4.083,21.194 4.005,20.15 L4,20 L4,16.415 C3.449,16.223 3.06,15.726 3.007,15.145 L3,15 L3,12 C3,10.411 4.238,9.098 5.824,9.005 L6,9 L12,9 C10.343,9 9,7.657 9,6 C9,4.855 9.73,3.862 10.253,3.273 C10.603,2.882 10.987,2.523 11.4,2.2 C11.756,1.933 12.244,1.933 12.6,2.2 C13.013,2.523 13.397,2.882 13.747,3.273 C14.271,3.862 15,4.855 15,6 C15,7.657 13.657,9 12,9 Z M17.933,15.7 C17.616,15.462 17.189,15.434 16.843,15.628 L16.733,15.7 L16.467,15.9 C15.462,16.654 14.093,16.702 13.038,16.02 L12.867,15.9 L12.6,15.7 C12.283,15.462 11.856,15.434 11.51,15.628 L11.4,15.7 L11.133,15.9 C10.128,16.654 8.76,16.702 7.705,16.02 L7.533,15.9 L7.267,15.7 C6.95,15.462 6.523,15.434 6.177,15.628 L6.067,15.7 L6,15.75 L6,20 L18,20 L18,15.75 Z M18,11 L6,11 C5.448,11 5,11.448 5,12 L5,14.005 C6.059,13.298 7.449,13.336 8.467,14.1 L8.733,14.3 C9.089,14.567 9.577,14.567 9.933,14.3 L10.2,14.1 C11.267,13.3 12.733,13.3 13.8,14.1 L14.067,14.3 C14.423,14.567 14.911,14.567 15.267,14.3 L15.533,14.1 C16.551,13.336 17.941,13.298 19,14.005 L19,12 C19,11.448 18.552,11 18,11 Z M12,4.334 C11.913,4.421 11.829,4.51 11.747,4.602 C11.271,5.138 11,5.645 11,6 C11,6.552 11.448,7 12,7 C12.552,7 13,6.552 13,6 C13,5.645 12.73,5.138 12.253,4.602 C12.171,4.51 12.087,4.421 12,4.334 Z"/>
</svg>

