<svg xmlns="http://www.w3.org/2000/svg" width="24" height="24">
  <defs/>
  <path  d="M12.6,2.2 A1 1 0 0 0 11.4,2.2 A7.925 7.925 0 0 0 10.253,3.273 C9.73,3.862 9,4.855 9,6 A3 3 0 0 0 12,9 L6,9 A3 3 0 0 0 3,12 L3,14 C3,15.236 4.411,15.942 5.4,15.2 L6.067,14.7 A1 1 0 0 1 7.267,14.7 L7.533,14.9 A3 3 0 0 0 11.133,14.9 L11.4,14.7 A1 1 0 0 1 12.6,14.7 L12.867,14.9 A3 3 0 0 0 16.467,14.9 L16.733,14.7 A1 1 0 0 1 17.933,14.7 L18.6,15.2 C19.589,15.942 21,15.236 21,14 L21,12 A3 3 0 0 0 18,9 L12,9 A3 3 0 0 0 15,6 C15,4.855 14.27,3.862 13.747,3.273 C13.401,2.883 13.017,2.513 12.6,2.2 M4,17.415 L4,20 A2 2 0 0 0 6,22 L18,22 A2 2 0 0 0 20,20 L20,17.415 A1.477 1.477 0 0 1 18.6,17.2 L17.933,16.7 A1 1 0 0 0 16.733,16.7 L16.467,16.9 A3 3 0 0 1 12.867,16.9 L12.6,16.7 A1 1 0 0 0 11.4,16.7 L11.133,16.9 A3 3 0 0 1 7.533,16.9 L7.267,16.7 A1 1 0 0 0 6.067,16.7 L5.4,17.2 A1.477 1.477 0 0 1 4,17.415"/>
</svg>

