<svg xmlns="http://www.w3.org/2000/svg" width="24" height="24">
  <defs/>
  <path  d="M10.586,4 C11.32,3.266 12.493,3.215 13.287,3.883 L13.414,4 L16.414,7 L19,7 C20.047,7 20.917,7.806 20.995,8.85 L21,9 L21,19 C21,20.046 20.193,20.916 19.15,20.994 L19,21 L5,21 C3.953,21 3.083,20.194 3.005,19.15 L3,19 L3,9 C3,7.953 3.806,7.083 4.85,7.005 L5,7 L7.586,7 Z M14,11 L8,11 C7.471,11.001 7.034,11.413 7.003,11.941 C6.972,12.47 7.358,12.931 7.883,12.993 L8,13 L14,13 C14.529,12.999 14.966,12.587 14.997,12.059 C15.028,11.53 14.642,11.069 14.117,11.007 Z M10,15 L8,15 C7.448,15 7,15.448 7,16 C7,16.552 7.448,17 8,17 L10,17 C10.552,17 11,16.552 11,16 C11,15.448 10.552,15 10,15 Z M12,5.414 L10.414,7 L13.586,7 Z"/>
</svg>

