<svg xmlns="http://www.w3.org/2000/svg" width="24" height="24">
  <defs/>
  <path  d="M13.287,2.69 L13.414,2.807 L21.192,10.586 A2 2 0 0 1 21.309,13.286 L21.192,13.414 L13.414,21.192 A2 2 0 0 1 10.714,21.309 L10.586,21.192 L2.808,13.414 A2 2 0 0 1 2.691,10.713 L2.808,10.586 L10.586,2.807 A2 2 0 0 1 13.153,2.587 L13.287,2.691 Z M12.386,7.755 C12.131,8.051 11.971,8.313 11.906,8.74 C11.843,9.167 11.971,9.593 12.13,9.79 C12.27,9.963 12.459,10.06 12.675,10.037 L12.769,10.02 C12.863,9.996 12.854,10.047 12.799,10.14 L12.688,10.307 C12.579,10.465 12.444,10.663 12.386,10.841 C12.258,11.234 12.45,11.497 12.706,11.497 A0.769 0.769 0 0 0 12.905,11.467 L12.989,11.44 C13.095,11.406 13.166,11.383 13.184,11.464 C13.191,11.494 13.112,11.571 12.987,11.67 L12.817,11.798 L12.514,12.011 L12.434,12.061 L12.24,12.165 C11.988,12.295 11.698,12.445 11.61,12.66 C11.477,12.99 11.69,13.31 12.182,13.552 L12.322,13.616 L12.455,13.664 L12.448,13.668 L12.403,13.688 A0.639 0.639 0 0 0 12.163,13.926 C11.866,14.383 12.12,14.67 12.286,14.762 L12.322,14.779 C12.45,14.832 12.332,14.884 12.13,14.801 A2.75 2.75 0 0 1 11.753,14.191 L11.693,14.057 C11.607,13.867 11.538,13.715 11.428,13.63 C11.172,13.433 10.964,13.695 10.948,13.86 L10.928,14.024 C10.911,14.207 10.932,14.494 11.236,14.976 C11.651,15.632 12.297,16.044 12.801,16.355 C13.305,16.665 13.791,16.435 14.111,16.059 L14.548,15.553 L14.786,15.265 L15.049,14.928 C15.365,14.508 15.716,13.992 16.043,13.385 C16.533,12.477 16.079,12.1 15.443,11.933 L15.236,11.887 L15.023,11.852 L14.809,11.827 L14.398,11.796 C14.071,11.776 13.65,11.836 13.235,11.934 L13.591,11.785 L13.779,11.698 C13.859,11.658 13.919,11.623 13.951,11.595 C14.174,11.398 14.206,11.005 13.791,10.808 L13.564,10.695 L13.41,10.61 L13.152,10.447 C12.992,10.348 12.992,10.053 13.344,9.889 C13.454,9.837 13.59,9.813 13.732,9.795 L13.877,9.779 C14.147,9.75 14.423,9.721 14.589,9.56 C14.875,9.284 14.973,8.773 14.398,8.51 C14.173,8.407 13.928,8.4 13.715,8.416 L13.322,8.458 C13.208,8.466 13.142,8.453 13.152,8.378 L13.171,8.283 L13.196,8.181 C13.246,7.985 13.302,7.769 13.184,7.624 C13.024,7.427 12.641,7.46 12.386,7.755 M10.246,10.381 C10.023,10.395 9.646,10.677 9.283,10.997 L9.015,11.239 L8.362,11.869 L8.298,11.924 C8.263,11.945 8.251,11.931 8.249,11.902 L8.257,11.746 C8.255,11.709 8.242,11.684 8.202,11.694 C8.075,11.727 7.787,12.088 7.755,12.318 C7.723,12.548 7.835,12.803 8.171,13.007 C8.469,13.188 8.741,13.151 9.001,12.956 L9.145,12.831 L9.28,12.707 L9.385,12.617 L9.489,12.538 C9.639,12.434 9.752,12.412 9.671,12.678 A3.07 3.07 0 0 1 9.456,13.16 L9.293,13.462 L8.805,14.338 C8.645,14.637 8.511,14.912 8.458,15.108 C8.298,15.698 9.065,16.026 9.32,15.665 L9.471,15.451 L9.548,15.349 C9.669,15.199 9.751,15.166 9.765,15.442 L9.767,15.534 C9.767,16.092 9.959,16.519 10.31,16.486 C10.661,16.453 10.757,16.223 10.79,15.928 L10.803,15.763 L10.826,15.235 L10.885,13.532 C10.897,13.214 10.922,12.942 10.952,12.706 L11,12.38 L11.073,11.978 C11.13,11.685 11.169,11.478 11.14,11.3 C11.077,10.906 10.757,10.348 10.246,10.381 M13.572,15.037 L13.504,15.107 C13.131,15.408 12.891,15.481 12.508,15.175 C12.858,15.189 13.195,14.972 13.36,14.842 L13.448,14.766 C13.488,14.727 13.517,14.775 13.538,14.859 L13.562,14.973 Z M13.102,13.965 C13.178,14.086 13.07,14.291 12.86,14.422 C12.651,14.552 12.42,14.56 12.344,14.439 C12.268,14.318 12.376,14.113 12.586,13.982 C12.796,13.852 13.026,13.844 13.102,13.965 M14.557,12.875 C15.003,12.921 15.03,13.118 14.951,13.35 L14.903,13.469 L14.813,13.663 C14.721,13.86 14.456,14.183 14.161,14.49 L14.051,14.346 C13.917,14.174 13.881,14.126 13.903,14.039 L13.919,13.992 A0.821 0.821 0 0 0 13.791,13.171 C13.67,13.015 13.571,13.111 13.488,13.251 L13.428,13.363 L13.343,13.533 C13.316,13.582 13.292,13.613 13.269,13.608 L13.174,13.589 A1.362 1.362 0 0 0 12.616,13.606 C12.708,13.57 12.794,13.516 12.877,13.456 L13.001,13.364 C13.1,13.288 13.199,13.212 13.306,13.157 C13.642,12.984 14.004,12.819 14.558,12.876 Z M9.618,9.24 L9.672,9.265 C9.939,9.368 9.797,9.657 9.583,9.953 L9.461,10.114 L9.198,10.443 A1.1 1.1 0 0 0 9.066,10.643 C9.16,10.603 9.26,10.543 9.372,10.471 L9.487,10.396 C9.774,10.208 10.137,9.97 10.654,9.796 L10.886,9.725 C11.844,9.462 11.525,8.149 10.119,8.018 C8.765,7.891 9.132,8.985 9.618,9.24"/>
</svg>

