<svg xmlns="http://www.w3.org/2000/svg" width="24" height="24">
  <defs/>
  <path  d="M10.586,2.807 C11.32,2.074 12.493,2.023 13.287,2.691 L13.414,2.807 L21.192,10.586 C21.925,11.32 21.976,12.492 21.309,13.286 L21.192,13.414 L13.414,21.192 C12.68,21.925 11.508,21.976 10.714,21.309 L10.586,21.192 L2.808,13.414 C2.074,12.68 2.023,11.507 2.691,10.713 L2.808,10.586 Z M12,4.222 L4.222,12 L12,19.778 L19.778,12 Z M12.386,7.755 C12.641,7.46 13.025,7.427 13.184,7.625 C13.268,7.728 13.264,7.867 13.236,8.01 L13.196,8.18 C13.178,8.25 13.161,8.318 13.152,8.379 C13.142,8.453 13.208,8.466 13.322,8.458 L13.715,8.416 C13.928,8.4 14.173,8.407 14.398,8.51 C14.973,8.773 14.875,9.284 14.589,9.56 C14.451,9.695 14.236,9.737 14.012,9.764 L13.877,9.779 C13.683,9.799 13.491,9.82 13.344,9.889 C12.993,10.053 12.993,10.349 13.152,10.447 L13.352,10.575 L13.479,10.65 L13.667,10.748 L13.791,10.808 C14.206,11.005 14.174,11.398 13.951,11.595 C13.898,11.636 13.84,11.67 13.779,11.698 L13.591,11.785 L13.235,11.935 C13.65,11.835 14.071,11.777 14.398,11.796 L14.809,11.827 L15.023,11.852 L15.236,11.887 L15.442,11.933 C16.079,12.1 16.534,12.477 16.043,13.385 C15.751,13.924 15.419,14.439 15.049,14.928 L14.786,15.265 L14.548,15.553 L14.11,16.059 C13.79,16.436 13.305,16.666 12.801,16.355 C12.297,16.044 11.651,15.633 11.236,14.976 C10.932,14.494 10.911,14.207 10.928,14.024 L10.948,13.86 C10.964,13.695 11.172,13.434 11.428,13.63 C11.516,13.698 11.578,13.81 11.642,13.948 L11.692,14.058 C11.789,14.271 11.907,14.532 12.13,14.801 C12.31,14.875 12.423,14.841 12.356,14.797 L12.322,14.779 C12.162,14.714 11.843,14.419 12.162,13.926 C12.214,13.84 12.284,13.766 12.367,13.709 L12.455,13.664 L12.45,13.661 L12.322,13.616 L12.182,13.553 C11.69,13.31 11.476,12.991 11.611,12.659 C11.685,12.475 11.909,12.339 12.131,12.222 L12.241,12.165 C12.344,12.112 12.441,12.061 12.514,12.012 L12.818,11.798 L12.988,11.67 C13.112,11.571 13.191,11.495 13.184,11.464 C13.169,11.399 13.121,11.401 13.048,11.422 L12.988,11.44 C12.897,11.475 12.802,11.494 12.705,11.497 C12.45,11.497 12.258,11.235 12.385,10.841 C12.44,10.696 12.513,10.558 12.603,10.432 L12.798,10.14 C12.844,10.062 12.858,10.014 12.808,10.014 L12.769,10.02 C12.514,10.086 12.29,9.987 12.13,9.79 C11.97,9.593 11.843,9.167 11.907,8.74 C11.971,8.313 12.13,8.05 12.386,7.755 Z M10.246,10.381 C10.757,10.348 11.076,10.906 11.14,11.301 C11.158,11.407 11.15,11.524 11.13,11.664 L11.073,11.978 L11.025,12.235 C11.016,12.283 11.008,12.332 11,12.38 L10.952,12.706 C10.927,12.904 10.908,13.103 10.896,13.302 L10.876,13.785 L10.815,15.532 L10.796,15.854 C10.794,15.879 10.792,15.903 10.789,15.928 C10.757,16.223 10.661,16.453 10.31,16.486 C9.986,16.516 9.798,16.155 9.77,15.66 L9.767,15.534 C9.767,15.194 9.697,15.184 9.583,15.308 L9.511,15.397 L9.321,15.665 C9.065,16.026 8.298,15.698 8.458,15.108 C8.511,14.912 8.644,14.637 8.805,14.338 L9.293,13.462 L9.456,13.16 C9.556,12.969 9.634,12.802 9.671,12.679 C9.743,12.442 9.662,12.433 9.538,12.507 L9.438,12.575 L9.28,12.707 L9.097,12.876 C8.809,13.138 8.507,13.211 8.171,13.006 C7.834,12.803 7.723,12.547 7.755,12.318 C7.787,12.088 8.075,11.727 8.202,11.694 C8.242,11.684 8.255,11.709 8.257,11.746 L8.253,11.829 C8.246,11.898 8.24,11.959 8.298,11.924 L8.362,11.869 L8.888,11.359 L9.148,11.118 C9.55,10.752 9.995,10.398 10.246,10.381 Z M9.976,8.01 L10.119,8.019 C11.473,8.145 11.819,9.367 10.987,9.692 L10.886,9.726 C10.434,9.853 10.005,10.051 9.615,10.314 L9.487,10.397 C9.327,10.502 9.191,10.591 9.066,10.645 C9.103,10.573 9.147,10.506 9.198,10.444 L9.523,10.035 L9.639,9.874 C9.802,9.634 9.895,9.409 9.735,9.299 L9.672,9.266 C9.18,9.076 8.746,7.971 9.976,8.01 Z M14.557,12.875 C14.004,12.819 13.642,12.984 13.307,13.157 C13.235,13.194 13.167,13.24 13.1,13.289 L13.001,13.364 C12.885,13.462 12.755,13.544 12.616,13.606 C12.795,13.558 12.976,13.564 13.104,13.579 L13.229,13.599 L13.266,13.607 C13.29,13.612 13.316,13.582 13.343,13.534 L13.457,13.306 C13.546,13.138 13.655,12.996 13.791,13.171 C13.965,13.383 14.021,13.669 13.94,13.931 L13.919,13.991 C13.885,14.079 13.887,14.121 13.949,14.21 L14.161,14.49 C14.456,14.183 14.721,13.86 14.813,13.663 L14.903,13.469 C15.027,13.188 15.077,12.929 14.557,12.876 Z M13.102,13.965 C13.027,13.844 12.795,13.851 12.586,13.982 C12.376,14.113 12.268,14.318 12.344,14.439 C12.42,14.56 12.651,14.553 12.861,14.422 C13.07,14.291 13.178,14.086 13.102,13.965 Z M13.471,14.753 L13.448,14.766 L13.36,14.842 C13.195,14.972 12.858,15.189 12.508,15.175 C12.859,15.455 13.09,15.418 13.413,15.178 L13.503,15.108 L13.572,15.038 L13.562,14.973 L13.539,14.859 C13.521,14.792 13.499,14.748 13.471,14.753 Z"/>
</svg>

