<svg xmlns="http://www.w3.org/2000/svg" width="24" height="24">
  <defs/>
  <path  d="M10.077,2.614 C10.415,1.854 11.456,1.817 11.864,2.5 L11.923,2.614 L12.965,4.959 A11 11 0 0 0 17.302,9.89 L17.624,10.079 L19.474,11.119 A1.01 1.01 0 0 1 19.583,12.811 L19.475,12.881 L17.624,13.921 A11 11 0 0 0 13.122,18.703 L12.965,19.041 L11.923,21.386 C11.585,22.146 10.544,22.183 10.136,21.5 L10.077,21.386 L9.035,19.041 A11 11 0 0 0 4.698,14.11 L4.376,13.921 L2.526,12.881 A1.01 1.01 0 0 1 2.417,11.189 L2.525,11.119 L4.376,10.079 A11 11 0 0 0 8.878,5.297 L9.035,4.959 Z M11,5.462 C9.756,8.262 7.714,10.496 5.04,12 C7.714,13.504 9.756,15.738 11,18.538 C12.248,15.731 14.29,13.502 16.96,12 C14.286,10.496 12.244,8.262 11,5.462 M19.22,2.122 A5.732 5.732 0 0 0 21.635,4.795 C21.795,4.885 21.795,5.115 21.635,5.205 A5.732 5.732 0 0 0 19.22,7.88 A0.241 0.241 0 0 1 18.78,7.88 A5.732 5.732 0 0 0 16.365,5.206 A0.236 0.236 0 0 1 16.365,4.796 A5.732 5.732 0 0 0 18.78,2.12 A0.241 0.241 0 0 1 19.22,2.12 Z"/>
</svg>

