<svg xmlns="http://www.w3.org/2000/svg" width="24" height="24">
  <defs/>
  <path  d="M11.778,4.371 A1 1 0 0 1 11.628,5.778 C11.069,6.23 10.704,6.664 10.465,7.054 A2 2 0 1 1 8,9 L8.006,8.846 A4.752 4.752 0 0 1 8.298,6.954 C8.624,6.07 9.254,5.125 10.371,4.222 A1 1 0 0 1 11.778,4.372 Z M5.465,7.054 C5.704,6.664 6.069,6.23 6.629,5.778 A1 1 0 1 0 5.37,4.222 C4.253,5.125 3.623,6.07 3.297,6.954 A4.757 4.757 0 0 0 3.005,8.846 L3,9 A2 2 0 1 0 5.465,7.054 M13.5,10 A1.5 1.5 0 0 1 15,8.5 L20,8.5 A1.5 1.5 0 0 1 20,11.5 L15,11.5 A1.5 1.5 0 0 1 13.5,10 M13.5,6 A1.5 1.5 0 0 1 15,4.5 L20,4.5 A1.5 1.5 0 0 1 20,7.5 L15,7.5 A1.5 1.5 0 0 1 13.5,6 M3.5,14 A1.5 1.5 0 0 1 5,12.5 L20,12.5 A1.5 1.5 0 0 1 20,15.5 L5,15.5 A1.5 1.5 0 0 1 3.5,14 M5,16.5 A1.5 1.5 0 0 0 5,19.5 L20,19.5 A1.5 1.5 0 0 0 20,16.5 Z"/>
</svg>

