<svg xmlns="http://www.w3.org/2000/svg" width="24" height="24">
  <defs/>
  <path  d="M4,14 C4,13.448 4.448,13 5,13 L20,13 C20.552,13 21,13.448 21,14 C21,14.552 20.552,15 20,15 L5,15 C4.448,15 4,14.552 4,14 Z M5,17 L20,17 C20.552,17 21,17.448 21,18 C21,18.552 20.552,19 20,19 L5,19 C4.448,19 4,18.552 4,18 C4,17.448 4.448,17 5,17 Z M3.006,8.846 L3.005,8.846 C2.973,8.202 3.072,7.558 3.297,6.954 C3.623,6.07 4.253,5.125 5.37,4.222 C5.8,3.874 6.43,3.941 6.778,4.371 C7.125,4.8 7.059,5.43 6.629,5.778 C6.069,6.23 5.704,6.664 5.465,7.054 C6.5,7.301 7.16,8.315 6.967,9.361 C6.775,10.407 5.797,11.12 4.742,10.983 C3.687,10.845 2.925,9.907 3.006,8.846 Z M11.778,4.371 C11.945,4.577 12.023,4.842 11.995,5.106 C11.966,5.369 11.835,5.611 11.628,5.778 C11.069,6.23 10.704,6.664 10.465,7.054 C11.499,7.302 12.159,8.316 11.966,9.361 C11.773,10.407 10.796,11.12 9.741,10.982 C8.686,10.845 7.924,9.906 8.005,8.846 C7.981,8.354 8.025,7.696 8.298,6.954 C8.624,6.07 9.254,5.125 10.371,4.222 C10.577,4.055 10.842,3.977 11.106,4.005 C11.369,4.034 11.611,4.165 11.778,4.372 Z M15,9 L20,9 C20.552,9 21,9.448 21,10 C21,10.552 20.552,11 20,11 L15,11 C14.448,11 14,10.552 14,10 C14,9.448 14.448,9 15,9 Z M15,5 L20,5 C20.552,5 21,5.448 21,6 C21,6.552 20.552,7 20,7 L15,7 C14.448,7 14,6.552 14,6 C14,5.448 14.448,5 15,5 Z"/>
</svg>

