<svg xmlns="http://www.w3.org/2000/svg" width="24" height="24">
  <defs/>
  <path  d="M12.524,2.15 L12.616,2.212 L18.493,6.62 C18.751,6.813 18.912,7.11 18.932,7.432 C18.952,7.755 18.829,8.069 18.597,8.293 L18.493,8.38 L13.523,12.108 L20.485,19.071 C20.857,19.444 20.875,20.043 20.527,20.438 C20.178,20.834 19.582,20.891 19.165,20.568 L19.071,20.485 L3.515,4.93 C3.143,4.557 3.125,3.958 3.473,3.563 C3.822,3.167 4.418,3.11 4.835,3.433 L4.929,3.516 L11,9.585 L11,3.02 C11,2.657 11.194,2.322 11.509,2.142 C11.824,1.962 12.212,1.965 12.524,2.15 Z M11,14.404 L13,16.404 L13,19 L14.483,17.887 L15.912,19.316 L12.616,21.788 C12.326,22.006 11.941,22.051 11.609,21.907 C11.276,21.763 11.046,21.451 11.006,21.091 L11,20.98 Z M9.34,12.745 L10.768,14.173 L6.6,17.3 C6.178,17.617 5.582,17.55 5.24,17.149 C4.897,16.748 4.925,16.149 5.304,15.782 L5.4,15.7 Z M13,5 L13,10 L16.332,7.5 Z"/>
</svg>

