<svg xmlns="http://www.w3.org/2000/svg" width="24" height="24">
  <defs/>
  <path  d="M11,3.02 C11,2.188 11.95,1.713 12.616,2.212 L18.493,6.62 C18.77,6.828 18.933,7.154 18.933,7.5 C18.933,7.846 18.77,8.172 18.493,8.38 L13.667,12 L18.493,15.62 C18.77,15.828 18.933,16.154 18.933,16.5 C18.933,16.846 18.77,17.172 18.493,17.38 L12.616,21.788 C12.31,22.018 11.9,22.054 11.558,21.883 C11.216,21.712 11,21.363 11,20.98 L11,14 L6.6,17.3 C6.158,17.631 5.531,17.542 5.2,17.1 C4.869,16.658 4.958,16.031 5.4,15.7 L10.333,12 L5.4,8.3 C4.958,7.969 4.869,7.342 5.2,6.9 C5.531,6.458 6.158,6.369 6.6,6.7 L11,10 Z"/>
</svg>

