<svg xmlns="http://www.w3.org/2000/svg" width="24" height="24">
  <defs/>
  <path  d="M2.347,6.187 C2.13,3.913 4.567,2.053 6.69,3.424 C9.13,5 10.662,6.639 12,8.9 C13.338,6.639 14.87,5 17.31,3.424 C19.433,2.053 21.87,3.914 21.654,6.187 L21.34,9.474 C21.175,11.207 20.121,12.73 18.557,13.494 C19.886,14.533 20.375,16.472 19.234,17.996 C18.917,18.419 18.565,18.849 18.207,19.207 C17.89,19.524 17.517,19.835 17.145,20.121 C15.265,21.562 12.77,20.471 12.09,18.431 L12,18.162 L11.91,18.432 C11.23,20.472 8.735,21.562 6.855,20.121 C6.482,19.839 6.127,19.534 5.793,19.207 C5.423,18.828 5.08,18.423 4.766,17.996 C3.625,16.472 4.115,14.533 5.444,13.494 C3.879,12.73 2.825,11.207 2.66,9.474 Z M4.747,5.105 C4.454,5.302 4.296,5.646 4.337,5.997 L4.651,9.284 C4.797,10.824 6.09,12 7.637,12 L9,12 C9.479,12.001 9.89,12.341 9.98,12.811 C10.071,13.281 9.815,13.75 9.371,13.928 L7.031,14.865 C6.146,15.219 5.909,16.185 6.367,16.797 C6.655,17.181 6.943,17.528 7.207,17.793 C7.44,18.026 7.739,18.278 8.072,18.533 C8.691,19.008 9.697,18.747 10.012,17.799 L11.052,14.684 C11.188,14.276 11.57,14.001 12,14.001 C12.431,14.001 12.813,14.276 12.949,14.684 L13.987,17.799 C14.303,18.747 15.309,19.009 15.928,18.534 C16.262,18.278 16.56,18.026 16.793,17.793 C17.058,17.528 17.346,17.181 17.633,16.797 C18.091,16.185 17.855,15.219 16.969,14.865 L14.629,13.928 C14.185,13.75 13.929,13.281 14.02,12.811 C14.11,12.341 14.521,12.001 15,12 L16.363,12 C17.91,12 19.203,10.824 19.349,9.284 L19.663,5.997 C19.704,5.646 19.546,5.302 19.253,5.105 C18.996,4.924 18.653,4.924 18.395,5.104 C15.75,6.812 14.345,8.546 12.895,11.447 C12.726,11.786 12.379,12.001 12,12.001 C11.621,12.001 11.274,11.786 11.105,11.447 C9.655,8.546 8.25,6.812 5.605,5.104 C5.347,4.924 5.004,4.924 4.747,5.105 Z"/>
</svg>

