<svg xmlns="http://www.w3.org/2000/svg" width="24" height="24">
  <defs/>
  <path  d="M5.892,2.93 C4.112,1.87 2.079,3.376 2.262,5.289 L2.66,9.474 C2.836,11.329 4.5,13.5 6.855,13.297 C4.5,14 3.132,15.865 4.88,18.145 C5.166,18.518 5.477,18.89 5.794,19.207 C6.111,19.524 6.484,19.835 6.856,20.121 C8.736,21.562 11.231,19.471 11.911,17.431 L12.001,17.163 L12.091,17.432 C12.771,19.472 15.265,21.562 17.146,20.121 C17.518,19.835 17.891,19.524 18.208,19.207 C18.525,18.89 18.836,18.517 19.122,18.145 C20.869,15.865 19.501,14 17.146,13.297 C19.501,13.5 21.164,11.329 21.341,9.474 L21.74,5.289 C21.922,3.376 19.888,1.871 18.109,2.929 C15.2,4.66 13.485,7.393 12,9.902 C10.515,7.392 8.8,4.66 5.892,2.93"/>
</svg>

