<svg xmlns="http://www.w3.org/2000/svg" width="24" height="24">
  <defs/>
  <path  d="M14.866,19.345 A1 1 0 0 1 14.5,20.711 L13.25,21.433 A2.5 2.5 0 0 1 10.75,21.433 L9.5,20.71 A1 1 0 0 1 10.5,18.978 L11.75,19.7 A0.5 0.5 0 0 0 12.25,19.7 L13.5,18.978 A1 1 0 0 1 14.866,19.344 Z M19.794,11.119 A1 1 0 0 1 20.794,12.119 L20.794,15.634 A2.5 2.5 0 0 1 19.544,17.799 L16.5,19.557 A1 1 0 1 1 15.5,17.824 L18.544,16.067 A0.5 0.5 0 0 0 18.794,15.634 L18.794,12.119 A1 1 0 0 1 19.794,11.119 M4.206,11.119 A1 1 0 0 1 5.206,12.119 L5.206,15.634 A0.5 0.5 0 0 0 5.456,16.067 L8.5,17.824 A1 1 0 0 1 7.5,19.556 L4.456,17.8 A2.5 2.5 0 0 1 3.206,15.635 L3.206,12.12 A1 1 0 0 1 4.206,11.12 Z M15.625,7.465 L15.744,7.522 L17.257,8.38 A1 1 0 0 1 17.757,9.138 L17.763,9.258 L17.75,10.998 A1 1 0 0 1 17.348,11.791 L17.25,11.856 L14.5,13.444 L14.5,16.62 A1 1 0 0 1 14.104,17.417 L14.006,17.483 L12.506,18.363 A1 1 0 0 1 11.614,18.423 L11.494,18.363 L9.994,17.483 A1 1 0 0 1 9.507,16.737 L9.5,16.62 L9.5,13.443 L6.75,11.856 A1 1 0 0 1 6.258,11.114 L6.25,10.997 L6.237,9.257 A1 1 0 0 1 6.643,8.446 L6.743,8.38 L8.257,7.522 A1 1 0 0 1 9.132,7.467 L9.25,7.526 L12,9.113 L14.75,7.526 A1 1 0 0 1 15.625,7.465 M17.629,13.27 L17.629,14.673 A1 1 0 0 1 17.129,15.539 L15.914,16.24 A0.3 0.3 0 0 1 15.464,15.98 L15.464,14.577 A1 1 0 0 1 15.964,13.711 L17.179,13.01 A0.3 0.3 0 0 1 17.629,13.27 M6.759,12.983 L6.821,13.01 L8.036,13.711 A1 1 0 0 1 8.529,14.46 L8.536,14.577 L8.536,15.98 A0.3 0.3 0 0 1 8.147,16.267 L8.086,16.24 L6.871,15.539 A1 1 0 0 1 6.378,14.791 L6.371,14.673 L6.371,13.27 A0.3 0.3 0 0 1 6.697,12.97 L6.76,12.983 Z M18.249,5.453 L19.544,6.201 A2.5 2.5 0 0 1 20.794,8.366 L20.794,9.809 A1 1 0 1 1 18.794,9.809 L18.794,8.366 A0.5 0.5 0 0 0 18.544,7.933 L17.249,7.185 A1 1 0 0 1 18.249,5.453 M7.072,5.845 A1 1 0 0 1 6.706,7.211 L5.456,7.933 A0.5 0.5 0 0 0 5.206,8.366 L5.206,9.809 A1 1 0 1 1 3.206,9.809 L3.206,8.366 A2.5 2.5 0 0 1 4.456,6.2 L5.706,5.478 A1 1 0 0 1 7.072,5.844 Z M12.5,5.79 L13.715,6.491 A0.3 0.3 0 0 1 13.715,7.011 L12.5,7.71 A1 1 0 0 1 11.5,7.71 L10.285,7.009 A0.3 0.3 0 0 1 10.285,6.489 L11.5,5.79 A1 1 0 0 1 12.5,5.79 M13.25,2.568 L16.294,4.325 A1 1 0 1 1 15.294,6.058 L12.25,4.299 A0.5 0.5 0 0 0 11.75,4.299 L8.706,6.056 A1 1 0 1 1 7.706,4.324 L10.75,2.567 A2.5 2.5 0 0 1 13.25,2.567 Z"/>
</svg>

