<svg xmlns="http://www.w3.org/2000/svg" width="24" height="24">
  <defs/>
  <path  d="M14,3 C15.047,3 15.917,3.806 15.995,4.85 L16,5 L16,6.055 L19.641,7.031 C20.652,7.302 21.284,8.306 21.089,9.335 L21.055,9.48 L18.467,19.14 C18.196,20.151 17.191,20.782 16.163,20.587 L16.018,20.554 L15.431,20.397 C15.109,20.727 14.672,20.947 14.185,20.992 L14,21 L5,21 C3.953,21 3.083,20.194 3.005,19.15 L3,19 L3,5 C3,3.953 3.806,3.083 4.85,3.005 L5,3 Z M14,5 L5,5 L5,19 L14,19 Z M16,18.479 L16.535,18.622 L19.124,8.962 L16,8.127 L16,18.479 Z"/>
</svg>

