<svg xmlns="http://www.w3.org/2000/svg" width="24" height="24">
  <defs/>
  <path  d="M15.822,2 C17.03,2 17.867,3.02 17.87,4.097 L17.866,4.237 C17.709,6.653 18.334,9.159 19.416,11.594 C20.845,14.807 19.803,17.959 18.907,19.77 C18.152,21.298 16.562,22 15.047,22 L8.957,22 C7.441,22 5.851,21.298 5.096,19.77 C4.2,17.959 3.158,14.807 4.586,11.594 C5.605,9.302 6.219,6.947 6.157,4.664 L6.137,4.237 C6.064,3.11 6.92,2 8.181,2 Z M18.052,14.008 L17.875,14.045 L17.631,14.104 C17.583,14.116 17.535,14.129 17.487,14.142 L17.164,14.238 C16.979,14.296 16.795,14.361 16.614,14.431 C15.726,14.779 14.83,15.308 14.332,16.055 C13.615,17.13 13.22,18.4 13.066,19.68 L13.032,20 L15.047,20 C16,20 16.776,19.568 17.114,18.884 C17.737,17.624 18.323,15.858 18.052,14.007 Z M6.889,18.884 C7.204,19.522 7.901,19.941 8.769,19.994 L8.957,20 L10.968,20 C10.844,18.613 10.445,17.22 9.668,16.055 C9.171,15.309 8.275,14.779 7.386,14.431 C7.263,14.383 7.139,14.338 7.014,14.296 L6.672,14.188 L6.372,14.105 L6.03,14.024 C6.004,14.019 5.978,14.013 5.952,14.008 C5.681,15.858 6.267,17.625 6.889,18.884 Z M12,9 C11.448,9 11,9.448 11,10 C11,10.552 11.448,11 12,11 C12.552,11 13,10.552 13,10 C13,9.448 12.552,9 12,9 Z"/>
</svg>

