<svg xmlns="http://www.w3.org/2000/svg" width="24" height="24">
  <defs/>
  <path  d="M17.068,2.001 L17.184,2.014 A1 1 0 0 1 18.006,3.164 C17.576,5.744 18.094,8.58 19.434,11.594 C20.608,14.237 20.254,17.018 18.979,19.658 A13.59 13.59 0 0 1 18.347,20.823 L18.115,21.187 A7.37 7.37 0 0 1 17.809,21.614 A1 1 0 0 1 16.159,20.49 L16.231,20.386 C16.592,19.883 16.909,19.346 17.178,18.788 C17.968,17.152 18.321,15.491 18.057,13.905 C16.147,14.374 15.016,15.212 14.304,16.255 C13.491,17.445 13.129,19.041 12.999,21.045 A1.004 1.004 0 0 1 11.999,22 C11.469,22 11.024,21.575 11.001,21.044 C10.871,19.041 10.509,17.446 9.696,16.254 C8.988,15.218 7.867,14.384 5.979,13.914 C5.718,15.497 6.071,17.156 6.859,18.788 C7.074,19.233 7.317,19.67 7.593,20.082 L7.806,20.386 A1 1 0 0 1 6.228,21.614 A7.371 7.371 0 0 1 5.922,21.187 L5.69,20.823 C5.49,20.495 5.273,20.103 5.058,19.658 C3.784,17.018 3.428,14.237 4.603,11.594 C5.943,8.58 6.461,5.744 6.031,3.164 A1 1 0 1 1 8.003,2.836 C8.485,5.726 7.963,8.807 6.603,12.01 C8.8,12.585 10.333,13.642 11.348,15.127 C11.6,15.497 11.816,15.887 12,16.294 C12.184,15.887 12.4,15.497 12.652,15.127 C13.671,13.634 15.216,12.574 17.43,12.001 C16.074,8.801 15.552,5.723 16.034,2.836 A1 1 0 0 1 17.068,2 Z M12,8 A1 1 0 1 1 12,10 A1 1 0 0 1 12,8"/>
</svg>

