<svg xmlns="http://www.w3.org/2000/svg" width="24" height="24">
  <defs/>
  <path  d="M16.75,1.272 A1 1 0 0 1 17.75,2.272 L17.75,3.272 A1 1 0 1 1 15.75,3.272 L15.75,2.272 A1 1 0 0 1 16.75,1.272 M12.853,3.522 A1 1 0 0 1 14.219,3.156 L15.085,3.656 A1 1 0 0 1 14.085,5.388 L13.219,4.888 A1 1 0 0 1 12.853,3.522 M20.281,4.888 A1 1 0 1 0 19.281,3.156 L18.415,3.656 A1 1 0 1 0 19.415,5.388 Z M15.41,6.096 A1 1 0 0 1 17.194,6.991 L17.142,7.096 L16.867,7.572 L17.733,8.072 A1 1 0 0 1 18.23,9.012 L18.213,9.138 L18.092,9.728 C19.966,12.154 20.366,15.511 18.768,18.278 C16.626,21.988 11.788,23.115 8.001,20.928 C4.213,18.741 2.77,13.988 4.912,10.278 C6.462,7.594 9.43,6.26 12.378,6.557 L12.655,6.589 L13.105,6.189 A1 1 0 0 1 14.155,6.015 L14.269,6.072 L15.135,6.572 Z M11.502,9.53 A3.963 3.963 0 0 0 8.07,11.512 A1 1 0 0 0 9.738,12.61 L9.802,12.512 C10.137,11.932 10.724,11.586 11.348,11.536 L11.504,11.53 A1 1 0 0 0 11.502,9.53 M19.415,6.155 L20.281,6.655 A1 1 0 1 1 19.281,8.387 L18.415,7.887 A1 1 0 1 1 19.415,6.155"/>
</svg>

