<svg xmlns="http://www.w3.org/2000/svg" width="24" height="24">
  <defs/>
  <path  d="M16.75,1.272 A1 1 0 0 1 17.75,2.272 L17.75,3.272 A1 1 0 1 1 15.75,3.272 L15.75,2.272 A1 1 0 0 1 16.75,1.272 M12.853,3.522 A1 1 0 0 1 14.219,3.156 L15.085,3.656 A1 1 0 0 1 14.085,5.388 L13.219,4.888 A1 1 0 0 1 12.853,3.522 M20.281,4.888 A1 1 0 1 0 19.281,3.156 L18.415,3.656 A1 1 0 1 0 19.415,5.388 Z M16.775,5.73 A1 1 0 0 1 17.141,7.096 L16.866,7.572 L17.732,8.072 A1 1 0 0 1 18.212,9.138 L18.091,9.728 C19.965,12.154 20.365,15.511 18.767,18.278 C16.625,21.988 11.787,23.115 8,20.928 C4.212,18.741 2.769,13.988 4.911,10.278 C6.509,7.51 9.616,6.178 12.654,6.589 L13.104,6.189 A1 1 0 0 1 14.268,6.072 L15.134,6.572 L15.409,6.096 A1 1 0 0 1 16.775,5.73 M13.892,8.164 L13.624,8.402 A1 1 0 0 1 12.764,8.634 C10.336,8.149 7.863,9.165 6.644,11.277 C5.097,13.957 6.091,17.517 9,19.196 C11.908,20.876 15.489,19.956 17.035,17.277 C18.255,15.165 17.898,12.516 16.265,10.655 A1 1 0 0 1 16.018,9.927 L16.036,9.795 L16.108,9.443 Z M12,10.035 A1 1 0 0 1 12.002,12.035 A1.96 1.96 0 0 0 10.3,13.018 A1 1 0 1 1 8.568,12.018 A3.963 3.963 0 0 1 12,10.035 M19.416,6.156 L20.282,6.656 A1 1 0 1 1 19.282,8.388 L18.416,7.888 A1 1 0 1 1 19.416,6.156"/>
</svg>

