<svg xmlns="http://www.w3.org/2000/svg" width="24" height="24">
  <defs/>
  <path  d="M17.657,3.515 C18.172,4.03 18.517,4.651 18.693,5.308 C20.198,5.713 21.33,6.954 21.595,8.49 C21.861,10.025 21.21,11.575 19.929,12.461 C18.647,13.347 16.968,13.408 15.625,12.618 L12.618,15.625 C13.415,16.969 13.358,18.653 12.471,19.939 C11.584,21.225 10.029,21.878 8.49,21.61 C6.951,21.342 5.708,20.203 5.308,18.693 C3.803,18.288 2.671,17.047 2.406,15.511 C2.14,13.976 2.791,12.426 4.072,11.54 C5.354,10.654 7.033,10.593 8.376,11.383 L11.382,8.375 C10.367,6.64 10.796,4.421 12.385,3.19 C13.975,1.959 16.231,2.098 17.657,3.515 Z"/>
</svg>

