<svg xmlns="http://www.w3.org/2000/svg" width="24" height="24">
  <defs/>
  <path  d="M17.657,3.515 C18.172,4.03 18.517,4.651 18.693,5.308 C20.198,5.713 21.33,6.954 21.595,8.49 C21.861,10.025 21.21,11.575 19.929,12.461 C18.647,13.347 16.968,13.408 15.625,12.618 L12.618,15.625 C13.415,16.969 13.358,18.653 12.471,19.939 C11.584,21.225 10.029,21.878 8.49,21.61 C6.951,21.342 5.708,20.203 5.308,18.693 C3.803,18.288 2.671,17.047 2.406,15.511 C2.14,13.976 2.791,12.426 4.072,11.54 C5.354,10.654 7.033,10.593 8.376,11.383 L11.382,8.375 C10.367,6.64 10.796,4.421 12.385,3.19 C13.975,1.959 16.231,2.098 17.657,3.515 Z M13.414,4.929 C12.633,5.71 12.633,6.976 13.414,7.757 C13.602,7.945 13.707,8.199 13.707,8.465 C13.707,8.73 13.602,8.984 13.414,9.172 L9.172,13.414 C8.984,13.602 8.73,13.707 8.465,13.707 C8.199,13.707 7.945,13.602 7.757,13.414 C7.142,12.8 6.201,12.653 5.428,13.051 C4.655,13.449 4.228,14.3 4.371,15.158 C4.514,16.015 5.194,16.682 6.054,16.808 L6.232,16.826 C6.697,16.852 7.082,17.195 7.162,17.653 L7.175,17.769 C7.224,18.638 7.829,19.375 8.671,19.593 C9.513,19.811 10.4,19.459 10.864,18.723 C11.328,17.987 11.263,17.036 10.703,16.37 L10.586,16.243 C10.196,15.852 10.196,15.219 10.586,14.829 L14.829,10.586 C15.185,10.23 15.751,10.194 16.149,10.503 L16.243,10.586 C16.858,11.2 17.799,11.347 18.572,10.949 C19.345,10.551 19.772,9.7 19.629,8.842 C19.486,7.985 18.806,7.318 17.946,7.192 L17.769,7.175 C17.304,7.149 16.918,6.806 16.839,6.347 L16.826,6.232 C16.782,5.445 16.28,4.756 15.543,4.475 C14.806,4.194 13.973,4.371 13.415,4.929 Z"/>
</svg>

