<svg xmlns="http://www.w3.org/2000/svg" width="24" height="24">
  <defs/>
  <path  d="M18.677,15.034 A2.5 2.5 0 0 1 22.334,18.438 L22.212,18.569 L18.795,21.987 A1.5 1.5 0 0 1 18.105,22.38 L17.946,22.411 L15.637,22.741 A1.001 1.001 0 0 1 14.495,21.724 L14.505,21.608 L14.835,19.3 A1.5 1.5 0 0 1 15.151,18.572 L15.259,18.452 Z M16,2 A3 3 0 0 1 19,5 L19,12.538 A4.482 4.482 0 0 0 17.262,13.619 L13.845,17.037 A3.5 3.5 0 0 0 12.893,18.797 L12,18.203 L7.332,21.315 C6.335,21.978 5,21.264 5,20.066 L5,5 A3 3 0 0 1 8,2 Z"/>
</svg>

