<svg xmlns="http://www.w3.org/2000/svg" width="24" height="24">
  <defs/>
  <path  d="M5,5 C5,3.343 6.343,2 8,2 L16,2 C17.657,2 19,3.343 19,5 L19,11 C19,11.552 18.552,12 18,12 C17.448,12 17,11.552 17,11 L17,5 C17,4.448 16.552,4 16,4 L8,4 C7.448,4 7,4.448 7,5 L7,19.131 L11.168,16.353 C11.672,16.017 12.328,16.017 12.832,16.353 L13.555,16.835 C14.015,17.142 14.139,17.762 13.832,18.222 C13.525,18.682 12.905,18.806 12.445,18.499 L12,18.202 L7.332,21.314 C6.335,21.978 5,21.264 5,20.066 Z M18.677,15.034 C19.305,14.384 20.234,14.123 21.108,14.352 C21.982,14.581 22.665,15.264 22.894,16.138 C23.123,17.012 22.862,17.941 22.212,18.569 L18.795,21.987 C18.565,22.216 18.267,22.365 17.946,22.411 L15.637,22.741 C15.325,22.785 15.01,22.68 14.788,22.457 C14.565,22.235 14.46,21.92 14.505,21.608 L14.835,19.3 C14.881,18.979 15.03,18.681 15.259,18.451 Z M20.798,16.448 C20.603,16.253 20.286,16.253 20.091,16.448 L16.791,19.748 L16.673,20.573 L17.498,20.455 L20.798,17.155 C20.993,16.96 20.993,16.643 20.798,16.448 Z"/>
</svg>

