<svg xmlns="http://www.w3.org/2000/svg" width="24" height="24">
  <defs/>
  <path  d="M3,4 C3,2.895 3.895,2 5,2 L7,2 C7.364,2 7.706,2.097 8,2.268 C8.304,2.092 8.649,2 9,2 L11,2 C11.727,2 12.364,2.388 12.714,2.969 C12.924,2.801 13.17,2.673 13.446,2.599 L15.378,2.082 C16.445,1.796 17.542,2.429 17.828,3.496 L21.968,18.951 C22.254,20.018 21.621,21.115 20.554,21.401 L18.622,21.918 C17.555,22.204 16.458,21.571 16.172,20.504 L13,8.663 L13,20 C13,21.105 12.105,22 11,22 L9,22 C8.649,22 8.304,21.908 8,21.732 C7.696,21.908 7.351,22 7,22 L5,22 C3.895,22 3,21.105 3,20 Z M5,4 L5,20 L7,20 L7,4 Z M11,20 L11,4 L9,4 L9,20 Z M13.964,4.531 L18.105,19.986 L20.037,19.469 L15.895,4.014 Z"/>
</svg>

