<svg xmlns="http://www.w3.org/2000/svg" width="24" height="24">
  <defs/>
  <path  d="M4,5 C4,3.343 5.343,2 7,2 L18,2 C19.105,2 20,2.895 20,4 L20,16.99 C20,17.158 19.962,17.312 19.887,17.462 L19.342,18.552 C19.201,18.834 19.201,19.165 19.342,19.447 L19.885,20.535 C20.048,20.845 20.037,21.217 19.856,21.517 C19.675,21.817 19.35,22 19,22 L7,22 C5.343,22 4,20.657 4,19 Z M7,18 C6.448,18 6,18.448 6,19 C6,19.552 6.448,20 7,20 L17.408,20 C17.179,19.353 17.179,18.647 17.408,18 Z M10,7 C9.448,7 9,7.448 9,8 C9,8.552 9.448,9 10,9 L14,9 C14.552,9 15,8.552 15,8 C15,7.448 14.552,7 14,7 Z"/>
</svg>

