<svg xmlns="http://www.w3.org/2000/svg" width="24" height="24">
  <defs/>
  <path  d="M10.268,20.158 C10.631,20.325 10.923,20.492 11.121,20.615 C11.406,20.792 11.645,21 12.001,21 C12.349,21 12.596,20.79 12.879,20.615 C13.077,20.492 13.369,20.325 13.732,20.158 C14.465,19.819 15.443,19.5 16.5,19.5 C17.779,19.5 18.938,19.968 19.68,20.362 A1.592 1.592 0 0 0 21.194,20.342 C21.621,20.106 22,19.632 22,19 L22,6.5 C22,5.879 21.705,5.237 21.102,4.871 C20.328,4.401 18.586,3.5 16.5,3.5 C15.057,3.5 13.785,3.93 12.893,4.342 C12.539,4.506 12.237,4.67 12,4.81 C11.763,4.67 11.461,4.506 11.107,4.342 C10.215,3.931 8.943,3.5 7.5,3.5 C5.414,3.5 3.672,4.4 2.898,4.871 A1.893 1.893 0 0 0 2,6.5 L2,19 C2,19.633 2.379,20.106 2.806,20.342 C3.229,20.575 3.802,20.637 4.321,20.362 C5.062,19.968 6.221,19.5 7.5,19.5 C8.557,19.5 9.535,19.82 10.268,20.158"/>
</svg>

