<svg xmlns="http://www.w3.org/2000/svg" width="24" height="24">
  <defs/>
  <path  d="M3.255,3.667 C2.998,3.367 2.94,2.946 3.105,2.588 C3.269,2.23 3.628,2 4.022,2 L16.5,2 C18.985,2 21,4.015 21,6.5 C21,8.985 18.985,11 16.5,11 L4.022,11 C3.628,11 3.269,10.77 3.105,10.412 C2.94,10.054 2.998,9.633 3.255,9.333 L4.009,8.453 C4.972,7.329 4.972,5.672 4.009,4.548 L3.255,3.668 Z M3,16.5 C3,14.015 5.015,12 7.5,12 L19.978,12 C20.372,12 20.731,12.23 20.895,12.588 C21.06,12.946 21.002,13.367 20.745,13.667 L19.99,14.547 C19.027,15.671 19.027,17.328 19.99,18.452 L20.745,19.332 C21.002,19.631 21.061,20.053 20.896,20.412 C20.731,20.771 20.373,21 19.978,21 L7.5,21 C5.015,21 3,18.985 3,16.5 Z"/>
</svg>

