<svg xmlns="http://www.w3.org/2000/svg" width="24" height="24">
  <defs/>
  <path  d="M14.112,3.744 L21.556,7.505 C22.205,7.835 22.526,8.582 22.319,9.28 C21.929,10.611 21.972,11.17 22.227,11.801 C22.484,12.439 22.306,13.25 21.64,13.671 L11.356,20.181 C10.925,20.454 10.376,20.496 9.899,20.263 L6.059,18.368 L4.455,17.563 L3.315,16.981 L2.619,16.616 L2.259,16.42 L1.998,16.27 C0.978,15.655 0.66,14.405 0.666,13.45 C0.67,12.479 1.004,11.266 1.931,10.6 L2.231,10.393 L3.089,9.832 L5.134,8.526 L12.642,3.811 C13.087,3.533 13.644,3.508 14.112,3.745 Z M20.033,10.688 L11.36,16.178 L11.252,16.241 L11.141,16.293 C11.031,16.701 10.993,16.994 10.997,17.266 C10.999,17.428 11.017,17.594 11.052,17.783 L11.094,17.98 L20.242,12.19 L20.17,11.941 C20.085,11.616 20.039,11.281 20.032,10.945 Z M2.8,12.678 C2.71,12.928 2.664,13.192 2.666,13.458 C2.663,14.13 2.903,14.481 3.031,14.558 L3.339,14.733 L3.965,15.066 L5.735,15.969 L9.01,17.6 C9.002,17.499 8.997,17.398 8.996,17.297 C8.992,16.923 9.031,16.55 9.11,16.184 L9.177,15.896 Z M13.964,6.914 C13.495,6.666 12.913,6.829 12.64,7.284 C12.367,7.739 12.497,8.328 12.936,8.626 L13.036,8.686 L15.136,9.786 C15.605,10.034 16.187,9.871 16.46,9.416 C16.733,8.961 16.603,8.372 16.164,8.074 L16.064,8.014 Z"/>
</svg>

