<svg xmlns="http://www.w3.org/2000/svg" width="24" height="24">
  <defs/>
  <path  d="M5,5 C5,3.343 6.343,2 8,2 L16,2 C17.657,2 19,3.343 19,5 L19,13 C19,13.552 18.552,14 18,14 C17.448,14 17,13.552 17,13 L17,5 C17,4.448 16.552,4 16,4 L8,4 C7.448,4 7,4.448 7,5 L7,19.131 L11.168,16.353 C11.672,16.017 12.328,16.017 12.832,16.353 L13.555,16.835 C14.015,17.142 14.139,17.762 13.832,18.222 C13.525,18.682 12.905,18.806 12.445,18.499 L12,18.202 L7.332,21.314 C6.335,21.978 5,21.264 5,20.066 Z M15,19 C15,18.448 15.448,18 16,18 L22,18 C22.552,18 23,18.448 23,19 C23,19.552 22.552,20 22,20 L16,20 C15.448,20 15,19.552 15,19 Z"/>
</svg>

