<svg xmlns="http://www.w3.org/2000/svg" width="24" height="24">
  <defs/>
  <path  d="M17,2 C18.589,2 19.902,3.238 19.995,4.824 L20,5 L20,18.018 C20,19.2 18.707,19.901 17.725,19.303 L17.618,19.231 L17,18.782 L17,21.018 C17,22.2 15.707,22.901 14.725,22.303 L14.618,22.231 L10.5,19.236 L6.382,22.231 C5.426,22.927 4.099,22.293 4.005,21.147 L4,21.018 L4,8 C4,6.343 5.343,5 7,5 C7,3.411 8.238,2.098 9.824,2.005 L10,2 Z M14,7 L7,7 C6.493,7 6.066,7.38 6.007,7.883 L6,8 L6,20.036 L9.618,17.406 C10.1,17.055 10.744,17.023 11.258,17.324 L11.382,17.405 L15,20.036 L15,8 C15,7.493 14.62,7.066 14.117,7.007 Z M17,4 L10,4 C9.448,4 9,4.448 9,5 L14,5 C15.657,5 17,6.343 17,8 L17,16.309 L18,17.036 L18,5 C18,4.448 17.552,4 17,4 Z"/>
</svg>

