<svg xmlns="http://www.w3.org/2000/svg" width="24" height="24">
  <defs/>
  <path  d="M18,2 A2 2 0 0 1 20,4 L20,16.99 C20,17.158 19.962,17.312 19.887,17.462 L19.342,18.552 A1 1 0 0 0 19.342,19.447 L19.885,20.535 A1 1 0 0 1 19,22 L7,22 A3 3 0 0 1 4,19 L4,5 A3 3 0 0 1 7,2 Z M17.408,18 L7,18 A1 1 0 0 0 6.883,19.993 L7,20 L17.408,20 A3.001 3.001 0 0 1 17.34,18.218 Z M18,4 L7,4 A1 1 0 0 0 6.007,4.883 L6,5 L6,16.17 C6.25,16.082 6.516,16.026 6.791,16.007 L7,16 L18,16 Z M14,7 A1 1 0 0 1 14.117,8.993 L14,9 L10,9 A1 1 0 0 1 9.883,7.007 L10,7 Z"/>
</svg>

