<svg xmlns="http://www.w3.org/2000/svg" width="24" height="24">
  <defs/>
  <path  d="M12.642,3.81 C13.044,3.56 13.536,3.516 13.97,3.681 L14.112,3.744 L21.556,7.505 A1.51 1.51 0 0 1 22.319,9.28 C21.929,10.611 21.972,11.17 22.227,11.801 C22.467,12.396 22.327,13.143 21.767,13.582 L21.64,13.672 L11.356,20.181 C10.925,20.454 10.376,20.496 9.899,20.263 L6.059,18.368 L4.455,17.563 L3.315,16.981 L2.619,16.616 L2.259,16.42 L1.998,16.27 C0.978,15.655 0.66,14.405 0.666,13.45 C0.67,12.479 1.004,11.266 1.931,10.6 L2.231,10.393 L3.089,9.832 L5.134,8.526 Z M20.033,10.688 L11.36,16.178 C11.29,16.223 11.216,16.261 11.141,16.293 C11.031,16.701 10.993,16.994 10.997,17.266 C10.999,17.429 11.017,17.594 11.052,17.783 L11.094,17.98 L20.242,12.19 A4.311 4.311 0 0 1 20.032,10.945 Z M2.8,12.678 A2.256 2.256 0 0 0 2.666,13.458 C2.663,14.13 2.903,14.481 3.031,14.558 L3.339,14.733 L3.965,15.066 L5.735,15.969 L9.01,17.6 A4.582 4.582 0 0 1 8.996,17.297 A5.304 5.304 0 0 1 9.176,15.897 L2.8,12.677 Z M19.457,8.686 L13.462,5.656 L6.702,9.9 L4.504,11.299 L10.53,14.339 Z M12.614,7.336 A1 1 0 0 1 13.858,6.866 L13.964,6.914 L16.064,8.014 A1 1 0 0 1 15.242,9.834 L15.136,9.786 L13.036,8.686 A1 1 0 0 1 12.614,7.336"/>
</svg>

