<svg xmlns="http://www.w3.org/2000/svg" width="24" height="24">
  <defs/>
  <path  d="M11.121,20.615 C10.846,20.445 10.561,20.293 10.268,20.158 C9.535,19.819 8.557,19.5 7.5,19.5 C6.221,19.5 5.062,19.968 4.32,20.362 C3.844,20.611 3.275,20.604 2.806,20.342 C2.312,20.076 2.003,19.561 2,19 L2,6.5 C2,5.879 2.295,5.237 2.898,4.871 C3.672,4.401 5.414,3.5 7.5,3.5 C9.081,3.5 10.645,4.01 12,4.81 C13.355,4.01 14.919,3.5 16.5,3.5 C18.586,3.5 20.328,4.4 21.102,4.871 C21.705,5.237 22,5.879 22,6.5 L22,19 C22,19.633 21.621,20.106 21.194,20.342 C20.725,20.604 20.155,20.611 19.679,20.362 C18.938,19.968 17.779,19.5 16.5,19.5 C15.443,19.5 14.465,19.82 13.732,20.158 C13.439,20.293 13.154,20.445 12.879,20.615 C12.595,20.792 12.355,21 12.001,21 C11.645,21 11.406,20.792 11.121,20.615 Z M4,18.294 C4.891,17.895 6.119,17.5 7.5,17.5 C8.887,17.5 10.115,17.898 11,18.294 L11,6.542 C9.948,5.918 8.73,5.5 7.5,5.5 C6,5.5 4.673,6.142 4,6.542 Z M13,18.294 C13.885,17.898 15.113,17.5 16.5,17.5 C17.881,17.5 19.109,17.895 20,18.294 L20,6.542 C19.327,6.142 18,5.5 16.5,5.5 C15.27,5.5 14.052,5.918 13,6.542 Z"/>
</svg>

