<svg xmlns="http://www.w3.org/2000/svg" width="24" height="24">
  <defs/>
  <path  d="M7.654,2.703 C8.078,2.553 8.55,2.704 8.808,3.073 C9.649,4.281 11.028,5.001 12.5,5 C13.608,5 14.62,4.601 15.403,3.939 C15.681,3.704 16.065,3.638 16.405,3.768 C16.745,3.898 16.988,4.202 17.039,4.563 C17.32,6.535 19.008,8 21,8 C21.379,8 21.725,8.214 21.894,8.553 C22.064,8.892 22.027,9.297 21.8,9.6 C21.279,10.292 20.998,11.134 21,12 C21,12.902 21.297,13.731 21.8,14.4 C22.027,14.703 22.064,15.108 21.894,15.447 C21.725,15.786 21.379,16 21,16 C18.98,16 17.277,17.506 17.03,19.51 C16.98,19.923 16.68,20.262 16.276,20.361 C15.872,20.46 15.449,20.299 15.213,19.956 C14.374,18.731 12.985,17.999 11.5,18 C10.365,17.998 9.271,18.427 8.44,19.2 C8.189,19.432 7.838,19.52 7.507,19.433 C7.177,19.347 6.914,19.098 6.809,18.773 C6.276,17.12 4.737,16 3,16 C2.621,16 2.275,15.786 2.106,15.447 C1.936,15.108 1.973,14.703 2.2,14.4 C2.703,13.731 3,12.902 3,12 C3,11.098 2.703,10.27 2.2,9.6 C1.973,9.297 1.936,8.892 2.106,8.553 C2.275,8.214 2.621,8 3,8 C4.11,8 5.171,7.539 5.928,6.726 C6.684,5.913 7.069,4.823 6.99,3.715 C6.959,3.267 7.23,2.853 7.654,2.703 Z"/>
</svg>

