<svg xmlns="http://www.w3.org/2000/svg" width="24" height="24">
  <defs/>
  <path  d="M5,4 A1 1 0 1 1 3,4 A1 1 0 0 1 5,4 M9,4 A1 1 0 1 1 7,4 A1 1 0 0 1 9,4 M12,5 A1 1 0 1 0 12,3 A1 1 0 0 0 12,5 M17,4 A1 1 0 1 1 15,4 A1 1 0 0 1 17,4 M5,20 A1 1 0 1 1 3,20 A1 1 0 0 1 5,20 M9,20 A1 1 0 1 1 7,20 A1 1 0 0 1 9,20 M12,21 A1 1 0 1 0 12,19 A1 1 0 0 0 12,21 M17,20 A1 1 0 1 1 15,20 A1 1 0 0 1 17,20 M12,15 A1 1 0 1 1 12,17 A1 1 0 0 1 12,15 M12,11 A1 1 0 1 1 12,13 A1 1 0 0 1 12,11 M13,8 A1 1 0 1 0 11,8 A1 1 0 0 0 13,8 M5,16 A1 1 0 1 0 3,16 A1 1 0 0 0 5,16 M5,12 A1 1 0 1 0 3,12 A1 1 0 0 0 5,12 M4,7 A1 1 0 1 1 4,9 A1 1 0 0 1 4,7 M8,13 A1 1 0 1 0 8,11 A1 1 0 0 0 8,13 M16,13 A1 1 0 1 0 16,11 A1 1 0 0 0 16,13 M21,4 A1 1 0 1 0 19,4 L19,20 A1 1 0 1 0 21,20 Z"/>
</svg>

