<svg xmlns="http://www.w3.org/2000/svg" width="24" height="24">
  <defs/>
  <path  d="M5,2.5 L19,2.5 C20.381,2.5 21.5,3.619 21.5,5 L21.5,19 C21.5,20.381 20.381,21.5 19,21.5 L5,21.5 C3.619,21.5 2.5,20.381 2.5,19 L2.5,5 C2.5,3.619 3.619,2.5 5,2.5 Z M5.5,18.5 L18.5,18.5 L18.5,5.5 L5.5,5.5 Z M12,6.5 C12.828,6.5 13.5,7.172 13.5,8 C13.5,8.828 12.828,9.5 12,9.5 C11.172,9.5 10.5,8.828 10.5,8 C10.5,7.172 11.172,6.5 12,6.5 Z M8,10.5 C8.828,10.5 9.5,11.172 9.5,12 C9.5,12.828 8.828,13.5 8,13.5 C7.172,13.5 6.5,12.828 6.5,12 C6.5,11.172 7.172,10.5 8,10.5 Z M12,10.5 C12.828,10.5 13.5,11.172 13.5,12 C13.5,12.828 12.828,13.5 12,13.5 C11.172,13.5 10.5,12.828 10.5,12 C10.5,11.172 11.172,10.5 12,10.5 Z M12,14.5 C12.828,14.5 13.5,15.172 13.5,16 C13.5,16.828 12.828,17.5 12,17.5 C11.172,17.5 10.5,16.828 10.5,16 C10.5,15.172 11.172,14.5 12,14.5 Z M16,10.5 C16.828,10.5 17.5,11.172 17.5,12 C17.5,12.828 16.828,13.5 16,13.5 C15.172,13.5 14.5,12.828 14.5,12 C14.5,11.172 15.172,10.5 16,10.5 Z"/>
</svg>

