<svg xmlns="http://www.w3.org/2000/svg" width="24" height="24">
  <defs/>
  <path  d="M4,3 L20,3 C20.552,3 21,3.448 21,4 C21,4.552 20.552,5 20,5 L4,5 C3.448,5 3,4.552 3,4 C3,3.448 3.448,3 4,3 Z M12,11 C12.552,11 13,11.448 13,12 C13,12.552 12.552,13 12,13 C11.448,13 11,12.552 11,12 C11,11.448 11.448,11 12,11 Z M13,8 C13,8.552 12.552,9 12,9 C11.448,9 11,8.552 11,8 C11,7.448 11.448,7 12,7 C12.552,7 13,7.448 13,8 Z M8,13 C7.448,13 7,12.552 7,12 C7,11.448 7.448,11 8,11 C8.552,11 9,11.448 9,12 C9,12.552 8.552,13 8,13 Z M5,12 C5,12.552 4.552,13 4,13 C3.448,13 3,12.552 3,12 C3,11.448 3.448,11 4,11 C4.552,11 5,11.448 5,12 Z M12,15 C12.552,15 13,15.448 13,16 C13,16.552 12.552,17 12,17 C11.448,17 11,16.552 11,16 C11,15.448 11.448,15 12,15 Z M16,13 C15.448,13 15,12.552 15,12 C15,11.448 15.448,11 16,11 C16.552,11 17,11.448 17,12 C17,12.552 16.552,13 16,13 Z M4,7 C4.552,7 5,7.448 5,8 C5,8.552 4.552,9 4,9 C3.448,9 3,8.552 3,8 C3,7.448 3.448,7 4,7 Z M5,16 C5,16.552 4.552,17 4,17 C3.448,17 3,16.552 3,16 C3,15.448 3.448,15 4,15 C4.552,15 5,15.448 5,16 Z M13,20 C13,20.552 12.552,21 12,21 C11.448,21 11,20.552 11,20 C11,19.448 11.448,19 12,19 C12.552,19 13,19.448 13,20 Z M21,12 C21,12.552 20.552,13 20,13 C19.448,13 19,12.552 19,12 C19,11.448 19.448,11 20,11 C20.552,11 21,11.448 21,12 Z M8,21 C7.448,21 7,20.552 7,20 C7,19.448 7.448,19 8,19 C8.552,19 9,19.448 9,20 C9,20.552 8.552,21 8,21 Z M20,7 C20.552,7 21,7.448 21,8 C21,8.552 20.552,9 20,9 C19.448,9 19,8.552 19,8 C19,7.448 19.448,7 20,7 Z M4,21 C3.448,21 3,20.552 3,20 C3,19.448 3.448,19 4,19 C4.552,19 5,19.448 5,20 C5,20.552 4.552,21 4,21 Z M16,21 C15.448,21 15,20.552 15,20 C15,19.448 15.448,19 16,19 C16.552,19 17,19.448 17,20 C17,20.552 16.552,21 16,21 Z M21,16 C21,16.552 20.552,17 20,17 C19.448,17 19,16.552 19,16 C19,15.448 19.448,15 20,15 C20.552,15 21,15.448 21,16 Z M21,20 C21,20.552 20.552,21 20,21 C19.448,21 19,20.552 19,20 C19,19.448 19.448,19 20,19 C20.552,19 21,19.448 21,20 Z"/>
</svg>

