<svg xmlns="http://www.w3.org/2000/svg" width="24" height="24">
  <defs/>
  <path  d="M5,3 L19,3 C20.105,3 21,3.895 21,5 L21,19 C21,20.105 20.105,21 19,21 L5,21 C3.895,21 3,20.105 3,19 L3,5 C3,3.895 3.895,3 5,3 Z M5,5 L5,19 L19,19 L19,5 Z M13,12 C13,12.552 12.552,13 12,13 C11.448,13 11,12.552 11,12 C11,11.448 11.448,11 12,11 C12.552,11 13,11.448 13,12 Z M12,7 C12.552,7 13,7.448 13,8 C13,8.552 12.552,9 12,9 C11.448,9 11,8.552 11,8 C11,7.448 11.448,7 12,7 Z M8,13 C7.448,13 7,12.552 7,12 C7,11.448 7.448,11 8,11 C8.552,11 9,11.448 9,12 C9,12.552 8.552,13 8,13 Z M17,12 C17,12.552 16.552,13 16,13 C15.448,13 15,12.552 15,12 C15,11.448 15.448,11 16,11 C16.552,11 17,11.448 17,12 Z M13,16 C13,16.552 12.552,17 12,17 C11.448,17 11,16.552 11,16 C11,15.448 11.448,15 12,15 C12.552,15 13,15.448 13,16 Z"/>
</svg>

