<svg xmlns="http://www.w3.org/2000/svg" width="24" height="24">
  <defs/>
  <path  d="M4,2.5 A1.5 1.5 0 1 0 4,5.5 A1.5 1.5 0 0 0 4,2.5 M8,2.5 A1.5 1.5 0 1 0 8,5.5 A1.5 1.5 0 0 0 8,2.5 M12,2.5 A1.5 1.5 0 1 0 12,5.5 A1.5 1.5 0 0 0 12,2.5 M16,2.5 A1.5 1.5 0 1 0 16,5.5 A1.5 1.5 0 0 0 16,2.5 M4,6.5 A1.5 1.5 0 1 0 4,9.5 A1.5 1.5 0 0 0 4,6.5 M12,6.5 A1.5 1.5 0 1 0 12,9.5 A1.5 1.5 0 0 0 12,6.5 M4,10.5 A1.5 1.5 0 1 0 4,13.5 A1.5 1.5 0 0 0 4,10.5 M8,10.5 A1.5 1.5 0 1 0 8,13.5 A1.5 1.5 0 0 0 8,10.5 M12,10.5 A1.5 1.5 0 1 0 12,13.5 A1.5 1.5 0 0 0 12,10.5 M16,10.5 A1.5 1.5 0 1 0 16,13.5 A1.5 1.5 0 0 0 16,10.5 M4,14.5 A1.5 1.5 0 1 0 4,17.5 A1.5 1.5 0 0 0 4,14.5 M12,14.5 A1.5 1.5 0 1 0 12,17.5 A1.5 1.5 0 0 0 12,14.5 M4,18.5 A1.5 1.5 0 1 0 4,21.5 A1.5 1.5 0 0 0 4,18.5 M8,18.5 A1.5 1.5 0 1 0 8,21.5 A1.5 1.5 0 0 0 8,18.5 M12,18.5 A1.5 1.5 0 1 0 12,21.5 A1.5 1.5 0 0 0 12,18.5 M16,18.5 A1.5 1.5 0 1 0 16,21.5 A1.5 1.5 0 0 0 16,18.5 M21.5,4 A1.5 1.5 0 0 0 18.5,4 L18.5,20 A1.5 1.5 0 0 0 21.5,20 Z"/>
</svg>

