<svg xmlns="http://www.w3.org/2000/svg" width="24" height="24">
  <defs/>
  <path  d="M4,18.5 A1.5 1.5 0 1 1 4,21.5 A1.5 1.5 0 0 1 4,18.5 M8,18.5 A1.5 1.5 0 1 1 8,21.5 A1.5 1.5 0 0 1 8,18.5 M12,18.5 A1.5 1.5 0 1 1 12,21.5 A1.5 1.5 0 0 1 12,18.5 M16,18.5 A1.5 1.5 0 1 1 16,21.5 A1.5 1.5 0 0 1 16,18.5 M20,18.5 A1.5 1.5 0 1 1 20,21.5 A1.5 1.5 0 0 1 20,18.5 M4,14.5 A1.5 1.5 0 1 1 4,17.5 A1.5 1.5 0 0 1 4,14.5 M12,14.5 A1.5 1.5 0 1 1 12,17.5 A1.5 1.5 0 0 1 12,14.5 M20,14.5 A1.5 1.5 0 1 1 20,17.5 A1.5 1.5 0 0 1 20,14.5 M4,10.5 A1.5 1.5 0 1 1 4,13.5 A1.5 1.5 0 0 1 4,10.5 M8,10.5 A1.5 1.5 0 1 1 8,13.5 A1.5 1.5 0 0 1 8,10.5 M12,10.5 A1.5 1.5 0 1 1 12,13.5 A1.5 1.5 0 0 1 12,10.5 M16,10.5 A1.5 1.5 0 1 1 16,13.5 A1.5 1.5 0 0 1 16,10.5 M20,10.5 A1.5 1.5 0 1 1 20,13.5 A1.5 1.5 0 0 1 20,10.5 M4,6.5 A1.5 1.5 0 1 1 4,9.5 A1.5 1.5 0 0 1 4,6.5 M12,6.5 A1.5 1.5 0 1 1 12,9.5 A1.5 1.5 0 0 1 12,6.5 M20,6.5 A1.5 1.5 0 1 1 20,9.5 A1.5 1.5 0 0 1 20,6.5 M20,2.5 A1.5 1.5 0 0 1 20.144,5.493 L20,5.5 L4,5.5 A1.5 1.5 0 0 1 3.856,2.507 L4,2.5 Z"/>
</svg>

