<svg xmlns="http://www.w3.org/2000/svg" width="24" height="24">
  <defs/>
  <path  d="M12,3 C12.552,3 13,3.448 13,4 L13,11 L20,11 C20.552,11 21,11.448 21,12 C21,12.552 20.552,13 20,13 L13,13 L13,20 C13,20.552 12.552,21 12,21 C11.448,21 11,20.552 11,20 L11,13 L4,13 C3.448,13 3,12.552 3,12 C3,11.448 3.448,11 4,11 L11,11 L11,4 C11,3.448 11.448,3 12,3 Z M8,5 C7.448,5 7,4.552 7,4 C7,3.448 7.448,3 8,3 C8.552,3 9,3.448 9,4 C9,4.552 8.552,5 8,5 Z M4,7 C4.552,7 5,7.448 5,8 C5,8.552 4.552,9 4,9 C3.448,9 3,8.552 3,8 C3,7.448 3.448,7 4,7 Z M4,15 C4.552,15 5,15.448 5,16 C5,16.552 4.552,17 4,17 C3.448,17 3,16.552 3,16 C3,15.448 3.448,15 4,15 Z M17,4 C17,4.552 16.552,5 16,5 C15.448,5 15,4.552 15,4 C15,3.448 15.448,3 16,3 C16.552,3 17,3.448 17,4 Z M4,5 C3.448,5 3,4.552 3,4 C3,3.448 3.448,3 4,3 C4.552,3 5,3.448 5,4 C5,4.552 4.552,5 4,5 Z M8,21 C7.448,21 7,20.552 7,20 C7,19.448 7.448,19 8,19 C8.552,19 9,19.448 9,20 C9,20.552 8.552,21 8,21 Z M21,8 C21,8.552 20.552,9 20,9 C19.448,9 19,8.552 19,8 C19,7.448 19.448,7 20,7 C20.552,7 21,7.448 21,8 Z M4,21 C3.448,21 3,20.552 3,20 C3,19.448 3.448,19 4,19 C4.552,19 5,19.448 5,20 C5,20.552 4.552,21 4,21 Z M20,5 C19.448,5 19,4.552 19,4 C19,3.448 19.448,3 20,3 C20.552,3 21,3.448 21,4 C21,4.552 20.552,5 20,5 Z M17,20 C17,20.552 16.552,21 16,21 C15.448,21 15,20.552 15,20 C15,19.448 15.448,19 16,19 C16.552,19 17,19.448 17,20 Z M21,16 C21,16.552 20.552,17 20,17 C19.448,17 19,16.552 19,16 C19,15.448 19.448,15 20,15 C20.552,15 21,15.448 21,16 Z M20,21 C19.448,21 19,20.552 19,20 C19,19.448 19.448,19 20,19 C20.552,19 21,19.448 21,20 C21,20.552 20.552,21 20,21 Z"/>
</svg>

