<svg xmlns="http://www.w3.org/2000/svg" width="24" height="24">
  <defs/>
  <path  d="M5.5,4 L5.5,20 C5.5,20.828 4.828,21.5 4,21.5 C3.172,21.5 2.5,20.828 2.5,20 L2.5,4 C2.5,3.172 3.172,2.5 4,2.5 C4.828,2.5 5.5,3.172 5.5,4 Z M12,6.5 C12.828,6.5 13.5,7.172 13.5,8 C13.5,8.828 12.828,9.5 12,9.5 C11.172,9.5 10.5,8.828 10.5,8 C10.5,7.172 11.172,6.5 12,6.5 Z M8,10.5 C8.828,10.5 9.5,11.172 9.5,12 C9.5,12.828 8.828,13.5 8,13.5 C7.172,13.5 6.5,12.828 6.5,12 C6.5,11.172 7.172,10.5 8,10.5 Z M12,10.5 C12.828,10.5 13.5,11.172 13.5,12 C13.5,12.828 12.828,13.5 12,13.5 C11.172,13.5 10.5,12.828 10.5,12 C10.5,11.172 11.172,10.5 12,10.5 Z M8,2.5 C8.828,2.5 9.5,3.172 9.5,4 C9.5,4.828 8.828,5.5 8,5.5 C7.172,5.5 6.5,4.828 6.5,4 C6.5,3.172 7.172,2.5 8,2.5 Z M12,2.5 C12.828,2.5 13.5,3.172 13.5,4 C13.5,4.828 12.828,5.5 12,5.5 C11.172,5.5 10.5,4.828 10.5,4 C10.5,3.172 11.172,2.5 12,2.5 Z M12,14.5 C12.828,14.5 13.5,15.172 13.5,16 C13.5,16.828 12.828,17.5 12,17.5 C11.172,17.5 10.5,16.828 10.5,16 C10.5,15.172 11.172,14.5 12,14.5 Z M16,10.5 C16.828,10.5 17.5,11.172 17.5,12 C17.5,12.828 16.828,13.5 16,13.5 C15.172,13.5 14.5,12.828 14.5,12 C14.5,11.172 15.172,10.5 16,10.5 Z M16,2.5 C16.828,2.5 17.5,3.172 17.5,4 C17.5,4.828 16.828,5.5 16,5.5 C15.172,5.5 14.5,4.828 14.5,4 C14.5,3.172 15.172,2.5 16,2.5 Z M8,18.5 C8.828,18.5 9.5,19.172 9.5,20 C9.5,20.828 8.828,21.5 8,21.5 C7.172,21.5 6.5,20.828 6.5,20 C6.5,19.172 7.172,18.5 8,18.5 Z M12,18.5 C12.828,18.5 13.5,19.172 13.5,20 C13.5,20.828 12.828,21.5 12,21.5 C11.172,21.5 10.5,20.828 10.5,20 C10.5,19.172 11.172,18.5 12,18.5 Z M20,10.5 C20.828,10.5 21.5,11.172 21.5,12 C21.5,12.828 20.828,13.5 20,13.5 C19.172,13.5 18.5,12.828 18.5,12 C18.5,11.172 19.172,10.5 20,10.5 Z M20,6.5 C20.828,6.5 21.5,7.172 21.5,8 C21.5,8.828 20.828,9.5 20,9.5 C19.172,9.5 18.5,8.828 18.5,8 C18.5,7.172 19.172,6.5 20,6.5 Z M20,2.5 C20.828,2.5 21.5,3.172 21.5,4 C21.5,4.828 20.828,5.5 20,5.5 C19.172,5.5 18.5,4.828 18.5,4 C18.5,3.172 19.172,2.5 20,2.5 Z M20,14.5 C20.828,14.5 21.5,15.172 21.5,16 C21.5,16.828 20.828,17.5 20,17.5 C19.172,17.5 18.5,16.828 18.5,16 C18.5,15.172 19.172,14.5 20,14.5 Z M16,18.5 C16.828,18.5 17.5,19.172 17.5,20 C17.5,20.828 16.828,21.5 16,21.5 C15.172,21.5 14.5,20.828 14.5,20 C14.5,19.172 15.172,18.5 16,18.5 Z M20,18.5 C20.828,18.5 21.5,19.172 21.5,20 C21.5,20.828 20.828,21.5 20,21.5 C19.172,21.5 18.5,20.828 18.5,20 C18.5,19.172 19.172,18.5 20,18.5 Z"/>
</svg>

