<svg xmlns="http://www.w3.org/2000/svg" width="24" height="24">
  <defs/>
  <path  d="M4,19 A1 1 0 1 1 4,21 A1 1 0 0 1 4,19 M8,19 A1 1 0 1 1 8,21 A1 1 0 0 1 8,19 M12,19 A1 1 0 1 1 12,21 A1 1 0 0 1 12,19 M16,19 A1 1 0 1 1 16,21 A1 1 0 0 1 16,19 M20,19 A1 1 0 1 1 20,21 A1 1 0 0 1 20,19 M4,15 A1 1 0 1 1 4,17 A1 1 0 0 1 4,15 M12,15 A1 1 0 1 1 12,17 A1 1 0 0 1 12,15 M20,15 A1 1 0 1 1 20,17 A1 1 0 0 1 20,15 M4,11 A1 1 0 1 1 4,13 A1 1 0 0 1 4,11 M12,11 A1 1 0 1 1 12,13 A1 1 0 0 1 12,11 M20,11 A1 1 0 1 1 20,13 A1 1 0 0 1 20,11 M8,11 A1 1 0 1 1 8,13 A1 1 0 0 1 8,11 M16,11 A1 1 0 1 1 16,13 A1 1 0 0 1 16,11 M4,7 A1 1 0 1 1 4,9 A1 1 0 0 1 4,7 M12,7 A1 1 0 1 1 12,9 A1 1 0 0 1 12,7 M20,7 A1 1 0 1 1 20,9 A1 1 0 0 1 20,7 M4,3 A1 1 0 1 1 4,5 A1 1 0 0 1 4,3 M8,3 A1 1 0 1 1 8,5 A1 1 0 0 1 8,3 M12,3 A1 1 0 1 1 12,5 A1 1 0 0 1 12,3 M16,3 A1 1 0 1 1 16,5 A1 1 0 0 1 16,3 M20,3 A1 1 0 1 1 20,5 A1 1 0 0 1 20,3"/>
</svg>

