<svg xmlns="http://www.w3.org/2000/svg" width="24" height="24">
  <defs/>
  <path  d="M7,4 C7,2.895 7.895,2 9,2 L15,2 C16.105,2 17,2.895 17,4 L17,5 C17,5.378 16.895,5.732 16.712,6.034 L18.4,7.3 C19.407,8.055 20,9.241 20,10.5 L20,18 C20,20.209 18.209,22 16,22 L8,22 C5.791,22 4,20.209 4,18 L4,10.5 C4,9.241 4.593,8.055 5.6,7.3 L7.288,6.034 C7.099,5.722 6.999,5.365 7,5 Z M9.667,7 C9.451,7 9.24,7.07 9.067,7.2 L6.8,8.9 C6.296,9.278 6,9.87 6,10.5 L6,11 L18,11 L18,10.5 C18,9.87 17.704,9.278 17.2,8.9 L14.933,7.2 C14.76,7.07 14.549,7 14.333,7 Z M18,17 L6,17 L6,18 C6,19.105 6.895,20 8,20 L16,20 C17.105,20 18,19.105 18,18 Z M18,13 L6,13 L6,15 L18,15 Z M15,5 L15,4 L9,4 L9,5 Z"/>
</svg>

