<svg xmlns="http://www.w3.org/2000/svg" width="24" height="24">
  <defs/>
  <path  d="M7,2 L9,2 C9.52,2 9.954,2.399 9.997,2.917 L10.425,8.059 C10.448,8.333 10.582,8.585 10.797,8.757 L12.25,9.919 C12.724,10.299 13,10.873 13,11.48 L13,20 C13,21.105 12.105,22 11,22 L5,22 C3.895,22 3,21.105 3,20 L3,11.48 C3,10.873 3.277,10.298 3.751,9.919 L5.203,8.757 C5.418,8.585 5.552,8.333 5.575,8.059 L6.003,2.917 C6.046,2.399 6.48,2 7,2 Z M15.495,8 L18.505,8 C19.287,8 19.95,8.575 20.06,9.349 L20.566,12.889 C20.82,14.667 19.725,16.361 18,16.86 L18,20 L18.5,20 C19.052,20 19.5,20.448 19.5,21 C19.5,21.552 19.052,22 18.5,22 L15.5,22 C14.948,22 14.5,21.552 14.5,21 C14.5,20.448 14.948,20 15.5,20 L16,20 L16,16.86 C14.274,16.361 13.18,14.667 13.434,12.888 L13.94,9.348 C14.051,8.574 14.713,8 15.495,8 Z M7.568,8.225 C7.5,9.047 7.096,9.804 6.452,10.319 L5,11.48 L5,20 L11,20 L11,11.48 L9.548,10.319 C8.904,9.804 8.5,9.047 8.432,8.225 L8.08,4 L7.92,4 Z M15.415,13.172 L15.413,13.172 C15.325,13.792 15.606,14.407 16.133,14.746 C16.661,15.084 17.337,15.084 17.865,14.746 C18.392,14.407 18.673,13.792 18.585,13.172 L18.132,10 L15.866,10 Z"/>
</svg>

