<svg xmlns="http://www.w3.org/2000/svg" width="24" height="24">
  <defs/>
  <path  d="M4.927,6.493 C5.632,6.43 6.342,6.639 6.927,6.99 L9.954,8.806 A2.99 2.99 0 0 1 12,8 C12.79,8 13.51,8.306 14.046,8.806 L17.073,6.99 C17.658,6.639 18.368,6.43 19.073,6.492 C19.809,6.558 20.528,6.925 20.975,7.672 C21.537,8.609 22,9.997 22,12 C22,14.003 21.537,15.39 20.975,16.328 C20.528,17.075 19.809,17.442 19.073,17.508 C18.368,17.57 17.658,17.361 17.073,17.01 L14.046,15.194 A2.99 2.99 0 0 1 12,16 A2.99 2.99 0 0 1 9.954,15.194 L6.927,17.01 C6.342,17.361 5.632,17.57 4.927,17.507 C4.191,17.442 3.472,17.075 3.025,16.328 C2.463,15.391 2,14.003 2,12 C2,9.997 2.463,8.61 3.025,7.672 C3.472,6.925 4.191,6.558 4.927,6.492 Z"/>
</svg>

