<svg xmlns="http://www.w3.org/2000/svg" width="24" height="24">
  <defs/>
  <path  d="M19.073,6.493 C19.809,6.558 20.528,6.925 20.975,7.672 C21.537,8.609 22,9.997 22,12 C22,14.003 21.537,15.39 20.975,16.328 C20.528,17.075 19.809,17.442 19.073,17.508 C18.368,17.57 17.658,17.361 17.073,17.01 L14.046,15.194 C13.491,15.713 12.76,16.001 12,16 C11.24,16.001 10.509,15.713 9.954,15.194 L6.927,17.01 C6.342,17.361 5.632,17.57 4.927,17.507 C4.191,17.442 3.472,17.075 3.025,16.328 C2.463,15.391 2,14.003 2,12 C2,9.997 2.463,8.61 3.025,7.672 C3.472,6.925 4.191,6.558 4.927,6.492 C5.632,6.43 6.342,6.639 6.927,6.99 L9.954,8.806 C10.509,8.287 11.24,7.999 12,8 C12.79,8 13.51,8.306 14.046,8.806 L17.073,6.99 C17.658,6.639 18.368,6.43 19.073,6.492 Z M5.197,8.482 L5.103,8.485 C4.925,8.5 4.819,8.567 4.74,8.699 C4.386,9.292 4,10.316 4,12 C4,13.684 4.386,14.708 4.74,15.3 C4.82,15.433 4.926,15.5 5.104,15.515 C5.282,15.531 5.521,15.488 5.772,15.364 L5.898,15.295 L9.028,13.417 L9.008,13.21 L9,13 L8,13 C7.471,12.999 7.034,12.587 7.003,12.059 C6.972,11.53 7.358,11.069 7.883,11.007 L8,11 L9,11 L9.007,10.79 L9.029,10.583 L5.898,8.705 C5.687,8.573 5.446,8.496 5.198,8.482 Z M18.103,8.705 L14.971,10.583 C14.991,10.719 15,10.859 15,11 L16,11 C16.552,11 17,11.448 17,12 C17,12.552 16.552,13 16,13 L15,13 C15,13.141 14.99,13.28 14.971,13.417 L18.102,15.295 C18.397,15.472 18.689,15.534 18.896,15.515 C19.074,15.499 19.18,15.433 19.259,15.301 C19.614,14.708 20,13.684 20,12 C20,10.316 19.614,9.292 19.26,8.7 C19.18,8.567 19.074,8.5 18.896,8.485 C18.689,8.466 18.397,8.528 18.102,8.705 Z M12,10 C11.448,10 11,10.448 11,11 L11,13 C11,13.552 11.448,14 12,14 C12.552,14 13,13.552 13,13 L13,11 C13,10.448 12.552,10 12,10 Z"/>
</svg>

