<svg xmlns="http://www.w3.org/2000/svg" width="24" height="24">
  <defs/>
  <path  d="M19.09,4.668 C19.912,5.415 20.782,6.661 21.33,8.706 C21.878,10.75 21.748,12.264 21.409,13.323 C20.891,14.94 19.2,15.225 18.056,14.991 L16.013,14.573 C16.317,15.245 16.407,15.989 16.433,16.577 C16.443,16.784 16.445,16.995 16.441,17.2 L16.428,17.601 L16.406,17.976 L16.333,18.877 C16.315,19.204 16.137,19.502 15.858,19.674 L13.164,21.33 C12.831,21.535 12.41,21.527 12.085,21.309 C11.76,21.092 11.591,20.706 11.653,20.32 C11.761,19.643 11.869,18.965 11.916,18.28 C11.364,18.911 10.71,19.423 10.089,19.98 C9.845,20.199 9.508,20.284 9.189,20.208 L6.113,19.473 C5.733,19.382 5.441,19.079 5.365,18.696 C5.288,18.313 5.442,17.92 5.758,17.691 C6.347,17.265 6.935,16.838 7.478,16.354 C8.131,15.772 8.476,15.236 8.762,14.414 L5.944,14.991 C4.8,15.225 3.109,14.941 2.591,13.323 C2.252,12.264 2.122,10.751 2.67,8.706 C3.218,6.661 4.088,5.416 4.91,4.668 C6.168,3.526 7.774,4.125 8.648,4.9 L11.153,7.121 C11.706,6.958 12.294,6.958 12.847,7.121 L15.352,4.9 C16.226,4.125 17.832,3.526 19.089,4.668 Z M12,9 C11.448,9 11,9.448 11,10 L11,11 C11,11.552 11.448,12 12,12 C12.552,12 13,11.552 13,11 L13,10 C13,9.448 12.552,9 12,9 Z M10.963,14.388 C10.781,14.708 10.634,15.059 10.543,15.439 C10.422,15.95 10.133,16.409 9.838,16.781 C9.545,17.143 9.222,17.48 8.874,17.789 L8.617,18.015 L9.159,18.145 C9.504,17.855 9.913,17.51 10.31,17.075 C10.901,16.429 11.139,15.915 11.109,15.574 C11.074,15.174 11.042,14.782 10.963,14.388 Z M13.307,15.102 L13.444,15.345 C13.719,15.793 13.839,16.321 13.894,16.792 C13.947,17.25 13.948,17.727 13.924,18.187 L13.903,18.528 L14.378,18.237 C14.418,17.788 14.462,17.255 14.436,16.667 C14.4,15.865 14.232,15.351 14.003,15.102 L13.939,15.041 L13.01,14.348 C13.082,14.603 13.18,14.857 13.307,15.102 Z"/>
</svg>

