<svg xmlns="http://www.w3.org/2000/svg" width="24" height="24">
  <defs/>
  <path  d="M19.09,4.668 C19.912,5.415 20.782,6.661 21.33,8.706 C21.878,10.75 21.748,12.264 21.409,13.323 C20.891,14.94 19.2,15.225 18.056,14.991 L16.013,14.573 C16.317,15.245 16.407,15.989 16.433,16.577 C16.443,16.784 16.445,16.995 16.441,17.2 L16.428,17.601 L16.406,17.976 L16.333,18.877 C16.315,19.204 16.137,19.502 15.858,19.674 L13.164,21.33 C12.451,21.768 11.521,21.147 11.653,20.32 C11.761,19.643 11.869,18.965 11.916,18.28 C11.364,18.911 10.71,19.423 10.089,19.98 C9.845,20.199 9.508,20.284 9.189,20.208 L6.113,19.473 C5.299,19.279 5.081,18.183 5.758,17.691 L6.353,17.261 C7.049,16.753 7.738,16.211 8.27,15.54 C8.43,15.337 8.52,15.134 8.596,14.92 L8.762,14.414 L5.944,14.991 C4.8,15.225 3.109,14.941 2.591,13.323 C2.252,12.264 2.122,10.751 2.67,8.706 C3.218,6.661 4.088,5.416 4.91,4.668 C6.168,3.526 7.774,4.125 8.648,4.9 L11.153,7.121 C11.706,6.958 12.294,6.958 12.847,7.121 L15.352,4.9 C16.226,4.125 17.832,3.526 19.089,4.668 Z M6.255,6.15 C5.747,6.61 5.062,7.508 4.602,9.225 C4.142,10.941 4.287,12.061 4.496,12.715 C4.626,13.117 5.215,13.1 5.543,13.033 L9.28,12.268 C9.179,12.051 9.104,11.823 9.057,11.588 L7.707,11.226 C7.173,11.083 6.857,10.535 7,10.001 C7.143,9.467 7.691,9.151 8.225,9.294 L9.04,9.512 C9.11,9.082 9.272,8.682 9.505,8.334 L7.321,6.396 C7.071,6.174 6.569,5.864 6.255,6.149 Z M16.678,6.396 L14.494,8.333 C14.727,8.681 14.889,9.081 14.959,9.511 L15.774,9.293 C16.308,9.15 16.856,9.466 16.999,10 C17.142,10.534 16.826,11.082 16.292,11.225 L14.942,11.587 C14.895,11.822 14.82,12.05 14.719,12.267 L18.456,13.032 C18.784,13.099 19.374,13.116 19.503,12.713 C19.712,12.06 19.857,10.94 19.397,9.223 C18.937,7.507 18.252,6.61 17.744,6.148 C17.43,5.864 16.929,6.174 16.678,6.396 Z M12,9 C11.448,9 11,9.448 11,10 L11,11 C11,11.552 11.448,12 12,12 C12.552,12 13,11.552 13,11 L13,10 C13,9.448 12.552,9 12,9 Z M13,14.253 C13.033,14.631 13.248,15.027 13.443,15.345 C13.718,15.793 13.838,16.321 13.893,16.792 C13.946,17.25 13.947,17.727 13.923,18.187 L13.902,18.528 L14.377,18.237 C14.417,17.788 14.461,17.255 14.435,16.667 C14.399,15.865 14.231,15.351 14.002,15.102 L13.938,15.041 Z M10.962,14.388 C10.78,14.708 10.633,15.059 10.542,15.439 C10.421,15.95 10.132,16.409 9.837,16.781 C9.544,17.143 9.221,17.48 8.873,17.789 L8.616,18.015 L9.158,18.145 C9.503,17.855 9.912,17.51 10.309,17.075 C10.9,16.429 11.138,15.915 11.108,15.574 C11.073,15.174 11.041,14.782 10.962,14.388 Z"/>
</svg>

