<svg xmlns="http://www.w3.org/2000/svg" width="24" height="24">
  <defs/>
  <path  d="M3,11 C3,10.448 3.448,10 4,10 L20,10 C20.552,10 21,10.448 21,11 L21,12 C21,15.486 18.77,18.45 15.661,19.546 L15.698,19.628 C15.958,20.206 15.857,20.882 15.439,21.358 C15.075,21.77 14.55,22.004 14,22 L10,22 C9.455,22 8.92,21.774 8.56,21.358 C8.119,20.858 8.032,20.138 8.339,19.546 C5.14,18.417 3,15.393 3,12 Z M5,12 C5,14.654 6.742,16.993 9.285,17.752 C9.562,17.834 9.896,17.961 10.159,18.205 C10.499,18.52 10.624,18.937 10.573,19.341 C10.537,19.621 10.416,19.87 10.35,20 L13.65,20 C13.539,19.794 13.463,19.571 13.427,19.34 C13.377,18.937 13.502,18.52 13.841,18.205 C14.104,17.961 14.438,17.834 14.715,17.752 C17.258,16.993 19,14.654 19,12 Z M15.051,3.185 C15.225,2.661 15.792,2.377 16.316,2.552 C16.969,2.77 17.486,3.275 17.719,3.922 C17.952,4.57 17.875,5.288 17.51,5.872 L16.686,7.19 C16.646,7.254 16.638,7.332 16.663,7.403 C16.689,7.473 16.745,7.528 16.816,7.552 C17.328,7.735 17.6,8.294 17.428,8.81 C17.256,9.325 16.703,9.609 16.184,9.449 C15.531,9.231 15.015,8.727 14.782,8.079 C14.549,7.432 14.626,6.713 14.99,6.13 L15.814,4.812 C15.854,4.748 15.863,4.67 15.837,4.599 C15.812,4.528 15.755,4.473 15.684,4.449 C15.16,4.275 14.877,3.709 15.051,3.185 Z M11.051,3.185 C11.225,2.661 11.792,2.377 12.316,2.552 C12.969,2.77 13.486,3.275 13.719,3.922 C13.952,4.57 13.875,5.288 13.51,5.872 L12.686,7.19 C12.646,7.254 12.638,7.332 12.663,7.403 C12.689,7.473 12.745,7.528 12.816,7.552 C13.328,7.735 13.6,8.294 13.428,8.81 C13.256,9.325 12.703,9.609 12.184,9.449 C11.531,9.231 11.015,8.727 10.782,8.079 C10.549,7.432 10.626,6.713 10.99,6.13 L11.814,4.812 C11.854,4.748 11.863,4.67 11.837,4.599 C11.812,4.528 11.755,4.473 11.684,4.449 C11.16,4.275 10.877,3.709 11.051,3.185 Z M7.051,3.184 C7.225,2.66 7.792,2.376 8.316,2.551 C8.969,2.769 9.486,3.274 9.719,3.921 C9.952,4.569 9.875,5.287 9.51,5.871 L8.686,7.189 C8.646,7.253 8.638,7.331 8.663,7.402 C8.689,7.472 8.745,7.527 8.816,7.551 C9.328,7.734 9.6,8.293 9.428,8.809 C9.256,9.324 8.703,9.608 8.184,9.448 C7.532,9.23 7.015,8.726 6.782,8.079 C6.549,7.432 6.626,6.713 6.99,6.13 L7.814,4.812 C7.854,4.748 7.863,4.67 7.837,4.599 C7.812,4.528 7.755,4.473 7.684,4.449 C7.16,4.275 6.877,3.709 7.051,3.185 Z"/>
</svg>

