<svg xmlns="http://www.w3.org/2000/svg" width="24" height="24">
  <defs/>
  <path  d="M4,10 L20,10 C20.552,10 21,10.448 21,11 L21,12 C21,15.539 18.676,18.657 15.285,19.669 C14.929,19.775 14.945,19.955 14.972,20.249 C14.978,20.314 14.985,20.383 14.988,20.459 C15.023,21.326 14.321,22 13.5,22 L10.5,22 C10.096,22.002 9.708,21.838 9.427,21.547 C9.146,21.256 8.996,20.863 9.012,20.459 C9.016,20.383 9.022,20.314 9.028,20.249 C9.055,19.955 9.071,19.775 8.715,19.669 C5.324,18.657 3,15.539 3,12 L3,11 C3,10.448 3.448,10 4,10 Z M8.316,2.551 C8.969,2.769 9.486,3.274 9.719,3.921 C9.952,4.569 9.875,5.287 9.51,5.871 L8.686,7.189 C8.646,7.253 8.638,7.331 8.663,7.402 C8.689,7.472 8.745,7.527 8.816,7.551 C9.34,7.726 9.624,8.292 9.449,8.816 C9.274,9.34 8.708,9.624 8.184,9.449 C7.531,9.231 7.014,8.726 6.781,8.079 C6.548,7.431 6.625,6.713 6.99,6.129 L7.814,4.811 C7.898,4.676 7.834,4.498 7.684,4.448 C7.338,4.341 7.076,4.055 7.001,3.7 C6.925,3.346 7.048,2.978 7.321,2.74 C7.594,2.501 7.975,2.429 8.316,2.551 Z M16.316,2.551 C16.969,2.769 17.486,3.274 17.719,3.921 C17.952,4.569 17.875,5.287 17.51,5.871 L16.686,7.189 C16.646,7.253 16.638,7.331 16.663,7.402 C16.689,7.472 16.745,7.527 16.816,7.551 C17.34,7.726 17.624,8.292 17.449,8.816 C17.274,9.34 16.708,9.624 16.184,9.449 C15.531,9.231 15.014,8.726 14.781,8.079 C14.548,7.431 14.625,6.713 14.99,6.129 L15.814,4.811 C15.898,4.676 15.834,4.498 15.684,4.448 C15.172,4.265 14.9,3.706 15.072,3.19 C15.244,2.675 15.797,2.391 16.316,2.551 Z M12.316,2.551 C12.969,2.769 13.486,3.274 13.719,3.921 C13.952,4.569 13.875,5.287 13.51,5.871 L12.686,7.189 C12.646,7.253 12.638,7.331 12.663,7.402 C12.689,7.472 12.745,7.527 12.816,7.551 C13.34,7.726 13.624,8.292 13.449,8.816 C13.274,9.34 12.708,9.624 12.184,9.449 C11.531,9.231 11.014,8.726 10.781,8.079 C10.548,7.431 10.625,6.713 10.99,6.129 L11.814,4.811 C11.898,4.676 11.834,4.498 11.684,4.448 C11.172,4.265 10.9,3.706 11.072,3.19 C11.244,2.675 11.797,2.391 12.316,2.551 Z"/>
</svg>

