<svg xmlns="http://www.w3.org/2000/svg" width="24" height="24">
  <defs/>
  <path  d="M13.25,2.567 L19.544,6.201 C20.317,6.648 20.794,7.473 20.794,8.366 L20.794,15.634 C20.794,16.527 20.317,17.352 19.544,17.799 L13.25,21.433 C12.476,21.88 11.524,21.88 10.75,21.433 L4.456,17.799 C3.683,17.352 3.206,16.527 3.206,15.634 L3.206,8.366 C3.206,7.473 3.683,6.648 4.456,6.201 L10.75,2.567 C11.524,2.12 12.476,2.12 13.25,2.567 Z M18.794,9.232 L13,12.56 L13,19.269 L18.544,16.068 C18.672,15.994 18.76,15.868 18.786,15.723 L18.794,15.635 Z M5.206,9.232 L5.206,15.634 C5.206,15.813 5.301,15.978 5.456,16.067 L11,19.267 L11,12.56 Z M11.75,4.3 L6.206,7.5 L11.75,10.701 C11.905,10.79 12.095,10.79 12.25,10.701 L17.794,7.5 L12.25,4.299 C12.095,4.21 11.905,4.21 11.75,4.299 Z"/>
</svg>

