<svg xmlns="http://www.w3.org/2000/svg" width="24" height="24">
  <defs/>
  <path  d="M20.765,7.982 L20.787,8.172 L20.794,8.366 L20.794,15.634 A2.5 2.5 0 0 1 19.695,17.704 L19.545,17.799 L13.25,21.433 L13.126,21.5 L13,21.56 L13,12.57 Z M3.235,7.982 L11,12.571 L11,21.559 A2.513 2.513 0 0 1 10.75,21.433 L4.456,17.799 A2.5 2.5 0 0 1 3.206,15.634 L3.206,8.366 C3.206,8.236 3.216,8.108 3.236,7.982 Z M13.25,2.567 L19.544,6.201 C19.594,6.231 19.644,6.261 19.692,6.293 L12,10.84 L4.308,6.292 A2.45 2.45 0 0 1 4.456,6.2 L10.75,2.566 A2.5 2.5 0 0 1 13.25,2.566 Z"/>
</svg>

