<svg xmlns="http://www.w3.org/2000/svg" width="24" height="24">
  <defs/>
  <path  d="M14.152,4.53 C13.859,4.062 14.002,3.445 14.47,3.152 C14.938,2.859 15.555,3.002 15.848,3.47 L20.848,11.47 C21.051,11.794 21.051,12.206 20.848,12.53 L15.848,20.53 C15.555,20.998 14.938,21.141 14.47,20.848 C14.002,20.555 13.859,19.938 14.152,19.47 L18.821,12 Z M9.848,4.53 L5.179,12 L9.848,19.47 C10.141,19.938 9.998,20.555 9.53,20.848 C9.062,21.141 8.445,20.998 8.152,20.53 L3.152,12.53 C2.949,12.206 2.949,11.794 3.152,11.47 L8.152,3.47 C8.445,3.002 9.062,2.859 9.53,3.152 C9.998,3.445 10.141,4.062 9.848,4.53 Z"/>
</svg>

