<svg xmlns="http://www.w3.org/2000/svg" width="24" height="24">
  <defs/>
  <path  d="M8,3 A1 1 0 0 1 8.117,4.993 L8,5 L7,5 A1 1 0 0 0 6.007,5.883 L6,6 L6,10 C6,10.768 5.711,11.47 5.236,12 C5.664,12.478 5.94,13.093 5.991,13.772 L6,14 L6,18 A1 1 0 0 0 6.883,18.993 L7,19 L8,19 A1 1 0 0 1 8.117,20.993 L8,21 L7,21 A3 3 0 0 1 4.005,18.176 L4,18 L4,14 A1 1 0 0 0 3.117,13.007 L3,13 A1 1 0 0 1 2.883,11.007 L3,11 A1 1 0 0 0 3.993,10.117 L4,10 L4,6 A3 3 0 0 1 6.824,3.005 L7,3 Z M17,3 A3 3 0 0 1 19.995,5.824 L20,6 L20,10 A1 1 0 0 0 20.883,10.993 L21,11 A1 1 0 0 1 21.117,12.993 L21,13 A1 1 0 0 0 20.007,13.883 L20,14 L20,18 A3 3 0 0 1 17.176,20.995 L17,21 L16,21 A1 1 0 0 1 15.883,19.007 L16,19 L17,19 A1 1 0 0 0 17.993,18.117 L18,18 L18,14 C18,13.232 18.289,12.53 18.764,12 A2.988 2.988 0 0 1 18.009,10.228 L18,10 L18,6 A1 1 0 0 0 17.117,5.007 L17,5 L16,5 A1 1 0 0 1 15.883,3.007 L16,3 Z"/>
</svg>

