<svg xmlns="http://www.w3.org/2000/svg" width="24" height="24">
  <defs/>
  <path  d="M8,2.5 A1.5 1.5 0 0 1 8.144,5.493 L8,5.5 L7,5.5 A0.5 0.5 0 0 0 6.508,5.91 L6.5,6 L6.5,10 C6.5,10.744 6.268,11.433 5.873,12 A3.48 3.48 0 0 1 6.492,13.754 L6.5,14 L6.5,18 A0.5 0.5 0 0 0 6.91,18.492 L7,18.5 L8,18.5 A1.5 1.5 0 0 1 8.144,21.493 L8,21.5 L7,21.5 A3.5 3.5 0 0 1 3.505,18.192 L3.5,18 L3.5,14 A0.5 0.5 0 0 0 3,13.5 A1.5 1.5 0 0 1 3,10.5 A0.5 0.5 0 0 0 3.492,10.09 L3.5,10 L3.5,6 A3.5 3.5 0 0 1 6.808,2.505 L7,2.5 Z M17,2.5 A3.5 3.5 0 0 1 20.495,5.808 L20.5,6 L20.5,10 A0.5 0.5 0 0 0 21,10.5 A1.5 1.5 0 0 1 21,13.5 A0.5 0.5 0 0 0 20.508,13.91 L20.5,14 L20.5,18 A3.5 3.5 0 0 1 17.192,21.495 L17,21.5 L16,21.5 A1.5 1.5 0 0 1 15.856,18.507 L16,18.5 L17,18.5 A0.5 0.5 0 0 0 17.492,18.09 L17.5,18 L17.5,14 C17.5,13.256 17.732,12.567 18.127,12 A3.481 3.481 0 0 1 17.508,10.246 L17.5,10 L17.5,6 A0.5 0.5 0 0 0 17.09,5.508 L17,5.5 L16,5.5 A1.5 1.5 0 0 1 15.856,2.507 L16,2.5 Z"/>
</svg>

