<svg xmlns="http://www.w3.org/2000/svg" width="24" height="24">
  <defs/>
  <path  d="M10.272,4.795 L5.769,12 L10.272,19.205 C10.711,19.908 10.498,20.833 9.795,21.272 C9.092,21.711 8.167,21.498 7.728,20.795 L2.728,12.795 C2.424,12.309 2.424,11.691 2.728,11.205 L7.728,3.205 C8.167,2.502 9.092,2.289 9.795,2.728 C10.498,3.167 10.711,4.092 10.272,4.795 Z M13.728,4.795 C13.289,4.092 13.502,3.167 14.205,2.728 C14.908,2.289 15.833,2.502 16.272,3.205 L21.272,11.205 C21.576,11.691 21.576,12.309 21.272,12.795 L16.272,20.795 C15.833,21.498 14.908,21.711 14.205,21.272 C13.502,20.833 13.289,19.908 13.728,19.205 L18.231,12 Z"/>
</svg>

