<svg xmlns="http://www.w3.org/2000/svg" width="24" height="24">
  <defs/>
  <path  d="M9,3 C10.148,2.999 11.241,3.492 12,4.354 C13.1,3.106 14.858,2.67 16.414,3.258 C17.97,3.846 19,5.336 19,7 L19,8.126 C20.765,8.584 21.998,10.176 21.998,12 C21.998,13.824 20.765,15.416 19,15.874 L19,17 C19,18.664 17.97,20.154 16.414,20.742 C14.858,21.33 13.1,20.894 12,19.646 C10.9,20.894 9.142,21.33 7.586,20.742 C6.03,20.154 5,18.664 5,17 L5,15.874 C3.235,15.416 2.002,13.824 2.002,12 C2.002,10.176 3.235,8.584 5,8.126 L5,7 C5,4.791 6.791,3 9,3 Z M9,13 C8.448,13 8,12.552 8,12 C8,11.448 8.448,11 9,11 C9.702,10.999 10.392,11.183 11,11.535 L11,7 C11,5.895 10.105,5 9,5 C7.895,5 7,5.895 7,7 L7,9 C7,9.552 6.552,10 6,10 C5.204,10.001 4.484,10.473 4.167,11.203 C3.85,11.933 3.996,12.781 4.538,13.363 C5.081,13.946 5.917,14.151 6.667,13.886 C7.188,13.702 7.759,13.975 7.943,14.496 C8.127,15.017 7.854,15.588 7.333,15.772 C7.224,15.811 7.113,15.844 7,15.874 L7,17 C7,18.105 7.895,19 9,19 C10.105,19 11,18.105 11,17 L11,15 C11,13.895 10.105,13 9,13 Z M17,9 L17,7 C17,5.895 16.105,5 15,5 C13.895,5 13,5.895 13,7 L13,11.535 C13.608,11.183 14.298,10.999 15,11 C15.552,11 16,11.448 16,12 C16,12.552 15.552,13 15,13 C13.895,13 13,13.895 13,15 L13,17 C13,18.105 13.895,19 15,19 C16.105,19 17,18.105 17,17 L17,15.874 C16.888,15.845 16.776,15.811 16.667,15.772 C16.146,15.588 15.873,15.017 16.057,14.496 C16.241,13.975 16.812,13.702 17.333,13.886 C18.083,14.151 18.919,13.946 19.462,13.363 C20.004,12.781 20.15,11.933 19.833,11.203 C19.516,10.473 18.796,10.001 18,10 C17.448,10 17,9.552 17,9 Z"/>
</svg>

