<svg xmlns="http://www.w3.org/2000/svg" width="24" height="24">
  <defs/>
  <path  d="M19.839,4.282 C20.629,5.073 21.019,5.993 20.999,7.002 C20.982,7.963 20.594,8.896 20.061,9.766 C19.351,10.928 18.266,12.154 17.053,13.411 L16.381,14.1 L15.691,14.794 L14.421,16.062 L13.681,16.792 C12.329,18.109 11.011,19.299 9.766,20.061 C8.896,20.594 7.963,20.981 7.002,21 C5.993,21.02 5.073,20.63 4.282,19.839 C3.095,18.652 2.586,16.495 2.885,14.194 C3.178,11.938 4.256,9.391 6.45,7.074 L6.773,6.742 C9.17,4.352 11.84,3.191 14.193,2.885 C16.494,2.586 18.652,3.095 19.839,4.282 Z M18.425,5.697 C17.844,5.116 16.417,4.613 14.451,4.868 C14.021,4.924 13.572,5.016 13.111,5.149 C13.371,5.449 13.711,5.664 14.145,5.809 C14.488,5.919 14.746,6.204 14.82,6.557 C14.894,6.91 14.772,7.275 14.501,7.513 C14.23,7.751 13.852,7.825 13.512,7.706 C12.502,7.37 11.724,6.764 11.204,5.917 C10.295,6.396 9.45,6.988 8.69,7.68 C8.849,7.917 9.062,8.18 9.32,8.438 C9.744,8.861 10.178,9.164 10.496,9.301 L10.609,9.345 C11.133,9.52 11.417,10.086 11.242,10.61 C11.067,11.134 10.501,11.418 9.977,11.243 C9.239,10.997 8.491,10.436 7.907,9.852 C7.685,9.631 7.477,9.396 7.285,9.148 C6.649,9.916 6.113,10.762 5.691,11.665 C5.962,12.269 6.407,12.659 7.074,12.881 C7.591,13.061 7.867,13.623 7.694,14.142 C7.52,14.661 6.962,14.944 6.441,14.778 C5.894,14.601 5.388,14.32 4.949,13.949 C4.917,14.119 4.889,14.287 4.869,14.452 C4.613,16.419 5.116,17.845 5.697,18.426 C6.143,18.872 6.553,19.009 6.964,19.001 C7.422,18.992 7.997,18.8 8.722,18.356 C9.674,17.774 10.71,16.871 11.855,15.776 L12.49,15.159 L13.485,14.172 L14.837,12.817 L15.471,12.171 C16.704,10.901 17.72,9.761 18.355,8.723 C18.799,7.998 18.991,7.423 19,6.965 C19.008,6.555 18.871,6.145 18.425,5.698 Z"/>
</svg>

