<svg xmlns="http://www.w3.org/2000/svg" width="24" height="24">
  <defs/>
  <path  d="M14.194,2.885 C16.494,2.586 18.652,3.095 19.839,4.282 C20.629,5.073 21.019,5.993 20.999,7.002 C20.982,7.963 20.594,8.896 20.061,9.766 C19.299,11.011 18.109,12.329 16.791,13.681 L16.062,14.421 L14.446,16.038 L13.755,16.72 C12.377,18.066 11.033,19.286 9.766,20.061 C8.896,20.594 7.963,20.981 7.002,21 C5.993,21.02 5.073,20.63 4.282,19.839 C3.095,18.652 2.586,16.495 2.885,14.194 C3.192,11.834 4.356,9.159 6.757,6.757 C9.159,4.357 11.835,3.192 14.194,2.885 Z M8.691,7.679 C8.187,8.133 7.717,8.624 7.285,9.147 C7.479,9.398 7.691,9.636 7.906,9.851 C8.491,10.435 9.239,10.996 9.976,11.241 C10.479,11.411 11.027,11.158 11.224,10.665 C11.422,10.172 11.199,9.611 10.718,9.387 L10.609,9.344 C10.286,9.237 9.797,8.914 9.321,8.437 C9.087,8.205 8.876,7.951 8.691,7.679 Z M13.111,5.149 C12.493,5.327 11.852,5.579 11.204,5.917 C11.724,6.764 12.503,7.369 13.512,7.706 C13.852,7.825 14.23,7.751 14.501,7.513 C14.772,7.275 14.894,6.91 14.82,6.557 C14.746,6.204 14.488,5.919 14.145,5.809 C13.711,5.664 13.371,5.449 13.111,5.149 Z M5.691,11.665 C5.351,12.393 5.102,13.16 4.949,13.948 C5.369,14.308 5.868,14.586 6.441,14.778 C6.965,14.953 7.532,14.67 7.707,14.146 C7.881,13.621 7.598,13.055 7.074,12.88 C6.407,12.658 5.962,12.268 5.691,11.664 Z"/>
</svg>

