<svg xmlns="http://www.w3.org/2000/svg" width="24" height="24">
  <defs/>
  <path  d="M15,18 A1 1 0 0 1 15.117,19.993 L15,20 L12,20 A1 1 0 0 1 11.883,18.007 L12,18 Z M13,15 A1 1 0 1 1 13,17 L9,17 A1 1 0 1 1 9,15 Z M15,3 A1 1 0 0 1 15.993,3.883 L16,4 L16,4.454 C17.59,4.832 18.85,5.391 19.775,5.913 L20,6.043 L20,6 A1 1 0 0 1 21.993,5.883 L22,6 L22,12.9 A1.1 1.1 0 0 1 21.02,13.994 L20.9,14 L16.045,14 C15.506,14 15.063,13.593 15.006,13.07 L15,12.954 L15,12.5 A3 3 0 0 0 9.005,12.324 L9,12.5 L9,12.955 C9,13.494 8.593,13.937 8.07,13.994 L7.954,14 L3.1,14 A1.1 1.1 0 0 1 2.006,13.02 L2,12.9 L2,6 A1 1 0 0 1 3.993,5.883 L4,6 L4,6.042 A14.279 14.279 0 0 1 7.61,4.552 L8,4.455 L8,4 A1 1 0 0 1 9.993,3.883 L10,4 L10,4.109 A18.329 18.329 0 0 1 13.522,4.063 L14,4.109 L14,4 A1 1 0 0 1 15,3"/>
</svg>

