<svg xmlns="http://www.w3.org/2000/svg" width="24" height="24">
  <defs/>
  <path  d="M18,4 C18.507,4 18.934,4.38 18.993,4.883 L19,5 L19,6.565 L19.116,6.666 L19.393,6.897 C19.443,6.939 19.497,6.981 19.551,7.023 C20.084,7.438 20.728,7.855 21.316,8.051 C21.84,8.226 22.124,8.792 21.949,9.316 C21.774,9.84 21.208,10.124 20.684,9.949 C20.182,9.774 19.702,9.541 19.254,9.255 L19,9.091 L19,14 L22,14 C22.529,14.001 22.966,14.413 22.997,14.941 C23.028,15.47 22.642,15.931 22.117,15.993 L22,16 L19,16 L19,19 C18.999,19.529 18.587,19.966 18.059,19.997 C17.53,20.028 17.069,19.642 17.007,19.117 L17,19 L17,16 L7,16 L7,19 C6.999,19.529 6.587,19.966 6.059,19.997 C5.53,20.028 5.069,19.642 5.007,19.117 L5,19 L5,16 L2,16 C1.471,15.999 1.034,15.587 1.003,15.059 C0.972,14.53 1.358,14.069 1.883,14.007 L2,14 L5,14 L5,9.09 C4.504,9.421 3.922,9.747 3.316,9.949 C2.792,10.124 2.226,9.84 2.051,9.316 C1.876,8.792 2.16,8.226 2.684,8.051 C3.272,7.855 3.916,7.438 4.449,7.023 L4.607,6.897 L4.884,6.666 L5,6.565 L5,5 C5.001,4.471 5.413,4.034 5.941,4.003 C6.47,3.972 6.931,4.358 6.993,4.883 L7,5 L7,6.722 C7.263,7.098 7.578,7.434 7.937,7.719 C8.71,8.338 9.993,9 12,9 C14.007,9 15.29,8.338 16.063,7.72 C16.456,7.405 16.727,7.094 16.895,6.869 L17,6.722 L17,5 C17,4.448 17.448,4 18,4 Z M17,9.517 C16.484,9.884 15.925,10.185 15.334,10.412 L15,10.533 L15,14 L17,14 Z M7,9.517 L7,14 L9,14 L9,10.533 L8.666,10.413 C8.165,10.22 7.687,9.974 7.238,9.68 Z M13,10.953 C12.443,11.006 11.882,11.015 11.323,10.979 L11,10.953 L11,14 L13,14 Z"/>
</svg>

