<svg xmlns="http://www.w3.org/2000/svg" width="24" height="24">
  <defs/>
  <path  d="M15,3 C15.507,3 15.934,3.38 15.993,3.883 L16,4 L16,4.454 C17.59,4.832 18.85,5.391 19.775,5.913 L20,6.043 L20,6 C20.001,5.471 20.413,5.034 20.941,5.003 C21.47,4.972 21.931,5.358 21.993,5.883 L22,6 L22,12.9 C22,13.461 21.578,13.933 21.02,13.994 L20.9,14 L16.045,14 C15.506,14 15.063,13.593 15.006,13.07 L15,12.954 L15,12.5 C15.002,10.876 13.711,9.546 12.088,9.498 C10.465,9.451 9.099,10.703 9.005,12.324 L9,12.5 L9,12.955 C9,13.494 8.593,13.937 8.07,13.994 L7.954,14 L3.1,14 C2.539,14 2.067,13.578 2.006,13.02 L2,12.9 L2,6 C2.001,5.471 2.413,5.034 2.941,5.003 C3.47,4.972 3.931,5.358 3.993,5.883 L4,6 L4,6.042 C5.129,5.382 6.344,4.881 7.61,4.552 L8,4.455 L8,4 C8.001,3.471 8.413,3.034 8.941,3.003 C9.47,2.972 9.931,3.358 9.993,3.883 L10,4 L10,4.109 C11.17,3.981 12.349,3.965 13.522,4.063 L14,4.109 L14,4 C14,3.448 14.448,3 15,3 Z M12,6 C8.6,6 6.247,7.022 4.937,7.812 L4.643,7.996 L4.389,8.167 L4.174,8.322 L4,8.456 L4,12 L7.025,12 C7.281,9.445 9.432,7.499 12,7.499 C14.568,7.499 16.719,9.445 16.975,12 L20,12 L20,8.456 L19.826,8.322 L19.611,8.167 L19.357,7.996 L19.063,7.812 C17.753,7.022 15.4,6 12,6 Z M13,15 C13.552,15 14,15.448 14,16 C14,16.552 13.552,17 13,17 L9,17 C8.448,17 8,16.552 8,16 C8,15.448 8.448,15 9,15 Z M15,18 C15.529,18.001 15.966,18.413 15.997,18.941 C16.028,19.47 15.642,19.931 15.117,19.993 L15,20 L12,20 C11.471,19.999 11.034,19.587 11.003,19.059 C10.972,18.53 11.358,18.069 11.883,18.007 L12,18 Z"/>
</svg>

