<svg xmlns="http://www.w3.org/2000/svg" width="24" height="24">
  <defs/>
  <path  d="M18,4 C18.552,4 19,4.448 19,5 L19,6.565 L19.116,6.666 L19.393,6.897 C19.443,6.939 19.497,6.981 19.551,7.023 C20.084,7.438 20.728,7.855 21.316,8.051 C21.84,8.226 22.124,8.792 21.949,9.316 C21.774,9.84 21.208,10.124 20.684,9.949 C20.078,9.747 19.496,9.421 19,9.091 L19,14 L22,14 C22.552,14 23,14.448 23,15 C23,15.552 22.552,16 22,16 L19,16 L19,19 C19,19.552 18.552,20 18,20 C17.448,20 17,19.552 17,19 L17,16 L7,16 L7,19 C7,19.552 6.552,20 6,20 C5.448,20 5,19.552 5,19 L5,16 L2,16 C1.448,16 1,15.552 1,15 C1,14.448 1.448,14 2,14 L5,14 L5,9.09 C4.504,9.421 3.922,9.747 3.316,9.949 C2.792,10.124 2.226,9.84 2.051,9.316 C1.876,8.792 2.16,8.226 2.684,8.051 C3.272,7.855 3.916,7.438 4.449,7.023 L4.607,6.897 L4.884,6.666 L5,6.565 L5,5 C5,4.448 5.448,4 6,4 C6.552,4 7,4.448 7,5 L7,6.722 C7.263,7.098 7.578,7.434 7.937,7.719 C8.71,8.338 9.993,9 12,9 C14.007,9 15.29,8.338 16.063,7.72 C16.456,7.405 16.727,7.094 16.895,6.869 L17,6.722 L17,5 C17,4.448 17.448,4 18,4 Z M15,10.533 C14.469,10.711 13.922,10.838 13.366,10.911 L13,10.953 L13,14 L15,14 Z M9,10.533 L9,14 L11,14 L11,10.953 C10.425,10.9 9.856,10.791 9.301,10.629 Z"/>
</svg>

