<svg xmlns="http://www.w3.org/2000/svg" width="24" height="24">
  <defs/>
  <path  d="M9,14 C8.998,15.624 10.289,16.954 11.912,17.002 C13.535,17.049 14.901,15.797 14.995,14.176 L15,14 L22,14 L22,19 C22,20.047 21.194,20.917 20.15,20.995 L20,21 L4,21 C2.953,21 2.083,20.194 2.005,19.15 L2,19 L2,14 Z M12,3 C14.376,3 16.424,4.672 16.9,7 L20,7 C21.105,7 22,7.895 22,9 L22,12 L14.83,12 C14.407,10.8 13.272,9.998 12,9.998 C10.728,9.998 9.593,10.8 9.17,12 L2,12 L2,9 C2,7.895 2.895,7 4,7 L7.1,7 C7.576,4.672 9.624,3 12,3 Z M12,5 C10.796,5 9.708,5.72 9.238,6.828 L9.17,7 L14.828,7 C14.404,5.802 13.271,5 12,5 Z M12,12 C12.552,12 13,12.448 13,13 L13,14 C13,14.552 12.552,15 12,15 C11.448,15 11,14.552 11,14 L11,13 C11,12.448 11.448,12 12,12 Z"/>
</svg>

