<svg xmlns="http://www.w3.org/2000/svg" width="24" height="24">
  <defs/>
  <path  d="M12,18.5 A1.5 1.5 0 0 1 13.493,19.856 L13.5,20 L13.5,21 A1.5 1.5 0 0 1 10.507,21.144 L10.5,21 L10.5,20 A1.5 1.5 0 0 1 12,18.5 M16.596,16.596 A1.5 1.5 0 0 1 18.604,16.493 L18.718,16.596 L19.425,17.303 A1.5 1.5 0 0 1 17.417,19.528 L17.303,19.425 L16.596,18.718 A1.5 1.5 0 0 1 16.596,16.596 M5.282,16.596 A1.5 1.5 0 0 1 7.507,18.604 L7.404,18.718 L6.697,19.425 A1.5 1.5 0 0 1 4.472,17.417 L4.575,17.303 Z M12,6 A6 6 0 1 1 12,18 A6 6 0 0 1 12,6 M12,9 A3 3 0 0 0 11.824,14.995 L12,15 Z M4,10.5 A1.5 1.5 0 0 1 4.144,13.493 L4,13.5 L3,13.5 A1.5 1.5 0 0 1 2.856,10.507 L3,10.5 Z M21,10.5 A1.5 1.5 0 0 1 21.144,13.493 L21,13.5 L20,13.5 A1.5 1.5 0 0 1 19.856,10.507 L20,10.5 Z M4.575,4.575 A1.5 1.5 0 0 1 6.583,4.472 L6.697,4.575 L7.404,5.282 A1.5 1.5 0 0 1 5.396,7.507 L5.282,7.404 L4.575,6.697 A1.5 1.5 0 0 1 4.575,4.575 M17.303,4.575 A1.5 1.5 0 0 1 19.528,6.583 L19.425,6.697 L18.718,7.404 A1.5 1.5 0 0 1 16.493,5.396 L16.596,5.282 Z M12,1.5 A1.5 1.5 0 0 1 13.493,2.856 L13.5,3 L13.5,4 A1.5 1.5 0 0 1 10.507,4.144 L10.5,4 L10.5,3 A1.5 1.5 0 0 1 12,1.5"/>
</svg>

