<svg xmlns="http://www.w3.org/2000/svg" width="24" height="24">
  <defs/>
  <path  d="M12,19 A1 1 0 0 1 12.993,19.883 L13,20 L13,21 A1 1 0 0 1 11.007,21.117 L11,21 L11,20 A1 1 0 0 1 12,19 M16.95,16.95 A1 1 0 0 1 18.27,16.867 L18.364,16.95 L19.071,17.657 A1 1 0 0 1 17.751,19.154 L17.657,19.071 L16.95,18.364 A1 1 0 0 1 16.95,16.95 M7.05,16.95 A1 1 0 0 1 7.05,18.364 L6.343,19.071 A1 1 0 0 1 4.929,17.657 L5.636,16.95 A1 1 0 0 1 7.05,16.95 M12,6 A6 6 0 1 1 12,18 A6 6 0 0 1 12,6 M12,8 A4 4 0 1 0 12,16 Z M4,11 A1 1 0 1 1 4,13 L3,13 A1 1 0 1 1 3,11 Z M21,11 A1 1 0 0 1 21.117,12.993 L21,13 L20,13 A1 1 0 0 1 19.883,11.007 L20,11 Z M6.343,4.929 L7.05,5.636 A1 1 0 0 1 5.636,7.05 L4.929,6.343 A1 1 0 1 1 6.343,4.93 Z M17.657,4.929 A1 1 0 0 1 19.154,6.249 L19.071,6.343 L18.364,7.05 A1 1 0 0 1 16.867,5.73 L16.95,5.636 Z M12,2 A1 1 0 0 1 12.993,2.883 L13,3 L13,4 A1 1 0 0 1 11.007,4.117 L11,4 L11,3 A1 1 0 0 1 12,2"/>
</svg>

