<svg xmlns="http://www.w3.org/2000/svg" width="24" height="24">
  <defs/>
  <path  d="M17.278,2.613 C17.478,2.123 18.025,1.874 18.526,2.045 C19.026,2.215 19.308,2.746 19.168,3.256 L19.13,3.366 L16.52,9.786 L17.177,9.961 C18.227,10.242 19.101,11.095 19.267,12.259 C19.409,13.259 19.542,14.779 19.359,16.345 C19.177,17.897 18.669,19.623 17.412,20.891 C16.95,21.357 16.287,21.431 15.839,21.439 C15.328,21.447 14.739,21.369 14.134,21.249 C12.918,21.007 11.459,20.559 10.08,20.083 L9.666,19.938 L8.853,19.644 L8.073,19.353 L7.339,19.07 L6.361,18.682 C5.809,18.461 5.259,18.233 4.713,17.998 C4.39,17.858 4.164,17.558 4.119,17.209 C4.074,16.859 4.216,16.512 4.493,16.294 C5.871,15.214 7.163,13.972 8.255,12.825 L8.783,12.261 C8.869,12.169 8.953,12.077 9.034,11.987 L9.506,11.46 L9.726,11.208 L10.32,10.513 L10.657,10.107 C11.375,9.224 12.52,8.807 13.638,9.02 L13.837,9.066 L14.574,9.263 Z M8.397,2.857 C8.437,2.767 8.563,2.767 8.603,2.857 L8.705,3.079 C9.139,3.977 9.823,4.731 10.675,5.25 L10.832,5.343 C10.866,5.362 10.888,5.398 10.888,5.438 C10.888,5.477 10.866,5.513 10.832,5.532 L10.674,5.624 C9.822,6.144 9.138,6.898 8.704,7.796 L8.604,8.018 C8.586,8.059 8.545,8.086 8.5,8.086 C8.456,8.086 8.415,8.059 8.397,8.018 L8.295,7.796 C7.861,6.898 7.177,6.144 6.325,5.624 L6.167,5.532 C6.133,5.513 6.111,5.477 6.111,5.438 C6.111,5.398 6.133,5.362 6.167,5.343 L6.326,5.25 C7.178,4.731 7.862,3.977 8.296,3.079 L8.396,2.857 Z M13.319,10.998 C12.905,10.895 12.469,11.042 12.203,11.376 L11.96,11.669 L17.358,13.115 L17.311,12.723 C17.303,12.662 17.295,12.602 17.286,12.541 C17.25,12.288 17.071,12.05 16.776,11.931 L16.66,11.893 Z M5.565,7.716 L5.629,7.856 C5.902,8.42 6.331,8.894 6.866,9.22 L6.966,9.278 C6.987,9.29 7,9.313 7,9.337 C7,9.361 6.987,9.384 6.966,9.396 L6.866,9.454 C6.331,9.781 5.902,10.255 5.63,10.82 L5.566,10.959 C5.555,10.985 5.529,11.001 5.501,11.001 C5.473,11.001 5.447,10.985 5.436,10.959 L5.372,10.819 C5.099,10.255 4.67,9.781 4.135,9.455 L4.035,9.397 C4.014,9.385 4.001,9.362 4.001,9.338 C4.001,9.314 4.014,9.291 4.035,9.279 L4.135,9.221 C4.669,8.894 5.098,8.42 5.37,7.855 L5.434,7.716 C5.445,7.69 5.471,7.674 5.499,7.674 C5.527,7.674 5.553,7.69 5.564,7.716 Z"/>
</svg>

