<svg xmlns="http://www.w3.org/2000/svg" width="24" height="24">
  <defs/>
  <path  d="M17.278,2.613 C17.478,2.123 18.025,1.874 18.526,2.045 C19.026,2.215 19.308,2.746 19.168,3.256 L19.13,3.366 L16.52,9.786 L17.177,9.961 C18.227,10.242 19.101,11.095 19.267,12.259 C19.409,13.259 19.542,14.779 19.359,16.345 C19.177,17.897 18.669,19.623 17.412,20.891 C16.95,21.357 16.287,21.431 15.839,21.439 C15.328,21.447 14.739,21.369 14.134,21.249 C12.918,21.007 11.46,20.559 10.08,20.083 L9.666,19.938 L8.853,19.644 L8.073,19.353 L7.339,19.07 L6.361,18.682 L5.539,18.347 L4.722,18.002 C4.396,17.864 4.167,17.564 4.12,17.213 C4.073,16.862 4.215,16.513 4.494,16.294 C5.871,15.214 7.164,13.972 8.255,12.825 L8.784,12.261 L9.034,11.987 L9.506,11.46 L9.726,11.208 L10.32,10.513 L10.657,10.107 C11.375,9.224 12.52,8.807 13.638,9.02 L13.837,9.066 L14.574,9.263 Z M10.5,13.348 C9.406,14.56 8.244,15.71 7.021,16.792 C7.597,17.024 8.174,17.252 8.754,17.472 C9.287,17.092 9.767,16.642 10.18,16.134 C10.355,15.926 10.518,15.707 10.668,15.48 L10.81,15.248 C11.084,14.776 11.685,14.611 12.161,14.876 C12.638,15.142 12.814,15.74 12.557,16.221 C12.323,16.641 12.03,17.035 11.725,17.405 C11.478,17.706 11.214,17.991 10.933,18.261 C11.395,18.419 11.857,18.569 12.305,18.707 C12.678,18.45 13.115,17.922 13.511,17.322 C13.67,17.082 13.821,16.835 13.963,16.582 L14.167,16.198 C14.412,15.703 15.012,15.5 15.507,15.745 C16.002,15.99 16.205,16.59 15.96,17.085 C15.731,17.547 15.464,17.994 15.18,18.424 C14.984,18.724 14.772,19.014 14.546,19.292 L14.967,19.374 C15.329,19.441 15.711,19.488 16.056,19.417 C16.822,18.602 17.219,17.419 17.372,16.112 C17.408,15.809 17.43,15.506 17.44,15.208 Z M8.397,2.857 C8.437,2.767 8.563,2.767 8.603,2.857 L8.705,3.079 C9.139,3.977 9.823,4.731 10.675,5.25 L10.832,5.343 C10.866,5.362 10.888,5.398 10.888,5.438 C10.888,5.477 10.866,5.513 10.832,5.532 L10.674,5.624 C9.822,6.144 9.138,6.898 8.704,7.796 L8.604,8.018 C8.586,8.059 8.545,8.086 8.5,8.086 C8.456,8.086 8.415,8.059 8.397,8.018 L8.295,7.796 C7.861,6.898 7.177,6.144 6.325,5.624 L6.167,5.532 C6.133,5.513 6.111,5.477 6.111,5.438 C6.111,5.398 6.133,5.362 6.167,5.343 L6.326,5.25 C7.178,4.731 7.862,3.977 8.296,3.079 L8.396,2.857 Z M13.319,10.998 C12.905,10.895 12.469,11.042 12.203,11.376 L11.96,11.669 L17.358,13.115 L17.311,12.723 C17.303,12.662 17.295,12.602 17.287,12.541 C17.25,12.288 17.071,12.05 16.776,11.931 L16.66,11.893 Z M5.565,7.716 L5.629,7.856 C5.902,8.42 6.331,8.894 6.866,9.22 L6.966,9.278 C6.987,9.29 7,9.313 7,9.337 C7,9.361 6.987,9.384 6.966,9.396 L6.866,9.454 C6.331,9.781 5.902,10.255 5.63,10.82 L5.566,10.959 C5.555,10.985 5.529,11.001 5.501,11.001 C5.473,11.001 5.447,10.985 5.436,10.959 L5.372,10.819 C5.099,10.255 4.67,9.781 4.135,9.455 L4.035,9.397 C4.014,9.385 4.001,9.362 4.001,9.338 C4.001,9.314 4.014,9.291 4.035,9.279 L4.135,9.221 C4.669,8.894 5.098,8.42 5.37,7.855 L5.434,7.716 C5.445,7.69 5.471,7.674 5.499,7.674 C5.527,7.674 5.553,7.69 5.564,7.716 Z"/>
</svg>

