<svg xmlns="http://www.w3.org/2000/svg" width="24" height="24">
  <defs/>
  <path  d="M14.33,2.307 C15.93,2.736 16.879,4.381 16.45,5.981 L15.415,9.845 L16.773,10.208 C18.427,10.652 19.283,12.328 19.051,13.864 C18.941,14.593 18.897,15.31 18.986,15.832 C19.171,16.916 19.794,17.978 20.444,18.905 L20.798,19.397 C21.027,19.7 21.065,20.106 20.895,20.446 C20.726,20.785 20.379,21 20,21 L5.5,21 C5.18,21 4.873,20.842 4.687,20.582 C4.198,19.898 3.849,19.124 3.562,18.338 C3.062,16.974 2.645,15.045 3.014,12.836 C3.241,11.428 3.725,10.075 4.442,8.842 C5.097,7.734 6.373,7.422 7.433,7.706 L9.62,8.292 L10.655,4.428 C11.084,2.828 12.729,1.878 14.329,2.307 Z M12.586,4.946 L11.292,9.776 C11.149,10.309 10.6,10.625 10.067,10.482 L6.915,9.638 C6.532,9.535 6.269,9.681 6.164,9.859 C5.885,10.335 5.65,10.835 5.461,11.353 L16.971,14.406 C16.996,14.113 17.032,13.828 17.072,13.564 C17.177,12.874 16.775,12.28 16.254,12.14 L13.931,11.518 C13.397,11.375 13.081,10.827 13.224,10.293 L14.518,5.463 C14.658,4.931 14.341,4.385 13.809,4.243 C13.278,4.101 12.731,4.415 12.586,4.946 Z M7.978,15 C7.426,15.004 6.981,15.455 6.985,16.007 C6.992,17.031 7.312,18.012 7.654,18.777 L7.756,19 L10.033,19 C9.892,18.773 9.761,18.54 9.641,18.301 C9.331,17.684 9.058,16.953 8.997,16.254 L8.985,15.993 C8.981,15.441 8.531,14.997 7.979,15 Z"/>
</svg>

