<svg xmlns="http://www.w3.org/2000/svg" width="24" height="24">
  <defs/>
  <path  d="M20.485,10.586 L21.545,11.646 A2.5 2.5 0 0 1 21.668,15.051 L21.546,15.181 L15.182,21.546 A2.5 2.5 0 0 1 11.777,21.668 L11.647,21.546 L10.586,20.486 Z M2.808,2.808 C3.693,1.922 4.818,1.478 5.992,1.605 C7.153,1.73 8.217,2.398 9.048,3.451 C9.936,4.578 10.748,6.183 11.384,7.625 C11.695,8.329 12.544,8.499 13.06,8.1 L13.153,8.019 L13.768,7.404 A2.5 2.5 0 0 1 17.173,7.282 L17.303,7.404 L19.071,9.172 L9.171,19.071 L7.404,17.303 A2.5 2.5 0 0 1 7.282,13.898 L7.404,13.768 L8.019,13.153 C8.519,12.653 8.373,11.714 7.625,11.384 C6.183,10.748 4.578,9.936 3.451,9.048 C2.398,8.217 1.731,7.153 1.605,5.992 C1.478,4.818 1.922,3.692 2.808,2.808"/>
</svg>

