<svg xmlns="http://www.w3.org/2000/svg" width="24" height="24">
  <defs/>
  <path  d="M8,4 C8,2.895 8.895,2 10,2 L14,2 C15.105,2 16,2.895 16,4 L16,9 L20,9 C21.105,9 22,9.895 22,11 L22,20 C22,21.105 21.105,22 20,22 L4,22 C2.895,22 2,21.105 2,20 L2,11 C2,9.895 2.895,9 4,9 L8,9 Z M20,15 L4,15 L4,20 L6,20 L6,18 C6,17.448 6.448,17 7,17 C7.552,17 8,17.448 8,18 L8,20 L11,20 L11,18 C11,17.448 11.448,17 12,17 C12.552,17 13,17.448 13,18 L13,20 L16,20 L16,18 C16,17.448 16.448,17 17,17 C17.552,17 18,17.448 18,18 L18,20 L20,20 Z M14,4 L10,4 L10,9 C10,10.105 9.105,11 8,11 L4,11 L4,13 L20,13 L20,11 L16,11 C14.895,11 14,10.105 14,9 Z"/>
</svg>

