<svg xmlns="http://www.w3.org/2000/svg" width="24" height="24">
  <defs/>
  <path  d="M20.894,20.448 C20.724,20.786 20.378,21 20,21 L5.5,21 C4.868,21 4.568,20.437 4.3,19.955 C4.012,19.437 3.765,18.896 3.562,18.339 C3.062,16.975 2.645,15.046 3.014,12.836 C3.241,11.429 3.725,10.075 4.442,8.843 C5.097,7.734 6.373,7.423 7.433,7.706 L9.62,8.292 L10.655,4.428 C11.084,2.827 12.729,1.878 14.33,2.306 C15.93,2.735 16.88,4.38 16.451,5.981 L15.415,9.845 L16.773,10.209 C18.427,10.652 19.283,12.328 19.051,13.864 C18.941,14.594 18.897,15.311 18.986,15.832 C19.1,16.502 19.517,17.369 19.971,18.138 C20.351,18.782 20.711,19.28 20.787,19.382 C21.014,19.69 21.068,20.101 20.894,20.448 Z M17.084,16.505 L4.966,13.291 C4.706,15.015 5.033,16.539 5.44,17.651 C5.648,18.22 5.874,18.673 6.045,18.98 L6.057,19 L7.757,19 C7.38,18.208 6.994,17.134 6.987,16.007 C6.973,15.643 7.159,15.3 7.471,15.112 C7.784,14.924 8.174,14.921 8.489,15.105 C8.804,15.288 8.995,15.628 8.986,15.993 C8.991,16.769 9.293,17.607 9.642,18.301 C9.78,18.577 9.919,18.816 10.034,19.001 L18.159,19.001 C17.756,18.301 17.299,17.391 17.084,16.505 Z M13.812,4.238 C13.278,4.095 12.73,4.412 12.587,4.946 L11.293,9.776 C11.15,10.31 10.602,10.626 10.068,10.483 L6.916,9.638 C6.533,9.535 6.27,9.681 6.165,9.859 C5.886,10.335 5.651,10.835 5.462,11.354 L16.972,14.407 C16.997,14.113 17.033,13.829 17.073,13.565 C17.178,12.874 16.776,12.28 16.255,12.141 L13.932,11.518 C13.398,11.375 13.082,10.827 13.225,10.293 L14.519,5.463 C14.661,4.93 14.345,4.382 13.812,4.239 Z"/>
</svg>

