<svg xmlns="http://www.w3.org/2000/svg" width="24" height="24">
  <defs/>
  <path  d="M2.808,2.808 C3.693,1.922 4.818,1.478 5.992,1.605 C7.153,1.73 8.217,2.398 9.048,3.451 C9.936,4.578 10.748,6.183 11.384,7.625 C11.695,8.329 12.544,8.499 13.06,8.1 L13.153,8.019 L13.768,7.404 C14.695,6.476 16.182,6.423 17.173,7.282 L17.303,7.404 L21.546,11.646 C22.474,12.573 22.527,14.06 21.668,15.051 L21.546,15.181 L15.182,21.546 C14.255,22.474 12.768,22.527 11.777,21.668 L11.647,21.546 L7.404,17.303 C6.475,16.374 6.424,14.885 7.286,13.894 L7.408,13.764 L8.018,13.153 C8.518,12.653 8.373,11.714 7.625,11.384 C6.183,10.748 4.578,9.936 3.451,9.048 C2.398,8.217 1.731,7.153 1.605,5.992 C1.478,4.818 1.922,3.692 2.808,2.808 Z M5.777,3.593 C5.279,3.539 4.734,3.71 4.222,4.222 C3.71,4.734 3.539,5.279 3.593,5.777 C3.649,6.289 3.958,6.9 4.689,7.477 C5.609,8.202 7.021,8.932 8.433,9.555 C10.308,10.382 10.966,12.845 9.565,14.427 L9.432,14.568 L8.818,15.182 C8.647,15.353 8.623,15.621 8.76,15.82 L8.818,15.89 L10.586,17.657 L17.656,10.586 L15.889,8.818 C15.718,8.647 15.45,8.623 15.251,8.76 L15.182,8.818 L14.567,9.433 C12.996,11.004 10.407,10.365 9.555,8.433 C8.932,7.021 8.202,5.609 7.477,4.689 C6.9,3.958 6.289,3.649 5.777,3.593 Z M19.07,12 L12,19.071 L13.06,20.131 C13.154,20.225 13.281,20.278 13.414,20.278 C13.547,20.278 13.674,20.225 13.768,20.131 L20.132,13.768 C20.327,13.573 20.327,13.256 20.132,13.061 Z"/>
</svg>

