<svg xmlns="http://www.w3.org/2000/svg" width="24" height="24">
  <defs/>
  <path  d="M16,3 C18.761,3 21,5.239 21,8 C21,10.761 18.761,13 16,13 C13.239,13 11,10.761 11,8 C11,5.239 13.239,3 16,3 Z M7,11 C9.209,11 11,12.791 11,15 C11,17.209 9.209,19 7,19 C4.791,19 3,17.209 3,15 C3,12.791 4.791,11 7,11 Z M16,15 C17.657,15 19,16.343 19,18 C19,19.657 17.657,21 16,21 C14.343,21 13,19.657 13,18 C13,16.343 14.343,15 16,15 Z M16,5 C14.343,5 13,6.343 13,8 C13,9.657 14.343,11 16,11 C17.657,11 19,9.657 19,8 C19,6.343 17.657,5 16,5 Z M7,13 C5.895,13 5,13.895 5,15 C5,16.105 5.895,17 7,17 C8.105,17 9,16.105 9,15 C9,13.895 8.105,13 7,13 Z M16,17 C15.448,17 15,17.448 15,18 C15,18.552 15.448,19 16,19 C16.552,19 17,18.552 17,18 C17,17.448 16.552,17 16,17 Z"/>
</svg>

