<svg xmlns="http://www.w3.org/2000/svg" width="24" height="24">
  <defs/>
  <path  d="M3.553,6.106 C4.047,5.859 4.647,6.059 4.894,6.553 C5.041,6.846 5.394,7.227 5.867,7.543 C6.353,7.867 6.781,8 7,8 L17,8 C17.219,8 17.647,7.867 18.133,7.543 C18.607,7.227 18.959,6.846 19.106,6.553 C19.259,6.222 19.58,6 19.944,5.975 C20.307,5.949 20.656,6.124 20.854,6.43 C21.052,6.736 21.067,7.126 20.894,7.447 C20.541,8.154 19.894,8.773 19.242,9.207 C18.938,9.411 18.614,9.584 18.276,9.723 C18.573,10.454 18.779,11.219 18.892,12 L21,12 C21.552,12 22,12.448 22,13 C22,13.552 21.552,14 21,14 L18.988,14 C18.934,15.143 18.683,16.269 18.248,17.327 C18.82,17.657 19.211,18.187 19.457,18.677 C19.806,19.402 19.991,20.195 20,21 C20,21.552 19.552,22 19,22 C18.448,22 18,21.552 18,21 C18,20.626 17.899,20.034 17.668,19.572 C17.538,19.312 17.408,19.163 17.283,19.082 C16.227,20.568 14.744,21.622 13,21.917 L13,13 C13,12.448 12.552,12 12,12 C11.448,12 11,12.448 11,13 L11,21.917 C9.256,21.622 7.773,20.567 6.717,19.083 C6.591,19.163 6.462,19.313 6.332,19.573 C6.122,20.02 6.009,20.506 6,21 C6,21.552 5.552,22 5,22 C4.448,22 4,21.552 4,21 C4.009,20.196 4.194,19.403 4.543,18.678 C4.789,18.186 5.18,17.658 5.752,17.328 C5.317,16.269 5.066,15.144 5.012,14 L3,14 C2.448,14 2,13.552 2,13 C2,12.448 2.448,12 3,12 L5.108,12 C5.221,11.219 5.428,10.454 5.724,9.723 C5.386,9.584 5.062,9.411 4.758,9.207 C4.107,8.773 3.458,8.154 3.106,7.447 C2.859,6.953 3.059,6.353 3.553,6.106 Z M7.67,5.5 C8.563,3.953 10.214,3 12,3 C13.786,3 15.437,3.953 16.33,5.5 L17.2,7 L6.8,7 Z"/>
</svg>

