<svg xmlns="http://www.w3.org/2000/svg" width="24" height="24">
  <defs/>
  <path  d="M20.447,6.106 A1 1 0 0 1 20.894,7.447 C20.541,8.154 19.894,8.773 19.242,9.207 C18.951,9.401 18.622,9.583 18.276,9.724 C18.566,10.434 18.775,11.199 18.892,12 L21,12 A1 1 0 1 1 21,14 L18.988,14 A9.996 9.996 0 0 1 18.248,17.327 C18.82,17.657 19.211,18.187 19.457,18.677 A5.5 5.5 0 0 1 20,21 A1 1 0 0 1 18.007,21.117 L18,21 C18,20.626 17.899,20.034 17.668,19.572 C17.538,19.312 17.408,19.163 17.283,19.083 C16.03,20.844 14.177,22 12,22 C9.823,22 7.97,20.844 6.717,19.083 C6.591,19.163 6.462,19.313 6.332,19.573 A3.514 3.514 0 0 0 6,21 A1 1 0 1 1 4,21 A5.5 5.5 0 0 1 4.543,18.678 C4.789,18.186 5.18,17.658 5.752,17.328 A9.995 9.995 0 0 1 5.012,14 L3,14 A1 1 0 1 1 3,12 L5.108,12 A9.78 9.78 0 0 1 5.724,9.724 A5.482 5.482 0 0 1 4.758,9.207 C4.107,8.773 3.458,8.154 3.106,7.447 A1 1 0 0 1 4.836,6.451 L4.894,6.553 C5.041,6.846 5.394,7.227 5.867,7.543 C6.353,7.867 6.781,8 7,8 L17,8 C17.219,8 17.647,7.867 18.133,7.543 C18.548,7.266 18.869,6.94 19.041,6.667 L19.106,6.553 A1 1 0 0 1 20.447,6.106 M16.208,10 L7.792,10 C7.294,11.004 7,12.202 7,13.5 C7,16.809 8.837,19.273 11,19.864 L11,13 A1 1 0 1 1 13,13 L13,19.864 C15.163,19.273 17,16.809 17,13.5 C17,12.202 16.706,11.004 16.208,10 M12,3 A4.998 4.998 0 0 1 16.33,5.5 L17.2,7 L6.8,7 L7.669,5.5 A4.998 4.998 0 0 1 12,3"/>
</svg>

