<svg xmlns="http://www.w3.org/2000/svg" width="24" height="24">
  <defs/>
  <path  d="M17,2 C18.105,2 19,2.895 19,4 L19,20 C19.552,20 20,20.448 20,21 C20,21.552 19.552,22 19,22 L5,22 C4.448,22 4,21.552 4,21 C4,20.448 4.448,20 5,20 L5,4 C5,2.895 5.895,2 7,2 Z M13,13 L11,13 C10.448,13 10,13.448 10,14 L10,20 L14,20 L14,14 C14,13.448 13.552,13 13,13 Z M10,9 C9.448,9 9,9.448 9,10 C9,10.552 9.448,11 10,11 C10.552,11 11,10.552 11,10 C11,9.448 10.552,9 10,9 Z M14,9 C13.448,9 13,9.448 13,10 C13,10.552 13.448,11 14,11 C14.552,11 15,10.552 15,10 C15,9.448 14.552,9 14,9 Z M10,6 C9.448,6 9,6.448 9,7 C9,7.552 9.448,8 10,8 C10.552,8 11,7.552 11,7 C11,6.448 10.552,6 10,6 Z M14,6 C13.448,6 13,6.448 13,7 C13,7.552 13.448,8 14,8 C14.552,8 15,7.552 15,7 C15,6.448 14.552,6 14,6 Z"/>
</svg>

