<svg xmlns="http://www.w3.org/2000/svg" width="24" height="24">
  <defs/>
  <path  d="M13.026,2.27 C13.461,2.125 13.939,2.187 14.323,2.439 C14.707,2.691 14.954,3.105 14.994,3.562 L15,3.694 L15,9.18 L18.794,9.94 C19.443,10.069 19.931,10.609 19.994,11.268 L20,11.41 L20,19 L21,19 C21.529,19.001 21.966,19.413 21.997,19.941 C22.028,20.47 21.642,20.931 21.117,20.993 L21,21 L3,21 C2.471,20.999 2.034,20.587 2.003,20.059 C1.972,19.53 2.358,19.069 2.883,19.007 L3,19 L4,19 L4,6.36 C4,5.76 4.356,5.224 4.898,4.986 L5.026,4.937 Z M13,4.388 L6,6.721 L6,19 L13,19 Z M15,11.221 L15,19 L18,19 L18,11.82 Z"/>
</svg>

