<svg xmlns="http://www.w3.org/2000/svg" width="24" height="24">
  <defs/>
  <path  d="M13,3 C14.047,3 14.917,3.806 14.995,4.85 L15,5 L15,19 L16,19 L16,9.5 C16,9.259 16.172,9.051 16.41,9.008 L16.5,9 L18,9 C19.047,9 19.917,9.806 19.995,10.85 L20,11 L20,19 L21,19 C21.529,19.001 21.966,19.413 21.997,19.941 C22.028,20.47 21.642,20.931 21.117,20.993 L21,21 L3,21 C2.471,20.999 2.034,20.587 2.003,20.059 C1.972,19.53 2.358,19.069 2.883,19.007 L3,19 L4,19 L4,5 C4,3.953 4.806,3.083 5.85,3.005 L6,3 Z M11,7 L8,7 L8,9 L11,9 Z M11,11 L8,11 L8,13 L11,13 Z M11,15 L8,15 L8,17 L11,17 Z"/>
</svg>

