<svg xmlns="http://www.w3.org/2000/svg" width="24" height="24">
  <defs/>
  <path  d="M17,2 A2 2 0 0 1 19,4 L19,20 A1 1 0 1 1 19,22 L5,22 A1 1 0 1 1 5,20 L5,4 A2 2 0 0 1 7,2 Z M17,4 L7,4 L7,20 L9,20 L9,14.5 A1.5 1.5 0 0 1 10.356,13.007 L10.5,13 L13.5,13 A1.5 1.5 0 0 1 14.993,14.356 L15,14.5 L15,20 L17,20 Z M13,15 L11,15 L11,20 L13,20 Z M10,9 A1 1 0 1 1 10,11 A1 1 0 0 1 10,9 M14,9 A1 1 0 1 1 14,11 A1 1 0 0 1 14,9 M10,6 A1 1 0 1 1 10,8 A1 1 0 0 1 10,6 M14,6 A1 1 0 1 1 14,8 A1 1 0 0 1 14,6"/>
</svg>

