<svg xmlns="http://www.w3.org/2000/svg" width="24" height="24">
  <defs/>
  <path  d="M17,3.722 L17,9.219 L19.864,9.935 C20.532,10.102 21,10.702 21,11.39 L21,19 C21.552,19 22,19.448 22,20 C22,20.552 21.552,21 21,21 L3,21 C2.448,21 2,20.552 2,20 C2,19.448 2.448,19 3,19 L3,11.31 C3,10.741 3.321,10.221 3.83,9.967 L7,8.382 L7,6.347 C7,5.722 7.387,5.162 7.973,4.942 L14.973,2.317 C15.434,2.144 15.95,2.208 16.355,2.489 C16.759,2.769 17,3.23 17,3.722 Z M15,4.443 L9,6.693 L9,19 L15,19 Z M7,10.618 L5,11.618 L5,19 L7,19 Z M17,11.281 L17,19 L19,19 L19,11.78 Z"/>
</svg>

