<svg xmlns="http://www.w3.org/2000/svg" width="24" height="24">
  <defs/>
  <path  d="M13,20 A1 1 0 1 1 13,22 L11,22 A1 1 0 1 1 11,20 Z M12,2 C16.41,2 20,5.543 20,9.933 C20,12.939 18.478,15.129 17.22,16.427 L16.936,16.71 L16.666,16.962 L16.414,17.182 L16.084,17.452 L15.756,17.696 C15.56,17.834 15.416,18.025 15.29,18.231 L15.145,18.482 L15.004,18.734 C14.764,19.146 14.486,19.5 13.893,19.5 L10.107,19.5 C9.514,19.5 9.236,19.146 8.997,18.734 L8.784,18.356 C8.639,18.103 8.479,17.862 8.244,17.696 L8.012,17.525 L7.813,17.37 L7.586,17.182 L7.334,16.962 L7.064,16.71 L6.779,16.427 C5.522,15.129 4,12.939 4,9.933 C4,5.543 7.59,2 12,2 M12,4 C8.677,4 6,6.665 6,9.933 C6,12.557 7.533,14.427 8.593,15.404 L8.838,15.622 L9.058,15.804 L9.328,16.012 L9.4,16.064 C9.715,16.286 9.949,16.595 10.162,16.918 L10.535,17.5 L13.465,17.5 L13.838,16.918 C14.051,16.595 14.285,16.286 14.6,16.064 L14.843,15.882 L15.049,15.717 L15.282,15.517 C16.342,14.576 18,12.662 18,9.933 C18,6.665 15.323,4 12,4 M12.293,6.293 A1 1 0 0 1 13.79,7.613 L13.707,7.707 L12.414,9 L13.7,10.286 C14.064,10.65 14.092,11.223 13.784,11.619 L13.7,11.714 L11.707,13.707 A1 1 0 0 1 10.21,12.387 L10.293,12.293 L11.586,11 L10.3,9.714 A1.01 1.01 0 0 1 10.216,8.381 L10.3,8.286 Z"/>
</svg>

