<svg xmlns="http://www.w3.org/2000/svg" width="24" height="24">
  <defs/>
  <path  d="M13,20 A1 1 0 0 1 13.117,21.993 L13,22 L11,22 A1 1 0 0 1 10.883,20.007 L11,20 Z M12,2 C16.41,2 20,5.543 20,9.933 C20,12.939 18.478,15.129 17.22,16.427 L16.936,16.71 L16.666,16.962 L16.414,17.182 L16.084,17.452 L15.756,17.696 C15.515,17.866 15.353,18.115 15.206,18.374 L15.001,18.738 C14.763,19.148 14.484,19.5 13.893,19.5 L10.107,19.5 C9.517,19.5 9.237,19.149 8.999,18.738 L8.881,18.53 C8.709,18.218 8.533,17.9 8.244,17.696 L8.012,17.525 L7.813,17.37 L7.586,17.182 L7.334,16.962 L7.064,16.71 L6.779,16.427 C5.522,15.129 4,12.939 4,9.933 C4,5.543 7.59,2 12,2 M13.707,6.293 A1 1 0 0 0 12.387,6.21 L12.293,6.293 L10.3,8.286 A1.01 1.01 0 0 0 10.216,9.619 L10.3,9.714 L11.586,11 L10.293,12.293 A1 1 0 0 0 11.613,13.79 L11.707,13.707 L13.7,11.714 A1.01 1.01 0 0 0 13.784,10.381 L13.7,10.286 L12.414,9 L13.707,7.707 A1 1 0 0 0 13.707,6.293"/>
</svg>

