<svg xmlns="http://www.w3.org/2000/svg" width="24" height="24">
  <defs/>
  <path  d="M12,2 C15.707,1.999 18.986,4.401 20.105,7.934 C21.224,11.468 19.924,15.319 16.892,17.452 L15.447,20.342 C14.939,21.358 13.9,22 12.764,22 L11.236,22 C10.1,22 9.061,21.358 8.553,20.342 L7.108,17.452 C4.076,15.319 2.776,11.468 3.895,7.934 C5.014,4.401 8.293,1.999 12,2 Z M14,18.763 C13.345,18.921 12.674,19 12,19 C11.326,19 10.655,18.921 10,18.763 L10.342,19.447 C10.511,19.786 10.857,20 11.236,20 L12.764,20 C13.143,20 13.489,19.786 13.658,19.447 Z"/>
</svg>

