<svg xmlns="http://www.w3.org/2000/svg" width="24" height="24">
  <defs/>
  <path  d="M3.5,10.5 C3.5,6.471 6.33,2.995 10.275,2.178 C14.221,1.36 18.198,3.425 19.8,7.122 C21.401,10.819 20.187,15.133 16.892,17.452 L15.447,20.342 C14.939,21.358 13.9,22 12.764,22 L11.236,22 C10.1,22 9.061,21.358 8.553,20.342 L7.108,17.452 C4.844,15.861 3.498,13.267 3.5,10.5 Z M12,4 C8.41,4 5.5,6.91 5.5,10.5 C5.5,14.09 8.41,17 12,17 C15.59,17 18.5,14.09 18.5,10.5 C18.5,6.91 15.59,4 12,4 Z M10,18.763 L10.342,19.447 C10.511,19.786 10.857,20 11.236,20 L12.764,20 C13.143,20 13.489,19.786 13.658,19.447 L14,18.763 C13.345,18.921 12.674,19 12,19 C11.326,19 10.655,18.921 10,18.763 Z"/>
</svg>

