<svg xmlns="http://www.w3.org/2000/svg" width="24" height="24">
  <defs/>
  <path  d="M9,1 C9.552,1 10,1.448 10,2 L10,3.133 C10.527,3.266 11.04,3.454 11.528,3.693 C12.468,4.146 13.499,4.835 14.458,5.793 C14.821,6.157 15.174,6.559 15.506,7 L16,7 C16.427,7 16.807,7.271 16.946,7.674 C17.085,8.078 16.952,8.525 16.616,8.788 C17.453,10.454 18,12.511 18,15 C18,17.016 17.662,19.03 17.25,21 L19,21 C19.552,21 20,21.448 20,22 C20,22.552 19.552,23 19,23 L7,23 C6.448,23 6,22.552 6,22 C6,21.448 6.448,21 7,21 L8,21 L8,9 C7.448,9 7,8.552 7,8 C7,7.448 7.448,7 8,7 L8,2 C8,1.448 8.448,1 9,1 Z M10,13 L10,16 L15.966,16 C16.036,14.9 15.991,13.906 15.856,13 L10,13 Z M15.752,18 L10,18 L10,21 L15.205,21 C15.358,20.3 15.583,19.185 15.752,18 Z M10,9 L10,11 L15.378,11 C15.125,10.255 14.808,9.59 14.448,9 L10,9 Z M10,5.218 L10,7 L12.83,7 C12.017,6.238 11.056,5.592 10,5.218 Z"/>
</svg>

