<svg xmlns="http://www.w3.org/2000/svg" width="24" height="24">
  <defs/>
  <path  d="M10,2 L10,3.133 C11.692,3.543 13.24,4.576 14.457,5.793 C14.834,6.17 15.185,6.574 15.506,7 L16,7 C16.428,6.997 16.81,7.268 16.95,7.673 C17.089,8.078 16.955,8.526 16.616,8.788 C17.453,10.454 18,12.511 18,15 C18,16.59 17.737,18.41 17.484,19.804 C17.403,20.247 17.323,20.653 17.25,21 L19,21 C19.552,21 20,21.448 20,22 C20,22.552 19.552,23 19,23 L7,23 C6.448,23 6,22.552 6,22 C6,21.448 6.448,21 7,21 L8,21 L8,9 C7.448,9 7,8.552 7,8 C7,7.448 7.448,7 8,7 L8,2 C8,1.448 8.448,1 9,1 C9.552,1 10,1.448 10,2 Z M10,7 L10,9 L14.449,9 C14.003,8.263 13.458,7.59 12.83,7 Z"/>
</svg>

