<svg xmlns="http://www.w3.org/2000/svg" width="24" height="24">
  <defs/>
  <path  d="M13,2 L13,4 C13.552,4 14,4.448 14,5 L14,8.134 C14.309,8.313 14.5,8.643 14.5,9 L14.5,12.134 C14.809,12.313 15,12.643 15,13 L15,16 C15.552,16 16,16.448 16,17 L16,21 C16.552,21 17,21.448 17,22 C17,22.552 16.552,23 16,23 L8,23 C7.448,23 7,22.552 7,22 C7,21.448 7.448,21 8,21 L8,16 C8,15.448 8.448,15 9,15 L9,12 C9,11.643 9.191,11.313 9.5,11.134 L9.5,8 C9.5,7.643 9.691,7.313 10,7.134 L10,5 C10,4.448 10.448,4 11,4 L11,2 C11,1.448 11.448,1 12,1 C12.552,1 13,1.448 13,2 Z M14,18 C13.448,18 13,17.552 13,17 L13,13.866 C12.691,13.687 12.5,13.357 12.5,13 L12.5,9.866 C12.191,9.687 12,9.357 12,9 L12,8 C12,8.357 11.809,8.687 11.5,8.866 L11.5,12 C11.5,12.357 11.309,12.687 11,12.866 L11,16 C11,16.552 10.552,17 10,17 L10,21 L14,21 Z"/>
</svg>

