<svg xmlns="http://www.w3.org/2000/svg" width="24" height="24">
  <defs/>
  <path  d="M18,3 C19.657,3 21,4.343 21,6 C21.552,6 22,6.448 22,7 L22,9 C22,9.552 21.552,10 21,10 L21,17 C21,17.715 20.619,18.375 20,18.732 L20,19.5 C20,20.328 19.328,21 18.5,21 C17.672,21 17,20.328 17,19.5 L17,19 L7,19 L7,19.5 C7,20.328 6.328,21 5.5,21 C4.672,21 4,20.328 4,19.5 L4,18.732 C3.381,18.375 3,17.715 3,17 L3,10 C2.448,10 2,9.552 2,9 L2,7 C2,6.448 2.448,6 3,6 C3,4.343 4.343,3 6,3 L18,3 Z M11.618,5 L9.894,8.447 C9.638,8.923 9.05,9.108 8.567,8.867 C8.083,8.625 7.879,8.043 8.106,7.553 L9.382,5 L6,5 C5.448,5 5,5.448 5,6 L5,11 L19,11 L19,6 C19,5.448 18.552,5 18,5 L16.618,5 L14.894,8.447 C14.741,8.778 14.42,9 14.056,9.025 C13.693,9.051 13.344,8.876 13.146,8.57 C12.948,8.264 12.933,7.874 13.106,7.553 L14.382,5 Z M6,15 C6,15.552 6.448,16 7,16 L8,16 C8.552,16 9,15.552 9,15 C9,14.448 8.552,14 8,14 L7,14 C6.448,14 6,14.448 6,15 Z M15,15 C15,15.552 15.448,16 16,16 L17,16 C17.552,16 18,15.552 18,15 C18,14.448 17.552,14 17,14 L16,14 C15.448,14 15,14.448 15,15 Z"/>
</svg>

