<svg xmlns="http://www.w3.org/2000/svg" width="24" height="24">
  <defs/>
  <path  d="M18,3 A3 3 0 0 1 21,6 A1 1 0 0 1 21.993,6.883 L22,7 L22,9 A1 1 0 0 1 21.117,9.993 L21,10 L21,17 C21,17.683 20.657,18.287 20.134,18.647 L20,18.732 L20,19.5 A1.5 1.5 0 0 1 17.007,19.644 L17,19.5 L17,19 L7,19 L7,19.5 A1.5 1.5 0 0 1 4.007,19.644 L4,19.5 L4,18.732 A2 2 0 0 1 3.007,17.169 L3,17 L3,10 A1 1 0 0 1 2.007,9.117 L2,9 L2,7 A1 1 0 0 1 3,6 A3 3 0 0 1 5.824,3.005 L6,3 Z M19,13 L5,13 L5,17 L19,17 Z M8,14 A1 1 0 1 1 8,16 L7,16 A1 1 0 1 1 7,14 Z M17,14 A1 1 0 0 1 17.117,15.993 L17,16 L16,16 A1 1 0 0 1 15.883,14.007 L16,14 Z M9.382,5 L6,5 A1 1 0 0 0 5,6 L5,11 L19,11 L19,6 A1 1 0 0 0 18,5 L16.618,5 L14.894,8.447 A1 1 0 1 1 13.106,7.553 L14.382,5 L11.618,5 L9.894,8.447 A1 1 0 0 1 8.106,7.553 Z"/>
</svg>

