<svg xmlns="http://www.w3.org/2000/svg" width="24" height="24">
  <defs/>
  <path  d="M18.93,5 C19.863,5 20.742,5.433 21.31,6.173 L21.426,6.336 L22.496,7.941 C22.783,8.371 22.954,8.868 22.992,9.384 L23,9.606 L23,16 C23,17.047 22.194,17.917 21.15,17.995 L21,18 L20.83,18 C20.417,19.167 19.33,19.961 18.093,19.999 C16.855,20.037 15.722,19.312 15.238,18.172 L15.17,18 L8.829,18 C8.416,19.167 7.329,19.96 6.092,19.998 C4.855,20.036 3.722,19.311 3.238,18.172 L3.17,18 L3,18 C1.953,18 1.083,17.194 1.005,16.15 L1,16 L1,8 C1,6.411 2.238,5.098 3.824,5.005 L4,5 Z M18.93,7 L18,7 L18,11 L21,11 L21,9.606 C21,9.408 20.942,9.215 20.832,9.051 L19.762,7.445 C19.576,7.167 19.264,7 18.93,7 Z M11,7 L8,7 L8,10 L11,10 Z M16,7 L13,7 L13,10 L16,10 Z M6,7 L4,7 C3.493,7 3.066,7.38 3.007,7.883 L3,8 L3,10 L6,10 Z M6,16 C5.448,16 5,16.448 5,17 C5,17.552 5.448,18 6,18 C6.552,18 7,17.552 7,17 C7,16.448 6.552,16 6,16 Z M18,16 C17.448,16 17,16.448 17,17 C17,17.552 17.448,18 18,18 C18.552,18 19,17.552 19,17 C19,16.448 18.552,16 18,16 Z"/>
</svg>

