<svg xmlns="http://www.w3.org/2000/svg" width="24" height="24">
  <defs/>
  <path  d="M14.758,3.03 C15.273,2.899 15.8,3.194 15.958,3.701 C16.117,4.208 15.851,4.75 15.354,4.936 L15.243,4.97 C14.908,5.054 14.537,5.331 14.158,5.826 C13.946,6.105 13.758,6.416 13.596,6.727 C14.304,6.245 15.143,5.991 16,6 C17.536,6 18.816,6.633 19.695,7.672 C20.561,8.695 21,10.061 21,11.5 C21.001,13.679 19.715,15.653 17.722,16.533 C18.347,18.116 17.902,19.921 16.613,21.032 C15.324,22.143 13.473,22.316 12,21.465 C10.527,22.316 8.676,22.143 7.387,21.032 C6.098,19.921 5.653,18.116 6.278,16.533 C4.285,15.653 2.999,13.679 3,11.5 C3,10.061 3.439,8.695 4.305,7.672 C5.185,6.633 6.464,6 8,6 C8.974,6 9.764,6.294 10.404,6.727 C10.242,6.412 10.054,6.111 9.842,5.827 C9.505,5.387 9.174,5.118 8.87,5.005 L8.757,4.97 C8.225,4.833 7.903,4.292 8.037,3.759 C8.17,3.226 8.709,2.9 9.243,3.03 C10.211,3.272 10.931,3.958 11.431,4.612 C11.64,4.887 11.83,5.176 12,5.477 C12.171,5.176 12.361,4.887 12.57,4.612 C13.07,3.958 13.789,3.272 14.758,3.03 Z M16,8 C14.76,8 13.98,8.897 13.398,10.017 C13.155,10.485 13.033,11.037 13.006,11.637 L13,11.9 L13,19.734 C13.859,20.23 14.951,20.022 15.567,19.245 C16.183,18.468 16.137,17.357 15.459,16.634 C15.205,16.363 15.122,15.974 15.243,15.623 C15.364,15.272 15.67,15.017 16.037,14.961 C17.743,14.696 19.001,13.226 19,11.5 C19,10.454 18.681,9.57 18.169,8.964 C17.669,8.374 16.949,8 16,8 Z M8,8 C7.051,8 6.33,8.375 5.831,8.964 C5.32,9.57 5,10.454 5,11.5 C5,13.226 6.258,14.695 7.964,14.96 C8.331,15.017 8.636,15.271 8.757,15.622 C8.878,15.973 8.795,16.361 8.541,16.632 C7.863,17.355 7.817,18.466 8.433,19.243 C9.049,20.02 10.141,20.228 11,19.732 L11,11.9 C11,11.196 10.88,10.553 10.602,10.018 C10.02,8.897 9.24,8 8,8 Z"/>
</svg>

