<svg xmlns="http://www.w3.org/2000/svg" width="24" height="24">
  <defs/>
  <path  d="M7.783,4.016 C9.227,4.279 10.711,5.016 12,6.149 C13.288,5.017 14.772,4.279 16.216,4.017 C17.843,3.721 19.522,4.021 20.698,5.197 C21.851,6.35 22.163,7.988 21.895,9.584 C21.656,11.015 20.947,12.49 19.85,13.778 C20.369,15.833 19.536,17.991 17.771,19.165 C16.007,20.338 13.695,20.272 12,19 C10.306,20.271 7.994,20.337 6.23,19.163 C4.467,17.99 3.634,15.833 4.151,13.779 C3.053,12.491 2.344,11.015 2.104,9.585 C1.836,7.989 2.148,6.35 3.301,5.196 C4.477,4.021 6.156,3.721 7.783,4.016 Z"/>
</svg>

