<svg xmlns="http://www.w3.org/2000/svg" width="24" height="24">
  <defs/>
  <path  d="M9.243,3.03 A1 1 0 0 0 8.757,4.97 C9.092,5.054 9.463,5.331 9.842,5.826 C10.054,6.105 10.242,6.416 10.404,6.727 A4.196 4.196 0 0 0 8,6 C6.464,6 5.184,6.633 4.305,7.672 C3.439,8.695 3,10.061 3,11.5 A5.5 5.5 0 0 0 6.278,16.533 A4 4 0 0 0 12,21.465 A4 4 0 0 0 17.722,16.533 A5.5 5.5 0 0 0 21,11.5 C21,10.061 20.561,8.695 19.695,7.672 C18.815,6.633 17.536,6 16,6 C15.026,6 14.236,6.294 13.596,6.727 C13.758,6.417 13.946,6.105 14.158,5.827 C14.537,5.331 14.908,5.054 15.243,4.97 A1 1 0 1 0 14.757,3.03 C13.789,3.272 13.069,3.958 12.569,4.612 C12.355,4.892 12.166,5.187 12,5.477 A7.8 7.8 0 0 0 11.43,4.612 C10.93,3.958 10.211,3.272 9.243,3.03"/>
</svg>

