<svg xmlns="http://www.w3.org/2000/svg" width="24" height="24">
  <defs/>
  <path  d="M7.783,4.016 C9.227,4.278 10.711,5.016 12,6.148 C13.29,5.016 14.773,4.278 16.217,4.016 C17.844,3.72 19.523,4.02 20.699,5.196 C21.852,6.35 22.164,7.987 21.896,9.583 C21.656,11.014 20.948,12.489 19.849,13.778 C20.367,15.832 19.534,17.99 17.77,19.163 C16.007,20.337 13.695,20.271 12,19 C10.305,20.272 7.993,20.338 6.229,19.165 C4.464,17.991 3.631,15.833 4.15,13.778 C3.054,12.489 2.344,11.014 2.105,9.583 C1.837,7.987 2.149,6.35 3.302,5.196 C4.477,4.02 6.156,3.72 7.783,4.016 Z M13.331,17.493 C14.421,18.224 15.861,18.162 16.883,17.338 C17.906,16.515 18.275,15.122 17.793,13.901 C17.648,13.537 17.729,13.123 18,12.84 C19.089,11.705 19.73,10.406 19.924,9.252 C20.118,8.095 19.855,7.18 19.284,6.61 C18.704,6.029 17.763,5.767 16.574,5.983 C15.556,6.168 14.431,6.699 13.408,7.573 L13.468,7.628 C13.831,7.974 14.113,8.428 14.328,8.911 C14.758,9.881 15,11.15 15,12.499 C15,13.848 14.759,15.117 14.328,16.087 C14.113,16.57 13.831,17.024 13.468,17.37 C13.424,17.412 13.378,17.452 13.33,17.492 Z M4.715,6.61 L4.716,6.611 C4.146,7.181 3.882,8.096 4.076,9.253 C4.27,10.407 4.911,11.706 6,12.842 C6.27,13.124 6.351,13.537 6.208,13.9 C5.726,15.122 6.094,16.515 7.117,17.339 C8.14,18.162 9.579,18.225 10.67,17.493 C10.622,17.453 10.576,17.413 10.532,17.371 C10.169,17.025 9.887,16.571 9.672,16.088 C9.241,15.118 9,13.849 9,12.5 C9,11.15 9.24,9.882 9.672,8.911 C9.887,8.428 10.169,7.974 10.532,7.628 C10.552,7.609 10.572,7.591 10.592,7.573 C9.569,6.699 8.445,6.168 7.425,5.983 C6.237,5.767 5.296,6.029 4.715,6.61 Z M11,12.5 L10.999,12.5 C10.999,13.636 11.207,14.616 11.499,15.276 C11.647,15.606 11.796,15.812 11.911,15.922 C11.99,15.997 12.009,15.997 12.089,15.922 C12.204,15.812 12.353,15.606 12.5,15.276 C12.793,14.617 13,13.636 13,12.5 C13,11.364 12.793,10.384 12.5,9.724 C12.353,9.393 12.204,9.188 12.089,9.078 C12.01,9.002 11.99,9.002 11.91,9.078 C11.796,9.187 11.647,9.394 11.5,9.724 C11.207,10.383 11,11.364 11,12.5 Z"/>
</svg>

