<svg xmlns="http://www.w3.org/2000/svg" width="24" height="24">
  <defs/>
  <path  d="M12,3 C12.552,3 13,3.448 13,4 L13,4.055 C14.69,4.242 16.291,4.905 17.618,5.968 L17.657,5.928 C18.048,5.538 18.681,5.538 19.072,5.929 C19.462,6.319 19.462,6.953 19.071,7.343 L19.031,7.383 C20.095,8.709 20.759,10.31 20.946,12 L21,12 C21.552,12 22,12.448 22,13 C22,13.552 21.552,14 21,14 L20.945,14 C20.758,15.69 20.095,17.291 19.032,18.618 L19.072,18.657 C19.462,19.048 19.462,19.681 19.072,20.072 C18.681,20.462 18.047,20.462 17.657,20.071 L17.617,20.031 C17.223,20.347 16.803,20.629 16.361,20.874 C16.213,20.956 16.046,21 15.876,21 L8.124,21 C7.954,21 7.787,20.956 7.639,20.874 C7.197,20.629 6.777,20.347 6.382,20.032 L6.343,20.072 C5.952,20.462 5.319,20.462 4.929,20.072 C4.538,19.681 4.538,19.047 4.929,18.657 L4.969,18.617 C3.906,17.291 3.241,15.69 3.054,14 L3,14 C2.448,14 2,13.552 2,13 C2,12.448 2.448,12 3,12 L3.055,12 C3.242,10.31 3.905,8.709 4.968,7.382 L4.928,7.343 C4.538,6.952 4.538,6.319 4.93,5.929 C5.321,5.538 5.954,5.539 6.344,5.93 L6.384,5.97 C7.71,4.906 9.311,4.242 11,4.054 L11,4 C11,3.448 11.448,3 12,3 Z M12,6.596 C10.697,8.477 9.999,10.711 10,13 C10,15.572 10.865,17.569 11.624,18.825 L11.732,19 L12.268,19 C14.672,15.185 14.566,10.304 12,6.596 Z M9.784,6.358 C7.236,7.209 5.4,9.443 5.058,12.107 C4.715,14.772 5.927,17.397 8.177,18.865 L8.392,19 L9.436,19 C9.012,18.165 8.678,17.288 8.438,16.383 L8.343,16 L7.5,16 C6.971,15.999 6.534,15.587 6.503,15.059 C6.472,14.53 6.858,14.069 7.383,14.007 L7.5,14 L8.037,14 C7.991,13.387 7.988,12.772 8.027,12.158 L7.974,12.133 L7.923,12.106 L7.057,11.606 C6.597,11.342 6.423,10.765 6.661,10.291 C6.899,9.816 7.465,9.61 7.952,9.821 L8.057,9.873 L8.335,10.034 C8.608,8.851 9.041,7.711 9.622,6.646 Z M14.216,6.358 L14.378,6.646 C14.959,7.711 15.392,8.851 15.665,10.034 L15.943,9.874 C16.253,9.682 16.643,9.674 16.96,9.853 C17.278,10.032 17.473,10.37 17.469,10.734 C17.465,11.099 17.264,11.432 16.943,11.605 L16.077,12.105 C16.044,12.125 16.009,12.142 15.974,12.158 C16.013,12.772 16.009,13.387 15.963,14 L16.5,14 C17.052,14 17.5,14.448 17.5,15 C17.5,15.552 17.052,16 16.5,16 L15.657,16 C15.414,17.04 15.047,18.047 14.564,19 L15.608,19 C17.949,17.591 19.257,14.949 18.958,12.234 C18.659,9.518 16.807,7.224 14.216,6.358 Z"/>
</svg>

