<svg xmlns="http://www.w3.org/2000/svg" width="24" height="24">
  <defs/>
  <path  d="M12,2 C14.209,2 16,3.791 16,6 L16,14 L17,14 C17.552,14 18,13.552 18,13 L18,8 C18,7.448 18.448,7 19,7 C19.552,7 20,7.448 20,8 L20,13 C20,14.657 18.657,16 17,16 L16,16 L16,20 L18,20 C18.552,20 19,20.448 19,21 C19,21.552 18.552,22 18,22 L6,22 C5.448,22 5,21.552 5,21 C5,20.448 5.448,20 6,20 L8,20 L8,14 L7,14 C5.343,14 4,12.657 4,11 L4,9 C4,8.448 4.448,8 5,8 C5.552,8 6,8.448 6,9 L6,11 C6,11.552 6.448,12 7,12 L8,12 L8,6 C8,3.791 9.791,2 12,2 Z"/>
</svg>

