<svg xmlns="http://www.w3.org/2000/svg" width="24" height="24">
  <defs/>
  <path  d="M12,3 C12.552,3 13,3.448 13,4 L13,4.055 C14.69,4.242 16.291,4.905 17.618,5.968 L17.657,5.928 C18.048,5.538 18.681,5.538 19.072,5.929 C19.462,6.319 19.462,6.953 19.071,7.343 L19.031,7.383 C20.095,8.709 20.759,10.31 20.946,12 L21,12 C21.552,12 22,12.448 22,13 C22,13.552 21.552,14 21,14 L20.945,14 C20.758,15.69 20.095,17.291 19.032,18.618 L19.072,18.657 C19.462,19.048 19.462,19.681 19.072,20.072 C18.681,20.462 18.047,20.462 17.657,20.071 L17.617,20.031 C17.223,20.347 16.803,20.629 16.361,20.874 C16.213,20.956 16.046,21 15.876,21 L8.124,21 C7.954,21 7.787,20.956 7.639,20.874 C7.197,20.629 6.777,20.347 6.382,20.032 L6.343,20.072 C5.952,20.462 5.319,20.462 4.929,20.072 C4.538,19.681 4.538,19.047 4.929,18.657 L4.969,18.617 C3.906,17.291 3.241,15.69 3.054,14 L3,14 C2.448,14 2,13.552 2,13 C2,12.448 2.448,12 3,12 L3.055,12 C3.242,10.31 3.905,8.709 4.968,7.382 L4.928,7.343 C4.538,6.952 4.538,6.319 4.93,5.929 C5.321,5.538 5.954,5.539 6.344,5.93 L6.384,5.97 C7.71,4.906 9.311,4.242 11,4.054 L11,4 C11,3.448 11.448,3 12,3 Z M8.343,16 C8.586,17.04 8.953,18.047 9.436,19 L11.732,19 C9.328,15.185 9.434,10.304 12,6.596 C13.303,8.477 14.001,10.711 14,13 C14,15.695 13.05,17.757 12.268,19 L14.564,19 C15.048,18.048 15.415,17.04 15.657,16 L16.5,16 C17.052,16 17.5,15.552 17.5,15 C17.5,14.448 17.052,14 16.5,14 L15.963,14 C16.009,13.387 16.012,12.772 15.973,12.158 C16.009,12.143 16.043,12.125 16.077,12.106 L16.943,11.606 C17.255,11.429 17.448,11.098 17.449,10.739 C17.45,10.38 17.258,10.048 16.947,9.87 C16.636,9.691 16.253,9.693 15.943,9.874 L15.665,10.034 C15.367,8.743 14.879,7.504 14.216,6.358 C13.501,6.12 12.753,5.999 12,6 C11.247,5.999 10.499,6.12 9.784,6.358 C9.12,7.504 8.632,8.743 8.335,10.034 L8.057,9.874 C7.579,9.602 6.972,9.767 6.697,10.243 C6.422,10.719 6.583,11.328 7.057,11.606 L7.923,12.106 C7.957,12.126 7.991,12.143 8.026,12.158 C7.987,12.772 7.991,13.387 8.037,14 L7.5,14 C6.948,14 6.5,14.448 6.5,15 C6.5,15.552 6.948,16 7.5,16 Z"/>
</svg>

