<svg xmlns="http://www.w3.org/2000/svg" width="24" height="24">
  <defs/>
  <path  d="M17.707,15.707 A0.414 0.414 0 0 1 18.293,15.707 A2.415 2.415 0 0 0 21,16.198 L21,20 A1 1 0 1 1 21,22 L3,22 A1 1 0 1 1 3,20 L3,16.198 C3.89,16.603 4.975,16.439 5.707,15.708 A0.414 0.414 0 0 1 6.293,15.708 A2.414 2.414 0 0 0 9.707,15.708 A0.414 0.414 0 0 1 10.293,15.708 A2.414 2.414 0 0 0 13.707,15.708 A0.414 0.414 0 0 1 14.293,15.708 A2.414 2.414 0 0 0 17.707,15.708 Z M16,6 A1 1 0 0 1 17,7 L17,9 L18,9 A3 3 0 0 1 21,12 L21,13.586 L20.293,14.293 A0.414 0.414 0 0 1 19.707,14.293 A2.414 2.414 0 0 0 16.293,14.293 A0.414 0.414 0 0 1 15.707,14.293 A2.414 2.414 0 0 0 12.293,14.293 A0.414 0.414 0 0 1 11.707,14.293 A2.414 2.414 0 0 0 8.293,14.293 A0.414 0.414 0 0 1 7.707,14.293 A2.414 2.414 0 0 0 4.293,14.293 A0.414 0.414 0 0 1 3.707,14.293 L3,13.586 L3,12 A3 3 0 0 1 6,9 L7,9 L7,7 A1 1 0 0 1 9,7 L9,9 L11,9 L11,7 A1 1 0 1 1 13,7 L13,9 L15,9 L15,7 A1 1 0 0 1 16,6 M12.5,2 C12.181,2.638 12.472,3.05 12.725,3.41 C12.869,3.613 13,3.8 13,4 A1 1 0 1 1 11,4 C11,3.448 11.5,2.5 12.5,2 M8.5,2 C8.181,2.638 8.472,3.05 8.725,3.41 C8.869,3.613 9,3.8 9,4 A1 1 0 0 1 7,4 C7,3.448 7.5,2.5 8.5,2 M16.5,2 C16.181,2.638 16.472,3.05 16.725,3.41 C16.869,3.613 17,3.8 17,4 A1 1 0 1 1 15,4 C15,3.448 15.5,2.5 16.5,2"/>
</svg>

