<svg xmlns="http://www.w3.org/2000/svg" width="24" height="24">
  <defs/>
  <path  d="M16,6 C16.552,6 17,6.448 17,7 L17,9 L18,9 C19.657,9 21,10.343 21,12 L21,20 C21.552,20 22,20.448 22,21 C22,21.552 21.552,22 21,22 L3,22 C2.448,22 2,21.552 2,21 C2,20.448 2.448,20 3,20 L3,12 C3,10.343 4.343,9 6,9 L7,9 L7,7 C7,6.448 7.448,6 8,6 C8.552,6 9,6.448 9,7 L9,9 L11,9 L11,7 C11,6.448 11.448,6 12,6 C12.552,6 13,6.448 13,7 L13,9 L15,9 L15,7 C15,6.448 15.448,6 16,6 Z M17.707,15.707 C16.764,16.65 15.236,16.65 14.293,15.707 C14.215,15.629 14.11,15.585 14,15.585 C13.89,15.585 13.785,15.629 13.707,15.707 C12.764,16.65 11.236,16.65 10.293,15.707 C10.215,15.629 10.11,15.585 10,15.585 C9.89,15.585 9.785,15.629 9.707,15.707 C8.764,16.65 7.236,16.65 6.293,15.707 C6.215,15.629 6.11,15.585 6,15.585 C5.89,15.585 5.785,15.629 5.707,15.707 L5,16.414 L5,20 L19,20 L19,16.414 L18.293,15.707 C18.215,15.629 18.11,15.585 18,15.585 C17.89,15.585 17.785,15.629 17.707,15.707 Z M18,11 L6,11 C5.493,11 5.066,11.38 5.007,11.883 L5,12 L5,13.802 C5.916,13.385 6.995,13.58 7.707,14.292 C7.785,14.37 7.89,14.414 8,14.414 C8.11,14.414 8.215,14.37 8.293,14.292 C9.236,13.349 10.764,13.349 11.707,14.292 C11.785,14.37 11.89,14.414 12,14.414 C12.11,14.414 12.215,14.37 12.293,14.292 C13.236,13.349 14.764,13.349 15.707,14.292 C15.785,14.37 15.89,14.414 16,14.414 C16.11,14.414 16.215,14.37 16.293,14.292 C16.958,13.627 17.948,13.409 18.831,13.732 L19,13.802 L19,12 C19,11.493 18.62,11.066 18.117,11.007 Z M12.5,2 C12.25,2.501 12.375,2.863 12.564,3.17 L12.67,3.332 L12.725,3.41 C12.869,3.613 13,3.8 13,4 C13,4.552 12.552,5 12,5 C11.448,5 11,4.552 11,4 C11,3.448 11.5,2.5 12.5,2 Z M8.5,2 C8.25,2.501 8.375,2.863 8.564,3.17 L8.67,3.332 L8.725,3.41 C8.869,3.613 9,3.8 9,4 C9,4.552 8.552,5 8,5 C7.448,5 7,4.552 7,4 C7,3.448 7.5,2.5 8.5,2 Z M16.5,2 C16.25,2.501 16.375,2.863 16.564,3.17 L16.67,3.332 L16.725,3.41 C16.869,3.613 17,3.8 17,4 C17,4.552 16.552,5 16,5 C15.448,5 15,4.552 15,4 C15,3.448 15.5,2.5 16.5,2 Z"/>
</svg>

