<svg xmlns="http://www.w3.org/2000/svg" width="24" height="24">
  <defs/>
  <path  d="M19,3 A2 2 0 0 1 21,5 L21,19 A2 2 0 0 1 19,21 L5,21 A2 2 0 0 1 3,19 L3,5 A2 2 0 0 1 5,3 Z M19,9 L5,9 L5,19 L19,19 Z M8.5,15 A1 1 0 1 1 8.5,17 L7.5,17 A1 1 0 1 1 7.5,15 Z M12.5,15 A1 1 0 0 1 12.617,16.993 L12.5,17 L11.5,17 A1 1 0 0 1 11.383,15.007 L11.5,15 Z M8.5,11 A1 1 0 0 1 8.617,12.993 L8.5,13 L7.5,13 A1 1 0 0 1 7.383,11.007 L7.5,11 Z M12.5,11 A1 1 0 1 1 12.5,13 L11.5,13 A1 1 0 1 1 11.5,11 Z M16.5,11 A1 1 0 0 1 16.617,12.993 L16.5,13 L15.5,13 A1 1 0 0 1 15.383,11.007 L15.5,11 Z M19,5 L5,5 L5,7 L19,7 Z"/>
</svg>

