<svg xmlns="http://www.w3.org/2000/svg" width="24" height="24">
  <defs/>
  <path  d="M19,3 A2 2 0 0 1 20.995,4.85 L21,5 L21,19 A2 2 0 0 1 19.15,20.995 L19,21 L5,21 A2 2 0 0 1 3.005,19.15 L3,19 L3,5 A2 2 0 0 1 4.85,3.005 L5,3 Z M19,5 L5,5 L5,19 L19,19 Z M8,7 A1 1 0 0 1 8.993,7.883 L9,8 L9,16 A1 1 0 0 1 7.007,16.117 L7,16 L7,8 A1 1 0 0 1 8,7 M12,7 A1 1 0 0 1 13,8 L13,16 A1 1 0 1 1 11,16 L11,8 A1 1 0 0 1 12,7 M16,7 A1 1 0 0 1 16.993,7.883 L17,8 L17,16 A1 1 0 0 1 15.007,16.117 L15,16 L15,8 A1 1 0 0 1 16,7"/>
</svg>

