<svg xmlns="http://www.w3.org/2000/svg" width="24" height="24">
  <defs/>
  <path  d="M17,12 A5 5 0 1 1 17,22 A5 5 0 0 1 17,12 M16,3 A1 1 0 0 1 17,4 L17,5 L19,5 A2 2 0 0 1 21,7 L21,10 L19,10 L19,7 L5,7 L5,19 L10,19 L10,21 L5,21 A2 2 0 0 1 3,19 L3,7 A2 2 0 0 1 5,5 L7,5 L7,4 A1 1 0 0 1 9,4 L9,5 L15,5 L15,4 A1 1 0 0 1 16,3 M17,14 A3 3 0 1 0 17,20 A3 3 0 0 0 17,14 M17,14.5 A1 1 0 0 1 18,15.5 L18,16 A1 1 0 1 1 18,18 L17,18 A1 1 0 0 1 16,17 L16,15.5 A1 1 0 0 1 17,14.5 M8.5,14 A1 1 0 0 1 8.617,15.993 L8.5,16 L8,16 A1 1 0 0 1 7.883,14.007 L8,14 Z M11,10 A1 1 0 1 1 11,12 L8,12 A1 1 0 1 1 8,10 Z"/>
</svg>

