<svg xmlns="http://www.w3.org/2000/svg" width="24" height="24">
  <defs/>
  <path  d="M21,8 L21,19 A2 2 0 0 1 19,21 L5,21 A2 2 0 0 1 3,19 L3,8 Z M8.5,15 L7.5,15 A1 1 0 0 0 7.383,16.993 L7.5,17 L8.5,17 A1 1 0 0 0 8.617,15.007 Z M12.5,15 L11.5,15 A1 1 0 1 0 11.5,17 L12.5,17 A1 1 0 1 0 12.5,15 M8.5,11 L7.5,11 A1 1 0 1 0 7.5,13 L8.5,13 A1 1 0 1 0 8.5,11 M12.5,11 L11.5,11 A1 1 0 0 0 11.383,12.993 L11.5,13 L12.5,13 A1 1 0 0 0 12.617,11.007 Z M16.5,11 L15.5,11 A1 1 0 1 0 15.5,13 L16.5,13 A1 1 0 1 0 16.5,11 M19,3 A2 2 0 0 1 21,5 L21,6 L3,6 L3,5 A2 2 0 0 1 5,3 Z"/>
</svg>

