<svg xmlns="http://www.w3.org/2000/svg" width="24" height="24">
  <defs/>
  <path  d="M16,3 C16.552,3 17,3.448 17,4 L17,5 L19,5 C20.105,5 21,5.895 21,7 L21,19 C21,20.105 20.105,21 19,21 L5,21 C3.895,21 3,20.105 3,19 L3,7 C3,5.895 3.895,5 5,5 L7,5 L7,4 C7,3.448 7.448,3 8,3 C8.552,3 9,3.448 9,4 L9,5 L15,5 L15,4 C15,3.448 15.448,3 16,3 Z M5,11 L5,19 L19,19 L19,11 Z M5,7 L5,9 L19,9 L19,7 L5,7 Z M11,13 C11,12.448 11.448,12 12,12 L12.01,12 C12.562,12 13.01,12.448 13.01,13 C13.01,13.552 12.562,14 12.01,14 L12,14 C11.448,14 11,13.552 11,13 Z M15,13 C15,12.448 15.448,12 16,12 L16.01,12 C16.562,12 17.01,12.448 17.01,13 C17.01,13.552 16.562,14 16.01,14 L16,14 C15.448,14 15,13.552 15,13 Z M7,13 C7,12.448 7.448,12 8,12 L8.01,12 C8.562,12 9.01,12.448 9.01,13 C9.01,13.552 8.562,14 8.01,14 L8,14 C7.448,14 7,13.552 7,13 Z M12,15 L12.01,15 C12.562,15 13.01,15.448 13.01,16 C13.01,16.552 12.562,17 12.01,17 L12,17 C11.448,17 11,16.552 11,16 C11,15.448 11.448,15 12,15 Z M16,15 L16.01,15 C16.562,15 17.01,15.448 17.01,16 C17.01,16.552 16.562,17 16.01,17 L16,17 C15.448,17 15,16.552 15,16 C15,15.448 15.448,15 16,15 Z M8,15 L8.01,15 C8.562,15 9.01,15.448 9.01,16 C9.01,16.552 8.562,17 8.01,17 L8,17 C7.448,17 7,16.552 7,16 C7,15.448 7.448,15 8,15 Z"/>
</svg>

