<svg xmlns="http://www.w3.org/2000/svg" width="24" height="24">
  <defs/>
  <path  d="M16,3 C16.552,3 17,3.448 17,4 L17,5 L19,5 C20.105,5 21,5.895 21,7 L21,11 C21,11.552 20.552,12 20,12 L5,12 L5,19 L11,19 C11.552,19 12,19.448 12,20 C12,20.552 11.552,21 11,21 L5,21 C3.895,21 3,20.105 3,19 L3,7 C3,5.895 3.895,5 5,5 L7,5 L7,4 C7,3.448 7.448,3 8,3 C8.552,3 9,3.448 9,4 L9,5 L15,5 L15,4 C15,3.448 15.448,3 16,3 Z M19,7 L5,7 L5,10 L19,10 Z M18,14 C18.552,14 19,14.448 19,15 L19,17 L21,17 C21.552,17 22,17.448 22,18 C22,18.552 21.552,19 21,19 L19,19 L19,21 C19,21.552 18.552,22 18,22 C17.448,22 17,21.552 17,21 L17,19 L15,19 C14.448,19 14,18.552 14,18 C14,17.448 14.448,17 15,17 L17,17 L17,15 C17,14.448 17.448,14 18,14 Z"/>
</svg>

