<svg xmlns="http://www.w3.org/2000/svg" width="24" height="24">
  <defs/>
  <path  d="M19,3 C20.047,3 20.917,3.806 20.995,4.85 L21,5 L21,19 C21,20.047 20.194,20.917 19.15,20.995 L19,21 L5,21 C3.953,21 3.083,20.194 3.005,19.15 L3,19 L3,5 C3,3.953 3.806,3.083 4.85,3.005 L5,3 Z M8,7 C7.448,7 7,7.448 7,8 L7,16 C7,16.552 7.448,17 8,17 C8.552,17 9,16.552 9,16 L9,8 C9,7.448 8.552,7 8,7 Z M16,7 C15.448,7 15,7.448 15,8 L15,16 C15,16.552 15.448,17 16,17 C16.552,17 17,16.552 17,16 L17,8 C17,7.448 16.552,7 16,7 Z M12,7 C11.493,7 11.066,7.38 11.007,7.883 L11,8 L11,16 C11.001,16.529 11.413,16.966 11.941,16.997 C12.47,17.028 12.931,16.642 12.993,16.117 L13,16 L13,8 C13,7.448 12.552,7 12,7 Z"/>
</svg>

