<svg xmlns="http://www.w3.org/2000/svg" width="24" height="24">
  <defs/>
  <path  d="M19,3 C20.105,3 21,3.895 21,5 L21,19 C21,20.105 20.105,21 19,21 L5,21 C3.895,21 3,20.105 3,19 L3,5 C3,3.895 3.895,3 5,3 Z M19,5 L5,5 L5,19 L19,19 Z M16,11 C16.552,11 17,11.448 17,12 L17,16 C17,16.552 16.552,17 16,17 L8,17 C7.448,17 7,16.552 7,16 L7,12 C7,11.448 7.448,11 8,11 Z M16,7 C16.529,7.001 16.966,7.413 16.997,7.941 C17.028,8.47 16.642,8.931 16.117,8.993 L16,9 L8,9 C7.471,8.999 7.034,8.587 7.003,8.059 C6.972,7.53 7.358,7.069 7.883,7.007 L8,7 Z M15,13 L9,13 L9,15 L15,15 Z"/>
</svg>

