<svg xmlns="http://www.w3.org/2000/svg" width="24" height="24">
  <defs/>
  <path  d="M16,3 C16.552,3 17,3.448 17,4 L17,5 L19,5 C20.105,5 21,5.895 21,7 L21,19 C21,20.105 20.105,21 19,21 L5,21 C3.895,21 3,20.105 3,19 L3,7 C3,5.895 3.895,5 5,5 L7,5 L7,4 C7,3.448 7.448,3 8,3 C8.552,3 9,3.448 9,4 L9,5 L15,5 L15,4 C15,3.448 15.448,3 16,3 Z M19,7 L5,7 L5,9 L19,9 Z M12.01,12 L12,12 C11.471,12.001 11.034,12.413 11.003,12.941 C10.972,13.47 11.358,13.931 11.883,13.993 L12.01,14 C12.562,14 13.01,13.552 13.01,13 C13.01,12.448 12.562,12 12.01,12 Z M16.01,12 L16,12 C15.471,12.001 15.034,12.413 15.003,12.941 C14.972,13.47 15.358,13.931 15.883,13.993 L16.01,14 C16.562,14 17.01,13.552 17.01,13 C17.01,12.448 16.562,12 16.01,12 Z M12.01,16 L12,16 C11.471,16.001 11.034,16.413 11.003,16.941 C10.972,17.47 11.358,17.931 11.883,17.993 L12.01,18 C12.562,18 13.01,17.552 13.01,17 C13.01,16.448 12.562,16 12.01,16 Z M16.01,16 L16,16 C15.471,16.001 15.034,16.413 15.003,16.941 C14.972,17.47 15.358,17.931 15.883,17.993 L16.01,18 C16.562,18 17.01,17.552 17.01,17 C17.01,16.448 16.562,16 16.01,16 Z M8.01,12 L8,12 C7.471,12.001 7.034,12.413 7.003,12.941 C6.972,13.47 7.358,13.931 7.883,13.993 L8.01,14 C8.562,14 9.01,13.552 9.01,13 C9.01,12.448 8.562,12 8.01,12 Z M8.01,16 L8,16 C7.471,16.001 7.034,16.413 7.003,16.941 C6.972,17.47 7.358,17.931 7.883,17.993 L8.01,18 C8.562,18 9.01,17.552 9.01,17 C9.01,16.448 8.562,16 8.01,16 Z"/>
</svg>

