<svg xmlns="http://www.w3.org/2000/svg" width="24" height="24">
  <defs/>
  <path  d="M18,3 A2 2 0 0 1 19.995,4.85 L20,5 L20,7 L20.191,7 A1.5 1.5 0 0 1 21.587,9.05 L21.533,9.17 L20,12.237 L20,19 A2 2 0 0 1 18.15,20.995 L18,21 L6,21 A2 2 0 0 1 4.006,19.15 L4,19 L4,12.236 L2.467,9.171 A1.5 1.5 0 0 1 3.677,7.006 L3.81,7 L4,7 L4,5 A2 2 0 0 1 5.85,3.005 L6,3 Z M10.5,12.016 A1.01 1.01 0 0 0 9.145,11.066 L9.038,11.113 L8.053,11.606 A1 1 0 0 0 8.379,13.493 L8.5,13.5 L8.5,16 A1 1 0 0 0 10.493,16.117 L10.5,16 Z M14.5,11 L13.5,11 A2 2 0 0 0 11.505,12.85 L11.5,13 L11.5,15 A2 2 0 0 0 13.35,16.995 L13.5,17 L14.5,17 A2 2 0 0 0 16.495,15.15 L16.5,15 L16.5,13 A2 2 0 0 0 14.65,11.005 Z M14.5,13 L14.5,15 L13.5,15 L13.5,13 Z M18,5 L6,5 L6,7 L18,7 Z"/>
</svg>

