<svg xmlns="http://www.w3.org/2000/svg" width="24" height="24">
  <defs/>
  <path  d="M18,3 A2 2 0 0 1 20,5 L20,7 L20.191,7 A1.5 1.5 0 0 1 21.533,9.17 L20,12.237 L20,19 A2 2 0 0 1 18,21 L6,21 A2 2 0 0 1 4,19 L4,12.236 L2.467,9.171 A1.5 1.5 0 0 1 3.81,7 L4,7 L4,5 A2 2 0 0 1 6,3 Z M19.382,9 L4.618,9 L5.894,11.553 C5.97,11.703 6.004,11.863 6,12.02 L6,19 L18,19 L18,12.02 A0.997 0.997 0 0 1 18.106,11.553 Z M14.5,11 A2 2 0 0 1 16.495,12.85 L16.5,13 L16.5,15 A2 2 0 0 1 14.65,16.995 L14.5,17 L13.5,17 A2 2 0 0 1 11.505,15.15 L11.5,15 L11.5,13 A2 2 0 0 1 13.35,11.005 L13.5,11 Z M10.494,11.9 L10.5,12.016 L10.5,16 A1 1 0 0 1 8.507,16.117 L8.5,16 L8.5,13.5 A1 1 0 0 1 7.952,11.664 L8.052,11.606 L9.038,11.113 C9.639,10.813 10.335,11.172 10.475,11.788 Z M14.5,13 L13.5,13 L13.5,15 L14.5,15 Z M18,5 L6,5 L6,7 L18,7 Z"/>
</svg>

