<svg xmlns="http://www.w3.org/2000/svg" width="24" height="24">
  <defs/>
  <path  d="M16,3 C16.552,3 17,3.448 17,4 L17,5 L19,5 C20.105,5 21,5.895 21,7 L21,12.528 C18.627,10.406 15.01,10.508 12.759,12.759 C10.508,15.01 10.406,18.627 12.528,21 L5,21 C3.895,21 3,20.105 3,19 L3,7 C3,5.895 3.895,5 5,5 L7,5 L7,4 C7,3.448 7.448,3 8,3 C8.552,3 9,3.448 9,4 L9,5 L15,5 L15,4 C15,3.448 15.448,3 16,3 Z M17,13 C19.209,13 21,14.791 21,17 C21,19.209 19.209,21 17,21 C14.791,21 13,19.209 13,17 C13,14.791 14.791,13 17,13 Z M11,10 L8,10 C7.471,10.001 7.034,10.413 7.003,10.941 C6.972,11.47 7.358,11.931 7.883,11.993 L8,12 L11,12 C11.529,11.999 11.966,11.587 11.997,11.059 C12.028,10.53 11.642,10.069 11.117,10.007 Z M17,14.5 C16.493,14.5 16.066,14.88 16.007,15.383 L16,15.5 L16,17 C16,17.507 16.38,17.934 16.883,17.993 L17,18 L18,18 C18.529,17.999 18.966,17.587 18.997,17.059 C19.028,16.53 18.642,16.069 18.117,16.007 L18,16 L18,15.5 C18,14.948 17.552,14.5 17,14.5 Z M8.5,14 L8,14 C7.448,14 7,14.448 7,15 C7,15.552 7.448,16 8,16 L8.5,16 C9.052,16 9.5,15.552 9.5,15 C9.5,14.448 9.052,14 8.5,14 Z"/>
</svg>

