<svg xmlns="http://www.w3.org/2000/svg" width="24" height="24">
  <defs/>
  <path  d="M7,4 A1 1 0 0 1 9,4 L9,5 L15,5 L15,4 A1 1 0 1 1 17,4 L17,5 L19,5 A2 2 0 0 1 21,7 L21,10 L3,10 L3,7 A2 2 0 0 1 5,5 L7,5 Z M18,14 A1 1 0 0 1 19,15 L19,17 L21,17 A1 1 0 1 1 21,19 L19,19 L19,21 A1 1 0 1 1 17,21 L17,19 L15,19 A1 1 0 1 1 15,17 L17,17 L17,15 A1 1 0 0 1 18,14 M18,12 A3.001 3.001 0 0 0 15.164,14.018 A1.9 1.9 0 0 1 14.018,15.164 A3.001 3.001 0 0 0 13.844,20.769 L14.018,20.836 C14.138,20.877 14.254,20.933 14.364,21 L5,21 A2 2 0 0 1 3,19 L3,12 Z"/>
</svg>

