<svg xmlns="http://www.w3.org/2000/svg" width="24" height="24">
  <defs/>
  <path  d="M17.054,4.396 A3 3 0 0 1 20.678,6.348 L20.728,6.517 L21.763,10.381 A2 2 0 0 1 20.493,12.786 L20.349,12.83 L17.999,13.46 L17.999,15 A1 1 0 0 0 18.883,15.993 L19,16 L20,16 A1 1 0 0 1 21.993,15.883 L22,16 L22,18 A1 1 0 0 1 20.007,18.117 L20,18 L19,18 A3 3 0 0 1 16.005,15.176 L16,15 L16,13.996 L9.487,15.74 A2 2 0 0 1 7.345,14.975 L7.254,14.836 L4.239,9.81 A1.5 1.5 0 0 1 5.009,7.63 L5.137,7.59 L17.054,4.397 Z M4.202,10.666 L5.827,13.416 A1 1 0 0 1 4.106,14.434 L2.481,11.684 A1 1 0 0 1 4.202,10.667 Z"/>
</svg>

