<svg xmlns="http://www.w3.org/2000/svg" width="24" height="24">
  <defs/>
  <path  d="M1.515,2.515 C1.871,2.158 2.437,2.122 2.835,2.431 L2.929,2.515 L4.414,4 L16,4 C17.047,4 17.917,4.806 17.995,5.85 L18,6 L18,8.21 L20.094,6.919 C20.461,6.693 20.92,6.672 21.306,6.864 C21.692,7.056 21.953,7.433 21.994,7.863 L22,7.983 L22,16.016 C22,16.448 21.778,16.849 21.412,17.077 C21.046,17.305 20.588,17.329 20.2,17.139 L20.094,17.081 L18,15.79 L18,17.584 L19.485,19.07 C19.857,19.443 19.875,20.042 19.527,20.437 C19.178,20.833 18.582,20.89 18.165,20.567 L18.071,20.484 L1.515,3.93 C1.125,3.54 1.125,2.906 1.515,2.516 Z M16,6 L6.414,6 L16,15.586 Z M2,7.247 L4,9.247 L4,18 L12.754,18 L14.754,20 L4,20 C2.895,20 2,19.105 2,18 Z M20,9.326 L18,10.558 L18,13.441 L20,14.673 Z"/>
</svg>

