<svg xmlns="http://www.w3.org/2000/svg" width="24" height="24">
  <defs/>
  <path  d="M20.728,6.517 L21.763,10.381 C22.049,11.448 21.416,12.545 20.349,12.831 L18,13.46 L18,15 C18,15.552 18.448,16 19,16 L20,16 C20,15.448 20.448,15 21,15 C21.552,15 22,15.448 22,16 L22,18 C22,18.552 21.552,19 21,19 C20.448,19 20,18.552 20,18 L19,18 C17.343,18 16,16.657 16,15 L16,13.996 L9.488,15.74 C8.625,15.971 7.714,15.602 7.255,14.836 L4.239,9.81 C3.997,9.406 3.959,8.913 4.135,8.476 C4.311,8.04 4.682,7.712 5.137,7.59 L17.054,4.397 C18.654,3.968 20.299,4.918 20.728,6.518 Z M17.572,6.328 L6.295,9.349 L8.969,13.809 L19.832,10.899 L18.796,7.035 C18.653,6.502 18.105,6.186 17.572,6.328 Z M2.833,10.315 C3.269,10.057 3.83,10.167 4.137,10.57 L4.202,10.667 L5.827,13.416 C6.092,13.872 5.959,14.455 5.521,14.749 C5.084,15.043 4.493,14.948 4.171,14.53 L4.106,14.434 L2.481,11.684 C2.2,11.208 2.357,10.595 2.833,10.314 Z"/>
</svg>

