<svg xmlns="http://www.w3.org/2000/svg" width="24" height="24">
  <defs/>
  <path  d="M14.793,3 A1.5 1.5 0 0 1 15.693,3.3 A3 3 0 0 0 16.031,8.839 L16.409,8.969 A1 1 0 0 1 17.032,9.591 L17.161,9.969 A3 3 0 0 0 22,11.236 L22,19 A2 2 0 0 1 20,21 L4,21 A2 2 0 0 1 2,19 L2,7 A2 2 0 0 1 4,5 L6.586,5 L8.146,3.44 A1.5 1.5 0 0 1 9.207,3 Z M12,7.5 A5 5 0 1 0 12,17.5 A5 5 0 0 0 12,7.5 M12,9.5 A3 3 0 1 1 12,15.5 A3 3 0 0 1 12,9.5 M20,2 A1 1 0 0 1 20.898,2.56 L20.946,2.677 L21.076,3.055 A3 3 0 0 0 22.76,4.855 L22.945,4.925 L23.323,5.054 A1 1 0 0 1 23.441,6.898 L23.323,6.946 L22.945,7.076 A3 3 0 0 0 21.145,8.76 L21.075,8.945 L20.946,9.323 A1 1 0 0 1 19.102,9.44 L19.054,9.323 L18.924,8.945 A3 3 0 0 0 17.24,7.145 L17.055,7.075 L16.677,6.946 A1 1 0 0 1 16.559,5.102 L16.677,5.054 L17.055,4.924 A3 3 0 0 0 18.855,3.24 L18.925,3.055 L19.054,2.677 A1 1 0 0 1 20,2"/>
</svg>

