<svg xmlns="http://www.w3.org/2000/svg" width="24" height="24">
  <defs/>
  <path  d="M2,6 C2,4.343 3.343,3 5,3 L19,3 C20.657,3 22,4.343 22,6 L22,18 C22,19.657 20.657,21 19,21 L5,21 C3.343,21 2,19.657 2,18 Z M5,5 C4.448,5 4,5.448 4,6 L4,18 C4,18.552 4.448,19 5,19 L19,19 C19.552,19 20,18.552 20,18 L20,6 C20,5.448 19.552,5 19,5 Z M12,7 C14.761,7 17,9.239 17,12 C17,14.761 14.761,17 12,17 C9.239,17 7,14.761 7,12 C7,9.239 9.239,7 12,7 Z M9,12 C9,13.657 10.343,15 12,15 C13.657,15 15,13.657 15,12 C15,10.343 13.657,9 12,9 C10.343,9 9,10.343 9,12 Z M16,7 C16,6.448 16.448,6 17,6 L18,6 C18.552,6 19,6.448 19,7 C19,7.552 18.552,8 18,8 L17,8 C16.448,8 16,7.552 16,7 Z"/>
</svg>

