<svg xmlns="http://www.w3.org/2000/svg" width="24" height="24">
  <defs/>
  <path  d="M2.515,2.515 C2.871,2.158 3.437,2.122 3.835,2.431 L3.929,2.515 L6.415,5 L6.585,5 L8,3.586 C8.332,3.254 8.77,3.049 9.238,3.008 L9.414,3 L14.586,3 C15.056,3 15.51,3.165 15.87,3.467 L16,3.586 L17.414,5 L20,5 C21.047,5 21.917,5.806 21.995,6.85 L22,7 L22,19 C22,19.383 21.892,19.74 21.706,20.045 L21.606,20.192 L21.987,20.572 C22.363,20.945 22.384,21.546 22.034,21.944 C21.683,22.341 21.084,22.396 20.667,22.07 L20.573,21.987 L2.515,3.93 C2.125,3.54 2.125,2.906 2.515,2.516 Z M14.586,5 L9.414,5 L8,6.414 C7.972,6.443 7.942,6.47 7.912,6.497 L9.553,8.14 C11.507,7.043 13.952,7.379 15.537,8.964 C17.122,10.549 17.458,12.994 16.361,14.948 L20,18.586 L20,7 L17.414,7 C16.884,7 16.375,6.789 16,6.414 Z M2.107,6.354 L4,8.247 L4,19 L14.754,19 L16.754,21 L4,21 C2.895,21 2,20.105 2,19 L2,7 C2,6.774 2.038,6.556 2.107,6.353 Z M7.127,11.374 L9.13,13.377 C9.423,14.331 10.169,15.077 11.123,15.37 L13.126,17.373 C11.445,17.762 9.683,17.257 8.463,16.037 C7.243,14.817 6.738,13.055 7.127,11.374 Z M12,9.5 C11.673,9.5 11.358,9.552 11.064,9.65 L14.851,13.437 C15.152,12.523 14.995,11.52 14.431,10.74 C13.866,9.961 12.962,9.5 12,9.5 Z"/>
</svg>

