<svg xmlns="http://www.w3.org/2000/svg" width="24" height="24">
  <defs/>
  <path  d="M8,3.586 C8.375,3.211 8.884,3 9.414,3 L14,3 C14.552,3 15,3.448 15,4 C15,4.552 14.552,5 14,5 L9.414,5 L8,6.414 C7.625,6.789 7.116,7 6.586,7 L4,7 L4,19 L20,19 L20,13 C20,12.448 20.448,12 21,12 C21.552,12 22,12.448 22,13 L22,19 C22,20.105 21.105,21 20,21 L4,21 C2.895,21 2,20.105 2,19 L2,7 C2,5.895 2.895,5 4,5 L6.586,5 Z M12,7.5 C14.761,7.5 17,9.739 17,12.5 C17,15.261 14.761,17.5 12,17.5 C9.239,17.5 7,15.261 7,12.5 C7,9.739 9.239,7.5 12,7.5 Z M20,2 C20.428,2 20.808,2.272 20.946,2.677 L21.076,3.055 C21.376,3.934 22.066,4.625 22.945,4.925 L23.323,5.054 C23.727,5.193 23.999,5.573 23.999,6 C23.999,6.427 23.727,6.807 23.323,6.946 L22.945,7.076 C22.066,7.376 21.375,8.066 21.075,8.945 L20.946,9.323 C20.807,9.727 20.427,9.999 20,9.999 C19.573,9.999 19.193,9.727 19.054,9.323 L18.924,8.945 C18.624,8.066 17.934,7.375 17.055,7.075 L16.677,6.946 C16.273,6.807 16.001,6.427 16.001,6 C16.001,5.573 16.273,5.193 16.677,5.054 L17.055,4.924 C17.934,4.624 18.625,3.934 18.925,3.055 L19.054,2.677 C19.192,2.272 19.572,2 20,2 Z M9,12.5 C9,14.157 10.343,15.5 12,15.5 C13.657,15.5 15,14.157 15,12.5 C15,10.843 13.657,9.5 12,9.5 C10.343,9.5 9,10.843 9,12.5 Z M20,5.196 C19.763,5.494 19.494,5.763 19.196,6 C19.494,6.236 19.763,6.506 20,6.804 C20.236,6.506 20.506,6.236 20.804,6 C20.506,5.763 20.237,5.494 20,5.196 Z"/>
</svg>

