<svg xmlns="http://www.w3.org/2000/svg" width="24" height="24">
  <defs/>
  <path  d="M14.793,3 C15.139,3 15.475,3.12 15.743,3.34 L15.853,3.44 L17.415,5 L20,5 C21.047,5 21.917,5.806 21.995,6.85 L22,7 L22,19 C22,20.047 21.194,20.917 20.15,20.995 L20,21 L4,21 C2.953,21 2.083,20.194 2.005,19.15 L2,19 L2,7 C2,5.953 2.806,5.083 3.85,5.005 L4,5 L6.586,5 L8.146,3.44 C8.391,3.194 8.714,3.041 9.059,3.007 L9.207,3 Z M14.586,5 L9.414,5 L7.854,6.56 C7.609,6.806 7.286,6.959 6.941,6.993 L6.793,7 L4,7 L4,19 L20,19 L20,7 L17.207,7 C16.861,7 16.525,6.88 16.257,6.66 L16.147,6.56 Z M12,7.5 C14.761,7.5 17,9.739 17,12.5 C17,15.261 14.761,17.5 12,17.5 C9.239,17.5 7,15.261 7,12.5 C7,9.739 9.239,7.5 12,7.5 Z M12,9.5 C10.343,9.5 9,10.843 9,12.5 C9,14.157 10.343,15.5 12,15.5 C13.657,15.5 15,14.157 15,12.5 C15,10.843 13.657,9.5 12,9.5 Z"/>
</svg>

