<svg xmlns="http://www.w3.org/2000/svg" width="24" height="24">
  <defs/>
  <path  d="M2.515,2.515 C2.871,2.158 3.437,2.122 3.835,2.431 L3.929,2.515 L6.415,5 L6.585,5 L8.146,3.44 C8.391,3.194 8.714,3.041 9.059,3.007 L9.207,3 L14.793,3 C15.139,3 15.475,3.12 15.743,3.34 L15.853,3.44 L17.415,5 L20,5 C21.047,5 21.917,5.806 21.995,6.85 L22,7 L22,19 C22,19.383 21.892,19.74 21.706,20.045 L21.606,20.192 L21.987,20.572 C22.363,20.945 22.384,21.546 22.034,21.944 C21.683,22.341 21.084,22.396 20.667,22.07 L20.573,21.987 L2.515,3.93 C2.125,3.54 2.125,2.906 2.515,2.516 Z M2.107,6.354 L7.127,11.375 C6.738,13.056 7.243,14.818 8.463,16.038 C9.683,17.258 11.445,17.763 13.126,17.374 L16.753,21 L4,21 C2.895,21 2,20.105 2,19 L2,7 C2,6.774 2.038,6.556 2.107,6.353 Z M12,7.5 C11.111,7.5 10.277,7.732 9.553,8.139 L11.063,9.649 C12.138,9.295 13.321,9.577 14.121,10.378 C14.922,11.178 15.204,12.361 14.85,13.436 L16.361,14.947 C17.23,13.399 17.213,11.506 16.315,9.973 C15.418,8.441 13.776,7.5 12,7.5 Z"/>
</svg>

