<svg xmlns="http://www.w3.org/2000/svg" width="24" height="24">
  <defs/>
  <path  d="M14.586,3 A2 2 0 0 1 16,3.586 L17.414,5 L20,5 A2 2 0 0 1 22,7 L22,19 A2 2 0 0 1 20,21 L4,21 A2 2 0 0 1 2,19 L2,7 A2 2 0 0 1 4,5 L6.586,5 L8,3.586 A2 2 0 0 1 9.414,3 Z M14.586,5 L9.414,5 L8,6.414 A2 2 0 0 1 6.586,7 L4,7 L4,19 L20,19 L20,7 L17.414,7 A2 2 0 0 1 16,6.414 Z M8.656,12.5 A1 1 0 0 1 9.603,13.215 A2.502 2.502 0 0 0 14.143,13.788 A1 1 0 1 1 15.856,14.82 A4.498 4.498 0 0 1 8.951,15.81 A1 1 0 0 1 7.019,15.306 L7.049,15.193 L7.693,13.193 A1 1 0 0 1 8.656,12.5 M12,8 A4.49 4.49 0 0 1 15.05,9.19 A1 1 0 0 1 16.952,9.807 L16.307,11.807 A1 1 0 0 1 14.397,11.785 A2.502 2.502 0 0 0 9.857,11.212 A1 1 0 1 1 8.143,10.18 A4.51 4.51 0 0 1 12,8"/>
</svg>

