<svg xmlns="http://www.w3.org/2000/svg" width="24" height="24">
  <defs/>
  <path  d="M14.586,3 C15.116,3 15.625,3.211 16,3.586 L17.414,5 L20,5 C21.105,5 22,5.895 22,7 L22,19 C22,20.105 21.105,21 20,21 L4,21 C2.895,21 2,20.105 2,19 L2,7 C2,5.895 2.895,5 4,5 L6.586,5 L8,3.586 C8.375,3.211 8.884,3 9.414,3 Z M8.656,12.5 C8.218,12.495 7.827,12.776 7.693,13.193 L7.048,15.193 C6.878,15.718 7.166,16.282 7.692,16.452 C8.217,16.623 8.781,16.334 8.951,15.809 C9.945,16.726 11.3,17.148 12.639,16.956 C13.979,16.764 15.16,15.979 15.857,14.819 C16.052,14.513 16.066,14.124 15.893,13.805 C15.72,13.485 15.387,13.285 15.023,13.281 C14.66,13.278 14.323,13.472 14.144,13.788 C13.633,14.636 12.67,15.103 11.687,14.979 C10.705,14.855 9.888,14.164 9.604,13.215 C9.479,12.795 9.095,12.505 8.656,12.5 Z M12,8 C10.421,7.998 8.956,8.826 8.143,10.18 C7.858,10.653 8.011,11.268 8.484,11.553 C8.957,11.838 9.572,11.685 9.857,11.212 C10.308,10.459 11.122,9.999 12,10 C13.131,10 14.09,10.752 14.397,11.785 C14.516,12.184 14.87,12.468 15.285,12.497 C15.7,12.526 16.09,12.295 16.264,11.917 L16.307,11.807 L16.952,9.807 C17.122,9.282 16.834,8.718 16.309,8.547 C15.783,8.377 15.219,8.666 15.049,9.191 C14.219,8.424 13.13,7.998 12,8 Z"/>
</svg>

