<svg xmlns="http://www.w3.org/2000/svg" width="24" height="24">
  <defs/>
  <path  d="M12.552,2.106 C12.889,1.937 13.293,1.972 13.596,2.198 C13.899,2.423 14.049,2.799 13.985,3.171 L13.944,3.349 C13.941,3.366 13.938,3.382 13.936,3.399 L13.923,3.536 C13.918,3.618 13.919,3.716 13.931,3.827 C13.971,4.18 14.129,4.715 14.707,5.293 L14.862,5.443 L15.542,6.063 L15.885,6.387 C16.697,7.179 17.593,8.247 17.97,9.757 C18.424,11.571 17.976,13.198 16.788,14.344 C15.641,15.452 13.921,16 12,16 C8.831,16 6,13.948 6,10.5 C6,7.804 7.782,5.675 9.342,4.31 C10.142,3.61 10.939,3.062 11.532,2.691 C11.864,2.484 12.202,2.281 12.552,2.106 Z M19.942,15.664 C20.128,16.184 19.856,16.756 19.336,16.942 L14.973,18.5 L19.336,20.058 C19.856,20.244 20.128,20.816 19.942,21.336 C19.756,21.856 19.184,22.128 18.664,21.942 L12,19.562 L5.336,21.942 C4.816,22.128 4.244,21.856 4.058,21.336 C3.872,20.816 4.144,20.244 4.664,20.058 L9.027,18.5 L4.664,16.942 C4.144,16.756 3.872,16.184 4.058,15.664 C4.244,15.144 4.816,14.872 5.336,15.058 L12,17.438 L18.664,15.058 C19.184,14.872 19.756,15.144 19.942,15.664 Z M12.079,4.724 C11.644,5.02 11.15,5.387 10.659,5.817 C9.219,7.075 8,8.696 8,10.5 C8,11.479 8.366,12.313 9,12.92 C9,11.849 9.562,10.741 10.046,9.964 L10.471,9.296 L10.66,9.017 C11.024,8.503 11.484,8 12,8 C12.533,8 12.984,8.496 13.342,9.01 L13.528,9.29 L13.843,9.79 C14.349,10.57 15,11.767 15,12.917 C15,13.025 14.995,13.133 14.984,13.239 C15.138,13.135 15.277,13.023 15.399,12.906 C16.024,12.302 16.327,11.429 16.029,10.242 C15.792,9.292 15.306,8.65 14.714,8.052 L14.381,7.73 L14.032,7.407 C13.791,7.185 13.542,6.957 13.292,6.707 C12.624,6.038 12.261,5.347 12.079,4.722 Z M12.164,10.876 L12,10.632 L11.836,10.878 C11.344,11.638 11,12.401 11,12.918 C11,13.555 11.486,14.001 12,14.001 C12.514,14.001 13,13.555 13,12.918 C13,12.401 12.656,11.638 12.164,10.878 Z"/>
</svg>

