<svg xmlns="http://www.w3.org/2000/svg" width="24" height="24">
  <defs/>
  <path  d="M11.23,2.892 L11.937,2.432 L12.157,2.299 C12.647,2.022 13.187,1.839 13.654,2.245 C13.934,2.487 14.027,2.828 13.977,3.175 L13.937,3.38 L13.922,3.52 C13.917,3.604 13.917,3.709 13.93,3.827 C14.016,4.598 14.541,5.149 15.085,5.648 L15.542,6.064 L15.884,6.387 C16.696,7.179 17.592,8.247 17.969,9.757 C18.423,11.571 17.975,13.198 16.787,14.344 C15.641,15.452 13.921,16 12,16 C8.831,16 6,13.948 6,10.5 C6,7.804 7.782,5.675 9.342,4.31 C9.94,3.797 10.572,3.323 11.232,2.892 Z M18.664,15.058 C19.163,14.88 19.714,15.121 19.921,15.609 C20.128,16.097 19.919,16.661 19.444,16.896 L19.336,16.942 L14.973,18.5 L19.336,20.058 C19.837,20.234 20.113,20.772 19.964,21.282 C19.815,21.792 19.293,22.096 18.776,21.975 L18.664,21.942 L12,19.562 L5.336,21.942 C4.837,22.12 4.286,21.879 4.079,21.391 C3.872,20.903 4.081,20.339 4.556,20.104 L4.664,20.058 L9.027,18.5 L4.664,16.942 C4.163,16.766 3.887,16.228 4.036,15.718 C4.185,15.208 4.707,14.904 5.224,15.025 L5.336,15.058 L12,17.438 Z M12.222,9.264 L12,9 L11.779,9.264 L11.542,9.565 L11.355,9.817 L11.155,10.101 C10.609,10.9 10,11.997 10,12.917 C10,14.067 10.896,15 12,15 C13.105,15 14,14.067 14,12.917 C14,11.997 13.391,10.9 12.845,10.101 L12.645,9.817 L12.458,9.565 Z"/>
</svg>

