<svg xmlns="http://www.w3.org/2000/svg" width="24" height="24">
  <defs/>
  <path  d="M14.824,4.567 L13.214,6.91 L21.526,19 L22,19 C22.552,19 23,19.448 23,20 C23,20.552 22.552,21 22,21 L2,21 C1.448,21 1,20.552 1,20 C1,19.448 1.448,19 2,19 L2.475,19 L10.786,6.909 L9.176,4.567 C8.969,4.273 8.936,3.89 9.09,3.565 C9.244,3.24 9.56,3.022 9.919,2.995 C10.278,2.968 10.623,3.136 10.824,3.434 L12,5.144 L13.176,3.434 C13.491,2.985 14.109,2.874 14.561,3.185 C15.013,3.495 15.13,4.112 14.824,4.567 Z M15.986,19 L19.099,19 L12,8.674 L4.901,19 L8.015,19 L11.17,14.443 C11.359,14.171 11.669,14.009 12,14.009 C12.331,14.009 12.641,14.171 12.83,14.443 Z M10.447,19 L13.553,19 L12,16.757 Z"/>
</svg>

