<svg xmlns="http://www.w3.org/2000/svg" width="24" height="24">
  <defs/>
  <path  d="M20.274,7.368 C20.624,7.795 20.561,8.426 20.133,8.776 C19.706,9.125 19.076,9.062 18.726,8.635 C16.739,6.205 13.232,5.149 10.175,5.495 C9.322,5.592 8.533,5.795 7.843,6.09 C9.838,6.525 11.185,8.393 10.968,10.423 C10.752,12.453 9.042,13.995 7,14 C4.791,14 3,12.209 3,10 C3,8.059 3.835,6.503 5.147,5.405 C6.436,4.327 8.152,3.71 9.95,3.507 C13.518,3.103 17.761,4.297 20.274,7.367 Z M17,10 C19.209,10 21,11.791 21,14 C21,15.942 20.165,17.497 18.853,18.595 C17.564,19.674 15.848,20.29 14.05,20.494 C10.482,20.898 6.239,19.704 3.726,16.634 C3.376,16.207 3.439,15.576 3.866,15.226 C4.294,14.877 4.924,14.94 5.274,15.367 C7.261,17.797 10.768,18.853 13.825,18.507 C14.627,18.423 15.413,18.222 16.157,17.911 C14.162,17.476 12.815,15.608 13.032,13.578 C13.248,11.548 14.958,10.006 17,10.001 Z M7,8 C5.895,8 5,8.895 5,10 C5,11.105 5.895,12 7,12 C8.105,12 9,11.105 9,10 C9,8.895 8.105,8 7,8 Z M17,12.001 C15.895,12.001 15,12.896 15,14.001 C15,15.106 15.895,16.001 17,16.001 C18.105,16.001 19,15.106 19,14.001 C19,12.896 18.105,12.001 17,12.001 Z"/>
</svg>

