<svg xmlns="http://www.w3.org/2000/svg" width="24" height="24">
  <defs/>
  <path  d="M18,2 C20.209,2 22,3.791 22,6 L22,18 C22,20.209 20.209,22 18,22 L6,22 C3.791,22 2,20.209 2,18 L2,6 C2,3.791 3.791,2 6,2 Z M15.333,10.333 C13.985,10.333 12.802,11.232 12.441,12.531 C12.081,13.831 12.632,15.211 13.788,15.905 C13.648,15.936 13.505,15.962 13.358,15.984 C11.498,16.25 9.332,15.677 8.017,14.307 C7.634,13.909 7.001,13.896 6.603,14.279 C6.205,14.662 6.192,15.295 6.575,15.693 C8.418,17.611 11.271,18.303 13.641,17.963 C14.838,17.792 15.994,17.347 16.869,16.578 C17.812,15.766 18.348,14.578 18.333,13.333 C18.333,11.676 16.99,10.333 15.333,10.333 Z M17.425,8.307 C15.582,6.389 12.729,5.697 10.359,6.037 C9.162,6.208 8.006,6.653 7.131,7.422 C6.188,8.234 5.652,9.422 5.667,10.667 C5.667,12.116 6.703,13.358 8.129,13.618 C9.555,13.878 10.963,13.081 11.474,11.725 C11.985,10.369 11.454,8.841 10.212,8.095 C10.352,8.064 10.495,8.038 10.642,8.016 C12.502,7.75 14.668,8.324 15.983,9.693 C16.366,10.091 16.999,10.104 17.397,9.721 C17.795,9.338 17.808,8.705 17.425,8.307 Z M8.667,9.667 C9.219,9.667 9.667,10.115 9.667,10.667 C9.667,11.219 9.219,11.667 8.667,11.667 C8.115,11.667 7.667,11.219 7.667,10.667 C7.667,10.115 8.115,9.667 8.667,9.667 Z M15.333,12.333 C15.885,12.333 16.333,12.781 16.333,13.333 C16.333,13.885 15.885,14.333 15.333,14.333 C14.781,14.333 14.333,13.885 14.333,13.333 C14.333,12.781 14.781,12.333 15.333,12.333 Z"/>
</svg>

