<svg xmlns="http://www.w3.org/2000/svg" width="24" height="24">
  <defs/>
  <path  d="M17.522,3.38 L20.62,6.478 C20.988,6.846 21.139,7.377 21.02,7.883 C20.9,8.389 20.527,8.798 20.034,8.962 L17.484,9.812 C18.033,11.585 17.556,13.516 16.243,14.828 L14.828,16.242 C13.516,17.555 11.585,18.033 9.812,17.484 L8.962,20.034 C8.798,20.527 8.389,20.9 7.883,21.02 C7.377,21.139 6.846,20.988 6.478,20.62 L3.38,17.522 C3.012,17.154 2.861,16.623 2.98,16.117 C3.1,15.611 3.473,15.202 3.966,15.038 L6.516,14.188 C5.966,12.415 6.444,10.483 7.757,9.17 L9.172,7.756 C10.484,6.443 12.415,5.966 14.188,6.515 L15.038,3.965 C15.202,3.472 15.61,3.098 16.116,2.979 C16.622,2.859 17.154,3.01 17.522,3.378 Z M10.586,9.171 L9.172,10.585 C8.392,11.338 8.079,12.454 8.354,13.503 C8.628,14.551 9.448,15.371 10.496,15.645 C11.545,15.92 12.661,15.607 13.414,14.827 L14.828,13.413 C15.596,12.657 15.9,11.548 15.624,10.506 C15.348,9.464 14.535,8.651 13.493,8.374 C12.452,8.098 11.342,8.402 10.586,9.17 Z M7.487,15.971 L5.366,16.678 L7.32,18.633 L8.027,16.511 Z M16.68,5.365 L15.973,7.486 L16.513,8.026 L18.634,7.319 Z"/>
</svg>

