<svg xmlns="http://www.w3.org/2000/svg" width="24" height="24">
  <defs/>
  <path  d="M14.7,2.08 C15.252,2.477 15.626,2.68 15.973,2.794 C16.315,2.907 16.695,2.956 17.29,2.952 A1 1 0 0 1 18.297,3.911 C18.327,4.629 18.389,5.072 18.505,5.429 C18.615,5.766 18.791,6.081 19.134,6.502 A1 1 0 0 1 18.918,7.963 L18.804,8.029 C18.482,8.192 18.165,8.366 17.851,8.544 A8 8 0 1 1 6.15,8.544 A21.562 21.562 0 0 0 5.194,8.028 A1 1 0 0 1 4.866,6.502 C5.209,6.081 5.386,5.766 5.496,5.429 C5.611,5.072 5.673,4.629 5.703,3.911 A1 1 0 0 1 6.71,2.951 C7.305,2.956 7.685,2.907 8.027,2.794 C8.374,2.679 8.748,2.477 9.299,2.08 A1 1 0 0 1 10.779,2.444 C10.967,2.819 11.171,3.187 11.381,3.552 C11.561,3.866 11.771,4.216 12,4.572 A24.927 24.927 0 0 0 13.213,2.462 C13.347,2.195 13.585,1.992 13.877,1.92 A1 1 0 0 1 14.701,2.08 Z M12,8 A6 6 0 1 0 12,20 A6 6 0 0 0 12,8 M12.057,10.838 A1 1 0 0 1 13.333,10.228 A4.008 4.008 0 0 1 15.773,12.667 A1 1 0 0 1 13.932,13.441 L13.886,13.333 A2.01 2.01 0 0 0 12.819,12.175 L12.667,12.114 A1 1 0 0 1 12.057,10.838 M9.514,4.315 A4.87 4.87 0 0 1 7.634,4.911 C7.587,5.313 7.514,5.687 7.397,6.047 A4.54 4.54 0 0 1 7.087,6.777 L7.549,7.042 L7.798,7.191 A7.95 7.95 0 0 1 10.625,6.118 A23.34 23.34 0 0 1 9.931,5.032 L9.641,4.54 A29.887 29.887 0 0 1 9.514,4.315 M14.486,4.315 L14.358,4.54 L14.068,5.032 C13.862,5.375 13.628,5.746 13.375,6.118 A7.95 7.95 0 0 1 16.202,7.191 L16.689,6.904 L16.912,6.777 A4.547 4.547 0 0 1 16.602,6.047 A5.814 5.814 0 0 1 16.366,4.911 A4.919 4.919 0 0 1 15.346,4.693 A5.168 5.168 0 0 1 14.486,4.315"/>
</svg>

