<svg xmlns="http://www.w3.org/2000/svg" width="24" height="24">
  <defs/>
  <path  d="M12,10 C13.047,10 13.917,10.806 13.995,11.85 L14,12 L14,13 L19,13 C20.047,13 20.917,13.806 20.995,14.85 L21,15 L21,20 C21,21.047 20.194,21.917 19.15,21.995 L19,22 L6,22 C4.953,22 4.083,21.194 4.005,20.15 L4,20 L4,12 C4,10.953 4.806,10.083 5.85,10.005 L6,10 Z M12,12 L6,12 L6,20 L12,20 Z M9.058,2.081 C9.811,2.403 10.526,2.995 11.054,3.682 C11.578,4.365 12,5.251 12,6.194 C12,8.034 10.285,9 8.903,9 C7.84,9 6.842,8.296 6.35,7.409 C6.064,6.907 5.95,6.326 6.024,5.754 C6.109,5.132 6.425,4.555 6.946,4.072 C7.286,3.758 7.534,3.448 7.642,3.015 L7.676,2.846 C7.724,2.541 7.91,2.275 8.18,2.125 C8.45,1.976 8.774,1.959 9.058,2.081 Z M19,15 L14,15 L14,20 L19,20 Z M16.664,6.09 C17.279,6.372 17.845,6.877 18.257,7.449 C18.667,8.019 19,8.761 19,9.556 C19,11.123 17.613,12 16.427,12 C15.492,12 14.671,11.35 14.281,10.6 C14.051,10.166 13.959,9.672 14.019,9.184 C14.079,8.718 14.282,8.278 14.616,7.894 L14.766,7.734 C14.992,7.51 15.153,7.298 15.228,7.008 L15.258,6.856 C15.303,6.544 15.493,6.272 15.769,6.121 C16.046,5.97 16.378,5.959 16.664,6.09 Z M9.158,4.548 C8.918,4.938 8.616,5.252 8.306,5.538 C8.035,5.791 7.91,6.099 8.098,6.438 C8.3,6.802 8.688,7 8.903,7 C9.212,7 9.513,6.892 9.719,6.726 C9.914,6.57 10,6.391 10,6.194 C10,5.833 9.825,5.366 9.468,4.9 C9.372,4.776 9.269,4.658 9.158,4.548 Z M16.642,8.628 C16.499,8.816 16.342,8.992 16.172,9.156 C16.019,9.308 15.952,9.478 16.055,9.677 C16.119,9.805 16.222,9.91 16.349,9.977 L16.427,10 L16.523,9.993 C16.646,9.975 16.763,9.924 16.859,9.845 C16.949,9.776 17.001,9.668 17,9.555 C17,9.309 16.887,8.973 16.642,8.628 Z"/>
</svg>

