<svg xmlns="http://www.w3.org/2000/svg" width="24" height="24">
  <defs/>
  <path  d="M12,10 A2 2 0 0 1 13.995,11.85 L14,12 L14,20 A2 2 0 0 1 12.15,21.995 L12,22 L6,22 A2 2 0 0 1 4.005,20.15 L4,20 L4,12 A2 2 0 0 1 5.85,10.005 L6,10 Z M19,13 A2 2 0 0 1 20.995,14.85 L21,15 L21,20 A2 2 0 0 1 19.15,21.995 L19,22 L15.465,22 A3.976 3.976 0 0 0 15.991,20.271 L16,20 L16,13 Z M16.664,6.09 C17.279,6.372 17.845,6.877 18.257,7.449 C18.667,8.019 19,8.761 19,9.556 C19,11.123 17.613,12 16.427,12 C15.492,12 14.671,11.35 14.281,10.6 A2.398 2.398 0 0 1 14.019,9.184 C14.088,8.651 14.342,8.153 14.767,7.734 C14.958,7.544 15.055,7.424 15.117,7.314 C15.173,7.217 15.225,7.086 15.259,6.856 A1 1 0 0 1 16.664,6.09 M9.058,2.08 C9.811,2.403 10.526,2.995 11.054,3.682 C11.578,4.365 12,5.251 12,6.194 C12,8.034 10.285,9 8.903,9 C7.84,9 6.842,8.296 6.35,7.409 A2.655 2.655 0 0 1 6.024,5.754 C6.109,5.132 6.425,4.555 6.946,4.072 C7.211,3.827 7.36,3.658 7.46,3.493 C7.552,3.342 7.628,3.153 7.676,2.846 A1 1 0 0 1 9.058,2.081"/>
</svg>

