<svg xmlns="http://www.w3.org/2000/svg" width="24" height="24">
  <defs/>
  <path  d="M9,10 L15,10 C16.105,10 17,10.895 17,12 L17,20 C17,21.105 16.105,22 15,22 L9,22 C7.895,22 7,21.105 7,20 L7,12 C7,10.895 7.895,10 9,10 Z M9,12 L9,20 L15,20 L15,12 Z M12.058,2.08 L12.058,2.081 C12.811,2.403 13.526,2.995 14.054,3.682 C14.578,4.365 15,5.251 15,6.194 C15,8.034 13.285,9 11.903,9 C10.84,9 9.842,8.296 9.35,7.409 C9.064,6.907 8.95,6.326 9.024,5.754 C9.109,5.132 9.426,4.555 9.946,4.073 C10.21,3.827 10.36,3.658 10.46,3.493 C10.576,3.295 10.649,3.074 10.676,2.846 C10.723,2.541 10.909,2.274 11.179,2.125 C11.45,1.975 11.774,1.958 12.058,2.08 Z M11.306,5.54 L11.306,5.539 C11.078,5.751 11.019,5.921 11.005,6.029 C10.99,6.172 11.023,6.316 11.098,6.439 C11.3,6.803 11.688,7.001 11.903,7.001 C12.198,7.002 12.485,6.906 12.72,6.727 C12.914,6.571 13,6.392 13,6.195 C13,5.834 12.825,5.367 12.468,4.901 C12.371,4.775 12.267,4.658 12.159,4.55 C11.918,4.94 11.616,5.253 11.306,5.54 Z"/>
</svg>

