<svg xmlns="http://www.w3.org/2000/svg" width="24" height="24">
  <defs/>
  <path  d="M14.7,2.08 C15.252,2.477 15.626,2.68 15.973,2.794 C16.315,2.907 16.695,2.956 17.29,2.952 C17.829,2.948 18.275,3.372 18.297,3.911 C18.327,4.629 18.389,5.072 18.505,5.429 C18.615,5.766 18.791,6.081 19.134,6.502 C19.312,6.72 19.389,7.002 19.348,7.28 C19.307,7.558 19.151,7.806 18.918,7.963 L18.804,8.029 C18.482,8.192 18.165,8.366 17.851,8.544 C20.815,11.722 20.7,16.685 17.591,19.723 C14.483,22.76 9.518,22.76 6.41,19.723 C3.301,16.685 3.186,11.722 6.15,8.544 C5.836,8.364 5.517,8.192 5.194,8.028 C4.923,7.892 4.727,7.641 4.664,7.344 C4.6,7.047 4.674,6.737 4.866,6.502 C5.209,6.081 5.386,5.766 5.496,5.429 C5.611,5.072 5.673,4.629 5.703,3.911 C5.725,3.372 6.17,2.947 6.71,2.951 C7.305,2.956 7.685,2.907 8.027,2.794 C8.374,2.679 8.748,2.477 9.299,2.08 C9.537,1.908 9.838,1.85 10.123,1.92 C10.408,1.99 10.648,2.181 10.779,2.444 C10.967,2.819 11.171,3.187 11.381,3.552 C11.561,3.866 11.771,4.216 12,4.572 C12.438,3.889 12.843,3.185 13.213,2.462 C13.347,2.195 13.585,1.992 13.877,1.92 C14.162,1.85 14.463,1.908 14.701,2.08 Z M13.333,10.228 C12.834,10.054 12.286,10.297 12.081,10.784 C11.876,11.271 12.086,11.833 12.559,12.068 L12.667,12.113 C13.183,12.296 13.601,12.682 13.826,13.181 L13.886,13.333 C14.07,13.854 14.641,14.127 15.162,13.943 C15.683,13.759 15.956,13.188 15.772,12.667 C15.369,11.527 14.472,10.631 13.333,10.227 Z M14.486,4.315 L14.358,4.54 L14.068,5.032 C13.862,5.375 13.628,5.746 13.375,6.118 C14.377,6.292 15.337,6.656 16.202,7.191 L16.689,6.904 L16.912,6.777 C16.788,6.543 16.684,6.299 16.602,6.047 C16.486,5.677 16.407,5.297 16.366,4.911 C16.019,4.875 15.677,4.802 15.346,4.693 C15.048,4.593 14.761,4.467 14.486,4.315 Z M9.514,4.315 C8.935,4.64 8.295,4.843 7.634,4.911 C7.587,5.313 7.514,5.687 7.397,6.047 C7.315,6.299 7.211,6.543 7.087,6.777 L7.549,7.042 L7.798,7.191 C8.663,6.656 9.623,6.292 10.625,6.118 C10.384,5.762 10.152,5.4 9.931,5.032 L9.641,4.54 C9.598,4.465 9.556,4.39 9.514,4.315 Z"/>
</svg>

