<svg xmlns="http://www.w3.org/2000/svg" width="24" height="24">
  <defs/>
  <path  d="M12,1 C12.552,1 13,1.448 13,2 L13,4 L14.987,4 C15.604,4 16.134,4.577 15.968,5.251 C15.912,5.479 15,9.254 15,13 C15,14.924 15.241,16.865 15.486,18.336 C15.608,19.068 15.73,19.678 15.822,20.103 C15.884,20.393 16,20.7 16,21 L17,21 C17.552,21 18,21.448 18,22 C18,22.552 17.552,23 17,23 L7,23 C6.448,23 6,22.552 6,22 C6,21.448 6.448,21 7,21 L8,21 C8,20.7 8.116,20.393 8.178,20.103 C8.27,19.678 8.392,19.068 8.514,18.336 C8.759,16.865 9,14.924 9,13 C9,9.254 8.088,5.48 8.032,5.251 C7.866,4.577 8.396,4 9.012,4 L11,4 L11,2 C11,1.448 11.448,1 12,1 Z M10.028,21 L13.972,21 C13.796,20.226 13.643,19.447 13.514,18.664 C13.259,17.135 13,15.076 13,13 C13,10.257 13.453,7.527 13.758,6 L10.242,6 C10.547,7.527 11,10.257 11,13 C11,15.076 10.741,17.135 10.486,18.664 C10.357,19.447 10.204,20.226 10.028,21 Z"/>
</svg>

