<svg xmlns="http://www.w3.org/2000/svg" width="24" height="24">
  <defs/>
  <path  d="M13,2 A1 1 0 1 0 11,2 L11,4 L9.013,4 C8.396,4 7.866,4.577 8.032,5.251 C8.088,5.479 9,9.254 9,13 C9,14.924 8.759,16.865 8.514,18.336 C8.4,19.016 8.289,19.704 8.112,20.371 C8.056,20.579 8,20.791 8,21 L7,21 A1 1 0 1 0 7,23 L17,23 A1 1 0 1 0 17,21 L16,21 C16,20.794 15.943,20.578 15.888,20.369 C15.711,19.702 15.6,19.015 15.486,18.336 C15.241,16.865 15,14.924 15,13 C15,9.254 15.912,5.48 15.968,5.251 C16.134,4.577 15.604,4 14.988,4 L13,4 Z"/>
</svg>

