<svg xmlns="http://www.w3.org/2000/svg" width="24" height="24">
  <defs/>
  <path  d="M18,2 C20.209,2 22,3.791 22,6 L22,18 C22,20.209 20.209,22 18,22 L6,22 C3.791,22 2,20.209 2,18 L2,6 C2,3.791 3.791,2 6,2 Z M7.333,5.667 L6.667,5.667 C6.138,5.668 5.701,6.08 5.67,6.608 C5.639,7.137 6.025,7.598 6.55,7.66 L6.667,7.667 L7.333,7.667 C7.494,7.667 7.629,7.781 7.66,7.933 L7.667,8 L7.667,14 C7.668,14.529 8.08,14.966 8.608,14.997 C9.137,15.028 9.598,14.642 9.66,14.117 L9.667,14 L9.667,8.667 C9.668,8.138 10.08,7.701 10.608,7.67 C11.137,7.639 11.598,8.025 11.66,8.55 L11.667,8.667 L11.667,13.333 C11.667,13.964 11.826,14.557 12.107,15.076 L12.217,15.266 L12.12,15.608 C12.009,15.995 11.678,16.278 11.278,16.326 L11.158,16.333 L10.667,16.333 C10.134,16.329 9.692,16.743 9.661,17.274 C9.63,17.806 10.021,18.269 10.55,18.327 L10.667,18.333 L11.158,18.333 C12.291,18.333 13.328,17.695 13.838,16.683 C14.218,16.853 14.633,16.96 15.069,16.991 L15.333,17 L15.667,17 C17.074,17 18.239,15.906 18.328,14.502 L18.333,14.333 L18.333,14.143 C18.332,12.776 17.224,11.668 15.857,11.667 C15.119,11.667 14.424,11.9 13.852,12.306 L13.667,12.447 L13.667,8.667 C13.667,7.534 13.029,6.497 12.017,5.987 C11.006,5.477 9.793,5.581 8.882,6.255 C8.506,5.92 8.031,5.717 7.529,5.675 Z M15.857,13.667 C16.12,13.667 16.333,13.88 16.333,14.143 L16.333,14.333 C16.333,14.701 16.035,14.999 15.667,15 L15.333,15 C15.007,15 14.703,14.906 14.446,14.745 L14.451,14.727 C14.631,14.099 15.204,13.667 15.857,13.667 Z"/>
</svg>

