<svg xmlns="http://www.w3.org/2000/svg" width="24" height="24">
  <defs/>
  <path  d="M3,4 C3,3.448 3.448,3 4,3 L5,3 C5.917,3 6.738,3.411 7.288,4.06 C8.456,2.983 10.15,2.699 11.605,3.336 C13.06,3.974 14,5.412 14,7 L14,13.918 C14.884,12.712 16.29,12 17.785,12 C19.561,12 21,13.439 21,15.215 L21,15.5 C21,17.433 19.433,19 17.5,19 L17,19 C16.125,19.001 15.266,18.772 14.508,18.335 C13.943,19.932 12.432,21 10.738,21 L10,21 C9.448,21 9,20.552 9,20 C9,19.448 9.448,19 10,19 L10.737,19 C11.63,19 12.414,18.408 12.66,17.55 L12.87,16.818 C12.302,15.988 11.999,15.006 12,14 L12,7 C12,5.895 11.105,5 10,5 C8.895,5 8,5.895 8,7 L8,15 C8,15.552 7.552,16 7,16 C6.448,16 6,15.552 6,15 L6,6 C6,5.448 5.552,5 5,5 L4,5 C3.448,5 3,4.552 3,4 Z M15.093,16.316 C15.629,16.759 16.304,17.001 17,17 L17.5,17 C18.328,17 19,16.328 19,15.5 L19,15.215 C19,14.544 18.456,14 17.785,14 C16.583,14 15.527,14.797 15.197,15.952 Z"/>
</svg>

