<svg xmlns="http://www.w3.org/2000/svg" width="24" height="24">
  <defs/>
  <path  d="M4.222,4.222 C6.565,1.879 10.364,1.879 12.707,4.222 L19.778,11.292 C22.121,13.635 22.122,17.434 19.778,19.778 C17.435,22.121 13.636,22.121 11.293,19.778 L4.222,12.707 C1.879,10.364 1.879,6.565 4.222,4.222 Z M11.292,16.95 L12.707,18.364 C14.269,19.926 16.802,19.926 18.364,18.364 C19.926,16.802 19.926,14.269 18.364,12.707 L16.95,11.293 L16.948,11.292 C15.381,9.76 12.872,9.775 11.323,11.325 C9.774,12.875 9.76,15.383 11.293,16.95 Z"/>
</svg>

