<svg xmlns="http://www.w3.org/2000/svg" width="24" height="24">
  <defs/>
  <path  d="M12.707,4.222 L12.707,4.223 L18.331,9.848 C18.342,9.859 18.353,9.869 18.364,9.88 L19.778,11.293 C22.121,13.636 22.121,17.436 19.778,19.779 C17.435,22.122 13.635,22.122 11.292,19.779 L4.222,12.707 C1.911,10.358 1.927,6.586 4.256,4.256 C6.586,1.927 10.358,1.911 12.707,4.222 Z M12.707,18.364 C14.269,19.926 16.802,19.926 18.364,18.364 C19.926,16.802 19.926,14.269 18.364,12.707 L16.924,11.267 C15.355,9.712 12.822,9.724 11.267,11.293 C9.712,12.862 9.724,15.395 11.293,16.95 Z M13.787,8.131 L11.293,5.636 C9.731,4.074 7.198,4.074 5.636,5.636 C4.074,7.198 4.074,9.731 5.636,11.293 L8.131,13.788 C8.211,12.314 8.833,10.921 9.879,9.878 C10.921,8.833 12.313,8.211 13.787,8.131 Z"/>
</svg>

