<svg xmlns="http://www.w3.org/2000/svg" width="24" height="24">
  <defs/>
  <path  d="M12,2 C13.751,2 15.19,2.592 16.168,3.159 C17.492,3.926 18,5.369 18,6.657 L18,8.367 C18.397,8.62 18.767,8.867 19.095,9.095 L19.66,9.494 L19.76,9.566 C20.051,9.778 20.341,9.993 20.623,10.218 C21.049,10.558 21.123,11.198 20.781,11.625 C20.436,12.056 19.807,12.126 19.376,11.781 C18.929,11.429 18.47,11.091 18,10.769 L18,17.586 C18,20.024 16.024,22 13.586,22 L10.414,22 C7.976,22 6,20.024 6,17.586 L6,10.769 C5.533,11.093 5.07,11.426 4.625,11.781 C4.194,12.126 3.564,12.056 3.219,11.625 C2.874,11.194 2.944,10.564 3.375,10.219 C3.659,9.995 3.948,9.779 4.24,9.566 L4.666,9.261 C5.05,8.991 5.504,8.683 6,8.368 L6,6.657 C6,5.368 6.508,3.926 7.832,3.159 C8.81,2.592 10.25,2 12,2 Z M16,11.414 C15.391,12.023 15,12.779 15,13.657 L15,17 C15,18.105 14.105,19 13,19 L11,19 C9.895,19 9,18.105 9,17 L9,13.657 C9,12.779 8.609,12.023 8,11.414 L8,17.586 C8,18.919 9.081,20 10.414,20 L13.586,20 C14.919,20 16,18.919 16,17.586 Z M12,4 C10.703,4 9.61,4.44 8.835,4.89 C8.323,5.185 8,5.823 8,6.656 L8,7.216 C8.361,7.031 8.729,6.857 9.096,6.702 C10.034,6.308 11.054,6 12,6 C12.946,6 13.966,6.308 14.904,6.703 C15.271,6.858 15.639,7.032 16,7.216 L16,6.656 C16,5.824 15.677,5.186 15.165,4.889 C14.39,4.44 13.297,4 12,4 Z"/>
</svg>

