<svg xmlns="http://www.w3.org/2000/svg" width="24" height="24">
  <defs/>
  <path  d="M15.84,4 A3 3 0 0 1 18.339,5.34 L18.444,5.512 L20.438,9 L21.6,9 A0.4 0.4 0 0 1 21.992,9.32 L22,9.4 L22,9.875 A0.8 0.8 0 0 1 21.498,10.618 L21.37,10.658 A5 5 0 0 1 21.854,13.16 L21.827,13.447 L21.102,19.248 A2 2 0 0 1 19.275,20.994 L19.117,21 L18,21 A2 2 0 0 1 16.005,19.15 L16,19 L8,19 A2 2 0 0 1 6.15,20.995 L6,21 L4.883,21 A2 2 0 0 1 2.923,19.404 L2.898,19.248 L2.173,13.448 A5 5 0 0 1 2.513,10.92 L2.63,10.657 L2.606,10.652 A0.8 0.8 0 0 1 2.007,9.984 L2,9.875 L2,9.4 A0.4 0.4 0 0 1 2.32,9.008 L2.4,9 L3.563,9 L5.556,5.512 A3 3 0 0 1 7.96,4.007 L8.16,4 Z M19.76,12.036 A2.953 2.953 0 0 1 17.76,12.993 L17.554,13 L6.446,13 A2.96 2.96 0 0 1 4.241,12.036 A3 3 0 0 0 4.138,12.964 L4.158,13.199 L4.883,19 L6,19 L6,18 A1 1 0 0 1 6.883,17.007 L7,17 L17,17 A1 1 0 0 1 17.993,17.883 L18,18 L18,19 L19.117,19 L19.842,13.199 C19.892,12.807 19.862,12.412 19.759,12.036 Z M5.737,13.898 L8.48,15.38 C8.853,15.582 8.698,16.149 8.274,16.132 L5.96,16.039 A1 1 0 0 1 5,15.04 L5,14.34 A0.5 0.5 0 0 1 5.738,13.9 Z M18.999,14.338 L18.999,15.039 A1 1 0 0 1 18.039,16.039 L15.725,16.131 C15.301,16.148 15.145,15.581 15.519,15.379 L18.261,13.899 A0.5 0.5 0 0 1 18.999,14.339 Z M15.84,6 L8.16,6 A1 1 0 0 0 7.292,6.504 L5.578,9.504 A1 1 0 0 0 6.446,11 L17.554,11 A1 1 0 0 0 18.422,9.504 L16.708,6.504 A1 1 0 0 0 15.839,6 Z"/>
</svg>

