<svg xmlns="http://www.w3.org/2000/svg" width="24" height="24">
  <defs/>
  <path  d="M15.764,4 C16.9,4 17.939,4.642 18.447,5.658 L19.833,8.429 C20.077,8.329 20.317,8.221 20.553,8.105 C21.047,7.858 21.648,8.059 21.895,8.553 C22.142,9.047 21.941,9.648 21.447,9.895 C21.207,10.002 20.965,10.106 20.722,10.207 L21.683,12.13 C21.892,12.547 22,13.007 22,13.473 L22,16 C22.001,16.854 21.637,17.668 21,18.236 L21,19.5 C21,20.328 20.328,21 19.5,21 C18.672,21 18,20.328 18,19.5 L18,19 L6,19 L6,19.5 C6,20.328 5.328,21 4.5,21 C3.672,21 3,20.328 3,19.5 L3,18.236 C2.386,17.686 2,16.888 2,16 L2,13.472 C2,13.006 2.109,12.547 2.317,12.131 L3.27,10.223 C3.029,10.121 2.79,10.013 2.555,9.896 C2.064,9.646 1.863,9.048 2.105,8.553 C2.352,8.059 2.953,7.858 3.447,8.105 C3.683,8.222 3.924,8.329 4.167,8.429 L5.553,5.659 C6.061,4.642 7.1,4 8.236,4 Z M8.236,6 C7.902,6 7.59,6.167 7.404,6.445 L7.342,6.553 L6.072,9.091 C7.62,9.555 9.706,10 12,10 C14.142,10 16.101,9.612 17.61,9.183 L17.927,9.091 L16.658,6.553 C16.509,6.254 16.22,6.05 15.888,6.008 L15.765,6 L8.236,6 Z M7.5,13 C6.672,13 6,13.672 6,14.5 C6,15.328 6.672,16 7.5,16 C8.328,16 9,15.328 9,14.5 C9,13.672 8.328,13 7.5,13 Z M16.5,13 C15.672,13 15,13.672 15,14.5 C15,15.328 15.672,16 16.5,16 C17.328,16 18,15.328 18,14.5 C18,13.672 17.328,13 16.5,13 Z"/>
</svg>

