<svg xmlns="http://www.w3.org/2000/svg" width="24" height="24">
  <defs/>
  <path  d="M16.42,4 A2 2 0 0 1 18.069,4.868 L18.156,5.008 L21.736,11.273 A2 2 0 0 1 21.992,12.093 L22,12.266 L22,16.764 A2 2 0 0 1 21.864,17.489 L21.789,17.659 L20.671,19.894 A2 2 0 0 1 19.043,20.994 L18.882,21 L17,21 A2 2 0 0 1 15.005,19.15 L15,19 L9,19 A2 2 0 0 1 7.15,20.995 L7,21 L5.118,21 A2 2 0 0 1 3.408,20.036 L3.329,19.894 L2.211,17.658 A2 2 0 0 1 2.009,16.949 L2,16.764 L2,12.266 A2 2 0 0 1 2.184,11.428 L2.264,11.273 L5.844,5.008 A2 2 0 0 1 7.416,4.007 L7.58,4 Z M16.42,6 L7.58,6 L4,12.266 L4,16.764 L5.118,19 L7,19 L7,18.1 A1.1 1.1 0 0 1 7.98,17.006 L8.1,17 L15.9,17 A1.1 1.1 0 0 1 16.994,17.98 L17,18.1 L17,19 L18.882,19 L20,16.764 L20,12.266 Z M16.554,11.105 A1 1 0 0 1 17.894,11.553 A1.01 1.01 0 0 1 17.446,12.895 C15.802,13.715 13.81,14 12,14 C10.154,14 8.23,13.718 6.558,12.897 A1.017 1.017 0 0 1 6.106,11.553 A1.008 1.008 0 0 1 7.346,11.064 L7.613,11.179 L7.857,11.276 L8.076,11.356 L8.336,11.442 L8.638,11.534 L8.978,11.625 L9.355,11.715 L9.766,11.797 A12.41 12.41 0 0 0 12,12 C13.516,12 15.169,11.768 16.555,11.105 Z"/>
</svg>

