<svg xmlns="http://www.w3.org/2000/svg" width="24" height="24">
  <defs/>
  <path  d="M15.764,4 A3 3 0 0 1 18.447,5.658 L19.83,8.423 C20.074,8.323 20.317,8.222 20.553,8.105 A1 1 0 0 1 21.447,9.895 C20.953,10.141 20.727,10.217 20.727,10.217 L21.683,12.13 C21.892,12.547 22,13.006 22,13.472 L22,16 A2.99 2.99 0 0 1 21,18.236 L21,19.5 A1.5 1.5 0 0 1 18,19.5 L18,19 L6,19 L6,19.5 A1.5 1.5 0 0 1 3,19.5 L3,18.236 C2.386,17.686 2,16.888 2,16 L2,13.472 A3 3 0 0 1 2.317,12.131 L3.273,10.217 A14.405 14.405 0 0 1 2.555,9.896 A1 1 0 0 1 2.105,8.553 A1.011 1.011 0 0 1 3.452,8.108 C3.687,8.222 3.928,8.325 4.17,8.423 L5.553,5.658 A3 3 0 0 1 8.236,4 Z M18.834,10.904 C17.134,11.441 14.715,12 12,12 C9.285,12 6.866,11.44 5.166,10.904 L4.106,13.024 A1 1 0 0 0 4,13.472 L4,16 A1 1 0 0 0 5,17 L19,17 A1 1 0 0 0 20,16 L20,13.472 A1 1 0 0 0 19.894,13.025 L18.834,10.905 Z M7.5,13 A1.5 1.5 0 1 1 7.5,16 A1.5 1.5 0 0 1 7.5,13 M16.5,13 A1.5 1.5 0 1 1 16.5,16 A1.5 1.5 0 0 1 16.5,13 M15.764,6 L8.236,6 A1 1 0 0 0 7.342,6.553 L6.072,9.09 C7.62,9.555 9.706,10 12,10 C14.294,10 16.38,9.555 17.927,9.09 L16.658,6.553 A1 1 0 0 0 15.764,6"/>
</svg>

