<svg xmlns="http://www.w3.org/2000/svg" width="24" height="24">
  <defs/>
  <path  d="M8.16,4 L15.84,4 C16.916,4 17.91,4.577 18.444,5.512 L20.437,9 L21.6,9 C21.821,9 22,9.179 22,9.4 L22,9.875 C22,10.242 21.75,10.563 21.394,10.652 L21.37,10.658 C21.788,11.525 21.946,12.493 21.827,13.448 L21.102,19.248 C20.977,20.249 20.126,21 19.117,21 L19,21 C17.895,21 17,20.105 17,19 L7,19 C7,20.105 6.105,21 5,21 L4.883,21 C3.874,21 3.023,20.249 2.898,19.248 L2.173,13.447 C2.054,12.492 2.212,11.524 2.63,10.657 L2.606,10.652 C2.25,10.563 2,10.242 2,9.875 L2,9.4 C2,9.179 2.179,9 2.4,9 L3.563,9 L5.556,5.512 C6.09,4.577 7.084,4 8.16,4 Z M18.422,9.504 L16.708,6.504 C16.53,6.192 16.198,6 15.839,6 L8.161,6 C7.802,6 7.47,6.192 7.292,6.504 L5.578,9.504 C5.401,9.813 5.403,10.194 5.581,10.502 C5.76,10.81 6.09,11 6.446,11 L17.554,11 C17.91,11 18.24,10.81 18.419,10.502 C18.597,10.194 18.599,9.813 18.422,9.504 Z M19,14.339 C19,14.163 18.907,14 18.756,13.909 C18.605,13.819 18.417,13.815 18.262,13.899 L15.52,15.379 C15.146,15.581 15.302,16.148 15.726,16.131 L18.04,16.039 C18.577,16.018 19,15.576 19,15.039 Z M5,14.339 L5,15.04 C5.001,15.576 5.424,16.017 5.96,16.038 L8.274,16.131 C8.698,16.148 8.853,15.581 8.48,15.379 L5.738,13.899 C5.583,13.815 5.395,13.819 5.244,13.909 C5.093,14 5,14.163 5,14.339 Z"/>
</svg>

