<svg xmlns="http://www.w3.org/2000/svg" width="24" height="24">
  <defs/>
  <path  d="M12,2 C13.751,2 15.19,2.592 16.168,3.159 C17.492,3.926 18,5.369 18,6.657 L18,8.367 A29.634 29.634 0 0 1 20.624,10.219 A1 1 0 0 1 19.376,11.781 A25.958 25.958 0 0 0 18,10.769 L18,17.586 A4.414 4.414 0 0 1 13.586,22 L10.414,22 A4.414 4.414 0 0 1 6,17.586 L6,10.769 C5.533,11.093 5.07,11.426 4.625,11.781 A1 1 0 0 1 3.375,10.219 A29.616 29.616 0 0 1 6,8.368 L6,6.657 C6,5.368 6.508,3.926 7.832,3.159 C8.81,2.592 10.25,2 12,2 M16,11.414 L15.879,11.536 L15.743,11.68 A3 3 0 0 0 15.008,13.439 L15,13.657 L15,17 L14.995,17.15 A2 2 0 0 1 13.157,18.994 L13,19 L11,19 L10.85,18.995 A2 2 0 0 1 9.006,17.157 L9,17 L9,13.657 L8.993,13.459 A3 3 0 0 0 8.27,11.695 L8.121,11.535 L8,11.415 L8,17.585 L8.008,17.777 A2.414 2.414 0 0 0 10.223,19.992 L10.414,20 L13.586,20 L13.777,19.992 A2.414 2.414 0 0 0 15.992,17.777 L16,17.586 Z M12,8 C11.446,8 10.716,8.192 9.872,8.547 C9.588,8.667 9.3,8.801 9.013,8.945 L8.583,9.168 L9.536,10.121 A5 5 0 0 1 10.993,13.392 L11,13.657 L11,17 L13,17 L13,13.657 A5 5 0 0 1 14.282,10.313 L14.464,10.121 L15.417,9.168 A15.16 15.16 0 0 0 14.127,8.547 C13.285,8.192 12.555,8 12,8 M12,4 C10.703,4 9.61,4.44 8.835,4.89 C8.323,5.185 8,5.823 8,6.656 L8,7.216 C8.361,7.031 8.729,6.857 9.096,6.702 C10.034,6.308 11.054,6 12,6 C12.946,6 13.966,6.308 14.904,6.703 C15.271,6.858 15.639,7.032 16,7.216 L16,6.656 C16,5.824 15.677,5.186 15.165,4.889 C14.39,4.44 13.297,4 12,4"/>
</svg>

