<svg xmlns="http://www.w3.org/2000/svg" width="24" height="24">
  <defs/>
  <path  d="M7.58,4 L16.42,4 C17.138,4 17.8,4.385 18.156,5.008 L21.736,11.273 C21.909,11.575 22,11.918 22,12.266 L22,16.764 C22,17.074 21.928,17.381 21.789,17.658 L20.671,19.894 C20.332,20.572 19.64,21 18.882,21 L18,21 C16.895,21 16,20.105 16,19 L8,19 C8,20.105 7.105,21 6,21 L5.118,21 C4.36,21 3.668,20.572 3.329,19.894 L2.211,17.658 C2.072,17.38 2,17.074 2,16.764 L2,12.266 C2,11.918 2.091,11.575 2.264,11.273 L5.844,5.008 C6.2,4.385 6.862,4 7.58,4 Z M12,12 C10.403,12 8.928,11.657 7.447,11.105 C6.953,10.858 6.352,11.059 6.105,11.553 C5.858,12.047 6.059,12.648 6.553,12.895 C7.047,13.14 9.56,14 12,14 C13.854,14 15.768,13.726 17.445,12.896 C17.936,12.646 18.137,12.048 17.895,11.553 C17.648,11.059 17.047,10.858 16.553,11.105 C15.188,11.787 13.496,12 12,12 Z"/>
</svg>

