<svg xmlns="http://www.w3.org/2000/svg" width="24" height="24">
  <defs/>
  <path  d="M19,4 C20.589,4 21.902,5.238 21.995,6.824 L22,7 L22,17 C22,18.589 20.762,19.902 19.176,19.995 L19,20 L5,20 C3.411,20 2.098,18.762 2.005,17.176 L2,17 L2,7 C2,5.411 3.238,4.098 4.824,4.005 L5,4 Z M20,10 L4,10 L4,17 C4,17.507 4.38,17.934 4.883,17.993 L5,18 L19,18 C19.507,18 19.934,17.62 19.993,17.117 L20,17 Z M19,6 L5,6 C4.448,6 4,6.448 4,7 L4,8 L20,8 L20,7 C20,6.448 19.552,6 19,6 Z M14.707,11.464 L16.535,13.293 C16.925,13.684 16.925,14.316 16.535,14.707 L14.707,16.535 C14.456,16.795 14.084,16.899 13.734,16.808 C13.385,16.716 13.112,16.443 13.02,16.094 C12.929,15.744 13.033,15.372 13.293,15.121 L13.413,15 L9,15 C8.448,15 8,14.552 8,14 C8,13.448 8.448,13 9,13 L13.414,13 L13.293,12.879 C12.902,12.489 12.902,11.855 13.292,11.465 C13.683,11.074 14.316,11.074 14.707,11.464 Z"/>
</svg>

