<svg xmlns="http://www.w3.org/2000/svg" width="24" height="24">
  <defs/>
  <path  d="M22,10 L22,17 C22,18.657 20.657,20 19,20 L5,20 C3.343,20 2,18.657 2,17 L2,10 Z M5,4 L19,4 C20.657,4 22,5.343 22,7 L22,8 L2,8 L2,7 C2,5.343 3.343,4 5,4 Z M8,15 C8,15.552 8.448,16 9,16 L13.414,16 L13.293,16.121 C13.033,16.372 12.929,16.744 13.02,17.094 C13.112,17.443 13.385,17.716 13.734,17.808 C14.084,17.899 14.456,17.795 14.707,17.535 L16.535,15.707 C16.925,15.316 16.925,14.684 16.535,14.293 L14.707,12.464 C14.316,12.074 13.683,12.074 13.292,12.465 C12.902,12.855 12.902,13.489 13.293,13.879 L13.414,14 L9,14 C8.448,14 8,14.448 8,15 Z"/>
</svg>

