<svg xmlns="http://www.w3.org/2000/svg" width="24" height="24">
  <defs/>
  <path  d="M15.89,5.99 C16.466,5.414 17.396,5.402 17.985,5.964 C18.575,6.526 18.609,7.455 18.062,8.058 C17.515,8.661 16.586,8.718 15.97,8.185 C16.05,8.633 15.977,9.111 15.732,9.535 C15.564,9.828 15.323,10.073 15.034,10.248 C15.512,9.984 16.076,9.927 16.597,10.09 C17.118,10.253 17.549,10.621 17.792,11.11 C18.176,10.588 18.852,10.372 19.468,10.574 C20.084,10.777 20.5,11.351 20.5,12 C20.5,12.648 20.084,13.222 19.468,13.425 C18.852,13.627 18.176,13.411 17.792,12.889 C17.55,13.378 17.117,13.747 16.596,13.91 C16.075,14.073 15.51,14.015 15.032,13.751 C15.743,14.177 16.116,14.999 15.968,15.815 C16.509,15.346 17.306,15.326 17.871,15.765 C18.436,16.205 18.612,16.983 18.29,17.622 C17.969,18.262 17.24,18.586 16.55,18.395 C15.86,18.204 15.401,17.552 15.454,16.838 C14.895,17.427 14.036,17.62 13.279,17.327 C12.522,17.035 12.017,16.314 12,15.502 C11.985,16.315 11.48,17.037 10.722,17.33 C9.964,17.624 9.104,17.429 8.546,16.838 C8.599,17.552 8.14,18.204 7.45,18.394 C6.76,18.585 6.032,18.262 5.71,17.623 C5.388,16.983 5.563,16.206 6.128,15.766 C6.693,15.326 7.489,15.346 8.031,15.814 C7.948,15.35 8.032,14.872 8.268,14.464 C8.437,14.171 8.678,13.925 8.968,13.751 C8.49,14.015 7.925,14.073 7.404,13.91 C6.883,13.748 6.451,13.379 6.208,12.89 C5.824,13.412 5.148,13.628 4.532,13.426 C3.916,13.223 3.5,12.649 3.5,12 C3.5,11.352 3.916,10.778 4.532,10.575 C5.148,10.373 5.824,10.589 6.208,11.111 C6.451,10.622 6.882,10.253 7.403,10.091 C7.924,9.928 8.489,9.985 8.967,10.249 C8.677,10.075 8.437,9.829 8.268,9.536 C8.032,9.128 7.948,8.65 8.031,8.186 C7.489,8.654 6.693,8.674 6.128,8.234 C5.563,7.794 5.388,7.017 5.71,6.377 C6.032,5.738 6.76,5.415 7.45,5.606 C8.14,5.796 8.599,6.448 8.546,7.162 C9.104,6.571 9.964,6.376 10.722,6.67 C11.48,6.963 11.985,7.685 12,8.498 C12.015,7.685 12.52,6.963 13.278,6.67 C14.036,6.376 14.896,6.571 15.454,7.162 C15.423,6.742 15.568,6.311 15.889,5.99 Z M12,8.57 C11.989,9.273 11.61,9.918 11.001,10.27 C10.393,10.621 9.644,10.627 9.03,10.285 C9.633,10.646 10.002,11.298 10.001,12 C10.001,12.703 9.632,13.354 9.029,13.715 C9.643,13.373 10.392,13.379 11.001,13.73 C11.609,14.082 11.989,14.727 12,15.43 C12.011,14.727 12.391,14.082 12.999,13.731 C13.608,13.38 14.356,13.374 14.97,13.715 C14.367,13.354 13.998,12.703 13.998,12 C13.998,11.297 14.367,10.646 14.97,10.285 C14.356,10.626 13.608,10.62 12.999,10.269 C12.391,9.918 12.011,9.273 12,8.57 Z M11,2.5 C11,1.948 11.448,1.5 12,1.5 C12.552,1.5 13,1.948 13,2.5 C13,3.052 12.552,3.5 12,3.5 C12.828,3.5 13.5,4.172 13.5,5 C13.5,5.828 12.828,6.5 12,6.5 C11.172,6.5 10.5,5.828 10.5,5 C10.5,4.172 11.172,3.5 12,3.5 C11.448,3.5 11,3.052 11,2.5 Z M10.5,19 C10.5,18.172 11.172,17.5 12,17.5 C12.828,17.5 13.5,18.172 13.5,19 C13.5,19.828 12.828,20.5 12,20.5 C12.552,20.5 13,20.948 13,21.5 C13,22.052 12.552,22.5 12,22.5 C11.448,22.5 11,22.052 11,21.5 C11,20.948 11.448,20.5 12,20.5 C11.172,20.5 10.5,19.828 10.5,19 Z M16.25,19.361 C16.729,19.085 17.34,19.249 17.617,19.728 C17.893,20.206 17.729,20.818 17.25,21.094 C16.771,21.37 16.16,21.206 15.884,20.728 C15.607,20.249 15.771,19.637 16.25,19.361 Z M3.5,12 C3.5,12.552 3.052,13 2.5,13 C1.948,13 1.5,12.552 1.5,12 C1.5,11.448 1.948,11 2.5,11 C3.052,11 3.5,11.448 3.5,12 Z M20.5,12 C20.5,11.448 20.948,11 21.5,11 C22.052,11 22.5,11.448 22.5,12 C22.5,12.552 22.052,13 21.5,13 C20.948,13 20.5,12.552 20.5,12 Z M3.273,15.884 C3.583,15.703 3.966,15.701 4.277,15.88 C4.588,16.058 4.78,16.39 4.779,16.749 C4.778,17.108 4.585,17.439 4.273,17.616 C3.795,17.888 3.188,17.723 2.913,17.247 C2.638,16.771 2.799,16.162 3.273,15.884 Z M2.907,6.75 C3.084,6.438 3.415,6.245 3.774,6.244 C4.133,6.243 4.465,6.435 4.643,6.746 C4.822,7.057 4.82,7.44 4.639,7.75 C4.361,8.224 3.752,8.385 3.276,8.11 C2.8,7.835 2.635,7.228 2.907,6.75 Z M6.384,19.727 C6.561,19.415 6.892,19.222 7.251,19.221 C7.61,19.22 7.942,19.412 8.12,19.723 C8.299,20.034 8.297,20.417 8.116,20.727 C7.838,21.201 7.229,21.362 6.753,21.087 C6.277,20.812 6.112,20.205 6.384,19.727 Z M19.727,6.384 C20.037,6.203 20.42,6.201 20.731,6.38 C21.042,6.558 21.234,6.89 21.233,7.249 C21.232,7.608 21.039,7.939 20.727,8.116 C20.249,8.388 19.642,8.223 19.367,7.747 C19.092,7.271 19.253,6.662 19.727,6.384 Z M6.75,2.907 C7.06,2.726 7.443,2.724 7.754,2.903 C8.065,3.081 8.257,3.413 8.256,3.772 C8.255,4.131 8.062,4.462 7.75,4.639 C7.272,4.911 6.665,4.746 6.39,4.27 C6.115,3.794 6.276,3.185 6.75,2.907 Z M19.361,16.25 C19.538,15.938 19.869,15.745 20.228,15.744 C20.587,15.743 20.919,15.935 21.097,16.246 C21.276,16.557 21.274,16.94 21.093,17.25 C20.815,17.724 20.206,17.885 19.73,17.61 C19.254,17.335 19.089,16.728 19.361,16.25 Z M15.884,3.273 C16.061,2.961 16.392,2.768 16.751,2.767 C17.11,2.766 17.442,2.958 17.62,3.269 C17.799,3.58 17.797,3.963 17.616,4.273 C17.338,4.747 16.729,4.908 16.253,4.633 C15.777,4.358 15.612,3.751 15.884,3.273 Z"/>
</svg>

