<svg xmlns="http://www.w3.org/2000/svg" width="24" height="24">
  <defs/>
  <path  d="M19,5 C20.657,5 22,6.343 22,8 L22,16 C22,17.657 20.657,19 19,19 L16.828,19 C16.033,19 15.27,18.683 14.708,18.121 L12.878,16.293 C12.691,16.106 12.437,16 12.172,16 L11.828,16 C11.563,16 11.308,16.105 11.121,16.293 L9.293,18.12 C8.731,18.683 7.968,19 7.172,19 L5,19 C3.343,19 2,17.657 2,16 L2,8 C2,6.343 3.343,5 5,5 Z M16,9 C14.895,9 14,9.895 14,11 C14,12.105 14.895,13 16,13 C17.105,13 18,12.105 18,11 C18,9.895 17.105,9 16,9 Z M8,9 C6.895,9 6,9.895 6,11 C6,12.105 6.895,13 8,13 C9.105,13 10,12.105 10,11 C10,9.895 9.105,9 8,9 Z"/>
</svg>

