<svg xmlns="http://www.w3.org/2000/svg" width="24" height="24">
  <defs/>
  <path  d="M12,3 A0.5 0.5 0 1 0 12,2 A0.5 0.5 0 0 0 12,3 M12,22 A0.5 0.5 0 1 0 12,21 A0.5 0.5 0 0 0 12,22 M12,6 A1 1 0 1 0 12,4 A1 1 0 0 0 12,6 M12,20 A1 1 0 1 0 12,18 A1 1 0 0 0 12,20 M14.75,7.237 A1.5 1.5 0 1 1 13.25,9.835 A1.5 1.5 0 0 1 14.75,7.237 M9.5,12 A1.5 1.5 0 1 1 6.5,12 A1.5 1.5 0 0 1 9.5,12 M17.5,12 A1.5 1.5 0 1 1 14.5,12 A1.5 1.5 0 0 1 17.5,12 M11.3,16.214 A1.5 1.5 0 1 0 8.701,14.714 A1.5 1.5 0 0 0 11.299,16.214 Z M15.3,14.714 A1.5 1.5 0 1 0 12.701,16.214 A1.5 1.5 0 0 0 15.299,14.714 Z M9.25,7.237 A1.5 1.5 0 1 1 10.75,9.835 A1.5 1.5 0 0 1 9.25,7.237 M17.657,7.757 A1 1 0 1 1 16.243,6.343 A1 1 0 0 1 17.657,7.757 M7.757,17.657 A1 1 0 1 1 6.343,16.242 A1 1 0 0 1 7.757,17.657 M18,12 A1 1 0 1 0 20,12 A1 1 0 0 0 18,12 M4,12 A1 1 0 1 0 6,12 A1 1 0 0 0 4,12 M16.243,17.657 A1 1 0 1 1 17.657,16.243 A1 1 0 0 1 16.243,17.657 M6.343,7.757 A1 1 0 1 1 7.757,6.343 A1 1 0 0 1 6.343,7.757 M17.183,4.023 A0.5 0.5 0 1 1 16.317,3.523 A0.5 0.5 0 0 1 17.183,4.023 M7.683,20.477 A0.5 0.5 0 1 1 6.817,19.977 A0.5 0.5 0 0 1 7.683,20.477 M19.794,7.5 A0.5 0.5 0 1 0 20.66,7 A0.5 0.5 0 0 0 19.794,7.5 M3.34,17 A0.5 0.5 0 1 0 4.206,16.5 A0.5 0.5 0 0 0 3.34,17 M21.5,12.5 A0.5 0.5 0 1 1 21.5,11.5 A0.5 0.5 0 0 1 21.5,12.5 M2.5,12.5 A0.5 0.5 0 1 1 2.5,11.5 A0.5 0.5 0 0 1 2.5,12.5 M19.794,16.5 A0.5 0.5 0 1 0 20.66,17 A0.5 0.5 0 0 0 19.794,16.5 M3.34,7 A0.5 0.5 0 1 0 4.206,7.5 A0.5 0.5 0 0 0 3.34,7 M16.317,20.477 A0.5 0.5 0 1 1 17.183,19.977 A0.5 0.5 0 0 1 16.317,20.477 M6.817,4.023 A0.5 0.5 0 1 1 7.683,3.523 A0.5 0.5 0 0 1 6.817,4.023"/>
</svg>

