<svg xmlns="http://www.w3.org/2000/svg" width="24" height="24">
  <defs/>
  <path  d="M22,10 L22,17 C22,18.657 20.657,20 19,20 L5,20 C3.343,20 2,18.657 2,17 L2,10 Z M5,4 L19,4 C20.657,4 22,5.343 22,7 L22,8 L2,8 L2,7 C2,5.343 3.343,4 5,4 Z M10.586,14 L10.706,13.879 C11.085,13.487 11.08,12.863 10.695,12.477 C10.309,12.091 9.686,12.085 9.293,12.464 L7.464,14.293 C7.074,14.684 7.074,15.316 7.464,15.707 L9.293,17.535 C9.544,17.795 9.916,17.899 10.266,17.808 C10.615,17.716 10.888,17.443 10.98,17.094 C11.071,16.744 10.967,16.372 10.707,16.121 L10.586,16 L15,16 C15.552,16 16,15.552 16,15 C16,14.448 15.552,14 15,14 Z"/>
</svg>

