<svg xmlns="http://www.w3.org/2000/svg" width="24" height="24">
  <defs/>
  <path  d="M2,8 C2,6.343 3.343,5 5,5 L19,5 C20.657,5 22,6.343 22,8 L22,16 C22,17.657 20.657,19 19,19 L16.828,19 C16.033,19 15.27,18.683 14.708,18.121 L12.878,16.293 C12.691,16.106 12.437,16 12.172,16 L11.828,16 C11.563,16 11.308,16.105 11.121,16.293 L9.293,18.12 C8.731,18.683 7.968,19 7.172,19 L5,19 C3.343,19 2,17.657 2,16 Z M5,7 C4.448,7 4,7.448 4,8 L4,16 C4,16.552 4.448,17 5,17 L7.172,17 C7.437,17 7.692,16.895 7.879,16.707 L9.707,14.879 C10.269,14.316 11.032,14 11.828,14 L12.172,14 C12.967,14 13.73,14.317 14.292,14.879 L16.122,16.707 C16.309,16.894 16.563,17 16.828,17 L19,17 C19.552,17 20,16.552 20,16 L20,8 C20,7.448 19.552,7 19,7 Z M14,11 C14,9.895 14.895,9 16,9 C17.105,9 18,9.895 18,11 C18,12.105 17.105,13 16,13 C14.895,13 14,12.105 14,11 Z M6,11 C6,9.895 6.895,9 8,9 C9.105,9 10,9.895 10,11 C10,12.105 9.105,13 8,13 C6.895,13 6,12.105 6,11 Z"/>
</svg>

