<svg xmlns="http://www.w3.org/2000/svg" width="24" height="24">
  <defs/>
  <path  d="M19,4 C20.589,4 21.902,5.238 21.995,6.824 L22,7 L22,17 C22,18.589 20.762,19.902 19.176,19.995 L19,20 L5,20 C3.411,20 2.098,18.762 2.005,17.176 L2,17 L2,7 C2,5.411 3.238,4.098 4.824,4.005 L5,4 Z M20,10 L4,10 L4,17 C4,17.507 4.38,17.934 4.883,17.993 L5,18 L19,18 C19.507,18 19.934,17.62 19.993,17.117 L20,17 Z M19,6 L5,6 C4.448,6 4,6.448 4,7 L4,8 L20,8 L20,7 C20,6.448 19.552,6 19,6 Z M9.293,11.464 C9.666,11.092 10.265,11.074 10.66,11.422 C11.056,11.771 11.113,12.367 10.79,12.784 L10.707,12.879 L10.586,13 L15,13 C15.529,13.001 15.966,13.413 15.997,13.941 C16.028,14.47 15.642,14.931 15.117,14.993 L15,15 L10.586,15 L10.706,15.121 C11.082,15.494 11.103,16.095 10.753,16.493 C10.402,16.89 9.803,16.945 9.386,16.619 L9.293,16.535 L7.464,14.707 C7.108,14.351 7.072,13.785 7.381,13.387 L7.464,13.293 Z"/>
</svg>

