<svg xmlns="http://www.w3.org/2000/svg" width="24" height="24">
  <defs/>
  <path  d="M17.657,2.515 C18.164,2.515 18.591,2.895 18.65,3.398 L18.657,3.515 L18.657,3.929 L19.071,3.515 C19.444,3.143 20.043,3.125 20.438,3.473 C20.834,3.822 20.891,4.418 20.568,4.835 L20.485,4.929 L20.071,5.343 L20.485,5.343 C21.014,5.344 21.451,5.756 21.482,6.284 C21.513,6.813 21.127,7.274 20.602,7.336 L20.485,7.343 L18.428,7.343 C19.693,9.519 19.082,12.409 16.875,13.843 L16.67,13.969 L5.66,20.392 C4.367,21.146 2.92,19.758 3.546,18.458 L3.608,18.34 L10.031,7.33 C11.375,5.026 14.24,4.31 16.457,5.462 L16.657,5.572 L16.657,3.515 C16.657,2.963 17.105,2.515 17.657,2.515 Z M10.586,7.757 C10.196,8.148 10.196,8.781 10.586,9.171 L12,10.586 C12.391,10.976 13.024,10.976 13.415,10.585 C13.805,10.195 13.805,9.561 13.414,9.171 L12,7.757 C11.609,7.367 10.976,7.367 10.586,7.757 Z M12.707,12.707 C12.334,12.335 11.735,12.317 11.34,12.665 C10.944,13.014 10.887,13.61 11.21,14.027 L11.293,14.121 L12.353,15.181 C12.726,15.557 13.327,15.578 13.725,15.228 C14.122,14.877 14.177,14.278 13.851,13.861 L13.768,13.768 Z"/>
</svg>

