<svg xmlns="http://www.w3.org/2000/svg" width="24" height="24">
  <defs/>
  <path  d="M17.657,2.515 C18.209,2.515 18.657,2.963 18.657,3.515 L18.657,3.929 L19.071,3.515 C19.322,3.255 19.694,3.151 20.044,3.242 C20.393,3.334 20.666,3.607 20.758,3.956 C20.849,4.306 20.745,4.678 20.485,4.929 L20.071,5.343 L20.485,5.343 C21.037,5.343 21.485,5.791 21.485,6.343 C21.485,6.895 21.037,7.343 20.485,7.343 L18.428,7.343 C19.732,9.586 19.043,12.585 16.67,13.969 L5.66,20.392 C4.328,21.169 2.831,19.672 3.608,18.34 L10.031,7.33 C11.415,4.957 14.415,4.268 16.657,5.572 L16.657,3.515 C16.657,2.963 17.105,2.515 17.657,2.515 Z M12.105,7.862 L13.414,9.171 C13.793,9.563 13.788,10.187 13.402,10.573 C13.016,10.959 12.392,10.964 12,10.585 L11.019,9.605 L6.293,17.707 L11.715,14.544 L11.293,14.121 C11.033,13.87 10.929,13.498 11.02,13.148 C11.112,12.799 11.385,12.526 11.734,12.434 C12.084,12.343 12.456,12.447 12.707,12.707 L13.502,13.502 L15.663,12.242 C16.637,11.676 17.187,10.589 17.067,9.469 C16.947,8.348 16.179,7.403 15.107,7.056 C14.035,6.709 12.859,7.025 12.105,7.862 Z"/>
</svg>

