<svg xmlns="http://www.w3.org/2000/svg" width="24" height="24">
  <defs/>
  <path  d="M20,5 C21.047,5 21.917,5.806 21.995,6.85 L22,7 L22,17 C22,18.047 21.194,18.917 20.15,18.995 L20,19 L4,19 C2.953,19 2.083,18.194 2.005,17.15 L2,17 L2,7 C2,5.953 2.806,5.083 3.85,5.005 L4,5 Z M17.003,7 L6.997,7 L7,7.125 C7,8.713 5.713,10 4.125,10 L4,9.997 L4,14.003 L4.125,14 C5.713,14 7,15.287 7,16.875 L6.997,17 L17.003,17 L17,16.875 C17,15.353 18.186,14.094 19.706,14.005 L19.938,14.001 L20,14.003 L20,9.997 L19.875,10 C18.353,10 17.094,8.814 17.005,7.294 L17,7.062 Z M12,8 C14.209,8 16,9.791 16,12 C16,14.209 14.209,16 12,16 C9.791,16 8,14.209 8,12 C8,9.791 9.791,8 12,8 Z M12,10 C10.895,10 10,10.895 10,12 C10,13.105 10.895,14 12,14 C13.105,14 14,13.105 14,12 C14,10.895 13.105,10 12,10 Z M4.125,16 C4.083,16 4.041,16.003 4,16.009 L4,17 L4.991,17 C5.027,16.749 4.953,16.494 4.786,16.302 C4.62,16.11 4.379,16 4.125,16 Z M19.875,16 C19.621,16 19.38,16.11 19.214,16.302 C19.047,16.494 18.973,16.749 19.009,17 L20,17 L20,16.009 C19.959,16.003 19.917,16 19.875,16 Z M4.991,7 L4,7 L4,7.991 C4.251,8.027 4.506,7.953 4.698,7.786 C4.89,7.62 5,7.379 5,7.125 L4.998,7.062 Z M20,7 L19.009,7 C18.973,7.251 19.047,7.506 19.214,7.698 C19.38,7.89 19.621,8 19.875,8 L19.938,7.998 L20,7.99 Z"/>
</svg>

