<svg xmlns="http://www.w3.org/2000/svg" width="24" height="24">
  <defs/>
  <path  d="M11.287,4.717 L11.594,4.587 C14.444,3.319 17.274,3.35 19.125,3.591 L19.535,3.649 L19.907,3.712 L20.24,3.777 L20.53,3.84 C21.394,4.038 21.934,4.777 21.994,5.571 L22,5.721 L22,17.306 C22,18.333 21.024,19.007 20.107,18.796 L19.827,18.734 L19.502,18.672 L19.137,18.612 A13.706 13.706 0 0 0 18.521,18.533 L18.068,18.493 C16.585,18.389 14.654,18.494 12.713,19.283 L12.406,19.413 C9.776,20.583 7.162,20.647 5.319,20.46 L4.875,20.41 L4.465,20.35 L4.093,20.287 A14.75 14.75 0 0 1 3.921,20.255 L3.471,20.16 C2.606,19.962 2.066,19.223 2.006,18.429 L2,18.279 L2,6.694 C2,5.667 2.976,4.992 3.893,5.204 L4.173,5.266 L4.498,5.328 L4.863,5.388 C6.399,5.618 8.835,5.714 11.287,4.717 M12,8 A4 4 0 1 0 12,16 A4 4 0 0 0 12,8 M12,10 A2 2 0 1 1 12,14 A2 2 0 0 1 12,10"/>
</svg>

