<svg xmlns="http://www.w3.org/2000/svg" width="24" height="24">
  <defs/>
  <path  d="M20.53,3.84 L20.53,3.841 C21.448,4.051 22,4.871 22,5.721 L22,17.306 C22,18.333 21.024,19.007 20.106,18.795 C18.776,18.487 15.573,18.006 12.406,19.414 C8.68,21.07 4.987,20.507 3.47,20.159 C2.552,19.949 2,19.129 2,18.279 L2,6.694 C2,5.667 2.975,4.992 3.894,5.205 C5.224,5.513 8.427,5.994 11.594,4.586 C15.32,2.93 19.013,3.492 20.53,3.84 Z M12.406,6.414 C9.06,7.901 5.741,7.6 4,7.27 L4,18.229 C5.391,18.536 8.509,18.956 11.594,17.586 C14.94,16.099 18.259,16.4 20,16.73 L20,5.77 C18.61,5.463 15.491,5.043 12.406,6.414 Z M12,8 C14.209,8 16,9.791 16,12 C16,14.209 14.209,16 12,16 C9.791,16 8,14.209 8,12 C8,9.791 9.791,8 12,8 Z M10,12 C10,13.105 10.895,14 12,14 C13.105,14 14,13.105 14,12 C14,10.895 13.105,10 12,10 C10.895,10 10,10.895 10,12 Z"/>
</svg>

