<svg xmlns="http://www.w3.org/2000/svg" width="24" height="24">
  <defs/>
  <path  d="M20,5 C21.105,5 22,5.895 22,7 L22,17 C22,18.105 21.105,19 20,19 L4,19 C2.895,19 2,18.105 2,17 L2,7 C2,5.895 2.895,5 4,5 Z M12,8 C9.791,8 8,9.791 8,12 C8,14.209 9.791,16 12,16 C14.209,16 16,14.209 16,12 C16,9.791 14.209,8 12,8 Z M12,10 C13.105,10 14,10.895 14,12 C14,13.105 13.105,14 12,14 C10.895,14 10,13.105 10,12 C10,10.895 10.895,10 12,10 Z M4.125,14 L4,14.003 L4,16.009 C4.251,15.973 4.506,16.047 4.698,16.214 C4.89,16.38 5,16.621 5,16.875 L4.998,16.938 L4.99,17 L6.996,17 L7,16.875 C7,15.287 5.713,14 4.125,14 Z M7,7 L5,7 L5,7.125 C5,7.379 4.89,7.62 4.698,7.786 C4.506,7.953 4.251,8.027 4,7.991 L4,9.997 L4.125,10 C5.713,10 7,8.713 7,7.125 Z M19.875,14 C18.353,14 17.094,15.186 17.005,16.706 L17,16.875 C17,16.917 17,16.959 17.003,17 L19.009,17 C18.97,16.727 19.061,16.451 19.256,16.256 C19.451,16.061 19.727,15.97 20,16.009 L20,14.003 Z M19.009,7 L17.003,7 L17,7.125 C17,8.647 18.186,9.906 19.706,9.995 L19.938,9.999 L20,9.997 L20,7.991 C19.749,8.027 19.494,7.953 19.302,7.786 C19.11,7.62 19,7.379 19,7.125 L19.002,7.062 Z"/>
</svg>

