<svg xmlns="http://www.w3.org/2000/svg" width="24" height="24">
  <defs/>
  <path  d="M18.296,3.045 C18.65,3.155 18.914,3.451 18.983,3.815 L20.324,10.97 C20.454,11.657 20.495,12.337 20.46,13 L21,13 C21.552,13 22,13.448 22,14 C22,14.552 21.552,15 21,15 L20.106,15 C19.962,15.469 19.777,15.925 19.555,16.363 L20.625,17.219 C21.056,17.564 21.126,18.194 20.781,18.625 C20.436,19.056 19.806,19.126 19.375,18.781 L18.439,18.032 C16.834,19.92 14.478,21.006 12,21 C9.521,21.006 7.166,19.92 5.56,18.032 L4.625,18.781 C4.194,19.126 3.564,19.056 3.219,18.625 C2.874,18.194 2.944,17.564 3.375,17.219 L4.445,16.363 C4.222,15.926 4.038,15.469 3.895,15 L3,15 C2.448,15 2,14.552 2,14 C2,13.448 2.448,13 3,13 L3.54,13 C3.504,12.32 3.55,11.639 3.676,10.97 L5.017,3.816 C5.085,3.451 5.35,3.154 5.704,3.045 C6.059,2.935 6.445,3.031 6.707,3.293 L9.121,5.707 C9.308,5.895 9.563,6 9.828,6 L14.172,6 C14.437,6 14.692,5.895 14.879,5.707 L17.293,3.293 C17.555,3.031 17.942,2.935 18.296,3.045 Z M12.553,14.605 L12,14.882 L11.447,14.606 C11.126,14.433 10.736,14.448 10.43,14.646 C10.124,14.844 9.949,15.193 9.975,15.556 C10,15.92 10.222,16.241 10.553,16.394 L11.106,16.671 C11.669,16.952 12.331,16.952 12.894,16.671 L13.447,16.394 C13.778,16.241 14,15.92 14.025,15.556 C14.051,15.193 13.876,14.844 13.57,14.646 C13.264,14.448 12.874,14.433 12.553,14.606 Z M9.5,10 C8.672,10 8,10.672 8,11.5 C8,12.328 8.672,13 9.5,13 C10.328,13 11,12.328 11,11.5 C11,10.672 10.328,10 9.5,10 Z M14.5,10 C13.672,10 13,10.672 13,11.5 C13,12.328 13.672,13 14.5,13 C15.328,13 16,12.328 16,11.5 C16,10.672 15.328,10 14.5,10 Z"/>
</svg>

