<svg xmlns="http://www.w3.org/2000/svg" width="24" height="24">
  <defs/>
  <path  d="M18.296,3.045 A1 1 0 0 1 18.953,3.697 L18.983,3.816 L20.324,10.97 C20.427,11.52 20.475,12.065 20.472,12.6 L20.46,13 L21,13 A1 1 0 0 1 21.117,14.993 L21,15 L20.106,15 C19.997,15.354 19.866,15.699 19.714,16.033 L19.554,16.363 L20.624,17.219 A1 1 0 0 1 19.478,18.853 L19.375,18.781 L18.439,18.032 A8.427 8.427 0 0 1 12,21 A8.423 8.423 0 0 1 5.75,18.245 L5.56,18.032 L4.625,18.781 A1 1 0 0 1 3.282,17.304 L3.375,17.219 L4.445,16.363 A8.453 8.453 0 0 1 4.01,15.351 L3.894,15 L3,15 A1 1 0 0 1 2.883,13.007 L3,13 L3.54,13 A8.483 8.483 0 0 1 3.609,11.381 L3.676,10.97 L5.017,3.816 A1 1 0 0 1 6.615,3.212 L6.707,3.292 L9.121,5.707 A1 1 0 0 0 9.697,5.991 L9.828,6 L14.172,6 A1 1 0 0 0 14.78,5.794 L14.879,5.707 L17.293,3.293 A1 1 0 0 1 18.296,3.045 M17.366,6.048 L16.293,7.12 A3 3 0 0 1 14.172,8 L9.828,8 A3 3 0 0 1 7.708,7.121 L6.632,6.048 L5.64,11.338 A6.5 6.5 0 0 0 5.545,13 L7,13 A1 1 0 1 1 7,15 L6.508,15 A0.998 0.998 0 0 1 7.218,16.696 L7.123,16.782 A6.436 6.436 0 0 0 12,19 A6.43 6.43 0 0 0 16.696,16.98 L16.876,16.78 A1 1 0 0 1 17.492,15 L17,15 A1 1 0 1 1 17,13 L18.455,13 A6.496 6.496 0 0 0 18.359,11.338 Z M13.894,15.053 A1 1 0 0 1 13.447,16.395 L12.894,16.671 A2 2 0 0 1 11.106,16.671 L10.553,16.395 A1 1 0 0 1 11.447,14.605 L12,14.882 L12.553,14.606 A1 1 0 0 1 13.894,15.053 M9.5,10 A1.5 1.5 0 1 1 9.5,13 A1.5 1.5 0 0 1 9.5,10 M14.5,10 A1.5 1.5 0 1 1 14.5,13 A1.5 1.5 0 0 1 14.5,10"/>
</svg>

