<svg xmlns="http://www.w3.org/2000/svg" width="24" height="24">
  <defs/>
  <path  d="M12,2 C12.507,2 12.934,2.38 12.993,2.883 L13,3 L13,4.1 L21.175,12.276 C21.784,12.884 21.398,13.906 20.575,13.994 L20.461,14 L16.9,14 C16.431,16.287 14.443,17.946 12.109,17.996 C9.774,18.047 7.716,16.477 7.148,14.212 L7.1,14 L3.54,14 C2.679,14 2.23,13.005 2.749,12.361 L2.826,12.276 L11,4.1 L11,3 C11,2.448 11.448,2 12,2 Z M14.83,14 L9.17,14 C9.583,15.167 10.67,15.961 11.907,15.999 C13.145,16.037 14.278,15.312 14.762,14.172 Z M12,19 C12.552,19 13,19.448 13,20 L13,21 C13,21.552 12.552,22 12,22 C11.448,22 11,21.552 11,21 L11,20 C11,19.448 11.448,19 12,19 Z M16.95,16.95 C17.306,16.594 17.872,16.558 18.27,16.867 L18.364,16.95 L19.071,17.657 C19.443,18.03 19.461,18.629 19.113,19.024 C18.764,19.42 18.168,19.477 17.751,19.154 L17.657,19.071 L16.95,18.364 C16.56,17.973 16.56,17.34 16.95,16.95 Z M7.05,16.95 C7.44,17.34 7.44,17.973 7.05,18.364 L6.343,19.071 C5.951,19.45 5.327,19.445 4.941,19.059 C4.555,18.673 4.55,18.049 4.929,17.657 L5.636,16.95 C6.026,16.56 6.66,16.56 7.05,16.95 Z"/>
</svg>

