<svg xmlns="http://www.w3.org/2000/svg" width="24" height="24">
  <defs/>
  <path  d="M8.076,7.26 L8.171,7.343 L16.657,15.828 C16.883,16.053 16.987,16.373 16.939,16.688 C16.89,17.003 16.694,17.276 16.411,17.423 L16.295,17.473 L5.91,21.3 C3.958,22.02 2.057,20.185 2.65,18.236 L2.7,18.09 L6.526,7.705 C6.628,7.427 6.849,7.208 7.129,7.108 C7.408,7.009 7.717,7.038 7.973,7.189 Z M7.862,9.862 L4.577,18.782 C4.515,18.951 4.548,19.14 4.665,19.278 C4.781,19.415 4.962,19.479 5.139,19.446 L5.219,19.423 L14.137,16.137 Z M13.363,2.785 C13.811,4.131 13.571,5.605 13.291,6.635 C13.123,7.277 12.892,7.901 12.601,8.498 C12.354,8.992 11.754,9.193 11.259,8.946 C10.765,8.7 10.564,8.099 10.811,7.605 C11.043,7.126 11.227,6.624 11.361,6.109 C11.588,5.277 11.702,4.374 11.527,3.634 L11.466,3.418 C11.347,3.078 11.421,2.7 11.659,2.429 C11.897,2.158 12.262,2.036 12.615,2.11 C12.968,2.184 13.253,2.442 13.363,2.785 Z M17.107,11.604 C18.018,11.652 19.267,11.844 20.353,12.496 C20.81,12.767 20.975,13.348 20.729,13.819 C20.483,14.29 19.912,14.487 19.428,14.266 L19.324,14.211 C18.642,13.801 17.77,13.641 17.002,13.601 C16.686,13.583 16.368,13.584 16.052,13.605 L15.736,13.636 C15.193,13.706 14.695,13.327 14.618,12.785 C14.541,12.243 14.914,11.74 15.455,11.656 C16.003,11.585 16.556,11.568 17.107,11.603 Z M15.95,8.05 C16.306,8.406 16.342,8.972 16.033,9.37 L15.95,9.464 L14.89,10.525 C14.517,10.901 13.916,10.922 13.518,10.572 C13.121,10.221 13.066,9.622 13.392,9.205 L13.475,9.111 L14.535,8.051 C14.723,7.863 14.977,7.758 15.243,7.758 C15.508,7.758 15.762,7.863 15.95,8.051 Z M18.778,5.223 C19.168,5.613 19.168,6.247 18.778,6.637 L18.071,7.344 C17.82,7.604 17.448,7.708 17.098,7.617 C16.749,7.525 16.476,7.252 16.384,6.903 C16.293,6.553 16.397,6.181 16.657,5.93 L17.364,5.223 C17.754,4.833 18.388,4.833 18.778,5.223 Z M19.132,8.817 C19.661,8.818 20.097,9.231 20.128,9.759 C20.159,10.287 19.773,10.748 19.248,10.81 L19.132,10.817 L18.424,10.817 C17.895,10.816 17.459,10.403 17.428,9.875 C17.397,9.347 17.783,8.886 18.308,8.824 L18.424,8.817 Z"/>
</svg>

