<svg xmlns="http://www.w3.org/2000/svg" width="24" height="24">
  <defs/>
  <path  d="M8.076,7.26 L8.171,7.343 L16.657,15.828 A1 1 0 0 1 16.411,17.423 L16.295,17.473 L5.91,21.3 C3.958,22.02 2.057,20.185 2.65,18.236 L2.7,18.09 L6.526,7.705 A1 1 0 0 1 7.973,7.189 Z M17.107,11.604 C18.018,11.652 19.267,11.844 20.353,12.496 A1 1 0 0 1 19.428,14.266 L19.324,14.211 C18.642,13.801 17.77,13.641 17.002,13.601 A7.666 7.666 0 0 0 16.052,13.605 L15.736,13.636 A1 1 0 0 1 15.455,11.656 A8.587 8.587 0 0 1 17.107,11.603 M19.132,8.817 A1 1 0 0 1 19.248,10.81 L19.132,10.817 L18.424,10.817 A1 1 0 0 1 18.308,8.824 L18.424,8.817 Z M15.95,8.05 A1 1 0 0 1 16.033,9.37 L15.95,9.464 L14.889,10.525 A1 1 0 0 1 13.392,9.205 L13.475,9.111 L14.535,8.051 A1 1 0 0 1 15.95,8.051 M13.363,2.785 C13.811,4.131 13.571,5.605 13.291,6.635 A10.11 10.11 0 0 1 12.601,8.498 A1 1 0 0 1 10.811,7.605 A8.13 8.13 0 0 0 11.361,6.109 C11.588,5.277 11.702,4.374 11.527,3.634 L11.466,3.418 A1 1 0 1 1 13.363,2.785 M18.778,5.223 A1 1 0 0 1 18.778,6.637 L18.071,7.344 A1 1 0 1 1 16.657,5.93 L17.364,5.223 A1 1 0 0 1 18.778,5.223"/>
</svg>

