<svg xmlns="http://www.w3.org/2000/svg" width="24" height="24">
  <defs/>
  <path  d="M5,5 C5,3.343 6.343,2 8,2 L16,2 C17.657,2 19,3.343 19,5 L19,19 C19,20.657 17.657,22 16,22 L8,22 C6.343,22 5,20.657 5,19 Z M8,4 C7.448,4 7,4.448 7,5 L7,19 C7,19.552 7.448,20 8,20 L16,20 C16.552,20 17,19.552 17,19 L17,5 C17,4.448 16.552,4 16,4 Z M9.5,6 C9.5,5.448 9.948,5 10.5,5 L13.5,5 C14.052,5 14.5,5.448 14.5,6 C14.5,6.552 14.052,7 13.5,7 L10.5,7 C9.948,7 9.5,6.552 9.5,6 Z M10.5,17.5 C10.5,16.672 11.172,16 12,16 C12.828,16 13.5,16.672 13.5,17.5 C13.5,18.328 12.828,19 12,19 C11.172,19 10.5,18.328 10.5,17.5 Z"/>
</svg>

