<svg xmlns="http://www.w3.org/2000/svg" width="24" height="24">
  <defs/>
  <path  d="M12.707,2.808 A2 2 0 0 1 15.408,2.691 L15.535,2.808 L21.192,8.464 A2 2 0 0 1 21.309,11.166 L21.192,11.293 L11.292,21.193 A2 2 0 0 1 8.592,21.309 L8.464,21.192 L2.807,15.536 A2 2 0 0 1 2.691,12.834 L2.807,12.707 L12.707,2.807 Z M19.778,15.536 A1 1 0 0 1 21.275,16.856 L21.192,16.95 L16.95,21.192 A1 1 0 0 1 15.452,19.872 L15.535,19.778 Z M14.121,4.222 L4.221,14.122 L9.879,19.778 L19.778,9.878 Z M8.818,13.768 A0.5 0.5 0 0 1 9.456,13.71 L9.525,13.768 L10.232,14.475 A0.5 0.5 0 0 1 10.29,15.113 L10.232,15.182 L9.525,15.889 A0.5 0.5 0 0 1 8.887,15.947 L8.817,15.889 L8.111,15.182 A0.5 0.5 0 0 1 8.053,14.544 L8.111,14.474 Z M8.464,2.808 A1 1 0 0 1 8.464,4.222 L4.222,8.464 A1 1 0 1 1 2.807,7.05 L7.05,2.808 A1 1 0 0 1 8.464,2.808"/>
</svg>

