<svg xmlns="http://www.w3.org/2000/svg" width="24" height="24">
  <defs/>
  <path  d="M8,2 L14.49,2 L14.409,2.032 L14.03,2.161 A3 3 0 0 0 14.03,7.839 L14.409,7.969 A1 1 0 0 1 15.032,8.591 L15.161,8.969 A3 3 0 0 0 19,10.83 L19,19 A3 3 0 0 1 16,22 L8,22 A3 3 0 0 1 5,19 L5,5 A3 3 0 0 1 8,2 M12,16 A1.5 1.5 0 1 0 12,19 A1.5 1.5 0 0 0 12,16 M18,1 A1 1 0 0 1 18.898,1.56 L18.946,1.677 L19.076,2.055 A3 3 0 0 0 20.76,3.855 L20.945,3.925 L21.323,4.054 A1 1 0 0 1 21.441,5.898 L21.323,5.946 L20.945,6.076 A3 3 0 0 0 19.145,7.76 L19.075,7.945 L18.946,8.323 A1 1 0 0 1 17.102,8.44 L17.054,8.323 L16.924,7.945 A3 3 0 0 0 15.24,6.145 L15.055,6.075 L14.677,5.946 A1 1 0 0 1 14.559,4.102 L14.677,4.054 L15.055,3.924 A3 3 0 0 0 16.855,2.24 L16.925,2.055 L17.054,1.677 A1 1 0 0 1 18,1"/>
</svg>

