<svg xmlns="http://www.w3.org/2000/svg" width="24" height="24">
  <defs/>
  <path  d="M2,8 C2,6.343 3.343,5 5,5 L19,5 C20.657,5 22,6.343 22,8 L22,16 C22,17.657 20.657,19 19,19 L5,19 C3.343,19 2,17.657 2,16 Z M5,7 C4.448,7 4,7.448 4,8 L4,16 C4,16.552 4.448,17 5,17 L19,17 C19.552,17 20,16.552 20,16 L20,8 C20,7.448 19.552,7 19,7 Z M18,9.5 C18.552,9.5 19,9.948 19,10.5 L19,13.5 C19,14.052 18.552,14.5 18,14.5 C17.448,14.5 17,14.052 17,13.5 L17,10.5 C17,9.948 17.448,9.5 18,9.5 Z M5,12 C5,11.172 5.672,10.5 6.5,10.5 C7.328,10.5 8,11.172 8,12 C8,12.828 7.328,13.5 6.5,13.5 C5.672,13.5 5,12.828 5,12 Z"/>
</svg>

