<svg xmlns="http://www.w3.org/2000/svg" width="24" height="24">
  <defs/>
  <path  d="M15.535,2.808 L21.192,8.464 C21.973,9.245 21.973,10.512 21.192,11.293 L11.292,21.193 C10.511,21.974 9.245,21.974 8.464,21.193 L2.807,15.535 C2.026,14.754 2.026,13.488 2.807,12.707 L12.707,2.807 C13.488,2.026 14.754,2.026 15.535,2.807 Z M8.464,2.808 C8.854,3.198 8.854,3.832 8.464,4.222 L4.222,8.464 C3.832,8.855 3.198,8.855 2.807,8.465 C2.417,8.074 2.417,7.441 2.807,7.05 L7.05,2.808 C7.44,2.418 8.073,2.418 8.464,2.808 Z M21.192,15.536 C21.582,15.927 21.582,16.559 21.192,16.95 L16.95,21.192 C16.56,21.583 15.926,21.583 15.535,21.192 C15.145,20.802 15.145,20.169 15.535,19.778 L19.778,15.536 C20.168,15.146 20.802,15.146 21.192,15.536 Z M8.818,13.768 L8.111,14.475 C7.916,14.67 7.916,14.987 8.111,15.182 L8.818,15.889 C9.013,16.084 9.33,16.084 9.525,15.889 L10.232,15.182 C10.427,14.987 10.427,14.67 10.232,14.475 L9.525,13.768 C9.33,13.573 9.013,13.573 8.818,13.768 Z"/>
</svg>

