<svg xmlns="http://www.w3.org/2000/svg" width="24" height="24">
  <defs/>
  <path  d="M12,2 C12.552,2 13,2.448 13,3 C13,3.552 12.552,4 12,4 L8,4 C7.448,4 7,4.448 7,5 L7,19 C7,19.552 7.448,20 8,20 L16,20 C16.552,20 17,19.552 17,19 L17,12 C17,11.448 17.448,11 18,11 C18.552,11 19,11.448 19,12 L19,19 C19,20.657 17.657,22 16,22 L8,22 C6.343,22 5,20.657 5,19 L5,5 C5,3.343 6.343,2 8,2 Z M18,1 C18.428,1 18.808,1.272 18.946,1.677 L19.076,2.055 C19.376,2.934 20.066,3.625 20.945,3.925 L21.323,4.054 C21.727,4.193 21.999,4.573 21.999,5 C21.999,5.427 21.727,5.807 21.323,5.946 L20.945,6.076 C20.066,6.376 19.375,7.066 19.075,7.945 L18.946,8.323 C18.807,8.727 18.427,8.999 18,8.999 C17.573,8.999 17.193,8.727 17.054,8.323 L16.924,7.945 C16.624,7.066 15.934,6.375 15.055,6.075 L14.677,5.946 C14.273,5.807 14.001,5.427 14.001,5 C14.001,4.573 14.273,4.193 14.677,4.054 L15.055,3.924 C15.934,3.624 16.625,2.934 16.925,2.055 L17.054,1.677 C17.192,1.272 17.572,1 18,1 Z M12,16 C12.828,16 13.5,16.672 13.5,17.5 C13.5,18.328 12.828,19 12,19 C11.172,19 10.5,18.328 10.5,17.5 C10.5,16.672 11.172,16 12,16 Z M18,4.196 C17.763,4.494 17.494,4.763 17.196,5 C17.494,5.236 17.763,5.506 18,5.804 C18.236,5.506 18.506,5.236 18.804,5 C18.506,4.763 18.237,4.494 18,4.196 Z"/>
</svg>

