<svg xmlns="http://www.w3.org/2000/svg" width="24" height="24">
  <defs/>
  <path  d="M15.5,3.5 L16.5,3.5 C19.261,3.5 21.5,5.739 21.5,8.5 L21.5,9 C21.5,9.828 20.828,10.5 20,10.5 C19.172,10.5 18.5,9.828 18.5,9 L18.5,8.5 C18.5,7.395 17.605,6.5 16.5,6.5 L15.5,6.5 C14.395,6.5 13.5,7.395 13.5,8.5 L13.5,15.5 C13.5,16.605 14.395,17.5 15.5,17.5 L16.5,17.5 C17.605,17.5 18.5,16.605 18.5,15.5 L18.5,15 C18.5,14.172 19.172,13.5 20,13.5 C20.828,13.5 21.5,14.172 21.5,15 L21.5,15.5 C21.5,18.261 19.261,20.5 16.5,20.5 L15.5,20.5 C12.739,20.5 10.5,18.261 10.5,15.5 L10.5,8.5 C10.5,5.739 12.739,3.5 15.5,3.5 Z M6,3.5 C7.933,3.5 9.5,5.067 9.5,7 C9.5,8.933 7.933,10.5 6,10.5 C4.067,10.5 2.5,8.933 2.5,7 C2.5,5.067 4.067,3.5 6,3.5 Z M5.5,7 C5.5,7.276 5.724,7.5 6,7.5 C6.276,7.5 6.5,7.276 6.5,7 C6.5,6.724 6.276,6.5 6,6.5 C5.724,6.5 5.5,6.724 5.5,7 Z"/>
</svg>

