<svg xmlns="http://www.w3.org/2000/svg" width="24" height="24">
  <defs/>
  <path  d="M15.5,4 L16.5,4 C18.985,4 21,6.015 21,8.5 L21,9 C21,9.552 20.552,10 20,10 C19.448,10 19,9.552 19,9 L19,8.5 C19,7.119 17.881,6 16.5,6 L15.5,6 C14.119,6 13,7.119 13,8.5 L13,15.5 C13,16.881 14.119,18 15.5,18 L16.5,18 C17.881,18 19,16.881 19,15.5 L19,15 C19,14.448 19.448,14 20,14 C20.552,14 21,14.448 21,15 L21,15.5 C21,17.985 18.985,20 16.5,20 L15.5,20 C13.015,20 11,17.985 11,15.5 L11,8.5 C11,6.015 13.015,4 15.5,4 Z M6,4 C7.657,4 9,5.343 9,7 C9,8.657 7.657,10 6,10 C4.343,10 3,8.657 3,7 C3,5.343 4.343,4 6,4 Z M5,7 C5,7.552 5.448,8 6,8 C6.552,8 7,7.552 7,7 C7,6.448 6.552,6 6,6 C5.448,6 5,6.448 5,7 Z"/>
</svg>

