<svg xmlns="http://www.w3.org/2000/svg" width="24" height="24">
  <defs/>
  <path  d="M20,4 C21.105,4 22,4.895 22,6 L22,10 C20.009,8.507 17.224,8.705 15.464,10.464 C13.705,12.224 13.507,15.009 15,17 L15,20 L4,20 C2.895,20 2,19.105 2,18 L2,6 C2,4.895 2.895,4 4,4 Z M19,11 C20.244,11 21.359,11.768 21.802,12.93 C22.246,14.091 21.927,15.407 21,16.236 L21,21.191 C21,21.364 20.91,21.525 20.763,21.616 C20.615,21.708 20.431,21.716 20.276,21.638 L19,21 L17.724,21.638 C17.569,21.716 17.385,21.708 17.237,21.616 C17.09,21.525 17,21.364 17,21.191 L17,16.236 C16.073,15.407 15.754,14.091 16.198,12.93 C16.641,11.768 17.756,11 19,11 Z M12,9 L6,9 C5.471,9.001 5.034,9.413 5.003,9.941 C4.972,10.47 5.358,10.931 5.883,10.993 L6,11 L12,11 C12.529,10.999 12.966,10.587 12.997,10.059 C13.028,9.53 12.642,9.069 12.117,9.007 Z M8,13 L6,13 C5.448,13 5,13.448 5,14 C5,14.552 5.448,15 6,15 L8,15 C8.552,15 9,14.552 9,14 C9,13.448 8.552,13 8,13 Z"/>
</svg>

