<svg xmlns="http://www.w3.org/2000/svg" width="24" height="24">
  <defs/>
  <path  d="M10.586,2.1 C11.32,1.367 12.492,1.317 13.286,1.984 L13.414,2.101 L15.314,4 L18,4 C19.046,4 19.916,4.807 19.994,5.85 L20,6 L20,8.686 L21.9,10.586 C22.633,11.32 22.684,12.493 22.016,13.287 L21.899,13.414 L19.999,15.314 L19.999,18 C19.999,19.047 19.193,19.917 18.149,19.995 L18,20 L15.315,20 L13.415,21.9 C12.681,22.633 11.508,22.684 10.714,22.016 L10.587,21.9 L8.687,20 L6,20 C4.953,20 4.083,19.194 4.005,18.15 L4,18 L4,15.314 L2.1,13.414 C1.367,12.68 1.316,11.507 1.984,10.713 L2.1,10.586 L4,8.686 L4,6 C4,4.954 4.807,4.084 5.85,4.006 L6,4 L8.686,4 Z M15.079,8.983 L10.835,13.227 L9.067,11.459 C8.676,11.069 8.043,11.069 7.653,11.46 C7.262,11.85 7.262,12.484 7.653,12.874 L10.057,15.278 C10.487,15.708 11.183,15.708 11.613,15.278 L16.493,10.397 C16.872,10.005 16.867,9.381 16.481,8.995 C16.095,8.609 15.471,8.604 15.079,8.983 Z"/>
</svg>

