<svg xmlns="http://www.w3.org/2000/svg" width="24" height="24">
  <defs/>
  <path  d="M18,10 A4 4 0 0 1 21,16.646 L21,20.838 A1.1 1.1 0 0 1 19.408,21.822 L18,21.118 L16.592,21.822 A1.1 1.1 0 0 1 15,20.838 L15,16.646 A4 4 0 0 1 18,10 M20,4 A2 2 0 0 1 22,6 L22,8 A1 1 0 1 1 20,8 L20,6 L4,6 L4,18 L12,18 A1 1 0 1 1 12,20 L4,20 A2 2 0 0 1 2,18 L2,6 A2 2 0 0 1 4,4 Z M19,17.874 A4.01 4.01 0 0 1 17,17.874 L17,19.382 L17.553,19.106 A1 1 0 0 1 18.447,19.106 L19,19.382 Z M18,12 A2 2 0 1 0 18,16 A2 2 0 0 0 18,12 M9,13 A1 1 0 0 1 9.117,14.993 L9,15 L7,15 A1 1 0 0 1 6.883,13.007 L7,13 Z M13,9 A1 1 0 1 1 13,11 L7,11 A1 1 0 1 1 7,9 Z"/>
</svg>

