<svg xmlns="http://www.w3.org/2000/svg" width="24" height="24">
  <defs/>
  <path  d="M10.586,2.1 A2 2 0 0 1 13.286,1.984 L13.414,2.101 L15.314,4 L18,4 A2 2 0 0 1 19.994,5.85 L20,6 L20,8.686 L21.9,10.586 A2 2 0 0 1 22.016,13.287 L21.899,13.414 L19.999,15.314 L19.999,18 A2 2 0 0 1 18.149,19.995 L18,20 L15.315,20 L13.415,21.9 A2 2 0 0 1 10.714,22.016 L10.587,21.9 L8.687,20 L6,20 A2 2 0 0 1 4.005,18.15 L4,18 L4,15.314 L2.1,13.414 A2 2 0 0 1 1.984,10.713 L2.1,10.586 L4,8.686 L4,6 A2 2 0 0 1 5.85,4.006 L6,4 L8.686,4 Z M12,3.516 L10.1,5.416 A2 2 0 0 1 8.862,5.993 L8.686,6 L6,6 L6,8.686 A2 2 0 0 1 5.533,9.971 L5.414,10.101 L3.514,12.001 L5.414,13.9 A2 2 0 0 1 5.992,15.138 L6,15.314 L6,18 L8.686,18 A2 2 0 0 1 9.971,18.467 L10.101,18.586 L12,20.486 L13.9,18.586 A2 2 0 0 1 15.138,18.008 L15.314,18 L18,18 L18,15.314 A2 2 0 0 1 18.467,14.029 L18.586,13.899 L20.486,12 L18.586,10.1 A2 2 0 0 1 18.008,8.862 L18,8.686 L18,6 L15.314,6 A2 2 0 0 1 14.029,5.533 L13.899,5.414 L11.999,3.514 Z M15.08,8.984 A1 1 0 0 1 16.577,10.304 L16.493,10.398 L11.613,15.278 A1.1 1.1 0 0 1 10.153,15.364 L10.057,15.279 L7.653,12.875 A1 1 0 0 1 8.973,11.377 L9.067,11.46 L10.835,13.228 Z"/>
</svg>

