<svg xmlns="http://www.w3.org/2000/svg" width="24" height="24">
  <defs/>
  <path  d="M3,5 C3,3.895 3.895,3 5,3 L13,3 C14.105,3 15,3.895 15,5 L15,12 L16,12 C17.105,12 18,12.895 18,14 L18,16.5 C18,16.776 18.224,17 18.5,17 C18.776,17 19,16.776 19,16.5 L19,10.414 L17.75,9.164 L17.707,9.207 C17.456,9.467 17.084,9.571 16.734,9.48 C16.385,9.388 16.112,9.115 16.02,8.766 C15.929,8.416 16.033,8.044 16.293,7.793 L16.336,7.75 L16.293,7.707 C15.914,7.315 15.919,6.691 16.305,6.305 C16.691,5.919 17.315,5.914 17.707,6.293 L20.414,9 C20.789,9.375 21,9.884 21,10.414 L21,16.5 C21,17.881 19.881,19 18.5,19 C17.119,19 16,17.881 16,16.5 L16,14 L15,14 L15,19 C15.552,19 16,19.448 16,20 C16,20.552 15.552,21 15,21 L3,21 C2.448,21 2,20.552 2,20 C2,19.448 2.448,19 3,19 Z M9.894,8.447 C10.121,7.957 9.917,7.375 9.433,7.133 C8.95,6.892 8.362,7.077 8.106,7.553 L6.113,11.538 C5.956,11.851 5.973,12.223 6.157,12.521 C6.341,12.819 6.666,13 7.016,13 L9.382,13 L8.106,15.553 C7.933,15.874 7.948,16.264 8.146,16.57 C8.344,16.876 8.693,17.051 9.056,17.025 C9.42,17 9.741,16.778 9.894,16.447 L11.887,12.462 C12.044,12.149 12.027,11.777 11.843,11.479 C11.659,11.181 11.334,11 10.984,11 L8.618,11 Z"/>
</svg>

