<svg xmlns="http://www.w3.org/2000/svg" width="24" height="24">
  <defs/>
  <path  d="M5,5 L5,18 L20,18 C20.552,18 21,18.448 21,19 C21,19.552 20.552,20 20,20 L4,20 C3.448,20 3,19.552 3,19 L3,5 C3,4.448 3.448,4 4,4 C4.552,4 5,4.448 5,5 Z M12,6 C12.552,6 13,6.448 13,7 L13,15 C13,15.552 12.552,16 12,16 C11.448,16 11,15.552 11,15 L11,7 C11,6.448 11.448,6 12,6 Z M17,10 L17,15 C17,15.552 16.552,16 16,16 C15.448,16 15,15.552 15,15 L15,10 C15,9.448 15.448,9 16,9 C16.552,9 17,9.448 17,10 Z M9,12 L9,15 C9,15.552 8.552,16 8,16 C7.448,16 7,15.552 7,15 L7,12 C7,11.448 7.448,11 8,11 C8.552,11 9,11.448 9,12 Z"/>
</svg>

