<svg xmlns="http://www.w3.org/2000/svg" width="24" height="24">
  <defs/>
  <path  d="M6,4 L6,19 L19,19 C19.552,19 20,19.448 20,20 C20,20.552 19.552,21 19,21 L5,21 C4.448,21 4,20.552 4,20 L4,4 C4,3.448 4.448,3 5,3 C5.552,3 6,3.448 6,4 Z M18,11 C18,11.552 17.552,12 17,12 L9,12 C8.448,12 8,11.552 8,11 C8,10.448 8.448,10 9,10 L17,10 C17.552,10 18,10.448 18,11 Z M14,16 L9,16 C8.448,16 8,15.552 8,15 C8,14.448 8.448,14 9,14 L14,14 C14.552,14 15,14.448 15,15 C15,15.552 14.552,16 14,16 Z M12,8 L9,8 C8.448,8 8,7.552 8,7 C8,6.448 8.448,6 9,6 L12,6 C12.552,6 13,6.448 13,7 C13,7.552 12.552,8 12,8 Z"/>
</svg>

