<svg xmlns="http://www.w3.org/2000/svg" width="24" height="24">
  <defs/>
  <path  d="M12,2 C17.523,2 22,6.477 22,12 C22,12.552 21.552,13 21,13 L12,13 C11.448,13 11,12.552 11,12 L11,3 C11,2.448 11.448,2 12,2 Z M8.89,4.627 C5.926,5.878 4,8.783 4,12 C4.002,15.806 6.685,19.084 10.415,19.839 C14.146,20.593 17.892,18.616 19.373,15.11 C19.588,14.601 20.175,14.364 20.684,14.579 C21.193,14.794 21.43,15.381 21.215,15.89 C19.699,19.478 16.145,22 12,22 C6.477,22 2,17.523 2,12 C2,7.98 4.407,4.35 8.11,2.785 C8.619,2.57 9.206,2.807 9.421,3.316 C9.636,3.825 9.399,4.412 8.89,4.627 Z M13,11 L19.938,11 C19.48,7.375 16.625,4.52 13,4.062 Z"/>
</svg>

