<svg xmlns="http://www.w3.org/2000/svg" width="24" height="24">
  <defs/>
  <path  d="M5.5,5 L5.5,17.5 L20,17.5 C20.828,17.5 21.5,18.172 21.5,19 C21.5,19.828 20.828,20.5 20,20.5 L4,20.5 C3.172,20.5 2.5,19.828 2.5,19 L2.5,5 C2.5,4.172 3.172,3.5 4,3.5 C4.828,3.5 5.5,4.172 5.5,5 Z M12,5.5 C12.828,5.5 13.5,6.172 13.5,7 L13.5,15 C13.5,15.828 12.828,16.5 12,16.5 C11.172,16.5 10.5,15.828 10.5,15 L10.5,7 C10.5,6.172 11.172,5.5 12,5.5 Z M17.5,10 L17.5,15 C17.5,15.828 16.828,16.5 16,16.5 C15.172,16.5 14.5,15.828 14.5,15 L14.5,10 C14.5,9.172 15.172,8.5 16,8.5 C16.828,8.5 17.5,9.172 17.5,10 Z M9.5,12 L9.5,15 C9.5,15.828 8.828,16.5 8,16.5 C7.172,16.5 6.5,15.828 6.5,15 L6.5,12 C6.5,11.172 7.172,10.5 8,10.5 C8.828,10.5 9.5,11.172 9.5,12 Z"/>
</svg>

