<svg xmlns="http://www.w3.org/2000/svg" width="24" height="24">
  <defs/>
  <path  d="M6.5,4 L6.5,18.5 L19,18.5 C19.828,18.5 20.5,19.172 20.5,20 C20.5,20.828 19.828,21.5 19,21.5 L5,21.5 C4.172,21.5 3.5,20.828 3.5,20 L3.5,4 C3.5,3.172 4.172,2.5 5,2.5 C5.828,2.5 6.5,3.172 6.5,4 Z M18.5,11 C18.5,11.828 17.828,12.5 17,12.5 L9,12.5 C8.172,12.5 7.5,11.828 7.5,11 C7.5,10.172 8.172,9.5 9,9.5 L17,9.5 C17.828,9.5 18.5,10.172 18.5,11 Z M14,16.5 L9,16.5 C8.172,16.5 7.5,15.828 7.5,15 C7.5,14.172 8.172,13.5 9,13.5 L14,13.5 C14.828,13.5 15.5,14.172 15.5,15 C15.5,15.828 14.828,16.5 14,16.5 Z M12,8.5 L9,8.5 C8.172,8.5 7.5,7.828 7.5,7 C7.5,6.172 8.172,5.5 9,5.5 L12,5.5 C12.828,5.5 13.5,6.172 13.5,7 C13.5,7.828 12.828,8.5 12,8.5 Z"/>
</svg>

