<svg xmlns="http://www.w3.org/2000/svg" width="24" height="24">
  <defs/>
  <path  d="M5,5 L5,18 L20,18 C20.552,18 21,18.448 21,19 C21,19.552 20.552,20 20,20 L4,20 C3.448,20 3,19.552 3,19 L3,5 C3,4.448 3.448,4 4,4 C4.552,4 5,4.448 5,5 Z M21,11.986 L21.036,14.985 C21.042,15.392 20.8,15.762 20.425,15.92 C20.049,16.079 19.616,15.993 19.328,15.705 L14.561,10.937 L11.732,13.765 C11.342,14.155 10.708,14.155 10.318,13.765 L6.075,9.523 C5.684,9.132 5.684,8.499 6.075,8.108 C6.466,7.717 7.099,7.717 7.49,8.108 L11.025,11.644 L13.854,8.816 C14.245,8.426 14.878,8.426 15.268,8.816 L19.006,12.554 L19,12.009 C18.994,11.457 19.436,11.004 19.989,10.998 C20.541,10.991 20.994,11.434 21,11.986 Z"/>
</svg>

