<svg xmlns="http://www.w3.org/2000/svg" width="24" height="24">
  <defs/>
  <path  d="M4,3.5 A1.5 1.5 0 0 1 5.493,4.856 L5.5,5 L5.5,17.5 L20,17.5 A1.5 1.5 0 0 1 20.144,20.493 L20,20.5 L4,20.5 A1.5 1.5 0 0 1 2.507,19.144 L2.5,19 L2.5,5 A1.5 1.5 0 0 1 4,3.5 M20.193,6.318 C21.539,6.318 22.213,7.945 21.261,8.896 L15.692,14.465 A1.6 1.6 0 0 1 13.429,14.465 L11.025,12.061 L8.55,14.536 A1.5 1.5 0 1 1 6.429,12.414 L9.894,8.95 A1.6 1.6 0 0 1 12.156,8.95 L14.561,11.355 L16.742,9.173 A1.5 1.5 0 0 1 17.389,6.319 Z"/>
</svg>

