<svg xmlns="http://www.w3.org/2000/svg" width="24" height="24">
  <defs/>
  <path  d="M5.5,5 L5.5,17.5 L20,17.5 C20.828,17.5 21.5,18.172 21.5,19 C21.5,19.828 20.828,20.5 20,20.5 L4,20.5 C3.172,20.5 2.5,19.828 2.5,19 L2.5,5 C2.5,4.172 3.172,3.5 4,3.5 C4.828,3.5 5.5,4.172 5.5,5 Z M21.5,11.98 L21.535,14.98 C21.542,15.59 21.179,16.143 20.617,16.379 C20.055,16.616 19.406,16.489 18.975,16.058 L14.561,11.644 L12.086,14.119 C11.5,14.705 10.55,14.705 9.964,14.119 L6.429,10.583 C6.039,10.206 5.883,9.649 6.02,9.124 C6.157,8.6 6.567,8.19 7.091,8.053 C7.616,7.916 8.173,8.072 8.55,8.462 L11.024,10.937 L13.499,8.462 C14.085,7.876 15.034,7.876 15.62,8.462 L18.605,11.445 C18.869,10.778 19.567,10.391 20.273,10.521 C20.978,10.651 21.492,11.263 21.5,11.98 Z"/>
</svg>

