<svg xmlns="http://www.w3.org/2000/svg" width="24" height="24">
  <defs/>
  <path  d="M12,2 C17.523,2 22,6.477 22,12 C22,17.523 17.523,22 12,22 A9.95 9.95 0 0 1 6.832,20.562 L3.8,21.454 A1.01 1.01 0 0 1 2.546,20.2 L3.438,17.168 A9.958 9.958 0 0 1 2,12 C2,6.477 6.477,2 12,2 M12,4 A8 8 0 0 0 5.241,16.282 C5.468,16.639 5.546,17.089 5.418,17.522 L4.977,19.023 L6.478,18.582 C6.911,18.454 7.361,18.532 7.718,18.759 A8 8 0 1 0 12,4 M8.5,10.5 A1.5 1.5 0 1 1 8.5,13.5 A1.5 1.5 0 0 1 8.5,10.5 M15.5,10.5 A1.5 1.5 0 1 1 15.5,13.5 A1.5 1.5 0 0 1 15.5,10.5"/>
</svg>

