<svg xmlns="http://www.w3.org/2000/svg" width="24" height="24">
  <defs/>
  <path  d="M2,11.5 C2,6.643 6.656,3 12,3 C17.344,3 22,6.643 22,11.5 C22,16.357 17.344,20 12,20 C11.347,20 10.708,19.947 10.089,19.845 C9.996,19.918 9.836,20.05 9.639,20.189 C9.07,20.59 8.249,21 7,21 C6.448,21 6,20.552 6,20 C6,19.853 6.01,19.697 6.021,19.537 C6.049,19.097 6.08,18.627 5.906,18.244 C3.577,16.723 2,14.298 2,11.5 Z M12,5 C7.403,5 4,8.073 4,11.5 C4,13.514 5.141,15.372 7.042,16.596 C7.78,17.072 7.981,17.999 8.014,18.818 C8.28,18.709 8.515,18.532 8.748,18.357 C9.174,18.035 9.595,17.719 10.186,17.832 C10.768,17.942 11.375,18 12,18 C16.597,18 20,14.927 20,11.5 C20,8.073 16.597,5 12,5 Z"/>
</svg>

