<svg xmlns="http://www.w3.org/2000/svg" width="24" height="24">
  <defs/>
  <path  d="M17,3 C19.761,3 22,5.239 22,8 L22,16 C22,18.761 19.761,21 17,21 L3,21 C2.448,21 2,20.552 2,20 L2,8 C2,5.239 4.239,3 7,3 Z M15,10 C14.448,10 14,10.448 14,11 L14,13 C14,13.552 14.448,14 15,14 C15.552,14 16,13.552 16,13 L16,11 C16,10.448 15.552,10 15,10 Z M9,10 C8.493,10 8.066,10.38 8.007,10.883 L8,11 L8,13 C8.001,13.529 8.413,13.966 8.941,13.997 C9.47,14.028 9.931,13.642 9.993,13.117 L10,13 L10,11 C10,10.448 9.552,10 9,10 Z"/>
</svg>

