<svg xmlns="http://www.w3.org/2000/svg" width="24" height="24">
  <defs/>
  <path  d="M19.495,3.133 C19.955,2.856 20.553,2.992 20.847,3.442 L21.837,4.952 C22.103,5.359 22.038,5.899 21.682,6.231 L21.679,6.235 L21.665,6.248 L21.608,6.301 L21.383,6.516 C20.138,7.724 18.931,8.97 17.763,10.252 C15.566,12.668 12.957,15.83 11.201,18.898 C10.711,19.754 9.514,19.938 8.804,19.199 L2.319,12.461 C2.131,12.266 2.031,12.003 2.04,11.732 C2.05,11.462 2.169,11.206 2.37,11.025 L4.33,9.257 C4.685,8.937 5.218,8.913 5.6,9.2 L8.909,11.681 C14.078,6.584 17.009,4.628 19.495,3.133 Z"/>
</svg>

