<svg xmlns="http://www.w3.org/2000/svg" width="24" height="24">
  <defs/>
  <path  d="M2.222,11.121 A1 1 0 0 1 3.542,11.038 L3.636,11.121 L7.878,15.364 A1 1 0 0 1 6.558,16.861 L6.464,16.778 L2.222,12.536 A1 1 0 0 1 2.222,11.121 M22.778,5.465 A1 1 0 0 1 22.861,6.785 L22.778,6.879 L12.949,16.707 A1.1 1.1 0 0 1 11.489,16.793 L11.393,16.708 L7.222,12.536 A1 1 0 0 1 8.542,11.038 L8.636,11.121 L12.171,14.657 L21.364,5.465 A1 1 0 0 1 22.778,5.465 M17.778,5.465 A1 1 0 0 1 17.861,6.785 L17.778,6.879 L12.828,11.829 A1 1 0 0 1 11.331,10.509 L11.414,10.414 L16.364,5.464 A1 1 0 0 1 17.778,5.464 Z"/>
</svg>

