<svg xmlns="http://www.w3.org/2000/svg" width="24" height="24">
  <defs/>
  <path  d="M5,3 L19,3 C20.105,3 21,3.895 21,5 L21,19 C21,20.105 20.105,21 19,21 L5,21 C3.895,21 3,20.105 3,19 L3,5 C3,3.895 3.895,3 5,3 Z M5,5 L5,19 L19,19 L19,5 Z M16.95,9.795 L11.364,15.382 C10.934,15.812 10.238,15.812 9.808,15.382 L7.05,12.624 C6.66,12.233 6.66,11.6 7.05,11.21 C7.441,10.819 8.075,10.819 8.465,11.21 L10.586,13.331 L15.536,8.381 C15.787,8.121 16.159,8.017 16.509,8.108 C16.858,8.2 17.131,8.473 17.223,8.822 C17.314,9.172 17.21,9.544 16.95,9.795 Z"/>
</svg>

