<svg xmlns="http://www.w3.org/2000/svg" width="24" height="24">
  <defs/>
  <path  d="M23.132,5.111 C23.718,5.697 23.718,6.646 23.132,7.232 L13.302,17.062 C12.677,17.686 11.665,17.686 11.04,17.062 L6.868,12.889 C6.478,12.512 6.322,11.955 6.459,11.43 C6.596,10.906 7.006,10.496 7.53,10.359 C8.055,10.222 8.612,10.378 8.989,10.768 L12.171,13.95 L21.011,5.111 C21.597,4.526 22.545,4.526 23.131,5.111 Z M18.132,5.111 C18.718,5.697 18.718,6.646 18.132,7.232 L13.182,12.182 C12.596,12.768 11.646,12.768 11.061,12.182 C10.475,11.597 10.474,10.647 11.06,10.061 L16.01,5.111 C16.596,4.525 17.545,4.525 18.131,5.111 Z M1.867,10.768 C2.453,10.182 3.402,10.182 3.988,10.768 L8.231,15.011 C8.627,15.386 8.789,15.947 8.652,16.476 C8.516,17.004 8.103,17.417 7.574,17.553 C7.046,17.689 6.485,17.528 6.11,17.131 L1.868,12.89 C1.282,12.304 1.282,11.355 1.868,10.769 Z"/>
</svg>

