<svg xmlns="http://www.w3.org/2000/svg" width="24" height="24">
  <defs/>
  <path  d="M5,13.744 C2.683,12.927 1.448,10.403 2.227,8.073 C3.005,5.742 5.509,4.467 7.852,5.207 C8.781,3.826 10.336,2.999 12,3 C13.728,3 15.25,3.877 16.148,5.207 C18.505,4.419 21.055,5.692 21.843,8.05 C22.63,10.407 21.357,12.956 19,13.744 L19,18 C19,19.657 17.657,21 16,21 L8,21 C6.343,21 5,19.657 5,18 Z M9.22,6.87 L9.22,6.871 C9.11,7.141 8.887,7.35 8.611,7.443 C8.334,7.535 8.03,7.502 7.78,7.352 C6.911,6.836 5.817,6.893 5.007,7.498 C4.197,8.103 3.831,9.136 4.08,10.116 C4.328,11.095 5.142,11.829 6.142,11.975 C6.634,12.046 7,12.468 7,12.965 L7,16 L17,16 L17,12.964 C17,12.466 17.366,12.044 17.859,11.974 C18.859,11.828 19.672,11.094 19.92,10.114 C20.168,9.134 19.802,8.102 18.993,7.497 C18.183,6.893 17.089,6.835 16.22,7.351 C15.97,7.501 15.666,7.534 15.389,7.442 C15.113,7.349 14.89,7.14 14.78,6.87 C14.32,5.739 13.221,4.999 12,4.999 C10.779,4.999 9.68,5.739 9.22,6.87 Z M17,18 L7,18 C7,18.552 7.448,19 8,19 L16,19 C16.552,19 17,18.552 17,18 Z"/>
</svg>

