<svg xmlns="http://www.w3.org/2000/svg" width="24" height="24">
  <defs/>
  <path  d="M10,2 C12.222,2 15.757,3.108 16.949,6.684 C17.385,7.992 17.329,9.157 17.174,10.305 L16.913,12.037 C16.728,13.342 16.594,14.887 16.863,17 L18,17 C18.552,17 19,17.448 19,18 L19,21 C19,21.552 18.552,22 18,22 L6,22 C5.448,22 5,21.552 5,21 L5,18 C5,17.448 5.448,17 6,17 L7.106,17 C7.338,15.856 8.006,14.282 9.67,12.644 C9.852,12.464 9.96,12.257 10.005,12.052 C9.663,12.269 9.322,12.47 8.995,12.653 L8.513,12.915 L8.06,13.15 L7.643,13.357 L7.106,13.609 L6.819,13.738 C6.779,13.755 6.74,13.773 6.7,13.79 C6.14,14.031 5.49,13.906 5.06,13.474 L3.583,11.997 C3.077,11.492 2.998,10.699 3.395,10.104 L6.846,4.928 L6.106,3.448 C5.951,3.138 5.967,2.77 6.149,2.475 C6.331,2.18 6.653,2 7,2 Z M10,4 L8.618,4 L8.894,4.553 C9.033,4.832 9.035,5.159 8.898,5.439 L8.832,5.555 L5.287,10.873 L6.227,11.813 L6.597,11.64 L6.805,11.54 L7.261,11.313 C8.059,10.904 9.027,10.353 9.889,9.709 C10.287,9.402 10.851,9.438 11.207,9.793 C12.412,10.998 12.2,12.836 11.192,13.945 L11.072,14.07 C9.988,15.137 9.462,16.117 9.213,16.856 L9.167,17 L14.849,17 C14.651,15.348 14.667,13.678 14.895,12.03 L14.972,11.484 L15.142,10.368 C15.32,9.168 15.386,8.321 15.052,7.316 C14.242,4.892 11.777,4 10,4 Z M17,19 L7,19 L7,20 L17,20 Z M9,7 C9.552,7 10,7.448 10,8 C10,8.552 9.552,9 9,9 C8.448,9 8,8.552 8,8 C8,7.448 8.448,7 9,7 Z"/>
</svg>

