<svg xmlns="http://www.w3.org/2000/svg" width="24" height="24">
  <defs/>
  <path  d="M7,2 L10,2 C12.222,2 15.757,3.108 16.949,6.684 C17.494,8.319 17.271,9.729 17.046,11.162 L17.045,11.165 C17.025,11.285 17.007,11.406 16.988,11.527 C16.771,12.941 16.558,14.605 16.863,17 L18,17 C18.552,17 19,17.448 19,18 L19,21 C19,21.552 18.552,22 18,22 L6,22 C5.448,22 5,21.552 5,21 L5,18 C5,17.448 5.448,17 6,17 L7.106,17 C7.338,15.856 8.006,14.282 9.67,12.644 C9.852,12.464 9.96,12.257 10.005,12.052 C8.948,12.712 7.843,13.293 6.7,13.79 C6.14,14.031 5.49,13.906 5.06,13.474 L3.583,11.997 C3.077,11.492 2.998,10.699 3.395,10.104 L6.846,4.928 L6.106,3.448 C5.951,3.138 5.967,2.77 6.149,2.475 C6.331,2.18 6.653,2 7,2 Z M9,9 C9.552,9 10,8.552 10,8 C10,7.448 9.552,7 9,7 C8.448,7 8,7.448 8,8 C8,8.552 8.448,9 9,9 Z"/>
</svg>

