<svg xmlns="http://www.w3.org/2000/svg" width="24" height="24">
  <defs/>
  <path  d="M20.132,5.99 A2.988 2.988 0 0 0 18.787,5.213 A3 3 0 1 0 13.181,7.283 L12.373,8.093 A5.675 5.675 0 0 0 12.339,8.088 C11.412,7.971 10.383,8.04 9.37,8.24 C7.37,8.636 5.221,9.587 3.868,10.94 C2.502,12.306 1.938,13.918 2.082,15.531 C2.224,17.114 3.036,18.593 4.222,19.778 C5.408,20.964 6.886,21.777 8.469,21.918 C10.082,22.063 11.694,21.498 13.061,20.132 C14.413,18.779 15.365,16.632 15.761,14.63 C15.961,13.618 16.029,12.588 15.913,11.662 A3.95 3.95 0 0 0 15.908,11.628 L16.717,10.818 A3.001 3.001 0 0 0 20.132,5.99"/>
</svg>

