<svg xmlns="http://www.w3.org/2000/svg" width="24" height="24">
  <defs/>
  <path  d="M12.373,8.092 L13.182,7.283 C12.687,6.256 12.818,5.037 13.519,4.137 C14.219,3.238 15.369,2.813 16.486,3.041 C17.604,3.269 18.495,4.111 18.787,5.213 C19.884,5.51 20.719,6.4 20.944,7.514 C21.169,8.627 20.747,9.772 19.852,10.472 C18.957,11.172 17.743,11.306 16.717,10.819 L15.908,11.628 L15.913,11.662 C16.029,12.588 15.96,13.618 15.76,14.63 C15.365,16.631 14.413,18.78 13.06,20.132 C11.694,21.498 10.082,22.062 8.469,21.918 C6.886,21.777 5.408,20.964 4.222,19.778 C3.036,18.593 2.224,17.115 2.082,15.531 C1.938,13.918 2.502,12.306 3.868,10.94 C5.221,9.587 7.37,8.636 9.37,8.24 C10.383,8.04 11.412,7.971 12.339,8.088 Z M5.283,12.353 L5.283,12.354 C4.306,13.331 3.986,14.37 4.074,15.354 C4.165,16.366 4.7,17.429 5.637,18.364 C6.572,19.3 7.634,19.836 8.647,19.926 C9.63,20.014 10.67,19.695 11.646,18.718 C12.637,17.727 13.453,15.986 13.798,14.242 C13.968,13.382 14.012,12.575 13.928,11.912 C13.843,11.236 13.639,10.811 13.414,10.586 C13.189,10.361 12.765,10.157 12.088,10.073 C11.426,9.989 10.618,10.033 9.758,10.203 C8.013,10.547 6.273,11.363 5.283,12.353 Z M16.066,6.937 C16.347,6.704 16.694,6.606 17.03,6.634 C16.925,6.461 16.874,6.259 16.887,6.053 C16.916,5.593 16.628,5.173 16.188,5.036 C15.749,4.898 15.272,5.078 15.034,5.472 C14.795,5.866 14.856,6.371 15.182,6.697 C15.572,7.087 15.572,7.72 15.182,8.111 L14.446,8.847 C14.718,9.043 14.957,9.282 15.153,9.554 L15.89,8.818 C15.419,8.25 15.498,7.407 16.066,6.937 Z M17.948,7.113 C17.709,6.825 17.376,6.663 17.03,6.634 C17.071,6.702 17.121,6.765 17.178,6.822 C17.381,7.025 17.661,7.131 17.947,7.113 Z"/>
</svg>

