<svg xmlns="http://www.w3.org/2000/svg" width="24" height="24">
  <defs/>
  <path  d="M12,2 C12.552,2 13,2.448 13,3 L13,4.522 C14.097,3.973 15.43,4.3 16.147,5.294 C16.865,6.289 16.756,7.657 15.89,8.525 L15.535,8.879 L16.242,9.586 L16.596,9.232 C17.572,8.256 19.155,8.256 20.131,9.232 C21.108,10.209 21.108,11.791 20.131,12.768 C19.155,13.744 17.572,13.744 16.596,12.768 L16.242,12.414 L15.535,13.121 L15.889,13.475 C16.523,14.109 16.769,15.034 16.534,15.9 C16.298,16.765 15.617,17.438 14.749,17.663 C14.677,17.744 14.593,17.812 14.499,17.866 L14.499,21 C14.499,21.552 14.051,22 13.499,22 C12.947,22 12.499,21.552 12.499,21 L12.499,18 L11.499,18 L11.499,21 C11.499,21.552 11.051,22 10.499,22 C9.947,22 9.499,21.552 9.499,21 L9.499,17.866 C9.406,17.812 9.322,17.743 9.251,17.663 C8.383,17.438 7.702,16.765 7.466,15.9 C7.231,15.034 7.477,14.109 8.111,13.475 L8.464,13.121 L7.757,12.414 L7.404,12.768 C6.428,13.744 4.845,13.744 3.869,12.768 C2.892,11.791 2.892,10.209 3.869,9.232 C4.845,8.256 6.428,8.256 7.404,9.232 L7.757,9.586 L8.464,8.879 L8.111,8.525 C7.242,7.658 7.132,6.288 7.85,5.293 C8.568,4.297 9.903,3.971 11,4.522 L11,3 C11,2.448 11.448,2 12,2 Z M14.121,14.536 L13.414,15.243 L13.768,15.596 C13.894,15.726 14.079,15.778 14.254,15.732 C14.429,15.687 14.566,15.55 14.611,15.375 C14.657,15.2 14.605,15.015 14.475,14.889 Z M9.879,14.536 L9.525,14.889 C9.395,15.015 9.343,15.2 9.389,15.375 C9.434,15.55 9.571,15.687 9.746,15.732 C9.921,15.778 10.106,15.726 10.232,15.596 L10.586,15.243 Z M14.475,6.405 C14.304,6.234 14.036,6.21 13.837,6.347 L13.767,6.405 L13.414,6.758 L14.121,7.466 L14.475,7.112 C14.67,6.917 14.67,6.6 14.475,6.405 Z M9.525,6.405 C9.33,6.6 9.33,6.917 9.525,7.112 L9.879,7.466 L10.586,6.758 L10.232,6.405 C10.037,6.21 9.72,6.21 9.525,6.405 Z M5.282,10.646 C5.086,10.842 5.086,11.158 5.282,11.354 C5.478,11.55 5.794,11.55 5.99,11.354 L6.343,11 L5.99,10.646 C5.896,10.552 5.769,10.499 5.636,10.499 C5.503,10.499 5.376,10.552 5.282,10.646 Z M18.01,10.646 L17.657,11 L18.01,11.354 C18.205,11.549 18.522,11.549 18.717,11.354 C18.912,11.159 18.912,10.842 18.717,10.647 C18.522,10.452 18.205,10.452 18.01,10.647 Z"/>
</svg>

