<svg xmlns="http://www.w3.org/2000/svg" width="24" height="24">
  <defs/>
  <path  d="M15,2 A1 1 0 0 1 16,3 L16,4 L17,4 A3 3 0 0 1 20,7 L20,8 L21,8 A1 1 0 1 1 21,10 L20,10 L20,14 L21,14 A1 1 0 1 1 21,16 L20,16 L20,17 A3 3 0 0 1 17,20 L16,20 L16,21 A1 1 0 1 1 14,21 L14,20 L10,20 L10,21 A1 1 0 1 1 8,21 L8,20 L7,20 A3 3 0 0 1 4,17 L4,16 L3,16 A1 1 0 1 1 3,14 L4,14 L4,10 L3,10 A1 1 0 0 1 3,8 L4,8 L4,7 A3 3 0 0 1 7,4 L8,4 L8,3 A1 1 0 0 1 10,3 L10,4 L14,4 L14,3 A1 1 0 0 1 15,2 M14,8 L10,8 A2 2 0 0 0 8,10 L8,14 A2 2 0 0 0 10,16 L14,16 A2 2 0 0 0 16,14 L16,10 A2 2 0 0 0 14,8 M14,10 L14,14 L10,14 L10,10 Z"/>
</svg>

