<svg xmlns="http://www.w3.org/2000/svg" width="24" height="24">
  <defs/>
  <path  d="M15,2 C15.552,2 16,2.448 16,3 L16,4 L17,4 C18.657,4 20,5.343 20,7 L20,8 L21,8 C21.552,8 22,8.448 22,9 C22,9.552 21.552,10 21,10 L20,10 L20,14 L21,14 C21.552,14 22,14.448 22,15 C22,15.552 21.552,16 21,16 L20,16 L20,17 C20,18.657 18.657,20 17,20 L16,20 L16,21 C16,21.552 15.552,22 15,22 C14.448,22 14,21.552 14,21 L14,20 L10,20 L10,21 C10,21.552 9.552,22 9,22 C8.448,22 8,21.552 8,21 L8,20 L7,20 C5.343,20 4,18.657 4,17 L4,16 L3,16 C2.448,16 2,15.552 2,15 C2,14.448 2.448,14 3,14 L4,14 L4,10 L3,10 C2.448,10 2,9.552 2,9 C2,8.448 2.448,8 3,8 L4,8 L4,7 C4,5.343 5.343,4 7,4 L8,4 L8,3 C8,2.448 8.448,2 9,2 C9.552,2 10,2.448 10,3 L10,4 L14,4 L14,3 C14,2.448 14.448,2 15,2 Z M17,6 L7,6 C6.448,6 6,6.448 6,7 L6,17 C6,17.552 6.448,18 7,18 L17,18 C17.552,18 18,17.552 18,17 L18,7 C18,6.448 17.552,6 17,6 Z M14,8 C15.047,8 15.917,8.806 15.995,9.85 L16,10 L16,14 C16,15.047 15.194,15.917 14.15,15.995 L14,16 L10,16 C8.953,16 8.083,15.194 8.005,14.15 L8,14 L8,10 C8,8.953 8.806,8.083 9.85,8.005 L10,8 Z M14,10 L10,10 L10,14 L14,14 Z"/>
</svg>

