<svg xmlns="http://www.w3.org/2000/svg" width="24" height="24">
  <defs/>
  <path  d="M6,3 L14,3 C14.552,3 15,3.448 15,4 C15,4.552 14.552,5 14,5 L6,5 C5.448,5 5,5.448 5,6 L5,18 C5,18.552 5.448,19 6,19 L18,19 C18.552,19 19,18.552 19,18 L19,13 C19,12.448 19.448,12 20,12 C20.552,12 21,12.448 21,13 L21,18 C21,19.657 19.657,21 18,21 L6,21 C4.343,21 3,19.657 3,18 L3,6 C3,4.343 4.343,3 6,3 Z M21.358,6.045 L21.357,6.046 C21.048,6.224 20.748,6.419 20.453,6.618 C19.875,7.006 19.065,7.585 18.155,8.342 C16.328,9.862 14.125,12.071 12.541,14.862 C12.364,15.173 12.035,15.366 11.677,15.368 C11.32,15.37 10.988,15.181 10.808,14.872 C10.038,13.554 9.24,12.765 8.662,12.315 C8.156,11.92 7.811,11.78 7.786,11.77 C7.267,11.58 7.001,11.005 7.192,10.486 C7.382,9.968 7.956,9.702 8.475,9.892 L8.476,9.892 C8.989,10.078 9.464,10.405 9.891,10.738 C10.546,11.256 11.133,11.856 11.637,12.522 C13.262,10.094 15.234,8.17 16.876,6.804 C17.665,6.147 18.487,5.53 19.339,4.957 C19.675,4.731 20.016,4.507 20.369,4.307 C20.85,4.04 21.456,4.206 21.733,4.682 C22.006,5.162 21.838,5.772 21.358,6.045 Z"/>
</svg>

