<svg xmlns="http://www.w3.org/2000/svg" width="24" height="24">
  <defs/>
  <path  d="M3,6 C3,4.343 4.343,3 6,3 L15,3 C16.737,3 18.301,3.738 19.397,4.917 C19.716,4.706 20.041,4.502 20.37,4.306 C20.85,4.033 21.461,4.202 21.733,4.682 C22.006,5.163 21.837,5.773 21.357,6.046 C21.254,6.105 20.511,6.58 20.496,6.589 C20.829,7.349 21.001,8.17 21,9 L21,18 C21,19.657 19.657,21 18,21 L6,21 C4.343,21 3,19.657 3,18 Z M19.656,7.174 C19.41,6.546 19.039,5.975 18.566,5.494 C17.988,5.911 17.424,6.348 16.876,6.804 C15.234,8.17 13.262,10.094 11.637,12.522 C11.133,11.855 10.546,11.256 9.891,10.737 C9.588,10.498 9.265,10.285 8.926,10.101 C8.781,10.02 8.63,9.95 8.475,9.891 C7.956,9.701 7.382,9.967 7.192,10.486 C7.001,11.004 7.267,11.579 7.786,11.769 C7.811,11.779 8.156,11.921 8.662,12.315 C9.24,12.765 10.038,13.554 10.808,14.872 C10.988,15.181 11.32,15.37 11.677,15.368 C12.035,15.366 12.364,15.173 12.541,14.862 C14.125,12.07 16.328,9.862 18.155,8.342 C18.642,7.936 19.143,7.547 19.656,7.174 Z"/>
</svg>

