<svg xmlns="http://www.w3.org/2000/svg" width="24" height="24">
  <defs/>
  <path  d="M12.4,2 L12.6,2 C13.925,2 15,3.075 15,4.4 C15,4.506 15.002,4.604 15.005,4.694 C15.017,5.193 15.023,5.477 14.6,5.9 C14.6,5.9 15.969,6 16,6 L18.794,6 C19.192,6 19.573,6.159 19.854,6.44 L20.354,6.94 C20.939,7.526 20.939,8.474 20.354,9.06 L18.854,10.56 C18.573,10.841 18.192,11 17.794,11 L16,11 L16,18 C16.431,17.999 16.814,18.275 16.95,18.684 L17.722,21 L18,21 C18.552,21 19,21.448 19,22 C19,22.552 18.552,23 18,23 L7,23 C6.448,23 6,22.552 6,22 C6,21.448 6.448,21 7,21 L7.28,21 L8.051,18.684 C8.187,18.275 8.569,18 9,18 L9,11 L7.207,11 C6.809,11 6.428,10.841 6.147,10.56 L4.647,9.06 C4.062,8.474 4.062,7.526 4.647,6.94 L5.147,6.44 C5.428,6.159 5.809,6 6.207,6 L9,6 C9.013,6 9.259,5.982 9.541,5.961 C9.928,5.932 10.382,5.899 10.4,5.9 C9.98,5.48 9.983,5.324 9.995,4.767 C9.997,4.661 10,4.54 10,4.4 C10,3.075 11.075,2 12.4,2 Z"/>
</svg>

