<svg xmlns="http://www.w3.org/2000/svg" width="24" height="24">
  <defs/>
  <path  d="M12.6,2 C13.862,2 14.908,2.977 14.994,4.236 L15,4.4 L15,5.586 C15,5.727 14.985,5.866 14.956,6.003 L15.049,6 L18.793,6 C19.313,6 19.678,6.275 20.017,6.603 L20.354,6.939 C20.898,7.483 20.942,8.351 20.456,8.947 L20.354,9.061 L18.854,10.561 C18.609,10.806 18.286,10.959 17.941,10.993 L17.793,11 L16,11 L16,18 C16.388,18 16.741,18.224 16.906,18.576 L16.949,18.684 L17.72,21 L18,21 C18.529,21.001 18.966,21.413 18.997,21.941 C19.028,22.47 18.642,22.931 18.117,22.993 L18,23 L7,23 C6.471,22.999 6.034,22.587 6.003,22.059 C5.972,21.53 6.358,21.069 6.883,21.007 L7,21 L7.28,21 L8.051,18.684 C8.174,18.316 8.498,18.052 8.884,18.007 L9,18 L9,11 L7.207,11 C6.861,11 6.525,10.88 6.257,10.66 L6.147,10.56 L4.647,9.06 C4.062,8.474 4.062,7.526 4.647,6.94 L4.982,6.603 C5.284,6.312 5.606,6.062 6.039,6.01 L6.207,6 L9.997,6 L10.044,6.003 C10.024,5.912 10.011,5.819 10.004,5.726 L10,5.586 L10,4.4 C10,3.138 10.977,2.092 12.236,2.006 L12.4,2 Z M9.9,8 L6.415,8 L7.415,9 L10,9 C10.552,9 11,9.448 11,10 L11,12.434 L14,14.234 L14,10 C14,9.448 14.448,9 15,9 L17.586,9 L18.586,8 L15.099,8 L12.794,8.461 C12.6,8.5 12.4,8.5 12.206,8.461 Z M11,14.766 L11,18 L14,18 L14,16.566 Z M15.28,20 L9.72,20 L9.387,21 L15.613,21 Z M12.6,4 L12.4,4 C12.21,4 12.046,4.134 12.008,4.32 L12,4.4 L12,5.586 L12.5,6.086 L13,5.586 L13,4.4 C13,4.21 12.866,4.046 12.68,4.008 Z"/>
</svg>

