<svg xmlns="http://www.w3.org/2000/svg" width="24" height="24">
  <defs/>
  <path  d="M12.894,2.553 L13.698,4.16 C18.255,5.035 21.399,9.232 20.96,13.851 C20.52,18.471 16.64,21.998 12,21.998 C7.36,21.998 3.48,18.471 3.04,13.851 C2.601,9.232 5.745,5.035 10.302,4.16 L11.106,2.553 C11.276,2.215 11.622,2.001 12,2.001 C12.378,2.001 12.724,2.215 12.894,2.553 Z M18.988,13.43 C18.837,13.383 18.685,13.341 18.532,13.303 C16.272,12.742 13.769,13.004 11.42,14.683 L11.172,14.853 C9.43,15.996 7.611,16.16 5.952,15.749 C5.801,15.703 5.651,15.656 5.502,15.607 C5.856,16.487 6.382,17.277 7.039,17.937 C8.856,18.059 10.765,17.608 12.582,16.31 L12.83,16.14 C14.572,14.996 16.391,14.832 18.05,15.244 L18.575,15.41 C18.808,14.774 18.947,14.107 18.988,13.43 Z M16.954,8.055 C15.139,7.935 13.234,8.386 11.419,9.683 L11.171,9.853 C9.429,10.996 7.61,11.16 5.951,10.749 C5.776,10.696 5.602,10.641 5.428,10.584 C5.194,11.22 5.054,11.887 5.013,12.563 C5.146,12.604 5.298,12.648 5.469,12.69 C7.729,13.25 10.232,12.988 12.581,11.31 L12.829,11.14 C14.571,9.996 16.39,9.832 18.049,10.244 L18.495,10.385 C18.143,9.513 17.619,8.721 16.955,8.055 Z"/>
</svg>

