<svg xmlns="http://www.w3.org/2000/svg" width="24" height="24">
  <defs/>
  <path  d="M12,2 C12.379,2 12.725,2.214 12.894,2.553 L13.698,4.16 C18.362,5.056 21.527,9.422 20.928,14.134 C20.329,18.845 16.172,22.28 11.432,21.98 C6.692,21.681 3.001,17.749 3,13 C3,8.684 6.064,4.975 10.302,4.16 L11.106,2.553 C11.275,2.214 11.621,2 12,2 Z M5.013,12.563 C4.947,13.602 5.113,14.642 5.501,15.608 C5.776,15.695 5.926,15.743 5.951,15.748 C7.61,16.16 9.43,15.996 11.171,14.853 L11.419,14.683 C13.769,13.004 16.272,12.742 18.531,13.303 C18.703,13.345 18.855,13.388 18.987,13.43 C19.052,12.391 18.884,11.351 18.495,10.385 L18.049,10.244 C16.391,9.832 14.571,9.996 12.829,11.14 L12.581,11.31 C10.232,12.988 7.729,13.25 5.469,12.69 C5.316,12.652 5.164,12.61 5.013,12.563 Z M18.574,15.412 L18.049,15.246 C16.391,14.834 14.571,14.998 12.829,16.142 L12.581,16.312 C10.764,17.61 8.855,18.061 7.038,17.939 C8.726,19.634 11.162,20.35 13.499,19.838 C15.836,19.327 17.749,17.657 18.574,15.412 Z M5.951,10.749 C7.61,11.16 9.43,10.996 11.171,9.853 L11.419,9.683 C13.233,8.387 15.139,7.935 16.954,8.055 C15.265,6.365 12.832,5.652 10.498,6.164 C8.165,6.676 6.254,8.342 5.429,10.583 C5.749,10.687 5.924,10.742 5.951,10.749 Z"/>
</svg>

