<svg xmlns="http://www.w3.org/2000/svg" width="24" height="24">
  <defs/>
  <path  d="M12.23,3 C16.009,2.999 19.15,5.908 19.44,9.676 L19.984,16.749 C21.02,17.662 21.298,19.165 20.659,20.389 C20.019,21.613 18.626,22.242 17.285,21.913 C15.944,21.584 15,20.381 15,19 L6,19.001 C4.537,19.003 3.286,17.95 3.039,16.508 C2.791,15.066 3.62,13.656 5,13.171 L5,10.231 C4.999,6.238 8.237,3 12.23,3 Z M15.28,15 L6,15 C5.471,15.001 5.034,15.413 5.003,15.941 C4.972,16.47 5.358,16.931 5.883,16.993 L6,17 L15.764,17 L15.899,16.859 Z M18,18 C17.448,18 17,18.448 17,19 C17,19.552 17.448,20 18,20 C18.552,20 19,19.552 19,19 C19,18.448 18.552,18 18,18 Z"/>
</svg>

