<svg xmlns="http://www.w3.org/2000/svg" width="24" height="24">
  <defs/>
  <path  d="M12,2 C17.523,2 22,6.477 22,12 C22,17.523 17.523,22 12,22 C6.477,22 2,17.523 2,12 C2,6.477 6.477,2 12,2 Z M4.546,9.09 C3.672,11.329 3.85,13.842 5.032,15.935 C6.214,18.027 8.274,19.478 10.642,19.886 L10.89,19.924 L12.598,16.964 C10.658,17.198 8.759,16.28 7.738,14.614 Z M19.419,9 L16,9 C16.628,9.836 17,10.874 17,12 C17,12.942 16.74,13.823 16.287,14.575 L13.207,19.91 C15.626,19.541 17.743,18.085 18.954,15.959 C20.165,13.832 20.336,11.269 19.419,9 Z M12,4 C9.632,3.998 7.385,5.047 5.866,6.864 L5.694,7.077 L7.4,10.034 C8.154,8.273 9.848,7.097 11.762,7.006 L12,7 L18.245,7 C16.728,5.102 14.43,3.998 12,4 Z M12,9 C10.343,9 9,10.343 9,12 C9,13.657 10.343,15 12,15 C13.657,15 15,13.657 15,12 C15,10.343 13.657,9 12,9 Z"/>
</svg>

