<svg xmlns="http://www.w3.org/2000/svg" width="24" height="24">
  <defs/>
  <path  d="M2.802,8.069 L6.746,14.9 A5.998 5.998 0 0 0 13.227,17.874 L10.881,21.938 C5.885,21.382 2,17.145 2,12 C2,10.604 2.286,9.276 2.802,8.069 M21.168,8 A9.966 9.966 0 0 1 22,12 C22,17.118 18.155,21.338 13.196,21.93 L17.144,15.09 C17.688,14.188 18,13.13 18,12 A5.978 5.978 0 0 0 16.472,8 Z M12,8 A4 4 0 1 1 12,16 A4 4 0 0 1 12,8 M12,2 A9.985 9.985 0 0 1 20,6 L12,6 A6.003 6.003 0 0 0 6.299,10.125 L3.953,6.062 A9.986 9.986 0 0 1 12,2"/>
</svg>

