<svg xmlns="http://www.w3.org/2000/svg" width="24" height="24">
  <defs/>
  <path  d="M13,3 L13,4 L14,4 C14.552,4 15,4.448 15,5 C15,5.552 14.552,6 14,6 L13,6 L13,7.5 L16.6,10.2 C16.852,10.389 17,10.685 17,11 L17,12.465 L19.555,14.168 C19.833,14.354 20,14.666 20,15 L20,20 C20.552,20 21,20.448 21,21 C21,21.552 20.552,22 20,22 L4,22 C3.448,22 3,21.552 3,21 C3,20.448 3.448,20 4,20 L4,15 C4,14.666 4.167,14.354 4.445,14.168 L7,12.465 L7,11 C7,10.685 7.148,10.389 7.4,10.2 L11,7.5 L11,6 L10,6 C9.448,6 9,5.552 9,5 C9,4.448 9.448,4 10,4 L11,4 L11,3 C11,2.448 11.448,2 12,2 C12.552,2 13,2.448 13,3 Z M14,17 C14,15.895 13.105,15 12,15 C10.895,15 10,15.895 10,17 L10,20 L14,20 Z"/>
</svg>

