<svg xmlns="http://www.w3.org/2000/svg" width="24" height="24">
  <defs/>
  <path  d="M12,2 C12.507,2 12.934,2.38 12.993,2.883 L13,3 L13,4 L14,4 C14.529,4.001 14.966,4.413 14.997,4.941 C15.028,5.47 14.642,5.931 14.117,5.993 L14,6 L13,6 L13,7.5 L16.6,10.2 C16.819,10.364 16.961,10.611 16.993,10.883 L17,11 L17,12.465 L19.555,14.168 C19.797,14.329 19.956,14.588 19.992,14.876 L20,15 L20,20 C20.529,20.001 20.966,20.413 20.997,20.941 C21.028,21.47 20.642,21.931 20.117,21.993 L20,22 L4,22 C3.471,21.999 3.034,21.587 3.003,21.059 C2.972,20.53 3.358,20.069 3.883,20.007 L4,20 L4,15 C4,14.709 4.126,14.433 4.346,14.243 L4.446,14.168 L7,12.465 L7,11 C7,10.726 7.112,10.465 7.31,10.276 L7.4,10.2 L11,7.5 L11,6 L10,6 C9.471,5.999 9.034,5.587 9.003,5.059 C8.972,4.53 9.358,4.069 9.883,4.007 L10,4 L11,4 L11,3 C11,2.448 11.448,2 12,2 Z M12,9.25 L9,11.5 L9,13 C9,13.291 8.874,13.567 8.654,13.757 L8.554,13.832 L6,15.535 L6,20 L9,20 L9,17 C8.998,15.376 10.289,14.046 11.912,13.998 C13.535,13.951 14.901,15.203 14.995,16.824 L15,17 L15,20 L18,20 L18,15.535 L15.445,13.832 C15.203,13.671 15.044,13.412 15.008,13.124 L15,13 L15,11.5 Z M12,16 C11.493,16 11.066,16.38 11.007,16.883 L11,17 L11,20 L13,20 L13,17 L12.993,16.883 C12.934,16.38 12.507,16 12,16 Z"/>
</svg>

