<svg xmlns="http://www.w3.org/2000/svg" width="24" height="24">
  <defs/>
  <path  d="M7,3 C9.209,3 11,4.791 11,7 L11,10 C11,10.552 10.552,11 10,11 L7,11 C4.791,11 3,9.209 3,7 C3,4.791 4.791,3 7,3 Z M14,11 C13.448,11 13,10.552 13,10 L13,7 C13,4.791 14.791,3 17,3 C19.209,3 21,4.791 21,7 C21,9.209 19.209,11 17,11 Z M10,13 C10.552,13 11,13.448 11,14 L11,17 C11,19.209 9.209,21 7,21 C4.791,21 3,19.209 3,17 C3,14.791 4.791,13 7,13 Z M21,17 C21,19.209 19.209,21 17,21 C14.791,21 13,19.209 13,17 L13,14 C13,13.448 13.448,13 14,13 L17,13 C19.209,13 21,14.791 21,17 Z M17,15 L15,15 L15,17 C15,18.105 15.895,19 17,19 C18.105,19 19,18.105 19,17 C19,15.895 18.105,15 17,15 Z M9,17 L9,15 L7,15 C5.895,15 5,15.895 5,17 C5,18.105 5.895,19 7,19 C8.105,19 9,18.105 9,17 Z M15,7 L15,9 L17,9 C18.105,9 19,8.105 19,7 C19,5.895 18.105,5 17,5 C15.895,5 15,5.895 15,7 Z M9,7 C9,5.895 8.105,5 7,5 C5.895,5 5,5.895 5,7 C5,8.105 5.895,9 7,9 L9,9 Z"/>
</svg>

