<svg xmlns="http://www.w3.org/2000/svg" width="24" height="24">
  <defs/>
  <path  d="M3,7 C3,4.791 4.791,3 7,3 C9.209,3 11,4.791 11,7 C11,9.209 9.209,11 7,11 C4.791,11 3,9.209 3,7 Z M17,3 C19.209,3 21,4.791 21,7 C21,9.209 19.209,11 17,11 C14.791,11 13,9.209 13,7 C13,4.791 14.791,3 17,3 Z M3,17 C3,14.791 4.791,13 7,13 C9.209,13 11,14.791 11,17 C11,19.209 9.209,21 7,21 C4.791,21 3,19.209 3,17 Z M13,17 C13,16.448 13.448,16 14,16 L16,16 L16,14 C16,13.448 16.448,13 17,13 C17.552,13 18,13.448 18,14 L18,16 L20,16 C20.552,16 21,16.448 21,17 C21,17.552 20.552,18 20,18 L18,18 L18,20 C18,20.552 17.552,21 17,21 C16.448,21 16,20.552 16,20 L16,18 L14,18 C13.448,18 13,17.552 13,17 Z M15,7 C15,8.105 15.895,9 17,9 C18.105,9 19,8.105 19,7 C19,5.895 18.105,5 17,5 C15.895,5 15,5.895 15,7 Z M7,15 C5.895,15 5,15.895 5,17 C5,18.105 5.895,19 7,19 C8.105,19 9,18.105 9,17 C9,15.895 8.105,15 7,15 Z M7,5 C5.895,5 5,5.895 5,7 C5,8.105 5.895,9 7,9 C8.105,9 9,8.105 9,7 C9,5.895 8.105,5 7,5 Z"/>
</svg>

