<svg xmlns="http://www.w3.org/2000/svg" width="24" height="24">
  <defs/>
  <path  d="M3,7 C3,4.791 4.791,3 7,3 C9.209,3 11,4.791 11,7 L11,10 C11,10.552 10.552,11 10,11 L7,11 C4.791,11 3,9.209 3,7 Z M13,14 C13,13.448 13.448,13 14,13 L17,13 C19.209,13 21,14.791 21,17 C21,19.209 19.209,21 17,21 C14.791,21 13,19.209 13,17 Z M3,17 C3,14.791 4.791,13 7,13 L10,13 C10.552,13 11,13.448 11,14 L11,17 C11,19.209 9.209,21 7,21 C4.791,21 3,19.209 3,17 Z M13,7 C13,4.791 14.791,3 17,3 C19.209,3 21,4.791 21,7 C21,9.209 19.209,11 17,11 L14,11 C13.448,11 13,10.552 13,10 Z"/>
</svg>

