<svg xmlns="http://www.w3.org/2000/svg" width="24" height="24">
  <defs/>
  <path  d="M15.586,2.757 C16.367,1.976 17.633,1.976 18.414,2.757 L21.243,5.586 C22.024,6.367 22.024,7.633 21.243,8.414 L18.414,11.243 C17.633,12.024 16.367,12.024 15.586,11.243 L12.757,8.414 C11.976,7.633 11.976,6.367 12.757,5.586 Z M21,15 L21,19 C21,20.105 20.105,21 19,21 L15,21 C13.895,21 13,20.105 13,19 L13,15 C13,13.895 13.895,13 15,13 L19,13 C20.105,13 21,13.895 21,15 Z M9,13 C10.105,13 11,13.895 11,15 L11,19 C11,20.105 10.105,21 9,21 L5,21 C3.895,21 3,20.105 3,19 L3,15 C3,13.895 3.895,13 5,13 Z M9,3 C10.105,3 11,3.895 11,5 L11,9 C11,10.105 10.105,11 9,11 L5,11 C3.895,11 3,10.105 3,9 L3,5 C3,3.895 3.895,3 5,3 Z M9,5 L5,5 L5,9 L9,9 Z M9,15 L5,15 L5,19 L9,19 Z M19,15 L15,15 L15,19 L19,19 Z M17,4.172 L14.172,7 L17,9.828 L19.828,7 Z"/>
</svg>

