<svg xmlns="http://www.w3.org/2000/svg" width="24" height="24">
  <defs/>
  <path  d="M11,5 A2 2 0 0 0 9,3 L5,3 A2 2 0 0 0 3,5 L3,9 A2 2 0 0 0 5,11 L9,11 A2 2 0 0 0 11,9 Z M21,5 A2 2 0 0 0 19,3 L15,3 A2 2 0 0 0 13,5 L13,9 A2 2 0 0 0 15,11 L19,11 A2 2 0 0 0 21,9 Z M9,13 A2 2 0 0 1 11,15 L11,19 A2 2 0 0 1 9,21 L5,21 A2 2 0 0 1 3,19 L3,15 A2 2 0 0 1 5,13 Z M13,17 A1 1 0 0 1 14,16 L16,16 L16,14 A1 1 0 1 1 18,14 L18,16 L20,16 A1 1 0 1 1 20,18 L18,18 L18,20 A1 1 0 1 1 16,20 L16,18 L14,18 A1 1 0 0 1 13,17"/>
</svg>

