<svg xmlns="http://www.w3.org/2000/svg" width="24" height="24">
  <defs/>
  <path  d="M21,5 L21,9 C21,10.105 20.105,11 19,11 L15,11 C13.895,11 13,10.105 13,9 L13,5 C13,3.895 13.895,3 15,3 L19,3 C20.105,3 21,3.895 21,5 Z M9,13 C10.105,13 11,13.895 11,15 L11,19 C11,20.105 10.105,21 9,21 L5,21 C3.895,21 3,20.105 3,19 L3,15 C3,13.895 3.895,13 5,13 Z M11,5 L11,9 C11,10.105 10.105,11 9,11 L5,11 C3.895,11 3,10.105 3,9 L3,5 C3,3.895 3.895,3 5,3 L9,3 C10.105,3 11,3.895 11,5 Z M13,17 C13,16.448 13.448,16 14,16 L16,16 L16,14 C16,13.448 16.448,13 17,13 C17.552,13 18,13.448 18,14 L18,16 L20,16 C20.552,16 21,16.448 21,17 C21,17.552 20.552,18 20,18 L18,18 L18,20 C18,20.552 17.552,21 17,21 C16.448,21 16,20.552 16,20 L16,18 L14,18 C13.448,18 13,17.552 13,17 Z M5,5 L5,9 L9,9 L9,5 Z M15,5 L15,9 L19,9 L19,5 Z M9,15 L5,15 L5,19 L9,19 Z"/>
</svg>

