<svg xmlns="http://www.w3.org/2000/svg" width="24" height="24">
  <defs/>
  <path  d="M15,2 C15.683,2 16.287,2.343 16.647,2.866 L16.732,3 L18,3 A2 2 0 0 1 19.995,4.85 L20,5 L20,17 A5 5 0 0 1 15.217,21.995 L15,22 L6,22 A2 2 0 0 1 4.005,20.15 L4,20 L4,5 A2 2 0 0 1 5.85,3.005 L6,3 L7.268,3 A2 2 0 0 1 8.831,2.007 L9,2 Z M7,5 L6,5 L6,20 L15,20 A3 3 0 0 0 18,17 L18,5 L17,5 A2 2 0 0 1 15,7 L9,7 A2 2 0 0 1 7,5 M12,14 A1 1 0 0 1 12.117,15.993 L12,16 L9,16 A1 1 0 0 1 8.883,14.007 L9,14 Z M15,10 A1 1 0 1 1 15,12 L9,12 A1 1 0 1 1 9,10 Z M15,4 L9,4 L9,5 L15,5 Z"/>
</svg>

