<svg xmlns="http://www.w3.org/2000/svg" width="24" height="24">
  <defs/>
  <path  d="M12,2 C16.971,2 21,6.029 21,11 C21,14.074 19.324,16.59 17.558,18.395 C16.676,19.287 15.713,20.096 14.682,20.811 L14.256,21.101 L14.056,21.234 L13.679,21.474 L13.343,21.679 L12.927,21.921 C12.352,22.248 11.648,22.248 11.073,21.921 L10.657,21.679 L10.137,21.359 L9.945,21.234 L9.535,20.961 C8.423,20.208 7.387,19.349 6.442,18.395 C4.676,16.589 3,14.074 3,11 C3,6.029 7.029,2 12,2 Z M12,6 C11.448,6 11,6.448 11,7 L11,12 C11,12.265 11.105,12.52 11.293,12.707 L13.793,15.207 C14.185,15.586 14.809,15.581 15.195,15.195 C15.581,14.809 15.586,14.185 15.207,13.793 L13,11.586 L13,7 C13,6.448 12.552,6 12,6 Z"/>
</svg>

