<svg xmlns="http://www.w3.org/2000/svg" width="24" height="24">
  <defs/>
  <path  d="M12,2 C16.971,2 21,6.029 21,11 C21,14.074 19.324,16.59 17.558,18.395 C16.676,19.287 15.713,20.096 14.682,20.811 L14.256,21.101 L14.056,21.234 L13.679,21.474 L13.343,21.679 L12.927,21.921 C12.352,22.248 11.648,22.248 11.073,21.921 L10.657,21.679 L10.137,21.359 L9.945,21.234 L9.535,20.961 C8.423,20.208 7.387,19.349 6.442,18.395 C4.676,16.589 3,14.074 3,11 C3,6.029 7.029,2 12,2 Z M15.08,7.983 L10.835,12.227 L9.067,10.459 C8.676,10.069 8.043,10.069 7.653,10.46 C7.262,10.85 7.262,11.484 7.653,11.874 L10.057,14.278 C10.487,14.708 11.183,14.708 11.613,14.278 L16.493,9.397 C16.872,9.005 16.867,8.381 16.481,7.995 C16.095,7.609 15.471,7.604 15.079,7.983 Z"/>
</svg>

