<svg xmlns="http://www.w3.org/2000/svg" width="24" height="24">
  <defs/>
  <path  d="M12,2 C16.971,2 21,6.029 21,11 C21,14.074 19.324,16.589 17.558,18.395 C15.782,20.211 13.8,21.428 12.927,21.921 C12.348,22.248 11.652,22.248 11.072,21.921 C10.2,21.428 8.218,20.21 6.442,18.395 C4.676,16.59 3,14.074 3,11 C3,6.029 7.029,2 12,2 Z M5,11 C5,13.322 6.272,15.361 7.871,16.996 C9.424,18.583 11.178,19.678 12,20.148 C12.822,19.679 14.576,18.583 16.129,16.996 C17.728,15.36 19,13.322 19,11 C19,7.134 15.866,4 12,4 C8.134,4 5,7.134 5,11 Z M16.494,9.397 L16.493,9.397 L11.613,14.278 C11.183,14.708 10.487,14.708 10.057,14.278 L7.653,11.874 C7.262,11.484 7.262,10.85 7.653,10.46 C8.043,10.069 8.676,10.069 9.067,10.459 L10.835,12.227 L15.079,7.983 C15.469,7.592 16.103,7.592 16.493,7.983 C16.884,8.373 16.884,9.006 16.494,9.397 Z"/>
</svg>

