<svg xmlns="http://www.w3.org/2000/svg" width="24" height="24">
  <defs/>
  <path  d="M12,2 C16.971,2 21,6.029 21,11 C21,14.074 19.324,16.589 17.558,18.395 C15.782,20.211 13.8,21.428 12.927,21.921 C12.348,22.248 11.652,22.248 11.072,21.921 C10.2,21.428 8.218,20.21 6.442,18.395 C4.676,16.59 3,14.074 3,11 C3,6.029 7.029,2 12,2 Z M5,11 C5,13.322 6.272,15.361 7.871,16.996 C9.424,18.583 11.178,19.678 12,20.148 C12.822,19.679 14.576,18.583 16.129,16.996 C17.728,15.36 19,13.322 19,11 C19,7.134 15.866,4 12,4 C8.134,4 5,7.134 5,11 Z M13,7 L13,11.586 L15.207,13.793 C15.586,14.185 15.581,14.809 15.195,15.195 C14.809,15.581 14.185,15.586 13.793,15.207 L11.293,12.707 C11.105,12.52 11,12.265 11,12 L11,7 C11,6.448 11.448,6 12,6 C12.552,6 13,6.448 13,7 Z"/>
</svg>

