<svg xmlns="http://www.w3.org/2000/svg" width="24" height="24">
  <defs/>
  <path  d="M14,8 A2 2 0 0 1 16,10 L16,19 A2 2 0 0 1 14,21 L4,21 A2 2 0 0 1 2,19 L2,10 A2 2 0 0 1 4,8 Z M13.06,3.658 A1 1 0 0 1 14.342,3.06 C16.739,3.932 18.424,5.638 19.574,7.332 L19.794,7.664 L20,7.995 L20,7 A1 1 0 0 1 21.993,6.883 L22,7 L22,12.056 C22,12.739 21.483,13.031 21.16,13.123 L21.028,13.152 C20.743,13.192 20.026,13.126 19.795,12.392 L19.663,11.99 C19.342,11.056 18.788,9.733 17.92,8.456 C16.919,6.982 15.537,5.623 13.658,4.94 A1 1 0 0 1 13.06,3.658"/>
</svg>

