<svg xmlns="http://www.w3.org/2000/svg" width="24" height="24">
  <defs/>
  <path  d="M12,14.122 L6.698,19.424 C6.322,19.814 5.764,19.971 5.239,19.834 C4.715,19.697 4.305,19.287 4.168,18.763 C4.03,18.239 4.186,17.681 4.576,17.304 L9.88,12 L4.575,6.696 C4.185,6.319 4.029,5.761 4.167,5.237 C4.304,4.713 4.714,4.303 5.238,4.166 C5.763,4.029 6.321,4.186 6.697,4.576 L12,9.879 L17.302,4.576 C17.888,3.99 18.838,3.99 19.424,4.576 C20.009,5.161 20.01,6.111 19.424,6.697 L14.12,12 L19.425,17.303 C20.011,17.889 20.011,18.839 19.425,19.425 C18.839,20.011 17.889,20.011 17.303,19.425 Z"/>
</svg>

