<svg xmlns="http://www.w3.org/2000/svg" width="24" height="24">
  <defs/>
  <path  d="M12,13.414 L6.343,19.071 C6.092,19.331 5.72,19.435 5.37,19.344 C5.021,19.252 4.748,18.979 4.656,18.63 C4.565,18.28 4.669,17.908 4.929,17.657 L10.586,12 L4.93,6.343 C4.56,5.949 4.57,5.334 4.952,4.952 C5.333,4.57 5.949,4.56 6.343,4.929 L12,10.586 L17.657,4.929 C18.049,4.55 18.673,4.555 19.059,4.941 C19.445,5.327 19.45,5.951 19.071,6.343 L13.414,12 L19.071,17.657 C19.45,18.049 19.445,18.673 19.059,19.059 C18.673,19.445 18.049,19.45 17.657,19.071 Z"/>
</svg>

