<svg xmlns="http://www.w3.org/2000/svg" width="24" height="24">
  <defs/>
  <path  d="M3,5 C3,3.895 3.895,3 5,3 L19,3 C20.105,3 21,3.895 21,5 L21,19 C21,20.105 20.105,21 19,21 L5,21 C3.895,21 3,20.105 3,19 Z M19,5 L5,5 L5,19 L19,19 Z M8.464,8.464 C8.652,8.276 8.906,8.171 9.172,8.171 C9.437,8.171 9.691,8.276 9.879,8.464 L12,10.586 L14.121,8.464 C14.512,8.073 15.145,8.073 15.536,8.464 C15.927,8.855 15.927,9.488 15.536,9.879 L13.414,12 L15.536,14.121 C15.927,14.512 15.927,15.145 15.536,15.536 C15.145,15.927 14.512,15.927 14.121,15.536 L12,13.414 L9.879,15.536 C9.488,15.927 8.855,15.927 8.464,15.536 C8.073,15.145 8.073,14.512 8.464,14.121 L10.586,12 L8.464,9.879 C8.276,9.691 8.171,9.437 8.171,9.172 C8.171,8.906 8.276,8.652 8.464,8.464 Z"/>
</svg>

