<svg xmlns="http://www.w3.org/2000/svg" width="24" height="24">
  <defs/>
  <path  d="M14.5,19 A1.5 1.5 0 1 1 14.5,22 A1.5 1.5 0 0 1 14.5,19 M10.5,17 A1.5 1.5 0 1 1 10.5,20 A1.5 1.5 0 0 1 10.5,17 M14.5,15 A1.5 1.5 0 1 1 14.5,18 A1.5 1.5 0 0 1 14.5,15 M11.5,2 A6.502 6.502 0 0 1 17.586,6.212 A6.002 6.002 0 0 1 19.6,16.8 A1 1 0 0 1 18.398,15.2 A4.001 4.001 0 0 0 16.654,8.052 A1.01 1.01 0 0 1 15.844,7.321 A4.5 4.5 0 0 0 7.027,9 A1.01 1.01 0 0 1 6.267,10.09 A3.002 3.002 0 0 0 6.248,15.906 A1 1 0 0 1 5.75,17.842 A5.002 5.002 0 0 1 5,8.416 A6.5 6.5 0 0 1 11.5,2 M10.5,13 A1.5 1.5 0 1 1 10.5,16 A1.5 1.5 0 0 1 10.5,13"/>
</svg>

