<svg xmlns="http://www.w3.org/2000/svg" width="24" height="24">
  <defs/>
  <path  d="M14.5,16 A2.5 2.5 0 1 1 12.833,20.363 A1 1 0 0 1 14.068,18.795 L14.167,18.873 A0.5 0.5 0 1 0 14.5,18 L7,18 A1 1 0 1 1 7,16 Z M11.5,2 A6.502 6.502 0 0 1 17.586,6.212 A6.002 6.002 0 0 1 18.836,17.289 A4.508 4.508 0 0 0 15.53,14.119 A5 5 0 0 0 6.67,9.499 A2.986 2.986 0 0 0 6.267,11 L3,11 C2.79,11 2.587,11.021 2.39,11.062 A5.018 5.018 0 0 1 5,8.416 A6.5 6.5 0 0 1 11.5,2 M11,9 A3 3 0 1 1 11,15 L3,15 A1 1 0 1 1 3,13 L11,13 A1 1 0 1 0 10.197,11.404 L10.133,11.501 A1 1 0 0 1 8.402,10.499 A3 3 0 0 1 11,9"/>
</svg>

