<svg xmlns="http://www.w3.org/2000/svg" width="24" height="24">
  <defs/>
  <path  d="M7.91,6.91 C8.774,4.804 10.846,3.447 13.123,3.498 C15.399,3.549 17.408,4.997 18.177,7.14 C20.321,7.66 21.871,9.523 21.992,11.726 C22.113,13.929 20.776,15.95 18.702,16.702 C17.985,18.681 16.105,20 14,20 L6.36,20 C4.317,20.001 2.547,18.583 2.103,16.589 C1.658,14.594 2.658,12.559 4.508,11.692 C4.626,9.576 5.95,7.715 7.911,6.91 Z M10,8.5 C9.019,8.501 8.084,8.912 7.421,9.635 C6.758,10.358 6.429,11.325 6.513,12.302 C6.554,12.788 6.239,13.233 5.767,13.355 C4.623,13.659 3.88,14.763 4.03,15.937 C4.18,17.112 5.176,17.994 6.36,18 L14,18 C15.656,17.999 16.999,16.656 17,15 C17,13.458 15.831,12.166 14.296,12.014 C13.865,11.972 13.51,11.658 13.416,11.236 C13.058,9.637 11.639,8.501 10,8.5 Z M10.525,6.525 C12.644,6.729 14.456,8.136 15.177,10.139 C17.162,10.621 18.654,12.26 18.949,14.281 C19.864,13.5 20.223,12.249 19.863,11.101 C19.503,9.954 18.493,9.132 17.296,9.014 C16.865,8.972 16.51,8.658 16.416,8.236 C16.136,6.991 15.201,5.997 13.976,5.641 C12.751,5.285 11.429,5.624 10.526,6.525 Z"/>
</svg>

