<svg xmlns="http://www.w3.org/2000/svg" width="24" height="24">
  <defs/>
  <path  d="M17.003,9 C19.764,9.001 22.002,11.24 22.001,14.002 C22.001,16.763 19.761,19.001 17,19 L9.5,19 C5.684,18.999 2.477,16.132 2.05,12.34 C1.622,8.548 4.111,5.039 7.831,4.189 C11.551,3.338 15.317,5.417 16.58,9.018 C16.72,9.006 16.861,9 17.002,9 Z M4,11.5 C4,14.538 6.462,17 9.5,17 L17,17 C18.657,17 20,15.657 20,14 C20,12.343 18.657,11 17,11 C15.928,11.002 14.938,11.573 14.401,12.501 C14.124,12.979 13.512,13.143 13.034,12.866 C12.556,12.589 12.392,11.977 12.669,11.499 C13.139,10.687 13.828,10.023 14.657,9.582 C13.731,7.084 11.148,5.609 8.526,6.081 C5.904,6.553 3.997,8.836 4,11.5 Z"/>
</svg>

