<svg xmlns="http://www.w3.org/2000/svg" width="24" height="24">
  <defs/>
  <path  d="M14.5,19 A1.5 1.5 0 1 1 14.5,22 A1.5 1.5 0 0 1 14.5,19 M10.5,17 A1.5 1.5 0 1 1 10.5,20 A1.5 1.5 0 0 1 10.5,17 M11.5,2 A6.502 6.502 0 0 1 17.586,6.212 A6.002 6.002 0 0 1 17.776,17.732 A3.5 3.5 0 0 0 14.5,13 A1.52 1.52 0 0 1 13.301,12.401 A3.5 3.5 0 0 0 7.289,15.893 A1.54 1.54 0 0 1 7.289,17.109 C7.167,17.389 7.081,17.689 7.036,18.001 L7,18.001 A5 5 0 0 1 5,8.417 A6.5 6.5 0 0 1 11.5,2 M14.5,15 A1.5 1.5 0 1 1 14.5,18 A1.5 1.5 0 0 1 14.5,15 M10.5,13 A1.5 1.5 0 1 1 10.5,16 A1.5 1.5 0 0 1 10.5,13"/>
</svg>

