<svg xmlns="http://www.w3.org/2000/svg" width="24" height="24">
  <defs/>
  <path  d="M14.5,16 A2.5 2.5 0 1 1 12.833,20.363 A1 1 0 0 1 14.068,18.795 L14.167,18.873 A0.5 0.5 0 1 0 14.5,18 L7,18 A1 1 0 1 1 7,16 Z M11.5,2 A6.502 6.502 0 0 1 17.586,6.212 A6.002 6.002 0 0 1 19.6,16.799 A1 1 0 0 1 18.399,15.201 A4.001 4.001 0 0 0 16.649,8.053 A1 1 0 0 1 15.845,7.326 A4.5 4.5 0 0 0 7.028,9.006 A1 1 0 0 1 6.274,10.088 A2.999 2.999 0 0 0 4.749,11.016 A1 1 0 1 1 3.249,9.692 A5.012 5.012 0 0 1 5,8.416 A6.5 6.5 0 0 1 11.5,2 M11,9 A3 3 0 1 1 11,15 L3,15 A1 1 0 1 1 3,13 L11,13 A1 1 0 1 0 10.197,11.404 L10.133,11.501 A1 1 0 0 1 8.402,10.499 A3 3 0 0 1 11,9"/>
</svg>

