<svg xmlns="http://www.w3.org/2000/svg" width="24" height="24">
  <defs/>
  <path  d="M11.132,13.004 A1 1 0 0 1 12.92,13.892 L12.868,13.996 L11.723,16 L13.828,16 A1.1 1.1 0 0 1 14.834,17.545 L14.783,17.645 L12.868,20.996 A1 1 0 0 1 11.08,20.108 L11.132,20.004 L12.277,18 L10.172,18 A1.1 1.1 0 0 1 9.166,16.455 L9.217,16.355 Z M11.5,2 A6.502 6.502 0 0 1 17.586,6.212 A6.002 6.002 0 0 1 16.813,17.945 C17.262,16.39 16.403,14.747 14.919,14.194 A3.001 3.001 0 0 0 9.395,12.012 L7.481,15.362 A3.06 3.06 0 0 0 7.273,18 L7,18 A5 5 0 0 1 5,8.416 A6.5 6.5 0 0 1 11.5,2"/>
</svg>

