<svg xmlns="http://www.w3.org/2000/svg" width="24" height="24">
  <defs/>
  <path  d="M5,10.416 C5.037,7.288 7.297,4.63 10.378,4.091 C13.46,3.551 16.488,5.283 17.586,8.212 C20.48,9.01 22.339,11.823 21.939,14.798 C21.538,17.773 19.002,19.995 16,20 L7,20 C4.631,20.002 2.586,18.34 2.102,16.021 C1.618,13.702 2.828,11.362 5,10.416 Z M11.5,6 C10.219,6 8.999,6.545 8.145,7.5 C7.291,8.454 6.885,9.727 7.027,11 C7.082,11.502 6.759,11.967 6.269,12.09 C4.806,12.465 3.85,13.868 4.035,15.367 C4.22,16.865 5.49,17.993 7,18 L16,18 C18.084,18.003 19.821,16.406 19.993,14.329 C20.164,12.252 18.711,10.391 16.655,10.053 C16.265,9.989 15.949,9.702 15.845,9.321 C15.312,7.36 13.532,6 11.5,6 Z"/>
</svg>

