<svg xmlns="http://www.w3.org/2000/svg" width="24" height="24">
  <defs/>
  <path  d="M7,8 C7.001,6.084 8.097,4.338 9.821,3.503 C11.545,2.668 13.595,2.891 15.098,4.078 C16.602,5.265 17.295,7.207 16.883,9.078 C19.55,9.602 21.31,12.16 20.847,14.839 C20.384,17.517 17.866,19.335 15.178,18.933 C15.381,19.535 15.608,20.069 15.858,20.485 C16.044,20.794 16.049,21.179 15.871,21.493 C15.693,21.807 15.361,22 15,22 L9,22 C8.64,22 8.307,21.806 8.13,21.492 C7.952,21.179 7.957,20.794 8.143,20.485 C8.393,20.069 8.619,19.535 8.822,18.933 C6.101,19.404 3.513,17.579 3.042,14.858 C2.571,12.137 4.396,9.549 7.117,9.078 C7.039,8.724 7,8.363 7,8 Z M12,5 C10.922,5 9.927,5.578 9.394,6.514 C8.86,7.45 8.869,8.601 9.418,9.528 C9.614,9.858 9.604,10.272 9.391,10.592 C9.178,10.912 8.801,11.082 8.42,11.029 C7.086,10.841 5.79,11.565 5.251,12.8 C4.712,14.035 5.063,15.478 6.109,16.328 C7.154,17.177 8.638,17.226 9.737,16.446 C10.075,16.206 10.526,16.199 10.871,16.429 C11.216,16.658 11.384,17.078 11.292,17.482 C11.105,18.336 10.862,19.178 10.565,20 L13.435,20 C13.133,19.19 12.895,18.309 12.708,17.482 C12.616,17.078 12.784,16.658 13.129,16.429 C13.474,16.199 13.925,16.206 14.263,16.446 C15.362,17.226 16.846,17.177 17.891,16.328 C18.937,15.478 19.288,14.035 18.749,12.8 C18.21,11.565 16.914,10.841 15.58,11.029 C15.2,11.082 14.823,10.912 14.61,10.592 C14.397,10.273 14.386,9.859 14.582,9.529 C15.131,8.602 15.141,7.451 14.607,6.514 C14.073,5.578 13.078,5 12,5 Z"/>
</svg>

