<svg xmlns="http://www.w3.org/2000/svg" width="24" height="24">
  <defs/>
  <path  d="M9.924,18.616 C8.156,19.348 6.125,19.007 4.693,17.737 C3.262,16.467 2.68,14.492 3.196,12.649 C3.712,10.806 5.234,9.419 7.117,9.077 C6.678,7.078 7.501,5.013 9.195,3.865 C10.889,2.717 13.112,2.717 14.806,3.865 C16.5,5.013 17.323,7.078 16.884,9.077 C18.771,9.415 20.299,10.803 20.818,12.649 C21.336,14.495 20.753,16.475 19.317,17.746 C17.882,19.017 15.846,19.355 14.076,18.617 C14.301,19.34 14.561,19.992 14.857,20.485 C15.043,20.794 15.048,21.179 14.87,21.492 C14.693,21.806 14.36,22 14,22 L10,22 C9.64,22 9.307,21.806 9.13,21.492 C8.952,21.179 8.957,20.794 9.143,20.485 C9.439,19.992 9.699,19.34 9.924,18.616 Z"/>
</svg>

