<svg xmlns="http://www.w3.org/2000/svg" width="24" height="24">
  <defs/>
  <path  d="M11,7.5 C11,8.328 10.328,9 9.5,9 C8.672,9 8,8.328 8,7.5 C8,5.588 9.352,3.944 11.228,3.575 C13.104,3.206 14.978,4.215 15.702,5.985 C16.426,7.754 15.797,9.789 14.2,10.84 L21.824,16.938 C23.3,18.12 22.465,20.5 20.575,20.5 L3.426,20.5 C1.535,20.5 0.7,18.12 2.176,16.938 L10.639,10.168 C10.969,9.226 11.817,8.664 12.389,8.422 C12.85,8.227 13.097,7.721 12.965,7.238 C12.833,6.755 12.364,6.443 11.868,6.51 C11.371,6.576 11,6.999 11,7.5 Z M12,12.92 L6.276,17.5 L17.724,17.5 Z"/>
</svg>

