<svg xmlns="http://www.w3.org/2000/svg" width="24" height="24">
  <defs/>
  <path  d="M10.5,7.5 C10.5,8.052 10.052,8.5 9.5,8.5 C8.948,8.5 8.5,8.052 8.5,7.5 C8.5,5.747 9.797,4.265 11.535,4.032 C13.272,3.799 14.914,4.887 15.376,6.578 C15.838,8.269 14.978,10.041 13.364,10.724 C13.34,10.734 13.317,10.745 13.295,10.756 L21.512,17.329 C22.619,18.215 21.993,20 20.575,20 L3.425,20 C2.008,20 1.381,18.215 2.488,17.329 L11.062,10.469 L11.072,10.462 C11.303,9.629 12.04,9.112 12.584,8.882 C13.276,8.589 13.645,7.83 13.447,7.105 C13.249,6.38 12.546,5.914 11.801,6.014 C11.056,6.113 10.5,6.749 10.5,7.5 Z M12,12.28 L4.85,18 L19.15,18 Z"/>
</svg>

