<svg xmlns="http://www.w3.org/2000/svg" width="24" height="24">
  <defs/>
  <path  d="M13.528,3 C13.994,3 14.453,3.109 14.87,3.317 L16.9,4.333 C18.133,4.949 19.057,6.048 19.453,7.368 L21.715,14.907 C21.995,15.838 21.564,16.836 20.694,17.271 L19.682,17.776 C19.279,17.978 18.791,17.885 18.49,17.549 L18,17 L17.732,18.752 C17.388,20.076 16.194,21 14.826,21 L9.174,21 C7.806,21 6.612,20.076 6.268,18.752 L6,17 L5.51,17.549 C5.209,17.885 4.72,17.978 4.317,17.776 L3.305,17.271 C2.435,16.836 2.004,15.838 2.284,14.907 L4.546,7.368 C4.942,6.048 5.866,4.949 7.099,4.333 L9.13,3.317 C9.547,3.109 10.006,3 10.472,3 Z M13.528,5 L10.472,5 C10.356,5 10.241,5.02 10.132,5.06 L10.025,5.106 L9.065,5.586 L12,10.15 L14.935,5.584 L13.975,5.104 C13.871,5.052 13.759,5.019 13.644,5.006 Z"/>
</svg>

