<svg xmlns="http://www.w3.org/2000/svg" width="24" height="24">
  <defs/>
  <path  d="M6.268,18.752 L3.305,17.271 C2.435,16.836 2.004,15.838 2.284,14.907 L4.546,7.368 C4.942,6.048 5.866,4.949 7.099,4.333 L9.13,3.317 C9.547,3.109 10.006,3 10.472,3 L13.528,3 C13.994,3 14.453,3.109 14.87,3.317 L16.9,4.333 C18.133,4.949 19.057,6.048 19.453,7.368 L21.715,14.907 C21.995,15.838 21.564,16.836 20.694,17.271 L17.731,18.752 C17.388,20.075 16.193,21 14.826,21 L9.174,21 C7.806,21 6.612,20.076 6.268,18.752 Z M13,11.266 L13,19 L14.826,19 C15.106,19 15.373,18.883 15.562,18.677 C15.752,18.471 15.846,18.196 15.823,17.917 L15.503,14.083 C15.457,13.532 15.866,13.049 16.417,13.003 C16.968,12.957 17.451,13.366 17.497,13.917 L17.714,16.525 L19.8,15.482 L17.539,7.942 C17.301,7.15 16.747,6.492 16.007,6.122 L15.954,6.096 Z M11,11.266 L8.046,6.096 L7.993,6.122 C7.253,6.492 6.699,7.15 6.461,7.942 L4.2,15.483 L6.287,16.526 L6.504,13.918 C6.55,13.367 7.033,12.958 7.584,13.004 C8.135,13.05 8.544,13.533 8.498,14.084 L8.178,17.918 C8.155,18.196 8.25,18.472 8.439,18.677 C8.628,18.883 8.895,19 9.174,19 L11,19 Z M10.025,5.106 L10.025,5.107 L9.837,5.2 L12,8.984 L14.163,5.199 L13.975,5.106 C13.836,5.036 13.683,5 13.528,5 L10.472,5 C10.317,5 10.164,5.036 10.025,5.106 Z"/>
</svg>

