<svg xmlns="http://www.w3.org/2000/svg" width="24" height="24">
  <defs/>
  <path  d="M14.62,2.662 A1.5 1.5 0 0 1 15.66,4.512 L11.229,20.299 A1.5 1.5 0 0 1 8.34,19.489 L12.771,3.7 A1.5 1.5 0 0 1 14.621,2.661 Z M7.56,6.697 A1.5 1.5 0 0 1 7.56,8.817 L4.38,12 L7.562,15.182 A1.5 1.5 0 1 1 5.44,17.303 L1.197,13.06 A1.5 1.5 0 0 1 1.197,10.94 L5.439,6.697 A1.5 1.5 0 0 1 7.561,6.697 Z M16.44,8.817 A1.5 1.5 0 1 1 18.56,6.697 L22.803,10.939 A1.5 1.5 0 0 1 22.803,13.06 L18.561,17.303 A1.5 1.5 0 1 1 16.439,15.182 L19.621,12 Z"/>
</svg>

