<svg xmlns="http://www.w3.org/2000/svg" width="24" height="24">
  <defs/>
  <path  d="M13.25,2.795 L21.248,7.412 C22.021,7.859 22.498,8.684 22.498,9.577 L22.498,14.423 C22.498,15.316 22.021,16.141 21.248,16.588 L13.25,21.205 C12.476,21.652 11.524,21.652 10.75,21.205 L2.752,16.588 C1.979,16.141 1.502,15.316 1.502,14.423 L1.502,9.577 C1.502,8.684 1.979,7.859 2.752,7.412 L10.75,2.795 C11.524,2.348 12.476,2.348 13.25,2.795 Z M13.5,6.403 L13.5,8.94 L15.802,10.269 L17.998,9 Z M8.198,13.732 L6.002,15 L10.5,17.597 L10.5,15.06 Z M15.802,13.732 L13.5,15.061 L13.5,17.597 L17.998,15 Z M10.5,6.403 L6.002,9 L8.198,10.268 L10.5,8.938 Z M12,11.537 L11.198,12 L12,12.463 L12.802,12 Z M4.502,11.598 L4.502,12.402 L5.198,12 Z M19.498,11.598 L18.802,12 L19.498,12.402 Z"/>
</svg>

