<svg xmlns="http://www.w3.org/2000/svg" width="24" height="24">
  <defs/>
  <path  d="M13,3.228 L20.998,7.845 C21.617,8.202 21.998,8.862 21.998,9.577 L21.998,14.423 C21.998,15.138 21.617,15.798 20.998,16.155 L13,20.772 C12.381,21.129 11.619,21.129 11,20.772 L3.002,16.155 C2.383,15.798 2.002,15.138 2.002,14.423 L2.002,9.577 C2.002,8.862 2.383,8.202 3.002,7.845 L11,3.228 C11.619,2.871 12.381,2.871 13,3.228 Z M11,5.537 L5.002,9 L8.198,10.845 L11,9.228 Z M13,5.537 L13,9.227 L15.802,10.845 L18.998,9 Z M8.198,13.155 L5.002,15 L11,18.463 L11,14.773 Z M15.802,13.155 L13,14.772 L13,18.462 L18.998,15 Z M12,10.96 L10.198,12 L12,13.04 L13.802,12 Z M4.002,10.732 L4.002,13.268 L6.198,12 Z M19.998,10.732 L17.802,12 L19.998,13.268 Z"/>
</svg>

