<svg xmlns="http://www.w3.org/2000/svg" width="24" height="24">
  <defs/>
  <path  d="M12,2 C17.523,2 22,6.477 22,12 C22,17.523 17.523,22 12,22 C6.477,22 2,17.523 2,12 C2,6.477 6.477,2 12,2 Z M12,7.364 C11.017,9.384 9.384,11.017 7.364,12 C9.384,12.983 11.017,14.616 12,16.636 C12.983,14.616 14.616,12.983 16.636,12 C14.616,11.017 12.983,9.384 12,7.364 Z M10.929,4.071 C7.36,4.554 4.553,7.361 4.07,10.93 C7.64,10.448 10.448,7.64 10.93,4.07 Z M4.071,13.071 C4.554,16.639 7.361,19.446 10.929,19.929 C10.446,16.36 7.639,13.553 4.07,13.07 Z M19.928,13.07 C16.36,13.553 13.553,16.36 13.07,19.928 C16.638,19.445 19.445,16.638 19.928,13.07 Z M19.93,10.928 C19.447,7.36 16.64,4.553 13.072,4.07 C13.555,7.639 16.362,10.445 19.93,10.928 Z"/>
</svg>

