<svg xmlns="http://www.w3.org/2000/svg" width="24" height="24">
  <defs/>
  <path  d="M21,16.143 L21,17.5 C21,18.314 20.619,19.01 20.09,19.557 C19.567,20.099 18.857,20.541 18.058,20.891 C16.456,21.591 14.314,22 12,22 C9.686,22 7.544,21.592 5.942,20.891 C5.143,20.541 4.433,20.099 3.91,19.557 C3.425,19.057 3.065,18.429 3.008,17.701 L3,17.5 L3,16.143 C3.465,16.407 3.962,16.641 4.494,16.838 C6.524,17.589 9.179,18.008 12,18.008 C14.821,18.008 17.476,17.589 19.506,16.838 C19.905,16.69 20.284,16.522 20.645,16.335 Z M3,10.643 C3.465,10.907 3.962,11.141 4.494,11.338 C6.524,12.089 9.179,12.508 12,12.508 C14.821,12.508 17.476,12.089 19.506,11.338 A10.08 10.08 0 0 0 21,10.643 L21,13.748 A8.328 8.328 0 0 1 18.812,14.962 C17.057,15.612 14.648,16.009 12,16.009 C9.353,16.009 6.944,15.612 5.188,14.962 A8.328 8.328 0 0 1 3,13.748 Z M12,3 C14.314,3 16.456,3.408 18.058,4.109 C18.857,4.459 19.567,4.901 20.09,5.443 C20.575,5.943 20.935,6.571 20.992,7.299 L21,7.5 L21,8.248 A8.326 8.326 0 0 1 18.812,9.462 C17.057,10.112 14.648,10.509 12,10.509 C9.353,10.509 6.944,10.112 5.188,9.462 A8.267 8.267 0 0 1 3.283,8.456 L3,8.248 L3,7.5 C3,6.686 3.381,5.99 3.91,5.443 C4.433,4.901 5.143,4.459 5.942,4.109 C7.544,3.409 9.686,3 12,3"/>
</svg>

