<svg xmlns="http://www.w3.org/2000/svg" width="24" height="24">
  <defs/>
  <path  d="M12,5 C14.592,5 16.986,5.465 18.77,6.258 C19.66,6.654 20.444,7.151 21.017,7.754 C21.547,8.311 21.931,8.997 21.992,9.783 L22,10 L22,14 C22,14.878 21.596,15.639 21.017,16.246 C20.444,16.849 19.661,17.346 18.77,17.742 C16.986,18.535 14.592,19 12,19 C9.408,19 7.014,18.535 5.23,17.742 C4.34,17.346 3.556,16.849 2.983,16.246 C2.453,15.689 2.069,15.003 2.008,14.217 L2,14 L2,10 C2,9.122 2.404,8.361 2.983,7.754 C3.556,7.151 4.339,6.654 5.23,6.258 C7.014,5.465 9.408,5 12,5 M20,13.08 C19.625,13.326 19.21,13.546 18.77,13.742 C16.986,14.535 14.592,15 12,15 C9.408,15 7.014,14.535 5.23,13.742 A8.689 8.689 0 0 1 4,13.08 L4,14 C4,14.227 4.1,14.518 4.432,14.868 C4.769,15.222 5.304,15.587 6.042,15.915 C7.516,16.57 9.622,17 12,17 C14.379,17 16.484,16.57 17.958,15.915 C18.696,15.587 19.231,15.222 19.568,14.868 C19.901,14.518 20,14.227 20,14 Z"/>
</svg>

