<svg xmlns="http://www.w3.org/2000/svg" width="24" height="24">
  <defs/>
  <path  d="M20.477,3.511 C21.649,4.683 21.649,6.582 20.477,7.754 L18.944,9.286 C19.494,10.431 19.261,11.798 18.363,12.696 L17.649,13.411 C16.868,14.192 15.601,14.192 14.82,13.411 L8.334,19.895 C7.772,20.458 7.009,20.774 6.214,20.775 L4.414,20.775 C3.751,20.775 3.214,20.238 3.214,19.575 L3.214,17.775 C3.214,16.979 3.529,16.216 4.092,15.653 L10.578,9.168 C9.797,8.387 9.797,7.12 10.578,6.339 L11.291,5.625 C12.189,4.727 13.556,4.494 14.701,5.044 L16.234,3.511 C17.406,2.339 19.305,2.339 20.477,3.511 Z M5.507,17.068 C5.319,17.255 5.214,17.51 5.214,17.775 L5.214,18.775 L6.214,18.775 C6.479,18.775 6.734,18.67 6.921,18.482 L13.406,11.996 L11.992,10.582 Z"/>
</svg>

