<svg xmlns="http://www.w3.org/2000/svg" width="24" height="24">
  <defs/>
  <path  d="M20.477,3.511 C21.649,4.683 21.649,6.582 20.477,7.754 L18.944,9.287 C19.494,10.432 19.261,11.799 18.363,12.697 L17.648,13.411 C16.867,14.192 15.601,14.192 14.82,13.411 L8.335,19.896 C7.772,20.459 7.009,20.775 6.213,20.775 L4.413,20.775 C3.75,20.775 3.213,20.238 3.213,19.575 L3.213,17.775 C3.213,16.979 3.53,16.216 4.093,15.653 L10.577,9.168 C9.796,8.387 9.796,7.121 10.577,6.34 L11.291,5.626 C12.189,4.728 13.556,4.494 14.701,5.044 L16.234,3.511 C17.406,2.339 19.305,2.339 20.477,3.511 Z M19.062,4.925 C18.671,4.535 18.038,4.535 17.648,4.925 L15.534,7.04 C15.14,7.434 14.5,7.434 14.106,7.04 C13.719,6.653 13.093,6.653 12.706,7.04 L11.992,7.754 L16.234,11.997 L16.948,11.282 C17.335,10.895 17.335,10.269 16.948,9.882 C16.554,9.488 16.554,8.848 16.948,8.454 L19.063,6.34 C19.251,6.152 19.356,5.898 19.356,5.633 C19.356,5.367 19.251,5.113 19.063,4.925 Z M11.992,10.582 L5.506,17.068 L5.419,17.167 C5.285,17.342 5.213,17.555 5.213,17.775 L5.213,18.775 L6.213,18.775 L6.345,18.766 C6.563,18.737 6.765,18.637 6.92,18.482 L13.406,11.997 Z"/>
</svg>

