<svg xmlns="http://www.w3.org/2000/svg" width="24" height="24">
  <defs/>
  <path  d="M12,2 C13.988,1.999 15.847,2.983 16.964,4.627 C18.082,6.271 18.312,8.362 17.58,10.21 C19.97,10.863 21.712,12.919 21.966,15.383 C22.22,17.847 20.932,20.214 18.726,21.341 C16.52,22.468 13.848,22.123 12,20.472 C10.152,22.123 7.48,22.468 5.274,21.341 C3.068,20.214 1.78,17.847 2.034,15.383 C2.288,12.919 4.03,10.863 6.42,10.21 C5.688,8.362 5.918,6.271 7.036,4.627 C8.153,2.983 10.012,1.999 12,2 Z M12,4 C9.877,3.998 8.122,5.655 8.003,7.775 C7.883,9.894 9.44,11.738 11.55,11.975 C12.559,10.858 13.951,10.162 15.45,10.025 C16.176,8.788 16.184,7.257 15.472,6.012 C14.759,4.768 13.434,4 12,4 Z M7.55,12.025 C5.79,12.224 4.371,13.557 4.062,15.301 C3.752,17.046 4.627,18.785 6.211,19.577 C7.796,20.369 9.712,20.025 10.922,18.732 C12.132,17.438 12.346,15.503 11.45,13.975 C9.951,13.838 8.559,13.142 7.55,12.025 Z M16,12 C14.977,11.998 13.992,12.39 13.25,13.095 C13.728,13.955 14,14.947 14,16 C14.001,17.017 13.743,18.017 13.25,18.906 C14.555,20.14 16.523,20.353 18.062,19.427 C19.601,18.5 20.333,16.661 19.853,14.93 C19.372,13.199 17.796,12.001 16,12 Z"/>
</svg>

