<svg xmlns="http://www.w3.org/2000/svg" width="24" height="24">
  <defs/>
  <path  d="M3,6.5 C3,4.567 4.567,3 6.5,3 C8.433,3 10,4.567 10,6.5 L10,8 L14,8 L14,6.5 C14,4.567 15.567,3 17.5,3 C19.433,3 21,4.567 21,6.5 C21,8.433 19.433,10 17.5,10 L16,10 L16,14 L17.5,14 C19.433,14 21,15.567 21,17.5 C21,19.433 19.433,21 17.5,21 C15.567,21 14,19.433 14,17.5 L14,16 L10,16 L10,17.5 C10,19.433 8.433,21 6.5,21 C4.567,21 3,19.433 3,17.5 C3,15.567 4.567,14 6.5,14 L8,14 L8,10 L6.5,10 C4.567,10 3,8.433 3,6.5 Z M10,10 L10,14 L14,14 L14,10 Z M8,8 L8,6.5 C8,5.672 7.328,5 6.5,5 C5.672,5 5,5.672 5,6.5 C5,7.328 5.672,8 6.5,8 Z M8,16 L6.5,16 C5.672,16 5,16.672 5,17.5 C5,18.328 5.672,19 6.5,19 C7.328,19 8,18.328 8,17.5 Z M16,8 L17.5,8 C18.328,8 19,7.328 19,6.5 C19,5.672 18.328,5 17.5,5 C16.672,5 16,5.672 16,6.5 Z M16,16 L16,17.5 C16,18.328 16.672,19 17.5,19 C18.328,19 19,18.328 19,17.5 C19,16.672 18.328,16 17.5,16 Z"/>
</svg>

