<svg xmlns="http://www.w3.org/2000/svg" width="24" height="24">
  <defs/>
  <path  d="M2.5,6.5 C2.5,4.291 4.291,2.5 6.5,2.5 C8.709,2.5 10.5,4.291 10.5,6.5 L10.5,7.5 L13.5,7.5 L13.5,6.5 C13.5,4.291 15.291,2.5 17.5,2.5 C19.709,2.5 21.5,4.291 21.5,6.5 C21.5,8.709 19.709,10.5 17.5,10.5 L16.5,10.5 L16.5,13.5 L17.5,13.5 C19.709,13.5 21.5,15.291 21.5,17.5 C21.5,19.709 19.709,21.5 17.5,21.5 C15.291,21.5 13.5,19.709 13.5,17.5 L13.5,16.5 L10.5,16.5 L10.5,17.5 C10.5,19.709 8.709,21.5 6.5,21.5 C4.291,21.5 2.5,19.709 2.5,17.5 C2.5,15.291 4.291,13.5 6.5,13.5 L7.5,13.5 L7.5,10.5 L6.5,10.5 C4.291,10.5 2.5,8.709 2.5,6.5 Z M10.5,10.5 L10.5,13.5 L13.5,13.5 L13.5,10.5 Z M7.5,7.5 L7.5,6.5 C7.5,5.948 7.052,5.5 6.5,5.5 C5.948,5.5 5.5,5.948 5.5,6.5 C5.5,7.052 5.948,7.5 6.5,7.5 Z M7.5,16.5 L6.5,16.5 C5.948,16.5 5.5,16.948 5.5,17.5 C5.5,18.052 5.948,18.5 6.5,18.5 C7.052,18.5 7.5,18.052 7.5,17.5 Z M16.5,7.5 L17.5,7.5 C18.052,7.5 18.5,7.052 18.5,6.5 C18.5,5.948 18.052,5.5 17.5,5.5 C16.948,5.5 16.5,5.948 16.5,6.5 Z M16.5,16.5 L16.5,17.5 C16.5,18.052 16.948,18.5 17.5,18.5 C18.052,18.5 18.5,18.052 18.5,17.5 C18.5,16.948 18.052,16.5 17.5,16.5 Z"/>
</svg>

