<svg xmlns="http://www.w3.org/2000/svg" width="24" height="24">
  <defs/>
  <path  d="M16.5,11 C18.444,11 20.244,12.026 21.234,13.699 C22.224,15.372 22.257,17.444 21.321,19.148 L21.707,20.459 C21.811,20.812 21.714,21.193 21.454,21.454 C21.193,21.714 20.812,21.811 20.459,21.707 L19.149,21.321 C17.135,22.427 14.646,22.164 12.907,20.663 C11.168,19.161 10.546,16.737 11.347,14.583 C12.147,12.43 14.202,11.001 16.5,11 Z M4,12 C3.998,13.331 4.377,14.635 5.093,15.757 C5.308,16.093 5.381,16.519 5.261,16.927 L4.922,18.079 L6.074,17.74 C6.47,17.624 6.897,17.685 7.245,17.908 C8.116,18.464 9.1,18.818 10.125,18.946 C10.673,19.014 11.062,19.514 10.993,20.062 C10.925,20.611 10.425,20.999 9.877,20.931 C8.645,20.777 7.458,20.369 6.392,19.731 L3.742,20.511 C3.388,20.615 3.005,20.518 2.744,20.257 C2.483,19.996 2.386,19.613 2.49,19.259 L3.27,16.61 C1.526,13.705 1.561,10.068 3.359,7.197 C5.158,4.326 8.416,2.708 11.79,3.009 C15.164,3.31 18.084,5.481 19.345,8.625 C19.548,9.136 19.3,9.715 18.79,9.921 C18.281,10.127 17.701,9.883 17.491,9.375 C16.236,6.267 12.954,4.484 9.663,5.124 C6.373,5.765 3.998,8.648 4,12 Z M20,16.5 C20,14.903 18.918,13.508 17.371,13.11 C15.824,12.713 14.204,13.414 13.434,14.813 C12.663,16.213 12.939,17.956 14.103,19.05 C15.266,20.145 17.024,20.312 18.373,19.457 C18.643,19.285 18.968,19.223 19.283,19.282 C19.223,18.968 19.286,18.642 19.457,18.372 C19.813,17.812 20.001,17.163 20,16.5 Z"/>
</svg>

