<svg xmlns="http://www.w3.org/2000/svg" width="24" height="24">
  <defs/>
  <path  d="M16,4 A3 3 0 0 1 18.995,6.824 L19,7 L19,9 A3 3 0 0 1 21.995,11.824 L22,12 L22,16 A3 3 0 0 1 19.176,18.995 L19,19 L19,19.966 C19,20.986 17.857,21.56 17.046,20.999 L16.95,20.927 L14.638,19 L11,19 A2.989 2.989 0 0 1 9.002,18.238 L8.862,18.104 L7,19.5 C6.209,20.093 5.094,19.575 5.006,18.621 L5,18.5 L5,17 A3 3 0 0 1 2.005,14.176 L2,14 L2,7 A3 3 0 0 1 4.824,4.005 L5,4 Z M19,11 L11,11 A1 1 0 0 0 10,12 L10,16 A1 1 0 0 0 11,17 L14.638,17 A2 2 0 0 1 15.918,17.464 L17.006,18.37 A1.5 1.5 0 0 1 18.5,17 L19,17 A1 1 0 0 0 20,16 L20,12 A1 1 0 0 0 19,11 M16,6 L5,6 A1 1 0 0 0 4,7 L4,14 A1 1 0 0 0 5,15 L5.5,15 A1.5 1.5 0 0 1 7,16.5 L7,17 L8.01,16.243 A3.04 3.04 0 0 1 8,16 L8,12 A3 3 0 0 1 11,9 L17,9 L17,7 A1 1 0 0 0 16,6"/>
</svg>

