<svg xmlns="http://www.w3.org/2000/svg" width="24" height="24">
  <defs/>
  <path  d="M19.26,16.877 C19.673,17.279 20,17.809 20,18.473 C20,19.226 19.574,19.812 19.1,20.218 C18.62,20.626 17.986,20.949 17.29,21.201 C15.888,21.706 14.018,22 12,22 C9.982,22 8.112,21.706 6.71,21.2 C6.014,20.95 5.38,20.626 4.901,20.218 C4.426,19.812 4,19.226 4,18.473 C4,17.81 4.327,17.279 4.74,16.877 A9.972 9.972 0 0 0 12,20 C14.859,20 17.438,18.8 19.26,16.877 M12,2 A8 8 0 1 1 12,18 A8 8 0 0 1 12,2 M12,6 A4 4 0 1 0 12,14 A4 4 0 0 0 12,6 M12,8 A2 2 0 1 1 12,12 A2 2 0 0 1 12,8"/>
</svg>

