<svg xmlns="http://www.w3.org/2000/svg" width="24" height="24">
  <defs/>
  <path  d="M5.283,8.11 C5.869,7.524 6.819,7.524 7.405,8.11 L10.233,10.938 C10.819,11.524 10.819,12.474 10.233,13.06 L7.405,15.888 C6.819,16.474 5.869,16.474 5.283,15.888 L2.455,13.06 C1.869,12.474 1.869,11.524 2.455,10.938 Z M10.94,2.454 C11.526,1.869 12.474,1.869 13.06,2.454 L15.89,5.282 C16.476,5.868 16.476,6.818 15.89,7.404 L13.06,10.232 C12.474,10.817 11.526,10.817 10.94,10.232 L8.11,7.404 C7.524,6.818 7.524,5.868 8.11,5.282 Z M16.596,8.111 C17.182,7.525 18.132,7.525 18.718,8.111 L21.546,10.939 C22.132,11.525 22.132,12.475 21.546,13.061 L18.718,15.889 C18.132,16.475 17.182,16.475 16.596,15.889 L13.768,13.061 C13.182,12.475 13.182,11.525 13.768,10.939 Z M10.94,13.767 C11.526,13.181 12.476,13.181 13.062,13.767 L15.89,16.595 C16.476,17.181 16.476,18.13 15.89,18.716 L13.062,21.545 C12.476,22.131 11.526,22.131 10.94,21.545 L8.112,18.716 C7.527,18.13 7.527,17.182 8.112,16.596 Z M17.656,9.879 L15.536,11.999 L17.656,14.121 L19.779,12 Z M12,15.535 L9.879,17.657 L12,19.778 L14.121,17.657 Z M12,4.222 L9.879,6.343 L12,8.464 L14.121,6.344 Z M6.344,9.878 L4.223,11.998 L6.344,14.12 L8.464,12 Z"/>
</svg>

