<svg xmlns="http://www.w3.org/2000/svg" width="24" height="24">
  <defs/>
  <path  d="M20.342,4.958 L16.259,15.147 C16.055,15.654 15.653,16.056 15.146,16.259 L4.958,20.342 C4.587,20.491 4.162,20.404 3.879,20.121 C3.596,19.838 3.509,19.413 3.658,19.042 L7.741,8.853 C7.944,8.346 8.346,7.944 8.853,7.74 L19.042,3.658 C19.413,3.509 19.838,3.596 20.121,3.879 C20.404,4.162 20.491,4.587 20.342,4.958 Z M9.705,9.705 L14.295,14.296 C14.319,14.32 14.353,14.33 14.386,14.323 C14.419,14.317 14.447,14.293 14.459,14.262 L17.616,6.384 L9.738,9.541 C9.707,9.554 9.684,9.581 9.677,9.614 C9.671,9.647 9.681,9.681 9.705,9.705 Z"/>
</svg>

