<svg xmlns="http://www.w3.org/2000/svg" width="24" height="24">
  <defs/>
  <path  d="M4.74,16.877 A9.972 9.972 0 0 0 12,20 A9.955 9.955 0 0 0 16.797,18.776 L17.099,18.604 L17.869,19.374 A1.7 1.7 0 0 0 19.491,19.82 C19.371,19.967 19.237,20.1 19.099,20.218 C18.62,20.626 17.986,20.949 17.289,21.201 C15.888,21.706 14.018,22 12,22 C9.982,22 8.112,21.706 6.71,21.2 C6.014,20.95 5.38,20.626 4.901,20.218 C4.426,19.812 4,19.226 4,18.473 C4,17.81 4.327,17.279 4.74,16.877 M12,2 A8 8 0 0 1 18.461,14.718 L18.275,14.962 L19.778,16.465 A1 1 0 0 1 18.458,17.962 L18.364,17.879 L4.222,3.737 A1 1 0 0 1 5.542,2.24 L5.636,2.323 L7.038,3.725 A7.966 7.966 0 0 1 12,2 M4.868,6.373 L8.027,9.533 A4 4 0 0 0 12.467,13.973 L15.627,17.133 A8 8 0 0 1 4.867,6.373 Z M12,6 C11.232,6 10.514,6.217 9.905,6.592 L11.404,8.09 A2 2 0 0 1 13.91,10.596 L15.408,12.095 A4 4 0 0 0 12,6"/>
</svg>

