<svg xmlns="http://www.w3.org/2000/svg" width="24" height="24">
  <defs/>
  <path  d="M5.282,8.111 C5.868,7.525 6.818,7.525 7.404,8.111 L10.232,10.939 C10.818,11.525 10.818,12.475 10.232,13.061 L7.404,15.889 C6.818,16.475 5.868,16.475 5.282,15.889 L2.454,13.061 C1.868,12.475 1.868,11.525 2.454,10.939 Z M10.94,2.454 C11.526,1.869 12.474,1.869 13.06,2.454 L15.89,5.282 C16.476,5.868 16.476,6.818 15.89,7.404 L13.06,10.232 C12.474,10.817 11.526,10.817 10.94,10.232 L8.11,7.404 C7.524,6.818 7.524,5.868 8.11,5.282 Z M16.596,8.111 C17.182,7.525 18.132,7.525 18.718,8.111 L21.546,10.939 C22.132,11.525 22.132,12.475 21.546,13.061 L18.718,15.889 C18.132,16.475 17.182,16.475 16.596,15.889 L13.768,13.061 C13.182,12.475 13.182,11.525 13.768,10.939 Z M10.939,13.768 C11.525,13.182 12.475,13.182 13.061,13.768 L15.889,16.596 C16.475,17.182 16.475,18.131 15.889,18.717 L13.061,21.546 C12.475,22.132 11.525,22.132 10.939,21.546 L8.111,18.717 C7.526,18.131 7.526,17.183 8.111,16.597 Z"/>
</svg>

