<svg xmlns="http://www.w3.org/2000/svg" width="24" height="24">
  <defs/>
  <path  d="M12,2 C16.418,2 20,5.582 20,10 C20,14.418 16.418,18 12,18 C7.582,18 4,14.418 4,10 C4,5.582 7.582,2 12,2 Z M12,4 C8.686,4 6,6.686 6,10 C6,13.314 8.686,16 12,16 C15.314,16 18,13.314 18,10 C18,6.686 15.314,4 12,4 Z M12,6 C14.209,6 16,7.791 16,10 C16,12.209 14.209,14 12,14 C9.791,14 8,12.209 8,10 C8,7.791 9.791,6 12,6 Z M6.593,16.744 C6.91,17.197 6.8,17.82 6.347,18.137 C6.224,18.216 6.117,18.315 6.028,18.431 L6.004,18.473 L6.039,18.531 C6.069,18.571 6.117,18.626 6.199,18.696 C6.429,18.892 6.819,19.113 7.389,19.319 C8.523,19.728 10.153,20 12,20 C13.848,20 15.478,19.728 16.61,19.32 C17.18,19.113 17.571,18.892 17.8,18.696 C17.86,18.648 17.914,18.593 17.96,18.531 L17.996,18.473 L17.972,18.433 C17.885,18.318 17.779,18.219 17.658,18.14 C17.357,17.938 17.189,17.589 17.219,17.227 C17.249,16.866 17.472,16.549 17.802,16.399 C18.132,16.249 18.517,16.29 18.809,16.505 C19.407,16.926 20,17.579 20,18.473 C20,19.226 19.574,19.812 19.1,20.217 C18.62,20.627 17.986,20.949 17.29,21.201 C15.888,21.706 14.018,22 12,22 C9.982,22 8.112,21.706 6.71,21.2 C6.014,20.95 5.38,20.626 4.901,20.217 C4.426,19.812 4,19.227 4,18.473 C4,17.575 4.598,16.92 5.2,16.498 C5.653,16.181 6.276,16.291 6.593,16.744 Z M12,8 C10.895,8 10,8.895 10,10 C10,11.105 10.895,12 12,12 C13.105,12 14,11.105 14,10 C14,8.895 13.105,8 12,8 Z"/>
</svg>

