<svg xmlns="http://www.w3.org/2000/svg" width="24" height="24">
  <defs/>
  <path  d="M19.042,3.658 C19.391,3.518 19.789,3.586 20.072,3.834 C20.355,4.082 20.475,4.467 20.383,4.832 L20.343,4.958 L16.259,15.147 C16.079,15.596 15.743,15.964 15.312,16.184 L15.147,16.259 L4.957,20.343 C4.608,20.482 4.21,20.414 3.927,20.166 C3.644,19.918 3.524,19.533 3.617,19.168 L3.657,19.042 L7.742,8.854 C7.922,8.405 8.258,8.036 8.689,7.816 L8.854,7.741 Z M17.616,6.384 L10.607,9.193 L14.807,13.393 Z M9.192,10.608 L6.384,17.616 L13.393,14.807 Z"/>
</svg>

