<svg xmlns="http://www.w3.org/2000/svg" width="24" height="24">
  <defs/>
  <path  d="M12,2 C15.012,2 17.769,3.691 19.133,6.377 C20.497,9.062 20.237,12.286 18.461,14.718 L18.275,14.962 L19.778,16.465 C20.15,16.838 20.168,17.437 19.82,17.832 C19.471,18.228 18.875,18.285 18.458,17.962 L18.364,17.879 L4.222,3.737 C3.85,3.364 3.832,2.765 4.18,2.37 C4.529,1.974 5.125,1.917 5.542,2.24 L5.636,2.323 L7.038,3.725 C8.449,2.605 10.199,1.997 12,2 Z M4.868,6.373 L6.382,7.888 C5.551,10.093 6.088,12.58 7.754,14.246 C9.42,15.912 11.907,16.449 14.112,15.618 L15.627,17.132 C12.539,18.705 8.789,18.112 6.338,15.661 C3.887,13.21 3.294,9.46 4.867,6.372 Z M6.593,16.744 C6.91,17.197 6.8,17.82 6.347,18.137 C6.224,18.216 6.117,18.315 6.028,18.431 L6.004,18.473 L6.039,18.531 C6.069,18.571 6.117,18.626 6.199,18.696 C6.429,18.892 6.819,19.113 7.389,19.319 C8.523,19.728 10.153,20 12,20 C13.848,20 15.478,19.728 16.61,19.32 C16.949,19.197 17.224,19.07 17.44,18.945 L17.869,19.375 C18.293,19.799 18.91,19.968 19.491,19.82 C19.371,19.967 19.237,20.1 19.099,20.217 C18.62,20.627 17.986,20.949 17.289,21.201 C15.888,21.706 14.018,22 12,22 C9.982,22 8.112,21.706 6.71,21.2 C6.014,20.95 5.38,20.626 4.901,20.217 C4.426,19.812 4,19.227 4,18.473 C4,17.575 4.598,16.92 5.2,16.498 C5.653,16.181 6.276,16.291 6.593,16.744 Z M12,4 C10.729,3.998 9.491,4.402 8.465,5.152 L9.905,6.592 C11.482,5.621 13.52,5.861 14.83,7.17 C16.139,8.48 16.379,10.518 15.408,12.095 L16.848,13.535 C18.178,11.71 18.372,9.293 17.348,7.281 C16.325,5.268 14.258,4 12,4 Z M8.027,9.533 L12.467,13.973 C11.333,14.106 10.195,13.748 9.342,12.989 C8.488,12.23 8,11.142 8,10 L8.008,9.764 Z M12,8 C11.792,8 11.592,8.032 11.404,8.09 L13.91,10.596 C14.099,9.989 13.988,9.328 13.611,8.815 C13.234,8.303 12.636,8 12,8 Z"/>
</svg>

