<svg xmlns="http://www.w3.org/2000/svg" width="24" height="24">
  <defs/>
  <path  d="M12,2 C12.507,2 12.934,2.38 12.993,2.883 L13,3 L13,5.17 C13.978,5.516 14.709,6.343 14.931,7.356 C15.154,8.37 14.837,9.426 14.093,10.15 L13.949,10.281 L15.783,15.051 C16.604,14.609 17.342,14.028 17.963,13.333 C18.2,13.063 18.564,12.941 18.916,13.014 C19.268,13.086 19.554,13.342 19.665,13.684 C19.776,14.026 19.695,14.401 19.453,14.667 C18.714,15.493 17.843,16.191 16.875,16.733 L16.505,16.93 L17.933,20.641 C18.12,21.135 17.892,21.688 17.411,21.906 C16.93,22.124 16.363,21.931 16.115,21.465 L16.067,21.359 L14.639,17.648 C13.034,18.085 11.345,18.117 9.724,17.74 L9.361,17.648 L7.933,21.359 C7.743,21.853 7.2,22.113 6.696,21.952 C6.192,21.791 5.9,21.265 6.031,20.752 L6.067,20.641 L10.051,10.281 C9.261,9.606 8.876,8.57 9.034,7.543 C9.192,6.516 9.87,5.644 10.827,5.238 L11,5.17 L11,3 C11,2.448 11.448,2 12,2 Z M13.917,15.77 L12.082,10.999 L12,11 L11.918,10.999 L10.083,15.769 C10.71,15.923 11.354,16 12,16 C12.66,16 13.303,15.92 13.917,15.77 Z M12,7 C11.448,7 11,7.448 11,8 C11,8.552 11.448,9 12,9 C12.552,9 13,8.552 13,8 C13,7.448 12.552,7 12,7 Z"/>
</svg>

