<svg xmlns="http://www.w3.org/2000/svg" width="24" height="24">
  <defs/>
  <path  d="M12,2 C17.523,2 22,6.477 22,12 C22,17.523 17.523,22 12,22 C6.477,22 2,17.523 2,12 C2,6.477 6.477,2 12,2 M12,4 A8 8 0 1 0 12,20 A8 8 0 0 0 12,4 M16.95,7.05 C17.345,7.446 17.347,8.03 17.286,8.56 L17.249,8.843 C17.089,9.963 16.644,11.618 16.007,12.999 C15.697,13.671 15.307,14.35 14.828,14.829 C14.35,15.306 13.672,15.697 12.998,16.007 C11.618,16.644 9.963,17.089 8.843,17.249 L8.561,17.286 C8.031,17.346 7.443,17.342 7.051,16.95 C6.694,16.593 6.658,16.075 6.7,15.585 L6.732,15.295 L6.751,15.157 C6.911,14.037 7.356,12.382 7.993,11.001 C8.303,10.329 8.693,9.65 9.172,9.171 C9.65,8.693 10.329,8.303 11.002,7.993 C12.382,7.356 14.037,6.911 15.157,6.751 L15.439,6.714 C15.969,6.654 16.554,6.654 16.949,7.05 Z M15.238,8.762 C14.33,8.917 12.915,9.312 11.838,9.809 C11.241,10.085 10.815,10.357 10.586,10.586 C10.356,10.815 10.085,11.241 9.809,11.838 C9.313,12.915 8.917,14.33 8.762,15.238 C9.67,15.083 11.085,14.688 12.162,14.191 C12.759,13.915 13.185,13.643 13.414,13.414 C13.644,13.185 13.916,12.759 14.191,12.162 C14.687,11.085 15.084,9.67 15.238,8.762 M12,11 A1 1 0 1 1 12,13 A1 1 0 0 1 12,11"/>
</svg>

