<svg xmlns="http://www.w3.org/2000/svg" width="24" height="24">
  <defs/>
  <path  d="M13.5,3 L13.5,4.837 C14.515,5.318 15.237,6.257 15.442,7.361 C15.646,8.465 15.309,9.6 14.535,10.413 L16.038,14.321 C16.613,13.953 17.135,13.509 17.591,13 C18.148,12.405 19.078,12.364 19.686,12.908 C20.293,13.451 20.355,14.38 19.826,15 C19.053,15.865 18.142,16.596 17.131,17.164 L18.4,20.462 C18.698,21.235 18.312,22.103 17.539,22.401 C16.766,22.699 15.898,22.313 15.6,21.54 L14.332,18.24 C12.797,18.588 11.204,18.588 9.669,18.24 L8.4,21.538 C8.094,22.298 7.235,22.672 6.47,22.378 C5.706,22.084 5.318,21.231 5.6,20.462 L9.465,10.413 C8.691,9.6 8.354,8.465 8.558,7.361 C8.763,6.257 9.485,5.318 10.5,4.837 L10.5,3 C10.5,2.172 11.172,1.5 12,1.5 C12.828,1.5 13.5,2.172 13.5,3 Z M13.238,15.398 L12,12.178 L10.761,15.398 C11.581,15.534 12.418,15.534 13.238,15.398 Z"/>
</svg>

