<svg xmlns="http://www.w3.org/2000/svg" width="24" height="24">
  <defs/>
  <path  d="M12,2 C17.523,2 22,6.477 22,12 C22,17.523 17.523,22 12,22 C6.477,22 2,17.523 2,12 C2,6.477 6.477,2 12,2 Z M10.168,15.445 C9.861,15.905 9.985,16.525 10.445,16.832 C10.905,17.139 11.525,17.015 11.832,16.555 C12.631,15.356 14.223,14.586 15.757,14.97 C16.105,15.06 16.474,14.956 16.724,14.699 C16.974,14.442 17.067,14.07 16.968,13.725 C16.868,13.38 16.592,13.115 16.243,13.03 C13.777,12.414 11.369,13.644 10.168,15.445 Z M9.5,8 C8.672,8 8,8.672 8,9.5 C8,10.328 8.672,11 9.5,11 C10.328,11 11,10.328 11,9.5 C11,8.672 10.328,8 9.5,8 Z M15.5,7 C14.672,7 14,7.672 14,8.5 C14,9.328 14.672,10 15.5,10 C16.328,10 17,9.328 17,8.5 C17,7.672 16.328,7 15.5,7 Z"/>
</svg>

