<svg xmlns="http://www.w3.org/2000/svg" width="24" height="24">
  <defs/>
  <path  d="M16,7 A5 5 0 1 1 6,7 A5 5 0 0 1 16,7 M11,13 C13.396,13 15.575,13.694 17.178,14.672 C17.978,15.16 18.662,15.736 19.156,16.362 C19.642,16.977 20,17.713 20,18.5 C20,19.345 19.589,20.011 18.997,20.486 C18.437,20.936 17.698,21.234 16.913,21.442 C15.335,21.859 13.229,22 11,22 C8.771,22 6.665,21.86 5.087,21.442 C4.302,21.234 3.563,20.936 3.003,20.486 C2.41,20.01 2,19.345 2,18.5 C2,17.713 2.358,16.977 2.844,16.361 C3.338,15.736 4.021,15.161 4.822,14.671 C6.425,13.695 8.605,13 11,13 M21,13 A1 1 0 0 1 21.117,14.993 L21,15 L20,15 A1 1 0 0 1 19.883,13.007 L20,13 Z M18,11 A1 1 0 0 1 19,10 L21,10 A1 1 0 1 1 21,12 L19,12 A1 1 0 0 1 18,11 M18,7 A1 1 0 1 0 18,9 L21,9 A1 1 0 1 0 21,7 Z"/>
</svg>

