<svg xmlns="http://www.w3.org/2000/svg" width="24" height="24">
  <defs/>
  <path  d="M16,2 C16.552,2 17,2.448 17,3 L19,3 C20.105,3 21,3.895 21,5 L21,20 C21,21.105 20.105,22 19,22 L5,22 C3.895,22 3,21.105 3,20 L3,5 C3,3.895 3.895,3 5,3 L7,3 C7,2.448 7.448,2 8,2 C8.552,2 9,2.448 9,3 L15,3 C15,2.448 15.448,2 16,2 Z M7,5 L5,5 L5,20 L19,20 L19,5 L17,5 C17,5.552 16.552,6 16,6 C15.448,6 15,5.552 15,5 L9,5 C9,5.552 8.552,6 8,6 C7.448,6 7,5.552 7,5 Z M9,10 C9,8.343 10.343,7 12,7 C13.657,7 15,8.343 15,10 C15,11.657 13.657,13 12,13 C10.343,13 9,11.657 9,10 Z M8.949,17.316 C8.774,17.84 8.208,18.124 7.684,17.949 C7.16,17.774 6.876,17.208 7.051,16.684 C7.399,15.641 8.112,14.942 9.024,14.527 C9.897,14.13 10.935,14 12,14 C13.065,14 14.103,14.13 14.976,14.527 C15.889,14.942 16.601,15.641 16.949,16.684 C17.124,17.208 16.84,17.774 16.316,17.949 C15.792,18.124 15.226,17.84 15.051,17.316 C14.899,16.858 14.612,16.558 14.149,16.348 C13.647,16.12 12.935,16 12,16 C11.065,16 10.353,16.12 9.851,16.348 C9.389,16.558 9.101,16.859 8.949,17.316 Z M12,9 C11.448,9 11,9.448 11,10 C11,10.552 11.448,11 12,11 C12.552,11 13,10.552 13,10 C13,9.448 12.552,9 12,9 Z"/>
</svg>

