<svg xmlns="http://www.w3.org/2000/svg" width="24" height="24">
  <defs/>
  <path  d="M8,2 C8.552,2 9,2.448 9,3 L15,3 C15,2.448 15.448,2 16,2 C16.552,2 17,2.448 17,3 L19,3 C20.105,3 21,3.895 21,5 L21,20 C21,21.105 20.105,22 19,22 L5,22 C3.895,22 3,21.105 3,20 L3,5 C3,3.895 3.895,3 5,3 L7,3 C7,2.448 7.448,2 8,2 Z M9,10 C9,11.657 10.343,13 12,13 C13.657,13 15,11.657 15,10 C15,8.343 13.657,7 12,7 C10.343,7 9,8.343 9,10 Z M9.851,16.348 C10.353,16.12 11.065,16 12,16 C12.935,16 13.647,16.12 14.149,16.348 C14.611,16.558 14.899,16.859 15.051,17.316 C15.226,17.84 15.792,18.124 16.316,17.949 C16.84,17.774 17.124,17.208 16.949,16.684 C16.601,15.641 15.888,14.942 14.976,14.527 C14.103,14.13 13.065,14 12,14 C10.935,14 9.897,14.13 9.024,14.527 C8.111,14.942 7.399,15.641 7.051,16.684 C6.876,17.208 7.16,17.774 7.684,17.949 C8.208,18.124 8.774,17.84 8.949,17.316 C9.101,16.858 9.388,16.558 9.851,16.348 Z M12,9 C12.552,9 13,9.448 13,10 C13,10.552 12.552,11 12,11 C11.448,11 11,10.552 11,10 C11,9.448 11.448,9 12,9 Z"/>
</svg>

