<svg xmlns="http://www.w3.org/2000/svg" width="24" height="24">
  <defs/>
  <path  d="M4,4 A1 1 0 0 0 4,6 L20,6 A1 1 0 1 0 20,4 Z M17,8 A1 1 0 0 1 17.946,8.677 L18.076,9.055 A3 3 0 0 0 19.945,10.925 L20.323,11.054 A1 1 0 0 1 20.323,12.946 L19.945,13.076 A3 3 0 0 0 18.075,14.945 L17.946,15.323 A1 1 0 0 1 16.054,15.323 L15.924,14.945 A3 3 0 0 0 14.055,13.075 L13.677,12.946 A1 1 0 0 1 13.677,11.054 L14.055,10.924 A3 3 0 0 0 15.925,9.055 L16.054,8.677 A1 1 0 0 1 17,8 M17,11.196 A5.008 5.008 0 0 1 16.196,12 C16.494,12.236 16.763,12.506 17,12.804 C17.236,12.506 17.506,12.236 17.804,12 A5.008 5.008 0 0 1 17,11.196 M3,19 A1 1 0 0 1 4,18 L5,18 A1 1 0 1 1 5,20 L4,20 A1 1 0 0 1 3,19 M14,18 A1 1 0 1 0 14,20 L15,20 A1 1 0 1 0 15,18 Z M8,19 A1 1 0 0 1 9,18 L10,18 A1 1 0 1 1 10,20 L9,20 A1 1 0 0 1 8,19 M19,18 A1 1 0 1 0 19,20 L20,20 A1 1 0 1 0 20,18 Z M3,12 A1 1 0 0 1 4,11 L10,11 A1 1 0 1 1 10,13 L4,13 A1 1 0 0 1 3,12"/>
</svg>

