<svg xmlns="http://www.w3.org/2000/svg" width="24" height="24">
  <defs/>
  <path  d="M2.5,5 A1.5 1.5 0 0 1 4,3.5 L20,3.5 A1.5 1.5 0 0 1 20,6.5 L4,6.5 A1.5 1.5 0 0 1 2.5,5 M4,10.5 A1.5 1.5 0 0 0 4,13.5 L10,13.5 A1.5 1.5 0 0 0 10,10.5 Z M2.5,19 A1.5 1.5 0 0 1 4,17.5 L5,17.5 A1.5 1.5 0 0 1 5,20.5 L4,20.5 A1.5 1.5 0 0 1 2.5,19 M12.5,19 A1.5 1.5 0 0 1 14,17.5 L15,17.5 A1.5 1.5 0 0 1 15,20.5 L14,20.5 A1.5 1.5 0 0 1 12.5,19 M9,17.5 A1.5 1.5 0 0 0 9,20.5 L10,20.5 A1.5 1.5 0 0 0 10,17.5 Z M17.5,19 A1.5 1.5 0 0 1 19,17.5 L20,17.5 A1.5 1.5 0 0 1 20,20.5 L19,20.5 A1.5 1.5 0 0 1 17.5,19 M17.946,8.677 A1 1 0 0 0 16.054,8.677 L15.924,9.055 A3 3 0 0 1 14.055,10.925 L13.677,11.054 A1 1 0 0 0 13.677,12.946 L14.055,13.076 A3 3 0 0 1 15.925,14.945 L16.054,15.323 A1 1 0 0 0 17.946,15.323 L18.076,14.945 A3 3 0 0 1 19.945,13.075 L20.323,12.946 A1 1 0 0 0 20.323,11.054 L19.945,10.924 A3 3 0 0 1 18.075,9.055 Z"/>
</svg>

