<svg xmlns="http://www.w3.org/2000/svg" width="24" height="24">
  <defs/>
  <path  d="M16.107,3 C16.869,3 17.526,3.45 17.826,4.099 L17.885,4.241 L19.975,4.937 A1.5 1.5 0 0 1 20.994,6.223 L21,6.36 L21,17.64 A1.5 1.5 0 0 1 20.102,19.013 L19.974,19.063 L17.884,19.759 A1.894 1.894 0 0 1 16.269,20.993 L16.107,21 L6,21 A2 2 0 0 1 4.005,19.15 L4,19 L4,5 A2 2 0 0 1 5.85,3.005 L6,3 Z M16,5 L6,5 L6,19 L16,19 Z M18,6.387 L18,17.613 L19,17.279 L19,6.721 Z M11,13 C11.841,13 12.74,13.137 13.469,13.461 C14.163,13.77 15,14.404 15,15.5 A1 1 0 0 1 13,15.515 L12.95,15.464 A1.208 1.208 0 0 0 12.656,15.289 C12.26,15.113 11.66,15 11,15 C10.341,15 9.74,15.113 9.344,15.289 A1.21 1.21 0 0 0 9.051,15.464 L9,15.515 A1 1 0 0 1 7,15.5 C7,14.404 7.837,13.77 8.531,13.461 C9.26,13.137 10.16,13 11,13 M11,8 A2 2 0 1 1 11,12 A2 2 0 0 1 11,8"/>
</svg>

