<svg xmlns="http://www.w3.org/2000/svg" width="24" height="24">
  <defs/>
  <path  d="M11,2 C13.761,2 16,4.239 16,7 C16,9.761 13.761,12 11,12 C8.239,12 6,9.761 6,7 C6,4.239 8.239,2 11,2 Z M15,14 C17.677,14 19.879,16.109 19.995,18.783 L20,19 L20,21 C19.999,21.529 19.587,21.966 19.059,21.997 C18.53,22.028 18.069,21.642 18.007,21.117 L18,21 L18,19 C18,17.411 16.762,16.098 15.176,16.005 L15,16 L7,16 C5.411,16 4.098,17.238 4.005,18.824 L4,19 L4,21 C3.999,21.529 3.587,21.966 3.059,21.997 C2.53,22.028 2.069,21.642 2.007,21.117 L2,21 L2,19 C2,16.323 4.109,14.121 6.783,14.005 L7,14 Z M11,4 C9.343,4 8,5.343 8,7 C8,8.657 9.343,10 11,10 C12.657,10 14,8.657 14,7 C14,5.343 12.657,4 11,4 Z M21,7 C21.529,7.001 21.966,7.413 21.997,7.941 C22.028,8.47 21.642,8.931 21.117,8.993 L21,9 L18,9 C17.471,8.999 17.034,8.587 17.003,8.059 C16.972,7.53 17.358,7.069 17.883,7.007 L18,7 Z M21,10 C21.552,10 22,10.448 22,11 C22,11.552 21.552,12 21,12 L19,12 C18.448,12 18,11.552 18,11 C18,10.448 18.448,10 19,10 Z M21,13 C21.552,13 22,13.448 22,14 C22,14.552 21.552,15 21,15 L20,15 C19.448,15 19,14.552 19,14 C19,13.448 19.448,13 20,13 Z"/>
</svg>

