<svg xmlns="http://www.w3.org/2000/svg" width="24" height="24">
  <defs/>
  <path  d="M16,3 C17.047,3 17.917,3.806 17.995,4.85 L18,5 L18,19 C18,20.047 17.194,20.917 16.15,20.995 L16,21 L6,21 C4.953,21 4.083,20.194 4.005,19.15 L4,19 L4,5 C4,3.953 4.806,3.083 5.85,3.005 L6,3 Z M19.974,19.063 L19,19.387 L19,4.613 L19.974,4.937 C20.587,5.141 21,5.714 21,6.36 L21,17.64 C21,18.286 20.587,18.859 19.974,19.063 Z M11,13 C10.159,13 9.26,13.137 8.531,13.461 C7.837,13.77 7,14.404 7,15.5 C6.998,16.028 7.408,16.467 7.935,16.502 C8.462,16.536 8.925,16.154 8.992,15.63 L9,15.515 L9.05,15.464 C9.139,15.392 9.238,15.333 9.344,15.289 C9.74,15.113 10.34,15 11,15 C11.659,15 12.26,15.113 12.656,15.289 C12.766,15.338 12.846,15.386 12.902,15.426 L12.949,15.464 L13,15.515 C13.004,16.067 13.455,16.512 14.007,16.507 C14.56,16.503 15.004,16.052 15,15.5 C15,14.404 14.163,13.77 13.469,13.461 C12.74,13.137 11.84,13 11,13 Z M11,8 C9.895,8 9,8.895 9,10 C9,11.105 9.895,12 11,12 C12.105,12 13,11.105 13,10 C13,8.895 12.105,8 11,8 Z"/>
</svg>

