<svg xmlns="http://www.w3.org/2000/svg" width="24" height="24">
  <defs/>
  <path  d="M11,13 C13.396,13 15.575,13.694 17.178,14.672 C17.978,15.16 18.662,15.736 19.156,16.362 C19.642,16.977 20,17.713 20,18.5 C20,19.345 19.589,20.011 18.997,20.486 C18.437,20.936 17.698,21.234 16.913,21.442 C15.335,21.859 13.229,22 11,22 C8.771,22 6.665,21.86 5.087,21.442 C4.302,21.234 3.563,20.936 3.003,20.486 C2.41,20.01 2,19.345 2,18.5 C2,17.713 2.358,16.977 2.844,16.361 C3.338,15.736 4.021,15.161 4.822,14.671 C6.425,13.695 8.605,13 11,13 Z M6,7 C6,4.239 8.239,2 11,2 C13.761,2 16,4.239 16,7 C16,9.761 13.761,12 11,12 C8.239,12 6,9.761 6,7 Z M11,15 C8.977,15 7.157,15.59 5.864,16.379 C5.217,16.773 4.729,17.201 4.414,17.601 C4.09,18.011 4,18.321 4,18.5 C4,18.622 4.037,18.751 4.255,18.926 C4.504,19.126 4.937,19.333 5.599,19.508 C6.917,19.858 8.811,20 11,20 C13.19,20 15.083,19.857 16.4,19.508 C17.063,19.333 17.496,19.126 17.745,18.926 C17.963,18.751 18,18.622 18,18.5 C18,18.32 17.91,18.011 17.587,17.601 C17.271,17.201 16.783,16.773 16.136,16.379 C14.843,15.589 13.023,15 11,15 Z M11,4 C9.343,4 8,5.343 8,7 C8,8.657 9.343,10 11,10 C12.657,10 14,8.657 14,7 C14,5.343 12.657,4 11,4 Z M18,7 L21,7 C21.552,7 22,7.448 22,8 C22,8.552 21.552,9 21,9 L18,9 C17.448,9 17,8.552 17,8 C17,7.448 17.448,7 18,7 Z M18,11 C18,10.448 18.448,10 19,10 L21,10 C21.552,10 22,10.448 22,11 C22,11.552 21.552,12 21,12 L19,12 C18.448,12 18,11.552 18,11 Z M21,13 C21.529,13.001 21.966,13.413 21.997,13.941 C22.028,14.47 21.642,14.931 21.117,14.993 L21,15 L20,15 C19.471,14.999 19.034,14.587 19.003,14.059 C18.972,13.53 19.358,13.069 19.883,13.007 L20,13 Z"/>
</svg>

