<svg xmlns="http://www.w3.org/2000/svg" width="24" height="24">
  <defs/>
  <path  d="M12,2 A4 4 0 0 1 15.949,6.64 L16.155,6.585 A3 3 0 1 1 17.708,12.38 L16,12.838 L16,13.598 L17.848,16.799 A3 3 0 1 1 12.652,19.799 L12,18.67 L11.348,19.8 A3 3 0 0 1 6.152,16.8 L8,13.6 L8,12.839 L6.292,12.381 A3 3 0 1 1 7.845,6.586 L8.051,6.641 A4 4 0 0 1 12,2 M12,4 A2 2 0 0 0 10.627,7.454 A1 1 0 0 1 9.682,9.147 L7.327,8.517 A1 1 0 1 0 6.809,10.448 L9.259,11.105 A1 1 0 0 1 10,12.07 L10,13.866 A1 1 0 0 1 9.866,14.366 L7.884,17.8 A1 1 0 1 0 9.616,18.8 L10.943,16.501 A1 1 0 0 1 11.809,16.001 L12.191,16.001 A1 1 0 0 1 13.056,16.501 L14.384,18.801 A1 1 0 0 0 16.116,17.801 L14.134,14.367 A1 1 0 0 1 14,13.867 L14,12.07 A1 1 0 0 1 14.741,11.105 L17.191,10.448 A1 1 0 0 0 16.673,8.516 L14.318,9.147 A1 1 0 0 1 13.373,7.454 A2 2 0 0 0 12,4 M12,13 A1 1 0 1 1 12,15 A1 1 0 0 1 12,13 M12,10 A1 1 0 1 1 12,12 A1 1 0 0 1 12,10"/>
</svg>

