<svg xmlns="http://www.w3.org/2000/svg" width="24" height="24">
  <defs/>
  <path  d="M12,2 C13.173,2 14.287,2.514 15.047,3.408 C15.807,4.301 16.137,5.482 15.949,6.64 L16.155,6.585 C17.196,6.291 18.314,6.581 19.081,7.342 C19.849,8.103 20.148,9.218 19.864,10.261 C19.579,11.304 18.756,12.114 17.708,12.38 L16,12.838 L16,13.598 L17.848,16.799 C18.392,17.728 18.398,18.877 17.861,19.81 C17.325,20.744 16.33,21.319 15.253,21.316 C14.177,21.314 13.184,20.735 12.652,19.799 L12,18.67 L11.348,19.8 C10.514,21.223 8.688,21.705 7.26,20.881 C5.832,20.056 5.337,18.234 6.152,16.8 L8,13.6 L8,12.839 L6.292,12.381 C5.244,12.115 4.421,11.305 4.136,10.262 C3.852,9.219 4.151,8.104 4.919,7.343 C5.686,6.582 6.804,6.292 7.845,6.586 L8.051,6.641 C7.863,5.483 8.193,4.301 8.953,3.408 C9.713,2.514 10.827,2 12,2 Z M12,10 C11.448,10 11,10.448 11,11 C11,11.552 11.448,12 12,12 C12.552,12 13,11.552 13,11 C13,10.448 12.552,10 12,10 Z M12,13 C11.448,13 11,13.448 11,14 C11,14.552 11.448,15 12,15 C12.552,15 13,14.552 13,14 C13,13.448 12.552,13 12,13 Z"/>
</svg>

