<svg xmlns="http://www.w3.org/2000/svg" width="24" height="24">
  <defs/>
  <path  d="M12,2 C12.632,2 13.204,2.201 13.593,2.73 C13.828,3.05 13.959,3.432 13.992,3.811 L14,4 C14,4.597 14.267,5.163 14.727,5.543 C15.188,5.923 15.794,6.077 16.38,5.964 L16.561,5.921 C16.901,5.822 17.267,5.888 17.55,6.101 C17.833,6.313 18,6.646 18,7 C18,8.047 18.806,8.917 19.85,8.995 L20,9 C20.696,9 21.725,9.412 21.889,10.505 C21.962,10.993 22,11.492 22,12 C22,17.523 17.523,22 12,22 C6.477,22 2,17.523 2,12 C2,6.477 6.477,2 12,2 Z M9.5,8 C8.672,8 8,8.672 8,9.5 C8,10.328 8.672,11 9.5,11 C10.328,11 11,10.328 11,9.5 C11,8.672 10.328,8 9.5,8 Z M9.5,14 C8.672,14 8,14.672 8,15.5 C8,16.328 8.672,17 9.5,17 C10.328,17 11,16.328 11,15.5 C11,14.672 10.328,14 9.5,14 Z M15.5,12 C14.672,12 14,12.672 14,13.5 C14,14.328 14.672,15 15.5,15 C16.328,15 17,14.328 17,13.5 C17,12.672 16.328,12 15.5,12 Z"/>
</svg>

