<svg xmlns="http://www.w3.org/2000/svg" width="24" height="24">
  <defs/>
  <path  d="M12,2 C12.632,2 13.204,2.201 13.593,2.73 C13.828,3.05 13.959,3.432 13.992,3.811 L14,4 A2 2 0 0 0 16.38,5.964 L16.561,5.921 A1.124 1.124 0 0 1 18,7 A2 2 0 0 0 19.85,8.995 L20,9 C20.696,9 21.725,9.412 21.889,10.505 C21.962,10.993 22,11.492 22,12 C22,17.523 17.523,22 12,22 C6.477,22 2,17.523 2,12 C2,6.477 6.477,2 12,2 M12,4 A8 8 0 1 0 19.938,11 A4.002 4.002 0 0 1 16.126,7.998 C13.9,8.067 12,6.228 12,4 M9.5,14 A1.5 1.5 0 1 1 9.5,17 A1.5 1.5 0 0 1 9.5,14 M15.5,12 A1.5 1.5 0 1 1 15.5,15 A1.5 1.5 0 0 1 15.5,12 M9.5,8 A1.5 1.5 0 1 1 9.5,11 A1.5 1.5 0 0 1 9.5,8"/>
</svg>

