<svg xmlns="http://www.w3.org/2000/svg" width="24" height="24">
  <defs/>
  <path  d="M12,2 C17.523,2 22,6.477 22,12 C22,17.523 17.523,22 12,22 C6.477,22 2,17.523 2,12 C2,6.477 6.477,2 12,2 Z M12,4 C7.582,4 4,7.582 4,12 C4,16.418 7.582,20 12,20 C16.418,20 20,16.418 20,12 C20,7.582 16.418,4 12,4 Z M10.586,7.757 C11.32,7.024 12.493,6.973 13.287,7.641 L13.414,7.757 L16.243,10.586 C16.976,11.32 17.027,12.493 16.359,13.287 L16.243,13.414 L13.414,16.243 C12.68,16.976 11.507,17.027 10.713,16.359 L10.586,16.243 L7.757,13.414 C7.024,12.68 6.973,11.507 7.641,10.713 L7.757,10.586 Z M12,9.172 L9.172,12 L12,14.828 L14.828,12 Z"/>
</svg>

