<svg xmlns="http://www.w3.org/2000/svg" width="24" height="24">
  <defs/>
  <path  d="M4,7 L15,7 C16.105,7 17,7.895 17,9 L17,20 C17,21.105 16.105,22 15,22 L4,22 C2.895,22 2,21.105 2,20 L2,9 C2,7.895 2.895,7 4,7 Z M22,14 L22,15 C22,16.105 21.105,17 20,17 L19,17 C18.448,17 18,16.552 18,16 C18,15.448 18.448,15 19,15 L20,15 L20,14 C20,13.448 20.448,13 21,13 C21.552,13 22,13.448 22,14 Z M9,2 L10,2 C10.552,2 11,2.448 11,3 C11,3.552 10.552,4 10,4 L9,4 L9,5 C9,5.552 8.552,6 8,6 C7.448,6 7,5.552 7,5 L7,4 C7,2.895 7.895,2 9,2 Z M19,2 L20,2 C21.105,2 22,2.895 22,4 L22,5 C22,5.552 21.552,6 21,6 C20.448,6 20,5.552 20,5 L20,4 L19,4 C18.448,4 18,3.552 18,3 C18,2.448 18.448,2 19,2 Z M14,2 L15,2 C15.552,2 16,2.448 16,3 C16,3.552 15.552,4 15,4 L14,4 C13.448,4 13,3.552 13,3 C13,2.448 13.448,2 14,2 Z M22,9 L22,10 C22,10.552 21.552,11 21,11 C20.448,11 20,10.552 20,10 L20,9 C20,8.448 20.448,8 21,8 C21.552,8 22,8.448 22,9 Z"/>
</svg>

