<svg xmlns="http://www.w3.org/2000/svg" width="24" height="24" viewBox="0 0 24 24">
  <defs/>
  <path  d="M18,3.5 C18.828,3.5 19.5,4.172 19.5,5 L19.5,12 C19.5,13.933 17.933,15.5 16,15.5 L8.621,15.5 L10.561,17.439 C11.146,18.025 11.146,18.975 10.561,19.561 C9.975,20.146 9.025,20.146 8.439,19.561 L3.939,15.061 C3.354,14.475 3.354,13.525 3.939,12.939 L8.439,8.439 C9.025,7.854 9.975,7.854 10.561,8.439 C11.146,9.025 11.146,9.975 10.561,10.561 L8.621,12.5 L16,12.5 C16.276,12.5 16.5,12.276 16.5,12 L16.5,5 C16.5,4.172 17.172,3.5 18,3.5 Z"/>
</svg>

