<svg xmlns="http://www.w3.org/2000/svg" width="24" height="24" viewBox="0 0 24 24">
  <defs/>
  <path  d="M10.561,3.439 C11.146,4.025 11.146,4.975 10.561,5.561 L8.621,7.5 L16,7.5 C17.933,7.5 19.5,9.067 19.5,11 L19.5,18 C19.5,18.828 18.828,19.5 18,19.5 C17.172,19.5 16.5,18.828 16.5,18 L16.5,11 C16.5,10.724 16.276,10.5 16,10.5 L8.621,10.5 L10.561,12.439 C11.146,13.025 11.146,13.975 10.561,14.561 C9.975,15.146 9.025,15.146 8.439,14.561 L3.939,10.061 C3.354,9.475 3.354,8.525 3.939,7.939 L8.439,3.439 C9.025,2.854 9.975,2.854 10.561,3.439 Z"/>
</svg>

