<svg xmlns="http://www.w3.org/2000/svg" width="24" height="24" viewBox="0 0 24 24">
  <defs/>
  <path  d="M13.439,3.439 C14.025,2.854 14.975,2.854 15.561,3.439 L20.061,7.939 C20.646,8.525 20.646,9.475 20.061,10.061 L15.561,14.561 C14.975,15.146 14.025,15.146 13.439,14.561 C12.854,13.975 12.854,13.025 13.439,12.439 L15.379,10.5 L8,10.5 C7.724,10.5 7.5,10.724 7.5,11 L7.5,18 C7.5,18.828 6.828,19.5 6,19.5 C5.172,19.5 4.5,18.828 4.5,18 L4.5,11 C4.5,9.067 6.067,7.5 8,7.5 L15.379,7.5 L13.439,5.561 C12.854,4.975 12.854,4.025 13.439,3.439 Z"/>
</svg>

