<svg xmlns="http://www.w3.org/2000/svg" width="24" height="24" viewBox="0 0 24 24">
  <defs/>
  <path  d="M13.793,3.793 C14.183,3.402 14.817,3.402 15.207,3.793 L19.707,8.293 C20.098,8.683 20.098,9.317 19.707,9.707 L15.207,14.207 C14.817,14.598 14.183,14.598 13.793,14.207 C13.402,13.817 13.402,13.183 13.793,12.793 L16.586,10 L8,10 C7.448,10 7,10.448 7,11 L7,18 C7,18.552 6.552,19 6,19 C5.448,19 5,18.552 5,18 L5,11 C5,9.343 6.343,8 8,8 L16.586,8 L13.793,5.207 C13.402,4.817 13.402,4.183 13.793,3.793 Z"/>
</svg>

