<svg xmlns="http://www.w3.org/2000/svg" width="24" height="24" viewBox="0 0 24 24">
  <defs/>
  <path  d="M10.207,3.793 C10.598,4.183 10.598,4.817 10.207,5.207 L7.414,8 L16,8 C17.657,8 19,9.343 19,11 L19,18 C19,18.552 18.552,19 18,19 C17.448,19 17,18.552 17,18 L17,11 C17,10.448 16.552,10 16,10 L7.414,10 L10.207,12.793 C10.598,13.183 10.598,13.817 10.207,14.207 C9.817,14.598 9.183,14.598 8.793,14.207 L4.293,9.707 C3.902,9.317 3.902,8.683 4.293,8.293 L8.793,3.793 C9.183,3.402 9.817,3.402 10.207,3.793 Z"/>
</svg>

