<svg xmlns="http://www.w3.org/2000/svg" width="24" height="24" viewBox="0 0 24 24">
  <defs/>
  <path  d="M18,4 C18.552,4 19,4.448 19,5 L19,12 C19,13.657 17.657,15 16,15 L7.414,15 L10.207,17.793 C10.598,18.183 10.598,18.817 10.207,19.207 C9.817,19.598 9.183,19.598 8.793,19.207 L4.293,14.707 C3.902,14.317 3.902,13.683 4.293,13.293 L8.793,8.793 C9.183,8.402 9.817,8.402 10.207,8.793 C10.598,9.183 10.598,9.817 10.207,10.207 L7.414,13 L16,13 C16.552,13 17,12.552 17,12 L17,5 C17,4.448 17.448,4 18,4 Z"/>
</svg>

