<svg xmlns="http://www.w3.org/2000/svg" width="24" height="24">
  <defs/>
  <path  d="M18,3 A2 2 0 0 1 19.995,4.85 L20,5 L20,20 A2 2 0 0 1 18.15,21.995 L18,22 L6,22 A2 2 0 0 1 4.005,20.15 L4,20 L4,5 A2 2 0 0 1 5.85,3.005 L6,3 Z M9.5,17 A1.5 1.5 0 1 0 9.5,20 A1.5 1.5 0 0 0 9.5,17 M14.5,17 A1.5 1.5 0 1 0 14.5,20 A1.5 1.5 0 0 0 14.5,17 M9.5,13 A1.5 1.5 0 1 0 9.5,16 A1.5 1.5 0 0 0 9.5,13 M14.5,13 A1.5 1.5 0 1 0 14.5,16 A1.5 1.5 0 0 0 14.5,13 M15.5,6 L8.5,6 A1.5 1.5 0 0 0 7,7.5 L7,9.5 A1.5 1.5 0 0 0 8.5,11 L15.5,11 A1.5 1.5 0 0 0 17,9.5 L17,7.5 A1.5 1.5 0 0 0 15.5,6 M15,8 L15,9 L9,9 L9,8 Z"/>
</svg>

