<svg xmlns="http://www.w3.org/2000/svg" width="24" height="24">
  <defs/>
  <path  d="M19,3 A2 2 0 0 1 20.995,4.85 L21,5 L21,19 A2 2 0 0 1 19.15,20.995 L19,21 L5,21 A2 2 0 0 1 3.005,19.15 L3,19 L3,5 A2 2 0 0 1 4.85,3.005 L5,3 Z M6.379,13.379 A1 1 0 0 0 6.379,14.793 L7.086,15.5 L6.379,16.207 A1 1 0 1 0 7.793,17.621 L8.5,16.914 L9.207,17.621 A1 1 0 0 0 10.621,16.207 L9.914,15.5 L10.621,14.793 A1 1 0 0 0 9.207,13.379 L8.5,14.086 L7.793,13.379 A1 1 0 0 0 6.379,13.379 M17,15.75 L14,15.75 A1 1 0 0 0 13.883,17.743 L14,17.75 L17,17.75 A1 1 0 0 0 17.117,15.757 Z M17,13.25 L14,13.25 A1 1 0 0 0 13.883,15.243 L14,15.25 L17,15.25 A1 1 0 0 0 17.117,13.257 Z M15.5,6.5 A1 1 0 0 0 14.5,7.5 L14.5,8 L14,8 A1 1 0 1 0 14,10 L14.5,10 L14.5,10.5 A1 1 0 1 0 16.5,10.5 L16.5,10 L17,10 A1 1 0 1 0 17,8 L16.5,8 L16.5,7.5 A1 1 0 0 0 15.5,6.5 M10,8 L7,8 A1 1 0 0 0 6.883,9.993 L7,10 L10,10 A1 1 0 0 0 10.117,8.007 Z"/>
</svg>

