<svg xmlns="http://www.w3.org/2000/svg" width="24" height="24">
  <defs/>
  <path  d="M19,3 A2 2 0 0 1 20.995,4.85 L21,5 L21,19 A2 2 0 0 1 19.15,20.995 L19,21 L5,21 A2 2 0 0 1 3.005,19.15 L3,19 L3,5 A2 2 0 0 1 4.85,3.005 L5,3 Z M19,5 L5,5 L5,19 L19,19 Z M7.793,13.379 L8.5,14.086 L9.207,13.379 A1 1 0 0 1 10.621,14.793 L9.914,15.5 L10.621,16.207 A1 1 0 0 1 9.207,17.621 L8.5,16.914 L7.793,17.621 A1 1 0 0 1 6.379,16.207 L7.086,15.5 L6.379,14.793 A1 1 0 1 1 7.793,13.379 M17,15.75 A1 1 0 0 1 17.117,17.743 L17,17.75 L14,17.75 A1 1 0 0 1 13.883,15.757 L14,15.75 Z M17,13.25 A1 1 0 1 1 17,15.25 L14,15.25 A1 1 0 1 1 14,13.25 Z M15.5,6.5 A1 1 0 0 1 16.5,7.5 L16.5,8 L17,8 A1 1 0 1 1 17,10 L16.5,10 L16.5,10.5 A1 1 0 1 1 14.5,10.5 L14.5,10 L14,10 A1 1 0 1 1 14,8 L14.5,8 L14.5,7.5 A1 1 0 0 1 15.5,6.5 M10,8 A1 1 0 1 1 10,10 L7,10 A1 1 0 0 1 7,8 Z"/>
</svg>

