<svg xmlns="http://www.w3.org/2000/svg" width="24" height="24">
  <defs/>
  <path  d="M19,4 A3 3 0 0 1 21.995,6.824 L22,7 L22,8.817 A1.55 1.55 0 0 1 21.224,10.147 L21.117,10.205 A2 2 0 0 0 20.977,13.72 L21.117,13.795 C21.55,14.009 21.937,14.451 21.993,15.035 L22,15.183 L22,17 A3 3 0 0 1 19.176,19.995 L19,20 L5,20 A3 3 0 0 1 2.005,17.176 L2,17 L2,15.183 C2,14.577 2.352,14.105 2.776,13.853 L2.883,13.795 A2 2 0 0 0 3.023,10.28 L2.883,10.205 C2.45,9.991 2.063,9.549 2.007,8.965 L2,8.818 L2,7 A3 3 0 0 1 4.824,4.005 L5,4 Z M19,6 L5,6 A1 1 0 0 0 4.007,6.883 L4,7 L4,8.535 A3.999 3.999 0 0 1 4.185,15.351 L4,15.465 L4,17 A1 1 0 0 0 4.883,17.993 L5,18 L19,18 A1 1 0 0 0 19.993,17.117 L20,17 L20,15.465 A3.999 3.999 0 0 1 19.815,8.649 L20,8.535 L20,7 A1 1 0 0 0 19.117,6.007 Z M10,9 A1 1 0 0 1 10.993,9.883 L11,10 L11,14 A1 1 0 0 1 9.007,14.117 L9,14 L9,10 A1 1 0 0 1 10,9"/>
</svg>

