<svg xmlns="http://www.w3.org/2000/svg" width="24" height="24">
  <defs/>
  <path  d="M9,4 C9,2.895 9.895,2 11,2 L13,2 C14.105,2 15,2.895 15,4 L15,7 L18,7 C19.105,7 20,7.895 20,9 L20,11 C20,12.105 19.105,13 18,13 L15,13 L15,20 C15,21.105 14.105,22 13,22 L11,22 C9.895,22 9,21.105 9,20 L9,13 L6,13 C4.895,13 4,12.105 4,11 L4,9 C4,7.895 4.895,7 6,7 L9,7 Z M13,4 L11,4 L11,8 C11,8.552 10.552,9 10,9 L6,9 L6,11 L10,11 C10.552,11 11,11.448 11,12 L11,20 L13,20 L13,12 C13,11.448 13.448,11 14,11 L18,11 L18,9 L14,9 C13.448,9 13,8.552 13,8 Z"/>
</svg>

