<svg xmlns="http://www.w3.org/2000/svg" width="24" height="24">
  <defs/>
  <path  d="M6,8 C6,4.686 8.686,2 12,2 C15.314,2 18,4.686 18,8 L18,19.5 C18,20.881 16.881,22 15.5,22 C14.119,22 13,20.881 13,19.5 L13,8 C13,7.448 12.552,7 12,7 C11.448,7 11,7.448 11,8 L11,9.5 C11,10.881 9.881,12 8.5,12 C7.119,12 6,10.881 6,9.5 Z M12,4 C9.791,4 8,5.791 8,8 L8,9.5 C8,9.776 8.224,10 8.5,10 C8.776,10 9,9.776 9,9.5 L9,8 C9,6.343 10.343,5 12,5 C13.657,5 15,6.343 15,8 L15,19.5 C15,19.776 15.224,20 15.5,20 C15.776,20 16,19.776 16,19.5 L16,8 C16,5.791 14.209,4 12,4 Z"/>
</svg>

