<svg xmlns="http://www.w3.org/2000/svg" width="24" height="24">
  <defs/>
  <path  d="M12,2 A8.5 8.5 0 0 1 17.331,17.12 L17.105,17.297 L17.815,20.137 A1.5 1.5 0 0 1 16.491,21.994 L16.36,22 L7.64,22 A1.5 1.5 0 0 1 6.159,20.265 L6.185,20.136 L6.895,17.296 A8.5 8.5 0 0 1 12,2 M15.22,18 L8.78,18 L8.28,20 L15.72,20 Z M12,4 A6.5 6.5 0 0 0 8.534,16 L15.466,16 A6.5 6.5 0 0 0 12,4 M16.11,9.56 A2.896 2.896 0 0 0 16.642,10.368 C16.792,10.527 16.959,10.668 17.142,10.79 L17.317,10.897 C17.397,10.942 17.397,11.057 17.317,11.103 L17.141,11.21 A2.825 2.825 0 0 0 16.111,12.44 A0.12 0.12 0 0 1 15.89,12.44 A2.869 2.869 0 0 0 14.859,11.211 L14.683,11.103 A0.118 0.118 0 0 1 14.683,10.897 L14.859,10.79 A2.825 2.825 0 0 0 15.889,9.56 A0.12 0.12 0 0 1 16.11,9.56 M12.816,5.6 C12.887,5.442 13.113,5.442 13.184,5.6 A4.78 4.78 0 0 0 14.071,6.947 A4.715 4.715 0 0 0 15.196,7.829 A0.196 0.196 0 0 1 15.196,8.171 A4.743 4.743 0 0 0 14.07,9.053 A4.78 4.78 0 0 0 13.184,10.399 A0.201 0.201 0 0 1 12.816,10.399 A4.78 4.78 0 0 0 11.929,9.052 A4.715 4.715 0 0 0 10.804,8.172 A0.196 0.196 0 0 1 10.804,7.829 A4.743 4.743 0 0 0 11.93,6.947 A4.78 4.78 0 0 0 12.816,5.601"/>
</svg>

