<svg xmlns="http://www.w3.org/2000/svg" width="24" height="24">
  <defs/>
  <path  d="M12,2 C15.605,2 18.817,4.274 20.016,7.674 C21.214,11.073 20.138,14.859 17.331,17.12 L17.105,17.297 L17.815,20.137 C17.921,20.563 17.836,21.013 17.581,21.371 C17.326,21.728 16.928,21.956 16.491,21.994 L16.36,22 L7.64,22 C7.201,22 6.784,21.808 6.5,21.474 C6.215,21.14 6.09,20.698 6.159,20.265 L6.185,20.136 L6.895,17.296 C3.971,15.099 2.78,11.278 3.938,7.809 C5.095,4.34 8.343,2 12,2 Z M15.22,18 L8.78,18 L8.28,20 L15.72,20 Z M13.184,5.6 C13.152,5.527 13.08,5.48 13,5.48 C12.92,5.48 12.848,5.527 12.816,5.6 C12.599,6.096 12.299,6.551 11.929,6.947 C11.601,7.296 11.222,7.594 10.804,7.829 C10.742,7.864 10.704,7.929 10.704,8 C10.704,8.071 10.742,8.136 10.804,8.171 C11.7,8.675 12.406,9.457 12.816,10.399 C12.886,10.559 13.113,10.559 13.184,10.399 C13.401,9.903 13.701,9.448 14.071,9.052 C14.399,8.703 14.778,8.407 15.195,8.172 C15.257,8.137 15.296,8.072 15.296,8 C15.296,7.929 15.257,7.864 15.195,7.829 C14.3,7.325 13.593,6.542 13.184,5.6 Z M16.11,9.56 C16.091,9.516 16.048,9.488 16,9.488 C15.952,9.488 15.909,9.516 15.89,9.56 C15.699,9.991 15.406,10.369 15.036,10.661 L14.859,10.79 L14.682,10.897 C14.653,10.913 14.632,10.941 14.625,10.974 C14.618,11.007 14.625,11.041 14.644,11.068 L14.682,11.103 L14.859,11.21 C15.314,11.512 15.672,11.939 15.889,12.44 C15.904,12.476 15.937,12.502 15.975,12.51 C16.014,12.518 16.053,12.507 16.082,12.48 L16.11,12.44 L16.183,12.285 C16.406,11.851 16.736,11.481 17.141,11.21 C17.198,11.172 17.257,11.137 17.317,11.103 C17.354,11.082 17.377,11.043 17.377,11 C17.377,10.957 17.354,10.918 17.317,10.897 C16.889,10.658 16.532,10.31 16.28,9.89 L16.183,9.715 Z"/>
</svg>

