<svg xmlns="http://www.w3.org/2000/svg" width="24" height="24">
  <defs/>
  <path  d="M11,2.423 C11.564,2.097 12.251,2.067 12.842,2.341 L13,2.423 L16.33,4.345 C16.898,4.673 17.27,5.26 17.323,5.914 L17.33,6.077 L17.33,9.923 L20.66,11.845 C21.228,12.173 21.6,12.76 21.653,13.414 L21.66,13.577 L21.66,17.423 C21.66,18.079 21.338,18.693 20.799,19.067 L20.66,19.155 L17.33,21.077 C16.766,21.403 16.078,21.434 15.487,21.159 L15.33,21.077 L12,19.155 L8.67,21.077 C8.106,21.403 7.418,21.434 6.827,21.159 L6.67,21.077 L3.34,19.155 C2.772,18.827 2.401,18.241 2.347,17.587 L2.34,17.423 L2.34,13.577 C2.34,12.921 2.662,12.307 3.201,11.933 L3.34,11.845 L6.67,9.923 L6.67,6.077 C6.67,5.421 6.992,4.807 7.531,4.433 L7.67,4.345 Z M7.67,11.655 L4.474,13.5 L7.67,15.345 L10.866,13.5 Z M16.33,11.655 L13.134,13.5 L16.33,15.345 L19.526,13.5 Z M12,4.155 L8.804,6 L12,7.845 L15.196,6 Z"/>
</svg>

