<svg xmlns="http://www.w3.org/2000/svg" width="24" height="24">
  <defs/>
  <path  d="M8.536,10 C8.812,9.522 9.424,9.358 9.902,9.634 L12,10.845 L14.098,9.634 C14.576,9.362 15.183,9.527 15.458,10.003 C15.733,10.479 15.572,11.088 15.098,11.366 L13,12.577 L13,15 C13,15.552 12.552,16 12,16 C11.448,16 11,15.552 11,15 L11,12.577 L8.902,11.366 C8.424,11.09 8.26,10.478 8.536,10 Z M19.794,13.19 C20.346,13.19 20.794,13.638 20.794,14.19 L20.794,16.5 C20.794,16.857 20.603,17.187 20.294,17.366 L18.294,18.521 C17.984,18.702 17.601,18.704 17.29,18.525 C16.979,18.347 16.787,18.015 16.788,17.656 C16.789,17.297 16.982,16.966 17.294,16.789 L17.794,16.5 L16.696,15.866 C16.384,15.689 16.191,15.358 16.19,14.999 C16.189,14.64 16.381,14.308 16.692,14.13 C17.003,13.951 17.386,13.953 17.696,14.134 L18.794,14.768 L18.794,14.191 C18.794,13.639 19.242,13.191 19.794,13.191 Z M12,17 C12.552,17 13,17.448 13,18 L13,19.268 L13.5,18.979 C13.81,18.798 14.193,18.796 14.504,18.975 C14.815,19.153 15.007,19.485 15.006,19.844 C15.005,20.203 14.812,20.534 14.5,20.711 L12.5,21.866 C12.191,22.045 11.809,22.045 11.5,21.866 L9.5,20.711 C9.188,20.534 8.995,20.203 8.994,19.844 C8.993,19.485 9.185,19.153 9.496,18.975 C9.807,18.796 10.19,18.798 10.5,18.979 L11,19.268 L11,18 C11,17.448 11.448,17 12,17 Z M7.072,5.845 C7.348,6.323 7.184,6.935 6.706,7.211 L6.206,7.5 L7.304,8.134 C7.616,8.311 7.809,8.642 7.81,9.001 C7.811,9.36 7.619,9.692 7.308,9.87 C6.997,10.049 6.614,10.047 6.304,9.866 L5.206,9.232 L5.206,9.809 C5.206,10.361 4.758,10.809 4.206,10.809 C3.654,10.809 3.206,10.361 3.206,9.809 L3.206,7.5 C3.206,7.143 3.397,6.813 3.706,6.635 L5.706,5.48 C6.184,5.204 6.796,5.368 7.072,5.846 Z M4.206,13.19 C4.758,13.19 5.206,13.638 5.206,14.19 L5.206,14.768 L6.304,14.134 C6.782,13.862 7.389,14.027 7.664,14.503 C7.939,14.979 7.778,15.588 7.304,15.866 L6.206,16.5 L6.706,16.789 C7.018,16.966 7.211,17.297 7.212,17.656 C7.213,18.015 7.021,18.347 6.71,18.525 C6.399,18.704 6.016,18.702 5.706,18.521 L3.706,17.366 C3.397,17.187 3.206,16.857 3.206,16.5 L3.206,14.19 C3.206,13.638 3.654,13.19 4.206,13.19 Z M16.928,5.845 C17.204,5.367 17.816,5.203 18.294,5.479 L20.294,6.634 C20.603,6.813 20.794,7.143 20.794,7.5 L20.794,9.81 C20.794,10.362 20.346,10.81 19.794,10.81 C19.242,10.81 18.794,10.362 18.794,9.81 L18.794,9.232 L17.696,9.866 C17.218,10.138 16.611,9.973 16.336,9.497 C16.061,9.021 16.222,8.412 16.696,8.134 L17.794,7.5 L17.294,7.211 C16.816,6.935 16.652,6.323 16.928,5.845 Z M11.5,2.134 C11.809,1.955 12.191,1.955 12.5,2.134 L14.5,3.289 C14.974,3.567 15.135,4.176 14.86,4.652 C14.585,5.128 13.978,5.293 13.5,5.021 L13,4.732 L13,6 C13,6.552 12.552,7 12,7 C11.448,7 11,6.552 11,6 L11,4.732 L10.5,5.021 C10.022,5.293 9.415,5.128 9.14,4.652 C8.865,4.176 9.026,3.567 9.5,3.289 Z"/>
</svg>

