<svg xmlns="http://www.w3.org/2000/svg" width="24" height="24">
  <defs/>
  <path  d="M12,3 C14.565,3 16.847,4.63 17.678,7.057 C19.11,7.304 20.296,8.307 20.776,9.679 C21.256,11.05 20.954,12.574 19.988,13.66 C19.973,13.75 19.946,13.837 19.908,13.919 L17.444,19.257 C16.954,20.32 15.89,21 14.72,21 L9.28,21 C8.11,21 7.046,20.32 6.556,19.257 L4.092,13.92 C4.053,13.835 4.027,13.748 4.012,13.66 C3.046,12.574 2.744,11.05 3.224,9.679 C3.704,8.307 4.89,7.304 6.322,7.057 C7.153,4.63 9.435,3 12,3 Z M17,15 L7,15 C6.93,15 6.86,14.998 6.791,14.995 L8.371,18.419 C8.535,18.774 8.89,19 9.28,19 L14.72,19 C15.11,19 15.464,18.774 15.628,18.42 L17.208,14.995 C17.138,14.998 17.07,15 17,15 Z"/>
</svg>

