<svg xmlns="http://www.w3.org/2000/svg" width="24" height="24">
  <defs/>
  <path  d="M12,3 C14.565,3 16.847,4.63 17.678,7.057 C19.11,7.304 20.296,8.307 20.776,9.679 C21.256,11.05 20.954,12.574 19.988,13.66 C19.978,13.718 19.963,13.777 19.943,13.834 L19.908,13.919 L17.444,19.257 C16.983,20.256 16.012,20.923 14.914,20.994 L14.72,21 L9.28,21 C8.18,21 7.168,20.397 6.643,19.43 L6.556,19.257 L4.092,13.919 C4.054,13.837 4.027,13.75 4.012,13.66 C3.046,12.574 2.744,11.05 3.224,9.679 C3.704,8.307 4.89,7.304 6.322,7.057 C7.153,4.63 9.435,3 12,3 Z M12,5 C10.099,5 8.461,6.338 8.08,8.2 C7.983,8.678 7.555,9.017 7.067,9.001 L7,9 C5.921,8.995 5.033,9.847 4.992,10.925 C4.952,12.003 5.774,12.919 6.85,12.995 L7,13 L17,13 C18.079,13.005 18.967,12.153 19.008,11.075 C19.048,9.997 18.226,9.081 17.15,9.005 L17,9 L16.933,9.001 C16.445,9.017 16.017,8.679 15.92,8.201 C15.539,6.338 13.901,5 12,5 Z M17,15 L7,15 C6.923,15 6.955,15.182 7.05,15.462 L7.147,15.725 L7.336,16.185 L7.558,16.688 L7.868,17.36 L8.372,18.42 C8.536,18.774 8.89,19 9.28,19 L14.72,19 C15.11,19 15.464,18.774 15.628,18.42 L16.286,17.029 L16.518,16.519 L16.664,16.185 L16.795,15.871 L16.905,15.589 C17.033,15.237 17.088,15 17,15 Z"/>
</svg>

