<svg xmlns="http://www.w3.org/2000/svg" width="24" height="24">
  <defs/>
  <path  d="M2,12 C2,6.477 6.477,2 12,2 C17.523,2 22,6.477 22,12 C22,17.523 17.523,22 12,22 C6.477,22 2,17.523 2,12 Z M13,7 C13,6.448 12.552,6 12,6 C11.448,6 11,6.448 11,7 L11,8 L10,8 C8.619,8 7.5,9.119 7.5,10.5 C7.5,11.881 8.619,13 10,13 L14,13 C14.276,13 14.5,13.224 14.5,13.5 C14.5,13.776 14.276,14 14,14 L9,14 C8.448,14 8,14.448 8,15 C8,15.552 8.448,16 9,16 L11,16 L11,17 C11,17.552 11.448,18 12,18 C12.552,18 13,17.552 13,17 L13,16 L14,16 C15.381,16 16.5,14.881 16.5,13.5 C16.5,12.119 15.381,11 14,11 L10,11 C9.724,11 9.5,10.776 9.5,10.5 C9.5,10.224 9.724,10 10,10 L15,10 C15.552,10 16,9.552 16,9 C16,8.448 15.552,8 15,8 L13,8 Z"/>
</svg>

