<svg xmlns="http://www.w3.org/2000/svg" width="24" height="24">
  <defs/>
  <path  d="M16.122,5.021 A4 4 0 0 0 12.646,3 L11.8,3.005 A3.998 3.998 0 0 0 8,6.998 L8,11 L6,11 A1 1 0 1 0 6,13 L8,13 L8,16 C7.982,16.632 7.837,17.251 7.341,17.685 C7.121,17.889 6.817,17.973 6.553,18.105 C5.484,18.64 6.083,20.26 7.243,19.97 C7.534,19.888 7.803,19.739 8.104,19.69 C9.444,19.383 10.747,19.654 12.031,20.058 C13.716,20.556 15.819,20.708 17.447,19.894 A1 1 0 1 0 16.553,18.106 C15.173,18.796 13.35,18.376 11.969,17.942 A9.842 9.842 0 0 0 9.751,17.559 A4.808 4.808 0 0 0 10,16 L10,13 L13,13 A1 1 0 1 0 13,11 L10,11 L10,6.998 C10.04,5.91 10.88,5 12,5 L12.807,5.006 A2 2 0 0 1 14.435,6.106 L15.164,7.549 A1 1 0 0 0 16.894,6.553 Z"/>
</svg>

