<svg xmlns="http://www.w3.org/2000/svg" width="24" height="24">
  <defs/>
  <path  d="M12,2 C17.523,2 22,6.477 22,12 C22,17.523 17.523,22 12,22 C6.477,22 2,17.523 2,12 C2,6.477 6.477,2 12,2 M13.5,6 L10,6 A1 1 0 0 0 9.007,6.883 L9,7 L9,11 L8.5,11 A1 1 0 0 0 8.383,12.993 L8.5,13 L9,13 L9,14 L8.5,14 A1 1 0 0 0 8.383,15.993 L8.5,16 L9,16 L9,17 A1 1 0 0 0 10.993,17.117 L11,17 L11,16 L13,16 A1 1 0 0 0 13.117,14.007 L13,14 L11,14 L11,13 L13.5,13 A3.5 3.5 0 0 0 13.692,6.005 Z M13.5,8 A1.5 1.5 0 0 1 13.644,10.993 L13.5,11 L11,11 L11,8 Z"/>
</svg>

