<svg xmlns="http://www.w3.org/2000/svg" width="24" height="24">
  <defs/>
  <path  d="M12,2 C17.523,2 22,6.477 22,12 C22,17.523 17.523,22 12,22 C6.477,22 2,17.523 2,12 C2,6.477 6.477,2 12,2 Z M12,4 C7.582,4 4,7.582 4,12 C4,16.418 7.582,20 12,20 C16.418,20 20,16.418 20,12 C20,7.582 16.418,4 12,4 Z M12,6 C12.552,6 13,6.448 13,7 L13,8 L14.5,8 C15.447,8 16.313,8.535 16.736,9.382 C17.16,10.229 17.068,11.242 16.5,12 C17.068,12.758 17.16,13.771 16.736,14.618 C16.313,15.465 15.447,16 14.5,16 L13,16 L13,17 C13,17.552 12.552,18 12,18 C11.448,18 11,17.552 11,17 L11,16 L9.1,16 C8.492,16 8,15.508 8,14.9 L8,9.1 C8,8.492 8.492,8 9.1,8 L11,8 L11,7 C11,6.448 11.448,6 12,6 Z M14.5,13 L10,13 L10,14 L14.5,14 C14.776,14 15,13.776 15,13.5 C15,13.224 14.776,13 14.5,13 Z M14.5,10 L10,10 L10,11 L14.5,11 C14.776,11 15,10.776 15,10.5 C15,10.224 14.776,10 14.5,10 Z"/>
</svg>

