<svg xmlns="http://www.w3.org/2000/svg" width="24" height="24">
  <defs/>
  <path  d="M12,2 C17.523,2 22,6.477 22,12 C22,17.523 17.523,22 12,22 C6.477,22 2,17.523 2,12 C2,6.477 6.477,2 12,2 Z M15.423,7.424 C14.979,7.095 14.352,7.19 14.024,7.634 L12,10.374 L9.976,7.634 C9.648,7.19 9.021,7.096 8.577,7.424 C8.133,7.752 8.039,8.379 8.367,8.823 L9.976,11 L9,11 C8.448,11 8,11.448 8,12 C8,12.552 8.448,13 9,13 L11,13 L11,14 L9,14 C8.448,14 8,14.448 8,15 C8,15.552 8.448,16 9,16 L11,16 L11,17 C11,17.552 11.448,18 12,18 C12.552,18 13,17.552 13,17 L13,16 L15,16 C15.552,16 16,15.552 16,15 C16,14.448 15.552,14 15,14 L13,14 L13,13 L15,13 C15.552,13 16,12.552 16,12 C16,11.448 15.552,11 15,11 L14.024,11 L15.633,8.823 C15.962,8.379 15.867,7.752 15.423,7.424 Z"/>
</svg>

