<svg xmlns="http://www.w3.org/2000/svg" width="24" height="24">
  <defs/>
  <path  d="M11,2.5 A1.5 1.5 0 0 1 12.5,4 L12.5,6.573 L14.33,5.658 A1.5 1.5 0 1 1 15.67,8.342 L12.5,9.927 L12.5,10.573 L14.33,9.658 A1.5 1.5 0 0 1 15.67,12.342 L12.5,13.927 L12.5,18.13 C12.967,17.936 13.48,17.66 13.993,17.287 C15.149,16.446 16.148,15.223 16.545,13.637 A1.5 1.5 0 1 1 19.455,14.364 C18.852,16.777 17.351,18.554 15.757,19.714 C14.202,20.843 12.4,21.5 11,21.5 A1.5 1.5 0 0 1 9.5,20 L9.5,15.427 L7.67,16.342 A1.5 1.5 0 1 1 6.33,13.658 L9.5,12.073 L9.5,11.427 L7.67,12.342 A1.5 1.5 0 1 1 6.33,9.658 L9.5,8.073 L9.5,4 A1.5 1.5 0 0 1 11,2.5"/>
</svg>

