<svg xmlns="http://www.w3.org/2000/svg" width="24" height="24">
  <defs/>
  <path  d="M8.5,2.5 C9.096,2.5 9.635,2.853 9.874,3.399 L12.106,8.5 L14.5,8.5 L14.5,4 C14.5,3.172 15.172,2.5 16,2.5 C16.828,2.5 17.5,3.172 17.5,4 L17.5,8.5 L19,8.5 C19.828,8.5 20.5,9.172 20.5,10 C20.5,10.828 19.828,11.5 19,11.5 L17.5,11.5 L17.5,13.5 L19,13.5 C19.828,13.5 20.5,14.172 20.5,15 C20.5,15.828 19.828,16.5 19,16.5 L17.5,16.5 L17.5,20 C17.5,20.828 16.828,21.5 16,21.5 L15.5,21.5 C14.904,21.5 14.365,21.147 14.126,20.601 L12.332,16.5 L9.5,16.5 L9.5,20 C9.5,20.828 8.828,21.5 8,21.5 C7.172,21.5 6.5,20.828 6.5,20 L6.5,16.5 L5,16.5 C4.172,16.5 3.5,15.828 3.5,15 C3.5,14.172 4.172,13.5 5,13.5 L6.5,13.5 L6.5,11.5 L5,11.5 C4.172,11.5 3.5,10.828 3.5,10 C3.5,9.172 4.172,8.5 5,8.5 L6.5,8.5 L6.5,4 C6.5,3.172 7.172,2.5 8,2.5 Z M10.144,11.5 L9.5,11.5 L9.5,13.5 L11.019,13.5 Z M14.5,11.5 L13.418,11.5 L14.294,13.5 L14.5,13.5 Z"/>
</svg>

