<svg xmlns="http://www.w3.org/2000/svg" width="24" height="24">
  <defs/>
  <path  d="M12,2 C17.523,2 22,6.477 22,12 C22,17.523 17.523,22 12,22 C6.477,22 2,17.523 2,12 C2,6.477 6.477,2 12,2 M12,4 A8 8 0 1 0 12,20 A8 8 0 0 0 12,4 M15,7 A1 1 0 1 1 15,9 L13.465,9 C13.644,9.31 13.783,9.645 13.874,10 L15,10 A1 1 0 1 1 15,12 L13.874,12 A4.01 4.01 0 0 1 11.572,14.68 L13.6,16.2 A1 1 0 0 1 12.4,17.8 L8.41,14.807 A1.004 1.004 0 0 1 8.051,13.684 C8.185,13.283 8.571,12.995 9.011,13 L10,13 A2 2 0 0 0 11.732,12 L9,12 A1 1 0 1 1 9,10 L11.732,10 A2 2 0 0 0 10,9 L9,9 A1 1 0 0 1 9,7 Z"/>
</svg>

