<svg xmlns="http://www.w3.org/2000/svg" width="24" height="24">
  <defs/>
  <path  d="M12,22 C6.477,22 2,17.523 2,12 C2,6.477 6.477,2 12,2 C17.523,2 22,6.477 22,12 C22,17.523 17.523,22 12,22 Z M12,7 C12,6.448 11.552,6 11,6 C10.448,6 10,6.448 10,7 L10,9.132 L8.053,10.106 C7.722,10.259 7.5,10.58 7.475,10.944 C7.449,11.307 7.624,11.656 7.93,11.854 C8.236,12.052 8.626,12.067 8.947,11.894 L10,11.368 L10,12.132 L8.053,13.106 C7.722,13.259 7.5,13.58 7.475,13.944 C7.449,14.307 7.624,14.656 7.93,14.854 C8.236,15.052 8.626,15.067 8.947,14.894 L10,14.368 L10,17 C10,17.552 10.448,18 11,18 C11.737,18 12.786,17.667 13.746,17.118 C14.73,16.556 15.778,15.679 16.394,14.448 C16.564,14.127 16.546,13.74 16.349,13.436 C16.152,13.132 15.805,12.958 15.443,12.983 C15.081,13.007 14.761,13.225 14.606,13.553 C14.222,14.321 13.52,14.943 12.754,15.382 C12.512,15.521 12.26,15.642 12,15.745 L12,13.368 L13.947,12.394 C14.278,12.241 14.5,11.92 14.525,11.556 C14.551,11.193 14.376,10.844 14.07,10.646 C13.764,10.448 13.374,10.433 13.053,10.606 L12,11.132 L12,10.368 L13.947,9.394 C14.278,9.241 14.5,8.92 14.525,8.556 C14.551,8.193 14.376,7.844 14.07,7.646 C13.764,7.448 13.374,7.433 13.053,7.606 L12,8.132 Z"/>
</svg>

