<svg xmlns="http://www.w3.org/2000/svg" width="24" height="24">
  <defs/>
  <path  d="M12,2 C17.523,2 22,6.477 22,12 C22,17.523 17.523,22 12,22 C6.477,22 2,17.523 2,12 C2,6.477 6.477,2 12,2 M12,6 A1 1 0 0 0 11.007,6.883 L11,7 L11,8 L9.1,8 L8.98,8.006 A1.1 1.1 0 0 0 8.006,8.98 L8,9.1 L8,14.9 L8.006,15.02 A1.1 1.1 0 0 0 8.98,15.994 L9.1,16 L11,16 L11,17 L11.007,17.117 A1 1 0 0 0 12.993,17.117 L13,17 L13,16 L14.5,16 L14.664,15.995 A2.5 2.5 0 0 0 16.5,12 A2.5 2.5 0 0 0 14.664,8.005 L14.5,8 L13,8 L13,7 L12.993,6.883 A1 1 0 0 0 12,6 M14.5,13 A0.5 0.5 0 0 1 14.59,13.992 L14.5,14 L10,14 L10,13 Z M14.5,10 A0.5 0.5 0 0 1 14.59,10.992 L14.5,11 L10,11 L10,10 Z"/>
</svg>

