<svg xmlns="http://www.w3.org/2000/svg" width="24" height="24">
  <defs/>
  <path  d="M12,2 C17.523,2 22,6.477 22,12 C22,17.523 17.523,22 12,22 C6.477,22 2,17.523 2,12 C2,6.477 6.477,2 12,2 M12,4 A8 8 0 1 0 12,20 A8 8 0 0 0 12,4 M10.25,7 A4 4 0 0 1 14.25,11 L14.25,13 A1 1 0 1 1 12.25,13 L12.25,11 A2 2 0 0 0 10.25,9 L9,9 L9,16 A1 1 0 1 1 7,16 L7,8 A1 1 0 0 1 8,7 Z M16,7 A1 1 0 0 1 17,8 L17,16 A1 1 0 0 1 16,17 L13.75,17 A4 4 0 0 1 9.75,13 L9.75,11 A1 1 0 1 1 11.75,11 L11.75,13 A2 2 0 0 0 13.75,15 L15,15 L15,8 A1 1 0 0 1 16,7"/>
</svg>

