<svg xmlns="http://www.w3.org/2000/svg" width="24" height="24">
  <defs/>
  <path  d="M12,2 C17.523,2 22,6.477 22,12 C22,17.523 17.523,22 12,22 C6.477,22 2,17.523 2,12 C2,6.477 6.477,2 12,2 M12,4 A8 8 0 1 0 12,20 A8 8 0 0 0 12,4 M12,6 A1 1 0 0 1 12.993,6.883 L13,7 L13,8 L15,8 A1 1 0 0 1 15.117,9.993 L15,10 L10,10 A0.5 0.5 0 0 0 9.91,10.992 L10,11 L14,11 A2.5 2.5 0 0 1 14.164,15.995 L14,16 L13,16 L13,17 A1 1 0 0 1 11.007,17.117 L11,17 L11,16 L9,16 A1 1 0 0 1 8.883,14.007 L9,14 L14,14 A0.5 0.5 0 0 0 14.09,13.008 L14,13 L10,13 A2.5 2.5 0 0 1 9.836,8.005 L10,8 L11,8 L11,7 A1 1 0 0 1 12,6"/>
</svg>

