<svg xmlns="http://www.w3.org/2000/svg" width="24" height="24">
  <defs/>
  <path  d="M5.804,4.02 A1 1 0 0 1 6.981,4.804 L9.108,15.444 L11.03,7.757 A1 1 0 0 1 12.97,7.757 L14.892,15.443 L17.019,4.803 A1 1 0 0 1 18.981,5.196 L18.22,9 L19,9 A1 1 0 1 1 19,11 L18,11 A0.94 0.94 0 0 1 17.823,10.984 L17.42,13 L19,13 A1 1 0 0 1 19,15 L17.02,15 L16.155,19.324 C15.904,20.579 14.125,20.622 13.815,19.38 L12,12.123 L10.186,19.38 C9.876,20.622 8.096,20.58 7.845,19.324 L6.98,15 L5,15 A1 1 0 1 1 5,13 L6.58,13 L6.177,10.984 C6.12,10.994 6.06,11 6,11 L5,11 A1 1 0 1 1 5,9 L5.78,9 L5.02,5.196 A1 1 0 0 1 5.804,4.019"/>
</svg>

