<svg xmlns="http://www.w3.org/2000/svg" width="24" height="24">
  <defs/>
  <path  d="M11,3 A1 1 0 0 1 12,4 L12,7.382 L14.553,6.106 A1 1 0 0 1 15.447,7.894 L12,9.618 L12,11.382 L14.553,10.106 A1 1 0 1 1 15.447,11.894 L12,13.618 L12,18.836 A7.503 7.503 0 0 0 14.287,17.691 C15.516,16.797 16.599,15.482 17.03,13.758 A1 1 0 0 1 18.97,14.243 C18.401,16.518 16.984,18.203 15.463,19.309 C13.968,20.396 12.266,21 11,21 A1 1 0 0 1 10,20 L10,14.618 L7.447,15.894 A1 1 0 1 1 6.553,14.106 L10,12.382 L10,10.618 L7.447,11.894 A1 1 0 1 1 6.553,10.106 L10,8.382 L10,4 A1 1 0 0 1 11,3"/>
</svg>

