<svg xmlns="http://www.w3.org/2000/svg" width="24" height="24">
  <defs/>
  <path  d="M12,2 C17.523,2 22,6.477 22,12 C22,17.523 17.523,22 12,22 C6.477,22 2,17.523 2,12 C2,6.477 6.477,2 12,2 Z M12,4 C7.582,4 4,7.582 4,12 C4,16.418 7.582,20 12,20 C16.418,20 20,16.418 20,12 C20,7.582 16.418,4 12,4 Z M13.5,6 C15.433,6 17,7.567 17,9.5 C17,11.433 15.433,13 13.5,13 L11,13 L11,14 L13,14 C13.552,14 14,14.448 14,15 C14,15.552 13.552,16 13,16 L11,16 L11,17 C11,17.552 10.552,18 10,18 C9.448,18 9,17.552 9,17 L9,16 L8.5,16 C7.948,16 7.5,15.552 7.5,15 C7.5,14.448 7.948,14 8.5,14 L9,14 L9,13 L8.5,13 C7.948,13 7.5,12.552 7.5,12 C7.5,11.448 7.948,11 8.5,11 L9,11 L9,7 C9,6.448 9.448,6 10,6 Z M13.5,8 L11,8 L11,11 L13.5,11 C14.328,11 15,10.328 15,9.5 C15,8.672 14.328,8 13.5,8 Z"/>
</svg>

