<svg xmlns="http://www.w3.org/2000/svg" width="24" height="24">
  <defs/>
  <path  d="M12,2 C17.523,2 22,6.477 22,12 C22,17.523 17.523,22 12,22 C6.477,22 2,17.523 2,12 C2,6.477 6.477,2 12,2 Z M9.023,11.5 L12,11.5 C12.552,11.5 13,11.052 13,10.5 C13,9.948 12.552,9.5 12,9.5 L9.686,9.5 C10.288,8.554 11.206,8 12.118,8 C12.669,8 13.035,8.106 13.322,8.262 C13.621,8.424 13.902,8.677 14.235,9.072 C14.462,9.356 14.825,9.495 15.183,9.435 C15.542,9.374 15.839,9.124 15.96,8.781 C16.081,8.438 16.006,8.057 15.765,7.785 C15.355,7.297 14.885,6.834 14.275,6.504 C13.653,6.166 12.949,6 12.118,6 C9.956,6 8.251,7.495 7.468,9.5 L7,9.5 C6.448,9.5 6,9.948 6,10.5 C6,11.052 6.448,11.5 7,11.5 L7.018,11.5 C6.994,11.833 6.994,12.167 7.018,12.5 L7,12.5 C6.448,12.5 6,12.948 6,13.5 C6,14.052 6.448,14.5 7,14.5 L7.468,14.5 C8.251,16.505 9.956,18 12.118,18 C12.949,18 13.653,17.834 14.275,17.496 C14.885,17.165 15.355,16.703 15.765,16.215 C16.103,15.791 16.042,15.175 15.627,14.826 C15.212,14.477 14.595,14.522 14.235,14.928 C13.902,15.323 13.622,15.576 13.322,15.738 C13.035,15.894 12.668,16 12.118,16 C11.206,16 10.287,15.445 9.686,14.5 L12,14.5 C12.552,14.5 13,14.052 13,13.5 C13,12.948 12.552,12.5 12,12.5 L9.023,12.5 C8.992,12.167 8.992,11.833 9.023,11.5 Z"/>
</svg>

