<svg xmlns="http://www.w3.org/2000/svg" width="24" height="24">
  <defs/>
  <path  d="M12,2 C17.523,2 22,6.477 22,12 C22,17.523 17.523,22 12,22 C6.477,22 2,17.523 2,12 C2,6.477 6.477,2 12,2 M12,4 A8 8 0 1 0 12,20 A8 8 0 0 0 12,4 M11,6 A1 1 0 0 1 11.993,6.883 L12,7 L12,8.132 L13.053,7.606 A1 1 0 0 1 14.049,9.336 L13.947,9.394 L12,10.368 L12,11.132 L13.053,10.606 A1 1 0 0 1 14.049,12.336 L13.947,12.394 L12,13.368 L12,15.745 A5.93 5.93 0 0 0 12.754,15.382 C13.52,14.944 14.222,14.321 14.606,13.552 A1 1 0 1 1 16.394,14.447 C15.779,15.679 14.73,16.557 13.746,17.118 C12.786,17.668 11.736,18 11,18 A1 1 0 0 1 10.007,17.117 L10,17 L10,14.368 L8.947,14.894 A1 1 0 0 1 7.951,13.164 L8.053,13.106 L10,12.132 L10,11.368 L8.947,11.894 A1 1 0 0 1 7.951,10.164 L8.053,10.106 L10,9.132 L10,7 A1 1 0 0 1 11,6"/>
</svg>

