<svg xmlns="http://www.w3.org/2000/svg" width="24" height="24">
  <defs/>
  <path  d="M12,22 C6.477,22 2,17.523 2,12 C2,6.477 6.477,2 12,2 C17.523,2 22,6.477 22,12 C22,17.523 17.523,22 12,22 Z M8.97,8.757 C8.833,8.225 8.292,7.903 7.759,8.037 C7.226,8.17 6.9,8.709 7.03,9.243 L7.22,10 L7,10 C6.448,10 6,10.448 6,11 C6,11.552 6.448,12 7,12 L7.72,12 L7.97,13 L7,13 C6.448,13 6,13.448 6,14 C6,14.552 6.448,15 7,15 L8.47,15 L8.947,16.91 C9.213,17.977 10.709,18.035 11.057,16.99 L12,14.162 L12.943,16.99 C13.291,18.035 14.787,17.977 15.053,16.91 L15.531,15 L17,15 C17.552,15 18,14.552 18,14 C18,13.448 17.552,13 17,13 L16.03,13 L16.28,12 L17,12 C17.552,12 18,11.552 18,11 C18,10.448 17.552,10 17,10 L16.78,10 L16.97,9.243 C17.06,8.895 16.956,8.526 16.699,8.276 C16.442,8.026 16.07,7.933 15.725,8.032 C15.38,8.132 15.115,8.408 15.03,8.757 L13.863,13.426 L12.949,10.684 C12.813,10.275 12.431,9.999 12,9.999 C11.569,9.999 11.187,10.275 11.051,10.684 L10.137,13.426 Z"/>
</svg>

