<svg xmlns="http://www.w3.org/2000/svg" width="24" height="24">
  <defs/>
  <path  d="M5.706,3.53 A1.5 1.5 0 0 1 7.47,4.705 L9.162,13.164 L10.544,7.635 A1.5 1.5 0 0 1 13.454,7.635 L14.836,13.164 L16.528,4.704 A1.5 1.5 0 0 1 19.47,5.294 L18.83,8.5 L19,8.5 A1.5 1.5 0 0 1 19,11.5 L18.23,11.5 L18.03,12.5 L19,12.5 A1.5 1.5 0 0 1 19,15.5 L17.43,15.5 L16.645,19.422 C16.29,21.2 13.769,21.26 13.329,19.501 L12,14.185 L10.67,19.5 C10.231,21.26 7.71,21.2 7.355,19.421 L6.57,15.5 L5,15.5 A1.5 1.5 0 1 1 5,12.5 L5.97,12.5 L5.77,11.5 L5,11.5 A1.5 1.5 0 1 1 5,8.5 L5.17,8.5 L4.53,5.294 A1.5 1.5 0 0 1 5.705,3.53"/>
</svg>

