<svg xmlns="http://www.w3.org/2000/svg" width="24" height="24">
  <defs/>
  <path  d="M9,2.5 C9.828,2.5 10.5,3.172 10.5,4 L10.5,4.5 L11.5,4.5 L11.5,4 C11.5,3.172 12.172,2.5 13,2.5 C13.828,2.5 14.5,3.172 14.5,4 L14.5,4.527 C16.174,4.714 17.604,5.82 18.204,7.394 C18.805,8.967 18.477,10.745 17.354,12 C18.477,13.255 18.805,15.033 18.204,16.606 C17.604,18.18 16.174,19.286 14.5,19.473 L14.5,20 C14.5,20.828 13.828,21.5 13,21.5 C12.172,21.5 11.5,20.828 11.5,20 L11.5,19.5 L10.5,19.5 L10.5,20 C10.5,20.828 9.828,21.5 9,21.5 C8.172,21.5 7.5,20.828 7.5,20 L7.5,19.5 L6,19.5 C5.172,19.5 4.5,18.828 4.5,18 C4.5,17.172 5.172,16.5 6,16.5 L6.5,16.5 L6.5,7.5 L6,7.5 C5.172,7.5 4.5,6.828 4.5,6 C4.5,5.172 5.172,4.5 6,4.5 L7.5,4.5 L7.5,4 C7.5,3.172 8.172,2.5 9,2.5 Z M9.5,13.5 L9.5,16.5 L14,16.5 C14.828,16.5 15.5,15.828 15.5,15 C15.5,14.172 14.828,13.5 14,13.5 Z M9.5,10.5 L14,10.5 C14.828,10.5 15.5,9.828 15.5,9 C15.5,8.172 14.828,7.5 14,7.5 L9.5,7.5 Z"/>
</svg>

