<svg xmlns="http://www.w3.org/2000/svg" width="24" height="24">
  <defs/>
  <path  d="M12,2 C17.523,2 22,6.477 22,12 C22,17.523 17.523,22 12,22 C6.477,22 2,17.523 2,12 C2,6.477 6.477,2 12,2 M12,4 A8 8 0 1 0 12,20 A8 8 0 0 0 12,4 M15.423,7.424 A1 1 0 0 1 15.633,8.823 L14.024,11 L15,11 A1 1 0 1 1 15,13 L13,13 L13,14 L15,14 A1 1 0 1 1 15,16 L13,16 L13,17 A1 1 0 0 1 11,17 L11,16 L9,16 A1 1 0 0 1 9,14 L11,14 L11,13 L9,13 A1 1 0 0 1 9,11 L9.976,11 L8.367,8.823 A1 1 0 1 1 9.976,7.634 L12,10.374 L14.024,7.634 A1 1 0 0 1 15.423,7.424"/>
</svg>

