<svg xmlns="http://www.w3.org/2000/svg" width="24" height="24">
  <defs/>
  <path  d="M16.567,4.792 A4.5 4.5 0 0 0 12.646,2.5 L11.788,2.505 A4.498 4.498 0 0 0 7.5,6.998 L7.5,10.5 L6,10.5 A1.5 1.5 0 0 0 6,13.5 L7.5,13.5 L7.5,16 C7.486,16.486 7.397,16.972 7.012,17.309 C6.812,17.483 6.562,17.542 6.329,17.659 C4.726,18.46 5.625,20.89 7.364,20.455 C7.658,20.373 7.934,20.247 8.231,20.174 C9.483,19.892 10.696,20.162 11.891,20.538 C13.71,21.076 15.363,21.052 16.765,20.669 C17.814,20.383 18.972,19.591 18.342,18.329 C17.835,17.315 16.852,17.486 15.976,17.775 C14.663,18.133 13.373,17.86 12.108,17.462 A11.03 11.03 0 0 0 10.391,17.109 A6.25 6.25 0 0 0 10.5,16 L10.5,13.5 L13,13.5 A1.5 1.5 0 0 0 13,10.5 L10.5,10.5 L10.5,6.998 C10.539,6.184 11.154,5.5 12,5.5 L12.787,5.507 A1.5 1.5 0 0 1 13.987,6.329 L14.729,7.797 A1.5 1.5 0 0 0 17.342,6.329 Z"/>
</svg>

