<svg xmlns="http://www.w3.org/2000/svg" width="24" height="24">
  <defs/>
  <path  d="M12,2 C17.523,2 22,6.477 22,12 C22,17.523 17.523,22 12,22 C6.477,22 2,17.523 2,12 C2,6.477 6.477,2 12,2 M12,4 A8 8 0 1 0 12,20 A8 8 0 0 0 12,4 M15.03,8.757 A1 1 0 0 1 16.992,9.127 L16.97,9.243 L16.78,10 L17,10 A1 1 0 0 1 17.117,11.993 L17,12 L16.28,12 L16.03,13 L17,13 A1 1 0 0 1 17.117,14.993 L17,15 L15.53,15 L15.053,16.91 C14.797,17.934 13.408,18.028 12.99,17.11 L12.943,16.99 L12,14.162 L11.057,16.99 C10.723,17.993 9.331,17.98 8.984,17.033 L8.947,16.909 L8.469,15 L7,15 A1 1 0 0 1 6.883,13.007 L7,13 L7.97,13 L7.72,12 L7,12 A1 1 0 0 1 6.883,10.007 L7,10 L7.22,10 L7.03,9.243 A1 1 0 0 1 8.935,8.646 L8.97,8.757 L10.137,13.426 L11.051,10.684 A1 1 0 0 1 12.906,10.576 L12.949,10.684 L13.863,13.426 Z"/>
</svg>

