<svg xmlns="http://www.w3.org/2000/svg" width="24" height="24">
  <defs/>
  <path  d="M9.636,8.5 C10.566,7.262 11.97,6.5 13.471,6.5 C14.786,6.5 16.001,7.066 16.909,8.03 A1.5 1.5 0 1 0 19.091,5.97 C17.665,4.46 15.682,3.5 13.471,3.5 C10.177,3.5 7.444,5.59 6.209,8.5 L5,8.5 A1.5 1.5 0 1 0 5,11.5 L5.514,11.5 A9.12 9.12 0 0 0 5.514,12.5 L5,12.5 A1.5 1.5 0 0 0 5,15.5 L6.209,15.5 C7.444,18.41 10.177,20.5 13.471,20.5 C15.682,20.5 17.665,19.54 19.091,18.03 A1.5 1.5 0 1 0 16.909,15.97 C16,16.934 14.786,17.5 13.471,17.5 C11.97,17.5 10.566,16.738 9.636,15.5 L13,15.5 A1.5 1.5 0 0 0 13,12.5 L8.52,12.5 A6.357 6.357 0 0 1 8.52,11.5 L13,11.5 A1.5 1.5 0 0 0 13,8.5 Z"/>
</svg>

