<svg xmlns="http://www.w3.org/2000/svg" width="24" height="24">
  <defs/>
  <path  d="M8.73,9 C9.688,7.187 11.482,6 13.471,6 C14.936,6 16.278,6.632 17.273,7.686 A1 1 0 0 0 18.727,6.314 C17.387,4.894 15.533,4 13.471,4 C10.292,4 7.644,6.097 6.545,9 L5,9 A1 1 0 0 0 5,11 L6.058,11 A8.681 8.681 0 0 0 6.058,13 L5,13 A1 1 0 1 0 5,15 L6.545,15 C7.644,17.903 10.292,20 13.471,20 C15.533,20 17.388,19.106 18.727,17.686 A1 1 0 0 0 17.273,16.314 C16.278,17.368 14.936,18 13.47,18 C11.481,18 9.687,16.813 8.729,15 L13,15 A1 1 0 1 0 13,13 L8.075,13 A6.815 6.815 0 0 1 8.075,11 L13,11 A1 1 0 1 0 13,9 Z"/>
</svg>

