<svg xmlns="http://www.w3.org/2000/svg" width="24" height="24">
  <defs/>
  <path  d="M2,12 C2,6.477 6.477,2 12,2 C17.523,2 22,6.477 22,12 C22,17.523 17.523,22 12,22 C6.477,22 2,17.523 2,12 Z M12,4 C7.582,4 4,7.582 4,12 C4,16.418 7.582,20 12,20 C16.418,20 20,16.418 20,12 C20,7.582 16.418,4 12,4 Z M7,12 C7,11.448 7.448,11 8,11 L8.998,11 L9,9.604 C8.999,8.053 9.989,6.676 11.46,6.184 C12.93,5.691 14.55,6.194 15.483,7.433 L15.832,7.945 C16.128,8.386 16.028,8.981 15.604,9.301 C15.181,9.621 14.581,9.554 14.238,9.148 C13.831,8.555 13.406,8 12.605,8 C11.701,8 11.039,8.733 11,9.604 L11,11 L13,11 C13.552,11 14,11.448 14,12 C14,12.552 13.552,13 13,13 L11,13 L11,15 C11,15.264 10.977,15.527 10.922,15.785 C11.399,15.825 11.859,15.913 12.316,16.051 C13.091,16.31 13.904,16.241 14.684,16.051 C15.208,15.876 15.774,16.16 15.949,16.684 C16.124,17.208 15.84,17.774 15.316,17.949 C14.12,18.265 12.877,18.346 11.684,17.949 C10.909,17.69 10.095,17.759 9.316,17.949 C8.138,18.341 7.457,16.725 8.553,16.106 C8.76,15.989 8.965,15.574 8.993,15.174 L8.996,13 L8,13 C7.448,13 7,12.552 7,12 Z"/>
</svg>

