<svg xmlns="http://www.w3.org/2000/svg" width="24" height="24">
  <defs/>
  <path  d="M12,2 C17.523,2 22,6.477 22,12 C22,17.523 17.523,22 12,22 C6.477,22 2,17.523 2,12 C2,6.477 6.477,2 12,2 Z M12,4 C7.582,4 4,7.582 4,12 C4,16.418 7.582,20 12,20 C16.418,20 20,16.418 20,12 C20,7.582 16.418,4 12,4 Z M10,6 C10.365,6 10.701,6.199 10.877,6.519 L10.928,6.629 L12.278,10 L13.5,10 L13.5,7 C13.501,6.471 13.913,6.034 14.441,6.003 C14.97,5.972 15.431,6.358 15.493,6.883 L15.5,7 L15.5,10 L16,10 C16.529,10.001 16.966,10.413 16.997,10.941 C17.028,11.47 16.642,11.931 16.117,11.993 L16,12 L15.5,12 L15.5,13 L16,13 C16.529,13.001 16.966,13.413 16.997,13.941 C17.028,14.47 16.642,14.931 16.117,14.993 L16,15 L15.5,15 L15.5,17 C15.5,17.507 15.12,17.934 14.617,17.993 L14.5,18 L14,18 C13.635,18 13.299,17.801 13.123,17.481 L13.072,17.371 L12.123,15 L10.5,15 L10.5,17 C10.499,17.529 10.087,17.966 9.559,17.997 C9.03,18.028 8.569,17.642 8.507,17.117 L8.5,17 L8.5,15 L8,15 C7.471,14.999 7.034,14.587 7.003,14.059 C6.972,13.53 7.358,13.069 7.883,13.007 L8,13 L8.5,13 L8.5,12 L8,12 C7.471,11.999 7.034,11.587 7.003,11.059 C6.972,10.53 7.358,10.069 7.883,10.007 L8,10 L8.5,10 L8.5,7 C8.5,6.493 8.88,6.066 9.383,6.007 L9.5,6 Z M10.923,12 L10.5,12 L10.5,13 L11.323,13 Z M13.5,12 L13.077,12 L13.477,13 L13.5,13 Z"/>
</svg>

