<svg xmlns="http://www.w3.org/2000/svg" width="24" height="24">
  <defs/>
  <path  d="M12,2 C17.523,2 22,6.477 22,12 C22,17.523 17.523,22 12,22 C6.477,22 2,17.523 2,12 C2,6.477 6.477,2 12,2 M10,6 L9.5,6 A1 1 0 0 0 8.5,7 L8.5,10 L8,10 A1 1 0 1 0 8,12 L8.5,12 L8.5,13 L8,13 A1 1 0 1 0 8,15 L8.5,15 L8.5,17 A1 1 0 1 0 10.5,17 L10.5,15 L12.123,15 L13.072,17.371 A1 1 0 0 0 14,18 L14.5,18 A1 1 0 0 0 15.5,17 L15.5,15 L16,15 A1 1 0 1 0 16,13 L15.5,13 L15.5,12 L16,12 A1 1 0 1 0 16,10 L15.5,10 L15.5,7 A1 1 0 1 0 13.5,7 L13.5,10 L12.277,10 L10.929,6.629 A1 1 0 0 0 10,6 M13.5,12 L13.5,13 L13.477,13 L13.077,12 Z M10.923,12 L11.323,13 L10.5,13 L10.5,12 Z"/>
</svg>

