<svg xmlns="http://www.w3.org/2000/svg" width="24" height="24">
  <defs/>
  <path  d="M10,3 L14,3 C16.761,3 19,5.239 19,8 C19,10.761 16.761,13 14,13 L10,13 L10,15 L14,15 C14.552,15 15,15.448 15,16 C15,16.552 14.552,17 14,17 L10,17 L10,20 C10,20.552 9.552,21 9,21 C8.448,21 8,20.552 8,20 L8,17 L6.5,17 C5.948,17 5.5,16.552 5.5,16 C5.5,15.448 5.948,15 6.5,15 L8,15 L8,13 L6.5,13 C5.948,13 5.5,12.552 5.5,12 C5.5,11.448 5.948,11 6.5,11 L8,11 L8,5 C8,3.895 8.895,3 10,3 Z M14,11 C15.657,11 17,9.657 17,8 C17,6.343 15.657,5 14,5 L10,5 L10,11 Z"/>
</svg>

