<svg xmlns="http://www.w3.org/2000/svg" width="24" height="24">
  <defs/>
  <path  d="M12,2 C17.523,2 22,6.477 22,12 C22,17.523 17.523,22 12,22 C6.477,22 2,17.523 2,12 C2,6.477 6.477,2 12,2 Z M12,4 C7.582,4 4,7.582 4,12 C4,16.418 7.582,20 12,20 C16.418,20 20,16.418 20,12 C20,7.582 16.418,4 12,4 Z M12.118,6 C12.949,6 13.653,6.166 14.275,6.504 C14.885,6.834 15.355,7.297 15.765,7.785 C16.006,8.057 16.081,8.438 15.96,8.781 C15.839,9.124 15.542,9.374 15.183,9.435 C14.825,9.495 14.462,9.356 14.235,9.072 C13.902,8.677 13.621,8.424 13.322,8.262 C13.035,8.106 12.669,8 12.118,8 C11.267,8 10.41,8.483 9.81,9.316 L9.686,9.5 L12,9.5 C12.529,9.501 12.966,9.913 12.997,10.441 C13.028,10.97 12.642,11.431 12.117,11.493 L12,11.5 L9.023,11.5 C9.007,11.666 9,11.833 9,12 L9.006,12.253 L9.023,12.5 L12,12.5 C12.529,12.501 12.966,12.913 12.997,13.441 C13.028,13.97 12.642,14.431 12.117,14.493 L12,14.5 L9.686,14.5 C10.287,15.445 11.206,16 12.118,16 C12.668,16 13.035,15.894 13.322,15.738 C13.622,15.576 13.902,15.323 14.235,14.928 C14.595,14.522 15.212,14.477 15.627,14.826 C16.042,15.175 16.103,15.791 15.765,16.215 C15.355,16.703 14.885,17.165 14.275,17.496 C13.653,17.834 12.949,18 12.118,18 C10.033,18 8.373,16.61 7.555,14.713 L7.468,14.5 L7,14.5 C6.471,14.499 6.034,14.087 6.003,13.559 C5.972,13.03 6.358,12.569 6.883,12.507 L7.018,12.5 C7.006,12.334 7,12.167 7,12 L7.005,11.75 L7.018,11.5 L7,11.5 C6.471,11.499 6.034,11.087 6.003,10.559 C5.972,10.03 6.358,9.569 6.883,9.507 L7,9.5 L7.468,9.5 C8.251,7.495 9.956,6 12.118,6 Z"/>
</svg>

