<svg xmlns="http://www.w3.org/2000/svg" width="24" height="24">
  <defs/>
  <path  d="M13,3 C13.552,3 14,3.448 14,4 L14,5 C15.664,5 17.154,6.03 17.742,7.586 C18.33,9.142 17.894,10.9 16.646,12 C17.894,13.1 18.33,14.858 17.742,16.414 C17.154,17.97 15.664,19 14,19 L14,20 C14,20.552 13.552,21 13,21 C12.448,21 12,20.552 12,20 L12,19 L10,19 L10,20 C10,20.552 9.552,21 9,21 C8.448,21 8,20.552 8,20 L8,19 L6,19 C5.448,19 5,18.552 5,18 C5,17.448 5.448,17 6,17 L7,17 L7,7 L6,7 C5.448,7 5,6.552 5,6 C5,5.448 5.448,5 6,5 L8,5 L8,4 C8,3.448 8.448,3 9,3 C9.552,3 10,3.448 10,4 L10,5 L12,5 L12,4 C12,3.448 12.448,3 13,3 Z M14,7 L9,7 L9,11 L14,11 C15.079,11.005 15.967,10.153 16.008,9.075 C16.048,7.997 15.226,7.081 14.15,7.005 Z M14,13 L9,13 L9,17 L14,17 C15.105,17 16,16.105 16,15 C16,13.895 15.105,13 14,13 Z"/>
</svg>

