<svg xmlns="http://www.w3.org/2000/svg" width="24" height="24">
  <defs/>
  <path  d="M12,3 C12.552,3 13,3.448 13,4 L13,5 L14,5 C15.664,5 17.154,6.03 17.742,7.586 C18.33,9.142 17.894,10.9 16.646,12 C17.894,13.1 18.33,14.858 17.742,16.414 C17.154,17.97 15.664,19 14,19 L13,19 L13,20 C13,20.552 12.552,21 12,21 C11.448,21 11,20.552 11,20 L11,19 L8.1,19 C7.492,19 7,18.508 7,17.9 L7,6.1 C7,5.492 7.492,5 8.1,5 L11,5 L11,4 C11,3.448 11.448,3 12,3 Z M9,13 L9,17 L14,17 C15.105,17 16,16.105 16,15 C16,13.895 15.105,13 14,13 Z M9,11 L14,11 C15.105,11 16,10.105 16,9 C16,7.895 15.105,7 14,7 L9,7 Z"/>
</svg>

