<svg xmlns="http://www.w3.org/2000/svg" width="24" height="24">
  <defs/>
  <path  d="M8.5,3 C8.897,3 9.257,3.236 9.416,3.6 L11.78,9 L15,9 L15,4 C15,3.448 15.448,3 16,3 C16.552,3 17,3.448 17,4 L17,9 L19,9 C19.552,9 20,9.448 20,10 C20,10.552 19.552,11 19,11 L17,11 L17,13 L19,13 C19.552,13 20,13.448 20,14 C20,14.552 19.552,15 19,15 L17,15 L17,20 C17,20.552 16.552,21 16,21 L15.5,21 C15.103,21 14.743,20.764 14.584,20.4 L12.22,15 L9,15 L9,20 C9,20.552 8.552,21 8,21 C7.448,21 7,20.552 7,20 L7,15 L5,15 C4.448,15 4,14.552 4,14 C4,13.448 4.448,13 5,13 L7,13 L7,11 L5,11 C4.448,11 4,10.552 4,10 C4,9.448 4.448,9 5,9 L7,9 L7,4 C7,3.448 7.448,3 8,3 Z M10.471,11 L9,11 L9,13 L11.346,13 Z M15,11 L12.654,11 L13.529,13 L15,13 Z M9,7.638 L9,9 L9.596,9 Z M15,15 L14.404,15 L15,16.362 Z"/>
</svg>

