<svg xmlns="http://www.w3.org/2000/svg" width="24" height="24">
  <defs/>
  <path  d="M7,6.5 A1.5 1.5 0 1 1 7,3.5 L18,3.5 A1.5 1.5 0 0 1 18,6.5 L14.478,6.5 A6.46 6.46 0 0 1 15.326,8.5 L18,8.5 A1.5 1.5 0 0 1 18,11.5 L15.326,11.5 A6.513 6.513 0 0 1 11.164,16.131 L14.872,18.779 A1.5 1.5 0 0 1 13.128,21.221 L6.147,16.234 A1.484 1.484 0 0 1 5.501,15.054 A1.523 1.523 0 0 1 5.852,14.034 C6.144,13.687 6.563,13.494 7.02,13.5 L9,13.5 A3.5 3.5 0 0 0 12.163,11.5 L7,11.5 A1.5 1.5 0 0 1 7,8.5 L12.163,8.5 A3.5 3.5 0 0 0 9,6.5 Z"/>
</svg>

