<svg xmlns="http://www.w3.org/2000/svg" width="24" height="24">
  <defs/>
  <path  d="M2,12 C2,6.477 6.477,2 12,2 C17.523,2 22,6.477 22,12 C22,17.523 17.523,22 12,22 C6.477,22 2,17.523 2,12 Z M7,12 C7,12.552 7.448,13 8,13 L8.997,13 L8.993,15.174 C8.965,15.574 8.76,15.989 8.553,16.106 C7.457,16.725 8.138,18.341 9.316,17.949 C10.096,17.759 10.909,17.69 11.684,17.949 C12.877,18.346 14.12,18.265 15.316,17.949 C15.84,17.774 16.124,17.208 15.949,16.684 C15.774,16.16 15.208,15.876 14.684,16.051 C13.904,16.241 13.091,16.31 12.316,16.051 C11.859,15.913 11.399,15.825 10.922,15.785 C10.977,15.527 11,15.264 11,15 L11,13 L13,13 C13.552,13 14,12.552 14,12 C14,11.448 13.552,11 13,11 L11,11 L11,9.604 C11.039,8.733 11.7,8 12.606,8 C13.406,8 13.832,8.555 14.238,9.148 C14.581,9.554 15.181,9.621 15.604,9.301 C16.028,8.981 16.128,8.386 15.832,7.945 L15.483,7.433 C14.55,6.194 12.93,5.691 11.46,6.184 C9.989,6.676 8.999,8.053 9,9.604 L8.998,11 L8,11 C7.448,11 7,11.448 7,12 Z"/>
</svg>

