<svg xmlns="http://www.w3.org/2000/svg" width="24" height="24">
  <defs/>
  <path  d="M12,2 C17.523,2 22,6.477 22,12 C22,17.523 17.523,22 12,22 C6.477,22 2,17.523 2,12 C2,6.477 6.477,2 12,2 Z M8,8 C8,8.552 8.448,9 9,9 L10,9 C10.715,9 11.375,9.381 11.732,10 L9,10 C8.448,10 8,10.448 8,11 C8,11.552 8.448,12 9,12 L11.732,12 C11.375,12.619 10.715,13 10,13 L9,13 C8.723,12.998 8.458,13.113 8.27,13.317 C8.103,13.496 8,13.743 8,14 C7.998,14.319 8.15,14.619 8.408,14.806 L12.4,17.8 C12.842,18.131 13.469,18.042 13.8,17.6 C14.131,17.158 14.042,16.531 13.6,16.2 L11.572,14.68 C12.713,14.191 13.563,13.201 13.874,12 L15,12 C15.552,12 16,11.552 16,11 C16,10.448 15.552,10 15,10 L13.874,10 C13.783,9.645 13.644,9.31 13.465,9 L15,9 C15.552,9 16,8.552 16,8 C16,7.448 15.552,7 15,7 L9,7 C8.448,7 8,7.448 8,8 Z"/>
</svg>

