<svg xmlns="http://www.w3.org/2000/svg" width="24" height="24">
  <defs/>
  <path  d="M10,3.5 A5.5 5.5 0 0 1 15.496,8.779 L15.5,9 L15.5,15 A1.5 1.5 0 0 1 12.507,15.144 L12.5,15 L12.5,9 A2.5 2.5 0 0 0 10.164,6.505 L10,6.5 L7.5,6.5 L7.5,19 A1.5 1.5 0 0 1 4.507,19.144 L4.5,19 L4.5,5 A1.5 1.5 0 0 1 5.856,3.507 L6,3.5 Z M18,3.5 A1.5 1.5 0 0 1 19.493,4.856 L19.5,5 L19.5,19 A1.5 1.5 0 0 1 18.144,20.493 L18,20.5 L14,20.5 A5.5 5.5 0 0 1 8.504,15.221 L8.5,15 L8.5,9 A1.5 1.5 0 0 1 11.493,8.856 L11.5,9 L11.5,15 A2.5 2.5 0 0 0 13.836,17.495 L14,17.5 L16.5,17.5 L16.5,5 A1.5 1.5 0 0 1 18,3.5"/>
</svg>

