<svg xmlns="http://www.w3.org/2000/svg" width="24" height="24">
  <defs/>
  <path  d="M12,2 C17.523,2 22,6.477 22,12 C22,17.523 17.523,22 12,22 C6.477,22 2,17.523 2,12 C2,6.477 6.477,2 12,2 M13,6 A1 1 0 0 0 12,7 L12,8 L11,8 L11,7 A1 1 0 1 0 9,7 L9,8 L8,8 A1 1 0 0 0 8,10 L8,14 A1 1 0 1 0 8,16 L9,16 L9,17 A1 1 0 1 0 11,17 L11,16 L12,16 L12,17 A1 1 0 1 0 14,17 L14,16 L14.5,16 A2.5 2.5 0 0 0 16.5,12 A2.5 2.5 0 0 0 14.5,8 L14,8 L14,7 A1 1 0 0 0 13,6 M14.5,13 A0.5 0.5 0 0 1 14.5,14 L10,14 L10,13 Z M14.5,10 A0.5 0.5 0 0 1 14.59,10.992 L14.5,11 L10,11 L10,10 Z"/>
</svg>

