<svg xmlns="http://www.w3.org/2000/svg" width="24" height="24">
  <defs/>
  <path  d="M10,2.5 L14,2.5 C17.038,2.5 19.5,4.962 19.5,8 C19.5,11.038 17.038,13.5 14,13.5 L10.5,13.5 L10.5,14.5 L14,14.5 C14.828,14.5 15.5,15.172 15.5,16 C15.5,16.828 14.828,17.5 14,17.5 L10.5,17.5 L10.5,20 C10.5,20.828 9.828,21.5 9,21.5 C8.172,21.5 7.5,20.828 7.5,20 L7.5,17.5 L6.5,17.5 C5.672,17.5 5,16.828 5,16 C5,15.172 5.672,14.5 6.5,14.5 L7.5,14.5 L7.5,13.5 L6.5,13.5 C5.672,13.5 5,12.828 5,12 C5,11.172 5.672,10.5 6.5,10.5 L7.5,10.5 L7.5,5 C7.5,3.619 8.619,2.5 10,2.5 Z M14,10.5 C15.381,10.5 16.5,9.381 16.5,8 C16.5,6.619 15.381,5.5 14,5.5 L10.5,5.5 L10.5,10.5 Z"/>
</svg>

