<svg xmlns="http://www.w3.org/2000/svg" width="24" height="24">
  <defs/>
  <path  d="M12,2 C17.523,2 22,6.477 22,12 C22,17.523 17.523,22 12,22 C6.477,22 2,17.523 2,12 C2,6.477 6.477,2 12,2 Z M12,4 C7.582,4 4,7.582 4,12 C4,16.418 7.582,20 12,20 C16.418,20 20,16.418 20,12 C20,7.582 16.418,4 12,4 Z M13,6 C13.507,6 13.934,6.38 13.993,6.883 L14,7 L14,8 L14.5,8 C15.447,8 16.313,8.535 16.736,9.382 C17.16,10.229 17.068,11.242 16.5,12 C17.051,12.734 17.155,13.711 16.772,14.544 C16.389,15.378 15.58,15.935 14.664,15.995 L14.5,16 L14,16 L14,17 C13.999,17.529 13.587,17.966 13.059,17.997 C12.53,18.028 12.069,17.642 12.007,17.117 L12,17 L12,16 L11,16 L11,17 C10.999,17.529 10.587,17.966 10.059,17.997 C9.53,18.028 9.069,17.642 9.007,17.117 L9,17 L9,16 L8,16 C7.471,15.999 7.034,15.587 7.003,15.059 C6.972,14.53 7.358,14.069 7.883,14.007 L8,14 L8,10 C7.471,9.999 7.034,9.587 7.003,9.059 C6.972,8.53 7.358,8.069 7.883,8.007 L8,8 L9,8 L9,7 C9.001,6.471 9.413,6.034 9.941,6.003 C10.47,5.972 10.931,6.358 10.993,6.883 L11,7 L11,8 L12,8 L12,7 C12,6.448 12.448,6 13,6 Z M14.5,13 L10,13 L10,14 L14.5,14 C14.759,14 14.975,13.803 14.999,13.545 C15.022,13.287 14.845,13.054 14.59,13.008 Z M14.5,10 L10,10 L10,11 L14.5,11 C14.776,11 15,10.776 15,10.5 C15,10.224 14.776,10 14.5,10 Z"/>
</svg>

