<svg xmlns="http://www.w3.org/2000/svg" width="24" height="24">
  <defs/>
  <path  d="M12,2.5 C12.828,2.5 13.5,3.172 13.5,4 L13.5,4.5 L14,4.5 C15.775,4.5 17.383,5.543 18.108,7.163 C18.832,8.783 18.537,10.677 17.354,12 C18.537,13.323 18.832,15.217 18.108,16.837 C17.383,18.457 15.775,19.5 14,19.5 L13.5,19.5 L13.5,20 C13.5,20.828 12.828,21.5 12,21.5 C11.172,21.5 10.5,20.828 10.5,20 L10.5,19.5 L8.1,19.5 C7.216,19.5 6.5,18.784 6.5,17.9 L6.5,6.1 C6.5,5.216 7.216,4.5 8.1,4.5 L10.5,4.5 L10.5,4 C10.5,3.172 11.172,2.5 12,2.5 Z M9.5,13.5 L9.5,16.5 L14,16.5 C14.828,16.5 15.5,15.828 15.5,15 C15.5,14.172 14.828,13.5 14,13.5 Z M9.5,10.5 L14,10.5 C14.828,10.5 15.5,9.828 15.5,9 C15.5,8.172 14.828,7.5 14,7.5 L9.5,7.5 Z"/>
</svg>

