<svg xmlns="http://www.w3.org/2000/svg" width="24" height="24">
  <defs/>
  <path  d="M20,5.5 L20,18.5 C20,19.254 19.57,19.837 19.095,20.237 C18.616,20.642 17.982,20.961 17.286,21.21 C15.886,21.71 14.016,22 12,22 C9.983,22 8.114,21.71 6.714,21.21 C6.018,20.961 5.384,20.642 4.904,20.237 C4.43,19.837 4,19.254 4,18.5 L4,5.5 C4,4.746 4.43,4.163 4.905,3.763 C5.384,3.358 6.018,3.039 6.714,2.79 C8.114,2.29 9.984,2 12,2 C14.017,2 15.886,2.29 17.286,2.79 C17.982,3.039 18.616,3.358 19.096,3.763 C19.57,4.163 20,4.746 20,5.5 Z M18,7.916 C17.767,8.025 17.529,8.123 17.286,8.209 C15.886,8.709 14.016,8.999 12,8.999 C9.983,8.999 8.114,8.709 6.714,8.209 C6.471,8.123 6.233,8.026 6,7.917 L6,18.486 C6.01,18.51 6.049,18.586 6.195,18.709 C6.425,18.903 6.815,19.122 7.387,19.326 C8.52,19.731 10.15,20 12,20 C13.85,20 15.48,19.73 16.613,19.326 C17.184,19.122 17.575,18.903 17.805,18.709 C17.951,18.585 17.991,18.509 18,18.486 Z M6.195,5.71 C6.425,5.903 6.815,6.122 7.387,6.326 C8.52,6.731 10.15,7 12,7 C13.85,7 15.48,6.73 16.613,6.326 C17.184,6.122 17.575,5.903 17.805,5.709 C18.016,5.53 18.016,5.469 17.805,5.291 C17.575,5.097 17.185,4.878 16.613,4.674 C15.48,4.269 13.85,4 12,4 C10.15,4 8.52,4.27 7.387,4.674 C6.816,4.878 6.425,5.097 6.195,5.291 C5.984,5.47 5.984,5.531 6.195,5.709 Z"/>
</svg>

