<svg xmlns="http://www.w3.org/2000/svg" width="24" height="24">
  <defs/>
  <path  d="M9,7.84 L10,7.84 A1 1 0 0 0 9.109,6.847 Z M15,7.833 L14.886,6.839 A1 1 0 0 0 14,7.833 Z M9,19.84 L8.891,20.834 A1 1 0 0 0 10,19.84 Z M15,19.832 L14,19.832 A1 1 0 0 0 15.114,20.825 Z M3,6 L3,18 L5,18 L5,6 Z M19,6 L19,18 L21,18 L21,6 Z M5,6 C5,6.19 4.913,6.288 4.918,6.282 A0.94 0.94 0 0 1 5.13,6.132 C5.424,5.961 5.912,5.77 6.594,5.593 C7.944,5.243 9.857,5 12,5 L12,3 C9.725,3 7.638,3.257 6.092,3.657 C5.327,3.855 4.643,4.102 4.128,4.4 A2.809 2.809 0 0 0 3.407,4.972 A1.57 1.57 0 0 0 3,6 Z M12,5 C14.143,5 16.056,5.243 17.406,5.593 C18.088,5.77 18.576,5.961 18.87,6.131 A0.941 0.941 0 0 1 19.082,6.281 C19.087,6.289 19,6.19 19,6 L21,6 C21,5.56 20.8,5.212 20.593,4.972 A2.81 2.81 0 0 0 19.873,4.4 C19.357,4.102 18.673,3.855 17.908,3.657 C16.362,3.257 14.275,3 12,3 Z M9.109,6.847 C7.691,6.692 6.528,6.434 5.746,6.147 C5.349,6.001 5.103,5.866 4.976,5.768 C4.818,5.648 5,5.716 5,6 L3,6 C3,6.664 3.441,7.113 3.762,7.358 C4.114,7.627 4.568,7.844 5.055,8.023 C6.041,8.386 7.377,8.669 8.891,8.835 Z M19,6 C19,5.685 19.208,5.608 19.032,5.74 C18.902,5.837 18.651,5.973 18.252,6.12 C17.467,6.411 16.302,6.677 14.886,6.84 L15.114,8.826 C16.63,8.653 17.964,8.36 18.947,7.996 C19.432,7.816 19.881,7.601 20.23,7.341 C20.534,7.114 21,6.671 21,6 Z M8,7.84 L8,16.16 L10,16.16 L10,7.84 Z M9.109,17.153 A26.74 26.74 0 0 1 12,17 L12,15 C10.903,15 9.854,15.06 8.891,15.165 Z M14,7.833 L14,16.159 L16,16.159 L16,7.833 Z M12,17 C13.025,17 14.002,17.056 14.891,17.153 L15.109,15.165 A28.736 28.736 0 0 0 12,15 Z M8,16.16 L8,19.84 L10,19.84 L10,16.16 Z M9.109,18.847 C7.691,18.692 6.528,18.434 5.746,18.147 C5.349,18.001 5.103,17.866 4.976,17.768 C4.818,17.648 5,17.716 5,18 L3,18 C3,18.664 3.441,19.113 3.762,19.358 C4.114,19.627 4.568,19.844 5.055,20.023 C6.041,20.386 7.377,20.669 8.891,20.835 Z M14,16.159 L14,19.833 L16,19.833 L16,16.159 Z M19,18 C19,17.685 19.208,17.608 19.032,17.74 C18.902,17.837 18.651,17.973 18.252,18.12 C17.467,18.411 16.302,18.677 14.886,18.84 L15.114,20.826 C16.63,20.653 17.964,20.36 18.947,19.996 C19.432,19.816 19.881,19.601 20.23,19.341 C20.534,19.114 21,18.671 21,18 Z"/>
</svg>

