<svg xmlns="http://www.w3.org/2000/svg" width="24" height="24">
  <defs/>
  <path  d="M21,6 L21,18 C21,18.672 20.534,19.114 20.23,19.341 C19.881,19.601 19.432,19.816 18.947,19.996 C17.965,20.36 16.63,20.653 15.114,20.826 C14.831,20.858 14.547,20.769 14.335,20.579 C14.122,20.389 14,20.118 14,19.833 L14,17.073 C12.668,16.976 11.332,16.976 10,17.073 L10,19.841 C10,20.125 9.879,20.396 9.667,20.586 C9.456,20.775 9.173,20.866 8.891,20.835 C7.377,20.669 6.041,20.386 5.055,20.023 C4.568,19.844 4.114,19.627 3.762,19.358 C3.44,19.113 3,18.664 3,18 L3,6 C3,5.56 3.2,5.212 3.407,4.972 C3.612,4.736 3.871,4.549 4.127,4.4 C4.643,4.102 5.327,3.855 6.092,3.657 C7.638,3.257 9.725,3 12,3 C14.275,3 16.362,3.257 17.908,3.657 C18.673,3.855 19.357,4.102 19.872,4.4 C20.13,4.549 20.388,4.736 20.593,4.972 C20.801,5.212 21,5.56 21,6 Z M5.746,6.146 C6.528,6.434 7.691,6.692 9.109,6.846 C9.616,6.902 10,7.331 10,7.841 L10,15.067 C11.332,14.977 12.668,14.977 14,15.067 L14,7.833 C14,7.325 14.381,6.897 14.886,6.839 C16.302,6.677 17.467,6.411 18.252,6.12 C18.845,5.901 18.106,5.744 17.64,5.645 C17.547,5.626 17.465,5.608 17.406,5.593 C16.056,5.243 14.143,5 12,5 C9.857,5 7.944,5.243 6.594,5.593 C6.531,5.609 6.445,5.628 6.349,5.648 C5.862,5.753 5.112,5.913 5.746,6.146 Z"/>
</svg>

