<svg xmlns="http://www.w3.org/2000/svg" width="24" height="24">
  <defs/>
  <path  d="M12,2 C15.342,2 18.332,4.077 19.498,7.209 C20.663,10.341 19.76,13.868 17.231,16.053 C17.746,17.651 18.006,19.321 18,21 C18,21.552 17.552,22 17,22 C16.448,22 16,21.552 16,21 C16,19.716 15.835,18.438 15.49,17.201 C12.527,18.635 8.989,18.108 6.572,15.873 C4.156,13.637 3.356,10.15 4.555,7.085 C5.754,4.02 8.708,2.002 12,2 Z M12,8 C11.218,8 10.508,8.455 10.182,9.166 C9.856,9.876 9.974,10.712 10.484,11.304 C10.993,11.897 11.802,12.138 12.553,11.922 C13.476,12.925 14.234,14.068 14.8,15.308 C15.407,14.987 15.955,14.564 16.42,14.058 C15.773,12.75 14.938,11.544 13.942,10.478 C14.089,9.881 13.953,9.25 13.574,8.766 C13.195,8.283 12.615,8 12,8 Z"/>
</svg>

