<svg xmlns="http://www.w3.org/2000/svg" width="24" height="24">
  <defs/>
  <path  d="M5,3 L18,3 C19.657,3 21,4.343 21,6 L21,15 C21,16.657 19.657,18 18,18 L11.333,18 L8,20.5 C7.176,21.118 6,20.53 6,19.5 L6,18 L5,18 C3.343,18 2,16.657 2,15 L2,13 C2,13.552 2.448,14 3,14 L9,14 C9.552,14 10,13.552 10,13 C10,12.448 9.552,12 9,12 L3,12 C2.448,12 2,12.448 2,13 L2,6 C2,4.343 3.343,3 5,3 Z M11,7 C10.448,7 10,7.448 10,8 C10,8.552 10.448,9 11,9 L19,9 C19.552,9 20,8.552 20,8 C20,7.448 19.552,7 19,7 Z M13,12 C12.448,12 12,12.448 12,13 C12,13.552 12.448,14 13,14 L15,14 C15.552,14 16,13.552 16,13 C16,12.448 15.552,12 15,12 Z M5,7 C4.448,7 4,7.448 4,8 C4,8.552 4.448,9 5,9 L7,9 C7.552,9 8,8.552 8,8 C8,7.448 7.552,7 7,7 Z"/>
</svg>

