<svg xmlns="http://www.w3.org/2000/svg" width="24" height="24">
  <defs/>
  <path  d="M4,14 L4,15 A1 1 0 0 0 5,16 L6.5,16 A1.5 1.5 0 0 1 8,17.5 L8,18 L10.4,16.2 L11.6,17.8 L8,20.5 C7.176,21.118 6,20.53 6,19.5 L6,18 L5,18 A3 3 0 0 1 2,15 L2,13 A1 1 0 0 1 3,12 L9,12 A1 1 0 1 1 9,14 Z M5,8 A1 1 0 0 0 5,10 L7,10 A1 1 0 0 0 7,8 Z M11,8 A1 1 0 1 0 11,10 L19,10 A1 1 0 1 0 19,8 Z M5,3 A3 3 0 0 0 2,6 L2,7 L4,7 L4,6 A1 1 0 0 1 5,5 L18,5 A1 1 0 0 1 19,6 L19,7 L21,7 L21,6 A3 3 0 0 0 18,3 Z M13,16.5 A4.5 4.5 0 1 1 22,16.5 A4.5 4.5 0 0 1 13,16.5 M15.172,15.586 A2.5 2.5 0 0 0 18.413,18.827 Z M16.586,14.172 L19.828,17.414 A2.5 2.5 0 0 0 16.587,14.173"/>
</svg>

