<svg xmlns="http://www.w3.org/2000/svg" width="24" height="24">
  <defs/>
  <path  d="M18,3 C19.589,3 20.902,4.238 20.995,5.824 L21,6 L21,9.762 C19.922,9.536 18.801,9.831 17.974,10.557 L17.807,10.713 L15.686,12.834 C14.347,11.497 12.187,11.467 10.811,12.766 C9.435,14.065 9.341,16.223 10.598,17.637 L10.739,17.787 L11.116,18.163 L8,20.5 C7.209,21.093 6.094,20.575 6.006,19.621 L6,19.5 L6,18 L5,18 C3.411,18 2.098,16.762 2.005,15.176 L2,15 L2,6 C2,4.411 3.238,3.098 4.824,3.005 L5,3 Z M19.575,12.48 C19.948,12.108 20.547,12.09 20.942,12.438 C21.338,12.787 21.395,13.383 21.072,13.8 L20.989,13.895 L16.393,18.491 C16.037,18.847 15.471,18.883 15.073,18.574 L14.979,18.491 L12.507,16.019 C12.135,15.646 12.117,15.047 12.465,14.652 C12.814,14.256 13.41,14.199 13.827,14.522 L13.921,14.605 L15.686,16.37 Z M19,7 L11,7 C10.448,7 10,7.448 10,8 C10,8.552 10.448,9 11,9 L19,9 C19.552,9 20,8.552 20,8 C20,7.448 19.552,7 19,7 Z M9,12 L3,12 C2.471,12.001 2.034,12.413 2.003,12.941 C1.972,13.47 2.358,13.931 2.883,13.993 L3,14 L9,14 C9.529,13.999 9.966,13.587 9.997,13.059 C10.028,12.53 9.642,12.069 9.117,12.007 Z M7,7 L5,7 C4.448,7 4,7.448 4,8 C4,8.552 4.448,9 5,9 L7,9 C7.552,9 8,8.552 8,8 C8,7.448 7.552,7 7,7 Z"/>
</svg>

