<svg xmlns="http://www.w3.org/2000/svg" width="24" height="24">
  <defs/>
  <path  d="M4,15 L4,14 L9,14 A1 1 0 1 0 9,12 L3,12 A1 1 0 0 0 2,13 L2,15 A3 3 0 0 0 5,18 L6,18 L6,19.5 C6,20.53 7.176,21.118 8,20.5 L11.6,17.8 L10.4,16.2 L8,18 L8,17.5 A1.5 1.5 0 0 0 6.5,16 L5,16 A1 1 0 0 1 4,15 M4,9 A1 1 0 0 1 5,8 L7,8 A1 1 0 0 1 7,10 L5,10 A1 1 0 0 1 4,9 M10,9 A1 1 0 0 1 11,8 L19,8 A1 1 0 1 1 19,10 L11,10 A1 1 0 0 1 10,9 M2,6 A3 3 0 0 1 5,3 L18,3 A3 3 0 0 1 21,6 L21,7 L19,7 L19,6 A1 1 0 0 0 18,5 L5,5 A1 1 0 0 0 4,6 L4,7 L2,7 Z M20.99,13.895 A1 1 0 0 0 19.575,12.481 L15.686,16.37 L13.921,14.605 A1 1 0 1 0 12.507,16.019 L14.979,18.491 A1 1 0 0 0 16.393,18.491 Z"/>
</svg>

