<svg xmlns="http://www.w3.org/2000/svg" width="24" height="24">
  <defs/>
  <path  d="M9,12 A1 1 0 0 1 9.117,13.993 L9,14 L4,14 L4,15 A1 1 0 0 0 4.883,15.993 L5,16 L6.5,16 A1.5 1.5 0 0 1 7.993,17.356 L8,17.5 L8,18 L10.133,16.4 A2 2 0 0 1 11.149,16.009 L11.333,16 L18,16 A1 1 0 0 0 18.993,15.117 L19,15 L19,12 L21,12 L21,15 A3 3 0 0 1 18.176,17.995 L18,18 L11.333,18 L8,20.5 C7.209,21.093 6.094,20.575 6.006,19.621 L6,19.5 L6,18 L5,18 A3 3 0 0 1 2.005,15.176 L2,15 L2,13 A1 1 0 0 1 2.883,12.007 L3,12 Z M15,12 A1 1 0 0 1 15.117,13.993 L15,14 L13,14 A1 1 0 0 1 12.883,12.007 L13,12 Z M7,8 A1 1 0 0 1 7.117,9.993 L7,10 L5,10 A1 1 0 0 1 4.883,8.007 L5,8 Z M19,8 L19.117,8.007 A1 1 0 0 1 19.117,9.993 L19,10 L11,10 A1 1 0 0 1 10.883,8.007 L11,8 Z M18,3 A3 3 0 0 1 20.995,5.824 L21,6 L21,8 L19,8 L19,6 A1 1 0 0 0 18.117,5.007 L18,5 L5,5 A1 1 0 0 0 4.007,5.883 L4,6 L4,8 L2,8 L2,6 A3 3 0 0 1 4.824,3.005 L5,3 Z"/>
</svg>

