<svg xmlns="http://www.w3.org/2000/svg" width="24" height="24">
  <defs/>
  <path  d="M18,3 C19.657,3 21,4.343 21,6 L21,10.437 C18.529,9.009 15.439,9.224 13.19,10.98 C10.941,12.736 9.982,15.682 10.768,18.425 L8,20.5 C7.176,21.118 6,20.53 6,19.5 L6,18 L5,18 C3.343,18 2,16.657 2,15 L2,6 C2,4.343 3.343,3 5,3 Z M17.5,12 C19.985,12 22,14.015 22,16.5 C22,18.985 19.985,21 17.5,21 C15.015,21 13,18.985 13,16.5 C13,14.015 15.015,12 17.5,12 Z M19,7 L11,7 C10.471,7.001 10.034,7.413 10.003,7.941 C9.972,8.47 10.358,8.931 10.883,8.993 L11,9 L19,9 C19.529,8.999 19.966,8.587 19.997,8.059 C20.028,7.53 19.642,7.069 19.117,7.007 Z M9,12 L3,12 C2.448,12 2,12.448 2,13 C2,13.552 2.448,14 3,14 L9,14 C9.552,14 10,13.552 10,13 C10,12.448 9.552,12 9,12 Z M7,7 L5,7 C4.471,7.001 4.034,7.413 4.003,7.941 C3.972,8.47 4.358,8.931 4.883,8.993 L5,9 L7,9 C7.529,8.999 7.966,8.587 7.997,8.059 C8.028,7.53 7.642,7.069 7.117,7.007 Z M15.172,15.586 C14.808,16.512 15.028,17.565 15.731,18.268 C16.434,18.971 17.487,19.191 18.413,18.827 Z M17.5,14 C17.178,14 16.87,14.061 16.586,14.172 L19.828,17.414 C20.13,16.644 20.032,15.775 19.567,15.092 C19.101,14.408 18.327,14 17.5,14 Z"/>
</svg>

