<svg xmlns="http://www.w3.org/2000/svg" width="24" height="24">
  <defs/>
  <path  d="M12,2 C17.523,2 22,6.477 22,12 C22,17.523 17.523,22 12,22 C6.477,22 2,17.523 2,12 C2,6.477 6.477,2 12,2 Z M10.75,7.157 C12.884,6.605 15.128,7.514 16.274,9.397 C17.42,11.28 17.198,13.691 15.728,15.333 C15.366,15.745 15.403,16.372 15.812,16.738 C16.221,17.104 16.848,17.072 17.218,16.667 C19.277,14.368 19.588,10.993 17.983,8.357 C16.379,5.721 13.237,4.447 10.25,5.22 C9.731,5.371 9.426,5.906 9.561,6.429 C9.695,6.952 10.221,7.274 10.748,7.156 Z M12,14 C12.777,14 13.484,13.549 13.812,12.845 C14.14,12.141 14.031,11.31 13.531,10.714 C13.032,10.119 12.233,9.867 11.482,10.068 L7.707,6.293 C7.315,5.914 6.691,5.919 6.305,6.305 C5.919,6.691 5.914,7.315 6.293,7.707 L10.068,11.482 C9.907,12.083 10.034,12.724 10.413,13.217 C10.792,13.711 11.378,14 12,14 Z M7.156,10.75 C7.274,10.223 6.952,9.697 6.429,9.563 C5.906,9.428 5.371,9.733 5.22,10.252 C4.638,12.517 5.224,14.924 6.782,16.668 C7.019,16.938 7.383,17.06 7.735,16.987 C8.087,16.915 8.373,16.659 8.484,16.317 C8.595,15.975 8.514,15.6 8.272,15.334 C7.451,14.418 6.997,13.23 7,12 C7,11.567 7.055,11.148 7.157,10.75 Z"/>
</svg>

