<svg xmlns="http://www.w3.org/2000/svg" width="24" height="24">
  <defs/>
  <path  d="M13,2.05 C17.731,2.527 21.473,6.269 21.95,11 L20,11 C19.448,11 19,11.448 19,12 C19,12.552 19.448,13 20,13 L21.95,13 C21.449,18.053 17.185,22 12,22 C6.815,22 2.551,18.053 2.05,13 L4,13 C4.552,13 5,12.552 5,12 C5,11.448 4.552,11 4,11 L2.05,11 C2.527,6.269 6.269,2.527 11,2.05 L11,4 C11,4.552 11.448,5 12,5 C12.552,5 13,4.552 13,4 Z M17.78,6.22 L12.937,8.685 L12.564,8.882 L11.954,9.192 C11.234,9.562 10.5,9.964 9.949,10.515 C8.978,11.487 8.86,13.103 9.879,14.121 C10.897,15.14 12.513,15.022 13.485,14.051 C13.957,13.579 14.32,12.973 14.647,12.355 L15.118,11.436 L15.48,10.738 Z M13.162,10.838 L12.937,11.264 C12.728,11.666 12.511,12.086 12.239,12.436 L12.071,12.636 C11.793,12.914 11.446,12.86 11.293,12.707 C11.155,12.569 11.097,12.275 11.29,12.015 L11.363,11.93 C11.682,11.636 12.087,11.404 12.493,11.19 L12.736,11.063 C12.882,10.988 13.026,10.913 13.162,10.838 Z"/>
</svg>

