<svg xmlns="http://www.w3.org/2000/svg" width="24" height="24">
  <defs/>
  <path  d="M12,1.5 C17.799,1.5 22.5,6.201 22.5,12 C22.5,14.904 21.32,17.535 19.415,19.434 A1.51 1.51 0 0 1 17.262,19.414 L16.42,18.541 A1.5 1.5 0 0 1 18.224,16.186 A7.5 7.5 0 1 0 5.775,16.186 A1.5 1.5 0 0 1 7.58,18.541 L6.738,19.414 A1.51 1.51 0 0 1 4.585,19.434 A10.472 10.472 0 0 1 1.5,12 C1.5,6.201 6.201,1.5 12,1.5 M12,5.5 A1.5 1.5 0 0 1 13.5,7 L13.5,11.401 A2.999 2.999 0 0 1 12,17 A3 3 0 0 1 10.5,11.401 L10.5,7 A1.5 1.5 0 0 1 12,5.5"/>
</svg>

