<svg xmlns="http://www.w3.org/2000/svg" width="24" height="24">
  <defs/>
  <path  d="M12,2 C14.308,1.997 16.545,2.795 18.33,4.258 L13.293,9.292 C11.993,8.671 10.435,9.061 9.582,10.222 C8.729,11.382 8.821,12.986 9.802,14.041 C10.782,15.096 12.375,15.305 13.595,14.539 C14.815,13.773 15.318,12.248 14.793,10.906 L14.708,10.706 L19.742,5.67 C21.205,7.455 22.004,9.692 22,12 C22,17.523 17.523,22 12,22 C6.477,22 2,17.523 2,12 C2,6.477 6.477,2 12,2 Z M7.094,5.68 C6.672,6.009 6.283,6.378 5.934,6.784 L5.68,7.094 L6.343,7.757 C6.716,8.133 7.317,8.154 7.715,7.804 C8.112,7.453 8.167,6.854 7.841,6.437 L7.757,6.343 Z M12,4 C11.666,4 11.332,4.021 11,4.062 L11,5 C11,5.552 11.448,6 12,6 C12.552,6 13,5.552 13,5 L13,4.062 C12.668,4.021 12.334,4 12,4 Z M19.938,11 L19,11 C18.471,11.001 18.034,11.413 18.003,11.941 C17.972,12.47 18.358,12.931 18.883,12.993 L19,13 L19.938,13 C20.007,12.446 20.018,11.886 19.972,11.33 Z M5,11 L4.062,11 C3.993,11.554 3.982,12.114 4.028,12.67 L4.062,13 L5,13 C5.529,12.999 5.966,12.587 5.997,12.059 C6.028,11.53 5.642,11.069 5.117,11.007 Z M12,11 C12.552,11 13,11.448 13,12 C13,12.552 12.552,13 12,13 C11.448,13 11,12.552 11,12 C11,11.448 11.448,11 12,11 Z"/>
</svg>

