<svg xmlns="http://www.w3.org/2000/svg" width="24" height="24">
  <defs/>
  <path  d="M12,2 C14.54,1.996 16.986,2.963 18.837,4.702 L19.071,4.929 C20.949,6.803 22.003,9.347 22,12 C22,17.523 17.523,22 12,22 C6.477,22 2,17.523 2,12 C2,6.477 6.477,2 12,2 Z M13,4.062 L13,5 C13,5.552 12.552,6 12,6 C11.448,6 11,5.552 11,5 L11,4.062 C9.576,4.239 8.226,4.798 7.094,5.68 L7.757,6.343 C8.017,6.594 8.121,6.966 8.03,7.316 C7.938,7.665 7.665,7.938 7.316,8.03 C6.966,8.121 6.594,8.017 6.343,7.757 L5.68,7.094 C4.798,8.226 4.239,9.576 4.062,11 L5,11 C5.552,11 6,11.448 6,12 C6,12.552 5.552,13 5,13 L4.062,13 C4.567,17 7.969,19.999 12,19.999 C16.031,19.999 19.433,17 19.938,13 L19,13 C18.448,13 18,12.552 18,12 C18,11.448 18.448,11 19,11 L19.938,11 C19.761,9.576 19.202,8.226 18.32,7.094 L14.708,10.707 C15.338,12.025 14.926,13.606 13.733,14.449 C12.54,15.293 10.913,15.155 9.88,14.121 C8.846,13.088 8.708,11.461 9.552,10.268 C10.395,9.075 11.976,8.663 13.294,9.293 L16.906,5.68 C15.774,4.798 14.424,4.239 13,4.062 Z M12,11 C11.448,11 11,11.448 11,12 C11,12.552 11.448,13 12,13 C12.552,13 13,12.552 13,12 C13,11.448 12.552,11 12,11 Z"/>
</svg>

