<svg xmlns="http://www.w3.org/2000/svg" width="24" height="24">
  <defs/>
  <path  d="M12,2 C17.523,2 22,6.477 22,12 C22,17.523 17.523,22 12,22 C6.477,22 2,17.523 2,12 C2,6.477 6.477,2 12,2 M12,4 A8 8 0 1 0 12,20 A8 8 0 0 0 12,4 M12,6 A6 6 0 0 1 16.8,15.6 A1 1 0 1 1 15.2,14.4 A4 4 0 0 0 11.198,8.08 A1 1 0 0 1 10.801,6.12 A6.02 6.02 0 0 1 12,6 M6.12,10.801 A1 1 0 1 1 8.08,11.199 C8.028,11.457 8,11.725 8,12 C8,12.902 8.297,13.731 8.8,14.4 A1 1 0 0 1 7.2,15.6 A5.978 5.978 0 0 1 6,12 C6,11.59 6.041,11.19 6.12,10.801 M8.707,7.293 L11.482,10.068 A2 2 0 1 1 10.068,11.482 L7.293,8.707 A1 1 0 0 1 8.707,7.293"/>
</svg>

