<svg xmlns="http://www.w3.org/2000/svg" width="24" height="24">
  <defs/>
  <path  d="M12,2 C17.523,2 22,6.477 22,12 C22,17.523 17.523,22 12,22 C6.477,22 2,17.523 2,12 C2,6.477 6.477,2 12,2 Z M13,4.062 L13,5 C12.999,5.529 12.587,5.966 12.059,5.997 C11.53,6.028 11.069,5.642 11.007,5.117 L11,5 L11,4.062 C7.471,4.508 4.659,7.229 4.098,10.742 L4.062,11 L5,11 C5.529,11.001 5.966,11.413 5.997,11.941 C6.028,12.47 5.642,12.931 5.117,12.993 L5,13 L4.062,13 C4.562,16.951 7.891,19.934 11.874,19.996 C15.856,20.059 19.278,17.184 19.902,13.25 L19.938,13 L19,13 C18.471,12.999 18.034,12.587 18.003,12.059 C17.972,11.53 18.358,11.069 18.883,11.007 L19,11 L19.938,11 C19.72,9.256 18.932,7.633 17.697,6.383 L15.273,11.142 L15.118,11.436 L14.808,12.046 C14.438,12.766 14.036,13.5 13.485,14.051 C12.513,15.022 10.897,15.14 9.879,14.121 C8.86,13.103 8.978,11.487 9.949,10.515 C10.421,10.043 11.027,9.68 11.645,9.353 L12.564,8.882 L13.413,8.438 L17.616,6.303 C16.366,5.068 14.744,4.28 13,4.062 Z M13.162,10.838 L12.736,11.063 C12.334,11.272 11.914,11.489 11.564,11.761 L11.363,11.931 L11.29,12.015 C11.097,12.275 11.155,12.569 11.293,12.707 C11.431,12.845 11.725,12.903 11.985,12.71 L12.071,12.636 L12.239,12.436 C12.456,12.156 12.639,11.831 12.81,11.506 L12.937,11.264 C13.012,11.118 13.087,10.974 13.162,10.838 Z"/>
</svg>

