<svg xmlns="http://www.w3.org/2000/svg" width="24" height="24">
  <defs/>
  <path  d="M4,3 A1 1 0 0 1 5,4 C5,4.996 5.427,6.063 6.086,7.077 A6.005 6.005 0 0 1 7.293,5.293 A1 1 0 0 1 8.707,6.707 C8.048,7.367 7.742,8.232 7.561,8.894 C7.941,9.279 8.311,9.607 8.634,9.861 A6.969 6.969 0 0 1 12,9 C13.22,9 14.367,9.312 15.366,9.86 C15.689,9.607 16.06,9.28 16.439,8.894 C16.258,8.232 15.952,7.366 15.293,6.707 A1 1 0 0 1 16.707,5.293 A6.02 6.02 0 0 1 17.914,7.077 C18.574,6.063 19,4.996 19,4 A1 1 0 1 1 21,4 C21,5.814 20.105,7.526 19.113,8.85 A14.518 14.518 0 0 1 17.003,11.104 A6.977 6.977 0 0 1 19,16 C19,17.792 18.325,19.43 17.217,20.667 A1 1 0 1 1 15.727,19.333 A5 5 0 1 0 8.273,19.333 A1 1 0 1 1 6.783,20.667 A6.978 6.978 0 0 1 5,16 C5,14.094 5.762,12.366 6.997,11.104 A14.521 14.521 0 0 1 4.887,8.85 C3.896,7.526 3,5.814 3,4 A1 1 0 0 1 4,3"/>
</svg>

