<svg xmlns="http://www.w3.org/2000/svg" width="24" height="24">
  <defs/>
  <path  d="M4,2.5 A1.5 1.5 0 0 1 5.5,4 C5.5,4.64 5.706,5.338 6.067,6.049 A6.11 6.11 0 0 1 6.939,4.939 A1.5 1.5 0 1 1 9.061,7.061 C8.573,7.549 8.301,8.179 8.124,8.749 C8.322,8.94 8.514,9.113 8.694,9.266 A7.47 7.47 0 0 1 12,8.5 A7.47 7.47 0 0 1 15.305,9.266 C15.485,9.113 15.678,8.94 15.875,8.749 C15.698,8.179 15.427,7.549 14.939,7.061 A1.5 1.5 0 0 1 17.061,4.939 C17.411,5.29 17.698,5.669 17.933,6.049 C18.294,5.338 18.5,4.639 18.5,4 A1.5 1.5 0 0 1 21.5,4 C21.5,5.972 20.533,7.79 19.512,9.15 A15.048 15.048 0 0 1 17.712,11.14 A7.47 7.47 0 0 1 19.5,16 C19.5,17.92 18.777,19.674 17.59,21 A1.5 1.5 0 1 1 15.355,19 A4.5 4.5 0 1 0 8.646,19 A1.5 1.5 0 0 1 6.41,21 A7.478 7.478 0 0 1 4.5,16 A7.47 7.47 0 0 1 6.287,11.14 A15.05 15.05 0 0 1 4.487,9.15 C3.468,7.79 2.5,5.972 2.5,4 A1.5 1.5 0 0 1 4,2.5"/>
</svg>

