<svg xmlns="http://www.w3.org/2000/svg" width="24" height="24">
  <defs/>
  <path  d="M8.108,3 L19,3 C20.657,3 22,4.343 22,6 L22,18 C22,19.657 20.657,21 19,21 L8.108,21 C7.074,21 6.112,20.467 5.564,19.59 L1.484,13.06 C1.079,12.411 1.079,11.589 1.484,10.94 L5.564,4.41 C6.112,3.533 7.074,3 8.108,3 Z M16.535,15.536 C16.723,15.348 16.828,15.094 16.828,14.828 C16.828,14.563 16.723,14.309 16.535,14.121 L14.415,12 L16.535,9.879 C16.926,9.489 16.926,8.855 16.535,8.465 C16.145,8.074 15.512,8.074 15.121,8.464 L13,10.586 L10.879,8.464 C10.488,8.073 9.855,8.073 9.464,8.464 C9.073,8.855 9.073,9.488 9.464,9.879 L11.586,12 L9.464,14.121 C9.073,14.512 9.073,15.145 9.464,15.536 C9.855,15.927 10.488,15.927 10.879,15.536 L13,13.414 L15.121,15.536 C15.511,15.926 16.145,15.926 16.535,15.536 Z"/>
</svg>

