<svg xmlns="http://www.w3.org/2000/svg" width="24" height="24">
  <defs/>
  <path  d="M14.28,2 C15.141,2 15.905,2.551 16.177,3.368 L16.72,5 L20,5 C20.552,5 21,5.448 21,6 C21,6.552 20.552,7 20,7 L19.997,7.071 L19.13,19.214 C19.018,20.784 17.712,22 16.138,22 L7.862,22 C6.288,22 4.982,20.784 4.87,19.214 L4.003,7.07 C4.001,7.047 4,7.023 4,7 C3.448,7 3,6.552 3,6 C3,5.448 3.448,5 4,5 L7.28,5 L7.823,3.368 C8.095,2.551 8.86,2 9.721,2 Z M15,10 C14.448,10 14,10.448 14,11 L14,17 C14,17.552 14.448,18 15,18 C15.552,18 16,17.552 16,17 L16,11 C16,10.448 15.552,10 15,10 Z M9,10 C8.493,10 8.066,10.38 8.007,10.883 L8,11 L8,17 C8.001,17.529 8.413,17.966 8.941,17.997 C9.47,18.028 9.931,17.642 9.993,17.117 L10,17 L10,11 C10,10.448 9.552,10 9,10 Z M14.28,4 L9.72,4 L9.387,5 L14.613,5 Z"/>
</svg>

