<svg xmlns="http://www.w3.org/2000/svg" width="24" height="24">
  <defs/>
  <path  d="M19,3 A3 3 0 0 1 21.995,5.824 L22,6 L22,18 A3 3 0 0 1 19.176,20.995 L19,21 L8.108,21 A3 3 0 0 1 5.672,19.75 L5.564,19.59 L1.484,13.06 A2 2 0 0 1 1.397,11.093 L1.483,10.94 L5.564,4.41 A3 3 0 0 1 7.915,3.006 L8.108,3 Z M19,5 L8.108,5 A1 1 0 0 0 7.335,5.366 L7.26,5.47 L3.18,12 L7.26,18.53 A1 1 0 0 0 7.98,18.992 L8.108,19 L19,19 A1 1 0 0 0 19.993,18.117 L20,18 L20,6 A1 1 0 0 0 19.117,5.007 Z M10.879,8.464 L12.999,10.586 L15.121,8.464 A1 1 0 1 1 16.535,9.879 L14.415,12 L16.535,14.121 A1 1 0 0 1 15.121,15.536 L13,13.414 L10.879,15.536 A1 1 0 1 1 9.464,14.121 L11.586,12 L9.464,9.879 A1 1 0 0 1 10.879,8.464"/>
</svg>

