<svg xmlns="http://www.w3.org/2000/svg" width="24" height="24">
  <defs/>
  <path  d="M5.41,3.654 C6.143,3.219 7.011,3 8,3 C8.976,3 9.808,3.493 10.382,3.833 C10.868,4.123 11.412,4.5 12,4.5 C12.588,4.5 13.132,4.122 13.618,3.833 C14.193,3.494 15.025,3 16,3 C16.99,3 17.858,3.219 18.59,3.654 C19.322,4.089 19.863,4.708 20.246,5.422 C20.996,6.818 21.166,8.614 21.063,10.362 C20.958,12.137 20.563,13.993 20.062,15.607 C19.564,17.208 18.938,18.645 18.332,19.555 C17.636,20.598 16.669,21.117 15.644,20.973 C14.703,20.841 13.972,20.18 13.606,19.447 C13.215,18.665 13.034,17.792 12.691,16.989 C12.521,16.593 12.358,16.313 12.206,16.144 C12.046,15.968 11.949,15.973 11.795,16.144 C11.642,16.313 11.479,16.593 11.309,16.989 C10.966,17.792 10.786,18.665 10.395,19.447 C10.028,20.18 9.297,20.841 8.357,20.973 C7.331,21.117 6.364,20.598 5.668,19.555 C5.062,18.645 4.436,17.208 3.938,15.607 C3.437,13.993 3.042,12.137 2.938,10.363 C2.834,8.613 3.004,6.818 3.754,5.422 C4.137,4.708 4.678,4.089 5.41,3.654 Z"/>
</svg>

