<svg xmlns="http://www.w3.org/2000/svg" width="24" height="24">
  <defs/>
  <path  d="M5.41,3.654 C6.143,3.219 7.011,3 8,3 C9.03,3 9.9,3.55 10.475,3.889 C11.15,4.287 11.565,4.5 12,4.5 C12.434,4.5 12.85,4.287 13.525,3.889 C14.101,3.549 14.97,3 16,3 C16.99,3 17.858,3.219 18.59,3.654 C19.322,4.089 19.863,4.708 20.246,5.422 C20.996,6.818 21.166,8.614 21.063,10.362 C20.958,12.137 20.563,13.993 20.062,15.607 C19.564,17.208 18.938,18.645 18.332,19.555 C17.636,20.598 16.669,21.117 15.644,20.973 C14.703,20.841 13.972,20.18 13.606,19.447 C13.215,18.665 13.034,17.792 12.691,16.989 C12.683,16.97 12.673,16.946 12.661,16.917 C12.55,16.644 12.282,15.987 12.001,16 C11.626,16 11.424,16.72 11.309,16.99 C10.966,17.792 10.786,18.665 10.395,19.447 C10.028,20.18 9.297,20.841 8.357,20.973 C7.331,21.117 6.364,20.598 5.668,19.555 C5.062,18.645 4.436,17.208 3.938,15.607 C3.437,13.993 3.042,12.137 2.938,10.363 C2.834,8.613 3.004,6.818 3.754,5.422 C4.137,4.708 4.678,4.089 5.41,3.654 Z M5.848,15.014 C6.318,16.524 6.875,17.76 7.332,18.445 C7.484,18.673 7.756,19.037 8.079,18.992 C8.243,18.969 8.472,18.82 8.606,18.552 C8.977,17.81 9.143,16.967 9.47,16.202 C9.67,15.733 9.938,15.216 10.31,14.803 C10.697,14.375 11.257,14 12,14 C12.743,14 13.303,14.375 13.69,14.803 C14.062,15.216 14.33,15.733 14.53,16.203 C14.857,16.967 15.023,17.81 15.395,18.553 C15.528,18.82 15.757,18.969 15.922,18.993 C16.244,19.037 16.516,18.673 16.668,18.445 C17.125,17.76 17.683,16.525 18.152,15.014 C18.617,13.516 18.973,11.822 19.067,10.244 C19.161,8.643 18.977,7.286 18.484,6.368 C18.246,5.925 17.944,5.596 17.568,5.373 C17.192,5.15 16.69,5 16,5 C15.61,5 15.223,5.21 14.49,5.641 C13.895,5.993 13.036,6.5 12,6.5 C10.934,6.5 10.056,5.963 9.459,5.611 C8.762,5.201 8.382,5 8,5 C7.311,5 6.808,5.15 6.432,5.373 C6.057,5.596 5.754,5.925 5.516,6.368 C5.023,7.286 4.839,8.643 4.934,10.245 C5.027,11.822 5.383,13.516 5.848,15.014 Z"/>
</svg>

