<svg xmlns="http://www.w3.org/2000/svg" width="24" height="24">
  <defs/>
  <path  d="M15,6 C15,7.272 14.199,8.406 13,8.83 L13,11 L16,11 C17.657,11 19,12.343 19,14 L19,15.17 C20.378,15.657 21.205,17.066 20.958,18.507 C20.711,19.947 19.462,21 18,21 C16.538,21 15.289,19.947 15.042,18.507 C14.795,17.066 15.622,15.657 17,15.17 L17,14 C17,13.448 16.552,13 16,13 L8,13 C7.448,13 7,13.448 7,14 L7,15.17 C8.378,15.657 9.205,17.066 8.958,18.507 C8.711,19.947 7.462,21 6,21 C4.538,21 3.289,19.947 3.042,18.507 C2.795,17.066 3.622,15.657 5,15.17 L5,14 C5,12.343 6.343,11 8,11 L11,11 L11,8.83 C9.561,8.322 8.732,6.814 9.074,5.327 C9.417,3.84 10.821,2.846 12.338,3.018 C13.854,3.191 15,4.474 15,6 Z M12,5 C11.448,5 11,5.448 11,6 C11,6.552 11.448,7 12,7 C12.552,7 13,6.552 13,6 C13,5.448 12.552,5 12,5 Z M6,17 C5.448,17 5,17.448 5,18 C5,18.552 5.448,19 6,19 C6.552,19 7,18.552 7,18 C7,17.448 6.552,17 6,17 Z M18,17 C17.448,17 17,17.448 17,18 C17,18.552 17.448,19 18,19 C18.552,19 19,18.552 19,18 C19,17.448 18.552,17 18,17 Z"/>
</svg>

