<svg xmlns="http://www.w3.org/2000/svg" width="24" height="24">
  <defs/>
  <path  d="M19.83,4.829 C19.921,5.174 19.822,5.541 19.57,5.793 L17.804,7.56 C18.959,8.734 18.951,10.621 17.786,11.785 C16.621,12.95 14.735,12.957 13.561,11.802 L11.794,13.57 C11.542,13.822 11.175,13.921 10.83,13.829 C10.486,13.738 10.216,13.47 10.122,13.126 L9.085,9.329 L6.287,12.127 L11.535,20 L14,20 C14.552,20 15,20.448 15,21 C15,21.552 14.552,22 14,22 L8,22 C7.448,22 7,21.552 7,21 C7,20.448 7.448,20 8,20 L9.13,20 L4.622,13.237 C4.093,12.444 4.198,11.387 4.872,10.713 L8.478,7.107 L7.998,5.349 C7.904,5.003 8.002,4.633 8.256,4.379 L10.378,2.257 C10.632,2.004 11.002,1.905 11.348,2 L19.126,4.12 C19.47,4.214 19.738,4.484 19.829,4.829 Z M14.974,10.389 C15.366,10.768 15.99,10.763 16.376,10.377 C16.762,9.991 16.767,9.367 16.388,8.975 Z"/>
</svg>

