<svg xmlns="http://www.w3.org/2000/svg" width="24" height="24">
  <defs/>
  <path  d="M19.83,4.829 C19.921,5.174 19.822,5.541 19.57,5.793 L17.804,7.56 C18.959,8.734 18.952,10.62 17.787,11.785 C16.623,12.95 14.736,12.958 13.562,11.803 L11.794,13.571 C11.542,13.823 11.175,13.922 10.83,13.83 C10.486,13.739 10.216,13.471 10.122,13.127 L9.085,9.329 L6.287,12.127 L11.535,20 L14,20 C14.552,20 15,20.448 15,21 C15,21.552 14.552,22 14,22 L8,22 C7.448,22 7,21.552 7,21 C7,20.448 7.448,20 8,20 L9.13,20 L4.622,13.237 C4.093,12.444 4.198,11.387 4.872,10.713 L8.478,7.107 L7.998,5.349 C7.904,5.003 8.002,4.633 8.256,4.379 L10.377,2.257 C10.631,2.004 11.001,1.905 11.347,2 L19.126,4.12 C19.47,4.214 19.738,4.484 19.829,4.829 Z M11.381,4.082 L10.081,5.382 L11.596,10.938 L16.937,5.598 Z M14.974,10.389 C15.366,10.768 15.99,10.763 16.376,10.377 C16.762,9.991 16.767,9.367 16.388,8.975 Z"/>
</svg>

