<svg xmlns="http://www.w3.org/2000/svg" width="24" height="24">
  <defs/>
  <path  d="M15.28,2 C16.082,2 16.806,2.48 17.12,3.218 L17.177,3.368 L20.729,14.026 C20.874,14.461 20.812,14.939 20.56,15.322 C20.309,15.706 19.896,15.953 19.439,15.994 L19.306,16 L16,16 C16.552,16 17,16.448 17,17 C17,17.552 16.552,18 16,18 C15.448,18 15,17.552 15,17 C15,16.448 15.448,16 16,16 L13,16 L13,20 L16,20 C16.529,20.001 16.966,20.413 16.997,20.941 C17.028,21.47 16.642,21.931 16.117,21.993 L16,22 L8,22 C7.471,21.999 7.034,21.587 7.003,21.059 C6.972,20.53 7.358,20.069 7.883,20.007 L8,20 L11,20 L11,16 L4.694,16 C4.235,16 3.801,15.79 3.516,15.43 C3.231,15.07 3.127,14.599 3.234,14.152 L3.271,14.026 L6.823,3.368 C7.077,2.606 7.761,2.07 8.561,2.006 L8.72,2 Z M15.28,4 L8.72,4 L5.388,14 L18.614,14 Z"/>
</svg>

