<svg xmlns="http://www.w3.org/2000/svg" width="24" height="24">
  <defs/>
  <path  d="M17,3 A2 2 0 0 1 18.492,3.668 L18.6,3.8 L22.304,8.739 A2 2 0 0 1 22.292,11.155 L22.184,11.285 L12.925,21.469 A1.25 1.25 0 0 1 11.172,21.565 L11.075,21.469 L1.816,11.284 A2 2 0 0 1 1.601,8.877 L1.696,8.739 L5.4,3.8 A2 2 0 0 1 6.83,3.007 L7,3 Z M13.69,5.863 L14.328,8.757 A0.2 0.2 0 0 1 14.133,9 L9.867,9 A0.2 0.2 0 0 1 9.672,8.757 L10.31,5.863 C10.356,5.655 10.088,5.529 9.957,5.697 L7.426,8.944 A0.2 0.2 0 0 1 7.313,9.016 L4.086,9.757 C3.883,9.804 3.878,10.092 4.08,10.146 L7.24,10.978 A0.2 0.2 0 0 1 7.364,11.075 L11.824,19.195 A0.2 0.2 0 0 0 12.175,19.195 L16.635,11.075 A0.2 0.2 0 0 1 16.76,10.978 L19.92,10.146 C20.122,10.092 20.117,9.804 19.914,9.757 L16.687,9.016 A0.2 0.2 0 0 1 16.574,8.944 L14.044,5.697 C13.912,5.529 13.644,5.655 13.69,5.863 M14.228,11 A0.2 0.2 0 0 1 14.427,11.218 L14.413,11.274 L12.186,16.844 A0.2 0.2 0 0 1 11.846,16.898 L11.814,16.843 L9.587,11.274 A0.2 0.2 0 0 1 9.715,11.008 L9.772,11 Z"/>
</svg>

