<svg xmlns="http://www.w3.org/2000/svg" width="24" height="24">
  <defs/>
  <path  d="M17,3 C17.57,3 18.113,3.243 18.492,3.668 L18.6,3.8 L22.304,8.739 C22.842,9.456 22.837,10.443 22.292,11.155 L22.184,11.285 L12.925,21.469 C12.465,21.975 11.684,22.018 11.172,21.565 L11.075,21.469 L1.816,11.284 C1.213,10.621 1.125,9.637 1.601,8.877 L1.696,8.739 L5.4,3.8 C5.742,3.344 6.262,3.056 6.83,3.007 L7,3 Z M14.523,11 L9.477,11 L12,17.307 Z M9.382,5 L7,5 L4,9 L7.382,9 Z M17,5 L14.618,5 L16.618,9 L20,9 Z M12.382,5 L11.618,5 L9.618,9 L14.382,9 Z M19.74,11 L16.677,11 L14.271,17.015 Z M7.323,11 L4.261,11 L9.729,17.015 Z"/>
</svg>

