<svg xmlns="http://www.w3.org/2000/svg" width="24" height="24">
  <defs/>
  <path  d="M6,2 L18,2 C19.105,2 20,2.895 20,4 L20,20 C20,21.105 19.105,22 18,22 L6,22 C4.895,22 4,21.105 4,20 L4,19 C3.448,19 3,18.552 3,18 C3,17.448 3.448,17 4,17 L4,15 C3.448,15 3,14.552 3,14 C3,13.448 3.448,13 4,13 L4,11 C3.448,11 3,10.552 3,10 C3,9.448 3.448,9 4,9 L4,7 C3.448,7 3,6.552 3,6 C3,5.448 3.448,5 4,5 L4,4 C4,2.895 4.895,2 6,2 Z M8.5,6 C7.672,6 7,6.672 7,7.5 L7,8.5 C7,9.328 7.672,10 8.5,10 L15.5,10 C16.328,10 17,9.328 17,8.5 L17,7.5 C17,6.672 16.328,6 15.5,6 Z"/>
</svg>

