<svg xmlns="http://www.w3.org/2000/svg" width="24" height="24">
  <defs/>
  <path  d="M18,2 C19.047,2 19.917,2.806 19.995,3.85 L20,4 L20,20 C20,21.047 19.194,21.917 18.15,21.995 L18,22 L6,22 C4.953,22 4.083,21.194 4.005,20.15 L4,20 L4,19 C3.471,18.999 3.034,18.587 3.003,18.059 C2.972,17.53 3.358,17.069 3.883,17.007 L4,17 L4,15 C3.471,14.999 3.034,14.587 3.003,14.059 C2.972,13.53 3.358,13.069 3.883,13.007 L4,13 L4,11 C3.471,10.999 3.034,10.587 3.003,10.059 C2.972,9.53 3.358,9.069 3.883,9.007 L4,9 L4,7 C3.471,6.999 3.034,6.587 3.003,6.059 C2.972,5.53 3.358,5.069 3.883,5.007 L4,5 L4,4 C4,2.953 4.806,2.083 5.85,2.005 L6,2 Z M18,4 L6,4 L6,20 L18,20 Z M15.5,6 C16.273,6 16.919,6.587 16.993,7.356 L17,7.5 L17,9.5 C17,10.273 16.413,10.919 15.644,10.993 L15.5,11 L8.5,11 C7.727,11 7.081,10.413 7.007,9.644 L7,9.5 L7,7.5 C7,6.727 7.587,6.081 8.356,6.007 L8.5,6 Z M15,8 L9,8 L9,9 L15,9 Z"/>
</svg>

