<svg xmlns="http://www.w3.org/2000/svg" width="24" height="24">
  <defs/>
  <path  d="M6.802,2.02 C7.104,1.959 7.417,2.04 7.651,2.24 L17.402,10.599 C18.233,11.311 18.337,12.558 17.637,13.398 L16.577,14.67 L17.447,15.106 C17.761,15.263 17.969,15.573 17.997,15.922 C18.024,16.272 17.866,16.61 17.581,16.814 L10.581,21.814 C10.233,22.062 9.766,22.062 9.418,21.813 C9.07,21.565 8.919,21.122 9.042,20.713 L10.252,16.679 C7.889,15.779 6.505,13.624 6.019,11.196 C5.96,10.9 6.037,10.594 6.23,10.362 C6.422,10.13 6.709,9.997 7.01,10 C6.536,9.297 6.15,8.58 5.876,7.851 C5.227,6.121 5.218,4.328 6.106,2.553 C6.244,2.278 6.5,2.081 6.802,2.02 Z"/>
</svg>

