<svg xmlns="http://www.w3.org/2000/svg" width="24" height="24">
  <defs/>
  <path  d="M14.707,2.293 C15.097,2.683 15.097,3.317 14.707,3.707 L10.414,8 L12.586,8 L18.293,2.293 C18.544,2.033 18.916,1.929 19.266,2.02 C19.615,2.112 19.888,2.385 19.98,2.734 C20.071,3.084 19.967,3.456 19.707,3.707 L15.414,8 L19.938,8 C20.442,8 20.867,8.376 20.93,8.876 C21.429,12.839 19.256,16.657 15.594,18.253 L15.97,19.758 C16.044,20.057 15.977,20.373 15.788,20.616 C15.598,20.858 15.308,21 15,21 L9,21 C8.692,21 8.402,20.858 8.212,20.616 C8.023,20.373 7.956,20.057 8.03,19.758 L8.406,18.253 C4.744,16.657 2.571,12.839 3.07,8.876 C3.133,8.376 3.558,8 4.062,8 L7.586,8 L13.293,2.293 C13.684,1.903 14.316,1.903 14.707,2.293 Z M5,10 C5,13.055 6.98,15.757 9.893,16.678 C10.397,16.837 10.691,17.361 10.563,17.874 L10.28,19 L13.718,19 L13.437,17.874 C13.309,17.361 13.603,16.837 14.107,16.678 C17.02,15.757 19,13.055 19,10 Z"/>
</svg>

