<svg xmlns="http://www.w3.org/2000/svg" width="24" height="24">
  <defs/>
  <path  d="M12,2 C12.552,2 13,2.448 13,3 L13,4 L16.586,4 C17.116,4 17.625,4.211 18,4.586 L19.707,6.293 C20.097,6.683 20.097,7.317 19.707,7.707 L18,9.414 C17.625,9.789 17.116,10 16.586,10 L13,10 L13,11 L14,11 C15.105,11 16,11.895 16,13 L16,15 C16,16.105 15.105,17 14,17 L13,17 L13,20 L15,20 C15.552,20 16,20.448 16,21 C16,21.552 15.552,22 15,22 L9,22 C8.448,22 8,21.552 8,21 C8,20.448 8.448,20 9,20 L11,20 L11,17 L7.414,17 C6.884,17 6.375,16.789 6,16.414 L4.293,14.707 C3.903,14.316 3.903,13.684 4.293,13.293 L6,11.586 C6.375,11.211 6.884,11 7.414,11 L11,11 L11,10 L10,10 C8.895,10 8,9.105 8,8 L8,6 C8,4.895 8.895,4 10,4 L11,4 L11,3 C11,2.448 11.448,2 12,2 Z M14,13 L7.414,13 L6.414,14 L7.414,15 L14,15 Z M16.586,6 L10,6 L10,8 L16.586,8 L17.586,7 Z"/>
</svg>

