<svg xmlns="http://www.w3.org/2000/svg" width="24" height="24">
  <defs/>
  <path  d="M13,3 A1 1 0 1 0 11,3 L11,4 L10,4 A2 2 0 0 0 8,6 L8,8 A2 2 0 0 0 10,10 L11,10 L11,11 L7.414,11 A2 2 0 0 0 6,11.586 L4.293,13.293 A1 1 0 0 0 4.293,14.707 L6,16.414 A2 2 0 0 0 7.414,17 L11,17 L11,20 L9,20 A1 1 0 1 0 9,22 L15,22 A1 1 0 1 0 15,20 L13,20 L13,17 L14,17 A2 2 0 0 0 16,15 L16,13 A2 2 0 0 0 14,11 L13,11 L13,10 L16.586,10 A2 2 0 0 0 18,9.414 L19.707,7.707 A1 1 0 0 0 19.707,6.293 L18,4.586 A2 2 0 0 0 16.586,4 L13,4 Z"/>
</svg>

