<svg xmlns="http://www.w3.org/2000/svg" width="24" height="24">
  <defs/>
  <path  d="M12,2 C17.523,2 22,6.477 22,12 C22,17.523 17.523,22 12,22 C6.477,22 2,17.523 2,12 C2,6.477 6.477,2 12,2 Z M12,5.5 C11.172,5.5 10.5,6.172 10.5,7 C10.5,7.828 11.172,8.5 12,8.5 C12.828,8.5 13.5,7.828 13.5,7 C13.5,6.172 12.828,5.5 12,5.5 Z M7,10.5 C6.172,10.5 5.5,11.172 5.5,12 C5.5,12.828 6.172,13.5 7,13.5 C7.828,13.5 8.5,12.828 8.5,12 C8.5,11.172 7.828,10.5 7,10.5 Z M12,15.5 C11.172,15.5 10.5,16.172 10.5,17 C10.5,17.828 11.172,18.5 12,18.5 C12.828,18.5 13.5,17.828 13.5,17 C13.5,16.172 12.828,15.5 12,15.5 Z M17,10.5 C16.172,10.5 15.5,11.172 15.5,12 C15.5,12.828 16.172,13.5 17,13.5 C17.828,13.5 18.5,12.828 18.5,12 C18.5,11.172 17.828,10.5 17,10.5 Z"/>
</svg>

