<svg xmlns="http://www.w3.org/2000/svg" width="24" height="24">
  <defs/>
  <path  d="M12,2 C17.523,2 22,6.477 22,12 C22,17.523 17.523,22 12,22 C6.477,22 2,17.523 2,12 C2,6.477 6.477,2 12,2 Z M7.707,10.293 C7.351,9.937 6.785,9.901 6.387,10.21 L6.293,10.293 L5.293,11.293 C4.937,11.649 4.901,12.215 5.21,12.613 L5.293,12.707 L6.293,13.707 C6.666,14.079 7.265,14.097 7.66,13.749 C8.056,13.4 8.113,12.804 7.79,12.387 L7.707,12.293 L7.414,12 L7.707,11.707 C8.097,11.316 8.097,10.684 7.707,10.293 Z M17.707,10.293 C17.334,9.921 16.735,9.903 16.34,10.251 C15.944,10.6 15.887,11.196 16.21,11.613 L16.293,11.707 L16.586,12 L16.293,12.293 C15.921,12.666 15.903,13.265 16.251,13.66 C16.6,14.056 17.196,14.113 17.613,13.79 L17.707,13.707 L18.707,12.707 C19.063,12.351 19.099,11.785 18.79,11.387 L18.707,11.293 Z M12.707,5.293 C12.351,4.937 11.785,4.901 11.387,5.21 L11.293,5.293 L10.293,6.293 C9.921,6.666 9.903,7.265 10.251,7.66 C10.6,8.056 11.196,8.113 11.613,7.79 L11.707,7.707 L12,7.414 L12.293,7.707 C12.666,8.079 13.265,8.097 13.66,7.749 C14.056,7.4 14.113,6.804 13.79,6.387 L13.707,6.293 Z M10.293,16.293 C9.903,16.684 9.903,17.316 10.293,17.707 L11.293,18.707 C11.684,19.097 12.316,19.097 12.707,18.707 L13.707,17.707 C14.086,17.315 14.081,16.691 13.695,16.305 C13.309,15.919 12.685,15.914 12.293,16.293 L12,16.586 L11.707,16.293 C11.316,15.903 10.684,15.903 10.293,16.293 Z"/>
</svg>

