<svg xmlns="http://www.w3.org/2000/svg" width="24" height="24">
  <defs/>
  <path  d="M2,12 C2,6.477 6.477,2 12,2 C17.523,2 22,6.477 22,12 C22,17.523 17.523,22 12,22 C6.477,22 2,17.523 2,12 Z M12,4 C7.582,4 4,7.582 4,12 C4,16.418 7.582,20 12,20 C16.418,20 20,16.418 20,12 C20,7.582 16.418,4 12,4 Z M7.707,11.707 L7.414,12 L7.707,12.293 C7.967,12.544 8.071,12.916 7.98,13.266 C7.888,13.615 7.615,13.888 7.266,13.98 C6.916,14.071 6.544,13.967 6.293,13.707 L5.293,12.707 C4.903,12.316 4.903,11.684 5.293,11.293 L6.293,10.293 C6.544,10.033 6.916,9.929 7.266,10.02 C7.615,10.112 7.888,10.385 7.98,10.734 C8.071,11.084 7.967,11.456 7.707,11.707 Z M12,7.414 L11.707,7.707 C11.456,7.967 11.084,8.071 10.734,7.98 C10.385,7.888 10.112,7.615 10.02,7.266 C9.929,6.916 10.033,6.544 10.293,6.293 L11.293,5.293 C11.684,4.903 12.316,4.903 12.707,5.293 L13.707,6.293 C14.086,6.685 14.081,7.309 13.695,7.695 C13.309,8.081 12.685,8.086 12.293,7.707 Z M17.707,10.293 L18.707,11.293 C19.097,11.684 19.097,12.316 18.707,12.707 L17.707,13.707 C17.315,14.086 16.691,14.081 16.305,13.695 C15.919,13.309 15.914,12.685 16.293,12.293 L16.586,12 L16.293,11.707 C15.914,11.315 15.919,10.691 16.305,10.305 C16.691,9.919 17.315,9.914 17.707,10.293 Z M12,16.586 L12.293,16.293 C12.685,15.914 13.309,15.919 13.695,16.305 C14.081,16.691 14.086,17.315 13.707,17.707 L12.707,18.707 C12.316,19.097 11.684,19.097 11.293,18.707 L10.293,17.707 C9.914,17.315 9.919,16.691 10.305,16.305 C10.691,15.919 11.315,15.914 11.707,16.293 Z"/>
</svg>

