<svg xmlns="http://www.w3.org/2000/svg" width="24" height="24">
  <defs/>
  <path  d="M6,3 C7.463,2.998 8.714,4.051 8.961,5.493 C9.209,6.935 8.38,8.345 7,8.83 L7,11 L15.17,11 C15.657,9.622 17.066,8.795 18.507,9.042 C19.947,9.289 21,10.538 21,12 C21,13.462 19.947,14.711 18.507,14.958 C17.066,15.205 15.657,14.378 15.17,13 L7,13 L7,17 C7,17.552 7.448,18 8,18 L15.17,18 C15.657,16.622 17.066,15.795 18.507,16.042 C19.947,16.289 21,17.538 21,19 C21,20.462 19.947,21.711 18.507,21.958 C17.066,22.205 15.657,21.378 15.17,20 L8,20 C6.343,20 5,18.657 5,17 L5,8.83 C3.623,8.342 2.797,6.934 3.044,5.494 C3.291,4.054 4.539,3.001 6,3 Z M18,11 C17.448,11 17,11.448 17,12 C17,12.552 17.448,13 18,13 C18.552,13 19,12.552 19,12 C19,11.448 18.552,11 18,11 Z M6,5 C5.448,5 5,5.448 5,6 C5,6.552 5.448,7 6,7 C6.552,7 7,6.552 7,6 C7,5.448 6.552,5 6,5 Z M18,18 C17.448,18 17,18.448 17,19 C17,19.552 17.448,20 18,20 C18.552,20 19,19.552 19,19 C19,18.448 18.552,18 18,18 Z"/>
</svg>

