<svg xmlns="http://www.w3.org/2000/svg" width="24" height="24">
  <defs/>
  <path  d="M15,2 A3 3 0 0 1 15.74,7.908 L13.293,13.5 L15.6,13.5 A3.5 3.5 0 0 1 18.89,15.804 L20.206,19.426 L20.672,19.658 A1.5 1.5 0 1 1 19.33,22.342 L18.33,21.842 A1.5 1.5 0 0 1 17.591,21.012 L16.07,16.83 A0.5 0.5 0 0 0 15.6,16.501 L13.294,16.501 C11.131,16.501 9.679,14.281 10.546,12.299 L11.389,10.372 L10,9.677 L6.67,11.342 A1.5 1.5 0 1 1 5.33,8.658 L8.882,6.882 A2.5 2.5 0 0 1 11.118,6.882 L12.592,7.619 L12.831,7.073 A3 3 0 0 1 15,2 M4.182,11.761 L5.818,12.913 A4.5 4.5 0 1 0 13.408,17.733 L13.51,17.545 L15.29,18.455 A6.5 6.5 0 1 1 4.027,11.991 Z"/>
</svg>

