<svg xmlns="http://www.w3.org/2000/svg" width="24" height="24">
  <defs/>
  <path  d="M12,5 C12,3.363 13.312,2.029 14.948,2.001 C16.584,1.972 17.941,3.26 17.998,4.896 C18.055,6.532 16.79,7.911 15.156,7.996 L12.836,13.3 C12.769,13.454 12.784,13.632 12.876,13.773 C12.968,13.914 13.125,14 13.293,14 L15.6,14 C16.862,14 17.989,14.789 18.42,15.975 L19.805,19.784 L20.448,20.106 C20.779,20.259 21.001,20.58 21.026,20.944 C21.052,21.307 20.877,21.656 20.571,21.854 C20.265,22.052 19.875,22.067 19.554,21.894 L18.554,21.394 C18.325,21.28 18.149,21.082 18.061,20.842 L16.54,16.658 C16.396,16.263 16.021,16 15.6,16 L13.294,16 C11.492,16 10.282,14.15 11.004,12.498 L12.037,10.136 L10,9.118 L6.447,10.894 C6.126,11.067 5.736,11.052 5.43,10.854 C5.124,10.656 4.949,10.307 4.975,9.944 C5,9.58 5.222,9.259 5.553,9.106 L9.106,7.329 C9.669,7.048 10.331,7.048 10.894,7.329 L12.839,8.302 L13.225,7.419 C12.454,6.854 11.999,5.956 12,5 Z M5.818,12.913 C4.854,14.291 4.739,16.09 5.519,17.58 C6.299,19.069 7.844,20 9.525,19.992 C11.206,19.985 12.743,19.041 13.51,17.545 L15.29,18.455 C14.182,20.617 11.962,21.981 9.532,21.992 C7.103,22.002 4.871,20.657 3.745,18.504 C2.619,16.351 2.788,13.75 4.182,11.761 Z M15,4 C14.448,4 14,4.448 14,5 C14,5.552 14.448,6 15,6 C15.552,6 16,5.552 16,5 C16,4.448 15.552,4 15,4 Z"/>
</svg>

