<svg xmlns="http://www.w3.org/2000/svg" width="24" height="24">
  <defs/>
  <path  d="M8,5 C8.001,3.475 9.146,2.193 10.662,2.021 C12.178,1.849 13.581,2.842 13.923,4.328 C14.266,5.815 13.438,7.322 12,7.83 L12,9.28 L14.162,10 L16,10 C16.552,10 17,10.448 17,11 C17,11.552 16.552,12 16,12 L14,12 C13.893,12 13.786,11.983 13.684,11.949 L12,11.387 L12,13 C12,13.552 12.448,14 13,14 L15,14 C15.944,14 16.833,14.445 17.4,15.2 L19.5,18 L20,18 C20.552,18 21,18.448 21,19 C21,19.552 20.552,20 20,20 L19,20 C18.685,20 18.389,19.852 18.2,19.6 L15.8,16.4 C15.611,16.148 15.315,16 15,16 L13,16 C11.343,16 10,14.657 10,13 L10,7.829 C8.801,7.405 8,6.271 8,5 Z M8.272,11.17 C6.293,11.732 4.948,13.565 5.004,15.621 C5.06,17.677 6.503,19.434 8.51,19.888 C10.516,20.341 12.575,19.377 13.51,17.545 L15.29,18.455 C13.938,21.101 10.964,22.494 8.066,21.838 C5.168,21.181 3.084,18.643 3.004,15.673 C2.924,12.703 4.868,10.056 7.727,9.245 Z M11,4 C10.448,4 10,4.448 10,5 C10,5.552 10.448,6 11,6 C11.552,6 12,5.552 12,5 C12,4.448 11.552,4 11,4 Z"/>
</svg>

