<svg xmlns="http://www.w3.org/2000/svg" width="24" height="24">
  <defs/>
  <path  d="M7.728,9.245 L8.272,11.169 A4.5 4.5 0 1 0 13.408,17.732 L13.51,17.545 L15.29,18.455 A6.5 6.5 0 1 1 7.488,9.317 Z M11,2 A3 3 0 0 1 12.5,7.599 L12.5,8.919 L14.243,9.5 L16,9.5 A1.5 1.5 0 0 1 16,12.5 L14,12.5 C13.839,12.5 13.679,12.474 13.526,12.423 L12.5,12.081 L12.5,13 A0.5 0.5 0 0 0 13,13.5 L15,13.5 A3.5 3.5 0 0 1 17.8,14.9 L19.75,17.5 L20,17.5 A1.5 1.5 0 0 1 20,20.5 L19,20.5 A1.5 1.5 0 0 1 17.8,19.9 L15.4,16.7 A0.5 0.5 0 0 0 15,16.5 L13,16.5 A3.5 3.5 0 0 1 9.5,13 L9.5,7.599 A3 3 0 0 1 11,2"/>
</svg>

