<svg xmlns="http://www.w3.org/2000/svg" width="24" height="24">
  <defs/>
  <path  d="M15.003,4 L15.004,4 C15.748,4 16.533,4.26 17.253,4.547 L17.78,4.763 C19.04,5.291 19.748,6.399 20.297,7.616 C21.188,9.591 21.807,12.224 22.021,14.226 C22.123,15.176 22.148,16.132 21.965,16.775 C21.768,17.462 21.098,17.948 20.447,18.33 L20.125,18.513 L19.791,18.699 C19.619,18.795 19.442,18.89 19.266,18.983 L18.744,19.253 L18.027,19.61 L17.45,19.894 C17.129,20.067 16.739,20.052 16.433,19.854 C16.127,19.656 15.952,19.307 15.978,18.944 C16.003,18.58 16.225,18.259 16.556,18.106 L17.346,17.716 L16.766,17.107 C15.376,17.677 13.739,18 12,18 C10.261,18 8.624,17.678 7.234,17.107 L6.654,17.715 L7.447,18.105 C7.941,18.352 8.142,18.953 7.895,19.447 C7.648,19.941 7.047,20.142 6.553,19.895 L6.009,19.625 C5.607,19.425 5.204,19.227 4.806,19.018 L3.878,18.513 L3.557,18.33 C2.906,17.948 2.235,17.462 2.039,16.775 C1.855,16.132 1.881,15.177 1.982,14.225 C2.196,12.224 2.815,9.591 3.706,7.616 C4.255,6.399 4.963,5.291 6.223,4.763 C7.059,4.413 8.072,4 9,4 C9.603,4 10.077,4.555 9.99,5.147 C10.655,5.049 11.327,4.999 12,5 C12.691,5 13.366,5.05 14.014,5.148 C13.975,4.861 14.061,4.571 14.25,4.351 C14.44,4.132 14.713,4.004 15.003,4 Z M8.75,10.5 C7.784,10.5 7,11.284 7,12.25 C7,13.216 7.784,14 8.75,14 C9.716,14 10.5,13.216 10.5,12.25 C10.5,11.284 9.716,10.5 8.75,10.5 Z M15.25,10.5 C14.284,10.5 13.5,11.284 13.5,12.25 C13.5,13.216 14.284,14 15.25,14 C16.216,14 17,13.216 17,12.25 C17,11.284 16.216,10.5 15.25,10.5 Z"/>
</svg>

