<svg xmlns="http://www.w3.org/2000/svg" width="24" height="24">
  <defs/>
  <path  d="M15.003,4 C15.262,4 15.587,4.068 15.848,4.132 C16.758,4.352 17.837,4.625 18.603,5.2 C19.316,5.735 19.87,6.668 20.298,7.616 C21.188,9.591 21.807,12.224 22.021,14.226 C22.123,15.176 22.148,16.132 21.965,16.775 C21.875,17.091 21.68,17.329 21.543,17.475 C21.125,17.918 20.587,18.249 20.055,18.55 L19.791,18.699 A25.21 25.21 0 0 1 19.266,18.983 L18.744,19.253 L18.027,19.61 L17.45,19.894 A1 1 0 0 1 16.284,18.304 L15.85,17.436 A13.057 13.057 0 0 1 12,18 C10.63,18 9.323,17.8 8.15,17.436 L7.717,18.302 A1 1 0 0 1 6.553,19.894 L6.009,19.624 C5.405,19.326 4.801,19.028 4.213,18.699 C3.599,18.356 2.948,17.991 2.461,17.474 A1.737 1.737 0 0 1 2.039,16.774 C1.855,16.132 1.881,15.177 1.982,14.226 C2.196,12.224 2.815,9.591 3.706,7.616 C4.133,6.668 4.687,5.735 5.4,5.2 C6.166,4.625 7.245,4.352 8.155,4.132 C8.416,4.068 8.74,4 9,4 A1 1 0 0 1 9.99,5.147 A13.65 13.65 0 0 1 12,5 C12.691,5 13.366,5.05 14.014,5.148 A1 1 0 0 1 15.004,4 Z M16.357,6.363 C16.207,6.315 16.171,6.336 16.117,6.426 L16.055,6.538 A1.515 1.515 0 0 1 14.42,7.254 A11.405 11.405 0 0 0 12,7 C11.148,7 10.333,7.09 9.58,7.254 A1.515 1.515 0 0 1 7.945,6.538 L7.883,6.427 C7.83,6.337 7.794,6.316 7.645,6.363 C7.289,6.476 6.907,6.597 6.6,6.8 C6.313,7.015 5.93,7.55 5.529,8.439 C4.763,10.136 4.163,12.643 3.971,14.439 C3.931,14.818 3.91,15.143 3.905,15.411 L3.905,15.705 C3.909,15.883 3.922,16.024 3.94,16.127 C4.194,16.375 4.508,16.57 4.823,16.749 L5.505,17.126 L5.951,17.361 L6.315,16.633 A1 1 0 0 1 7.448,15.009 C8.664,15.62 10.246,16 12,16 C13.753,16 15.336,15.618 16.552,15.01 A1 1 0 0 1 17.765,16.548 L17.685,16.633 L18.049,17.363 C18.347,17.209 18.646,17.046 18.946,16.88 C19.336,16.664 19.746,16.437 20.063,16.127 C20.081,16.024 20.093,15.883 20.098,15.705 L20.098,15.411 A11.403 11.403 0 0 0 20.032,14.438 C19.84,12.643 19.24,10.136 18.474,8.438 C18.074,7.55 17.69,7.015 17.404,6.8 C17.096,6.597 16.714,6.476 16.357,6.363 M8.75,10.5 A1.75 1.75 0 1 1 8.75,14 A1.75 1.75 0 0 1 8.75,10.5 M15.25,10.5 A1.75 1.75 0 1 1 15.25,14 A1.75 1.75 0 0 1 15.25,10.5"/>
</svg>

