<svg xmlns="http://www.w3.org/2000/svg" width="24" height="24">
  <defs/>
  <path  d="M2,12 C2,6.477 6.477,2 12,2 C17.523,2 22,6.477 22,12 C22,17.523 17.523,22 12,22 C6.477,22 2,17.523 2,12 Z M12,4 C7.985,4.002 4.594,6.978 4.071,10.959 C3.549,14.94 6.057,18.691 9.936,19.728 C13.814,20.766 17.861,18.768 19.395,15.058 C20.93,11.348 19.478,7.076 16,5.07 L16,12 C16,13.81 14.783,15.395 13.035,15.863 C11.286,16.331 9.441,15.567 8.536,13.999 C7.631,12.431 7.892,10.451 9.172,9.171 C10.452,7.89 12.432,7.63 14,8.535 L14,4.252 C13.347,4.084 12.675,3.999 12,4 Z M14,12 C14,10.895 13.105,10 12,10 C10.895,10 10,10.895 10,12 C10,13.105 10.895,14 12,14 C13.105,14 14,13.105 14,12 Z"/>
</svg>

