<svg xmlns="http://www.w3.org/2000/svg" width="24" height="24">
  <defs/>
  <path  d="M9,4 C9,3.448 9.448,3 10,3 L14,3 C14.552,3 15,3.448 15,4 C15,4.552 14.552,5 14,5 L13,5 L13,6.035 C18.44,6.525 22.01,12.167 19.929,17.371 C19.777,17.751 19.409,18 19,18 L5,18 C4.591,18 4.224,17.751 4.072,17.371 C1.99,12.167 5.56,6.525 11,6.035 L11,5 L10,5 C9.448,5 9,4.552 9,4 Z M11.77,8 C7.544,8 4.586,12.053 5.713,16 L18.287,16 C19.414,12.053 16.456,8 12.23,8 Z M3,20 C3,19.448 3.448,19 4,19 L20,19 C20.552,19 21,19.448 21,20 C21,20.552 20.552,21 20,21 L4,21 C3.448,21 3,20.552 3,20 Z"/>
</svg>

