<svg xmlns="http://www.w3.org/2000/svg" width="24" height="24">
  <defs/>
  <path  d="M19,4 C20.657,4 22,5.343 22,7 L22,17 C22,18.657 20.657,20 19,20 L5,20 C3.343,20 2,18.657 2,17 L2,7 C2,5.343 3.343,4 5,4 Z M10.707,8.293 C10.351,7.937 9.785,7.901 9.387,8.21 L9.293,8.293 L6.293,11.293 C5.921,11.666 5.903,12.265 6.251,12.66 C6.6,13.056 7.196,13.113 7.613,12.79 L7.707,12.707 L10.707,9.707 C11.097,9.316 11.097,8.684 10.707,8.293 Z M6.293,7.293 L5.293,8.293 C4.914,8.685 4.919,9.309 5.305,9.695 C5.691,10.081 6.315,10.086 6.707,9.707 L7.707,8.707 C8.086,8.315 8.081,7.691 7.695,7.305 C7.309,6.919 6.685,6.914 6.293,7.293 Z"/>
</svg>

