<svg xmlns="http://www.w3.org/2000/svg" width="24" height="24">
  <defs/>
  <path  d="M6,17.5 A1.5 1.5 0 0 1 6,20.5 L4,20.5 A1.5 1.5 0 0 1 4,17.5 Z M13,17.5 A1.5 1.5 0 0 1 13,20.5 L11,20.5 A1.5 1.5 0 0 1 11,17.5 Z M20,17.5 A1.5 1.5 0 0 1 20,20.5 L18,20.5 A1.5 1.5 0 0 1 18,17.5 Z M20,10.5 A1.5 1.5 0 0 1 20,13.5 L4,13.5 A1.5 1.5 0 0 1 4,10.5 Z M6,3.5 A1.5 1.5 0 1 1 6,6.5 L4,6.5 A1.5 1.5 0 1 1 4,3.5 Z M13,3.5 A1.5 1.5 0 0 1 13,6.5 L11,6.5 A1.5 1.5 0 0 1 11,3.5 Z M20,3.5 A1.5 1.5 0 0 1 20,6.5 L18,6.5 A1.5 1.5 0 0 1 18,3.5 Z"/>
</svg>

