<svg xmlns="http://www.w3.org/2000/svg" width="24" height="24">
  <defs/>
  <path  d="M6,18 A1 1 0 1 1 6,20 L4,20 A1 1 0 1 1 4,18 Z M13,18 A1 1 0 1 1 13,20 L11,20 A1 1 0 1 1 11,18 Z M20,18 A1 1 0 1 1 20,20 L18,20 A1 1 0 1 1 18,18 Z M20,11 A1 1 0 0 1 20.117,12.993 L20,13 L4,13 A1 1 0 0 1 3.883,11.007 L4,11 Z M6,4 A1 1 0 0 1 6,6 L4,6 A1 1 0 0 1 4,4 Z M13,4 A1 1 0 0 1 13.117,5.993 L13,6 L11,6 A1 1 0 0 1 10.883,4.007 L11,4 Z M20,4 A1 1 0 0 1 20.117,5.993 L20,6 L18,6 A1 1 0 0 1 17.883,4.007 L18,4 Z"/>
</svg>

