<svg xmlns="http://www.w3.org/2000/svg" width="24" height="24">
  <defs/>
  <path  d="M13.586,2 A2 2 0 0 1 15,2.586 L19.414,7 A2 2 0 0 1 20,8.414 L20,20 A2 2 0 0 1 18,22 L6,22 A2 2 0 0 1 4,20 L4,4 A2 2 0 0 1 6,2 Z M12,4 L6,4 L6,20 L18,20 L18,10 L13.5,10 A1.5 1.5 0 0 1 12.007,8.644 L12,8.5 Z M14.064,12.649 A1 1 0 0 1 15.971,13.239 L15.936,13.351 L14.53,17.101 C14.189,18.011 12.942,18.051 12.522,17.221 L12.47,17.101 L12,15.848 L11.53,17.101 C11.189,18.011 9.942,18.051 9.522,17.221 L9.47,17.101 L8.064,13.351 A1 1 0 0 1 9.889,12.542 L9.936,12.649 L10.5,14.152 L10.97,12.899 C11.311,11.989 12.558,11.949 12.978,12.779 L13.03,12.899 L13.5,14.152 Z M14,4.414 L14,8 L17.586,8 Z"/>
</svg>

