<svg xmlns="http://www.w3.org/2000/svg" width="24" height="24">
  <defs/>
  <path  d="M12,2 L12,8.5 C12,9.328 12.672,10 13.5,10 L20,10 L20,20 C20,21.105 19.105,22 18,22 L6,22 C4.895,22 4,21.105 4,20 L4,4 C4,2.895 4.895,2 6,2 Z M14.064,12.649 L13.5,14.152 L13.03,12.899 C12.673,11.947 11.327,11.947 10.97,12.899 L10.5,14.152 L9.936,12.649 C9.732,12.147 9.166,11.898 8.658,12.088 C8.151,12.279 7.887,12.839 8.064,13.351 L9.47,17.101 C9.827,18.053 11.173,18.053 11.53,17.101 L12,15.848 L12.47,17.101 C12.827,18.053 14.173,18.053 14.53,17.101 L15.936,13.351 C16.113,12.839 15.849,12.279 15.342,12.088 C14.834,11.898 14.268,12.147 14.064,12.649 Z M14,2.043 C14.379,2.123 14.726,2.312 15,2.586 L19.414,7 C19.688,7.274 19.877,7.621 19.957,8 L14,8 Z"/>
</svg>

