<svg xmlns="http://www.w3.org/2000/svg" width="24" height="24">
  <defs/>
  <path  d="M12,2 L12,8.5 C12,9.328 12.672,10 13.5,10 L20,10 L20,20 C20,21.105 19.105,22 18,22 L6,22 C4.895,22 4,21.105 4,20 L4,4 C4,2.895 4.895,2 6,2 Z M14,2.043 C14.379,2.123 14.726,2.312 15,2.586 L19.414,7 C19.688,7.274 19.877,7.621 19.957,8 L14,8 Z M15,15 L9,15 C8.448,15 8,15.448 8,16 C8,16.552 8.448,17 9,17 L15,17 C15.552,17 16,16.552 16,16 C16,15.448 15.552,15 15,15 Z M10,11 L9,11 C8.448,11 8,11.448 8,12 C8,12.552 8.448,13 9,13 L10,13 C10.552,13 11,12.552 11,12 C11,11.448 10.552,11 10,11 Z"/>
</svg>

