<svg xmlns="http://www.w3.org/2000/svg" width="24" height="24">
  <defs/>
  <path  d="M15.586,2 C16.116,2 16.625,2.211 17,2.586 L20.414,6 C20.789,6.375 21,6.884 21,7.414 L21,16 C21,17.105 20.105,18 19,18 L17,18 L17,20 C17,21.105 16.105,22 15,22 L6,22 C4.895,22 4,21.105 4,20 L4,8 C4,6.895 4.895,6 6,6 L8,6 L8,4 C8,2.895 8.895,2 10,2 Z M14,4 L10,4 L10,16 L19,16 L19,9 L15.5,9 C14.727,9 14.081,8.413 14.007,7.644 L14,7.5 Z M8,8 L6,8 L6,20 L15,20 L15,18 L10,18 C8.895,18 8,17.105 8,16 Z M16,4.414 L16,7 L18.586,7 Z"/>
</svg>

