<svg xmlns="http://www.w3.org/2000/svg" width="24" height="24">
  <defs/>
  <path  d="M18,2 C19.105,2 20,2.895 20,4 L20,14 L13.5,14 C12.672,14 12,14.672 12,15.5 L12,22 L6,22 C4.895,22 4,21.105 4,20 L4,4 C4,2.895 4.895,2 6,2 Z M19.957,16 C19.877,16.379 19.688,16.726 19.414,17 L15,21.414 C14.726,21.688 14.379,21.877 14,21.957 L14,16 Z M15,7 L9,7 C8.448,7 8,7.448 8,8 C8,8.552 8.448,9 9,9 L15,9 C15.552,9 16,8.552 16,8 C16,7.448 15.552,7 15,7 Z M10,11 L9,11 C8.448,11 8,11.448 8,12 C8,12.552 8.448,13 9,13 L10,13 C10.552,13 11,12.552 11,12 C11,11.448 10.552,11 10,11 Z"/>
</svg>

