<svg xmlns="http://www.w3.org/2000/svg" width="24" height="24">
  <defs/>
  <path  d="M17.475,3.644 C18.007,3.378 18.631,3.362 19.175,3.602 C19.72,3.842 20.13,4.312 20.293,4.884 L21.962,10.725 C22.064,11.082 21.96,11.465 21.692,11.722 C21.424,11.978 21.036,12.065 20.684,11.948 L19.127,11.43 C19.272,16.31 16.648,19.153 15.307,20.275 C14.664,20.811 13.881,21 13.169,21 L10.831,21 C10.119,21 9.336,20.811 8.694,20.275 C7.401,19.195 4.918,16.515 4.868,11.956 L3.555,12.832 C3.211,13.061 2.762,13.056 2.424,12.817 C2.086,12.579 1.929,12.158 2.03,11.757 L3.728,4.967 C3.875,4.379 4.281,3.889 4.832,3.635 C5.383,3.382 6.019,3.392 6.562,3.663 L9.025,4.894 C9.164,4.964 9.317,5 9.472,5 L14.528,5 C14.683,5 14.836,4.964 14.975,4.894 Z M18.369,5.434 L15.869,6.684 C15.453,6.892 14.994,7 14.529,7 L9.472,7 C9.006,7 8.547,6.891 8.131,6.683 L5.668,5.452 L4.598,9.733 L5.445,9.168 C5.773,8.949 6.199,8.943 6.533,9.154 C6.867,9.364 7.046,9.751 6.99,10.141 C6.287,15.059 8.806,17.762 9.976,18.74 C10.168,18.9 10.456,19 10.831,19 L13.169,19 C13.545,19 13.832,18.9 14.024,18.74 C15.194,17.762 17.713,15.06 17.01,10.141 C16.961,9.798 17.093,9.454 17.359,9.232 C17.625,9.01 17.987,8.941 18.316,9.051 L19.518,9.451 Z M12,13.5 C12.552,13.5 13,13.948 13,14.5 C13,14.776 13.224,15 13.5,15 C14.052,15 14.5,15.448 14.5,16 C14.5,16.552 14.052,17 13.5,17 C12.959,17.001 12.432,16.825 12,16.5 C11.582,16.814 11.063,17 10.5,17 C9.948,17 9.5,16.552 9.5,16 C9.5,15.448 9.948,15 10.5,15 C10.776,15 11,14.776 11,14.5 C11,13.948 11.448,13.5 12,13.5 Z M11,11 C11,11.552 10.552,12 10,12 C9.448,12 9,11.552 9,11 C9,10.448 9.448,10 10,10 C10.552,10 11,10.448 11,11 Z M14,12 C13.448,12 13,11.552 13,11 C13,10.448 13.448,10 14,10 C14.552,10 15,10.448 15,11 C15,11.552 14.552,12 14,12 Z"/>
</svg>

