<svg xmlns="http://www.w3.org/2000/svg" width="24" height="24">
  <defs/>
  <path  d="M20.293,4.884 L21.962,10.725 C22.064,11.082 21.96,11.465 21.692,11.722 C21.424,11.978 21.036,12.065 20.684,11.948 L19.127,11.43 C19.227,14.808 18.001,17.21 16.791,18.741 L16.523,19.067 C16.479,19.118 16.435,19.169 16.39,19.219 L16.13,19.503 L15.877,19.758 L15.755,19.875 L15.522,20.088 L15.306,20.275 C14.664,20.811 13.881,21 13.169,21 L10.831,21 C10.119,21 9.336,20.811 8.694,20.275 L8.58,20.178 L8.337,19.961 C6.993,18.721 4.914,16.124 4.868,11.956 L3.555,12.832 C3.211,13.061 2.762,13.056 2.424,12.817 C2.086,12.579 1.929,12.158 2.03,11.757 L3.728,4.967 C3.875,4.379 4.281,3.889 4.832,3.635 C5.383,3.382 6.019,3.392 6.562,3.663 L9.025,4.894 C9.164,4.964 9.317,5 9.472,5 L14.528,5 C14.683,5 14.836,4.964 14.975,4.894 L17.475,3.644 C18.007,3.378 18.631,3.362 19.175,3.602 C19.72,3.842 20.13,4.312 20.293,4.884 Z M12,13.5 C11.448,13.5 11,13.948 11,14.5 C11,14.776 10.776,15 10.5,15 C9.948,15 9.5,15.448 9.5,16 C9.5,16.552 9.948,17 10.5,17 C11.041,17.001 11.568,16.825 12,16.5 C12.418,16.814 12.937,17 13.5,17 C14.052,17 14.5,16.552 14.5,16 C14.5,15.448 14.052,15 13.5,15 C13.224,15 13,14.776 13,14.5 C13,13.948 12.552,13.5 12,13.5 Z M9.5,9 C8.672,9 8,9.672 8,10.5 C8,11.328 8.672,12 9.5,12 C10.328,12 11,11.328 11,10.5 C11,9.672 10.328,9 9.5,9 Z M14.5,9 C13.672,9 13,9.672 13,10.5 C13,11.328 13.672,12 14.5,12 C15.328,12 16,11.328 16,10.5 C16,9.672 15.328,9 14.5,9 Z"/>
</svg>

