<svg xmlns="http://www.w3.org/2000/svg" width="24" height="24">
  <defs/>
  <path  d="M5.5,10.5 L5.5,5.415 C4.81,5.172 4.396,4.467 4.519,3.746 C4.643,3.026 5.269,2.499 6,2.5 L12,2.5 C17.247,2.5 21.5,6.753 21.5,12 C21.5,17.247 17.247,21.5 12,21.5 L6,21.5 C5.269,21.501 4.643,20.974 4.519,20.254 C4.396,19.533 4.81,18.828 5.5,18.585 L5.5,13.5 L4,13.5 C3.172,13.5 2.5,12.828 2.5,12 C2.5,11.172 3.172,10.5 4,10.5 Z M8.5,13.5 L8.5,18.5 L12,18.5 C15.59,18.5 18.5,15.59 18.5,12 C18.5,8.41 15.59,5.5 12,5.5 L8.5,5.5 L8.5,10.5 L13,10.5 C13.828,10.5 14.5,11.172 14.5,12 C14.5,12.828 13.828,13.5 13,13.5 Z"/>
</svg>

