<svg xmlns="http://www.w3.org/2000/svg" width="24" height="24">
  <defs/>
  <path  d="M12,2 C17.523,2 22,6.477 22,12 C22,17.523 17.523,22 12,22 C6.477,22 2,17.523 2,12 C2,6.477 6.477,2 12,2 Z M12,9 C10.343,9 9,10.343 9,12 C9,13.657 10.343,15 12,15 C13.657,15 15,13.657 15,12 C15,10.343 13.657,9 12,9 Z M10.051,5.183 C9.967,5.435 9.986,5.71 10.105,5.947 C10.224,6.185 10.432,6.365 10.684,6.449 L12.184,6.949 C12.708,7.124 13.274,6.84 13.449,6.316 C13.624,5.792 13.34,5.226 12.816,5.051 L11.316,4.551 C10.792,4.376 10.225,4.66 10.051,5.184 Z M11.184,16.551 L9.684,17.051 C9.16,17.226 8.876,17.792 9.051,18.316 C9.226,18.84 9.792,19.124 10.316,18.949 L11.816,18.449 C12.34,18.274 12.624,17.708 12.449,17.184 C12.274,16.66 11.708,16.376 11.184,16.551 Z M6.894,12.553 C6.657,12.079 6.092,11.872 5.605,12.081 C5.118,12.289 4.879,12.842 5.059,13.34 L5.106,13.447 L5.606,14.447 C5.843,14.921 6.408,15.128 6.895,14.919 C7.382,14.711 7.621,14.158 7.441,13.66 L7.394,13.553 Z M16.207,15.793 C15.834,15.421 15.235,15.403 14.84,15.751 C14.444,16.1 14.387,16.696 14.71,17.113 L14.793,17.207 L15.293,17.707 C15.666,18.079 16.265,18.097 16.66,17.749 C17.056,17.4 17.113,16.804 16.79,16.387 L16.707,16.293 Z M6.707,8.293 C6.334,7.921 5.735,7.903 5.34,8.251 C4.944,8.6 4.887,9.196 5.21,9.613 L5.293,9.707 L5.793,10.207 C6.166,10.579 6.765,10.597 7.16,10.249 C7.556,9.9 7.613,9.304 7.29,8.887 L7.207,8.793 Z M16.793,12.793 C16.403,13.184 16.403,13.816 16.793,14.207 L17.293,14.707 C17.685,15.086 18.309,15.081 18.695,14.695 C19.081,14.309 19.086,13.685 18.707,13.293 L18.207,12.793 C17.816,12.403 17.184,12.403 16.793,12.793 Z M15.293,6.293 L14.793,6.793 C14.414,7.185 14.419,7.809 14.805,8.195 C15.191,8.581 15.815,8.586 16.207,8.207 L16.707,7.707 C17.086,7.315 17.081,6.691 16.695,6.305 C16.309,5.919 15.685,5.914 15.293,6.293 Z"/>
</svg>

