<svg xmlns="http://www.w3.org/2000/svg" width="24" height="24">
  <defs/>
  <path  d="M12,2 C17.523,2 22,6.477 22,12 C22,17.523 17.523,22 12,22 C6.477,22 2,17.523 2,12 C2,6.477 6.477,2 12,2 Z M12,4 C7.582,4 4,7.582 4,12 C4,16.418 7.582,20 12,20 C16.418,20 20,16.418 20,12 C20,7.582 16.418,4 12,4 Z M12,8 C14.209,8 16,9.791 16,12 C16,14.209 14.209,16 12,16 C9.791,16 8,14.209 8,12 C8,9.791 9.791,8 12,8 Z M12,10 C10.895,10 10,10.895 10,12 C10,13.105 10.895,14 12,14 C13.105,14 14,13.105 14,12 C14,10.895 13.105,10 12,10 Z M10.051,5.183 C10.212,4.702 10.707,4.418 11.203,4.521 L11.316,4.551 L12.816,5.051 C13.32,5.218 13.606,5.749 13.468,6.261 C13.33,6.773 12.815,7.088 12.296,6.979 L12.184,6.949 L10.684,6.449 C10.16,6.275 9.876,5.708 10.051,5.184 Z M11.184,16.551 C11.686,16.386 12.23,16.639 12.426,17.13 C12.622,17.621 12.402,18.179 11.924,18.405 L11.816,18.449 L10.316,18.949 C9.814,19.114 9.27,18.861 9.074,18.37 C8.878,17.879 9.098,17.321 9.576,17.095 L9.684,17.051 Z M6.894,12.553 L7.394,13.553 C7.567,13.874 7.552,14.264 7.354,14.57 C7.156,14.876 6.807,15.051 6.444,15.025 C6.08,15 5.759,14.778 5.606,14.447 L5.106,13.447 C4.933,13.126 4.948,12.736 5.146,12.43 C5.344,12.124 5.693,11.949 6.056,11.975 C6.42,12 6.741,12.222 6.894,12.553 Z M16.793,12.793 C17.149,12.437 17.715,12.401 18.113,12.71 L18.207,12.793 L18.707,13.293 C19.079,13.666 19.097,14.265 18.749,14.66 C18.4,15.056 17.804,15.113 17.387,14.79 L17.293,14.707 L16.793,14.207 C16.403,13.816 16.403,13.184 16.793,12.793 Z M16.707,6.293 C17.063,6.649 17.099,7.215 16.79,7.613 L16.707,7.707 L16.207,8.207 C15.834,8.579 15.235,8.597 14.84,8.249 C14.444,7.9 14.387,7.304 14.71,6.887 L14.793,6.793 L15.293,6.293 C15.684,5.903 16.316,5.903 16.707,6.293 Z M16.207,15.793 L16.707,16.293 C17.086,16.685 17.081,17.309 16.695,17.695 C16.309,18.081 15.685,18.086 15.293,17.707 L14.793,17.207 C14.414,16.815 14.419,16.191 14.805,15.805 C15.191,15.419 15.815,15.414 16.207,15.793 Z M6.707,8.293 L7.207,8.793 C7.586,9.185 7.581,9.809 7.195,10.195 C6.809,10.581 6.185,10.586 5.793,10.207 L5.293,9.707 C4.914,9.315 4.919,8.691 5.305,8.305 C5.691,7.919 6.315,7.914 6.707,8.293 Z"/>
</svg>

