<svg xmlns="http://www.w3.org/2000/svg" width="24" height="24">
  <defs/>
  <path  d="M17,3 C18.047,3 18.917,3.806 18.995,4.85 L19,5 L19,19 L20,19 C20.529,19.001 20.966,19.413 20.997,19.941 C21.028,20.47 20.642,20.931 20.117,20.993 L20,21 L4,21 C3.471,20.999 3.034,20.587 3.003,20.059 C2.972,19.53 3.358,19.069 3.883,19.007 L4,19 L5,19 L5,5 C5,3.953 5.806,3.083 6.85,3.005 L7,3 Z M14.5,11 C13.672,11 13,11.672 13,12.5 C13,13.328 13.672,14 14.5,14 C15.328,14 16,13.328 16,12.5 C16,11.672 15.328,11 14.5,11 Z"/>
</svg>

