<svg xmlns="http://www.w3.org/2000/svg" width="24" height="24">
  <defs/>
  <path  d="M5.5,16.5 A2 2 0 1 1 5.5,20.5 A2 2 0 0 1 5.5,16.5 M12,16.5 A2 2 0 1 1 12,20.5 A2 2 0 0 1 12,16.5 M18.5,16.5 A2 2 0 1 1 18.5,20.5 A2 2 0 0 1 18.5,16.5 M5.5,10 A2 2 0 1 1 5.5,14 A2 2 0 0 1 5.5,10 M12,10 A2 2 0 1 1 12,14 A2 2 0 0 1 12,10 M18.5,10 A2 2 0 1 1 18.5,14 A2 2 0 0 1 18.5,10 M5.5,3.5 A2 2 0 1 1 5.5,7.5 A2 2 0 0 1 5.5,3.5 M12,3.5 A2 2 0 1 1 12,7.5 A2 2 0 0 1 12,3.5 M18.5,3.5 A2 2 0 1 1 18.5,7.5 A2 2 0 0 1 18.5,3.5"/>
</svg>

