<svg xmlns="http://www.w3.org/2000/svg" width="24" height="24">
  <defs/>
  <path  d="M5.5,17 A1.5 1.5 0 1 1 5.5,20 A1.5 1.5 0 0 1 5.5,17 M12,17 A1.5 1.5 0 1 1 12,20 A1.5 1.5 0 0 1 12,17 M18.5,17 A1.5 1.5 0 1 1 18.5,20 A1.5 1.5 0 0 1 18.5,17 M5.5,10.5 A1.5 1.5 0 1 1 5.5,13.5 A1.5 1.5 0 0 1 5.5,10.5 M12,10.5 A1.5 1.5 0 1 1 12,13.5 A1.5 1.5 0 0 1 12,10.5 M18.5,10.5 A1.5 1.5 0 1 1 18.5,13.5 A1.5 1.5 0 0 1 18.5,10.5 M5.5,4 A1.5 1.5 0 1 1 5.5,7 A1.5 1.5 0 0 1 5.5,4 M12,4 A1.5 1.5 0 1 1 12,7 A1.5 1.5 0 0 1 12,4 M18.5,4 A1.5 1.5 0 1 1 18.5,7 A1.5 1.5 0 0 1 18.5,4"/>
</svg>

