<svg xmlns="http://www.w3.org/2000/svg" width="24" height="24">
  <defs/>
  <path  d="M13,5 L19,5 C20.105,5 21,5.895 21,7 L21,20 C21,21.105 20.105,22 19,22 L5,22 C3.895,22 3,21.105 3,20 L3,7 C3,5.895 3.895,5 5,5 L11,5 L11,13.828 L9.172,12 C8.782,11.609 8.148,11.609 7.758,12 C7.367,12.39 7.367,13.023 7.757,13.414 L11.116,16.773 C11.604,17.261 12.395,17.261 12.883,16.773 L16.243,13.414 C16.633,13.023 16.633,12.39 16.243,12 C15.852,11.609 15.218,11.609 14.828,12 L13,13.828 Z M12,2 C12.552,2 13,2.448 13,3 L13,5 L11,5 L11,3 C11,2.448 11.448,2 12,2 Z"/>
</svg>

