<svg xmlns="http://www.w3.org/2000/svg" width="24" height="24">
  <defs/>
  <path  d="M11.5,4 C8.851,4 6.74,6.38 7.027,9 C7.083,9.502 6.758,9.968 6.268,10.091 C5.009,10.408 4.096,11.499 4.006,12.794 C3.917,14.09 4.67,15.296 5.874,15.783 C6.382,15.993 6.626,16.573 6.42,17.082 C6.214,17.592 5.635,17.84 5.124,17.637 C3.257,16.883 2.024,15.082 1.997,13.068 C1.97,11.055 3.154,9.221 5,8.417 C5.04,5.291 7.3,2.636 10.379,2.096 C13.458,1.557 16.486,3.285 17.587,6.211 C19.921,6.851 21.643,8.831 21.952,11.232 C22.261,13.633 21.098,15.985 19.002,17.196 C18.692,17.387 18.303,17.395 17.986,17.216 C17.669,17.038 17.474,16.701 17.477,16.337 C17.48,15.973 17.68,15.64 18,15.466 C19.464,14.622 20.239,12.949 19.938,11.286 C19.636,9.623 18.322,8.329 16.655,8.053 C16.265,7.99 15.948,7.703 15.844,7.32 C15.311,5.36 13.531,4 11.5,4 Z M12,11 C12.552,11 13,11.448 13,12 L13,18.584 L14.293,17.292 C14.684,16.902 15.318,16.902 15.708,17.293 C16.098,17.684 16.098,18.318 15.707,18.708 L12.883,21.527 C12.63,21.779 12.383,22 12,22 C11.616,22 11.37,21.78 11.117,21.527 L8.293,18.707 C7.902,18.317 7.902,17.683 8.292,17.292 C8.683,16.902 9.316,16.902 9.707,17.292 L11,18.584 L11,12 C11,11.448 11.448,11 12,11 Z"/>
</svg>

