<svg xmlns="http://www.w3.org/2000/svg" width="24" height="24">
  <defs/>
  <path  d="M12,11 A1 1 0 0 1 13,12 L13,18.584 L14.293,17.292 A1 1 0 0 1 15.707,18.708 L12.883,21.527 C12.63,21.779 12.383,22 12,22 C11.664,22 11.434,21.831 11.212,21.62 L8.293,18.708 A1 1 0 0 1 9.707,17.292 L11,18.584 L11,12 A1 1 0 0 1 12,11 M11.5,2 C14.284,2 16.66,3.75 17.586,6.212 A6.003 6.003 0 0 1 17.981,17.665 A2.987 2.987 0 0 0 17.123,15.88 A2.988 2.988 0 0 0 15.209,15.007 L15,15 L15,12 A3 3 0 0 0 9.005,11.824 L9,12 L9,15 A2.99 2.99 0 0 0 6.877,15.88 A2.99 2.99 0 0 0 6.002,17.9 A5.002 5.002 0 0 1 5,8.416 A6.5 6.5 0 0 1 11.5,2"/>
</svg>

