<svg xmlns="http://www.w3.org/2000/svg" width="24" height="24">
  <defs/>
  <path  d="M9.051,4.684 A1 1 0 0 1 10.316,4.052 A4.01 4.01 0 0 1 11.862,5.004 A2.68 2.68 0 0 1 12.138,5.004 A4.01 4.01 0 0 1 13.684,4.052 A1 1 0 0 1 14.316,5.949 A1.942 1.942 0 0 0 14.084,6.043 C14.181,6.173 14.266,6.311 14.338,6.456 L18.616,5.506 A2.78 2.78 0 0 1 21.688,9.5 A2.78 2.78 0 0 1 18.616,13.495 L13.364,12.328 A1.43 1.43 0 0 1 12.987,12.839 A0.954 0.954 0 0 1 13,13 L13,19 A1 1 0 1 1 11,19 L11,13 C11,12.945 11.004,12.892 11.013,12.84 A1.43 1.43 0 0 1 10.636,12.328 L5.384,13.495 A2.78 2.78 0 0 1 2.312,9.5 A2.78 2.78 0 0 1 5.384,5.505 L9.662,6.456 C9.734,6.311 9.819,6.173 9.916,6.043 A1.934 1.934 0 0 0 9.684,5.949 A1 1 0 0 1 9.051,4.684"/>
</svg>

