<svg xmlns="http://www.w3.org/2000/svg" width="24" height="24">
  <defs/>
  <path  d="M13.684,4.051 C14.203,3.891 14.756,4.175 14.928,4.69 C15.1,5.206 14.828,5.765 14.316,5.948 C14.237,5.975 14.159,6.006 14.084,6.043 C14.149,6.129 14.208,6.219 14.262,6.313 L14.338,6.456 L18.616,5.506 C19.778,5.247 20.975,5.756 21.595,6.772 C22.214,7.788 22.118,9.086 21.356,10 C22.099,10.89 22.212,12.147 21.639,13.154 C21.067,14.162 19.93,14.709 18.785,14.527 L18.616,14.495 L13.364,13.327 C13.301,13.472 13.214,13.605 13.107,13.722 L13,13.827 L13,19 C12.999,19.529 12.586,19.965 12.058,19.996 C11.53,20.027 11.069,19.641 11.007,19.116 L11,19 L11,13.828 C10.885,13.726 10.787,13.606 10.71,13.472 L10.636,13.327 L5.384,14.495 C4.222,14.755 3.024,14.245 2.404,13.229 C1.784,12.212 1.881,10.914 2.644,10 C1.901,9.11 1.788,7.853 2.361,6.846 C2.933,5.838 4.07,5.291 5.215,5.473 L5.384,5.505 L9.662,6.455 C9.734,6.31 9.819,6.172 9.916,6.043 C9.841,6.006 9.763,5.975 9.684,5.948 C9.172,5.765 8.9,5.206 9.072,4.69 C9.244,4.175 9.797,3.891 10.316,4.051 C10.897,4.246 11.426,4.572 11.862,5.003 L12,5 L12.138,5.003 C12.574,4.572 13.103,4.246 13.684,4.051 Z M10.087,11 L4.78,11 C4.494,11.002 4.232,11.16 4.097,11.413 C3.962,11.665 3.976,11.971 4.134,12.21 C4.292,12.449 4.568,12.582 4.853,12.557 L4.95,12.542 L10.172,11.382 Z M19.22,11 L13.913,11 L13.828,11.382 L19.05,12.542 C19.328,12.599 19.615,12.502 19.8,12.287 C19.985,12.071 20.038,11.773 19.939,11.507 C19.841,11.241 19.605,11.05 19.325,11.007 Z M4,8.22 C4,8.651 4.35,9 4.78,9 L9.642,9 L9.525,8.475 L4.95,7.457 C4.719,7.405 4.476,7.462 4.292,7.61 C4.107,7.759 3.999,7.983 4,8.22 Z M19.05,7.457 L14.474,8.474 L14.358,9 L19.219,9 C19.516,8.997 19.786,8.826 19.915,8.558 C20.044,8.29 20.009,7.972 19.825,7.738 C19.641,7.504 19.341,7.395 19.05,7.457 Z M12,7 C11.646,7 11.375,7.3 11.397,7.641 L11.41,7.735 L12,10.39 L12.59,7.735 C12.63,7.556 12.586,7.369 12.471,7.226 C12.357,7.083 12.183,7 12,7 Z"/>
</svg>

