<svg xmlns="http://www.w3.org/2000/svg" width="24" height="24">
  <defs/>
  <path  d="M20,12 L20,18 C20,19.047 19.194,19.917 18.15,19.995 L18,20 L16.618,20 L16.894,20.553 C17.129,21.026 16.955,21.601 16.497,21.864 C16.039,22.128 15.455,21.99 15.164,21.549 L15.106,21.447 L14.382,20 L9.618,20 L8.894,21.447 C8.657,21.921 8.092,22.128 7.605,21.919 C7.118,21.711 6.879,21.158 7.059,20.66 L7.106,20.553 L7.382,20 L6,20 C4.953,20 4.083,19.194 4.005,18.15 L4,18 L4,12 Z M18,2 C19.047,2 19.917,2.806 19.995,3.85 L20,4 L20,10 L4,10 L4,4 C4,2.953 4.806,2.083 5.85,2.005 L6,2 Z M13,15 L11,15 C10.448,15 10,15.448 10,16 C10,16.552 10.448,17 11,17 L13,17 C13.552,17 14,16.552 14,16 C14,15.448 13.552,15 13,15 Z M13,5 L11,5 C10.471,5.001 10.034,5.413 10.003,5.941 C9.972,6.47 10.358,6.931 10.883,6.993 L11,7 L13,7 C13.529,6.999 13.966,6.587 13.997,6.059 C14.028,5.53 13.642,5.069 13.117,5.007 Z"/>
</svg>

