<svg xmlns="http://www.w3.org/2000/svg" width="24" height="24">
  <defs/>
  <path  d="M12,3 C12.552,3 13,3.448 13,4 L13,5 L21,5 C21.552,5 22,5.448 22,6 C22,6.552 21.552,7 21,7 L21,16 C21.552,16 22,16.448 22,17 C22,17.552 21.552,18 21,18 L16.414,18 L17.707,19.293 C18.086,19.685 18.081,20.309 17.695,20.695 C17.309,21.081 16.685,21.086 16.293,20.707 L13.586,18 L10.414,18 L7.707,20.707 C7.315,21.086 6.691,21.081 6.305,20.695 C5.919,20.309 5.914,19.685 6.293,19.293 L7.586,18 L3,18 C2.448,18 2,17.552 2,17 C2,16.448 2.448,16 3,16 L3,7 C2.448,7 2,6.552 2,6 C2,5.448 2.448,5 3,5 L11,5 L11,4 C11,3.448 11.448,3 12,3 Z M19,16 L19,7 L5,7 L5,16 Z"/>
</svg>

