<svg xmlns="http://www.w3.org/2000/svg" width="24" height="24">
  <defs/>
  <path  d="M18,2 A2 2 0 0 1 19.995,3.85 L20,4 L20,18 A2 2 0 0 1 18.15,19.995 L18,20 L16.618,20 L16.894,20.553 A1 1 0 0 1 15.164,21.549 L15.106,21.447 L14.382,20 L9.618,20 L8.894,21.447 A1 1 0 0 1 7.059,20.66 L7.106,20.553 L7.382,20 L6,20 A2 2 0 0 1 4.005,18.15 L4,18 L4,4 A2 2 0 0 1 5.85,2.005 L6,2 Z M18,12 L6,12 L6,18 L18,18 Z M13,14 A1 1 0 0 1 13.117,15.993 L13,16 L11,16 A1 1 0 0 1 10.883,14.007 L11,14 Z M18,4 L6,4 L6,10 L18,10 Z M13,6 A1 1 0 1 1 13,8 L11,8 A1 1 0 1 1 11,6 Z"/>
</svg>

