<svg xmlns="http://www.w3.org/2000/svg" width="24" height="24">
  <defs/>
  <path  d="M18,2 A2 2 0 0 1 19.995,3.85 L20,4 L20,20 A2 2 0 0 1 18.15,21.995 L18,22 L6,22 A2 2 0 0 1 4.005,20.15 L4,20 L4,4 A2 2 0 0 1 5.85,2.005 L6,2 Z M18,16 L6,16 L6,20 L18,20 Z M13,17 A1 1 0 0 1 13.117,18.993 L13,19 L11,19 A1 1 0 0 1 10.883,17.007 L11,17 Z M18,10 L6,10 L6,14 L18,14 Z M13,11 A1 1 0 1 1 13,13 L11,13 A1 1 0 1 1 11,11 Z M18,4 L6,4 L6,8 L18,8 Z M13,5 A1 1 0 0 1 13.117,6.993 L13,7 L11,7 A1 1 0 0 1 10.883,5.007 L11,5 Z"/>
</svg>

