<svg xmlns="http://www.w3.org/2000/svg" width="24" height="24">
  <defs/>
  <path  d="M4,20 L4,16 L20,16 L20,20 C20,21.105 19.105,22 18,22 L6,22 C4.895,22 4,21.105 4,20 Z M6,2 L18,2 C19.105,2 20,2.895 20,4 L20,8 L4,8 L4,4 C4,2.895 4.895,2 6,2 Z M20,10 L20,14 L4,14 L4,10 Z M10,12 C10,12.552 10.448,13 11,13 L13,13 C13.552,13 14,12.552 14,12 C14,11.448 13.552,11 13,11 L11,11 C10.448,11 10,11.448 10,12 Z M11,4 C10.448,4 10,4.448 10,5 C10,5.552 10.448,6 11,6 L13,6 C13.552,6 14,5.552 14,5 C14,4.448 13.552,4 13,4 Z M11,18 C10.448,18 10,18.448 10,19 C10,19.552 10.448,20 11,20 L13,20 C13.552,20 14,19.552 14,19 C14,18.448 13.552,18 13,18 Z"/>
</svg>

