<svg xmlns="http://www.w3.org/2000/svg" width="24" height="24">
  <defs/>
  <path  d="M9.17,2 C9.548,2 9.894,2.213 10.064,2.551 L10.114,2.667 C10.387,3.44 11.104,3.968 11.923,3.999 C12.743,4.031 13.498,3.559 13.83,2.81 L13.886,2.667 C14.012,2.31 14.328,2.054 14.704,2.007 L14.829,2 L15,2 C17.677,2 19.879,4.109 19.995,6.783 L20,7 L20,7.5 C20,8.273 19.413,8.919 18.644,8.993 L18.5,9 L16,9 L16,9.948 C16,10.344 16.118,10.731 16.338,11.06 L16.438,11.197 L18.466,13.732 C19.395,14.893 19.931,16.321 19.994,17.807 L20,18.105 L20,19 C20,20.589 18.762,21.902 17.176,21.995 L17,22 L7,22 C5.411,22 4.098,20.762 4.005,19.176 L4,19 L4,18.105 C4,16.617 4.474,15.168 5.353,13.968 L5.533,13.732 L7.562,11.197 C7.809,10.888 7.959,10.512 7.992,10.117 L8,9.947 L8,9 L5.5,9 C4.727,9 4.081,8.413 4.007,7.644 L4,7.5 L4,7 C4,4.323 6.109,2.121 8.783,2.005 L9,2 Z M14.567,12 L9.433,12 C9.34,12.156 9.236,12.305 9.123,12.446 L7.096,14.981 C6.387,15.868 6,16.969 6,18.105 L6,19 C6,19.552 6.448,20 7,20 L17,20 C17.552,20 18,19.552 18,19 L18,18.105 C18,16.969 17.613,15.868 16.904,14.981 L14.877,12.446 C14.764,12.305 14.66,12.156 14.567,12 Z M15.445,4.033 C14.726,5.252 13.416,6.001 12,6 C10.532,6 9.25,5.21 8.555,4.033 C7.153,4.243 6.09,5.406 6.005,6.821 L6,7 L8,7 C9.047,7 9.917,7.806 9.995,8.85 L10,9 L10,10 L14,10 L14,9 C14,7.953 14.806,7.083 15.85,7.005 L16,7 L18,7 C18,5.515 16.914,4.253 15.445,4.033 Z"/>
</svg>

