<svg xmlns="http://www.w3.org/2000/svg" width="24" height="24">
  <defs/>
  <path  d="M4,7 C4,4.239 6.239,2 9,2 C9.482,2 9.938,2.17 10.114,2.667 C10.397,3.466 11.153,3.999 12,3.999 C12.847,3.999 13.603,3.466 13.886,2.667 C14.063,2.17 14.519,2 15,2 C17.761,2 20,4.239 20,7 L20,7.5 C20,8.328 19.328,9 18.5,9 L16,9 C16,9.088 15.999,9.176 15.998,9.264 C15.99,9.947 15.983,10.627 16.438,11.197 L18.466,13.732 C19.459,14.973 20,16.515 20,18.105 L20,19 C20,20.657 18.657,22 17,22 L7,22 C5.343,22 4,20.657 4,19 L4,18.105 C4,16.515 4.541,14.973 5.534,13.732 L7.562,11.197 C8.017,10.627 8.01,9.948 8.002,9.264 C8.001,9.176 8,9.088 8,9 L5.5,9 C4.672,9 4,8.328 4,7.5 Z"/>
</svg>

