<svg xmlns="http://www.w3.org/2000/svg" width="24" height="24">
  <defs/>
  <path  d="M13.774,14.439 A32.815 32.815 0 0 1 15.31,21.439 A9.987 9.987 0 0 1 12,22 A9.954 9.954 0 0 1 6.433,20.308 A12.029 12.029 0 0 1 13.773,14.438 Z M21.573,14.902 A10.024 10.024 0 0 1 17.218,20.532 A34.79 34.79 0 0 0 15.758,14.064 A12.058 12.058 0 0 1 21.573,14.902 M12.145,10.485 C12.477,11.163 12.788,11.855 13.075,12.558 A14.034 14.034 0 0 0 4.868,19.009 A10.079 10.079 0 0 1 2.041,11.087 C5.384,11.795 8.911,11.589 12.145,10.485 M19.72,5.644 A10.069 10.069 0 0 1 21.96,12.904 A14.094 14.094 0 0 0 15.06,12.134 A34.782 34.782 0 0 0 14.005,9.736 A19.05 19.05 0 0 0 19.72,5.644 M7.266,3.19 A33.098 33.098 0 0 1 11.196,8.692 A17.129 17.129 0 0 1 2.42,9.122 A10.027 10.027 0 0 1 7.266,3.19 M12,2 C14.388,2 16.581,2.837 18.3,4.234 A17.043 17.043 0 0 1 13.08,7.96 A35.077 35.077 0 0 0 9.22,2.392 A10.005 10.005 0 0 1 12,2"/>
</svg>

