<svg xmlns="http://www.w3.org/2000/svg" width="24" height="24">
  <defs/>
  <path  d="M12.185,2.421 C12.491,1.99 13.078,1.871 13.527,2.149 C13.976,2.427 14.131,3.007 13.882,3.472 L13.815,3.579 L13.517,4 L16.5,4 C17.273,4 17.919,4.587 17.993,5.356 L18,5.5 L18,7 L17.997,7.084 C18.539,7.274 18.939,7.768 18.994,8.361 L19,8.501 L19,10 C19,10.505 18.623,10.931 18.121,10.992 L18.005,10.999 L17.085,20.199 C16.988,21.163 16.214,21.919 15.248,21.993 L15.095,21.999 L8.905,21.999 C7.935,21.999 7.105,21.304 6.935,20.349 L6.915,20.199 L5.995,10.999 C5.49,10.996 5.066,10.617 5.007,10.115 L5,10 L5,8.5 C5,7.863 5.402,7.295 6.003,7.084 L6.001,7.042 L6,5.5 C6,4.727 6.587,4.081 7.356,4.007 L7.5,4 L11.087,4 L11.131,3.913 L11.185,3.83 Z M15.895,12.001 L8.105,12.001 L8.905,20.001 L15.095,20.001 Z M17,9 L7,9 L7,10 L17,10 Z M16,6 L8,6 L8,7 L16,7 Z"/>
</svg>

