<svg xmlns="http://www.w3.org/2000/svg" width="24" height="24">
  <defs/>
  <path  d="M13.815,3.579 L13.517,4 L16.5,4 C17.328,4 18,4.672 18,5.5 L18,7 L17.997,7.084 C18.598,7.295 19,7.863 19,8.5 L19,10 C19,10.55 18.555,10.997 18.005,11 L17.085,20.2 C16.982,21.222 16.122,22 15.095,22 L8.905,22 C7.878,22 7.018,21.222 6.915,20.2 L5.995,11 C5.445,10.997 5,10.55 5,10 L5,8.5 C5,7.863 5.402,7.295 6.003,7.084 L6,7 L6,5.5 C6,4.672 6.672,4 7.5,4 L11.087,4 C11.114,3.94 11.147,3.883 11.185,3.83 L12.185,2.421 C12.51,1.985 13.123,1.889 13.566,2.204 C14.009,2.518 14.119,3.129 13.815,3.579 Z M8,7 L16,7 L16,6 L8,6 Z"/>
</svg>

