<svg xmlns="http://www.w3.org/2000/svg" width="24" height="24">
  <defs/>
  <path  d="M14.31,3 C14.966,3 15.58,3.322 15.954,3.861 L16.042,4 L21.815,14 C22.141,14.564 22.171,15.251 21.897,15.842 L21.815,16 L19.505,20 C19.177,20.568 18.592,20.939 17.938,20.993 L17.774,21 L6.227,21 C5.571,21 4.956,20.679 4.582,20.139 L4.495,20 L2.185,16 C1.859,15.436 1.829,14.749 2.103,14.158 L2.185,14 L7.96,4 C8.288,3.432 8.874,3.061 9.528,3.007 L9.691,3 Z M19.506,16 L9.113,16 L7.381,19 L17.774,19 Z M14.31,5 L10.846,5 L16.042,14 L19.506,14 Z M9.114,6 L3.917,15 L5.649,18 L10.845,9 Z M12,11 L10.268,14 L13.732,14 Z"/>
</svg>

