<svg xmlns="http://www.w3.org/2000/svg" width="24" height="24">
  <defs/>
  <path  d="M21.238,17 L19.506,20 A2 2 0 0 1 17.937,20.993 L17.773,21 L6.226,21 C5.977,21 5.736,20.954 5.51,20.867 L5.345,20.795 L7.535,17 Z M8.577,3.339 L10.845,7.268 L3.995,19.134 L2.184,16 A2 2 0 0 1 2.184,14 L7.958,4 C8.114,3.73 8.327,3.506 8.577,3.339 M14.309,3 A2 2 0 0 1 15.954,3.861 L16.04,4 L21.814,14 C21.963,14.258 22.05,14.54 22.074,14.828 L22.082,15 L17.618,15 L10.69,3 Z M12,9.268 L15.31,15 L8.69,15 Z"/>
</svg>

