<svg xmlns="http://www.w3.org/2000/svg" width="24" height="24">
  <defs/>
  <path  d="M10.924,15.792 A1 1 0 0 1 12.856,16.31 L12.597,17.276 A1 1 0 0 1 10.665,16.758 Z M11.5,2 A6.502 6.502 0 0 1 17.586,6.212 A6.002 6.002 0 0 1 16,18 L14.466,18 C14.489,17.932 14.51,17.864 14.529,17.793 L14.788,16.828 A3 3 0 1 0 8.992,15.275 L8.733,16.241 A2.986 2.986 0 0 0 8.733,17.793 A2.99 2.99 0 0 0 8.544,18 L7,18 A5 5 0 0 1 5,8.416 A6.5 6.5 0 0 1 11.5,2 M11.82,20.174 A1 1 0 1 0 9.889,19.656 L9.63,20.622 A1 1 0 0 0 11.562,21.14 Z"/>
</svg>

