<svg xmlns="http://www.w3.org/2000/svg" width="24" height="24">
  <defs/>
  <path  d="M10.924,15.792 A1 1 0 0 1 12.856,16.31 L12.597,17.276 A1 1 0 0 1 10.665,16.758 Z M11.5,2 A6.502 6.502 0 0 1 17.586,6.212 A6.002 6.002 0 0 1 17.199,17.88 A1 1 0 1 1 16.801,15.92 A4.002 4.002 0 0 0 16.651,8.052 A1 1 0 0 1 15.845,7.326 A4.5 4.5 0 0 0 7.028,9.006 A1 1 0 0 1 6.275,10.088 A3.002 3.002 0 0 0 6.106,15.865 L6.275,15.912 A1 1 0 0 1 5.794,17.853 A5.002 5.002 0 0 1 5,8.416 A6.5 6.5 0 0 1 11.5,2 M11.82,20.174 A1 1 0 1 0 9.889,19.656 L9.63,20.622 A1 1 0 0 0 11.562,21.14 Z"/>
</svg>

