<svg xmlns="http://www.w3.org/2000/svg" width="24" height="24">
  <defs/>
  <path  d="M6.943,13.838 A1 1 0 0 1 6.441,15.068 L6.333,15.114 A2.001 2.001 0 1 0 8.83,17.81 L8.887,17.667 A1 1 0 1 1 10.772,18.333 A4.001 4.001 0 1 1 5.667,13.228 A1 1 0 0 1 6.943,13.838 M17.057,13.838 A1 1 0 0 1 18.333,13.228 A4.001 4.001 0 1 1 13.228,18.333 A1 1 0 0 1 15.068,17.559 L15.114,17.667 A2.001 2.001 0 1 0 17.81,15.17 L17.667,15.114 A1 1 0 0 1 17.057,13.837 Z M8.114,6.71 L10.772,8.777 A2 2 0 0 0 13.228,8.777 L15.886,6.71 A1 1 0 0 1 17.289,8.113 L15.222,10.771 A2 2 0 0 0 15.222,13.227 L17.289,15.885 A1 1 0 0 1 15.886,17.288 L13.228,15.221 A2 2 0 0 0 10.772,15.221 L8.114,17.288 A1 1 0 0 1 6.711,15.885 L8.778,13.227 A2 2 0 0 0 8.778,10.771 L6.711,8.114 A1 1 0 0 1 8.114,6.71 M12.904,11.095 A4.01 4.01 0 0 1 11.096,11.095 A4.01 4.01 0 0 1 11.096,12.903 A4.01 4.01 0 0 1 12.904,12.903 A4.01 4.01 0 0 1 12.904,11.095 M17,3 A4 4 0 0 1 18.333,10.772 A1 1 0 0 1 17.559,8.932 L17.667,8.886 A2.001 2.001 0 1 0 15.17,6.19 L15.114,6.333 A1 1 0 0 1 13.228,5.667 A4.001 4.001 0 0 1 17,3 M7,3 A4.001 4.001 0 0 1 10.772,5.667 A1 1 0 0 1 8.932,6.441 L8.886,6.333 A2.001 2.001 0 1 0 6.19,8.83 L6.333,8.887 A1 1 0 0 1 5.667,10.772 A4.001 4.001 0 0 1 7,3"/>
</svg>

