<svg xmlns="http://www.w3.org/2000/svg" width="24" height="24">
  <defs/>
  <path  d="M6.887,3.5 C7.321,3.249 8.002,3.226 8.481,3.432 L8.619,3.5 L11.998,5.45 L15.377,3.5 C15.811,3.249 16.492,3.226 16.971,3.432 L17.109,3.5 L21.351,5.95 C21.798,6.207 21.827,6.614 21.441,6.892 L21.351,6.949 L17.973,8.899 L21.351,10.849 C21.798,11.107 21.827,11.514 21.441,11.792 L21.351,11.849 L17.109,14.299 C16.674,14.549 15.993,14.572 15.514,14.367 L15.377,14.299 L11.997,12.348 L8.619,14.298 C8.184,14.55 7.503,14.572 7.024,14.368 L6.887,14.298 L2.644,11.849 C2.197,11.592 2.168,11.184 2.554,10.907 L2.644,10.849 L6.022,8.9 L2.644,6.95 C2.197,6.693 2.168,6.285 2.554,6.008 L2.644,5.95 Z M11.998,13.503 L14.877,15.165 C15.303,15.411 15.8,15.505 16.242,15.505 C16.685,15.505 17.182,15.411 17.609,15.165 L18.196,14.825 L18.196,17 C18.196,17.357 18.005,17.687 17.696,17.866 L12.5,20.866 C12.191,21.045 11.809,21.045 11.5,20.866 L6.304,17.866 C5.995,17.687 5.804,17.357 5.804,17 L5.804,14.828 L6.387,15.165 C6.813,15.411 7.31,15.505 7.753,15.505 C8.195,15.505 8.692,15.411 9.119,15.165 Z M12.433,6.202 C12.228,6.083 11.913,6.066 11.678,6.151 L11.567,6.201 L7.324,8.651 C7.112,8.773 7.088,8.964 7.254,9.101 L7.324,9.151 L11.567,11.6 C11.772,11.718 12.087,11.735 12.322,11.65 L12.433,11.6 L16.676,9.15 C16.888,9.028 16.912,8.838 16.746,8.7 L16.676,8.65 Z"/>
</svg>

