<svg xmlns="http://www.w3.org/2000/svg" width="24" height="24">
  <defs/>
  <path  d="M11.249,2.321 C11.685,1.961 12.315,1.961 12.751,2.321 C14.188,3.516 15.505,4.849 16.682,6.3 C18.322,8.339 20,11.106 20,14 C20,18.418 16.418,22 12,22 C7.582,22 4,18.418 4,14 C4,11.106 5.678,8.339 7.318,6.299 C8.495,4.848 9.811,3.516 11.248,2.321 Z M12,4.307 C10.87,5.299 9.825,6.385 8.876,7.552 C7.305,9.507 6,11.817 6,14 C6,17.314 8.686,20 12,20 C15.314,20 18,17.314 18,14 C18,11.817 16.695,9.507 15.124,7.552 C14.175,6.385 13.13,5.299 12,4.307 Z"/>
</svg>

