<svg xmlns="http://www.w3.org/2000/svg" width="24" height="24">
  <defs/>
  <path  d="M8.619,3.5 L11.998,5.45 L15.377,3.5 C15.855,3.224 16.63,3.224 17.109,3.5 L21.351,5.95 C21.83,6.225 21.83,6.673 21.351,6.95 L17.974,8.9 L21.351,10.85 C21.83,11.125 21.83,11.573 21.351,11.85 L18.196,13.67 L18.196,17 C18.196,17.357 18.005,17.687 17.696,17.866 L12.5,20.866 C12.191,21.045 11.809,21.045 11.5,20.866 L6.304,17.866 C5.995,17.687 5.804,17.357 5.804,17 L5.804,13.673 L2.644,11.849 C2.166,11.573 2.166,11.125 2.644,10.849 L6.022,8.9 L2.644,6.95 C2.166,6.674 2.166,6.226 2.644,5.95 L6.887,3.5 C7.365,3.224 8.14,3.224 8.619,3.5 Z M11.998,12.348 L8.618,14.298 C8.392,14.429 8.1,14.498 7.804,14.505 L7.804,16.423 L12,18.845 L16.196,16.423 L16.196,14.505 C15.91,14.504 15.628,14.433 15.376,14.298 Z M12,7.45 L9.49,8.9 L12,10.35 L14.51,8.9 Z M16.243,5 L13.732,6.45 L16.242,7.899 L18.753,6.449 Z M7.753,5 L5.242,6.45 L7.752,7.899 L10.263,6.449 Z M7.753,9.9 L5.242,11.35 L7.752,12.799 L10.263,11.349 Z M16.243,9.9 L13.733,11.35 L16.243,12.799 L18.753,11.349 Z"/>
</svg>

