<svg xmlns="http://www.w3.org/2000/svg" width="24" height="24">
  <defs/>
  <path  d="M17.303,4 C17.753,4 18.217,4.152 18.587,4.476 C20.758,6.373 22.003,9.117 22,12 C22,15 20.677,17.693 18.587,19.524 C18.275,19.795 17.885,19.96 17.473,19.993 L17.303,20 L6.697,20 C6.247,20 5.783,19.848 5.413,19.524 C3.242,17.627 1.997,14.883 2,12 C2,9 3.322,6.307 5.413,4.476 C5.725,4.205 6.115,4.04 6.527,4.007 L6.697,4 Z M18.93,16 L5.07,16 C5.505,16.753 6.06,17.428 6.708,18 L17.292,18 C17.942,17.426 18.495,16.751 18.93,16 Z M17.292,6 L6.708,6 C6.151,6.491 5.665,7.057 5.264,7.682 L5.07,8 L18.93,8 C18.558,7.357 18.098,6.768 17.564,6.251 Z"/>
</svg>

