<svg xmlns="http://www.w3.org/2000/svg" width="24" height="24">
  <defs/>
  <path  d="M12.371,3.071 C12.884,3.276 13.133,3.858 12.928,4.371 L12.101,6.441 C11.49,7.97 11.67,9.701 12.583,11.071 L13.081,11.819 C14.36,13.737 14.612,16.162 13.756,18.302 L12.928,20.372 C12.723,20.885 12.14,21.134 11.627,20.928 C11.115,20.723 10.866,20.141 11.071,19.628 L11.899,17.558 C12.51,16.029 12.33,14.298 11.417,12.928 L10.919,12.181 C9.64,10.263 9.388,7.838 10.244,5.698 L11.071,3.628 C11.276,3.115 11.858,2.866 12.371,3.071 Z M7.371,3.071 C7.884,3.276 8.133,3.858 7.928,4.371 L7.101,6.441 C6.49,7.97 6.67,9.701 7.583,11.071 L8.081,11.819 C9.36,13.737 9.612,16.162 8.756,18.302 L7.928,20.372 C7.723,20.885 7.14,21.134 6.628,20.928 C6.115,20.723 5.866,20.141 6.071,19.628 L6.899,17.558 C7.51,16.029 7.33,14.298 6.417,12.928 L5.919,12.181 C4.64,10.263 4.388,7.838 5.244,5.698 L6.071,3.628 C6.276,3.115 6.858,2.866 7.371,3.071 Z M17.371,3.071 C17.884,3.276 18.133,3.858 17.928,4.371 L17.101,6.441 C16.49,7.97 16.67,9.701 17.583,11.071 L18.081,11.819 C19.36,13.737 19.612,16.162 18.756,18.302 L17.928,20.372 C17.723,20.885 17.14,21.134 16.628,20.928 C16.115,20.723 15.866,20.141 16.071,19.628 L16.899,17.558 C17.51,16.029 17.33,14.298 16.417,12.928 L15.919,12.181 C14.64,10.263 14.388,7.838 15.244,5.698 L16.071,3.628 C16.276,3.115 16.858,2.866 17.371,3.071 Z"/>
</svg>

