<svg xmlns="http://www.w3.org/2000/svg" width="24" height="24">
  <defs/>
  <path  d="M17.557,2.607 C18.326,2.915 18.701,3.788 18.393,4.557 L17.565,6.627 C17.015,8.003 17.177,9.561 17.999,10.794 L18.497,11.542 C19.867,13.597 20.138,16.194 19.221,18.487 L18.393,20.557 C18.085,21.326 17.212,21.701 16.443,21.393 C15.674,21.085 15.299,20.212 15.607,19.443 L16.435,17.373 C16.985,15.997 16.823,14.439 16.001,13.206 L15.503,12.458 C14.133,10.403 13.862,7.805 14.779,5.512 L15.607,3.442 C15.915,2.673 16.788,2.299 17.557,2.607 Z M7.557,2.607 C8.326,2.915 8.701,3.788 8.393,4.557 L7.565,6.627 C7.015,8.003 7.177,9.561 7.999,10.794 L8.497,11.542 C9.867,13.597 10.137,16.194 9.22,18.487 L8.393,20.557 C8.085,21.326 7.212,21.701 6.443,21.393 C5.674,21.085 5.299,20.212 5.607,19.443 L6.435,17.373 C6.985,15.997 6.823,14.439 6.001,13.206 L5.503,12.458 C4.133,10.403 3.862,7.805 4.779,5.512 L5.607,3.442 C5.915,2.673 6.788,2.299 7.557,2.607 Z M12.557,2.607 C13.326,2.915 13.701,3.788 13.393,4.557 L12.565,6.627 C12.015,8.003 12.177,9.561 12.999,10.794 L13.497,11.542 C14.867,13.597 15.137,16.194 14.22,18.487 L13.393,20.557 C13.085,21.326 12.212,21.701 11.443,21.393 C10.674,21.085 10.299,20.212 10.607,19.443 L11.435,17.373 C11.985,15.997 11.823,14.439 11.001,13.206 L10.503,12.458 C9.133,10.403 8.862,7.805 9.779,5.512 L10.607,3.442 C10.915,2.673 11.788,2.299 12.557,2.607 Z"/>
</svg>

