<svg xmlns="http://www.w3.org/2000/svg" width="24" height="24">
  <defs/>
  <path  d="M8.907,2.6 L11.99,6.518 L13.951,3.121 C14.227,2.643 14.839,2.479 15.317,2.755 L18.781,4.755 C19.068,4.921 19.255,5.218 19.279,5.549 C19.303,5.88 19.161,6.202 18.9,6.407 L14.982,9.489 L18.379,11.451 C18.857,11.727 19.021,12.339 18.745,12.817 L16.745,16.281 C16.618,16.501 16.411,16.665 16.168,16.738 L16.82,20 L17,20 C17.552,20 18,20.448 18,21 C18,21.552 17.552,22 17,22 L7,22 C6.448,22 6,21.552 6,21 C6,20.448 6.448,20 7,20 L7.18,20 L8.01,15.856 L5.219,14.245 C4.932,14.079 4.745,13.781 4.722,13.45 C4.698,13.119 4.84,12.798 5.101,12.593 L9.018,9.51 L5.621,7.55 C5.143,7.274 4.979,6.662 5.255,6.184 L7.255,2.72 C7.421,2.432 7.718,2.246 8.049,2.222 C8.38,2.198 8.702,2.339 8.907,2.6 Z M11.835,13 L9.95,16.352 L9.22,20 L14.78,20 L14.05,16.352 L12.166,13 L11.835,13 Z M12.5,16 C12.741,16 12.949,16.172 12.992,16.41 L13,16.5 L13,17.5 C13,17.741 12.828,17.949 12.59,17.992 L12.5,18 L11.5,18 C11.259,18 11.051,17.828 11.008,17.59 L11,17.5 L11,16.5 C11,16.259 11.172,16.051 11.41,16.008 L11.5,16 Z"/>
</svg>

