<svg xmlns="http://www.w3.org/2000/svg" width="24" height="24">
  <defs/>
  <path  d="M8.907,2.6 L11.99,6.518 L13.951,3.121 A1 1 0 0 1 15.317,2.755 L18.781,4.755 A1 1 0 0 1 18.9,6.407 L14.982,9.489 L18.379,11.451 A1 1 0 0 1 18.745,12.817 L16.745,16.281 A1 1 0 0 1 16.168,16.738 L16.82,20 L17,20 A1 1 0 0 1 17,22 L7,22 A1 1 0 1 1 7,20 L7.18,20 L8.01,15.856 L5.219,14.245 A1 1 0 0 1 5.101,12.593 L9.018,9.51 L5.621,7.55 A1 1 0 0 1 5.255,6.184 L7.255,2.72 A1 1 0 0 1 8.907,2.6 M12.165,13 L11.835,13 L9.95,16.352 L9.22,20 L14.78,20 L14.05,16.352 L12.166,13 Z M12.5,16 A0.5 0.5 0 0 1 12.992,16.41 L13,16.5 L13,17.5 A0.5 0.5 0 0 1 12.59,17.992 L12.5,18 L11.5,18 A0.5 0.5 0 0 1 11.008,17.59 L11,17.5 L11,16.5 A0.5 0.5 0 0 1 11.41,16.008 L11.5,16 Z M10.037,11.253 L7.498,13.252 L8.818,14.013 L10.318,11.415 Z M13.915,11.183 L13.754,11.463 L15.752,14.002 L16.513,12.682 L13.915,11.182 Z M11.817,8.817 L11.317,9.683 L12.183,10.183 L12.683,9.317 Z M8.248,4.997 L7.487,6.317 L10.085,7.817 L10.246,7.537 Z M15.183,4.987 L13.683,7.585 L13.963,7.746 L16.502,5.748 Z"/>
</svg>

