<svg xmlns="http://www.w3.org/2000/svg" width="24" height="24">
  <defs/>
  <path  d="M7,9 C7,9.28 7.023,9.559 7.069,9.835 C7.146,10.372 6.78,10.873 6.244,10.963 C5.709,11.052 5.199,10.698 5.097,10.165 C4.659,7.562 5.723,4.933 7.848,3.368 C9.974,1.802 12.799,1.565 15.156,2.755 C17.512,3.946 18.999,6.36 19,9 C19,11.587 17.506,13.163 16.099,15.129 C15.528,15.928 15.083,16.805 14.998,18.068 C14.856,20.157 13.267,22 11,22 C8.791,22 7,20.209 7,18 C7,15.454 8.935,13.872 10.375,12.719 C11.385,11.912 12.697,11.091 13.03,9.757 C13.211,9.033 13.032,8.624 12.84,8.397 C12.616,8.134 12.276,8 12,8 C11.544,8 11.145,8.308 11.031,8.75 C10.884,9.273 10.345,9.583 9.818,9.447 C9.292,9.311 8.971,8.779 9.095,8.25 C9.437,6.925 10.632,6 12,6 C12.91,6.009 13.773,6.411 14.364,7.103 C15.02,7.876 15.289,8.967 14.97,10.243 C14.495,12.142 13.023,13.163 11.625,14.28 C10.065,15.528 9,16.546 9,18 C9,19.105 9.895,20 11,20 C12.047,20 12.92,19.15 13.002,17.932 C13.12,16.195 13.756,14.968 14.472,13.966 C15.61,12.376 17,11.098 17,9 C17,6.239 14.761,4 12,4 C9.239,4 7,6.239 7,9 Z"/>
</svg>

