<svg xmlns="http://www.w3.org/2000/svg" width="24" height="24">
  <defs/>
  <path  d="M12,2 A7 7 0 0 0 5.097,10.166 C5.154,10.508 5.284,10.843 5.48,11.141 C5.796,11.778 6.262,12.348 6.863,12.885 L7.023,13.025 C7.473,13.418 8,13.878 8,14.5 L8,14.553 C8.38,14.212 8.777,13.906 9.147,13.633 C9.302,13.517 9.449,13.411 9.588,13.309 C9.878,13.099 10.135,12.911 10.375,12.719 L10.585,12.551 C12.045,11.385 12.767,10.809 13.03,9.757 C13.211,9.033 13.032,8.624 12.84,8.397 A1.15 1.15 0 0 0 12,8 A1 1 0 0 0 11.031,8.75 A1 1 0 1 1 9.095,8.25 A3 3 0 0 1 12,6 C12.829,6 13.739,6.366 14.364,7.103 C15.021,7.876 15.289,8.967 14.97,10.243 C14.536,11.979 13.269,12.98 11.987,13.993 L11.625,14.281 C11.348,14.502 11.029,14.734 10.72,14.959 L10.337,15.239 C9.902,15.562 9.491,15.884 9.133,16.231 C8.477,16.867 8.067,17.519 8.007,18.301 C8.123,20.622 9.561,22 11,22 C13.156,22 14.833,20.5 14.998,18.068 C15.083,16.805 15.528,15.928 16.099,15.129 C16.343,14.788 16.609,14.462 16.873,14.136 C17.298,13.612 17.723,13.088 18.063,12.501 A7 7 0 0 0 12,2"/>
</svg>

