<svg xmlns="http://www.w3.org/2000/svg" width="24" height="24">
  <defs/>
  <path  d="M12,2 C17.523,2 22,6.477 22,12 C22,17.523 17.523,22 12,22 C6.477,22 2,17.523 2,12 C2,6.477 6.477,2 12,2 M13.683,15.95 A28.45 28.45 0 0 1 10.317,15.95 C10.453,16.736 10.626,17.444 10.827,18.048 C11.079,18.804 11.357,19.344 11.617,19.674 C11.705,19.784 11.84,20 12.002,20 C12.147,19.987 12.304,19.773 12.382,19.674 C12.642,19.344 12.921,18.804 13.172,18.048 A14.35 14.35 0 0 0 13.682,15.95 Z M19.513,14.755 C19.248,14.869 18.969,14.974 18.68,15.07 C17.828,15.354 16.832,15.582 15.74,15.74 A17.191 17.191 0 0 1 15.07,18.68 C14.974,18.97 14.869,19.248 14.755,19.513 A8.023 8.023 0 0 0 19.513,14.755 M4.487,14.755 A8.023 8.023 0 0 0 9.245,19.513 A10.567 10.567 0 0 1 8.93,18.68 A17.191 17.191 0 0 1 8.26,15.74 A17.191 17.191 0 0 1 5.32,15.07 C5.03,14.974 4.752,14.869 4.487,14.755 M10.072,10.072 A25.528 25.528 0 0 0 10.072,13.928 C11.354,14.025 12.646,14.025 13.928,13.928 A25.537 25.537 0 0 0 13.928,10.072 A25.526 25.526 0 0 0 10.072,10.072 M15.95,10.317 A28.45 28.45 0 0 1 15.95,13.683 A14.438 14.438 0 0 0 18.048,13.173 C18.804,12.921 19.344,12.643 19.674,12.383 C19.784,12.296 20,12.159 20,11.998 C19.987,11.853 19.773,11.696 19.674,11.618 C19.344,11.358 18.804,11.079 18.048,10.828 A14.438 14.438 0 0 0 15.95,10.318 Z M8.05,10.317 C7.264,10.453 6.557,10.626 5.952,10.827 C5.196,11.079 4.657,11.357 4.326,11.617 C4.086,11.807 4.014,11.95 4.003,11.985 C3.958,12.135 4.233,12.308 4.326,12.382 C4.656,12.642 5.196,12.921 5.952,13.172 C6.557,13.374 7.264,13.547 8.05,13.682 A28.415 28.415 0 0 1 8.05,10.318 Z M9.245,4.487 A8.024 8.024 0 0 0 4.487,9.245 C4.752,9.131 5.031,9.026 5.32,8.93 A17.191 17.191 0 0 1 8.26,8.26 C8.418,7.168 8.646,6.172 8.93,5.32 C9.026,5.03 9.131,4.752 9.245,4.487 M14.755,4.487 C14.869,4.752 14.974,5.031 15.07,5.32 C15.354,6.172 15.582,7.168 15.74,8.26 C16.832,8.418 17.828,8.646 18.68,8.93 C18.97,9.026 19.248,9.131 19.513,9.245 A8.023 8.023 0 0 0 14.755,4.487 M12,4 C11.861,4 11.688,4.237 11.618,4.326 C11.358,4.656 11.079,5.196 10.828,5.952 A14.437 14.437 0 0 0 10.318,8.05 A28.415 28.415 0 0 1 13.682,8.05 A14.437 14.437 0 0 0 13.172,5.952 C12.921,5.196 12.642,4.657 12.382,4.326 C12.312,4.236 12.14,4 12,4"/>
</svg>

