<svg xmlns="http://www.w3.org/2000/svg" width="24" height="24">
  <defs/>
  <path  d="M2,12 C2,6.477 6.477,2 12,2 C17.523,2 22,6.477 22,12 C22,17.523 17.523,22 12,22 C6.477,22 2,17.523 2,12 Z M13,19.651 C13.51,19.325 14.06,18.747 14.571,17.86 C15.413,16.4 16,14.328 16,12 C16,9.672 15.413,7.6 14.571,6.14 C14.06,5.253 13.51,4.675 13,4.348 Z M11,19.611 L11,4.348 C10.49,4.675 9.94,5.253 9.429,6.14 C8.587,7.6 8,9.672 8,12 C8,14.317 8.62,16.388 9.482,17.851 C9.988,18.711 10.52,19.279 11,19.611 Z M4,12 C3.999,14.726 5.387,17.266 7.683,18.736 C6.673,16.962 6,14.59 6,12 C6,9.445 6.62,7.095 7.595,5.32 C5.349,6.8 3.998,9.31 4,12 Z M20,12 C20.002,9.31 18.651,6.8 16.405,5.32 C17.38,7.094 18,9.445 18,12 C18,14.555 17.38,16.905 16.405,18.68 C18.57,17.248 20,14.79 20,12 Z"/>
</svg>

