<svg xmlns="http://www.w3.org/2000/svg" width="24" height="24">
  <defs/>
  <path  d="M13.649,2.135 A10.07 10.07 0 0 0 10.351,2.135 C10.015,2.591 9.687,3.18 9.388,3.899 C9.106,4.575 8.858,5.345 8.652,6.19 C9.722,6.066 10.845,6 12,6 C13.155,6 14.278,6.066 15.348,6.19 A15.558 15.558 0 0 0 14.613,3.9 C14.313,3.18 13.985,2.59 13.649,2.135 M15.742,8.258 A26.648 26.648 0 0 0 12,8 C10.682,8 9.424,8.092 8.258,8.258 A26.647 26.647 0 0 0 8,12 C8,13.318 8.092,14.576 8.258,15.742 C9.424,15.908 10.682,16 12,16 C13.318,16 14.576,15.909 15.742,15.742 C15.908,14.576 16,13.318 16,12 C16,10.682 15.909,9.424 15.742,8.258 M17.81,15.348 C17.934,14.278 18,13.155 18,12 C18,10.845 17.934,9.722 17.81,8.652 A15.57 15.57 0 0 1 20.1,9.388 C20.82,9.688 21.41,10.015 21.865,10.351 A10.068 10.068 0 0 1 21.865,13.649 C21.41,13.985 20.82,14.313 20.101,14.613 C19.425,14.894 18.655,15.143 17.81,15.348 M15.348,17.81 C14.278,17.934 13.155,18 12,18 C10.845,18 9.722,17.934 8.652,17.81 C8.858,18.655 9.106,19.425 9.388,20.1 C9.688,20.82 10.015,21.41 10.351,21.865 A10.068 10.068 0 0 0 13.649,21.865 C13.985,21.41 14.313,20.82 14.613,20.101 C14.894,19.425 15.143,18.655 15.348,17.81 M16.414,20.976 L16.459,20.87 C16.874,19.874 17.217,18.727 17.473,17.473 A19.138 19.138 0 0 0 20.489,16.611 L20.976,16.414 A10.042 10.042 0 0 1 16.414,20.976 M7.586,20.976 L7.541,20.87 C7.126,19.874 6.783,18.727 6.527,17.473 A19.136 19.136 0 0 1 3.511,16.611 L3.024,16.414 A10.042 10.042 0 0 0 7.586,20.976 M6.19,15.348 A29.064 29.064 0 0 1 6,12 C6,10.845 6.066,9.722 6.19,8.652 C5.345,8.858 4.575,9.106 3.9,9.388 C3.18,9.688 2.59,10.015 2.135,10.351 A10.07 10.07 0 0 0 2.135,13.649 C2.591,13.985 3.18,14.313 3.899,14.613 C4.575,14.894 5.345,15.143 6.19,15.348 M6.527,6.528 A19.13 19.13 0 0 1 7.39,3.51 L7.587,3.023 A10.042 10.042 0 0 0 3.025,7.585 L3.131,7.54 C4.127,7.125 5.274,6.782 6.528,6.526 M17.474,6.526 A19.136 19.136 0 0 0 16.612,3.509 L16.415,3.022 A10.042 10.042 0 0 1 20.977,7.584 L20.871,7.539 C19.875,7.124 18.728,6.781 17.474,6.525"/>
</svg>

