<svg xmlns="http://www.w3.org/2000/svg" width="24" height="24">
  <defs/>
  <path  d="M2,12 C2,6.477 6.477,2 12,2 C17.523,2 22,6.477 22,12 C22,17.523 17.523,22 12,22 C6.477,22 2,17.523 2,12 Z M18.93,16 C19.464,15.078 19.807,14.057 19.938,13 L4.062,13 C4.193,14.057 4.536,15.078 5.07,16 Z M4.062,11 L19.938,11 C19.807,9.943 19.464,8.922 18.93,8 L5.07,8 C4.536,8.922 4.193,9.943 4.062,11 Z M17.292,18 L6.708,18 C8.168,19.291 10.051,20.003 12,20 C13.949,20.003 15.832,19.291 17.292,18 Z M12,4 C10.051,3.997 8.168,4.709 6.708,6 L17.292,6 C15.832,4.709 13.949,3.997 12,4 Z"/>
</svg>

