<svg xmlns="http://www.w3.org/2000/svg" width="24" height="24">
  <defs/>
  <path  d="M21.815,13.925 A10.013 10.013 0 0 1 14.355,21.721 C14.865,21.119 15.307,20.339 15.674,19.454 C16.039,18.574 16.344,17.553 16.57,16.434 C18.247,16.002 19.766,15.338 21.04,14.489 C21.308,14.31 21.567,14.122 21.815,13.925 M2.185,13.925 C2.433,14.122 2.692,14.31 2.96,14.489 C4.233,15.338 5.752,16.002 7.43,16.434 C7.655,17.553 7.96,18.574 8.326,19.454 C8.692,20.338 9.134,21.119 9.644,21.721 A10.013 10.013 0 0 1 2.185,13.925 M14.427,16.845 A13.45 13.45 0 0 1 13.826,18.689 C13.479,19.527 13.097,20.144 12.735,20.535 C12.365,20.935 12.111,21 12,21 C11.889,21 11.636,20.935 11.265,20.535 C10.903,20.145 10.521,19.527 10.174,18.689 A13.45 13.45 0 0 1 9.573,16.845 C10.361,16.947 11.173,17 12,17 A18.9 18.9 0 0 0 14.427,16.845 M14.963,10.729 A21.686 21.686 0 0 1 14.821,14.764 C13.924,14.918 12.978,15 12,15 A16.76 16.76 0 0 1 9.178,14.764 A21.212 21.212 0 0 1 9.037,10.729 C9.983,10.906 10.977,11 12,11 A16.14 16.14 0 0 0 14.963,10.729 M21.066,7.775 C21.526,8.761 21.831,9.835 21.946,10.964 C21.445,11.637 20.769,12.266 19.93,12.824 C19.06,13.404 18.034,13.894 16.891,14.261 A23.46 23.46 0 0 0 16.933,10.216 A11.97 11.97 0 0 0 19.616,8.935 A9.146 9.146 0 0 0 21.066,7.775 M2.934,7.775 C3.364,8.202 3.854,8.59 4.384,8.935 A11.95 11.95 0 0 0 7.067,10.216 A23.591 23.591 0 0 0 7.108,14.261 C5.965,13.894 4.939,13.405 4.069,12.825 C3.231,12.266 2.555,11.637 2.053,10.964 C2.169,9.834 2.473,8.761 2.933,7.774 Z M12,3 C12.11,3 12.364,3.066 12.735,3.466 C13.097,3.856 13.479,4.474 13.826,5.312 C14.216,6.255 14.54,7.42 14.748,8.733 C13.886,8.906 12.963,9 12,9 A14.01 14.01 0 0 1 9.251,8.733 C9.459,7.42 9.783,6.255 10.174,5.313 C10.521,4.474 10.903,3.857 11.264,3.466 C11.636,3.066 11.889,3 12,3 M14.355,2.279 A10.007 10.007 0 0 1 19.995,5.994 A6.72 6.72 0 0 1 18.526,7.258 A9.716 9.716 0 0 1 16.684,8.181 C16.453,6.82 16.104,5.586 15.674,4.547 C15.307,3.662 14.865,2.881 14.354,2.279 Z M9.645,2.279 C9.135,2.881 8.693,3.662 8.326,4.547 C7.896,5.587 7.546,6.82 7.316,8.181 A9.715 9.715 0 0 1 5.474,7.258 A6.723 6.723 0 0 1 4.004,5.994 A10.007 10.007 0 0 1 9.645,2.279"/>
</svg>

