<svg xmlns="http://www.w3.org/2000/svg" width="24" height="24">
  <defs/>
  <path  d="M8.884,2.497 C9.89,2.167 10.942,2 12,2 C13.087,2 14.135,2.174 15.117,2.496 C18.133,3.484 20.516,5.866 21.504,8.883 C21.826,9.865 22,10.913 22,12 C22.001,13.059 21.834,14.111 21.505,15.117 C20.51,18.139 18.139,20.51 15.117,21.504 C14.111,21.833 13.059,22.001 12,22 C10.941,22.001 9.889,21.834 8.883,21.505 C5.861,20.51 3.49,18.139 2.496,15.117 C2.167,14.111 1.999,13.059 2,12 C2,10.913 2.174,9.865 2.496,8.883 C3.491,5.861 5.861,3.491 8.883,2.496 Z M9.119,9.12 C9.039,10.078 8.999,11.039 9,12 C9,12.998 9.042,13.963 9.12,14.88 C10.037,14.958 11.002,15 12,15 C12.998,15 13.963,14.958 14.88,14.88 C14.958,13.963 15,12.998 15,12 C15,11.002 14.958,10.037 14.88,9.12 C13.922,9.04 12.961,9 12,9 C11.002,9 10.037,9.042 9.12,9.12 Z M19.745,9.986 C18.91,9.736 17.955,9.523 16.905,9.36 C17.032,11.118 17.032,12.882 16.905,14.64 C17.865,14.496 18.814,14.287 19.745,14.014 C19.915,13.356 20.001,12.679 20,12 C20,11.303 19.911,10.629 19.745,9.986 Z M9.986,4.255 C9.736,5.09 9.523,6.045 9.36,7.095 C11.118,6.968 12.882,6.968 14.64,7.095 C14.496,6.135 14.287,5.186 14.014,4.255 C13.356,4.085 12.679,3.999 12,4 C11.303,4 10.629,4.089 9.986,4.255 Z M4.255,14.014 C5.09,14.264 6.045,14.477 7.095,14.64 C6.967,12.882 6.967,11.118 7.095,9.36 C6.135,9.504 5.186,9.713 4.255,9.986 C4.085,10.644 3.999,11.321 4,12 C4,12.697 4.089,13.371 4.255,14.014 Z M14.014,19.745 C14.264,18.91 14.477,17.955 14.64,16.905 C12.882,17.032 11.118,17.032 9.36,16.905 C9.523,17.955 9.735,18.91 9.986,19.745 C10.644,19.915 11.321,20.001 12,20 C12.697,20 13.371,19.911 14.014,19.745 Z M16.338,5.277 C16.476,5.919 16.595,6.598 16.692,7.307 C17.402,7.405 18.082,7.524 18.723,7.662 C18.105,6.707 17.293,5.895 16.338,5.277 Z M5.277,7.662 C5.949,7.518 6.626,7.4 7.307,7.308 C7.405,6.598 7.524,5.918 7.662,5.277 C6.707,5.895 5.895,6.707 5.277,7.662 Z M18.723,16.338 C18.051,16.482 17.374,16.6 16.693,16.692 C16.601,17.373 16.482,18.051 16.338,18.723 C17.293,18.105 18.105,17.293 18.723,16.338 Z M7.662,18.723 C7.518,18.051 7.4,17.374 7.308,16.693 C6.627,16.601 5.949,16.482 5.277,16.338 C5.895,17.293 6.707,18.105 7.662,18.723 Z"/>
</svg>

