<svg xmlns="http://www.w3.org/2000/svg" width="24" height="24">
  <defs/>
  <path  d="M8.393,2.67 C7.883,3.172 7.423,3.76 7.026,4.401 C5.795,6.381 5,9.067 5,12.001 C5,14.946 5.847,17.633 7.1,19.607 A9.69 9.69 0 0 0 8.526,21.38 A10.004 10.004 0 0 1 2,12 C2,7.75 4.653,4.117 8.393,2.67 M11,3.236 L11,20.735 C10.29,20.381 9.505,19.665 8.788,18.535 C7.745,16.892 7,14.578 7,12 C7,9.41 7.705,7.096 8.724,5.457 C9.385,4.394 10.121,3.693 10.824,3.322 Z M15.607,2.67 A10.004 10.004 0 0 1 22,12 C22,16.251 19.347,19.883 15.607,21.33 C16.117,20.828 16.577,20.24 16.974,19.6 C18.205,17.618 19,14.932 19,12 C19,9.068 18.205,6.381 16.974,4.401 A9.373 9.373 0 0 0 15.607,2.671 Z M13,3.236 C13.755,3.579 14.56,4.306 15.276,5.457 C16.295,7.097 17,9.411 17,12 C17,14.59 16.295,16.904 15.276,18.543 C14.615,19.606 13.879,20.307 13.176,20.679 L13,20.765 L13,3.235 Z"/>
</svg>

