<svg xmlns="http://www.w3.org/2000/svg" width="24" height="24">
  <defs/>
  <path  d="M12,2 C17.523,2 22,6.477 22,12 C22,17.523 17.523,22 12,22 C6.477,22 2,17.523 2,12 C2,6.477 6.477,2 12,2 Z M4.568,9.032 C4.079,10.255 3.9,11.579 4.048,12.888 C5.322,13.619 6.69,14.17 8.115,14.525 C7.992,13.178 7.967,11.823 8.041,10.472 C6.827,10.14 5.66,9.657 4.568,9.032 Z M19.432,9.032 C18.34,9.657 17.173,10.14 15.959,10.472 C16.033,11.823 16.008,13.178 15.885,14.525 C17.309,14.17 18.678,13.619 19.951,12.888 C20.098,11.58 19.92,10.255 19.431,9.033 Z M13.976,10.871 C12.664,11.044 11.336,11.044 10.024,10.871 C9.967,12.214 10.014,13.56 10.165,14.896 C11.384,15.035 12.616,15.035 13.835,14.896 C13.946,13.935 14.001,12.968 14,12 C14,11.616 13.992,11.24 13.976,10.87 Z M12.016,4.012 L11.985,4.013 L11.947,4.028 C11.819,4.109 11.707,4.213 11.617,4.335 C11.357,4.665 11.079,5.203 10.827,5.957 C10.557,6.765 10.339,7.757 10.194,8.876 C11.392,9.042 12.608,9.042 13.806,8.876 C13.661,7.756 13.442,6.765 13.173,5.957 C12.921,5.203 12.643,4.664 12.383,4.335 C12.3,4.222 12.199,4.124 12.083,4.045 L12.016,4.013 Z M14.752,4.486 C14.867,4.752 14.972,5.033 15.07,5.324 C15.37,6.224 15.607,7.282 15.767,8.446 C16.707,8.162 17.611,7.772 18.462,7.283 C17.528,6.005 16.238,5.032 14.752,4.486 Z M9.248,4.486 C7.763,5.032 6.472,6.005 5.538,7.283 C6.381,7.767 7.284,8.159 8.233,8.446 C8.393,7.282 8.63,6.223 8.93,5.324 C9.027,5.033 9.133,4.752 9.248,4.486 Z M4.807,15.505 C5.715,17.364 7.306,18.801 9.248,19.515 C9.13,19.24 9.024,18.959 8.93,18.675 C8.712,18.01 8.538,17.33 8.41,16.642 C7.172,16.391 5.964,16.01 4.807,15.505 Z M15.589,16.642 C15.461,17.331 15.288,18.01 15.069,18.676 C14.973,18.966 14.867,19.248 14.751,19.514 C16.693,18.8 18.285,17.364 19.193,15.505 C18.049,16.005 16.843,16.388 15.589,16.642 Z M13.482,16.94 C12.496,17.021 11.504,17.021 10.518,16.94 C10.611,17.337 10.715,17.705 10.828,18.042 C11.079,18.797 11.358,19.335 11.618,19.664 C11.745,19.826 11.848,19.912 11.918,19.954 L11.969,19.982 L11.999,19.99 L12.031,19.982 L12.082,19.955 C12.198,19.876 12.3,19.778 12.382,19.665 C12.642,19.335 12.921,18.797 13.172,18.042 C13.285,17.705 13.389,17.337 13.482,16.94 Z"/>
</svg>

