<svg xmlns="http://www.w3.org/2000/svg" width="24" height="24">
  <defs/>
  <path  d="M20,3 C20.552,3 21,3.448 21,4 C21,4.552 20.552,5 20,5 C18.312,5 16.556,5.796 14.808,7.15 C13.068,8.497 11.425,10.328 9.984,12.23 L9.764,12.523 L9.333,13.112 L8.918,13.698 L8.518,14.278 L8.137,14.851 L7.772,15.413 L7.426,15.96 L6.943,16.748 L6.645,17.248 L6.238,17.95 L5.878,18.588 L5.479,19.32 L4.973,20.291 L4.894,20.447 C4.739,20.775 4.419,20.993 4.057,21.017 C3.695,21.042 3.348,20.868 3.151,20.564 C2.954,20.26 2.936,19.873 3.106,19.552 L3.528,18.73 L3.891,18.052 L4.351,17.221 L4.758,16.511 L5.215,15.741 L5.545,15.199 L6.079,14.349 L6.459,13.763 L6.858,13.164 L7.275,12.557 L7.709,11.944 L7.932,11.637 L8.391,11.021 C9.887,9.047 11.651,7.065 13.583,5.569 C15.506,4.079 17.688,3 20,3 Z M5,1 C6.306,1 7.417,1.835 7.83,3 L9,3 C9.552,3 10,3.448 10,4 C10,4.552 9.552,5 9,5 L7.83,5 C7.322,6.439 5.814,7.268 4.327,6.926 C2.84,6.583 1.846,5.179 2.018,3.662 C2.191,2.146 3.474,1 5,1 Z M13,3 C13.529,3.001 13.966,3.413 13.997,3.941 C14.028,4.47 13.642,4.931 13.117,4.993 L13,5 L12,5 C11.471,4.999 11.034,4.587 11.003,4.059 C10.972,3.53 11.358,3.069 11.883,3.007 L12,3 Z M5,3 C4.448,3 4,3.448 4,4 C4,4.552 4.448,5 5,5 C5.552,5 6,4.552 6,4 C6,3.448 5.552,3 5,3 Z"/>
</svg>

