<svg xmlns="http://www.w3.org/2000/svg" width="24" height="24">
  <defs/>
  <path  d="M20,3 A1 1 0 1 1 20,5 C18.312,5 16.556,5.796 14.808,7.15 C13.068,8.497 11.425,10.328 9.984,12.23 L9.764,12.523 L9.333,13.112 L8.918,13.698 L8.518,14.278 L8.137,14.851 L7.772,15.413 L7.426,15.96 L6.943,16.748 L6.645,17.248 L6.238,17.95 L5.878,18.588 L5.479,19.32 L4.973,20.291 L4.894,20.447 A1 1 0 1 1 3.106,19.552 L3.528,18.73 L3.891,18.052 L4.351,17.221 L4.758,16.511 L5.215,15.741 L5.545,15.199 L6.079,14.349 L6.459,13.763 L6.858,13.164 L7.275,12.557 L7.709,11.944 L7.932,11.637 L8.391,11.021 C9.887,9.047 11.651,7.065 13.583,5.569 C15.506,4.079 17.688,3 20,3 M5,1 C6.306,1 7.417,1.835 7.83,3 L9,3 A1 1 0 0 1 9,5 L7.83,5 A3.001 3.001 0 1 1 5,1 M13,3 A1 1 0 1 1 13,5 L12,5 A1 1 0 1 1 12,3 Z"/>
</svg>

