<svg xmlns="http://www.w3.org/2000/svg" width="24" height="24">
  <defs/>
  <path  d="M13.583,5.569 C15.506,4.079 17.688,3 20,3 C20.552,3 21,3.448 21,4 C21,4.552 20.552,5 20,5 C18.312,5 16.556,5.796 14.808,7.15 C13.068,8.497 11.425,10.328 9.984,12.23 C7.104,16.028 5.138,19.96 4.894,20.447 C4.741,20.778 4.42,21 4.056,21.025 C3.693,21.051 3.344,20.876 3.146,20.57 C2.948,20.264 2.933,19.874 3.106,19.553 L3.106,19.552 C3.364,19.035 5.397,14.97 8.391,11.021 C9.887,9.047 11.651,7.065 13.583,5.569 Z"/>
</svg>

