<svg xmlns="http://www.w3.org/2000/svg" width="24" height="24">
  <defs/>
  <path  d="M19,17 A3 3 0 1 1 16.238,21.172 L16.17,21 L15,21 A1 1 0 0 1 14.883,19.007 L15,19 L16.17,19 A3.001 3.001 0 0 1 19,17 M19.106,3.553 A1 1 0 1 1 20.894,4.447 L20.52,5.178 L20.044,6.068 L19.632,6.807 L19.278,7.427 L18.885,8.093 L18.602,8.561 L18.149,9.292 L17.828,9.796 L17.492,10.312 L17.142,10.836 L16.778,11.366 L16.401,11.902 L16.011,12.44 L15.609,12.98 C14.113,14.953 12.349,16.935 10.417,18.431 C8.494,19.921 6.312,21 4,21 A1 1 0 1 1 4,19 C5.688,19 7.444,18.204 9.192,16.85 C10.932,15.502 12.575,13.672 14.016,11.77 L14.215,11.506 L14.605,10.975 L14.982,10.445 L15.346,9.92 L15.696,9.4 L16.033,8.89 L16.51,8.141 L16.953,7.424 L17.487,6.526 L17.844,5.907 L18.256,5.168 L18.666,4.406 Z M12,19 A1 1 0 0 1 12.117,20.993 L12,21 L11,21 A1 1 0 0 1 10.883,19.007 L11,19 Z"/>
</svg>

