<svg xmlns="http://www.w3.org/2000/svg" width="24" height="24">
  <defs/>
  <path  d="M20,3 C20.552,3 21,3.448 21,4 C21,4.552 20.552,5 20,5 C18.395,5 17.152,5.78 16.018,7.14 C15.036,8.319 14.206,9.85 13.358,11.522 L12.368,13.496 C11.53,15.146 10.622,16.816 9.518,18.14 C8.152,19.78 6.395,21 4,21 C3.448,21 3,20.552 3,20 C3,19.448 3.448,19 4,19 C5.605,19 6.848,18.22 7.982,16.86 C8.964,15.681 9.794,14.15 10.642,12.478 L11.632,10.504 C12.47,8.854 13.378,7.184 14.482,5.86 C15.848,4.22 17.605,3 20,3 Z M6,1 C7.204,1 8.292,1.72 8.762,2.828 L8.83,3 L10,3 C10.529,3.001 10.966,3.413 10.997,3.941 C11.028,4.47 10.642,4.931 10.117,4.993 L10,5 L8.83,5 C8.322,6.439 6.814,7.268 5.327,6.926 C3.84,6.583 2.846,5.179 3.018,3.662 C3.191,2.146 4.474,1 6,1 Z M18,17 C19.525,17.001 20.807,18.146 20.979,19.662 C21.151,21.178 20.158,22.581 18.672,22.923 C17.185,23.266 15.678,22.438 15.17,21 L14,21 C13.448,21 13,20.552 13,20 C13,19.448 13.448,19 14,19 L15.17,19 C15.594,17.801 16.728,17 18,17 Z M14,3 C14.552,3 15,3.448 15,4 C15,4.552 14.552,5 14,5 L13,5 C12.448,5 12,4.552 12,4 C12,3.448 12.448,3 13,3 Z M11,19 C11.529,19.001 11.966,19.413 11.997,19.941 C12.028,20.47 11.642,20.931 11.117,20.993 L11,21 L10,21 C9.471,20.999 9.034,20.587 9.003,20.059 C8.972,19.53 9.358,19.069 9.883,19.007 L10,19 Z M6,3 C5.448,3 5,3.448 5,4 C5,4.552 5.448,5 6,5 C6.552,5 7,4.552 7,4 C7,3.448 6.552,3 6,3 Z M18,19 C17.448,19 17,19.448 17,20 C17,20.552 17.448,21 18,21 C18.552,21 19,20.552 19,20 C19,19.448 18.552,19 18,19 Z"/>
</svg>

