<svg xmlns="http://www.w3.org/2000/svg" width="24" height="24">
  <defs/>
  <path  d="M18,17 A3 3 0 1 1 15.238,21.172 L15.17,21 L14,21 A1 1 0 0 1 13.883,19.007 L14,19 L15.17,19 A3.001 3.001 0 0 1 18,17 M20,3 A1 1 0 1 1 20,5 C18.395,5 17.152,5.78 16.018,7.14 C15.036,8.319 14.206,9.85 13.358,11.522 L12.368,13.496 C11.53,15.146 10.622,16.816 9.518,18.14 C8.152,19.78 6.395,21 4,21 A1 1 0 1 1 4,19 C5.605,19 6.848,18.22 7.982,16.86 C8.964,15.681 9.794,14.15 10.642,12.478 L11.632,10.504 C12.47,8.854 13.378,7.184 14.482,5.86 C15.848,4.22 17.605,3 20,3 M11,19 A1 1 0 0 1 11.117,20.993 L11,21 L10,21 A1 1 0 0 1 9.883,19.007 L10,19 Z M6,1 C7.306,1 8.417,1.835 8.83,3 L10,3 A1 1 0 1 1 10,5 L8.83,5 A3.001 3.001 0 1 1 6,1 M14,3 A1 1 0 1 1 14,5 L13,5 A1 1 0 1 1 13,3 Z"/>
</svg>

