<svg xmlns="http://www.w3.org/2000/svg" width="24" height="24">
  <defs/>
  <path  d="M14.098,5.54 C15.522,3.83 17.408,2.5 20,2.5 C20.828,2.5 21.5,3.172 21.5,4 C21.5,4.828 20.828,5.5 20,5.5 C18.593,5.5 17.478,6.17 16.402,7.46 C15.286,8.8 14.362,10.628 13.342,12.67 L13.296,12.762 C12.33,14.695 11.265,16.826 9.902,18.46 C8.478,20.17 6.592,21.5 4,21.5 C3.172,21.5 2.5,20.828 2.5,20 C2.5,19.172 3.172,18.5 4,18.5 C5.407,18.5 6.522,17.83 7.598,16.54 C8.714,15.2 9.638,13.372 10.658,11.33 L10.704,11.238 C11.67,9.305 12.735,7.174 14.098,5.54 Z"/>
</svg>

