<svg xmlns="http://www.w3.org/2000/svg" width="24" height="24">
  <defs/>
  <path  d="M14.482,5.86 C15.848,4.22 17.605,3 20,3 C20.552,3 21,3.448 21,4 C21,4.552 20.552,5 20,5 C18.395,5 17.152,5.78 16.018,7.14 C14.858,8.533 13.908,10.419 12.894,12.447 L12.863,12.511 C11.886,14.464 10.843,16.551 9.518,18.141 C8.152,19.78 6.395,21 4,21 C3.448,21 3,20.552 3,20 C3,19.448 3.448,19 4,19 C5.605,19 6.848,18.22 7.982,16.86 C9.142,15.467 10.092,13.581 11.106,11.553 L11.137,11.489 C12.114,9.536 13.157,7.449 14.482,5.859 Z"/>
</svg>

