<svg xmlns="http://www.w3.org/2000/svg" width="24" height="24">
  <defs/>
  <path  d="M14,3 A2 2 0 0 1 16,5 L19,5 A2 2 0 0 1 21,7 L21,9 A2 2 0 0 1 19.49,10.94 L21.92,16.606 C21.997,16.788 22.007,16.995 22.005,17.199 L22,17.5 A3.5 3.5 0 0 1 15.337,19 L9.663,19 A3.5 3.5 0 0 1 3.035,18 L3,18 A1 1 0 0 1 2,17 L2,9 A2 2 0 0 1 4,7 L8,7 A2 2 0 0 1 10,9 L10,11 A2 2 0 1 0 14,11 L14,5 L12,5 A1 1 0 1 1 12,3 Z M6.5,16 A1.5 1.5 0 1 0 6.5,19 A1.5 1.5 0 0 0 6.5,16 M18.5,16 A1.5 1.5 0 1 0 20,17.5 C20,16.704 19.299,16 18.5,16 M8,9 L4,9 L4,11 L8,11 Z M19,7 L16,7 L16,9 L19,9 Z"/>
</svg>

