<svg xmlns="http://www.w3.org/2000/svg" width="24" height="24">
  <defs/>
  <path  d="M14,3 A2 2 0 0 1 16,5 L19,5 A2 2 0 0 1 21,7 L21,9 A2 2 0 0 1 19.49,10.94 L21.632,15.936 C21.896,16.463 22,16.921 22,17.5 A3.5 3.5 0 0 1 15.337,19 L9.663,19 A3.5 3.5 0 0 1 3.035,18 L3,18 A1 1 0 0 1 2,17 L2,9 A2 2 0 0 1 4,7 L8,7 A2 2 0 0 1 10,9 L10,11 A2 2 0 1 0 14,11 L14,5 L12,5 A1 1 0 1 1 12,3 Z M6.5,16 A1.5 1.5 0 1 0 6.5,19 A1.5 1.5 0 0 0 6.5,16 M18.5,16 A1.5 1.5 0 1 0 20,17.5 C20,16.689 19.315,16 18.5,16 M17.34,11 L16,11 A4 4 0 0 1 8.535,13 L4,13 L4,15.05 A3.5 3.5 0 0 1 9.965,17 L15.035,17 C15.285,15.251 16.865,13.94 18.627,14.002 L17.341,11 Z M8,9 L4,9 L4,11 L8,11 Z M19,7 L16,7 L16,9 L19,9 Z"/>
</svg>

