<svg xmlns="http://www.w3.org/2000/svg" width="24" height="24">
  <defs/>
  <path  d="M12,2 C16.76,2 20.742,5.325 21.752,9.779 C22.112,11.364 21.639,12.604 20.925,13.467 C20.367,14.131 19.647,14.639 18.835,14.943 C17.87,15.284 16.785,15.27 15.923,15.119 C15.507,15.05 15.1,14.934 14.71,14.773 C14.402,14.641 13.98,14.419 13.72,14.047 C13.443,13.651 13.489,13.113 13.829,12.77 C14.314,12.28 14.538,11.775 14.571,11.323 C14.603,10.883 14.464,10.387 14.022,9.873 C13.319,9.06 12.135,8.903 11.299,9.499 C10.495,10.076 10.111,10.956 10.195,11.953 C10.28,12.969 10.865,14.169 12.14,15.232 C13.317,16.212 15.353,17 17,17 C17.562,17 18.123,16.933 18.669,16.8 C19.089,16.698 19.527,16.876 19.755,17.243 C19.983,17.61 19.95,18.082 19.673,18.413 C17.775,20.688 14.963,22.003 12,22 C11.23,22 10.48,21.913 9.758,21.748 C5.315,20.73 2,16.753 2,12 C2,11.006 2.145,10.044 2.417,9.136 C3.648,5.01 7.47,2 12,2 Z M12,4 C9.753,3.997 7.608,4.942 6.094,6.603 C6.88,6.275 7.708,6.057 8.553,5.955 C10.62,5.715 12.678,6.258 14.6,7.7 C15.96,8.72 16.668,10.071 16.566,11.47 C16.52,12.046 16.349,12.605 16.063,13.108 C16.128,13.123 16.196,13.136 16.267,13.148 C16.918,13.262 17.63,13.248 18.166,13.058 C18.637,12.875 19.056,12.578 19.384,12.193 C19.748,11.753 20.009,11.136 19.802,10.221 C18.97,6.582 15.733,4 12,4 Z M8.783,7.943 C7.308,8.113 5.776,8.816 4.251,10.003 C4.084,10.655 3.999,11.326 4,12 C3.997,14.234 4.931,16.367 6.574,17.88 C6.197,16.967 6.002,15.988 6,15 C6,11.702 7.717,9.024 9.553,8.106 C9.684,8.04 9.816,7.978 9.949,7.92 C9.561,7.89 9.17,7.897 8.783,7.943 Z M8.316,12.862 C8.104,13.555 7.998,14.276 8,15 C8,16.827 8.938,18.548 10.435,19.847 C12.337,20.222 14.311,19.898 15.993,18.934 C14.122,18.696 12.146,17.84 10.86,16.768 C9.495,15.63 8.63,14.258 8.316,12.862 Z"/>
</svg>

