<svg xmlns="http://www.w3.org/2000/svg" width="24" height="24">
  <defs/>
  <path  d="M10.184,11.77 C10.213,12.83 10.787,14.104 12.14,15.232 C13.317,16.212 15.353,17 17,17 A7.05 7.05 0 0 0 18.669,16.8 A1 1 0 0 1 19.673,18.413 A9.988 9.988 0 0 1 13.333,21.912 A0.837 0.837 0 0 1 13.023,21.898 C10.884,21.37 8.5,18.688 8.5,16 C8.5,13.626 9.34,12.355 10.184,11.77 M9.478,8.039 A3.579 3.579 0 0 1 11.658,9.273 A5.233 5.233 0 0 0 10.184,9.551 C8.177,10.221 6.5,12.388 6.5,16 C6.5,18.537 7.699,20.266 9.271,21.623 C5.284,20.494 2.309,16.956 2.023,12.679 A0.9 0.9 0 0 1 2.233,12.037 L2.403,11.841 L2.727,11.483 L2.994,11.202 L3.143,11.048 L3.475,10.715 L3.853,10.346 L4.061,10.149 C5.971,8.346 7.961,7.781 9.478,8.039 M12,2 C16.76,2 20.742,5.325 21.752,9.779 C22.112,11.364 21.639,12.604 20.925,13.467 A5.03 5.03 0 0 1 18.835,14.943 C17.87,15.284 16.785,15.27 15.923,15.119 C15.153,14.984 14.193,14.724 13.72,14.047 A1 1 0 0 1 13.829,12.77 C14.314,12.28 14.538,11.775 14.571,11.323 A1.863 1.863 0 0 0 14.526,10.783 C13.944,8.163 12.14,6.462 9.813,6.067 C7.053,5.598 4.434,7.024 2.498,8.875 C3.81,4.883 7.568,2 12,2"/>
</svg>

