<svg xmlns="http://www.w3.org/2000/svg" width="24" height="24">
  <defs/>
  <path  d="M13.896,3.03 C14.63,2.296 15.803,2.245 16.597,2.913 L16.724,3.03 L20.967,7.273 C21.7,8.007 21.751,9.179 21.084,9.973 L20.967,10.101 L10.653,20.415 C10.321,20.747 9.883,20.952 9.415,20.993 L9.239,21 L4.006,21 C3.491,21 3.058,20.612 3.002,20.1 L2.996,19.99 L2.996,14.757 C2.996,14.287 3.161,13.833 3.463,13.473 L3.583,13.343 L13.895,3.03 Z M12.17,7.584 L4.996,14.758 L4.996,19 L9.24,19 L16.414,11.826 L12.171,7.583 Z M15.31,4.444 L13.584,6.17 L17.827,10.413 L19.553,8.687 Z"/>
</svg>

