<svg xmlns="http://www.w3.org/2000/svg" width="24" height="24">
  <defs/>
  <path  d="M5,2 L17,2 C18.105,2 19,2.895 19,4 L19,8 L17,8 L17,4 L5,4 L5,19 L8,19 L8,21 L5,21 C3.895,21 3,20.105 3,19 L3,4 C3,2.895 3.895,2 5,2 Z M15.949,10.811 C17.123,9.656 19.01,9.664 20.174,10.829 C21.339,11.994 21.346,13.88 20.191,15.054 L14.535,20.711 C14.348,20.899 14.093,21.004 13.828,21.004 L10.999,21.004 C10.447,21.004 9.999,20.556 9.999,20.004 L9.999,17.175 C9.999,16.91 10.104,16.655 10.292,16.468 Z M17.363,15.054 L15.949,13.64 L11.999,17.59 L11.999,19.004 L13.413,19.004 Z M8,7 L12,7 C12.552,7 13,7.448 13,8 C13,8.552 12.552,9 12,9 L8,9 C7.448,9 7,8.552 7,8 C7,7.448 7.448,7 8,7 Z M18.777,12.225 C18.386,11.835 17.753,11.835 17.363,12.225 L18.777,13.64 C18.965,13.452 19.07,13.198 19.07,12.932 C19.07,12.667 18.965,12.413 18.777,12.225 Z"/>
</svg>

