<svg xmlns="http://www.w3.org/2000/svg" width="24" height="24">
  <defs/>
  <path  d="M17,2 C18.047,2 18.917,2.806 18.995,3.85 L19,4 L19,8.02 C17.469,7.729 15.889,8.17 14.73,9.212 L14.534,9.397 L8.878,15.054 C8.364,15.568 8.054,16.252 8.006,16.977 L7.999,17.175 L7.999,20.004 C7.999,20.276 8.036,20.546 8.109,20.808 L8.169,21 L5,21 C3.953,21 3.083,20.194 3.005,19.15 L3,19 L3,4 C3,2.953 3.806,2.083 4.85,2.005 L5,2 Z M14.535,12.225 L18.777,16.468 L14.534,20.711 C14.347,20.899 14.092,21.004 13.827,21.004 L11,21.004 C10.448,21.004 10,20.556 10,20.004 L10,17.175 C10,16.91 10.105,16.655 10.293,16.468 Z M20.191,10.811 C21.363,11.983 21.363,13.882 20.191,15.054 L15.95,10.81 C17.122,9.639 19.021,9.639 20.192,10.81 Z M11,6 L7,6 C6.448,6 6,6.448 6,7 C6,7.552 6.448,8 7,8 L11,8 C11.552,8 12,7.552 12,7 C12,6.448 11.552,6 11,6 Z"/>
</svg>

