<svg xmlns="http://www.w3.org/2000/svg" width="24" height="24">
  <defs/>
  <path  d="M14.724,2.969 C13.89,2.394 12.956,2 12,2 C10.954,2 9.934,2.472 9.043,3.136 C8.14,3.809 7.286,4.739 6.551,5.808 C5.088,7.936 4,10.755 4,13.5 C4,15.976 4.829,18.108 6.276,19.627 C7.725,21.148 9.74,22 12,22 C14.259,22 16.275,21.148 17.724,19.627 C19.171,18.107 20,15.977 20,13.5 C20,10.755 18.912,7.936 17.449,5.808 A13.014 13.014 0 0 0 16.23,4.285 L12.706,8.515 L14.316,9.051 A1 1 0 0 1 14.949,10.316 L13.949,13.316 A1 1 0 0 1 12.051,12.684 L12.735,10.633 L10.684,9.949 A1 1 0 0 1 10.232,8.359 Z"/>
</svg>

