<svg xmlns="http://www.w3.org/2000/svg" width="24" height="24">
  <defs/>
  <path  d="M12,2 C13.047,2 14.066,2.472 14.957,3.136 C15.86,3.808 16.714,4.739 17.449,5.808 C18.912,7.936 20,10.755 20,13.5 C20,15.977 19.171,18.107 17.724,19.627 C16.275,21.148 14.259,22 12,22 C9.74,22 7.725,21.148 6.276,19.627 C4.829,18.108 4,15.976 4,13.5 C4,10.755 5.088,7.936 6.551,5.808 C7.286,4.739 8.14,3.809 9.043,3.136 C9.934,2.472 10.954,2 12,2 Z M6,13.5 C6,15.524 6.671,17.142 7.724,18.248 C8.775,19.352 10.259,20 12,20 C13.74,20 15.225,19.352 16.276,18.248 C17.329,17.142 18,15.524 18,13.5 C18,11.246 17.088,8.815 15.8,6.941 C15.488,6.487 15.159,6.074 14.824,5.711 L12.656,8.498 L14.315,9.051 C14.839,9.225 15.123,9.792 14.948,10.316 L13.948,13.316 C13.773,13.84 13.207,14.123 12.682,13.948 C12.158,13.774 11.875,13.207 12.05,12.683 L12.734,10.633 L10.683,9.949 C10.375,9.846 10.136,9.601 10.042,9.29 C9.948,8.979 10.011,8.642 10.21,8.386 L13.292,4.425 C12.788,4.128 12.35,4 12,4 C11.545,4 10.94,4.216 10.239,4.739 C9.548,5.254 8.839,6.011 8.199,6.942 C6.912,8.814 6,11.245 6,13.5 Z"/>
</svg>

