<svg xmlns="http://www.w3.org/2000/svg" width="24" height="24">
  <defs/>
  <path  d="M15,6 C15.297,6 15.579,6.132 15.769,6.36 L15.844,6.463 L22.844,17.463 C23.029,17.753 23.051,18.117 22.904,18.428 C22.757,18.739 22.461,18.952 22.12,18.993 L22,19 L2,19 C1.641,19 1.309,18.807 1.131,18.495 C0.953,18.183 0.957,17.799 1.14,17.49 L1.21,17.386 L8.21,8.386 C8.386,8.16 8.649,8.02 8.935,8.002 C9.22,7.983 9.5,8.088 9.703,8.289 L9.79,8.387 L11.52,10.615 L14.156,6.464 C14.339,6.175 14.657,6 14.999,6 Z M7.524,12.527 L4.044,17 L6.246,17 Z M14.367,9.863 L12.825,12.29 L13.835,13.587 Z"/>
</svg>

