<svg xmlns="http://www.w3.org/2000/svg" width="24" height="24">
  <defs/>
  <path  d="M15.844,6.463 L22.844,17.463 C23.04,17.771 23.053,18.161 22.877,18.481 C22.701,18.801 22.365,19 22,19 L2,19 C1.618,19 1.27,18.783 1.102,18.44 C0.934,18.097 0.976,17.689 1.21,17.387 L8.21,8.387 C8.399,8.143 8.691,8 9,8 C9.309,8 9.601,8.143 9.79,8.387 L11.52,10.615 L14.156,6.463 C14.339,6.174 14.658,5.999 15,5.999 C15.342,5.999 15.661,6.174 15.844,6.463 Z M10.871,13.035 C10.85,13.013 10.83,12.989 10.811,12.965 L9.837,11.71 L8.326,17 L13.956,17 Z M16.489,17 L20.179,17 L16.249,10.826 L15.561,15.641 C15.555,15.685 15.546,15.728 15.534,15.771 Z M6.246,17 L7.524,12.527 L4.044,17 Z M14.367,9.863 L12.825,12.29 L13.835,13.587 Z"/>
</svg>

