<svg xmlns="http://www.w3.org/2000/svg" width="24" height="24">
  <defs/>
  <path  d="M12,1 L12.001,1 C12.553,1.001 13,1.448 13,2 L13,3.957 C13.031,4.307 13.069,4.657 13.109,5.006 C13.567,5.056 13.932,5.413 13.992,5.869 C14.052,6.326 13.792,6.765 13.363,6.932 L13.426,7.346 C13.701,9.108 14.117,11.216 14.708,13 L15,13 C15.46,13 15.861,13.314 15.971,13.761 C16.081,14.208 15.872,14.673 15.464,14.886 C15.642,15.262 15.834,15.634 16.034,16 L17,16 C17.509,15.998 17.938,16.379 17.997,16.884 C18.056,17.39 17.726,17.859 17.23,17.974 C18,19.142 18.833,20.284 19.753,21.341 C20.012,21.636 20.074,22.056 19.911,22.413 C19.749,22.771 19.393,23 19,23 L15,23 C14.656,23 14.336,22.823 14.153,22.532 L14.092,22.419 C13.958,22.153 13.781,21.91 13.57,21.699 C13.204,21.324 12.697,21 12,21 C11.303,21 10.796,21.324 10.43,21.699 C10.263,21.868 10.117,22.056 9.994,22.26 L9.908,22.419 C9.745,22.773 9.39,23 9,23 L5,23 C4.607,23 4.251,22.77 4.089,22.412 C3.927,22.054 3.99,21.635 4.249,21.34 C5.168,20.282 5.999,19.143 6.77,17.974 C6.274,17.859 5.944,17.39 6.003,16.884 C6.062,16.379 6.491,15.998 7,16 L7.966,16 C8.166,15.634 8.358,15.261 8.536,14.886 C8.128,14.673 7.919,14.208 8.029,13.761 C8.139,13.314 8.54,13 9,13 L9.292,13 C9.817,11.415 10.205,9.572 10.477,7.945 L10.637,6.932 C10.208,6.765 9.948,6.326 10.008,5.869 C10.068,5.413 10.433,5.056 10.891,5.006 C10.931,4.656 10.969,4.306 11.001,3.956 L11.001,2 C11.001,1.448 11.448,1.001 12,1 Z M14.88,18 L9.12,18 C8.491,19.034 7.81,20.035 7.08,21 L8.43,21 C8.57,20.793 8.759,20.548 9,20.301 C9.61,19.676 10.603,19 12,19 C13.397,19 14.39,19.676 15,20.301 C15.242,20.548 15.43,20.793 15.57,21 L16.92,21 C16.19,20.035 15.509,19.034 14.88,18 Z M13.323,15 L10.677,15 L10.455,15.503 L10.219,16 L13.781,16 L13.545,15.503 Z M12,10.617 C11.869,11.219 11.721,11.818 11.558,12.412 L11.39,13 L12.612,13 C12.379,12.214 12.175,11.419 12.002,10.617 Z"/>
</svg>

