<svg xmlns="http://www.w3.org/2000/svg" width="24" height="24">
  <defs/>
  <path  d="M21,10 C21.552,10 22,10.448 22,11 C22,11.552 21.552,12 21,12 L20,12 L20,19 C20,20.657 18.657,22 17,22 L7,22 C5.343,22 4,20.657 4,19 L4,12 L3,12 C2.448,12 2,11.552 2,11 C2,10.448 2.448,10 3,10 Z M9,5 C9,3.343 10.343,2 12,2 C13.657,2 15,3.343 15,5 L16,5 C18.209,5 20,6.791 20,9 L4,9 C4,6.791 5.791,5 8,5 Z M12,13 C10.343,13 9,14.343 9,16 C9,17.657 10.343,19 12,19 C13.657,19 15,17.657 15,16 C15,14.343 13.657,13 12,13 Z M12,15 C12.552,15 13,15.448 13,16 C13,16.552 12.552,17 12,17 C11.448,17 11,16.552 11,16 C11,15.448 11.448,15 12,15 Z M12,4 C11.448,4 11,4.448 11,5 L13,5 C13,4.448 12.552,4 12,4 Z"/>
</svg>

