<svg xmlns="http://www.w3.org/2000/svg" width="24" height="24">
  <defs/>
  <path  d="M9,5 C9,3.343 10.343,2 12,2 C13.657,2 15,3.343 15,5 L16,5 C18.209,5 20,6.791 20,9 L21,9 C21.552,9 22,9.448 22,10 C22,10.552 21.552,11 21,11 L20,11 L20,19 C20,20.657 18.657,22 17,22 L7,22 C5.343,22 4,20.657 4,19 L4,11 L3,11 C2.448,11 2,10.552 2,10 C2,9.448 2.448,9 3,9 L4,9 C4,6.791 5.791,5 8,5 Z M18,11 L6,11 L6,19 C6,19.552 6.448,20 7,20 L17,20 C17.552,20 18,19.552 18,19 Z M9,15 C9,13.343 10.343,12 12,12 C13.657,12 15,13.343 15,15 C15,16.657 13.657,18 12,18 C10.343,18 9,16.657 9,15 Z M8,7 C6.895,7 6,7.895 6,9 L18,9 C18,7.895 17.105,7 16,7 Z M12,14 C11.448,14 11,14.448 11,15 C11,15.552 11.448,16 12,16 C12.552,16 13,15.552 13,15 C13,14.448 12.552,14 12,14 Z M11,5 L13,5 C13,4.448 12.552,4 12,4 C11.448,4 11,4.448 11,5 Z"/>
</svg>

