<svg xmlns="http://www.w3.org/2000/svg" width="24" height="24">
  <defs/>
  <path  d="M10.7,3.147 C10.955,2.705 11.416,2.423 11.926,2.398 C12.435,2.373 12.922,2.608 13.219,3.023 L13.299,3.147 L21.933,18.102 C22.189,18.546 22.201,19.09 21.964,19.544 C21.728,19.999 21.275,20.301 20.765,20.346 L20.634,20.352 L3.366,20.352 C2.853,20.352 2.376,20.091 2.1,19.658 C1.825,19.226 1.789,18.683 2.006,18.218 L2.067,18.102 L10.701,3.147 Z M12,4.897 L4.232,18.352 L19.768,18.352 Z M12,9 C12.315,9 12.612,9.149 12.801,9.401 L12.866,9.5 L16.33,15.5 C16.498,15.791 16.509,16.147 16.358,16.448 C16.207,16.749 15.916,16.953 15.582,16.993 L15.464,17 L8.536,17 C8.203,17 7.891,16.834 7.705,16.557 C7.52,16.28 7.484,15.928 7.611,15.62 L7.67,15.5 L11.134,9.5 C11.313,9.191 11.643,9 12,9 Z M12,12 L10.268,15 L13.732,15 Z"/>
</svg>

