<svg xmlns="http://www.w3.org/2000/svg" width="24" height="24">
  <defs/>
  <path  d="M12,2 C17.523,2 22,6.477 22,12 C22,17.523 17.523,22 12,22 C6.477,22 2,17.523 2,12 C2,6.477 6.477,2 12,2 M12,4 A8 8 0 1 0 12,20 A8 8 0 0 0 12,4 M14.8,13.857 A1 1 0 1 1 16.2,15.285 A5.984 5.984 0 0 1 12,17 A5.984 5.984 0 0 1 7.8,15.285 A1 1 0 0 1 9.2,13.857 A3.984 3.984 0 0 0 12,15 C13.09,15 14.077,14.565 14.8,13.857 M8.5,8 A1.5 1.5 0 1 1 8.5,11 A1.5 1.5 0 0 1 8.5,8 M15.5,8 A1.5 1.5 0 1 1 15.5,11 A1.5 1.5 0 0 1 15.5,8"/>
</svg>

