<svg xmlns="http://www.w3.org/2000/svg" width="24" height="24">
  <defs/>
  <path  d="M12,2 C17.523,2 22,6.477 22,12 C22,17.523 17.523,22 12,22 C6.477,22 2,17.523 2,12 C2,6.477 6.477,2 12,2 M12,4 A8 8 0 1 0 12,20 A8 8 0 0 0 12,4 M15.167,12 C16.179,12 17,12.82 17,13.833 L17,14 A5 5 0 0 1 7,14 L7,13.833 C7,12.821 7.82,12 8.833,12 Z M15,14 L9,14 A3 3 0 1 0 15,14 M9,7 A1 1 0 0 1 9.993,7.883 L10,8 L10,10 A1 1 0 0 1 8.007,10.117 L8,10 L8,8 A1 1 0 0 1 9,7 M14.293,7.293 A1 1 0 0 1 15.79,8.613 L15.707,8.707 L15.414,9 L15.707,9.293 A1 1 0 0 1 14.387,10.79 L14.293,10.707 L13.293,9.707 A1 1 0 0 1 13.21,8.387 L13.293,8.293 Z"/>
</svg>

