<svg xmlns="http://www.w3.org/2000/svg" width="24" height="24">
  <defs/>
  <path  d="M12,2 C17.523,2 22,6.477 22,12 C22,17.523 17.523,22 12,22 C6.477,22 2,17.523 2,12 C2,6.477 6.477,2 12,2 Z M14.8,13.857 C14.053,14.591 13.047,15.002 12,15 C10.953,15.002 9.947,14.591 9.2,13.857 C8.946,13.601 8.574,13.501 8.226,13.596 C7.878,13.692 7.608,13.967 7.52,14.316 C7.432,14.666 7.539,15.036 7.8,15.285 C8.921,16.386 10.429,17.002 12,17 C13.571,17.002 15.079,16.386 16.2,15.285 C16.585,14.897 16.587,14.271 16.204,13.881 C15.821,13.491 15.196,13.48 14.8,13.857 Z M8.5,8 C7.672,8 7,8.672 7,9.5 C7,10.328 7.672,11 8.5,11 C9.328,11 10,10.328 10,9.5 C10,8.672 9.328,8 8.5,8 Z M15.5,8 C14.672,8 14,8.672 14,9.5 C14,10.328 14.672,11 15.5,11 C16.328,11 17,10.328 17,9.5 C17,8.672 16.328,8 15.5,8 Z"/>
</svg>

