<svg xmlns="http://www.w3.org/2000/svg" width="24" height="24">
  <defs/>
  <path  d="M12,2 C17.523,2 22,6.477 22,12 C22,17.523 17.523,22 12,22 C6.477,22 2,17.523 2,12 C2,6.477 6.477,2 12,2 M15.167,12 L8.833,12 C7.871,12 7.083,12.74 7.006,13.683 L7,13.833 L7,14 A5 5 0 0 0 16.995,14.217 L17,14 L17,13.833 C17,12.871 16.26,12.083 15.317,12.006 Z M15,14 A3 3 0 0 1 9.005,14.176 L9,14 Z M9,6 A1 1 0 0 0 8,7 L8,9 A1 1 0 0 0 10,9 L10,7 A1 1 0 0 0 9,6 M14.293,6.293 L13.293,7.293 A1 1 0 0 0 13.293,8.707 L14.293,9.707 A1 1 0 0 0 15.707,8.293 L15.414,8 L15.707,7.707 A1 1 0 0 0 14.293,6.293"/>
</svg>

