<svg xmlns="http://www.w3.org/2000/svg" width="24" height="24">
  <defs/>
  <path  d="M11.084,3.244 C11.604,3.077 12.16,3.055 12.691,3.181 L12.916,3.244 L19.45,5.34 C19.64,5.403 19.811,5.521 19.936,5.686 L20.006,5.791 L22.756,10.538 C22.897,10.78 22.929,11.071 22.845,11.338 C22.762,11.606 22.57,11.826 22.316,11.945 L22.196,11.992 L20.145,12.65 L20.145,16.98 C20.145,17.79 19.656,18.519 18.908,18.828 L18.756,18.884 L12.916,20.756 C12.396,20.923 11.84,20.945 11.309,20.819 L11.084,20.757 L5.244,18.884 C4.473,18.636 3.927,17.948 3.862,17.141 L3.855,16.979 L3.855,12.65 L1.804,11.992 C1.537,11.906 1.319,11.713 1.201,11.459 C1.084,11.204 1.079,10.912 1.187,10.654 L1.244,10.538 L3.994,5.791 C4.097,5.613 4.252,5.471 4.439,5.385 L4.549,5.34 Z M11,12.305 L10.115,13.832 C9.879,14.239 9.393,14.426 8.945,14.283 L5.855,13.292 L5.855,16.979 L11,18.63 Z M13,12.305 L13,18.629 L18.145,16.979 L18.145,13.292 L15.055,14.283 C14.649,14.413 14.205,14.272 13.949,13.93 L13.885,13.832 Z M18.68,7.49 L13.487,9.156 L15.211,12.133 L20.403,10.467 Z M5.32,7.49 L3.597,10.467 L8.788,12.133 L10.513,9.156 Z M12.305,5.148 C12.147,5.097 11.978,5.087 11.815,5.118 L11.695,5.148 L8.13,6.292 L12,7.533 L15.87,6.292 Z"/>
</svg>

