<svg xmlns="http://www.w3.org/2000/svg" width="24" height="24">
  <defs/>
  <path  d="M12.916,3.244 L19.45,5.34 C19.685,5.416 19.883,5.576 20.006,5.79 L22.243,9.653 C22.395,9.915 22.42,10.232 22.311,10.514 C22.202,10.797 21.971,11.015 21.683,11.107 L14.542,13.397 C14.094,13.541 13.607,13.354 13.371,12.947 L13,12.305 L13,14.622 C13,14.942 13.152,15.242 13.411,15.431 C13.669,15.619 14.002,15.673 14.306,15.575 L20.143,13.702 L20.145,16.98 C20.145,17.849 19.584,18.619 18.756,18.885 L12.916,20.757 C12.32,20.948 11.68,20.948 11.084,20.757 L5.244,18.885 C4.417,18.619 3.856,17.849 3.856,16.98 L3.856,13.702 L9.694,15.575 C9.998,15.673 10.331,15.619 10.589,15.431 C10.847,15.243 11,14.943 11,14.623 L11,12.306 L10.628,12.948 C10.392,13.355 9.905,13.543 9.457,13.399 L2.317,11.107 C2.029,11.015 1.798,10.797 1.689,10.514 C1.581,10.232 1.605,9.916 1.757,9.654 L3.994,5.79 C4.117,5.576 4.315,5.416 4.55,5.34 L11.084,3.244 C11.68,3.053 12.32,3.053 12.916,3.244 Z M15.869,6.292 L12.305,5.148 C12.106,5.084 11.893,5.084 11.694,5.148 L8.13,6.292 L12,7.533 Z"/>
</svg>

