<svg xmlns="http://www.w3.org/2000/svg" width="24" height="24">
  <defs/>
  <path  d="M12,3 C12.552,3 13,3.448 13,4 C13,4.552 12.552,5 12,5 L11,5 L11,6 L13.764,6 C14.074,6 14.38,6.072 14.658,6.211 L17.894,7.829 C18.572,8.168 19,8.86 19,9.618 L19,12 L20,12 L20,11 C20,10.448 20.448,10 21,10 C21.552,10 22,10.448 22,11 L22,15 C22,15.552 21.552,16 21,16 C20.448,16 20,15.552 20,15 L20,14 L19,14 L19,15.5 C19,16.13 18.704,16.722 18.2,17.1 L14.867,19.6 C14.521,19.86 14.1,20 13.667,20 L5,20 C3.895,20 3,19.105 3,18 L3,8 C3,6.895 3.895,6 5,6 L9,6 L9,5 L8,5 C7.448,5 7,4.552 7,4 C7,3.448 7.448,3 8,3 Z M11.015,9.643 C10.58,9.381 10.018,9.487 9.708,9.889 L9.643,9.986 L8.152,12.47 C7.975,12.764 7.96,13.128 8.111,13.437 C8.263,13.745 8.561,13.955 8.902,13.994 L9.018,14 L10.234,14 L9.643,14.986 C9.373,15.44 9.502,16.026 9.939,16.324 C10.375,16.621 10.968,16.528 11.292,16.111 L11.358,16.015 L12.848,13.53 C13.025,13.236 13.04,12.872 12.889,12.563 C12.737,12.255 12.439,12.045 12.098,12.006 L11.982,12 L10.766,12 L11.357,11.015 C11.641,10.542 11.488,9.927 11.015,9.643 Z"/>
</svg>

