<svg xmlns="http://www.w3.org/2000/svg" width="24" height="24">
  <defs/>
  <path  d="M12,3 A1 1 0 0 1 12.117,4.993 L12,5 L11,5 L11,6 L13.764,6 A2 2 0 0 1 14.489,6.136 L14.659,6.211 L17.894,7.829 A2 2 0 0 1 18.994,9.457 L19,9.618 L19,12 L20,12 L20,11 A1 1 0 0 1 21.993,10.883 L22,11 L22,15 A1 1 0 0 1 20.007,15.117 L20,15 L20,14 L19,14 L19,15.5 A2 2 0 0 1 18.332,16.992 L18.2,17.1 L14.867,19.6 A2 2 0 0 1 13.851,19.991 L13.667,20 L5,20 A2 2 0 0 1 3.005,18.15 L3,18 L3,8 A2 2 0 0 1 4.85,6.005 L5,6 L9,6 L9,5 L8,5 A1 1 0 0 1 7.883,3.007 L8,3 Z M13.764,8 L5,8 L5,18 L13.667,18 L17,15.5 L17,9.618 Z M9.643,9.986 A1 1 0 0 1 11.412,10.911 L11.357,11.015 L10.767,12 L11.982,12 C12.728,12 13.203,12.773 12.902,13.427 L12.848,13.53 L11.358,16.015 A1 1 0 0 1 9.588,15.089 L9.643,14.985 L10.233,14 L9.019,14 A1.01 1.01 0 0 1 8.099,12.573 L8.153,12.47 Z"/>
</svg>

