<svg xmlns="http://www.w3.org/2000/svg" width="24" height="24">
  <defs/>
  <path  d="M11.5,3 A1 1 0 0 1 11.617,4.993 L11.5,5 L6,5 L6,19 L16,19 L16,12.5 A1 1 0 0 1 17.993,12.383 L18,12.5 L18,19 L20,19 A1 1 0 0 1 20.117,20.993 L20,21 L4,21 A1 1 0 0 1 3.883,19.007 L4,19 L4,5 A2 2 0 0 1 5.85,3.005 L6,3 Z M13.5,11 A1.5 1.5 0 1 1 13.5,14 A1.5 1.5 0 0 1 13.5,11 M15.793,4.172 A1 1 0 0 1 17.29,5.492 L17.207,5.586 L16.794,5.998 L20,5.998 A1 1 0 0 1 20.117,7.992 L20,7.998 L16.792,7.998 L17.208,8.415 A1 1 0 0 1 15.887,9.911 L15.792,9.828 L13.672,7.705 A1 1 0 0 1 13.59,6.385 L13.673,6.291 Z"/>
</svg>

