<svg xmlns="http://www.w3.org/2000/svg" width="24" height="24">
  <defs/>
  <path  d="M14.136,3 L12.259,4.877 C11.141,5.994 11.081,7.786 12.122,8.975 L12.257,9.119 L14.377,11.241 C15.285,12.151 16.672,12.381 17.825,11.814 L18,11.72 L18,19 L20,19 C20.529,19.001 20.966,19.413 20.997,19.941 C21.028,20.47 20.642,20.931 20.117,20.993 L20,21 L4,21 C3.471,20.999 3.034,20.587 3.003,20.059 C2.972,19.53 3.358,19.069 3.883,19.007 L4,19 L4,5 C4,3.953 4.806,3.083 5.85,3.005 L6,3 Z M15.793,4.172 C16.166,3.8 16.765,3.782 17.16,4.13 C17.556,4.479 17.613,5.075 17.29,5.492 L17.207,5.586 L16.794,5.998 L20,5.998 C20.532,5.994 20.974,6.408 21.005,6.94 C21.036,7.471 20.645,7.934 20.116,7.992 L20,7.998 L16.79,7.998 L17.206,8.415 C17.574,8.789 17.591,9.385 17.243,9.778 C16.896,10.172 16.303,10.23 15.886,9.911 L15.791,9.828 L13.671,7.705 C13.315,7.348 13.28,6.783 13.589,6.385 L13.672,6.291 L15.792,4.171 Z M13.5,13 C12.672,13 12,13.672 12,14.5 C12,15.328 12.672,16 13.5,16 C14.328,16 15,15.328 15,14.5 C15,13.672 14.328,13 13.5,13 Z"/>
</svg>

