<svg xmlns="http://www.w3.org/2000/svg" width="24" height="24">
  <defs/>
  <path  d="M12,3 A1 1 0 0 1 12.117,4.993 L12,5 L7,5 A1 1 0 0 0 6.007,5.883 L6,6 L6,18 A1 1 0 0 0 6.883,18.993 L7,19 L11.5,19 A1 1 0 0 1 11.617,20.993 L11.5,21 L7,21 A3 3 0 0 1 4.005,18.176 L4,18 L4,6 A3 3 0 0 1 6.824,3.005 L7,3 Z M14.293,8.464 A1 1 0 0 1 15.79,9.784 L15.707,9.879 L14.586,11 L20,11 A1 1 0 0 1 20.117,12.993 L20,13 L14.586,13 L15.707,14.121 A1 1 0 0 1 14.387,15.619 L14.293,15.536 L11.464,12.707 A1 1 0 0 1 11.381,11.387 L11.464,11.293 Z"/>
</svg>

