<svg xmlns="http://www.w3.org/2000/svg" width="24" height="24">
  <defs/>
  <path  d="M12,2.5 A1.5 1.5 0 0 1 12.144,5.493 L12,5.5 L7,5.5 A0.5 0.5 0 0 0 6.508,5.91 L6.5,6 L6.5,18 A0.5 0.5 0 0 0 6.91,18.492 L7,18.5 L11.5,18.5 A1.5 1.5 0 0 1 11.644,21.493 L11.5,21.5 L7,21.5 A3.5 3.5 0 0 1 3.505,18.192 L3.5,18 L3.5,6 A3.5 3.5 0 0 1 6.808,2.505 L7,2.5 Z M13.94,8.11 A1.5 1.5 0 0 1 16.164,10.118 L16.061,10.232 L15.793,10.5 L20,10.5 A1.5 1.5 0 0 1 20.144,13.493 L20,13.5 L15.793,13.5 L16.061,13.768 A1.5 1.5 0 0 1 14.053,15.992 L13.939,15.889 L11.111,13.061 A1.5 1.5 0 0 1 11.008,11.053 L11.111,10.939 L13.939,8.111 Z"/>
</svg>

