<svg xmlns="http://www.w3.org/2000/svg" width="24" height="24">
  <defs/>
  <path  d="M15.535,2.808 L21.192,8.464 C21.973,9.245 21.973,10.512 21.192,11.293 L17.67,14.816 L17.657,14.828 L17.644,14.841 L13.485,19 L20,19 C20.552,19 21,19.448 21,20 C21,20.552 20.552,21 20,21 L8.893,21 C8.495,21 8.114,20.841 7.833,20.56 L2.807,15.536 C2.026,14.755 2.026,13.488 2.807,12.707 L12.707,2.807 C13.488,2.026 14.754,2.026 15.535,2.807 Z M15.535,14.121 L9.879,8.464 L4.222,14.121 L9.1,19 L10.657,19 Z M16.95,12.707 L19.778,9.879 L14.121,4.222 L11.293,7.05 Z"/>
</svg>

