<svg xmlns="http://www.w3.org/2000/svg" width="24" height="24">
  <defs/>
  <path  d="M19,4 C20.624,3.998 21.954,5.289 22.002,6.912 C22.049,8.535 20.797,9.901 19.176,9.995 L19,10 L17.48,10 L10.381,18.874 C9.854,19.533 9.075,19.939 8.233,19.994 L8.04,20 L5,20 C3.376,20.002 2.046,18.711 1.998,17.088 C1.951,15.465 3.203,14.099 4.824,14.005 L5,14 L6.52,14 L13.619,5.126 C14.146,4.467 14.925,4.061 15.767,4.006 L15.96,4 Z M5.293,3.464 C5.649,3.108 6.215,3.072 6.613,3.381 L6.707,3.464 L8.83,5.586 C9.202,5.959 9.22,6.558 8.872,6.953 C8.523,7.349 7.927,7.406 7.51,7.083 L7.414,7 L7,6.586 L7,9.828 C6.999,10.357 6.587,10.794 6.059,10.825 C5.53,10.856 5.069,10.47 5.007,9.945 L5,9.828 L5,6.586 L4.586,7 C4.213,7.372 3.614,7.39 3.219,7.042 C2.823,6.693 2.766,6.097 3.089,5.68 L3.172,5.586 Z"/>
</svg>

