<svg xmlns="http://www.w3.org/2000/svg" width="24" height="24">
  <defs/>
  <path  d="M2,16.172 C2,14.515 3.343,13.172 5,13.172 L6.519,13.172 L13.619,4.298 C14.188,3.586 15.05,3.172 15.961,3.172 L19,3.172 C20.657,3.172 22,4.515 22,6.172 C22,7.829 20.657,9.172 19,9.172 L17.481,9.172 L10.381,18.046 C9.812,18.758 8.95,19.172 8.039,19.172 L5,19.172 C3.343,19.172 2,17.829 2,16.172 Z M20,6.172 C20,5.62 19.552,5.172 19,5.172 L15.961,5.172 C15.658,5.172 15.371,5.31 15.181,5.547 L7.931,14.609 C7.646,14.965 7.216,15.172 6.76,15.172 L5,15.172 C4.448,15.172 4,15.62 4,16.172 C4,16.724 4.448,17.172 5,17.172 L8.039,17.172 C8.343,17.172 8.63,17.034 8.82,16.797 L16.22,7.547 C16.41,7.31 16.697,7.172 17,7.172 L19,7.172 C19.552,7.172 20,6.724 20,6.172 Z M6,10.828 C5.448,10.828 5,10.38 5,9.828 L5,6.586 L4.586,7 C4.195,7.39 3.562,7.39 3.171,6.999 C2.781,6.609 2.781,5.975 3.172,5.585 L5.293,3.465 C5.481,3.277 5.735,3.172 6.001,3.172 C6.266,3.172 6.52,3.277 6.708,3.465 L8.828,5.586 C9.207,5.978 9.202,6.602 8.816,6.988 C8.43,7.374 7.806,7.379 7.414,7 L7,6.586 L7,9.828 C7,10.38 6.552,10.828 6,10.828 Z"/>
</svg>

