<svg xmlns="http://www.w3.org/2000/svg" width="24" height="24">
  <defs/>
  <path  d="M2,7 C2,5.343 3.343,4 5,4 L8.039,4 C8.95,4 9.812,4.414 10.381,5.126 L17.481,14 L19,14 C20.657,14 22,15.343 22,17 C22,18.657 20.657,20 19,20 L15.961,20 C15.05,20 14.188,19.586 13.619,18.874 L6.519,10 L5,10 C3.343,10 2,8.657 2,7 Z M20,17 C20,16.448 19.552,16 19,16 L17,16 C16.697,16 16.41,15.862 16.22,15.625 L8.82,6.375 C8.63,6.138 8.343,6 8.039,6 L5,6 C4.448,6 4,6.448 4,7 C4,7.552 4.448,8 5,8 L6.76,8 C7.216,8 7.646,8.207 7.931,8.563 L15.181,17.625 C15.371,17.862 15.658,18 15.961,18 L19,18 C19.552,18 20,17.552 20,17 Z M18,3.172 C18.552,3.172 19,3.62 19,4.172 L19,7.414 L19.414,7 C19.665,6.74 20.037,6.636 20.387,6.727 C20.736,6.819 21.009,7.092 21.101,7.441 C21.192,7.791 21.088,8.163 20.828,8.414 L18.708,10.536 C18.52,10.724 18.266,10.829 18,10.829 C17.735,10.829 17.481,10.724 17.293,10.536 L15.172,8.414 C14.912,8.163 14.808,7.791 14.899,7.441 C14.991,7.092 15.264,6.819 15.613,6.727 C15.963,6.636 16.335,6.74 16.586,7 L17,7.414 L17,4.172 C17,3.62 17.448,3.172 18,3.172 Z"/>
</svg>

