<svg xmlns="http://www.w3.org/2000/svg" width="24" height="24">
  <defs/>
  <path  d="M12,2 C12.334,2 12.646,2.167 12.832,2.445 L18.819,11.426 C19.058,11.766 19.061,12.22 18.826,12.563 L12.832,21.555 C12.647,21.833 12.334,22 12,22 C11.666,22 11.353,21.833 11.168,21.555 L5.174,12.563 C4.983,12.284 4.947,11.928 5.077,11.616 C5.105,11.549 5.14,11.485 5.181,11.426 L11.168,2.446 C11.353,2.168 11.666,2 12,2 Z M12,19.197 L15.551,13.87 L12.316,14.949 C12.111,15.017 11.889,15.017 11.684,14.949 L8.449,13.87 Z M11,6.303 L7.558,11.465 L11,12.613 Z M13,6.303 L13,12.613 L16.442,11.465 Z"/>
</svg>

