<svg xmlns="http://www.w3.org/2000/svg" width="24" height="24">
  <defs/>
  <path  d="M1.498,12.082 C1.488,10.815 2.845,10.095 3.877,10.676 L3.99,10.746 L6.668,12.55 C8.092,13.51 7.206,15.695 5.569,15.465 L5.431,15.44 L5.323,15.416 A7.504 7.504 0 0 0 18.498,15.751 A1.5 1.5 0 0 1 21.097,17.249 C18.78,21.268 13.978,23.401 9.282,22.142 A10.502 10.502 0 0 1 1.498,12.082 M12,6 A1 1 0 0 1 13,7 L13,8 L14,8 A2.5 2.5 0 0 1 16,12 A2.5 2.5 0 0 1 14,16 L13,16 L13,17 A1 1 0 1 1 11,17 L11,16 L9.1,16 A1.1 1.1 0 0 1 8,14.9 L8,9.1 A1.1 1.1 0 0 1 9.1,8 L11,8 L11,7 A1 1 0 0 1 12,6 M14,13 L10,13 L10,14 L14,14 A0.5 0.5 0 0 0 14,13 M2.904,6.751 C5.22,2.732 10.022,0.6 14.718,1.858 A10.502 10.502 0 0 1 22.502,11.918 C22.512,13.185 21.155,13.905 20.123,13.325 L20.01,13.255 L17.332,11.45 C15.908,10.49 16.794,8.305 18.431,8.536 L18.569,8.561 L18.678,8.584 A7.504 7.504 0 0 0 5.504,8.25 A1.5 1.5 0 1 1 2.904,6.752 M14,10 L10,10 L10,11 L14,11 A0.5 0.5 0 0 0 14,10"/>
</svg>

