<svg xmlns="http://www.w3.org/2000/svg" width="24" height="24">
  <defs/>
  <path  d="M20.605,14.829 C21.108,15.057 21.33,15.65 21.102,16.153 C19.114,20.523 14.205,22.946 9.414,21.662 C5.07,20.498 2.036,16.578 2,12.08 C1.993,11.177 2.995,10.678 3.713,11.162 L6.391,12.966 C7.397,13.644 6.725,15.213 5.541,14.953 L4.477,14.719 C5.582,17.777 8.427,19.862 11.676,19.994 C14.924,20.127 17.93,18.281 19.281,15.324 C19.51,14.822 20.102,14.6 20.605,14.828 Z M3.399,9.176 C2.897,8.947 2.675,8.355 2.903,7.852 C4.89,3.482 9.799,1.06 14.59,2.343 C18.934,3.507 21.968,7.427 22.004,11.924 C22.011,12.827 21.009,13.326 20.291,12.842 L17.613,11.038 C16.607,10.36 17.279,8.791 18.463,9.051 L19.527,9.285 C18.422,6.227 15.577,4.142 12.328,4.01 C9.08,3.877 6.074,5.723 4.723,8.68 C4.494,9.182 3.902,9.404 3.399,9.176 Z M12.53,8.5 C11.54,8.5 10.438,9.427 10.102,11 L13,11 C13.552,11 14,11.448 14,12 C14,12.552 13.552,13 13,13 L10.102,13 C10.437,14.573 11.54,15.5 12.53,15.5 C13.13,15.5 13.733,15.196 14.22,14.59 C14.439,14.298 14.799,14.149 15.161,14.201 C15.522,14.252 15.826,14.496 15.955,14.837 C16.084,15.178 16.017,15.563 15.78,15.84 C14.993,16.823 13.853,17.5 12.53,17.5 C10.142,17.5 8.45,15.408 8.077,13 L8,13 C7.448,13 7,12.552 7,12 C7,11.448 7.448,11 8,11 L8.077,11 C8.449,8.592 10.142,6.5 12.53,6.5 C13.853,6.5 14.993,7.177 15.78,8.16 C16.104,8.592 16.027,9.203 15.606,9.541 C15.184,9.879 14.571,9.821 14.22,9.41 C13.733,8.804 13.13,8.5 12.53,8.5 Z"/>
</svg>

