<svg xmlns="http://www.w3.org/2000/svg" width="24" height="24">
  <defs/>
  <path  d="M3.713,11.163 L6.391,12.967 C7.397,13.645 6.725,15.214 5.541,14.954 L4.477,14.72 A8.002 8.002 0 0 0 19.281,15.325 A1 1 0 0 1 21.101,16.153 C19.114,20.523 14.205,22.946 9.414,21.662 A10.003 10.003 0 0 1 2,12.08 C1.993,11.177 2.996,10.678 3.713,11.162 M12,6 A1 1 0 0 1 12.993,6.883 L13,7 L13,8 L15,8 A1 1 0 0 1 15.117,9.993 L15,10 L10,10 A0.5 0.5 0 0 0 9.91,10.992 L10,11 L14,11 A2.5 2.5 0 0 1 14.164,15.995 L14,16 L13,16 L13,17 A1 1 0 0 1 11.007,17.117 L11,17 L11,16 L9,16 A1 1 0 0 1 8.883,14.007 L9,14 L14,14 A0.5 0.5 0 0 0 14.09,13.008 L14,13 L10,13 A2.5 2.5 0 0 1 9.836,8.005 L10,8 L11,8 L11,7 A1 1 0 0 1 12,6 M14.59,2.343 A10.002 10.002 0 0 1 22.004,11.924 C22.011,12.827 21.009,13.326 20.292,12.842 L17.614,11.038 C16.607,10.36 17.279,8.791 18.464,9.051 L19.527,9.285 A8.002 8.002 0 0 0 4.723,8.68 A1 1 0 1 1 2.903,7.852 C4.89,3.482 9.8,1.06 14.59,2.343"/>
</svg>

