<svg xmlns="http://www.w3.org/2000/svg" width="24" height="24">
  <defs/>
  <path  d="M3.99,10.746 L6.668,12.55 C8.132,13.536 7.155,15.818 5.431,15.44 L5.323,15.416 A7.504 7.504 0 0 0 18.498,15.751 A1.5 1.5 0 0 1 21.097,17.249 C18.78,21.268 13.978,23.401 9.282,22.142 A10.502 10.502 0 0 1 1.498,12.082 C1.488,10.768 2.948,10.042 3.99,10.745 M12,6 A1 1 0 0 1 12.993,6.883 L13,7 L13,8 L15,8 A1 1 0 0 1 15.117,9.993 L15,10 L10,10 A0.5 0.5 0 0 0 9.91,10.992 L10,11 L14,11 A2.5 2.5 0 0 1 14.164,15.995 L14,16 L13,16 L13,17 A1 1 0 0 1 11.007,17.117 L11,17 L11,16 L9,16 A1 1 0 0 1 8.883,14.007 L9,14 L14,14 A0.5 0.5 0 0 0 14.09,13.008 L14,13 L10,13 A2.5 2.5 0 0 1 9.836,8.005 L10,8 L11,8 L11,7 A1 1 0 0 1 12,6 M14.718,1.858 A10.502 10.502 0 0 1 22.502,11.918 C22.512,13.232 21.053,13.958 20.01,13.255 L17.332,11.45 C15.869,10.464 16.845,8.182 18.569,8.56 L18.678,8.584 A7.504 7.504 0 0 0 5.504,8.25 A1.5 1.5 0 1 1 2.904,6.752 C5.22,2.732 10.022,0.6 14.718,1.858"/>
</svg>

