<svg xmlns="http://www.w3.org/2000/svg" width="24" height="24">
  <defs/>
  <path  d="M1.498,12.082 C1.488,10.815 2.845,10.095 3.877,10.676 L3.99,10.746 L6.668,12.55 C8.092,13.51 7.206,15.695 5.569,15.465 L5.431,15.44 L5.323,15.416 A7.504 7.504 0 0 0 18.498,15.751 A1.5 1.5 0 0 1 21.097,17.249 C18.78,21.268 13.978,23.401 9.282,22.142 A10.502 10.502 0 0 1 1.498,12.082 M12.53,6.5 C13.853,6.5 14.993,7.177 15.78,8.16 A1 1 0 0 1 14.22,9.41 C13.733,8.804 13.13,8.5 12.53,8.5 C11.585,8.5 10.537,9.345 10.153,10.79 L10.103,11 L13,11 A1 1 0 0 1 13.117,12.993 L13,13 L10.102,13 C10.437,14.573 11.54,15.5 12.53,15.5 C13.13,15.5 13.733,15.196 14.22,14.59 A1 1 0 1 1 15.78,15.84 C14.993,16.823 13.853,17.5 12.53,17.5 C10.214,17.5 8.553,15.533 8.115,13.218 L8.077,13 L8,13 A1 1 0 0 1 7.883,11.007 L8,11 L8.077,11 C8.449,8.592 10.142,6.5 12.53,6.5 M2.904,6.751 C5.22,2.732 10.022,0.6 14.718,1.858 A10.502 10.502 0 0 1 22.502,11.918 C22.512,13.185 21.155,13.905 20.123,13.325 L20.01,13.255 L17.332,11.45 C15.908,10.49 16.794,8.305 18.431,8.536 L18.569,8.561 L18.678,8.584 A7.504 7.504 0 0 0 5.504,8.25 A1.5 1.5 0 1 1 2.904,6.752"/>
</svg>

