<svg xmlns="http://www.w3.org/2000/svg" width="24" height="24">
  <defs/>
  <path  d="M14.718,1.858 C19.279,3.08 22.464,7.196 22.502,11.918 C22.512,13.232 21.053,13.958 20.01,13.255 L17.332,11.45 C17.18,11.349 17.044,11.224 16.932,11.08 C16.852,11.418 16.702,11.73 16.5,12 C17.068,12.758 17.16,13.771 16.736,14.618 C16.313,15.465 15.447,16 14.5,16 L14,16 L14,17 C14,17.552 13.552,18 13,18 C12.448,18 12,17.552 12,17 L12,16 L11,16 L11,17 C11,17.552 10.552,18 10,18 C9.448,18 9,17.552 9,17 L9,16 L8,16 C7.448,16 7,15.552 7,15 L7.004,14.906 C6.66,15.331 6.102,15.586 5.431,15.44 L5.323,15.416 C6.576,17.861 9.064,19.427 11.811,19.496 C14.558,19.566 17.123,18.129 18.498,15.751 C18.916,15.044 19.826,14.805 20.538,15.215 C21.25,15.626 21.499,16.532 21.097,17.249 C18.78,21.268 13.978,23.401 9.282,22.142 C4.721,20.92 1.536,16.804 1.498,12.082 C1.488,10.768 2.948,10.042 3.99,10.745 L6.668,12.55 C7.308,12.982 7.482,13.662 7.329,14.258 C7.513,14.091 7.752,13.999 8,14 L8,10 C7.448,10 7,9.552 7,9 C7,8.448 7.448,8 8,8 L9,8 L9,7 C9,6.448 9.448,6 10,6 C10.552,6 11,6.448 11,7 L11,8 L12,8 L12,7 C12,6.448 12.448,6 13,6 C13.552,6 14,6.448 14,7 L14,8 L14.5,8 C15.477,8 16.364,8.569 16.772,9.456 C17.059,8.829 17.724,8.376 18.569,8.561 L18.678,8.584 C17.425,6.139 14.936,4.575 12.19,4.505 C9.444,4.435 6.879,5.872 5.504,8.25 C5.09,8.968 4.173,9.215 3.455,8.801 C2.737,8.387 2.49,7.47 2.904,6.752 C5.22,2.732 10.022,0.6 14.718,1.858 Z M14.5,13 L10,13 L10,14 L14.5,14 C14.759,14 14.975,13.803 14.999,13.545 C15.022,13.287 14.845,13.054 14.59,13.008 Z M14.5,10 L10,10 L10,11 L14.5,11 C14.776,11 15,10.776 15,10.5 C15,10.224 14.776,10 14.5,10 Z"/>
</svg>

