<svg xmlns="http://www.w3.org/2000/svg" width="24" height="24">
  <defs/>
  <path  d="M2,12.08 C1.994,11.218 2.91,10.724 3.618,11.105 L3.713,11.163 L6.391,12.967 C7.363,13.622 6.768,15.11 5.657,14.974 L5.54,14.954 L4.477,14.72 A8.002 8.002 0 0 0 19.281,15.325 A1 1 0 0 1 21.101,16.153 C19.114,20.523 14.205,22.946 9.414,21.662 A10.003 10.003 0 0 1 2,12.08 M12,6 A1 1 0 0 1 13,7 L13,8 L14,8 A2.5 2.5 0 0 1 16,12 A2.5 2.5 0 0 1 14,16 L13,16 L13,17 A1 1 0 1 1 11,17 L11,16 L9.1,16 A1.1 1.1 0 0 1 8,14.9 L8,9.1 A1.1 1.1 0 0 1 9.1,8 L11,8 L11,7 A1 1 0 0 1 12,6 M14,13 L10,13 L10,14 L14,14 A0.5 0.5 0 0 0 14,13 M2.903,7.852 C4.89,3.482 9.799,1.06 14.59,2.343 A10.002 10.002 0 0 1 22.004,11.924 C22.011,12.787 21.094,13.282 20.387,12.9 L20.291,12.842 L17.613,11.038 C16.641,10.383 17.236,8.895 18.347,9.031 L18.464,9.051 L19.527,9.285 A8.002 8.002 0 0 0 4.723,8.68 A1 1 0 1 1 2.903,7.852 M14,10 L10,10 L10,11 L14,11 A0.5 0.5 0 0 0 14,10"/>
</svg>

