<svg xmlns="http://www.w3.org/2000/svg" width="24" height="24">
  <defs/>
  <path  d="M3.713,11.163 L6.391,12.967 C7.397,13.645 6.725,15.214 5.541,14.954 L4.477,14.72 A8.002 8.002 0 0 0 19.281,15.325 A1 1 0 0 1 21.101,16.153 C19.114,20.523 14.205,22.946 9.414,21.662 A10.003 10.003 0 0 1 2,12.08 C1.993,11.177 2.995,10.678 3.713,11.162 Z M13,6 A1 1 0 0 1 13.993,6.883 L14,7 L14,8 L14.5,8 A2.5 2.5 0 0 1 16.5,12 A2.5 2.5 0 0 1 14.664,15.995 L14.5,16 L14,16 L14,17 A1 1 0 0 1 12.007,17.117 L12,17 L12,16 L11,16 L11,17 A1 1 0 0 1 9.007,17.117 L9,17 L9,16 L8,16 A1 1 0 0 1 7.883,14.007 L8,14 L8,10 A1 1 0 0 1 7.883,8.007 L8,8 L9,8 L9,7 A1 1 0 0 1 10.993,6.883 L11,7 L11,8 L12,8 L12,7 A1 1 0 0 1 13,6 M14.5,13 L10,13 L10,14 L14.5,14 A0.5 0.5 0 0 0 14.59,13.008 Z M14.59,2.343 A10.002 10.002 0 0 1 22.004,11.924 C22.011,12.827 21.009,13.326 20.291,12.842 L17.613,11.038 C16.607,10.36 17.279,8.791 18.463,9.051 L19.527,9.285 A8.002 8.002 0 0 0 4.723,8.68 A1 1 0 1 1 2.903,7.852 C4.89,3.482 9.799,1.06 14.59,2.343 M14.5,10 L10,10 L10,11 L14.5,11 A0.5 0.5 0 0 0 14.5,10"/>
</svg>

