<svg xmlns="http://www.w3.org/2000/svg" width="24" height="24">
  <defs/>
  <path  d="M14,3 A2 2 0 0 1 16,5 L16,8 L19,8 A2 2 0 0 1 21,10 L21,19 A2 2 0 0 1 19,21 L10,21 A2 2 0 0 1 8,19 L8,16 L5,16 A2 2 0 0 1 3,14 L3,5 A2 2 0 0 1 5,3 Z M14,5 L5,5 L5,14 L8,14 L8,13.5 A1 1 0 1 1 10,13.5 L10,14 L10.5,14 A1 1 0 1 1 10.5,16 L10,16 L10,19 L19,19 L19,10 L16,10 L16,10.5 A1 1 0 1 1 14,10.5 L14,10 L13.5,10 A1 1 0 1 1 13.5,8 L14,8 Z M15,12.5 A1 1 0 0 1 15.993,13.383 L16,13.5 L16,14 A2 2 0 0 1 14.15,15.995 L14,16 L13.5,16 A1 1 0 0 1 13.383,14.007 L13.5,14 L14,14 L14,13.5 A1 1 0 0 1 15,12.5 M10.5,8 A1 1 0 0 1 10.617,9.993 L10.5,10 L10,10 L10,10.5 A1 1 0 0 1 8.007,10.617 L8,10.5 L8,10 A2 2 0 0 1 9.85,8.005 L10,8 Z"/>
</svg>

