<svg xmlns="http://www.w3.org/2000/svg" width="24" height="24">
  <defs/>
  <path  d="M15.54,3 C15.302,3.296 15.123,3.635 15.012,3.998 L14.38,3.998 C12.723,3.998 11.38,5.341 11.38,6.998 C11.38,8.655 12.723,9.998 14.38,9.998 L15.01,9.998 C15.15,10.454 15.4,10.884 15.76,11.244 C16.351,11.836 17.164,12.153 18,12.119 L18,19 L20,19 C20.552,19 21,19.448 21,20 C21,20.552 20.552,21 20,21 L4,21 C3.448,21 3,20.552 3,20 C3,19.448 3.448,19 4,19 L4,5 C4,3.895 4.895,3 6,3 Z M18.587,4.172 L20.707,6.292 C21.097,6.682 21.097,7.315 20.707,7.705 L18.587,9.828 C18.336,10.088 17.964,10.193 17.615,10.101 C17.265,10.01 16.992,9.737 16.9,9.388 C16.808,9.038 16.912,8.666 17.172,8.415 L17.588,7.998 L14.38,7.998 C13.828,7.998 13.38,7.55 13.38,6.998 C13.38,6.446 13.828,5.998 14.38,5.998 L17.585,5.998 L17.173,5.586 C16.794,5.194 16.799,4.57 17.185,4.184 C17.571,3.798 18.195,3.793 18.587,4.172 Z M13.5,13 C12.672,13 12,13.672 12,14.5 C12,15.328 12.672,16 13.5,16 C14.328,16 15,15.328 15,14.5 C15,13.672 14.328,13 13.5,13 Z"/>
</svg>

