<svg xmlns="http://www.w3.org/2000/svg" width="24" height="24">
  <defs/>
  <path  d="M19,4 C20.105,4 21,4.895 21,6 L21,10 L14,10 C12.343,10 11,11.343 11,13 L11,19 L4,19 C2.895,19 2,18.105 2,17 L2,6 C2,4.895 2.895,4 4,4 Z M20,12 C21.047,12 21.917,12.806 21.995,13.85 L22,14 L22,18 C22,19.047 21.194,19.917 20.15,19.995 L20,20 L15,20 C13.953,20 13.083,19.194 13.005,18.15 L13,18 L13,14 C13,12.953 13.806,12.083 14.85,12.005 L15,12 Z M9,7 L6,7 C5.448,7 5,7.448 5,8 L5,11 C5,11.552 5.448,12 6,12 C6.552,12 7,11.552 7,11 L7,10.414 L8.915,12.329 C9.307,12.708 9.931,12.703 10.317,12.317 C10.703,11.931 10.708,11.307 10.329,10.915 L8.414,9 L9,9 C9.552,9 10,8.552 10,8 C10,7.448 9.552,7 9,7 Z M20,14 L15,14 L15,18 L20,18 Z"/>
</svg>

