<svg xmlns="http://www.w3.org/2000/svg" width="24" height="24">
  <defs/>
  <path  d="M15.476,7.11 L15.477,7.11 L9.293,13.293 C8.914,13.685 8.919,14.309 9.305,14.695 C9.691,15.081 10.315,15.086 10.707,14.707 L16.89,8.523 C17.59,9.504 18,10.704 18,12 L18,19 C18,20.105 17.105,21 16,21 L5,21 C3.895,21 3,20.105 3,19 L3,8 C3,6.895 3.895,6 5,6 L12,6 C13.246,5.998 14.462,6.386 15.476,7.11 L15.476,7.11 Z M21,4 L21,9 C21,9.552 20.552,10 20,10 C19.448,10 19,9.552 19,9 L19,6.414 L16.891,8.523 C16.502,7.976 16.024,7.499 15.477,7.11 L15.477,7.11 L15.476,7.11 L17.586,5 L15,5 C14.448,5 14,4.552 14,4 C14,3.448 14.448,3 15,3 L20,3 C20.552,3 21,3.448 21,4 Z"/>
</svg>

