<svg xmlns="http://www.w3.org/2000/svg" width="24" height="24">
  <defs/>
  <path  d="M2.5,9 C2.499,8.25 3.053,7.614 3.796,7.512 C4.539,7.41 5.244,7.873 5.445,8.596 C7.392,15.098 16.603,15.099 18.554,8.601 C18.703,8.084 19.118,7.686 19.641,7.559 C20.164,7.432 20.715,7.595 21.085,7.986 C21.455,8.377 21.587,8.936 21.431,9.451 C21.089,10.619 20.539,11.715 19.808,12.687 L20.768,13.647 C21.158,14.024 21.314,14.582 21.176,15.106 C21.039,15.63 20.629,16.04 20.105,16.177 C19.58,16.314 19.022,16.157 18.646,15.767 L17.636,14.757 C17.111,15.117 16.552,15.423 15.966,15.672 L16.209,16.578 C16.401,17.369 15.926,18.169 15.139,18.38 C14.353,18.591 13.542,18.135 13.312,17.354 L13.061,16.419 C12.356,16.492 11.644,16.492 10.939,16.419 L10.689,17.354 C10.475,18.154 9.652,18.629 8.852,18.415 C8.052,18.201 7.577,17.378 7.791,16.578 L8.033,15.671 C7.448,15.422 6.889,15.116 6.364,14.757 L5.354,15.767 C4.978,16.157 4.42,16.314 3.895,16.177 C3.371,16.04 2.961,15.63 2.824,15.106 C2.686,14.582 2.842,14.024 3.232,13.647 L4.192,12.687 C3.462,11.716 2.913,10.622 2.572,9.457 C2.525,9.309 2.5,9.155 2.5,9 Z"/>
</svg>

