<svg xmlns="http://www.w3.org/2000/svg" width="24" height="24">
  <defs/>
  <path  d="M12,5 C14.783,5 17.248,6.254 18.991,7.659 C19.868,8.366 20.591,9.133 21.104,9.846 C21.347,10.176 21.557,10.529 21.73,10.901 C21.877,11.229 22,11.612 22,12 C22,12.389 21.877,12.771 21.729,13.099 C21.575,13.441 21.361,13.798 21.104,14.154 C20.591,14.867 19.868,15.635 18.991,16.341 C17.248,17.746 14.783,19 12,19 C9.217,19 6.752,17.746 5.009,16.341 C4.132,15.634 3.409,14.867 2.896,14.154 C2.64,13.799 2.425,13.441 2.27,13.099 C2.123,12.771 2,12.388 2,12 C2,11.611 2.123,11.23 2.271,10.901 C2.444,10.529 2.653,10.176 2.896,9.846 C3.409,9.133 4.132,8.365 5.009,7.659 C6.752,6.254 9.217,5 12,5 Z M4,12.001 C4.019,12.097 4.051,12.19 4.095,12.278 C4.213,12.527 4.355,12.764 4.519,12.986 C4.917,13.539 5.512,14.178 6.264,14.784 C7.777,16.004 9.812,17 12,17 C14.189,17 16.224,16.004 17.736,14.783 C18.488,14.177 19.083,13.538 19.481,12.985 C19.645,12.763 19.787,12.526 19.905,12.277 C19.983,12.104 19.997,12.016 20,12 L20,11.999 C19.997,11.983 19.983,11.895 19.905,11.722 C19.819,11.531 19.681,11.291 19.481,11.014 C19.083,10.461 18.488,9.822 17.736,9.216 C16.223,7.996 14.188,7 12,7 C9.812,7 7.777,7.996 6.264,9.218 C5.512,9.824 4.917,10.463 4.519,11.016 C4.32,11.293 4.181,11.533 4.095,11.724 C4.017,11.897 4.003,11.985 4,12.001 Z M12,9 C13.657,9 15,10.343 15,12 C15,13.657 13.657,15 12,15 C10.343,15 9,13.657 9,12 C9,10.343 10.343,9 12,9 Z M11,12 C11,12.552 11.448,13 12,13 C12.552,13 13,12.552 13,12 C13,11.448 12.552,11 12,11 C11.448,11 11,11.448 11,12 Z"/>
</svg>

