<svg xmlns="http://www.w3.org/2000/svg" width="24" height="24">
  <defs/>
  <path  d="M3.05,9.31 A1 1 0 1 1 4.964,8.733 C7.05,15.719 16.946,15.72 19.034,8.737 A1 1 0 1 1 20.952,9.307 A9.509 9.509 0 0 1 19.139,12.724 L20.414,14 A1 1 0 0 1 19,15.414 L17.689,14.103 A9.116 9.116 0 0 1 15.369,15.372 L15.726,16.707 A1 1 0 1 1 13.795,17.225 L13.431,15.868 C12.484,16.008 11.516,16.008 10.569,15.868 L10.205,17.225 A1 1 0 1 1 8.274,16.707 L8.631,15.372 A9.118 9.118 0 0 1 6.311,14.102 L5.001,15.414 A1 1 0 0 1 3.585,14 L4.86,12.725 C4.076,11.789 3.45,10.651 3.048,9.311 Z"/>
</svg>

