<svg xmlns="http://www.w3.org/2000/svg" width="24" height="24">
  <defs/>
  <path  d="M12,4 C14.786,4 17.263,5.257 19.026,6.813 C19.911,7.594 20.64,8.471 21.154,9.344 C21.66,10.201 22,11.13 22,12 C22,12.87 21.66,13.799 21.154,14.656 C20.64,15.529 19.911,16.406 19.026,17.187 C17.263,18.743 14.787,20 12,20 C9.214,20 6.737,18.743 4.974,17.187 C4.089,16.406 3.36,15.529 2.846,14.656 C2.34,13.799 2,12.87 2,12 C2,11.13 2.34,10.201 2.846,9.344 C3.36,8.47 4.09,7.594 4.974,6.813 C6.737,5.257 9.213,4 12,4 Z M14,12 C13.287,12.001 12.628,11.622 12.269,11.006 C11.911,10.39 11.907,9.629 12.26,9.01 C11.004,8.901 9.814,9.589 9.281,10.732 C8.748,11.875 8.987,13.228 9.879,14.12 C10.771,15.012 12.124,15.251 13.267,14.718 C14.41,14.185 15.098,12.995 14.989,11.739 C14.697,11.905 14.36,12 14,12 Z"/>
</svg>

