<svg xmlns="http://www.w3.org/2000/svg" width="24" height="24">
  <defs/>
  <path  d="M12,4 C14.787,4 17.263,5.257 19.026,6.813 C19.911,7.594 20.64,8.471 21.154,9.344 C21.659,10.201 22,11.13 22,12 C22,12.87 21.66,13.799 21.154,14.656 C20.64,15.529 19.911,16.406 19.026,17.187 C17.263,18.743 14.786,20 12,20 C9.213,20 6.737,18.743 4.974,17.187 C4.089,16.406 3.36,15.529 2.846,14.656 C2.34,13.799 2,12.87 2,12 C2,11.13 2.34,10.201 2.846,9.344 C3.36,8.471 4.089,7.594 4.974,6.813 C6.737,5.257 9.214,4 12,4 M12,6 C9.816,6 7.792,6.993 6.298,8.312 C5.554,8.968 4.966,9.685 4.569,10.359 C4.163,11.049 4,11.62 4,12 C4,12.38 4.163,12.951 4.569,13.641 C4.966,14.315 5.554,15.031 6.298,15.688 C7.792,17.007 9.816,18 12,18 C14.184,18 16.208,17.007 17.702,15.688 C18.446,15.031 19.034,14.315 19.431,13.641 C19.837,12.951 20,12.38 20,12 C20,11.62 19.837,11.049 19.431,10.359 C19.034,9.685 18.446,8.969 17.702,8.312 C16.208,6.993 14.184,6 12,6 M12,9 C12.088,9 12.175,9.004 12.261,9.011 A2 2 0 0 0 14.989,11.739 A3 3 0 1 1 12,9"/>
</svg>

