<svg xmlns="http://www.w3.org/2000/svg" width="24" height="24">
  <defs/>
  <path  d="M18.938,9.362 C20.64,10.13 22.108,11.283 22.9,12.916 C23.068,13.263 23.022,13.676 22.781,13.977 C22.54,14.278 22.148,14.414 21.772,14.326 C15.815,12.93 9.789,15.33 6.612,16.64 C4.618,17.462 2.682,16.791 1.681,15.439 C1.161,14.75 0.926,13.887 1.024,13.029 C1.133,12.132 1.613,11.287 2.442,10.607 C3.658,9.61 5.367,8.915 7.216,8.497 C10.997,7.639 15.364,7.747 18.937,9.361 Z M7.658,10.448 C5.976,10.829 4.597,11.428 3.71,12.155 C3.225,12.553 3.048,12.951 3.01,13.272 C2.969,13.602 3.063,13.946 3.288,14.251 C3.734,14.852 4.688,15.271 5.848,14.793 C8.547,13.68 13.817,11.533 19.484,11.96 C19.054,11.658 18.595,11.398 18.114,11.184 C14.937,9.75 11.015,9.687 7.658,10.448 Z"/>
</svg>

