<svg xmlns="http://www.w3.org/2000/svg" width="24" height="24">
  <defs/>
  <path  d="M7.488,5 A1 1 0 0 0 6.53,5.713 L4.504,12.466 A4.502 4.502 0 0 1 10.754,15.031 C10.834,15.011 10.915,15 11,15 L13,15 C13.085,15 13.167,15.01 13.245,15.03 A4.502 4.502 0 0 1 19.495,12.466 L17.47,5.713 A1 1 0 0 0 16.512,5 L16,5 A1 1 0 1 1 16,3 L16.512,3 A3 3 0 0 1 19.385,5.138 L21.62,12.588 A9 9 0 0 1 22,15.174 L22,16.5 A4.5 4.5 0 0 1 13.027,17 A0.83 0.83 0 0 1 13,17 L11,17 A0.83 0.83 0 0 1 10.973,17 A4.5 4.5 0 0 1 2,16.5 L2,15.174 A9 9 0 0 1 2.38,12.588 L4.615,5.138 A3 3 0 0 1 7.488,3 L8,3 A1 1 0 0 1 8,5 Z"/>
</svg>

