<svg xmlns="http://www.w3.org/2000/svg" width="24" height="24">
  <defs/>
  <path  d="M8,3 C8.552,3 9,3.448 9,4 C9,4.552 8.552,5 8,5 L7.488,5 C7.046,5 6.657,5.29 6.53,5.713 L4.504,12.466 C5.663,11.893 7.012,11.846 8.208,12.337 C9.404,12.828 10.332,13.809 10.754,15.031 C10.834,15.011 10.915,15 11,15 L13,15 C13.085,15 13.167,15.01 13.245,15.03 C13.668,13.808 14.595,12.827 15.791,12.337 C16.987,11.846 18.336,11.893 19.495,12.466 L17.47,5.713 C17.343,5.29 16.954,5 16.512,5 L16,5 C15.448,5 15,4.552 15,4 C15,3.448 15.448,3 16,3 L16.512,3 C17.837,3 19.004,3.869 19.385,5.138 L21.62,12.588 C21.872,13.427 22,14.298 22,15.174 L22,16.5 C22.004,18.891 20.138,20.868 17.75,21.001 C15.363,21.134 13.288,19.377 13.027,17 L10.973,17 C10.712,19.377 8.637,21.134 6.25,21.001 C3.862,20.868 1.996,18.891 2,16.5 L2,15.174 C2,14.298 2.128,13.427 2.38,12.588 L4.615,5.138 C4.996,3.869 6.163,3 7.488,3 Z M17.5,14 C16.119,14 15,15.119 15,16.5 C15,17.881 16.119,19 17.5,19 C18.881,19 20,17.881 20,16.5 C20,15.119 18.881,14 17.5,14 Z M6.5,14 C5.119,14 4,15.119 4,16.5 C4,17.881 5.119,19 6.5,19 C7.881,19 9,17.881 9,16.5 C9,15.119 7.881,14 6.5,14 Z"/>
</svg>

