<svg xmlns="http://www.w3.org/2000/svg" width="24" height="24">
  <defs/>
  <path  d="M12,22 C6.477,22 2,17.523 2,12 C2,6.477 6.477,2 12,2 C17.523,2 22,6.477 22,12 C22,17.523 17.523,22 12,22 Z M4,12 C4,16.032 7,19.434 11,19.938 L11,14 L9,14 C8.448,14 8,13.552 8,13 C8,12.448 8.448,12 9,12 L11,12 L11,10 C11,8.343 12.343,7 14,7 L14.5,7 C15.052,7 15.5,7.448 15.5,8 C15.5,8.552 15.052,9 14.5,9 L14,9 C13.448,9 13,9.448 13,10 L13,12 L15,12 C15.552,12 16,12.448 16,13 C16,13.552 15.552,14 15,14 L13,14 L13,19.938 C17.255,19.402 20.33,15.607 19.972,11.333 C19.614,7.06 15.951,3.829 11.666,4.008 C7.382,4.187 4,7.712 4,12 Z"/>
</svg>

