<svg xmlns="http://www.w3.org/2000/svg" width="24" height="24">
  <defs/>
  <path  d="M12.55,4.117 L17.668,5.579 A3 3 0 0 1 19.824,8.114 A3.001 3.001 0 0 1 22,11 L22,12 A4.002 4.002 0 0 1 19.021,15.868 A5 5 0 0 1 16.475,18.88 L13.342,20.447 A3 3 0 0 1 10.658,20.447 L7.525,18.88 A5 5 0 0 1 4.979,15.868 A4.002 4.002 0 0 1 2,12 L2,11 C2,9.629 2.92,8.472 4.176,8.114 A3 3 0 0 1 6.332,5.58 L11.451,4.118 A2 2 0 0 1 12.549,4.118 Z M12,6.04 L6.882,7.502 A1 1 0 0 0 6.162,8.563 L6.776,14.707 A3 3 0 0 0 8.419,17.092 L11.553,18.658 A1 1 0 0 0 12.447,18.658 L15.581,17.092 A3 3 0 0 0 17.224,14.707 L17.839,8.563 A1 1 0 0 0 17.119,7.503 Z M15,13 A1 1 0 0 1 15.117,14.993 L15,15 L9,15 A1 1 0 0 1 8.883,13.007 L9,13 Z M19.679,10.265 L19.359,13.468 C19.753,13.103 20,12.58 20,12 L20,11 A0.997 0.997 0 0 0 19.678,10.265 Z M4.322,10.265 A0.998 0.998 0 0 0 4.007,10.877 L4,11 L4,12 C4,12.516 4.195,12.986 4.516,13.34 L4.642,13.468 Z M15,10 A1 1 0 1 1 15,12 L9,12 A1 1 0 1 1 9,10 Z"/>
</svg>

