<svg xmlns="http://www.w3.org/2000/svg" width="24" height="24">
  <defs/>
  <path  d="M6.356,4.164 C7.726,2.784 9.622,2 12,2 C14.379,2 16.273,2.785 17.644,4.164 C18.8,5.327 19.524,6.854 19.894,8.537 C19.949,8.547 20.004,8.56 20.058,8.575 C20.927,8.807 21.487,9.491 21.76,10.225 C22.033,10.961 22.059,11.83 21.833,12.674 C21.516,13.857 20.668,15.024 19.431,15.339 C18.079,18.59 15.086,21 12,21 C8.913,21 5.92,18.588 4.569,15.338 C3.334,15.021 2.488,13.855 2.171,12.674 C1.945,11.83 1.971,10.961 2.244,10.224 C2.517,9.491 3.077,8.807 3.946,8.574 C3.999,8.56 4.052,8.548 4.106,8.538 C4.476,6.854 5.2,5.328 6.356,4.164 Z"/>
</svg>

