<svg xmlns="http://www.w3.org/2000/svg" width="24" height="24">
  <defs/>
  <path  d="M6.356,4.163 C7.726,2.785 9.622,2 12,2 C14.379,2 16.273,2.785 17.644,4.164 C18.8,5.327 19.524,6.854 19.894,8.537 C19.949,8.547 20.004,8.56 20.058,8.575 C20.927,8.807 21.487,9.491 21.76,10.225 C22.033,10.961 22.059,11.83 21.833,12.674 C21.516,13.857 20.668,15.024 19.431,15.339 C18.079,18.59 15.086,21 12,21 C8.913,21 5.92,18.588 4.569,15.338 C3.334,15.021 2.488,13.855 2.171,12.674 C1.945,11.83 1.971,10.961 2.244,10.224 C2.517,9.491 3.077,8.807 3.946,8.574 C3.999,8.56 4.052,8.548 4.106,8.538 C4.476,6.854 5.2,5.328 6.356,4.164 Z M7.775,5.573 C6.805,6.55 6.178,7.968 5.925,9.699 C5.883,9.986 5.72,10.24 5.476,10.396 C5.232,10.553 4.933,10.596 4.655,10.515 C4.379,10.435 4.206,10.687 4.119,10.921 C4.006,11.225 3.972,11.666 4.103,12.156 C4.217,12.581 4.62,13.466 5.193,13.413 C5.653,13.37 6.082,13.648 6.232,14.085 C7.248,17.057 9.799,19 12,19 C14.201,19 16.752,17.057 17.768,14.085 C17.917,13.646 18.349,13.368 18.81,13.412 C19.383,13.467 19.787,12.581 19.901,12.156 C20.032,11.666 19.998,11.225 19.885,10.921 C19.797,10.686 19.624,10.434 19.347,10.515 C19.069,10.597 18.769,10.554 18.525,10.398 C18.281,10.241 18.117,9.987 18.075,9.7 C17.822,7.969 17.195,6.55 16.225,5.574 C15.272,4.614 13.91,4 12,4 C10.091,4 8.728,4.615 7.775,5.573 Z"/>
</svg>

