<svg xmlns="http://www.w3.org/2000/svg" width="24" height="24">
  <defs/>
  <path  d="M4,16 A1 1 0 0 1 4.993,16.883 L5,17 L5,19 L7,19 A1 1 0 0 1 7.117,20.993 L7,21 L5,21 A2 2 0 0 1 3.005,19.15 L3,19 L3,17 A1 1 0 0 1 4,16 M20,16 A1 1 0 0 1 21,17 L21,19 A2 2 0 0 1 19,21 L17,21 A1 1 0 1 1 17,19 L19,19 L19,17 A1 1 0 0 1 20,16 M14.8,13.857 A1 1 0 1 1 16.2,15.285 A5.984 5.984 0 0 1 12,17 A5.984 5.984 0 0 1 7.8,15.285 A1 1 0 1 1 9.2,13.857 A3.984 3.984 0 0 0 12,15 C13.09,15 14.077,14.565 14.8,13.857 M8.5,8 A1.5 1.5 0 1 1 8.5,11 A1.5 1.5 0 0 1 8.5,8 M15.5,8 A1.5 1.5 0 1 1 15.5,11 A1.5 1.5 0 0 1 15.5,8 M7,3 A1 1 0 0 1 7,5 L5,5 L5,7 A1 1 0 0 1 3,7 L3,5 A2 2 0 0 1 5,3 Z M19,3 A2 2 0 0 1 21,5 L21,7 A1 1 0 1 1 19,7 L19,5 L17,5 A1 1 0 1 1 17,3 Z"/>
</svg>

