<svg xmlns="http://www.w3.org/2000/svg" width="24" height="24">
  <defs/>
  <path  d="M12.55,4.117 L17.668,5.579 C18.832,5.911 19.683,6.911 19.824,8.114 C21.112,8.482 22,9.66 22,11 L22,12 C22,13.816 20.777,15.404 19.021,15.868 C18.621,17.178 17.701,18.267 16.475,18.88 L13.342,20.447 C12.497,20.87 11.503,20.87 10.658,20.447 L7.525,18.88 C6.299,18.267 5.379,17.178 4.979,15.868 C3.223,15.404 2,13.816 2,12 L2,11 C2,9.629 2.92,8.472 4.176,8.114 C4.318,6.912 5.168,5.912 6.332,5.58 L11.451,4.118 C11.81,4.016 12.19,4.016 12.549,4.118 Z M15,13 L9,13 C8.448,13 8,13.448 8,14 C8,14.552 8.448,15 9,15 L15,15 C15.552,15 16,14.552 16,14 C16,13.448 15.552,13 15,13 Z M15,10 L9,10 C8.471,10.001 8.034,10.413 8.003,10.941 C7.972,11.47 8.358,11.931 8.883,11.993 L9,12 L15,12 C15.529,11.999 15.966,11.587 15.997,11.059 C16.028,10.53 15.642,10.069 15.117,10.007 Z M4.322,10.265 C4.148,10.425 4.036,10.642 4.007,10.877 L4,11 L4,12 C4,12.516 4.195,12.986 4.516,13.34 L4.642,13.468 Z M19.359,13.468 C19.753,13.103 20,12.58 20,12 L20,11 C20,10.721 19.884,10.455 19.679,10.266 L19.359,13.468 Z"/>
</svg>

