<svg xmlns="http://www.w3.org/2000/svg" width="24" height="24">
  <defs/>
  <path  d="M4,15.5 A1.5 1.5 0 0 1 5.5,17 L5.5,18.5 L7,18.5 A1.5 1.5 0 0 1 7,21.5 L5,21.5 A2.5 2.5 0 0 1 2.5,19 L2.5,17 A1.5 1.5 0 0 1 4,15.5 M20,15.5 A1.5 1.5 0 0 1 21.493,16.856 L21.5,17 L21.5,19 A2.5 2.5 0 0 1 19.164,21.495 L19,21.5 L17,21.5 A1.5 1.5 0 0 1 16.856,18.507 L17,18.5 L18.5,18.5 L18.5,17 A1.5 1.5 0 0 1 20,15.5 M14.45,13.5 A1.5 1.5 0 0 1 16.55,15.642 A6.484 6.484 0 0 1 12,17.5 C10.229,17.5 8.62,16.79 7.45,15.642 A1.5 1.5 0 1 1 9.55,13.5 C10.183,14.12 11.046,14.5 12,14.5 C12.954,14.5 13.817,14.12 14.45,13.5 M9,8 A2 2 0 1 1 9,12 A2 2 0 0 1 9,8 M15,8 A2 2 0 1 1 15,12 A2 2 0 0 1 15,8 M7,2.5 A1.5 1.5 0 0 1 7.144,5.493 L7,5.5 L5.5,5.5 L5.5,7 A1.5 1.5 0 0 1 2.507,7.144 L2.5,7 L2.5,5 A2.5 2.5 0 0 1 4.836,2.505 L5,2.5 Z M19,2.5 A2.5 2.5 0 0 1 21.495,4.836 L21.5,5 L21.5,7 A1.5 1.5 0 0 1 18.507,7.144 L18.5,7 L18.5,5.5 L17,5.5 A1.5 1.5 0 0 1 16.856,2.507 L17,2.5 Z"/>
</svg>

