<svg xmlns="http://www.w3.org/2000/svg" width="24" height="24">
  <defs/>
  <path  d="M9,3 C9.507,3 9.934,3.38 9.993,3.883 L10,4 L10.005,4.86 L10.029,6.065 L10.063,7.133 L10.101,8.076 L10.151,9.143 L13.486,7.143 C13.777,6.969 14.136,6.954 14.44,7.103 C14.744,7.252 14.952,7.545 14.993,7.881 L15,8 L15,10.132 L19.445,7.168 C19.734,6.975 20.102,6.946 20.417,7.091 C20.733,7.235 20.951,7.533 20.993,7.878 L21,8 L21,20 C21,20.507 20.62,20.934 20.117,20.993 L20,21 L4,21 C3.718,20.997 3.451,20.876 3.262,20.668 C3.073,20.459 2.98,20.18 3.005,19.9 L3.101,18.924 L3.274,17.068 L3.457,14.931 L3.58,13.365 L3.658,12.274 L3.784,10.3 L3.875,8.6 L3.951,6.75 L3.977,5.83 L4,4.34 L4,4 C4,3.493 4.38,3.066 4.883,3.007 L5,3 Z M8.007,5 L5.993,5 L5.958,6.54 L5.896,8.19 L5.809,9.93 L5.751,10.916 L5.657,12.351 L5.477,14.767 L5.327,16.557 L5.151,18.493 L5.103,19 L8.897,19 L8.757,17.507 L8.633,16.097 L8.523,14.767 L8.343,12.351 L8.249,10.916 L8.143,9.022 L8.093,7.93 L8.036,6.336 L8.014,5.442 Z M17,14 C16.448,14 16,14.448 16,15 L16,16 C16,16.552 16.448,17 17,17 C17.552,17 18,16.552 18,16 L18,15 C18,14.448 17.552,14 17,14 Z M13,14 C12.493,14 12.066,14.38 12.007,14.883 L12,15 L12,16 C12.001,16.529 12.413,16.966 12.941,16.997 C13.47,17.028 13.931,16.642 13.993,16.117 L14,16 L14,15 C14,14.448 13.552,14 13,14 Z"/>
</svg>

