<svg xmlns="http://www.w3.org/2000/svg" width="24" height="24">
  <defs/>
  <path  d="M12.5,3 C13.32,3 13.99,3.654 14.006,4.476 L14.03,5.312 L14.057,5.987 L14.114,7.067 L14.153,7.678 L14.175,8 L16.434,8 C17.34,8 17.989,8.773 17.964,9.595 L17.959,10.045 L17.964,10.325 L17.974,10.64 L17.994,10.991 L18.021,11.377 L18.06,11.797 L18.11,12.253 L18.174,12.741 L18.253,13.264 L18.298,13.537 L18.401,14.109 L18.522,14.713 C18.697,15.54 18.924,16.453 19.218,17.448 L19.451,18.208 C19.533,18.468 19.62,18.731 19.711,19 L21,19 C21.552,19 22,19.448 22,20 C22,20.552 21.552,21 21,21 L3,21 C2.448,21 2,20.552 2,20 C2,19.448 2.448,19 3,19 L4.257,19 C4.942,16.642 5.37,14.303 5.634,12.199 L5.731,11.37 L5.812,10.57 L5.847,10.181 L5.907,9.429 L5.953,8.712 L5.988,8.035 L6.013,7.4 L6.029,6.81 L6.039,6.268 L6.039,5.408 L6.027,4.7 C6.026,4.654 6.024,4.607 6.023,4.561 C6.01,4.152 6.163,3.755 6.447,3.461 C6.732,3.167 7.124,3 7.533,3 Z M12.018,5 L8.034,5 L8.04,5.542 L8.039,6.21 L8.031,6.751 L8.016,7.341 L7.993,7.975 L7.96,8.651 L7.94,9.005 L7.89,9.739 L7.826,10.509 L7.789,10.905 L7.705,11.721 C7.455,14.015 7.04,16.287 6.464,18.521 L6.335,19 L13.735,19 L13.544,18.124 L13.454,17.688 L13.284,16.822 L13.129,15.965 L12.987,15.119 L12.857,14.287 L12.739,13.471 L12.632,12.674 L12.537,11.896 L12.412,10.774 L12.34,10.058 L12.278,9.371 L12.177,8.091 L12.104,6.951 L12.064,6.201 L12.024,5.171 Z M15.959,10 L14.344,10 L14.397,10.528 L14.518,11.625 C14.783,13.874 15.183,16.425 15.787,19 L17.604,19 C17.332,18.156 17.104,17.36 16.913,16.612 L16.733,15.882 L16.578,15.185 L16.444,14.522 L16.33,13.893 C16.313,13.793 16.296,13.693 16.28,13.593 L16.193,13.016 C16.168,12.836 16.144,12.656 16.123,12.476 L16.067,11.97 L16.025,11.502 L15.995,11.07 L15.975,10.676 L15.96,10.155 Z"/>
</svg>

