<svg xmlns="http://www.w3.org/2000/svg" width="24" height="24">
  <defs/>
  <path  d="M9,3 C9.507,3 9.934,3.38 9.993,3.883 L10,4 L10.002,4.562 L10.021,5.747 L10.066,7.225 L10.134,8.792 L10.152,9.142 L13.486,7.142 C13.777,6.968 14.136,6.953 14.441,7.102 C14.745,7.252 14.953,7.545 14.993,7.882 L15,8 L15,10.132 L19.445,7.168 C19.734,6.975 20.102,6.946 20.417,7.091 C20.733,7.235 20.951,7.533 20.993,7.878 L21,8 L21,20 C21,20.507 20.62,20.934 20.117,20.993 L20,21 L4,21 C3.717,21 3.448,20.88 3.258,20.671 C3.069,20.461 2.977,20.181 3.005,19.9 L3.101,18.924 L3.274,17.068 L3.457,14.931 L3.58,13.365 L3.658,12.274 L3.784,10.3 L3.875,8.6 L3.951,6.75 L3.977,5.83 L4,4.34 L4,4.003 C4,3.486 4.386,3.063 4.883,3.006 L5,3 Z M13,9.766 L10.283,11.396 L10.372,12.695 L10.477,14.103 L10.6,15.623 L10.743,17.254 L10.906,19 L19,19 L19,9.869 L14.555,12.832 C14.248,13.037 13.853,13.056 13.528,12.882 C13.203,12.708 13,12.369 13,12 Z M8.007,5 L5.993,5 L5.958,6.54 L5.896,8.19 L5.809,9.93 L5.751,10.916 L5.657,12.351 L5.477,14.767 L5.327,16.557 L5.151,18.493 L5.103,19 L8.897,19 L8.757,17.507 L8.633,16.097 L8.523,14.767 L8.343,12.351 L8.249,10.916 L8.143,9.022 L8.093,7.93 L8.036,6.336 L8.014,5.442 Z M13,14 C13.552,14 14,14.448 14,15 L14,16 C14,16.552 13.552,17 13,17 C12.448,17 12,16.552 12,16 L12,15 C12,14.448 12.448,14 13,14 Z M17,14 C17.507,14 17.934,14.38 17.993,14.883 L18,15 L18,16 C17.999,16.529 17.587,16.966 17.059,16.997 C16.53,17.028 16.069,16.642 16.007,16.117 L16,16 L16,15 C16,14.448 16.448,14 17,14 Z"/>
</svg>

