<svg xmlns="http://www.w3.org/2000/svg" width="24" height="24">
  <defs/>
  <path  d="M10.5,6 C10.5,4.619 11.619,3.5 13,3.5 L20,3.5 C20.828,3.5 21.5,4.172 21.5,5 C21.5,5.828 20.828,6.5 20,6.5 L13.5,6.5 L13.5,10.5 L19,10.5 C19.828,10.5 20.5,11.172 20.5,12 C20.5,12.828 19.828,13.5 19,13.5 L13.5,13.5 L13.5,19 C13.5,19.828 12.828,20.5 12,20.5 C11.172,20.5 10.5,19.828 10.5,19 Z M2.5,7 C2.5,5.067 4.067,3.5 6,3.5 C7.933,3.5 9.5,5.067 9.5,7 C9.5,8.933 7.933,10.5 6,10.5 C4.067,10.5 2.5,8.933 2.5,7 Z M6,6.5 C5.724,6.5 5.5,6.724 5.5,7 C5.5,7.276 5.724,7.5 6,7.5 C6.276,7.5 6.5,7.276 6.5,7 C6.5,6.724 6.276,6.5 6,6.5 Z"/>
</svg>

