<svg xmlns="http://www.w3.org/2000/svg" width="24" height="24">
  <defs/>
  <path  d="M17.983,8.051 A1 1 0 0 1 18.615,9.316 L18.088,10.897 A6 6 0 0 1 12.396,15 L9.854,15 A2 2 0 0 0 8.065,16.106 L5.895,20.447 A1 1 0 1 1 4.105,19.553 L6.276,15.211 A4 4 0 0 1 9.854,13 L12.396,13 A4 4 0 0 0 16.191,10.265 L16.718,8.684 A1 1 0 0 1 17.983,8.051 M8,4.757 A1 1 0 0 1 8.707,5.05 L10.828,7.172 A1 1 0 0 1 9.414,8.586 L8,7.172 L6.586,8.586 A1 1 0 1 1 5.172,7.172 L7.292,5.05 A1 1 0 0 1 8,4.757 M18.5,3 A1.5 1.5 0 1 1 18.5,6 A1.5 1.5 0 0 1 18.5,3"/>
</svg>

