<svg xmlns="http://www.w3.org/2000/svg" width="24" height="24">
  <defs/>
  <path  d="M12,19.939 C9.736,21.56 6.632,21.305 4.664,19.336 C2.695,17.368 2.44,14.264 4.061,12 C2.44,9.736 2.695,6.632 4.664,4.664 C6.632,2.695 9.736,2.44 12,4.061 C14.264,2.44 17.368,2.695 19.336,4.664 C21.305,6.632 21.56,9.736 19.939,12 C21.56,14.264 21.305,17.368 19.336,19.336 C17.368,21.305 14.264,21.56 12,19.939 Z M13.417,11.858 C13.989,12.201 14.643,12.381 15.31,12.38 C16.291,12.382 17.233,11.991 17.924,11.294 C19.238,9.976 19.364,7.885 18.219,6.418 C17.073,4.951 15.015,4.567 13.417,5.522 C14.025,6.427 14.38,7.518 14.38,8.69 C14.382,9.818 14.046,10.921 13.417,11.858 Z M10.583,12.142 C10.011,11.799 9.357,11.619 8.69,11.62 C7.709,11.618 6.767,12.009 6.076,12.706 C4.762,14.024 4.636,16.115 5.781,17.582 C6.927,19.049 8.985,19.433 10.583,18.478 C9.954,17.541 9.618,16.438 9.62,15.31 C9.62,14.138 9.975,13.047 10.583,12.142 Z M18.478,13.417 C17.541,14.046 16.438,14.382 15.31,14.38 C14.182,14.382 13.079,14.046 12.142,13.417 C11.799,13.989 11.619,14.643 11.62,15.31 C11.62,16.332 12.034,17.255 12.706,17.924 C14.024,19.238 16.115,19.364 17.582,18.219 C19.049,17.073 19.433,15.015 18.478,13.417 Z M8.69,5 C7.362,5 6.136,5.714 5.48,6.869 C4.825,8.024 4.841,9.443 5.522,10.583 C6.459,9.954 7.562,9.618 8.69,9.62 C9.862,9.62 10.953,9.975 11.858,10.583 C12.201,10.011 12.381,9.357 12.38,8.69 C12.382,7.709 11.991,6.767 11.294,6.076 C10.603,5.386 9.666,4.998 8.69,5 Z"/>
</svg>

