<svg xmlns="http://www.w3.org/2000/svg" width="24" height="24">
  <defs/>
  <path  d="M11,11.5 C8.833,10 5,6 9,3 C10.024,2.232 13,1.5 15.5,4 C16.453,4.953 16.135,5.899 14,7.5 C13.038,8.221 11.7,9.4 12.5,11 C14,8.834 18,5 21,9 C21.768,10.025 22.5,13 20,15.5 C19.047,16.453 18.101,16.135 16.5,14 C15.779,13.039 14.6,11.7 13,12.5 C15.167,14 19,18 15,21 C13.975,21.769 11,22.5 8.5,20 C7.547,19.047 7.865,18.102 10,16.5 C10.961,15.78 12.3,14.6 11.5,13 C10,15.167 6,19 3,15 C2.232,13.976 1.5,11 4,8.5 C4.953,7.547 5.899,7.865 7.5,10 C8.221,10.962 9.4,12.3 11,11.5"/>
</svg>

