<svg xmlns="http://www.w3.org/2000/svg" width="24" height="24">
  <defs/>
  <path  d="M18.141,7.577 A1.5 1.5 0 0 1 19.09,9.474 L18.563,11.056 A6.5 6.5 0 0 1 12.396,15.5 L9.854,15.5 A1.5 1.5 0 0 0 8.513,16.33 L6.342,20.67 A1.5 1.5 0 1 1 3.658,19.33 L5.829,14.988 A4.5 4.5 0 0 1 9.854,12.5 L12.396,12.5 A3.5 3.5 0 0 0 15.716,10.107 L16.244,8.526 A1.5 1.5 0 0 1 18.141,7.577 M7.946,3.715 L8.06,3.818 L10.18,5.939 A1.5 1.5 0 0 1 10.28,7.951 L10.18,8.061 L8.06,10.182 A1.5 1.5 0 0 1 5.835,8.175 L5.938,8.061 L6.998,7 L5.938,5.94 A1.5 1.5 0 0 1 7.824,3.626 Z M18.5,3 A1.5 1.5 0 1 1 18.5,6 A1.5 1.5 0 0 1 18.5,3"/>
</svg>

