<svg xmlns="http://www.w3.org/2000/svg" width="24" height="24">
  <defs/>
  <path  d="M18.141,7.577 A1.5 1.5 0 0 1 19.09,9.474 L18.563,11.056 A6.5 6.5 0 0 1 12.396,15.5 L9.854,15.5 A1.5 1.5 0 0 0 8.513,16.33 L6.342,20.67 A1.5 1.5 0 1 1 3.658,19.33 L5.829,14.988 A4.5 4.5 0 0 1 9.854,12.5 L12.396,12.5 A3.5 3.5 0 0 0 15.716,10.107 L16.244,8.526 A1.5 1.5 0 0 1 18.141,7.577 M11.182,4.818 A1.5 1.5 0 0 1 11.285,6.825 L11.182,6.939 L9.061,9.061 A1.5 1.5 0 0 1 7.049,9.161 L6.939,9.061 L4.819,6.939 A1.5 1.5 0 0 1 6.825,4.715 L6.939,4.818 L8,5.878 L9.06,4.818 A1.5 1.5 0 0 1 11.182,4.818 M18.5,3 A1.5 1.5 0 1 1 18.5,6 A1.5 1.5 0 0 1 18.5,3"/>
</svg>

