<svg xmlns="http://www.w3.org/2000/svg" width="24" height="24">
  <defs/>
  <path  d="M11.507,1.953 C12.775,1.961 14.178,2.464 15.507,3.793 C15.822,4.108 16.092,4.478 16.207,4.916 C16.322,5.351 16.261,5.813 16.038,6.203 C15.854,6.534 15.586,6.786 15.36,6.971 C14.828,7.407 14.195,7.719 13.707,8.207 C13.438,8.47 13.246,8.802 13.153,9.167 C13.89,8.408 14.821,7.677 15.842,7.234 C16.655,6.881 17.587,6.686 18.543,6.88 C19.519,7.077 20.399,7.654 21.127,8.624 C21.595,9.249 22.055,10.274 22.047,11.507 C22.039,12.775 21.537,14.178 20.207,15.507 C19.892,15.822 19.523,16.092 19.084,16.207 C18.649,16.322 18.187,16.261 17.797,16.038 C17.466,15.854 17.214,15.586 17.029,15.36 C16.594,14.828 16.281,14.195 15.793,13.707 C15.53,13.438 15.198,13.246 14.833,13.153 C15.592,13.89 16.323,14.821 16.766,15.842 C17.119,16.655 17.314,17.587 17.121,18.543 C16.923,19.519 16.346,20.399 15.376,21.127 C14.751,21.595 13.726,22.055 12.493,22.047 C11.226,22.039 9.822,21.537 8.493,20.207 C8.178,19.892 7.908,19.523 7.793,19.084 C7.678,18.649 7.739,18.187 7.963,17.797 C8.146,17.466 8.414,17.214 8.64,17.029 C9.172,16.594 9.805,16.281 10.293,15.793 C10.562,15.53 10.754,15.198 10.848,14.833 C10.11,15.592 9.178,16.323 8.158,16.766 C7.345,17.119 6.413,17.314 5.457,17.121 C4.481,16.923 3.601,16.346 2.873,15.376 C2.405,14.751 1.945,13.726 1.953,12.493 C1.961,11.226 2.464,9.822 3.793,8.493 C4.108,8.178 4.478,7.908 4.916,7.793 C5.351,7.678 5.813,7.739 6.203,7.963 C6.534,8.146 6.786,8.414 6.971,8.64 C7.407,9.172 7.719,9.805 8.207,10.293 C8.461,10.547 8.786,10.754 9.167,10.848 C8.408,10.11 7.677,9.178 7.234,8.158 C6.881,7.345 6.686,6.413 6.88,5.457 C7.077,4.481 7.654,3.601 8.624,2.873 C9.249,2.405 10.274,1.945 11.507,1.953 Z M14.097,11.107 C15.367,11.013 16.472,11.557 17.207,12.293 C17.747,12.833 18.097,13.508 18.577,14.093 C18.674,14.212 18.685,14.201 18.792,14.094 L18.793,14.093 C19.777,13.109 20.043,12.199 20.047,11.493 C20.052,10.755 19.77,10.148 19.527,9.824 C19.045,9.183 18.569,8.925 18.147,8.84 C17.706,8.75 17.199,8.825 16.637,9.069 C15.677,9.485 14.744,10.318 14.097,11.107 Z M11.107,9.903 C11.013,8.633 11.557,7.528 12.293,6.793 C12.69,6.396 13.163,6.078 13.517,5.837 C13.715,5.707 13.908,5.569 14.094,5.423 C14.212,5.326 14.201,5.315 14.093,5.207 C13.109,4.223 12.199,3.957 11.493,3.953 C10.896,3.947 10.312,4.129 9.824,4.473 C9.183,4.955 8.925,5.431 8.84,5.853 C8.75,6.294 8.825,6.801 9.069,7.363 C9.485,8.323 10.318,9.257 11.107,9.903 Z M9.903,12.893 C8.633,12.987 7.528,12.443 6.793,11.707 C6.407,11.321 6.095,10.863 5.857,10.513 C5.721,10.305 5.576,10.102 5.423,9.906 C5.326,9.788 5.315,9.799 5.207,9.907 C4.223,10.891 3.957,11.801 3.953,12.507 C3.947,13.104 4.129,13.688 4.473,14.176 C4.955,14.817 5.431,15.075 5.853,15.16 C6.294,15.25 6.801,15.175 7.363,14.931 C8.323,14.515 9.257,13.682 9.903,12.893 Z M12.893,14.097 C12.987,15.367 12.443,16.472 11.707,17.207 C11.321,17.593 10.863,17.905 10.513,18.143 C10.308,18.283 10.099,18.419 9.906,18.577 C9.788,18.674 9.799,18.685 9.907,18.793 C10.891,19.777 11.802,20.043 12.507,20.047 C13.104,20.053 13.688,19.871 14.176,19.527 C14.817,19.045 15.075,18.569 15.16,18.147 C15.25,17.706 15.175,17.199 14.931,16.637 C14.515,15.677 13.682,14.744 12.893,14.097 Z"/>
</svg>

