<svg xmlns="http://www.w3.org/2000/svg" width="24" height="24">
  <defs/>
  <path  d="M4.212,5.627 C4.915,5.951 6.525,6.739 8.575,8.021 C9.472,8.582 10.349,9.173 11.205,9.795 C11.264,8.361 11.366,7.3 11.429,6.741 C11.532,5.831 12.435,5.268 13.212,5.627 C13.915,5.951 15.525,6.739 17.575,8.021 C19.648,9.318 21.093,10.447 21.69,10.934 C22.334,11.459 22.318,12.505 21.648,13.051 C21.047,13.541 19.622,14.653 17.531,15.961 C15.44,17.269 13.838,18.051 13.146,18.369 C12.375,18.723 11.532,18.217 11.432,17.351 C11.368,16.788 11.26,15.676 11.201,14.161 C10.501,14.671 9.603,15.291 8.531,15.961 C6.44,17.269 4.838,18.051 4.146,18.369 C3.375,18.723 2.532,18.217 2.432,17.351 C2.34,16.55 2.16,14.636 2.16,12.032 C2.16,9.459 2.337,7.56 2.429,6.741 C2.532,5.831 3.435,5.268 4.212,5.627 Z M4.1,11.961 C4.098,13.336 4.153,14.71 4.265,16.08 C5.402,15.503 6.512,14.875 7.592,14.196 C8.68,13.518 9.737,12.792 10.759,12.018 C9.724,11.231 8.652,10.493 7.549,9.805 C6.201,8.961 5.054,8.343 4.257,7.941 C4.18,8.888 4.1,10.27 4.1,11.96 Z M13.102,12.371 C13.11,13.609 13.164,14.846 13.265,16.08 C14.402,15.503 15.512,14.875 16.592,14.196 C17.68,13.518 18.737,12.792 19.759,12.018 C18.724,11.231 17.652,10.493 16.549,9.805 C15.201,8.961 14.054,8.343 13.257,7.941 C13.161,9.141 13.11,10.345 13.102,11.549 C13.183,11.817 13.183,12.103 13.102,12.371 Z"/>
</svg>

