<svg xmlns="http://www.w3.org/2000/svg" width="24" height="24">
  <defs/>
  <path  d="M13.212,5.627 L13.568,5.795 L14.026,6.019 L14.579,6.302 L14.996,6.522 L15.689,6.902 L16.192,7.189 L16.725,7.502 L17.285,7.842 C17.381,7.9 17.477,7.96 17.575,8.021 L18.15,8.387 L18.69,8.74 L19.193,9.08 L19.659,9.404 L20.284,9.853 L20.651,10.123 L21.258,10.589 L21.69,10.934 C22.334,11.459 22.317,12.504 21.647,13.051 L21.34,13.298 L20.778,13.733 L20.048,14.273 L19.622,14.575 L19.157,14.898 L18.652,15.238 C18.564,15.297 18.475,15.356 18.386,15.414 L17.826,15.776 L17.531,15.961 L16.973,16.305 L16.441,16.623 L15.938,16.915 L15.464,17.182 L15.022,17.424 L14.423,17.741 L14.069,17.922 L13.357,18.27 L13.147,18.369 C12.375,18.723 11.531,18.217 11.432,17.351 L11.357,16.611 L11.289,15.777 L11.257,15.285 L11.227,14.745 L11.201,14.162 L10.705,14.517 L10.436,14.706 L9.856,15.102 L9.22,15.522 L8.531,15.962 L7.973,16.305 L7.186,16.772 L6.464,17.182 L6.022,17.424 L5.423,17.741 L5.069,17.922 L4.357,18.27 L4.147,18.369 C3.375,18.723 2.531,18.217 2.432,17.351 L2.378,16.834 L2.316,16.129 L2.255,15.249 L2.215,14.481 L2.192,13.921 L2.169,13.015 L2.161,12.368 L2.161,11.685 L2.169,11.018 L2.184,10.387 L2.218,9.512 L2.26,8.729 L2.324,7.838 L2.372,7.292 L2.416,6.859 L2.429,6.741 C2.532,5.831 3.435,5.268 4.212,5.627 L4.568,5.795 L5.026,6.019 L5.579,6.302 L5.996,6.522 L6.45,6.769 L6.937,7.043 L7.192,7.189 L7.725,7.502 L8.285,7.842 C8.821,8.172 9.351,8.512 9.873,8.863 L10.447,9.255 L10.967,9.623 L11.207,9.796 L11.234,9.204 L11.264,8.66 L11.316,7.94 L11.384,7.168 L11.429,6.741 C11.532,5.831 12.435,5.268 13.212,5.627 Z"/>
</svg>

