<svg xmlns="http://www.w3.org/2000/svg" width="24" height="24">
  <defs/>
  <path  d="M19.788,5.627 C20.565,5.268 21.468,5.831 21.571,6.741 L21.598,6.991 L21.66,7.644 L21.725,8.489 L21.769,9.24 L21.795,9.794 L21.815,10.387 L21.831,11.018 L21.839,11.685 L21.839,12.368 L21.831,13.015 L21.808,13.922 L21.786,14.482 L21.746,15.249 L21.684,16.129 L21.622,16.834 L21.568,17.351 C21.468,18.217 20.625,18.723 19.854,18.369 L19.246,18.079 L18.931,17.922 L18.386,17.642 L17.978,17.424 L17.536,17.182 L17.062,16.915 L16.559,16.623 L16.027,16.305 L15.469,15.961 L14.779,15.522 L14.144,15.102 L13.564,14.705 L13.039,14.335 L12.799,14.161 L12.759,15.021 L12.71,15.776 L12.643,16.611 L12.581,17.231 L12.568,17.351 C12.468,18.217 11.625,18.723 10.854,18.369 L10.246,18.079 L9.931,17.922 L9.386,17.642 L8.978,17.424 L8.536,17.182 L7.814,16.772 L7.296,16.467 C7.206,16.413 7.116,16.359 7.026,16.305 L6.469,15.961 L5.889,15.593 L5.614,15.414 L5.091,15.066 L4.606,14.735 L4.16,14.421 L3.566,13.991 L3.222,13.733 L2.66,13.298 L2.352,13.051 C1.682,12.505 1.666,11.459 2.31,10.934 L2.742,10.589 L3.349,10.124 L3.716,9.853 L4.123,9.559 L4.807,9.08 L5.31,8.74 L5.85,8.387 L6.425,8.021 L6.998,7.668 L7.275,7.502 L7.808,7.189 L8.311,6.903 L8.781,6.643 L9.217,6.409 L9.974,6.019 L10.563,5.732 L10.788,5.627 C11.565,5.268 12.468,5.831 12.571,6.741 L12.616,7.168 L12.667,7.726 L12.719,8.406 L12.767,9.203 L12.795,9.795 L13.287,9.442 C13.46,9.319 13.643,9.192 13.834,9.062 L14.433,8.659 C14.761,8.442 15.092,8.229 15.425,8.021 L15.998,7.668 L16.275,7.502 L16.808,7.189 L17.311,6.903 L17.781,6.643 L18.217,6.409 L18.974,6.019 L19.563,5.732 Z"/>
</svg>

