<svg xmlns="http://www.w3.org/2000/svg" width="24" height="24">
  <defs/>
  <path  d="M17.907,4.07 C19.092,3.78 20.314,4.388 20.797,5.509 C21.28,6.63 20.883,7.936 19.858,8.598 L19.952,9.188 C20.378,10.466 20.543,11.88 20.506,13.222 C20.463,14.77 20.06,16.587 18.642,17.768 C18.365,18 18.093,18.239 17.828,18.484 L17.353,18.933 L16.989,19.287 C16.612,19.655 16.234,20.024 15.829,20.362 C14.885,21.148 13.849,21.705 12.17,21.986 C12.058,22.005 11.944,22.005 11.832,21.986 C10.152,21.706 9.116,21.148 8.172,20.362 C7.904,20.135 7.644,19.899 7.392,19.654 L6.649,18.933 L6.174,18.483 C5.925,18.253 5.657,18.016 5.36,17.768 C3.942,16.587 3.539,14.77 3.496,13.222 C3.455,11.752 3.73,10.32 3.988,9.402 L4.051,9.184 L4.168,8.846 L4.284,8.536 L4.428,8.175 C4.719,7.473 5.155,6.58 5.719,5.875 C6.419,5 7.811,3.447 9.909,2.685 C12.043,1.909 14.739,2.01 17.907,4.071 Z M15.554,13.687 L15.524,13.8 C15.418,14.262 15.234,14.762 14.931,15.139 L14.797,15.287 L14.703,15.331 C14.468,15.403 14.141,15.273 13.927,15.159 L13.566,14.952 C13.216,14.759 12.773,14.557 12.236,14.51 L11.996,14.5 C11.342,14.5 10.824,14.731 10.423,14.956 L10.143,15.119 C9.9,15.265 9.477,15.471 9.203,15.289 C8.868,14.954 8.658,14.47 8.53,14.002 L8.48,13.802 C8.417,13.444 8.165,13.149 7.822,13.03 C7.479,12.912 7.098,12.989 6.828,13.231 C6.557,13.473 6.44,13.843 6.52,14.197 C6.707,15.124 7.118,16.032 7.793,16.707 C8.313,17.227 9.008,17.337 9.496,17.333 C9.992,17.329 10.511,17.208 10.882,17.003 L11.01,16.928 L11.14,16.847 C11.368,16.702 11.608,16.551 11.866,16.51 L12,16.5 C12.217,16.5 12.423,16.59 12.62,16.702 L12.854,16.843 C12.949,16.903 13.041,16.96 13.133,17.009 C13.495,17.203 14.007,17.324 14.501,17.33 C14.987,17.336 15.684,17.23 16.207,16.707 C16.881,16.033 17.292,15.127 17.483,14.201 C17.588,13.661 17.241,13.135 16.703,13.02 C16.206,12.919 15.713,13.206 15.554,13.687 Z M7.236,6.287 C6.699,6.157 6.159,6.487 6.029,7.023 C5.898,7.56 6.228,8.101 6.765,8.231 L7.268,8.349 L7.848,8.477 L8.161,8.541 L8.824,8.667 C9.848,8.851 10.99,9 12,9 C13.334,9 14.891,8.74 16.1,8.487 L16.722,8.352 C17.256,8.225 17.588,7.692 17.466,7.157 C17.344,6.622 16.814,6.285 16.278,6.402 C15.044,6.681 13.338,7 12,7 C10.792,7 9.293,6.742 8.115,6.488 L7.508,6.352 C7.417,6.331 7.327,6.309 7.236,6.287 Z M10,10 C9.448,10 9,10.448 9,11 C9,11.552 9.448,12 10,12 C10.552,12 11,11.552 11,11 C11,10.448 10.552,10 10,10 Z M14,10 C13.448,10 13,10.448 13,11 C13,11.552 13.448,12 14,12 C14.552,12 15,11.552 15,11 C15,10.448 14.552,10 14,10 Z M18.5,6 C18.224,6 18,6.224 18,6.5 C18,6.776 18.224,7 18.5,7 C18.776,7 19,6.776 19,6.5 C19,6.224 18.776,6 18.5,6 Z"/>
</svg>

