<svg xmlns="http://www.w3.org/2000/svg" width="24" height="24">
  <defs/>
  <path  d="M17.907,4.071 A2.5 2.5 0 0 1 19.859,8.599 L19.953,9.192 L20.049,9.527 L20.13,9.847 L20.222,10.257 L20.284,10.575 L20.314,10.745 L20.372,11.107 L20.398,11.297 L20.445,11.695 L20.465,11.902 L20.494,12.329 C20.509,12.619 20.514,12.918 20.506,13.222 C20.463,14.77 20.059,16.587 18.642,17.769 C18.245,18.099 17.901,18.412 17.585,18.712 L17.128,19.15 C16.705,19.564 16.284,19.983 15.828,20.362 C14.885,21.148 13.848,21.706 12.17,21.986 A0.984 0.984 0 0 1 11.832,21.986 C10.152,21.706 9.116,21.148 8.172,20.362 C7.945,20.172 7.726,19.973 7.511,19.769 L6.873,19.15 A25.51 25.51 0 0 0 5.36,17.77 C3.942,16.588 3.539,14.771 3.496,13.223 C3.46,11.963 3.658,10.731 3.877,9.827 L3.987,9.403 L4.051,9.185 L4.121,8.979 L4.283,8.538 L4.428,8.176 L4.511,7.981 L4.698,7.567 C4.966,7.002 5.308,6.389 5.719,5.877 C6.419,5.001 7.811,3.449 9.909,2.687 C12.043,1.91 14.739,2.011 17.907,4.072 Z M6.617,8.195 C6.437,8.551 6.285,8.908 6.167,9.21 L5.994,9.683 C5.979,9.726 5.965,9.766 5.954,9.802 C5.725,10.568 5.459,11.871 5.494,13.166 C5.532,14.497 5.878,15.597 6.64,16.232 C7.015,16.544 7.346,16.842 7.645,17.121 L8.07,17.526 L8.268,17.717 C8.655,18.095 9.037,18.48 9.453,18.826 C10.105,19.369 10.786,19.76 12.001,19.986 C13.215,19.76 13.896,19.369 14.548,18.826 C14.825,18.595 15.088,18.346 15.346,18.096 L15.931,17.526 L16.357,17.121 C16.656,16.841 16.987,16.544 17.361,16.232 C18.123,15.597 18.469,14.497 18.507,13.166 C18.543,11.868 18.275,10.562 18.047,9.797 A3.032 3.032 0 0 1 17.949,9.37 L17.885,8.924 A2.495 2.495 0 0 1 16.801,8.334 C15.23,8.695 13.616,9 12,9 C10.187,9 8.372,8.628 6.616,8.195 Z M16.703,12.02 C17.239,12.129 17.593,12.667 17.483,13.201 C17.293,14.126 16.881,15.033 16.207,15.707 C15.684,16.23 14.987,16.336 14.501,16.33 C14.007,16.324 13.495,16.203 13.133,16.009 L12.978,15.919 L12.658,15.724 A1.596 1.596 0 0 0 12.152,15.514 L12,15.5 C11.742,15.5 11.503,15.623 11.277,15.761 L11.011,15.927 A3.22 3.22 0 0 1 10.882,16.003 C10.511,16.208 9.992,16.329 9.496,16.333 C9.008,16.338 8.314,16.228 7.793,15.707 C7.118,15.032 6.707,14.124 6.52,13.197 A1 1 0 0 1 8.45,12.689 L8.48,12.802 C8.6,13.329 8.82,13.906 9.207,14.292 C9.447,14.452 9.807,14.306 10.056,14.169 L10.423,13.956 C10.773,13.759 11.214,13.558 11.757,13.51 L11.997,13.5 C12.643,13.5 13.166,13.732 13.566,13.952 L13.842,14.112 C14.046,14.232 14.434,14.413 14.703,14.332 L14.798,14.287 L14.931,14.139 C15.191,13.815 15.363,13.402 15.474,12.999 L15.524,12.799 A1 1 0 0 1 16.704,12.019 Z M10,10 A1 1 0 1 1 10,12 A1 1 0 0 1 10,10 M14,10 A1 1 0 1 1 14,12 A1 1 0 0 1 14,10 M10.592,4.565 C9.434,4.986 8.527,5.748 7.877,6.437 C9.227,6.737 10.613,7 12,7 C13.233,7 14.794,6.728 16,6.464 C16.006,6.084 16.096,5.723 16.254,5.401 C13.826,3.996 11.964,4.066 10.592,4.565 M18.5,6 A0.5 0.5 0 1 0 18.5,7 A0.5 0.5 0 0 0 18.5,6"/>
</svg>

