<svg xmlns="http://www.w3.org/2000/svg" width="24" height="24">
  <defs/>
  <path  d="M6.795,3.71 C7.377,3.244 8.212,3.277 8.756,3.787 C10.159,5.101 11.521,6.458 12.84,7.855 C13.842,6.645 14.814,5.411 15.755,4.153 C16.346,3.363 17.533,3.343 18.145,4.129 L19.96,6.464 C20.4,7.03 20.381,7.836 19.898,8.379 C18.801,9.605 17.652,10.785 16.455,11.914 C17.65,13.337 18.803,14.794 19.914,16.284 C20.429,16.975 20.254,17.952 19.543,18.426 L18.212,19.314 C17.601,19.721 16.785,19.626 16.283,19.09 C15.083,17.81 13.848,16.564 12.577,15.354 C10.883,16.774 9.147,18.146 7.405,19.51 C7.066,19.775 6.63,19.881 6.208,19.803 C5.785,19.725 5.416,19.469 5.195,19.1 L4.633,18.166 C4.269,17.559 4.378,16.78 4.895,16.297 C6.321,14.962 7.703,13.583 9.041,12.16 C7.453,10.799 5.82,9.492 4.145,8.24 C3.772,7.962 3.55,7.526 3.542,7.061 C3.534,6.596 3.742,6.154 4.105,5.863 Z M7.705,5.544 L5.855,7.024 C7.529,8.292 9.161,9.615 10.748,10.99 C11.388,11.545 11.44,12.519 10.863,13.139 C9.475,14.633 8.038,16.081 6.555,17.481 L6.618,17.586 C8.321,16.249 9.998,14.916 11.628,13.539 C12.21,13.047 13.069,13.07 13.624,13.592 C14.937,14.83 16.214,16.105 17.454,17.416 L17.992,17.056 C16.91,15.622 15.788,14.218 14.626,12.848 C14.107,12.236 14.16,11.324 14.746,10.776 C15.919,9.684 17.046,8.545 18.124,7.36 L16.965,5.87 C16.011,7.129 15.026,8.364 14.011,9.575 C13.734,9.904 13.33,10.099 12.9,10.109 C12.47,10.12 12.057,9.946 11.764,9.631 C10.454,8.227 9.1,6.864 7.705,5.544 Z"/>
</svg>

