<svg xmlns="http://www.w3.org/2000/svg" width="24" height="24">
  <defs/>
  <path  d="M6.796,3.71 C7.378,3.245 8.213,3.278 8.756,3.787 C10.159,5.101 11.521,6.458 12.84,7.855 C13.842,6.645 14.814,5.411 15.755,4.153 C16.346,3.363 17.533,3.343 18.145,4.129 L19.96,6.464 C20.4,7.03 20.381,7.836 19.898,8.379 C18.801,9.605 17.652,10.785 16.455,11.914 C17.65,13.337 18.803,14.794 19.914,16.284 C20.429,16.975 20.254,17.952 19.543,18.426 L18.212,19.314 C17.601,19.721 16.785,19.626 16.283,19.09 C15.083,17.81 13.848,16.564 12.577,15.354 C10.883,16.774 9.147,18.146 7.405,19.51 C7.066,19.775 6.63,19.881 6.208,19.803 C5.785,19.725 5.416,19.469 5.195,19.1 L4.633,18.166 C4.269,17.559 4.378,16.78 4.895,16.297 C6.321,14.962 7.703,13.583 9.041,12.16 C7.453,10.799 5.82,9.492 4.145,8.24 C3.772,7.962 3.55,7.526 3.542,7.061 C3.534,6.596 3.742,6.154 4.105,5.863 Z"/>
</svg>

