<svg xmlns="http://www.w3.org/2000/svg" width="24" height="24">
  <defs/>
  <path  d="M7,3 C7.721,3 8.387,3.388 8.742,4.016 C8.826,4.007 8.912,4 9,4 L19,4 C20.105,4 21,4.895 21,6 L21,19 C21,20.105 20.105,21 19,21 L9,21 C8.649,21 8.304,20.908 8,20.732 C7.696,20.908 7.351,21 7,21 L5,21 C3.895,21 3,20.105 3,19 L3,5 C3,3.895 3.895,3 5,3 Z M19,6 L9,6 L9,19 L19,19 Z M16.5,7 C17.273,7 17.919,7.587 17.993,8.356 L18,8.5 L18,10.5 C18,11.273 17.413,11.919 16.644,11.993 L16.5,12 L11.5,12 C10.727,12 10.081,11.413 10.007,10.644 L10,10.5 L10,8.5 C10,7.727 10.587,7.081 11.356,7.007 L11.5,7 Z M7,5 L5,5 L5,19 L7,19 Z M16,9 L12,9 L12,10 L16,10 Z M12,13 C12.507,13 12.934,13.38 12.993,13.883 L13,14.01 C12.999,14.539 12.587,14.976 12.059,15.007 C11.53,15.038 11.069,14.652 11.007,14.127 L11,14 C11,13.448 11.448,13 12,13 Z M16,13 C16.507,13 16.934,13.38 16.993,13.883 L17,14.01 C16.999,14.539 16.587,14.976 16.059,15.007 C15.53,15.038 15.069,14.652 15.007,14.127 L15,14 C15,13.448 15.448,13 16,13 Z M12,16 C12.507,16 12.934,16.38 12.993,16.883 L13,17.01 C12.999,17.539 12.587,17.976 12.059,18.007 C11.53,18.038 11.069,17.652 11.007,17.127 L11,17 C11,16.448 11.448,16 12,16 Z M16,16 C16.507,16 16.934,16.38 16.993,16.883 L17,17.01 C16.999,17.539 16.587,17.976 16.059,18.007 C15.53,18.038 15.069,17.652 15.007,17.127 L15,17 C15,16.448 15.448,16 16,16 Z"/>
</svg>

