<svg xmlns="http://www.w3.org/2000/svg" width="24" height="24">
  <defs/>
  <path  d="M5,3 A2 2 0 0 0 3,5 L3,19 A2 2 0 0 0 5,21 L6,21 A2 2 0 0 0 8,19 L8,5 A2 2 0 0 0 6,3 Z M19,4 A2 2 0 0 1 21,6 L21,19 A2 2 0 0 1 19,21 L9,21 L9,4 Z M13,16 A1 1 0 0 0 12.007,16.883 L12,17.01 A1 1 0 0 0 13.993,17.127 L14,17 A1 1 0 0 0 13,16 M17,16 A1 1 0 0 0 16.007,16.883 L16,17.01 A1 1 0 0 0 17.993,17.127 L18,17 A1 1 0 0 0 17,16 M13,13 A1 1 0 0 0 12.007,13.883 L12,14.01 A1 1 0 0 0 13.993,14.127 L14,14 A1 1 0 0 0 13,13 M17,13 A1 1 0 0 0 16.007,13.883 L16,14.01 A1 1 0 0 0 17.993,14.127 L18,14 A1 1 0 0 0 17,13 M17.5,7 L12.5,7 A1.5 1.5 0 0 0 11.007,8.356 L11,8.5 L11,10.5 A1.5 1.5 0 0 0 12.356,11.993 L12.5,12 L17.5,12 A1.5 1.5 0 0 0 18.993,10.644 L19,10.5 L19,8.5 A1.5 1.5 0 0 0 17.644,7.007 Z M17,9 L17,10 L13,10 L13,9 Z"/>
</svg>

