<svg xmlns="http://www.w3.org/2000/svg" width="24" height="24">
  <defs/>
  <path  d="M13.179,1.971 C14.352,2.558 14.915,3.917 14.5,5.161 L14.265,5.867 L14.351,5.897 C15.861,6.4 17.109,7.482 17.821,8.905 L17.894,9.053 C18.104,9.474 17.993,9.984 17.627,10.279 C18.169,11.03 18.394,12.016 18.169,12.962 C17.956,13.861 17.799,14.779 17.799,15.5 C17.799,16.22 17.956,17.139 18.169,18.038 C18.62,19.94 17.257,22 15.151,22 L8.85,22 C6.744,22 5.38,19.94 5.831,18.038 C6.044,17.138 6.201,16.221 6.201,15.5 C6.201,14.779 6.044,13.86 5.831,12.962 C5.607,12.016 5.831,11.03 6.373,10.279 C6.007,9.984 5.896,9.474 6.106,9.053 L6.18,8.905 C6.848,7.568 7.992,6.529 9.386,5.991 L9.736,5.867 L9.501,5.162 C9.164,4.151 9.469,3.037 10.274,2.338 C11.079,1.64 12.226,1.496 13.179,1.972 Z M12.285,3.76 C12.072,3.654 11.817,3.675 11.625,3.816 C11.433,3.957 11.336,4.193 11.373,4.428 L11.398,4.529 L11.791,5.709 C12.035,6.442 11.684,7.24 10.978,7.554 L10.843,7.607 L10.282,7.794 C9.579,8.028 8.955,8.454 8.479,9.022 L8.662,9.005 L8.85,9 L15.152,9 C15.278,9 15.402,9.007 15.522,9.022 C15.101,8.518 14.561,8.125 13.952,7.879 L13.72,7.794 L13.159,7.607 C12.426,7.363 11.998,6.601 12.171,5.848 L12.211,5.709 L12.604,4.529 C12.704,4.229 12.568,3.901 12.285,3.76 Z M11,13 L7.89,13 C8.028,13.65 8.143,14.345 8.184,15 L11,15 C11.552,15 12,14.552 12,14 C12,13.448 11.552,13 11,13 Z M8.184,16 C8.134,16.671 8.036,17.337 7.891,17.994 L7.946,17.998 L11,18 C11.552,18 12,17.552 12,17 C12,16.448 11.552,16 11,16 L8.184,16 Z"/>
</svg>

