<svg xmlns="http://www.w3.org/2000/svg" width="24" height="24">
  <defs/>
  <path  d="M6.373,10.279 C5.923,9.918 5.945,9.373 6.179,8.905 C6.891,7.481 8.139,6.399 9.649,5.896 L9.735,5.867 L9.5,5.162 C9.138,4.074 9.52,2.877 10.446,2.201 C11.372,1.525 12.628,1.525 13.554,2.201 C14.48,2.877 14.862,4.074 14.5,5.162 L14.265,5.867 L14.351,5.897 C15.861,6.4 17.109,7.482 17.821,8.905 C18.054,9.373 18.076,9.918 17.627,10.279 C18.169,11.03 18.394,12.016 18.169,12.962 C17.956,13.861 17.799,14.779 17.799,15.5 C17.799,16.22 17.956,17.139 18.169,18.038 C18.62,19.94 17.257,22 15.151,22 L8.85,22 C6.744,22 5.38,19.94 5.831,18.038 C6.044,17.138 6.201,16.221 6.201,15.5 C6.201,14.779 6.044,13.86 5.831,12.962 C5.607,12.016 5.831,11.03 6.373,10.279 Z M7.775,12.502 L7.776,12.5 C7.815,12.663 7.853,12.83 7.889,13 L11,13 C11.552,13 12,13.448 12,14 C12,14.552 11.552,15 11,15 L8.183,15 C8.204,15.333 8.204,15.667 8.183,16 L11.001,16 C11.553,16 12.001,16.448 12.001,17 C12.001,17.552 11.553,18 11.001,18 L8.001,18 C7.964,18 7.927,17.998 7.891,17.994 C7.855,18.166 7.817,18.335 7.777,18.499 C7.589,19.294 8.184,19.999 8.85,19.999 L15.152,19.999 C15.818,19.999 16.413,19.294 16.224,18.499 C16,17.553 15.801,16.455 15.801,15.5 C15.801,14.544 16,13.447 16.224,12.5 C16.412,11.706 15.818,11 15.152,11 L8.85,11 C8.183,11 7.588,11.706 7.775,12.502 Z M11.716,3.759 L11.715,3.76 C11.432,3.901 11.296,4.229 11.396,4.529 L11.79,5.709 C11.916,6.087 11.887,6.499 11.708,6.855 C11.53,7.211 11.218,7.481 10.84,7.607 L10.28,7.794 C9.577,8.028 8.953,8.454 8.477,9.022 C8.598,9.007 8.721,9 8.848,9 L15.152,9 C15.276,9 15.399,9.007 15.522,9.022 C15.046,8.453 14.422,8.028 13.718,7.794 L13.158,7.607 C12.372,7.345 11.947,6.495 12.209,5.709 L12.603,4.529 C12.684,4.285 12.61,4.016 12.416,3.848 C12.222,3.68 11.946,3.644 11.716,3.759 Z"/>
</svg>

