<svg xmlns="http://www.w3.org/2000/svg" width="24" height="24">
  <defs/>
  <path  d="M7,9.5 C7,6.015 9.401,2.989 12.795,2.197 C16.189,1.405 19.681,3.055 21.225,6.18 C22.768,9.305 21.955,13.081 19.263,15.294 C16.572,17.507 12.71,17.575 9.942,15.457 L8.154,17.244 L9.58,18.67 C9.84,18.921 9.944,19.293 9.853,19.643 C9.761,19.992 9.488,20.265 9.139,20.357 C8.789,20.448 8.417,20.344 8.166,20.084 L6.74,18.659 L4.62,20.779 C4.229,21.169 3.596,21.169 3.206,20.778 C2.815,20.388 2.815,19.754 3.206,19.364 L5.326,17.244 L3.923,15.841 C3.663,15.59 3.559,15.218 3.65,14.868 C3.742,14.519 4.015,14.246 4.364,14.154 C4.714,14.063 5.086,14.167 5.337,14.427 L6.74,15.83 L8.53,14.04 C7.535,12.736 6.997,11.14 7,9.5 Z M14.5,4 C11.462,4 9,6.462 9,9.5 C9,12.538 11.462,15 14.5,15 C17.538,15 20,12.538 20,9.5 C20,6.462 17.538,4 14.5,4 Z"/>
</svg>

