<svg xmlns="http://www.w3.org/2000/svg" width="24" height="24">
  <defs/>
  <path  d="M12,2 C12.908,2 13.768,2.411 14.338,3.119 C14.907,3.827 15.125,4.755 14.931,5.642 C15.321,5.822 15.693,6.037 16.041,6.283 C16.948,5.457 18.267,5.268 19.37,5.803 C20.474,6.339 21.14,7.493 21.052,8.717 C20.964,9.94 20.141,10.987 18.972,11.36 C19.011,11.786 19.011,12.214 18.972,12.64 C20.141,13.012 20.966,14.059 21.054,15.283 C21.142,16.507 20.476,17.661 19.372,18.197 C18.268,18.733 16.949,18.543 16.042,17.717 C15.85,17.852 15.653,17.977 15.45,18.093 L15.14,18.258 L15.949,20.684 C16.114,21.186 15.861,21.73 15.37,21.926 C14.879,22.122 14.321,21.902 14.095,21.424 L14.051,21.316 L13.243,18.89 C12.523,19.019 11.787,19.035 11.062,18.938 L10.757,18.89 L9.949,21.316 C9.782,21.82 9.251,22.106 8.739,21.968 C8.227,21.83 7.912,21.315 8.021,20.796 L8.051,20.684 L8.86,18.258 C8.547,18.101 8.246,17.92 7.96,17.718 C7.053,18.544 5.734,18.734 4.63,18.198 C3.526,17.662 2.86,16.508 2.948,15.284 C3.036,14.06 3.861,13.013 5.03,12.641 C4.991,12.215 4.991,11.786 5.029,11.36 C3.86,10.987 3.037,9.94 2.949,8.717 C2.861,7.493 3.527,6.339 4.631,5.803 C5.734,5.268 7.053,5.457 7.96,6.283 C8.309,6.036 8.68,5.821 9.069,5.642 C8.875,4.755 9.093,3.827 9.662,3.119 C10.232,2.411 11.092,2 12,2 Z M13.856,7.356 C13.328,7.774 12.674,8.001 12,8 C11.299,8 10.654,7.76 10.143,7.356 C9.696,7.536 9.28,7.777 8.907,8.071 C9.004,8.737 8.874,9.417 8.536,10 C8.2,10.584 7.677,11.037 7.051,11.286 C6.983,11.76 6.983,12.24 7.051,12.714 C8.34,13.227 9.108,14.558 8.907,15.93 C9.095,16.077 9.294,16.212 9.502,16.332 L11.052,11.684 C11.188,11.276 11.57,11.001 12,11.001 C12.431,11.001 12.813,11.276 12.949,11.684 L14.499,16.332 C14.706,16.212 14.905,16.077 15.093,15.929 C14.995,15.263 15.126,14.583 15.463,14 C15.799,13.416 16.323,12.963 16.95,12.714 C17.018,12.24 17.018,11.76 16.95,11.286 C16.323,11.037 15.799,10.584 15.463,10 C15.125,9.417 14.995,8.737 15.092,8.071 C14.716,7.775 14.3,7.534 13.856,7.356 Z M12,4 C11.448,4 11,4.448 11,5 C11,5.552 11.448,6 12,6 C12.552,6 13,5.552 13,5 C13,4.448 12.552,4 12,4 Z M17.196,15 C17.015,15.31 17.013,15.693 17.192,16.004 C17.37,16.315 17.702,16.507 18.061,16.506 C18.42,16.505 18.751,16.312 18.928,16 C19.2,15.522 19.035,14.915 18.559,14.64 C18.083,14.365 17.474,14.526 17.196,15 Z M17.563,7.634 C17.251,7.811 17.058,8.142 17.057,8.501 C17.056,8.86 17.248,9.192 17.559,9.37 C17.87,9.549 18.253,9.547 18.563,9.366 C19.037,9.088 19.198,8.479 18.923,8.003 C18.648,7.527 18.041,7.362 17.563,7.634 Z M5.073,8 C4.892,8.31 4.89,8.693 5.069,9.004 C5.247,9.315 5.579,9.507 5.938,9.506 C6.297,9.505 6.628,9.312 6.805,9 C7.077,8.522 6.912,7.915 6.436,7.64 C5.96,7.365 5.351,7.526 5.073,8 Z M6.804,15 C6.627,14.688 6.296,14.495 5.937,14.494 C5.578,14.493 5.246,14.685 5.068,14.996 C4.889,15.307 4.891,15.69 5.072,16 C5.35,16.474 5.959,16.635 6.435,16.36 C6.911,16.085 7.076,15.478 6.804,15 Z M12,15.162 L11.4,16.965 C11.799,17.013 12.201,17.013 12.6,16.965 Z"/>
</svg>

