<svg xmlns="http://www.w3.org/2000/svg" width="24" height="24">
  <defs/>
  <path  d="M15,2 C16.664,2 18.154,3.03 18.742,4.586 C19.33,6.142 18.894,7.9 17.646,9 C19.19,10.359 19.452,12.667 18.252,14.337 C17.052,16.008 14.78,16.495 13,15.465 L13,18 C13,19.841 11.743,21.445 9.954,21.884 C8.166,22.324 6.309,21.485 5.455,19.853 C4.602,18.222 4.973,16.218 6.354,15 C5.492,14.241 4.999,13.148 5,12 C4.999,10.852 5.492,9.759 6.354,9 C5.106,7.9 4.67,6.142 5.258,4.586 C5.846,3.03 7.336,2 9,2 Z M15,4 L13,4 L13,8 L15,8 C16.079,8.005 16.967,7.153 17.008,6.075 C17.048,4.997 16.226,4.081 15.15,4.005 Z M11,4 L9,4 C7.895,4 7,4.895 7,6 C7,7.105 7.895,8 9,8 L11,8 Z M11,10 L9,10 C7.895,10 7,10.895 7,12 C7,13.105 7.895,14 9,14 L11,14 Z M11,16 L9,16 C7.895,16 7,16.895 7,18 C7,19.105 7.895,20 9,20 C10.105,20 11,19.105 11,18 Z M15,10 C13.895,10 13,10.895 13,12 C13,13.105 13.895,14 15,14 C16.105,14 17,13.105 17,12 C17,10.895 16.105,10 15,10 Z"/>
</svg>

