<svg xmlns="http://www.w3.org/2000/svg" width="24" height="24">
  <defs/>
  <path  d="M12,2 L12,8.5 C12,9.328 12.672,10 13.5,10 L20,10 L20,20 C20,21.105 19.105,22 18,22 L6,22 C4.895,22 4,21.105 4,20 L4,4 C4,2.895 4.895,2 6,2 Z M14,2.043 C14.379,2.123 14.726,2.312 15,2.586 L19.414,7 C19.688,7.274 19.877,7.621 19.957,8 L14,8 Z M11.99,15 L11,15 C10.448,15 10,15.448 10,16 C10,16.552 10.448,17 11,17 L11,17.99 C11,18.548 11.452,19 12.01,19 L12.5,19 C12.953,19 13.349,18.696 13.466,18.259 C13.583,17.822 13.392,17.36 13,17.134 L13,16.01 C13,15.452 12.548,15 11.99,15 Z M12,12 C11.448,12 11,12.448 11,13 C11,13.552 11.448,14 12,14 C12.552,14 13,13.552 13,13 C13,12.448 12.552,12 12,12 Z"/>
</svg>

