<svg xmlns="http://www.w3.org/2000/svg" width="24" height="24">
  <defs/>
  <path  d="M13.586,2 A2 2 0 0 1 14.87,2.467 L15,2.586 L19.414,7 A2 2 0 0 1 19.992,8.238 L20,8.414 L20,20 A2 2 0 0 1 18.15,21.995 L18,22 L6,22 A2 2 0 0 1 4.005,20.15 L4,20 L4,4 A2 2 0 0 1 5.85,2.005 L6,2 Z M12,4 L6,4 L6,20 L18,20 L18,10 L13.5,10 A1.5 1.5 0 0 1 12,8.5 Z M12,11.5 A1 1 0 0 1 13,12.5 L13,14 L14.5,14 A1 1 0 1 1 14.5,16 L13,16 L13,17.5 A1 1 0 1 1 11,17.5 L11,16 L9.5,16 A1 1 0 1 1 9.5,14 L11,14 L11,12.5 A1 1 0 0 1 12,11.5 M14,4.414 L14,8 L17.586,8 Z"/>
</svg>

