<svg xmlns="http://www.w3.org/2000/svg" width="24" height="24">
  <defs/>
  <path  d="M13.586,2 A2 2 0 0 1 14.87,2.467 L15,2.586 L19.414,7 A2 2 0 0 1 19.992,8.238 L20,8.414 L20,20 A2 2 0 0 1 18.15,21.995 L18,22 L6,22 A2 2 0 0 1 4.005,20.15 L4,20 L4,4 A2 2 0 0 1 5.85,2.005 L6,2 Z M12,4 L6,4 L6,20 L18,20 L18,10 L13.5,10 A1.5 1.5 0 0 1 12,8.5 Z M11.293,11.173 A1 1 0 0 1 12.613,11.09 L12.707,11.173 L14.828,13.294 A1 1 0 0 1 13.508,14.792 L13.414,14.708 L13,14.294 L13,17 A1 1 0 0 1 11.007,17.117 L11,17 L11,14.294 L10.586,14.708 A1 1 0 0 1 9.088,13.388 L9.172,13.294 Z M14,4.414 L14,8 L17.586,8 Z"/>
</svg>

