<svg xmlns="http://www.w3.org/2000/svg" width="24" height="24">
  <defs/>
  <path  d="M13.586,2 C14.116,2 14.625,2.211 15,2.586 L19.414,7 C19.789,7.375 20,7.884 20,8.414 L20,20 C20,21.105 19.105,22 18,22 L6,22 C4.895,22 4,21.105 4,20 L4,4 C4,2.895 4.895,2 6,2 Z M12,4 L6,4 L6,20 L18,20 L18,10 L13.5,10 C12.672,10 12,9.328 12,8.5 Z M12,12 C13.03,12 13.989,12.528 14.538,13.399 C15.088,14.271 15.152,15.363 14.708,16.293 L15.414,17 C15.674,17.251 15.778,17.623 15.687,17.973 C15.595,18.322 15.322,18.595 14.973,18.687 C14.623,18.778 14.251,18.674 14,18.414 L13.293,17.708 C12.181,18.238 10.857,18.035 9.956,17.194 C9.055,16.354 8.759,15.048 9.21,13.902 C9.661,12.755 10.768,12.001 12,12 Z M14,4.414 L14,8 L17.586,8 Z M12,14 C11.448,14 11,14.448 11,15 C11,15.552 11.448,16 12,16 C12.552,16 13,15.552 13,15 C13,14.448 12.552,14 12,14 Z"/>
</svg>

