<svg xmlns="http://www.w3.org/2000/svg" width="24" height="24">
  <defs/>
  <path  d="M13.586,2 C14.056,2 14.51,2.165 14.87,2.467 L15,2.586 L19.414,7 C19.746,7.332 19.951,7.77 19.992,8.238 L20,8.414 L20,20 C20,21.047 19.194,21.917 18.15,21.995 L18,22 L12,22 L12,20 L18,20 L18,10 L13.5,10 C12.727,10 12.081,9.413 12.007,8.644 L12,8.5 L12,4 L6,4 L6,12 L4,12 L4,4 C4,2.953 4.806,2.083 5.85,2.005 L6,2 Z M7.707,14.465 L10.536,17.293 C10.926,17.684 10.926,18.316 10.536,18.707 L7.707,21.535 C7.456,21.795 7.084,21.899 6.734,21.808 C6.385,21.716 6.112,21.443 6.02,21.094 C5.929,20.744 6.033,20.372 6.293,20.121 L7.414,19 L3,19 C2.448,19 2,18.552 2,18 C2,17.448 2.448,17 3,17 L7.414,17 L6.293,15.879 C5.902,15.489 5.902,14.855 6.293,14.465 C6.683,14.074 7.316,14.074 7.707,14.464 Z M14,4.414 L14,8 L17.586,8 Z"/>
</svg>

