<svg xmlns="http://www.w3.org/2000/svg" width="24" height="24">
  <defs/>
  <path  d="M12,2 L12,8.5 C12,9.328 12.672,10 13.5,10 L20,10 L20,20 C20,21.105 19.105,22 18,22 L6,22 C4.895,22 4,21.105 4,20 L4,4 C4,2.895 4.895,2 6,2 Z M14,2.043 C14.379,2.123 14.726,2.312 15,2.586 L19.414,7 C19.688,7.274 19.877,7.621 19.957,8 L14,8 Z M12,12 C10.619,12 9.5,13.119 9.5,14.5 C9.5,15.052 9.948,15.5 10.5,15.5 C11.052,15.5 11.5,15.052 11.5,14.5 C11.5,14.266 11.662,14.064 11.89,14.012 C12.118,13.961 12.351,14.074 12.451,14.285 C12.552,14.496 12.493,14.749 12.309,14.893 C12.089,15.066 11.779,15.317 11.525,15.63 C11.351,15.844 11.141,16.224 11.141,16.578 C11.141,16.932 11.375,17.422 12,17.422 C12.402,17.422 12.847,17.048 13.254,16.705 C13.354,16.621 13.452,16.539 13.546,16.465 C14.384,15.806 14.711,14.689 14.363,13.682 C14.014,12.675 13.066,12 12,12 Z M12,18 C11.448,18 11,18.448 11,19 C11,19.552 11.448,20 12,20 C12.552,20 13,19.552 13,19 C13,18.448 12.552,18 12,18 Z"/>
</svg>

