<svg xmlns="http://www.w3.org/2000/svg" width="24" height="24">
  <defs/>
  <path  d="M13.586,2 C14.056,2 14.51,2.165 14.87,2.467 L15,2.586 L19.414,7 C19.746,7.332 19.951,7.77 19.992,8.238 L20,8.414 L20,12 L18,12 L18,10 L13.5,10 C12.727,10 12.081,9.413 12.007,8.644 L12,8.5 L12,4 L6,4 L6,20 L11,20 L11,22 L6,22 C4.953,22 4.083,21.194 4.005,20.15 L4,20 L4,4 C4,2.953 4.806,2.083 5.85,2.005 L6,2 Z M16.5,13 C18.985,13 21,15.015 21,17.5 C21,19.985 18.985,22 16.5,22 C14.015,22 12,19.985 12,17.5 C12,15.015 14.015,13 16.5,13 Z M14,4.414 L14,8 L17.586,8 Z M14.172,16.586 C13.808,17.512 14.028,18.565 14.731,19.268 C15.434,19.971 16.487,20.191 17.413,19.827 Z M16.5,15 C16.178,15 15.87,15.061 15.586,15.172 L18.828,18.414 C19.13,17.644 19.032,16.775 18.567,16.092 C18.101,15.408 17.327,15 16.5,15 Z"/>
</svg>

