<svg xmlns="http://www.w3.org/2000/svg" width="24" height="24">
  <defs/>
  <path  d="M12,2 L12,8.5 C12,9.273 12.587,9.919 13.356,9.993 L13.5,10 L20,10 L20,20 C20,21.047 19.194,21.917 18.15,21.995 L18,22 L6,22 C4.953,22 4.083,21.194 4.005,20.15 L4,20 L4,4 C4,2.953 4.806,2.083 5.85,2.005 L6,2 Z M14.449,11.684 C14.289,11.203 13.794,10.918 13.297,11.021 L13.184,11.051 L12.026,11.437 C11.461,11.625 11.06,12.13 11.006,12.723 L11,12.86 L11,14 C9.915,14 9.028,14.866 9.001,15.95 C8.974,17.035 9.817,17.943 10.901,17.998 C11.984,18.052 12.914,17.232 12.995,16.15 L13,16 L13,13.22 L13.816,12.949 C14.34,12.775 14.624,12.208 14.449,11.684 Z M14,2.044 C14.323,2.113 14.625,2.26 14.877,2.474 L15,2.586 L19.414,7 C19.648,7.234 19.821,7.523 19.916,7.84 L19.956,8 L14,8 Z"/>
</svg>

