<svg xmlns="http://www.w3.org/2000/svg" width="24" height="24">
  <defs/>
  <path  d="M12,2 L12,8.5 C12,9.273 12.587,9.919 13.356,9.993 L13.5,10 L20,10 L20,20 C20,21.047 19.194,21.917 18.15,21.995 L18,22 L6,22 C4.953,22 4.083,21.194 4.005,20.15 L4,20 L4,4 C4,2.953 4.806,2.083 5.85,2.005 L6,2 Z M11.293,11.173 L9.172,13.294 C8.912,13.545 8.808,13.917 8.899,14.267 C8.991,14.616 9.264,14.889 9.613,14.981 C9.963,15.072 10.335,14.968 10.586,14.708 L11,14.294 L11,17 C11,17.552 11.448,18 12,18 C12.552,18 13,17.552 13,17 L13,14.294 L13.414,14.708 C13.665,14.968 14.037,15.072 14.387,14.981 C14.736,14.889 15.009,14.616 15.101,14.267 C15.192,13.917 15.088,13.545 14.828,13.294 L12.708,11.173 C12.52,10.985 12.266,10.88 12,10.88 C11.735,10.88 11.481,10.985 11.293,11.173 Z M14,2.043 C14.323,2.112 14.625,2.259 14.877,2.473 L15,2.586 L19.414,7 C19.648,7.234 19.821,7.523 19.916,7.84 L19.956,8 L14,8 Z"/>
</svg>

