<svg xmlns="http://www.w3.org/2000/svg" width="24" height="24">
  <defs/>
  <path  d="M13.586,2 C14.116,2 14.625,2.211 15,2.586 L19.414,7 C19.789,7.375 20,7.884 20,8.414 L20,20 C20,21.105 19.105,22 18,22 L13,22 C12.448,22 12,21.552 12,21 C12,20.448 12.448,20 13,20 L18,20 L18,10 L13.5,10 C12.672,10 12,9.328 12,8.5 L12,4 L6,4 L6,8 C6,8.552 5.552,9 5,9 C4.448,9 4,8.552 4,8 L4,4 C4,2.895 4.895,2 6,2 Z M7,10 C8.572,10 9.999,10.921 10.646,12.354 C11.293,13.787 11.04,15.467 10,16.646 L10,20.838 C10,21.219 9.803,21.573 9.478,21.774 C9.154,21.974 8.749,21.993 8.408,21.822 L7,21.118 L5.592,21.822 C5.251,21.993 4.846,21.974 4.522,21.774 C4.197,21.573 4,21.219 4,20.838 L4,16.646 C2.96,15.467 2.707,13.787 3.354,12.354 C4.001,10.921 5.428,10 7,10 Z M7,12 C5.895,12 5,12.895 5,14 C5,15.105 5.895,16 7,16 C8.105,16 9,15.105 9,14 C9,12.895 8.105,12 7,12 Z M14,4.414 L14,8 L17.586,8 Z M8,17.874 C7.344,18.043 6.656,18.043 6,17.874 L6,19.382 L6.553,19.106 C6.834,18.965 7.166,18.965 7.447,19.106 L8,19.382 Z"/>
</svg>

