<svg xmlns="http://www.w3.org/2000/svg" width="24" height="24">
  <defs/>
  <path  d="M12,2 L12,8.5 C12,9.328 12.672,10 13.5,10 L20,10 L20,20 C20,21.105 19.105,22 18,22 L6,22 C4.895,22 4,21.105 4,20 L4,4 C4,2.895 4.895,2 6,2 Z M14,2.043 C14.379,2.123 14.726,2.312 15,2.586 L19.414,7 C19.688,7.274 19.877,7.621 19.957,8 L14,8 Z M13.591,13.657 L11.116,16.132 L10.409,15.425 C10.017,15.046 9.393,15.051 9.007,15.437 C8.621,15.823 8.616,16.447 8.995,16.839 L10.338,18.183 C10.768,18.613 11.464,18.613 11.894,18.183 L15.005,15.071 C15.265,14.82 15.369,14.448 15.278,14.098 C15.186,13.749 14.913,13.476 14.564,13.384 C14.214,13.293 13.842,13.397 13.591,13.657 Z"/>
</svg>

