<svg xmlns="http://www.w3.org/2000/svg" width="24" height="24">
  <defs/>
  <path  d="M13.586,2 A2 2 0 0 1 15,2.586 L19.414,7 A2 2 0 0 1 20,8.414 L20,20 A2 2 0 0 1 18,22 L6,22 A2 2 0 0 1 4,20 L4,4 A2 2 0 0 1 6,2 Z M12,4 L6,4 L6,20 L18,20 L18,10 L13.5,10 A1.5 1.5 0 0 1 12,8.5 Z M12,17 A1 1 0 1 1 12,19 A1 1 0 0 1 12,17 M12,11 A2.5 2.5 0 0 1 13.546,15.464 A12.11 12.11 0 0 0 13.254,15.705 C12.847,16.048 12.402,16.422 12,16.422 C11.375,16.422 11.14,15.932 11.14,15.578 C11.14,15.224 11.351,14.844 11.525,14.63 C11.779,14.317 12.09,14.066 12.309,13.893 A0.5 0.5 0 1 0 11.5,13.5 A1 1 0 1 1 9.5,13.5 A2.5 2.5 0 0 1 12,11 M14,4.414 L14,8 L17.586,8 Z"/>
</svg>

