<svg xmlns="http://www.w3.org/2000/svg" width="24" height="24">
  <defs/>
  <path  d="M12,2 L12,8.5 C12,9.328 12.672,10 13.5,10 L20,10 L20,20 C20,21.105 19.105,22 18,22 L6,22 C4.895,22 4,21.105 4,20 L4,4 C4,2.895 4.895,2 6,2 Z M12,11 C11.448,11 11,11.448 11,12 L11,14.708 L10.586,14.294 C10.194,13.915 9.57,13.92 9.184,14.306 C8.798,14.692 8.793,15.316 9.172,15.708 L11.292,17.83 C11.48,18.018 11.734,18.123 12,18.123 C12.265,18.123 12.519,18.018 12.707,17.83 L14.828,15.708 C15.088,15.457 15.192,15.085 15.101,14.735 C15.009,14.386 14.736,14.113 14.387,14.021 C14.037,13.93 13.665,14.034 13.414,14.294 L13,14.708 L13,12 C13,11.448 12.552,11 12,11 Z M14,2.043 C14.379,2.123 14.726,2.312 15,2.586 L19.414,7 C19.688,7.274 19.877,7.621 19.957,8 L14,8 Z"/>
</svg>

