<svg xmlns="http://www.w3.org/2000/svg" width="24" height="24">
  <defs/>
  <path  d="M12,2 L12,8.5 A1.5 1.5 0 0 0 13.356,9.993 L13.5,10 L20,10 L20,14.892 L17.633,14.102 A2 2 0 0 0 16.545,14.052 L16.367,14.102 L13.367,15.102 A2 2 0 0 0 12.007,16.84 L12,17 L12,18.671 A5.33 5.33 0 0 0 13.01,21.8 L13.162,22 L6,22 A2 2 0 0 1 4.005,20.15 L4,20 L4,4 A2 2 0 0 1 5.85,2.005 L6,2 Z M17,16 L20,17 L20,18.671 A3.346 3.346 0 0 1 17.023,21.997 L16.977,21.997 A3.347 3.347 0 0 1 14.005,18.853 L14,18.671 L14,17 Z M14,2.043 A2 2 0 0 1 14.877,2.473 L15,2.586 L19.414,7 A2 2 0 0 1 19.916,7.84 L19.956,8 L14,8 Z"/>
</svg>

