<svg xmlns="http://www.w3.org/2000/svg" width="24" height="24">
  <defs/>
  <path  d="M13.586,2 A2 2 0 0 1 15,2.586 L19.414,7 A2 2 0 0 1 20,8.414 L20,20 A2 2 0 0 1 18,22 L6,22 A2 2 0 0 1 4,20 L4,4 A2 2 0 0 1 6,2 Z M12,4 L6,4 L6,20 L18,20 L18,10 L13.5,10 A1.5 1.5 0 0 1 12,8.5 Z M11.654,11.699 A0.4 0.4 0 0 1 12.346,11.699 L13.24,13.234 L14.977,13.61 A0.4 0.4 0 0 1 15.19,14.268 L14.007,15.593 L14.185,17.361 A0.4 0.4 0 0 1 13.626,17.767 L12,17.051 L10.374,17.767 A0.4 0.4 0 0 1 9.814,17.361 L9.994,15.593 L8.81,14.268 A0.4 0.4 0 0 1 9.023,13.61 L10.76,13.234 Z M14,4.414 L14,8 L17.586,8 Z"/>
</svg>

