<svg xmlns="http://www.w3.org/2000/svg" width="24" height="24">
  <defs/>
  <path  d="M13.586,2 C14.116,2 14.625,2.211 15,2.586 L19.414,7 C19.789,7.375 20,7.884 20,8.414 L20,13 L18,13 L18,10 L13.5,10 C12.672,10 12,9.328 12,8.5 L12,4 L6,4 L6,20 L12,20 L12,22 L6,22 C4.895,22 4,21.105 4,20 L4,4 C4,2.895 4.895,2 6,2 Z M17.316,14.051 L20.316,15.051 C20.725,15.187 21,15.569 21,16 L21,17.671 C21,19.886 19.335,21.746 17.134,21.991 C17.045,22.001 16.955,22.001 16.866,21.991 C14.665,21.746 13,19.886 13,17.671 L13,16 C13,15.569 13.275,15.187 13.684,15.051 L16.684,14.051 C16.889,13.983 17.111,13.983 17.316,14.051 Z M17,16.054 L15,16.721 L15,17.671 C15,18.838 15.855,19.821 17,19.992 C18.145,19.822 19,18.838 19,17.672 L19,16.721 Z M14,4.414 L14,8 L17.586,8 Z"/>
</svg>

