<svg xmlns="http://www.w3.org/2000/svg" width="24" height="24">
  <defs/>
  <path  d="M12,2 L12,8.5 C12,9.328 12.672,10 13.5,10 L20,10 L20,20 C20,21.105 19.105,22 18,22 L6,22 C4.895,22 4,21.105 4,20 L4,4 C4,2.895 4.895,2 6,2 Z M14,2.043 C14.379,2.123 14.726,2.312 15,2.586 L19.414,7 C19.688,7.274 19.877,7.621 19.957,8 L14,8 Z M11.207,12.173 C10.816,11.783 10.184,11.783 9.793,12.173 L7.672,14.294 C7.282,14.684 7.282,15.318 7.672,15.708 L9.792,17.83 C10.182,18.221 10.816,18.221 11.207,17.83 C11.597,17.44 11.597,16.807 11.207,16.416 L9.793,15 L11.207,13.586 C11.597,13.196 11.597,12.562 11.207,12.172 Z M14.207,12.173 C13.815,11.794 13.191,11.799 12.805,12.185 C12.419,12.571 12.414,13.195 12.793,13.587 L14.207,15.001 L12.793,16.416 C12.414,16.808 12.419,17.432 12.805,17.818 C13.191,18.204 13.815,18.209 14.207,17.83 L16.328,15.708 C16.718,15.318 16.718,14.684 16.328,14.294 Z"/>
</svg>

