<svg xmlns="http://www.w3.org/2000/svg" width="24" height="24">
  <defs/>
  <path  d="M13.586,2 A2 2 0 0 1 15,2.586 L19.414,7 A2 2 0 0 1 20,8.414 L20,20 A2 2 0 0 1 18,22 L6,22 A2 2 0 0 1 4,20 L4,4 A2 2 0 0 1 6,2 Z M12,4 L6,4 L6,20 L18,20 L18,10 L13.5,10 A1.5 1.5 0 0 1 12,8.5 Z M11.207,12.173 A1 1 0 0 1 11.207,13.587 L9.793,15.001 L11.207,16.416 A1 1 0 0 1 9.793,17.83 L7.672,15.708 A1 1 0 0 1 7.672,14.294 L9.792,12.173 A1 1 0 0 1 11.207,12.173 M14.207,12.173 L16.328,14.294 A1 1 0 0 1 16.328,15.708 L14.208,17.83 A1 1 0 0 1 12.793,16.416 L14.207,15 L12.793,13.586 A1 1 0 0 1 14.207,12.172 Z M14,4.414 L14,8 L17.586,8 Z"/>
</svg>

