<svg xmlns="http://www.w3.org/2000/svg" width="24" height="24">
  <defs/>
  <path  d="M12,2 L12,8.5 A1.5 1.5 0 0 0 13.356,9.993 L13.5,10 L20,10 L20,11.758 A4.501 4.501 0 0 0 13.07,14.703 A2.994 2.994 0 0 0 12.007,16.789 L12,17 L12,21 C12,21.28 12.039,21.552 12.11,21.81 L12.17,22 L6,22 A2 2 0 0 1 4.005,20.15 L4,20 L4,4 A2 2 0 0 1 5.85,2.005 L6,2 Z M17.5,13 A2.5 2.5 0 0 1 19.995,15.336 L20,15.5 L20,16 A1 1 0 0 1 20.993,16.883 L21,17 L21,21 A1 1 0 0 1 20.117,21.993 L20,22 L15,22 A1 1 0 0 1 14.007,21.117 L14,21 L14,17 A1 1 0 0 1 14.883,16.007 L15,16 L15,15.5 A2.5 2.5 0 0 1 17.5,13 M17.5,15 A0.5 0.5 0 0 0 17,15.5 L17,16 L18,16 L18,15.5 A0.5 0.5 0 0 0 17.5,15 M14,2.043 A2 2 0 0 1 14.877,2.473 L15,2.586 L19.414,7 A2 2 0 0 1 19.916,7.84 L19.956,8 L14,8 Z"/>
</svg>

