<svg xmlns="http://www.w3.org/2000/svg" width="24" height="24">
  <defs/>
  <path  d="M12,2 L12,8.5 C12,9.273 12.587,9.919 13.356,9.993 L13.5,10 L20,10 L20,20 C20,21.047 19.194,21.917 18.15,21.995 L18,22 L6,22 C4.953,22 4.083,21.194 4.005,20.15 L4,20 L4,4 C4,2.953 4.806,2.083 5.85,2.005 L6,2 Z M12,11.5 C11.493,11.5 11.066,11.88 11.007,12.383 L11,12.5 L11,14 L9.5,14 C8.971,14.001 8.534,14.413 8.503,14.941 C8.472,15.47 8.858,15.931 9.383,15.993 L9.5,16 L11,16 L11,17.5 C11.001,18.029 11.413,18.466 11.941,18.497 C12.47,18.528 12.931,18.142 12.993,17.617 L13,17.5 L13,16 L14.5,16 C15.029,15.999 15.466,15.587 15.497,15.059 C15.528,14.53 15.142,14.069 14.617,14.007 L14.5,14 L13,14 L13,12.5 C13,11.948 12.552,11.5 12,11.5 Z M14,2.043 C14.323,2.112 14.625,2.259 14.877,2.473 L15,2.586 L19.414,7 C19.648,7.234 19.821,7.523 19.916,7.84 L19.956,8 L14,8 Z"/>
</svg>

