<svg xmlns="http://www.w3.org/2000/svg" width="24" height="24">
  <defs/>
  <path  d="M12,2 L12,8.5 A1.5 1.5 0 0 0 13.356,9.993 L13.5,10 L20,10 L20,12.022 A6.5 6.5 0 0 0 11.616,21.79 L11.81,22 L6,22 A2 2 0 0 1 4.005,20.15 L4,20 L4,4 A2 2 0 0 1 5.85,2.005 L6,2 Z M16.5,13 A4.5 4.5 0 1 1 16.5,22 A4.5 4.5 0 0 1 16.5,13 M14.172,16.586 A2.5 2.5 0 0 0 17.241,19.888 L17.414,19.828 Z M16.5,15 C16.178,15 15.87,15.061 15.586,15.172 L18.828,18.414 A2.5 2.5 0 0 0 16.5,15 M14,2.043 A2 2 0 0 1 14.877,2.473 L15,2.586 L19.414,7 A2 2 0 0 1 19.916,7.84 L19.956,8 L14,8 Z"/>
</svg>

