<svg xmlns="http://www.w3.org/2000/svg" width="24" height="24">
  <defs/>
  <path  d="M13.586,2 C14.056,2 14.51,2.165 14.87,2.467 L15,2.586 L19.414,7 C19.746,7.332 19.951,7.77 19.992,8.238 L20,8.414 L20,12 L18,12 L18,10 L13.5,10 C12.727,10 12.081,9.413 12.007,8.644 L12,8.5 L12,4 L6,4 L6,20 L12,20 L12,22 L6,22 C4.953,22 4.083,21.194 4.005,20.15 L4,20 L4,4 C4,2.953 4.806,2.083 5.85,2.005 L6,2 Z M17.5,13 C18.881,13 20,14.119 20,15.5 L20,16 C20.552,16 21,16.448 21,17 L21,21 C21,21.552 20.552,22 20,22 L15,22 C14.448,22 14,21.552 14,21 L14,17 C14,16.448 14.448,16 15,16 L15,15.5 C15,14.119 16.119,13 17.5,13 Z M14,4.414 L14,8 L17.586,8 Z M19,18 L16,18 L16,20 L19,20 Z M17.5,15 C17.224,15 17,15.224 17,15.5 L17,16 L18,16 L18,15.5 C18,15.224 17.776,15 17.5,15 Z"/>
</svg>

