<svg xmlns="http://www.w3.org/2000/svg" width="24" height="24">
  <defs/>
  <path  d="M12,2 L12,8.5 C12,9.328 12.672,10 13.5,10 L20,10 L20,20 C20,21.105 19.105,22 18,22 L6,22 C4.895,22 4,21.105 4,20 L4,4 C4,2.895 4.895,2 6,2 Z M11.654,11.699 L10.76,13.234 L9.023,13.61 C8.884,13.64 8.771,13.742 8.727,13.878 C8.683,14.013 8.715,14.162 8.81,14.268 L9.994,15.593 L9.814,17.361 C9.8,17.503 9.862,17.641 9.977,17.725 C10.093,17.809 10.244,17.825 10.374,17.767 L12,17.051 L13.626,17.767 C13.756,17.825 13.907,17.809 14.023,17.725 C14.138,17.641 14.2,17.503 14.186,17.361 L14.006,15.593 L15.191,14.268 C15.286,14.162 15.318,14.013 15.273,13.877 C15.229,13.742 15.116,13.64 14.977,13.61 L13.24,13.234 L12.346,11.699 C12.274,11.576 12.143,11.5 12,11.5 C11.857,11.5 11.726,11.576 11.654,11.699 Z M14,2.043 C14.379,2.123 14.726,2.312 15,2.586 L19.414,7 C19.688,7.274 19.877,7.621 19.957,8 L14,8 Z"/>
</svg>

