<svg xmlns="http://www.w3.org/2000/svg" width="24" height="24">
  <defs/>
  <path  d="M12,2 L12,8.5 C12,9.328 12.672,10 13.5,10 L20,10 L20,20 C20,21.105 19.105,22 18,22 L6,22 C4.895,22 4,21.105 4,20 L4,4 C4,2.895 4.895,2 6,2 Z M14,2.043 C14.379,2.123 14.726,2.312 15,2.586 L19.414,7 C19.688,7.274 19.877,7.621 19.957,8 L14,8 Z M12,12 C11.448,12 11,12.448 11,13 L11,15 C11,15.552 11.448,16 12,16 C12.552,16 13,15.552 13,15 L13,13 C13,12.448 12.552,12 12,12 Z M12,17 C11.448,17 11,17.448 11,18 C11,18.552 11.448,19 12,19 C12.552,19 13,18.552 13,18 C13,17.448 12.552,17 12,17 Z"/>
</svg>

