<svg xmlns="http://www.w3.org/2000/svg" width="24" height="24">
  <defs/>
  <path  d="M13.586,2 C14.056,2 14.51,2.165 14.87,2.467 L15,2.586 L19.414,7 C19.746,7.332 19.951,7.77 19.992,8.238 L20,8.414 L20,12 L18,12 L18,10 L13.5,10 C12.727,10 12.081,9.413 12.007,8.644 L12,8.5 L12,4 L6,4 L6,20 L12,20 L12,22 L6,22 C4.953,22 4.083,21.194 4.005,20.15 L4,20 L4,4 C4,2.953 4.806,2.083 5.85,2.005 L6,2 Z M18.707,14.465 L21.535,17.293 C21.925,17.684 21.925,18.316 21.535,18.707 L18.707,21.535 C18.456,21.795 18.084,21.899 17.734,21.808 C17.385,21.716 17.112,21.443 17.02,21.094 C16.929,20.744 17.033,20.372 17.293,20.121 L18.414,19 L14,19 C13.448,19 13,18.552 13,18 C13,17.448 13.448,17 14,17 L18.414,17 L17.293,15.879 C16.902,15.489 16.902,14.855 17.292,14.465 C17.683,14.074 18.316,14.074 18.707,14.464 Z M14,4.414 L14,8 L17.586,8 Z"/>
</svg>

