<svg xmlns="http://www.w3.org/2000/svg" width="24" height="24">
  <defs/>
  <path  d="M13.586,2 C14.056,2 14.51,2.165 14.87,2.467 L15,2.586 L19.414,7 C19.746,7.332 19.951,7.77 19.992,8.238 L20,8.414 L20,20 C20,21.047 19.194,21.917 18.15,21.995 L18,22 L6,22 C4.953,22 4.083,21.194 4.005,20.15 L4,20 L4,4 C4,2.953 4.806,2.083 5.85,2.005 L6,2 Z M13.586,4 L6,4 L6,20 L9,20 L9,17.5 C9,16.727 9.587,16.081 10.356,16.007 L10.5,16 L13.5,16 C14.273,16 14.919,16.587 14.993,17.356 L15,17.5 L15,20 L18,20 L18,8.414 Z M14,11 C14.552,11 15,11.448 15,12 C15,12.552 14.552,13 14,13 L13,13 C12.448,13 12,12.552 12,12 C12,11.448 12.448,11 13,11 Z M11,13 C11.552,13 12,13.448 12,14 C12,14.552 11.552,15 11,15 L10,15 C9.448,15 9,14.552 9,14 C9,13.448 9.448,13 10,13 Z M11,9 C11.529,9.001 11.966,9.413 11.997,9.941 C12.028,10.47 11.642,10.931 11.117,10.993 L11,11 L10,11 C9.471,10.999 9.034,10.587 9.003,10.059 C8.972,9.53 9.358,9.069 9.883,9.007 L10,9 Z M14,7 C14.529,7.001 14.966,7.413 14.997,7.941 C15.028,8.47 14.642,8.931 14.117,8.993 L14,9 L13,9 C12.471,8.999 12.034,8.587 12.003,8.059 C11.972,7.53 12.358,7.069 12.883,7.007 L13,7 Z M13,18 L11,18 L11,20 L13,20 Z"/>
</svg>

