<svg xmlns="http://www.w3.org/2000/svg" width="24" height="24">
  <defs/>
  <path  d="M13.586,2 C14.056,2 14.51,2.165 14.87,2.467 L15,2.586 L19.414,7 C19.746,7.332 19.951,7.77 19.992,8.238 L20,8.414 L20,20 C20,21.047 19.194,21.917 18.15,21.995 L18,22 L15,22 L15,18.5 C15,17.727 14.413,17.081 13.644,17.007 L13.5,17 L10.5,17 C9.727,17 9.081,17.587 9.007,18.356 L9,18.5 L9,22 L6,22 C4.953,22 4.083,21.194 4.005,20.15 L4,20 L4,4 C4,2.953 4.806,2.083 5.85,2.005 L6,2 Z M13,19 L13,22 L11,22 L11,19 Z M11,9 L10,9 C9.448,9 9,9.448 9,10 C9,10.552 9.448,11 10,11 L11,11 C11.552,11 12,10.552 12,10 C12,9.448 11.552,9 11,9 Z M14,7 L13,7 C12.448,7 12,7.448 12,8 C12,8.552 12.448,9 13,9 L14,9 C14.552,9 15,8.552 15,8 C15,7.448 14.552,7 14,7 Z M14,11 L13,11 C12.471,11.001 12.034,11.413 12.003,11.941 C11.972,12.47 12.358,12.931 12.883,12.993 L13,13 L14,13 C14.529,12.999 14.966,12.587 14.997,12.059 C15.028,11.53 14.642,11.069 14.117,11.007 Z M11,13 L10,13 C9.471,13.001 9.034,13.413 9.003,13.941 C8.972,14.47 9.358,14.931 9.883,14.993 L10,15 L11,15 C11.529,14.999 11.966,14.587 11.997,14.059 C12.028,13.53 11.642,13.069 11.117,13.007 Z"/>
</svg>

