<svg xmlns="http://www.w3.org/2000/svg" width="24" height="24">
  <defs/>
  <path  d="M3,4.5 C3,3.672 3.672,3 4.5,3 L19.5,3 C20.328,3 21,3.672 21,4.5 L21,6.586 C21,7.116 20.789,7.625 20.414,8 L15,13.414 L15,20.838 C15,21.219 14.803,21.573 14.478,21.774 C14.154,21.974 13.749,21.993 13.408,21.822 L9.691,19.964 C9.268,19.752 9,19.319 9,18.846 L9,13.414 L3.586,8 C3.211,7.625 3,7.116 3,6.586 Z M5,5 L5,6.586 L10.56,12.146 C10.842,12.427 11,12.809 11,13.207 L11,18.382 L13,19.382 L13,13.207 C13,12.809 13.158,12.427 13.44,12.147 L19,6.585 L19,5 Z"/>
</svg>

