<svg xmlns="http://www.w3.org/2000/svg" width="24" height="24">
  <defs/>
  <path  d="M3,6 C3,5.197 3.437,4.552 3.965,4.084 C4.494,3.615 5.202,3.238 5.992,2.942 C7.578,2.347 9.703,2 12,2 C14.298,2 16.422,2.347 18.008,2.942 C18.797,3.238 19.505,3.615 20.035,4.084 C20.563,4.552 21,5.197 21,6 C21,10.264 18.587,13.98 15.085,15.398 C15.055,15.41 15.028,15.429 15.008,15.455 L15,15.47 L15,19.22 C14.999,20.137 14.375,20.937 13.485,21.159 L11.485,21.659 C10.888,21.808 10.255,21.674 9.769,21.295 C9.284,20.916 9,20.335 9,19.719 L9,15.469 C8.998,15.464 8.995,15.459 8.992,15.454 C8.972,15.428 8.945,15.409 8.915,15.397 C5.414,13.98 3,10.264 3,6 Z M18.547,8.837 C18.37,8.916 18.19,8.989 18.008,9.057 C16.422,9.654 14.298,10 12,10 C9.703,10 7.578,9.653 5.992,9.058 C5.81,8.99 5.63,8.916 5.452,8.837 C6.188,11.05 7.755,12.77 9.665,13.544 C10.4,13.84 11,14.558 11,15.468 L11,19.719 L13,19.219 L13,15.468 C13,14.558 13.6,13.841 14.335,13.544 C16.245,12.77 17.812,11.05 18.547,8.837 Z M5,6 C5,6.585 6.3,7.037 6.694,7.185 C8.004,7.675 9.88,8 12,8 C14.12,8 15.997,7.676 17.306,7.185 C17.699,7.037 19,6.585 19,6 C19,5.415 17.7,4.963 17.306,4.815 C15.996,4.325 14.12,4 12,4 C9.88,4 8.003,4.324 6.694,4.815 C6.301,4.963 5,5.415 5,6 Z"/>
</svg>

