<svg xmlns="http://www.w3.org/2000/svg" width="24" height="24">
  <defs/>
  <path  d="M3,6 C3,5.197 3.437,4.552 3.965,4.084 C4.495,3.615 5.203,3.238 5.992,2.942 C7.578,2.347 9.702,2 12,2 C14.297,2 16.422,2.347 18.008,2.942 C18.798,3.238 19.506,3.615 20.035,4.084 C20.562,4.552 21,5.197 21,6 C21,10.644 18.13,14.652 14.11,15.724 C14.072,15.733 14.038,15.754 14.012,15.783 C14.003,15.793 14,15.8 14,15.8 L14,19.805 C14,20.378 13.609,20.878 13.053,21.017 L11.553,21.392 C11.18,21.485 10.784,21.401 10.481,21.165 C10.178,20.928 10,20.565 10,20.18 L10,15.8 C10,15.8 9.997,15.792 9.988,15.782 C9.962,15.753 9.928,15.733 9.89,15.724 C5.87,14.652 3,10.644 3,6 Z M5,6 C5,6.585 6.301,7.037 6.694,7.185 C8.003,7.676 9.88,8 12,8 C14.12,8 15.996,7.675 17.306,7.185 C17.7,7.037 19,6.585 19,6 C19,5.415 17.699,4.963 17.306,4.815 C15.997,4.324 14.12,4 12,4 C9.88,4 8.004,4.325 6.694,4.815 C6.3,4.963 5,5.415 5,6 Z"/>
</svg>

