<svg xmlns="http://www.w3.org/2000/svg" width="24" height="24">
  <defs/>
  <path  d="M10.5,6 A2.5 2.5 0 0 1 12.995,8.336 L13,8.5 L13,13.105 L17.455,13.711 A4 4 0 0 1 20.995,17.483 L21,17.685 L21,18 A8.01 8.01 0 0 1 20.728,20.074 C20.402,21.294 19.292,21.934 18.23,21.995 L18.062,22 L8.236,22 A3 3 0 0 1 5.648,20.517 L5.553,20.342 L3.329,15.894 C2.969,15.174 3.236,14.211 4.076,13.866 C5.119,13.439 6.11,13.36 7.131,13.878 C7.353,13.991 7.571,14.13 7.785,14.292 L8,14.462 L8,8.5 A2.5 2.5 0 0 1 10.5,6 M10.5,2 A6.5 6.5 0 0 1 16.755,10.272 A1 1 0 0 1 14.831,9.728 A4.5 4.5 0 1 0 6.491,10.545 A1 1 0 0 1 4.709,11.455 A6.5 6.5 0 0 1 10.5,2"/>
</svg>

