<svg xmlns="http://www.w3.org/2000/svg" width="24" height="24">
  <defs/>
  <path  d="M12,4 C8.134,4 5,7.134 5,11 L5,13 C5,13.552 4.552,14 4,14 C3.448,14 3,13.552 3,13 L3,11 C3,6.029 7.029,2 12,2 C16.971,2 21,6.029 21,11 L21,14 C20.986,14.881 20.92,15.761 20.803,16.635 C20.614,18.02 20.218,19.876 19.3,21.1 C18.969,21.542 18.342,21.631 17.9,21.3 C17.458,20.969 17.369,20.342 17.7,19.9 C18.282,19.124 18.636,17.73 18.822,16.365 C18.927,15.581 18.986,14.791 19,14 L19,11 C19,7.134 15.866,4 12,4 Z M12,8 C10.343,8 9,9.343 9,11 L9,12 C9,12.94 8.696,14.1 8.132,15.158 C7.565,16.221 6.683,17.276 5.447,17.894 C5.126,18.067 4.736,18.052 4.43,17.854 C4.124,17.656 3.949,17.307 3.975,16.944 C4,16.58 4.222,16.259 4.553,16.106 C5.317,15.724 5.935,15.029 6.368,14.216 C6.804,13.4 7,12.56 7,12 L7,11 C7,8.239 9.239,6 12,6 C14.761,6 17,8.239 17,11 L17,12.12 C17,15.043 17,18.968 13.64,21.768 C13.367,22.007 12.986,22.079 12.644,21.957 C12.302,21.834 12.054,21.536 11.995,21.178 C11.936,20.82 12.076,20.458 12.36,20.232 C14.954,18.07 15,15.064 15,12 L15,11 C15,9.343 13.657,8 12,8 Z M13,11.5 C13,12.803 12.871,14.548 12.324,16.191 C11.775,17.838 10.768,19.484 8.947,20.394 C8.626,20.567 8.236,20.552 7.93,20.354 C7.624,20.156 7.449,19.807 7.475,19.444 C7.5,19.08 7.722,18.759 8.053,18.606 C9.232,18.016 9.976,16.913 10.426,15.559 C10.879,14.202 11,12.697 11,11.5 C11,10.948 11.448,10.5 12,10.5 C12.552,10.5 13,10.948 13,11.5 Z"/>
</svg>

