<svg xmlns="http://www.w3.org/2000/svg" width="24" height="24">
  <defs/>
  <path  d="M12,5.5 A5.5 5.5 0 0 1 17.5,11 L17.499,12.851 L17.493,13.332 L17.48,13.828 L17.47,14.081 L17.441,14.595 L17.398,15.119 C17.167,17.495 16.413,20.109 13.96,22.152 A1.5 1.5 0 1 1 12.04,19.848 C13.89,18.305 14.35,16.303 14.463,14.041 L14.485,13.47 L14.496,12.889 L14.5,12.299 L14.5,11 A2.5 2.5 0 0 0 9.5,11 L9.5,12 C9.5,13.036 9.17,14.276 8.574,15.393 C7.973,16.519 7.025,17.664 5.671,18.342 A1.5 1.5 0 0 1 4.203,15.729 L4.329,15.659 C4.975,15.335 5.527,14.731 5.926,13.982 C6.331,13.224 6.5,12.465 6.5,12 L6.5,11 A5.5 5.5 0 0 1 12,5.5 M12,1.5 A9.5 9.5 0 0 1 21.5,11 L21.5,14.001 L21.492,14.407 L21.464,15.001 L21.434,15.427 C21.429,15.503 21.422,15.581 21.415,15.661 L21.365,16.163 C21.346,16.337 21.324,16.518 21.299,16.703 C21.109,18.093 20.702,20.064 19.7,21.4 A1.5 1.5 0 0 1 17.219,19.72 L17.3,19.6 C17.798,18.935 18.14,17.658 18.326,16.297 C18.376,15.934 18.411,15.589 18.436,15.28 L18.468,14.848 A20.088 20.088 0 0 0 18.5,14.005 L18.5,11 A6.5 6.5 0 1 0 5.5,11 L5.5,13 A1.5 1.5 0 0 1 2.5,13 L2.5,11 A9.5 9.5 0 0 1 12,1.5 M12,10 A1.5 1.5 0 0 1 13.5,11.5 L13.491,12.097 C13.454,13.343 13.288,14.879 12.798,16.349 C12.225,18.069 11.152,19.851 9.171,20.842 A1.5 1.5 0 0 1 7.703,18.229 L7.829,18.159 C8.848,17.649 9.525,16.681 9.952,15.401 C10.38,14.116 10.5,12.671 10.5,11.5 A1.5 1.5 0 0 1 12,10"/>
</svg>

