<svg xmlns="http://www.w3.org/2000/svg" width="24" height="24">
  <defs/>
  <path  d="M9.5,2 A2.5 2.5 0 0 1 11.995,4.336 L12,4.5 L12,9.105 L17.442,9.71 A4 4 0 0 1 20.995,13.482 L21,13.685 L21,14 A8 8 0 0 1 13.25,21.996 L13,22 L12.326,22 A8 8 0 0 1 5.302,17.829 L5.171,17.578 L2.329,11.894 C1.969,11.174 2.236,10.211 3.076,9.866 C4.119,9.439 5.11,9.359 6.131,9.878 C6.353,9.991 6.571,10.13 6.785,10.292 L7,10.462 L7,4.5 A2.5 2.5 0 0 1 9.5,2 M4.488,3.45 A1 1 0 1 1 5.511,5.17 C4.911,5.527 4.472,5.899 4.189,6.174 A4.97 4.97 0 0 0 3.926,6.448 L3.805,6.593 A1 1 0 0 1 2.411,6.808 A1.01 1.01 0 0 1 2.193,5.41 A5.41 5.41 0 0 1 2.793,4.741 A9.21 9.21 0 0 1 4.488,3.451 Z M14.398,2.88 A9.56 9.56 0 0 1 16.93,4.484 C17.245,4.764 17.558,5.068 17.808,5.411 A1 1 0 0 1 17.589,6.808 C17.179,7.108 16.618,7.038 16.275,6.686 L16.128,6.511 L16.031,6.401 L15.891,6.254 A5.785 5.785 0 0 0 15.806,6.169 L15.602,5.979 A7.56 7.56 0 0 0 13.6,4.716 A1 1 0 1 1 14.398,2.882 Z"/>
</svg>

