<svg xmlns="http://www.w3.org/2000/svg" width="24" height="24">
  <defs/>
  <path  d="M9.5,2 C10.881,2 12,3.119 12,4.5 L12,9.105 L17.442,9.71 C19.467,9.935 21,11.647 21,13.685 L21,14 C21,18.418 17.418,22 13,22 L12.326,22 C9.296,22 6.526,20.288 5.171,17.578 L2.329,11.894 C1.969,11.174 2.236,10.211 3.076,9.866 C4.118,9.439 5.11,9.359 6.13,9.878 C6.427,10.028 6.715,10.225 7,10.462 L7,4.5 C7,3.119 8.119,2 9.5,2 Z M9.5,4 L9.499,4 C9.223,4.001 9,4.224 9,4.5 L9,13 C9,13.425 8.732,13.803 8.331,13.944 C7.93,14.085 7.484,13.957 7.219,13.625 L6.887,13.218 L6.585,12.864 C6.005,12.207 5.583,11.844 5.225,11.661 C4.97,11.523 4.673,11.482 4.39,11.544 L6.96,16.684 C7.976,18.716 10.054,20 12.326,20 L13,20 C16.314,20 19,17.314 19,14 L19,13.685 C19,12.666 18.233,11.809 17.22,11.697 L11.779,11.093 C10.766,10.981 9.999,10.124 9.999,9.105 L9.999,4.5 C9.999,4.224 9.776,4.001 9.5,4 Z M13.083,3.398 C13.304,2.892 13.893,2.66 14.399,2.881 C15.321,3.279 16.175,3.821 16.929,4.485 C17.245,4.765 17.558,5.068 17.808,5.411 C18.133,5.857 18.035,6.483 17.589,6.808 C17.179,7.108 16.618,7.038 16.275,6.686 L16.031,6.401 L15.891,6.254 L15.709,6.077 C15.087,5.508 14.375,5.048 13.601,4.714 C13.095,4.494 12.863,3.905 13.083,3.399 Z M5.86,3.798 C5.996,4.026 6.035,4.299 5.97,4.557 C5.904,4.814 5.739,5.035 5.51,5.17 C5.032,5.453 4.588,5.79 4.188,6.176 C4.098,6.264 4.008,6.354 3.925,6.449 L3.804,6.595 C3.477,7.038 2.854,7.133 2.41,6.809 C1.969,6.48 1.872,5.859 2.192,5.411 C2.373,5.172 2.574,4.948 2.792,4.742 C3.305,4.248 3.874,3.815 4.487,3.452 C4.961,3.169 5.575,3.325 5.858,3.799 Z"/>
</svg>

