<svg xmlns="http://www.w3.org/2000/svg" width="24" height="24">
  <defs/>
  <path  d="M9.5,1 C10.881,1 12,2.119 12,3.5 L12,8.05 C12.7,7.906 13.429,8.07 14,8.5 C14.572,8.072 15.3,7.909 16,8.05 L16,6.5 C16,5.119 17.119,4 18.5,4 C19.881,4 21,5.119 21,6.5 L21,14 C21,18.418 17.418,22 13,22 L12.326,22 C9.296,22 6.527,20.288 5.172,17.578 L2.33,11.894 C1.97,11.174 2.237,10.211 3.077,9.866 C4.12,9.44 5.11,9.36 6.13,9.878 C6.441,10.04 6.733,10.236 7,10.462 L7,3.5 C7,2.119 8.119,1 9.5,1 Z M16,10.5 C16,10.224 15.776,10 15.5,10 C15.224,10 15,10.224 15,10.5 L15,11 C15,11.552 14.552,12 14,12 C13.448,12 13,11.552 13,11 L13,10.5 C13,10.224 12.776,10 12.5,10 C12.224,10 12,10.224 12,10.5 L12,12 C12,12.552 11.552,13 11,13 C10.448,13 10,12.552 10,12 L10,3.5 C10,3.224 9.776,3 9.5,3 C9.224,3 9,3.224 9,3.5 L9,13 C9,13.424 8.732,13.802 8.331,13.943 C7.931,14.083 7.486,13.956 7.22,13.625 C6.295,12.469 5.703,11.905 5.225,11.661 C4.97,11.523 4.673,11.482 4.39,11.544 L6.96,16.684 C7.976,18.716 10.054,20 12.326,20 L13,20 C16.314,20 19,17.314 19,14 L19,6.5 C19,6.224 18.776,6 18.5,6 C18.224,6 18,6.224 18,6.5 L18,12 C18,12.552 17.552,13 17,13 C16.448,13 16,12.552 16,12 Z"/>
</svg>

