<svg xmlns="http://www.w3.org/2000/svg" width="24" height="24">
  <defs/>
  <path  d="M12,22 C6.477,22 2,17.523 2,12 C2,6.477 6.477,2 12,2 C17.523,2 22,6.477 22,12 C22,17.523 17.523,22 12,22 Z M4.5,12 C4.5,7.858 7.858,4.5 12,4.5 C16.142,4.5 19.5,7.858 19.5,12 C19.5,13.197 18.53,14.167 17.333,14.167 C16.295,14.167 15.41,13.417 15.239,12.393 L15.081,11.443 C14.83,9.937 13.527,8.833 12,8.833 C10.251,8.833 8.833,10.251 8.833,12 C8.833,15.616 11.119,18.836 14.533,20.028 C14.791,20.111 15.069,19.973 15.158,19.716 C15.247,19.46 15.116,19.18 14.862,19.084 C11.85,18.032 9.833,15.19 9.833,12 C9.833,10.803 10.803,9.833 12,9.833 C13.038,9.833 13.924,10.583 14.094,11.607 L14.253,12.557 C14.504,14.063 15.806,15.167 17.333,15.167 C19.082,15.167 20.5,13.749 20.5,12 C20.5,7.306 16.694,3.5 12,3.5 C7.306,3.5 3.5,7.306 3.5,12 C3.5,13.616 3.777,15.168 4.287,16.611 C4.379,16.871 4.665,17.008 4.925,16.916 C5.185,16.824 5.322,16.538 5.23,16.278 C4.745,14.904 4.498,13.457 4.5,12 Z M7.167,12 C7.167,9.331 9.331,7.167 12,7.167 C14.669,7.167 16.833,9.331 16.833,12 C16.833,12.276 17.057,12.5 17.333,12.5 C17.609,12.5 17.833,12.276 17.833,12 C17.833,8.779 15.221,6.167 12,6.167 C8.779,6.167 6.167,8.779 6.167,12 C6.167,15.335 7.63,18.33 9.947,20.375 C10.154,20.558 10.47,20.538 10.653,20.331 C10.836,20.124 10.816,19.808 10.609,19.625 C8.418,17.697 7.164,14.919 7.167,12 Z M12.5,12 C12.5,11.724 12.276,11.5 12,11.5 C11.724,11.5 11.5,11.724 11.5,12 C11.5,13.717 12.256,15.347 13.567,16.456 C14.879,17.565 16.612,18.039 18.305,17.753 C18.572,17.702 18.749,17.447 18.704,17.179 C18.659,16.912 18.409,16.729 18.14,16.767 C16.737,17.005 15.3,16.612 14.213,15.693 C13.126,14.774 12.499,13.423 12.5,12 Z"/>
</svg>

