<svg xmlns="http://www.w3.org/2000/svg" width="24" height="24">
  <defs/>
  <path  d="M12,4 C7.582,4 4,7.582 4,12 C4,13.638 4.28,15.208 4.796,16.667 C4.927,17.007 4.863,17.391 4.629,17.67 C4.395,17.948 4.028,18.078 3.671,18.008 C3.313,17.938 3.022,17.68 2.911,17.333 C2.32,15.663 2,13.868 2,12 C2,6.477 6.477,2 12,2 C17.523,2 22,6.477 22,12 C22,14.209 20.209,16 18,16 C16.069,16 14.42,14.603 14.103,12.698 L13.925,11.63 C13.768,10.689 12.954,10 12,10 C10.895,10 10,10.895 10,12 C10,15.403 12.152,18.434 15.364,19.556 C15.707,19.669 15.963,19.959 16.032,20.313 C16.102,20.668 15.974,21.032 15.699,21.267 C15.424,21.501 15.044,21.569 14.705,21.444 C10.802,20.083 8,16.37 8,12 C8,9.791 9.791,8 12,8 C13.931,8 15.58,9.397 15.897,11.302 L16.075,12.37 C16.232,13.31 17.046,14 18,14 C19.105,14 20,13.105 20,12 C20,7.582 16.418,4 12,4 Z M12,7 C9.239,7 7,9.239 7,12 C7,15.285 8.439,18.233 10.724,20.25 C11.138,20.615 11.178,21.247 10.812,21.662 C10.447,22.076 9.815,22.115 9.401,21.75 C6.6,19.284 4.996,15.732 5,12 C5,8.134 8.134,5 12,5 C15.866,5 19,8.134 19,12 C19,12.552 18.552,13 18,13 C17.448,13 17,12.552 17,12 C17,9.239 14.761,7 12,7 Z M12,11 C12.552,11 13,11.448 13,12 C13,13.472 13.649,14.869 14.773,15.819 C15.897,16.769 17.383,17.176 18.834,16.93 C19.379,16.838 19.895,17.206 19.986,17.75 C20.078,18.295 19.711,18.811 19.166,18.903 C17.134,19.246 15.055,18.677 13.481,17.347 C11.907,16.016 11,14.061 11,12 C11,11.448 11.448,11 12,11 Z"/>
</svg>

