<svg xmlns="http://www.w3.org/2000/svg" width="24" height="24">
  <defs/>
  <path  d="M10.5,6 A2.5 2.5 0 0 1 12.995,8.336 L13,8.5 L13,13.105 L17.455,13.711 A4 4 0 0 1 20.995,17.483 L21,17.685 L21,18 A7.974 7.974 0 0 1 20.23,21.43 A1 1 0 0 1 18.423,20.57 A5.961 5.961 0 0 0 18.993,18.305 L19,18 L19,17.685 A2 2 0 0 0 17.379,15.721 L17.196,15.694 L12.765,15.091 A2 2 0 0 1 11.006,13.264 L11,13.105 L11,8.5 A0.5 0.5 0 0 0 10.008,8.41 L10,8.5 L10,17 A1 1 0 0 1 8.22,17.625 L7.888,17.218 L7.585,16.864 C7.006,16.207 6.584,15.844 6.225,15.661 A1.192 1.192 0 0 0 5.531,15.524 L5.39,15.544 L7.894,20.553 A1 1 0 0 1 6.164,21.549 L6.106,21.447 L3.329,15.894 C2.969,15.174 3.236,14.211 4.076,13.866 C5.119,13.439 6.11,13.36 7.131,13.878 C7.353,13.991 7.571,14.13 7.785,14.292 L8,14.462 L8,8.5 A2.5 2.5 0 0 1 10.5,6 M10.5,2 A6.5 6.5 0 0 1 16.755,10.272 A1 1 0 1 1 14.831,9.728 A4.5 4.5 0 1 0 6.491,10.545 A1 1 0 0 1 4.709,11.455 A6.5 6.5 0 0 1 10.5,2"/>
</svg>

