<svg xmlns="http://www.w3.org/2000/svg" width="24" height="24">
  <defs/>
  <path  d="M9.5,2 A2.5 2.5 0 0 1 11.995,4.336 L12,4.5 L12,9.105 L17.442,9.71 A4 4 0 0 1 20.995,13.482 L21,13.685 L21,14 A8 8 0 0 1 13.25,21.996 L13,22 L12.326,22 A8 8 0 0 1 5.302,17.829 L5.171,17.578 L2.329,11.894 C1.969,11.174 2.236,10.211 3.076,9.866 C4.119,9.439 5.11,9.359 6.131,9.878 C6.353,9.991 6.571,10.13 6.785,10.292 L7,10.462 L7,4.5 A2.5 2.5 0 0 1 9.5,2 M9.5,4 A0.5 0.5 0 0 0 9.008,4.41 L9,4.5 L9,13 A1 1 0 0 1 7.22,13.625 L6.888,13.218 L6.585,12.864 C6.005,12.207 5.584,11.844 5.225,11.661 A1.192 1.192 0 0 0 4.531,11.524 L4.39,11.544 L6.96,16.684 A6 6 0 0 0 12.083,19.995 L12.326,20 L13,20 A6 6 0 0 0 18.996,14.225 L19,14 L19,13.685 A2 2 0 0 0 17.379,11.721 L17.221,11.697 L11.779,11.093 A2 2 0 0 1 10.006,9.264 L10,9.105 L10,4.5 A0.5 0.5 0 0 0 9.5,4 M4,6 A1 1 0 0 1 4,8 L3,8 A1 1 0 0 1 3,6 Z M16,5 A1 1 0 0 1 16.117,6.993 L16,7 L15,7 A1 1 0 0 1 14.883,5.007 L15,5 Z M4.707,1.293 L5.707,2.293 A1 1 0 0 1 4.293,3.707 L3.293,2.707 A1 1 0 0 1 4.707,1.293 M15.707,1.293 A1 1 0 0 1 15.707,2.707 L14.707,3.707 A1 1 0 1 1 13.293,2.293 L14.293,1.293 A1 1 0 0 1 15.707,1.293"/>
</svg>

