<svg xmlns="http://www.w3.org/2000/svg" width="24" height="24">
  <defs/>
  <path  d="M11.514,2.142 L10.254,1.387 L10.014,2.836 C9.632,5.124 8.069,7.25 6.345,8.744 C2.97,11.67 2.231,14.85 3.276,17.475 C4.276,19.987 6.814,21.707 9.39,21.994 L9.986,22.06 C8.512,21.159 7.566,19.054 7.896,17.481 C8.222,15.935 9.334,14.487 11.47,13.151 L12.547,12.479 L12.949,13.684 C13.186,14.396 13.596,14.968 14.013,15.549 C14.213,15.829 14.416,16.112 14.602,16.413 C15.245,17.458 15.415,18.62 15,19.773 C14.622,20.821 13.999,21.645 13.14,22.102 L14.11,21.994 C16.528,21.725 18.303,20.898 19.456,19.515 C20.599,18.144 21,16.379 21,14.5 C21,12.75 20.281,10.946 19.433,9.445 C18.439,7.687 17.142,6.227 15.726,4.812 C15.481,5.302 15.5,5.5 14.996,6.287 A8.146 8.146 0 0 0 11.514,2.142"/>
</svg>

