<svg xmlns="http://www.w3.org/2000/svg" width="24" height="24">
  <defs/>
  <path  d="M17.128,2.51 C17.399,2.028 18.008,1.857 18.49,2.128 C18.972,2.399 19.143,3.008 18.872,3.49 L18.73,3.733 C18.475,4.149 18.108,4.611 17.454,4.855 C16.756,5.115 15.894,5.063 14.824,4.873 C14.349,4.789 14.05,4.844 13.862,4.923 C13.756,4.967 13.66,5.03 13.577,5.109 C14.167,5.195 14.712,5.328 15.18,5.503 C15.607,5.663 16.023,5.878 16.35,6.168 C16.642,6.428 16.935,6.816 16.99,7.326 L17,7.5 L17,19.5 C17,20.096 16.674,20.544 16.35,20.832 C16.022,21.122 15.607,21.337 15.18,21.497 C14.317,21.82 13.193,22 12,22 C10.807,22 9.683,21.82 8.82,21.497 C8.393,21.337 7.977,21.122 7.65,20.832 C7.358,20.572 7.065,20.184 7.01,19.674 L7,19.5 L7,7.5 C7,6.904 7.326,6.456 7.65,6.168 C7.977,5.878 8.393,5.663 8.82,5.503 C9.52,5.241 10.391,5.073 11.332,5.019 C11.432,4.747 11.562,4.48 11.726,4.229 C12.036,3.758 12.479,3.333 13.091,3.077 C13.701,2.822 14.401,2.767 15.175,2.904 C15.315,2.929 15.442,2.95 15.558,2.966 L15.878,3.006 C15.926,3.011 15.972,3.016 16.015,3.019 L16.25,3.032 L16.348,3.034 L16.511,3.028 C16.533,3.026 16.555,3.024 16.577,3.021 L16.682,3.003 L16.774,2.974 L16.819,2.949 C16.877,2.906 16.963,2.804 17.129,2.509 Z M12.999,7.052 C12.974,7.54 12.599,7.939 12.113,7.994 L12,8 C13.016,8 13.892,7.844 14.477,7.624 L14.612,7.57 C14.735,7.516 14.735,7.484 14.612,7.43 L14.477,7.376 C14,7.208 13.504,7.099 13,7.052 Z M11.001,7.052 C10.412,7.116 9.905,7.232 9.523,7.376 L9.388,7.429 C9.265,7.484 9.265,7.516 9.388,7.57 L9.523,7.624 C10.049,7.822 10.811,7.968 11.699,7.995 L11.966,7.999 C11.449,7.982 11.028,7.572 11.001,7.052 Z M12,8 L11.966,7.999 C11.977,8 11.988,8 12,8 Z"/>
</svg>

