<svg xmlns="http://www.w3.org/2000/svg" width="24" height="24">
  <defs/>
  <path  d="M8.332,4.888 C8.014,5.064 7.625,5.053 7.316,4.86 C7.008,4.666 6.83,4.32 6.85,3.957 C6.87,3.594 7.086,3.27 7.414,3.112 C8.789,2.4 10.349,2 12,2 C17.523,2 22,6.477 22,12 C22,17.523 17.523,22 12,22 C7.346,22 3.435,18.821 2.319,14.516 C1.352,11.148 2.423,7.313 5.143,4.696 C5.465,4.386 5.954,4.327 6.341,4.553 C6.727,4.778 6.917,5.233 6.805,5.666 C6.577,6.553 6.531,7.762 6.599,8.956 C6.637,9.637 6.712,10.316 6.825,10.989 C7.24,9.69 7.978,8.518 8.97,7.583 C9.293,7.278 9.779,7.223 10.163,7.448 C10.546,7.673 10.735,8.124 10.626,8.555 C10.564,8.8 10.563,9.326 10.644,10.016 C10.713,10.597 10.821,11.174 10.966,11.741 C11.49,13.696 13.397,15.62 16.298,15.021 C17.781,14.714 18.676,13.744 19.171,12.574 C19.682,11.365 19.715,10.042 19.517,9.285 C19.511,9.26 19.505,9.236 19.501,9.212 C18.703,7.066 17.024,5.364 14.889,4.538 C12.754,3.711 10.367,3.839 8.332,4.888 Z M4,12 C4,12.732 4.14,13.417 4.287,14.128 C5.144,17.229 7.775,19.515 10.965,19.931 C14.155,20.348 17.285,18.813 18.909,16.036 C18.247,16.5 17.495,16.821 16.702,16.979 C12.506,17.846 9.758,14.962 9.034,12.259 C8.964,11.997 8.891,11.675 8.824,11.325 C8.367,12.562 8.329,13.914 8.714,15.175 C8.849,15.614 8.668,16.089 8.274,16.326 C7.88,16.563 7.376,16.501 7.051,16.176 C5.958,15.085 5.428,13.676 5.061,12.306 C4.856,11.539 4.663,10.281 4.596,8.95 C4.188,9.922 4,10.95 4,12 Z"/>
</svg>

