<svg xmlns="http://www.w3.org/2000/svg" width="24" height="24">
  <defs/>
  <path  d="M10.255,1.387 L11.515,2.143 C13.113,3.087 14.341,4.549 14.995,6.287 C15.217,5.787 15.481,5.302 15.726,4.812 L16.707,5.793 C18.909,7.995 21,11.295 21,14.5 C21,18.798 18.35,21.523 14.11,21.994 L12.72,22.148 L13.024,20.783 C13.261,19.715 13.304,19.017 13.254,18.528 C13.194,17.913 12.902,17.43 12.538,16.95 C12.19,16.49 11.845,16.029 11.569,15.52 C10.434,16.417 9.994,17.227 9.853,17.894 C9.673,18.748 9.928,19.621 10.394,20.553 L11.216,22.197 L9.39,21.994 C6.814,21.708 4.276,19.987 3.276,17.476 C2.231,14.849 2.97,11.67 6.346,8.744 C8.586,6.803 9.772,4.286 10.255,1.387 Z M11.587,4.687 C10.825,6.827 9.362,8.777 7.655,10.256 C4.744,12.779 4.483,15.1 5.135,16.736 C5.62,17.956 6.667,18.959 7.908,19.528 C7.762,18.854 7.758,18.157 7.896,17.482 C8.222,15.936 9.334,14.487 11.47,13.152 L12.547,12.479 L12.949,13.684 C13.301,14.74 14.031,15.487 14.602,16.414 C15.23,17.434 15.35,18.604 15.222,19.772 C17.842,19.117 19,17.13 19,14.5 C19,12.278 17.66,10.098 16.33,8.394 C15.782,9.622 14.627,10.054 13.5,10.618 L13.5,9 C13.5,7.631 12.943,5.962 11.587,4.688 Z"/>
</svg>

