<svg xmlns="http://www.w3.org/2000/svg" width="24" height="24">
  <defs/>
  <path  d="M17.656,7.77 A0.847 0.847 0 1 1 18.592,9.172 L18.492,9.217 L14.294,10.789 C14.201,10.824 14.129,10.722 14.17,10.649 L14.195,10.619 L17.656,7.769 Z M17,3.34 A0.847 0.847 0 0 1 17.23,4.612 L14.381,8.072 C14.31,8.16 14.171,8.08 14.211,7.974 L15.783,3.776 A0.847 0.847 0 0 1 17,3.34 M21.014,11.165 A0.847 0.847 0 1 1 21.014,12.835 L16.592,12.099 C16.48,12.08 16.48,11.92 16.592,11.902 Z M14.21,16.026 C14.176,15.934 14.278,15.861 14.352,15.902 L14.382,15.928 L17.23,19.388 A0.847 0.847 0 1 1 15.828,20.325 L15.783,20.224 Z M14.294,13.211 L18.492,14.783 A0.847 0.847 0 1 1 17.656,16.23 L14.196,13.381 C14.108,13.31 14.188,13.171 14.294,13.211 M9.789,16.026 L8.217,20.224 A0.847 0.847 0 1 1 6.769,19.388 L9.619,15.928 C9.69,15.84 9.829,15.92 9.789,16.026 M9.805,13.381 L6.344,16.231 A0.847 0.847 0 1 1 5.508,14.783 L9.706,13.211 C9.812,13.171 9.892,13.31 9.805,13.381 M2,12.001 C2,12.524 2.47,12.921 2.986,12.836 L7.408,12.099 C7.52,12.08 7.52,11.92 7.408,11.902 L2.986,11.165 A0.847 0.847 0 0 0 2,12 Z M5.072,8 A0.847 0.847 0 0 1 6.254,7.705 L6.344,7.77 L9.804,10.619 C9.881,10.681 9.829,10.795 9.744,10.796 L9.706,10.79 L5.508,9.217 A0.847 0.847 0 0 1 5.072,8 M8.217,3.776 L9.789,7.974 C9.829,8.08 9.69,8.16 9.619,8.073 L6.769,4.612 A0.847 0.847 0 1 1 8.217,3.776 M11.165,4.986 A0.847 0.847 0 1 1 12.835,4.986 L12.1,9.408 C12.081,9.52 11.921,9.52 11.903,9.408 L11.166,4.986 Z M12.835,19.014 A0.847 0.847 0 1 1 11.165,19.014 L11.902,14.592 C11.92,14.48 12.08,14.48 12.099,14.592 Z"/>
</svg>

