<svg xmlns="http://www.w3.org/2000/svg" width="24" height="24">
  <defs/>
  <path  d="M13.742,16.202 C13.515,15.596 14.263,15.13 14.706,15.544 L14.767,15.61 L17.617,19.07 A1.347 1.347 0 1 1 15.369,20.525 L15.315,20.399 Z M14.384,12.716 L14.469,12.742 L18.667,14.315 A1.347 1.347 0 1 1 17.455,16.703 L17.338,16.616 L13.878,13.767 C13.378,13.357 13.793,12.579 14.384,12.717 Z M22.5,12 C22.5,12.789 21.83,13.399 21.06,13.344 L20.931,13.329 L16.51,12.592 C15.878,12.487 15.843,11.624 16.404,11.434 L16.51,11.408 L20.931,10.671 A1.347 1.347 0 0 1 22.5,12.001 Z M19.36,7.75 C19.753,8.43 19.48,9.291 18.792,9.63 L18.666,9.685 L14.468,11.258 C13.863,11.485 13.398,10.737 13.811,10.294 L13.876,10.233 L17.337,7.383 A1.347 1.347 0 0 1 19.36,7.75 M17.25,2.907 C17.928,3.299 18.123,4.175 17.703,4.813 L17.616,4.93 L14.767,8.39 C14.357,8.89 13.579,8.475 13.717,7.884 L13.742,7.799 L15.315,3.6 A1.347 1.347 0 0 1 17.25,2.906 Z M9.233,15.61 C9.643,15.11 10.421,15.525 10.283,16.116 L10.258,16.201 L8.685,20.4 A1.347 1.347 0 1 1 6.297,19.188 L6.383,19.071 Z M10.188,13.706 L10.122,13.767 L6.662,16.617 A1.347 1.347 0 1 1 5.207,14.369 L5.333,14.315 L9.531,12.742 C10.136,12.515 10.601,13.263 10.188,13.706 M2.94,10.656 L3.069,10.671 L7.49,11.408 C8.122,11.514 8.157,12.376 7.596,12.566 L7.49,12.592 L3.069,13.329 A1.347 1.347 0 1 1 2.939,10.656 Z M6.545,7.297 L6.662,7.384 L10.122,10.233 C10.622,10.643 10.207,11.421 9.616,11.283 L9.531,11.258 L5.333,9.685 A1.347 1.347 0 1 1 6.545,7.297 M8.631,3.475 L8.685,3.601 L10.258,7.799 C10.485,8.405 9.737,8.869 9.294,8.456 L9.233,8.391 L6.383,4.93 A1.347 1.347 0 1 1 8.631,3.475 M12,3.5 C11.168,3.5 10.534,4.247 10.671,5.069 L11.408,9.49 C11.52,10.159 12.48,10.159 12.592,9.49 L13.329,5.069 A1.347 1.347 0 0 0 12,3.5 M12.592,14.51 C12.48,13.841 11.52,13.841 11.408,14.51 L10.671,18.931 A1.347 1.347 0 1 0 13.329,18.931 Z"/>
</svg>

