<svg xmlns="http://www.w3.org/2000/svg" width="24" height="24">
  <defs/>
  <path  d="M8.332,4.888 C8.014,5.064 7.625,5.053 7.316,4.86 C7.008,4.666 6.83,4.32 6.85,3.957 C6.87,3.594 7.086,3.27 7.414,3.112 C8.789,2.4 10.349,2 12,2 C17.523,2 22,6.477 22,12 C22,17.523 17.523,22 12,22 C7.347,22 3.435,18.822 2.319,14.516 C1.352,11.149 2.423,7.313 5.143,4.696 C5.465,4.386 5.954,4.327 6.341,4.553 C6.727,4.778 6.917,5.233 6.805,5.666 C6.577,6.553 6.531,7.762 6.599,8.956 C6.637,9.637 6.712,10.316 6.825,10.989 C7.24,9.69 7.978,8.518 8.97,7.583 C9.293,7.278 9.779,7.223 10.163,7.448 C10.546,7.673 10.735,8.124 10.626,8.555 C10.564,8.8 10.563,9.326 10.644,10.016 C10.713,10.597 10.821,11.174 10.966,11.741 C11.49,13.696 13.397,15.62 16.298,15.021 C17.781,14.714 18.676,13.744 19.171,12.574 C19.682,11.365 19.715,10.042 19.517,9.285 C19.511,9.26 19.505,9.236 19.501,9.212 C18.703,7.066 17.024,5.364 14.889,4.538 C12.754,3.711 10.367,3.839 8.332,4.888 Z"/>
</svg>

