<svg xmlns="http://www.w3.org/2000/svg" width="24" height="24">
  <defs/>
  <path  d="M15,3 C16.105,3 17,3.895 17,5 L17,6 L18,6 C19.657,6 21,7.343 21,9 L21,18 C21,19.657 19.657,21 18,21 L6,21 C4.343,21 3,19.657 3,18 L3,9 C3,7.343 4.343,6 6,6 L7,6 L7,5 C7,3.895 7.895,3 9,3 Z M12,12 C11.493,12 11.066,12.38 11.007,12.883 L11,13 L11,14 L10,14 C9.471,14.001 9.034,14.413 9.003,14.941 C8.972,15.47 9.358,15.931 9.883,15.993 L10,16 L11,16 L11,17 C11.001,17.529 11.413,17.966 11.941,17.997 C12.47,18.028 12.931,17.642 12.993,17.117 L13,17 L13,16 L14,16 C14.529,15.999 14.966,15.587 14.997,15.059 C15.028,14.53 14.642,14.069 14.117,14.007 L14,14 L13,14 L13,13 C13,12.448 12.552,12 12,12 Z M18,8 L6,8 C5.448,8 5,8.448 5,9 L19,9 C19,8.448 18.552,8 18,8 Z M15,5 L9,5 L9,6 L15,6 Z"/>
</svg>

