<svg xmlns="http://www.w3.org/2000/svg" width="24" height="24">
  <defs/>
  <path  d="M15,3 A2 2 0 0 1 17,5 L17,6 L18,6 A3 3 0 0 1 21,9 L21,18 A3 3 0 0 1 18,21 L6,21 A3 3 0 0 1 3,18 L3,9 A3 3 0 0 1 6,6 L7,6 L7,5 A2 2 0 0 1 9,3 Z M19,11 L5,11 L5,18 A1 1 0 0 0 6,19 L18,19 A1 1 0 0 0 19,18 Z M12,12 A1 1 0 0 1 13,13 L13,14 L14,14 A1 1 0 1 1 14,16 L13,16 L13,17 A1 1 0 1 1 11,17 L11,16 L10,16 A1 1 0 1 1 10,14 L11,14 L11,13 A1 1 0 0 1 12,12 M18,8 L6,8 A1 1 0 0 0 5,9 L19,9 A1 1 0 0 0 18,8 M15,5 L9,5 L9,6 L15,6 Z"/>
</svg>

