<svg xmlns="http://www.w3.org/2000/svg" width="24" height="24">
  <defs/>
  <path  d="M16.202,2.074 C17.242,2.124 18.16,2.346 18.875,2.609 C19.55,2.858 20.155,3.184 20.485,3.515 C20.815,3.845 21.142,4.45 21.39,5.125 C21.703,5.984 21.883,6.885 21.926,7.798 C22.011,9.588 21.581,11.725 20.006,13.767 L19.988,13.814 L18.551,16.69 C18.367,17.058 17.976,17.276 17.566,17.239 C17.156,17.201 16.811,16.916 16.696,16.521 C15.401,17.166 13.997,17.566 12.556,17.699 L12.046,17.741 L11.463,17.78 L10.487,17.833 L9.435,17.883 C8.932,17.907 8.421,17.931 7.927,17.957 C7.887,18.51 7.826,19.062 7.743,19.61 C7.697,19.934 7.62,20.253 7.512,20.562 C7.321,21.064 6.915,21.485 6.343,21.485 C5.591,21.485 4.907,20.955 4.35,20.428 L4.082,20.168 L3.702,19.787 C3.138,19.207 2.515,18.472 2.515,17.657 C2.515,17.197 2.782,16.899 2.951,16.76 C3.248,16.515 3.632,16.4 4.013,16.323 L4.389,16.257 C4.938,16.174 5.489,16.113 6.043,16.073 L6.183,13.177 L6.22,12.537 L6.258,11.954 C6.272,11.771 6.286,11.6 6.301,11.444 C6.439,9.99 6.842,8.564 7.479,7.304 C7.084,7.189 6.799,6.844 6.762,6.434 C6.725,6.024 6.943,5.633 7.311,5.449 L10.139,4.034 C10.169,4.019 10.201,4.005 10.233,3.994 C12.274,2.419 14.412,1.988 16.202,2.074 Z M16.95,7.05 C16.364,6.464 15.414,6.464 14.828,7.049 C14.243,7.635 14.242,8.585 14.828,9.171 C15.416,9.74 16.352,9.732 16.931,9.154 C17.51,8.575 17.518,7.64 16.95,7.051 Z"/>
</svg>

