<svg xmlns="http://www.w3.org/2000/svg" width="24" height="24">
  <defs/>
  <path  d="M20.485,3.515 L20.485,3.516 C20.816,3.846 21.142,4.451 21.39,5.126 C21.703,5.985 21.883,6.886 21.926,7.799 C22.011,9.589 21.581,11.727 20.007,13.768 C19.995,13.8 19.981,13.832 19.965,13.862 L18.551,16.691 C18.367,17.059 17.976,17.277 17.566,17.24 C17.156,17.202 16.811,16.917 16.696,16.522 C15.401,17.167 13.997,17.567 12.556,17.7 C11.774,17.775 10.626,17.829 9.434,17.885 C8.931,17.908 8.421,17.932 7.927,17.958 C7.887,18.512 7.826,19.063 7.743,19.612 C7.663,20.103 7.566,20.654 7.24,21.05 C7.101,21.219 6.803,21.486 6.343,21.486 C5.42,21.486 4.566,20.654 3.957,20.044 C3.347,19.435 2.515,18.581 2.515,17.658 C2.515,17.198 2.782,16.901 2.951,16.761 C3.347,16.435 3.899,16.338 4.389,16.258 C4.855,16.183 5.426,16.124 6.043,16.074 C6.069,15.58 6.093,15.069 6.116,14.567 C6.172,13.375 6.226,12.227 6.301,11.445 C6.434,10.004 6.834,8.6 7.479,7.305 C7.084,7.19 6.799,6.845 6.761,6.435 C6.724,6.025 6.942,5.634 7.31,5.45 L10.139,4.034 C10.169,4.019 10.2,4.006 10.232,3.994 C12.274,2.419 14.412,1.989 16.202,2.074 C17.115,2.117 18.016,2.297 18.875,2.61 C19.55,2.858 20.155,3.185 20.485,3.515 Z M9.435,15.88 L9.434,15.88 C10.571,15.827 11.617,15.779 12.367,15.707 C14.475,15.507 16.417,14.653 17.657,13.413 C19.556,11.514 20.005,9.501 19.928,7.892 C19.889,7.076 19.714,6.359 19.514,5.815 C19.402,5.514 19.275,5.184 19.072,4.93 L19.071,4.928 L19.069,4.927 C18.814,4.724 18.485,4.596 18.184,4.485 C17.516,4.243 16.816,4.104 16.106,4.071 C14.498,3.994 12.486,4.443 10.586,6.343 C9.346,7.582 8.492,9.525 8.292,11.633 C8.22,12.381 8.172,13.428 8.119,14.565 C8.098,15.016 8.076,15.481 8.052,15.947 C8.518,15.923 8.983,15.901 9.435,15.88 Z M14.828,9.171 L14.828,9.172 C14.242,8.586 14.242,7.636 14.828,7.05 C15.414,6.464 16.364,6.464 16.95,7.05 C17.536,7.636 17.535,8.586 16.949,9.172 C16.364,9.757 15.414,9.757 14.828,9.171 Z M4.966,18.192 L4.967,18.192 C5.225,18.493 5.506,18.774 5.807,19.032 C5.844,18.757 5.878,18.44 5.908,18.09 C5.56,18.122 5.242,18.155 4.966,18.192 Z"/>
</svg>

