<svg xmlns="http://www.w3.org/2000/svg" width="24" height="24">
  <defs/>
  <path  d="M13.362,3.536 C13.846,3.629 14.553,3.871 14.894,4.553 C15.641,6.047 15.024,7.467 14.362,8.35 C13.93,8.926 13.374,9.468 12.727,9.8 C12.592,9.87 12.317,10 12,10 C11.409,10 10.83,9.731 10.355,9.395 C10.265,9.701 10.178,10.037 10.103,10.393 C9.955,11.076 9.874,11.772 9.863,12.471 C10.916,12.131 11.993,12.167 12.921,12.691 C13.618,12.143 14.42,11.743 15.278,11.518 C16.578,11.177 18.138,11.224 19.555,12.168 C20.57,12.845 21.339,14.12 21.494,15.515 C21.656,16.969 21.151,18.559 19.624,19.781 C18.546,20.643 16.903,20.976 15.391,21.097 C13.826,21.223 12.173,21.137 10.89,20.994 C8.512,20.73 6.686,20.066 5.41,19.381 C4.573,18.931 3.428,18.309 3.065,17.356 C2.82,16.71 2.884,15.926 2.944,15.254 C3.024,14.373 3.22,13.273 3.587,12.081 C4.319,9.702 5.752,6.887 8.363,4.729 C9.166,4.065 10.51,3.653 11.635,3.515 C12.215,3.444 12.825,3.434 13.362,3.536 Z M11.879,5.5 C10.924,5.617 10.019,5.956 9.637,6.27 C7.409,8.112 6.151,10.547 5.498,12.67 C5.217,13.569 5.028,14.495 4.936,15.433 C4.902,15.816 4.871,16.217 4.929,16.6 C5.312,17.034 5.854,17.349 6.357,17.619 C7.408,18.184 8.987,18.77 11.11,19.006 C12.312,19.14 13.83,19.216 15.23,19.104 C16.683,18.987 17.797,18.682 18.375,18.219 C19.349,17.44 19.595,16.531 19.506,15.735 C19.411,14.879 18.93,14.155 18.446,13.832 C17.611,13.276 16.671,13.22 15.785,13.452 C14.873,13.692 14.124,14.212 13.77,14.638 C13.59,14.855 13.328,14.986 13.047,14.999 C12.766,15.012 12.492,14.906 12.293,14.707 C11.743,14.157 10.808,13.997 9.555,14.832 C9.277,15.017 8.926,15.052 8.617,14.924 C8.309,14.797 8.084,14.523 8.019,14.196 C7.733,12.762 7.882,11.238 8.146,9.981 C8.412,8.722 8.812,7.639 9.106,7.053 C9.276,6.715 9.622,6.501 10,6.501 C10.378,6.501 10.724,6.715 10.894,7.053 C11.097,7.457 11.468,7.819 11.9,7.971 C12.235,7.76 12.526,7.465 12.762,7.15 C13.196,6.572 13.341,6.025 13.148,5.542 C12.756,5.402 12.281,5.451 11.878,5.5 Z"/>
</svg>

