<svg xmlns="http://www.w3.org/2000/svg" width="24" height="24">
  <defs/>
  <path  d="M13.362,3.536 C13.846,3.629 14.553,3.871 14.894,4.553 C15.641,6.047 15.024,7.467 14.362,8.35 C13.93,8.926 13.374,9.468 12.727,9.8 C12.592,9.87 12.317,10 12,10 C11.409,10 10.83,9.731 10.355,9.395 C10.265,9.701 10.178,10.037 10.103,10.393 C9.955,11.076 9.874,11.772 9.863,12.471 C10.916,12.131 11.993,12.167 12.921,12.691 C13.618,12.143 14.42,11.743 15.278,11.518 C16.578,11.177 18.138,11.224 19.555,12.168 C20.57,12.845 21.339,14.12 21.494,15.515 C21.656,16.969 21.151,18.559 19.624,19.781 C18.546,20.643 16.903,20.976 15.391,21.097 C13.826,21.223 12.173,21.137 10.89,20.994 C8.512,20.73 6.686,20.066 5.41,19.381 C4.573,18.931 3.428,18.309 3.065,17.356 C2.82,16.71 2.884,15.926 2.944,15.254 C3.024,14.373 3.22,13.273 3.587,12.081 C4.319,9.702 5.752,6.887 8.363,4.729 C9.166,4.065 10.51,3.653 11.635,3.515 C12.215,3.444 12.825,3.434 13.362,3.536 Z"/>
</svg>

