<svg xmlns="http://www.w3.org/2000/svg" width="24" height="24">
  <defs/>
  <path  d="M4,4.982 C4,4.002 4.554,3.105 5.431,2.666 L5.715,2.524 C7.788,1.487 10.247,1.582 12.235,2.774 C13.431,3.492 14.881,3.652 16.205,3.211 L19.494,2.115 C19.889,1.984 20.325,2.086 20.619,2.381 C20.914,2.675 21.016,3.111 20.885,3.506 L19.065,8.969 L20.889,13.53 C21.002,13.811 20.993,14.126 20.866,14.401 C20.738,14.676 20.503,14.886 20.216,14.982 L16.838,16.108 C14.96,16.734 12.903,16.508 11.206,15.49 C9.805,14.649 8.071,14.582 6.609,15.313 L6,15.618 L6,21 C6,21.552 5.552,22 5,22 C4.448,22 4,21.552 4,21 L4,4.982 Z"/>
</svg>

