<svg xmlns="http://www.w3.org/2000/svg" width="24" height="24">
  <defs/>
  <path  d="M4,4.982 C4,4.002 4.554,3.105 5.431,2.666 C7.607,1.578 10.105,1.497 12.235,2.775 C13.431,3.493 14.881,3.652 16.205,3.211 L19.494,2.115 C19.889,1.984 20.324,2.087 20.618,2.381 C20.913,2.675 21.016,3.11 20.885,3.505 L19.065,8.969 L20.889,13.53 C21.002,13.811 20.993,14.126 20.866,14.401 C20.738,14.676 20.503,14.886 20.216,14.982 L16.838,16.108 C14.96,16.734 12.903,16.508 11.206,15.49 C9.805,14.649 8.071,14.582 6.609,15.313 L6,15.618 L6,21 C6,21.552 5.552,22 5,22 C4.448,22 4,21.552 4,21 L4,4.982 Z M11.206,4.49 C9.659,3.562 7.893,3.672 6.326,4.455 C6.126,4.555 6,4.759 6,4.982 L6,13.39 C8.018,12.496 10.345,12.639 12.237,13.775 C13.433,14.493 14.883,14.652 16.207,14.211 L18.679,13.387 L17.14,9.541 C17.008,9.212 16.998,8.846 17.11,8.51 L18.418,4.581 L16.838,5.108 C14.96,5.734 12.903,5.508 11.206,4.49 Z"/>
</svg>

