<svg xmlns="http://www.w3.org/2000/svg" width="24" height="24">
  <defs/>
  <path  d="M7.747,5.592 C8.85,4.333 10.081,3.192 11.419,2.186 C11.767,1.938 12.233,1.938 12.581,2.186 C13.915,3.196 15.145,4.337 16.253,5.592 C18.584,8.256 20,11.088 20,14 C20,18.418 16.418,22 12,22 C7.582,22 4,18.418 4,14 C4,11.088 5.415,8.257 7.747,5.592 Z M12.443,4.634 C12.297,4.509 12.15,4.386 12,4.265 L11.557,4.635 C10.736,5.337 9.966,6.097 9.253,6.909 C7.21,9.243 6,11.663 6,14 C6,15.429 6.5,16.74 7.333,17.77 C7.318,17.616 7.31,17.461 7.31,17.306 C7.31,15.633 8.106,14.041 9.405,12.556 C10.005,11.871 10.685,11.225 11.423,10.686 C11.771,10.437 12.238,10.437 12.586,10.686 C13.326,11.216 14.006,11.873 14.604,12.556 C15.904,14.041 16.699,15.633 16.699,17.306 C16.699,17.458 16.692,17.609 16.677,17.758 C17.535,16.694 18.002,15.367 18,14 C18,11.662 16.79,9.243 14.747,6.909 C14.034,6.097 13.264,5.337 12.443,4.634 Z M10.91,13.874 C9.9,15.028 9.31,16.208 9.31,17.306 C9.31,18.794 10.516,20 12.005,20 C13.493,20 14.699,18.794 14.699,17.306 C14.699,16.208 14.109,15.028 13.099,13.874 C12.916,13.664 12.036,12.82 12.004,12.786 C11.619,13.128 11.249,13.486 10.91,13.874 Z"/>
</svg>

