<svg xmlns="http://www.w3.org/2000/svg" width="24" height="24">
  <defs/>
  <path  d="M7.747,5.592 C8.85,4.333 10.081,3.192 11.419,2.186 C11.767,1.938 12.233,1.938 12.581,2.186 C13.915,3.196 15.145,4.337 16.253,5.592 C18.584,8.256 20,11.088 20,14 C20,18.418 16.418,22 12,22 C7.582,22 4,18.418 4,14 C4,11.088 5.415,8.257 7.747,5.592 Z M12.005,21 C14.045,21 15.699,19.346 15.699,17.306 C15.699,14.139 12.005,11.5 12.005,11.5 C12.005,11.5 8.31,14.139 8.31,17.306 C8.31,19.346 9.964,21 12.004,21 Z"/>
</svg>

