<svg xmlns="http://www.w3.org/2000/svg" width="24" height="24">
  <defs/>
  <path  d="M9,4 L8,4 C7.448,4 7,3.552 7,3 C7,2.448 7.448,2 8,2 L16,2 C16.552,2 17,2.448 17,3 C17,3.552 16.552,4 16,4 L15,4 L15,9.631 L20.227,17.312 C21.582,19.304 20.155,22 17.747,22 L6.253,22 C3.843,22 2.417,19.304 3.773,17.312 L9,9.632 Z M13,4 L11,4 L11,9.631 C11,10.032 10.879,10.424 10.653,10.756 L5.427,18.437 C5.218,18.743 5.196,19.14 5.37,19.468 C5.543,19.795 5.883,20 6.254,20 L17.746,20 C18.117,20 18.457,19.795 18.63,19.468 C18.804,19.14 18.782,18.743 18.573,18.437 L13.346,10.757 C13.12,10.425 12.999,10.032 13,9.63 Z"/>
</svg>

