<svg xmlns="http://www.w3.org/2000/svg" width="24" height="24">
  <defs/>
  <path  d="M13.232,1.36 C13.864,0.602 15.095,1.12 14.995,2.102 L14.289,9 L20,9 C20.388,9 20.741,9.225 20.905,9.576 C21.07,9.927 21.016,10.342 20.768,10.64 L10.768,22.64 C10.136,23.398 8.905,22.88 9.005,21.898 L9.711,15 L4,15 C3.612,15 3.259,14.775 3.095,14.424 C2.93,14.073 2.984,13.658 3.232,13.36 Z M6.135,13 L11.483,13 C11.596,13 11.704,13.048 11.78,13.132 C11.855,13.216 11.892,13.328 11.881,13.44 L11.328,18.845 L17.865,11 L12.517,11 C12.404,11 12.296,10.952 12.22,10.868 C12.145,10.784 12.108,10.672 12.119,10.56 L12.672,5.156 Z"/>
</svg>

