<svg xmlns="http://www.w3.org/2000/svg" width="24" height="24" viewBox="0 0 24 24">
  <defs/>
  <path  d="M12,2 C17.523,2 22,6.477 22,12 C22,17.523 17.523,22 12,22 C6.477,22 2,17.523 2,12 C2,6.477 6.477,2 12,2 M12,4 C7.582,4 4,7.582 4,12 C4,16.418 7.582,20 12,20 C16.418,20 20,16.418 20,12 C20,7.582 16.418,4 12,4 M12.2,6.4 C12.457,6.057 12.904,5.916 13.311,6.05 C13.718,6.183 13.995,6.561 14,6.989 L13.994,7.111 L13.64,10.296 L15.336,10.014 C15.715,9.951 16.096,10.111 16.317,10.425 C16.538,10.739 16.56,11.152 16.373,11.487 L16.3,11.6 L11.8,17.6 C11.543,17.943 11.096,18.084 10.689,17.95 C10.282,17.817 10.005,17.439 10,17.011 L10.006,16.89 L10.36,13.704 L8.664,13.986 C8.285,14.049 7.904,13.889 7.683,13.575 C7.462,13.261 7.44,12.848 7.627,12.513 L7.7,12.4 L12.2,6.4 Z"/>
</svg>

