<svg xmlns="http://www.w3.org/2000/svg" width="24" height="24" viewBox="0 0 24 24">
  <defs/>
  <path  d="M12,2 C17.523,2 22,6.477 22,12 C22,17.523 17.523,22 12,22 C6.477,22 2,17.523 2,12 C2,6.477 6.477,2 12,2 Z M12.333,6.5 L7.833,12.5 C7.644,12.753 7.613,13.09 7.754,13.373 C7.896,13.655 8.184,13.833 8.5,13.833 L10.556,13.833 L10.173,16.896 C10.125,17.272 10.336,17.632 10.687,17.774 C11.038,17.916 11.441,17.804 11.667,17.5 L16.167,11.5 C16.356,11.247 16.387,10.91 16.246,10.627 C16.104,10.345 15.816,10.167 15.5,10.167 L13.444,10.167 L13.827,7.103 C13.875,6.728 13.663,6.367 13.312,6.226 C12.962,6.084 12.559,6.197 12.333,6.5 Z"/>
</svg>

