<svg xmlns="http://www.w3.org/2000/svg" width="24" height="24">
  <defs/>
  <path  d="M4.139,3 L18.5,3 C19.328,3 20,3.672 20,4.5 L20,18 C20,19.657 18.657,21 17,21 L7,21 C5.343,21 4,19.657 4,18 L4,7.162 L3.095,4.448 C2.983,4.112 3.039,3.744 3.246,3.457 C3.453,3.17 3.785,3 4.139,3 Z M9.999,16 L6,16 L6,18 C6,18.552 6.448,19 7,19 L17,19 C17.552,19 18,18.552 18,18 L18,5 L5.387,5 L5.898,6.53 C5.966,6.734 6,6.947 6,7.162 L6,8 L10,8 C10.552,8 11,8.448 11,9 C11,9.552 10.552,10 10,10 L6,10 L6,11 L10,11 C10.552,11 11,11.448 11,12 C11,12.552 10.552,13 10,13 L6,13 L6,14 L9.999,14 C10.551,14 10.999,14.448 10.999,15 C10.999,15.552 10.551,16 9.999,16 Z"/>
</svg>

