<svg xmlns="http://www.w3.org/2000/svg" width="24" height="24">
  <defs/>
  <path  d="M4.139,3 L18.5,3 C19.328,3 20,3.672 20,4.5 L20,18 C20,19.657 18.657,21 17,21 L7,21 C5.343,21 4,19.657 4,18 L4,7.162 L3.095,4.448 C2.983,4.112 3.039,3.744 3.246,3.457 C3.453,3.17 3.785,3 4.139,3 Z M5.999,16 L9.999,16 C10.551,16 10.999,15.552 10.999,15 C10.999,14.448 10.551,14 9.999,14 L5.999,14 Z M9.999,8 L6,8 L6,10 L9.999,10 C10.551,10 10.999,9.552 10.999,9 C10.999,8.448 10.551,8 9.999,8 Z M9.999,11 L6,11 L6,13 L9.999,13 C10.551,13 10.999,12.552 10.999,12 C10.999,11.448 10.551,11 9.999,11 Z"/>
</svg>

