<svg xmlns="http://www.w3.org/2000/svg" width="24" height="24">
  <defs/>
  <path  d="M8,3 C8,2.448 8.448,2 9,2 L15,2 C15.552,2 16,2.448 16,3 C16,3.552 15.552,4 15,4 L15,8.633 C15,8.635 15.003,8.641 15.01,8.65 C15.023,8.67 15.051,8.698 15.094,8.72 C18.013,10.158 19.556,13.418 18.818,16.588 C18.08,19.757 15.255,21.999 12,21.999 C8.746,21.999 5.921,19.757 5.183,16.588 C4.445,13.418 5.988,10.158 8.907,8.72 C8.94,8.704 8.969,8.68 8.991,8.65 C8.995,8.645 8.998,8.639 9,8.633 L9,4 C8.448,4 8,3.552 8,3 Z M11,4 L11,8.634 C11,9.503 10.45,10.187 9.791,10.513 C8.404,11.197 7.41,12.484 7.1,14 L16.9,14 C16.59,12.484 15.596,11.197 14.209,10.513 C13.549,10.187 13,9.503 13,8.634 L13,4 Z"/>
</svg>

