<svg xmlns="http://www.w3.org/2000/svg" width="24" height="24">
  <defs/>
  <path  d="M18.9,2 A1.1 1.1 0 0 1 20,3.1 L20,5 A7 7 0 0 1 16,11.326 L16,20 A2 2 0 0 1 14,22 L10,22 A2 2 0 0 1 8,20 L8,11.326 A7 7 0 0 1 4,5 L4,3.1 A1.1 1.1 0 0 1 5.1,2 Z M17.584,7 L6.416,7 A5.016 5.016 0 0 0 9.278,9.696 A1.1 1.1 0 0 1 10,10.729 L10,20 L14,20 L14,10.73 C14,10.26 14.296,9.852 14.722,9.696 A5.016 5.016 0 0 0 17.584,7 M12,11 A1 1 0 0 1 13,12 L13,14 A1 1 0 1 1 11,14 L11,12 A1 1 0 0 1 12,11 M18,4 L6,4 L6,5 L18,5 Z"/>
</svg>

