<svg xmlns="http://www.w3.org/2000/svg" width="24" height="24">
  <defs/>
  <path  d="M7.262,3.772 C7.601,3.681 7.962,3.737 8.258,3.926 L8.38,4.015 L14.564,9.106 L18.396,8.414 C19.756,8.168 21.146,8.65 22.063,9.684 C22.52,10.199 22.714,10.881 22.488,11.549 C22.14,12.577 21.332,13.383 20.304,13.729 L20.097,13.792 L5.02,17.832 C4.632,17.936 4.219,17.82 3.941,17.53 L3.855,17.428 L0.678,13.182 C0.49,12.931 0.429,12.607 0.513,12.305 C0.598,12.003 0.817,11.757 1.108,11.64 L1.226,11.601 L3.496,10.993 C3.853,10.897 4.233,10.964 4.536,11.176 L4.646,11.261 L5.442,11.961 L7.837,11.025 L3.97,6.112 C3.773,5.862 3.706,5.533 3.788,5.225 C3.871,4.918 4.094,4.667 4.39,4.549 L4.503,4.512 Z M7.406,5.804 L6.471,6.054 L10.234,10.838 C10.627,11.337 10.464,12.058 9.921,12.35 L9.808,12.403 L5.608,14.043 C5.298,14.164 4.948,14.125 4.673,13.938 L4.574,13.861 L3.627,13.028 L3.156,13.155 L5.091,15.742 L19.58,11.86 C20.024,11.741 20.385,11.423 20.56,11.002 C20.146,10.54 19.538,10.302 18.92,10.359 L18.753,10.382 L14.469,11.156 C14.22,11.201 13.964,11.151 13.75,11.016 L13.648,10.941 L7.408,5.804 Z M21,20 C21.529,20.001 21.966,20.413 21.997,20.941 C22.028,21.47 21.642,21.931 21.117,21.993 L21,22 L3,22 C2.471,21.999 2.034,21.587 2.003,21.059 C1.972,20.53 2.358,20.069 2.883,20.007 L3,20 Z"/>
</svg>

