<svg xmlns="http://www.w3.org/2000/svg" width="24" height="24">
  <defs/>
  <path  d="M1.598,9.63 L3.279,9.63 C3.781,9.63 4.249,9.88 4.527,10.297 L5.083,11.128 L9.568,10.631 A0.01 0.01 0 0 0 9.576,10.617 L6.502,3.835 A0.5 0.5 0 0 1 6.958,3.129 L8.913,3.129 A1.5 1.5 0 0 1 10.131,3.753 L15.082,10.629 L19.72,10.986 A3 3 0 0 1 22.276,12.863 L22.42,13.224 A0.971 0.971 0 0 1 22.387,14.019 A2.913 2.913 0 0 1 19.782,15.629 L4.13,15.629 A1.5 1.5 0 0 1 2.721,14.645 L1.128,10.302 A0.5 0.5 0 0 1 1.598,9.63 M3,20 A1 1 0 1 0 3,22 L21,22 A1 1 0 1 0 21,20 Z"/>
</svg>

