<svg xmlns="http://www.w3.org/2000/svg" width="24" height="24">
  <defs/>
  <path  d="M21,20 A1 1 0 0 1 21.117,21.993 L21,22 L3,22 A1 1 0 0 1 2.883,20.007 L3,20 Z M7.93,4.177 L14.493,9.537 L19.066,8.682 A3 3 0 0 1 22.019,9.834 L22.181,10.053 C22.361,10.31 22.497,10.577 22.426,10.921 A2.913 2.913 0 0 1 20.326,13.151 L5.208,17.2 A1.5 1.5 0 0 1 3.594,16.615 L0.93,12.833 A0.5 0.5 0 0 1 1.21,12.063 L2.833,11.627 A1.5 1.5 0 0 1 4.212,11.949 L4.958,12.605 L4.968,12.607 L9.168,10.967 A0.01 0.01 0 0 0 9.172,10.951 L4.447,5.196 A0.5 0.5 0 0 1 4.704,4.396 L6.594,3.89 A1.5 1.5 0 0 1 7.93,4.177"/>
</svg>

