<svg xmlns="http://www.w3.org/2000/svg" width="24" height="24">
  <defs/>
  <path  d="M22.567,14.453 L22.566,14.453 C21.922,15.42 20.837,16 19.676,16 L4.067,16 C3.618,16 3.214,15.726 3.047,15.309 L1.077,10.385 C0.953,10.074 0.991,9.721 1.179,9.444 C1.366,9.166 1.68,9 2.015,9 L4.366,9 C4.784,9 5.174,9.209 5.406,9.557 L5.994,10.439 L8.55,10.155 L6.087,4.408 C5.953,4.096 5.985,3.738 6.172,3.454 C6.359,3.171 6.676,3 7.015,3 L9.871,3 C10.275,3 10.653,3.195 10.888,3.523 L15.545,10.042 L19.425,10.365 C20.802,10.48 22.02,11.305 22.638,12.541 L22.68,12.625 C22.973,13.21 22.93,13.908 22.567,14.453 Z M19.259,12.358 L14.922,11.997 C14.626,11.972 14.356,11.818 14.184,11.578 L9.486,5 L8.516,5 L10.914,10.594 C11.04,10.888 11.019,11.224 10.858,11.5 C10.696,11.776 10.414,11.96 10.096,11.995 L5.616,12.493 C5.241,12.535 4.874,12.364 4.665,12.05 L3.965,11 L3.476,11 L4.676,14 L19.676,14 C20.133,14 20.565,13.788 20.844,13.425 C20.537,12.818 19.937,12.415 19.259,12.358 Z M3,20 L21,20 C21.552,20 22,20.448 22,21 C22,21.552 21.552,22 21,22 L3,22 C2.448,22 2,21.552 2,21 C2,20.448 2.448,20 3,20 Z"/>
</svg>

