<svg xmlns="http://www.w3.org/2000/svg" width="24" height="24">
  <defs/>
  <path  d="M8.103,3.205 C8.057,2.889 8.164,2.569 8.391,2.344 C8.618,2.119 8.938,2.014 9.254,2.062 L9.364,2.086 L12.124,2.825 C12.47,2.918 12.758,3.155 12.917,3.471 L12.97,3.594 L15.78,11.095 L19.445,12.412 C20.746,12.879 21.709,13.991 21.986,15.345 C22.124,16.019 21.952,16.708 21.422,17.173 C20.607,17.89 19.504,18.184 18.44,17.969 L18.23,17.919 L3.153,13.879 C2.761,13.774 2.458,13.462 2.366,13.067 L2.346,12.947 L1.717,7.682 C1.68,7.37 1.79,7.058 2.016,6.838 C2.241,6.619 2.556,6.517 2.867,6.563 L2.982,6.587 L5.252,7.196 C5.612,7.292 5.907,7.542 6.062,7.874 L6.113,8.003 L6.453,9.007 L8.995,9.394 Z M10.297,4.406 L11.165,10.43 C11.208,10.726 11.117,11.026 10.917,11.248 C10.717,11.471 10.429,11.593 10.13,11.583 L10.013,11.573 L5.557,10.893 C5.228,10.843 4.944,10.634 4.799,10.334 L4.752,10.219 L4.348,9.024 L3.876,8.897 L4.259,12.106 L18.747,15.988 C19.191,16.107 19.663,16.012 20.024,15.735 C19.895,15.124 19.483,14.61 18.914,14.353 L18.769,14.294 L14.673,12.822 C14.435,12.737 14.238,12.566 14.12,12.342 L14.069,12.226 L11.233,4.656 Z M21,20 C21.529,20.001 21.966,20.413 21.997,20.941 C22.028,21.47 21.642,21.931 21.117,21.993 L21,22 L3,22 C2.471,21.999 2.034,21.587 2.003,21.059 C1.972,20.53 2.358,20.069 2.883,20.007 L3,20 Z"/>
</svg>

