<svg xmlns="http://www.w3.org/2000/svg" width="24" height="24">
  <defs/>
  <path  d="M5.47,3.106 L18.793,7.864 C19.955,8.279 19.657,10 18.423,10 L5.1,10 C4.492,10 4,9.508 4,8.9 L4,4.142 C4,3.784 4.174,3.449 4.466,3.243 C4.759,3.037 5.133,2.986 5.47,3.106 Z M18.423,14 C19.657,14 19.955,15.72 18.793,16.136 L5.47,20.894 C5.133,21.014 4.759,20.963 4.466,20.757 C4.174,20.551 4,20.216 4,19.858 L4,15.1 C4,14.492 4.492,14 5.1,14 Z M21,11 C21.552,11 22,11.448 22,12 C22,12.552 21.552,13 21,13 L3,13 C2.448,13 2,12.552 2,12 C2,11.448 2.448,11 3,11 Z"/>
</svg>

