<svg xmlns="http://www.w3.org/2000/svg" width="24" height="24">
  <defs/>
  <path  d="M7.864,5.207 C8.28,4.045 10,4.343 10,5.577 L10,18.9 C10,19.508 9.508,20 8.9,20 L4.142,20 C3.784,20 3.449,19.826 3.243,19.534 C3.037,19.241 2.986,18.867 3.106,18.53 Z M14,5.577 C14,4.343 15.72,4.045 16.136,5.207 L20.894,18.53 C21.014,18.867 20.963,19.241 20.757,19.534 C20.551,19.826 20.216,20 19.858,20 L15.1,20 C14.492,20 14,19.508 14,18.9 Z M12,2 C12.552,2 13,2.448 13,3 L13,21 C13,21.552 12.552,22 12,22 C11.448,22 11,21.552 11,21 L11,3 C11,2.448 11.448,2 12,2 Z"/>
</svg>

