<svg xmlns="http://www.w3.org/2000/svg" width="24" height="24">
  <defs/>
  <path  d="M2.5,9 C2.5,8.172 3.172,7.5 4,7.5 L12.5,7.5 C13.328,7.5 14,8.172 14,9 C14,9.828 13.328,10.5 12.5,10.5 L4,10.5 C3.172,10.5 2.5,9.828 2.5,9 Z M10,14 C10,13.172 10.672,12.5 11.5,12.5 L20,12.5 C20.828,12.5 21.5,13.172 21.5,14 C21.5,14.828 20.828,15.5 20,15.5 L11.5,15.5 C10.672,15.5 10,14.828 10,14 Z M10,4 C10,3.172 10.672,2.5 11.5,2.5 L20,2.5 C20.828,2.5 21.5,3.172 21.5,4 C21.5,4.828 20.828,5.5 20,5.5 L11.5,5.5 C10.672,5.5 10,4.828 10,4 Z M2.5,19 C2.5,18.172 3.172,17.5 4,17.5 L12.5,17.5 C13.328,17.5 14,18.172 14,19 C14,19.828 13.328,20.5 12.5,20.5 L4,20.5 C3.172,20.5 2.5,19.828 2.5,19 Z M4.5,14 C4.5,13.172 5.172,12.5 6,12.5 L7.5,12.5 C8.328,12.5 9,13.172 9,14 C9,14.828 8.328,15.5 7.5,15.5 L6,15.5 C5.172,15.5 4.5,14.828 4.5,14 Z M4.5,4 C4.5,3.172 5.172,2.5 6,2.5 L7.5,2.5 C8.328,2.5 9,3.172 9,4 C9,4.828 8.328,5.5 7.5,5.5 L6,5.5 C5.172,5.5 4.5,4.828 4.5,4 Z M15,9 C15,8.172 15.672,7.5 16.5,7.5 L18,7.5 C18.828,7.5 19.5,8.172 19.5,9 C19.5,9.828 18.828,10.5 18,10.5 L16.5,10.5 C15.672,10.5 15,9.828 15,9 Z M15,19 C15,18.172 15.672,17.5 16.5,17.5 L18,17.5 C18.828,17.5 19.5,18.172 19.5,19 C19.5,19.828 18.828,20.5 18,20.5 L16.5,20.5 C15.672,20.5 15,19.828 15,19 Z"/>
</svg>

