<svg xmlns="http://www.w3.org/2000/svg" width="24" height="24">
  <defs/>
  <path  d="M3,9 C3,8.448 3.448,8 4,8 L13,8 C13.552,8 14,8.448 14,9 C14,9.552 13.552,10 13,10 L4,10 C3.448,10 3,9.552 3,9 Z M10,14 C10,13.448 10.448,13 11,13 L20,13 C20.552,13 21,13.448 21,14 C21,14.552 20.552,15 20,15 L11,15 C10.448,15 10,14.552 10,14 Z M10,4 C10,3.448 10.448,3 11,3 L20,3 C20.552,3 21,3.448 21,4 C21,4.552 20.552,5 20,5 L11,5 C10.448,5 10,4.552 10,4 Z M3,19 C3,18.448 3.448,18 4,18 L13,18 C13.552,18 14,18.448 14,19 C14,19.552 13.552,20 13,20 L4,20 C3.448,20 3,19.552 3,19 Z M5,14 C5,13.448 5.448,13 6,13 L8,13 C8.552,13 9,13.448 9,14 C9,14.552 8.552,15 8,15 L6,15 C5.448,15 5,14.552 5,14 Z M15,9 C15,8.448 15.448,8 16,8 L18,8 C18.552,8 19,8.448 19,9 C19,9.552 18.552,10 18,10 L16,10 C15.448,10 15,9.552 15,9 Z M5,4 C5,3.448 5.448,3 6,3 L8,3 C8.552,3 9,3.448 9,4 C9,4.552 8.552,5 8,5 L6,5 C5.448,5 5,4.552 5,4 Z M15,19 C15,18.448 15.448,18 16,18 L18,18 C18.552,18 19,18.448 19,19 C19,19.552 18.552,20 18,20 L16,20 C15.448,20 15,19.552 15,19 Z"/>
</svg>

