<svg xmlns="http://www.w3.org/2000/svg" width="24" height="24">
  <defs/>
  <path  d="M10.24,3.209 A5.35 5.35 0 0 1 12.06,4.463 A5.865 5.865 0 0 1 13.865,3.253 C14.862,2.84 16.005,2.766 17,3.34 C17.994,3.914 18.503,4.942 18.644,6.011 C18.734,6.699 18.682,7.439 18.497,8.181 A5.34 5.34 0 0 1 20.493,9.128 C21.373,9.812 22,10.816 22,12 C22,13.178 21.38,14.178 20.507,14.86 A5.317 5.317 0 0 1 18.579,15.799 C18.776,16.52 18.829,17.252 18.731,17.937 C18.575,19.034 18.021,20.071 17.001,20.66 C15.974,21.253 14.791,21.21 13.76,20.791 A5.346 5.346 0 0 1 11.941,19.537 C11.391,20.067 10.776,20.483 10.135,20.747 C9.138,21.16 7.995,21.234 7,20.66 C6.006,20.086 5.498,19.058 5.356,17.989 A5.864 5.864 0 0 1 5.503,15.819 A5.346 5.346 0 0 1 3.507,14.872 C2.627,14.188 2,13.185 2,12 C2,10.822 2.62,9.823 3.493,9.14 A5.316 5.316 0 0 1 5.42,8.2 A5.316 5.316 0 0 1 5.268,6.062 C5.425,4.966 5.979,3.929 7,3.34 C8.026,2.748 9.209,2.79 10.24,3.209 M12,8 A4 4 0 1 0 12,16 A4 4 0 0 0 12,8 M12,10 A2 2 0 1 1 12,14 A2 2 0 0 1 12,10"/>
</svg>

