<svg xmlns="http://www.w3.org/2000/svg" width="24" height="24">
  <defs/>
  <path  d="M10.586,2.5 C11.367,1.719 12.633,1.719 13.414,2.5 L15.046,4.132 C15.26,3.832 15.466,3.528 15.668,3.227 C15.721,3.147 15.774,3.061 15.829,2.974 C16.162,2.436 16.535,1.834 17.267,2.037 C17.7,2.157 18,2.551 18,3 L18,9 C18,11.928 15.887,14.428 13,14.917 L13,18.917 C14.932,18.59 16.582,17.341 17.423,15.571 C17.66,15.072 18.257,14.86 18.756,15.097 C19.254,15.333 19.467,15.93 19.23,16.429 C18.059,18.897 15.71,20.598 13,20.94 C13,21.506 12.593,22.001 12,22.001 C11.407,22.001 11,21.506 11,20.939 C8.29,20.597 5.942,18.897 4.77,16.43 C4.533,15.931 4.746,15.334 5.245,15.097 C5.743,14.861 6.34,15.073 6.577,15.572 C7.418,17.341 9.068,18.59 11,18.917 L11,14.917 C8.113,14.428 6,11.928 6,9 L6,3 C6,2.55 6.3,2.156 6.733,2.036 C7.462,1.834 7.841,2.442 8.175,2.978 C8.228,3.063 8.281,3.147 8.333,3.226 C8.533,3.528 8.74,3.832 8.954,4.132 Z M10.218,5.696 C10.63,6.133 11.352,7 12,7 C12.648,7 13.37,6.133 13.782,5.696 L12,3.914 Z"/>
</svg>

