<svg xmlns="http://www.w3.org/2000/svg" width="24" height="24">
  <defs/>
  <path  d="M7,3.34 C8.026,2.748 9.209,2.79 10.24,3.209 C10.927,3.496 11.547,3.923 12.06,4.463 C12.581,3.951 13.193,3.54 13.865,3.253 C14.862,2.84 16.005,2.766 17,3.34 C17.994,3.914 18.503,4.942 18.644,6.011 C18.734,6.699 18.682,7.439 18.497,8.181 C19.221,8.354 19.901,8.677 20.493,9.128 C21.373,9.812 22,10.816 22,12 C22,13.178 21.38,14.178 20.507,14.86 C19.935,15.301 19.279,15.62 18.579,15.799 C18.776,16.52 18.829,17.252 18.731,17.937 C18.575,19.034 18.021,20.071 17.001,20.66 C15.974,21.253 14.791,21.21 13.76,20.791 C13.073,20.504 12.453,20.077 11.941,19.537 C11.391,20.067 10.776,20.483 10.135,20.747 C9.138,21.16 7.995,21.234 7,20.66 C6.006,20.086 5.498,19.058 5.356,17.989 C5.269,17.263 5.319,16.527 5.503,15.819 C4.779,15.646 4.099,15.323 3.507,14.872 C2.627,14.188 2,13.185 2,12 C2,10.822 2.62,9.823 3.493,9.14 C4.065,8.699 4.72,8.379 5.42,8.2 C5.225,7.505 5.173,6.778 5.268,6.062 C5.425,4.966 5.979,3.929 7,3.34 Z M9.487,5.06 C8.89,4.82 8.375,4.855 8,5.071 C7.627,5.287 7.339,5.711 7.249,6.344 C7.168,6.915 7.261,7.609 7.579,8.303 L7.693,8.534 L8.443,9.947 L6.845,10.003 C5.974,10.033 5.231,10.318 4.726,10.713 C4.224,11.108 4,11.57 4,12 C4,12.433 4.226,12.898 4.734,13.293 C5.198,13.653 5.86,13.921 6.636,13.985 L6.873,13.998 L8.373,14.041 L7.755,15.409 C7.371,16.26 7.255,17.084 7.339,17.727 C7.424,18.372 7.692,18.75 8,18.928 C8.308,19.106 8.77,19.148 9.37,18.9 C9.91,18.676 10.495,18.238 11.004,17.6 L11.17,17.38 L12.046,16.162 L12.833,17.44 C13.294,18.187 13.915,18.695 14.513,18.939 C15.11,19.181 15.625,19.145 16,18.929 C16.373,18.713 16.661,18.289 16.751,17.656 C16.832,17.085 16.739,16.391 16.421,15.697 L16.307,15.466 L15.557,14.054 L17.155,13.997 C18.026,13.967 18.769,13.682 19.274,13.287 C19.776,12.893 20,12.431 20,12 C20,11.567 19.774,11.102 19.266,10.707 C18.802,10.347 18.14,10.08 17.364,10.015 L17.128,10.002 L15.628,9.959 L16.245,8.591 C16.629,7.741 16.745,6.917 16.661,6.273 C16.576,5.628 16.308,5.25 16,5.072 C15.692,4.894 15.23,4.852 14.63,5.1 C14.09,5.324 13.505,5.762 12.997,6.4 L12.83,6.62 L11.954,7.838 L11.167,6.56 C10.706,5.813 10.085,5.305 9.487,5.061 Z M12,8 C14.209,8 16,9.791 16,12 C16,14.209 14.209,16 12,16 C9.791,16 8,14.209 8,12 C8,9.791 9.791,8 12,8 Z M12,10 C10.895,10 10,10.895 10,12 C10,13.105 10.895,14 12,14 C13.105,14 14,13.105 14,12 C14,10.895 13.105,10 12,10 Z"/>
</svg>

