<svg xmlns="http://www.w3.org/2000/svg" width="24" height="24">
  <defs/>
  <path  d="M4.177,7.945 C4.145,7.77 4.123,7.594 4.11,7.417 C4.048,6.532 4.25,5.607 4.929,4.929 C5.899,3.959 7.337,3.961 8.569,4.326 C8.666,4.355 8.763,4.386 8.86,4.42 L9.035,4.483 C10.398,4.997 10.585,6.343 10.585,6.343 C10.925,5.325 10.613,4.306 9.335,3.601 C9.439,3.453 9.548,3.312 9.662,3.181 C10.244,2.51 11.04,2 12,2 C13.372,2 14.387,3.018 15,4.148 C15.048,4.236 15.095,4.328 15.14,4.42 L15.218,4.588 C15.82,5.916 15,7 15,7 C15.96,6.52 16.46,5.579 16.055,4.177 C16.233,4.145 16.409,4.123 16.583,4.11 C17.468,4.048 18.393,4.25 19.071,4.929 C20.041,5.899 20.039,7.337 19.674,8.569 C19.645,8.666 19.614,8.763 19.58,8.86 L19.517,9.035 C19.003,10.398 17.657,10.585 17.657,10.585 C18.675,10.925 19.694,10.613 20.399,9.335 C20.547,9.439 20.688,9.548 20.819,9.662 C21.49,10.244 22,11.04 22,12 C22,13.372 20.982,14.387 19.852,15 C19.764,15.048 19.672,15.095 19.58,15.14 L19.412,15.218 C18.084,15.82 17,15 17,15 C17.48,15.96 18.421,16.46 19.823,16.055 C19.855,16.233 19.877,16.409 19.89,16.583 C19.952,17.468 19.75,18.393 19.071,19.071 C18.101,20.041 16.663,20.039 15.431,19.674 C15.333,19.645 15.236,19.614 15.14,19.58 L14.965,19.517 C13.602,19.003 13.415,17.657 13.415,17.657 C13.075,18.675 13.387,19.694 14.665,20.399 C14.564,20.545 14.455,20.685 14.338,20.819 C13.757,21.49 12.96,22 12,22 C10.628,22 9.613,20.982 9,19.852 C8.951,19.762 8.905,19.672 8.86,19.58 L8.782,19.412 C8.18,18.084 9,17 9,17 C8.04,17.48 7.54,18.421 7.945,19.823 C7.77,19.855 7.594,19.877 7.417,19.89 C6.532,19.952 5.607,19.75 4.929,19.071 C3.959,18.101 3.961,16.663 4.326,15.431 C4.355,15.334 4.386,15.237 4.42,15.14 L4.483,14.965 C4.997,13.602 6.343,13.415 6.343,13.415 C5.325,13.075 4.306,13.387 3.601,14.665 C3.455,14.564 3.315,14.454 3.181,14.338 C2.51,13.756 2,12.96 2,12 C2,10.628 3.018,9.613 4.148,9 C4.236,8.952 4.328,8.905 4.42,8.86 L4.588,8.782 C5.916,8.18 7,9 7,9 C6.52,8.04 5.579,7.54 4.177,7.945 Z M12,13 C12.552,13 13,12.552 13,12 C13,11.448 12.552,11 12,11 C11.448,11 11,11.448 11,12 C11,12.552 11.448,13 12,13 Z"/>
</svg>

