<svg xmlns="http://www.w3.org/2000/svg" width="24" height="24">
  <defs/>
  <path  d="M8.57,4.326 C8.666,4.355 8.763,4.386 8.86,4.42 C9.085,3.956 9.353,3.536 9.662,3.18 C10.244,2.511 11.04,2 12,2 C13.372,2 14.387,3.018 15,4.148 C15.048,4.236 15.095,4.328 15.14,4.42 C15.605,4.254 16.09,4.15 16.583,4.11 C17.468,4.048 18.393,4.25 19.071,4.929 C20.041,5.899 20.039,7.337 19.674,8.569 C19.645,8.666 19.614,8.763 19.58,8.86 C20.044,9.085 20.464,9.353 20.82,9.662 C21.489,10.244 22,11.04 22,12 C22,13.372 20.982,14.387 19.852,15 C19.764,15.048 19.672,15.095 19.58,15.14 C19.749,15.626 19.857,16.113 19.89,16.583 C19.952,17.468 19.75,18.393 19.071,19.071 C18.101,20.041 16.663,20.039 15.431,19.674 C15.333,19.645 15.236,19.614 15.14,19.58 C14.928,20.027 14.659,20.444 14.338,20.82 C13.757,21.489 12.96,22 12,22 C10.628,22 9.613,20.982 9,19.852 C8.951,19.762 8.905,19.672 8.86,19.58 C8.395,19.746 7.91,19.851 7.417,19.89 C6.532,19.952 5.607,19.75 4.929,19.071 C3.959,18.101 3.961,16.663 4.326,15.431 C4.355,15.334 4.386,15.237 4.42,15.14 C3.973,14.928 3.556,14.659 3.18,14.338 C2.511,13.756 2,12.96 2,12 C2,10.628 3.018,9.613 4.148,9 C4.236,8.952 4.328,8.905 4.42,8.86 C4.254,8.395 4.15,7.91 4.11,7.417 C4.048,6.532 4.25,5.607 4.929,4.929 C5.899,3.959 7.337,3.961 8.569,4.326 Z M8.11,13.06 L8.111,13.061 C7.146,14.025 6.512,15.095 6.243,15.999 C5.963,16.949 6.142,17.455 6.343,17.657 C6.486,17.8 6.764,17.931 7.277,17.894 C7.601,17.866 7.919,17.796 8.224,17.684 C8.078,16.994 8,16.257 8,15.5 C8,14.339 8.198,13.31 8.724,12.517 C8.536,12.66 8.332,12.84 8.11,13.06 Z M10,15.5 C10,16.864 10.308,18.069 10.758,18.898 C11.23,19.768 11.715,20 12,20 C12.202,20 12.491,19.896 12.829,19.508 C13.038,19.259 13.213,18.984 13.349,18.689 C12.735,18.287 12.165,17.823 11.647,17.303 C10.826,16.482 10.238,15.615 10.049,14.682 C10.018,14.916 10,15.187 10,15.5 Z M10.939,8.112 L10.939,8.111 C9.975,7.146 8.905,6.512 8.001,6.243 C7.051,5.963 6.545,6.141 6.343,6.343 C6.2,6.486 6.07,6.764 6.106,7.277 C6.134,7.601 6.204,7.919 6.316,8.224 C7.006,8.078 7.743,8 8.5,8 C9.661,8 10.69,8.198 11.483,8.725 C11.339,8.537 11.161,8.333 10.939,8.112 Z M8.5,10 C7.136,10 5.931,10.308 5.102,10.758 C4.232,11.23 4,11.715 4,12 C4,12.201 4.104,12.49 4.492,12.829 C4.741,13.038 5.016,13.213 5.311,13.349 C5.713,12.735 6.177,12.165 6.697,11.647 C7.518,10.826 8.385,10.238 9.318,10.049 C9.084,10.018 8.813,10 8.5,10 Z M15.5,14 C16.864,14 18.069,13.692 18.898,13.242 C19.768,12.77 20,12.285 20,12 C20,11.798 19.896,11.509 19.508,11.171 C19.297,10.988 19.022,10.811 18.689,10.651 C18.288,11.265 17.823,11.835 17.303,12.353 C16.482,13.174 15.615,13.762 14.682,13.951 C14.916,13.982 15.187,14 15.5,14 Z M13.06,15.89 L13.061,15.889 C14.025,16.854 15.095,17.488 15.999,17.757 C16.949,18.037 17.455,17.858 17.657,17.657 C17.8,17.514 17.931,17.237 17.894,16.723 C17.875,16.444 17.806,16.124 17.684,15.776 C16.994,15.922 16.257,16 15.5,16 C14.339,16 13.311,15.803 12.517,15.276 C12.684,15.492 12.866,15.697 13.06,15.89 Z M15.89,10.94 L15.889,10.939 C16.854,9.975 17.488,8.905 17.757,8.001 C18.037,7.051 17.858,6.545 17.657,6.343 C17.514,6.2 17.237,6.069 16.723,6.106 C16.399,6.134 16.081,6.204 15.776,6.316 C15.922,7.006 16,7.743 16,8.5 C16,9.661 15.803,10.69 15.276,11.483 C15.492,11.316 15.697,11.134 15.89,10.94 Z M12.353,6.696 L12.354,6.697 C13.174,7.518 13.762,8.384 13.951,9.318 C13.982,9.083 14,8.813 14,8.5 C14,7.136 13.692,5.931 13.242,5.102 C12.77,4.232 12.285,4 12,4 C11.799,4 11.51,4.104 11.17,4.492 C10.987,4.703 10.81,4.978 10.65,5.311 C11.264,5.712 11.835,6.176 12.353,6.696 Z M12,13 C12.552,13 13,12.552 13,12 C13,11.448 12.552,11 12,11 C11.448,11 11,11.448 11,12 C11,12.552 11.448,13 12,13 Z"/>
</svg>

