<svg xmlns="http://www.w3.org/2000/svg" width="24" height="24">
  <defs/>
  <path  d="M6.025,3.047 A1 1 0 0 1 7.047,2.026 C7.753,2.041 8.747,2.212 9.764,2.692 C10.33,2.959 10.837,3.302 11.268,3.732 C11.64,4.105 11.948,4.536 12.198,5.012 C12.24,4.923 12.286,4.836 12.335,4.75 C12.702,4.114 13.241,3.605 13.897,3.202 A6.16 6.16 0 0 1 15.795,2.424 A1 1 0 0 1 16.95,3.091 L17.094,3.66 C17.252,4.443 17.288,5.263 17.116,6.061 A4.079 4.079 0 0 1 16.665,7.251 A3.973 3.973 0 0 1 16.103,8.001 L18,8.001 A2 2 0 0 1 20,10.001 L20,12.001 A2 2 0 0 1 18.986,13.741 C18.847,17.405 17.711,19.958 17.149,21.011 C16.799,21.666 16.126,22.001 15.465,22.001 L8.535,22.001 A1.895 1.895 0 0 1 6.851,21.011 C6.289,19.958 5.153,17.405 5.014,13.741 A2 2 0 0 1 4,12 L4,10 A2 2 0 0 1 6,8 L8.665,8 A5.07 5.07 0 0 1 7.732,7.267 A5.314 5.314 0 0 1 6.692,5.763 A6.906 6.906 0 0 1 6.025,3.046 Z"/>
</svg>

