<svg xmlns="http://www.w3.org/2000/svg" width="24" height="24">
  <defs/>
  <path  d="M7.76,11.24 C7.864,11.24 7.968,11.243 8.07,11.25 A3.99 3.99 0 0 0 9.35,14.997 C9.278,15.4 9.24,15.816 9.24,16.24 A6.97 6.97 0 0 0 10.77,20.608 A5.69 5.69 0 0 1 3.05,14.561 A5.002 5.002 0 0 1 7.76,11.24 M20.608,13.23 A5.69 5.69 0 0 1 14.561,20.95 A5.002 5.002 0 0 1 11.249,15.93 A3.99 3.99 0 0 0 14.996,14.65 C15.4,14.722 15.816,14.76 16.24,14.76 A6.97 6.97 0 0 0 20.608,13.23 M12,10 A2 2 0 1 1 12,14 A2 2 0 0 1 12,10 M15.31,3 A5.69 5.69 0 0 1 20.951,9.44 A5.002 5.002 0 0 1 15.93,12.75 A3.99 3.99 0 0 0 14.65,9.003 C14.722,8.6 14.76,8.184 14.76,7.76 A6.97 6.97 0 0 0 13.23,3.392 A5.675 5.675 0 0 1 15.31,3 M8.69,3 C8.944,3 9.194,3.017 9.44,3.049 A5.002 5.002 0 0 1 12.75,8.07 A3.99 3.99 0 0 0 9.003,9.35 A7.036 7.036 0 0 0 7.76,9.24 A6.97 6.97 0 0 0 3.392,10.77 A5.69 5.69 0 0 1 8.69,3"/>
</svg>

