<svg xmlns="http://www.w3.org/2000/svg" width="24" height="24">
  <defs/>
  <path  d="M12,2 C12.83,2 13.566,2.577 14.105,3.156 C14.51,3.59 14.896,4.137 15.214,4.766 C16.127,4.294 17.132,4.026 18.159,3.98 C19.233,3.93 19.931,4.788 19.995,5.666 L20,5.798 L20,8 C20,11.936 17.137,15.287 13.25,15.903 L13,15.938 L13,19.008 C14.076,18.339 15.662,17.554 17.758,17.03 C18.107,16.936 18.479,17.038 18.732,17.297 C18.985,17.555 19.078,17.93 18.977,18.276 C18.876,18.623 18.595,18.888 18.243,18.97 C16.887,19.301 15.584,19.822 14.373,20.516 L14.028,20.724 L13.87,20.824 L13.584,21.016 L13.338,21.191 L13.133,21.347 L12.967,21.48 L12.793,21.628 C12.56,21.836 12.329,22 12,22 C11.721,22 11.512,21.882 11.312,21.719 L11.042,21.488 L10.879,21.356 L10.674,21.201 L10.43,21.025 L10.292,20.932 L9.987,20.733 L9.819,20.63 L9.452,20.417 C8.29,19.773 7.047,19.286 5.757,18.97 C5.408,18.885 5.132,18.62 5.032,18.275 C4.933,17.93 5.026,17.558 5.276,17.301 C5.526,17.044 5.895,16.94 6.243,17.03 C8.198,17.519 9.71,18.236 10.778,18.873 L11,19.008 L11,15.938 C7.098,15.446 4.132,12.191 4.004,8.26 L4,8 L4,5.784 C4,4.874 4.692,3.934 5.807,3.964 C6.541,3.984 7.661,4.132 8.807,4.727 C9.096,4.156 9.462,3.627 9.895,3.156 C10.435,2.577 11.169,2 12,2 Z M6,8 C6,10.928 8.113,13.428 11,13.917 C10.985,10.136 9.947,8.212 8.889,7.217 C7.98,6.362 6.934,6.074 6.16,5.99 L6,5.977 L6,8 Z M18,5.996 C17.212,6.071 16.078,6.356 15.104,7.283 C14.044,8.29 13.015,10.205 13,13.917 C15.795,13.444 17.878,11.079 17.995,8.247 L18,8 Z M12,4.01 C11.75,4.114 11.539,4.325 11.358,4.519 C11.03,4.87 10.698,5.359 10.444,5.939 C11.052,6.557 11.589,7.341 12.012,8.325 C12.436,7.362 12.971,6.592 13.574,5.981 C13.348,5.444 13.033,4.95 12.642,4.519 C12.462,4.325 12.25,4.114 12,4.01 Z"/>
</svg>

