<svg xmlns="http://www.w3.org/2000/svg" width="24" height="24">
  <defs/>
  <path  d="M15.31,3 C17.442,3 19.396,4.191 20.371,6.087 C21.346,7.984 21.179,10.266 19.939,12 C21.56,14.264 21.305,17.368 19.336,19.336 C17.368,21.305 14.264,21.56 12,19.939 C9.736,21.56 6.632,21.305 4.664,19.336 C2.695,17.368 2.44,14.264 4.061,12 C2.44,9.736 2.695,6.632 4.664,4.664 C6.632,2.695 9.736,2.44 12,4.061 C12.965,3.369 14.123,2.998 15.31,3 Z M8.012,11.682 C7.277,11.818 6.602,12.176 6.076,12.706 C4.762,14.024 4.636,16.115 5.781,17.582 C6.927,19.049 8.985,19.433 10.583,18.478 C9.954,17.541 9.618,16.438 9.62,15.31 L9.62,15.216 C8.509,14.395 7.901,13.059 8.012,11.682 Z M18.478,13.417 C17.541,14.046 16.438,14.382 15.31,14.38 L15.216,14.38 C14.395,15.491 13.059,16.099 11.682,15.988 C11.818,16.723 12.176,17.398 12.706,17.924 C14.024,19.238 16.115,19.364 17.582,18.219 C19.049,17.073 19.433,15.015 18.478,13.417 Z M8.69,5 C7.362,5 6.136,5.714 5.48,6.869 C4.825,8.024 4.841,9.443 5.522,10.583 C6.459,9.954 7.562,9.618 8.69,9.62 L8.784,9.62 C9.605,8.509 10.941,7.901 12.318,8.012 C12.181,7.278 11.824,6.602 11.294,6.076 C10.603,5.386 9.666,4.998 8.69,5 Z M15.31,5 C14.618,5 13.97,5.19 13.417,5.522 C14.025,6.427 14.38,7.518 14.38,8.69 L14.38,8.784 C15.491,9.605 16.099,10.941 15.988,12.318 C16.722,12.181 17.398,11.824 17.924,11.294 C18.976,10.238 19.289,8.652 18.717,7.275 C18.145,5.898 16.801,5 15.31,5 Z M12,10 C10.895,10 10,10.895 10,12 C10,13.105 10.895,14 12,14 C13.105,14 14,13.105 14,12 C14,10.895 13.105,10 12,10 Z"/>
</svg>

