<svg xmlns="http://www.w3.org/2000/svg" width="24" height="24">
  <defs/>
  <path  d="M10.586,2.5 C11.32,1.766 12.493,1.715 13.287,2.383 L13.414,2.5 L15.041,4.126 L15.215,3.884 L15.53,3.431 L15.735,3.123 L15.941,2.794 C16.249,2.314 16.618,1.857 17.267,2.036 C17.657,2.144 17.944,2.477 17.993,2.879 L18,3 L18,9 C18,11.838 16.012,14.288 13.235,14.873 L13,14.917 L13,18.917 C14.932,18.59 16.582,17.341 17.423,15.571 C17.66,15.072 18.257,14.86 18.756,15.097 C19.254,15.333 19.467,15.93 19.23,16.429 C18.059,18.897 15.71,20.598 13,20.94 C13,21.506 12.593,22.001 12,22.001 C11.407,22.001 11,21.506 11,20.939 C8.29,20.597 5.942,18.897 4.77,16.43 C4.533,15.931 4.746,15.334 5.245,15.097 C5.743,14.861 6.34,15.073 6.577,15.572 C7.379,17.26 8.92,18.479 10.747,18.87 L11,18.918 L11,14.918 C8.205,14.445 6.122,12.08 6.005,9.248 L6,9 L6,3 C6,2.55 6.3,2.156 6.733,2.036 C7.33,1.871 7.692,2.248 7.987,2.685 L8.332,3.227 L8.47,3.431 L8.785,3.884 L8.959,4.126 Z M16,6.163 C15.488,6.8 14.889,7.467 14.265,7.987 C13.67,8.483 12.872,9 12,9 C11.128,9 10.33,8.483 9.735,7.987 C9.215,7.554 8.713,7.019 8.263,6.484 L8,6.164 L8,9 C8,11.17 9.73,12.945 11.9,12.999 C14.069,13.053 15.887,11.367 15.995,9.2 L16,9 Z M12,3.914 L10.226,5.688 L10.611,6.108 C11.011,6.532 11.522,7 12,7 C12.478,7 12.99,6.532 13.39,6.108 L13.774,5.688 Z"/>
</svg>

