<svg xmlns="http://www.w3.org/2000/svg" width="24" height="24">
  <defs/>
  <path  d="M7.047,2.026 C7.989,2.06 8.913,2.287 9.764,2.692 C10.321,2.949 10.83,3.301 11.267,3.732 C11.64,4.109 11.954,4.541 12.197,5.012 C12.24,4.923 12.285,4.836 12.335,4.75 C12.702,4.114 13.241,3.605 13.897,3.202 C14.482,2.838 15.123,2.575 15.795,2.424 C16.293,2.32 16.791,2.606 16.95,3.09 L17.094,3.66 C17.252,4.443 17.288,5.263 17.115,6.061 C17.025,6.485 16.877,6.883 16.665,7.25 C16.508,7.523 16.319,7.773 16.102,8 L18,8 C19.105,8 20,8.895 20,10 L20,12 C20,12.72 19.613,13.385 18.986,13.74 C18.847,17.405 17.711,19.958 17.149,21.01 C16.799,21.666 16.125,22 15.465,22 L8.535,22 C7.874,22 7.201,21.666 6.851,21.01 C6.289,19.958 5.153,17.405 5.014,13.74 C4.387,13.385 4,12.72 4,12 L4,10 C4,8.895 4.895,8 6,8 L8.665,8 C8.325,7.791 8.012,7.548 7.732,7.268 C7.302,6.838 6.959,6.33 6.692,5.764 C6.212,4.747 6.041,3.753 6.025,3.047 C6.019,2.774 6.125,2.511 6.318,2.318 C6.511,2.126 6.774,2.02 7.047,2.026 Z M16.972,14 L7.029,14 C7.202,17.023 8.121,19.125 8.579,20 L15.421,20 C15.879,19.125 16.798,17.023 16.972,14 Z M18,12 L18,10 L6,10 L6,12 Z M8.25,4.25 C8.318,4.476 8.401,4.696 8.5,4.91 C8.659,5.26 8.878,5.579 9.146,5.854 C9.421,6.122 9.74,6.341 10.089,6.5 C10.303,6.599 10.523,6.683 10.749,6.75 C10.68,6.523 10.594,6.307 10.5,6.09 C10.326,5.722 10.111,5.404 9.854,5.147 C9.596,4.889 9.278,4.674 8.91,4.5 C8.697,4.4 8.476,4.32 8.25,4.25 Z M15.222,4.75 L14.944,4.905 C14.552,5.147 14.252,5.43 14.067,5.75 C13.964,5.929 13.889,6.133 13.84,6.36 C13.794,6.571 13.772,6.793 13.772,7.021 L13.777,7.249 L14.056,7.095 C14.448,6.854 14.748,6.57 14.933,6.25 C15.04,6.06 15.117,5.854 15.161,5.64 C15.206,5.43 15.228,5.208 15.228,4.98 Z"/>
</svg>

