<svg xmlns="http://www.w3.org/2000/svg" width="24" height="24">
  <defs/>
  <path  d="M10.499,2.601 C10.89,2.299 11.42,2 12,2 C12.58,2 13.11,2.299 13.501,2.601 C13.925,2.928 14.337,3.374 14.698,3.896 C14.881,4.161 15.055,4.453 15.214,4.766 A7.105 7.105 0 0 1 18.159,3.98 C19.287,3.927 20,4.876 20,5.798 L20,8 A8.001 8.001 0 0 1 13,15.938 L13,19.008 C14.076,18.339 15.662,17.554 17.758,17.03 A1 1 0 1 1 18.243,18.97 C15.025,19.775 13.207,21.26 12.793,21.628 C12.56,21.836 12.329,22 12,22 C11.675,22 11.444,21.84 11.213,21.633 C10.812,21.275 8.993,19.779 5.757,18.97 A1 1 0 1 1 6.243,17.03 C8.338,17.554 9.923,18.34 11,19.008 L11,15.938 A8.001 8.001 0 0 1 4,8 L4,5.784 C4,4.875 4.692,3.934 5.807,3.964 C6.541,3.984 7.661,4.132 8.807,4.727 C8.959,4.429 9.127,4.15 9.302,3.897 C9.662,3.374 10.075,2.927 10.499,2.601"/>
</svg>

