<svg xmlns="http://www.w3.org/2000/svg" width="24" height="24">
  <defs/>
  <path  d="M11.5,2 C14.207,2 16.631,3.678 17.585,6.212 C20.409,6.986 22.262,9.685 21.97,12.599 C21.939,12.958 21.717,13.273 21.389,13.423 C21.062,13.572 20.679,13.534 20.387,13.323 C20.095,13.111 19.94,12.759 19.98,12.401 C20.192,10.302 18.736,8.399 16.655,8.053 C16.266,7.989 15.948,7.703 15.844,7.321 C15.234,5.045 12.971,3.625 10.656,4.066 C8.341,4.507 6.758,6.659 7.027,9 C7.082,9.501 6.759,9.967 6.27,10.09 C5.071,10.392 4.179,11.397 4.023,12.624 C3.987,12.985 3.757,13.298 3.424,13.442 C3.091,13.585 2.706,13.537 2.418,13.316 C2.131,13.095 1.985,12.735 2.039,12.376 C2.259,10.626 3.384,9.122 5,8.416 C5.046,4.859 7.943,2 11.5,2 Z M3,16 C3,15.448 3.448,15 4,15 L20,15 C20.552,15 21,15.448 21,16 C21,16.552 20.552,17 20,17 L4,17 C3.448,17 3,16.552 3,16 Z M7,20 C7,19.448 7.448,19 8,19 L17,19 C17.552,19 18,19.448 18,20 C18,20.552 17.552,21 17,21 L8,21 C7.448,21 7,20.552 7,20 Z"/>
</svg>

