<svg xmlns="http://www.w3.org/2000/svg" width="24" height="24">
  <defs/>
  <path  d="M18.5,13 A2.5 2.5 0 0 1 20.995,15.336 L21,15.5 L21,16 A1 1 0 0 1 21.993,16.883 L22,17 L22,21 A1 1 0 0 1 21.117,21.993 L21,22 L16,22 A1 1 0 0 1 15.007,21.117 L15,21 L15,17 A1 1 0 0 1 15.883,16.007 L16,16 L16,15.5 A2.5 2.5 0 0 1 18.5,13 M9.52,3 A2 2 0 0 1 11.081,3.75 L12.481,5.5 L20,5.5 A2 2 0 0 1 22,7.5 L22,12.671 A4.501 4.501 0 0 0 14.07,14.702 A2.994 2.994 0 0 0 13,17 L13,21 L4,21 A2 2 0 0 1 2,19 L2,5 A2 2 0 0 1 4,3 Z M18.5,15 A0.5 0.5 0 0 0 18,15.5 L18,16 L19,16 L19,15.5 A0.5 0.5 0 0 0 18.5,15"/>
</svg>

