<svg xmlns="http://www.w3.org/2000/svg" width="24" height="24">
  <defs/>
  <path  d="M9.52,3 A2 2 0 0 1 10.962,3.614 L11.082,3.751 L12.48,5.5 L19,5.5 A2 2 0 0 1 20.995,7.35 L21,7.5 L21,9.03 A2.001 2.001 0 0 1 22.61,11.428 L22.572,11.575 L20.172,19.575 A2 2 0 0 1 18.42,20.993 L18.256,21 L4,21 A2 2 0 0 1 2.005,19.15 L2,19 L2,5 A2 2 0 0 1 3.85,3.005 L4,3 Z M20.656,11 L6.744,11 L4.344,19 L18.256,19 Z M9.519,5 L4,5 L4,13.187 L4.828,10.425 A2 2 0 0 1 6.744,9 L19,9 L19,7.5 L12.48,7.5 A2 2 0 0 1 10.919,6.75 Z"/>
</svg>

