<svg xmlns="http://www.w3.org/2000/svg" width="24" height="24">
  <defs/>
  <path  d="M12.52,3 A2 2 0 0 1 13.962,3.614 L14.082,3.751 L15.48,5.5 L20,5.5 A2 2 0 0 1 21.995,7.35 L22,7.5 L22,15 A2 2 0 0 1 20.15,16.995 L20,17 L18,17 L18,19 A2 2 0 0 1 16.15,20.995 L16,21 L4,21 A2 2 0 0 1 2.005,19.15 L2,19 L2,9 A2 2 0 0 1 3.85,7.005 L4,7 L6,7 L6,5 A2 2 0 0 1 7.85,3.005 L8,3 Z M12.52,5 L8,5 L8,7 L8.52,7 A2 2 0 0 1 10.081,7.75 L11.481,9.5 L16,9.5 A2 2 0 0 1 18,11.5 L18,15 L20,15 L20,7.5 L15.48,7.5 A2 2 0 0 1 13.919,6.75 Z"/>
</svg>

