<svg xmlns="http://www.w3.org/2000/svg" width="24" height="24">
  <defs/>
  <path  d="M9.52,3 C10.127,3 10.701,3.276 11.081,3.75 L12.481,5.5 L20,5.5 C21.105,5.5 22,6.395 22,7.5 L22,19 C22,20.105 21.105,21 20,21 L4,21 C2.895,21 2,20.105 2,19 L2,5 C2,3.895 2.895,3 4,3 Z M11.99,13 L11,13 C10.471,13.001 10.034,13.413 10.003,13.941 C9.972,14.47 10.358,14.931 10.883,14.993 L11,15 L11,15.99 C11,16.51 11.394,16.94 11.9,16.994 L12.01,17 L12.5,17 C12.931,17 13.314,16.723 13.449,16.314 C13.585,15.904 13.442,15.454 13.096,15.197 L13,15.134 L13,14.01 C13,13.49 12.606,13.06 12.1,13.006 Z M12,10 C11.448,10 11,10.448 11,11 C11,11.552 11.448,12 12,12 C12.552,12 13,11.552 13,11 C13,10.448 12.552,10 12,10 Z"/>
</svg>

