<svg xmlns="http://www.w3.org/2000/svg" width="24" height="24">
  <defs/>
  <path  d="M9.52,3 A2 2 0 0 1 10.962,3.614 L11.082,3.751 L12.48,5.5 L20,5.5 A2 2 0 0 1 21.995,7.35 L22,7.5 L22,19 A2 2 0 0 1 20.15,20.995 L20,21 L4,21 A2 2 0 0 1 2.005,19.15 L2,19 L2,5 A2 2 0 0 1 3.85,3.005 L4,3 Z M9.52,5 L4,5 L4,19 L20,19 L20,7.5 L12.48,7.5 A2 2 0 0 1 11.038,6.886 L10.918,6.749 Z M10.586,10.172 L12,11.586 L13.414,10.172 A1 1 0 1 1 14.829,11.586 L13.414,13 L14.829,14.414 A1 1 0 1 1 13.414,15.828 L12,14.414 L10.586,15.828 A1 1 0 1 1 9.172,14.414 L10.586,13 L9.172,11.586 A1 1 0 1 1 10.586,10.172"/>
</svg>

