<svg xmlns="http://www.w3.org/2000/svg" width="24" height="24">
  <defs/>
  <path  d="M5,3 L9.52,3 C10.127,3 10.701,3.276 11.081,3.75 L12.48,5.5 L19,5.5 C20.105,5.5 21,6.395 21,7.5 L21,9.13 C21.64,9.415 21.998,10.106 21.861,10.794 L20.141,19.392 C19.954,20.327 19.133,21 18.18,21 L5.819,21 C4.866,20.999 4.046,20.327 3.859,19.392 L2.139,10.794 C2.002,10.106 2.359,9.415 3,9.129 L3,5 C3,3.895 3.895,3 5,3 Z M19.78,11 L4.22,11 L5.82,19 L18.18,19 Z M5,9 L19,9 L19,7.5 L12.48,7.5 C11.873,7.5 11.299,7.224 10.919,6.75 L9.519,5 L5,5 Z"/>
</svg>

