<svg xmlns="http://www.w3.org/2000/svg" width="24" height="24">
  <defs/>
  <path  d="M9.52,3 A2 2 0 0 1 10.962,3.614 L11.082,3.751 L12.48,5.5 L20,5.5 A2 2 0 0 1 21.995,7.35 L22,7.5 L22,19 A2 2 0 0 1 20.15,20.995 L20,21 L4,21 A2 2 0 0 1 2.005,19.15 L2,19 L2,5 A2 2 0 0 1 3.85,3.005 L4,3 Z M9.52,5 L4,5 L4,19 L20,19 L20,7.5 L12.48,7.5 A2 2 0 0 1 11.038,6.886 L10.918,6.749 Z M11.654,10.199 A0.4 0.4 0 0 1 12.293,10.127 L12.346,10.199 L13.24,11.734 L14.977,12.11 A0.4 0.4 0 0 1 15.238,12.702 L15.191,12.768 L14.007,14.093 L14.185,15.861 A0.4 0.4 0 0 1 13.697,16.291 L13.627,16.267 L12,15.551 L10.374,16.267 A0.4 0.4 0 0 1 9.814,15.935 L9.814,15.861 L9.994,14.093 L8.81,12.768 A0.4 0.4 0 0 1 8.946,12.135 L9.023,12.11 L10.76,11.734 Z"/>
</svg>

