<svg xmlns="http://www.w3.org/2000/svg" width="24" height="24">
  <defs/>
  <path  d="M2,5 C2,3.895 2.895,3 4,3 L9.52,3 C10.127,3 10.701,3.276 11.081,3.75 L12.481,5.5 L20,5.5 C21.105,5.5 22,6.395 22,7.5 L22,19 C22,20.105 21.105,21 20,21 L4,21 C2.895,21 2,20.105 2,19 Z M9.52,5 L4,5 L4,19 L20,19 L20,7.5 L12.48,7.5 C11.873,7.5 11.299,7.224 10.919,6.75 Z M12,9 C12,8.448 12.448,8 13,8 L14,8 C14.552,8 15,8.448 15,9 C15,9.552 14.552,10 14,10 L13,10 C12.448,10 12,9.552 12,9 Z M14,14 L13,14 C12.448,14 12,13.552 12,13 C12,12.448 12.448,12 13,12 L14,12 C14.552,12 15,12.448 15,13 C15,13.552 14.552,14 14,14 Z M15,11 C15,10.448 15.448,10 16,10 L17,10 C17.552,10 18,10.448 18,11 C18,11.552 17.552,12 17,12 L16,12 C15.448,12 15,11.552 15,11 Z M15,15 C15,14.448 15.448,14 16,14 L17,14 C17.552,14 18,14.448 18,15 C18,15.552 17.552,16 17,16 L16,16 C15.448,16 15,15.552 15,15 Z M14,18 L13,18 C12.448,18 12,17.552 12,17 C12,16.448 12.448,16 13,16 L14,16 C14.552,16 15,16.448 15,17 C15,17.552 14.552,18 14,18 Z"/>
</svg>

