<svg xmlns="http://www.w3.org/2000/svg" width="24" height="24">
  <defs/>
  <path  d="M2,5 C2,3.895 2.895,3 4,3 L9.52,3 C10.127,3 10.701,3.276 11.081,3.75 L12.481,5.5 L20,5.5 C21.105,5.5 22,6.395 22,7.5 L22,19 C22,20.105 21.105,21 20,21 L4,21 C2.895,21 2,20.105 2,19 Z M12,10 C11.448,10 11,10.448 11,11 L11,13.709 L10.586,13.294 C10.195,12.904 9.562,12.904 9.172,13.295 C8.781,13.685 8.781,14.319 9.172,14.709 L11.293,16.829 C11.481,17.017 11.735,17.122 12,17.122 C12.266,17.122 12.52,17.017 12.708,16.829 L14.828,14.709 C15.219,14.319 15.219,13.685 14.828,13.295 C14.438,12.904 13.805,12.904 13.414,13.294 L13,13.709 L13,11 C13,10.448 12.552,10 12,10 Z"/>
</svg>

