<svg xmlns="http://www.w3.org/2000/svg" width="24" height="24">
  <defs/>
  <path  d="M2,5 C2,3.895 2.895,3 4,3 L9.52,3 C10.127,3 10.701,3.276 11.081,3.75 L12.481,5.5 L20,5.5 C21.105,5.5 22,6.395 22,7.5 L22,19 C22,20.105 21.105,21 20,21 L4,21 C2.895,21 2,20.105 2,19 Z M11.293,10.173 L9.172,12.294 C8.912,12.545 8.808,12.917 8.899,13.267 C8.991,13.616 9.264,13.889 9.613,13.981 C9.963,14.072 10.335,13.968 10.586,13.708 L11,13.294 L11,16 C11,16.552 11.448,17 12,17 C12.552,17 13,16.552 13,16 L13,13.294 L13.414,13.708 C13.665,13.968 14.037,14.072 14.387,13.981 C14.736,13.889 15.009,13.616 15.101,13.267 C15.192,12.917 15.088,12.545 14.828,12.294 L12.707,10.173 C12.316,9.783 11.684,9.783 11.293,10.173 Z"/>
</svg>

