<svg xmlns="http://www.w3.org/2000/svg" width="24" height="24">
  <defs/>
  <path  d="M9.52,3 C10.064,3 10.585,3.222 10.962,3.614 L11.082,3.751 L12.48,5.5 L20,5.5 C21.047,5.5 21.917,6.306 21.995,7.35 L22,7.5 L22,19 C22,20.047 21.194,20.917 20.15,20.995 L20,21 L4,21 C2.953,21 2.083,20.194 2.005,19.15 L2,19 L2,5 C2,3.953 2.806,3.083 3.85,3.005 L4,3 Z M9,12 C8.448,12 8,12.448 8,13 C8,13.552 8.448,14 9,14 C9.552,14 10,13.552 10,13 C10,12.448 9.552,12 9,12 Z M12,12 C11.448,12 11,12.448 11,13 C11,13.552 11.448,14 12,14 C12.552,14 13,13.552 13,13 C13,12.448 12.552,12 12,12 Z M15,12 C14.448,12 14,12.448 14,13 C14,13.552 14.448,14 15,14 C15.552,14 16,13.552 16,13 C16,12.448 15.552,12 15,12 Z"/>
</svg>

