<svg xmlns="http://www.w3.org/2000/svg" width="24" height="24">
  <defs/>
  <path  d="M4,3 L9.52,3 C10.127,3 10.701,3.276 11.081,3.75 L12.48,5.5 L20,5.5 C21.105,5.5 22,6.395 22,7.5 L22,19 C22,20.105 21.105,21 20,21 L4,21 C2.895,21 2,20.105 2,19 L2,5 C2,3.895 2.895,3 4,3 Z M12.346,10.199 C12.274,10.076 12.143,10 12,10 C11.857,10 11.726,10.076 11.654,10.199 L10.76,11.734 L9.023,12.11 C8.884,12.14 8.771,12.242 8.727,12.378 C8.683,12.513 8.715,12.662 8.81,12.768 L9.994,14.093 L9.814,15.861 C9.8,16.003 9.862,16.141 9.977,16.225 C10.093,16.309 10.244,16.325 10.374,16.267 L12,15.551 L13.626,16.267 C13.756,16.325 13.907,16.309 14.023,16.225 C14.138,16.141 14.2,16.003 14.186,15.861 L14.006,14.093 L15.191,12.768 C15.286,12.662 15.318,12.513 15.273,12.377 C15.229,12.242 15.116,12.14 14.977,12.11 L13.24,11.734 Z"/>
</svg>

