<svg xmlns="http://www.w3.org/2000/svg" width="24" height="24">
  <defs/>
  <path  d="M9.52,3 A2 2 0 0 1 10.962,3.614 L11.082,3.751 L12.48,5.5 L20,5.5 A2 2 0 0 1 21.995,7.35 L22,7.5 L22,19 A2 2 0 0 1 20.15,20.995 L20,21 L4,21 A2 2 0 0 1 2.005,19.15 L2,19 L2,5 A2 2 0 0 1 3.85,3.005 L4,3 Z M9.52,5 L4,5 L4,19 L20,19 L20,7.5 L12.48,7.5 A2 2 0 0 1 11.038,6.886 L10.918,6.749 Z M14.475,10.232 A1 1 0 0 1 15.972,11.552 L15.889,11.647 L11.717,15.819 A1.1 1.1 0 0 1 10.257,15.904 L10.162,15.819 L8.111,13.768 A1 1 0 0 1 9.431,12.27 L9.525,12.354 L10.939,13.768 Z"/>
</svg>

