<svg xmlns="http://www.w3.org/2000/svg" width="24" height="24">
  <defs/>
  <path  d="M4,3 L9.52,3 C10.127,3 10.701,3.276 11.081,3.75 L12.48,5.5 L20,5.5 C21.105,5.5 22,6.395 22,7.5 L22,19 C22,20.105 21.105,21 20,21 L4,21 C2.895,21 2,20.105 2,19 L2,5 C2,3.895 2.895,3 4,3 Z M9.172,10.172 C8.782,10.562 8.782,11.196 9.172,11.586 L10.586,13 L9.172,14.414 C8.912,14.665 8.808,15.037 8.899,15.387 C8.991,15.736 9.264,16.009 9.613,16.101 C9.963,16.192 10.335,16.088 10.586,15.828 L12,14.414 L13.414,15.828 C13.806,16.207 14.43,16.202 14.816,15.816 C15.202,15.43 15.207,14.806 14.828,14.414 L13.414,13 L14.828,11.586 C15.088,11.335 15.192,10.963 15.101,10.613 C15.009,10.264 14.736,9.991 14.387,9.899 C14.037,9.808 13.665,9.912 13.414,10.172 L12,11.586 L10.586,10.172 C10.196,9.782 9.562,9.782 9.172,10.172 Z"/>
</svg>

