<svg xmlns="http://www.w3.org/2000/svg" width="24" height="24">
  <defs/>
  <path  d="M9.52,3 C10.064,3 10.585,3.222 10.962,3.614 L11.082,3.751 L12.48,5.5 L20,5.5 C21.047,5.5 21.917,6.306 21.995,7.35 L22,7.5 L22,19 C22,20.047 21.194,20.917 20.15,20.995 L20,21 L4,21 C2.953,21 2.083,20.194 2.005,19.15 L2,19 L2,5 C2,3.953 2.806,3.083 3.85,3.005 L4,3 Z M15,16 L14,16 C13.471,16.001 13.034,16.413 13.003,16.941 C12.972,17.47 13.358,17.931 13.883,17.993 L14,18 L15,18 C15.529,17.999 15.966,17.587 15.997,17.059 C16.028,16.53 15.642,16.069 15.117,16.007 Z M18,10 L17,10 C16.471,10.001 16.034,10.413 16.003,10.941 C15.972,11.47 16.358,11.931 16.883,11.993 L17,12 L18,12 C18.529,11.999 18.966,11.587 18.997,11.059 C19.028,10.53 18.642,10.069 18.117,10.007 Z M15,8 L14,8 L13.883,8.007 C13.38,8.067 13.001,8.493 13.001,9 C13.001,9.507 13.38,9.933 13.883,9.993 L14,10 L15,10 L15.117,9.993 C15.62,9.933 15.999,9.507 15.999,9 C15.999,8.493 15.62,8.067 15.117,8.007 Z M15,12 L14,12 L13.883,12.007 C13.38,12.067 13.001,12.493 13.001,13 C13.001,13.507 13.38,13.933 13.883,13.993 L14,14 L15,14 L15.117,13.993 C15.62,13.933 15.999,13.507 15.999,13 C15.999,12.493 15.62,12.067 15.117,12.007 Z M18,14 L17,14 L16.883,14.007 C16.38,14.067 16.001,14.493 16.001,15 C16.001,15.507 16.38,15.933 16.883,15.993 L17,16 L18,16 L18.117,15.993 C18.62,15.933 18.999,15.507 18.999,15 C18.999,14.493 18.62,14.067 18.117,14.007 Z"/>
</svg>

