<svg xmlns="http://www.w3.org/2000/svg" width="24" height="24">
  <defs/>
  <path  d="M2,5 C2,3.895 2.895,3 4,3 L9.52,3 C10.127,3 10.701,3.276 11.081,3.75 L12.481,5.5 L20,5.5 C21.105,5.5 22,6.395 22,7.5 L22,19 C22,20.105 21.105,21 20,21 L4,21 C2.895,21 2,20.105 2,19 Z M13,13.732 C13.784,13.279 14.166,12.357 13.932,11.482 C13.697,10.608 12.905,10 12,10 C11.095,10 10.303,10.608 10.068,11.482 C9.834,12.357 10.216,13.279 11,13.732 L11,16 C11,16.552 11.448,17 12,17 C12.552,17 13,16.552 13,16 Z"/>
</svg>

