<svg xmlns="http://www.w3.org/2000/svg" width="24" height="24">
  <defs/>
  <path  d="M9.52,3 C10.064,3 10.585,3.222 10.962,3.614 L11.082,3.751 L12.48,5.5 L20,5.5 C21.047,5.5 21.917,6.306 21.995,7.35 L22,7.5 L22,19 C22,20.047 21.194,20.917 20.15,20.995 L20,21 L4,21 C2.953,21 2.083,20.194 2.005,19.15 L2,19 L2,5 C2,3.953 2.806,3.083 3.85,3.005 L4,3 Z M14.475,10.232 L10.939,13.768 L9.525,12.354 C9.274,12.094 8.902,11.99 8.552,12.081 C8.203,12.173 7.93,12.446 7.838,12.795 C7.747,13.145 7.851,13.517 8.111,13.768 L10.161,15.818 C10.591,16.248 11.287,16.248 11.717,15.818 L15.889,11.646 C16.268,11.254 16.263,10.63 15.877,10.244 C15.491,9.858 14.867,9.853 14.475,10.232 Z"/>
</svg>

