<svg xmlns="http://www.w3.org/2000/svg" width="24" height="24">
  <defs/>
  <path  d="M5,4 L19,4 C20.657,4 22,5.343 22,7 L22,18 C22,19.657 20.657,21 19,21 L5,21 C3.343,21 2,19.657 2,18 L2,7 C2,5.343 3.343,4 5,4 Z M4,7 L4,18 C4,18.552 4.448,19 5,19 L19,19 C19.552,19 20,18.552 20,18 L20,11 L14.354,11 C13.127,11 12.024,10.253 11.569,9.114 L10.574,6.629 C10.422,6.249 10.055,6 9.646,6 L5,6 C4.448,6 4,6.448 4,7 Z M20,9 L20,7 C20,6.448 19.552,6 19,6 L12.477,6 L13.426,8.371 C13.578,8.751 13.945,9 14.354,9 Z"/>
</svg>

