<svg xmlns="http://www.w3.org/2000/svg" width="24" height="24">
  <defs/>
  <path  d="M17.684,14.051 A1 1 0 0 1 18.191,14.018 L18.316,14.051 L21.316,15.051 A1 1 0 0 1 21.993,15.884 L22,16 L22,17.671 A4.346 4.346 0 0 1 18.134,21.991 A1.2 1.2 0 0 1 17.866,21.991 A4.347 4.347 0 0 1 14.006,17.885 L14,17.67 L14,16 A1 1 0 0 1 14.576,15.094 L14.684,15.051 Z M9.519,3 A2 2 0 0 1 10.962,3.614 L11.082,3.751 L12.48,5.5 L20,5.5 A2 2 0 0 1 21.995,7.35 L22,7.5 L22,13 L20,13 L20,7.5 L12.48,7.5 A2 2 0 0 1 11.038,6.886 L10.918,6.749 L9.52,5 L4,5 L4,19 L12,19 L12,21 L4,21 A2 2 0 0 1 2.005,19.15 L2,19 L2,5 A2 2 0 0 1 3.85,3.005 L4,3 Z M18,16.054 L16,16.721 L16,17.671 C16,18.838 16.855,19.821 18,19.992 A2.347 2.347 0 0 0 19.994,17.837 L20,17.67 L20,16.72 Z"/>
</svg>

