<svg xmlns="http://www.w3.org/2000/svg" width="24" height="24">
  <defs/>
  <path  d="M9.52,3 C10.127,3 10.701,3.276 11.081,3.75 L12.481,5.5 L20,5.5 C21.105,5.5 22,6.395 22,7.5 L22,19 C22,20.105 21.105,21 20,21 L4,21 C2.895,21 2,20.105 2,19 L2,5 C2,3.895 2.895,3 4,3 Z M12,10 C11.493,10 11.066,10.38 11.007,10.883 L11,11 L11,13 C11.001,13.529 11.413,13.966 11.941,13.997 C12.47,14.028 12.931,13.642 12.993,13.117 L13,13 L13,11 C13,10.448 12.552,10 12,10 Z M12,15 C11.448,15 11,15.448 11,16 C11,16.552 11.448,17 12,17 C12.552,17 13,16.552 13,16 C13,15.448 12.552,15 12,15 Z"/>
</svg>

