<svg xmlns="http://www.w3.org/2000/svg" width="24" height="24">
  <defs/>
  <path  d="M12,4 L12.001,4 C17.016,4 21.244,7.356 22.57,11.942 C22.69,12.358 22.529,12.805 22.17,13.048 L22.068,13.108 L14.177,17.19 L14.46,17.336 C14.932,17.578 15.133,18.148 14.917,18.633 C14.701,19.118 14.143,19.349 13.647,19.16 L13.541,19.112 L12.001,18.316 L10.46,19.112 C9.989,19.359 9.408,19.194 9.136,18.737 C8.865,18.28 8.998,17.691 9.44,17.395 L9.54,17.335 L9.824,17.19 L1.932,13.108 C1.508,12.889 1.298,12.4 1.431,11.942 C2.756,7.356 6.984,4 12,4 Z M12,13 C10.82,13 9.8,13.681 9.31,14.672 L12,16.064 L14.691,14.672 C14.185,13.648 13.143,13 12.001,13 Z"/>
</svg>

