<svg xmlns="http://www.w3.org/2000/svg" width="24" height="24">
  <defs/>
  <path  d="M21.328,10 A0.5 0.5 0 0 1 21.824,10.563 L21.807,10.643 L18.917,20.287 A1 1 0 0 1 18.077,20.993 L17.96,21 L4,21 A1.99 1.99 0 0 1 2.901,20.672 A0.494 0.494 0 0 1 2.875,20.438 L2.892,20.356 L5.786,10.713 A1 1 0 0 1 6.625,10.007 L6.744,10 Z M9.52,3 A2 2 0 0 1 10.963,3.614 L11.083,3.751 L12.48,5.5 L19,5.5 A2 2 0 0 1 20.995,7.35 L21,7.5 L21,8 L6.744,8 A3 3 0 0 0 3.93,9.96 L3.87,10.138 L2,16.37 L2,5 A2 2 0 0 1 3.85,3.005 L4,3 Z"/>
</svg>

