<svg xmlns="http://www.w3.org/2000/svg" width="24" height="24">
  <defs/>
  <path  d="M17,3 C19.131,3 20.888,4.671 20.995,6.8 L21,7 L21,17 C21,19.131 19.329,20.888 17.2,20.995 L17,21 L7,21 C4.869,21 3.112,19.329 3.005,17.2 L3,17 L3,7 C3,4.869 4.671,3.112 6.8,3.005 L7,3 Z M15.5,6 L9.5,6 C8.672,6 8,6.672 8,7.5 C8,8.328 8.672,9 9.5,9 L15.5,9 C16.328,9 17,8.328 17,7.5 C17,6.672 16.328,6 15.5,6 Z M12.5,10.5 L8.5,10.5 C7.7,10.5 7.041,11.129 7.002,11.928 C6.964,12.727 7.56,13.416 8.356,13.493 L8.5,13.5 L12.5,13.5 C13.3,13.5 13.959,12.871 13.998,12.072 C14.036,11.273 13.44,10.584 12.644,10.507 Z M11.5,15 C10.672,15 10,15.672 10,16.5 C10,17.328 10.672,18 11.5,18 C12.328,18 13,17.328 13,16.5 C13,15.672 12.328,15 11.5,15 Z"/>
</svg>

