<svg xmlns="http://www.w3.org/2000/svg" width="24" height="24">
  <defs/>
  <path  d="M8,4 C8.732,4 9.381,4.473 9.605,5.17 L13.952,18.694 C14.116,19.218 13.827,19.777 13.304,19.945 C12.781,20.113 12.22,19.828 12.048,19.306 L10.664,15 L5.336,15 L3.952,19.306 C3.78,19.828 3.219,20.113 2.696,19.945 C2.173,19.777 1.884,19.218 2.048,18.694 L6.395,5.17 C6.619,4.473 7.268,4 8,4 Z M21,12 C21.552,12 22,12.448 22,13 L22,19 C22,19.471 21.671,19.878 21.211,19.977 C20.75,20.076 20.283,19.841 20.089,19.412 C18.411,20.439 16.236,20.093 14.959,18.597 C13.682,17.101 13.682,14.899 14.959,13.403 C16.236,11.907 18.411,11.561 20.089,12.588 C20.251,12.23 20.607,12 21,12 Z M8,6.712 L5.979,13 L10.021,13 Z M18,14 C16.895,14 16,14.895 16,16 C16,17.105 16.895,18 18,18 C19.105,18 20,17.105 20,16 C20,14.895 19.105,14 18,14 Z"/>
</svg>

