<svg xmlns="http://www.w3.org/2000/svg" width="24" height="24">
  <defs/>
  <path  d="M8,3.5 C8.95,3.5 9.79,4.113 10.081,5.017 L14.428,18.541 C14.674,19.327 14.24,20.165 13.455,20.417 C12.671,20.669 11.83,20.241 11.572,19.459 L10.299,15.5 L5.701,15.5 L4.428,19.459 C4.17,20.241 3.329,20.669 2.545,20.417 C1.76,20.165 1.326,19.327 1.572,18.541 L5.919,5.017 C6.209,4.113 7.05,3.5 7.999,3.5 Z M20.5,12 C21.328,12 22,12.672 22,13.5 L22,18.5 C22,19.074 21.672,19.598 21.155,19.849 C20.639,20.1 20.024,20.034 19.573,19.679 C17.898,20.394 15.952,19.887 14.838,18.446 C13.725,17.006 13.725,14.994 14.838,13.554 C15.952,12.113 17.898,11.606 19.573,12.321 C19.828,12.12 20.15,12 20.5,12 Z M8,8.346 L6.665,12.5 L9.335,12.5 Z M18,15 C17.448,15 17,15.448 17,16 C17,16.552 17.448,17 18,17 C18.552,17 19,16.552 19,16 C19,15.448 18.552,15 18,15 Z"/>
</svg>

