<svg xmlns="http://www.w3.org/2000/svg" width="24" height="24">
  <defs/>
  <path  d="M12,2 C17.523,2 22,6.477 22,12 C22,17.523 17.523,22 12,22 C6.477,22 2,17.523 2,12 C2,6.477 6.477,2 12,2 M15.408,4.76 L12.588,6.809 A1 1 0 0 1 11.521,6.878 L11.412,6.809 L8.592,4.76 A8.018 8.018 0 0 0 6.402,6.285 L6.168,6.524 L7.245,9.837 A1 1 0 0 1 6.981,10.873 L6.881,10.955 L4.062,13.003 C4.176,13.913 4.442,14.774 4.835,15.562 L4.988,15.854 L8.473,15.854 A1 1 0 0 1 9.382,16.436 L9.424,16.545 L10.502,19.86 A8.041 8.041 0 0 0 13.132,19.92 L13.499,19.86 L14.576,16.545 A1 1 0 0 1 15.41,15.861 L15.527,15.854 L19.012,15.854 A7.93 7.93 0 0 0 19.888,13.342 L19.938,13.003 L17.118,10.955 A1 1 0 0 1 16.723,9.961 L16.755,9.837 L17.832,6.524 A8.029 8.029 0 0 0 15.71,4.91 Z M11.412,8.191 A1 1 0 0 1 12.479,8.122 L12.588,8.191 L15.441,10.264 A1 1 0 0 1 15.836,11.257 L15.804,11.382 L14.714,14.736 A1 1 0 0 1 13.88,15.42 L13.763,15.427 L10.237,15.427 A1 1 0 0 1 9.328,14.845 L9.286,14.736 L8.196,11.382 A1 1 0 0 1 8.46,10.346 L8.56,10.264 Z"/>
</svg>

