<svg xmlns="http://www.w3.org/2000/svg" width="24" height="24">
  <defs/>
  <path  d="M12,2 C17.523,2 22,6.477 22,12 C22,17.523 17.523,22 12,22 C6.477,22 2,17.523 2,12 C2,6.477 6.477,2 12,2 Z M17.53,11.254 L15.647,11.866 L14.872,14.251 L16.036,15.854 L19.012,15.854 C19.499,14.971 19.813,14.003 19.938,13.003 Z M6.47,11.254 L4.062,13.004 C4.187,14.004 4.501,14.971 4.988,15.854 L7.964,15.854 L9.128,14.252 L8.353,11.866 Z M15.408,4.76 L13,6.51 L13,8.49 L15.028,9.964 L16.913,9.352 L17.832,6.524 C17.142,5.789 16.32,5.19 15.408,4.76 Z M13.254,15.427 L10.746,15.427 L9.582,17.03 L10.502,19.86 C11.492,20.048 12.508,20.048 13.498,19.86 L14.418,17.03 Z M8.593,4.76 C7.681,5.19 6.858,5.789 6.168,6.524 L7.088,9.352 L8.972,9.964 L11,8.49 L11,6.51 Z M12,10.236 L10.322,11.455 L10.963,13.427 L13.037,13.427 L13.677,11.455 Z M19.253,8.621 L18.882,9.764 L19.854,10.47 C19.731,9.831 19.529,9.21 19.254,8.62 Z M4.747,8.621 C4.472,9.211 4.27,9.832 4.147,10.471 L5.118,9.764 Z M7.747,17.854 L6.547,17.854 C7.023,18.297 7.55,18.681 8.118,18.997 Z M16.253,17.854 L15.882,18.997 C16.45,18.681 16.977,18.297 17.452,17.854 L16.253,17.854 Z M12,4 C11.78,4 11.564,4.009 11.35,4.026 L11.029,4.058 L12,4.764 L12.971,4.058 C12.649,4.019 12.325,4 12,4 Z"/>
</svg>

