<svg xmlns="http://www.w3.org/2000/svg" width="24" height="24">
  <defs/>
  <path  d="M7.96,7.257 C9.357,6.21 11.312,5.746 13.208,6.138 C14.452,6.396 15.898,6.93 17.045,8.13 C18.209,9.347 18.955,11.134 18.999,13.678 C19.037,15.854 18.008,18.198 16.627,19.81 C15.931,20.623 15.094,21.313 14.177,21.69 C13.24,22.077 12.182,22.149 11.184,21.632 C10.291,21.17 9.703,20.568 9.414,19.818 C9.136,19.099 9.191,18.386 9.279,17.826 L9.319,17.595 L9.432,17.025 C9.482,16.775 9.521,16.566 9.541,16.373 C9.581,15.99 9.533,15.79 9.441,15.647 C9.219,15.303 8.937,15.097 8.521,14.827 L7.972,14.472 L7.706,14.29 C7.076,13.839 6.408,13.197 6.132,12.051 C5.647,10.046 6.542,8.321 7.96,7.257 M12.803,8.097 C11.458,7.819 10.09,8.16 9.159,8.857 C8.251,9.538 7.814,10.498 8.076,11.582 C8.2,12.095 8.463,12.379 8.915,12.695 L9.191,12.878 L9.662,13.178 C10.144,13.495 10.712,13.928 11.122,14.564 C11.567,15.254 11.592,15.986 11.53,16.58 A7.08 7.08 0 0 1 11.444,17.155 L11.286,17.955 A7.436 7.436 0 0 0 11.255,18.137 C11.184,18.589 11.195,18.877 11.279,19.098 C11.352,19.286 11.532,19.56 12.103,19.856 C12.467,20.044 12.893,20.057 13.413,19.842 C13.953,19.619 14.547,19.164 15.108,18.51 C16.241,17.187 17.028,15.302 16.999,13.713 C16.962,11.559 16.345,10.292 15.599,9.512 C14.838,8.715 13.829,8.309 12.803,8.097 M5,3.5 A2 2 0 1 1 5,7.5 A2 2 0 0 1 5,3.5 M18.5,4.5 A1 1 0 1 1 18.5,6.5 A1 1 0 0 1 18.5,4.5 M9.5,2 A1.5 1.5 0 1 1 9.5,5 A1.5 1.5 0 0 1 9.5,2 M14.5,2 A1.5 1.5 0 1 1 14.5,5 A1.5 1.5 0 0 1 14.5,2"/>
</svg>

