<svg xmlns="http://www.w3.org/2000/svg" width="24" height="24">
  <defs/>
  <path  d="M7.96,7.257 C9.357,6.21 11.312,5.746 13.208,6.138 C16.971,6.918 18.933,9.929 18.998,13.678 C19.052,16.725 17.118,20.478 14.176,21.691 C12.416,22.417 10.13,21.675 9.413,19.818 C9.146,19.125 9.199,18.452 9.311,17.774 L9.391,17.322 C9.449,17.009 9.508,16.693 9.541,16.373 C9.608,15.724 9.237,15.32 8.768,14.985 L8.528,14.823 L7.972,14.473 L7.706,14.29 C7.076,13.839 6.408,13.197 6.132,12.051 C5.647,10.046 6.542,8.321 7.96,7.257 M5,3.5 A2 2 0 1 1 5,7.5 A2 2 0 0 1 5,3.5 M18.5,4.5 A1 1 0 1 1 18.5,6.5 A1 1 0 0 1 18.5,4.5 M9.5,2 A1.5 1.5 0 1 1 9.5,5 A1.5 1.5 0 0 1 9.5,2 M14.5,2 A1.5 1.5 0 1 1 14.5,5 A1.5 1.5 0 0 1 14.5,2"/>
</svg>

