<svg xmlns="http://www.w3.org/2000/svg" width="24" height="24">
  <defs/>
  <path  d="M17.015,3.055 A1 1 0 0 1 18.275,4.603 L18.177,4.682 L16.076,6.183 A1.963 1.963 0 0 0 15.282,8.12 L15.314,8.272 L18.657,4.929 A1 1 0 0 1 20.154,6.249 L20.071,6.343 L16.728,9.686 C17.433,9.866 18.213,9.646 18.714,9.056 L18.817,8.924 L20.318,6.823 A1 1 0 0 1 22.012,7.878 L21.945,7.985 L20.445,10.087 A3.968 3.968 0 0 1 15.391,11.303 L15.211,11.203 L12.914,13.499 L17.071,17.657 A1 1 0 0 1 17.154,18.977 L17.071,19.071 A1 1 0 0 1 15.751,19.154 L15.657,19.071 L11.5,14.913 L7.343,19.071 A1 1 0 0 1 6.023,19.154 L5.929,19.071 A1 1 0 0 1 5.846,17.751 L5.929,17.657 L10.086,13.499 L8.476,11.889 A4.52 4.52 0 0 1 7.121,12.362 L6.871,12.399 A3.891 3.891 0 0 1 3.592,11.249 C2.663,10.319 2.132,9.15 2,8.027 C1.87,6.922 2.12,5.738 2.93,4.929 C3.739,4.119 4.922,3.869 6.027,3.999 C7.15,4.132 8.32,4.663 9.249,5.592 A3.891 3.891 0 0 1 10.399,8.87 C10.339,9.375 10.192,9.854 9.993,10.271 L9.889,10.475 L11.499,12.085 L13.797,9.789 A3.968 3.968 0 0 1 14.741,4.686 L14.913,4.556 Z"/>
</svg>

