<svg xmlns="http://www.w3.org/2000/svg" width="24" height="24">
  <defs/>
  <path  d="M18.41,3.287 C18.731,3.737 18.627,4.361 18.177,4.682 L16.076,6.183 C15.415,6.655 15.112,7.485 15.314,8.272 L18.657,4.929 C18.908,4.669 19.28,4.565 19.63,4.656 C19.979,4.748 20.252,5.021 20.344,5.37 C20.435,5.72 20.331,6.092 20.071,6.343 L16.728,9.686 C17.515,9.888 18.345,9.585 18.817,8.924 L20.318,6.823 C20.644,6.39 21.256,6.296 21.698,6.611 C22.139,6.926 22.249,7.536 21.945,7.985 L20.445,10.087 C19.252,11.757 16.982,12.241 15.211,11.203 L12.914,13.5 L17.071,17.657 C17.45,18.049 17.445,18.673 17.059,19.059 C16.673,19.445 16.049,19.45 15.657,19.071 L11.5,14.914 L7.343,19.071 C7.092,19.331 6.72,19.435 6.37,19.344 C6.021,19.252 5.748,18.979 5.656,18.63 C5.565,18.28 5.669,17.908 5.929,17.657 L10.086,13.5 L8.476,11.89 C8.013,12.14 7.459,12.33 6.87,12.399 C5.657,12.552 4.443,12.126 3.592,11.249 C2.663,10.319 2.132,9.15 2,8.027 C1.87,6.922 2.12,5.738 2.93,4.929 C3.739,4.119 4.922,3.869 6.027,3.999 C7.15,4.132 8.32,4.663 9.249,5.592 C10.126,6.443 10.552,7.657 10.399,8.87 C10.331,9.432 10.158,9.977 9.889,10.475 L11.5,12.085 L13.797,9.789 C12.76,8.019 13.244,5.749 14.913,4.556 L17.015,3.055 C17.464,2.734 18.089,2.838 18.41,3.287 Z M3.986,7.793 C4.066,8.473 4.397,9.226 5.006,9.834 C5.528,10.356 6.105,10.474 6.637,10.412 C7.217,10.344 7.693,10.064 7.879,9.879 C8.065,9.693 8.344,9.217 8.412,8.637 C8.475,8.104 8.357,7.527 7.835,7.006 C7.225,6.397 6.473,6.066 5.793,5.986 C5.095,5.904 4.594,6.092 4.343,6.343 C4.093,6.594 3.904,7.094 3.986,7.793 Z"/>
</svg>

