<svg xmlns="http://www.w3.org/2000/svg" width="24" height="24">
  <defs/>
  <path  d="M18.41,3.287 C18.731,3.737 18.627,4.361 18.177,4.682 L16.076,6.183 C15.415,6.655 15.112,7.485 15.314,8.272 L18.657,4.929 C18.908,4.669 19.28,4.565 19.63,4.656 C19.979,4.748 20.252,5.021 20.344,5.37 C20.435,5.72 20.331,6.092 20.071,6.343 L16.728,9.686 C17.515,9.888 18.345,9.585 18.817,8.924 L20.318,6.823 C20.644,6.39 21.256,6.296 21.698,6.611 C22.139,6.926 22.249,7.536 21.945,7.985 L20.445,10.087 C19.252,11.757 16.982,12.241 15.211,11.203 L13.475,12.939 L18.278,17.743 C18.657,18.135 18.652,18.759 18.266,19.145 C17.88,19.531 17.256,19.536 16.864,19.157 L12.061,14.354 L7.343,19.071 C7.092,19.331 6.72,19.435 6.37,19.344 C6.021,19.252 5.748,18.979 5.656,18.63 C5.565,18.28 5.669,17.908 5.929,17.657 L10.646,12.939 L9.086,11.379 L7.672,12.793 C7.282,13.183 6.648,13.183 6.258,12.793 L4.053,10.589 C2.531,9.067 2.154,6.742 3.117,4.817 C3.305,4.441 3.52,4.102 3.976,4.027 C4.293,3.976 4.616,4.08 4.843,4.307 L9.79,9.254 L9.794,9.258 L12.062,11.526 L13.798,9.79 C12.761,8.02 13.245,5.75 14.914,4.557 L17.016,3.056 C17.465,2.735 18.09,2.839 18.411,3.288 Z"/>
</svg>

