<svg xmlns="http://www.w3.org/2000/svg" width="24" height="24">
  <defs/>
  <path  d="M21.1,17.032 C20.891,17.195 20.625,17.268 20.362,17.235 C20.098,17.202 19.859,17.066 19.696,16.856 L17.202,13.65 C16.533,12.79 15.39,12.454 14.362,12.816 L14.869,13.455 L19.071,17.657 C19.45,18.049 19.445,18.673 19.059,19.059 C18.673,19.445 18.049,19.45 17.657,19.071 L13.455,14.869 L12.815,14.362 C12.453,15.39 12.79,16.534 13.65,17.202 L16.857,19.696 C17.279,20.039 17.349,20.657 17.015,21.086 C16.681,21.515 16.065,21.598 15.629,21.274 L12.422,18.78 C10.685,17.429 10.169,15.025 11.199,13.08 L4.422,7.705 C3.717,7.146 3.395,6.233 3.594,5.356 C3.793,4.478 4.478,3.793 5.356,3.594 C6.233,3.395 7.146,3.717 7.705,4.422 L13.08,11.199 C15.025,10.169 17.429,10.685 18.78,12.422 L21.275,15.629 C21.614,16.065 21.535,16.693 21.099,17.032 Z M6.138,5.665 C6.058,5.562 5.926,5.515 5.798,5.543 C5.671,5.572 5.572,5.671 5.543,5.798 C5.515,5.926 5.562,6.058 5.665,6.138 L7.949,7.95 L6.138,5.665 Z"/>
</svg>

