<svg xmlns="http://www.w3.org/2000/svg" width="24" height="24">
  <defs/>
  <path  d="M4.5,4.5 C4.5,3.395 5.395,2.5 6.5,2.5 L17.5,2.5 C18.605,2.5 19.5,3.395 19.5,4.5 L19.5,5 C19.501,5.731 18.974,6.357 18.254,6.481 C17.533,6.604 16.828,6.19 16.585,5.5 L7.722,5.5 L13.888,10.785 C14.243,11.089 14.447,11.533 14.447,12 C14.447,12.467 14.243,12.911 13.888,13.215 L7.722,18.5 L16.585,18.5 C16.828,17.81 17.533,17.396 18.254,17.519 C18.974,17.643 19.501,18.269 19.5,19 L19.5,19.5 C19.5,20.605 18.605,21.5 17.5,21.5 L6.5,21.5 C5.395,21.5 4.5,20.605 4.5,19.5 L4.5,18.23 C4.5,17.646 4.755,17.092 5.198,16.712 L10.695,12 L5.198,7.289 C4.755,6.909 4.5,6.354 4.5,5.77 Z"/>
</svg>

