<svg xmlns="http://www.w3.org/2000/svg" width="24" height="24">
  <defs/>
  <path  d="M5,4.5 C5,3.672 5.672,3 6.5,3 L17.5,3 C18.328,3 19,3.672 19,4.5 L19,5 C19,5.552 18.552,6 18,6 C17.448,6 17,5.552 17,5 L7,5 L7,5.54 L13.562,11.165 C13.806,11.374 13.946,11.679 13.946,12 C13.946,12.321 13.806,12.626 13.562,12.835 L7,18.46 L7,19 L17,19 C17,18.448 17.448,18 18,18 C18.552,18 19,18.448 19,19 L19,19.5 C19,20.328 18.328,21 17.5,21 L6.5,21 C5.672,21 5,20.328 5,19.5 L5,18.23 C5,17.792 5.191,17.376 5.524,17.091 L11.464,12 L5.524,6.909 C5.191,6.624 5,6.208 5,5.77 Z"/>
</svg>

