<svg xmlns="http://www.w3.org/2000/svg" width="24" height="24">
  <defs/>
  <path  d="M20.924,5.617 C21.079,5.991 20.993,6.421 20.707,6.707 L17.207,10.207 C16.956,10.467 16.584,10.571 16.234,10.48 C15.885,10.388 15.612,10.115 15.52,9.766 C15.429,9.416 15.533,9.044 15.793,8.793 L17.586,7 L10,7 C7.239,7 5,9.239 5,12 C5,14.761 7.239,17 10,17 L19,17 C19.552,17 20,17.448 20,18 C20,18.552 19.552,19 19,19 L10,19 C6.134,19 3,15.866 3,12 C3,8.134 6.134,5 10,5 L20,5 C20.404,5 20.769,5.243 20.924,5.617 Z"/>
</svg>

