<svg xmlns="http://www.w3.org/2000/svg" width="24" height="24">
  <defs/>
  <path  d="M17,2 C18.657,2 20,3.343 20,5 L20,7 C20,8.657 18.657,10 17,10 C15.343,10 14,8.657 14,7 L13,7 L13,17 L14,17 C14,15.343 15.343,14 17,14 C18.657,14 20,15.343 20,17 L20,19 C20,20.657 18.657,22 17,22 C15.343,22 14,20.657 14,19 L10,19 C10,20.657 8.657,22 7,22 C5.343,22 4,20.657 4,19 L4,17 C4,15.343 5.343,14 7,14 C8.657,14 10,15.343 10,17 L11,17 L11,7 L10,7 C10,8.657 8.657,10 7,10 C5.343,10 4,8.657 4,7 L4,5 C4,3.343 5.343,2 7,2 C8.657,2 10,3.343 10,5 L14,5 C14,3.343 15.343,2 17,2 Z M7,4 C6.448,4 6,4.448 6,5 L6,7 C6,7.552 6.448,8 7,8 C7.552,8 8,7.552 8,7 L8,5 C8,4.448 7.552,4 7,4 Z M17,4 C16.448,4 16,4.448 16,5 L16,7 C16,7.552 16.448,8 17,8 C17.552,8 18,7.552 18,7 L18,5 C18,4.448 17.552,4 17,4 Z M17,16 C16.493,16 16.066,16.38 16.007,16.883 L16,17 L16,19 C16.001,19.529 16.413,19.966 16.941,19.997 C17.47,20.028 17.931,19.642 17.993,19.117 L18,19 L18,17 C18,16.448 17.552,16 17,16 Z M7,16 C6.493,16 6.066,16.38 6.007,16.883 L6,17 L6,19 C6.001,19.529 6.413,19.966 6.941,19.997 C7.47,20.028 7.931,19.642 7.993,19.117 L8,19 L8,17 C8,16.448 7.552,16 7,16 Z"/>
</svg>

