<svg xmlns="http://www.w3.org/2000/svg" width="24" height="24">
  <defs/>
  <path  d="M15.5,20 L15.5,18.5 L8.5,18.5 L8.5,20 C8.5,20.828 7.828,21.5 7,21.5 C6.172,21.5 5.5,20.828 5.5,20 L5.5,18.5 L4,18.5 C3.172,18.5 2.5,17.828 2.5,17 C2.5,16.172 3.172,15.5 4,15.5 L5.5,15.5 L5.5,8.5 L4,8.5 C3.172,8.5 2.5,7.828 2.5,7 C2.5,6.172 3.172,5.5 4,5.5 L5.5,5.5 L5.5,4 C5.5,3.172 6.172,2.5 7,2.5 C7.828,2.5 8.5,3.172 8.5,4 L8.5,5.5 L15.5,5.5 L15.5,4 C15.5,3.172 16.172,2.5 17,2.5 C17.828,2.5 18.5,3.172 18.5,4 L18.5,5.5 L20,5.5 C20.828,5.5 21.5,6.172 21.5,7 C21.5,7.828 20.828,8.5 20,8.5 L18.5,8.5 L18.5,15.5 L20,15.5 C20.828,15.5 21.5,16.172 21.5,17 C21.5,17.828 20.828,18.5 20,18.5 L18.5,18.5 L18.5,20 C18.5,20.828 17.828,21.5 17,21.5 C16.172,21.5 15.5,20.828 15.5,20 Z M8.5,15.5 L15.5,15.5 L15.5,8.5 L8.5,8.5 Z"/>
</svg>

