<svg xmlns="http://www.w3.org/2000/svg" width="24" height="24">
  <defs/>
  <path  d="M14,2 C15.046,2 15.916,2.807 15.994,3.85 L16,4 L17,4 C18.046,4 18.916,4.807 18.994,5.85 L19,6 L19,9.003 C20.082,9.06 20.922,9.968 20.894,11.051 L20.885,11.199 L20.175,18.299 C20.028,19.765 18.838,20.908 17.367,20.995 L17.19,21 L6.81,21 C5.336,21 4.081,19.929 3.848,18.474 L3.825,18.299 L3.115,11.199 C3.007,10.12 3.778,9.152 4.854,9.016 L5,9.003 L5,5 C5,3.953 5.806,3.083 6.85,3.005 L7,3 L8,3 C9.046,3 9.916,3.807 9.994,4.85 L10,5 L11,5 L11,4 C11,2.953 11.806,2.083 12.85,2.005 L13,2 Z M14,4 L13,4 L13,11.874 C13.355,11.783 13.69,11.644 14,11.465 Z M11,7 L10,7 L10,11.465 C10.31,11.645 10.645,11.783 11,11.875 Z M8,5 L7,5 L7,9.014 C7.382,9.06 7.72,9.212 8,9.425 Z M17,6 L16,6 L16,9.425 C16.233,9.248 16.507,9.112 16.813,9.045 L17,9.015 Z"/>
</svg>

