<svg xmlns="http://www.w3.org/2000/svg" width="24" height="24">
  <defs/>
  <path  d="M14,2 C15.105,2 16,2.895 16,4 L17,4 C18.105,4 19,4.895 19,6 L19,9.003 C19.546,9.032 20.056,9.283 20.412,9.698 C20.769,10.112 20.939,10.655 20.885,11.199 L20.175,18.299 C20.021,19.832 18.731,21 17.19,21 L6.81,21 C5.269,21 3.979,19.832 3.825,18.299 L3.115,11.199 C3.061,10.655 3.231,10.112 3.588,9.698 C3.944,9.283 4.454,9.032 5,9.003 L5,5 C5,3.895 5.895,3 7,3 L8,3 C9.105,3 10,3.895 10,5 L11,5 L11,4 C11,2.895 11.895,2 13,2 Z M6.76,11 L5.105,11 L5.815,18.1 L5.834,18.215 C5.926,18.631 6.271,18.943 6.694,18.993 L6.81,19 L17.19,19 L17.307,18.993 C17.73,18.943 18.075,18.631 18.167,18.215 L18.185,18.099 L18.895,11 L17.24,11 L17.221,11.01 C17.188,11.033 17.16,11.063 17.14,11.098 C16.054,12.9 14.104,14.001 12,14 C9.896,14.001 7.946,12.9 6.86,11.098 C6.84,11.063 6.813,11.032 6.78,11.009 Z M14,4 L13,4 L13,11.874 L13.262,11.797 C13.435,11.74 13.602,11.671 13.763,11.592 L14,11.465 Z M11,7 L10,7 L10,11.465 L10.237,11.592 C10.398,11.671 10.565,11.74 10.737,11.797 L11,11.874 Z M8,5 L7,5 L7,9.014 C7.319,9.052 7.607,9.164 7.855,9.324 L8,9.425 Z M17,6 L16,6 L16,9.425 L16.145,9.324 C16.344,9.196 16.568,9.099 16.813,9.046 L17,9.014 Z"/>
</svg>

