<svg xmlns="http://www.w3.org/2000/svg" width="24" height="24">
  <defs/>
  <path  d="M16.61,3.207 C17.662,4.017 18.051,5.213 18.281,6.177 C18.34,6.425 18.392,6.672 18.44,6.904 L18.456,6.98 C18.496,7.175 18.537,7.37 18.581,7.565 C18.678,7.99 18.775,8.311 18.895,8.555 C19.116,8.999 19.454,9.417 19.893,9.927 L20.017,10.071 C20.407,10.521 20.861,11.048 21.227,11.643 C21.647,12.327 21.973,13.132 22.027,14.117 C22.08,15.094 21.861,16.173 21.314,17.406 C19.462,21.572 14.477,22.687 10.29,21.686 C6.037,20.67 2,17.355 2,12 C2,8.359 4.515,5.279 7.43,3.561 C10.304,1.867 14.048,1.237 16.61,3.207 Z M4,12 C4,16.144 7.092,18.865 10.754,19.741 C14.481,20.632 18.196,19.497 19.486,16.593 C19.939,15.576 20.062,14.815 20.03,14.226 C19.998,13.645 19.811,13.159 19.523,12.691 C19.247,12.241 18.898,11.836 18.493,11.366 L18.375,11.23 C17.945,10.73 17.45,10.14 17.105,9.445 C16.875,8.982 16.736,8.472 16.631,8.01 C16.583,7.802 16.539,7.589 16.497,7.385 L16.482,7.309 C16.434,7.078 16.388,6.858 16.336,6.642 C16.123,5.752 15.862,5.155 15.39,4.792 C13.785,3.558 11.029,3.761 8.445,5.284 C5.902,6.783 4,9.306 4,12 Z M12,8 C14.209,8 16,9.791 16,12 C16,14.209 14.209,16 12,16 C9.791,16 8,14.209 8,12 C8,9.791 9.791,8 12,8 Z M10,12 C10,13.105 10.895,14 12,14 C13.105,14 14,13.105 14,12 C14,10.895 13.105,10 12,10 C10.895,10 10,10.895 10,12 Z"/>
</svg>

