<svg xmlns="http://www.w3.org/2000/svg" width="24" height="24">
  <defs/>
  <path  d="M7.43,3.561 C10.304,1.867 14.048,1.237 16.61,3.207 C17.662,4.017 18.05,5.214 18.281,6.177 L18.358,6.532 L18.428,6.895 C18.534,7.465 18.642,8.045 18.895,8.555 C19.122,9.012 19.429,9.418 19.758,9.811 L20.16,10.277 C20.542,10.715 20.925,11.153 21.227,11.644 C21.647,12.328 21.973,13.133 22.027,14.118 C22.08,15.095 21.861,16.174 21.314,17.406 C19.462,21.572 14.477,22.688 10.289,21.686 C6.037,20.67 2,17.356 2,12 C2,8.36 4.515,5.28 7.43,3.561 M12,7 A5 5 0 1 0 12,17 A5 5 0 0 0 12,7 M12,9 A3 3 0 1 1 12,15 A3 3 0 0 1 12,9"/>
</svg>

