<svg xmlns="http://www.w3.org/2000/svg" width="24" height="24">
  <defs/>
  <path  d="M10.625,10.22 A1 1 0 0 1 10.781,11.625 L10.548,11.916 A2.16 2.16 0 0 0 10.584,14.659 L10.707,14.793 A4.16 4.16 0 0 1 11.014,20.333 L10.781,20.625 A1 1 0 1 1 9.219,19.375 L9.452,19.084 A2.16 2.16 0 0 0 9.416,16.341 L9.293,16.207 A4.16 4.16 0 0 1 8.986,10.667 L9.219,10.375 A1 1 0 0 1 10.625,10.219 Z M13.219,10.375 A1 1 0 0 1 14.853,11.522 L14.781,11.625 L14.548,11.916 A2.16 2.16 0 0 0 14.584,14.659 L14.707,14.793 A4.16 4.16 0 0 1 15.146,20.16 L15.014,20.333 L14.781,20.625 A1 1 0 0 1 13.147,19.478 L13.219,19.375 L13.452,19.084 A2.16 2.16 0 0 0 13.416,16.341 L13.293,16.207 A4.16 4.16 0 0 1 12.854,10.84 L12.986,10.667 Z M12,4 C15.228,4 17.535,4.478 19.083,4.993 L19.486,5.133 L19.852,5.275 C19.91,5.298 19.967,5.321 20.022,5.345 L20.334,5.481 C20.384,5.503 20.431,5.526 20.477,5.548 L20.737,5.676 C20.778,5.696 20.817,5.717 20.855,5.737 C21.75,6.214 21.982,7.233 21.683,8.03 L18.937,15.351 A1 1 0 0 1 17.065,14.649 L19.772,7.429 L19.562,7.328 L19.32,7.218 L19.043,7.105 L18.731,6.987 L18.561,6.927 L18.196,6.809 L17.794,6.691 A9.462 9.462 0 0 0 17.579,6.633 L17.12,6.52 A16.88 16.88 0 0 0 16.876,6.466 L16.36,6.364 C15.196,6.15 13.754,6 11.999,6 C9.84,6 8.155,6.228 6.881,6.52 L6.422,6.633 A9.462 9.462 0 0 0 6.207,6.691 L5.805,6.809 L5.439,6.928 L5.109,7.046 L4.958,7.105 L4.681,7.219 L4.438,7.328 L4.228,7.428 L6.936,14.648 A1 1 0 1 1 5.064,15.351 L2.318,8.031 C2.019,7.233 2.251,6.214 3.146,5.737 L3.389,5.613 C3.432,5.591 3.477,5.57 3.523,5.548 L3.818,5.413 C3.922,5.368 4.032,5.321 4.148,5.275 L4.515,5.134 L4.918,4.993 C6.466,4.478 8.773,4 12,4"/>
</svg>

