<svg xmlns="http://www.w3.org/2000/svg" width="24" height="24">
  <defs/>
  <path  d="M10.231,7.429 C10.561,4.234 13.865,2.735 16.612,3.956 L16.837,4.056 C19.976,5.451 22,8.565 22,12 C22,15.436 19.976,18.55 16.837,19.945 L16.612,20.045 C13.865,21.265 10.562,19.765 10.232,16.571 C10.076,15.052 9.999,13.527 10,12 C10,10.27 10.097,8.731 10.231,7.43 Z M15.8,5.783 C14.104,5.03 12.39,5.993 12.22,7.635 C12.072,9.085 11.999,10.542 12,12 C12,13.656 12.093,15.126 12.22,16.365 C12.39,18.007 14.104,18.971 15.8,18.217 L16.025,18.117 C18.442,17.043 20,14.645 20,12 C20,9.355 18.442,6.957 16.025,5.883 Z M6.78,4.625 L6.781,4.625 L6.244,5.296 C6.138,5.428 6.051,5.573 5.986,5.729 L7.629,5.072 C7.962,4.933 8.344,4.984 8.629,5.206 C8.914,5.428 9.057,5.786 9.004,6.143 C8.95,6.5 8.708,6.8 8.371,6.929 L6.368,7.73 C6.937,8.441 7.233,9.332 7.203,10.242 L7.629,10.072 C7.963,9.925 8.352,9.972 8.641,10.195 C8.931,10.417 9.076,10.78 9.02,11.141 C8.964,11.502 8.715,11.804 8.371,11.928 L6.133,12.824 C5.647,13.508 5.689,14.435 6.235,15.072 C6.352,15.208 6.458,15.351 6.555,15.502 L7.629,15.072 C7.963,14.925 8.352,14.972 8.641,15.195 C8.931,15.417 9.076,15.78 9.02,16.141 C8.964,16.502 8.715,16.804 8.371,16.928 L7.154,17.416 C7.19,18.335 6.893,19.235 6.318,19.953 L5.781,20.625 C5.436,21.056 4.806,21.126 4.375,20.781 C3.944,20.436 3.874,19.806 4.219,19.375 L4.756,18.704 C4.864,18.57 4.95,18.424 5.014,18.272 L3.371,18.929 C3.038,19.068 2.656,19.017 2.371,18.795 C2.086,18.573 1.943,18.215 1.996,17.858 C2.05,17.501 2.292,17.201 2.629,17.072 L4.632,16.27 C4.064,15.559 3.768,14.669 3.797,13.759 L3.371,13.929 C3.038,14.068 2.656,14.017 2.371,13.795 C2.086,13.573 1.943,13.215 1.996,12.858 C2.05,12.501 2.292,12.201 2.629,12.072 L4.867,11.176 C5.352,10.494 5.312,9.567 4.765,8.929 C4.647,8.791 4.54,8.648 4.445,8.499 L3.371,8.929 C3.038,9.068 2.656,9.017 2.371,8.795 C2.086,8.573 1.943,8.215 1.996,7.858 C2.05,7.501 2.292,7.201 2.629,7.072 L3.846,6.585 C3.81,5.666 4.107,4.765 4.682,4.047 L5.22,3.375 C5.439,3.083 5.799,2.934 6.161,2.986 C6.522,3.037 6.826,3.281 6.955,3.622 C7.084,3.963 7.017,4.348 6.78,4.625 Z"/>
</svg>

