<svg xmlns="http://www.w3.org/2000/svg" width="24" height="24">
  <defs/>
  <path  d="M3.146,5.737 C4.39,5.076 7.16,4 12,4 C16.84,4 19.61,5.076 20.854,5.737 C21.749,6.214 21.981,7.233 21.682,8.03 L19.106,14.9 A1.517 1.517 0 0 1 17.263,15.82 A23.231 23.231 0 0 0 15.155,15.322 A4.161 4.161 0 0 1 15.014,20.333 L14.781,20.625 A1 1 0 0 1 13.219,19.375 L13.452,19.084 A2.16 2.16 0 0 0 13.292,16.207 A4.151 4.151 0 0 1 12.456,15.008 A18.28 18.28 0 0 1 15.156,15.322 A4.184 4.184 0 0 0 14.707,14.792 A2.16 2.16 0 0 1 14.547,11.916 L14.781,11.625 A1 1 0 1 0 13.219,10.375 L12.986,10.667 A4.161 4.161 0 0 0 12.456,15.008 A13.35 13.35 0 0 0 10.936,15.042 A4.16 4.16 0 0 1 11.014,20.333 L10.781,20.625 A1 1 0 0 1 9.219,19.375 L9.452,19.084 A2.16 2.16 0 0 0 9.292,16.207 A4.163 4.163 0 0 1 8.64,15.361 C9.33,15.225 10.12,15.103 10.937,15.041 A4.217 4.217 0 0 0 10.707,14.793 A2.16 2.16 0 0 1 10.547,11.916 L10.781,11.625 A1 1 0 1 0 9.219,10.375 L8.986,10.667 A4.161 4.161 0 0 0 8.64,15.361 C7.828,15.521 7.154,15.701 6.737,15.821 A1.517 1.517 0 0 1 4.894,14.9 L2.318,8.03 C2.019,7.233 2.251,6.214 3.146,5.737"/>
</svg>

