<svg xmlns="http://www.w3.org/2000/svg" width="24" height="24">
  <defs/>
  <path  d="M6.78,4.625 A1 1 0 1 0 5.22,3.375 L4.682,4.047 A3.82 3.82 0 0 0 3.846,6.585 L2.629,7.072 A1 1 0 1 0 3.371,8.929 L4.445,8.499 C4.54,8.648 4.647,8.791 4.765,8.929 C5.312,9.567 5.352,10.494 4.867,11.176 L2.629,12.072 A1 1 0 1 0 3.371,13.929 L3.797,13.759 A3.823 3.823 0 0 0 4.632,16.27 L2.629,17.072 A1 1 0 1 0 3.371,18.929 L5.014,18.272 C4.95,18.424 4.864,18.57 4.756,18.704 L4.219,19.375 A1 1 0 0 0 5.781,20.625 L6.318,19.953 A3.82 3.82 0 0 0 7.154,17.416 L8.371,16.928 A1 1 0 1 0 7.629,15.072 L6.555,15.502 A3.848 3.848 0 0 0 6.235,15.072 A1.827 1.827 0 0 1 6.133,12.824 L8.371,11.928 A1 1 0 1 0 7.629,10.072 L7.203,10.242 A3.823 3.823 0 0 0 6.368,7.73 L8.371,6.929 A1 1 0 1 0 7.629,5.072 L5.986,5.729 A1.81 1.81 0 0 1 6.244,5.296 L6.781,4.625 Z M10.231,7.429 C10.561,4.234 13.865,2.735 16.612,3.956 L16.837,4.056 A8.694 8.694 0 0 1 16.837,19.945 L16.612,20.045 C13.865,21.265 10.562,19.765 10.232,16.571 A44.561 44.561 0 0 1 10,12 C10,10.27 10.097,8.731 10.231,7.43 Z"/>
</svg>

