<svg xmlns="http://www.w3.org/2000/svg" width="24" height="24">
  <defs/>
  <path  d="M12,2 C17.523,2 22,6.477 22,12 C22,17.523 17.523,22 12,22 C6.477,22 2,17.523 2,12 C2,6.477 6.477,2 12,2 Z M12,4 C7.582,4 4,7.582 4,12 C4,16.418 7.582,20 12,20 C16.418,20 20,16.418 20,12 C20,7.582 16.418,4 12,4 Z M14.5,7 C15.881,7 17,8.119 17,9.5 C17,10.881 15.881,12 14.5,12 C13.119,12 12,10.881 12,9.5 C12,8.119 13.119,7 14.5,7 Z M12.5,14 C13.328,14 14,14.672 14,15.5 C14,16.328 13.328,17 12.5,17 C11.672,17 11,16.328 11,15.5 C11,14.672 11.672,14 12.5,14 Z M8,11 C8.552,11 9,11.448 9,12 C9,12.552 8.552,13 8,13 C7.448,13 7,12.552 7,12 C7,11.448 7.448,11 8,11 Z M14.5,9 C14.224,9 14,9.224 14,9.5 C14,9.776 14.224,10 14.5,10 C14.776,10 15,9.776 15,9.5 C15,9.224 14.776,9 14.5,9 Z"/>
</svg>

