<svg xmlns="http://www.w3.org/2000/svg" width="24" height="24">
  <defs/>
  <path  d="M8,5.5 L5.5,5.5 L5.5,8 C5.5,8.828 4.828,9.5 4,9.5 C3.172,9.5 2.5,8.828 2.5,8 L2.5,5 C2.5,3.619 3.619,2.5 5,2.5 L8,2.5 C8.828,2.5 9.5,3.172 9.5,4 C9.5,4.828 8.828,5.5 8,5.5 Z M18.5,5.5 L16,5.5 C15.172,5.5 14.5,4.828 14.5,4 C14.5,3.172 15.172,2.5 16,2.5 L19,2.5 C20.381,2.5 21.5,3.619 21.5,5 L21.5,8 C21.5,8.828 20.828,9.5 20,9.5 C19.172,9.5 18.5,8.828 18.5,8 Z M8,18.5 C8.828,18.5 9.5,19.172 9.5,20 C9.5,20.828 8.828,21.5 8,21.5 L5,21.5 C3.619,21.5 2.5,20.381 2.5,19 L2.5,16 C2.5,15.172 3.172,14.5 4,14.5 C4.828,14.5 5.5,15.172 5.5,16 L5.5,18.5 Z M16,18.5 L18.5,18.5 L18.5,16 C18.5,15.172 19.172,14.5 20,14.5 C20.828,14.5 21.5,15.172 21.5,16 L21.5,19 C21.5,20.381 20.381,21.5 19,21.5 L16,21.5 C15.172,21.5 14.5,20.828 14.5,20 C14.5,19.172 15.172,18.5 16,18.5 Z"/>
</svg>

