<svg xmlns="http://www.w3.org/2000/svg" width="24" height="24">
  <defs/>
  <path  d="M4,15 A1 1 0 0 1 5,16 L5,19 L8,19 A1 1 0 1 1 8,21 L5,21 A2 2 0 0 1 3,19 L3,16 A1 1 0 0 1 4,15 M20,15 A1 1 0 0 1 20.993,15.883 L21,16 L21,19 A2 2 0 0 1 19.15,20.995 L19,21 L16,21 A1 1 0 0 1 15.883,19.007 L16,19 L19,19 L19,16 A1 1 0 0 1 20,15 M19,3 A2 2 0 0 1 20.995,4.85 L21,5 L21,8 A1 1 0 0 1 19.007,8.117 L19,8 L19,5 L16,5 A1 1 0 0 1 15.883,3.007 L16,3 Z M8,3 A1 1 0 0 1 8.117,4.993 L8,5 L5,5 L5,8 A1 1 0 0 1 3.007,8.117 L3,8 L3,5 A2 2 0 0 1 4.85,3.005 L5,3 Z"/>
</svg>

