<svg xmlns="http://www.w3.org/2000/svg" width="24" height="24">
  <defs/>
  <path  d="M7,9 L4,9 C3.448,9 3,8.552 3,8 C3,7.448 3.448,7 4,7 L7,7 L7,4 C7,3.448 7.448,3 8,3 C8.552,3 9,3.448 9,4 L9,7 C9,8.105 8.105,9 7,9 Z M7,17 L4,17 C3.448,17 3,16.552 3,16 C3,15.448 3.448,15 4,15 L7,15 C8.105,15 9,15.895 9,17 L9,20 C9,20.552 8.552,21 8,21 C7.448,21 7,20.552 7,20 Z M20,7 C20.552,7 21,7.448 21,8 C21,8.552 20.552,9 20,9 L17,9 C15.895,9 15,8.105 15,7 L15,4 C15,3.448 15.448,3 16,3 C16.552,3 17,3.448 17,4 L17,7 Z M17,15 L20,15 C20.552,15 21,15.448 21,16 C21,16.552 20.552,17 20,17 L17,17 L17,20 C17,20.552 16.552,21 16,21 C15.448,21 15,20.552 15,20 L15,17 C15,15.895 15.895,15 17,15 Z"/>
</svg>

