<svg xmlns="http://www.w3.org/2000/svg" width="24" height="24">
  <defs/>
  <path  d="M10.5,12 A1.5 1.5 0 0 1 11.993,13.356 L12,13.5 L12,18.5 A1.5 1.5 0 0 1 9.007,18.644 L9,18.5 L9,17.121 L5.06,21.061 A1.5 1.5 0 0 1 2.836,19.053 L2.939,18.939 L6.88,15 L5.5,15 A1.5 1.5 0 0 1 5.356,12.007 L5.5,12 L10.5,12 Z M18.94,2.94 A1.5 1.5 0 0 1 21.164,4.947 L21.061,5.061 L17.12,9 L18.5,9 A1.5 1.5 0 0 1 18.644,11.993 L18.5,12 L13.5,12 A1.5 1.5 0 0 1 12.007,10.644 L12,10.5 L12,5.5 A1.5 1.5 0 0 1 14.993,5.356 L15,5.5 L15,6.879 L18.94,2.939 Z"/>
</svg>

