<svg xmlns="http://www.w3.org/2000/svg" width="24" height="24">
  <defs/>
  <path  d="M4,6.5 L6.5,6.5 L6.5,4 C6.5,3.172 7.172,2.5 8,2.5 C8.828,2.5 9.5,3.172 9.5,4 L9.5,7 C9.5,8.381 8.381,9.5 7,9.5 L4,9.5 C3.172,9.5 2.5,8.828 2.5,8 C2.5,7.172 3.172,6.5 4,6.5 Z M17.5,6.5 L20,6.5 C20.828,6.5 21.5,7.172 21.5,8 C21.5,8.828 20.828,9.5 20,9.5 L17,9.5 C15.619,9.5 14.5,8.381 14.5,7 L14.5,4 C14.5,3.172 15.172,2.5 16,2.5 C16.828,2.5 17.5,3.172 17.5,4 Z M4,17.5 C3.172,17.5 2.5,16.828 2.5,16 C2.5,15.172 3.172,14.5 4,14.5 L7,14.5 C8.381,14.5 9.5,15.619 9.5,17 L9.5,20 C9.5,20.828 8.828,21.5 8,21.5 C7.172,21.5 6.5,20.828 6.5,20 L6.5,17.5 Z M20,17.5 L17.5,17.5 L17.5,20 C17.5,20.828 16.828,21.5 16,21.5 C15.172,21.5 14.5,20.828 14.5,20 L14.5,17 C14.5,15.619 15.619,14.5 17,14.5 L20,14.5 C20.828,14.5 21.5,15.172 21.5,16 C21.5,16.828 20.828,17.5 20,17.5 Z"/>
</svg>

