<svg xmlns="http://www.w3.org/2000/svg" width="24" height="24">
  <defs/>
  <path  d="M8.94,12.94 A1.5 1.5 0 0 1 11.164,14.947 L11.061,15.061 L7.12,19 L8.5,19 A1.5 1.5 0 0 1 8.644,21.993 L8.5,22 L3.5,22 A1.5 1.5 0 0 1 2.007,20.644 L2,20.5 L2,15.5 A1.5 1.5 0 0 1 4.993,15.356 L5,15.5 L5,16.879 L8.94,12.939 Z M20.5,2 A1.5 1.5 0 0 1 21.993,3.356 L22,3.5 L22,8.5 A1.5 1.5 0 0 1 19.007,8.644 L19,8.5 L19,7.121 L15.06,11.061 A1.5 1.5 0 0 1 12.836,9.053 L12.939,8.939 L16.88,5 L15.5,5 A1.5 1.5 0 0 1 15.356,2.007 L15.5,2 L20.5,2 Z"/>
</svg>

