<svg xmlns="http://www.w3.org/2000/svg" width="24" height="24">
  <defs/>
  <path  d="M12,2 C17.523,2 22,6.477 22,12 C22,17.523 17.523,22 12,22 C6.477,22 2,17.523 2,12 C2,6.477 6.477,2 12,2 Z M14.5,7 C13.119,7 12,8.119 12,9.5 C12,10.881 13.119,12 14.5,12 C15.881,12 17,10.881 17,9.5 C17,8.119 15.881,7 14.5,7 Z M12.5,14 C11.672,14 11,14.672 11,15.5 C11,16.328 11.672,17 12.5,17 C13.328,17 14,16.328 14,15.5 C14,14.672 13.328,14 12.5,14 Z M8,11 C7.448,11 7,11.448 7,12 C7,12.552 7.448,13 8,13 C8.552,13 9,12.552 9,12 C9,11.448 8.552,11 8,11 Z"/>
</svg>

