<svg xmlns="http://www.w3.org/2000/svg" width="24" height="24">
  <defs/>
  <path  d="M12,3 A1 1 0 0 1 12.993,3.883 L13,4 L13,5 L14.5,5 A7.5 7.5 0 0 1 14.743,19.996 L14.5,20 L9.5,20 A7.5 7.5 0 0 1 9.257,5.004 L9.5,5 L11,5 L11,4 A1 1 0 0 1 12,3 M15.5,10 A1 1 0 0 0 14.5,11 L14.5,11.5 L14,11.5 A1 1 0 1 0 14,13.5 L14.5,13.5 L14.5,14 A1 1 0 1 0 16.5,14 L16.5,13.5 L17,13.5 A1 1 0 1 0 17,11.5 L16.5,11.5 L16.5,11 A1 1 0 0 0 15.5,10 M8.5,10 A2.5 2.5 0 1 0 8.5,15 A2.5 2.5 0 0 0 8.5,10 M8.5,12 A0.5 0.5 0 1 1 8.5,13 A0.5 0.5 0 0 1 8.5,12"/>
</svg>

