<svg xmlns="http://www.w3.org/2000/svg" width="24" height="24">
  <defs/>
  <path  d="M17,4 C17.763,4 18.394,4.434 18.856,4.89 C19.337,5.363 19.778,5.999 20.17,6.7 C20.957,8.106 21.642,9.943 22.095,11.758 C22.545,13.559 22.794,15.44 22.635,16.919 C22.475,18.404 21.71,20 20,20 C18.524,20 17.348,19.24 16.386,18.469 L16.035,18.18 L15.543,17.765 L15.099,17.397 C14.08,16.572 13.175,16 12,16 C10.825,16 9.92,16.572 8.901,17.397 L8.457,17.765 L7.965,18.18 L7.615,18.469 C6.651,19.24 5.475,20 4,20 C2.289,20 1.524,18.404 1.365,16.919 C1.207,15.439 1.455,13.559 1.905,11.758 C2.358,9.943 3.043,8.106 3.83,6.699 C4.222,5.999 4.663,5.363 5.144,4.889 C5.606,4.434 6.237,4 7,4 C7.515,4 8.018,4.123 8.513,4.27 L9.105,4.451 C9.204,4.481 9.302,4.511 9.4,4.538 C10.265,4.786 11.15,5 12,5 C12.85,5 13.735,4.786 14.6,4.538 L15.485,4.271 C15.983,4.124 16.49,4 17,4 Z M17,6 C16.617,6 16.217,6.116 15.829,6.243 L15.371,6.394 C15.298,6.418 15.224,6.441 15.15,6.462 C14.265,6.714 13.15,7 12,7 C10.85,7 9.735,6.714 8.85,6.462 L8.63,6.394 L8.171,6.243 C7.783,6.115 7.383,6 7,6 C6.582,6.078 6.207,6.585 5.924,7.055 L5.766,7.33 L5.576,7.676 C4.894,8.894 4.266,10.556 3.846,12.243 C3.451,13.819 3.259,15.329 3.332,16.453 L3.358,16.746 L3.378,16.922 L3.408,17.13 C3.477,17.531 3.626,18 4,18 C4.812,18 5.49,17.596 6.333,16.926 L6.736,16.598 L7.496,15.962 L7.84,15.682 C8.904,14.839 10.235,14 12,14 C13.765,14 15.096,14.84 16.16,15.682 L16.505,15.962 L17.265,16.598 L17.667,16.926 C18.51,17.596 19.187,18 20,18 C20.34,18 20.494,17.613 20.571,17.241 L20.609,17.023 L20.646,16.706 C20.769,15.56 20.579,13.941 20.155,12.243 C19.769,10.697 19.209,9.171 18.593,7.989 L18.234,7.329 L18.076,7.056 C17.793,6.585 17.418,6.078 17,6 Z M8.5,8 C9.881,8 11,9.119 11,10.5 C11,11.881 9.881,13 8.5,13 C7.119,13 6,11.881 6,10.5 C6,9.119 7.119,8 8.5,8 Z M15.5,8 C16.007,8 16.434,8.38 16.493,8.883 L16.5,9 L16.5,9.5 L17,9.5 C17.529,9.501 17.966,9.913 17.997,10.441 C18.028,10.97 17.642,11.431 17.117,11.493 L17,11.5 L16.5,11.5 L16.5,12 C16.499,12.529 16.087,12.966 15.559,12.997 C15.03,13.028 14.569,12.642 14.507,12.117 L14.5,12 L14.5,11.5 L14,11.5 C13.471,11.499 13.034,11.087 13.003,10.559 C12.972,10.03 13.358,9.569 13.883,9.507 L14,9.5 L14.5,9.5 L14.5,9 C14.5,8.448 14.948,8 15.5,8 Z M8.5,10 C8.224,10 8,10.224 8,10.5 C8,10.776 8.224,11 8.5,11 C8.776,11 9,10.776 9,10.5 C9,10.224 8.776,10 8.5,10 Z"/>
</svg>

