<svg xmlns="http://www.w3.org/2000/svg" width="24" height="24">
  <defs/>
  <path  d="M17,4 C18.106,4 18.955,4.843 19.584,5.75 L19.797,6.071 L19.992,6.391 C20.054,6.495 20.113,6.599 20.17,6.699 C20.957,8.106 21.642,9.943 22.095,11.758 C22.545,13.559 22.794,15.44 22.635,16.919 C22.475,18.404 21.71,20 20,20 C18.466,20 17.257,19.18 16.275,18.379 L15.165,17.448 C14.242,16.692 13.232,16 12,16 C10.768,16 9.757,16.692 8.836,17.448 L7.726,18.378 C6.742,19.18 5.533,20 4,20 C2.289,20 1.524,18.404 1.365,16.919 C1.207,15.439 1.455,13.559 1.905,11.758 C2.358,9.943 3.043,8.106 3.83,6.699 L4.008,6.39 L4.203,6.071 L4.416,5.75 C5.045,4.843 5.894,4 7,4 C7.51,4 8.017,4.124 8.515,4.27 L9.108,4.452 C9.206,4.482 9.303,4.511 9.4,4.538 C10.265,4.786 11.15,5 12,5 C12.85,5 13.735,4.786 14.6,4.538 L15.485,4.271 C15.983,4.124 16.49,4 17,4 M8.5,8 A2.5 2.5 0 1 0 8.5,13 A2.5 2.5 0 0 0 8.5,8 M15.5,8 A1 1 0 0 0 14.5,9 L14.5,9.5 L14,9.5 A1 1 0 1 0 14,11.5 L14.5,11.5 L14.5,12 A1 1 0 1 0 16.5,12 L16.5,11.5 L17,11.5 A1 1 0 1 0 17,9.5 L16.5,9.5 L16.5,9 A1 1 0 0 0 15.5,8 M8.5,10 A0.5 0.5 0 1 1 8.5,11 A0.5 0.5 0 0 1 8.5,10"/>
</svg>

