<svg xmlns="http://www.w3.org/2000/svg" width="24" height="24">
  <defs/>
  <path  d="M5,3 L13.001,3 C14.106,3 15.001,3.895 15.001,5 L15.001,12 L16.001,12 C17.106,12 18.001,12.895 18.001,14 L18.001,16.5 C18.001,16.776 18.225,17 18.501,17 C18.777,17 19.001,16.776 19.001,16.5 L19,12 C18.244,12.001 17.552,11.575 17.211,10.9 C16.871,10.224 16.942,9.415 17.393,8.808 L16.293,7.707 C16.033,7.456 15.929,7.084 16.02,6.734 C16.112,6.385 16.385,6.112 16.734,6.02 C17.084,5.929 17.456,6.033 17.707,6.293 L20.414,9 C20.789,9.375 21,9.884 21,10.414 L21,16.5 C21,17.881 19.881,19 18.5,19 C17.119,19 16,17.881 16,16.5 L16,14 L15,14 L15,19 C15.552,19 16,19.448 16,20 C16,20.552 15.552,21 15,21 L3,21 C2.448,21 2,20.552 2,20 C2,19.448 2.448,19 3,19 L3,5 C3,3.895 3.895,3 5,3 Z M13,10 L13,5 L5,5 L5,10 Z"/>
</svg>

