<svg xmlns="http://www.w3.org/2000/svg" width="24" height="24">
  <defs/>
  <path  d="M13,3 C14.047,3 14.917,3.806 14.995,4.85 L15,5 L15,12 L16,12 C17.047,12 17.917,12.806 17.995,13.85 L18,14 L18,16.5 C18,16.759 18.197,16.975 18.455,16.999 C18.713,17.022 18.946,16.845 18.992,16.59 L19,16.5 L19,12 C18.6,11.999 18.209,11.879 17.877,11.655 C16.979,11.045 16.731,9.83 17.319,8.917 L17.394,8.808 L16.293,7.708 C15.917,7.335 15.896,6.734 16.246,6.336 C16.597,5.939 17.196,5.884 17.613,6.21 L17.707,6.293 L20.414,9 C20.746,9.332 20.951,9.77 20.992,10.238 L21,10.414 L21,16.5 C21.003,17.851 19.932,18.96 18.582,19.005 C17.232,19.049 16.09,18.012 16.005,16.664 L16,16.5 L16,14 L15,14 L15,19 C15.529,19.001 15.966,19.413 15.997,19.941 C16.028,20.47 15.642,20.931 15.117,20.993 L15,21 L3,21 C2.471,20.999 2.034,20.587 2.003,20.059 C1.972,19.53 2.358,19.069 2.883,19.007 L3,19 L3,5 C3,3.953 3.806,3.083 4.85,3.005 L5,3 Z M13,5 L5,5 L5,11 L13,11 Z M13,13 L5,13 L5,19 L13,19 Z"/>
</svg>

