<svg xmlns="http://www.w3.org/2000/svg" width="24" height="24">
  <defs/>
  <path  d="M12,3 C13.184,2.999 14.207,3.83 14.449,4.989 C14.691,6.149 14.086,7.319 13,7.792 L13,9.708 C13.912,10.105 14.502,11.005 14.502,12 C14.502,12.995 13.912,13.895 13,14.292 L13,16.208 C13.578,16.461 14.039,16.922 14.292,17.5 L16.208,17.5 C16.682,16.415 17.851,15.811 19.01,16.053 C20.169,16.295 20.999,17.316 20.999,18.5 C20.999,19.684 20.169,20.705 19.01,20.947 C17.851,21.189 16.682,20.585 16.208,19.5 L14.292,19.5 C13.844,20.526 12.768,21.128 11.659,20.975 C10.55,20.822 9.678,19.95 9.525,18.841 C9.372,17.732 9.974,16.656 11,16.208 L11,14.292 C10.088,13.895 9.498,12.995 9.498,12 C9.498,11.005 10.088,10.105 11,9.708 L11,7.792 C10.422,7.539 9.961,7.078 9.708,6.5 L7.792,6.5 C7.318,7.585 6.149,8.189 4.99,7.947 C3.831,7.705 3.001,6.684 3.001,5.5 C3.001,4.316 3.831,3.295 4.99,3.053 C6.149,2.811 7.318,3.415 7.792,4.5 L9.708,4.5 C10.106,3.589 11.006,3 12,3 Z M18.5,3 C19.881,3 21,4.119 21,5.5 C21,6.881 19.881,8 18.5,8 C17.119,8 16,6.881 16,5.5 C16,4.119 17.119,3 18.5,3 Z M5.5,16 C6.881,16 8,17.119 8,18.5 C8,19.881 6.881,21 5.5,21 C4.119,21 3,19.881 3,18.5 C3,17.119 4.119,16 5.5,16 Z M18.5,9.5 C19.881,9.5 21,10.619 21,12 C21,13.381 19.881,14.5 18.5,14.5 C17.119,14.5 16,13.381 16,12 C16,10.619 17.119,9.5 18.5,9.5 Z M5.5,9.5 C6.881,9.5 8,10.619 8,12 C8,13.381 6.881,14.5 5.5,14.5 C4.119,14.5 3,13.381 3,12 C3,10.619 4.119,9.5 5.5,9.5 Z M18.5,5 C18.224,5 18,5.224 18,5.5 C18,5.776 18.224,6 18.5,6 C18.776,6 19,5.776 19,5.5 C19,5.224 18.776,5 18.5,5 Z M5.5,11.5 C5.224,11.5 5,11.724 5,12 C5,12.276 5.224,12.5 5.5,12.5 C5.776,12.5 6,12.276 6,12 C6,11.724 5.776,11.5 5.5,11.5 Z M5.5,18 C5.224,18 5,18.224 5,18.5 C5,18.776 5.224,19 5.5,19 C5.776,19 6,18.776 6,18.5 C6,18.224 5.776,18 5.5,18 Z M18.5,11.5 C18.224,11.5 18,11.724 18,12 C18,12.276 18.224,12.5 18.5,12.5 C18.776,12.5 19,12.276 19,12 C19,11.724 18.776,11.5 18.5,11.5 Z"/>
</svg>

