<svg xmlns="http://www.w3.org/2000/svg" width="24" height="24">
  <defs/>
  <path  d="M3,11 C3,6.029 7.029,2 12,2 C16.971,2 21,6.029 21,11 L21,19.62 C21,21.45 19.034,22.607 17.435,21.719 L16.492,21.195 C15.88,20.855 15.135,20.86 14.528,21.207 L13.985,21.517 C12.755,22.22 11.245,22.22 10.015,21.517 L9.472,21.207 C8.865,20.86 8.12,20.855 7.508,21.195 L6.566,21.719 C4.966,22.607 3,21.45 3,19.62 Z M12,4 C8.134,4 5,7.134 5,11 L5,19.62 C5,19.762 5.075,19.893 5.197,19.965 C5.319,20.037 5.47,20.039 5.594,19.97 L6.537,19.447 C7.76,18.767 9.249,18.776 10.464,19.47 L11.008,19.781 C11.623,20.132 12.377,20.132 12.992,19.781 L13.536,19.471 C14.751,18.777 16.24,18.768 17.463,19.447 L18.406,19.97 C18.53,20.039 18.681,20.037 18.803,19.965 C18.925,19.893 19,19.762 19,19.62 L19,11 C19,7.134 15.866,4 12,4 Z M15,12 C14.172,12 13.5,11.328 13.5,10.5 C13.5,9.672 14.172,9 15,9 C15.828,9 16.5,9.672 16.5,10.5 C16.5,11.328 15.828,12 15,12 Z M10.5,10.5 C10.5,11.328 9.828,12 9,12 C8.172,12 7.5,11.328 7.5,10.5 C7.5,9.672 8.172,9 9,9 C9.828,9 10.5,9.672 10.5,10.5 Z"/>
</svg>

