<svg xmlns="http://www.w3.org/2000/svg" width="24" height="24">
  <defs/>
  <path  d="M12,2 C16.971,2 21,6.029 21,11 L21,19.62 C21,21.45 19.034,22.607 17.435,21.719 L17.072,21.524 C16.072,21.012 15.288,20.844 14.183,21.41 L13.985,21.518 C12.828,22.179 11.417,22.22 10.223,21.628 L10.015,21.518 C8.738,20.788 7.849,21.006 6.565,21.718 C4.965,22.608 3,21.451 3,19.621 L3,11 C3,6.029 7.029,2 12,2 Z M8.5,9 C7.672,9 7,9.672 7,10.5 C7,11.328 7.672,12 8.5,12 C9.328,12 10,11.328 10,10.5 C10,9.672 9.328,9 8.5,9 Z M15.5,9 C14.672,9 14,9.672 14,10.5 C14,11.328 14.672,12 15.5,12 C16.328,12 17,11.328 17,10.5 C17,9.672 16.328,9 15.5,9 Z"/>
</svg>

