<svg xmlns="http://www.w3.org/2000/svg" width="24" height="24">
  <defs/>
  <path  d="M9,2 C10.148,1.999 11.241,2.492 12,3.354 C12.759,2.492 13.852,1.999 15,2 L15.5,2 C16.328,2 17,2.672 17,3.5 L17,4 C17,4.729 16.805,5.412 16.465,6 L19,6 C20.105,6 21,6.895 21,8 L21,11 C21,11.715 20.619,12.375 20,12.732 L20,18 C20,19.657 18.657,21 17,21 L7,21 C5.343,21 4,19.657 4,18 L4,12.732 C3.381,12.375 3,11.715 3,11 L3,8 C3,6.895 3.895,6 5,6 L7.535,6 C7.183,5.392 6.999,4.702 7,4 L7,3.5 C7,2.672 7.672,2 8.5,2 Z M11,13 L6,13 L6,18 C6,18.507 6.38,18.934 6.883,18.993 L7,19 L11,19 Z M18,13 L13,13 L13,19 L17,19 L17.117,18.993 C17.576,18.939 17.939,18.576 17.993,18.117 L18,18 Z M11,8 L5,8 L5,11 L11,11 Z M19,8 L13,8 L13,11 L19,11 Z M15,4 C13.895,4 13,4.895 13,6 C14.105,6 15,5.105 15,4 Z M9,4 C9,5.105 9.895,6 11,6 C11,4.895 10.105,4 9,4 Z"/>
</svg>

