<svg xmlns="http://www.w3.org/2000/svg" width="24" height="24">
  <defs/>
  <path  d="M8.667,2 C10.007,2 11.205,2.608 12,3.564 C12.822,2.572 14.044,1.999 15.333,2 L15.4,2 C16.836,2 18,3.164 18,4.6 C18,5.1 17.892,5.573 17.7,6 L18,6 C19.657,6 21,7.343 21,9 L21,18 C21,19.657 19.657,21 18,21 L6,21 C4.343,21 3,19.657 3,18 L3,9 C3,7.343 4.343,6 6,6 L6.3,6 C6.108,5.573 6,5.1 6,4.6 C6,3.164 7.164,2 8.6,2 Z M11,14 L5,14 L5,18 C5,18.552 5.448,19 6,19 L11,19 Z M19,14 L13,14 L13,19 L18,19 C18.507,19 18.934,18.62 18.993,18.117 L19,18 Z M18,8 L13,8 L13,12 L19,12 L19,9 C19,8.448 18.552,8 18,8 Z M11,8 L6,8 C5.493,8 5.066,8.38 5.007,8.883 L5,9 L5,12 L11,12 Z M15.4,4 L15.333,4 C14.213,4 13.278,4.788 13.053,5.84 L13.023,6 L14.6,6 C15.373,6 16,5.373 16,4.6 C16,4.306 15.787,4.056 15.497,4.008 Z M8.667,4 L8.6,4 C8.269,4 8,4.269 8,4.6 C8,5.373 8.627,6 9.4,6 L10.976,6 C10.81,4.852 9.827,4 8.667,4 Z"/>
</svg>

