<svg xmlns="http://www.w3.org/2000/svg" width="24" height="24">
  <defs/>
  <path  d="M9,2 C10.148,1.999 11.241,2.492 12,3.354 C12.759,2.492 13.852,1.999 15,2 L15.5,2 C16.328,2 17,2.672 17,3.5 L17,4 C17,4.729 16.805,5.412 16.465,6 L19,6 C20.105,6 21,6.895 21,8 L21,10 C21,10.364 20.903,10.706 20.732,11 L13,11 L13,8 C13,7.448 12.552,7 12,7 C11.448,7 11,7.448 11,8 L11,11 L3.268,11 C3.092,10.696 3,10.351 3,10 L3,8 C3,6.895 3.895,6 5,6 L7.535,6 C7.183,5.392 6.999,4.702 7,4 L7,3.5 C7,2.672 7.672,2 8.5,2 Z M20,13 L20,18 C20,19.657 18.657,21 17,21 L13,21 L13,13 Z M11,13 L11,21 L7,21 C5.343,21 4,19.657 4,18 L4,13 Z M15,4 C13.895,4 13,4.895 13,6 C14.105,6 15,5.105 15,4 Z M9,4 C9,5.105 9.895,6 11,6 C11,4.895 10.105,4 9,4 Z"/>
</svg>

