<svg xmlns="http://www.w3.org/2000/svg" width="24" height="24">
  <defs/>
  <path  d="M19,4 C20.589,4 21.902,5.238 21.995,6.824 L22,7 L22,17 C22,18.589 20.762,19.902 19.176,19.995 L19,20 L5,20 C3.411,20 2.098,18.762 2.005,17.176 L2,17 L2,7 C2,5.411 3.238,4.098 4.824,4.005 L5,4 Z M19,6 L5,6 C4.493,6 4.066,6.38 4.007,6.883 L4,7 L4,17 C4,17.507 4.38,17.934 4.883,17.993 L5,18 L19,18 C19.507,18 19.934,17.62 19.993,17.117 L20,17 L20,7 C20,6.493 19.62,6.066 19.117,6.007 Z M12.354,8.992 C13.039,7.806 14.525,7.354 15.754,7.959 L15.906,8.039 L16.499,8.383 C17.798,9.132 18.243,10.793 17.493,12.091 C16.895,13.128 15.78,13.757 14.583,13.733 L14.378,13.723 L15.346,15.4 C15.613,15.859 15.475,16.446 15.032,16.738 C14.588,17.03 13.994,16.925 13.678,16.498 L13.614,16.4 L12,13.605 L10.386,16.4 C10.12,16.855 9.546,17.026 9.074,16.789 C8.603,16.553 8.396,15.991 8.602,15.505 L8.654,15.4 L9.622,13.723 C8.355,13.827 7.142,13.192 6.507,12.091 C5.792,10.853 6.16,9.272 7.349,8.477 L7.501,8.383 L8.095,8.04 C9.281,7.356 10.794,7.708 11.555,8.846 L11.646,8.992 L12,9.604 Z M9.913,9.992 C9.766,9.738 9.457,9.627 9.182,9.73 L9.094,9.772 L8.5,10.115 C8.336,10.21 8.216,10.366 8.167,10.549 C8.117,10.732 8.143,10.927 8.238,11.091 C8.568,11.662 9.276,11.891 9.878,11.621 L9.995,11.561 L10.613,11.204 Z M14.086,9.992 L13.386,11.204 L14.005,11.561 C14.62,11.916 15.406,11.705 15.761,11.091 C15.856,10.927 15.882,10.732 15.832,10.549 C15.783,10.366 15.663,10.21 15.499,10.115 L14.905,9.772 C14.767,9.692 14.603,9.671 14.449,9.712 C14.296,9.753 14.165,9.854 14.085,9.992 Z"/>
</svg>

