<svg xmlns="http://www.w3.org/2000/svg" width="24" height="24">
  <defs/>
  <path  d="M8.667,2 C10.007,2 11.205,2.608 12,3.564 C12.767,2.639 13.884,2.075 15.084,2.007 L15.334,2 L15.4,2 C16.836,2 18,3.164 18,4.6 C18,5.016 17.925,5.414 17.789,5.783 L17.699,6 L18,6 C19.589,6 20.902,7.238 20.995,8.824 L21,9 L21,12 L13,12 L13,6 L11,6 L11,12 L3,12 L3,9 C3,7.411 4.238,6.098 5.824,6.005 L6,6 L6.3,6 C6.108,5.573 6,5.1 6,4.6 C6,3.228 7.066,2.092 8.436,2.005 L8.6,2 Z M21,14 L21,18 C21,19.589 19.762,20.902 18.176,20.995 L18,21 L13,21 L13,14 Z M11,14 L11,21 L6,21 C4.411,21 3.098,19.762 3.005,18.176 L3,18 L3,14 Z M15.4,4 L15.333,4 C14.213,4 13.278,4.788 13.053,5.84 L13.023,6 L14.6,6 C15.373,6 16,5.373 16,4.6 C16,4.306 15.787,4.056 15.497,4.008 Z M8.667,4 L8.6,4 C8.269,4 8,4.269 8,4.6 C8,5.373 8.627,6 9.4,6 L10.976,6 C10.81,4.852 9.827,4 8.667,4 Z"/>
</svg>

