<svg xmlns="http://www.w3.org/2000/svg" width="24" height="24">
  <defs/>
  <path  d="M19,4 A3 3 0 0 1 21.995,6.824 L22,7 L22,17 A3 3 0 0 1 19.176,19.995 L19,20 L5,20 A3 3 0 0 1 2.005,17.176 L2,17 L2,7 A3 3 0 0 1 4.824,4.005 L5,4 Z M12.354,8.992 L12,9.604 L11.646,8.992 A2.6 2.6 0 0 0 8.094,8.04 L7.501,8.383 A2.714 2.714 0 0 0 6.507,12.091 A3.286 3.286 0 0 0 9.622,13.723 L8.654,15.4 A1 1 0 0 0 10.386,16.4 L12,13.605 L13.614,16.4 A1 1 0 1 0 15.346,15.4 L14.378,13.723 A3.286 3.286 0 0 0 17.493,12.091 A2.714 2.714 0 0 0 16.499,8.383 L15.906,8.04 A2.6 2.6 0 0 0 12.354,8.992 M14.817,9.73 L14.905,9.772 L15.499,10.115 A0.714 0.714 0 0 1 15.761,11.091 A1.286 1.286 0 0 1 14.121,11.621 L14.004,11.561 L13.386,11.204 L14.086,9.992 A0.6 0.6 0 0 1 14.726,9.704 Z M9.914,9.992 L10.614,11.204 L9.995,11.561 A1.286 1.286 0 0 1 8.239,11.091 A0.714 0.714 0 0 1 8.501,10.115 L9.094,9.772 A0.6 0.6 0 0 1 9.914,9.992"/>
</svg>

