<svg xmlns="http://www.w3.org/2000/svg" width="24" height="24">
  <defs/>
  <path  d="M12,2 C12.552,2 13,2.448 13,3 L13,8.126 C14.765,8.584 15.998,10.176 15.998,12 C15.998,13.824 14.765,15.416 13,15.874 L13,21 C13,21.552 12.552,22 12,22 C11.448,22 11,21.552 11,21 L11,15.874 C9.235,15.416 8.002,13.824 8.002,12 C8.002,10.176 9.235,8.584 11,8.126 L11,3 C11,2.448 11.448,2 12,2 Z M12,14 C13.105,14 14,13.105 14,12 C14,10.895 13.105,10 12,10 C10.895,10 10,10.895 10,12 C10,13.105 10.895,14 12,14 Z"/>
</svg>

