<svg xmlns="http://www.w3.org/2000/svg" width="24" height="24">
  <defs/>
  <path  d="M6,3 C7.463,2.998 8.714,4.051 8.961,5.493 C9.209,6.935 8.38,8.345 7,8.83 L7,9 C7,10.105 7.895,11 9,11 L15,11 C17.209,11 19,12.791 19,15 L19,15.17 C20.378,15.657 21.205,17.066 20.958,18.507 C20.711,19.947 19.462,21 18,21 C16.538,21 15.289,19.947 15.042,18.507 C14.795,17.066 15.622,15.657 17,15.17 L17,15 C17,13.895 16.105,13 15,13 L9,13 C8.298,13.001 7.608,12.817 7,12.465 L7,15.171 C8.378,15.658 9.205,17.067 8.958,18.508 C8.711,19.948 7.462,21.001 6,21.001 C4.538,21.001 3.289,19.948 3.042,18.508 C2.795,17.067 3.622,15.658 5,15.171 L5,8.829 C3.624,8.34 2.8,6.933 3.046,5.494 C3.293,4.055 4.54,3.002 6,3 Z M6,5 C5.448,5 5,5.448 5,6 C5,6.552 5.448,7 6,7 C6.552,7 7,6.552 7,6 C7,5.448 6.552,5 6,5 Z M6,17 C5.448,17 5,17.448 5,18 C5,18.552 5.448,19 6,19 C6.552,19 7,18.552 7,18 C7,17.448 6.552,17 6,17 Z M18,17 C17.448,17 17,17.448 17,18 C17,18.552 17.448,19 18,19 C18.552,19 19,18.552 19,18 C19,17.448 18.552,17 18,17 Z"/>
</svg>

