<svg xmlns="http://www.w3.org/2000/svg" width="24" height="24">
  <defs/>
  <path  d="M6,3 A3 3 0 0 1 7.172,8.762 L7,8.83 L7,15.172 A3.001 3.001 0 1 1 4.828,15.239 L5,15.17 L5,8.829 A3.001 3.001 0 0 1 6,3 M18,10 A1 1 0 0 1 18.993,10.883 L19,11 L19,15.17 A3.001 3.001 0 1 1 16.828,15.238 L17,15.17 L17,11 A1 1 0 0 1 18,10 M16.586,3.172 L18,4.586 L19.414,3.172 A1 1 0 1 1 20.828,4.586 L19.414,6 L20.828,7.414 A1 1 0 1 1 19.414,8.828 L18,7.414 L16.586,8.828 A1 1 0 1 1 15.172,7.414 L16.586,6 L15.172,4.586 A1 1 0 0 1 16.586,3.172"/>
</svg>

