<svg xmlns="http://www.w3.org/2000/svg" width="24" height="24">
  <defs/>
  <path  d="M12.793,3.172 A1 1 0 0 1 14.29,4.492 L14.207,4.586 L13.793,5 L16,5 A3 3 0 0 1 18.995,7.824 L19,8 L19,15.17 A3.001 3.001 0 0 1 18,21 A3 3 0 0 1 16.828,15.238 L17,15.17 L17,8 A1 1 0 0 0 16.117,7.007 L16,7 L13.793,7 L14.207,7.414 A1 1 0 0 1 12.887,8.912 L12.793,8.828 L10.672,6.708 A1 1 0 0 1 10.588,5.387 L10.672,5.293 L12.792,3.172 Z M6,3 A3 3 0 0 1 7.172,8.762 L7,8.83 L7,15.172 A3.001 3.001 0 0 1 6,21 A3 3 0 0 1 4.828,15.238 L5,15.17 L5,8.829 A3.001 3.001 0 0 1 6,3"/>
</svg>

