<svg xmlns="http://www.w3.org/2000/svg" width="24" height="24">
  <defs/>
  <path  d="M6.03,2 C6.45,2.013 6.817,2.286 6.949,2.684 L8.72,8 L15.278,8 L17.05,2.684 C17.183,2.286 17.55,2.013 17.969,2.001 C18.389,1.989 18.771,2.239 18.927,2.629 L21.825,9.873 C22.643,11.919 22.027,14.259 20.306,15.635 L13.25,21.28 C12.52,21.864 11.482,21.864 10.752,21.28 L3.694,15.634 C1.973,14.258 1.356,11.918 2.174,9.872 L5.073,2.63 C5.228,2.24 5.61,1.989 6.029,2 Z M5.915,5.906 L4.031,10.616 C3.54,11.843 3.909,13.247 4.941,14.073 L12,19.719 L19.058,14.073 C20.09,13.247 20.46,11.843 19.969,10.616 L18.085,5.906 L16.949,9.316 C16.813,9.725 16.431,10 16,10 L8,10 C7.569,10 7.187,9.725 7.051,9.316 Z"/>
</svg>

