<svg xmlns="http://www.w3.org/2000/svg" width="24" height="24">
  <defs/>
  <path  d="M12.793,3.172 C13.166,2.8 13.765,2.782 14.16,3.13 C14.556,3.479 14.613,4.075 14.29,4.492 L14.207,4.586 L13.793,5 L16,5 C17.589,5 18.902,6.238 18.995,7.824 L19,8 L19,15.17 C20.377,15.658 21.203,17.066 20.956,18.506 C20.709,19.946 19.461,20.999 18,21 C16.573,21 15.344,19.996 15.059,18.598 C14.775,17.2 15.514,15.795 16.828,15.238 L17,15.17 L17,8 C17,7.493 16.62,7.066 16.117,7.007 L16,7 L13.793,7 L14.207,7.414 C14.583,7.787 14.604,8.388 14.254,8.786 C13.903,9.183 13.304,9.238 12.887,8.912 L12.793,8.828 L10.672,6.708 C10.315,6.352 10.279,5.786 10.588,5.387 L10.672,5.293 L12.792,3.172 Z M6,3 C7.427,3 8.656,4.004 8.941,5.402 C9.225,6.8 8.486,8.205 7.172,8.762 L7,8.83 L7,15.172 C8.374,15.662 9.198,17.069 8.951,18.507 C8.704,19.944 7.459,20.997 6,21 C4.573,21 3.344,19.996 3.059,18.598 C2.775,17.2 3.514,15.795 4.828,15.238 L5,15.17 L5,8.829 C3.624,8.34 2.8,6.933 3.046,5.494 C3.293,4.055 4.54,3.002 6,3 Z M6,5 C5.448,5 5,5.448 5,6 C5,6.552 5.448,7 6,7 C6.552,7 7,6.552 7,6 C7,5.448 6.552,5 6,5 Z M6,17 C5.448,17 5,17.448 5,18 C5,18.552 5.448,19 6,19 C6.552,19 7,18.552 7,18 C7,17.448 6.552,17 6,17 Z M18,17 C17.448,17 17,17.448 17,18 C17,18.552 17.448,19 18,19 C18.552,19 19,18.552 19,18 C19,17.448 18.552,17 18,17 Z"/>
</svg>

