<svg xmlns="http://www.w3.org/2000/svg" width="24" height="24">
  <defs/>
  <path  d="M6,3 C7.427,3 8.656,4.004 8.941,5.402 C9.225,6.8 8.486,8.205 7.172,8.762 L7,8.83 L7,15.172 C8.362,15.653 9.188,17.036 8.966,18.463 C8.743,19.89 7.536,20.957 6.093,21.001 C4.649,21.046 3.379,20.056 3.069,18.645 C2.759,17.234 3.498,15.803 4.828,15.239 L5,15.17 L5,8.829 C3.624,8.34 2.8,6.933 3.046,5.494 C3.293,4.055 4.54,3.002 6,3 Z M18,10 C18.507,10 18.934,10.38 18.993,10.883 L19,11 L19,15.17 C20.362,15.651 21.188,17.033 20.967,18.46 C20.746,19.887 19.539,20.954 18.095,21 C16.652,21.045 15.381,20.055 15.071,18.645 C14.76,17.234 15.499,15.803 16.828,15.238 L17,15.17 L17,11 C17,10.448 17.448,10 18,10 Z M15.172,3.172 C15.528,2.815 16.094,2.779 16.492,3.088 L16.586,3.172 L18,4.586 L19.414,3.172 C19.787,2.796 20.388,2.775 20.786,3.125 C21.183,3.476 21.238,4.075 20.912,4.492 L20.828,4.586 L19.414,6 L20.828,7.414 C21.204,7.787 21.225,8.388 20.875,8.786 C20.524,9.183 19.925,9.238 19.508,8.912 L19.414,8.828 L18,7.414 L16.586,8.828 C16.213,9.204 15.612,9.225 15.214,8.875 C14.817,8.524 14.762,7.925 15.088,7.508 L15.172,7.414 L16.586,6 L15.172,4.586 C14.782,4.196 14.782,3.562 15.172,3.172 Z M6,5 C5.448,5 5,5.448 5,6 C5,6.552 5.448,7 6,7 C6.552,7 7,6.552 7,6 C7,5.448 6.552,5 6,5 Z M6,17 C5.448,17 5,17.448 5,18 C5,18.552 5.448,19 6,19 C6.552,19 7,18.552 7,18 C7,17.448 6.552,17 6,17 Z M18,17 C17.448,17 17,17.448 17,18 C17,18.552 17.448,19 18,19 C18.552,19 19,18.552 19,18 C19,17.448 18.552,17 18,17 Z"/>
</svg>

