<svg xmlns="http://www.w3.org/2000/svg" width="24" height="24">
  <defs/>
  <path  d="M6.315,6.176 C6.065,5.538 6.075,4.809 6.186,4.142 A6.77 6.77 0 0 1 8.306,5.212 C8.586,5.426 8.953,5.495 9.295,5.392 A9.343 9.343 0 0 1 12,5 C12.961,5 13.874,5.14 14.703,5.391 C15.045,5.495 15.412,5.425 15.691,5.211 A6.77 6.77 0 0 1 17.81,4.141 C17.921,4.808 17.93,5.537 17.682,6.174 C17.532,6.558 17.607,7 17.89,7.314 C18.614,8.117 19,9.04 19,10 C19,12.114 17.03,14.187 13.866,14.818 C13.074,14.976 12.765,15.973 13.371,16.544 C13.76,16.91 14,17.426 14,18 L14,21 A1 1 0 0 0 16,21 L16,18 C16,17.43 15.88,16.888 15.666,16.397 C18.683,15.35 21,12.993 21,10 C21,8.653 20.516,7.415 19.713,6.378 C19.923,5.558 19.904,4.732 19.824,4.098 C19.753,3.53 19.654,2.786 19.254,2.342 C18.659,1.683 17.674,2.071 16.974,2.31 A9.081 9.081 0 0 0 14.849,3.355 A11.432 11.432 0 0 0 12,3 C11.006,3 10.047,3.125 9.149,3.356 A9.08 9.08 0 0 0 7.024,2.311 C6.324,2.071 5.338,1.683 4.743,2.342 C4.335,2.794 4.25,3.479 4.177,4.061 L4.172,4.099 C4.092,4.734 4.074,5.561 4.284,6.382 C3.484,7.418 3,8.654 3,10 C3,12.992 5.317,15.35 8.334,16.397 A3.986 3.986 0 0 0 8,17.98 L7.832,18.014 C7.115,18.113 6.656,18.024 6.344,17.892 C5.584,17.57 5.192,16.759 4.714,16.139 C4.416,15.754 3.982,15.273 3.316,15.051 A1 1 0 0 0 2.684,16.949 C3.242,17.135 3.628,18.091 3.982,18.515 C4.355,18.963 4.851,19.431 5.562,19.733 C6.244,20.023 7.045,20.126 8,20.009 L8,21 A1 1 0 0 0 10,21 L10,18 C10,17.426 10.24,16.91 10.629,16.544 C11.236,15.972 10.926,14.976 10.134,14.818 C6.969,14.187 5,12.114 5,10 C5,9.042 5.385,8.119 6.108,7.316 C6.391,7.002 6.465,6.56 6.315,6.176"/>
</svg>

