<svg xmlns="http://www.w3.org/2000/svg" width="24" height="24">
  <defs/>
  <path  d="M12,2 C17.523,2 22,6.477 22,12 C22,17.523 17.523,22 12,22 C6.477,22 2,17.523 2,12 C2,6.477 6.477,2 12,2 M12,4 A8 8 0 1 0 12,20 A8 8 0 0 0 12,4 M9.243,6.212 A5.77 5.77 0 0 1 10.413,6.765 A7.12 7.12 0 0 1 12,6.588 C12.548,6.588 13.08,6.649 13.586,6.765 A5.773 5.773 0 0 1 14.756,6.212 L15.04,6.12 C15.433,6.003 15.87,5.927 16.237,6.11 C16.407,6.195 16.549,6.328 16.651,6.488 C16.859,6.814 16.934,7.234 16.98,7.611 C17.022,7.957 17.037,8.41 16.947,8.881 C17.394,9.516 17.667,10.268 17.667,11.088 C17.667,12.933 16.352,14.35 14.662,15.064 C14.7,15.211 14.727,15.363 14.74,15.519 L14.75,15.765 L14.721,18.51 A1 1 0 1 1 12.721,18.49 L12.75,15.75 A0.743 0.743 0 0 0 12.582,15.282 L12.514,15.209 C11.91,14.639 12.218,13.648 13.007,13.49 C14.747,13.143 15.667,12.044 15.667,11.088 C15.667,10.641 15.485,10.191 15.11,9.782 A1.006 1.006 0 0 1 14.88,8.842 L14.92,8.719 C14.973,8.592 15.002,8.434 15.01,8.263 A3.336 3.336 0 0 0 14.39,8.638 A1.02 1.02 0 0 1 13.477,8.805 A5.028 5.028 0 0 0 12,8.588 C11.47,8.588 10.971,8.667 10.521,8.805 A1.02 1.02 0 0 1 9.608,8.639 A3.336 3.336 0 0 0 8.987,8.263 C8.993,8.392 9.011,8.513 9.042,8.619 L9.078,8.72 C9.227,9.081 9.153,9.496 8.889,9.783 C8.514,10.192 8.333,10.641 8.333,11.088 C8.333,12.044 9.253,13.143 10.993,13.49 C11.744,13.64 12.06,14.547 11.566,15.125 L11.486,15.209 A0.745 0.745 0 0 0 11.257,15.649 L11.25,15.765 L11.221,18.51 A1 1 0 1 1 9.221,18.49 L9.226,18.033 C8.838,18.032 8.491,17.963 8.18,17.831 A2.595 2.595 0 0 1 7.195,17.074 A1.689 1.689 0 0 1 7.065,16.886 L6.924,16.652 C6.801,16.452 6.664,16.26 6.513,16.212 A0.75 0.75 0 1 1 6.987,14.789 C7.424,14.934 7.702,15.247 7.881,15.479 C8.041,15.687 8.179,15.912 8.347,16.114 C8.484,16.278 8.612,16.385 8.766,16.45 C8.872,16.495 9.022,16.534 9.242,16.533 L9.25,15.749 C9.25,15.512 9.28,15.283 9.338,15.064 C7.648,14.35 6.333,12.933 6.333,11.088 C6.333,10.268 6.605,9.518 7.051,8.883 A4.156 4.156 0 0 1 7.018,7.612 C7.064,7.235 7.138,6.814 7.347,6.488 C7.449,6.328 7.591,6.196 7.761,6.11 C8.127,5.927 8.565,6.003 8.958,6.12 Z"/>
</svg>

