<svg xmlns="http://www.w3.org/2000/svg" width="24" height="24">
  <defs/>
  <path  d="M12,2 C17.523,2 22,6.477 22,12 C22,17.523 17.523,22 12,22 C6.477,22 2,17.523 2,12 C2,6.477 6.477,2 12,2 Z M6.987,14.789 C6.596,14.664 6.178,14.877 6.048,15.267 C5.918,15.656 6.125,16.077 6.513,16.212 C6.696,16.27 6.858,16.54 7,16.778 C7.07,16.893 7.134,17.001 7.195,17.074 C7.422,17.347 7.732,17.641 8.18,17.831 C8.49,17.963 8.838,18.031 9.226,18.033 L9.221,18.49 C9.215,19.042 9.659,19.494 10.211,19.5 C10.763,19.506 11.215,19.062 11.221,18.51 L11.25,15.765 L11.25,15.755 C11.25,15.54 11.34,15.347 11.486,15.209 C12.09,14.639 11.782,13.648 10.993,13.49 C9.253,13.143 8.333,12.044 8.333,11.088 C8.333,10.641 8.514,10.192 8.889,9.783 C9.153,9.496 9.226,9.081 9.078,8.72 C9.022,8.574 8.992,8.419 8.987,8.263 C9.196,8.361 9.411,8.486 9.608,8.639 C9.864,8.837 10.213,8.9 10.521,8.805 C10.971,8.667 11.471,8.588 12,8.588 C12.529,8.588 13.028,8.667 13.477,8.805 C13.786,8.9 14.134,8.836 14.39,8.639 C14.587,8.486 14.802,8.361 15.01,8.263 C15.002,8.434 14.973,8.592 14.92,8.719 C14.772,9.081 14.846,9.495 15.11,9.782 C15.485,10.192 15.666,10.641 15.666,11.088 C15.666,12.044 14.746,13.143 13.007,13.49 C12.218,13.648 11.91,14.64 12.514,15.209 C12.664,15.349 12.749,15.546 12.75,15.751 L12.721,18.49 C12.715,19.042 13.159,19.494 13.711,19.5 C14.263,19.506 14.715,19.062 14.721,18.51 L14.75,15.765 L14.75,15.755 C14.75,15.516 14.72,15.285 14.662,15.064 C16.352,14.35 17.666,12.933 17.666,11.088 C17.666,10.268 17.394,9.516 16.946,8.881 C17.037,8.41 17.022,7.957 16.98,7.611 C16.934,7.234 16.859,6.814 16.651,6.488 C16.55,6.327 16.406,6.197 16.237,6.111 C15.779,5.881 15.21,6.057 14.755,6.212 C14.345,6.352 13.953,6.537 13.585,6.765 C13.065,6.647 12.533,6.587 12,6.588 C11.451,6.588 10.918,6.65 10.412,6.765 C10.044,6.537 9.651,6.352 9.242,6.212 C8.788,6.057 8.218,5.882 7.761,6.111 C7.591,6.196 7.448,6.328 7.347,6.488 C7.139,6.814 7.064,7.235 7.017,7.612 C6.976,7.959 6.96,8.412 7.051,8.883 C6.589,9.526 6.338,10.296 6.333,11.088 C6.333,12.933 7.648,14.35 9.338,15.064 C9.281,15.283 9.25,15.512 9.25,15.749 L9.242,16.533 C9.022,16.533 8.872,16.495 8.766,16.45 C8.601,16.374 8.457,16.259 8.347,16.114 C8.251,15.998 8.165,15.876 8.079,15.753 C8.015,15.66 7.95,15.568 7.881,15.479 C7.702,15.247 7.424,14.934 6.987,14.789 Z"/>
</svg>

