<svg xmlns="http://www.w3.org/2000/svg" width="24" height="24">
  <defs/>
  <path  d="M7.024,2.31 A9.08 9.08 0 0 1 9.149,3.356 A11.432 11.432 0 0 1 12,3 C12.993,3 13.951,3.124 14.849,3.355 A9.08 9.08 0 0 1 16.973,2.31 C17.67,2.073 18.663,1.689 19.253,2.342 C19.653,2.786 19.753,3.53 19.824,4.098 C19.904,4.732 19.923,5.558 19.713,6.378 C20.516,7.415 21,8.652 21,10 C21,12.042 19.894,13.815 18.257,15.043 A9.456 9.456 0 0 1 15.667,16.399 C15.881,16.889 16,17.431 16,18 L16,21 A1 1 0 0 1 15,22 L9,22 A1 1 0 0 1 8,21 L8,20.009 C7.045,20.126 6.244,20.022 5.563,19.733 C4.851,19.431 4.355,18.963 3.982,18.515 C3.628,18.091 3.242,17.135 2.684,16.949 A1 1 0 0 1 3.316,15.051 C3.982,15.273 4.416,15.753 4.713,16.139 C5.193,16.759 5.583,17.569 6.343,17.892 C6.656,18.025 7.115,18.112 7.833,18.014 L8,17.98 A3.986 3.986 0 0 1 8.333,16.399 A9.455 9.455 0 0 1 5.743,15.043 C4.106,13.815 3,12.043 3,10 C3,8.654 3.483,7.418 4.284,6.382 C4.074,5.562 4.092,4.734 4.172,4.099 L4.177,4.061 C4.25,3.479 4.335,2.794 4.743,2.342 C5.333,1.689 6.327,2.074 7.023,2.311 Z"/>
</svg>

