<svg xmlns="http://www.w3.org/2000/svg" width="24" height="24">
  <defs/>
  <path  d="M17.883,2 C18.452,2 18.993,2.242 19.372,2.666 C19.752,3.09 19.933,3.655 19.87,4.22 L18.093,20.22 C17.981,21.233 17.124,22 16.105,22 L7.895,22 C6.876,22 6.019,21.233 5.907,20.22 L4.129,4.22 C4.066,3.655 4.248,3.089 4.627,2.666 C5.006,2.242 5.548,2 6.117,2 Z M17.078,11.24 C16.866,11.27 16.629,11.296 16.371,11.31 C15.172,11.381 13.515,11.237 11.606,10.42 C10.015,9.737 8.672,9.631 7.746,9.686 C7.416,9.704 7.087,9.749 6.764,9.82 L7.895,20 L16.105,20 Z M17.883,4 L6.117,4 L6.542,7.823 C6.901,7.755 7.264,7.71 7.629,7.689 C8.828,7.619 10.485,7.763 12.394,8.581 C13.985,9.263 15.328,9.369 16.254,9.314 C16.609,9.295 16.962,9.245 17.309,9.164 Z M11,13 C11,13.552 10.552,14 10,14 C9.448,14 9,13.552 9,13 C9,12.448 9.448,12 10,12 C10.552,12 11,12.448 11,13 Z M13,17 C12.448,17 12,16.552 12,16 C12,15.448 12.448,15 13,15 C13.552,15 14,15.448 14,16 C14,16.552 13.552,17 13,17 Z"/>
</svg>

