<svg xmlns="http://www.w3.org/2000/svg" width="24" height="24">
  <defs/>
  <path  d="M17.883,2 C18.452,2 18.994,2.242 19.373,2.666 C19.752,3.089 19.934,3.655 19.871,4.22 L18.093,20.22 C17.981,21.233 17.124,22 16.105,22 L7.895,22 C6.876,22 6.019,21.233 5.907,20.22 L4.13,4.22 C4.067,3.655 4.248,3.09 4.628,2.666 C5.007,2.242 5.548,2 6.117,2 Z M17.883,4 L6.117,4 L6.542,7.823 L6.729,7.79 C6.989,7.746 7.29,7.71 7.629,7.69 C8.757,7.623 10.292,7.747 12.059,8.443 L12.394,8.581 C13.886,9.221 15.159,9.353 16.075,9.322 L17.299,9.254 Z M10,12 C9.448,12 9,12.448 9,13 C9,13.552 9.448,14 10,14 C10.552,14 11,13.552 11,13 C11,12.448 10.552,12 10,12 Z M13,15 C12.448,15 12,15.448 12,16 C12,16.552 12.448,17 13,17 C13.552,17 14,16.552 14,16 C14,15.448 13.552,15 13,15 Z"/>
</svg>

