<svg xmlns="http://www.w3.org/2000/svg" width="24" height="24">
  <defs/>
  <path  d="M17.255,1.625 A1 1 0 0 1 18.667,1.547 A9.977 9.977 0 0 1 22,9 C22,14.091 18.196,18.294 13.275,18.92 L13,18.95 L13,20 L16,20 A1 1 0 0 1 16.117,21.993 L16,22 L8,22 A1 1 0 0 1 7.883,20.007 L8,20 L11,20 L11,18.95 A9.997 9.997 0 0 1 3.667,14.53 A1 1 0 1 1 5.333,13.423 A7.993 7.993 0 0 0 11.693,16.994 L12.011,17 A8 8 0 0 0 17.333,3.037 A1 1 0 0 1 17.255,1.625 M12,2 A7 7 0 1 1 12,16 A7 7 0 0 1 12,2 M12,4 A5 5 0 1 0 12,14 A5 5 0 0 0 12,4"/>
</svg>

