<svg xmlns="http://www.w3.org/2000/svg" width="24" height="24">
  <defs/>
  <path  d="M12,2 C15.866,2 19,5.134 19,9 C19,12.866 15.866,16 12,16 C8.134,16 5,12.866 5,9 C5,5.134 8.134,2 12,2 Z M18.667,1.547 C20.79,3.442 22.003,6.154 22,9 C22,14.185 18.053,18.449 13,18.95 L13,20 L16,20 C16.552,20 17,20.448 17,21 C17,21.552 16.552,22 16,22 L8,22 C7.448,22 7,21.552 7,21 C7,20.448 7.448,20 8,20 L11,20 L11,18.95 C8.017,18.651 5.325,17.028 3.667,14.53 C3.361,14.07 3.486,13.449 3.947,13.144 C4.407,12.838 5.027,12.963 5.333,13.423 C6.812,15.655 9.311,16.998 11.989,17 L12.011,17 C15.326,16.995 18.295,14.947 19.475,11.849 C20.656,8.752 19.804,5.247 17.333,3.037 C17.063,2.8 16.941,2.436 17.014,2.084 C17.086,1.732 17.342,1.446 17.684,1.335 C18.026,1.224 18.401,1.305 18.667,1.547 Z"/>
</svg>

