<svg xmlns="http://www.w3.org/2000/svg" width="24" height="24" viewBox="0 0 24 24">
  <defs/>
  <path  d="M2.17,10.154 C4.179,12.309 7.025,13.674 9.922,13.949 C10.213,16.908 11.551,19.909 13.895,21.821 C13.281,21.938 12.648,22 12,22 C6.477,22 2,17.523 2,12 C2,11.369 2.058,10.752 2.17,10.154 Z M21.868,10.37 C21.955,10.901 22,11.445 22,12 C22,15.983 19.671,19.422 16.301,21.03 C13.818,19.711 12.275,16.873 11.931,13.971 C15.255,13.767 19.065,12.499 21.868,10.37 Z M16.005,2.834 C18.399,3.882 20.304,5.84 21.281,8.271 C18.838,10.406 15.115,11.755 11.888,11.97 C11.91,11.698 11.942,11.43 11.986,11.164 C12.52,7.965 13.675,4.758 16.005,2.834 Z M12,2 C12.615,2 13.217,2.056 13.802,2.162 C11.55,4.551 10.503,7.9 10.014,10.836 C9.954,11.195 9.911,11.562 9.887,11.934 C7.13,11.61 4.48,10.108 2.887,7.876 C4.458,4.41 7.948,2 12,2 Z"/>
</svg>

