<svg xmlns="http://www.w3.org/2000/svg" width="24" height="24" viewBox="0 0 24 24">
  <defs/>
  <path  d="M12,2 C16.634,2 20.532,5.152 21.667,9.43 L21.738,9.717 C21.91,10.45 22,11.215 22,12 C22,17.523 17.523,22 12,22 C6.477,22 2,17.523 2,12 C2,6.477 6.477,2 12,2 Z M19.99,11.592 C17.503,12.976 14.575,13.809 11.934,13.971 C12.183,16.074 13.056,18.138 14.457,19.616 C17.673,18.579 20,15.561 20,12 C20,11.863 19.997,11.727 19.99,11.592 Z M14.533,4.409 C13.153,6.296 12.388,8.753 11.986,11.164 C11.943,11.428 11.91,11.697 11.889,11.97 C14.426,11.8 17.294,10.927 19.602,9.501 C18.814,7.104 16.925,5.207 14.533,4.409 Z M12,4 C8.448,4 5.437,6.315 4.392,9.518 C5.928,10.84 7.887,11.698 9.886,11.934 C9.911,11.564 9.953,11.197 10.014,10.836 C10.39,8.576 11.09,6.109 12.392,4.009 C12.262,4.003 12.132,4 12,4 Z M4.004,11.748 L4,12 C4,16.335 7.448,19.865 11.751,19.996 L12,20 L12.177,19.998 C10.887,18.241 10.129,16.082 9.92,13.949 C7.812,13.749 5.744,12.974 4.004,11.748 Z"/>
</svg>

