<svg xmlns="http://www.w3.org/2000/svg" width="24" height="24">
  <defs/>
  <path  d="M10,2 C13.226,2 15.875,4.551 15.996,7.775 L16,8 L16,8.94 C17.278,8.26 18.859,8.59 19.759,9.724 C20.66,10.858 20.622,12.472 19.67,13.563 L19.535,13.707 L16.293,16.95 C16.138,17.105 16.038,17.307 16.009,17.525 L16,17.657 L16,20 C16,21.047 15.194,21.917 14.15,21.995 L14,22 L8,22 C6.953,22 6.083,21.194 6.005,20.15 L6,20 L6,19.385 C6,19.301 5.989,19.217 5.968,19.135 L5.928,19.014 L4.644,15.802 C4.266,14.858 4.051,13.856 4.008,12.84 L4,12.46 L4,8 C4,4.686 6.686,2 10,2 Z M10,4 C7.869,4 6.112,5.671 6.005,7.8 L6,8 L6,12.46 C6,13.238 6.13,14.011 6.384,14.747 L6.501,15.059 L7.277,17 L14.073,17 C14.182,16.516 14.408,16.067 14.733,15.692 L14.879,15.536 L18.121,12.293 C18.497,11.92 18.518,11.319 18.168,10.921 C17.817,10.524 17.218,10.469 16.801,10.795 L16.707,10.879 L15.707,11.879 C15.436,12.15 15.035,12.242 14.673,12.117 C14.311,11.992 14.053,11.671 14.007,11.291 L14,11.171 L14,8 C14,5.791 12.209,4 10,4 Z M14,19 L7.975,19 C7.992,19.128 8,19.256 8,19.385 L8,20 L14,20 Z"/>
</svg>

