<svg xmlns="http://www.w3.org/2000/svg" width="24" height="24">
  <defs/>
  <path  d="M12,5.5 C8.606,5.501 5.784,8.113 5.521,11.497 C5.258,14.881 7.643,17.897 10.997,18.422 C14.35,18.946 17.543,16.803 18.326,13.5 L13,13.5 C12.172,13.5 11.5,12.828 11.5,12 C11.5,11.172 12.172,10.5 13,10.5 L20,10.5 C20.828,10.5 21.5,11.172 21.5,12 C21.5,16.53 18.302,20.429 13.86,21.316 C9.418,22.203 4.967,19.83 3.228,15.648 C1.489,11.465 2.945,6.636 6.706,4.112 C10.467,1.588 15.487,2.07 18.699,5.264 C19.286,5.848 19.289,6.798 18.705,7.385 C18.12,7.973 17.17,7.975 16.583,7.391 C15.367,6.178 13.718,5.497 12,5.5 Z"/>
</svg>

