<svg xmlns="http://www.w3.org/2000/svg" width="24" height="24">
  <defs/>
  <path  d="M12,5 C8.264,5.001 5.188,7.935 5.01,11.667 C4.832,15.398 7.616,18.612 11.334,18.968 C15.053,19.324 18.396,16.697 18.93,13 L13,13 C12.448,13 12,12.552 12,12 C12,11.448 12.448,11 13,11 L20,11 C20.552,11 21,11.448 21,12 C21,16.291 17.971,19.986 13.763,20.827 C9.554,21.667 5.338,19.419 3.69,15.457 C2.042,11.495 3.421,6.92 6.984,4.528 C10.547,2.137 15.303,2.593 18.346,5.619 C18.726,6.01 18.723,6.634 18.338,7.021 C17.953,7.408 17.329,7.415 16.936,7.037 C15.626,5.73 13.85,4.997 12,5 Z"/>
</svg>

