<svg xmlns="http://www.w3.org/2000/svg" width="24" height="24">
  <defs/>
  <path  d="M20.25,10.7 C20.715,10.968 21.001,11.463 21.001,12 C21.001,12.536 20.715,13.031 20.25,13.299 L5.25,21.959 C4.786,22.227 4.214,22.227 3.75,21.959 C3.286,21.691 3,21.196 3,20.66 L3,3.34 C3,2.804 3.285,2.308 3.75,2.04 C4.214,1.772 4.786,1.772 5.25,2.04 Z M5,6.389 L5,17.61 L10.596,12 Z M18.5,12 L15.277,10.139 L13.42,11.999 L15.277,13.861 Z M12.008,10.584 L13.384,9.204 L6.644,5.205 Z M6.644,18.795 L13.384,14.795 L12.008,13.416 Z"/>
</svg>

