<svg xmlns="http://www.w3.org/2000/svg" width="24" height="24">
  <defs/>
  <path  d="M4.455,9.333 A8.004 8.004 0 0 1 19.545,9.333 A1 1 0 0 0 21.431,8.667 C20.058,4.784 16.356,2 12,2 C7.643,2 3.94,4.784 2.568,8.667 A1 1 0 1 0 4.454,9.333 Z M4.455,14.667 A1 1 0 1 0 2.569,15.333 C3.942,19.216 7.644,22 12,22 C16.356,22 20.058,19.216 21.43,15.333 A1 1 0 1 0 19.545,14.667 A8.004 8.004 0 0 1 4.455,14.667 M13.5,12 A1.5 1.5 0 1 1 10.5,12 A1.5 1.5 0 0 1 13.5,12 M2,12 A1 1 0 0 1 3,11 L8,11 A1 1 0 1 1 8,13 L3,13 A1 1 0 0 1 2,12 M15,12 A1 1 0 0 1 16,11 L21,11 A1 1 0 1 1 21,13 L16,13 A1 1 0 0 1 15,12"/>
</svg>

