<svg xmlns="http://www.w3.org/2000/svg" width="24" height="24">
  <defs/>
  <path  d="M12,2 C17.523,2 22,6.477 22,12 C22,17.523 17.523,22 12,22 C6.477,22 2,17.523 2,12 C2,6.477 6.477,2 12,2 Z M20,11 L16,11 C15.471,11.001 15.034,11.413 15.003,11.941 C14.972,12.47 15.358,12.931 15.883,12.993 L16,13 L20,13 C20.529,12.999 20.966,12.587 20.997,12.059 C21.028,11.53 20.642,11.069 20.117,11.007 Z M8,11 L4,11 C3.471,11.001 3.034,11.413 3.003,11.941 C2.972,12.47 3.358,12.931 3.883,12.993 L4,13 L8,13 C8.529,12.999 8.966,12.587 8.997,12.059 C9.028,11.53 8.642,11.069 8.117,11.007 Z M12,10.5 C11.172,10.5 10.5,11.172 10.5,12 C10.5,12.828 11.172,13.5 12,13.5 C12.828,13.5 13.5,12.828 13.5,12 C13.5,11.172 12.828,10.5 12,10.5 Z"/>
</svg>

