<svg xmlns="http://www.w3.org/2000/svg" width="24" height="24">
  <defs/>
  <path  d="M6.356,3.235 C6.686,2.957 7.157,2.922 7.524,3.148 C10.98,5.275 12.874,7.966 13.884,10.928 C14.134,11.661 14.329,12.408 14.48,13.164 C15.509,11.434 17.153,10.062 19.629,9.072 C19.985,8.93 20.391,9.004 20.675,9.263 C20.958,9.521 21.068,9.919 20.958,10.287 L20.777,10.891 C19.417,15.419 19,16.806 19,20 C19,20.552 18.552,21 18,21 L6,21 C5.448,21 5,20.552 5,20 C5,16.136 4.528,13.745 3.051,9.316 C2.928,8.947 3.031,8.54 3.314,8.273 C3.597,8.006 4.01,7.928 4.371,8.072 C5.766,8.629 6.826,9.373 7.626,10.252 C7.358,8.234 6.836,6.259 6.072,4.372 C5.911,3.971 6.026,3.513 6.356,3.235 Z"/>
</svg>

