<svg xmlns="http://www.w3.org/2000/svg" width="24" height="24">
  <defs/>
  <path  d="M6.356,3.235 A1 1 0 0 1 7.524,3.148 C10.98,5.275 12.874,7.966 13.884,10.928 C14.134,11.661 14.329,12.408 14.48,13.164 C15.509,11.434 17.153,10.062 19.629,9.072 A1 1 0 0 1 20.958,10.287 L20.777,10.891 C19.417,15.419 19,16.806 19,20 A1 1 0 1 1 17,20 C17,16.945 17.38,15.3 18.37,11.958 C17.248,12.702 16.509,13.566 16.013,14.523 C15.248,15.997 15,17.805 15,20 A1 1 0 1 1 13,20 C13,17.008 12.87,14.153 11.991,11.573 C11.401,9.844 10.469,8.222 8.973,6.771 C9.99,10.631 10,14.355 10,19.745 L10,20 A1 1 0 1 1 8,20 C8,17.71 7.99,15.629 7.423,13.87 C7.097,12.857 6.583,11.95 5.74,11.196 C6.66,14.349 7,16.683 7,20 A1 1 0 1 1 5,20 C5,16.136 4.528,13.745 3.051,9.316 A1 1 0 0 1 4.371,8.072 C5.766,8.629 6.826,9.373 7.626,10.252 A24.109 24.109 0 0 0 6.072,4.372 A1 1 0 0 1 6.356,3.235"/>
</svg>

