<svg xmlns="http://www.w3.org/2000/svg" width="24" height="24">
  <defs/>
  <path  d="M6.5,3 C7.273,3 7.919,3.587 7.993,4.356 L8,4.5 L8,6 L9,6 L9,4.5 C9,3.727 9.587,3.081 10.356,3.007 L10.5,3 L13.5,3 C14.273,3 14.919,3.587 14.993,4.356 L15,4.5 L15,6 L16,6 L16,4.5 C16,3.727 16.587,3.081 17.356,3.007 L17.5,3 L20.5,3 C21.273,3 21.919,3.587 21.993,4.356 L22,4.5 L22,19.5 C22,20.273 21.413,20.919 20.644,20.993 L20.5,21 L3.5,21 C2.727,21 2.081,20.413 2.007,19.644 L2,19.5 L2,4.5 C2,3.727 2.587,3.081 3.356,3.007 L3.5,3 Z M6,5 L4,5 L4,10 L20,10 L20,5 L18,5 L18,6.5 C18,7.328 17.328,8 16.5,8 L14.5,8 C13.672,8 13,7.328 13,6.5 L13,5 L11,5 L11,6.5 C11,7.328 10.328,8 9.5,8 L7.5,8 C6.672,8 6,7.328 6,6.5 Z M15,16 L9,16 L9,19 L15,19 Z M11,12 L4,12 L4,14 L11,14 Z M20,12 L13,12 L13,14 L20,14 Z M7,16 L4,16 L4,19 L7,19 Z M20,16 L17,16 L17,19 L20,19 Z"/>
</svg>

