<svg xmlns="http://www.w3.org/2000/svg" width="24" height="24">
  <defs/>
  <path  d="M22,17 L22,19.5 A1.5 1.5 0 0 1 20.644,20.993 L20.5,21 L17,21 L17,17 Z M15,17 L15,21 L9,21 L9,17 Z M7,17 L7,21 L3.5,21 A1.5 1.5 0 0 1 2.007,19.644 L2,19.5 L2,17 Z M22,11 L22,15 L13,15 L13,11 Z M11,11 L11,15 L2,15 L2,11 Z M5.5,3 A1.5 1.5 0 0 1 6.993,4.356 L7,4.5 L7,6 L9,6 L9,4.5 A1.5 1.5 0 0 1 10.356,3.007 L10.5,3 L13.5,3 A1.5 1.5 0 0 1 14.993,4.356 L15,4.5 L15,6 L17,6 L17,4.5 A1.5 1.5 0 0 1 18.356,3.007 L18.5,3 L20.5,3 A1.5 1.5 0 0 1 21.993,4.356 L22,4.5 L22,9 L2,9 L2,4.5 A1.5 1.5 0 0 1 3.356,3.007 L3.5,3 Z"/>
</svg>

