<svg xmlns="http://www.w3.org/2000/svg" width="24" height="24">
  <defs/>
  <path  d="M19,13 C20.105,13 21,13.895 21,15 L21,19 C21,20.105 20.105,21 19,21 L15,21 C13.895,21 13,20.105 13,19 L13,15 C13,13.895 13.895,13 15,13 Z M19,3 C20.105,3 21,3.895 21,5 L21,9 C21,10.105 20.105,11 19,11 L15,11 C13.895,11 13,10.105 13,9 L13,5 C13,3.895 13.895,3 15,3 Z M9,13 C10.105,13 11,13.895 11,15 L11,19 C11,20.105 10.105,21 9,21 L5,21 C3.895,21 3,20.105 3,19 L3,15 C3,13.895 3.895,13 5,13 Z M9,3 C10.105,3 11,3.895 11,5 L11,9 C11,10.105 10.105,11 9,11 L5,11 C3.895,11 3,10.105 3,9 L3,5 C3,3.895 3.895,3 5,3 Z"/>
</svg>

