<svg xmlns="http://www.w3.org/2000/svg" width="24" height="24">
  <defs/>
  <path  d="M19,13 C20.047,13 20.917,13.806 20.995,14.85 L21,15 L21,19 C21,20.047 20.194,20.917 19.15,20.995 L19,21 L15,21 C13.953,21 13.083,20.194 13.005,19.15 L13,19 L13,15 C13,13.953 13.806,13.083 14.85,13.005 L15,13 Z M19,3 C20.047,3 20.917,3.806 20.995,4.85 L21,5 L21,9 C21,10.047 20.194,10.917 19.15,10.995 L19,11 L15,11 C13.953,11 13.083,10.194 13.005,9.15 L13,9 L13,5 C13,3.953 13.806,3.083 14.85,3.005 L15,3 Z M9,3 C10.047,3 10.917,3.806 10.995,4.85 L11,5 L11,9 C11,10.047 10.194,10.917 9.15,10.995 L9,11 L5,11 C3.953,11 3.083,10.194 3.005,9.15 L3,9 L3,5 C3,3.953 3.806,3.083 4.85,3.005 L5,3 Z M9,13 C10.105,13 11,13.895 11,15 L11,19 C11,20.105 10.105,21 9,21 L5,21 C3.895,21 3,20.105 3,19 L3,15 C3,13.895 3.895,13 5,13 Z M9,5 L5,5 L5,9 L9,9 Z M19,5 L15,5 L15,9 L19,9 Z M9,15 L5,15 L5,19 L9,19 Z M19,15 L15,15 L15,19 L19,19 Z"/>
</svg>

