<svg xmlns="http://www.w3.org/2000/svg" width="24" height="24">
  <defs/>
  <path  d="M19,11 C20.047,11 20.917,11.806 20.995,12.85 L21,13 L21,19 C21,20.047 20.194,20.917 19.15,20.995 L19,21 L15,21 C13.953,21 13.083,20.194 13.005,19.15 L13,19 L13,13 C13,11.953 13.806,11.083 14.85,11.005 L15,11 Z M9,3 C10.105,3 11,3.895 11,5 L11,11 C11,12.105 10.105,13 9,13 L5,13 C3.895,13 3,12.105 3,11 L3,5 C3,3.895 3.895,3 5,3 Z M19,3 C20.105,3 21,3.895 21,5 L21,7 C21,8.105 20.105,9 19,9 L15,9 C13.895,9 13,8.105 13,7 L13,5 C13,3.895 13.895,3 15,3 Z M9,15 C10.105,15 11,15.895 11,17 L11,19 C11,20.105 10.105,21 9,21 L5,21 C3.895,21 3,20.105 3,19 L3,17 C3,15.895 3.895,15 5,15 Z"/>
</svg>

