<svg xmlns="http://www.w3.org/2000/svg" width="24" height="24">
  <defs/>
  <path  d="M12,12 C13.873,12 15.57,12.62 16.815,13.487 C17.998,14.312 19,15.538 19,16.857 C19,17.581 18.691,18.181 18.204,18.627 C17.746,19.048 17.148,19.321 16.532,19.507 C15.301,19.88 13.68,20 12,20 C10.32,20 8.699,19.88 7.468,19.507 C6.852,19.321 6.254,19.048 5.795,18.627 C5.31,18.182 5,17.582 5,16.858 C5,15.539 6.002,14.313 7.185,13.488 C8.43,12.62 10.127,12 12,12 M19,13 C20.044,13 20.992,13.345 21.693,13.833 C22.333,14.28 23,15.023 23,15.929 C23,16.446 22.775,16.875 22.44,17.182 C22.134,17.463 21.756,17.628 21.411,17.732 C20.941,17.874 20.386,17.947 19.81,17.979 C19.932,17.634 20,17.259 20,16.857 C20,15.322 19.041,14.018 17.968,13.113 A4.78 4.78 0 0 1 19,13 M5,13 C5.357,13 5.703,13.04 6.032,13.113 C4.96,14.018 4,15.322 4,16.857 C4,17.259 4.068,17.634 4.19,17.979 C3.614,17.947 3.06,17.874 2.589,17.732 C2.244,17.628 1.866,17.463 1.559,17.182 A1.677 1.677 0 0 1 1,15.93 C1,15.025 1.666,14.281 2.307,13.834 A4.756 4.756 0 0 1 5,13 M18.5,7 A2.5 2.5 0 1 1 18.5,12 A2.5 2.5 0 0 1 18.5,7 M5.5,7 A2.5 2.5 0 1 1 5.5,12 A2.5 2.5 0 0 1 5.5,7 M12,3 A4 4 0 1 1 12,11 A4 4 0 0 1 12,3"/>
</svg>

