<svg xmlns="http://www.w3.org/2000/svg" width="24" height="24">
  <defs/>
  <path  d="M9.5,13 C11.493,13 13.305,13.608 14.637,14.466 C15.304,14.896 15.875,15.403 16.29,15.956 C16.697,16.501 17,17.156 17,17.857 C17,18.612 16.65,19.217 16.136,19.654 C15.651,20.064 15.019,20.33 14.366,20.513 C13.053,20.88 11.316,21 9.5,21 C7.684,21 5.947,20.88 4.635,20.513 C3.981,20.33 3.349,20.064 2.865,19.654 C2.349,19.218 2,18.612 2,17.857 C2,17.155 2.303,16.501 2.71,15.957 C3.125,15.403 3.696,14.895 4.363,14.467 C5.695,13.607 7.507,13 9.5,13 Z M5,7.5 C5,5.015 7.015,3 9.5,3 C11.985,3 14,5.015 14,7.5 C14,9.985 11.985,12 9.5,12 C7.015,12 5,9.985 5,7.5 Z M9.5,15 C7.903,15 6.465,15.492 5.445,16.148 C4.935,16.476 4.555,16.83 4.311,17.155 C4.061,17.489 4,17.731 4,17.857 C4,17.931 4.015,18.007 4.157,18.127 C4.33,18.275 4.651,18.441 5.173,18.587 C6.213,18.877 7.726,19 9.5,19 C11.274,19 12.787,18.877 13.827,18.587 C14.349,18.441 14.67,18.275 14.843,18.127 C14.985,18.007 15,17.931 15,17.857 C15,17.731 14.939,17.489 14.689,17.155 C14.445,16.83 14.065,16.476 13.555,16.148 C12.535,15.492 11.097,15 9.5,15 Z M15,9 C15,7.343 16.343,6 18,6 C19.657,6 21,7.343 21,9 C21,10.657 19.657,12 18,12 C16.343,12 15,10.657 15,9 Z M18,13 C19.32,13 20.518,13.436 21.4,14.051 C22.222,14.624 23,15.528 23,16.571 C23,17.158 22.747,17.644 22.362,17.997 C22.005,18.325 21.553,18.525 21.118,18.657 C20.248,18.92 19.128,19 18,19 L17.797,19 C17.927,18.652 18,18.27 18,17.857 C18,17.633 17.978,17.417 17.94,17.207 L17.893,17 L18,17 C19.081,17 19.96,16.918 20.539,16.743 C20.801,16.663 20.936,16.583 20.994,16.537 C20.965,16.419 20.809,16.077 20.256,15.692 C19.28,15.029 18.062,14.829 16.925,15.146 C16.441,14.571 15.873,14.072 15.241,13.666 C16.095,13.229 17.041,13.001 18,13 Z M9.5,5 C8.119,5 7,6.119 7,7.5 C7,8.881 8.119,10 9.5,10 C10.881,10 12,8.881 12,7.5 C12,6.119 10.881,5 9.5,5 Z M18,8 C17.448,8 17,8.448 17,9 C17,9.552 17.448,10 18,10 C18.552,10 19,9.552 19,9 C19,8.448 18.552,8 18,8 Z"/>
</svg>

