<svg xmlns="http://www.w3.org/2000/svg" width="24" height="24">
  <defs/>
  <path  d="M9.5,12 A4.5 4.5 0 1 0 9.5,3 A4.5 4.5 0 0 0 9.5,12 M21,9 A3 3 0 1 1 15,9 A3 3 0 0 1 21,9 M9.5,13 C11.493,13 13.305,13.608 14.637,14.466 C15.304,14.896 15.875,15.403 16.29,15.956 C16.697,16.501 17,17.156 17,17.857 C17,18.612 16.65,19.217 16.136,19.654 C15.651,20.064 15.019,20.33 14.366,20.513 C13.053,20.88 11.316,21 9.5,21 C7.684,21 5.947,20.88 4.635,20.513 C3.981,20.33 3.349,20.064 2.865,19.654 C2.349,19.218 2,18.612 2,17.857 C2,17.155 2.303,16.501 2.71,15.957 C3.125,15.403 3.696,14.895 4.363,14.467 C5.695,13.607 7.507,13 9.5,13 M18,13 C19.32,13 20.518,13.436 21.4,14.051 C22.222,14.624 23,15.528 23,16.571 C23,17.158 22.747,17.644 22.362,17.997 C22.005,18.325 21.553,18.525 21.118,18.657 C20.248,18.92 19.128,19 18,19 L17.797,19 C17.927,18.652 18,18.27 18,17.857 C18,16.867 17.577,16.007 17.09,15.357 C16.604,14.708 15.96,14.137 15.241,13.666 A6.064 6.064 0 0 1 18,13"/>
</svg>

