<svg xmlns="http://www.w3.org/2000/svg" width="24" height="24">
  <defs/>
  <path  d="M9.5,3 C11.985,3 14,5.015 14,7.5 C14,9.985 11.985,12 9.5,12 C7.015,12 5,9.985 5,7.5 C5,5.015 7.015,3 9.5,3 Z M13,13 C15.209,13 17,14.791 17,17 L17,19 C17,19.552 16.552,20 16,20 C15.448,20 15,19.552 15,19 L15,17 C15,15.895 14.105,15 13,15 L6,15 C4.895,15 4,15.895 4,17 L4,19 C4,19.552 3.552,20 3,20 C2.448,20 2,19.552 2,19 L2,17 C2,14.791 3.791,13 6,13 Z M18,6 C19.657,6 21,7.343 21,9 C21,10.657 19.657,12 18,12 C16.343,12 15,10.657 15,9 C15,7.343 16.343,6 18,6 Z M9.5,5 C8.119,5 7,6.119 7,7.5 C7,8.881 8.119,10 9.5,10 C10.881,10 12,8.881 12,7.5 C12,6.119 10.881,5 9.5,5 Z M19,13 C20.657,13 22,14.343 22,16 L22,18 C22,18.552 21.552,19 21,19 C20.448,19 20,18.552 20,18 L20,16 C20,15.448 19.552,15 19,15 L17.584,15 C17.237,14.208 16.692,13.519 16.001,13 Z M18,8 C17.448,8 17,8.448 17,9 C17,9.552 17.448,10 18,10 C18.552,10 19,9.552 19,9 C19,8.448 18.552,8 18,8 Z"/>
</svg>

