<svg xmlns="http://www.w3.org/2000/svg" width="24" height="24">
  <defs/>
  <path  d="M17.956,2.169 L18.067,2.224 L18.933,2.724 A1 1 0 0 1 19.421,3.744 L19.395,3.864 L18.828,5.847 A1 1 0 0 1 17.484,6.496 L17.366,6.438 L15.832,9.094 C16.752,9.815 17.201,10.587 17.506,11.307 C17.729,11.83 17.92,12.512 17.812,13.246 C17.707,13.958 17.335,14.608 16.672,15.134 L16.483,15.274 C16.05,15.579 16.043,15.931 16.155,16.371 L16.26,16.754 C16.443,17.442 16.661,18.518 16.332,19.764 C16.056,20.807 15.389,21.629 14.632,22.175 C13.887,22.713 12.966,23.046 12.094,23.001 C10.734,22.931 9.345,22.591 7.5,21.526 C5.655,20.461 4.666,19.428 3.926,18.286 C3.451,17.553 3.279,16.588 3.372,15.674 C3.466,14.746 3.845,13.757 4.61,12.997 C5.394,12.218 6.27,11.85 6.938,11.645 L7.253,11.554 L7.525,11.484 C8.049,11.35 8.324,11.251 8.405,10.754 L8.422,10.62 C8.507,9.669 8.9,8.943 9.515,8.455 C10.095,7.995 10.783,7.82 11.347,7.751 C12.059,7.664 12.868,7.659 13.833,7.994 L14.1,8.094 L15.634,5.438 A1 1 0 0 1 15.331,3.977 L15.415,3.877 L16.848,2.395 A1 1 0 0 1 17.956,2.169 M11.59,9.736 C11.21,9.783 10.934,9.883 10.757,10.023 C10.631,10.123 10.491,10.292 10.432,10.653 L10.415,10.797 C10.35,11.529 10.119,12.133 9.681,12.588 C9.265,13.02 8.724,13.226 8.165,13.384 L7.596,13.54 C7.06,13.695 6.535,13.903 6.02,14.415 C5.639,14.794 5.418,15.323 5.361,15.877 C5.304,16.445 5.429,16.928 5.604,17.197 C6.162,18.059 6.912,18.877 8.5,19.794 C10.088,20.711 11.172,20.951 12.197,21.004 C12.517,21.02 12.999,20.887 13.462,20.554 C13.914,20.228 14.261,19.772 14.398,19.253 C14.584,18.551 14.502,17.992 14.368,17.45 L14.274,17.09 C14.104,16.459 13.964,15.816 14.15,15.169 C14.305,14.629 14.645,14.172 15.141,13.781 L15.335,13.637 C15.715,13.371 15.807,13.133 15.834,12.954 C15.867,12.731 15.816,12.442 15.666,12.089 C15.432,11.539 15.109,10.972 14.234,10.41 L14.037,10.29 L13.963,10.247 C12.929,9.659 12.226,9.658 11.59,9.736 M10.067,16.08 L10.933,16.58 A1 1 0 1 1 9.933,18.312 L9.067,17.812 A1 1 0 1 1 10.067,16.08 M12.75,12.433 A1.5 1.5 0 0 1 13.365,14.353 L13.299,14.482 A1.5 1.5 0 0 1 10.629,13.119 L10.701,12.982 A1.5 1.5 0 0 1 12.751,12.432 Z"/>
</svg>

