<svg xmlns="http://www.w3.org/2000/svg" width="24" height="24">
  <defs/>
  <path  d="M16.848,2.395 C17.135,2.098 17.575,2.007 17.956,2.168 L18.067,2.224 L18.933,2.724 C19.291,2.931 19.485,3.336 19.421,3.744 L19.395,3.864 L18.828,5.847 C18.75,6.121 18.558,6.349 18.301,6.473 C18.045,6.597 17.747,6.605 17.484,6.496 L17.366,6.438 L15.832,9.094 C16.752,9.815 17.201,10.587 17.506,11.307 C17.729,11.83 17.92,12.512 17.812,13.246 C17.707,13.958 17.335,14.608 16.672,15.134 L16.483,15.274 C16.051,15.578 16.023,15.834 16.125,16.257 L16.299,16.907 C16.472,17.597 16.638,18.607 16.332,19.764 C16.056,20.807 15.389,21.629 14.632,22.175 C13.887,22.713 12.966,23.046 12.094,23.001 C10.734,22.931 9.345,22.591 7.5,21.526 C5.655,20.461 4.666,19.428 3.926,18.286 C3.451,17.553 3.279,16.588 3.372,15.674 C3.466,14.746 3.845,13.757 4.61,12.997 C5.394,12.218 6.27,11.85 6.938,11.645 L7.253,11.554 L7.525,11.484 C8.049,11.35 8.324,11.251 8.405,10.754 L8.422,10.62 C8.507,9.669 8.9,8.943 9.515,8.455 C10.095,7.995 10.783,7.82 11.347,7.751 C12.059,7.664 12.868,7.659 13.833,7.994 L14.1,8.094 L15.634,5.438 C15.387,5.295 15.213,5.054 15.155,4.775 C15.097,4.496 15.161,4.205 15.331,3.976 L15.415,3.876 Z M10.701,12.982 C10.295,13.674 10.506,14.563 11.179,15 C11.852,15.436 12.75,15.265 13.216,14.612 L13.299,14.482 C13.707,13.765 13.459,12.854 12.745,12.442 C12.031,12.029 11.118,12.271 10.701,12.982 Z M10.068,16.08 C9.609,15.809 9.018,15.946 8.725,16.391 C8.432,16.836 8.539,17.433 8.969,17.748 L9.067,17.812 L9.933,18.312 C10.392,18.579 10.979,18.441 11.271,17.998 C11.563,17.554 11.458,16.96 11.031,16.644 L10.933,16.58 L10.067,16.08 Z"/>
</svg>

