<svg xmlns="http://www.w3.org/2000/svg" width="24" height="24">
  <defs/>
  <path  d="M12,2 C17.523,2 22,6.477 22,12 C22,17.523 17.523,22 12,22 C6.477,22 2,17.523 2,12 C2,6.477 6.477,2 12,2 M12,4 A8 8 0 1 0 12,20 A8 8 0 0 0 12,4 M12,6.5 C12.921,6.5 13.785,6.762 14.524,7.217 C14.939,7.472 15.468,7.871 15.871,8.377 A1 1 0 0 1 14.391,9.717 L14.306,9.623 C14.096,9.359 13.773,9.103 13.476,8.921 C13.039,8.651 12.536,8.5 12,8.5 C11.123,8.5 10.388,8.795 9.876,9.303 C9.37,9.807 9,10.6 9,11.75 C9,12.751 9.276,13.583 9.71,14.14 C10.127,14.676 10.715,15 11.5,15 C11.98,15 12.599,14.65 13.16,13.941 A4.54 4.54 0 0 0 13.736,13 L13,13 A1 1 0 1 1 13,11 L15,11 A2 2 0 0 1 17,13 L17,15.5 A1 1 0 1 1 15,15.5 L15,14.814 A6.467 6.467 0 0 1 14.728,15.184 C14.002,16.1 12.87,17 11.5,17 C10.076,17 8.914,16.373 8.133,15.37 C7.369,14.389 7,13.096 7,11.75 C7,10.15 7.526,8.818 8.467,7.884 C9.403,6.955 10.668,6.5 12,6.5"/>
</svg>

