<svg xmlns="http://www.w3.org/2000/svg" width="24" height="24">
  <defs/>
  <path  d="M22,12 C22,17.523 17.523,22 12,22 C6.477,22 2,17.523 2,12 C2,6.477 6.477,2 12,2 C17.523,2 22,6.477 22,12 Z M9.876,9.303 C10.388,8.795 11.123,8.5 12,8.5 C12.536,8.5 13.039,8.651 13.476,8.921 C13.773,9.103 14.096,9.359 14.306,9.623 C14.65,10.055 15.279,10.127 15.712,9.783 C16.144,9.438 16.215,8.809 15.871,8.377 C15.468,7.871 14.939,7.472 14.524,7.217 C13.785,6.762 12.921,6.5 12,6.5 C10.668,6.5 9.403,6.955 8.467,7.884 C7.526,8.818 7,10.15 7,11.75 C7,13.096 7.369,14.389 8.133,15.37 C8.914,16.373 10.076,17 11.5,17 C12.87,17 14.002,16.1 14.728,15.184 C14.823,15.064 14.914,14.941 15,14.814 L15,15.5 C15,16.052 15.448,16.5 16,16.5 C16.552,16.5 17,16.052 17,15.5 L17,13 C17,11.895 16.105,11 15,11 L13,11 C12.448,11 12,11.448 12,12 C12,12.552 12.448,13 13,13 L13.736,13 C13.583,13.336 13.39,13.652 13.16,13.941 C12.599,14.65 11.98,15 11.5,15 C10.715,15 10.127,14.676 9.71,14.14 C9.276,13.583 9,12.751 9,11.75 C9,10.6 9.37,9.807 9.876,9.303 Z"/>
</svg>

