<svg xmlns="http://www.w3.org/2000/svg" width="24" height="24">
  <defs/>
  <path  d="M14,18 A2 2 0 1 1 14,22 A2 2 0 0 1 14,18 M9.5,17 A1.5 1.5 0 1 1 9.5,20 A1.5 1.5 0 0 1 9.5,17 M11.5,2 A6.502 6.502 0 0 1 17.586,6.212 A6.002 6.002 0 0 1 17.369,17.843 A4.004 4.004 0 0 0 17.249,17.666 A3.5 3.5 0 0 0 13.539,12.133 A4 4 0 1 0 6.751,16.333 C6.396,16.783 6.149,17.321 6.05,17.91 A5.002 5.002 0 0 1 5,8.416 A6.5 6.5 0 0 1 11.5,2 M14.5,14 A1.5 1.5 0 1 1 14.5,17 A1.5 1.5 0 0 1 14.5,14 M10,12 A2 2 0 1 1 10,16 A2 2 0 0 1 10,12"/>
</svg>

