<svg xmlns="http://www.w3.org/2000/svg" width="24" height="24">
  <defs/>
  <path  d="M14,18 A2 2 0 1 1 14,22 A2 2 0 0 1 14,18 M9.5,17 A1.5 1.5 0 1 1 9.5,20 A1.5 1.5 0 0 1 9.5,17 M11.5,2 A6.502 6.502 0 0 1 17.586,6.212 A6.002 6.002 0 0 1 19.6,16.8 A1 1 0 0 1 18.398,15.2 A4.001 4.001 0 0 0 16.654,8.052 A1.01 1.01 0 0 1 15.844,7.321 A4.5 4.5 0 0 0 7.027,9 A1.01 1.01 0 0 1 6.267,10.09 A3.002 3.002 0 0 0 5.5,15.6 A1 1 0 1 1 4.498,17.33 A5 5 0 0 1 5,8.417 A6.5 6.5 0 0 1 11.5,2 M14.5,14 A1.5 1.5 0 1 1 14.5,17 A1.5 1.5 0 0 1 14.5,14 M10,12 A2 2 0 1 1 10,16 A2 2 0 0 1 10,12"/>
</svg>

