<svg xmlns="http://www.w3.org/2000/svg" width="24" height="24">
  <defs/>
  <path  d="M18.8,6.4 C16.916,3.888 14.52,2.5 12,2.5 C9.48,2.5 7.084,3.888 5.2,6.4 C3.783,8.289 2.074,10.84 1.838,13.524 C1.717,14.908 1.985,16.325 2.857,17.674 C3.718,19.006 5.125,20.205 7.172,21.254 C8.431,21.899 9.802,21.034 9.981,19.771 A6.48 6.48 0 0 1 8.819,18.77 C7.806,17.665 6.999,16.047 6.999,14 C6.999,10.572 8.769,8.265 10.899,7.656 C11.181,7.576 11.499,7.788 11.533,8.08 A5 5 0 0 0 16.45,12.5 C17.124,12.506 17,13.56 17,14 C17,16.047 16.194,17.665 15.18,18.77 C14.818,19.166 14.42,19.504 14.016,19.773 C14.176,21.041 15.534,21.913 16.794,21.304 C18.959,20.26 20.437,19.061 21.332,17.719 C22.239,16.357 22.495,14.922 22.339,13.525 C22.039,10.835 20.201,8.268 18.799,6.4 Z"/>
</svg>

