<svg xmlns="http://www.w3.org/2000/svg" width="24" height="24">
  <defs/>
  <path  d="M12,3 A9 9 0 0 0 3,12 L3,18 A3 3 0 0 0 6,21 L7.382,21 A2 2 0 0 0 9.171,19.894 L9.346,19.544 A6.6 6.6 0 0 1 8.442,18.784 C7.343,17.678 6.5,16.054 6.5,14 C6.5,13.265 6.624,12.534 6.849,11.843 C6.949,11.536 7.226,11.5 7.5,11.5 C9.19,11.5 10.685,10.661 11.591,9.375 A0.5 0.5 0 0 1 12.409,9.375 A4.993 4.993 0 0 0 16.5,11.5 C16.774,11.5 17.052,11.536 17.151,11.843 A7 7 0 0 1 17.5,14 C17.5,16.055 16.657,17.678 15.558,18.784 C15.273,19.071 14.968,19.325 14.654,19.544 L14.829,19.894 A2 2 0 0 0 16.618,21 L18,21 A3 3 0 0 0 21,18 L21,12 A9 9 0 0 0 12,3"/>
</svg>

