<svg xmlns="http://www.w3.org/2000/svg" width="24" height="24">
  <defs/>
  <path  d="M7.172,21.254 C5.126,20.205 3.718,19.006 2.857,17.674 C1.986,16.325 1.717,14.908 1.838,13.524 C2.074,10.841 3.784,8.29 5.2,6.4 C7.084,3.888 9.48,2.5 12,2.5 C14.52,2.5 16.916,3.888 18.8,6.4 C20.201,8.268 22.04,10.834 22.34,13.525 C22.495,14.922 22.24,16.357 21.332,17.719 C20.438,19.061 18.959,20.259 16.794,21.304 C15.711,21.827 14.556,21.257 14.151,20.281 C13.429,20.735 12.673,21 12.001,21 C11.325,21 10.565,20.732 9.84,20.275 C9.421,21.247 8.255,21.808 7.172,21.254 Z M6.8,7.6 L6.801,7.6 C5.371,9.504 4.011,11.645 3.831,13.7 C3.744,14.685 3.93,15.649 4.537,16.587 C5.144,17.526 6.213,18.502 8,19.43 L8,18.566 C7.134,17.416 6.5,15.874 6.5,14 C6.5,10.405 8.368,7.86 10.762,7.176 C11.044,7.099 11.346,7.148 11.589,7.31 C11.832,7.473 11.993,7.733 12.03,8.023 C12.294,10.274 14.189,11.977 16.455,12 C16.96,12.005 17.382,12.385 17.439,12.887 C17.48,13.245 17.5,13.617 17.5,14 C17.5,15.874 16.866,17.416 16,18.566 L16,19.467 C17.917,18.53 19.042,17.548 19.668,16.61 C20.287,15.68 20.461,14.727 20.352,13.747 C20.122,11.682 18.654,9.538 17.2,7.6 C15.584,5.446 13.73,4.5 12,4.5 C10.27,4.5 8.416,5.446 6.8,7.6 Z M8.5,14 C8.5,15.633 9.138,16.897 9.925,17.756 C10.757,18.663 11.634,19 12,19 C12.366,19 13.244,18.663 14.076,17.756 C15.032,16.713 15.512,15.332 15.5,13.924 C13.108,13.55 11.122,11.88 10.343,9.588 C9.35,10.326 8.5,11.778 8.5,14 Z"/>
</svg>

