<svg xmlns="http://www.w3.org/2000/svg" width="24" height="24">
  <defs/>
  <path  d="M12,3 C16.971,3 21,7.029 21,12 L21,18 C21,19.657 19.657,21 18,21 L16.618,21 C15.901,21 15.239,20.616 14.883,19.994 C13.947,20.635 12.916,21 12,21 C11.084,21 10.053,20.634 9.117,19.994 C8.761,20.616 8.099,21 7.382,21 L6,21 C4.343,21 3,19.657 3,18 L3,12 C3,7.029 7.029,3 12,3 Z M12,5 C8.134,5 5,8.134 5,12 L5,18 C5,18.552 5.448,19 6,19 L7.382,19 L7.591,18.582 C6.661,17.429 6,15.88 6,14 C6,13.21 6.133,12.426 6.373,11.688 C6.511,11.265 6.911,10.984 7.356,10.998 C8.87,11.04 10.305,10.323 11.182,9.088 C11.369,8.822 11.674,8.663 12,8.663 C12.326,8.663 12.631,8.822 12.818,9.088 C13.694,10.324 15.13,11.04 16.644,10.998 C17.089,10.984 17.489,11.265 17.627,11.688 C17.867,12.426 18,13.209 18,14 C18,15.88 17.339,17.429 16.409,18.582 L16.618,19 L18,19 C18.552,19 19,18.552 19,18 L19,12 C19,8.134 15.866,5 12,5 Z M12,11.19 C10.94,12.209 9.566,12.837 8.102,12.972 C8.035,13.311 8.001,13.655 8,14 C8,15.618 8.657,16.872 9.506,17.727 C10.386,18.614 11.396,19 12,19 C12.605,19 13.613,18.614 14.494,17.727 C15.343,16.872 16,15.618 16,14 C15.999,13.655 15.965,13.311 15.898,12.973 C14.434,12.838 13.059,12.209 12,11.19 Z"/>
</svg>

