<svg xmlns="http://www.w3.org/2000/svg" width="24" height="24">
  <defs/>
  <path  d="M5.844,4.566 C7.446,3.643 9.619,3 12,3 C14.381,3 16.554,3.643 18.156,4.566 C18.956,5.028 19.644,5.576 20.143,6.181 C20.633,6.776 21,7.499 21,8.286 C21,9.078 20.62,9.698 20.01,10.107 C19.466,10.472 18.76,10.66 18.029,10.774 C17.449,10.864 16.77,10.919 16.01,10.951 L15.224,10.977 L14.387,10.992 L13.502,10.998 L10.498,10.998 L9.613,10.992 L8.776,10.977 L7.99,10.951 C7.314,10.929 6.64,10.87 5.971,10.774 C5.241,10.66 4.534,10.472 3.99,10.107 C3.38,9.697 3,9.077 3,8.286 C3,7.499 3.366,6.776 3.857,6.181 C4.356,5.577 5.043,5.028 5.844,4.566 Z M4,15 L20,15 C20.552,15 21,15.448 21,16 L21,17 C21,19.209 19.209,21 17,21 L7,21 C4.791,21 3,19.209 3,17 L3,16 C3,15.448 3.448,15 4,15 Z M5.4,7.454 C5.21,7.683 5,7.981 5,8.293 C5,8.528 5.44,8.656 5.81,8.726 L6.043,8.764 L6.279,8.798 C6.655,8.856 7.086,8.898 7.57,8.928 L8.178,8.958 L8.838,8.978 L9.55,8.99 L11.13,9 L13.284,8.999 L14.074,8.994 L14.813,8.985 L15.499,8.969 L15.822,8.958 L16.43,8.928 C16.817,8.904 17.17,8.872 17.489,8.831 L17.787,8.789 L18.18,8.74 C18.559,8.683 19,8.57 19,8.286 C19,8.126 18.919,7.84 18.6,7.454 C18.289,7.077 17.805,6.672 17.157,6.299 C15.864,5.553 14.037,5 12,5 C9.963,5 8.136,5.553 6.843,6.3 C6.195,6.672 5.711,7.077 5.4,7.454 Z M4.336,11.908 C5.344,11.236 6.656,11.236 7.664,11.908 L8.445,12.428 C8.781,12.652 9.219,12.652 9.555,12.428 L10.335,11.908 C11.343,11.235 12.657,11.235 13.665,11.908 L14.445,12.428 C14.781,12.652 15.219,12.652 15.555,12.428 L16.335,11.908 C17.343,11.235 18.657,11.235 19.665,11.908 L20.589,12.524 C21.049,12.831 21.173,13.451 20.866,13.911 C20.559,14.371 19.939,14.495 19.479,14.188 L18.555,13.572 C18.219,13.348 17.781,13.348 17.445,13.572 L16.665,14.092 C15.657,14.765 14.343,14.765 13.335,14.092 L12.555,13.572 C12.219,13.348 11.781,13.348 11.445,13.572 L10.665,14.092 C9.657,14.765 8.343,14.765 7.335,14.092 L6.555,13.572 C6.219,13.348 5.781,13.348 5.445,13.572 L4.941,13.918 C4.789,14.018 4.625,14.121 4.466,14.205 C4.149,14.381 3.762,14.372 3.453,14.181 C3.145,13.99 2.964,13.647 2.981,13.285 C2.998,12.923 3.209,12.598 3.534,12.436 C3.606,12.398 3.672,12.359 3.738,12.316 Z M7,19 L17,19 C18.105,19 19,18.105 19,17 L5,17 C5,18.105 5.895,19 7,19 Z"/>
</svg>

