<svg xmlns="http://www.w3.org/2000/svg" width="24" height="24">
  <defs/>
  <path  d="M5.844,4.566 C7.446,3.643 9.619,3 12,3 C14.381,3 16.554,3.643 18.156,4.566 C18.956,5.028 19.644,5.576 20.143,6.181 C20.633,6.776 21,7.499 21,8.286 C21,9.078 20.62,9.698 20.01,10.107 C19.466,10.472 18.76,10.66 18.029,10.774 C17.449,10.864 16.77,10.919 16.01,10.951 L15.224,10.977 L14.387,10.992 L13.502,10.998 L10.498,10.998 L9.613,10.992 L8.776,10.977 L7.99,10.951 A18.59 18.59 0 0 1 5.971,10.774 C5.241,10.66 4.534,10.472 3.99,10.107 C3.38,9.697 3,9.077 3,8.286 C3,7.499 3.366,6.776 3.857,6.181 C4.356,5.577 5.043,5.028 5.844,4.566 M4.336,11.908 A3 3 0 0 1 7.664,11.908 L8.445,12.428 A1 1 0 0 0 9.555,12.428 L10.335,11.908 A3 3 0 0 1 13.665,11.908 L14.445,12.428 A1 1 0 0 0 15.555,12.428 L16.335,11.908 A3 3 0 0 1 19.665,11.908 L20.589,12.524 A1 1 0 1 1 19.479,14.188 L18.555,13.572 A1 1 0 0 0 17.445,13.572 L16.665,14.092 A3 3 0 0 1 13.335,14.092 L12.555,13.572 A1 1 0 0 0 11.445,13.572 L10.665,14.092 A3 3 0 0 1 7.335,14.092 L6.555,13.572 A1 1 0 0 0 5.445,13.572 L5.088,13.818 C4.898,13.948 4.678,14.093 4.466,14.205 A1 1 0 0 1 3.534,12.436 C3.606,12.398 3.672,12.359 3.738,12.316 Z M4,15 A1 1 0 0 0 3,16 L3,17 A4 4 0 0 0 7,21 L17,21 A4 4 0 0 0 21,17 L21,16 A1 1 0 0 0 20,15 Z"/>
</svg>

