<svg xmlns="http://www.w3.org/2000/svg" width="24" height="24">
  <defs/>
  <path  d="M17.961,7.058 C18.701,6.895 19.475,7.076 20.066,7.55 C20.657,8.025 21,8.742 21,9.5 L21,12 C21,16.418 17.418,20 13,20 L12.326,20 C9.296,20 6.527,18.288 5.172,15.578 L2.33,9.894 C1.97,9.174 2.237,8.211 3.077,7.866 C4.12,7.44 5.11,7.36 6.131,7.878 C6.442,8.04 6.734,8.236 7.001,8.462 L7,7.5 C7,6.678 7.403,5.909 8.08,5.442 C8.756,4.975 9.619,4.87 10.387,5.162 C10.845,4.437 11.642,3.997 12.5,3.997 C13.357,3.997 14.154,4.437 14.612,5.162 C15.307,4.898 16.084,4.957 16.732,5.323 C17.379,5.69 17.83,6.326 17.961,7.058 Z M10,7.5 C10,7.224 9.776,7 9.5,7 C9.224,7 9,7.224 9,7.5 L9,11 C9,11.424 8.732,11.802 8.331,11.943 C7.931,12.083 7.486,11.956 7.22,11.625 C6.295,10.469 5.703,9.905 5.225,9.661 C4.97,9.523 4.673,9.482 4.39,9.544 L6.96,14.684 C7.976,16.716 10.054,18 12.326,18 L13,18 C16.314,18 19,15.314 19,12 L19,9.5 C19,9.224 18.776,9 18.5,9 C18.224,9 18,9.224 18,9.5 L18,10 C18,10.552 17.552,11 17,11 C16.448,11 16,10.552 16,10 L16,7.5 C16,7.224 15.776,7 15.5,7 C15.224,7 15,7.224 15,7.5 L15,10 C15,10.552 14.552,11 14,11 C13.448,11 13,10.552 13,10 L13,6.5 C13,6.224 12.776,6 12.5,6 C12.224,6 12,6.224 12,6.5 L12,10 C12,10.552 11.552,11 11,11 C10.448,11 10,10.552 10,10 Z"/>
</svg>

