<svg xmlns="http://www.w3.org/2000/svg" width="24" height="24">
  <defs/>
  <path  d="M17.612,9.162 C18.38,8.87 19.243,8.974 19.92,9.441 C20.597,9.908 21,10.678 21,11.5 L21,14 C21,18.418 17.418,22 13,22 L12.326,22 C9.296,22 6.527,20.288 5.172,17.578 L2.33,11.894 C1.97,11.174 2.237,10.211 3.077,9.866 C4.12,9.44 5.11,9.36 6.13,9.878 C6.441,10.04 6.733,10.236 7,10.462 L7,5.5 C7,4.742 7.343,4.025 7.934,3.55 C8.525,3.076 9.299,2.895 10.039,3.058 C10.267,1.783 11.431,0.893 12.722,1.008 C14.012,1.123 15.001,2.204 15,3.5 L15,8.05 C16.017,7.842 17.057,8.285 17.612,9.162 Z"/>
</svg>

