<svg xmlns="http://www.w3.org/2000/svg" width="24" height="24">
  <defs/>
  <path  d="M18,6.05 C18.736,5.9 19.5,6.088 20.081,6.563 C20.663,7.038 21,7.749 21,8.5 L21,14 C21,18.418 17.418,22 13,22 L12.326,22 C9.296,22 6.527,20.288 5.172,17.578 L2.33,11.894 C1.97,11.174 2.237,10.211 3.077,9.866 C4.12,9.44 5.11,9.36 6.13,9.878 C6.441,10.04 6.733,10.236 7,10.462 L7,5.5 C7,4.742 7.343,4.025 7.934,3.55 C8.525,3.076 9.299,2.895 10.039,3.058 C10.252,1.866 11.289,0.998 12.5,0.998 C13.711,0.998 14.748,1.866 14.961,3.058 C15.701,2.895 16.475,3.076 17.066,3.55 C17.657,4.025 18,4.742 18,5.5 Z M10,5.5 C10,5.224 9.776,5 9.5,5 C9.224,5 9,5.224 9,5.5 L9,13 C9,13.424 8.732,13.802 8.331,13.943 C7.931,14.083 7.486,13.956 7.22,13.625 C6.295,12.469 5.703,11.905 5.225,11.661 C4.97,11.523 4.673,11.482 4.39,11.544 L6.96,16.684 C7.976,18.716 10.054,20 12.326,20 L13,20 C16.314,20 19,17.314 19,14 L19,8.5 C19,8.224 18.776,8 18.5,8 C18.224,8 18,8.224 18,8.5 L18,11 C18,11.552 17.552,12 17,12 C16.448,12 16,11.552 16,11 L16,5.5 C16,5.224 15.776,5 15.5,5 C15.224,5 15,5.224 15,5.5 L15,10 C15,10.552 14.552,11 14,11 C13.448,11 13,10.552 13,10 L13,3.5 C13,3.224 12.776,3 12.5,3 C12.224,3 12,3.224 12,3.5 L12,11 C12,11.552 11.552,12 11,12 C10.448,12 10,11.552 10,11 Z"/>
</svg>

