<svg xmlns="http://www.w3.org/2000/svg" width="24" height="24">
  <defs/>
  <path  d="M10.2,3 C10.2,1.895 10.896,1 12,1 C13.105,1 13.8,1.895 13.8,3 L14,11 C14,10.636 14.5,5.34 14.5,5 C14.5,4 15.095,3 16.2,3 C17.305,3 18,3.895 18,5 L18,12.268 C18.083,12.22 18.3,8.422 18.3,8 C18.3,7 18.563,6 19.5,6 C20.438,6 21,6.895 21,8 L21,14 C21,18.418 17.418,22 13,22 L12.326,22 C9.296,22 6.526,20.288 5.171,17.578 L2.329,11.894 C1.965,11.166 2.245,10.226 3.049,9.87 C3.472,9.683 3.946,9.578 4.392,9.72 C5.5,10.073 5.336,10.58 6,11.21 L6,5 C6,3.895 6.695,3 7.8,3 C8.8,3 9.409,4.315 9.5,5 C9.625,5.938 10,10.634 10,10.998 Z"/>
</svg>

