<svg xmlns="http://www.w3.org/2000/svg" width="24" height="24">
  <defs/>
  <path  d="M17.612,9.162 C18.38,8.87 19.243,8.974 19.92,9.441 C20.597,9.908 21,10.678 21,11.5 L21,14 C21,18.418 17.418,22 13,22 L12.326,22 C9.296,22 6.527,20.288 5.172,17.578 L2.33,11.894 C1.97,11.174 2.237,10.211 3.077,9.866 C4.12,9.44 5.11,9.36 6.13,9.878 C6.441,10.04 6.733,10.236 7,10.462 L7,5.5 C7,4.742 7.343,4.025 7.934,3.55 C8.525,3.076 9.299,2.895 10.039,3.058 C10.267,1.783 11.431,0.893 12.722,1.008 C14.012,1.123 15.001,2.204 15,3.5 L15,8.05 C16.017,7.842 17.057,8.285 17.612,9.162 Z M10,5.5 C10,5.224 9.776,5 9.5,5 C9.224,5 9,5.224 9,5.5 L9,13 C9,13.424 8.732,13.802 8.331,13.943 C7.931,14.083 7.486,13.956 7.22,13.625 C6.295,12.469 5.703,11.905 5.225,11.661 C4.97,11.523 4.673,11.482 4.39,11.544 L6.96,16.684 C7.976,18.716 10.054,20 12.326,20 L13,20 C16.314,20 19,17.314 19,14 L19,11.5 C19,11.224 18.776,11 18.5,11 C18.224,11 18,11.224 18,11.5 L18,12 C18,12.552 17.552,13 17,13 C16.448,13 16,12.552 16,12 L16,10.5 C16,10.224 15.777,10 15.5,10 C15.224,9.999 15,10.223 15,10.499 L15,11 C15,11.552 14.552,12 14,12 C13.448,12 13,11.552 13,11 L13,3.5 C13,3.224 12.776,3 12.5,3 C12.224,3 12,3.224 12,3.5 L12,12 C12,12.552 11.552,13 11,13 C10.448,13 10,12.552 10,12 Z"/>
</svg>

