<svg xmlns="http://www.w3.org/2000/svg" width="24" height="24">
  <defs/>
  <path  d="M9.402,3.596 C9.939,3.105 10.664,2.872 11.386,2.958 C12.109,3.045 12.758,3.442 13.164,4.046 L13.255,4.192 L13.945,5.389 C13.992,5.324 14.043,5.26 14.095,5.199 C14.669,4.524 15.499,4.097 16.432,3.941 C17.265,3.801 17.895,4.38 18.083,4.991 C18.288,5.659 18.661,6.471 19.133,7.339 C20.711,10.252 20.488,13.929 18.373,16.376 C17.953,18.288 16.828,20.019 14.973,21.09 C11.693,22.983 7.503,21.94 5.493,18.73 L5.193,18.23 L5.021,17.944 C4.84,17.648 4.658,17.351 4.496,17.047 L4.342,16.74 L3.167,14.781 C2.794,14.16 2.71,13.407 2.938,12.719 C3.165,12.032 3.681,11.477 4.351,11.201 L4.502,11.145 L3.728,9.805 C3.345,9.143 3.287,8.341 3.569,7.63 C3.852,6.919 4.445,6.377 5.178,6.158 C4.709,5.019 5.14,3.708 6.193,3.069 C7.247,2.43 8.608,2.654 9.402,3.596 Z M21.364,3.998 C21.619,4.437 21.504,4.997 21.098,5.301 L21,5.365 L20.16,5.852 C19.702,6.116 19.117,5.978 18.826,5.537 C18.534,5.095 18.637,4.503 19.06,4.186 L19.157,4.122 L19.997,3.635 C20.475,3.358 21.087,3.52 21.364,3.998 Z M16.322,6.028 C16.051,6.12 15.809,6.281 15.619,6.494 C15.456,6.683 15.358,6.919 15.337,7.168 C15.916,7.275 16.337,7.735 16.485,8.216 C16.69,8.884 17.063,9.696 17.534,10.564 C17.778,11.014 17.979,11.484 18.137,11.964 C18.25,10.692 17.985,9.415 17.374,8.293 C16.962,7.533 16.588,6.756 16.322,6.028 Z M14.986,1.09 C15.476,0.959 15.986,1.215 16.174,1.686 L16.211,1.797 L16.341,2.28 C16.484,2.794 16.199,3.329 15.692,3.497 C15.186,3.665 14.637,3.406 14.445,2.909 L14.409,2.798 L14.279,2.315 C14.136,1.781 14.452,1.233 14.986,1.09 Z M18.633,1.09 C19.123,1.221 19.437,1.698 19.364,2.2 L19.34,2.315 L19.211,2.798 C19.076,3.313 18.562,3.632 18.041,3.524 C17.52,3.417 17.175,2.92 17.255,2.394 L17.279,2.28 L17.409,1.797 C17.552,1.264 18.1,0.948 18.633,1.09 Z M10.84,5.008 C10.631,5.128 10.538,5.381 10.618,5.608 L10.656,5.69 L11.586,7.302 L11.656,7.416 L12.347,8.613 C12.51,8.389 12.7,8.189 12.912,8.013 L13.075,7.886 L11.522,5.191 C11.384,4.952 11.078,4.87 10.839,5.008 Z M7.24,4.776 C7.001,4.914 6.919,5.22 7.057,5.459 L7.83,6.797 C8.082,6.573 8.376,6.403 8.695,6.295 L7.924,4.96 C7.786,4.721 7.48,4.639 7.241,4.777 Z"/>
</svg>

