<svg xmlns="http://www.w3.org/2000/svg" width="24" height="24">
  <defs/>
  <path  d="M9.402,3.596 A2.5 2.5 0 0 1 13.165,4.046 L13.255,4.192 L13.945,5.389 C13.992,5.324 14.043,5.26 14.095,5.199 C14.669,4.523 15.499,4.097 16.432,3.94 C17.212,3.81 17.816,4.31 18.042,4.877 L18.083,4.991 C18.288,5.659 18.661,6.471 19.133,7.339 C20.711,10.252 20.488,13.928 18.373,16.376 C17.953,18.287 16.828,20.018 14.973,21.089 A7.036 7.036 0 0 1 5.363,18.514 A258.441 258.441 0 0 0 3.167,14.781 A2.487 2.487 0 0 1 4.351,11.201 L4.502,11.145 L3.729,9.805 A2.5 2.5 0 0 1 5.179,6.158 A2.5 2.5 0 0 1 9.402,3.596 M5.644,8.12 A0.5 0.5 0 0 0 5.461,8.803 L8.711,14.433 A1 1 0 1 1 6.979,15.433 L5.722,13.257 A0.487 0.487 0 1 0 4.882,13.751 C5.632,15.001 6.366,16.251 7.095,17.513 A5.036 5.036 0 0 0 13.974,19.356 C15.289,18.596 16.128,17.319 16.436,15.876 L16.461,15.296 C16.511,13.967 16.468,12.792 15.776,11.516 C15.364,10.756 14.99,9.979 14.724,9.251 C14.264,9.419 13.981,9.7 13.846,9.989 C13.571,10.579 13.846,11.205 14.146,11.725 A1 1 0 0 1 12.431,12.755 C12.074,12.182 11.731,11.598 11.394,11.011 L10.393,9.243 A125.5 125.5 0 0 0 9.89,8.363 A0.5 0.5 0 0 0 9.059,8.915 L11.309,12.812 A1 1 0 0 1 9.577,13.812 L8.769,12.432 L7.139,9.69 C6.867,9.231 6.596,8.77 6.327,8.303 A0.5 0.5 0 0 0 5.644,8.12 M16.323,6.027 A1.66 1.66 0 0 0 15.619,6.493 A1.184 1.184 0 0 0 15.337,7.166 C15.916,7.273 16.337,7.734 16.485,8.215 C16.69,8.883 17.063,9.694 17.535,10.563 C17.778,11.013 17.979,11.483 18.137,11.963 A6.474 6.474 0 0 0 17.374,8.291 C16.962,7.532 16.588,6.755 16.323,6.027 M10.84,5.007 A0.5 0.5 0 0 0 10.656,5.689 L12.348,8.611 A3.3 3.3 0 0 1 12.912,8.012 L13.075,7.885 L11.523,5.19 A0.5 0.5 0 0 0 10.84,5.007 M7.242,4.775 A0.5 0.5 0 0 0 7.059,5.458 L7.831,6.796 A2.511 2.511 0 0 1 8.696,6.294 L7.925,4.96 A0.5 0.5 0 0 0 7.242,4.777 Z M21.365,3.997 A1 1 0 0 1 21.099,5.3 L21.002,5.364 L20.162,5.851 A1 1 0 0 1 19.06,4.185 L19.158,4.121 L19.998,3.634 A1 1 0 0 1 21.365,3.997 M18.633,1.087 A1 1 0 0 1 19.364,2.197 L19.34,2.312 L19.211,2.795 A1 1 0 0 1 17.256,2.392 L17.279,2.278 L17.409,1.795 A1 1 0 0 1 18.633,1.088 Z M14.986,1.087 A1 1 0 0 1 16.174,1.684 L16.211,1.794 L16.341,2.278 A1 1 0 0 1 14.445,2.906 L14.409,2.796 L14.279,2.312 A1 1 0 0 1 14.986,1.088 Z"/>
</svg>

