<svg xmlns="http://www.w3.org/2000/svg" width="24" height="24">
  <defs/>
  <path  d="M8.389,12.328 C9.31,11.752 10.425,11.576 11.479,11.839 L15.195,12.769 C16.366,13.061 16.955,14.296 16.585,15.409 C17.226,14.981 17.863,14.451 18.553,14.106 C20.137,13.314 22,14.466 22,16.236 L22,16.292 C22,17.053 21.642,17.769 21.033,18.225 L17.962,20.528 C17.604,20.797 17.191,20.982 16.752,21.07 L13.542,21.711 C12.452,21.929 11.32,21.778 10.325,21.281 L7.975,20.106 C7.836,20.037 7.683,20.001 7.528,20.001 L6.732,20.001 C6.375,20.62 5.715,21.001 5,21.001 L4,21.001 C2.895,21.001 2,20.106 2,19.001 L2,15.001 C2,13.896 2.895,13.001 4,13.001 L5,13.001 C5.523,13 6.025,13.205 6.399,13.571 Z M20.999,6.854 C20.956,8.763 19.478,10.318 17.315,11.603 C16.913,11.841 16.484,12.111 16,12.111 C15.516,12.111 15.087,11.841 14.685,11.603 C12.522,10.318 11.044,8.763 11.001,6.854 C10.968,5.374 11.722,4.08 12.834,3.432 C13.788,2.876 14.97,2.825 16,3.469 C17.031,2.825 18.212,2.876 19.166,3.432 C20.278,4.08 21.032,5.374 20.999,6.854 Z"/>
</svg>

