<svg xmlns="http://www.w3.org/2000/svg" width="24" height="24">
  <defs/>
  <path  d="M9.5,2 C10.881,2 12,3.119 12,4.5 L12,8.05 C13.017,7.842 14.057,8.285 14.612,9.162 C15.723,8.739 16.977,9.158 17.612,10.162 C18.38,9.87 19.243,9.974 19.92,10.441 C20.597,10.908 21,11.678 21,12.5 C21,12.685 21.002,12.871 21.004,13.056 C21.009,13.542 21.014,14.029 20.984,14.514 C20.713,18.724 17.219,22 13,22 L12.326,22 C9.296,22 6.527,20.288 5.172,17.578 L2.33,11.894 C1.97,11.174 2.237,10.211 3.077,9.866 C4.12,9.44 5.11,9.36 6.13,9.878 C6.441,10.04 6.733,10.236 7,10.462 L7,4.5 C7,3.119 8.119,2 9.5,2 Z M18,12.5 L18,13 C18,13.552 17.552,14 17,14 C16.448,14 16,13.552 16,13 L16,11.5 C16.002,11.224 15.78,10.998 15.504,10.996 C15.228,10.994 15.002,11.216 15,11.492 L15,12 C15,12.552 14.552,13 14,13 C13.448,13 13,12.552 13,12 L13,10.5 C13,10.224 12.776,10 12.5,10 C12.224,10 12,10.224 12,10.5 L12,12 C12,12.552 11.552,13 11,13 C10.448,13 10,12.552 10,12 L10,4.5 C10,4.224 9.776,4 9.5,4 C9.224,4 9,4.224 9,4.5 L9,13 C9,13.424 8.732,13.802 8.331,13.943 C7.931,14.083 7.486,13.956 7.22,13.625 C6.295,12.469 5.703,11.905 5.225,11.661 C4.97,11.523 4.673,11.482 4.39,11.544 L6.96,16.684 C7.976,18.716 10.054,20 12.326,20 L13,20 C16.306,20 18.989,17.326 19,14.02 L19,12.5 C19,12.224 18.776,12 18.5,12 C18.224,12 18,12.224 18,12.5 Z"/>
</svg>

