<svg xmlns="http://www.w3.org/2000/svg" width="24" height="24">
  <defs/>
  <path  d="M11.253,11.79 L11.479,11.84 L15.195,12.768 C16.366,13.061 16.955,14.296 16.585,15.408 L16.905,15.188 L17.551,14.726 C17.876,14.496 18.208,14.278 18.553,14.106 C20.089,13.338 21.887,14.397 21.995,16.077 L22,16.237 L22,16.292 C22,16.989 21.7,17.649 21.18,18.106 L21.033,18.226 L17.963,20.528 C17.664,20.752 17.327,20.918 16.969,21.018 L16.751,21.07 L13.541,21.712 C12.544,21.911 11.51,21.802 10.577,21.398 L10.325,21.281 L7.975,20.106 C7.871,20.054 7.759,20.02 7.644,20.006 L7.528,20 L6.732,20 C6.405,20.567 5.821,20.938 5.169,20.993 L5,21 L4,21 C2.953,21 2.083,20.194 2.005,19.15 L2,19 L2,15 C2,13.954 2.807,13.084 3.85,13.006 L4,13 L5,13 C5.484,13 5.928,13.172 6.274,13.459 L6.399,13.571 L8.389,12.328 C9.175,11.837 10.106,11.634 11.025,11.753 Z M16,3.47 C17.03,2.826 18.212,2.877 19.166,3.433 C20.278,4.081 21.032,5.375 20.999,6.855 C20.958,8.69 19.589,10.199 17.561,11.455 L17.163,11.694 C16.805,11.906 16.423,12.112 16,12.112 C15.577,12.112 15.195,11.906 14.837,11.694 L14.439,11.454 C12.41,10.198 11.042,8.69 11,6.854 C10.967,5.374 11.721,4.08 12.833,3.432 C13.787,2.876 14.968,2.825 15.999,3.469 Z M9.449,14.024 L7,15.554 L7,18 L7.528,18 C7.994,18 8.453,18.109 8.87,18.317 L11.22,19.492 C11.817,19.79 12.496,19.881 13.15,19.75 L16.359,19.108 C16.505,19.079 16.643,19.017 16.763,18.928 L19.833,16.625 C19.961,16.529 20,16.388 20,16.236 C20,16.111 19.939,15.994 19.837,15.923 C19.735,15.851 19.604,15.834 19.487,15.877 L17.059,17.497 C16.566,17.825 15.986,18 15.394,18 L12,18 L12,16 L13.559,16 C13.989,16 14.371,15.724 14.507,15.316 L14.71,14.708 L10.994,13.78 C10.467,13.648 9.91,13.736 9.449,14.024 Z M18.159,5.161 C17.78,4.941 17.329,4.915 16.881,5.297 L16.675,5.487 C16.28,5.801 15.72,5.801 15.325,5.487 L15.119,5.297 C14.67,4.915 14.219,4.94 13.841,5.161 C13.38,5.43 12.983,6.031 13.001,6.811 C13.018,7.589 13.619,8.591 15.469,9.74 L15.707,9.884 L16,10.055 L16.293,9.885 C18.33,8.673 18.981,7.62 19,6.808 C19.018,6.029 18.621,5.428 18.16,5.159 Z M5,15 L4,15 L4,19 L5,19 Z"/>
</svg>

