<svg xmlns="http://www.w3.org/2000/svg" width="24" height="24">
  <defs/>
  <path  d="M7,4.5 C7,3.119 8.119,2 9.5,2 C10.881,2 12,3.119 12,4.5 L12,9.105 L17.442,9.71 C19.467,9.935 21,11.647 21,13.685 L21,14 C21,18.418 17.418,22 13,22 L12.326,22 C9.296,22 6.526,20.288 5.171,17.578 L2.329,11.894 C1.969,11.174 2.236,10.211 3.076,9.866 C4.119,9.439 5.11,9.359 6.131,9.878 C6.427,10.028 6.715,10.225 7,10.462 Z M9.5,4 C9.224,4 9,4.224 9,4.5 L9,13 C9,13.424 8.732,13.802 8.331,13.943 C7.931,14.083 7.486,13.956 7.22,13.625 C6.295,12.469 5.703,11.905 5.225,11.661 C4.97,11.523 4.673,11.482 4.39,11.544 L6.96,16.684 C7.976,18.716 10.054,20 12.326,20 L13,20 C16.314,20 19,17.314 19,14 L19,13.685 C19,12.666 18.233,11.809 17.22,11.697 L11.78,11.093 C10.767,10.981 10,10.124 10,9.105 L10,4.5 C10,4.224 9.776,4 9.5,4 Z"/>
</svg>

