<svg xmlns="http://www.w3.org/2000/svg" width="24" height="24">
  <defs/>
  <path  d="M10,4 L20,4 C21.105,4 22,4.895 22,6 L22,13 C22,14.105 21.105,15 20,15 L15,15 L9.133,19.4 C8.614,19.789 7.982,20 7.333,20 L3,20 C2.448,20 2,19.552 2,19 C2,18.448 2.448,18 3,18 L7.333,18 C7.549,18 7.76,17.93 7.933,17.8 L14.478,12.892 L14.192,12.606 C13.471,11.885 12.324,11.821 11.528,12.458 L8.625,14.781 C8.194,15.126 7.564,15.056 7.219,14.625 C6.874,14.194 6.944,13.564 7.375,13.219 L8,12.719 L8,9.073 C7.445,9.198 6.938,9.478 6.536,9.88 L3.707,12.707 C3.456,12.967 3.084,13.071 2.734,12.98 C2.385,12.888 2.112,12.615 2.02,12.266 C1.929,11.916 2.033,11.544 2.293,11.293 L5.121,8.464 C5.898,7.687 6.91,7.187 8,7.043 L8,6 C8,4.895 8.895,4 10,4 Z M10,11.12 L10.279,10.897 C11.871,9.624 14.165,9.751 15.606,11.192 L15.892,11.478 C16.313,11.899 16.504,12.456 16.475,13 L20,13 L20,9 L10,9 Z M20,7 L20,6 L10,6 L10,7 Z"/>
</svg>

