<svg xmlns="http://www.w3.org/2000/svg" width="24" height="24">
  <defs/>
  <path  d="M8,6 C8,4.895 8.895,4 10,4 L20,4 C21.105,4 22,4.895 22,6 L22,13 C22,14.105 21.105,15 20,15 L15,15 L9.133,19.4 C8.614,19.789 7.982,20 7.333,20 L3,20 C2.448,20 2,19.552 2,19 C2,18.448 2.448,18 3,18 L7.333,18 C7.549,18 7.76,17.93 7.933,17.8 L14.478,12.892 L14.192,12.606 C13.471,11.885 12.324,11.821 11.528,12.458 L8.625,14.781 C8.194,15.126 7.564,15.056 7.219,14.625 C6.874,14.194 6.944,13.564 7.375,13.219 L8,12.719 L8,9.073 C7.446,9.198 6.938,9.477 6.536,9.879 L3.707,12.707 C3.315,13.086 2.691,13.081 2.305,12.695 C1.919,12.309 1.914,11.685 2.293,11.293 L5.12,8.464 C5.898,7.687 6.91,7.188 8,7.044 Z M10,9 L20,9 C20.552,9 21,8.552 21,8 C21,7.448 20.552,7 20,7 L9,7 C9.552,7 10,7.448 10,8 Z"/>
</svg>

