<svg xmlns="http://www.w3.org/2000/svg" width="24" height="24">
  <defs/>
  <path  d="M12,2 C17.523,2 22,6.477 22,12 C22,17.523 17.523,22 12,22 C6.477,22 2,17.523 2,12 C2,6.477 6.477,2 12,2 Z M13.984,14.25 C13.454,14.718 12.761,15 12,15 C11.269,15.001 10.563,14.734 10.016,14.25 C9.602,13.884 8.97,13.924 8.604,14.338 C8.238,14.752 8.278,15.384 8.692,15.75 C9.605,16.557 10.782,17.001 12,17 C13.218,17.002 14.395,16.557 15.308,15.75 C15.722,15.384 15.762,14.752 15.396,14.338 C15.03,13.924 14.398,13.884 13.984,14.25 Z M15.5,8 C14.413,8 13.543,8.68 13.106,9.552 C12.868,10.026 13.041,10.603 13.5,10.867 C13.96,11.132 14.545,10.992 14.836,10.549 L14.894,10.448 C15.056,10.124 15.304,10 15.5,10 C15.67,10 15.882,10.095 16.041,10.336 L16.106,10.448 C16.264,10.77 16.583,10.983 16.942,11.005 C17.3,11.027 17.643,10.855 17.84,10.555 C18.037,10.255 18.057,9.872 17.894,9.552 C17.458,8.68 16.587,8 15.5,8 Z M8.5,8 C7.413,8 6.542,8.68 6.106,9.552 C5.868,10.026 6.041,10.603 6.5,10.867 C6.96,11.132 7.545,10.992 7.836,10.549 L7.894,10.448 C8.056,10.124 8.304,10 8.5,10 C8.67,10 8.882,10.095 9.041,10.336 L9.106,10.448 C9.356,10.937 9.953,11.133 10.445,10.887 C10.936,10.641 11.136,10.045 10.894,9.552 C10.457,8.68 9.587,8 8.5,8 Z"/>
</svg>

