<svg xmlns="http://www.w3.org/2000/svg" width="24" height="24">
  <defs/>
  <path  d="M2,12 C2,6.477 6.477,2 12,2 C17.523,2 22,6.477 22,12 C22,17.523 17.523,22 12,22 C6.477,22 2,17.523 2,12 Z M12,4 C7.582,4 4,7.582 4,12 C4,16.418 7.582,20 12,20 C16.418,20 20,16.418 20,12 C20,7.582 16.418,4 12,4 Z M8.604,14.338 C8.97,13.924 9.602,13.884 10.016,14.25 C10.546,14.718 11.239,15 12,15 C12.761,15 13.455,14.718 13.984,14.25 C14.398,13.884 15.03,13.924 15.396,14.338 C15.762,14.752 15.722,15.384 15.308,15.75 C14.395,16.557 13.218,17.002 12,17 C10.782,17.002 9.605,16.557 8.692,15.75 C8.278,15.384 8.238,14.752 8.604,14.338 Z M15.5,10 C15.305,10 15.056,10.124 14.894,10.448 C14.736,10.77 14.417,10.983 14.058,11.005 C13.7,11.027 13.357,10.855 13.16,10.555 C12.963,10.255 12.943,9.872 13.106,9.552 C13.543,8.68 14.413,8 15.5,8 C16.587,8 17.457,8.68 17.894,9.552 C18.136,10.045 17.936,10.641 17.445,10.887 C16.953,11.133 16.356,10.937 16.106,10.448 C15.944,10.124 15.696,10 15.5,10 Z M8.5,10 C8.305,10 8.056,10.124 7.894,10.448 C7.644,10.937 7.047,11.133 6.555,10.887 C6.064,10.641 5.864,10.045 6.106,9.552 C6.542,8.68 7.413,8 8.5,8 C9.587,8 10.457,8.68 10.894,9.552 C11.136,10.045 10.936,10.641 10.445,10.887 C9.953,11.133 9.356,10.937 9.106,10.448 C8.944,10.124 8.696,10 8.5,10 Z"/>
</svg>

