<svg xmlns="http://www.w3.org/2000/svg" width="24" height="24">
  <defs/>
  <path  d="M10.124,3.008 C10.672,3.077 11.06,3.576 10.992,4.124 L10.508,8 L14.492,8 L15.008,3.876 C15.044,3.515 15.274,3.202 15.607,3.058 C15.94,2.915 16.325,2.963 16.613,3.184 C16.9,3.405 17.046,3.765 16.992,4.124 L16.508,8 L20,8 C20.552,8 21,8.448 21,9 C21,9.552 20.552,10 20,10 L16.258,10 L15.758,14 L19.5,14 C20.052,14 20.5,14.448 20.5,15 C20.5,15.552 20.052,16 19.5,16 L15.508,16 L14.992,20.124 C14.956,20.485 14.726,20.798 14.393,20.942 C14.06,21.085 13.675,21.037 13.387,20.816 C13.1,20.595 12.954,20.235 13.008,19.876 L13.492,16 L9.508,16 L8.992,20.124 C8.956,20.485 8.726,20.798 8.393,20.942 C8.06,21.085 7.675,21.037 7.387,20.816 C7.1,20.595 6.954,20.235 7.008,19.876 L7.492,16 L4.5,16 C3.948,16 3.5,15.552 3.5,15 C3.5,14.448 3.948,14 4.5,14 L7.742,14 L8.242,10 L5,10 C4.448,10 4,9.552 4,9 C4,8.448 4.448,8 5,8 L8.492,8 L9.008,3.876 C9.077,3.328 9.576,2.94 10.124,3.008 Z M13.742,14 L14.242,10 L10.258,10 L9.758,14 Z"/>
</svg>

