<svg xmlns="http://www.w3.org/2000/svg" width="24" height="24">
  <defs/>
  <path  d="M9.686,2.512 C10.508,2.614 11.091,3.364 10.989,4.186 L10.637,7 L14.613,7 L15.012,3.814 C15.115,2.992 15.864,2.409 16.687,2.511 C17.509,2.614 18.092,3.364 17.989,4.186 L17.637,7 L20,7 C20.828,7 21.5,7.672 21.5,8.5 C21.5,9.328 20.828,10 20,10 L17.262,10 L16.762,14 L19.5,14 C20.328,14 21,14.672 21,15.5 C21,16.328 20.328,17 19.5,17 L16.387,17 L15.989,20.186 C15.886,21.008 15.137,21.591 14.314,21.489 C13.492,21.386 12.909,20.636 13.012,19.814 L13.363,17 L9.388,17 L8.99,20.186 C8.887,21.008 8.138,21.591 7.315,21.489 C6.493,21.386 5.91,20.636 6.013,19.814 L6.363,17 L4.5,17 C3.672,17 3,16.328 3,15.5 C3,14.672 3.672,14 4.5,14 L6.738,14 L7.238,10 L5,10 C4.172,10 3.5,9.328 3.5,8.5 C3.5,7.672 4.172,7 5,7 L7.613,7 L8.012,3.814 C8.114,2.992 8.864,2.408 9.686,2.51 Z M13.74,14 L14.24,10 L10.263,10 L9.763,14 Z"/>
</svg>

