<svg xmlns="http://www.w3.org/2000/svg" width="24" height="24">
  <defs/>
  <path  d="M15.5,4 C16.273,4 16.919,4.587 16.993,5.356 L17,5.5 L17,5.582 C19.925,6.766 21.881,9.559 21.995,12.713 L22,13 L22,15 C22,15.514 21.611,15.944 21.1,15.995 C20.477,16.057 19.868,16.105 19.27,16.135 C16.415,18.889 14.162,20 11.939,20 C10.795,20 9.741,19.704 8.723,19.307 C8.205,19.1 7.693,18.879 7.188,18.643 L6.128,18.154 C5.951,18.073 5.773,17.993 5.595,17.914 C4.958,17.631 4.547,17.578 4.267,17.584 L4.115,17.591 L3.613,17.653 C3.54,17.66 3.466,17.664 3.393,17.664 C2.979,17.668 2.582,17.503 2.293,17.207 C2.105,17.019 2,16.764 2,16.499 C2.001,16.233 2.107,15.978 2.295,15.791 L2.387,15.711 L6.002,12.899 C6.056,8.617 9.473,5.136 13.754,5.004 L14.085,5 C14.297,4.4 14.864,4 15.5,4 Z M14,7 C10.945,7 8.378,9.294 8.037,12.33 C10.939,13.432 13.501,13.998 16.178,14.143 C16.446,12.773 16.325,11.32 15.972,10.01 C15.628,8.732 15.089,7.679 14.575,7.027 C14.384,7.009 14.192,7 14,7 Z M7.5,14.266 L5.563,15.774 C5.821,15.849 6.101,15.951 6.406,16.086 L6.839,16.281 L8.388,16.992 C8.749,17.155 9.098,17.306 9.449,17.443 C10.353,17.796 11.144,18 11.938,18 C13.082,18 14.416,17.573 16.23,16.148 C13.526,16.018 10.933,15.492 8.076,14.476 Z M17.903,9.49 C18.288,10.918 18.457,12.553 18.203,14.174 C18.803,14.161 19.402,14.131 20,14.084 L20,13 C20.001,11.037 19.041,9.199 17.431,8.077 C17.612,8.527 17.771,9.002 17.903,9.49 Z"/>
</svg>

