<svg xmlns="http://www.w3.org/2000/svg" width="24" height="24">
  <defs/>
  <path  d="M5.03,13.701 L5.74,8.011 C5.843,7.184 6.286,6.436 6.963,5.949 C7.639,5.461 8.488,5.277 9.306,5.441 C10.163,5.613 11.124,5.961 12,5.961 C12.876,5.961 13.837,5.613 14.694,5.441 C15.512,5.278 16.36,5.462 17.036,5.949 C17.713,6.437 18.156,7.184 18.259,8.011 L18.971,13.701 C20.107,13.985 22,14.535 22,16 C22,17.596 19.787,18.122 18.58,18.39 C16.862,18.772 14.536,19 12,19 C9.464,19 7.138,18.772 5.42,18.39 C4.212,18.122 2,17.596 2,16 C2,14.535 3.893,13.985 5.03,13.701 Z M5.853,16.438 C7.391,16.78 9.565,17 12,17 C14.435,17 16.609,16.78 18.147,16.438 C18.772,16.299 19.258,16.148 19.602,16 C19.257,15.852 18.772,15.701 18.147,15.562 C16.609,15.22 14.435,15 12,15 C9.565,15 7.391,15.22 5.853,15.562 C5.228,15.7 4.743,15.852 4.398,16 C4.743,16.148 5.228,16.299 5.853,16.438 Z"/>
</svg>

