<svg xmlns="http://www.w3.org/2000/svg" width="24" height="24">
  <defs/>
  <path  d="M5.03,13.701 L5.74,8.011 C5.843,7.184 6.286,6.436 6.963,5.949 C7.639,5.461 8.488,5.277 9.306,5.441 C10.163,5.613 11.124,5.961 12,5.961 C12.876,5.961 13.837,5.613 14.694,5.441 C15.512,5.278 16.36,5.462 17.036,5.949 C17.713,6.437 18.156,7.184 18.259,8.011 L18.971,13.701 C20.107,13.985 22,14.535 22,16 C22,17.596 19.787,18.122 18.58,18.39 C16.862,18.772 14.536,19 12,19 C9.464,19 7.138,18.772 5.42,18.39 C4.212,18.122 2,17.596 2,16 C2,14.535 3.893,13.985 5.03,13.701 Z M7.725,8.26 L7.094,13.313 C8.533,13.113 10.214,13 12,13 C13.786,13 15.467,13.113 16.906,13.314 L16.275,8.26 C16.241,7.984 16.093,7.735 15.867,7.572 C15.642,7.41 15.359,7.348 15.086,7.403 C14.087,7.603 13.026,7.961 12,7.961 C10.974,7.961 9.913,7.603 8.914,7.403 C8.641,7.348 8.358,7.41 8.133,7.572 C7.907,7.735 7.759,7.984 7.725,8.26 Z M5.853,16.439 L5.853,16.438 C7.391,16.78 9.565,17 12,17 C14.435,17 16.609,16.78 18.147,16.438 C19.7,16.092 19.7,15.907 18.147,15.562 C16.609,15.22 14.435,15 12,15 C9.565,15 7.391,15.22 5.853,15.563 C4.3,15.908 4.3,16.094 5.853,16.439 Z"/>
</svg>

