<svg xmlns="http://www.w3.org/2000/svg" width="24" height="24">
  <defs/>
  <path  d="M14.085,5 C14.328,4.31 15.033,3.896 15.754,4.019 C16.474,4.143 17.001,4.769 17,5.5 L17,5.582 C20.022,6.805 22,9.74 22,13 L22,15 C22,15.514 21.61,15.944 21.099,15.995 C20.491,16.057 19.881,16.104 19.271,16.136 C16.414,18.888 14.161,20 11.937,20 C10.794,20 9.74,19.704 8.722,19.307 C7.737,18.922 6.658,18.387 5.594,17.914 C4.765,17.546 4.32,17.568 4.048,17.598 C3.982,17.605 3.915,17.614 3.849,17.623 C3.698,17.644 3.546,17.665 3.393,17.664 C2.979,17.668 2.582,17.503 2.293,17.207 C2.093,17.003 1.989,16.723 2.007,16.438 C2.024,16.152 2.162,15.888 2.386,15.71 L6,12.9 C6.055,8.521 9.62,5 14,5 Z M5.563,15.774 L5.562,15.774 C5.85,15.859 6.131,15.963 6.405,16.086 C7.591,16.613 8.512,17.078 9.448,17.443 C10.352,17.796 11.143,18 11.936,18 C13.08,18 14.415,17.573 16.23,16.148 C13.345,16.009 10.587,15.421 7.5,14.266 Z"/>
</svg>

