<svg xmlns="http://www.w3.org/2000/svg" width="24" height="24">
  <defs/>
  <path  d="M5.5,3 A1.5 1.5 0 1 0 5.5,6 A1.5 1.5 0 0 0 5.5,3 M12,3 A1.5 1.5 0 1 0 12,6 A1.5 1.5 0 0 0 12,3 M17,4.5 A1.5 1.5 0 1 1 20,4.5 A1.5 1.5 0 0 1 17,4.5 M5.5,18 A1.5 1.5 0 1 0 5.5,21 A1.5 1.5 0 0 0 5.5,18 M10.5,19.5 A1.5 1.5 0 1 1 13.5,19.5 A1.5 1.5 0 0 1 10.5,19.5 M18.5,18 A1.5 1.5 0 1 0 18.5,21 A1.5 1.5 0 0 0 18.5,18 M3.905,15.269 A4.623 4.623 0 0 1 10.165,8.475 L12,10.033 L13.836,8.475 A4.623 4.623 0 1 1 13.836,15.525 L12,13.967 L10.164,15.525 A4.623 4.623 0 0 1 3.904,15.269 Z M6.026,10.853 A1.623 1.623 0 0 0 8.223,13.237 L9.682,12 L8.223,10.763 A1.623 1.623 0 0 0 6.026,10.853 M14.318,12 L15.777,13.237 A1.623 1.623 0 1 0 15.777,10.763 Z"/>
</svg>

