<svg xmlns="http://www.w3.org/2000/svg" width="24" height="24">
  <defs/>
  <path  d="M5.5,3 A1.5 1.5 0 1 0 5.5,6 A1.5 1.5 0 0 0 5.5,3 M12,3 A1.5 1.5 0 1 0 12,6 A1.5 1.5 0 0 0 12,3 M18.5,3 A1.5 1.5 0 1 0 18.5,6 A1.5 1.5 0 0 0 18.5,3 M5.5,18 A1.5 1.5 0 1 0 5.5,21 A1.5 1.5 0 0 0 5.5,18 M12,18 A1.5 1.5 0 1 0 12,21 A1.5 1.5 0 0 0 12,18 M18.5,18 A1.5 1.5 0 1 0 18.5,21 A1.5 1.5 0 0 0 18.5,18 M4.258,14.915 A4.123 4.123 0 0 1 9.841,8.856 L12,10.688 L14.16,8.856 A4.123 4.123 0 1 1 14.16,15.144 L12,13.311 L9.84,15.143 A4.123 4.123 0 0 1 4.258,14.914 Z M5.673,10.5 A2.123 2.123 0 0 0 8.547,13.62 L10.454,12 L8.547,10.381 A2.123 2.123 0 0 0 5.673,10.499 Z M13.546,12 L15.453,13.618 A2.123 2.123 0 1 0 15.453,10.382 Z"/>
</svg>

