<svg xmlns="http://www.w3.org/2000/svg" width="24" height="24">
  <defs/>
  <path  d="M13,3 A1 1 0 0 1 13.993,3.883 L14,4 L14,20 A1 1 0 0 1 12.007,20.117 L12,20 L12,13 L5,13 L5,20 A1 1 0 0 1 3.007,20.117 L3,20 L3,4 A1 1 0 0 1 4.993,3.883 L5,4 L5,11 L12,11 L12,4 A1 1 0 0 1 13,3 M18.371,12.5 A2.633 2.633 0 0 1 20.441,16.75 C20.8,17.207 21,17.776 21,18.367 A2.633 2.633 0 0 1 18.37,21 C17.318,21 16.331,20.65 15.886,19.602 C15.645,19.033 15.657,18.352 16.322,18.069 A1 1 0 0 1 17.582,18.495 L17.634,18.599 C17.772,18.925 17.912,18.986 18.175,18.997 L18.37,19 A0.633 0.633 0 0 0 18.999,18.367 C18.999,17.994 18.714,17.789 18.385,17.755 L18.285,17.75 A1 1 0 0 1 18.168,15.757 L18.285,15.75 C18.655,15.75 18.999,15.543 18.999,15.133 A0.633 0.633 0 0 0 18.37,14.5 L18.176,14.503 C17.942,14.513 17.805,14.563 17.68,14.802 L17.634,14.901 A1 1 0 0 1 16.323,15.431 C15.644,15.143 15.655,14.621 15.76,14.242 L15.81,14.09 L15.886,13.898 C16.331,12.85 17.319,12.5 18.37,12.5 Z"/>
</svg>

