<svg xmlns="http://www.w3.org/2000/svg" width="24" height="24">
  <defs/>
  <path  d="M5,10 C5,6.27 7.578,3.034 11.215,2.202 C14.851,1.369 18.58,3.161 20.203,6.52 C21.826,9.879 20.912,13.913 18,16.245 L18,20.5 C18,21.328 17.328,22 16.5,22 L11.5,22 C10.672,22 10,21.328 10,20.5 L10,19 L8.766,19 C7.253,19 5.977,17.873 5.789,16.372 L5.649,15.249 L4.902,15.1 C4.461,15.012 4.083,14.731 3.872,14.334 C3.661,13.937 3.639,13.467 3.812,13.052 L5.002,10.194 C5.001,10.129 5,10.065 5,10 Z M13,4 C11.369,4 9.809,4.663 8.678,5.838 C7.547,7.012 6.943,8.597 7.004,10.226 C7.012,10.436 6.977,10.656 6.889,10.866 L5.892,13.259 L6.394,13.359 C7.027,13.486 7.508,14.003 7.588,14.644 L7.773,16.124 C7.836,16.625 8.261,17 8.766,17 L10.5,17 C11.328,17 12,17.672 12,18.5 L12,20 L16,20 L16,16.006 C16,15.509 16.244,15.069 16.609,14.794 C18.671,13.242 19.51,10.545 18.691,8.097 C17.873,5.65 15.581,4 13,4 Z"/>
</svg>

