<svg xmlns="http://www.w3.org/2000/svg" width="24" height="24">
  <defs/>
  <path  d="M20,11.943 C20,7.562 16.424,4 12,4 C7.576,4 4,7.562 4,11.943 C4,13.133 4.147,13.898 4.328,14.459 C4.45,14.831 4.741,14.464 4.885,14.329 A2.5 2.5 0 0 1 8.357,14.379 C9.778,15.791 11.089,17.749 9.278,19.549 C8.306,20.515 6.842,20.917 5.728,19.877 C4.29,18.533 3.041,16.969 2.426,15.077 C2.17,14.283 2,13.304 2,11.942 C2,6.445 6.483,2 12,2 C17.517,2 22,6.445 22,11.943 C22,13.305 21.831,14.284 21.574,15.076 C20.959,16.969 19.71,18.533 18.272,19.876 C17.158,20.917 15.694,20.516 14.722,19.549 C12.912,17.749 14.222,15.791 15.642,14.379 A2.5 2.5 0 0 1 19.115,14.329 C19.392,14.589 19.529,14.899 19.672,14.459 C19.853,13.899 20,13.132 20,11.943"/>
</svg>

