<svg xmlns="http://www.w3.org/2000/svg" width="24" height="24">
  <defs/>
  <path  d="M13,3 A1 1 0 0 1 13.993,3.883 L14,4 L14,20 A1 1 0 0 1 12.007,20.117 L12,20 L12,13 L5,13 L5,20 A1 1 0 0 1 3.007,20.117 L3,20 L3,4 A1 1 0 0 1 4.993,3.883 L5,4 L5,11 L12,11 L12,4 A1 1 0 0 1 13,3 M17.657,12.68 A2.71 2.71 0 0 1 19.53,12.899 A2.772 2.772 0 0 1 20.98,16.049 A2.87 2.87 0 0 1 20.438,17.152 L20.303,17.309 L18.724,19 L20.354,19 A1 1 0 0 1 20.471,20.993 L20.354,21 L16.65,21 A1.01 1.01 0 0 1 15.64,19.99 C15.64,19.698 15.663,19.421 15.831,19.183 L15.912,19.083 L18.842,15.945 C19.317,15.435 18.898,14.431 18.143,14.619 A0.664 0.664 0 0 0 17.641,15.263 C17.641,15.84 17.258,16.357 16.641,16.357 C16.024,16.357 15.641,15.84 15.641,15.263 C15.641,14.041 16.473,12.976 17.658,12.679 Z"/>
</svg>

