<svg xmlns="http://www.w3.org/2000/svg" width="24" height="24">
  <defs/>
  <path  d="M13,2.5 A1.5 1.5 0 0 1 14.493,3.856 L14.5,4 L14.5,20 A1.5 1.5 0 0 1 11.507,20.144 L11.5,20 L11.5,13.5 L5.5,13.5 L5.5,20 A1.5 1.5 0 0 1 2.507,20.144 L2.5,20 L2.5,4 A1.5 1.5 0 0 1 5.493,3.856 L5.5,4 L5.5,10.5 L11.5,10.5 L11.5,4 A1.5 1.5 0 0 1 13,2.5 M18.372,12.5 A2.633 2.633 0 0 1 20.442,16.75 A2.633 2.633 0 0 1 18.372,21 C17.32,21 16.332,20.65 15.887,19.602 C15.647,19.033 15.658,18.352 16.323,18.069 A1 1 0 0 1 17.583,18.495 L17.635,18.599 C17.773,18.925 17.914,18.986 18.177,18.997 L18.371,19 A0.633 0.633 0 0 0 19,18.367 C19,17.994 18.715,17.789 18.386,17.755 L18.286,17.75 A1 1 0 0 1 18.169,15.757 L18.286,15.75 C18.656,15.75 19,15.543 19,15.133 A0.633 0.633 0 0 0 18.372,14.5 L18.177,14.503 C17.943,14.513 17.806,14.563 17.681,14.802 L17.635,14.901 A1 1 0 0 1 16.324,15.431 C15.658,15.148 15.646,14.467 15.888,13.898 C16.332,12.85 17.32,12.5 18.372,12.5"/>
</svg>

