<svg xmlns="http://www.w3.org/2000/svg" width="24" height="24">
  <defs/>
  <path  d="M13,2.5 A1.5 1.5 0 0 1 14.493,3.856 L14.5,4 L14.5,20 A1.5 1.5 0 0 1 11.507,20.144 L11.5,20 L11.5,13.5 L5.5,13.5 L5.5,20 A1.5 1.5 0 0 1 2.507,20.144 L2.5,20 L2.5,4 A1.5 1.5 0 0 1 5.493,3.856 L5.5,4 L5.5,10.5 L11.5,10.5 L11.5,4 A1.5 1.5 0 0 1 13,2.5 M17.657,12.68 A2.71 2.71 0 0 1 19.53,12.899 C20.696,13.481 21.287,14.819 20.973,16.076 A2.804 2.804 0 0 1 20.436,17.156 L20.303,17.309 L18.724,19 L20.354,19 A1 1 0 0 1 20.471,20.993 L20.354,21 L16.65,21 A1.01 1.01 0 0 1 15.64,19.99 C15.64,19.698 15.663,19.421 15.831,19.183 L15.912,19.083 L18.842,15.945 C19.314,15.438 18.892,14.432 18.143,14.62 C17.83,14.698 17.677,14.955 17.647,15.246 L17.641,15.357 A1 1 0 1 1 15.641,15.357 C15.641,14.111 16.423,12.988 17.658,12.679 Z"/>
</svg>

