<svg xmlns="http://www.w3.org/2000/svg" width="24" height="24">
  <defs/>
  <path  d="M12,2 C17.517,2 22,6.445 22,11.943 C22,13.305 21.831,14.284 21.574,15.076 C20.963,16.958 19.7,18.541 18.272,19.876 C17.29,20.794 15.833,20.654 14.958,19.784 C13.716,18.549 13.376,16.632 14.723,15.294 L15.643,14.379 A2.5 2.5 0 0 1 19.115,14.329 C19.392,14.589 19.529,14.899 19.672,14.459 C19.853,13.899 20,13.132 20,11.943 C20,7.562 16.424,4 12,4 C7.576,4 4,7.562 4,11.943 C4,13.133 4.147,13.898 4.328,14.459 C4.471,14.899 4.608,14.589 4.885,14.329 A2.5 2.5 0 0 1 8.357,14.379 L9.277,15.294 C10.624,16.632 10.284,18.549 9.042,19.784 C8.167,20.654 6.71,20.794 5.728,19.877 C4.29,18.533 3.041,16.969 2.426,15.077 C2.17,14.283 2,13.304 2,11.942 C2,6.445 6.483,2 12,2 M17.052,15.798 C16.474,16.372 15.262,17.265 16.132,18.131 C16.324,18.321 16.623,18.679 16.906,18.415 C17.544,17.819 18.169,17.145 18.589,16.578 C18.259,16.268 17.563,15.291 17.052,15.798 M6.948,15.798 C6.438,15.291 5.741,16.268 5.411,16.578 C5.831,17.145 6.456,17.818 7.094,18.415 C7.376,18.679 7.676,18.322 7.868,18.131 C8.738,17.265 7.526,16.372 6.948,15.798"/>
</svg>

