<svg xmlns="http://www.w3.org/2000/svg" width="24" height="24">
  <defs/>
  <path  d="M9.522,2.5 C10.186,2.51 10.764,2.955 10.944,3.594 L14.204,15.184 L15.595,11.474 C15.814,10.888 16.374,10.5 17,10.5 L20,10.5 C20.828,10.5 21.5,11.172 21.5,12 C21.5,12.828 20.828,13.5 20,13.5 L18.04,13.5 L15.405,20.527 C15.178,21.135 14.585,21.527 13.937,21.5 C13.289,21.473 12.731,21.032 12.556,20.407 L9.424,9.27 L8.432,12.446 C8.237,13.073 7.657,13.5 7,13.5 L4,13.5 C3.172,13.5 2.5,12.828 2.5,12 C2.5,11.172 3.172,10.5 4,10.5 L5.897,10.5 L8.068,3.553 C8.266,2.919 8.858,2.49 9.522,2.5 Z"/>
</svg>

