<svg xmlns="http://www.w3.org/2000/svg" width="24" height="24">
  <defs/>
  <path  d="M12,4.339 C14.072,2.653 16.534,2.659 18.494,3.801 C20.589,5.022 22.063,7.501 21.998,10.393 C21.919,13.913 19.246,17.027 14.675,19.817 L14.319,20.031 C13.988,20.229 13.657,20.429 13.312,20.604 C12.907,20.81 12.462,21 12,21 C11.537,21 11.093,20.81 10.687,20.604 C10.457,20.487 10.234,20.36 10.013,20.229 L9.681,20.031 C4.893,17.187 2.083,14.002 2.002,10.393 C1.937,7.501 3.411,5.023 5.506,3.801 C7.466,2.66 9.928,2.653 12,4.34 Z M17.487,5.53 C16.093,4.718 14.351,4.746 12.843,6.272 C12.62,6.497 12.317,6.623 12,6.623 C11.683,6.623 11.38,6.497 11.157,6.272 C9.65,4.746 7.907,4.718 6.513,5.53 C5.069,6.371 3.953,8.158 4.002,10.348 C4.005,10.492 4.014,10.638 4.03,10.782 L4.06,11 L7.382,11 L9.106,7.553 C9.27,7.226 9.6,7.014 9.965,7.001 C10.331,6.989 10.675,7.177 10.861,7.492 L10.919,7.606 L13.192,12.91 L14.168,11.445 C14.329,11.203 14.588,11.044 14.876,11.008 L15,11 L19.94,11 C19.974,10.784 19.993,10.566 19.998,10.348 C20.048,8.158 18.931,6.371 17.487,5.53 Z M9.93,10.376 L8.894,12.447 C8.725,12.786 8.379,13 8,13 L4.776,13 C5.701,14.646 7.489,16.348 10.326,18.085 L10.702,18.312 C10.996,18.487 11.288,18.666 11.593,18.821 C11.723,18.887 11.858,18.955 12,18.994 C12.142,18.954 12.276,18.887 12.407,18.821 C12.61,18.718 12.807,18.603 13.004,18.487 L13.298,18.312 C16.354,16.496 18.259,14.718 19.224,13 L15.535,13 L13.832,15.555 C13.629,15.86 13.274,16.03 12.909,15.996 C12.544,15.963 12.226,15.732 12.081,15.395 L9.931,10.375 Z"/>
</svg>

