<svg xmlns="http://www.w3.org/2000/svg" width="24" height="24">
  <defs/>
  <path  d="M18.494,3.801 C20.589,5.022 22.063,7.501 21.998,10.393 C21.917,14.003 19.108,17.187 14.319,20.031 C13.609,20.453 12.861,21 12,21 C11.155,21 10.375,20.443 9.68,20.03 C4.893,17.187 2.083,14.002 2.002,10.393 C1.937,7.501 3.411,5.023 5.506,3.801 C7.466,2.66 9.928,2.653 12,4.338 C14.072,2.653 16.534,2.659 18.494,3.801 Z M17.487,5.53 C16.093,4.718 14.351,4.747 12.843,6.273 C12.62,6.498 12.317,6.624 12,6.624 C11.683,6.624 11.38,6.498 11.157,6.273 C9.649,4.747 7.907,4.718 6.513,5.53 C5.069,6.372 3.953,8.158 4.002,10.35 C4.058,12.861 6.042,15.544 10.702,18.312 C11.11,18.555 11.536,18.866 12,18.995 C12.464,18.866 12.89,18.555 13.298,18.312 C17.958,15.544 19.942,12.862 19.998,10.349 C20.048,8.159 18.931,6.372 17.487,5.53 Z"/>
</svg>

