<svg xmlns="http://www.w3.org/2000/svg" width="24" height="24">
  <defs/>
  <path  d="M5.554,3.774 C7.729,2.532 10.502,2.687 12.674,4.964 C12.881,5.179 13,5.47 13,5.774 L13,20 C13,20.552 12.552,21 12,21 C11.537,21 11.093,20.81 10.687,20.604 C10.325,20.42 9.948,20.19 9.681,20.031 C4.893,17.187 2.083,14.002 2.002,10.393 C1.937,7.479 3.432,4.985 5.554,3.773 Z M6.546,5.51 C5.086,6.344 3.952,8.14 4.002,10.348 C4.058,12.86 6.042,15.543 10.702,18.311 L11,18.489 L11,6.119 C9.537,4.753 7.881,4.749 6.546,5.511 Z"/>
</svg>

