<svg xmlns="http://www.w3.org/2000/svg" width="24" height="24">
  <defs/>
  <path  d="M21.998,10.393 C21.917,14.002 19.107,17.187 14.319,20.031 C13.988,20.229 13.657,20.429 13.313,20.604 C12.907,20.81 12.463,21 12,21 C11.537,21 11.093,20.81 10.687,20.604 C10.343,20.429 10.012,20.229 9.681,20.031 C4.904,17.194 2.097,14.018 2.002,10.419 L2.002,10.393 C1.937,7.501 3.411,5.022 5.506,3.801 C7.466,2.659 9.928,2.653 12,4.338 C14.072,2.653 16.534,2.659 18.494,3.801 C20.589,5.023 22.063,7.501 21.998,10.393 Z M12,6.623 L12,19 C12.462,18.871 12.892,18.553 13.298,18.311 C17.958,15.543 19.942,12.86 19.998,10.349 C20.047,8.157 18.931,6.371 17.487,5.529 C16.093,4.717 14.351,4.746 12.843,6.272 C12.611,6.506 12.306,6.623 12,6.623 Z"/>
</svg>

