<svg xmlns="http://www.w3.org/2000/svg" width="24" height="24">
  <defs/>
  <path  d="M21.998,10.393 C21.917,14.002 19.107,17.187 14.32,20.031 C13.61,20.453 12.861,21.001 12,21.001 C11.155,21.001 10.375,20.443 9.681,20.031 C4.892,17.187 2.083,14.003 2.002,10.393 C1.937,7.501 3.411,5.022 5.506,3.801 C7.466,2.659 9.928,2.653 12,4.339 C14.072,2.653 16.534,2.66 18.494,3.801 C20.589,5.023 22.063,7.501 21.998,10.393 Z M12.843,6.272 C12.812,6.303 12.783,6.335 12.753,6.368 L11.368,7.953 L13.707,10.293 C14.044,10.63 14.097,11.158 13.832,11.555 L11.832,14.555 C11.525,15.015 10.905,15.139 10.445,14.832 C9.985,14.525 9.861,13.905 10.168,13.445 L11.713,11.127 L9.293,8.707 C8.921,8.335 8.901,7.738 9.247,7.342 L10.605,5.786 C9.236,4.752 7.74,4.815 6.513,5.53 C5.069,6.371 3.952,8.158 4.002,10.348 C4.058,12.86 6.042,15.542 10.702,18.312 C11.11,18.554 11.536,18.865 12,18.994 C12.464,18.865 12.89,18.554 13.298,18.312 C17.958,15.543 19.942,12.86 19.998,10.348 C20.047,8.158 18.931,6.371 17.487,5.53 C16.093,4.718 14.351,4.746 12.843,6.272 Z"/>
</svg>

