<svg xmlns="http://www.w3.org/2000/svg" width="24" height="24">
  <defs/>
  <path  d="M21.998,10.393 C21.917,14.002 19.107,17.187 14.319,20.031 C13.988,20.229 13.657,20.429 13.313,20.604 C12.907,20.81 12.463,21 12,21 C11.537,21 11.093,20.81 10.687,20.604 C10.343,20.429 10.012,20.229 9.681,20.031 C4.892,17.187 2.083,14.003 2.002,10.393 C1.937,7.501 3.411,5.022 5.506,3.801 C7.466,2.659 9.928,2.653 12,4.339 C14.072,2.653 16.534,2.66 18.494,3.801 C20.589,5.023 22.063,7.501 21.998,10.393 Z M12.843,6.272 C12.835,6.28 12.827,6.287 12.819,6.295 C12.789,6.337 12.754,6.379 12.715,6.417 L9.198,9.936 C9.043,10.091 8.956,10.301 8.956,10.521 C8.956,10.74 9.044,10.95 9.199,11.105 C9.997,11.903 11.291,11.903 12.089,11.105 L12.954,10.239 C13.678,9.515 14.852,9.515 15.576,10.239 L16.869,11.533 C17.639,12.302 18.845,12.419 19.748,11.811 C19.906,11.318 19.988,10.83 19.998,10.348 C20.047,8.158 18.931,6.371 17.487,5.53 C16.093,4.718 14.351,4.746 12.843,6.272 Z"/>
</svg>

