<svg xmlns="http://www.w3.org/2000/svg" width="24" height="24">
  <defs/>
  <path  d="M9.93,10.376 L12.08,15.394 A1 1 0 0 0 13.759,15.651 L13.832,15.555 L15.535,13 L21.442,13 C19.527,17.738 13.277,21 12,21 C10.75,21 4.73,17.873 2.684,13.294 L2.558,13 L8,13 A1 1 0 0 0 8.832,12.555 L8.894,12.447 Z M12,4.339 C14.072,2.653 16.534,2.659 18.494,3.801 C20.589,5.022 22.063,7.501 21.998,10.393 L21.984,10.698 L21.957,11 L15,11 A1 1 0 0 0 14.243,11.346 L14.168,11.446 L13.192,12.909 L10.919,7.606 A1 1 0 0 0 9.17,7.442 L9.106,7.552 L7.382,11 L2.042,11 A6.847 6.847 0 0 1 2.002,10.393 C1.937,7.501 3.411,5.023 5.506,3.801 C7.466,2.66 9.928,2.653 12,4.34 Z"/>
</svg>

