<svg xmlns="http://www.w3.org/2000/svg" width="24" height="24">
  <defs/>
  <path  d="M9.514,3 C9.957,3.006 10.343,3.303 10.463,3.73 L14.136,16.79 L16.064,11.649 C16.21,11.259 16.583,11 17,11 L20,11 C20.552,11 21,11.448 21,12 C21,12.552 20.552,13 20,13 L17.693,13 L14.936,20.351 C14.784,20.756 14.39,21.017 13.958,20.999 C13.526,20.981 13.154,20.687 13.037,20.271 L9.45,7.514 L7.954,12.298 C7.824,12.715 7.437,13 7,13 L4,13 C3.448,13 3,12.552 3,12 C3,11.448 3.448,11 4,11 L6.265,11 L8.545,3.702 C8.677,3.279 9.072,2.993 9.516,3 Z"/>
</svg>

