<svg xmlns="http://www.w3.org/2000/svg" width="24" height="24">
  <defs/>
  <path  d="M12,4.339 C14.072,2.653 16.534,2.659 18.494,3.801 C20.589,5.022 22.063,7.501 21.998,10.393 C21.919,13.913 19.246,17.027 14.675,19.817 L13.954,20.248 C13.753,20.367 13.53,20.494 13.312,20.604 C12.907,20.81 12.462,21 12,21 C11.537,21 11.093,20.81 10.687,20.604 C10.541,20.529 10.396,20.451 10.254,20.369 L9.681,20.031 C4.893,17.187 2.083,14.002 2.002,10.393 C1.937,7.501 3.411,5.023 5.506,3.801 C7.466,2.66 9.928,2.653 12,4.34 Z M6.513,5.53 C5.069,6.372 3.953,8.159 4.002,10.35 C4.058,12.861 6.042,15.544 10.702,18.313 C11.004,18.492 11.306,18.676 11.593,18.822 C11.929,18.992 12.071,18.992 12.407,18.822 C12.598,18.725 12.797,18.61 12.997,18.492 L13.298,18.312 C15.649,16.916 17.318,15.542 18.404,14.199 C17.296,14.181 16.238,13.732 15.455,12.948 L14.265,11.758 L13.503,12.52 C11.924,14.099 9.363,14.099 7.784,12.52 C6.68,11.416 6.68,9.627 7.784,8.523 L10.555,5.75 C9.199,4.754 7.725,4.825 6.513,5.53 Z M13.011,6.11 L12.82,6.296 C12.789,6.339 12.754,6.38 12.715,6.418 L9.198,9.938 C8.876,10.261 8.876,10.783 9.198,11.106 C9.996,11.904 11.29,11.904 12.088,11.106 L12.954,10.24 C13.678,9.516 14.852,9.516 15.576,10.24 L16.869,11.534 C17.639,12.304 18.846,12.42 19.749,11.812 C19.906,11.319 19.988,10.831 19.999,10.349 C20.048,8.159 18.931,6.372 17.487,5.531 C16.145,4.749 14.48,4.746 13.011,6.109 Z"/>
</svg>

