<svg xmlns="http://www.w3.org/2000/svg" width="24" height="24">
  <defs/>
  <path  d="M16,16 A1 1 0 0 1 17,17 L17,17.268 L17.232,17.134 A1 1 0 1 1 18.232,18.866 L18,19 L18.232,19.134 A1 1 0 0 1 17.232,20.866 L17,20.732 L17,21 A1 1 0 1 1 15,21 L15,20.732 L14.768,20.866 A1 1 0 1 1 13.768,19.134 L14,19 L13.768,18.866 A1 1 0 1 1 14.768,17.134 L15,17.268 L15,17 A1 1 0 0 1 16,16 M8,16 A1 1 0 0 1 9,17 L9,17.268 L9.232,17.134 A1 1 0 1 1 10.232,18.866 L10,19 L10.232,19.134 A1 1 0 0 1 9.232,20.866 L9,20.732 L9,21 A1 1 0 1 1 7,21 L7,20.732 L6.768,20.866 A1 1 0 1 1 5.768,19.134 L6,19 L5.768,18.866 A1 1 0 1 1 6.768,17.134 L7,17.268 L7,17 A1 1 0 0 1 8,16 M12,10 A1 1 0 0 1 13,11 L13,11.268 L13.232,11.134 A1 1 0 1 1 14.232,12.866 L14,13 L14.232,13.134 A1 1 0 0 1 13.232,14.866 L13,14.732 L13,15 A1 1 0 1 1 11,15 L11,14.732 L10.768,14.866 A1 1 0 1 1 9.768,13.134 L10,13 L9.768,12.866 A1 1 0 1 1 10.768,11.134 L11,11.268 L11,11 A1 1 0 0 1 12,10 M11.5,2 A6.502 6.502 0 0 1 17.586,6.212 A6.002 6.002 0 0 1 20.8,15.601 A1 1 0 0 1 19.2,14.399 A4.001 4.001 0 0 0 16.655,8.053 A1.01 1.01 0 0 1 15.845,7.321 A4.5 4.5 0 0 0 7.027,9 A1.01 1.01 0 0 1 6.267,10.09 A3.002 3.002 0 0 0 4.297,14.306 L4.4,14.499 A1 1 0 1 1 2.669,15.501 A5 5 0 0 1 5,8.416 A6.5 6.5 0 0 1 11.5,2"/>
</svg>

