<svg xmlns="http://www.w3.org/2000/svg" width="24" height="24">
  <defs/>
  <path  d="M8.647,12.732 L9,13.086 L9.354,12.732 A1 1 0 0 1 10.768,14.147 L10.414,14.5 L10.768,14.854 A1 1 0 0 1 9.354,16.268 L9,15.914 L8.647,16.268 A1 1 0 0 1 7.232,14.854 L7.586,14.5 L7.232,14.147 A1 1 0 0 1 8.647,12.732 M14.647,12.732 L15,13.086 L15.354,12.732 A1 1 0 0 1 16.768,14.147 L16.414,14.5 L16.768,14.854 A1 1 0 0 1 15.354,16.268 L15,15.914 L14.647,16.268 A1 1 0 0 1 13.232,14.854 L13.586,14.5 L13.232,14.147 A1 1 0 0 1 14.647,12.732 M11.5,2 A6.502 6.502 0 0 1 17.586,6.212 A6.002 6.002 0 0 1 20.8,15.601 A1 1 0 0 1 19.2,14.399 A4.001 4.001 0 0 0 16.655,8.053 A1.01 1.01 0 0 1 15.845,7.321 A4.5 4.5 0 0 0 7.027,9 A1.01 1.01 0 0 1 6.267,10.09 A3.002 3.002 0 0 0 4.297,14.306 L4.4,14.499 A1 1 0 1 1 2.669,15.501 A5 5 0 0 1 5,8.416 A6.5 6.5 0 0 1 11.5,2 M6.768,18.232 A1 1 0 0 1 6.768,19.647 L6.414,20 L6.768,20.354 A1 1 0 1 1 5.354,21.768 L5,21.414 L4.647,21.768 A1 1 0 0 1 3.232,20.354 L3.586,20 L3.232,19.647 A1 1 0 0 1 4.647,18.232 L5,18.586 L5.354,18.232 A1 1 0 0 1 6.768,18.232 M18.768,18.232 A1 1 0 0 1 18.768,19.647 L18.414,20 L18.768,20.354 A1 1 0 0 1 17.354,21.768 L17,21.414 L16.647,21.768 A1 1 0 0 1 15.232,20.354 L15.586,20 L15.232,19.647 A1 1 0 0 1 16.647,18.232 L17,18.586 L17.354,18.232 A1 1 0 0 1 18.768,18.232 M12.768,18.232 A1 1 0 0 1 12.768,19.647 L12.414,20 L12.768,20.354 A1 1 0 0 1 11.354,21.768 L11,21.414 L10.647,21.768 A1 1 0 0 1 9.232,20.354 L9.586,20 L9.232,19.647 A1 1 0 0 1 10.647,18.232 L11,18.586 L11.354,18.232 A1 1 0 0 1 12.768,18.232"/>
</svg>

