<svg xmlns="http://www.w3.org/2000/svg" width="24" height="24">
  <defs/>
  <path  d="M11.5,2 A6.502 6.502 0 0 1 17.586,6.212 A6.002 6.002 0 0 1 19.894,16.565 A2.98 2.98 0 0 0 19.014,16.094 A3.013 3.013 0 0 0 18.868,14.5 A3 3 0 0 0 15,10.632 A3.002 3.002 0 0 0 12,11.15 A3.002 3.002 0 0 0 9,10.632 A3 3 0 0 0 5.132,14.5 A3.012 3.012 0 0 0 4.994,16.13 A3.012 3.012 0 0 0 3.054,16.072 A5 5 0 0 1 5,8.416 A6.5 6.5 0 0 1 11.5,2 M7.232,12.732 A1 1 0 0 1 8.552,12.649 L8.646,12.732 L9,13.086 L9.354,12.732 A1 1 0 0 1 10.851,14.052 L10.768,14.146 L10.414,14.5 L10.768,14.854 A1 1 0 0 1 9.448,16.351 L9.354,16.268 L9,15.914 L8.646,16.268 A1 1 0 0 1 7.149,14.948 L7.232,14.853 L7.586,14.5 L7.232,14.146 A1 1 0 0 1 7.232,12.732 M14.646,12.732 L15,13.086 L15.354,12.732 A1 1 0 0 1 16.768,14.146 L16.414,14.5 L16.768,14.854 A1 1 0 0 1 15.353,16.268 L15,15.914 L14.646,16.268 A1 1 0 0 1 13.232,14.853 L13.586,14.5 L13.232,14.146 A1 1 0 0 1 14.646,12.732 M6.768,19.646 A1 1 0 1 0 5.354,18.232 L5,18.586 L4.646,18.232 A1 1 0 0 0 3.232,19.646 L3.586,20 L3.232,20.354 A1 1 0 0 0 4.646,21.768 L5,21.414 L5.354,21.768 A1 1 0 0 0 6.768,20.353 L6.414,20 Z M18.768,18.232 A1 1 0 0 1 18.768,19.646 L18.414,20 L18.768,20.354 A1 1 0 0 1 17.353,21.768 L17,21.414 L16.646,21.768 A1 1 0 0 1 15.232,20.353 L15.586,20 L15.232,19.646 A1 1 0 0 1 16.646,18.232 L17,18.586 L17.354,18.232 A1 1 0 0 1 18.768,18.232 M12.768,19.646 A1 1 0 0 0 11.353,18.232 L11,18.586 L10.646,18.232 A1 1 0 0 0 9.232,19.646 L9.586,20 L9.232,20.354 A1 1 0 0 0 10.646,21.768 L11,21.414 L11.354,21.768 A1 1 0 0 0 12.768,20.353 L12.414,20 Z"/>
</svg>

