<svg xmlns="http://www.w3.org/2000/svg" width="24" height="24">
  <defs/>
  <path  d="M9.889,19.656 A1 1 0 0 1 11.821,20.174 L11.562,21.14 A1 1 0 0 1 9.63,20.622 Z M7.694,17.794 A1 1 0 0 1 8.401,19.018 L8.142,19.984 A1 1 0 1 1 6.21,19.467 L6.469,18.501 A1 1 0 0 1 7.694,17.794 M15.027,17.794 A1 1 0 0 1 15.734,19.018 L15.476,19.984 A1 1 0 1 1 13.544,19.467 L13.802,18.501 A1 1 0 0 1 15.027,17.794 M12.149,15.085 A1 1 0 0 1 12.856,16.31 L12.597,17.276 A1 1 0 1 1 10.665,16.758 L10.925,15.792 A1 1 0 0 1 12.149,15.085 M11.5,2 A6.502 6.502 0 0 1 17.586,6.212 A6.002 6.002 0 0 1 17.93,17.683 A2.99 2.99 0 0 0 18.442,16.638 L18.702,15.672 A3 3 0 0 0 13.224,13.363 A3.01 3.01 0 0 0 10.947,13.203 A3 3 0 0 0 5.572,14.12 L5.313,15.085 A2.986 2.986 0 0 0 5.313,16.638 A2.96 2.96 0 0 0 4.732,17.457 A5 5 0 0 1 5,8.417 A6.5 6.5 0 0 1 11.5,2 M8.729,13.93 A1 1 0 0 1 9.436,15.155 L9.177,16.121 A1 1 0 1 1 7.245,15.603 L7.505,14.637 A1 1 0 0 1 8.729,13.93 M16.063,13.93 A1 1 0 0 1 16.77,15.155 L16.51,16.121 A1 1 0 1 1 14.579,15.603 L14.838,14.637 A1 1 0 0 1 16.063,13.93"/>
</svg>

