<svg xmlns="http://www.w3.org/2000/svg" width="24" height="24">
  <defs/>
  <path  d="M9.889,19.656 A1 1 0 0 1 11.82,20.174 L11.562,21.14 A1 1 0 0 1 9.63,20.622 Z M7.693,17.794 A1 1 0 0 1 8.401,19.018 L8.141,19.984 A1 1 0 1 1 6.21,19.467 L6.469,18.501 A1 1 0 0 1 7.693,17.794 M15.027,17.794 A1 1 0 0 1 15.734,19.018 L15.475,19.984 A1 1 0 1 1 13.543,19.467 L13.803,18.501 A1 1 0 0 1 15.027,17.794 M12.149,15.085 A1 1 0 0 1 12.856,16.31 L12.597,17.276 A1 1 0 0 1 10.665,16.758 L10.924,15.792 A1 1 0 0 1 12.149,15.085 M11.5,2 A6.502 6.502 0 0 1 17.586,6.212 A6.002 6.002 0 0 1 19.6,16.799 A1 1 0 1 1 18.398,15.201 A3.983 3.983 0 0 0 20,12 A4.001 4.001 0 0 0 16.656,8.052 A1.01 1.01 0 0 1 15.846,7.32 A4.5 4.5 0 0 0 7.027,9 A1.01 1.01 0 0 1 6.267,10.09 A3.002 3.002 0 0 0 5.015,15.25 A1 1 0 1 1 3.691,16.75 A5 5 0 0 1 5,8.416 A6.5 6.5 0 0 1 11.5,2 M8.729,13.93 A1 1 0 0 1 9.436,15.155 L9.177,16.121 A1 1 0 0 1 7.245,15.603 L7.504,14.637 A1 1 0 0 1 8.729,13.93 M16.062,13.93 A1 1 0 0 1 16.769,15.155 L16.511,16.121 A1 1 0 0 1 14.579,15.603 L14.837,14.637 A1 1 0 0 1 16.062,13.93"/>
</svg>

