<svg xmlns="http://www.w3.org/2000/svg" width="24" height="24">
  <defs/>
  <path  d="M11.5,2 C14.208,1.999 16.634,3.678 17.587,6.213 C19.503,6.739 21.034,8.178 21.678,10.057 C22.321,11.937 21.993,14.013 20.801,15.602 C20.469,16.044 19.842,16.132 19.4,15.8 C18.959,15.469 18.87,14.842 19.202,14.4 C20.04,13.282 20.234,11.808 19.713,10.511 C19.193,9.214 18.034,8.283 16.656,8.054 C16.266,7.991 15.949,7.704 15.846,7.321 C15.236,5.045 12.973,3.625 10.658,4.066 C8.343,4.507 6.76,6.659 7.029,9 C7.083,9.502 6.758,9.967 6.268,10.089 C5.356,10.319 4.604,10.963 4.237,11.829 C3.87,12.696 3.93,13.684 4.4,14.499 C4.658,14.975 4.491,15.57 4.022,15.841 C3.554,16.113 2.954,15.962 2.67,15.501 C1.957,14.268 1.804,12.79 2.249,11.437 C2.694,10.084 3.695,8.985 5,8.416 C5.046,4.859 7.943,2 11.5,2 Z M14.739,15.361 L13.186,21.157 C13.043,21.691 12.495,22.007 11.961,21.864 C11.427,21.721 11.111,21.173 11.254,20.639 L12.807,14.843 C12.95,14.309 13.498,13.993 14.032,14.136 C14.566,14.279 14.882,14.827 14.739,15.361 Z M17.532,14.136 C18.066,14.279 18.382,14.827 18.239,15.361 L16.686,21.157 C16.543,21.691 15.995,22.007 15.461,21.864 C14.927,21.721 14.611,21.173 14.754,20.639 L16.307,14.844 C16.45,14.31 16.998,13.993 17.532,14.136 Z M7.032,14.136 C7.566,14.279 7.882,14.827 7.739,15.361 L6.186,21.157 C6.043,21.691 5.495,22.007 4.961,21.864 C4.427,21.721 4.111,21.173 4.254,20.639 L5.807,14.844 C5.95,14.31 6.498,13.993 7.032,14.136 Z M10.532,14.136 C11.066,14.279 11.382,14.827 11.239,15.361 L9.686,21.157 C9.543,21.691 8.995,22.007 8.461,21.864 C7.927,21.721 7.611,21.173 7.754,20.639 L9.307,14.844 C9.45,14.31 9.998,13.994 10.532,14.137 Z"/>
</svg>

