<svg xmlns="http://www.w3.org/2000/svg" width="24" height="24">
  <defs/>
  <path  d="M7.032,14.136 A1 1 0 0 1 7.739,15.361 L6.186,21.157 A1 1 0 0 1 4.254,20.639 L5.807,14.844 A1 1 0 0 1 7.032,14.136 M17.532,14.136 A1 1 0 0 1 18.239,15.361 L16.686,21.157 A1 1 0 1 1 14.754,20.639 L16.307,14.844 A1 1 0 0 1 17.532,14.136 M10.532,14.136 A1 1 0 0 1 11.239,15.361 L9.686,21.157 A1 1 0 0 1 7.754,20.639 L9.307,14.844 A1 1 0 0 1 10.532,14.137 Z M12.807,14.844 A1 1 0 0 1 14.763,15.247 L14.739,15.361 L13.186,21.157 A1 1 0 0 1 11.231,20.753 L11.254,20.639 Z M11.5,2 A6.502 6.502 0 0 1 17.586,6.212 A6.002 6.002 0 0 1 20.016,16.458 L20.171,15.878 A3 3 0 0 0 15.524,12.665 A2.994 2.994 0 0 0 12.024,12.665 A2.994 2.994 0 0 0 8.524,12.665 A3 3 0 0 0 3.876,14.325 L3.323,16.388 A5 5 0 0 1 5,8.416 A6.5 6.5 0 0 1 11.5,2"/>
</svg>

