<svg xmlns="http://www.w3.org/2000/svg" width="24" height="24">
  <defs/>
  <path  d="M12,8 C14.575,8 16.938,8.387 18.69,8.992 C19.561,9.293 20.331,9.665 20.904,10.107 C21.447,10.527 22,11.16 22,12 C22,17.523 17.523,22 12,22 C6.477,22 2,17.523 2,12 C2,11.16 2.553,10.527 3.096,10.107 C3.67,9.665 4.439,9.293 5.31,8.992 C7.062,8.387 9.425,8 12,8 Z M4.318,12.31 C4.656,12.571 5.205,12.855 5.962,13.117 C7.468,13.637 9.605,14 12,14 C14.389,14 16.524,13.616 18.032,13.085 C18.79,12.817 19.344,12.529 19.686,12.267 C19.864,12.132 19.944,12.037 19.98,11.987 C19.947,11.934 19.867,11.833 19.682,11.69 C19.344,11.429 18.795,11.145 18.038,10.883 C16.532,10.363 14.396,10 12,10 C9.605,10 7.468,10.363 5.962,10.883 C5.205,11.145 4.656,11.43 4.318,11.69 C4.116,11.846 4.04,11.952 4.013,12 C4.04,12.048 4.116,12.154 4.318,12.31 Z M18.696,14.971 C16.946,15.588 14.582,16 12,16 C9.425,16 7.062,15.613 5.31,15.008 C5.022,14.909 4.737,14.798 4.458,14.676 C5.595,17.877 8.628,20.012 12.025,20.001 C15.421,19.991 18.441,17.838 19.558,14.63 C19.286,14.751 18.998,14.865 18.696,14.971 Z"/>
</svg>

