<svg xmlns="http://www.w3.org/2000/svg" width="24" height="24">
  <defs/>
  <path  d="M21.951,12.997 C21.451,18.052 17.187,22 12.001,22 C6.841,22 2.595,18.094 2.058,13.078 C2.559,13.478 3.134,13.844 3.762,14.169 C5.912,15.283 8.822,16 12,16 C15.188,16 18.1,15.236 20.246,14.102 C20.876,13.77 21.451,13.399 21.951,12.997 M12.001,8 C14.575,8 16.939,8.387 18.691,8.992 C19.599,9.306 20.822,9.82 21.498,10.652 A3.964 3.964 0 0 1 21.383,10.791 C20.928,11.311 20.23,11.848 19.311,12.334 C17.475,13.304 14.887,14 12.001,14 C9.103,14 6.514,13.342 4.682,12.393 C3.766,11.918 3.073,11.389 2.622,10.866 A3.755 3.755 0 0 1 2.476,10.686 C3.146,9.834 4.389,9.31 5.31,8.992 C7.062,8.387 9.425,8 12,8"/>
</svg>

