<svg xmlns="http://www.w3.org/2000/svg" width="24" height="24">
  <defs/>
  <path  d="M12,2 C12.84,2 13.473,2.553 13.893,3.096 C14.335,3.669 14.707,4.439 15.008,5.31 C15.613,7.062 16,9.425 16,12 C16,14.575 15.613,16.938 15.008,18.69 C14.707,19.561 14.335,20.33 13.893,20.904 C13.473,21.447 12.84,22 12,22 C6.477,22 2,17.523 2,12 C2,6.477 6.477,2 12,2 Z M12,4.013 C11.952,4.04 11.846,4.116 11.69,4.318 C11.43,4.656 11.145,5.205 10.883,5.962 C10.363,7.468 10,9.605 10,12 C10,14.389 10.384,16.524 10.915,18.032 C11.182,18.79 11.471,19.344 11.732,19.686 L11.797,19.767 L11.905,19.887 L11.948,19.927 L12.013,19.98 L12.082,19.929 C12.138,19.882 12.215,19.805 12.31,19.682 C12.57,19.344 12.855,18.795 13.117,18.038 C13.637,16.532 14,14.396 14,12 C14,9.605 13.637,7.468 13.117,5.962 C12.855,5.205 12.571,4.656 12.31,4.318 C12.239,4.222 12.158,4.136 12.067,4.059 Z M9.324,4.458 C6.123,5.595 3.988,8.628 3.999,12.025 C4.009,15.421 6.163,18.441 9.371,19.558 C9.249,19.286 9.135,18.998 9.029,18.696 C8.412,16.946 8,14.582 8,12 C8,9.425 8.387,7.062 8.992,5.31 C9.095,5.013 9.205,4.728 9.324,4.458 Z"/>
</svg>

