<svg xmlns="http://www.w3.org/2000/svg" width="24" height="24">
  <defs/>
  <path  d="M10.927,2.053 A10.39 10.39 0 0 0 9.835,3.758 C8.722,5.908 8.005,8.818 8.005,11.996 C8.005,15.184 8.768,18.096 9.902,20.241 C10.235,20.871 10.606,21.446 11.008,21.947 C5.953,21.447 2.004,17.182 2.004,11.996 C2.004,6.837 5.911,2.591 10.927,2.053 M13.318,2.471 C14.171,3.141 14.694,4.384 15.012,5.305 C15.617,7.057 16.004,9.421 16.004,11.995 C16.004,14.571 15.617,16.935 15.012,18.686 C14.698,19.595 14.184,20.818 13.352,21.494 L13.214,21.378 C12.694,20.923 12.156,20.226 11.67,19.307 C10.7,17.471 10.004,14.883 10.004,11.996 C10.004,9.098 10.662,6.509 11.611,4.678 C12.086,3.761 12.616,3.068 13.138,2.618 C13.199,2.565 13.259,2.516 13.318,2.471"/>
</svg>

