<svg xmlns="http://www.w3.org/2000/svg" width="24" height="24">
  <defs/>
  <path  d="M10.75,2.567 C11.524,2.12 12.476,2.12 13.25,2.567 L19.544,6.2 C20.317,6.647 20.794,7.472 20.794,8.365 L20.794,15.633 C20.794,16.526 20.317,17.351 19.544,17.798 L13.25,21.432 C12.476,21.879 11.524,21.879 10.75,21.432 L4.456,17.798 C3.683,17.351 3.206,16.526 3.206,15.633 L3.206,8.366 C3.206,7.473 3.682,6.647 4.456,6.2 Z M12.25,4.299 C12.095,4.21 11.905,4.21 11.75,4.299 L5.456,7.933 C5.301,8.022 5.206,8.187 5.206,8.366 L5.206,15.634 C5.206,15.813 5.301,15.978 5.456,16.067 L11.75,19.7 C11.905,19.789 12.095,19.789 12.25,19.7 L18.544,16.066 C18.699,15.977 18.794,15.812 18.794,15.633 L18.794,8.366 C18.794,8.187 18.699,8.022 18.544,7.933 Z"/>
</svg>

