<svg xmlns="http://www.w3.org/2000/svg" width="24" height="24">
  <defs/>
  <path  d="M16.33,11.923 C16.949,11.566 17.711,11.566 18.33,11.923 L20.794,13.345 C21.413,13.702 21.794,14.362 21.794,15.077 L21.794,17.923 C21.794,18.638 21.413,19.298 20.794,19.655 L18.33,21.077 C17.711,21.434 16.949,21.434 16.33,21.077 L13.866,19.655 C13.247,19.298 12.866,18.638 12.866,17.923 L12.866,15.077 C12.866,14.362 13.247,13.702 13.866,13.345 Z M5.67,11.923 C6.289,11.566 7.051,11.566 7.67,11.923 L10.134,13.345 C10.753,13.702 11.134,14.362 11.134,15.077 L11.134,17.923 C11.134,18.638 10.753,19.298 10.134,19.655 L7.67,21.077 C7.051,21.434 6.289,21.434 5.67,21.077 L3.206,19.655 C2.587,19.298 2.206,18.638 2.206,17.923 L2.206,15.077 C2.206,14.362 2.587,13.702 3.206,13.345 Z M11,2.423 C11.619,2.066 12.381,2.066 13,2.423 L15.464,3.845 C16.083,4.202 16.464,4.862 16.464,5.577 L16.464,8.423 C16.464,9.138 16.083,9.798 15.464,10.155 L13,11.577 C12.381,11.934 11.619,11.934 11,11.577 L8.536,10.155 C7.917,9.798 7.536,9.138 7.536,8.423 L7.536,5.577 C7.536,4.862 7.917,4.202 8.536,3.845 Z"/>
</svg>

