<svg xmlns="http://www.w3.org/2000/svg" width="24" height="24">
  <defs/>
  <path  d="M13,2.423 L16.33,4.345 C16.949,4.702 17.33,5.362 17.33,6.077 L17.33,9.923 L20.66,11.845 C21.279,12.202 21.66,12.862 21.66,13.577 L21.66,17.423 C21.66,18.138 21.279,18.798 20.66,19.155 L17.33,21.077 C16.711,21.434 15.949,21.434 15.33,21.077 L12,19.155 L8.67,21.077 C8.051,21.434 7.289,21.434 6.67,21.077 L3.34,19.155 C2.721,18.798 2.34,18.138 2.34,17.423 L2.34,13.577 C2.34,12.862 2.721,12.202 3.34,11.845 L6.67,9.923 L6.67,6.077 C6.67,5.362 7.051,4.702 7.67,4.345 L11,2.423 C11.619,2.066 12.381,2.066 13,2.423 Z M12,4.155 L8.67,6.077 L8.67,9.923 L12,11.845 L15.33,9.923 L15.33,6.077 Z M7.67,11.655 L4.34,13.577 L4.34,17.423 L7.67,19.345 L11,17.423 L11,13.577 Z M19.66,13.577 L16.33,11.655 L13,13.577 L13,17.423 L16.33,19.345 L19.66,17.423 Z"/>
</svg>

