<svg xmlns="http://www.w3.org/2000/svg" width="24" height="24">
  <defs/>
  <path  d="M9,2 A3 3 0 0 1 11.995,4.824 L12,5 L12,5.568 A1.001 1.001 0 0 1 13.069,5.662 L13.168,5.749 A1 1 0 0 1 12.116,7.399 L12,7.347 L12,9.858 A0.95 0.95 0 0 1 12.01,10 L12.007,10.072 L12,10.142 L12,12.647 A1 1 0 0 1 13.265,14.14 L13.172,14.244 A5 5 0 1 1 5.903,13.074 A0.385 0.385 0 0 0 5.973,13.005 L6,12.955 L6,5 A3 3 0 0 1 9,2 M16,13.99 A1 1 0 0 1 16.993,14.873 L17,15 A1 1 0 0 1 15.007,15.117 L15,14.99 A1 1 0 0 1 16,13.99 M20.24,12.82 A1 1 0 0 1 18.927,14.324 L18.825,14.234 A1 1 0 0 1 20.239,12.82 Z M16,7 A3 3 0 1 1 16,13 A3 3 0 0 1 16,7 M21,9 A1 1 0 0 1 21.117,10.993 L20.99,11 A1 1 0 0 1 20.873,9.007 Z M20.246,5.756 A1 1 0 0 1 20.329,7.076 L20.239,7.177 A1 1 0 0 1 18.742,5.857 L18.832,5.756 A1 1 0 0 1 20.246,5.756 M16,3.99 A1 1 0 0 1 16.993,4.873 L17,5 A1 1 0 0 1 15.007,5.117 L15,4.99 A1 1 0 0 1 16,3.99"/>
</svg>

