<svg xmlns="http://www.w3.org/2000/svg" width="24" height="24">
  <defs/>
  <path  d="M15,3 C15.181,3 15.359,3.049 15.514,3.142 L15.624,3.219 L20.624,7.219 C20.938,7.47 21.071,7.884 20.962,8.27 C20.854,8.657 20.524,8.941 20.126,8.992 L20,9 L15.78,9 L12,11.599 L8.22,9 L4,9 C3.598,9 3.236,8.76 3.079,8.39 C2.923,8.02 3.002,7.592 3.282,7.304 L3.375,7.219 L8.375,3.219 C8.516,3.106 8.686,3.033 8.865,3.009 L9,3 Z M12,14.026 L19.865,19.433 L19.949,19.683 C20.044,19.968 20.006,20.281 19.845,20.535 C19.684,20.789 19.418,20.957 19.119,20.993 L19,21 L5,21 C4.7,21 4.415,20.865 4.225,20.633 C4.035,20.4 3.96,20.094 4.02,19.8 L4.051,19.684 L4.135,19.434 Z M7.044,10.619 L10.234,12.813 L5.184,16.285 L7.023,10.769 Z M16.956,10.619 L16.977,10.769 L18.816,16.285 L13.766,12.813 Z M14.133,5 L9.867,5 L9.582,7 L14.418,7 Z M16.347,6.358 L16.44,7 L17.15,7 L16.348,6.358 Z M7.653,6.358 L6.851,7 L7.561,7 Z"/>
</svg>

