<svg xmlns="http://www.w3.org/2000/svg" width="24" height="24">
  <defs/>
  <path  d="M16.612,3.956 L16.612,3.955 L16.837,4.055 C19.976,5.45 22,8.564 22,12 C22,15.435 19.976,18.549 16.837,19.944 L16.612,20.044 C13.865,21.265 10.561,19.766 10.231,16.57 C10.097,15.269 10,13.73 10,12 C9.999,10.473 10.076,8.948 10.232,7.429 C10.562,4.234 13.865,2.735 16.612,3.956 Z M12.221,7.635 L12.22,7.635 C12.093,8.874 12,10.344 12,12 C11.999,13.458 12.072,14.915 12.22,16.365 C12.39,18.007 14.104,18.97 15.8,18.217 L16.025,18.117 C18.442,17.043 20,14.645 20,12 C20,9.355 18.442,6.957 16.025,5.883 L15.8,5.783 C14.104,5.03 12.391,5.993 12.221,7.635 Z M3,11 L8,11 C8.552,11 9,11.448 9,12 C9,12.552 8.552,13 8,13 L3,13 C2.448,13 2,12.552 2,12 C2,11.448 2.448,11 3,11 Z M3,6 L8,6 C8.552,6 9,6.448 9,7 C9,7.552 8.552,8 8,8 L3,8 C2.448,8 2,7.552 2,7 C2,6.448 2.448,6 3,6 Z M2,17 C2,16.448 2.448,16 3,16 L8,16 C8.552,16 9,16.448 9,17 C9,17.552 8.552,18 8,18 L3,18 C2.448,18 2,17.552 2,17 Z"/>
</svg>

