<svg xmlns="http://www.w3.org/2000/svg" width="24" height="24">
  <defs/>
  <path  d="M9,2 C10.589,2 11.902,3.238 11.995,4.824 L12,5 L12,5.568 C12.344,5.39 12.761,5.426 13.069,5.662 L13.168,5.749 C13.505,6.08 13.565,6.602 13.311,7.001 C13.057,7.399 12.558,7.565 12.116,7.399 L12,7.348 L12,9.859 C12.007,9.906 12.01,9.953 12.01,10.001 L12.007,10.073 L12,10.143 L12,12.648 C12.416,12.424 12.932,12.521 13.238,12.882 C13.543,13.242 13.555,13.768 13.265,14.141 L13.172,14.245 C14.664,16.504 14.087,19.539 11.871,21.094 C9.656,22.648 6.605,22.157 4.989,19.986 C3.373,17.815 3.778,14.751 5.903,13.075 C5.929,13.055 5.953,13.032 5.973,13.006 L6,12.956 L6,5 C6,3.343 7.343,2 9,2 Z M9,4 C8.493,4 8.066,4.38 8.007,4.883 L8,5 L8,12.958 C8,13.633 7.663,14.184 7.256,14.548 L7.143,14.644 C6.153,15.424 5.756,16.74 6.15,17.938 C6.544,19.135 7.644,19.959 8.904,19.999 C10.164,20.039 11.315,19.287 11.784,18.117 C12.254,16.947 11.941,15.609 11.003,14.767 L10.857,14.644 C10.439,14.314 10.067,13.791 10.008,13.139 L10,12.96 L10,5 C10,4.448 9.552,4 9,4 Z M16,7 C17.657,7 19,8.343 19,10 C19,11.657 17.657,13 16,13 C14.343,13 13,11.657 13,10 C13,8.343 14.343,7 16,7 Z M16,13.99 C16.507,13.99 16.934,14.37 16.993,14.874 L17,15 C16.999,15.529 16.587,15.966 16.059,15.997 C15.53,16.028 15.069,15.642 15.007,15.117 L15,14.99 C15,14.438 15.448,13.99 16,13.99 Z M16,3.99 C16.507,3.99 16.934,4.37 16.993,4.874 L17,5 C16.999,5.529 16.587,5.966 16.059,5.997 C15.53,6.028 15.069,5.642 15.007,5.117 L15,4.99 C15,4.438 15.448,3.99 16,3.99 Z M21,9 C21.529,9.001 21.966,9.413 21.997,9.941 C22.028,10.47 21.642,10.931 21.117,10.993 L20.99,11 C20.461,10.999 20.024,10.587 19.993,10.059 C19.962,9.53 20.348,9.069 20.873,9.007 Z M20.246,5.756 C20.602,6.112 20.638,6.678 20.329,7.076 L20.239,7.177 C19.866,7.549 19.267,7.567 18.872,7.219 C18.476,6.87 18.419,6.274 18.742,5.857 L18.832,5.757 C19.222,5.367 19.855,5.367 20.246,5.757 Z M16,9 C15.448,9 15,9.448 15,10 C15,10.552 15.448,11 16,11 C16.552,11 17,10.552 17,10 C17,9.448 16.552,9 16,9 Z M20.24,12.82 C20.617,13.191 20.64,13.792 20.292,14.191 C19.944,14.589 19.346,14.648 18.927,14.324 L18.825,14.234 C18.446,13.842 18.451,13.218 18.837,12.832 C19.223,12.446 19.847,12.441 20.239,12.82 Z"/>
</svg>

