<svg xmlns="http://www.w3.org/2000/svg" width="24" height="24">
  <defs/>
  <path  d="M15,3 C15.236,3 15.454,3.082 15.627,3.22 L20.625,7.22 C20.956,7.486 21.083,7.931 20.943,8.331 C20.802,8.732 20.424,9 20,9 L16.724,9 L16.977,10.77 L19.949,19.684 C20.124,20.208 19.84,20.774 19.316,20.949 C18.792,21.124 18.226,20.84 18.051,20.316 L17.425,18.438 L12,14.305 L6.575,18.438 L5.949,20.316 C5.774,20.84 5.208,21.124 4.684,20.949 C4.16,20.774 3.876,20.208 4.051,19.684 L7.023,10.769 L7.276,9 L4,9 C3.576,9 3.198,8.732 3.057,8.331 C2.917,7.931 3.044,7.486 3.375,7.22 L8.374,3.22 C8.551,3.077 8.772,3 9,3 Z M14.704,9 L9.296,9 L9.202,9.658 L12,11.79 L14.798,9.658 Z M14.133,5 L9.867,5 L9.582,7 L14.418,7 Z M8.772,11.846 L7.698,15.068 L10.35,13.048 Z M15.228,11.846 L13.65,13.048 L16.302,15.068 Z M7.653,6.358 L6.851,7 L7.561,7 Z M16.347,6.358 L16.44,7 L17.15,7 Z"/>
</svg>

