<svg xmlns="http://www.w3.org/2000/svg" width="24" height="24">
  <defs/>
  <path  d="M20.66,7 C23.422,11.783 21.783,17.9 17,20.66 C12.877,23.04 7.767,22.151 4.665,18.8 A1 1 0 0 1 6.133,17.442 A8 8 0 1 0 4.073,10.918 L5.354,10.583 C6.401,10.31 7.172,11.553 6.462,12.37 L4.21,14.957 C3.642,15.609 2.545,15.387 2.318,14.513 A10.003 10.003 0 0 1 7,3.34 C11.783,0.579 17.899,2.217 20.66,7 M12,6 A1 1 0 0 1 13,7 L13,11.586 L15.707,14.293 A1 1 0 1 1 14.293,15.707 L11.293,12.707 A1 1 0 0 1 11,12 L11,7 A1 1 0 0 1 12,6"/>
</svg>

