<svg xmlns="http://www.w3.org/2000/svg" width="24" height="24">
  <defs/>
  <path  d="M2.907,6.75 C5.807,1.728 12.228,0.007 17.25,2.907 A10.502 10.502 0 0 1 22.165,14.639 C21.847,15.864 20.355,16.209 19.507,15.385 L19.412,15.285 L17.161,12.698 C16.158,11.546 17.185,9.808 18.639,10.07 L18.772,10.1 L19.29,10.234 A7.5 7.5 0 1 0 17.259,17.351 A1.5 1.5 0 1 1 19.363,19.49 C16.082,22.718 10.933,23.508 6.75,21.093 C1.728,18.193 0.007,11.773 2.907,6.75 M12,5.5 A1.5 1.5 0 0 1 13.493,6.855 L13.5,7 L13.5,11.379 L15.56,13.439 A1.5 1.5 0 0 1 13.553,15.664 L13.439,15.561 L10.939,13.061 A1.5 1.5 0 0 1 10.507,12.148 L10.5,12 L10.5,7 A1.5 1.5 0 0 1 12,5.5"/>
</svg>

