<svg xmlns="http://www.w3.org/2000/svg" width="24" height="24">
  <defs/>
  <path  d="M3.34,7 C6.101,2.217 12.217,0.58 17,3.34 A10.003 10.003 0 0 1 21.682,14.513 C21.465,15.345 20.46,15.587 19.874,15.044 L19.79,14.957 L17.538,12.37 C16.853,11.583 17.546,10.398 18.535,10.56 L18.645,10.583 L19.927,10.918 A8 8 0 1 0 17.867,17.442 A1 1 0 1 1 19.335,18.8 C16.233,22.151 11.123,23.04 7,20.66 C2.217,17.9 0.58,11.783 3.34,7 M12,6 A1 1 0 0 1 12.993,6.883 L13,7 L13,11.586 L15.707,14.293 A1 1 0 0 1 14.387,15.79 L14.293,15.707 L11.293,12.707 A1 1 0 0 1 11.009,12.131 L11,12 L11,7 A1 1 0 0 1 12,6"/>
</svg>

