<svg xmlns="http://www.w3.org/2000/svg" width="24" height="24">
  <defs/>
  <path  d="M6.57,5.563 A1.2 1.2 0 0 0 6.57,7.437 L11.05,11.021 C11.836,11.649 13,11.091 13,10.084 L13,8.5 A1 1 0 0 0 11.003,8.422 L8.601,6.5 L11,4.58 L11,5 A1 1 0 0 0 12,6 A7.001 7.001 0 0 1 18.93,12 L18,12 A1 1 0 1 0 18,14 L18.93,14 A7.004 7.004 0 0 1 13,19.93 L13,18 A1 1 0 1 0 11,18 L11,19.93 A7.004 7.004 0 0 1 5.07,14 L6,14 A1 1 0 1 0 6,12 L5.07,12 C5.152,11.433 5.3,10.889 5.508,10.375 A1 1 0 1 0 3.655,9.625 A9 9 0 1 0 13,4.055 L13,2.916 C13,1.91 11.836,1.351 11.05,1.979 Z"/>
</svg>

