<svg xmlns="http://www.w3.org/2000/svg" width="24" height="24">
  <defs/>
  <path  d="M21.093,6.75 C23.993,11.772 22.272,18.194 17.25,21.094 C13.067,23.508 7.918,22.718 4.637,19.49 A1.5 1.5 0 0 1 6.741,17.351 A7.5 7.5 0 1 0 4.71,10.234 L5.228,10.1 C6.75,9.702 7.872,11.51 6.838,12.698 L4.588,15.285 C3.762,16.234 2.165,15.911 1.834,14.639 A10.503 10.503 0 0 1 6.75,2.907 C11.773,0.007 18.195,1.728 21.094,6.75 Z M12,5.5 A1.5 1.5 0 0 1 13.493,6.856 L13.5,7 L13.5,11.379 L15.56,13.439 A1.5 1.5 0 0 1 13.553,15.664 L13.439,15.561 L10.939,13.061 A1.5 1.5 0 0 1 10.507,12.148 L10.5,12 L10.5,7 A1.5 1.5 0 0 1 12,5.5"/>
</svg>

