<svg xmlns="http://www.w3.org/2000/svg" width="24" height="24">
  <defs/>
  <path  d="M6.57,5.563 A1.2 1.2 0 0 0 6.57,7.437 L11.05,11.021 C11.836,11.649 13,11.091 13,10.084 L13,7.083 A6.007 6.007 0 0 1 17.811,11.5 L17,11.5 A1.5 1.5 0 0 0 17,14.5 L17.811,14.5 A6.01 6.01 0 0 1 13.5,18.811 L13.5,18 A1.5 1.5 0 0 0 10.5,18 L10.5,18.811 A6.01 6.01 0 0 1 6.189,14.5 L7,14.5 A1.5 1.5 0 0 0 7,11.5 L6.189,11.5 C6.197,11.466 6.206,11.433 6.216,11.4 A1.5 1.5 0 0 0 3.324,10.6 A9 9 0 1 0 13,4.055 L13,2.917 C13,1.911 11.836,1.352 11.05,1.98 Z"/>
</svg>

