<svg xmlns="http://www.w3.org/2000/svg" width="24" height="24">
  <defs/>
  <path  d="M5.636,5.636 L5.636,5.637 C6.749,4.524 8.32,4.001 9.878,4.223 L12.848,4.647 C13.223,4.7 13.536,4.961 13.655,5.321 C13.775,5.68 13.682,6.076 13.414,6.344 L10.586,9.173 L18.364,16.951 C18.754,17.342 18.754,17.975 18.364,18.365 C17.973,18.756 17.339,18.756 16.949,18.365 L9.172,10.587 L6.343,13.416 C6.075,13.684 5.679,13.777 5.32,13.657 C4.96,13.538 4.699,13.225 4.646,12.85 L4.222,9.88 C3.999,8.322 4.523,6.749 5.636,5.636 Z M8.486,8.444 L10.586,6.344 L9.596,6.202 C8.661,6.069 7.718,6.383 7.051,7.051 C6.383,7.718 6.069,8.661 6.202,9.596 L6.343,10.586 L8.443,8.486 C8.457,8.472 8.471,8.458 8.485,8.444 Z"/>
</svg>

