<svg xmlns="http://www.w3.org/2000/svg" width="24" height="24">
  <defs/>
  <path  d="M14.5,3 C17.999,3 20.871,5.77 20.996,9.267 L21,9.5 L21,15.5 C21,18.999 18.23,21.871 14.733,21.996 L14.5,22 L9.5,22 C6.001,22 3.129,19.23 3.004,15.733 L3,15.5 L3,9.5 C3,6.001 5.77,3.129 9.267,3.004 L9.5,3 Z M18.431,7.308 C18.339,7.403 18.243,7.488 18.147,7.564 C17.719,7.902 17.16,8.163 16.559,8.363 C15.346,8.767 13.734,9 12,9 C10.266,9 8.654,8.767 7.441,8.363 C6.84,8.163 6.281,7.902 5.853,7.563 C5.753,7.485 5.658,7.399 5.569,7.308 C5.238,7.9 5.046,8.56 5.008,9.237 L5,9.5 L5,15.5 C5,17.903 6.888,19.882 9.288,19.995 L9.5,20 L14.5,20 C16.903,20 18.882,18.112 18.995,15.712 L19,15.5 L19,9.5 C19.001,8.733 18.805,7.978 18.431,7.308 Z M12,5 C10.42,5 9.032,5.215 8.074,5.534 C7.597,5.694 7.279,5.861 7.099,6 C7.279,6.14 7.597,6.307 8.074,6.466 C9.032,6.786 10.42,7 12,7 C13.58,7 14.967,6.785 15.926,6.466 C16.403,6.306 16.721,6.139 16.901,6 C16.721,5.86 16.403,5.693 15.926,5.534 C14.967,5.214 13.58,5 12,5 Z"/>
</svg>

