<svg xmlns="http://www.w3.org/2000/svg" width="24" height="24">
  <defs/>
  <path  d="M10.8,2.65 C11.511,2.117 12.489,2.117 13.2,2.65 L20.2,7.9 C20.704,8.278 21,8.87 21,9.5 L21,19 C21,20.105 20.105,21 19,21 L14.1,21 C13.492,21 13,20.508 13,19.9 L13,14 C13,13.448 12.552,13 12,13 C11.448,13 11,13.448 11,14 L11,19.9 C11,20.508 10.508,21 9.9,21 L5,21 C3.895,21 3,20.105 3,19 L3,9.5 C3,8.87 3.296,8.278 3.8,7.9 Z M12,4.25 L5,9.5 L5,19 L9,19 L9,14 C9,12.343 10.343,11 12,11 C13.657,11 15,12.343 15,14 L15,19 L19,19 L19,9.5 Z"/>
</svg>

