<svg xmlns="http://www.w3.org/2000/svg" width="24" height="24">
  <defs/>
  <path  d="M13.2,2.65 L20.2,7.9 C20.704,8.278 21,8.87 21,9.5 L21,19 C21,20.105 20.105,21 19,21 L5,21 C3.895,21 3,20.105 3,19 L3,9.5 C3,8.87 3.296,8.278 3.8,7.9 L10.8,2.65 C11.511,2.117 12.489,2.117 13.2,2.65 Z M12,9 C10.235,9 8.62,9.654 7.39,10.732 C6.974,11.096 6.933,11.728 7.297,12.144 C7.66,12.559 8.292,12.601 8.708,12.237 C9.618,11.438 10.789,10.998 12,11 C13.262,11 14.412,11.466 15.292,12.237 C15.708,12.601 16.34,12.559 16.704,12.144 C17.067,11.728 17.026,11.096 16.61,10.732 C15.335,9.614 13.696,8.998 12,9 Z M12,12 C11.031,11.999 10.095,12.351 9.366,12.99 C8.958,13.355 8.919,13.981 9.28,14.394 C9.641,14.806 10.267,14.851 10.683,14.495 C11.047,14.175 11.515,13.999 12,14 C12.505,14 12.964,14.186 13.317,14.495 C13.733,14.851 14.359,14.806 14.72,14.394 C15.081,13.981 15.042,13.355 14.634,12.99 C13.905,12.351 12.969,11.999 12,12 Z M12,15 C11.448,15 11,15.448 11,16 C11,16.552 11.448,17 12,17 C12.552,17 13,16.552 13,16 C13,15.448 12.552,15 12,15 Z"/>
</svg>

