<svg xmlns="http://www.w3.org/2000/svg" width="24" height="24">
  <defs/>
  <path  d="M10.772,2.688 A2 2 0 0 1 13.089,2.589 L13.228,2.689 L21.612,9.209 C22.333,9.77 21.982,10.901 21.113,10.994 L20.997,11 L20,11 L20,19 A2 2 0 0 1 18.15,20.995 L18,21 L6,21 A2 2 0 0 1 4.006,19.15 L4,19 L4,11 L3.003,11 C2.09,11 1.671,9.892 2.3,9.285 L2.388,9.209 Z M12,4.267 L5.625,9.225 C5.854,9.41 6,9.693 6,10.01 L6,19 L9,19 L9,14 A3 3 0 1 1 15,14 L15,19 L18,19 L18,10.01 C18,9.693 18.146,9.41 18.375,9.225 Z M12,13 A1 1 0 0 0 11,14 L11,19 L13,19 L13,14 A1 1 0 0 0 12,13"/>
</svg>

