<svg xmlns="http://www.w3.org/2000/svg" width="24" height="24">
  <defs/>
  <path  d="M13.228,2.688 L13.228,2.689 L21.612,9.209 C22.365,9.795 21.949,11 20.997,11 L19.905,11 L19.085,19.199 C18.983,20.221 18.122,21 17.095,21 L6.905,21 C5.878,21 5.017,20.221 4.915,19.199 L4.095,11 L3.003,11 C2.05,11 1.636,9.795 2.388,9.208 L10.772,2.688 C11.494,2.126 12.506,2.126 13.228,2.688 Z M5.996,9.91 L6.905,19 L17.095,19 L18.004,9.909 C18.031,9.641 18.164,9.394 18.374,9.225 L12,4.267 L5.626,9.226 C5.836,9.395 5.969,9.642 5.996,9.91 Z M12,9.5 C13.933,9.5 15.5,11.067 15.5,13 C15.5,14.933 13.933,16.5 12,16.5 C10.067,16.5 8.5,14.933 8.5,13 C8.5,11.067 10.067,9.5 12,9.5 Z M10.5,13 C10.5,13.828 11.172,14.5 12,14.5 C12.828,14.5 13.5,13.828 13.5,13 C13.5,12.172 12.828,11.5 12,11.5 C11.172,11.5 10.5,12.172 10.5,13 Z"/>
</svg>

