<svg xmlns="http://www.w3.org/2000/svg" width="24" height="24">
  <defs/>
  <path  d="M13.228,2.688 L13.228,2.689 L21.612,9.209 C22.365,9.795 21.949,11 20.997,11 L19.905,11 L19.085,19.199 C18.983,20.221 18.122,21 17.095,21 L6.905,21 C5.878,21 5.017,20.221 4.915,19.199 L4.095,11 L3.003,11 C2.05,11 1.636,9.795 2.388,9.208 L10.772,2.688 C11.494,2.126 12.506,2.126 13.228,2.688 Z M12,16 C13.657,16 15,14.657 15,13 C15,11.343 13.657,10 12,10 C10.343,10 9,11.343 9,13 C9,14.657 10.343,16 12,16 Z"/>
</svg>

