<svg xmlns="http://www.w3.org/2000/svg" width="24" height="24">
  <defs/>
  <path  d="M13.2,2.65 L20.2,7.9 C20.704,8.278 21,8.87 21,9.5 L21,19 C21,20.105 20.105,21 19,21 L5,21 C3.895,21 3,20.105 3,19 L3,9.5 C3,8.87 3.296,8.278 3.8,7.9 L10.8,2.65 C11.511,2.117 12.489,2.117 13.2,2.65 Z M12,4.25 L5,9.5 L5,19 L19,19 L19,9.5 Z M12,9 C13.765,9 15.38,9.654 16.61,10.732 C17.026,11.096 17.067,11.728 16.704,12.144 C16.34,12.559 15.708,12.601 15.292,12.237 C14.382,11.438 13.211,10.998 12,11 C10.789,10.998 9.618,11.438 8.708,12.237 C8.292,12.601 7.66,12.559 7.297,12.144 C6.933,11.728 6.974,11.096 7.39,10.732 C8.665,9.614 10.304,8.998 12,9 Z M12,12 C13.008,12 13.931,12.374 14.634,12.99 C14.907,13.224 15.034,13.587 14.965,13.94 C14.897,14.293 14.644,14.583 14.303,14.698 C13.962,14.812 13.585,14.735 13.317,14.495 C12.953,14.175 12.485,13.999 12,14 C11.495,14 11.036,14.186 10.683,14.495 C10.415,14.735 10.038,14.812 9.697,14.698 C9.356,14.583 9.103,14.293 9.035,13.94 C8.966,13.587 9.093,13.224 9.366,12.99 C10.095,12.351 11.031,11.999 12,12 Z M12,15 C12.552,15 13,15.448 13,16 C13,16.552 12.552,17 12,17 C11.448,17 11,16.552 11,16 C11,15.448 11.448,15 12,15 Z"/>
</svg>

