<svg xmlns="http://www.w3.org/2000/svg" width="24" height="24">
  <defs/>
  <path  d="M12,3 C13.84,3 15.545,3.231 16.824,3.631 C17.457,3.829 18.043,4.086 18.491,4.418 L18.68,4.558 C20.795,6.453 22.003,9.16 22,12 C22,17.523 17.523,22 12,22 C6.477,22 2,17.523 2,12 C1.997,9.154 3.21,6.442 5.333,4.547 L5.509,4.417 C5.957,4.086 6.543,3.829 7.176,3.631 C8.455,3.232 10.16,3 12,3 Z M7.773,5.54 C7.278,5.695 6.938,5.859 6.733,6 C6.938,6.141 7.278,6.305 7.773,6.46 C8.81,6.784 10.305,7 12,7 C13.695,7 15.19,6.784 16.227,6.46 C16.722,6.305 17.062,6.141 17.267,6 C17.063,5.859 16.722,5.695 16.227,5.54 C15.19,5.216 13.695,5 12,5 C10.305,5 8.81,5.216 7.773,5.54 Z"/>
</svg>

