<svg xmlns="http://www.w3.org/2000/svg" width="24" height="24">
  <defs/>
  <path  d="M10.671,2.843 C11.429,2.169 12.571,2.169 13.329,2.843 L17.263,6.34 L17.513,4.836 C17.604,4.291 18.119,3.923 18.663,4.014 C19.208,4.104 19.577,4.619 19.486,5.164 L19.03,7.91 L21.665,10.253 C22.056,10.625 22.082,11.239 21.724,11.642 C21.365,12.046 20.752,12.092 20.337,11.747 L19.873,11.335 L19.086,19.199 C18.984,20.222 18.123,21 17.095,21 L6.905,21 C5.878,21 5.017,20.221 4.915,19.199 L4.129,11.335 L3.664,11.747 C3.249,12.092 2.636,12.046 2.277,11.642 C1.919,11.239 1.945,10.625 2.336,10.253 Z"/>
</svg>

