<svg xmlns="http://www.w3.org/2000/svg" width="24" height="24">
  <defs/>
  <path  d="M13.228,2.688 L21.612,9.209 C22.365,9.795 21.949,11 20.997,11 L20,11 L20,19 C20,20.105 19.105,21 18,21 L6,21 C4.895,21 4,20.105 4,19 L4,11 L3.003,11 C2.05,11 1.636,9.795 2.388,9.208 L10.772,2.688 C11.494,2.126 12.506,2.126 13.228,2.688 Z M13,19 L18,19 L18,10.01 C18,9.705 18.138,9.416 18.375,9.225 L12,4.267 L5.625,9.225 C5.854,9.41 6,9.693 6,10.01 L6,19 L11,19 L11,13 C11,12.448 11.448,12 12,12 C12.552,12 13,12.448 13,13 Z"/>
</svg>

