<svg xmlns="http://www.w3.org/2000/svg" width="24" height="24">
  <defs/>
  <path  d="M12,3 C13.84,3 15.545,3.231 16.824,3.631 C17.457,3.829 18.043,4.086 18.491,4.417 L18.68,4.559 C20.795,6.454 22.003,9.16 22,12 C22,17.523 17.523,22 12,22 C6.477,22 2,17.523 2,12 C1.997,9.154 3.21,6.442 5.333,4.547 L5.509,4.417 C5.958,4.086 6.543,3.829 7.176,3.631 C8.455,3.232 10.16,3 12,3 Z M18.609,7.491 C18.569,7.523 18.53,7.554 18.491,7.583 C18.043,7.914 17.457,8.171 16.824,8.369 C15.545,8.769 13.84,9 12,9 C10.16,9 8.455,8.768 7.176,8.369 C6.543,8.171 5.958,7.914 5.509,7.583 C5.469,7.553 5.43,7.523 5.391,7.491 C3.118,10.824 3.682,15.327 6.707,17.996 C9.731,20.665 14.27,20.665 17.294,17.996 C20.319,15.327 20.883,10.824 18.61,7.491 Z M7.773,5.54 C7.279,5.695 6.938,5.859 6.733,6 C6.938,6.141 7.279,6.305 7.773,6.46 C8.81,6.784 10.305,7 12,7 C13.695,7 15.19,6.784 16.227,6.46 C16.722,6.305 17.063,6.141 17.267,6 C17.063,5.859 16.722,5.695 16.227,5.54 C15.19,5.216 13.695,5 12,5 C10.305,5 8.81,5.216 7.773,5.54 Z"/>
</svg>

