<svg xmlns="http://www.w3.org/2000/svg" width="24" height="24">
  <defs/>
  <path  d="M5.75,3.948 C6.572,3.537 7.553,3.61 8.305,4.138 L8.451,4.249 L12.976,7.951 L13.246,7.78 L13.811,7.408 L14.751,6.78 L15.099,6.552 C16.314,5.76 17.749,4.911 19.502,4.34 C19.776,4.25 20.078,4.173 20.395,4.104 L20.718,4.038 L21.283,6.985 C20.923,7.054 20.639,7.125 20.431,7.192 C19.05,7.642 17.873,8.325 16.736,9.065 L16.329,9.335 L15.486,9.899 C14.772,10.374 14.033,10.846 13.311,11.199 C12.611,11.541 11.735,11.762 10.933,11.939 L10.294,12.073 L9.026,12.331 C8.818,12.374 8.613,12.418 8.411,12.463 C7.585,12.65 6.891,12.846 6.365,13.085 C6.115,13.198 5.947,13.301 5.835,13.385 L5.725,13.478 C5.702,13.5 5.68,13.524 5.66,13.55 L5.628,13.598 C5.382,14.078 5.508,15.148 6.064,15.406 C6.157,15.449 6.284,15.483 6.439,15.496 L6.56,15.5 L9.837,15.5 C10.401,14.31 11.586,13.537 12.902,13.5 C14.219,13.464 15.444,14.169 16.074,15.326 L16.164,15.5 L21,15.5 L21,18.5 L16.163,18.5 C15.599,19.69 14.415,20.463 13.098,20.5 C11.782,20.537 10.556,19.832 9.926,18.675 L9.836,18.5 L6.56,18.5 C5.452,18.5 4.078,18.077 3.311,16.808 L3.178,16.577 C3.155,16.535 3.133,16.493 3.111,16.45 L2.978,16.179 C2.522,15.184 2.186,13.739 2.958,12.232 C3.447,11.275 4.337,10.71 5.127,10.352 C5.94,9.984 6.877,9.734 7.75,9.537 L8.394,9.397 L9.686,9.136 L6.802,6.776 L5.671,7.342 C4.954,7.704 4.08,7.438 3.686,6.738 C3.293,6.038 3.521,5.153 4.203,4.729 L4.329,4.659 Z M13,16.5 C12.724,16.5 12.5,16.724 12.5,17 C12.5,17.276 12.724,17.5 13,17.5 C13.276,17.5 13.5,17.276 13.5,17 C13.5,16.724 13.276,16.5 13,16.5 Z"/>
</svg>

