<svg xmlns="http://www.w3.org/2000/svg" width="24" height="24">
  <defs/>
  <path  d="M5.973,4.395 C6.678,4.043 7.524,4.137 8.134,4.636 L12.932,8.562 C13.407,8.282 13.895,7.954 14.432,7.594 C16.078,6.49 17.759,5.434 19.657,4.815 C20.036,4.696 20.421,4.601 20.811,4.529 L21.188,6.493 C20.88,6.549 20.575,6.624 20.276,6.717 C18.594,7.265 17.104,8.211 15.645,9.19 C14.797,9.759 13.936,10.336 13.091,10.75 C12.451,11.062 11.627,11.274 10.825,11.45 C10.007,11.63 9.141,11.786 8.3,11.975 C7.467,12.163 6.732,12.369 6.158,12.629 C5.569,12.896 5.292,13.157 5.183,13.37 C4.825,14.07 5.039,14.832 5.451,15.516 C5.616,15.787 5.993,16 6.56,16 L9.17,16 C9.593,14.8 10.728,13.998 12,13.998 C13.272,13.998 14.407,14.8 14.83,16 L21,16 L21,18 L14.83,18 C14.407,19.2 13.272,20.002 12,20.002 C10.728,20.002 9.593,19.2 9.17,18 L6.56,18 C5.56,18 4.385,17.62 3.74,16.55 C3.203,15.661 2.567,14.092 3.402,12.46 C3.815,11.652 4.583,11.147 5.333,10.807 C6.098,10.461 6.996,10.219 7.86,10.024 C8.838,9.804 9.828,9.636 10.803,9.404 L6.868,6.184 L5.448,6.894 C5.127,7.064 4.74,7.046 4.436,6.849 C4.132,6.652 3.958,6.305 3.983,5.943 C4.007,5.581 4.225,5.261 4.553,5.106 L5.973,4.396 Z M11.995,18 L12.005,18 C12.556,17.997 13.001,17.549 13,16.998 C12.999,16.446 12.551,16 12,16 C11.449,16 11.001,16.446 11,16.998 C10.999,17.549 11.444,17.997 11.995,18 Z"/>
</svg>

