<svg xmlns="http://www.w3.org/2000/svg" width="24" height="24">
  <defs/>
  <path  d="M21,3.426 L21,20.574 C21,21.511 19.995,22.137 19.149,21.672 C18.011,21.049 14.646,19.23 12.631,18.429 C11.269,17.888 10.017,17.543 8.754,17.328 L7.981,21.196 C7.873,21.738 7.346,22.089 6.804,21.981 C6.262,21.873 5.911,21.346 6.019,20.804 L6.763,17.089 C6.496,17.069 6.227,17.053 5.953,17.04 C4.35,16.966 3,15.671 3,14 L3,10 C3,8.329 4.35,7.034 5.953,6.96 C8.267,6.852 10.286,6.502 12.631,5.571 C14.646,4.77 18.012,2.952 19.149,2.328 C19.995,1.863 21,2.489 21,3.426 Z M9,15.342 C10.418,15.577 11.833,15.96 13.37,16.571 C15.022,17.227 17.456,18.49 19,19.317 L19,4.683 C17.456,5.51 15.022,6.773 13.37,7.429 C11.833,8.039 10.418,8.423 9,8.659 Z M7,8.899 C6.685,8.923 6.368,8.943 6.046,8.958 C5.443,8.986 5,9.462 5,10 L5,14 C5,14.538 5.443,15.014 6.046,15.042 C6.368,15.057 6.686,15.077 7,15.102 Z"/>
</svg>

