<svg xmlns="http://www.w3.org/2000/svg" width="24" height="24">
  <defs/>
  <path  d="M19.149,2.328 C19.995,1.863 21,2.489 21,3.426 L21,20.574 C21,21.511 19.995,22.137 19.149,21.672 C18.012,21.048 14.646,19.23 12.631,18.429 A18.916 18.916 0 0 0 8.754,17.329 L7.981,21.196 A1 1 0 1 1 6.019,20.804 L6.762,17.089 A28.37 28.37 0 0 0 5.953,17.04 C4.35,16.966 3,15.671 3,14 L3,10 C3,8.329 4.35,7.034 5.953,6.96 C6.308,6.943 6.657,6.921 7,6.892 L7,16 L7.034,16 A1 1 0 0 1 8.766,16 L9,16 L9,6.628 A18.992 18.992 0 0 0 12.63,5.571 C14.646,4.77 18.012,2.951 19.149,2.328"/>
</svg>

