<svg xmlns="http://www.w3.org/2000/svg" width="24" height="24">
  <defs/>
  <path  d="M20.255,5.52 C20.58,6.584 21,8.535 21,11.5 C21,14.465 20.58,16.416 20.255,17.48 C19.924,18.567 18.791,18.985 17.861,18.675 L16.681,18.282 L16.281,19.215 C15.871,20.17 14.797,20.653 13.811,20.324 L8.715,18.626 C8.184,18.449 7.752,18.058 7.523,17.548 C7.294,17.038 7.289,16.455 7.509,15.941 L7.778,15.314 L7,15.054 L5.632,15.51 C5.022,15.713 4.352,15.611 3.831,15.235 C3.309,14.859 3,14.256 3,13.613 L3,9.388 C3,8.745 3.309,8.141 3.83,7.765 C4.352,7.389 5.022,7.287 5.632,7.49 L7,7.946 L17.861,4.326 C18.791,4.016 19.924,4.433 20.255,5.52 Z M14.778,17.647 L9.682,15.948 L9.347,16.728 L14.443,18.428 Z"/>
</svg>

