<svg xmlns="http://www.w3.org/2000/svg" width="24" height="24">
  <defs/>
  <path  d="M20.255,5.52 L20.342,5.818 L20.431,6.156 L20.475,6.341 L20.564,6.741 L20.649,7.184 L20.73,7.669 C20.756,7.838 20.78,8.014 20.804,8.197 L20.869,8.769 C20.949,9.56 21,10.469 21,11.5 C21,12.531 20.95,13.44 20.87,14.231 L20.804,14.803 C20.781,14.986 20.756,15.163 20.73,15.331 L20.65,15.816 L20.564,16.259 L20.475,16.659 L20.386,17.019 L20.298,17.336 L20.255,17.48 C19.924,18.567 18.791,18.985 17.861,18.675 L16.681,18.282 L16.281,19.215 C15.871,20.171 14.798,20.653 13.811,20.325 L8.715,18.625 C8.185,18.448 7.753,18.057 7.523,17.547 C7.294,17.038 7.289,16.455 7.509,15.941 L7.778,15.313 L7,15.055 L5.632,15.511 C5.022,15.714 4.352,15.612 3.83,15.236 C3.309,14.86 3,14.256 3,13.613 L3,9.388 C3,8.745 3.309,8.141 3.83,7.765 C4.352,7.389 5.022,7.287 5.632,7.49 L7,7.946 L17.861,4.326 C18.791,4.016 19.924,4.433 20.255,5.52 Z M18.388,6.258 L8,9.721 L8,13.279 L18.388,16.742 L18.465,16.459 L18.545,16.132 L18.585,15.952 L18.663,15.558 C18.69,15.412 18.715,15.266 18.739,15.119 L18.809,14.634 C18.921,13.787 19,12.747 19,11.5 C19,10.254 18.92,9.213 18.81,8.366 L18.739,7.881 C18.714,7.727 18.689,7.581 18.663,7.441 L18.584,7.048 L18.504,6.699 Z M9.682,15.948 L9.347,16.728 L14.443,18.428 L14.778,17.647 Z M5,9.388 L5,13.613 L6,13.279 L6,9.721 Z"/>
</svg>

