<svg xmlns="http://www.w3.org/2000/svg" width="24" height="24">
  <defs/>
  <path  d="M15,2 A2 2 0 0 1 17,4 L17,9 L19,9 A2 2 0 0 1 21,11 L21,20.9 A1.1 1.1 0 0 1 19.9,22 L4.1,22 A1.1 1.1 0 0 1 3,20.9 L3,4 A2 2 0 0 1 5,2 Z M15,4 L5,4 L5,20 L7,20 L7,17 A3 3 0 1 1 13,17 L13,20 L15,20 Z M19,11 L17,11 L17,20 L19,20 Z M10,16 A1 1 0 0 0 9.007,16.883 L9,17 L9,20 L11,20 L11,17 A1 1 0 0 0 10,16 M10,6 A1 1 0 0 1 11,7 L11,8 L12,8 A1 1 0 1 1 12,10 L11,10 L11,11 A1 1 0 1 1 9,11 L9,10 L8,10 A1 1 0 0 1 8,8 L9,8 L9,7 A1 1 0 0 1 10,6"/>
</svg>

