<svg xmlns="http://www.w3.org/2000/svg" width="24" height="24">
  <defs/>
  <path  d="M5,2 L15,2 C16.105,2 17,2.895 17,4 L17,20 L18,20 L18,9.5 C18,9.224 18.224,9 18.5,9 L19,9 C20.105,9 21,9.895 21,11 L21,20.9 C21,21.508 20.508,22 19.9,22 L4.1,22 C3.492,22 3,21.508 3,20.9 L3,4 C3,2.895 3.895,2 5,2 Z M10,14 C8.895,14 8,14.895 8,16 L8,20 L12,20 L12,16 C12,14.895 11.105,14 10,14 Z M10,5 C9.448,5 9,5.448 9,6 L9,7 L8,7 C7.448,7 7,7.448 7,8 C7,8.552 7.448,9 8,9 L9,9 L9,10 C9,10.552 9.448,11 10,11 C10.552,11 11,10.552 11,10 L11,9 L12,9 C12.552,9 13,8.552 13,8 C13,7.448 12.552,7 12,7 L11,7 L11,6 C11,5.448 10.552,5 10,5 Z"/>
</svg>

