<svg xmlns="http://www.w3.org/2000/svg" width="24" height="24">
  <defs/>
  <path  d="M5,5 C5,3.895 5.895,3 7,3 L17,3 C18.105,3 19,3.895 19,5 L19,6 L20,6 C20.552,6 21,6.448 21,7 C21,7.552 20.552,8 20,8 L20,19 C20.552,19 21,19.448 21,20 C21,20.552 20.552,21 20,21 L4,21 C3.448,21 3,20.552 3,20 C3,19.448 3.448,19 4,19 L4,8 C3.448,8 3,7.552 3,7 C3,6.448 3.448,6 4,6 L5,6 Z M18,8 L6,8 L6,19 L9.5,19 L9.5,16.5 C9.5,15.119 10.619,14 12,14 C13.381,14 14.5,15.119 14.5,16.5 L14.5,19 L18,19 Z M17,5 L7,5 L7,6 L17,6 Z M8,13 C8.552,13 9,13.448 9,14 L9,15 C9,15.552 8.552,16 8,16 C7.448,16 7,15.552 7,15 L7,14 C7,13.448 7.448,13 8,13 Z M16,9 C16.552,9 17,9.448 17,10 L17,11 C17,11.552 16.552,12 16,12 C15.448,12 15,11.552 15,11 L15,10 C15,9.448 15.448,9 16,9 Z M12,9 C12.507,9 12.934,9.38 12.993,9.883 L13,10 L13,11 C12.999,11.529 12.587,11.966 12.059,11.997 C11.53,12.028 11.069,11.642 11.007,11.117 L11,11 L11,10 C11,9.448 11.448,9 12,9 Z M8,9 C8.507,9 8.934,9.38 8.993,9.883 L9,10 L9,11 C8.999,11.529 8.587,11.966 8.059,11.997 C7.53,12.028 7.069,11.642 7.007,11.117 L7,11 L7,10 C7,9.448 7.448,9 8,9 Z M16,13 C16.507,13 16.934,13.38 16.993,13.883 L17,14 L17,15 C16.999,15.529 16.587,15.966 16.059,15.997 C15.53,16.028 15.069,15.642 15.007,15.117 L15,15 L15,14 C15,13.448 15.448,13 16,13 Z M12,16 C11.724,16 11.5,16.224 11.5,16.5 L11.5,19 L12.5,19 L12.5,16.5 C12.5,16.224 12.276,16 12,16 Z"/>
</svg>

