<svg xmlns="http://www.w3.org/2000/svg" width="24" height="24">
  <defs/>
  <path  d="M17,3 C18.105,3 19,3.895 19,5 L19,6 L20,6 C20.552,6 21,6.448 21,7 C21,7.552 20.552,8 20,8 L20,19 C20.552,19 21,19.448 21,20 C21,20.552 20.552,21 20,21 L13.5,21 L13.5,16.5 C13.5,15.672 12.828,15 12,15 C11.172,15 10.5,15.672 10.5,16.5 L10.5,21 L4,21 C3.448,21 3,20.552 3,20 C3,19.448 3.448,19 4,19 L4,8 C3.448,8 3,7.552 3,7 C3,6.448 3.448,6 4,6 L5,6 L5,5 C5,3.895 5.895,3 7,3 Z M17,5 L7,5 L7,6 L17,6 Z M8,13 C7.448,13 7,13.448 7,14 L7,15 C7,15.552 7.448,16 8,16 C8.552,16 9,15.552 9,15 L9,14 C9,13.448 8.552,13 8,13 Z M16,9 C15.448,9 15,9.448 15,10 L15,11 C15,11.552 15.448,12 16,12 C16.552,12 17,11.552 17,11 L17,10 C17,9.448 16.552,9 16,9 Z M12,9 C11.493,9 11.066,9.38 11.007,9.883 L11,10 L11,11 C11.001,11.529 11.413,11.966 11.941,11.997 C12.47,12.028 12.931,11.642 12.993,11.117 L13,11 L13,10 C13,9.448 12.552,9 12,9 Z M16,13 C15.493,13 15.066,13.38 15.007,13.883 L15,14 L15,15 C15.001,15.529 15.413,15.966 15.941,15.997 C16.47,16.028 16.931,15.642 16.993,15.117 L17,15 L17,14 C17,13.448 16.552,13 16,13 Z M8,9 C7.493,9 7.066,9.38 7.007,9.883 L7,10 L7,11 C7.001,11.529 7.413,11.966 7.941,11.997 C8.47,12.028 8.931,11.642 8.993,11.117 L9,11 L9,10 C9,9.448 8.552,9 8,9 Z"/>
</svg>

