<svg xmlns="http://www.w3.org/2000/svg" width="24" height="24">
  <defs/>
  <path  d="M18,3 A3 3 0 0 1 20.995,5.824 L21,6 L21,18 A3 3 0 0 1 18.176,20.995 L18,21 L6,21 A3 3 0 0 1 3.005,18.176 L3,18 L3,6 A3 3 0 0 1 5.824,3.005 L6,3 Z M15.293,16.708 A2.99 2.99 0 0 1 14,17 L5,17 L5,18 A1 1 0 0 0 6,19 L17.586,19 Z M18,5 L17,5 L17,14 C17,14.386 16.927,14.755 16.794,15.094 L16.708,15.294 L19,17.585 L19,6 A1 1 0 0 0 18.117,5.007 Z M15,5 L6,5 A1 1 0 0 0 5.007,5.883 L5,6 L5,15 L14,15 A1 1 0 0 0 14.993,14.117 L15,14 Z M9,7 A1 1 0 0 1 9.993,7.883 L10,8 L10,8.631 L11.445,7.668 A1 1 0 0 1 12.648,9.262 L12.555,9.332 L11.178,10.25 L12.555,11.168 A1 1 0 0 1 11.546,12.891 L11.446,12.832 L10,11.868 L10,12 A1 1 0 0 1 8.007,12.117 L8,12 L8,8 A1 1 0 0 1 9,7"/>
</svg>

