<svg xmlns="http://www.w3.org/2000/svg" width="24" height="24">
  <defs/>
  <path  d="M18,3 A3 3 0 0 1 21,6 L21,18 A3 3 0 0 1 18,21 L6,21 A3 3 0 0 1 3,18 L3,6 A3 3 0 0 1 6,3 Z M15.293,16.708 A2.99 2.99 0 0 1 14,17 L5,17 L5,18 A1 1 0 0 0 6,19 L17.586,19 Z M18,5 L17,5 L17,14 C17,14.463 16.895,14.902 16.708,15.293 L19,17.586 L19,6 A1 1 0 0 0 18,5 M9,7 A1 1 0 0 0 8,8 L8,12 A1 1 0 1 0 10,12 L10,11.868 L11.445,12.832 A1 1 0 0 0 12.555,11.168 L11.178,10.25 L12.555,9.332 A1 1 0 0 0 11.445,7.668 L10,8.63 L10,8 A1 1 0 0 0 9,7"/>
</svg>

