<svg xmlns="http://www.w3.org/2000/svg" width="24" height="24">
  <defs/>
  <path  d="M18.243,14.03 A1 1 0 0 1 18.97,15.243 L18.28,18 L19,18 L19,17 A1 1 0 1 1 21,17 L21,18 A1 1 0 1 1 21,20 L21,21 A1 1 0 1 1 19,21 L19,20 L17,20 A1 1 0 0 1 16.03,18.758 L17.03,14.758 A1 1 0 0 1 18.242,14.03 Z M13.5,14 A2.5 2.5 0 0 1 15.995,16.336 L16,16.5 L16,16.825 C16,17.425 15.81,18.006 15.459,18.488 L15.319,18.663 L14.175,20 L15,20 A1 1 0 0 1 15.117,21.993 L15,22 L12,22 A1 1 0 0 1 11.163,20.452 L11.241,20.349 L13.801,17.362 A0.825 0.825 0 0 0 13.991,16.942 L14,16.825 L14,16.5 A0.5 0.5 0 0 0 13,16.5 A1 1 0 1 1 11,16.5 A2.5 2.5 0 0 1 13.5,14 M12,3 C16.195,3 19.717,5.87 20.716,9.75 A1 1 0 1 1 18.779,10.25 A7 7 0 1 0 8.5,18.064 A1 1 0 0 1 7.5,19.794 A9 9 0 0 1 12,3 M12,7 A1 1 0 0 1 12.993,7.883 L13,8 L13,12 A1 1 0 0 1 12.117,12.993 L12,13 L10,13 A1 1 0 0 1 9.883,11.007 L10,11 L11,11 L11,8 A1 1 0 0 1 12,7"/>
</svg>

