<svg xmlns="http://www.w3.org/2000/svg" width="24" height="24">
  <defs/>
  <path  d="M12,3 C14.723,2.999 17.3,4.232 19.009,6.352 C20.718,8.472 21.375,11.252 20.796,13.913 C20.444,13.005 19.673,12.326 18.728,12.09 C17.765,11.849 16.745,12.1 16.004,12.76 C14.624,11.835 12.846,11.747 11.38,12.529 C9.915,13.312 9,14.839 9,16.5 C9,17.386 9.384,18.182 9.994,18.73 L9.722,19.048 C9.367,19.462 9.132,19.965 9.042,20.503 C4.89,19.063 2.385,14.834 3.117,10.5 C3.85,6.167 7.605,2.996 12,3 Z M13.5,14 C14.881,14 16,15.119 16,16.5 L16,16.825 C16,17.5 15.759,18.152 15.32,18.664 L14.174,20 L15,20 C15.552,20 16,20.448 16,21 C16,21.552 15.552,22 15,22 L12,22 C11.61,22 11.255,21.773 11.092,21.418 C10.928,21.064 10.986,20.647 11.24,20.35 L13.801,17.362 C13.929,17.213 14,17.022 14,16.825 L14,16.5 C14,16.224 13.776,16 13.5,16 C13.224,16 13,16.224 13,16.5 C13,17.052 12.552,17.5 12,17.5 C11.448,17.5 11,17.052 11,16.5 C11,15.119 12.119,14 13.5,14 Z M17.03,14.758 C17.158,14.244 17.665,13.92 18.185,14.018 C18.706,14.116 19.06,14.603 18.992,15.128 L18.97,15.243 L18.28,18 L19,18 L19,17 C19.001,16.471 19.414,16.035 19.942,16.004 C20.47,15.973 20.931,16.359 20.993,16.884 L21,17 L21,18 C21.529,18.001 21.966,18.413 21.997,18.941 C22.028,19.47 21.642,19.931 21.117,19.993 L21,20 L21,21 C20.999,21.529 20.587,21.966 20.059,21.997 C19.53,22.028 19.069,21.642 19.007,21.117 L19,21 L19,20 L17,20 C16.715,20 16.444,19.878 16.254,19.666 C16.065,19.453 15.975,19.17 16.007,18.887 L16.03,18.757 Z M11,6 C10.448,6 10,6.448 10,7 L10,10 L9,10 C8.448,10 8,10.448 8,11 C8,11.552 8.448,12 9,12 L11,12 C11.552,12 12,11.552 12,11 L12,7 C12,6.448 11.552,6 11,6 Z"/>
</svg>

