<svg xmlns="http://www.w3.org/2000/svg" width="24" height="24">
  <defs/>
  <path  d="M17.974,3.775 C18.034,4.034 17.988,4.305 17.848,4.53 C17.707,4.756 17.483,4.915 17.224,4.975 L15,5.487 L15,10 L19,10 C20.105,10 21,10.895 21,12 L21,19 C21,20.105 20.105,21 19,21 L6,21 C4.895,21 4,20.105 4,19 L4,8 C3.492,7.999 3.065,7.618 3.008,7.113 C2.95,6.609 3.28,6.141 3.775,6.026 L16.775,3.026 C17.034,2.966 17.305,3.012 17.53,3.152 C17.756,3.293 17.915,3.517 17.975,3.776 Z M19,12 L10,12 L10,19 L12,19 L12,16 C12,14.953 12.806,14.083 13.85,14.005 L14,14 L15,14 C16.047,14 16.917,14.806 16.995,15.85 L17,16 L17,19 L19,19 Z M8,7.103 L6,7.565 L6,19 L8,19 Z M13,5.949 L10,6.642 L10,10 L13,10 Z M15,16 L14,16 L14,19 L15,19 Z"/>
</svg>

