<svg xmlns="http://www.w3.org/2000/svg" width="24" height="24">
  <defs/>
  <path  d="M13.351,3.064 L21.351,6.064 C21.803,6.234 22.069,6.703 21.983,7.178 C21.897,7.654 21.483,8 21,8 L21,19 C21,20.105 20.105,21 19,21 L10,21 L10,16 C10,15.448 9.552,15 9,15 C8.448,15 8,15.448 8,16 L8,21 L5,21 C3.895,21 3,20.105 3,19 L3,13 C2.499,13 2.075,12.63 2.008,12.133 C1.942,11.636 2.253,11.166 2.737,11.035 L13,8.236 L13,5.068 L12.649,4.936 C12.147,4.732 11.898,4.166 12.088,3.658 C12.279,3.151 12.839,2.887 13.351,3.064 Z M17.5,14 L16.5,14 C15.948,14 15.5,14.448 15.5,15 C15.5,15.552 15.948,16 16.5,16 L17.5,16 C18.052,16 18.5,15.552 18.5,15 C18.5,14.448 18.052,14 17.5,14 Z M17.5,10 L16.5,10 C15.971,10.001 15.534,10.413 15.503,10.941 C15.472,11.47 15.858,11.931 16.383,11.993 L16.5,12 L17.5,12 C18.029,11.999 18.466,11.587 18.497,11.059 C18.528,10.53 18.142,10.069 17.617,10.007 Z"/>
</svg>

