<svg xmlns="http://www.w3.org/2000/svg" width="24" height="24">
  <defs/>
  <path  d="M13.351,3.064 L21.351,6.064 C21.803,6.234 22.069,6.703 21.983,7.178 C21.897,7.654 21.483,8 21,8 L21,19 C21,20.105 20.105,21 19,21 L5,21 C3.895,21 3,20.105 3,19 L3,13 C2.5,12.999 2.078,12.628 2.012,12.133 C1.945,11.637 2.255,11.169 2.737,11.036 L13,8.236 L13,5.068 L12.649,4.936 C12.305,4.817 12.053,4.522 11.99,4.163 C11.927,3.805 12.064,3.441 12.347,3.213 C12.63,2.984 13.014,2.927 13.351,3.064 Z M10,16 L10,19 L13,19 L13,10.31 L5,12.49 L5,19 L8,19 L8,16 C8,15.448 8.448,15 9,15 C9.552,15 10,15.448 10,16 Z M19,7.318 L15,5.818 L15,19 L19,19 Z M16.5,14 L17.5,14 C18.052,14 18.5,14.448 18.5,15 C18.5,15.552 18.052,16 17.5,16 L16.5,16 C15.948,16 15.5,15.552 15.5,15 C15.5,14.448 15.948,14 16.5,14 Z M15.5,11 C15.5,10.448 15.948,10 16.5,10 L17.5,10 C18.052,10 18.5,10.448 18.5,11 C18.5,11.552 18.052,12 17.5,12 L16.5,12 C15.948,12 15.5,11.552 15.5,11 Z"/>
</svg>

