<svg xmlns="http://www.w3.org/2000/svg" width="24" height="24">
  <defs/>
  <path  d="M16.775,3.026 C17.291,2.906 17.811,3.21 17.961,3.719 C18.11,4.227 17.836,4.764 17.337,4.942 L17.225,4.974 L15,5.488 L15,10 L19,10 C20.047,10 20.917,10.806 20.995,11.85 L21,12 L21,19 C21,20.047 20.194,20.917 19.15,20.995 L19,21 L6,21 C4.953,21 4.083,20.194 4.005,19.15 L4,19 L4,8 C3.513,8.001 3.097,7.651 3.013,7.171 C2.93,6.691 3.204,6.221 3.663,6.058 L3.775,6.026 Z M8,7.103 L6,7.565 L6,19 L8,19 Z M15,14 L14,14 C13.493,14 13.066,14.38 13.007,14.883 L13,15 L13,19 L16,19 L16,15 C16,14.493 15.62,14.066 15.117,14.007 Z M13,5.949 L10,6.642 L10,10 L13,10 Z"/>
</svg>

