<svg xmlns="http://www.w3.org/2000/svg" width="24" height="24">
  <defs/>
  <path  d="M11.5,4.719 C13.612,2.597 17.033,2.553 19.198,4.621 C21.363,6.689 21.476,10.108 19.453,12.315 L19.279,12.497 L12.562,19.215 C11.828,19.949 10.654,19.999 9.86,19.331 L9.733,19.215 L7.965,17.447 L5.845,19.568 C5.472,19.944 4.871,19.965 4.473,19.615 C4.076,19.264 4.021,18.665 4.347,18.248 L4.43,18.154 L6.551,16.032 L4.783,14.265 C4.05,13.531 3.999,12.358 4.667,11.564 L4.783,11.436 L11.501,4.719 Z M14.683,7.194 C14.327,6.837 13.761,6.801 13.363,7.11 L13.269,7.194 L9.026,11.436 C8.65,11.809 8.629,12.41 8.979,12.808 C9.33,13.205 9.929,13.26 10.346,12.934 L10.44,12.851 L14.683,8.608 C15.073,8.217 15.073,7.584 14.683,7.194 Z M15.39,9.315 L11.147,13.558 C10.757,13.949 10.757,14.582 11.148,14.972 C11.538,15.363 12.172,15.363 12.562,14.972 L16.804,10.729 C17.183,10.337 17.178,9.713 16.792,9.327 C16.406,8.941 15.782,8.936 15.39,9.315 Z"/>
</svg>

