<svg xmlns="http://www.w3.org/2000/svg" width="24" height="24">
  <defs/>
  <path  d="M12,2 C14.046,2 15.887,3.246 16.645,5.147 C18.857,5.729 20.281,7.878 19.955,10.142 C19.92,10.328 19.855,10.508 19.762,10.673 L19.695,10.793 L13.728,21.023 C12.983,22.299 11.179,22.344 10.359,21.16 L10.272,21.023 L4.305,10.793 C4.194,10.603 4.077,10.361 4.045,10.142 C3.719,7.878 5.143,5.729 7.355,5.147 C8.113,3.246 9.954,2 12,2 Z M16.758,11.858 C15.49,12.198 13.847,12.5 12,12.5 C10.496,12.495 8.998,12.305 7.54,11.936 L7.242,11.858 L12,20.015 Z M15.5,7 C14.119,7 13,8.119 13,9.5 L13,10.467 C14.68,10.357 16.116,9.993 17.11,9.667 L17.508,9.531 L17.848,9.405 L17.995,9.347 C17.914,8.028 16.821,7 15.5,7 Z M8.5,7 C7.179,7 6.086,8.028 6.005,9.347 L6.315,9.467 L6.685,9.599 C7.68,9.939 9.201,10.349 11,10.467 L11,9.5 C11,8.119 9.881,7 8.5,7 Z M12,4 C11.044,4 10.19,4.448 9.641,5.146 C10.583,5.392 11.405,5.936 12,6.671 C12.604,5.924 13.43,5.39 14.359,5.146 C13.791,4.422 12.921,3.999 12,4 Z"/>
</svg>

