<svg xmlns="http://www.w3.org/2000/svg" width="24" height="24">
  <defs/>
  <path  d="M12,2 C14.046,2 15.887,3.246 16.645,5.147 C18.857,5.729 20.281,7.878 19.955,10.142 C19.923,10.36 19.806,10.602 19.695,10.794 L13.728,21.024 C12.956,22.346 11.044,22.346 10.272,21.024 L4.305,10.794 C4.194,10.602 4.077,10.361 4.045,10.142 C3.719,7.878 5.143,5.729 7.355,5.147 C8.113,3.246 9.954,2 12,2 Z M11,10.467 L11,9.5 C10.997,8.151 9.925,7.047 8.577,7.006 C7.228,6.965 6.09,8.001 6.005,9.347 C6.889,9.7 8.721,10.319 11,10.467 Z M17.995,9.347 C17.91,8.001 16.772,6.965 15.423,7.006 C14.075,7.047 13.003,8.151 13,9.5 L13,10.467 C14.713,10.352 16.397,9.974 17.995,9.347 Z M12,4 C11.044,4 10.19,4.448 9.641,5.146 C10.583,5.392 11.405,5.936 12,6.671 C12.604,5.924 13.43,5.39 14.359,5.146 C13.791,4.422 12.921,3.999 12,4 Z"/>
</svg>

