<svg xmlns="http://www.w3.org/2000/svg" width="24" height="24">
  <defs/>
  <path  d="M11.5,4.72 A5.5 5.5 0 0 1 19.453,12.315 L19.279,12.498 L12.562,19.215 A2 2 0 0 1 9.86,19.332 L9.733,19.215 L7.965,17.447 L5.845,19.569 A1 1 0 0 1 4.347,18.249 L4.43,18.154 L6.551,16.033 L4.783,14.265 A2 2 0 0 1 4.667,11.564 L4.783,11.437 L11.501,4.719 Z M12.915,6.134 L6.198,12.85 L11.148,17.8 L17.865,11.082 A3.5 3.5 0 0 0 12.915,6.132 Z M15.39,9.316 A1 1 0 0 1 16.887,10.636 L16.804,10.73 L12.562,14.972 A1 1 0 0 1 11.064,13.652 L11.147,13.558 Z M14.683,7.194 A1 1 0 0 1 14.683,8.608 L10.44,12.851 A1 1 0 1 1 9.026,11.437 L13.269,7.194 A1 1 0 0 1 14.683,7.194"/>
</svg>

