<svg xmlns="http://www.w3.org/2000/svg" width="24" height="24">
  <defs/>
  <path  d="M4,4 L20,4 C21.105,4 22,4.895 22,6 L22,18 C22,19.105 21.105,20 20,20 L4,20 C2.895,20 2,19.105 2,18 L2,6 C2,4.895 2.895,4 4,4 Z M4,6 L4,18 L20,18 L20,6 Z M5,14.5 C5,13.119 6.119,12 7.5,12 L9.5,12 C10.881,12 12,13.119 12,14.5 L12,15 C12,15.552 11.552,16 11,16 C10.448,16 10,15.552 10,15 L10,14.5 C10,14.224 9.776,14 9.5,14 L7.5,14 C7.224,14 7,14.224 7,14.5 L7,15 C7,15.552 6.552,16 6,16 C5.448,16 5,15.552 5,15 Z M14,13 L18,13 C18.552,13 19,13.448 19,14 C19,14.552 18.552,15 18,15 L14,15 C13.448,15 13,14.552 13,14 C13,13.448 13.448,13 14,13 Z M10.25,9.75 C10.25,10.716 9.466,11.5 8.5,11.5 C7.534,11.5 6.75,10.716 6.75,9.75 C6.75,8.784 7.534,8 8.5,8 C9.466,8 10.25,8.784 10.25,9.75 Z M13,11 C13,10.448 13.448,10 14,10 L16,10 C16.552,10 17,10.448 17,11 C17,11.552 16.552,12 16,12 L14,12 C13.448,12 13,11.552 13,11 Z"/>
</svg>

