<svg xmlns="http://www.w3.org/2000/svg" width="24" height="24">
  <defs/>
  <path  d="M20,4 C21.105,4 22,4.895 22,6 L22,18 C22,19.105 21.105,20 20,20 L4,20 C2.895,20 2,19.105 2,18 L2,6 C2,4.895 2.895,4 4,4 Z M9.5,12 L7.5,12 C6.183,12 5.091,13.022 5.005,14.336 L5,14.5 L5,15 C5.001,15.529 5.413,15.966 5.941,15.997 C6.47,16.028 6.931,15.642 6.993,15.117 L7,15 L7,14.5 C7,14.259 7.172,14.051 7.41,14.008 L7.5,14 L9.5,14 C9.741,14 9.949,14.172 9.992,14.41 L10,14.5 L10,15 C10.001,15.529 10.413,15.966 10.941,15.997 C11.47,16.028 11.931,15.642 11.993,15.117 L12,15 L12,14.5 C12,13.183 10.978,12.091 9.664,12.005 Z M18,13 L14,13 L13.883,13.007 C13.38,13.067 13.001,13.493 13.001,14 C13.001,14.507 13.38,14.933 13.883,14.993 L14,15 L18,15 L18.117,14.993 C18.62,14.933 18.999,14.507 18.999,14 C18.999,13.493 18.62,13.067 18.117,13.007 Z M8.5,8 C7.534,8 6.75,8.784 6.75,9.75 C6.75,10.716 7.534,11.5 8.5,11.5 C9.466,11.5 10.25,10.716 10.25,9.75 C10.25,8.784 9.466,8 8.5,8 Z M16,10 L14,10 C13.471,10.001 13.034,10.413 13.003,10.941 C12.972,11.47 13.358,11.931 13.883,11.993 L14,12 L16,12 C16.529,11.999 16.966,11.587 16.997,11.059 C17.028,10.53 16.642,10.069 16.117,10.007 Z"/>
</svg>

