<svg xmlns="http://www.w3.org/2000/svg" width="24" height="24">
  <defs/>
  <path  d="M19,3 A2 2 0 0 1 21,5 L21,15 A2 2 0 0 1 19,17 L15.032,17 C15.07,17.545 15.137,17.962 15.212,18.28 L15.277,18.527 L15.343,18.729 C15.353,18.759 15.365,18.787 15.375,18.814 L15.437,18.955 L15.492,19.06 L15.537,19.132 L15.579,19.188 C16.025,19.532 16.003,20.048 15.919,20.304 C15.832,20.566 15.537,21 14.958,21 L9.042,21 C8.463,21 8.168,20.566 8.082,20.304 C7.997,20.048 7.975,19.532 8.421,19.188 L8.464,19.132 L8.509,19.06 L8.563,18.955 L8.625,18.815 C8.753,18.494 8.903,17.934 8.968,17 L5,17 A2 2 0 0 1 3,15 L3,5 A2 2 0 0 1 5,3 Z M13.029,17 L10.97,17 A10.206 10.206 0 0 1 10.718,18.798 L10.666,19 L13.332,19 A9.23 9.23 0 0 1 13.049,17.301 Z M19,14 L5,14 L5,15 L19,15 Z M19,5 L5,5 L5,12 L19,12 Z"/>
</svg>

