<svg xmlns="http://www.w3.org/2000/svg" width="24" height="24">
  <defs/>
  <path  d="M5,3 L19,3 C20.105,3 21,3.895 21,5 L21,15 C21,16.105 20.105,17 19,17 L14.032,17 C14.146,18.635 14.521,19.123 14.579,19.188 C15.025,19.532 15.003,20.048 14.918,20.304 C14.832,20.566 14.537,21 13.958,21 L10.042,21 C9.463,21 9.168,20.566 9.081,20.304 C8.997,20.048 8.975,19.532 9.421,19.188 C9.478,19.123 9.854,18.634 9.968,17 L5,17 C3.895,17 3,16.105 3,15 L3,5 C3,3.895 3.895,3 5,3 Z M5,15 L19,15 L19,13 L5,13 Z"/>
</svg>

