<svg xmlns="http://www.w3.org/2000/svg" width="24" height="24">
  <defs/>
  <path  d="M16.382,4 A2 2 0 0 1 18.092,4.964 L18.171,5.106 L21.683,12.131 A3 3 0 0 1 21.991,13.24 L22,13.472 L22,19 A2 2 0 0 1 20.15,20.995 L20,21 L4,21 A2 2 0 0 1 2.005,19.15 L2,19 L2,13.472 A3 3 0 0 1 2.22,12.342 L2.317,12.13 L5.829,5.106 A2 2 0 0 1 7.457,4.006 L7.618,4 Z M8,14 L4,14 L4,19 L20,19 L20,14 L16,14 L16,14.5 A1.5 1.5 0 0 1 14.5,16 L9.5,16 A1.5 1.5 0 0 1 8,14.5 Z M16.382,6 L7.618,6 L4.618,12 L8.5,12 A1.5 1.5 0 0 1 9.993,13.356 L10,13.5 L10,14 L14,14 L14,13.5 A1.5 1.5 0 0 1 15.356,12.007 L15.5,12 L19.382,12 Z"/>
</svg>

