<svg xmlns="http://www.w3.org/2000/svg" width="24" height="24">
  <defs/>
  <path  d="M3,6 C3,4.343 4.343,3 6,3 L18,3 C19.657,3 21,4.343 21,6 L21,18 C21,19.657 19.657,21 18,21 L6,21 C4.343,21 3,19.657 3,18 Z M14,13 C14,12.448 14.448,12 15,12 L19,12 L19,6 C19,5.448 18.552,5 18,5 L6,5 C5.448,5 5,5.448 5,6 L5,12 L9,12 C9.552,12 10,12.448 10,13 C10,14.105 10.895,15 12,15 C13.105,15 14,14.105 14,13 Z M15.874,14 C15.416,15.765 13.824,16.998 12,16.998 C10.176,16.998 8.584,15.765 8.126,14 L5,14 L5,18 C5,18.552 5.448,19 6,19 L18,19 C18.552,19 19,18.552 19,18 L19,14 Z"/>
</svg>

