<svg xmlns="http://www.w3.org/2000/svg" width="24" height="24">
  <defs/>
  <path  d="M5.83,5.106 C6.168,4.429 6.86,4.001 7.617,4 L16.381,4 C17.139,4 17.831,4.428 18.17,5.106 L21.682,12.131 C21.89,12.547 21.999,13.006 22,13.471 L22,19 C22,20.105 21.105,21 20,21 L4,21 C2.895,21 2,20.105 2,19 L2,13.472 C2,13.006 2.109,12.547 2.317,12.131 Z M16.381,6 L7.618,6 L4.12,13 L7.5,13 C8.328,13 9,13.672 9,14.5 L9,15.5 C9,15.776 9.224,16 9.5,16 L14.5,16 C14.776,16 15,15.776 15,15.5 L15,14.5 C15,13.672 15.672,13 16.5,13 L19.88,13 Z"/>
</svg>

