<svg xmlns="http://www.w3.org/2000/svg" width="24" height="24">
  <defs/>
  <path  d="M5.014,9.836 L5.735,5.507 C5.976,4.06 7.228,3 8.695,3 L15.305,3 C16.772,3 18.024,4.059 18.265,5.506 L18.986,9.836 C18.996,9.89 19,9.945 19,10 L20,10 C20.552,10 21,10.448 21,11 C21,11.552 20.552,12 20,12 L4,12 C3.448,12 3,11.552 3,11 C3,10.448 3.448,10 4,10 L5,10 C5,9.945 5.004,9.89 5.014,9.836 Z M7,13 C8.824,13 10.417,14.234 10.874,16 L13.126,16 C13.634,14.054 15.507,12.788 17.502,13.042 C19.497,13.295 20.994,14.989 21,17 C21.002,19.016 19.504,20.718 17.504,20.972 C15.504,21.226 13.628,19.952 13.126,18 L10.874,18 C10.366,19.946 8.493,21.212 6.498,20.958 C4.503,20.705 3.006,19.011 3,17 C3,14.791 4.791,13 7,13 Z"/>
</svg>

