<svg xmlns="http://www.w3.org/2000/svg" width="24" height="24">
  <defs/>
  <path  d="M15.306,3 C16.704,3 17.917,3.965 18.23,5.328 L18.265,5.507 L18.986,9.836 L18.996,9.918 L19,10 L20,10 C20.529,10.001 20.966,10.413 20.997,10.941 C21.028,11.47 20.642,11.931 20.117,11.993 L20,12 L4,12 C3.471,11.999 3.034,11.587 3.003,11.059 C2.972,10.53 3.358,10.069 3.883,10.007 L4,10 L5,10 L5.003,9.918 L5.013,9.836 L5.735,5.506 C5.965,4.128 7.117,3.091 8.512,3.006 L8.694,3 Z M17,13 C19.209,13 21,14.791 21,17 C21,19.209 19.209,21 17,21 C14.791,21 13,19.209 13,17 L11,17 C10.999,19.007 9.511,20.703 7.521,20.964 C5.53,21.226 3.655,19.971 3.136,18.032 C2.617,16.093 3.616,14.07 5.471,13.302 C7.326,12.535 9.462,13.261 10.465,15 L13.535,15 C14.249,13.762 15.571,12.999 17,13 Z M15.306,5 L8.694,5 C8.205,5 7.788,5.354 7.708,5.836 L7.014,10 L16.986,10 L16.292,5.836 C16.212,5.354 15.795,5 15.306,5 Z M17,15 C15.895,15 15,15.895 15,17 C15,18.105 15.895,19 17,19 C18.105,19 19,18.105 19,17 C19,15.895 18.105,15 17,15 Z M7,15 C5.895,15 5,15.895 5,17 C5,18.105 5.895,19 7,19 C8.105,19 9,18.105 9,17 C9,15.895 8.105,15 7,15 Z"/>
</svg>

