<svg xmlns="http://www.w3.org/2000/svg" width="24" height="24">
  <defs/>
  <path  d="M20,18 A1 1 0 1 1 20,20 L4,20 A1 1 0 1 1 4,18 Z M20,13 A1 1 0 0 1 20.117,14.993 L20,15 L11,15 A1 1 0 0 1 10.883,13.007 L11,13 Z M7.065,9.173 C7.322,9.041 7.621,9.235 7.648,9.552 L7.69,10.118 L7.716,10.582 L7.736,11.109 L7.742,11.395 L7.748,12.007 L7.743,12.587 L7.729,13.117 L7.708,13.594 L7.669,14.199 L7.643,14.523 C7.616,14.819 7.344,14.984 7.091,14.855 L6.801,14.705 L6.456,14.515 L6.058,14.287 L5.841,14.158 L5.374,13.87 L4.878,13.548 L4.422,13.238 L4.215,13.09 L3.84,12.816 L3.383,12.466 A17.62 17.62 0 0 1 3.261,12.367 C3.035,12.185 3.025,11.838 3.241,11.664 L3.501,11.456 L3.824,11.21 L4.203,10.932 L4.637,10.627 C4.791,10.522 4.954,10.413 5.124,10.302 L5.367,10.147 L5.824,9.865 L6.24,9.621 L6.609,9.414 Z M20,8 A1 1 0 1 1 20,10 L11,10 A1 1 0 1 1 11,8 Z M20,3 A1 1 0 1 1 20,5 L4,5 A1 1 0 0 1 4,3 Z"/>
</svg>

