<svg xmlns="http://www.w3.org/2000/svg" width="24" height="24">
  <defs/>
  <path  d="M20,18 A1 1 0 0 1 20.117,19.993 L20,20 L4,20 A1 1 0 0 1 3.883,18.007 L4,18 Z M20,13 A1 1 0 0 1 20,15 L11,15 A1 1 0 0 1 11,13 Z M3.643,9.173 L3.933,9.324 L4.277,9.513 C4.339,9.547 4.403,9.583 4.468,9.621 L4.884,9.865 L5.108,10.001 L5.583,10.303 C5.84,10.469 6.077,10.63 6.294,10.783 L6.701,11.074 L6.884,11.21 L7.206,11.456 L7.468,11.664 C7.682,11.838 7.673,12.185 7.448,12.367 L7.187,12.573 L6.868,12.816 L6.493,13.09 L6.285,13.237 L5.83,13.548 L5.582,13.711 C5.414,13.821 5.251,13.923 5.095,14.019 L4.65,14.287 L4.252,14.515 L3.906,14.705 L3.616,14.855 C3.363,14.985 3.091,14.819 3.065,14.523 L3.025,14.013 L2.989,13.363 L2.971,12.859 L2.961,12.303 L2.961,11.694 L2.972,11.109 L2.992,10.582 L3.017,10.118 L3.06,9.552 C3.087,9.235 3.385,9.042 3.643,9.172 Z M20,8 A1 1 0 0 1 20,10 L11,10 A1 1 0 0 1 11,8 Z M20,3 A1 1 0 1 1 20,5 L4,5 A1 1 0 1 1 4,3 Z"/>
</svg>

