<svg xmlns="http://www.w3.org/2000/svg" width="24" height="24">
  <defs/>
  <path  d="M20,17.5 A1.5 1.5 0 0 1 20.144,20.493 L20,20.5 L4,20.5 A1.5 1.5 0 0 1 3.856,17.507 L4,17.5 Z M20,12.5 A1.5 1.5 0 0 1 20,15.5 L11,15.5 A1.5 1.5 0 0 1 11,12.5 Z M3.643,9.173 L3.933,9.325 L4.277,9.513 C4.339,9.547 4.403,9.583 4.468,9.621 L4.884,9.865 L5.341,10.147 A24.355 24.355 0 0 1 6.294,10.782 L6.701,11.074 L6.884,11.21 L7.344,11.565 L7.468,11.665 C7.682,11.838 7.673,12.185 7.448,12.367 L7.187,12.574 L6.868,12.816 L6.493,13.09 L6.064,13.39 L5.83,13.548 L5.583,13.711 C5.413,13.821 5.251,13.923 5.095,14.019 L4.65,14.287 L4.252,14.516 L3.906,14.705 L3.616,14.855 C3.363,14.985 3.091,14.819 3.065,14.523 L3.025,14.013 L2.989,13.363 L2.971,12.859 L2.961,12.303 L2.961,11.695 L2.972,11.109 L2.992,10.582 L3.018,10.118 L3.06,9.552 C3.087,9.236 3.385,9.042 3.643,9.172 Z M20,7.5 A1.5 1.5 0 0 1 20,10.5 L11,10.5 A1.5 1.5 0 0 1 11,7.5 Z M20,2.5 A1.5 1.5 0 0 1 20,5.5 L4,5.5 A1.5 1.5 0 1 1 4,2.5 Z"/>
</svg>

