<svg xmlns="http://www.w3.org/2000/svg" width="24" height="24">
  <defs/>
  <path  d="M20,17.5 A1.5 1.5 0 0 1 20.144,20.493 L20,20.5 L4,20.5 A1.5 1.5 0 0 1 3.856,17.507 L4,17.5 Z M20,12.5 A1.5 1.5 0 0 1 20,15.5 L11,15.5 A1.5 1.5 0 0 1 11,12.5 Z M7.065,9.173 C7.322,9.041 7.621,9.236 7.648,9.553 L7.69,10.118 L7.716,10.582 L7.736,11.109 L7.742,11.395 L7.748,12.008 L7.743,12.588 L7.729,13.118 L7.708,13.594 L7.669,14.199 L7.643,14.523 C7.616,14.82 7.344,14.984 7.091,14.855 L6.801,14.705 L6.456,14.515 L6.058,14.287 A9.422 9.422 0 0 1 5.841,14.158 L5.374,13.87 L5.125,13.71 C4.956,13.601 4.795,13.494 4.644,13.39 L4.214,13.09 L3.84,12.816 L3.383,12.466 A17.703 17.703 0 0 1 3.261,12.367 C3.035,12.185 3.025,11.838 3.241,11.664 L3.501,11.456 L3.824,11.21 L4.203,10.932 L4.637,10.627 C4.791,10.522 4.954,10.414 5.124,10.303 L5.367,10.147 L5.824,9.865 L6.24,9.621 L6.609,9.414 Z M20,7.5 A1.5 1.5 0 0 1 20,10.5 L11,10.5 A1.5 1.5 0 0 1 11,7.5 Z M20,2.5 A1.5 1.5 0 0 1 20,5.5 L4,5.5 A1.5 1.5 0 1 1 4,2.5 Z"/>
</svg>

