<svg xmlns="http://www.w3.org/2000/svg" width="24" height="24">
  <defs/>
  <path  d="M15.89,3.161 C16.28,2.771 16.913,2.771 17.303,3.161 L20.125,5.983 L20.132,5.989 L20.138,5.996 L20.838,6.696 C21.217,7.088 21.212,7.712 20.827,8.098 C20.441,8.484 19.818,8.49 19.425,8.111 L18.01,9.525 L19.778,11.293 C20.157,11.685 20.152,12.309 19.766,12.695 C19.38,13.081 18.756,13.086 18.364,12.707 L17.657,12 L12,17.657 C10.828,18.829 8.929,18.829 7.757,17.657 L4.637,20.778 C4.247,21.169 3.613,21.169 3.223,20.778 C2.832,20.388 2.832,19.755 3.222,19.364 L6.343,16.242 C5.172,15.071 5.172,13.171 6.343,12 L12,6.343 L11.293,5.636 C10.914,5.244 10.919,4.62 11.305,4.234 C11.691,3.848 12.315,3.843 12.707,4.222 L14.475,5.989 L15.889,4.575 C15.499,4.185 15.499,3.551 15.889,3.161 Z M11.291,11.293 L11.293,11.293 C11.544,11.553 11.916,11.657 12.266,11.566 C12.615,11.474 12.888,11.201 12.98,10.852 C13.071,10.502 12.967,10.13 12.707,9.879 L12,9.172 L10.585,10.586 Z M9.171,13.414 C9.563,13.793 10.187,13.788 10.573,13.402 C10.959,13.016 10.964,12.392 10.585,12 L9.878,11.293 L8.464,12.707 Z M18.009,6.697 L17.303,5.989 L15.889,7.403 L16.596,8.11 Z"/>
</svg>

