<svg xmlns="http://www.w3.org/2000/svg" width="24" height="24">
  <defs/>
  <path  d="M17.303,3.161 L20.839,6.697 C21.218,7.089 21.213,7.713 20.827,8.099 C20.441,8.485 19.817,8.49 19.425,8.111 L18.01,9.525 L19.777,11.293 C20.037,11.544 20.141,11.916 20.05,12.266 C19.958,12.615 19.685,12.888 19.336,12.98 C18.986,13.071 18.614,12.967 18.363,12.707 L17.657,12 L12,17.657 C10.829,18.828 8.929,18.828 7.758,17.657 L4.636,20.778 C4.244,21.157 3.62,21.152 3.234,20.766 C2.848,20.38 2.843,19.756 3.222,19.364 L6.343,16.243 C5.171,15.071 5.171,13.172 6.343,12 L12,6.343 L11.293,5.636 C11.033,5.385 10.929,5.013 11.02,4.663 C11.112,4.314 11.385,4.041 11.734,3.949 C12.084,3.858 12.456,3.962 12.707,4.222 L14.475,5.989 L15.889,4.575 C15.629,4.324 15.525,3.952 15.616,3.602 C15.708,3.253 15.981,2.98 16.33,2.888 C16.68,2.797 17.052,2.901 17.303,3.161 Z M13.414,7.757 L12,9.172 L12.707,9.878 C13.098,10.268 13.098,10.902 12.708,11.292 C12.317,11.683 11.684,11.683 11.293,11.293 L10.586,10.586 L9.879,11.293 L10.586,12 C10.846,12.251 10.95,12.623 10.859,12.973 C10.767,13.322 10.494,13.595 10.145,13.687 C9.795,13.778 9.423,13.674 9.172,13.414 L8.465,12.707 L7.758,13.414 C7.57,13.602 7.465,13.856 7.465,14.122 C7.465,14.387 7.57,14.641 7.758,14.829 L9.172,16.243 C9.562,16.633 10.196,16.633 10.586,16.243 L16.243,10.586 Z M17.304,5.989 L15.889,7.404 L16.596,8.111 L18.011,6.697 Z"/>
</svg>

