<svg xmlns="http://www.w3.org/2000/svg" width="24" height="24">
  <defs/>
  <path  d="M16,3 C18.761,3 21,5.239 21,8 L21,16 C21,18.761 18.761,21 16,21 L8,21 C5.239,21 3,18.761 3,16 L3,8 C3,5.239 5.239,3 8,3 Z M16,5 L8,5 C6.343,5 5,6.343 5,8 L5,16 C5,17.657 6.343,19 8,19 L16,19 C17.657,19 19,17.657 19,16 L19,8 C19,6.343 17.657,5 16,5 Z M12,8 C14.209,8 16,9.791 16,12 C16,14.209 14.209,16 12,16 C9.791,16 8,14.209 8,12 C8,9.791 9.791,8 12,8 Z M12,10 C10.895,10 10,10.895 10,12 C10,13.105 10.895,14 12,14 C13.105,14 14,13.105 14,12 C14,10.895 13.105,10 12,10 Z M16.5,6.5 C17.052,6.5 17.5,6.948 17.5,7.5 C17.5,8.052 17.052,8.5 16.5,8.5 C15.948,8.5 15.5,8.052 15.5,7.5 C15.5,6.948 15.948,6.5 16.5,6.5 Z"/>
</svg>

