<svg xmlns="http://www.w3.org/2000/svg" width="24" height="24">
  <defs/>
  <path  d="M10.611,10.611 A1 1 0 0 1 11.721,10.403 L20.56,14.292 A1 1 0 0 1 20.42,16.172 L17.082,17.082 L16.172,20.42 A1 1 0 0 1 14.292,20.56 L10.402,11.72 A1 1 0 0 1 10.611,10.611 M17,3 A3 3 0 0 1 20,6 L20,9 A1 1 0 1 1 18,9 L18,6 A1 1 0 0 0 17,5 L6,5 A1 1 0 0 0 5,6 L5,17 A1 1 0 0 0 6,18 L9,18 A1 1 0 1 1 9,20 L6,20 A3 3 0 0 1 3,17 L3,6 A3 3 0 0 1 6,3 Z M13.27,13.269 L14.985,17.169 L15.303,16.005 A1 1 0 0 1 16.004,15.303 L17.169,14.985 L13.269,13.269 Z"/>
</svg>

