<svg xmlns="http://www.w3.org/2000/svg" width="24" height="24">
  <defs/>
  <path  d="M18,3 A3 3 0 0 1 21,6 L21,18 A3 3 0 0 1 18,21 L6,21 A3 3 0 0 1 3,18 L3,6 A3 3 0 0 1 6,3 Z M12,6 C9.92,6 8.284,6.448 7.372,6.77 C6.425,7.106 5.995,8.073 6.169,8.945 L6.891,12.555 C7.087,13.532 8.123,14.005 8.97,13.667 C9.615,13.409 10.669,13.063 11.718,13.007 L12.018,13 C13.152,13.004 14.331,13.388 15.03,13.667 C15.877,14.005 16.913,13.532 17.109,12.554 L17.831,8.945 C18.005,8.073 17.575,7.106 16.628,6.771 A14.023 14.023 0 0 0 12,6 M12,8 C13.604,8 14.897,8.309 15.693,8.566 L15.856,8.62 L15.256,11.617 A12.086 12.086 0 0 0 13.862,11.217 L13.542,11.152 L13.894,10.447 A1 1 0 0 0 12.164,9.451 L12.106,9.553 L11.368,11.027 C10.478,11.102 9.637,11.32 8.98,11.536 L8.743,11.616 L8.143,8.62 A12.1 12.1 0 0 1 12,8"/>
</svg>

