<svg xmlns="http://www.w3.org/2000/svg" width="24" height="24">
  <defs/>
  <path  d="M18,3 C19.657,3 21,4.343 21,6 L21,18 C21,19.657 19.657,21 18,21 L6,21 C4.343,21 3,19.657 3,18 L3,6 C3,4.343 4.343,3 6,3 Z M18,5 L6,5 C5.448,5 5,5.448 5,6 L5,18 C5,18.552 5.448,19 6,19 L18,19 C18.552,19 19,18.552 19,18 L19,6 C19,5.448 18.552,5 18,5 Z M12,6 C14.08,6 15.716,6.448 16.628,6.77 C17.519,7.087 17.953,7.962 17.855,8.79 L17.831,8.945 L17.109,12.555 C16.913,13.532 15.877,14.005 15.03,13.667 C14.385,13.409 13.33,13.063 12.28,13.007 L11.98,13 C10.847,13.005 9.668,13.388 8.97,13.667 C8.165,13.988 7.19,13.577 6.927,12.697 L6.891,12.554 L6.169,8.945 C5.995,8.073 6.425,7.106 7.372,6.771 C8.86,6.256 10.425,5.995 12,6 Z M12,8 C10.281,8 8.92,8.355 8.144,8.62 L8.744,11.617 C9.427,11.377 10.367,11.111 11.368,11.027 L12.106,9.553 C12.259,9.222 12.58,9 12.944,8.975 C13.307,8.949 13.656,9.124 13.854,9.43 C14.052,9.736 14.067,10.126 13.894,10.447 L13.542,11.152 C14.192,11.274 14.786,11.452 15.257,11.617 L15.857,8.62 C14.613,8.205 13.311,7.996 12,8 Z"/>
</svg>

