<svg xmlns="http://www.w3.org/2000/svg" width="24" height="24">
  <defs/>
  <path  d="M5,3 A2 2 0 0 0 3,5 L3,5.75 A1 1 0 0 0 5,5.75 L5,5 L5.75,5 A1 1 0 0 0 5.75,3 Z M8.75,3 A1 1 0 0 0 8.75,5 L10.25,5 A1 1 0 1 0 10.25,3 Z M13.25,3 A1 1 0 1 0 13.25,5 L14,5 L14,5.667 A1 1 0 1 0 16,5.667 L16,5 A2 2 0 0 0 14,3 Z M15.957,8.043 A1 1 0 0 0 14.057,8 L10,8 A2 2 0 0 0 8,10 L8,14.057 A1 1 0 0 0 8.043,15.957 A1 1 0 0 0 9.943,16 L14,16 A2 2 0 0 0 16,14 L16,9.943 A1 1 0 0 0 15.957,8.043 M10,10 L14,10 L14,14 L10,14 Z M5,8.75 A1 1 0 0 0 3,8.75 L3,10.25 A1 1 0 1 0 5,10.25 Z M5,13.25 A1 1 0 1 0 3,13.25 L3,14 A2 2 0 0 0 5,16 L5.667,16 A1 1 0 1 0 5.667,14 L5,14 Z M19,21 A2 2 0 0 0 21,19 L21,18.25 A1 1 0 1 0 19,18.25 L19,19 L18.25,19 A1 1 0 1 0 18.25,21 Z M15.25,21 A1 1 0 1 0 15.25,19 L13.75,19 A1 1 0 1 0 13.75,21 Z M10.75,21 A1 1 0 1 0 10.75,19 L10,19 L10,18.333 A1 1 0 1 0 8,18.333 L8,19 A2 2 0 0 0 10,21 Z M19,15.25 A1 1 0 1 0 21,15.25 L21,13.75 A1 1 0 1 0 19,13.75 Z M19,10.75 A1 1 0 1 0 21,10.75 L21,10 A2 2 0 0 0 19,8 L18.333,8 A1 1 0 1 0 18.333,10 L19,10 Z"/>
</svg>

