<svg xmlns="http://www.w3.org/2000/svg" width="24" height="24">
  <defs/>
  <path  d="M9,15 L9,14 L10,14 L10,15 Z"/>
  <path  d="M18,2 C19.105,2 20,2.895 20,4 L20,20 C20,21.105 19.105,22 18,22 L6,22 C4.895,22 4,21.105 4,20 L4,4 C4,2.895 4.895,2 6,2 Z M10.5,12 L8.5,12 C7.672,12 7,12.672 7,13.5 L7,15.5 C7,16.328 7.672,17 8.5,17 L10.5,17 C11.328,17 12,16.328 12,15.5 L12,13.5 C12,12.672 11.328,12 10.5,12 Z M10.134,6.763 L8.72,8.177 L8.366,7.823 C8.115,7.563 7.743,7.459 7.393,7.55 C7.044,7.642 6.771,7.915 6.679,8.264 C6.588,8.614 6.692,8.986 6.952,9.237 L7.836,10.121 C8.324,10.609 9.116,10.609 9.604,10.121 L11.548,8.177 C11.927,7.785 11.922,7.161 11.536,6.775 C11.15,6.389 10.526,6.384 10.134,6.763 Z M16,8 L14,8 C13.471,8.001 13.034,8.413 13.003,8.941 C12.972,9.47 13.358,9.931 13.883,9.993 L14,10 L16,10 C16.529,9.999 16.966,9.587 16.997,9.059 C17.028,8.53 16.642,8.069 16.117,8.007 Z M16,13.5 L14,13.5 C13.471,13.501 13.034,13.913 13.003,14.441 C12.972,14.97 13.358,15.431 13.883,15.493 L14,15.5 L16,15.5 C16.529,15.499 16.966,15.087 16.997,14.559 C17.028,14.03 16.642,13.569 16.117,13.507 Z"/>
</svg>

