<svg xmlns="http://www.w3.org/2000/svg" width="24" height="24">
  <defs/>
  <path  d="M4,4 C4,2.895 4.895,2 6,2 L18,2 C19.105,2 20,2.895 20,4 L20,20 C20,21.105 19.105,22 18,22 L6,22 C4.895,22 4,21.105 4,20 Z M18,4 L6,4 L6,20 L18,20 Z M7,13.5 C7,12.672 7.672,12 8.5,12 L10.5,12 C11.328,12 12,12.672 12,13.5 L12,15.5 C12,16.328 11.328,17 10.5,17 L8.5,17 C7.672,17 7,16.328 7,15.5 Z M11.548,6.763 C11.938,7.154 11.938,7.786 11.548,8.177 L9.603,10.12 C9.115,10.608 8.324,10.608 7.836,10.12 L6.952,9.236 C6.692,8.985 6.588,8.613 6.679,8.263 C6.771,7.914 7.044,7.641 7.393,7.549 C7.743,7.458 8.115,7.562 8.366,7.822 L8.72,8.176 L10.134,6.762 C10.524,6.372 11.158,6.372 11.548,6.762 Z M13,9 C13,8.448 13.448,8 14,8 L16,8 C16.552,8 17,8.448 17,9 C17,9.552 16.552,10 16,10 L14,10 C13.448,10 13,9.552 13,9 Z M13,14.5 C13,13.948 13.448,13.5 14,13.5 L16,13.5 C16.552,13.5 17,13.948 17,14.5 C17,15.052 16.552,15.5 16,15.5 L14,15.5 C13.448,15.5 13,15.052 13,14.5 Z M9,14 L9,15 L10,15 L10,14 Z"/>
</svg>

