<svg xmlns="http://www.w3.org/2000/svg" width="24" height="24">
  <defs/>
  <path  d="M17,3 A3 3 0 0 1 19.995,5.824 L20,6 L20,10.35 L20.594,10.086 C21.208,9.813 21.916,10.236 21.994,10.884 L22,11 L22,19 A2 2 0 0 1 20.15,20.995 L20,21 L4,21 A2 2 0 0 1 2.005,19.15 L2,19 L2,11 C2,10.328 2.675,9.853 3.297,10.045 L3.407,10.086 L4,10.35 L4,6 A3 3 0 0 1 6.824,3.005 L7,3 Z M17,5 L7,5 A1 1 0 0 0 6,6 L6,11.239 L12,13.906 L18,11.239 L18,6 A1 1 0 0 0 17,5 M12,8 A1 1 0 0 1 12.117,9.993 L12,10 L10,10 A1 1 0 0 1 9.883,8.007 L10,8 Z"/>
</svg>

