<svg xmlns="http://www.w3.org/2000/svg" width="24" height="24">
  <defs/>
  <path  d="M17,3 C18.589,3 19.902,4.238 19.995,5.824 L20,6 L20,10.35 L20.594,10.086 C21.208,9.813 21.916,10.236 21.994,10.884 L22,11 L22,19 C22,20.047 21.194,20.917 20.15,20.995 L20,21 L4,21 C2.953,21 2.083,20.194 2.005,19.15 L2,19 L2,11 C2,10.328 2.675,9.853 3.297,10.045 L3.407,10.086 L4,10.35 L4,6 C4,4.411 5.238,3.098 6.824,3.005 L7,3 Z M17,5 L7,5 C6.448,5 6,5.448 6,6 L6,11.239 L12,13.906 L18,11.239 L18,6 C18,5.448 17.552,5 17,5 Z M20,12.539 L12.812,15.733 C12.295,15.963 11.705,15.963 11.188,15.733 L4,12.54 L4,19 L20,19 Z M12,8 C12.529,8.001 12.966,8.413 12.997,8.941 C13.028,9.47 12.642,9.931 12.117,9.993 L12,10 L10,10 C9.471,9.999 9.034,9.587 9.003,9.059 C8.972,8.53 9.358,8.069 9.883,8.007 L10,8 Z"/>
</svg>

