<svg xmlns="http://www.w3.org/2000/svg" width="24" height="24">
  <defs/>
  <path  d="M12.868,5 C13.922,5 14.898,5.553 15.44,6.457 L17.607,10.068 L20.248,10.398 C21.249,10.523 22,11.374 22,12.383 L22,15 C22,16.321 21.136,17.488 19.872,17.872 C19.496,19.113 18.364,19.973 17.067,20.002 C15.77,20.031 14.602,19.223 14.17,18 L9.829,18 C9.396,19.222 8.228,20.028 6.933,19.999 C5.637,19.97 4.506,19.112 4.129,17.872 C2.864,17.488 2,16.322 2,15 L2,11.193 C2,10.938 2.048,10.686 2.143,10.45 L3.569,6.886 C4.024,5.747 5.127,5 6.354,5 Z M9,7 L6.354,7 C5.945,7 5.578,7.249 5.426,7.629 L4.477,10 L9,10 Z M12.868,7 L11,7 L11,10 L15.234,10 L13.725,7.486 C13.544,7.185 13.219,7 12.868,7 Z M7,16 C6.448,16 6,16.448 6,17 C6,17.552 6.448,18 7,18 C7.552,18 8,17.552 8,17 C8,16.448 7.552,16 7,16 Z M17,16 C16.448,16 16,16.448 16,17 C16,17.552 16.448,18 17,18 C17.552,18 18,17.552 18,17 C18,16.448 17.552,16 17,16 Z"/>
</svg>

