<svg xmlns="http://www.w3.org/2000/svg" width="24" height="24">
  <defs/>
  <path  d="M2,11.5 C2,6.643 6.656,3 12,3 C17.344,3 22,6.643 22,11.5 C22,16.357 17.344,20 12,20 C11.475,20 10.958,19.966 10.454,19.9 L7.554,21.832 C7.217,22.056 6.779,22.056 6.443,21.831 C6.107,21.606 5.94,21.2 6.019,20.804 L6.464,18.583 C3.828,17.09 2,14.517 2,11.5 Z M10,7 C9.448,7 9,7.448 9,8 L9,15 C9,15.552 9.448,16 10,16 C10.552,16 11,15.552 11,15 L11,12.5 C11,12.727 11.078,12.948 11.22,13.125 L13.22,15.625 C13.439,15.917 13.799,16.066 14.161,16.014 C14.522,15.963 14.826,15.719 14.955,15.378 C15.084,15.037 15.017,14.652 14.78,14.375 L13.28,12.5 L14.78,10.625 C15.104,10.193 15.027,9.582 14.606,9.244 C14.184,8.906 13.571,8.964 13.22,9.375 L11.22,11.875 C11.073,12.058 11,12.279 11,12.5 L11,8 C11,7.448 10.552,7 10,7 Z"/>
</svg>

