<svg xmlns="http://www.w3.org/2000/svg" width="24" height="24">
  <defs/>
  <path  d="M12,3 C17.344,3 22,6.643 22,11.5 C22,16.357 17.344,20 12,20 C11.475,20 10.958,19.966 10.454,19.9 L7.554,21.832 A1 1 0 0 1 6.019,20.804 L6.464,18.583 C3.828,17.09 2,14.517 2,11.5 C2,6.643 6.656,3 12,3 M12,5 C7.403,5 4,8.073 4,11.5 C4,13.835 5.544,15.975 8.017,17.135 A1 1 0 0 1 8.573,18.236 L8.454,18.829 L9.665,18.021 A1 1 0 0 1 10.385,17.867 C10.905,17.954 11.445,18 12,18 C16.597,18 20,14.927 20,11.5 C20,8.073 16.597,5 12,5 M10,7 A1 1 0 0 1 11,8 L11,12.485 L11.009,12.368 A0.997 0.997 0 0 1 11.219,11.875 L13.219,9.375 A1 1 0 0 1 14.781,10.625 L13.281,12.5 L14.781,14.375 A1 1 0 1 1 13.219,15.625 L11.219,13.125 A0.998 0.998 0 0 1 11,12.515 L11,15 A1 1 0 1 1 9,15 L9,8 A1 1 0 0 1 10,7"/>
</svg>

