<svg xmlns="http://www.w3.org/2000/svg" width="24" height="24">
  <defs/>
  <path  d="M19.63,4.368 L19.63,4.367 C21.836,6.575 22.161,10.04 20.405,12.62 C18.648,15.2 15.307,16.168 12.443,14.927 C12.417,14.916 12.403,14.914 12.401,14.914 L11.791,14.914 L11.791,16.492 C11.791,17.182 11.231,17.742 10.541,17.742 L8.963,17.742 L8.963,19.32 C8.963,20.01 8.403,20.57 7.713,20.57 L3.73,20.57 C3.172,20.57 2.72,20.118 2.72,19.56 L2.72,16.949 C2.72,16.551 2.878,16.169 3.16,15.888 L8.66,10.388 C8.673,10.35 8.675,10.309 8.666,10.27 C8.089,7.458 9.425,4.601 11.952,3.24 C14.48,1.88 17.601,2.338 19.63,4.368 Z M11.852,5.782 C10.781,6.851 10.32,8.388 10.626,9.87 C10.756,10.505 10.62,11.257 10.076,11.801 L4.72,17.156 L4.72,18.57 L6.963,18.57 L6.963,16.992 C6.963,16.302 7.523,15.742 8.213,15.742 L9.79,15.742 L9.79,14.164 C9.79,13.474 10.35,12.914 11.04,12.914 L12.403,12.914 C12.691,12.915 12.976,12.976 13.24,13.092 C15.32,13.996 17.748,13.21 18.904,11.26 C20.061,9.309 19.585,6.802 17.794,5.411 C16.003,4.02 13.456,4.179 11.852,5.782 Z M14.68,9.318 L14.68,9.317 C14.094,8.731 14.095,7.781 14.681,7.195 C15.266,6.61 16.216,6.61 16.802,7.196 C17.388,7.782 17.388,8.732 16.802,9.318 C16.216,9.904 15.266,9.904 14.68,9.318 Z"/>
</svg>

