<svg xmlns="http://www.w3.org/2000/svg" width="24" height="24">
  <defs/>
  <path  d="M10.438,4.368 A6.5 6.5 0 1 1 12.69,15.028 L12.421,14.918 L12.401,14.914 L11.791,14.914 L11.791,16.492 A1.25 1.25 0 0 1 10.669,17.736 L10.541,17.742 L8.963,17.742 L8.963,19.32 A1.25 1.25 0 0 1 7.841,20.564 L7.713,20.57 L3.73,20.57 A1.01 1.01 0 0 1 2.726,19.67 L2.72,19.56 L2.72,16.95 A1.5 1.5 0 0 1 3.06,15.999 L3.16,15.889 L8.66,10.388 L8.67,10.351 A0.25 0.25 0 0 0 8.666,10.27 A6.495 6.495 0 0 1 10.438,4.368 M14.68,7.196 A1.5 1.5 0 1 0 16.802,9.317 A1.5 1.5 0 0 0 14.68,7.197 Z"/>
</svg>

