<svg xmlns="http://www.w3.org/2000/svg" width="24" height="24">
  <defs/>
  <path  d="M18,4 C18.552,4 19,4.448 19,5 L19,5.5 C19,6.881 17.881,8 16.5,8 L13.5,8 C13.224,8 13,8.224 13,8.5 L13,9 L20,9 C21.105,9 22,9.895 22,11 L22,18 C22,19.105 21.105,20 20,20 L4,20 C2.895,20 2,19.105 2,18 L2,11 C2,9.895 2.895,9 4,9 L11,9 L11,8.5 C11,7.119 12.119,6 13.5,6 L16.5,6 C16.776,6 17,5.776 17,5.5 L17,5 C17,4.448 17.448,4 18,4 Z M4,11 L4,18 L20,18 L20,11 Z M6,13 C6,12.448 6.448,12 7,12 L17,12 C17.552,12 18,12.448 18,13 C18,13.552 17.552,14 17,14 L7,14 C6.448,14 6,13.552 6,13 Z M6,16 C6,15.448 6.448,15 7,15 L17,15 C17.552,15 18,15.448 18,16 C18,16.552 17.552,17 17,17 L7,17 C6.448,17 6,16.552 6,16 Z"/>
</svg>

