<svg xmlns="http://www.w3.org/2000/svg" width="24" height="24">
  <defs/>
  <path  d="M20,4 A2 2 0 0 1 21.995,5.85 L22,6 L22,18 A2 2 0 0 1 20.15,19.995 L20,20 L4,20 A2 2 0 0 1 2.005,18.15 L2,18 L2,6 A2 2 0 0 1 3.85,4.005 L4,4 Z M17,15 L7,15 A1 1 0 0 0 6.883,16.993 L7,17 L17,17 A1 1 0 0 0 17.117,15.007 Z M12.5,11 L11.5,11 A1 1 0 0 0 11.383,12.993 L11.5,13 L12.5,13 A1 1 0 0 0 12.617,11.007 Z M8,11 L7,11 A1 1 0 1 0 7,13 L8,13 A1 1 0 1 0 8,11 M17,11 L16,11 A1 1 0 1 0 16,13 L17,13 A1 1 0 1 0 17,11 M17,7 L16,7 A1 1 0 0 0 15.883,8.993 L16,9 L17,9 A1 1 0 0 0 17.117,7.007 Z M12.5,7 L11.5,7 A1 1 0 1 0 11.5,9 L12.5,9 A1 1 0 1 0 12.5,7 M8,7 L7,7 A1 1 0 0 0 7,9 L8,9 A1 1 0 0 0 8,7"/>
</svg>

