<svg xmlns="http://www.w3.org/2000/svg" width="24" height="24">
  <defs/>
  <path  d="M20,4 A2 2 0 0 1 21.995,5.85 L22,6 L22,18 A2 2 0 0 1 20.15,19.995 L20,20 L4,20 A2 2 0 0 1 2.005,18.15 L2,18 L2,6 A2 2 0 0 1 3.85,4.005 L4,4 Z M20,6 L4,6 L4,18 L20,18 Z M17,14 A1 1 0 0 1 17.117,15.993 L17,16 L7,16 A1 1 0 0 1 6.883,14.007 L7,14 Z M8,11 A1 1 0 1 1 8,13 L7,13 A1 1 0 1 1 7,11 Z M12.5,11 A1 1 0 0 1 12.617,12.993 L12.5,13 L11.5,13 A1 1 0 0 1 11.383,11.007 L11.5,11 Z M17,11 A1 1 0 1 1 17,13 L16,13 A1 1 0 1 1 16,11 Z M8,8 A1 1 0 0 1 8.117,9.993 L8,10 L7,10 A1 1 0 0 1 6.883,8.007 L7,8 Z M12.5,8 A1 1 0 1 1 12.5,10 L11.5,10 A1 1 0 1 1 11.5,8 Z M17,8 A1 1 0 0 1 17.117,9.993 L17,10 L16,10 A1 1 0 0 1 15.883,8.007 L16,8 Z"/>
</svg>

