<svg xmlns="http://www.w3.org/2000/svg" width="24" height="24">
  <defs/>
  <path  d="M12,2 C17.523,2 22,6.477 22,12 C22,17.523 17.523,22 12,22 C6.477,22 2,17.523 2,12 C2,6.477 6.477,2 12,2 Z M13.673,12.357 L13.674,12.357 C14.443,11.664 14.705,10.569 14.334,9.603 C13.963,8.637 13.035,8 12,8 C10.966,8 10.038,8.637 9.667,9.603 C9.296,10.569 9.558,11.664 10.327,12.357 C10.474,12.482 10.548,12.674 10.522,12.866 L10.097,15.418 C10.073,15.563 10.114,15.711 10.209,15.823 C10.304,15.935 10.443,16 10.59,16 L13.41,16 C13.557,16 13.696,15.935 13.791,15.823 C13.886,15.711 13.927,15.563 13.903,15.418 L13.478,12.866 C13.452,12.674 13.526,12.482 13.673,12.357 Z"/>
</svg>

