<svg xmlns="http://www.w3.org/2000/svg" width="24" height="24">
  <defs/>
  <path  d="M12,2 C17.523,2 22,6.477 22,12 C22,17.523 17.523,22 12,22 C6.477,22 2,17.523 2,12 C2,6.477 6.477,2 12,2 Z M4,12 C4,16.418 7.582,20 12,20 C16.418,20 20,16.418 20,12 C20,7.582 16.418,4 12,4 C7.582,4 4,7.582 4,12 Z M12,7 C13.408,7 14.679,7.843 15.226,9.141 C15.773,10.439 15.489,11.937 14.505,12.945 L14.986,15.836 C15.034,16.126 14.952,16.422 14.763,16.646 C14.573,16.871 14.294,17 14,17 L10,17 C9.706,17 9.427,16.87 9.237,16.646 C9.047,16.422 8.965,16.125 9.014,15.835 L9.495,12.945 C8.511,11.937 8.227,10.439 8.774,9.141 C9.321,7.843 10.592,7 12,7 Z M10.5,10.5 C10.499,10.992 10.74,11.453 11.145,11.733 C11.462,11.954 11.623,12.337 11.56,12.718 L11.18,15 L12.82,15 L12.439,12.718 C12.376,12.337 12.538,11.953 12.855,11.733 C13.44,11.327 13.659,10.565 13.379,9.911 C13.099,9.256 12.397,8.888 11.699,9.031 C11.001,9.174 10.5,9.788 10.5,10.5 Z"/>
</svg>

