<svg xmlns="http://www.w3.org/2000/svg" width="24" height="24">
  <defs/>
  <path  d="M8,21 L8,9 C8,6.795 8.687,4.88 9.436,3.518 C9.754,2.928 10.135,2.375 10.572,1.868 C10.939,1.454 11.408,1 12,1 C12.589,1 13.062,1.455 13.428,1.868 C13.788,2.274 14.188,2.837 14.564,3.518 C15.313,4.88 16,6.795 16,9 L16,21 C16.552,21 17,21.448 17,22 C17,22.552 16.552,23 16,23 L8,23 C7.448,23 7,22.552 7,22 C7,21.448 7.448,21 8,21 Z M10,16.207 C10,16.34 10.052,16.467 10.146,16.561 L13.793,20.207 C13.875,20.289 14,20.221 14,20.104 L14,17.793 C14,17.66 13.948,17.533 13.854,17.439 L11.768,15.354 C11.573,15.159 11.573,14.842 11.768,14.647 L13.854,12.561 C13.948,12.467 14,12.34 14,12.207 L14,9.793 C14,9.66 13.948,9.533 13.854,9.439 L11.06,6.646 C10.798,6.384 10.353,6.49 10.265,6.85 C10.159,7.28 10.079,7.735 10.036,8.207 C10.024,8.351 10.076,8.492 10.179,8.593 L12.232,10.646 C12.326,10.74 12.379,10.867 12.379,11 C12.379,11.133 12.326,11.26 12.232,11.354 L10.146,13.439 C10.052,13.533 10,13.66 10,13.793 Z"/>
</svg>

