<svg xmlns="http://www.w3.org/2000/svg" width="24" height="24">
  <defs/>
  <path  d="M8,9 C8,6.795 8.687,4.88 9.436,3.518 C9.754,2.928 10.135,2.375 10.572,1.868 C10.939,1.454 11.408,1 12,1 C12.588,1 13.062,1.455 13.428,1.868 C13.865,2.375 14.246,2.928 14.564,3.518 C15.313,4.88 16,6.795 16,9 L16,21 C16.552,21 17,21.448 17,22 C17,22.552 16.552,23 16,23 L8,23 C7.448,23 7,22.552 7,22 C7,21.448 7.448,21 8,21 Z M10.49,6.076 L14,9.586 L14,9 C14,7.205 13.437,5.62 12.811,4.482 C12.58,4.054 12.309,3.65 12,3.274 C11.762,3.555 11.473,3.964 11.189,4.482 C10.934,4.945 10.69,5.482 10.49,6.076 Z M14,20.366 C13.924,20.322 13.855,20.269 13.793,20.207 L10,16.414 L10,21 L14,21 Z M14,12.414 L11.414,15 L14,17.586 Z M10.019,8.433 C10.006,8.622 10,8.811 10,9 L10,13.586 L12.586,11 Z"/>
</svg>

