<svg xmlns="http://www.w3.org/2000/svg" width="24" height="24">
  <defs/>
  <path  d="M9,2 C9.243,2 9.465,2.086 9.638,2.23 L9.701,2.287 L9.867,2.462 L10.025,2.618 L10.171,2.753 L10.447,2.993 C10.482,3.023 10.517,3.053 10.555,3.083 L10.795,3.273 L10.925,3.373 L11.211,3.58 C11.311,3.65 11.417,3.722 11.528,3.795 L11.876,4.016 L12.255,4.239 C13.635,5.021 15.582,5.795 18.084,6.004 C18.449,6.035 18.768,6.264 18.915,6.599 C19.062,6.935 19.014,7.324 18.79,7.614 C17.47,9.309 16.762,11.661 16.386,13.856 L16.288,14.478 C16.243,14.786 16.204,15.09 16.171,15.386 L16.111,15.969 L16.065,16.528 L16.029,17.06 L16.005,17.56 L15.988,18.024 L15.979,18.448 L15.976,19 L15.982,19.438 C16.067,19.49 16.156,19.535 16.246,19.572 C16.394,19.639 16.558,19.662 16.719,19.64 C16.829,19.62 16.987,19.565 17.189,19.39 L17.293,19.293 C18.123,18.463 19.073,18.237 19.923,18.375 C20.597,18.493 21.219,18.813 21.707,19.293 C22.086,19.685 22.081,20.309 21.695,20.695 C21.309,21.081 20.685,21.086 20.293,20.707 C20.102,20.524 19.862,20.399 19.602,20.349 C19.4,20.317 19.136,20.333 18.816,20.606 L18.707,20.707 C18.209,21.205 17.654,21.507 17.062,21.61 C16.536,21.696 15.996,21.634 15.504,21.429 C15.187,21.299 14.888,21.13 14.612,20.926 L14.257,20.801 L13.676,20.576 L13.232,20.39 L12.901,20.243 L12.544,20.078 L12.163,19.894 L11.76,19.691 L11.338,19.468 L10.898,19.224 L10.443,18.96 L9.974,18.674 L9.735,18.524 L9.25,18.205 C8.999,18.036 8.751,17.863 8.507,17.685 L8.005,17.31 C5.987,15.762 3.893,13.648 2.315,10.832 L2.106,10.448 C1.867,9.973 2.042,9.395 2.503,9.131 C3.845,8.366 5.042,7.094 5.981,5.873 L6.285,5.468 C6.334,5.401 6.382,5.335 6.429,5.268 L6.702,4.878 L6.954,4.502 L7.184,4.146 L7.39,3.815 L7.572,3.511 L7.798,3.121 L8.04,2.678 L8.1,2.563 C8.171,2.416 8.277,2.289 8.409,2.193 C8.58,2.067 8.787,2 9,2 Z M15.504,9.474 C14.022,10.314 12.642,10.894 11.375,11.28 C11.598,11.966 11.845,12.644 12.115,13.313 C12.645,14.642 13.281,15.925 14.017,17.152 C14.125,15.037 14.477,12.1 15.505,9.474 Z M9.424,11.744 C8.483,11.904 7.623,11.957 6.85,11.937 C6.34,11.925 5.832,11.879 5.328,11.799 C7.348,14.497 9.877,16.321 11.883,17.464 C11.271,16.365 10.729,15.229 10.26,14.062 C9.952,13.3 9.673,12.527 9.424,11.744 Z M10.822,9.358 C12.055,8.98 13.434,8.387 14.948,7.486 C14.628,7.4 14.32,7.308 14.023,7.209 C12.631,6.752 11.313,6.095 10.109,5.259 C10.243,6.684 10.495,8.059 10.822,9.358 Z M8.203,6.228 C7.608,7.083 6.951,7.894 6.236,8.652 C5.879,9.028 5.504,9.385 5.11,9.722 C5.6,9.832 6.199,9.92 6.901,9.938 C7.483,9.952 8.141,9.918 8.873,9.808 C8.577,8.63 8.353,7.434 8.203,6.228 Z"/>
</svg>

