<svg xmlns="http://www.w3.org/2000/svg" width="24" height="24">
  <defs/>
  <path  d="M14.612,20.926 C13.652,20.608 6.08,17.9 2.117,10.471 C1.862,9.993 2.033,9.4 2.503,9.131 C5.704,7.305 8.083,2.6 8.105,2.554 C8.255,2.254 8.545,2.049 8.877,2.008 C9.21,1.967 9.541,2.096 9.759,2.35 C9.784,2.38 12.604,5.548 18.084,6.005 C18.449,6.036 18.768,6.265 18.915,6.6 C19.062,6.936 19.014,7.325 18.79,7.615 C16.026,11.168 15.944,17.6 15.982,19.439 C16.067,19.491 16.156,19.536 16.246,19.573 C16.394,19.64 16.558,19.663 16.719,19.641 C16.846,19.619 17.041,19.546 17.293,19.294 C18.123,18.464 19.073,18.238 19.923,18.377 C20.712,18.505 21.343,18.931 21.707,19.294 C22.086,19.686 22.081,20.31 21.695,20.696 C21.309,21.082 20.685,21.087 20.293,20.708 C20.102,20.525 19.862,20.401 19.602,20.351 C19.377,20.314 19.076,20.339 18.707,20.708 C18.209,21.206 17.654,21.508 17.062,21.611 C16.536,21.698 15.996,21.635 15.503,21.43 C15.186,21.3 14.887,21.131 14.612,20.927 Z M5.109,9.722 C4.858,9.935 4.6,10.138 4.336,10.328 C4.642,10.835 4.973,11.326 5.328,11.799 C5.832,11.879 6.34,11.925 6.85,11.937 C7.623,11.957 8.483,11.904 9.423,11.744 C9.673,12.527 9.952,13.3 10.26,14.062 C10.729,15.229 11.271,16.365 11.882,17.464 C12.685,17.922 13.405,18.27 13.975,18.522 C13.979,18.123 13.991,17.662 14.017,17.153 C13.281,15.926 12.645,14.642 12.115,13.313 C11.845,12.644 11.598,11.966 11.375,11.28 C12.642,10.895 14.022,10.315 15.505,9.475 C15.733,8.892 15.994,8.325 16.294,7.785 C15.824,7.701 15.375,7.6 14.947,7.486 C13.433,8.387 12.054,8.98 10.821,9.358 C10.494,8.059 10.242,6.683 10.108,5.259 C9.778,5.028 9.493,4.807 9.251,4.607 C8.978,5.064 8.625,5.624 8.202,6.228 C8.352,7.434 8.576,8.63 8.872,9.808 C8.219,9.908 7.559,9.952 6.899,9.938 C6.297,9.924 5.697,9.852 5.109,9.722 Z"/>
</svg>

