<svg xmlns="http://www.w3.org/2000/svg" width="24" height="24">
  <defs/>
  <path  d="M17.743,3.39 C18.329,2.805 19.277,2.805 19.863,3.39 L21.278,4.805 C21.863,5.391 21.863,6.339 21.278,6.925 L16.682,11.522 L18.61,13.45 C18.858,13.698 18.991,14.04 18.975,14.391 C18.959,14.741 18.796,15.069 18.526,15.294 L15.11,18.14 C11.823,20.879 7.353,21.723 3.294,20.37 C2.888,20.234 2.58,19.898 2.482,19.481 C2.383,19.064 2.507,18.626 2.81,18.323 Z M18.803,5.158 L5.16,18.801 C8.234,19.419 11.422,18.611 13.83,16.604 L16.615,14.284 L14.737,12.406 C14.249,11.918 14.249,11.126 14.737,10.638 L19.51,5.865 Z"/>
</svg>

