<svg xmlns="http://www.w3.org/2000/svg" width="24" height="24">
  <defs/>
  <path  d="M17,1.5 C17.773,1.5 18.419,2.087 18.493,2.856 L18.5,3 L18.5,21 C18.5,21.8 17.871,22.459 17.072,22.498 C16.273,22.536 15.584,21.94 15.507,21.144 L15.5,21 L15.5,19.5 L8.5,19.5 L8.5,21 C8.5,21.8 7.871,22.459 7.072,22.498 C6.273,22.536 5.584,21.94 5.507,21.144 L5.5,21 L5.5,3 C5.5,2.2 6.129,1.541 6.928,1.502 C7.727,1.464 8.416,2.06 8.493,2.856 L8.5,3 L8.5,4.5 L15.5,4.5 L15.5,3 C15.5,2.172 16.172,1.5 17,1.5 Z M15.5,7.5 L8.5,7.5 L8.5,8.5 L15.5,8.5 Z M15.5,11.5 L8.5,11.5 L8.5,12.5 L15.5,12.5 Z M15.5,15.5 L8.5,15.5 L8.5,16.5 L15.5,16.5 Z"/>
</svg>

