<svg xmlns="http://www.w3.org/2000/svg" width="24" height="24">
  <defs/>
  <path  d="M12,2 C12.507,2 12.934,2.38 12.993,2.883 L13,3 L13,4 L14,4 C14.507,4 14.934,4.38 14.993,4.883 L15,5 L16,5 C16.523,5 16.957,5.403 16.997,5.924 C17.693,6.202 18.338,6.538 18.919,6.925 C20.726,8.13 22,9.905 22,12 C22,14.095 20.726,15.87 18.919,17.075 C17.794,17.825 16.426,18.385 14.915,18.702 L14.5,18.782 L14.5,21 C14.499,21.529 14.087,21.966 13.559,21.997 C13.03,22.028 12.569,21.642 12.507,21.117 L12.5,21 L12.5,18.991 C12.334,18.997 12.168,19 12,19 L11.75,18.998 L11.5,18.991 L11.5,21 C11.499,21.529 11.087,21.966 10.559,21.997 C10.03,22.028 9.569,21.642 9.507,21.117 L9.5,21 L9.5,18.782 C7.825,18.485 6.308,17.892 5.081,17.075 C3.274,15.87 2,14.095 2,12 C2,9.905 3.274,8.13 5.081,6.925 C5.685,6.526 6.329,6.19 7.003,5.924 C7.039,5.448 7.406,5.064 7.88,5.007 L8,5 L9,5 C9,4.493 9.38,4.066 9.883,4.007 L10,4 L11,4 L11,3 C11,2.448 11.448,2 12,2 Z M12,7.16 C11.66,7.382 11.182,7.732 10.707,8.207 C9.817,9.098 9,10.36 9,12 C9,13.64 9.816,14.902 10.707,15.793 C11.101,16.185 11.534,16.535 12,16.839 C12.466,16.536 12.899,16.185 13.293,15.793 C14.183,14.902 15,13.64 15,12 C15,10.36 14.184,9.098 13.293,8.207 C12.899,7.815 12.466,7.465 12,7.161 Z M6.19,8.589 C4.74,9.556 4,10.781 4,12 C4,13.219 4.74,14.444 6.19,15.41 C6.962,15.913 7.805,16.295 8.692,16.544 C7.795,15.45 7,13.932 7,12 C7,10.069 7.794,8.551 8.691,7.457 C7.805,7.706 6.961,8.087 6.19,8.589 Z M15.308,7.456 C16.205,8.55 17,10.068 17,12 C17,13.932 16.205,15.45 15.308,16.544 C16.194,16.295 17.038,15.913 17.809,15.411 C19.26,14.444 20,13.219 20,12 C20,10.781 19.26,9.556 17.81,8.59 C17.038,8.087 16.195,7.705 15.308,7.456 Z"/>
</svg>

