<svg xmlns="http://www.w3.org/2000/svg" width="24" height="24">
  <defs/>
  <path  d="M12,2 C12.552,2 13,2.448 13,3 L13,4 L14,4 C14.552,4 15,4.448 15,5 C16.657,5 18,6.343 18,8 L18,16 C18,17.657 16.657,19 15,19 L14.46,19 C14.42,19.503 14.34,20.002 14.22,20.492 C14.194,20.598 14.165,20.703 14.134,20.807 L14.052,21.06 C14.009,21.192 13.956,21.32 13.895,21.445 C13.645,21.936 13.048,22.136 12.553,21.895 C12.062,21.65 11.86,21.056 12.1,20.563 C12.18,20.386 12.233,20.195 12.28,20.008 C12.342,19.758 12.408,19.422 12.451,19 L11.425,19 C11.338,19.59 11.159,20.162 10.895,20.697 C10.77,20.948 10.623,21.188 10.456,21.413 C10.38,21.516 10.297,21.614 10.208,21.706 C9.819,22.089 9.194,22.089 8.805,21.706 C8.416,21.323 8.406,20.698 8.783,20.303 C8.915,20.155 9.018,19.979 9.106,19.803 C9.207,19.599 9.314,19.333 9.39,19 L9,19 C7.343,19 6,17.657 6,16 L6,8 C6,6.343 7.343,5 9,5 C9,4.448 9.448,4 10,4 L11,4 L11,3 C11,2.448 11.448,2 12,2 Z M12,7 C11.448,7 11,7.448 11,8 L11,16 C11,16.552 11.448,17 12,17 C12.552,17 13,16.552 13,16 L13,8 C13,7.448 12.552,7 12,7 Z M15,7 L14.83,7 C14.94,7.313 15,7.65 15,8 L15,16 C15,16.35 14.94,16.687 14.83,17 L15,17 C15.552,17 16,16.552 16,16 L16,8 C16,7.448 15.552,7 15,7 Z M9.17,7 L9,7 C8.493,7 8.066,7.38 8.007,7.883 L8,8 L8,16 C8,16.507 8.38,16.934 8.883,16.993 L9,17 L9.17,17 C9.08,16.745 9.025,16.479 9.007,16.209 L9,16 L9,8 C9,7.72 9.038,7.448 9.11,7.19 Z"/>
</svg>

