<svg xmlns="http://www.w3.org/2000/svg" width="24" height="24">
  <defs/>
  <path  d="M12,2 C12.552,2 13,2.448 13,3 L13,4 L14,4 C14.552,4 15,4.448 15,5 C16.657,5 18,6.343 18,8 L18,16 C18,17.657 16.657,19 15,19 L14.46,19 C14.42,19.503 14.34,20.002 14.22,20.492 C14.194,20.598 14.165,20.703 14.134,20.807 L14.052,21.06 C14.04,21.095 14.028,21.129 14.015,21.164 L13.958,21.306 L13.894,21.447 C13.64,21.924 13.053,22.114 12.569,21.875 C12.084,21.636 11.877,21.055 12.101,20.563 C12.18,20.386 12.233,20.195 12.28,20.008 C12.342,19.758 12.408,19.422 12.451,19 L11.425,19 C11.338,19.59 11.159,20.162 10.895,20.697 C10.77,20.948 10.623,21.188 10.456,21.413 C10.38,21.516 10.297,21.614 10.208,21.706 C9.819,22.089 9.194,22.089 8.805,21.706 C8.416,21.323 8.406,20.698 8.783,20.303 C8.915,20.155 9.018,19.979 9.106,19.803 C9.207,19.599 9.314,19.333 9.39,19 L9,19 C7.343,19 6,17.657 6,16 L6,8 C6,6.343 7.343,5 9,5 C9,4.448 9.448,4 10,4 L11,4 L11,3 C11,2.448 11.448,2 12,2 Z M11,7 C9.953,7 9.083,7.806 9.005,8.85 L9,9 L9,15 C9,16.047 9.806,16.917 10.85,16.995 L11,17 Z M13,7 L13,17 C14.105,17 15,16.105 15,15 L15,9 C15,7.895 14.105,7 13,7 Z"/>
</svg>

