<svg xmlns="http://www.w3.org/2000/svg" width="24" height="24">
  <defs/>
  <path  d="M12,2 C12.552,2 13,2.448 13,3 L13,4 L14,4 C14.552,4 15,4.448 15,5 L16,5 C16.523,5 16.957,5.403 16.997,5.924 C17.671,6.19 18.315,6.526 18.919,6.925 C20.726,8.13 22,9.905 22,12 C22,14.095 20.726,15.87 18.919,17.075 C17.692,17.893 16.175,18.485 14.5,18.782 L14.5,21 C14.5,21.552 14.052,22 13.5,22 C12.948,22 12.5,21.552 12.5,21 L12.5,19 L11.5,19 L11.5,21 C11.5,21.552 11.052,22 10.5,22 C9.948,22 9.5,21.552 9.5,21 L9.5,18.782 C7.825,18.485 6.308,17.892 5.081,17.075 C3.274,15.87 2,14.095 2,12 C2,9.905 3.274,8.13 5.081,6.925 C5.685,6.526 6.329,6.19 7.003,5.924 C7.043,5.403 7.477,5 8,5 L9,5 C9,4.448 9.448,4 10,4 L11,4 L11,3 C11,2.448 11.448,2 12,2 Z M12.694,7 C13.263,7.406 13.792,7.865 14.272,8.373 C15.206,9.366 16,10.629 16,12 C16,13.371 15.206,14.634 14.272,15.627 C13.792,16.135 13.263,16.594 12.694,17 L15.726,17 L15.728,16.998 C16.794,15.866 18,14.128 18,12 C18,9.871 16.794,8.134 15.728,7.002 L15.726,7 Z M8.274,7 L8.272,7.002 C7.206,8.134 6,9.872 6,12 C6,14.129 7.206,15.866 8.272,16.998 L8.274,17 L11.306,17 C10.737,16.594 10.208,16.135 9.728,15.627 C8.794,14.634 8,13.371 8,12 C8,10.629 8.794,9.366 9.728,8.373 C10.208,7.865 10.737,7.406 11.306,7 Z"/>
</svg>

