<svg xmlns="http://www.w3.org/2000/svg" width="24" height="24">
  <defs/>
  <path  d="M19,4 C20.047,4 20.917,4.806 20.995,5.85 L21,6 L21,16 C21,17.047 20.194,17.917 19.15,17.995 L19,18 L5,18 C3.953,18 3.083,17.194 3.005,16.15 L3,16 L3,6 C3,4.953 3.806,4.083 4.85,4.005 L5,4 Z M19,6 L5,6 L5,16 L19,16 Z M21,19 C21.529,19.001 21.966,19.413 21.997,19.941 C22.028,20.47 21.642,20.931 21.117,20.993 L21,21 L3,21 C2.471,20.999 2.034,20.587 2.003,20.059 C1.972,19.53 2.358,19.069 2.883,19.007 L3,19 Z"/>
</svg>

