<svg xmlns="http://www.w3.org/2000/svg" width="24" height="24">
  <defs/>
  <path  d="M12,2 C17.523,2 22,6.477 22,12 C22,17.523 17.523,22 12,22 C6.477,22 2,17.523 2,12 C2,6.477 6.477,2 12,2 Z M14,12 L10,12 C9.448,12 9,12.448 9,13 L9,16 C9,17.657 10.343,19 12,19 C13.657,19 15,17.657 15,16 L15,13 C15,12.448 14.552,12 14,12 Z M10,7 L8,7 C7.448,7 7,7.448 7,8 C7,8.552 7.448,9 8,9 L10,9 C10.552,9 11,8.552 11,8 C11,7.448 10.552,7 10,7 Z M16,7 L14,7 C13.471,7.001 13.034,7.413 13.003,7.941 C12.972,8.47 13.358,8.931 13.883,8.993 L14,9 L16,9 C16.529,8.999 16.966,8.587 16.997,8.059 C17.028,7.53 16.642,7.069 16.117,7.007 Z"/>
</svg>

