<svg xmlns="http://www.w3.org/2000/svg" width="24" height="24">
  <defs/>
  <path  d="M2,12 C2,6.477 6.477,2 12,2 C17.523,2 22,6.477 22,12 C22,17.523 17.523,22 12,22 C6.477,22 2,17.523 2,12 Z M12,4 C7.582,4 4,7.582 4,12 C4,16.418 7.582,20 12,20 C16.418,20 20,16.418 20,12 C20,7.582 16.418,4 12,4 Z M9,12 C9,11.448 9.448,11 10,11 L14,11 C14.552,11 15,11.448 15,12 L15,15 C15,16.657 13.657,18 12,18 C10.343,18 9,16.657 9,15 Z M7,8 C7,7.448 7.448,7 8,7 L10,7 C10.552,7 11,7.448 11,8 C11,8.552 10.552,9 10,9 L8,9 C7.448,9 7,8.552 7,8 Z M13,8 C13,7.448 13.448,7 14,7 L16,7 C16.552,7 17,7.448 17,8 C17,8.552 16.552,9 16,9 L14,9 C13.448,9 13,8.552 13,8 Z M11,13 L11,15 C11,15.552 11.448,16 12,16 C12.552,16 13,15.552 13,15 L13,13 Z"/>
</svg>

