<svg xmlns="http://www.w3.org/2000/svg" width="24" height="24">
  <defs/>
  <path  d="M5.911,2.624 C6.275,2.449 6.709,2.51 7.01,2.779 C7.11,2.868 7.202,2.965 7.292,3.064 C7.443,3.231 7.642,3.471 7.834,3.772 C8.207,4.355 8.624,5.272 8.472,6.349 C8.321,7.426 7.668,8.193 7.148,8.65 C7.014,8.768 6.875,8.879 6.73,8.983 C7.046,9.873 6.923,10.744 6.755,11.346 C6.716,11.486 6.673,11.616 6.63,11.735 C7.416,12.283 7.823,13.079 8.033,13.675 C8.118,13.918 8.177,14.143 8.218,14.333 C9.083,14.458 9.766,14.907 10.213,15.291 C10.541,15.571 10.867,15.901 11.098,16.27 C11.652,17.157 11.713,18.266 11.425,19.206 C11.133,20.158 10.435,21.076 9.316,21.449 C8.812,21.619 8.264,21.366 8.067,20.872 C7.87,20.379 8.093,19.817 8.576,19.594 L8.684,19.551 C8.996,19.447 9.257,19.204 9.42,18.859 C8.96,19.109 8.397,19.299 7.75,19.299 C6.662,19.299 5.813,18.759 5.287,18.309 C5.061,18.115 4.852,17.903 4.662,17.674 C4.575,17.572 4.494,17.465 4.418,17.354 C4.195,17.017 4.196,16.579 4.42,16.243 L4.466,16.176 C4.268,16.108 4.077,16.021 3.896,15.916 C2.953,15.372 2.487,14.479 2.257,13.826 C2.175,13.591 2.109,13.35 2.06,13.106 L2.013,12.842 L1.989,12.648 C1.925,12.218 2.146,11.796 2.536,11.604 L2.584,11.582 C2.381,11.349 2.211,11.088 2.08,10.808 C1.62,9.822 1.751,8.824 1.937,8.157 C2.052,7.746 2.213,7.333 2.435,6.967 C2.643,6.624 3.047,6.437 3.442,6.497 L3.513,6.51 C3.478,6.225 3.481,5.937 3.521,5.653 C3.672,4.576 4.325,3.81 4.845,3.352 C5.165,3.069 5.525,2.811 5.911,2.624 Z M18.089,2.624 C18.476,2.817 18.834,3.062 19.155,3.352 C19.674,3.81 20.328,4.576 20.479,5.653 C20.521,5.952 20.519,6.24 20.487,6.51 L20.558,6.497 C20.957,6.438 21.354,6.623 21.565,6.967 C21.784,7.339 21.951,7.74 22.063,8.157 C22.249,8.824 22.38,9.822 21.92,10.808 C21.781,11.105 21.608,11.361 21.416,11.582 L21.463,11.605 C21.825,11.784 22.044,12.162 22.018,12.565 L22.011,12.648 L21.987,12.842 L21.94,13.106 C21.9,13.308 21.837,13.557 21.743,13.826 C21.513,14.479 21.047,15.372 20.104,15.916 C19.916,16.025 19.724,16.11 19.534,16.176 L19.58,16.243 C19.804,16.579 19.805,17.017 19.582,17.354 C19.508,17.466 19.424,17.572 19.338,17.674 C19.195,17.847 18.983,18.077 18.713,18.309 C18.188,18.759 17.338,19.299 16.25,19.299 C15.603,19.299 15.04,19.109 14.58,18.859 C14.743,19.204 15.004,19.447 15.316,19.551 L15.424,19.594 C15.907,19.817 16.13,20.379 15.933,20.872 C15.736,21.366 15.188,21.619 14.684,21.449 C13.565,21.076 12.867,20.158 12.575,19.206 C12.287,18.266 12.348,17.157 12.902,16.27 C13.133,15.901 13.459,15.571 13.787,15.291 C14.234,14.907 14.917,14.458 15.782,14.333 C15.83,14.11 15.891,13.89 15.967,13.675 C16.177,13.079 16.583,12.283 17.37,11.735 C17.327,11.616 17.284,11.486 17.245,11.346 C17.077,10.744 16.954,9.873 17.27,8.983 C17.14,8.89 16.997,8.779 16.852,8.65 C16.332,8.193 15.679,7.426 15.528,6.349 C15.376,5.272 15.793,4.355 16.166,3.772 C16.358,3.471 16.557,3.231 16.708,3.064 C16.798,2.965 16.89,2.868 16.99,2.779 C17.291,2.51 17.725,2.449 18.089,2.624 Z"/>
</svg>

