<svg xmlns="http://www.w3.org/2000/svg" width="24" height="24">
  <defs/>
  <path  d="M12.528,1.118 C12.853,0.944 13.248,0.963 13.555,1.168 L19.109,4.871 C19.666,5.242 20,5.866 20,6.535 L20,17 C20,17.369 19.797,17.708 19.472,17.882 C19.147,18.056 18.752,18.037 18.445,17.832 L16,16.202 L16,19 C16,19.369 15.797,19.708 15.472,19.882 C15.147,20.056 14.752,20.037 14.445,19.832 L12,18.202 L12,21 C12,21.369 11.797,21.708 11.472,21.882 C11.147,22.056 10.752,22.037 10.445,21.832 L4.891,18.13 C4.334,17.759 4,17.134 4,16.465 L4,6 C4,5.631 4.203,5.292 4.528,5.118 C4.853,4.944 5.248,4.963 5.555,5.168 L8,6.798 L8,4 C8,3.631 8.203,3.292 8.528,3.118 C8.853,2.944 9.248,2.963 9.555,3.168 L12,4.798 L12,2 C12,1.631 12.203,1.292 12.528,1.118 Z M6,7.87 L6,16.466 L10,19.132 L10,10.536 Z M14,6.131 L15.11,6.871 C15.666,7.242 16,7.866 16,8.535 L16,13.798 L18,15.132 L18,6.535 L14,3.87 Z M10,8.131 L11.11,8.871 C11.666,9.242 12,9.866 12,10.535 L12,15.798 L14,17.131 L14,8.535 L10,5.87 Z"/>
</svg>

