<svg xmlns="http://www.w3.org/2000/svg" width="24" height="24">
  <defs/>
  <path  d="M12.01,2.378 C12.717,2.237 13.45,2.407 14.022,2.846 C14.594,3.285 14.948,3.949 14.995,4.668 L15,4.829 L15,5.38 C16.503,5.08 17.9,6.172 17.995,7.668 L18,7.829 L18,8.379 C19.503,8.079 20.9,9.172 20.995,10.668 L21,10.83 L21,17.36 C21,18.724 20.08,19.916 18.761,20.262 L18.588,20.302 L11.99,21.622 C11.283,21.763 10.55,21.593 9.978,21.154 C9.406,20.715 9.052,20.051 9.005,19.332 L9,19.17 L9,18.62 L8.99,18.622 C8.283,18.763 7.55,18.593 6.978,18.154 C6.406,17.715 6.052,17.051 6.005,16.332 L6,16.17 L6,15.62 L5.99,15.622 C5.283,15.763 4.55,15.593 3.978,15.154 C3.406,14.715 3.052,14.051 3.005,13.332 L3,13.17 L3,6.64 C3,5.276 3.919,4.084 5.238,3.738 L5.412,3.698 Z M18.402,10.339 L11.804,11.659 C11.337,11.752 11,12.163 11,12.639 L11,19.17 C11,19.32 11.067,19.462 11.183,19.556 C11.299,19.651 11.451,19.689 11.598,19.66 L18.196,18.34 C18.663,18.247 19,17.836 19,17.36 L19,10.83 C19,10.68 18.933,10.538 18.817,10.444 C18.701,10.349 18.549,10.311 18.402,10.34 Z M12.402,4.34 L5.804,5.66 C5.337,5.753 5,6.164 5,6.64 L5,13.171 C5,13.321 5.067,13.463 5.183,13.557 C5.299,13.652 5.451,13.69 5.598,13.661 L6,13.58 L6,9.64 C6,8.21 7.009,6.978 8.412,6.698 L13,5.78 L13,4.83 C13,4.68 12.933,4.538 12.817,4.444 C12.701,4.349 12.549,4.311 12.402,4.34 Z M15.402,7.34 L8.804,8.66 C8.337,8.753 8,9.164 8,9.64 L8,16.171 C8,16.321 8.067,16.463 8.183,16.557 C8.299,16.652 8.451,16.69 8.598,16.661 L9,16.58 L9,12.64 C9,11.21 10.009,9.978 11.412,9.698 L16,8.78 L16,7.83 C16,7.68 15.933,7.538 15.817,7.444 C15.701,7.349 15.549,7.311 15.402,7.34 Z"/>
</svg>

