<svg xmlns="http://www.w3.org/2000/svg" width="24" height="24">
  <defs/>
  <path  d="M5.555,5.168 L11.109,8.871 A2 2 0 0 1 12,10.535 L12,21 A1 1 0 0 1 10.445,21.832 L4.891,18.13 A2 2 0 0 1 4,16.465 L4,6 A1 1 0 0 1 5.555,5.168 M8.528,3.118 A1 1 0 0 1 9.555,3.168 L15.109,6.871 A2 2 0 0 1 16,8.535 L16,19 A1 1 0 0 1 14.445,19.832 L13.5,19.202 L13.5,10.535 A3.5 3.5 0 0 0 11.941,7.623 L8,4.995 L8,4 A1 1 0 0 1 8.528,3.118 M13.555,1.168 L19.109,4.871 A2 2 0 0 1 20,6.535 L20,17 A1 1 0 0 1 18.445,17.832 L17.5,17.202 L17.5,8.535 A3.5 3.5 0 0 0 15.941,5.623 L12,2.995 L12,2 A1 1 0 0 1 13.555,1.168"/>
</svg>

