<svg xmlns="http://www.w3.org/2000/svg" width="24" height="24">
  <defs/>
  <path  d="M18.01,9.378 A2.5 2.5 0 0 1 20.995,11.668 L21,11.83 L21,17.36 A3 3 0 0 1 18.761,20.262 L18.588,20.302 L12.99,21.422 A2.5 2.5 0 0 1 10.005,19.132 L10,18.97 L10,13.44 A3 3 0 0 1 12.239,10.538 L12.412,10.498 Z M14.51,6.079 A2.5 2.5 0 0 1 17.495,8.369 L17.5,8.531 L17.5,8.663 L12.216,9.72 A4 4 0 0 0 9.006,13.439 L9,13.642 L9,18.172 A2.502 2.502 0 0 1 6.505,15.839 L6.5,15.671 L6.5,10.141 A3 3 0 0 1 8.738,7.239 L8.912,7.199 Z M11.01,2.579 A2.5 2.5 0 0 1 13.995,4.868 L14,5.03 L14,5.162 L8.716,6.218 A4 4 0 0 0 5.506,9.938 L5.5,10.141 L5.5,14.671 A2.502 2.502 0 0 1 3.005,12.338 L3,12.17 L3,6.64 A3 3 0 0 1 5.238,3.738 L5.412,3.698 Z"/>
</svg>

