<svg xmlns="http://www.w3.org/2000/svg" width="24" height="24">
  <defs/>
  <path  d="M19,3 C20.105,3 21,3.895 21,5 L21,19 C21,20.105 20.105,21 19,21 L10,21 L10,3 Z M8,3 L8,21 L5,21 C3.895,21 3,20.105 3,19 L3,5 C3,3.895 3.895,3 5,3 Z M17,7 L14,7 C13.448,7 13,7.448 13,8 C13,8.552 13.448,9 14,9 L17,9 C17.552,9 18,8.552 18,8 C18,7.448 17.552,7 17,7 Z M17,15 L14,15 C13.448,15 13,15.448 13,16 C13,16.552 13.448,17 14,17 L17,17 C17.552,17 18,16.552 18,16 C18,15.448 17.552,15 17,15 Z M17,11 L14,11 C13.471,11.001 13.034,11.413 13.003,11.941 C12.972,12.47 13.358,12.931 13.883,12.993 L14,13 L17,13 C17.552,13 18,12.552 18,12 C18,11.448 17.552,11 17,11 Z"/>
</svg>

