<svg xmlns="http://www.w3.org/2000/svg" width="24" height="24">
  <defs/>
  <path  d="M19,3 C20.105,3 21,3.895 21,5 L21,19 C21,20.105 20.105,21 19,21 L5,21 C3.895,21 3,20.105 3,19 L3,5 C3,3.895 3.895,3 5,3 Z M19,5 L10,5 L10,19 L19,19 Z M8,5 L5,5 L5,19 L8,19 Z M14.793,9.172 C15.166,8.8 15.765,8.782 16.16,9.13 C16.556,9.479 16.613,10.075 16.29,10.492 L16.207,10.586 L14.793,12 L16.207,13.414 C16.583,13.787 16.604,14.388 16.254,14.786 C15.903,15.183 15.304,15.238 14.887,14.912 L14.793,14.828 L12.672,12.708 C12.315,12.352 12.279,11.786 12.588,11.388 L12.672,11.293 Z"/>
</svg>

