<svg xmlns="http://www.w3.org/2000/svg" width="24" height="24">
  <defs/>
  <path  d="M19,3 C20.105,3 21,3.895 21,5 L21,19 C21,20.105 20.105,21 19,21 L5,21 C3.895,21 3,20.105 3,19 L3,5 C3,3.895 3.895,3 5,3 Z M8,5 L5,5 L5,19 L8,19 Z M12.793,9.172 C12.403,9.562 12.403,10.196 12.793,10.586 L14.207,12 L12.793,13.414 C12.533,13.665 12.429,14.037 12.52,14.387 C12.612,14.736 12.885,15.009 13.234,15.101 C13.584,15.192 13.956,15.088 14.207,14.828 L16.328,12.708 C16.516,12.52 16.621,12.266 16.621,12 C16.621,11.735 16.516,11.481 16.328,11.293 L14.208,9.172 C14.02,8.984 13.766,8.879 13.5,8.879 C13.235,8.879 12.981,8.984 12.793,9.172 Z"/>
</svg>

