<svg xmlns="http://www.w3.org/2000/svg" width="24" height="24">
  <defs/>
  <path  d="M19,3 C20.105,3 21,3.895 21,5 L21,19 C21,20.105 20.105,21 19,21 L5,21 C3.895,21 3,20.105 3,19 L3,5 C3,3.895 3.895,3 5,3 Z M19,5 L5,5 L5,8 L19,8 Z M9.172,12.793 C8.782,13.184 8.782,13.816 9.172,14.207 L11.292,16.328 C11.48,16.516 11.734,16.621 12,16.621 C12.265,16.621 12.519,16.516 12.707,16.328 L14.828,14.208 C15.219,13.818 15.219,13.184 14.828,12.793 C14.438,12.403 13.805,12.403 13.414,12.793 L12,14.207 L10.586,12.793 C10.196,12.403 9.562,12.403 9.172,12.793 Z"/>
</svg>

