<svg xmlns="http://www.w3.org/2000/svg" width="24" height="24">
  <defs/>
  <path  d="M19,3 C20.105,3 21,3.895 21,5 L21,19 C21,20.105 20.105,21 19,21 L5,21 C3.895,21 3,20.105 3,19 L3,5 C3,3.895 3.895,3 5,3 Z M19,5 L16,5 L16,19 L19,19 Z M7.793,9.172 C7.403,9.562 7.403,10.196 7.793,10.586 L9.207,12 L7.793,13.414 C7.533,13.665 7.429,14.037 7.52,14.387 C7.612,14.736 7.885,15.009 8.234,15.101 C8.584,15.192 8.956,15.088 9.207,14.828 L11.328,12.708 C11.516,12.52 11.621,12.266 11.621,12 C11.621,11.735 11.516,11.481 11.328,11.293 L9.208,9.172 C9.02,8.984 8.766,8.879 8.5,8.879 C8.235,8.879 7.981,8.984 7.793,9.172 Z"/>
</svg>

