<svg xmlns="http://www.w3.org/2000/svg" width="24" height="24">
  <defs/>
  <path  d="M3,5 C3,3.895 3.895,3 5,3 L19,3 C20.105,3 21,3.895 21,5 L21,19 C21,20.105 20.105,21 19,21 L5,21 C3.895,21 3,20.105 3,19 Z M5,5 L5,19 L8,19 L8,5 Z M16.207,10.586 C16.467,10.335 16.571,9.963 16.48,9.613 C16.388,9.264 16.115,8.991 15.766,8.899 C15.416,8.808 15.044,8.912 14.793,9.172 L12.672,11.293 C12.484,11.481 12.379,11.735 12.379,12 C12.379,12.266 12.484,12.52 12.672,12.708 L14.793,14.828 C15.185,15.207 15.809,15.202 16.195,14.816 C16.581,14.43 16.586,13.806 16.207,13.414 L14.793,12 Z"/>
</svg>

