<svg xmlns="http://www.w3.org/2000/svg" width="24" height="24">
  <defs/>
  <path  d="M19,3 C20.105,3 21,3.895 21,5 L21,19 C21,20.105 20.105,21 19,21 L5,21 C3.895,21 3,20.105 3,19 L3,5 C3,3.895 3.895,3 5,3 Z M19,5 L5,5 L5,8 L19,8 Z M13.414,16.207 C13.665,16.467 14.037,16.571 14.387,16.48 C14.736,16.388 15.009,16.115 15.101,15.766 C15.192,15.416 15.088,15.044 14.828,14.793 L12.707,12.672 C12.519,12.484 12.265,12.379 12,12.379 C11.734,12.379 11.48,12.484 11.292,12.672 L9.172,14.793 C8.793,15.185 8.798,15.809 9.184,16.195 C9.57,16.581 10.194,16.586 10.586,16.207 L12,14.793 Z"/>
</svg>

