<svg xmlns="http://www.w3.org/2000/svg" width="24" height="24">
  <defs/>
  <path  d="M19,3 C20.105,3 21,3.895 21,5 L21,19 C21,20.105 20.105,21 19,21 L5,21 C3.895,21 3,20.105 3,19 L3,5 C3,3.895 3.895,3 5,3 Z M19,5 L10,5 L10,19 L19,19 Z M8,5 L5,5 L5,19 L8,19 Z M16,11 C16.552,11 17,11.448 17,12 C17,12.552 16.552,13 16,13 L13,13 C12.448,13 12,12.552 12,12 C12,11.448 12.448,11 13,11 Z M16,15 C16.529,15.001 16.966,15.413 16.997,15.941 C17.028,16.47 16.642,16.931 16.117,16.993 L16,17 L13,17 C12.471,16.999 12.034,16.587 12.003,16.059 C11.972,15.53 12.358,15.069 12.883,15.007 L13,15 Z M16,7 C16.529,7.001 16.966,7.413 16.997,7.941 C17.028,8.47 16.642,8.931 16.117,8.993 L16,9 L13,9 C12.471,8.999 12.034,8.587 12.003,8.059 C11.972,7.53 12.358,7.069 12.883,7.007 L13,7 Z"/>
</svg>

