<svg xmlns="http://www.w3.org/2000/svg" width="24" height="24">
  <defs/>
  <path  d="M19,3 C20.105,3 21,3.895 21,5 L21,19 C21,20.105 20.105,21 19,21 L5,21 C3.895,21 3,20.105 3,19 L3,5 C3,3.895 3.895,3 5,3 Z M19,5 L16,5 L16,19 L19,19 Z M11.207,9.172 C10.851,8.815 10.285,8.779 9.887,9.088 L9.793,9.172 L7.672,11.292 C7.315,11.648 7.279,12.214 7.588,12.612 L7.672,12.707 L9.793,14.828 C10.166,15.2 10.765,15.218 11.16,14.87 C11.556,14.521 11.613,13.925 11.29,13.508 L11.207,13.414 L9.793,12 L11.207,10.586 C11.597,10.196 11.597,9.562 11.207,9.172 Z"/>
</svg>

