<svg xmlns="http://www.w3.org/2000/svg" width="24" height="24">
  <defs/>
  <path  d="M19,3 C20.105,3 21,3.895 21,5 L21,19 C21,20.105 20.105,21 19,21 L5,21 C3.895,21 3,20.105 3,19 L3,5 C3,3.895 3.895,3 5,3 Z M19,16 L5,16 L5,19 L19,19 Z M12.707,7.672 C12.351,7.315 11.785,7.279 11.387,7.588 L11.293,7.672 L9.172,9.793 C8.8,10.166 8.782,10.765 9.13,11.16 C9.479,11.556 10.075,11.613 10.492,11.29 L10.586,11.207 L12,9.793 L13.414,11.207 C13.787,11.583 14.388,11.604 14.786,11.254 C15.183,10.903 15.238,10.304 14.912,9.887 L14.828,9.793 Z"/>
</svg>

