<svg xmlns="http://www.w3.org/2000/svg" width="24" height="24">
  <defs/>
  <path  d="M19,3 C20.105,3 21,3.895 21,5 L21,19 C21,20.105 20.105,21 19,21 L5,21 C3.895,21 3,20.105 3,19 L3,5 C3,3.895 3.895,3 5,3 Z M19,19 L19,16 L5,16 L5,19 Z M13.414,7.793 L12,9.207 L10.586,7.793 C10.194,7.414 9.57,7.419 9.184,7.805 C8.798,8.191 8.793,8.815 9.172,9.207 L11.292,11.328 C11.48,11.516 11.734,11.621 12,11.621 C12.265,11.621 12.519,11.516 12.707,11.328 L14.828,9.208 C15.219,8.818 15.219,8.184 14.828,7.793 C14.438,7.403 13.805,7.403 13.414,7.793 Z"/>
</svg>

