<svg xmlns="http://www.w3.org/2000/svg" width="24" height="24">
  <defs/>
  <path  d="M19,3 C20.047,3 20.917,3.806 20.995,4.85 L21,5 L21,19 C21,20.047 20.194,20.917 19.15,20.995 L19,21 L5,21 C3.953,21 3.083,20.194 3.005,19.15 L3,19 L3,5 C3,3.953 3.806,3.083 4.85,3.005 L5,3 Z M19,10 L5,10 L5,19 L19,19 Z M19,5 L5,5 L5,8 L19,8 Z M16,12 C16.552,12 17,12.448 17,13 C17,13.552 16.552,14 16,14 L8,14 C7.448,14 7,13.552 7,13 C7,12.448 7.448,12 8,12 Z M16,15 C16.529,15.001 16.966,15.413 16.997,15.941 C17.028,16.47 16.642,16.931 16.117,16.993 L16,17 L8,17 C7.471,16.999 7.034,16.587 7.003,16.059 C6.972,15.53 7.358,15.069 7.883,15.007 L8,15 Z"/>
</svg>

