<svg xmlns="http://www.w3.org/2000/svg" width="24" height="24">
  <defs/>
  <path  d="M17.11,3.006 C17.413,3.039 17.683,3.209 17.846,3.466 C21.046,8.533 20.563,13.912 17.89,17.3 C16.555,18.991 14.68,20.171 12.493,20.52 C10.585,20.823 8.5,20.484 6.399,19.384 C6.206,19.993 6.069,20.584 5.99,21.141 C5.91,21.686 5.405,22.063 4.86,21.986 C4.315,21.908 3.935,21.404 4.01,20.859 C4.149,19.931 4.384,19.02 4.712,18.141 C3.175,16.451 2.755,14.313 2.942,12.403 C3.148,10.296 4.109,8.275 5.36,7.232 C7.032,5.839 8.788,5.267 10.312,4.987 C10.978,4.872 11.649,4.784 12.322,4.726 C12.801,4.678 13.29,4.646 13.758,4.53 C14.451,4.362 15.113,4.087 15.72,3.714 C15.842,3.638 15.959,3.545 16.076,3.452 C16.385,3.207 16.696,2.96 17.11,3.006 Z M12.447,11.894 C12.769,11.736 12.982,11.417 13.005,11.059 C13.028,10.7 12.856,10.357 12.556,10.16 C12.256,9.963 11.873,9.942 11.553,10.105 C8.945,11.409 6.947,13.664 5.648,16.069 C5.906,16.49 6.226,16.869 6.598,17.194 C6.783,17.31 6.967,17.417 7.15,17.518 C8.262,15.251 10.08,13.078 12.447,11.894 Z"/>
</svg>

