<svg xmlns="http://www.w3.org/2000/svg" width="24" height="24">
  <defs/>
  <path  d="M4.712,18.141 C3.175,16.451 2.755,14.313 2.942,12.403 C3.148,10.296 4.109,8.275 5.36,7.232 C7.032,5.839 8.788,5.267 10.312,4.987 C11.054,4.86 11.802,4.765 12.552,4.704 C12.956,4.666 13.365,4.628 13.758,4.53 C14.586,4.323 15.403,3.987 16.076,3.453 C16.384,3.208 16.696,2.96 17.111,3.006 C17.413,3.04 17.684,3.209 17.846,3.466 C21.046,8.533 20.563,13.912 17.89,17.3 C16.555,18.991 14.68,20.171 12.493,20.52 C10.585,20.823 8.5,20.484 6.399,19.384 C6.214,19.958 6.077,20.546 5.989,21.142 C5.911,21.689 5.404,22.069 4.858,21.99 C4.311,21.912 3.931,21.406 4.009,20.859 C4.133,19.994 4.369,19.073 4.712,18.141 Z M10.672,6.954 L10.673,6.954 C9.368,7.194 7.968,7.661 6.64,8.768 C5.893,9.392 5.102,10.869 4.933,12.597 C4.815,13.798 5.007,15.019 5.648,16.069 C6.947,13.664 8.945,11.409 11.553,10.105 C12.047,9.858 12.648,10.059 12.895,10.553 C13.142,11.047 12.941,11.648 12.447,11.895 C10.08,13.078 8.262,15.251 7.15,17.518 C8.98,18.52 10.697,18.78 12.18,18.544 C13.831,18.282 15.272,17.39 16.32,16.062 C18.263,13.598 18.871,9.581 16.693,5.464 C15.931,5.92 15.105,6.259 14.243,6.47 C13.731,6.598 13.203,6.65 12.679,6.7 C12.037,6.763 11.376,6.825 10.672,6.954 Z"/>
</svg>

