<svg xmlns="http://www.w3.org/2000/svg" width="24" height="24">
  <defs/>
  <path  d="M18.88,7 C20.535,7 21.902,8.292 21.996,9.944 L22.001,10.121 L22.001,10.322 C22.002,10.912 21.846,11.491 21.547,12 C21.799,12.429 21.957,12.921 21.993,13.45 L22.001,13.678 L22.001,13.878 C22.002,15.103 21.285,16.216 20.169,16.722 C19.053,17.228 17.745,17.035 16.823,16.227 L16.673,16.086 L13.293,12.707 C12.937,12.35 12.902,11.785 13.211,11.387 L13.294,11.293 L16.673,7.914 C17.258,7.329 18.052,7 18.879,7 Z M10.321,2 L10.322,2 C10.911,1.999 11.49,2.156 11.999,2.454 C12.441,2.195 12.938,2.042 13.449,2.008 L13.677,2 L13.877,2 C15.102,1.999 16.215,2.716 16.721,3.832 C17.227,4.948 17.034,6.256 16.226,7.178 L16.085,7.328 L12.706,10.708 C12.349,11.064 11.784,11.099 11.386,10.79 L11.292,10.707 L7.913,7.328 C7.043,6.458 6.765,5.158 7.204,4.009 C7.642,2.859 8.715,2.075 9.943,2.005 L10.121,2 Z M12.707,13.293 L16.086,16.672 C16.979,17.565 17.246,18.907 16.763,20.073 C16.28,21.24 15.141,22 13.879,22 L13.678,22 C13.088,22.001 12.509,21.844 12,21.546 C11.491,21.844 10.912,22.001 10.322,22 L10.122,22 C8.859,22.001 7.721,21.24 7.238,20.074 C6.754,18.907 7.021,17.565 7.914,16.672 L11.293,13.292 C11.684,12.902 12.316,12.902 12.707,13.292 Z M5.12,7 L5.121,7 C5.881,7 6.61,7.276 7.177,7.773 L7.327,7.914 L10.707,11.293 C11.063,11.65 11.098,12.215 10.789,12.613 L10.706,12.707 L7.327,16.086 C6.457,16.955 5.157,17.232 4.008,16.794 C2.859,16.356 2.075,15.284 2.004,14.056 L2,13.879 L2,13.678 C2,13.063 2.167,12.49 2.454,12 C2.195,11.558 2.042,11.061 2.008,10.55 L2,10.323 L2,10.123 C1.999,8.399 3.396,7.001 5.12,7 Z"/>
</svg>

