<svg xmlns="http://www.w3.org/2000/svg" width="24" height="24">
  <defs/>
  <path  d="M16.5,3.206 A5.002 5.002 0 0 1 18.716,9.2 A5.002 5.002 0 0 1 14.79,17.955 C14.834,18.325 14.84,18.709 14.81,19.082 C14.735,19.967 14.434,20.979 13.707,21.706 A1 1 0 0 1 12.21,20.386 L12.293,20.292 C12.566,20.019 12.765,19.532 12.816,18.916 C12.826,18.804 12.829,18.694 12.828,18.588 A5 5 0 0 1 5.284,12.798 A5.002 5.002 0 0 1 10.201,4.283 A5.002 5.002 0 0 1 16.501,3.205 Z M11.498,5.88 L11.402,6.036 A1 1 0 0 1 10.036,6.402 A3 3 0 1 0 7.036,11.598 A1 1 0 0 1 7.402,12.964 A3 3 0 0 0 12.598,15.964 A1 1 0 0 1 13.964,15.598 A3 3 0 0 0 17.12,10.498 L16.964,10.402 A1 1 0 0 1 16.598,9.036 A3 3 0 0 0 11.498,5.88 M12,9.5 A1.5 1.5 0 1 1 12,12.5 A1.5 1.5 0 0 1 12,9.5"/>
</svg>

