<svg xmlns="http://www.w3.org/2000/svg" width="24" height="24">
  <defs/>
  <path  d="M17,18.879 C17,20.603 15.603,22 13.879,22 C13.215,22 12.581,21.887 12,21.546 C11.42,21.886 10.785,22 10.121,22 C8.859,22 7.72,21.24 7.237,20.073 C6.754,18.907 7.021,17.565 7.914,16.672 L11.293,13.292 C11.684,12.902 12.316,12.902 12.707,13.292 L16.086,16.672 C16.671,17.257 17,18.051 17,18.879 Z M2,13.879 C2,13.215 2.114,12.58 2.454,12 C2.113,11.419 2,10.785 2,10.121 C2,8.859 2.76,7.72 3.927,7.237 C5.093,6.754 6.435,7.021 7.328,7.914 L10.708,11.293 C11.098,11.684 11.098,12.316 10.708,12.707 L7.328,16.086 C6.435,16.979 5.093,17.246 3.927,16.763 C2.76,16.28 2,15.141 2,13.879 Z M22,10.121 C22,10.785 21.886,11.42 21.546,12 C21.887,12.581 22,13.215 22,13.879 C22,15.141 21.24,16.28 20.073,16.763 C18.907,17.246 17.565,16.979 16.672,16.086 L13.292,12.707 C12.902,12.316 12.902,11.684 13.292,11.293 L16.672,7.914 C17.565,7.021 18.907,6.754 20.073,7.237 C21.24,7.72 22,8.859 22,10.121 Z M10.121,2 C10.785,2 11.42,2.114 12,2.454 C12.581,2.113 13.215,2 13.879,2 C15.141,2.001 16.278,2.761 16.761,3.927 C17.244,5.093 16.978,6.435 16.086,7.328 L12.707,10.708 C12.316,11.098 11.684,11.098 11.293,10.708 L7.914,7.328 C7.021,6.435 6.754,5.093 7.237,3.927 C7.72,2.76 8.859,2 10.121,2 Z M13.879,20 C14.333,20 14.742,19.727 14.915,19.308 C15.089,18.889 14.993,18.407 14.672,18.086 L12,15.414 L9.328,18.086 C9.007,18.407 8.911,18.889 9.085,19.308 C9.258,19.727 9.667,20 10.121,20 C10.557,20 10.961,19.923 11.277,19.592 C11.466,19.395 11.727,19.283 12,19.283 C12.273,19.283 12.534,19.395 12.723,19.592 C13.039,19.923 13.443,20 13.879,20 Z M5.121,15 C5.418,15 5.704,14.882 5.914,14.672 L8.586,12 L5.914,9.328 C5.593,9.007 5.111,8.911 4.692,9.085 C4.273,9.258 4,9.667 4,10.121 C4,10.557 4.077,10.961 4.408,11.277 C4.605,11.466 4.717,11.727 4.717,12 C4.717,12.273 4.605,12.534 4.408,12.723 C4.077,13.039 4,13.443 4,13.879 C4,14.498 4.502,15 5.121,15 Z M18.879,9 C18.581,9 18.296,9.118 18.086,9.328 L15.414,12 L18.086,14.672 C18.407,14.993 18.889,15.089 19.308,14.915 C19.727,14.742 20,14.333 20,13.879 C20,13.443 19.923,13.039 19.592,12.723 C19.395,12.534 19.283,12.273 19.283,12 C19.283,11.727 19.395,11.466 19.592,11.277 C19.923,10.961 20,10.557 20,10.121 C20,9.502 19.498,9 18.879,9 Z M9,5.121 C9,5.418 9.118,5.704 9.328,5.914 L12,8.586 L14.672,5.914 C14.993,5.593 15.089,5.111 14.915,4.692 C14.742,4.273 14.333,4 13.879,4 C13.443,4 13.039,4.077 12.723,4.408 C12.534,4.605 12.273,4.717 12,4.717 C11.727,4.717 11.466,4.605 11.277,4.408 C10.961,4.077 10.557,4 10.121,4 C9.502,4 9,4.502 9,5.121 Z"/>
</svg>

