<svg xmlns="http://www.w3.org/2000/svg" width="24" height="24">
  <defs/>
  <path  d="M16.5,3.206 C18.585,4.41 19.516,6.929 18.716,9.2 C20.4,10.643 20.933,13.022 20.025,15.045 C19.118,17.068 16.987,18.253 14.79,17.955 C14.834,18.325 14.84,18.709 14.81,19.082 C14.735,19.967 14.434,20.979 13.707,21.706 C13.334,22.078 12.735,22.096 12.34,21.748 C11.944,21.399 11.887,20.803 12.21,20.386 L12.293,20.292 C12.566,20.019 12.765,19.532 12.816,18.916 C12.826,18.804 12.829,18.694 12.828,18.588 C11.043,19.814 8.671,19.751 6.953,18.433 C5.235,17.114 4.561,14.84 5.284,12.798 C3.457,11.231 3.005,8.585 4.209,6.5 C5.413,4.416 7.93,3.484 10.201,4.283 C11.768,2.454 14.415,2.001 16.501,3.205 Z M12,9.5 C11.172,9.5 10.5,10.172 10.5,11 C10.5,11.828 11.172,12.5 12,12.5 C12.828,12.5 13.5,11.828 13.5,11 C13.5,10.172 12.828,9.5 12,9.5 Z"/>
</svg>

