<svg xmlns="http://www.w3.org/2000/svg" width="24" height="24">
  <defs/>
  <path  d="M15.955,21.205 C14.881,22.279 13.14,22.279 12.066,21.205 C11.783,20.922 11.51,20.472 11.282,20.058 C11.036,19.611 10.777,19.084 10.532,18.561 C10.044,17.514 9.587,16.428 9.379,15.942 C9.218,15.566 9.302,15.13 9.591,14.841 C9.88,14.552 10.316,14.468 10.692,14.629 C11.178,14.837 12.264,15.293 13.311,15.782 C13.818,16.016 14.317,16.266 14.808,16.532 C15.222,16.76 15.672,17.033 15.955,17.315 C17.03,18.389 17.03,20.131 15.955,21.205 Z M16.5,10.5 C18.019,10.5 19.25,11.731 19.25,13.25 C19.25,14.769 18.019,16 16.5,16 C16.1,16 15.588,15.875 15.135,15.743 C14.6,15.584 14.07,15.408 13.546,15.215 C12.461,14.821 11.37,14.375 10.879,14.178 C10.499,14.026 10.25,13.658 10.25,13.25 C10.25,12.841 10.499,12.473 10.879,12.321 C11.369,12.125 12.46,11.68 13.546,11.285 C14.07,11.092 14.6,10.916 15.135,10.757 C15.588,10.625 16.1,10.5 16.5,10.5 Z M15.955,5.295 C17.029,6.369 17.029,8.11 15.955,9.184 C15.672,9.467 15.222,9.74 14.808,9.968 C14.362,10.214 13.834,10.473 13.312,10.718 C12.447,11.121 11.569,11.495 10.692,11.871 C10.316,12.032 9.88,11.948 9.591,11.659 C9.302,11.37 9.218,10.934 9.379,10.558 C9.588,10.072 10.044,8.985 10.532,7.939 C10.777,7.416 11.036,6.888 11.282,6.442 C11.51,6.028 11.783,5.578 12.066,5.295 C13.14,4.221 14.881,4.221 15.955,5.295 Z M8,2 C9.519,2 10.75,3.231 10.75,4.75 C10.75,5.15 10.625,5.662 10.493,6.115 C10.334,6.65 10.158,7.18 9.965,7.704 C9.57,8.79 9.125,9.881 8.928,10.371 C8.776,10.75 8.408,10.998 8,10.998 C7.592,10.998 7.224,10.75 7.072,10.371 C6.875,9.88 6.43,8.79 6.035,7.704 C5.837,7.161 5.648,6.605 5.507,6.115 C5.375,5.662 5.25,5.15 5.25,4.75 C5.25,3.231 6.481,2 8,2 Z"/>
</svg>

