<svg xmlns="http://www.w3.org/2000/svg" width="24" height="24">
  <defs/>
  <path  d="M15.956,21.204 C14.882,22.278 13.141,22.278 12.067,21.204 C11.784,20.921 11.511,20.471 11.283,20.057 C11.037,19.61 10.778,19.083 10.533,18.56 C10.045,17.513 9.588,16.427 9.38,15.941 C9.219,15.565 9.303,15.129 9.592,14.84 C9.881,14.551 10.317,14.467 10.693,14.628 C11.179,14.836 12.265,15.292 13.312,15.781 C13.819,16.015 14.318,16.265 14.809,16.531 C15.223,16.759 15.673,17.032 15.956,17.314 C17.031,18.388 17.031,20.13 15.956,21.204 Z M16.5,10.499 C18.019,10.499 19.25,11.73 19.25,13.249 C19.25,14.768 18.019,15.999 16.5,15.999 C16.1,15.999 15.588,15.874 15.135,15.742 C14.6,15.583 14.07,15.407 13.546,15.214 C12.461,14.82 11.37,14.374 10.879,14.177 C10.499,14.025 10.25,13.657 10.25,13.248 C10.25,12.84 10.499,12.472 10.879,12.32 C11.369,12.124 12.46,11.679 13.546,11.284 C14.07,11.091 14.6,10.915 15.135,10.756 C15.588,10.624 16.1,10.499 16.5,10.499 Z M15.955,5.294 C17.029,6.368 17.029,8.109 15.955,9.183 C15.672,9.466 15.222,9.739 14.808,9.967 C14.362,10.213 13.834,10.472 13.312,10.717 C12.447,11.12 11.569,11.494 10.692,11.87 C10.316,12.031 9.88,11.947 9.591,11.658 C9.302,11.369 9.218,10.933 9.379,10.557 C9.588,10.071 10.044,8.984 10.532,7.938 C10.777,7.415 11.036,6.887 11.282,6.441 C11.51,6.027 11.783,5.577 12.066,5.294 C13.14,4.22 14.881,4.22 15.955,5.294 Z M8,2 C9.519,2 10.75,3.231 10.75,4.75 C10.75,5.15 10.625,5.662 10.493,6.115 C10.334,6.65 10.158,7.18 9.965,7.704 C9.57,8.79 9.125,9.881 8.928,10.371 C8.776,10.75 8.408,10.998 8,10.998 C7.592,10.998 7.224,10.75 7.072,10.371 C6.875,9.88 6.43,8.79 6.035,7.704 C5.837,7.161 5.648,6.605 5.507,6.115 C5.375,5.662 5.25,5.15 5.25,4.75 C5.25,3.231 6.481,2 8,2 Z M13.48,6.71 L13.48,6.709 C13.421,6.768 13.267,6.984 13.033,7.407 C12.786,7.856 12.508,8.428 12.241,9.01 C12.822,8.742 13.394,8.464 13.843,8.217 C14.267,7.983 14.482,7.829 14.54,7.77 C14.741,7.583 14.823,7.301 14.755,7.036 C14.688,6.77 14.48,6.562 14.214,6.495 C13.949,6.427 13.667,6.509 13.48,6.71 Z M17.25,13.249 C17.25,12.835 16.914,12.499 16.5,12.499 C16.417,12.499 16.155,12.542 15.69,12.677 C15.198,12.819 14.597,13.027 13.997,13.249 C14.597,13.471 15.198,13.679 15.69,13.821 C16.155,13.956 16.417,13.999 16.5,13.999 C16.914,13.999 17.25,13.663 17.25,13.249 Z M7.25,4.75 C7.25,4.833 7.293,5.095 7.428,5.56 C7.57,6.052 7.778,6.653 8,7.253 C8.222,6.653 8.43,6.052 8.572,5.56 C8.707,5.095 8.75,4.833 8.75,4.75 C8.75,4.336 8.414,4 8,4 C7.586,4 7.25,4.336 7.25,4.75 Z M14.54,18.729 L14.541,18.729 C14.482,18.67 14.267,18.516 13.842,18.282 C13.318,17.999 12.784,17.735 12.241,17.489 C12.487,18.032 12.751,18.566 13.033,19.091 C13.267,19.515 13.421,19.731 13.48,19.789 C13.776,20.064 14.236,20.056 14.522,19.771 C14.807,19.485 14.815,19.025 14.54,18.729 Z"/>
</svg>

