<svg xmlns="http://www.w3.org/2000/svg" width="24" height="24">
  <defs/>
  <path  d="M13.5,5 C11.567,5 10,6.567 10,8.5 C10,8.723 10.058,9.015 10.185,9.44 C10.242,9.633 10.308,9.835 10.381,10.06 L10.399,10.116 C10.479,10.359 10.564,10.625 10.647,10.906 C10.975,12.022 11.262,13.412 10.999,15.086 C10.961,16.857 9.762,18.391 8.054,18.858 C6.345,19.325 4.533,18.612 3.6,17.107 C2.667,15.601 2.835,13.662 4.013,12.339 C5.191,11.016 7.098,10.626 8.701,11.379 C8.63,11.143 8.555,10.909 8.478,10.675 C8.406,10.455 8.333,10.23 8.268,10.012 C8.13,9.548 8,9.027 8,8.5 C8,5.462 10.462,3 13.5,3 C16.538,3 19,5.462 19,8.5 C19,9.457 18.685,10.42 18.287,11.308 C17.886,12.202 17.357,13.108 16.86,13.948 L16.727,14.172 C16.268,14.945 15.847,15.656 15.525,16.319 C15.165,17.061 15,17.61 15,18 C15,19.105 15.895,20 17,20 C18.105,20 19,19.105 19,18 C19,17.448 19.448,17 20,17 C20.552,17 21,17.448 21,18 C21,20.209 19.209,22 17,22 C14.791,22 13,20.209 13,18 C13,17.14 13.335,16.251 13.725,15.447 C14.085,14.703 14.552,13.917 15.001,13.162 L15.14,12.928 C15.642,12.08 16.114,11.266 16.463,10.489 C16.815,9.704 17,9.043 17,8.5 C17,6.563 15.434,5 13.5,5 Z M7,13 C5.895,13 5,13.895 5,15 C5,16.105 5.895,17 7,17 C8.105,17 9,16.105 9,15 C9,13.895 8.105,13 7,13 Z"/>
</svg>

