<svg xmlns="http://www.w3.org/2000/svg" width="24" height="24">
  <defs/>
  <path  d="M18,2 C20.209,2 22,3.791 22,6 L22,18 C22,20.209 20.209,22 18,22 L6,22 C3.791,22 2,20.209 2,18 L2,6 C2,3.791 3.791,2 6,2 Z M13,5.667 C10.791,5.667 9,7.458 9,9.667 C9,10.068 9.098,10.454 9.193,10.77 L9.284,11.064 C8.049,10.804 6.783,11.345 6.117,12.418 C5.452,13.49 5.529,14.864 6.31,15.856 C7.091,16.848 8.409,17.244 9.607,16.848 C10.806,16.452 11.628,15.349 11.665,14.087 C11.831,13.01 11.674,12.103 11.473,11.371 L11.361,10.988 L11.109,10.198 C11.027,9.921 11,9.765 11,9.667 C11,8.562 11.895,7.667 13,7.667 C14.105,7.667 15,8.562 15,9.667 C15,9.96 14.898,10.35 14.67,10.857 C14.492,11.255 14.26,11.672 14.004,12.113 L13.714,12.605 C13.415,13.107 13.097,13.643 12.85,14.152 C12.585,14.699 12.333,15.348 12.333,16 C12.333,17.657 13.676,19 15.333,19 C16.99,19 18.333,17.657 18.333,16 C18.332,15.471 17.92,15.034 17.392,15.003 C16.863,14.972 16.402,15.358 16.34,15.883 L16.333,16 C16.333,16.552 15.885,17 15.333,17 C14.781,17 14.333,16.552 14.333,16 C14.333,15.819 14.415,15.51 14.65,15.025 C14.774,14.768 14.923,14.499 15.088,14.212 L15.527,13.468 C15.857,12.91 16.219,12.291 16.496,11.675 C16.769,11.066 17,10.373 17,9.667 C17,7.454 15.209,5.667 13,5.667 Z M8.667,13 C9.17,13 9.595,13.374 9.659,13.873 L9.667,14.013 C9.66,14.564 9.209,15.005 8.658,15 C8.108,14.995 7.665,14.546 7.667,13.996 C7.669,13.445 8.116,13 8.667,13 Z"/>
</svg>

