<svg xmlns="http://www.w3.org/2000/svg" width="24" height="24">
  <defs/>
  <path  d="M8,3 C8.659,3 9.261,3.374 9.552,3.965 L9.613,4.104 L12.932,12.638 C13.12,13.131 12.893,13.684 12.413,13.903 C11.934,14.123 11.367,13.932 11.117,13.468 L11.068,13.362 L10.149,11 L5.851,11 L4.932,13.362 C4.74,13.855 4.197,14.113 3.693,13.95 C3.19,13.788 2.9,13.261 3.032,12.749 L3.068,12.638 L6.387,4.104 C6.645,3.438 7.286,3 8,3 Z M6.828,15.172 C7.218,15.562 7.218,16.195 6.828,16.586 L6.414,17 L17.586,17 L17.172,16.586 C16.912,16.335 16.808,15.963 16.899,15.613 C16.991,15.264 17.264,14.991 17.613,14.899 C17.963,14.808 18.335,14.912 18.586,15.172 L20.707,17.292 C20.895,17.48 21,17.734 21,18 C21,18.265 20.895,18.519 20.707,18.707 L18.586,20.828 C18.194,21.207 17.57,21.202 17.184,20.816 C16.798,20.43 16.793,19.806 17.172,19.414 L17.586,19 L6.414,19 L6.828,19.414 C7.088,19.665 7.192,20.037 7.101,20.387 C7.009,20.736 6.736,21.009 6.387,21.101 C6.037,21.192 5.665,21.088 5.414,20.828 L3.293,18.708 C3.105,18.52 3,18.266 3,18 C3,17.735 3.105,17.481 3.293,17.293 L5.414,15.172 C5.804,14.782 6.438,14.782 6.828,15.172 Z M15,3 C15.507,3 15.934,3.38 15.993,3.883 L16,4 L16,7.337 C17.493,6.63 19.278,7.064 20.28,8.377 C21.283,9.691 21.23,11.527 20.153,12.78 C19.077,14.034 17.27,14.364 15.82,13.572 C15.583,13.913 15.159,14.072 14.756,13.971 C14.353,13.87 14.055,13.53 14.007,13.117 L14,13 L14,4 C14,3.448 14.448,3 15,3 Z M17.5,9 C16.672,9 16,9.672 16,10.5 C16,11.328 16.672,12 17.5,12 C18.328,12 19,11.328 19,10.5 C19,9.672 18.328,9 17.5,9 Z M8,5.473 L6.629,9 L9.372,9 Z"/>
</svg>

