<svg xmlns="http://www.w3.org/2000/svg" width="24" height="24">
  <defs/>
  <path  d="M5.398,13.544 C5.098,14.316 4.228,14.698 3.456,14.398 C2.684,14.098 2.302,13.228 2.602,12.456 L5.92,3.922 C6.253,3.064 7.079,2.499 7.999,2.499 C8.919,2.499 9.745,3.064 10.078,3.922 L13.397,12.456 C13.462,12.624 13.495,12.796 13.499,12.965 L13.499,4 C13.499,3.172 14.171,2.5 14.999,2.5 C15.827,2.5 16.499,3.172 16.499,4 L16.499,6.626 C17.906,6.276 19.393,6.715 20.384,7.773 C21.376,8.831 21.717,10.343 21.276,11.724 C20.834,13.106 19.68,14.14 18.259,14.428 C18.509,14.493 18.743,14.623 18.939,14.818 L21.059,16.939 C21.645,17.525 21.645,18.475 21.059,19.061 L18.939,21.182 C18.426,21.697 17.619,21.77 17.022,21.356 C16.425,20.943 16.21,20.161 16.512,19.5 L7.487,19.5 C7.788,20.16 7.573,20.941 6.976,21.354 C6.38,21.767 5.574,21.695 5.061,21.182 L2.939,19.061 C2.353,18.475 2.353,17.525 2.939,16.939 L5.061,14.818 C5.574,14.305 6.38,14.233 6.976,14.646 C7.573,15.059 7.788,15.84 7.487,16.5 L16.513,16.5 C16.345,16.131 16.333,15.709 16.481,15.331 C16.629,14.954 16.924,14.652 17.298,14.495 C16.826,14.472 16.362,14.365 15.928,14.179 C15.48,14.531 14.871,14.599 14.356,14.354 C13.842,14.109 13.51,13.594 13.501,13.024 C13.492,13.743 12.974,14.355 12.266,14.482 C11.558,14.609 10.859,14.216 10.601,13.544 L9.808,11.5 L6.193,11.5 Z M16.5,10.5 C16.5,11.052 16.948,11.5 17.5,11.5 C18.052,11.5 18.5,11.052 18.5,10.5 C18.5,9.948 18.052,9.5 17.5,9.5 C16.948,9.5 16.5,9.948 16.5,10.5 Z M8.64,8.5 L8,6.853 L7.36,8.5 Z"/>
</svg>

