<svg xmlns="http://www.w3.org/2000/svg" width="24" height="24">
  <defs/>
  <path  d="M12,4 C9.018,3.996 6.486,6.183 6.055,9.134 C5.624,12.084 7.426,14.904 10.285,15.752 C10.709,15.878 11,16.268 11,16.71 L11,17 C11,17.552 10.552,18 10,18 L5,18 C4.448,18 4,17.552 4,17 C4,16.448 4.448,16 5,16 L6.709,16 C4.214,13.799 3.341,10.284 4.517,7.172 C5.694,4.059 8.673,2 12,2 C15.328,2 18.307,4.059 19.484,7.172 C20.66,10.284 19.787,13.799 17.292,16 L19,16 C19.552,16 20,16.448 20,17 C20,17.552 19.552,18 19,18 L14,18 C13.448,18 13,17.552 13,17 L13,16.71 C13,16.268 13.291,15.878 13.715,15.752 C16.574,14.904 18.376,12.084 17.945,9.134 C17.514,6.183 14.982,3.996 12,4 Z M4,21 C4,20.448 4.448,20 5,20 L19,20 C19.552,20 20,20.448 20,21 C20,21.552 19.552,22 19,22 L5,22 C4.448,22 4,21.552 4,21 Z"/>
</svg>

