<svg xmlns="http://www.w3.org/2000/svg" width="24" height="24">
  <defs/>
  <path  d="M12,2 C17.523,2 22,6.477 22,12 C22,17.523 17.523,22 12,22 C6.477,22 2,17.523 2,12 C2,6.477 6.477,2 12,2 Z M12,9 C10.343,9 9,10.343 9,12 C9,13.657 10.343,15 12,15 C13.657,15 15,13.657 15,12 C15,10.343 13.657,9 12,9 Z M12,4 C10.502,3.998 9.033,4.418 7.763,5.213 L7.503,5.383 L9.687,7.566 C10.401,7.193 11.195,6.999 12,7 C12.742,7 13.446,7.162 14.079,7.451 L14.313,7.566 L16.496,5.382 C15.171,4.479 13.604,3.997 12,4 Z M14.313,16.434 C13.599,16.807 12.805,17.001 12,17 C11.283,17.001 10.573,16.847 9.921,16.549 L9.687,16.434 L7.504,18.618 C8.829,19.521 10.396,20.003 12,20 C13.498,20.002 14.967,19.582 16.237,18.787 L16.497,18.617 Z M18.618,7.504 L16.434,9.687 C16.796,10.379 17,11.166 17,12 C17,12.835 16.796,13.621 16.434,14.313 L18.618,16.496 C19.521,15.171 20.003,13.604 20,12 C20,10.333 19.49,8.785 18.618,7.504 Z M4,12 C4,13.667 4.51,15.215 5.382,16.496 L7.566,14.313 C7.193,13.599 6.999,12.805 7,12 C7,11.165 7.204,10.379 7.566,9.687 L5.383,7.505 C4.48,8.83 3.998,10.396 4,12 Z"/>
</svg>

