<svg xmlns="http://www.w3.org/2000/svg" width="24" height="24">
  <defs/>
  <path  d="M12,2 C17.523,2 22,6.477 22,12 C22,17.523 17.523,22 12,22 C6.477,22 2,17.523 2,12 C2,6.477 6.477,2 12,2 Z M12,9 C10.343,9 9,10.343 9,12 C9,13.657 10.343,15 12,15 C13.657,15 15,13.657 15,12 C15,10.343 13.657,9 12,9 Z M15.354,14.646 L14.646,15.354 C14.256,15.745 14.256,16.378 14.646,16.768 L16.232,18.354 C16.622,18.744 17.256,18.744 17.646,18.354 L18.354,17.646 C18.744,17.256 18.744,16.622 18.354,16.232 L16.768,14.646 C16.378,14.256 15.745,14.256 15.354,14.646 Z M8.646,14.646 C8.29,14.29 7.724,14.254 7.326,14.563 L7.232,14.646 L5.646,16.232 C5.29,16.588 5.254,17.154 5.563,17.552 L5.646,17.646 L6.354,18.354 C6.71,18.71 7.276,18.746 7.674,18.437 L7.768,18.354 L9.354,16.768 C9.71,16.412 9.746,15.846 9.437,15.448 L9.354,15.354 Z M7.767,5.646 C7.411,5.29 6.845,5.254 6.447,5.563 L6.354,5.646 L5.646,6.354 C5.29,6.71 5.254,7.276 5.563,7.674 L5.646,7.768 L7.232,9.354 C7.588,9.71 8.154,9.746 8.552,9.437 L8.646,9.354 L9.354,8.646 C9.71,8.29 9.746,7.724 9.437,7.326 L9.354,7.232 Z M17.647,5.646 C17.291,5.29 16.725,5.254 16.327,5.563 L16.232,5.646 L14.647,7.232 C14.29,7.588 14.254,8.154 14.563,8.552 L14.646,8.646 L15.354,9.354 C15.71,9.71 16.276,9.746 16.674,9.437 L16.768,9.354 L18.354,7.768 C18.71,7.412 18.746,6.846 18.437,6.448 L18.354,6.354 Z"/>
</svg>

