<svg xmlns="http://www.w3.org/2000/svg" width="24" height="24">
  <defs/>
  <path  d="M12,8 A1 1 0 1 0 12,6 A1 1 0 0 0 12,8"/>
  <path  d="M12.832,2.353 L15.348,4.03 C15.738,4.29 15.984,4.717 16.013,5.185 L16.254,9.032 C16.672,9.141 16.972,9.506 16.999,9.937 C17.026,10.368 16.773,10.768 16.372,10.928 L16.94,20 L19,20 C19.552,20 20,20.448 20,21 C20,21.552 19.552,22 19,22 L5,22 C4.448,22 4,21.552 4,21 C4,20.448 4.448,20 5,20 L7.06,20 L7.628,10.928 C7.227,10.768 6.974,10.368 7.001,9.937 C7.028,9.506 7.328,9.141 7.746,9.032 L7.986,5.185 C8.015,4.717 8.262,4.29 8.652,4.03 L11.168,2.353 C11.672,2.017 12.328,2.017 12.832,2.353 Z M14.373,11 L9.627,11 L9.064,20 L14.935,20 Z M12,4.202 L9.967,5.557 L9.752,9 L14.248,9 L14.033,5.557 Z M20.707,4.292 C20.895,4.48 21,4.734 21,4.999 C21,5.265 20.895,5.519 20.707,5.707 L19.707,6.707 C19.456,6.967 19.084,7.071 18.734,6.98 C18.385,6.888 18.112,6.615 18.02,6.266 C17.929,5.916 18.033,5.544 18.293,5.293 L19.293,4.293 C19.684,3.903 20.316,3.903 20.707,4.293 Z M18.293,8.293 C18.649,7.937 19.215,7.901 19.613,8.21 L19.707,8.293 L20.707,9.293 C21.079,9.666 21.097,10.265 20.749,10.66 C20.4,11.056 19.804,11.113 19.387,10.79 L19.293,10.707 L18.293,9.707 C17.903,9.316 17.903,8.684 18.293,8.293 Z M4.293,8.293 C4.666,7.921 5.265,7.903 5.66,8.251 C6.056,8.6 6.113,9.196 5.79,9.613 L5.707,9.707 L4.707,10.707 C4.334,11.079 3.735,11.097 3.34,10.749 C2.944,10.4 2.887,9.804 3.21,9.387 L3.293,9.293 Z M4.707,4.292 L5.707,5.292 C6.098,5.682 6.098,6.316 5.707,6.707 C5.317,7.097 4.684,7.097 4.293,6.707 L3.293,5.707 C2.914,5.315 2.919,4.691 3.305,4.305 C3.691,3.919 4.315,3.914 4.707,4.293 Z"/>
</svg>

