<svg xmlns="http://www.w3.org/2000/svg" width="24" height="24">
  <defs/>
  <path  d="M8.084,2.6 C8.246,2.235 8.607,2 9.007,2 L16.984,2 C17.734,2 18.223,2.79 17.887,3.462 L15.618,8 L18.976,8 C19.876,8 20.326,9.088 19.69,9.724 L7.737,21.677 C6.983,22.431 5.727,21.655 6.065,20.644 L8.613,13 L5.015,13 C4.673,13 4.355,12.827 4.168,12.54 C3.982,12.254 3.953,11.892 4.092,11.58 Z M9.65,4 L6.539,11 L9.986,11 C10.676,11 11.162,11.675 10.944,12.33 L9.288,17.297 L16.586,10 L14.016,10 C13.666,10 13.341,9.819 13.157,9.521 C12.973,9.223 12.956,8.851 13.113,8.538 L15.382,4 Z"/>
</svg>

