<svg xmlns="http://www.w3.org/2000/svg" width="24" height="24">
  <defs/>
  <path  d="M11.168,2.353 C11.627,2.047 12.216,2.018 12.703,2.276 L12.833,2.353 L15.348,4.031 C15.693,4.261 15.927,4.622 15.996,5.031 L16.014,5.185 L16.254,9.033 C16.65,9.137 16.943,9.472 16.993,9.879 C17.042,10.286 16.839,10.682 16.479,10.878 L16.372,10.928 L16.94,20 L19,20 C19.529,20.001 19.966,20.413 19.997,20.941 C20.028,21.47 19.642,21.931 19.117,21.993 L19,22 L5,22 C4.471,21.999 4.034,21.587 4.003,21.059 C3.972,20.53 4.358,20.069 4.883,20.007 L5,20 L7.06,20 L7.628,10.929 C7.245,10.777 6.995,10.405 6.998,9.993 C7.001,9.581 7.256,9.213 7.641,9.066 L7.746,9.033 L7.986,5.185 C8.012,4.771 8.208,4.387 8.527,4.123 L8.652,4.031 Z M12,5.5 C11.172,5.5 10.5,6.172 10.5,7 C10.5,7.828 11.172,8.5 12,8.5 C12.828,8.5 13.5,7.828 13.5,7 C13.5,6.172 12.828,5.5 12,5.5 Z M5.708,8.293 C6.098,8.684 6.098,9.316 5.708,9.707 L4.708,10.707 C4.318,11.098 3.684,11.098 3.293,10.708 C2.903,10.317 2.903,9.684 3.293,9.293 L4.293,8.293 C4.683,7.903 5.317,7.903 5.707,8.293 Z M19.293,4.293 C19.666,3.921 20.265,3.903 20.66,4.251 C21.056,4.6 21.113,5.196 20.79,5.613 L20.707,5.707 L19.707,6.707 C19.334,7.079 18.735,7.097 18.34,6.749 C17.944,6.4 17.887,5.804 18.21,5.387 L18.293,5.293 Z M19.708,8.293 L20.708,9.293 C21.098,9.684 21.098,10.317 20.708,10.708 C20.317,11.098 19.683,11.098 19.293,10.707 L18.293,9.707 C17.914,9.315 17.919,8.691 18.305,8.305 C18.691,7.919 19.315,7.914 19.707,8.293 Z M4.707,4.293 L5.707,5.293 C6.086,5.685 6.081,6.309 5.695,6.695 C5.309,7.081 4.685,7.086 4.293,6.707 L3.293,5.707 C2.914,5.315 2.919,4.691 3.305,4.305 C3.691,3.919 4.315,3.914 4.707,4.293 Z"/>
</svg>

