<svg xmlns="http://www.w3.org/2000/svg" width="24" height="24">
  <defs/>
  <path  d="M12,13 A1 1 0 0 1 13,14 L13,15.268 L14.098,14.634 A1 1 0 1 1 15.098,16.366 L14,17 L15.098,17.634 A1 1 0 1 1 14.098,19.366 L13,18.732 L13,20 A1 1 0 1 1 11,20 L11,18.732 L9.902,19.366 A1 1 0 1 1 8.902,17.634 L10,17 L8.902,16.366 A1 1 0 1 1 9.902,14.634 L11,15.268 L11,14 A1 1 0 0 1 12,13 M11.5,2 A6.502 6.502 0 0 1 17.586,6.212 A6.002 6.002 0 0 1 17.516,17.807 A3.01 3.01 0 0 0 17.196,17 A2.999 2.999 0 0 0 14.598,12.5 A2.999 2.999 0 0 0 9.402,12.5 A2.999 2.999 0 0 0 6.803,17 A3.02 3.02 0 0 0 6.449,17.97 A5 5 0 0 1 5.001,8.416 A6.5 6.5 0 0 1 11.5,2"/>
</svg>

