<svg xmlns="http://www.w3.org/2000/svg" width="24" height="24">
  <defs/>
  <path  d="M12.617,2 C13.626,2 14.477,2.751 14.602,3.752 L14.982,6.792 C17.342,8.144 18.498,10.913 17.798,13.541 C17.099,16.169 14.719,17.999 12,17.999 C9.281,17.999 6.901,16.169 6.202,13.541 C5.502,10.913 6.658,8.144 9.018,6.792 L9.398,3.752 C9.523,2.751 10.374,2 11.383,2 Z M19.071,4.93 C19.461,5.32 19.461,5.954 19.071,6.344 L18.364,7.051 C18.113,7.311 17.741,7.415 17.391,7.324 C17.042,7.232 16.769,6.959 16.677,6.61 C16.586,6.26 16.69,5.888 16.95,5.637 L17.657,4.93 C18.048,4.54 18.681,4.54 19.071,4.93 Z M7.05,16.95 C7.44,17.34 7.44,17.973 7.05,18.364 L6.343,19.071 C6.092,19.331 5.72,19.435 5.37,19.344 C5.021,19.252 4.748,18.979 4.656,18.63 C4.565,18.28 4.669,17.908 4.929,17.657 L5.636,16.95 C6.026,16.56 6.66,16.56 7.05,16.95 Z M4,11 C4.552,11 5,11.448 5,12 C5,12.552 4.552,13 4,13 L3,13 C2.448,13 2,12.552 2,12 C2,11.448 2.448,11 3,11 Z M21,11 C21.552,11 22,11.448 22,12 C22,12.552 21.552,13 21,13 L20,13 C19.448,13 19,12.552 19,12 C19,11.448 19.448,11 20,11 Z M12,19 C12.507,19 12.934,19.38 12.993,19.883 L13,20 L13,21 C12.999,21.529 12.587,21.966 12.059,21.997 C11.53,22.028 11.069,21.642 11.007,21.117 L11,21 L11,20 C11,19.448 11.448,19 12,19 Z M18.364,16.95 L19.071,17.657 C19.45,18.049 19.445,18.673 19.059,19.059 C18.673,19.445 18.049,19.45 17.657,19.071 L16.95,18.364 C16.571,17.972 16.576,17.348 16.962,16.962 C17.348,16.576 17.972,16.571 18.364,16.95 Z M6.343,4.93 L7.05,5.637 C7.419,6.031 7.409,6.647 7.027,7.028 C6.645,7.41 6.03,7.42 5.636,7.05 L4.929,6.343 C4.56,5.949 4.57,5.333 4.952,4.952 C5.334,4.57 5.949,4.56 6.343,4.93 Z M12.617,4 L11.383,4 L11.133,6 L12.867,6 Z"/>
</svg>

