<svg xmlns="http://www.w3.org/2000/svg" width="24" height="24">
  <defs/>
  <path  d="M6.707,3.293 L8.828,5.414 A1 1 0 0 1 7.414,6.828 L7,6.414 L7,17.586 L7.414,17.172 A1 1 0 1 1 8.828,18.586 L6.708,20.707 A1 1 0 0 1 5.293,20.707 L3.172,18.586 A1 1 0 1 1 4.586,17.172 L5,17.586 L5,6.414 L4.586,6.828 A1 1 0 0 1 3.172,5.414 L5.292,3.293 A1 1 0 0 1 6.707,3.293 M20,18 A1 1 0 0 1 20.117,19.993 L20,20 L12,20 A1 1 0 0 1 11.883,18.007 L12,18 Z M20,11 A1 1 0 0 1 20.117,12.993 L20,13 L12,13 A1 1 0 0 1 11.883,11.007 L12,11 Z M20,4 A1 1 0 1 1 20,6 L12,6 A1 1 0 1 1 12,4 Z"/>
</svg>

