<svg xmlns="http://www.w3.org/2000/svg" width="24" height="24">
  <defs/>
  <path  d="M7.06,2.94 L9.182,5.06 A1.5 1.5 0 0 1 7.5,7.488 L7.5,16.514 A1.5 1.5 0 0 1 9.182,18.94 L7.061,21.062 A1.5 1.5 0 0 1 4.939,21.062 L2.818,18.94 A1.5 1.5 0 0 1 4.5,16.513 L4.5,7.487 A1.5 1.5 0 0 1 2.818,5.061 L4.939,2.939 A1.5 1.5 0 0 1 7.061,2.939 Z M20,17.5 A1.5 1.5 0 0 1 20.144,20.493 L20,20.5 L12,20.5 A1.5 1.5 0 0 1 11.856,17.507 L12,17.5 Z M20,10.5 A1.5 1.5 0 0 1 20.144,13.493 L20,13.5 L12,13.5 A1.5 1.5 0 0 1 11.856,10.507 L12,10.5 Z M20,3.5 A1.5 1.5 0 0 1 20,6.5 L12,6.5 A1.5 1.5 0 0 1 12,3.5 Z"/>
</svg>

