<svg xmlns="http://www.w3.org/2000/svg" width="24" height="24">
  <defs/>
  <path  d="M12,3 C17.344,3 22,6.643 22,11.5 C22,13.957 20.664,16.08 18.801,17.79 C16.934,19.505 14.442,20.9 11.871,21.928 C11.337,22.142 10.723,21.909 10.474,21.387 C10.334,21.093 10.334,20.77 10.335,20.448 C10.336,20.293 10.336,20.138 10.321,19.987 C10.287,19.638 10.195,19.416 9.828,19.352 C5.549,18.606 2,15.74 2,11.5 C2,6.643 6.656,3 12,3 Z M4,11.5 C4,14.4 6.435,16.73 10.172,17.382 C10.907,17.511 11.464,17.863 11.827,18.378 C12.071,18.737 12.228,19.149 12.285,19.579 C14.268,18.681 16.079,17.575 17.449,16.317 C19.086,14.813 20,13.185 20,11.5 C20,8.073 16.597,5 12,5 C7.403,5 4,8.073 4,11.5 Z M12.268,9.36 L13,10.238 L13,10 C13,9.448 13.448,9 14,9 C14.552,9 15,9.448 15,10 L15,13 C15,13.421 14.736,13.797 14.34,13.94 C13.945,14.083 13.502,13.963 13.232,13.64 L12.5,12.762 L12.5,13 C12.5,13.552 12.052,14 11.5,14 C10.948,14 10.5,13.552 10.5,13 L10.5,10 C10.5,9.579 10.764,9.203 11.16,9.06 C11.555,8.917 11.998,9.037 12.268,9.36 Z M18,11 L17.866,11 C18.046,11.309 18.046,11.691 17.866,12 L18,12 C18.552,12 19,12.448 19,13 C19,13.552 18.552,14 18,14 L16.5,14 C15.948,14 15.5,13.552 15.5,13 L15.5,10 C15.5,9.448 15.948,9 16.5,9 L18,9 C18.552,9 19,9.448 19,10 C19,10.552 18.552,11 18,11 Z M7,10 L7,12 C7.552,12 8,12.448 8,13 C8,13.552 7.552,14 7,14 L6,14 C5.448,14 5,13.552 5,13 L5,10 C5,9.448 5.448,9 6,9 C6.552,9 7,9.448 7,10 Z M9,9 C9.552,9 10,9.448 10,10 L10,13 C10,13.552 9.552,14 9,14 C8.448,14 8,13.552 8,13 L8,10 C8,9.448 8.448,9 9,9 Z"/>
</svg>

