<svg xmlns="http://www.w3.org/2000/svg" width="24" height="24">
  <defs/>
  <path  d="M17.657,6.343 C14.533,3.219 9.467,3.219 6.343,6.343 C5.949,6.713 5.334,6.703 4.952,6.321 C4.57,5.94 4.56,5.324 4.929,4.93 C8.834,1.025 15.166,1.025 19.071,4.93 C22.976,8.835 22.976,15.167 19.071,19.072 C18.679,19.451 18.055,19.446 17.669,19.06 C17.283,18.674 17.278,18.05 17.657,17.658 C20.781,14.534 20.781,9.468 17.657,6.344 Z M3.17,7.413 C3.56,7.023 4.194,7.023 4.584,7.413 L16.587,19.416 C16.847,19.667 16.951,20.039 16.86,20.389 C16.768,20.738 16.495,21.011 16.146,21.103 C15.796,21.194 15.424,21.09 15.173,20.83 L3.17,8.827 C2.982,8.639 2.877,8.385 2.877,8.12 C2.877,7.854 2.982,7.6 3.17,7.412 Z M2.307,10.792 C2.697,10.402 3.331,10.402 3.721,10.792 L13.208,20.279 C13.587,20.671 13.582,21.295 13.196,21.681 C12.81,22.067 12.186,22.072 11.794,21.693 L2.307,12.206 C1.917,11.816 1.917,11.182 2.307,10.792 Z M2.807,15.536 C2.995,15.348 3.249,15.243 3.514,15.243 C3.78,15.243 4.034,15.348 4.222,15.536 L8.464,19.778 C8.724,20.029 8.828,20.401 8.737,20.751 C8.645,21.1 8.372,21.373 8.023,21.465 C7.673,21.556 7.301,21.452 7.05,21.192 L2.807,16.95 C2.417,16.559 2.417,15.927 2.807,15.536 Z"/>
</svg>

