<svg xmlns="http://www.w3.org/2000/svg" width="24" height="24">
  <defs/>
  <path  d="M4.929,4.929 C8.834,1.024 15.166,1.024 19.071,4.929 C22.976,8.834 22.976,15.166 19.071,19.071 C18.681,19.461 18.048,19.461 17.657,19.071 L4.929,6.343 C4.539,5.953 4.539,5.319 4.929,4.929 Z M3.169,7.412 C3.357,7.224 3.611,7.119 3.876,7.119 C4.142,7.119 4.396,7.224 4.584,7.412 L16.588,19.416 C16.978,19.807 16.978,20.44 16.587,20.83 C16.197,21.221 15.563,21.221 15.173,20.83 L3.17,8.827 C2.982,8.639 2.877,8.385 2.877,8.12 C2.877,7.854 2.982,7.6 3.17,7.412 Z M2.307,10.792 C2.697,10.402 3.331,10.402 3.721,10.792 L13.208,20.279 C13.587,20.671 13.582,21.295 13.196,21.681 C12.81,22.067 12.186,22.072 11.794,21.693 L2.307,12.206 C1.917,11.816 1.917,11.182 2.307,10.792 Z M2.807,15.536 C2.995,15.348 3.249,15.243 3.514,15.243 C3.78,15.243 4.034,15.348 4.222,15.536 L8.464,19.778 C8.724,20.029 8.828,20.401 8.737,20.751 C8.645,21.1 8.372,21.373 8.023,21.465 C7.673,21.556 7.301,21.452 7.05,21.192 L2.808,16.95 C2.418,16.559 2.418,15.927 2.808,15.536 Z"/>
</svg>

