<svg xmlns="http://www.w3.org/2000/svg" width="24" height="24">
  <defs/>
  <path  d="M12,3 C17.344,3 22,6.643 22,11.5 C22,13.957 20.664,16.08 18.801,17.79 C16.934,19.505 14.442,20.9 11.871,21.929 C11.336,22.145 10.725,21.908 10.474,21.388 C10.37,21.169 10.344,20.935 10.337,20.698 L10.333,20.163 C10.331,20.104 10.327,20.046 10.321,19.987 C10.287,19.638 10.195,19.417 9.828,19.352 C5.548,18.606 2,15.74 2,11.5 C2,6.643 6.656,3 12,3 Z M14,9 C13.448,9 13,9.448 13,10 L13,10.238 L12.268,9.36 C11.998,9.037 11.555,8.917 11.16,9.06 C10.764,9.203 10.5,9.579 10.5,10 L10.5,13 C10.5,13.552 10.948,14 11.5,14 C12.052,14 12.5,13.552 12.5,13 L12.5,12.762 L13.232,13.64 C13.502,13.963 13.945,14.083 14.34,13.94 C14.736,13.797 15,13.421 15,13 L15,10 C15,9.448 14.552,9 14,9 Z M18,9 L16.5,9 C15.993,9 15.566,9.38 15.507,9.883 L15.5,10 L15.5,13 C15.5,13.507 15.88,13.934 16.383,13.993 L16.5,14 L18,14 C18.529,13.999 18.966,13.587 18.997,13.059 C19.028,12.53 18.642,12.069 18.117,12.007 L18,12 L17.866,12 C18.023,11.73 18.044,11.403 17.923,11.115 L17.866,11 L18,11 C18.529,10.999 18.966,10.587 18.997,10.059 C19.028,9.53 18.642,9.069 18.117,9.007 Z M6,9 C5.448,9 5,9.448 5,10 L5,13 C5,13.552 5.448,14 6,14 L7,14 C7.552,14 8,13.552 8,13 C8,12.448 7.552,12 7,12 L7,10 C7,9.448 6.552,9 6,9 Z M9,9 C8.493,9 8.066,9.38 8.007,9.883 L8,10 L8,13 C8.001,13.529 8.413,13.966 8.941,13.997 C9.47,14.028 9.931,13.642 9.993,13.117 L10,13 L10,10 C10,9.448 9.552,9 9,9 Z"/>
</svg>

