<svg xmlns="http://www.w3.org/2000/svg" width="24" height="24">
  <defs/>
  <path  d="M18,3 A3 3 0 0 1 21,6 L21,18 A3 3 0 0 1 18,21 L6,21 A3 3 0 0 1 3,18 L3,6 A3 3 0 0 1 6,3 Z M18,5 L6,5 A1 1 0 0 0 5,6 L5,18 A1 1 0 0 0 6,19 L18,19 A1 1 0 0 0 19,18 L19,6 A1 1 0 0 0 18,5 M8,10 A1 1 0 0 1 8.993,10.883 L9,11 L9,16 A1 1 0 0 1 7.007,16.117 L7,16 L7,11 A1 1 0 0 1 8,10 M11,9 A1 1 0 0 1 11.984,9.821 A5.82 5.82 0 0 1 12.607,9.508 C13.274,9.223 14.273,9.066 15.175,9.349 C15.648,9.499 16.123,9.779 16.475,10.256 C16.79,10.681 16.96,11.198 16.994,11.779 L17,12 L17,16 A1 1 0 0 1 15.007,16.117 L15,16 L15,12 C15,11.67 14.92,11.516 14.868,11.445 A0.548 0.548 0 0 0 14.575,11.257 C14.227,11.147 13.726,11.205 13.393,11.347 C12.893,11.561 12.435,11.897 12.123,12.208 L12,12.34 L12,16 A1 1 0 0 1 10.007,16.117 L10,16 L10,10 A1 1 0 0 1 11,9 M8,7 A1 1 0 1 1 8,9 A1 1 0 0 1 8,7"/>
</svg>

