<svg xmlns="http://www.w3.org/2000/svg" width="24" height="24">
  <defs/>
  <path  d="M18,3 C19.657,3 21,4.343 21,6 L21,18 C21,19.657 19.657,21 18,21 L6,21 C4.343,21 3,19.657 3,18 L3,6 C3,4.343 4.343,3 6,3 Z M11,9 C10.448,9 10,9.448 10,10 L10,16 C10,16.552 10.448,17 11,17 C11.552,17 12,16.552 12,16 L12,12.34 C12.305,11.996 12.82,11.592 13.393,11.347 C13.726,11.205 14.227,11.147 14.575,11.257 C14.69,11.286 14.793,11.352 14.868,11.445 C14.92,11.515 15,11.671 15,12 L15,16 C15,16.552 15.448,17 16,17 C16.552,17 17,16.552 17,16 L17,12 C17,11.33 16.83,10.734 16.476,10.256 C16.15,9.823 15.694,9.505 15.175,9.349 C14.273,9.066 13.274,9.223 12.607,9.509 C12.393,9.6 12.185,9.705 11.984,9.821 C11.897,9.346 11.483,9 11,9 Z M8,10 C7.448,10 7,10.448 7,11 L7,16 C7,16.552 7.448,17 8,17 C8.552,17 9,16.552 9,16 L9,11 C9,10.448 8.552,10 8,10 Z M8,7 C7.448,7 7,7.448 7,8 C7,8.552 7.448,9 8,9 C8.552,9 9,8.552 9,8 C9,7.448 8.552,7 8,7 Z"/>
</svg>

