<svg xmlns="http://www.w3.org/2000/svg" width="24" height="24">
  <defs/>
  <path  d="M6,4.5 L12,4.5 C14.767,4.505 17.1,6.564 17.448,9.309 C17.796,12.054 16.052,14.631 13.374,15.327 C12.572,15.534 11.754,15.05 11.547,14.248 C11.34,13.446 11.824,12.628 12.626,12.421 C13.846,12.107 14.641,10.934 14.483,9.685 C14.324,8.435 13.26,7.499 12,7.5 L6,7.5 C4.868,7.5 3.877,8.26 3.584,9.354 C3.292,10.447 3.77,11.601 4.751,12.166 C5.468,12.581 5.713,13.498 5.299,14.215 C4.884,14.933 3.966,15.178 3.249,14.763 C1.093,13.518 0.042,10.981 0.687,8.576 C1.331,6.171 3.511,4.5 6,4.5 Z M11.374,11.579 C10.154,11.893 9.359,13.066 9.517,14.315 C9.676,15.565 10.74,16.501 12,16.5 L18,16.5 C19.132,16.5 20.123,15.74 20.416,14.646 C20.708,13.553 20.23,12.399 19.249,11.834 C18.532,11.419 18.287,10.502 18.701,9.785 C19.116,9.067 20.034,8.822 20.751,9.237 C22.907,10.482 23.958,13.019 23.313,15.424 C22.669,17.829 20.489,19.5 18,19.5 L12,19.5 C9.233,19.495 6.9,17.436 6.552,14.691 C6.204,11.946 7.948,9.369 10.626,8.673 C11.428,8.466 12.246,8.95 12.453,9.752 C12.66,10.554 12.176,11.372 11.374,11.579 Z"/>
</svg>

