<svg xmlns="http://www.w3.org/2000/svg" width="24" height="24">
  <defs/>
  <path  d="M17.303,9.524 L20.485,12.706 A5.5 5.5 0 1 1 12.707,20.484 L11.647,19.424 A1.5 1.5 0 1 1 13.767,17.302 L14.829,18.363 A2.5 2.5 0 0 0 18.364,14.827 L15.182,11.645 A2.5 2.5 0 0 0 12.501,11.085 C12.339,11.149 12.189,11.215 12.047,11.281 L11.583,11.498 C10.963,11.778 10.486,11.898 9.879,11.292 C9.007,10.42 9.233,9.615 10.296,8.882 A5.502 5.502 0 0 1 17.303,9.524 M11.293,3.514 L12.353,4.574 A1.5 1.5 0 0 1 10.233,6.696 L9.172,5.636 A2.5 2.5 0 1 0 5.636,9.17 L8.818,12.352 A2.5 2.5 0 0 0 11.499,12.912 C11.661,12.848 11.811,12.782 11.953,12.716 L12.417,12.499 C13.037,12.219 13.515,12.099 14.121,12.705 C14.993,13.577 14.767,14.382 13.704,15.115 A5.502 5.502 0 0 1 6.697,14.473 L3.515,11.291 A5.5 5.5 0 1 1 11.293,3.513 Z"/>
</svg>

