<svg xmlns="http://www.w3.org/2000/svg" width="24" height="24">
  <defs/>
  <path  d="M16.243,9.878 A1 1 0 0 1 17.563,9.795 L17.657,9.878 L19.778,12 A5.5 5.5 0 0 1 12.182,19.952 L12,19.778 L9.879,17.657 A1 1 0 0 1 11.199,16.159 L11.293,16.242 L13.414,18.364 A3.5 3.5 0 0 0 18.505,13.564 L18.364,13.414 L16.243,11.293 A1 1 0 0 1 16.243,9.878 M9.17,9.171 A1 1 0 0 1 10.49,9.088 L10.585,9.171 L14.827,13.414 A1 1 0 0 1 13.507,14.911 L13.413,14.828 L9.17,10.586 A1 1 0 0 1 9.17,9.171 M4.22,4.221 A5.5 5.5 0 0 1 11.817,4.048 L11.999,4.222 L14.12,6.342 A1 1 0 0 1 12.8,7.84 L12.706,7.757 L10.585,5.636 A3.5 3.5 0 0 0 5.494,10.436 L5.635,10.586 L7.756,12.706 A1 1 0 0 1 6.436,14.204 L6.342,14.121 L4.222,12 A5.5 5.5 0 0 1 4.222,4.222 Z"/>
</svg>

