<svg xmlns="http://www.w3.org/2000/svg" width="24" height="24">
  <defs/>
  <path  d="M15.889,9.525 A1.5 1.5 0 0 1 17.896,9.422 L18.01,9.525 L20.132,11.646 A6 6 0 0 1 11.829,20.307 L11.646,20.132 L9.525,18.01 A1.5 1.5 0 0 1 11.532,15.786 L11.646,15.889 L13.768,18.01 A3 3 0 0 0 18.145,13.912 L18.01,13.768 L15.889,11.646 A1.5 1.5 0 0 1 15.889,9.525 M8.818,8.818 A1.5 1.5 0 0 1 10.825,8.715 L10.939,8.818 L15.182,13.061 A1.5 1.5 0 0 1 13.174,15.285 L13.06,15.182 L8.818,10.939 A1.5 1.5 0 0 1 8.818,8.818 M3.868,3.868 A6 6 0 0 1 12.17,3.693 L12.354,3.868 L14.474,5.99 A1.5 1.5 0 0 1 12.467,8.214 L12.353,8.111 L10.233,5.99 A3 3 0 0 0 5.855,10.088 L5.99,10.232 L8.11,12.354 A1.5 1.5 0 0 1 6.103,14.578 L5.99,14.475 L3.868,12.354 A6 6 0 0 1 3.868,3.868"/>
</svg>

