<svg xmlns="http://www.w3.org/2000/svg" width="24" height="24">
  <defs/>
  <path  d="M1,10 C1,7.239 3.239,5 6,5 L12,5 C14.761,5 17,7.239 17,10 C17,12.761 14.761,15 12,15 C11.448,15 11,14.552 11,14 C11,13.448 11.448,13 12,13 C13.657,13 15,11.657 15,10 C15,8.343 13.657,7 12,7 L6,7 C4.487,6.998 3.21,8.122 3.019,9.622 C2.828,11.123 3.785,12.53 5.25,12.906 C5.773,13.053 6.083,13.592 5.947,14.119 C5.811,14.645 5.279,14.966 4.75,14.842 C2.543,14.271 1,12.28 1,10 Z M12,11 C10.343,11 9,12.343 9,14 C9,15.657 10.343,17 12,17 L18,17 C19.511,17.001 20.787,15.877 20.977,14.378 C21.168,12.879 20.213,11.472 18.75,11.095 C18.215,10.957 17.893,10.411 18.031,9.877 C18.17,9.342 18.715,9.02 19.25,9.158 C21.683,9.793 23.266,12.134 22.95,14.628 C22.633,17.122 20.514,18.994 18,19 L12,19 C9.239,19 7,16.761 7,14 C7,11.239 9.239,9 12,9 C12.552,9 13,9.448 13,10 C13,10.552 12.552,11 12,11 Z"/>
</svg>

