<svg xmlns="http://www.w3.org/2000/svg" width="24" height="24">
  <defs/>
  <path  d="M12,2 C14.209,2 16,3.791 16,6 L16,7 C16,8.214 16.502,9.267 17.166,10.354 L17.902,11.519 C18.002,11.679 18.097,11.834 18.182,11.976 C18.502,12.517 18.81,13.116 18.97,13.757 C19.078,14.202 19.143,14.657 19.164,15.115 C18.658,14.61 17.922,14.414 17.232,14.599 L16.667,14.75 L16.085,14.414 C15.485,14.068 14.748,14.057 14.137,14.385 C13.527,14.714 13.13,15.335 13.089,16.027 L12.851,19.992 C12.83,20.337 12.873,20.676 12.972,20.995 L12.703,21 L12.297,21 C12.221,21 12.146,20.999 12.071,20.996 C12.291,20.286 12.223,19.504 11.857,18.829 L9.966,15.336 C9.636,14.726 9.014,14.331 8.322,14.292 C7.63,14.252 6.967,14.573 6.569,15.141 L6.184,15.691 L5.854,15.749 C5.82,15.363 5.829,14.974 5.878,14.589 C5.915,14.304 5.964,14.022 6.03,13.757 C6.228,12.965 6.565,12.298 6.887,11.737 L7.324,10.997 C7.74,10.28 8,9.722 8,9 L8,6 C8,3.791 9.791,2 12,2 Z M14.611,15.266 C14.876,15.123 15.191,15.107 15.469,15.223 L15.585,15.28 L16.525,15.823 L17.491,15.564 C17.981,15.433 18.491,15.689 18.679,16.16 L18.716,16.271 L18.975,17.237 L19.915,17.78 C20.195,17.942 20.38,18.229 20.411,18.552 C20.441,18.874 20.314,19.191 20.069,19.403 L19.966,19.481 L16.651,21.669 C16.103,22.031 15.402,22.067 14.819,21.764 C14.237,21.461 13.864,20.866 13.846,20.209 L13.849,20.051 L14.087,16.086 C14.108,15.74 14.306,15.43 14.611,15.266 Z M8.264,15.29 C8.61,15.31 8.921,15.507 9.086,15.812 L10.978,19.305 C11.304,19.907 11.261,20.642 10.868,21.203 C10.476,21.764 9.8,22.055 9.122,21.955 L5.192,21.373 C4.849,21.322 4.557,21.097 4.42,20.779 C4.283,20.46 4.321,20.094 4.52,19.81 L5.143,18.92 L4.969,17.936 C4.873,17.392 5.236,16.873 5.78,16.777 L6.765,16.604 L7.388,15.714 C7.587,15.43 7.918,15.269 8.264,15.289 Z M10.562,7.778 L9.74,8.188 C9.964,8.785 10.312,9.344 10.637,9.788 L10.841,10.057 L11.025,10.282 L11.106,10.376 L11.356,10.235 L11.685,10.038 C11.861,9.929 12.053,9.806 12.251,9.671 C12.855,9.259 13.476,8.761 13.913,8.244 L11.597,7.664 C11.249,7.577 10.882,7.618 10.562,7.778 Z"/>
</svg>

