<svg xmlns="http://www.w3.org/2000/svg" width="24" height="24">
  <defs/>
  <path  d="M12,2 C14.209,2 16,3.791 16,6 L16,7 C16,8.224 16.535,9.31 17.156,10.334 L17.446,10.802 L17.958,11.607 C18.381,12.282 18.776,12.982 18.97,13.757 C19.232,14.803 19.245,15.914 18.895,16.941 L18.975,17.237 L19.915,17.78 C20.215,17.953 20.404,18.27 20.414,18.616 C20.425,18.962 20.255,19.289 19.966,19.48 L16.651,21.67 C16.204,21.965 15.65,22.046 15.137,21.893 C14.625,21.74 14.206,21.368 13.994,20.877 C13.569,20.958 13.137,20.999 12.704,21 L12.297,21 C11.879,21 11.46,20.96 11.047,20.885 C10.721,21.636 9.932,22.075 9.122,21.955 L5.192,21.373 C4.849,21.322 4.557,21.097 4.42,20.779 C4.283,20.46 4.321,20.094 4.52,19.81 L5.143,18.92 L4.969,17.936 C4.873,17.392 5.236,16.873 5.78,16.777 L6.039,16.732 C5.755,15.764 5.787,14.731 6.029,13.758 C6.228,12.965 6.565,12.298 6.887,11.737 L7.155,11.28 C7.577,10.575 8,9.847 8,9 L8,6 C8,3.791 9.791,2 12,2 Z M14.579,9.723 C14.27,10.019 13.943,10.295 13.6,10.55 C13.214,10.84 12.831,11.092 12.5,11.297 L12.129,11.52 C11.905,11.65 11.679,11.778 11.449,11.894 C11.064,12.087 10.598,12.011 10.293,11.707 C10.167,11.578 10.045,11.444 9.928,11.307 L9.722,11.059 C9.684,11.011 9.646,10.963 9.608,10.915 C9.431,11.344 9.216,11.725 9.011,12.075 L8.86,12.329 C8.471,12.985 8.148,13.53 7.97,14.242 C7.88,14.604 7.825,14.984 7.84,15.358 C8.265,15.189 8.751,15.332 9.018,15.703 L9.086,15.812 L10.672,18.741 C11.091,18.88 11.541,18.967 12.012,18.992 L12.297,19 L12.703,19 C13.02,19 13.329,18.972 13.627,18.919 L13.92,18.857 L14.087,16.087 C14.106,15.764 14.281,15.47 14.555,15.299 C14.83,15.127 15.17,15.099 15.469,15.223 L15.585,15.28 L16.525,15.823 L17.135,15.659 C17.198,15.188 17.145,14.703 17.03,14.242 C16.889,13.678 16.584,13.159 16.265,12.662 L15.948,12.173 C15.443,11.385 14.943,10.588 14.579,9.723 Z M12,4 C10.895,4 10,4.895 10,6 L10,6.385 C10.615,6.108 11.305,6.046 11.96,6.209 L14,6.719 L14,6 C14,4.895 13.105,4 12,4 Z M11.335,8.125 C11.184,8.109 11.032,8.128 10.89,8.18 L10.786,8.225 L10.386,8.425 L10.522,8.686 C10.725,9.054 10.959,9.405 11.222,9.733 C11.562,9.532 11.982,9.263 12.4,8.95 L12.676,8.736 L12.938,8.516 L11.475,8.15 Z M17.043,17.755 L16.643,17.862 L16.51,17.888 C16.377,17.905 16.242,17.895 16.113,17.858 L15.987,17.814 L15.868,19.79 L17.52,18.7 L17.418,18.612 C17.322,18.518 17.246,18.406 17.194,18.282 L17.15,18.155 Z M8.095,18.18 C7.976,18.315 7.822,18.415 7.651,18.47 L7.521,18.502 L7.112,18.573 L7.184,18.981 C7.215,19.158 7.198,19.341 7.134,19.509 L7.079,19.631 L9.037,19.921 L8.095,18.181 Z"/>
</svg>

