<svg xmlns="http://www.w3.org/2000/svg" width="24" height="24">
  <defs/>
  <path  d="M5,6.556 C5,4.04 7.04,2 9.556,2 C10.353,2 11,2.647 11,3.444 L11,10.268 C11.619,10.625 12,11.285 12,12 L12,21 C12,21.552 11.552,22 11,22 L5,22 C4.448,22 4,21.552 4,21 L4,12 C4,11.285 4.381,10.625 5,10.268 Z M13,14 C13,11.791 14.791,10 17,10 C19.209,10 21,11.791 21,14 L21,21 C21,21.552 20.552,22 20,22 L14,22 C13.448,22 13,21.552 13,21 Z M17,12 C15.895,12 15,12.895 15,14 L15,20 L19,20 L19,14 C19,12.895 18.105,12 17,12 Z M10,16 L6,16 L6,20 L10,20 Z M7,10 L9,10 L9,4.06 C7.831,4.321 7,5.358 7,6.556 Z M6,12 L6,14 L10,14 L10,12 Z"/>
</svg>

