<svg xmlns="http://www.w3.org/2000/svg" width="24" height="24">
  <defs/>
  <path  d="M9.556,2 C10.306,2 10.923,2.573 10.993,3.305 L11,3.445 L11,10.268 C11.567,10.595 11.938,11.179 11.993,11.831 L12,12 L12,21 C12,21.507 11.62,21.934 11.117,21.993 L11,22 L5,22 C4.493,22 4.066,21.62 4.007,21.117 L4,21 L4,12 C4,11.317 4.343,10.713 4.866,10.353 L5,10.268 L5,6.556 C5,4.04 7.04,2 9.556,2 Z M17,10 C19.209,10 21,11.791 21,14 L21,21 C21,21.552 20.552,22 20,22 L14,22 C13.448,22 13,21.552 13,21 L13,14 C13,11.791 14.791,10 17,10 Z M9,4.06 C7.894,4.307 7.082,5.252 7.006,6.383 L7,6.556 L7,10 L9,10 Z M10,13 L6,13 L6,15 L10,15 Z"/>
</svg>

