<svg xmlns="http://www.w3.org/2000/svg" width="24" height="24">
  <defs/>
  <path  d="M5.436,16.72 A1.466 1.466 0 0 1 6.656,18.995 A1.466 1.466 0 0 1 5.436,21.27 C4.786,21.27 4.273,20.992 4.009,20.369 A0.65 0.65 0 1 1 5.205,19.861 A0.179 0.179 0 0 0 5.37,19.97 C5.479,19.97 5.6,19.94 5.6,19.803 C5.6,19.703 5.527,19.66 5.444,19.649 L5.393,19.645 A0.65 0.65 0 0 1 5.297,18.352 L5.393,18.345 C5.495,18.345 5.6,18.308 5.6,18.187 C5.6,18.05 5.48,18.02 5.37,18.02 A0.179 0.179 0 0 0 5.206,18.13 A0.65 0.65 0 1 1 4.009,17.621 C4.273,16.999 4.786,16.721 5.436,16.721 Z M20,18 A1 1 0 1 1 20,20 L9,20 A1 1 0 1 1 9,18 Z M6.08,9.945 A1.552 1.552 0 0 1 6.51,12.387 L5.956,12.98 L6.426,12.98 A0.65 0.65 0 1 1 6.426,14.28 L4.573,14.28 A0.655 0.655 0 0 1 3.918,13.626 C3.918,13.419 3.947,13.227 4.095,13.069 L5.559,11.5 C5.669,11.383 5.641,11.179 5.499,11.108 C5.363,11.04 5.25,11.118 5.224,11.25 L5.218,11.309 A0.65 0.65 0 0 1 4.568,11.959 C4.178,11.959 3.918,11.632 3.918,11.262 A1.482 1.482 0 0 1 6.081,9.945 Z M20,11 A1 1 0 0 1 20.117,12.993 L20,13 L9,13 A1 1 0 0 1 8.883,11.007 L9,11 Z M6.15,3.39 L6.15,6.63 A0.65 0.65 0 1 1 4.85,6.63 L4.85,4.522 A0.65 0.65 0 0 1 4.39,3.339 L5.132,2.844 A0.655 0.655 0 0 1 6.15,3.389 Z M20,4 A1 1 0 0 1 20.117,5.993 L20,6 L9,6 A1 1 0 0 1 8.883,4.007 L9,4 Z"/>
</svg>

