<svg xmlns="http://www.w3.org/2000/svg" width="24" height="24">
  <defs/>
  <path  d="M7,13 C8.047,13 8.917,13.806 8.995,14.85 L9,15 L9,18 C9,19.047 8.194,19.917 7.15,19.995 L7,20 L4,20 C2.953,20 2.083,19.194 2.005,18.15 L2,18 L2,15 C2,13.953 2.806,13.083 3.85,13.005 L4,13 Z M7,3 C8.105,3 9,3.895 9,5 L9,8 C9,9.105 8.105,10 7,10 L4,10 C2.895,10 2,9.105 2,8 L2,5 C2,3.895 2.895,3 4,3 Z M20,13 C20.552,13 21,13.448 21,14 C21,14.552 20.552,15 20,15 L12,15 C11.448,15 11,14.552 11,14 C11,13.448 11.448,13 12,13 Z M20,3 C20.529,3.001 20.966,3.413 20.997,3.941 C21.028,4.47 20.642,4.931 20.117,4.993 L20,5 L12,5 C11.471,4.999 11.034,4.587 11.003,4.059 C10.972,3.53 11.358,3.069 11.883,3.007 L12,3 Z M16,7 C16.529,7.001 16.966,7.413 16.997,7.941 C17.028,8.47 16.642,8.931 16.117,8.993 L16,9 L12,9 C11.471,8.999 11.034,8.587 11.003,8.059 C10.972,7.53 11.358,7.069 11.883,7.007 L12,7 Z M16,17 C16.529,17.001 16.966,17.413 16.997,17.941 C17.028,18.47 16.642,18.931 16.117,18.993 L16,19 L12,19 C11.471,18.999 11.034,18.587 11.003,18.059 C10.972,17.53 11.358,17.069 11.883,17.007 L12,17 Z M7,5 L4,5 L4,8 L7,8 Z M7,15 L4,15 L4,18 L7,18 Z"/>
</svg>

