<svg xmlns="http://www.w3.org/2000/svg" width="24" height="24">
  <defs/>
  <path  d="M4,3.5 A1.5 1.5 0 1 0 4,6.5 L11.5,6.5 A1.5 1.5 0 0 0 11.5,3.5 Z M21.312,5.826 C21.597,5.268 21.167,4.606 20.481,4.547 L20.113,4.519 L19.673,4.491 L19.167,4.467 L18.6,4.451 A31.753 31.753 0 0 0 17.976,4.445 L17.386,4.45 L16.846,4.465 L16.139,4.499 L15.569,4.539 L15.411,4.552 C14.771,4.609 14.403,5.21 14.684,5.762 L14.839,6.06 L14.931,6.23 L15.144,6.612 L15.398,7.043 A25.048 25.048 0 0 0 16.182,8.265 L16.488,8.703 L16.768,9.086 L17.128,9.554 L17.228,9.681 C17.626,10.173 18.394,10.191 18.77,9.727 L18.983,9.459 L19.235,9.131 L19.373,8.944 L19.671,8.529 L19.829,8.301 L20.159,7.806 C20.322,7.555 20.471,7.316 20.605,7.093 L20.854,6.67 L21.064,6.293 L21.239,5.967 L21.312,5.827 Z M21.312,15.826 C21.597,15.268 21.167,14.606 20.481,14.547 L20.113,14.518 L19.673,14.491 L19.167,14.467 A30.08 30.08 0 0 0 18.6,14.451 L17.976,14.445 L17.386,14.45 L16.846,14.465 L16.139,14.498 L15.569,14.538 L15.411,14.552 C14.771,14.609 14.403,15.21 14.684,15.762 L14.931,16.23 L15.144,16.612 L15.398,17.043 A25.064 25.064 0 0 0 16.338,18.491 L16.631,18.901 L16.768,19.086 L17.128,19.554 L17.228,19.681 C17.626,20.173 18.394,20.191 18.77,19.727 L18.983,19.459 L19.235,19.131 L19.373,18.944 L19.671,18.529 L19.829,18.301 L20.159,17.805 C20.322,17.555 20.471,17.316 20.605,17.093 L20.854,16.67 L21.064,16.292 L21.239,15.967 Z M2.5,12 A1.5 1.5 0 0 1 4,10.5 L11.5,10.5 A1.5 1.5 0 0 1 11.5,13.5 L4,13.5 A1.5 1.5 0 0 1 2.5,12 M4,17.5 A1.5 1.5 0 0 0 4,20.5 L11.5,20.5 A1.5 1.5 0 0 0 11.5,17.5 Z"/>
</svg>

