<svg xmlns="http://www.w3.org/2000/svg" width="24" height="24">
  <defs/>
  <path  d="M4,4 A1 1 0 0 0 4,6 L12,6 A1 1 0 1 0 12,4 Z M20.837,5.606 C20.969,5.349 20.775,5.05 20.457,5.023 L19.892,4.981 L19.428,4.955 L18.901,4.935 L18.316,4.924 L17.706,4.924 L17.151,4.934 L16.647,4.952 L15.997,4.988 L15.487,5.028 C15.191,5.054 15.026,5.326 15.155,5.58 L15.305,5.869 L15.495,6.215 L15.723,6.613 C15.763,6.683 15.807,6.755 15.852,6.83 L16.14,7.297 L16.462,7.793 L16.772,8.248 C16.822,8.32 16.872,8.389 16.92,8.456 L17.194,8.831 L17.436,9.149 L17.642,9.41 C17.825,9.636 18.172,9.645 18.346,9.43 L18.672,9.015 L18.935,8.665 L19.227,8.257 C19.38,8.04 19.541,7.803 19.707,7.547 L19.863,7.304 L20.145,6.847 L20.389,6.431 L20.497,6.241 L20.685,5.896 Z M20.837,15.606 C20.969,15.348 20.775,15.05 20.457,15.023 L19.892,14.98 L19.428,14.955 L18.901,14.935 L18.316,14.924 L17.706,14.924 L17.151,14.934 L16.647,14.952 L16.199,14.975 L15.641,15.015 A22.24 22.24 0 0 0 15.487,15.027 C15.191,15.054 15.026,15.326 15.155,15.58 L15.305,15.868 L15.495,16.214 L15.723,16.613 C15.763,16.683 15.807,16.755 15.852,16.83 L16.14,17.297 L16.3,17.545 C16.409,17.715 16.516,17.875 16.62,18.027 L16.92,18.456 L17.194,18.831 L17.436,19.149 L17.642,19.409 C17.825,19.636 18.172,19.645 18.346,19.43 L18.672,19.015 L18.935,18.665 L19.227,18.257 C19.38,18.04 19.541,17.802 19.707,17.547 L20.008,17.071 L20.272,16.634 C20.353,16.494 20.428,16.364 20.497,16.24 L20.685,15.896 Z M3,12 A1 1 0 0 1 4,11 L12,11 A1 1 0 1 1 12,13 L4,13 A1 1 0 0 1 3,12 M4,18 A1 1 0 1 0 4,20 L12,20 A1 1 0 1 0 12,18 Z"/>
</svg>

