<svg xmlns="http://www.w3.org/2000/svg" width="24" height="24">
  <defs/>
  <path  d="M4,6 A1 1 0 0 1 4,4 L12,4 A1 1 0 1 1 12,6 Z M20.837,8.394 C20.969,8.652 20.775,8.95 20.457,8.977 L19.892,9.02 L19.428,9.045 L18.901,9.065 L18.316,9.076 L17.706,9.076 L17.151,9.066 L16.647,9.048 L16.199,9.025 L15.811,9 L15.487,8.974 C15.191,8.947 15.026,8.675 15.155,8.422 L15.305,8.132 L15.495,7.787 L15.723,7.388 C15.763,7.318 15.807,7.246 15.852,7.171 L16.14,6.704 L16.3,6.456 C16.409,6.286 16.516,6.126 16.62,5.974 L16.92,5.545 L17.194,5.17 L17.436,4.852 L17.642,4.592 C17.825,4.365 18.172,4.356 18.346,4.571 L18.672,4.986 L18.935,5.336 L19.227,5.744 C19.38,5.961 19.541,6.199 19.707,6.454 L20.008,6.93 L20.272,7.367 C20.353,7.507 20.428,7.637 20.497,7.761 L20.685,8.105 L20.837,8.395 Z M20.837,18.394 C20.969,18.651 20.775,18.95 20.457,18.977 L19.892,19.019 L19.428,19.045 L18.901,19.065 L18.316,19.076 L17.706,19.076 L17.151,19.066 L16.647,19.048 L16.199,19.025 L15.641,18.985 A22.24 22.24 0 0 1 15.487,18.972 C15.191,18.946 15.026,18.674 15.155,18.42 L15.305,18.131 L15.495,17.785 L15.723,17.387 C15.763,17.317 15.807,17.245 15.852,17.17 L16.14,16.703 L16.462,16.207 L16.772,15.752 C16.822,15.68 16.872,15.611 16.92,15.544 L17.194,15.169 L17.436,14.851 L17.642,14.59 C17.825,14.364 18.172,14.355 18.346,14.57 L18.672,14.985 L18.935,15.335 L19.227,15.743 C19.38,15.96 19.541,16.197 19.707,16.453 L19.863,16.696 L20.145,17.153 L20.389,17.569 L20.497,17.759 L20.685,18.104 Z M4,20 A1 1 0 1 1 4,18 L12,18 A1 1 0 1 1 12,20 Z M3,12 A1 1 0 0 0 4,13 L12,13 A1 1 0 1 0 12,11 L4,11 A1 1 0 0 0 3,12"/>
</svg>

