<svg xmlns="http://www.w3.org/2000/svg" width="24" height="24">
  <defs/>
  <path  d="M20,17.5 A1.5 1.5 0 0 1 20,20.5 L9,20.5 A1.5 1.5 0 0 1 9,17.5 Z M4.5,17.5 A1.5 1.5 0 1 1 4.5,20.5 A1.5 1.5 0 0 1 4.5,17.5 M20,10.5 A1.5 1.5 0 0 1 20.144,13.493 L20,13.5 L9,13.5 A1.5 1.5 0 0 1 8.856,10.507 L9,10.5 Z M4.5,10.5 A1.5 1.5 0 1 1 4.5,13.5 A1.5 1.5 0 0 1 4.5,10.5 M4.5,3.5 A1.5 1.5 0 1 1 4.5,6.5 A1.5 1.5 0 0 1 4.5,3.5 M20,3.5 A1.5 1.5 0 0 1 20.144,6.493 L20,6.5 L9,6.5 A1.5 1.5 0 0 1 8.856,3.507 L9,3.5 Z"/>
</svg>

