<svg xmlns="http://www.w3.org/2000/svg" width="24" height="24">
  <defs/>
  <path  d="M7,13 A2 2 0 0 1 8.995,14.85 L9,15 L9,18 A2 2 0 0 1 7.15,19.995 L7,20 L4,20 A2 2 0 0 1 2.005,18.15 L2,18 L2,15 A2 2 0 0 1 3.85,13.005 L4,13 Z M16,17 A1 1 0 0 1 16.117,18.993 L16,19 L12,19 A1 1 0 0 1 11.883,17.007 L12,17 Z M20,13 A1 1 0 1 1 20,15 L12,15 A1 1 0 1 1 12,13 Z M7,3 A2 2 0 0 1 9,5 L9,8 A2 2 0 0 1 7,10 L4,10 A2 2 0 0 1 2,8 L2,5 A2 2 0 0 1 4,3 Z M16,7 A1 1 0 0 1 16.117,8.993 L16,9 L12,9 A1 1 0 0 1 11.883,7.007 L12,7 Z M20,3 A1 1 0 0 1 20.117,4.993 L20,5 L12,5 A1 1 0 0 1 11.883,3.007 L12,3 Z"/>
</svg>

