<svg xmlns="http://www.w3.org/2000/svg" width="24" height="24">
  <defs/>
  <path  d="M5.436,16.72 A1.466 1.466 0 0 1 6.656,18.995 A1.466 1.466 0 0 1 5.436,21.27 C4.849,21.27 4.302,21.06 4.056,20.48 C3.903,20.119 3.944,19.69 4.353,19.517 A0.65 0.65 0 0 1 5.205,19.861 A0.177 0.177 0 0 0 5.37,19.971 C5.484,19.968 5.6,19.945 5.6,19.803 C5.6,19.703 5.527,19.66 5.444,19.648 L5.393,19.645 A0.65 0.65 0 0 1 5.281,18.355 L5.393,18.345 C5.495,18.345 5.6,18.308 5.6,18.187 C5.6,18.046 5.484,18.022 5.37,18.019 A0.177 0.177 0 0 0 5.206,18.129 A0.65 0.65 0 0 1 4.353,18.474 C3.944,18.3 3.903,17.871 4.056,17.511 C4.302,16.931 4.849,16.721 5.436,16.721 Z M20,17.5 A1.5 1.5 0 0 1 20,20.5 L9,20.5 A1.5 1.5 0 0 1 9,17.5 Z M6.08,9.945 A1.552 1.552 0 0 1 6.51,12.387 L5.956,12.98 L6.426,12.98 A0.65 0.65 0 1 1 6.426,14.28 L4.573,14.28 A0.655 0.655 0 0 1 3.918,13.626 C3.918,13.419 3.947,13.227 4.095,13.069 L5.559,11.5 C5.701,11.348 5.589,11.027 5.356,11.085 C5.269,11.107 5.233,11.174 5.222,11.25 L5.218,11.309 A0.65 0.65 0 1 1 3.918,11.309 C3.918,10.617 4.357,9.995 5.041,9.824 C5.391,9.736 5.759,9.784 6.081,9.945 Z M20,10.5 A1.5 1.5 0 0 1 20.144,13.493 L20,13.5 L9,13.5 A1.5 1.5 0 0 1 8.856,10.507 L9,10.5 Z M6.15,3.39 L6.15,6.63 A0.65 0.65 0 0 1 4.85,6.63 L4.85,4.523 A0.65 0.65 0 0 1 4.39,3.339 L5.132,2.845 A0.655 0.655 0 0 1 6.15,3.389 Z M20,3.5 A1.5 1.5 0 0 1 20.144,6.493 L20,6.5 L9,6.5 A1.5 1.5 0 0 1 8.856,3.507 L9,3.5 Z"/>
</svg>

