<svg xmlns="http://www.w3.org/2000/svg" width="24" height="24">
  <defs/>
  <path  d="M4,6.5 A1.5 1.5 0 1 1 4,3.5 L11.5,3.5 A1.5 1.5 0 0 1 11.5,6.5 Z M21.312,8.174 C21.597,8.732 21.167,9.394 20.481,9.453 L20.113,9.482 L19.673,9.509 L19.167,9.533 A30.08 30.08 0 0 1 18.6,9.549 L17.976,9.555 L17.386,9.55 L16.846,9.535 L16.139,9.502 L15.569,9.462 A22.894 22.894 0 0 1 15.411,9.448 C14.771,9.391 14.403,8.79 14.684,8.238 L14.931,7.77 L15.144,7.388 L15.398,6.957 A25.048 25.048 0 0 1 16.338,5.509 L16.631,5.099 L16.768,4.914 L17.128,4.446 L17.228,4.319 C17.626,3.827 18.394,3.809 18.77,4.273 L18.983,4.541 L19.235,4.869 L19.373,5.056 L19.671,5.471 L19.829,5.699 L20.159,6.195 C20.322,6.445 20.471,6.684 20.605,6.907 L20.854,7.33 L21.064,7.708 L21.239,8.033 Z M21.312,18.174 C21.597,18.732 21.167,19.394 20.481,19.453 L20.113,19.481 L19.673,19.509 L19.167,19.533 L18.6,19.549 A31.75 31.75 0 0 1 17.976,19.555 L17.386,19.55 L16.846,19.535 L16.139,19.501 L15.569,19.461 A22.812 22.812 0 0 1 15.411,19.448 C14.771,19.391 14.403,18.79 14.684,18.238 L14.839,17.94 L14.931,17.77 L15.144,17.388 L15.398,16.957 L15.692,16.48 A25.588 25.588 0 0 1 16.182,15.735 L16.488,15.297 L16.768,14.914 L17.128,14.446 L17.228,14.319 C17.626,13.827 18.394,13.809 18.77,14.273 L18.983,14.541 L19.235,14.869 L19.373,15.056 L19.671,15.471 L19.829,15.699 L20.159,16.195 C20.322,16.445 20.471,16.684 20.605,16.906 L20.854,17.33 L21.064,17.707 L21.239,18.032 Z M4,20.5 A1.5 1.5 0 0 1 4,17.5 L11.5,17.5 A1.5 1.5 0 0 1 11.5,20.5 Z M2.5,12 A1.5 1.5 0 0 0 4,13.5 L11.5,13.5 A1.5 1.5 0 0 0 11.5,10.5 L4,10.5 A1.5 1.5 0 0 0 2.5,12"/>
</svg>

