<svg xmlns="http://www.w3.org/2000/svg" width="24" height="24">
  <defs/>
  <path  d="M7.06,16.836 A1.25 1.25 0 0 1 8.92,18.502 L8.829,18.604 L6.531,20.902 A1.5 1.5 0 0 1 4.523,21.005 L4.409,20.902 L3.172,19.664 A1.25 1.25 0 0 1 4.838,17.805 L4.94,17.896 L5.47,18.426 Z M20,17.5 A1.5 1.5 0 0 1 20,20.5 L12,20.5 A1.5 1.5 0 1 1 12,17.5 Z M8.83,9.836 A1.25 1.25 0 0 1 8.83,11.604 L6.53,13.902 A1.5 1.5 0 0 1 4.408,13.902 L3.171,12.664 A1.25 1.25 0 1 1 4.939,10.896 L5.469,11.426 L7.059,9.836 A1.25 1.25 0 0 1 8.828,9.836 Z M20,10.5 A1.5 1.5 0 0 1 20.145,13.493 L20,13.5 L12,13.5 A1.5 1.5 0 0 1 11.856,10.507 L12,10.5 Z M7.06,2.836 A1.25 1.25 0 0 1 8.92,4.502 L8.829,4.603 L6.53,6.902 A1.5 1.5 0 0 1 4.522,7.005 L4.408,6.902 L3.171,5.664 A1.25 1.25 0 0 1 4.837,3.805 L4.939,3.896 L5.469,4.426 Z M20,3.5 A1.5 1.5 0 0 1 20.145,6.493 L20,6.5 L12,6.5 A1.5 1.5 0 0 1 11.856,3.507 L12,3.5 Z"/>
</svg>

