<svg xmlns="http://www.w3.org/2000/svg" width="24" height="24">
  <defs/>
  <path  d="M7.238,17.013 A1 1 0 0 1 8.735,18.333 L8.652,18.427 L6.354,20.725 A1.25 1.25 0 0 1 4.688,20.815 L4.586,20.725 L3.349,19.487 A1 1 0 0 1 4.669,17.99 L4.763,18.073 L5.47,18.78 L7.238,17.012 Z M20,18 A1 1 0 0 1 20,20 L11,20 A1 1 0 1 1 11,18 Z M8.652,10.012 A1 1 0 0 1 8.652,11.427 L6.354,13.725 A1.25 1.25 0 0 1 4.586,13.725 L3.349,12.487 A1 1 0 1 1 4.763,11.073 L5.47,11.78 L7.238,10.013 A1 1 0 0 1 8.652,10.013 Z M20,11 A1 1 0 0 1 20.117,12.993 L20,13 L11,13 A1 1 0 0 1 10.884,11.007 L11,11 Z M7.238,3.013 A1 1 0 0 1 8.735,4.333 L8.652,4.427 L6.354,6.725 A1.25 1.25 0 0 1 4.688,6.815 L4.586,6.725 L3.349,5.487 A1 1 0 0 1 4.669,3.99 L4.763,4.073 L5.47,4.78 Z M20,4 A1 1 0 0 1 20.117,5.993 L20,6 L11,6 A1 1 0 0 1 10.884,4.007 L11,4 Z"/>
</svg>

