<svg xmlns="http://www.w3.org/2000/svg" width="24" height="24">
  <defs/>
  <path  d="M4,16 A1 1 0 0 1 4.993,16.883 L5,17 L5,19 L7,19 A1 1 0 0 1 7.117,20.993 L7,21 L5,21 A2 2 0 0 1 3.005,19.15 L3,19 L3,17 A1 1 0 0 1 4,16 M20,16 A1 1 0 0 1 21,17 L21,19 A2 2 0 0 1 19,21 L17,21 A1 1 0 1 1 17,19 L19,19 L19,17 A1 1 0 0 1 20,16 M15.642,7.045 A1 1 0 0 1 16.999,8.231 L16.955,8.358 L12.712,18.258 A1 1 0 0 1 10.852,18.201 L10.818,18.089 L9.898,14.101 L5.911,13.181 A1 1 0 0 1 5.638,11.34 L5.742,11.288 Z M7,3 A1 1 0 0 1 7,5 L5,5 L5,7 A1 1 0 0 1 3,7 L3,5 A2 2 0 0 1 5,3 Z M19,3 A2 2 0 0 1 21,5 L21,7 A1 1 0 1 1 19,7 L19,5 L17,5 A1 1 0 1 1 17,3 Z"/>
</svg>

