<svg xmlns="http://www.w3.org/2000/svg" width="24" height="24">
  <defs/>
  <path  d="M16.955,8.358 L12.712,18.258 C12.542,18.656 12.134,18.899 11.703,18.86 C11.272,18.822 10.915,18.51 10.818,18.088 L9.898,14.101 L5.912,13.181 C5.491,13.084 5.18,12.727 5.141,12.296 C5.102,11.865 5.345,11.459 5.742,11.288 L15.642,7.045 C16.018,6.884 16.454,6.968 16.743,7.257 C17.032,7.546 17.116,7.982 16.955,8.358 Z M3,19 L3,17 C3,16.448 3.448,16 4,16 C4.552,16 5,16.448 5,17 L5,19 L7,19 C7.552,19 8,19.448 8,20 C8,20.552 7.552,21 7,21 L5,21 C3.895,21 3,20.105 3,19 Z M19,3 C20.105,3 21,3.895 21,5 L21,7 C21,7.552 20.552,8 20,8 C19.448,8 19,7.552 19,7 L19,5 L17,5 C16.448,5 16,4.552 16,4 C16,3.448 16.448,3 17,3 Z M3,5 C3,3.895 3.895,3 5,3 L7,3 C7.552,3 8,3.448 8,4 C8,4.552 7.552,5 7,5 L5,5 L5,7 C5,7.552 4.552,8 4,8 C3.448,8 3,7.552 3,7 Z M21,19 C21,20.105 20.105,21 19,21 L17,21 C16.448,21 16,20.552 16,20 C16,19.448 16.448,19 17,19 L19,19 L19,17 C19,16.448 19.448,16 20,16 C20.552,16 21,16.448 21,17 Z M10.957,12.293 C11.33,12.379 11.62,12.67 11.706,13.043 L12.079,14.658 L14.132,9.868 L9.343,11.921 Z"/>
</svg>

