<svg xmlns="http://www.w3.org/2000/svg" width="24" height="24">
  <defs/>
  <path  d="M16.95,2.586 C17.34,2.976 17.34,3.61 16.95,4 L13.95,7 L19,7 C20.105,7 21,7.895 21,9 L21,19 C21,20.105 20.105,21 19,21 L5,21 C3.895,21 3,20.105 3,19 L3,9 C3,7.895 3.895,7 5,7 L8.636,7 L7.05,5.414 C6.66,5.023 6.66,4.39 7.05,4 C7.441,3.609 8.075,3.609 8.465,4 L10.939,6.475 C11.134,6.67 11.451,6.67 11.646,6.475 L15.536,2.585 C15.927,2.195 16.559,2.195 16.95,2.585 Z M19,9 L5,9 L5,19 L19,19 Z M8.98,11.547 C9.023,11.157 9.249,10.811 9.588,10.614 C9.928,10.418 10.341,10.395 10.7,10.553 C11.117,10.735 11.911,11.104 12.9,11.676 C13.892,12.248 14.608,12.751 14.975,13.022 C15.643,13.516 15.645,14.511 14.975,15.006 C14.309,15.492 13.616,15.941 12.9,16.35 C11.903,16.926 11.115,17.293 10.7,17.474 C10.341,17.632 9.928,17.61 9.588,17.414 C9.248,17.217 9.023,16.871 8.98,16.481 C8.892,15.662 8.849,14.838 8.852,14.014 C8.852,12.874 8.93,12 8.98,11.547 Z M10.882,12.853 C10.842,13.626 10.842,14.4 10.882,15.173 C11.57,14.82 12.241,14.433 12.89,14.013 C12.241,13.592 11.571,13.205 10.882,12.853 Z"/>
</svg>

