<svg xmlns="http://www.w3.org/2000/svg" width="24" height="24">
  <defs/>
  <path  d="M12.191,19.998 A1 1 0 1 1 12.238,21.998 L12,22 L11.762,21.997 A1 1 0 1 1 11.809,19.997 L12,20 Z M17.538,19.165 A1 1 0 0 1 17.206,20.54 A9.996 9.996 0 0 1 16.794,20.778 A1 1 0 0 1 15.834,19.023 A7.8 7.8 0 0 0 16.164,18.833 A1 1 0 0 1 17.538,19.165 M7.837,18.833 C7.945,18.899 8.055,18.963 8.167,19.023 A1 1 0 0 1 7.206,20.778 A9.806 9.806 0 0 1 6.794,20.54 A1 1 0 1 1 7.837,18.833 M12,6 A6 6 0 1 1 12,18 A6 6 0 0 1 12,6 M20.38,15.437 A1 1 0 0 1 20.778,16.794 C20.702,16.934 20.622,17.071 20.54,17.206 A1 1 0 0 1 18.833,16.163 C18.899,16.055 18.963,15.945 19.023,15.833 A1 1 0 0 1 20.381,15.437 Z M4.977,15.834 A7.8 7.8 0 0 0 5.167,16.164 A1 1 0 1 1 3.46,17.206 A9.974 9.974 0 0 1 3.222,16.794 A1 1 0 0 1 4.977,15.834 M12,8 A4 4 0 1 0 12,16 A4 4 0 0 0 12,8 M12,10 A2 2 0 1 1 12,14 A2 2 0 0 1 12,10 M3.026,10.785 A1 1 0 0 1 4.002,11.809 L4,12 C4,12.064 4,12.128 4.002,12.191 A1 1 0 0 1 2.002,12.238 L2,12 C2,11.92 2,11.84 2.003,11.762 A1 1 0 0 1 3.026,10.785 M20.974,10.785 A1 1 0 0 1 21.997,11.762 L22,12 L21.997,12.238 A1 1 0 1 1 19.997,12.191 L20,12 L19.998,11.809 A1 1 0 0 1 20.974,10.785 M20.54,6.794 C20.622,6.929 20.702,7.067 20.778,7.206 A1 1 0 1 1 19.023,8.166 A7.987 7.987 0 0 0 18.833,7.836 A1 1 0 1 1 20.54,6.794 M4.835,6.462 A1 1 0 0 1 5.167,7.837 C5.101,7.945 5.037,8.055 4.977,8.167 A1 1 0 1 1 3.222,7.206 C3.298,7.066 3.378,6.929 3.46,6.794 A1 1 0 0 1 4.835,6.462 M16.794,3.222 C16.934,3.298 17.071,3.378 17.206,3.46 A1 1 0 0 1 16.163,5.167 A7.979 7.979 0 0 0 15.833,4.977 A1 1 0 1 1 16.794,3.222 M8.564,3.619 A1 1 0 0 1 8.166,4.977 A7.986 7.986 0 0 0 7.836,5.167 A1 1 0 0 1 6.795,3.46 C6.93,3.378 7.068,3.298 7.207,3.222 A1 1 0 0 1 8.564,3.619 M12.238,2.003 A1 1 0 0 1 12.191,4.003 L12,4 L11.809,4.002 A1 1 0 0 1 11.762,2.002 L12,2 Z"/>
</svg>

