<svg xmlns="http://www.w3.org/2000/svg" width="24" height="24">
  <defs/>
  <path  d="M16.95,4 L13.95,7 L19,7 C20.105,7 21,7.895 21,9 L21,19 C21,20.105 20.105,21 19,21 L5,21 C3.895,21 3,20.105 3,19 L3,9 C3,7.895 3.895,7 5,7 L8.636,7 L7.05,5.414 C6.79,5.163 6.686,4.791 6.777,4.441 C6.869,4.092 7.142,3.819 7.491,3.727 C7.841,3.636 8.213,3.74 8.464,4 L10.939,6.475 C11.134,6.67 11.451,6.67 11.646,6.475 L15.536,2.586 C15.928,2.207 16.552,2.212 16.938,2.598 C17.324,2.984 17.329,3.608 16.95,4 Z M9.463,11.92 L9.464,11.921 C9.42,12.305 9.354,13.047 9.354,14.013 C9.352,14.712 9.388,15.412 9.463,16.107 C9.5,16.437 9.691,16.731 9.979,16.897 C10.267,17.063 10.617,17.082 10.921,16.949 C11.274,16.795 11.942,16.485 12.789,15.995 C13.635,15.507 14.239,15.084 14.549,14.855 C15.117,14.435 15.116,13.591 14.549,13.172 C14.238,12.942 13.629,12.515 12.789,12.03 C11.949,11.545 11.276,11.232 10.921,11.078 C10.617,10.945 10.267,10.964 9.979,11.13 C9.691,11.296 9.5,11.59 9.463,11.92 Z"/>
</svg>

