<svg xmlns="http://www.w3.org/2000/svg" width="24" height="24">
  <defs/>
  <path d="M12,5 A1.5 1.5 0 1 1 12,2 A1.5 1.5 0 0 1 12,5 M7.885,6.337 A1.5 1.5 0 1 1 6.122,3.91 A1.5 1.5 0 0 1 7.885,6.337 M3.452,10.8 A1.5 1.5 0 1 0 4.379,7.947 A1.5 1.5 0 0 0 3.452,10.8 M5.342,14.163 A1.5 1.5 0 1 1 2.489,15.09 A1.5 1.5 0 0 1 5.343,14.163 Z M8.217,19.758 A1.5 1.5 0 1 0 5.79,17.995 A1.5 1.5 0 0 0 8.217,19.758 M12,19 A1.5 1.5 0 1 1 12,22 A1.5 1.5 0 0 1 12,19 M18.21,17.995 A1.5 1.5 0 1 0 15.783,19.758 A1.5 1.5 0 0 0 18.21,17.995 M18.657,14.163 A1.5 1.5 0 1 1 21.51,15.09 A1.5 1.5 0 0 1 18.657,14.163 M19.62,7.947 A1.5 1.5 0 1 0 20.547,10.8 A1.5 1.5 0 0 0 19.62,7.947 M16.114,6.337 A1.5 1.5 0 1 1 17.878,3.91 A1.5 1.5 0 0 1 16.114,6.337"/>
</svg>

