<svg xmlns="http://www.w3.org/2000/svg" width="24" height="24">
  <defs/>
  <path  opacity="0.1" d="M2,12 C2,6.477 6.477,2 12,2 C17.523,2 22,6.477 22,12 C22,17.523 17.523,22 12,22 C6.477,22 2,17.523 2,12 Z M12,4 C7.582,4 4,7.582 4,12 C4,16.418 7.582,20 12,20 C16.418,20 20,16.418 20,12 C20,7.582 16.418,4 12,4 Z"/>
  <path  d="M12,4 C9.937,3.996 7.954,4.792 6.467,6.222 C6.068,6.604 5.435,6.591 5.053,6.192 C4.671,5.793 4.684,5.16 5.083,4.778 C6.942,2.991 9.422,1.996 12,2 C12.552,2 13,2.448 13,3 C13,3.552 12.552,4 12,4 Z"/>
</svg>

