<svg xmlns="http://www.w3.org/2000/svg" width="24" height="24">
  <defs/>
  <path d="M12,6 A2 2 0 1 0 12,2 A2 2 0 0 0 12,6 M5.01,7.626 A2 2 0 1 1 3.774,11.43 A2 2 0 0 1 5.01,7.626 M6.122,3.91 A2 2 0 1 1 8.473,7.146 A2 2 0 0 1 6.123,3.91 Z M8.473,16.854 A2 2 0 1 1 6.123,20.09 A2 2 0 0 1 8.473,16.854 M3.773,12.57 A2 2 0 1 1 5.01,16.374 A2 2 0 0 1 3.774,12.57 Z M12,18 A2 2 0 1 0 12,22 A2 2 0 0 0 12,18 M18.32,17.296 A2 2 0 1 1 15.085,19.648 A2 2 0 0 1 18.32,17.296 M17.706,13.854 A2 2 0 1 1 21.511,15.09 A2 2 0 0 1 17.706,13.854 M21.511,8.91 A2 2 0 1 1 17.706,10.146 A2 2 0 0 1 21.511,8.91 M15.084,4.352 A2 2 0 1 1 18.32,6.703 A2 2 0 0 1 15.084,4.353 Z"/>
</svg>

