<svg xmlns="http://www.w3.org/2000/svg" width="24" height="24">
  <defs/>
  <path d="M13,21 A1 1 0 1 1 11,21 L11,18 A1 1 0 1 1 13,18 Z M13,6 A1 1 0 1 1 11,6 L11,3 A1 1 0 1 1 13,3 Z M22,12 A1 1 0 0 0 21,11 L18,11 A1 1 0 1 0 18,13 L21,13 A1 1 0 0 0 22,12 M6,11 A1 1 0 1 1 6,13 L3,13 A1 1 0 1 1 3,11 Z M19.071,19.071 A1 1 0 0 0 19.071,17.657 L16.95,15.536 A1 1 0 0 0 15.536,16.95 L17.656,19.071 A1 1 0 0 0 19.071,19.071 M8.464,7.051 A1 1 0 1 1 7.05,8.463 L4.93,6.344 A1 1 0 1 1 6.344,4.929 L8.464,7.05 Z M19.071,4.929 A1 1 0 0 0 17.657,4.929 L15.536,7.05 A1 1 0 0 0 16.95,8.464 L19.071,6.344 A1 1 0 0 0 19.071,4.929 M7.051,15.536 A1 1 0 1 1 8.464,16.95 L6.344,19.071 A1 1 0 0 1 4.929,17.657 Z"/>
</svg>

