<svg xmlns="http://www.w3.org/2000/svg" width="24" height="24">
  <defs/>
  <path  opacity="0.1" d="M1.5,12 C1.5,6.201 6.201,1.5 12,1.5 C17.799,1.5 22.5,6.201 22.5,12 C22.5,17.799 17.799,22.5 12,22.5 C6.201,22.5 1.5,17.799 1.5,12 Z M12,4.5 C7.858,4.5 4.5,7.858 4.5,12 C4.5,16.142 7.858,19.5 12,19.5 C16.142,19.5 19.5,16.142 19.5,12 C19.5,7.858 16.142,4.5 12,4.5 Z"/>
  <path  d="M12,4.5 C10.066,4.496 8.207,5.242 6.813,6.583 C6.212,7.138 5.277,7.11 4.712,6.519 C4.146,5.929 4.157,4.993 4.738,4.417 C6.69,2.541 9.293,1.496 12,1.5 C12.828,1.5 13.5,2.172 13.5,3 C13.5,3.828 12.828,4.5 12,4.5 Z"/>
</svg>

