<svg xmlns="http://www.w3.org/2000/svg" width="24" height="24">
  <defs/>
  <path d="M13.5,21 A1.5 1.5 0 0 1 10.5,21 L10.5,18 A1.5 1.5 0 0 1 13.5,18 Z M13.5,6 A1.5 1.5 0 0 1 10.5,6 L10.5,3 A1.5 1.5 0 0 1 13.5,3 Z M22.5,12 A1.5 1.5 0 0 0 21,10.5 L18,10.5 A1.5 1.5 0 0 0 18,13.5 L21,13.5 A1.5 1.5 0 0 0 22.5,12 M6,10.5 A1.5 1.5 0 0 1 6,13.5 L3,13.5 A1.5 1.5 0 0 1 3,10.5 Z M19.425,19.425 A1.5 1.5 0 0 0 19.425,17.303 L17.303,15.182 A1.5 1.5 0 1 0 15.182,17.303 L17.303,19.425 A1.5 1.5 0 0 0 19.425,19.425 M8.818,6.697 A1.5 1.5 0 0 1 6.697,8.818 L4.575,6.697 A1.5 1.5 0 0 1 6.697,4.575 Z M19.425,4.575 A1.5 1.5 0 0 0 17.303,4.575 L15.182,6.697 A1.5 1.5 0 1 0 17.303,8.818 L19.425,6.697 A1.5 1.5 0 0 0 19.425,4.575 M6.697,15.182 A1.5 1.5 0 1 1 8.818,17.303 L6.697,19.425 A1.5 1.5 0 0 1 4.575,17.303 Z"/>
</svg>

