<svg xmlns="http://www.w3.org/2000/svg" width="24" height="24">
  <defs/>
  <path  d="M6.72,16.64 A1 1 0 0 1 7.28,18.56 C6.78,18.706 6.42,18.86 6.189,19 C6.427,19.143 6.803,19.303 7.325,19.452 C8.48,19.782 10.133,20 12,20 C13.867,20 15.52,19.782 16.675,19.452 C17.198,19.303 17.573,19.143 17.811,19 C17.581,18.86 17.221,18.706 16.721,18.56 A1 1 0 0 1 17.28,16.64 C17.948,16.835 18.56,17.085 19.03,17.406 C19.465,17.705 20,18.226 20,19 C20,19.783 19.452,20.308 19.01,20.607 C18.532,20.929 17.907,21.18 17.224,21.375 C15.846,21.77 14,22 12,22 C10,22 8.154,21.77 6.776,21.375 C6.093,21.18 5.468,20.929 4.99,20.607 C4.548,20.307 4,19.783 4,19 C4,18.226 4.535,17.705 4.97,17.406 C5.44,17.085 6.052,16.835 6.72,16.64 M12,2 A7.5 7.5 0 0 1 19.5,9.5 C19.5,12.068 18.1,14.156 16.65,15.64 A16.402 16.402 0 0 1 14.797,17.255 C14.203,17.701 12.845,18.537 12.845,18.537 A1.71 1.71 0 0 1 11.155,18.537 A20.736 20.736 0 0 1 9.203,17.255 A16.29 16.29 0 0 1 7.35,15.64 C5.9,14.156 4.5,12.068 4.5,9.5 A7.5 7.5 0 0 1 12,2 M12,7.5 A2 2 0 1 0 12,11.5 A2 2 0 0 0 12,7.5"/>
</svg>

