<svg xmlns="http://www.w3.org/2000/svg" width="24" height="24">
  <defs/>
  <path  d="M12,2 C16.971,2 21,6.029 21,11 C21,14.074 19.324,16.59 17.558,18.395 C16.676,19.287 15.713,20.096 14.682,20.811 L14.256,21.101 L14.056,21.234 L13.679,21.474 L13.343,21.679 L12.927,21.921 C12.352,22.248 11.648,22.248 11.073,21.921 L10.657,21.679 L10.137,21.359 L9.945,21.234 L9.535,20.961 C8.423,20.208 7.387,19.349 6.442,18.395 C4.676,16.589 3,14.074 3,11 C3,6.029 7.029,2 12,2 Z M12,4 C8.134,4 5,7.134 5,11 C5,13.322 6.272,15.36 7.871,16.996 C8.559,17.692 9.302,18.331 10.093,18.906 L10.551,19.232 C10.699,19.335 10.841,19.431 10.978,19.52 L11.368,19.77 L11.711,19.979 L12,20.148 L12.455,19.879 L12.822,19.649 C13.017,19.525 13.227,19.386 13.449,19.232 L13.907,18.906 C14.698,18.331 15.441,17.692 16.129,16.996 C17.728,15.361 19,13.322 19,11 C19,7.134 15.866,4 12,4 Z M12,7 C14.209,7 16,8.791 16,11 C16,13.209 14.209,15 12,15 C9.791,15 8,13.209 8,11 C8,8.791 9.791,7 12,7 Z M12,9 C10.895,9 10,9.895 10,11 C10,12.105 10.895,13 12,13 C13.105,13 14,12.105 14,11 C14,9.895 13.105,9 12,9 Z"/>
</svg>

