<svg xmlns="http://www.w3.org/2000/svg" width="24" height="24">
  <defs/>
  <path  d="M12,2 C15.866,2 19,5.134 19,9 C19,11.382 17.711,13.317 16.377,14.69 C15.64,15.438 14.83,16.111 13.959,16.698 L13.586,16.944 L13.254,17.153 C13.202,17.184 13.152,17.213 13.105,17.243 L12.848,17.391 C12.32,17.691 11.68,17.691 11.152,17.391 L10.895,17.242 L10.585,17.053 C10.528,17.017 10.471,16.981 10.414,16.944 L10.041,16.698 C9.17,16.111 8.36,15.438 7.623,14.69 C6.289,13.317 5,11.382 5,9 C5,5.134 8.134,2 12,2 Z M12,4 C9.239,4 7,6.239 7,9 C7,10.636 7.89,12.095 9.057,13.296 C9.759,14.005 10.534,14.637 11.371,15.181 L11.711,15.398 C11.816,15.463 11.913,15.521 12,15.572 L12.29,15.398 L12.629,15.181 C13.466,14.637 14.241,14.005 14.943,13.296 C16.11,12.096 17,10.636 17,9 C17,6.239 14.761,4 12,4 Z M17.553,16.106 C18.006,15.879 18.558,16.027 18.836,16.451 L18.894,16.553 L20.894,20.553 C21.039,20.842 21.035,21.184 20.883,21.47 C20.731,21.756 20.45,21.95 20.129,21.992 L20,22 L4,22 C3.676,22 3.373,21.844 3.185,21.58 C2.997,21.316 2.949,20.978 3.055,20.672 L3.105,20.552 L5.105,16.552 C5.338,16.071 5.908,15.858 6.4,16.069 C6.891,16.279 7.129,16.84 6.941,17.34 L6.894,17.447 L5.618,20 L18.382,20 L17.106,17.447 C16.859,16.953 17.059,16.353 17.553,16.106 Z M12,6 C13.657,6 15,7.343 15,9 C15,10.657 13.657,12 12,12 C10.343,12 9,10.657 9,9 C9,7.343 10.343,6 12,6 Z M12,8 C11.448,8 11,8.448 11,9 C11,9.552 11.448,10 12,10 C12.552,10 13,9.552 13,9 C13,8.448 12.552,8 12,8 Z"/>
</svg>

