<svg xmlns="http://www.w3.org/2000/svg" width="24" height="24">
  <defs/>
  <path  d="M6,8 C6,4.686 8.686,2 12,2 C15.314,2 18,4.686 18,8 L19,8 C20.105,8 21,8.895 21,10 L21,20 C21,21.105 20.105,22 19,22 L5,22 C3.895,22 3,21.105 3,20 L3,10 C3,8.895 3.895,8 5,8 Z M12,4 C9.791,4 8,5.791 8,8 L16,8 C16,5.791 14.209,4 12,4 Z M14,14 C14,12.895 13.105,12 12,12 C11.095,12 10.303,12.608 10.068,13.482 C9.834,14.357 10.216,15.279 11,15.732 L11,17 C11,17.552 11.448,18 12,18 C12.552,18 13,17.552 13,17 L13,15.732 C13.619,15.375 14,14.715 14,14 Z"/>
</svg>

