<svg xmlns="http://www.w3.org/2000/svg" width="24" height="24">
  <defs/>
  <path  d="M2,11 A9 9 0 0 1 19.03,6.933 C19.265,7.395 19.327,7.926 19.23,8.435 C18.69,11.266 17.4,13.431 15.892,14.633 C14.542,15.711 12.726,16.306 11.199,16.133 A4.703 4.703 0 0 1 7.054,10.93 A3.564 3.564 0 0 1 10.994,7.787 A2.65 2.65 0 0 1 13.332,10.717 A1.921 1.921 0 0 1 11.208,12.411 A1.335 1.335 0 0 1 10.309,11.918 L10.222,11.795 A1.333 1.333 0 0 1 10.026,11.237 L10.024,11.218 L10.058,11.338 A1 1 0 0 0 11,12 C12.249,12 13.08,11.158 12.994,10.054 C12.921,9.119 12.191,8.294 11.211,8.184 A2.87 2.87 0 0 0 8.038,10.712 A3.334 3.334 0 0 0 10.988,14.399 A3.92 3.92 0 0 0 15.319,10.94 A4.65 4.65 0 0 0 11.217,5.8 A5.563 5.563 0 0 0 5.067,10.706 A6.702 6.702 0 0 0 10.975,18.121 C13.057,18.356 15.392,17.591 17.139,16.197 C18.156,15.385 19.077,14.253 19.808,12.86 A8.966 8.966 0 0 1 18.032,16.618 L21.707,20.293 A1 1 0 0 1 20.293,21.707 L16.618,18.032 A9 9 0 0 1 2,11"/>
</svg>

