<svg xmlns="http://www.w3.org/2000/svg" width="24" height="24">
  <defs/>
  <path  d="M2,11 C2,7.051 4.576,3.563 8.35,2.4 C12.125,1.237 16.216,2.671 18.439,5.935 C20.662,9.2 20.497,13.532 18.032,16.618 L21.707,20.293 C22.086,20.685 22.081,21.309 21.695,21.695 C21.309,22.081 20.685,22.086 20.293,21.707 L16.618,18.032 C13.916,20.191 10.215,20.611 7.098,19.111 C3.982,17.612 2,14.459 2,11 Z M11,4 C7.338,3.997 4.293,6.817 4.015,10.468 C3.736,14.119 6.319,17.368 9.939,17.92 C6.762,17.04 4.696,13.981 5.067,10.705 C5.411,7.652 8.164,5.456 11.217,5.799 C13.77,6.086 15.606,8.388 15.319,10.94 C15.077,13.091 13.139,14.638 10.988,14.398 C10.107,14.302 9.301,13.859 8.748,13.167 C8.194,12.476 7.939,11.592 8.038,10.712 C8.216,9.138 9.637,8.006 11.211,8.183 C12.191,8.293 12.921,9.119 12.994,10.053 C13.08,11.158 12.249,12 11,12 C10.577,12 10.2,11.735 10.058,11.337 L10.024,11.218 L10.026,11.236 C10.048,11.434 10.116,11.626 10.222,11.796 L10.309,11.918 C10.531,12.195 10.853,12.372 11.209,12.411 C12.263,12.529 13.214,11.77 13.332,10.716 C13.496,9.261 12.449,7.949 10.994,7.786 C9.038,7.566 7.274,8.974 7.054,10.93 C6.761,13.512 8.618,15.842 11.2,16.133 C12.726,16.305 14.541,15.711 15.892,14.633 C17.126,13.649 17.789,12.393 17.976,10.728 C17.98,10.697 17.985,10.666 17.991,10.636 C17.797,6.916 14.725,4 11,4 Z"/>
</svg>

