<svg xmlns="http://www.w3.org/2000/svg" width="24" height="24">
  <defs/>
  <path  d="M12,2 C17.523,2 22,6.477 22,12 C22,17.523 17.523,22 12,22 C6.477,22 2,17.523 2,12 C2,6.477 6.477,2 12,2 Z M12,4 C7.582,4 4,7.582 4,12 C4,16.418 7.582,20 12,20 C16.418,20 20,16.418 20,12 C20,7.582 16.418,4 12,4 Z M13,12 C13.552,12 14,12.448 14,13 C14,13.552 13.552,14 13,14 L11,14 C10.448,14 10,13.552 10,13 C10,12.448 10.448,12 11,12 Z M8.5,7 C9.328,7 10,7.672 10,8.5 C10,9.328 9.328,10 8.5,10 C7.672,10 7,9.328 7,8.5 C7,7.672 7.672,7 8.5,7 Z M15.5,7 C16.328,7 17,7.672 17,8.5 C17,9.328 16.328,10 15.5,10 C14.672,10 14,9.328 14,8.5 C14,7.672 14.672,7 15.5,7 Z"/>
</svg>

