<svg xmlns="http://www.w3.org/2000/svg" width="24" height="24">
  <defs/>
  <path  d="M12,2 C17.523,2 22,6.477 22,12 C22,17.523 17.523,22 12,22 C6.477,22 2,17.523 2,12 C2,6.477 6.477,2 12,2 M12,4 A8 8 0 1 0 19.036,15.81 A7.418 7.418 0 0 1 16.163,16.034 L15.952,16.006 A3.17 3.17 0 0 1 15.804,15.981 A1 1 0 0 1 16.08,14.003 L16.389,14.046 C17.229,14.142 18.19,14.06 19.075,13.677 C19.295,13.582 19.505,13.469 19.705,13.337 L19.912,13.191 A8 8 0 0 0 12,4 M15.5,8 A1.5 1.5 0 1 1 15.5,11 A1.5 1.5 0 0 1 15.5,8"/>
</svg>

