<svg xmlns="http://www.w3.org/2000/svg" width="24" height="24">
  <defs/>
  <path  d="M12,2 C17.523,2 22,6.477 22,12 C22,17.523 17.523,22 12,22 C6.477,22 2,17.523 2,12 C2,6.477 6.477,2 12,2 Z M13,12 L11,12 C10.448,12 10,12.448 10,13 C10,13.552 10.448,14 11,14 L13,14 C13.552,14 14,13.552 14,13 C14,12.448 13.552,12 13,12 Z M8.5,7 C7.672,7 7,7.672 7,8.5 C7,9.328 7.672,10 8.5,10 C9.328,10 10,9.328 10,8.5 C10,7.672 9.328,7 8.5,7 Z M15.5,7 C14.672,7 14,7.672 14,8.5 C14,9.328 14.672,10 15.5,10 C16.328,10 17,9.328 17,8.5 C17,7.672 16.328,7 15.5,7 Z"/>
</svg>

