<svg xmlns="http://www.w3.org/2000/svg" width="24" height="24">
  <defs/>
  <path  d="M2.06,12 C2.06,6.477 6.537,2 12.06,2 C17.211,2 21.453,5.895 22,10.9 C21.945,11.002 21.874,11.125 21.784,11.265 C21.408,11.845 20.952,12.368 20.429,12.82 C20.28,12.95 20.123,13.078 19.96,13.2 C19.704,13.391 19.427,13.551 19.134,13.677 C18.25,14.06 17.289,14.142 16.449,14.046 C16.346,14.035 16.279,14.024 16.256,14.019 C15.714,13.91 15.187,14.262 15.078,14.804 C14.97,15.345 15.321,15.872 15.863,15.981 C15.982,16.003 16.102,16.021 16.223,16.034 C17.38,16.165 18.676,16.056 19.93,15.512 C20.366,15.324 20.779,15.085 21.16,14.8 C21.361,14.65 21.555,14.492 21.744,14.327 L21.8,14.278 C20.768,18.703 16.8,22 12.06,22 C6.537,22 2.06,17.523 2.06,12 Z M15.06,9.5 C15.06,10.328 15.732,11 16.56,11 C17.388,11 18.06,10.328 18.06,9.5 C18.06,8.672 17.388,8 16.56,8 C15.732,8 15.06,8.672 15.06,9.5 Z"/>
</svg>

