<svg xmlns="http://www.w3.org/2000/svg" width="24" height="24">
  <defs/>
  <path  d="M12,2 C17.523,2 22,6.477 22,12 C22,17.523 17.523,22 12,22 C6.477,22 2,17.523 2,12 C2,6.477 6.477,2 12,2 Z M13,16 L11,16 C10.448,16 10,16.448 10,17 C10,17.552 10.448,18 11,18 L13,18 C13.552,18 14,17.552 14,17 C14,16.448 13.552,16 13,16 Z M8.5,11 C7.672,11 7,11.672 7,12.5 C7,13.328 7.672,14 8.5,14 C9.328,14 10,13.328 10,12.5 C10,11.672 9.328,11 8.5,11 Z M15.5,11 C14.672,11 14,11.672 14,12.5 C14,13.328 14.672,14 15.5,14 C16.328,14 17,13.328 17,12.5 C17,11.672 16.328,11 15.5,11 Z"/>
</svg>

