<svg xmlns="http://www.w3.org/2000/svg" width="24" height="24">
  <defs/>
  <path  d="M12,2 C17.523,2 22,6.477 22,12 C22,17.523 17.523,22 12,22 C6.477,22 2,17.523 2,12 C2,6.477 6.477,2 12,2 Z M12,4 C7.582,4 4,7.582 4,12 C4,16.418 7.582,20 12,20 C16.418,20 20,16.418 20,12 C20,7.582 16.418,4 12,4 Z M13,16 C13.552,16 14,16.448 14,17 C14,17.552 13.552,18 13,18 L11,18 C10.448,18 10,17.552 10,17 C10,16.448 10.448,16 11,16 Z M8.5,11 C9.328,11 10,11.672 10,12.5 C10,13.328 9.328,14 8.5,14 C7.672,14 7,13.328 7,12.5 C7,11.672 7.672,11 8.5,11 Z M15.5,11 C16.328,11 17,11.672 17,12.5 C17,13.328 16.328,14 15.5,14 C14.672,14 14,13.328 14,12.5 C14,11.672 14.672,11 15.5,11 Z"/>
</svg>

