<svg xmlns="http://www.w3.org/2000/svg" width="24" height="24">
  <defs/>
  <path  d="M22,12 C22,17.523 17.523,22 12,22 C7.261,22 3.292,18.703 2.26,14.278 L2.316,14.327 C2.502,14.49 2.697,14.647 2.9,14.8 C3.284,15.088 3.696,15.324 4.13,15.512 C5.384,16.056 6.68,16.165 7.837,16.034 C7.998,16.015 8.12,15.996 8.197,15.981 C8.739,15.872 9.09,15.345 8.981,14.804 C8.873,14.262 8.346,13.91 7.804,14.019 C7.74,14.031 7.676,14.04 7.611,14.046 C6.771,14.142 5.81,14.06 4.926,13.677 C4.633,13.551 4.356,13.391 4.1,13.2 C3.939,13.079 3.783,12.952 3.631,12.82 C3.109,12.368 2.653,11.845 2.277,11.265 C2.2,11.146 2.128,11.024 2.06,10.9 C2.607,5.895 6.849,2 12,2 C17.523,2 22,6.477 22,12 Z M9,9.5 C9,8.672 8.328,8 7.5,8 C6.672,8 6,8.672 6,9.5 C6,10.328 6.672,11 7.5,11 C8.328,11 9,10.328 9,9.5 Z"/>
</svg>

