<svg xmlns="http://www.w3.org/2000/svg" width="24" height="24">
  <defs/>
  <path  d="M12,4 C12.672,4 13.235,4.44 13.599,4.805 C14.013,5.22 14.412,5.783 14.759,6.435 C15.207,7.28 15.595,8.325 15.813,9.493 C16.417,9.178 17.053,8.93 17.711,8.753 C18.204,8.624 18.684,8.553 19.11,8.563 C19.48,8.572 20.044,8.645 20.45,9.051 C20.871,9.472 20.962,10.098 20.933,10.668 C20.905,11.196 20.77,11.806 20.548,12.437 C20.272,13.209 19.907,13.946 19.46,14.634 C19.888,14.795 20.3,14.996 20.69,15.234 C21.31,15.62 22,16.203 22,17 C22,17.355 21.857,17.642 21.731,17.83 C21.32,18.45 20.612,18.855 19.954,19.158 C18.926,19.631 17.534,20 16,20 C14.45,20 13.04,19.624 12,19.137 C10.96,19.624 9.55,20 8,20 C6.466,20 5.074,19.631 4.046,19.158 C3.388,18.855 2.68,18.45 2.269,17.831 C2.099,17.587 2.006,17.297 2,17 C2,16.203 2.69,15.62 3.31,15.235 C3.7,14.997 4.112,14.795 4.54,14.634 C4.093,13.946 3.728,13.209 3.452,12.437 C3.23,11.806 3.095,11.197 3.067,10.668 C3.037,10.098 3.128,9.472 3.55,9.051 C3.956,8.645 4.52,8.571 4.89,8.563 C5.316,8.553 5.796,8.624 6.289,8.753 C6.947,8.93 7.583,9.178 8.187,9.493 C8.383,8.427 8.739,7.396 9.242,6.435 C9.588,5.783 9.987,5.22 10.402,4.805 C10.765,4.44 11.327,4 12,4 Z M12.183,6.217 C12.013,6.047 11.987,6.047 11.817,6.217 C11.575,6.46 11.287,6.849 11.008,7.373 C10.347,8.648 10.001,10.064 10,11.5 C10.001,12.936 10.347,14.352 11.008,15.627 C11.287,16.151 11.576,16.541 11.818,16.783 C11.987,16.953 12.013,16.953 12.183,16.783 C12.425,16.541 12.713,16.151 12.992,15.627 C13.653,14.352 13.999,12.936 14,11.5 C13.999,10.064 13.653,8.648 12.992,7.373 C12.713,6.849 12.424,6.46 12.182,6.217 Z M5.065,10.565 C5.08,10.853 5.161,11.269 5.338,11.773 C5.692,12.779 6.381,14.003 7.439,15.061 C7.958,15.578 8.536,16.032 9.162,16.412 C8.429,14.944 8.032,13.331 8.002,11.691 C7.202,11.181 6.416,10.853 5.783,10.688 C5.548,10.624 5.308,10.582 5.065,10.565 Z M18.935,10.565 C18.755,10.575 18.513,10.611 18.217,10.688 C17.584,10.853 16.798,11.181 15.998,11.691 C15.968,13.331 15.571,14.944 14.838,16.411 C15.464,16.031 16.042,15.578 16.561,15.061 C17.619,14.003 18.308,12.779 18.661,11.773 C18.839,11.269 18.92,10.853 18.935,10.565 Z M5.855,16.301 C5.3,16.461 4.744,16.676 4.263,17 C4.421,17.107 4.628,17.224 4.883,17.342 C5.65,17.695 6.73,17.988 7.928,18 C7.171,17.519 6.475,16.948 5.855,16.3 Z M18.145,16.301 C17.525,16.948 16.829,17.519 16.072,18 C17.27,17.988 18.35,17.695 19.117,17.342 C19.372,17.224 19.579,17.107 19.737,17 C19.257,16.676 18.7,16.46 18.145,16.301 Z"/>
</svg>

