<svg xmlns="http://www.w3.org/2000/svg" width="24" height="24">
  <defs/>
  <path  d="M12,4 C11.328,4 10.765,4.44 10.401,4.805 C9.987,5.22 9.588,5.783 9.241,6.435 C8.793,7.28 8.405,8.325 8.187,9.493 A9.42 9.42 0 0 0 6.289,8.753 C5.796,8.624 5.316,8.553 4.89,8.563 C4.52,8.572 3.956,8.645 3.55,9.05 C3.129,9.472 3.037,10.097 3.067,10.668 C3.095,11.196 3.23,11.805 3.452,12.437 C3.694,13.127 4.055,13.882 4.54,14.634 A7.31 7.31 0 0 0 3.31,15.234 C2.69,15.62 2,16.204 2,17 C2,18.087 3.193,18.766 4.046,19.158 C5.074,19.631 6.466,20 8,20 C9.55,20 10.96,19.624 12,19.137 C13.04,19.624 14.45,20 16,20 C17.534,20 18.926,19.631 19.954,19.158 C20.807,18.766 22,18.087 22,17 C22,16.203 21.31,15.62 20.69,15.235 A7.31 7.31 0 0 0 19.46,14.634 C19.945,13.882 20.306,13.126 20.548,12.437 C20.77,11.806 20.905,11.196 20.933,10.667 C20.963,10.097 20.871,9.472 20.45,9.05 C20.044,8.645 19.48,8.572 19.11,8.563 C18.684,8.553 18.204,8.624 17.711,8.753 A9.422 9.422 0 0 0 15.813,9.493 A10.808 10.808 0 0 0 14.758,6.435 C14.412,5.783 14.013,5.22 13.598,4.805 C13.235,4.44 12.673,4 12,4"/>
</svg>

