<svg xmlns="http://www.w3.org/2000/svg" width="24" height="24">
  <defs/>
  <path  d="M14.125,19.972 C13.903,20.136 13.662,20.272 13.397,20.342 C12.744,20.517 12.038,20.31 11.394,20.122 C11.303,20.095 11.213,20.069 11.124,20.044 C6.351,18.701 3.154,16.598 2.237,13.46 C1.505,10.954 2.209,8.444 3.757,6.884 C5.191,5.439 7.317,4.853 9.498,5.792 C10.918,3.888 13.053,3.332 15.017,3.867 C17.137,4.444 19.001,6.266 19.62,8.802 C19.742,9.299 19.802,9.806 19.803,10.321 C20.058,10.451 20.3,10.613 20.523,10.801 C21.68,11.78 22.298,13.443 21.953,15.172 C21.513,17.378 19.468,18.927 16.543,20.033 C16.505,20.047 16.467,20.062 16.429,20.077 C15.959,20.257 15.453,20.451 14.947,20.362 C14.643,20.308 14.371,20.152 14.125,19.972 Z M4.157,12.899 C4.766,14.984 7.035,16.816 11.666,18.119 C11.873,18.177 12.078,18.237 12.276,18.287 C10.707,16.614 9.864,14.874 10.137,13.089 C10.405,11.346 11.555,9.994 12.977,9.471 C14.231,9.009 15.653,9.215 16.727,10.262 C17.063,10.109 17.421,10.008 17.787,9.961 C17.769,9.727 17.732,9.499 17.677,9.276 C17.225,7.421 15.885,6.177 14.491,5.797 C13.154,5.433 11.718,5.84 10.8,7.451 C10.48,8.012 9.759,8.206 9.2,7.879 C7.6,6.943 6.153,7.309 5.177,8.293 C4.16,9.318 3.622,11.066 4.157,12.899 Z M12.115,13.392 L12.115,13.391 C11.94,14.531 12.605,16.048 14.863,17.991 C15.007,18.114 15.148,18.241 15.301,18.354 C15.483,18.301 15.659,18.229 15.836,18.162 C18.623,17.109 19.766,15.911 19.991,14.781 C20.199,13.74 19.813,12.82 19.231,12.328 C18.695,11.875 17.963,11.743 17.163,12.31 C16.922,12.48 16.624,12.547 16.334,12.496 C16.043,12.444 15.786,12.279 15.618,12.037 C15.061,11.232 14.328,11.105 13.668,11.347 C12.954,11.611 12.275,12.342 12.115,13.392 Z"/>
</svg>

