<svg xmlns="http://www.w3.org/2000/svg" width="24" height="24">
  <defs/>
  <path  d="M9.498,5.793 C10.918,3.889 13.053,3.333 15.017,3.868 C17.137,4.445 19.001,6.266 19.62,8.802 C19.652,8.932 19.68,9.062 19.703,9.192 A4.453 4.453 0 0 0 16.929,9.122 C15.642,8.17 14.048,8.01 12.631,8.532 C10.856,9.187 9.47,10.848 9.149,12.938 C8.739,15.614 10.369,18.018 12.674,20.062 L13.062,20.398 C12.749,20.42 12.431,20.371 12.127,20.306 A9.474 9.474 0 0 1 11.661,20.194 L11.124,20.044 C6.35,18.701 3.154,16.6 2.237,13.46 C1.505,10.954 2.209,8.445 3.757,6.885 C5.191,5.44 7.317,4.854 9.498,5.793 M11.126,13.241 C11.554,10.449 14.783,9.073 16.441,11.469 A0.104 0.104 0 0 0 16.585,11.494 C18.962,9.81 21.525,12.207 20.972,14.977 C20.652,16.583 19.162,17.917 16.502,18.977 L16.067,19.147 L15.804,19.255 C15.577,19.344 15.337,19.415 15.12,19.377 C14.904,19.339 14.703,19.189 14.52,19.029 L14.21,18.749 C11.897,16.758 10.869,14.922 11.126,13.241"/>
</svg>

