<svg xmlns="http://www.w3.org/2000/svg" width="24" height="24">
  <defs/>
  <path  d="M9,2 C10.657,2 12,3.343 12,5 L12,12.956 L12.01,12.977 C12.032,13.015 12.062,13.048 12.097,13.074 C13.769,14.393 14.422,16.626 13.724,18.639 C13.026,20.651 11.13,22 9,22 C6.871,22 4.975,20.651 4.277,18.639 C3.579,16.626 4.232,14.393 5.904,13.074 C5.929,13.054 5.952,13.031 5.972,13.005 L6,12.955 L6,5 C6,3.343 7.343,2 9,2 Z M17,6 C17.507,6 17.934,6.38 17.993,6.883 L18,7 L18,8.268 L19.098,7.634 C19.557,7.367 20.144,7.505 20.436,7.948 C20.728,8.392 20.623,8.986 20.196,9.302 L20.098,9.366 L19,10 L20.098,10.634 C20.555,10.899 20.727,11.475 20.49,11.948 C20.252,12.42 19.688,12.626 19.202,12.418 L19.098,12.366 L18,11.732 L18,13 C17.999,13.529 17.587,13.966 17.059,13.997 C16.53,14.028 16.069,13.642 16.007,13.117 L16,13 L16,11.732 L14.902,12.366 C14.443,12.633 13.856,12.495 13.564,12.052 C13.272,11.608 13.377,11.014 13.804,10.698 L13.902,10.634 L15,10 L13.902,9.366 C13.44,9.103 13.264,8.524 13.503,8.048 C13.742,7.573 14.311,7.368 14.798,7.581 L14.902,7.634 L16,8.268 L16,7 C16,6.448 16.448,6 17,6 Z M12,17 L6,17 C5.998,18.624 7.289,19.954 8.912,20.002 C10.535,20.049 11.901,18.797 11.995,17.176 Z"/>
</svg>

