<svg xmlns="http://www.w3.org/2000/svg" width="24" height="24">
  <defs/>
  <path  d="M9,2 A3 3 0 0 1 12,5 L12,12.956 L12.01,12.977 A0.34 0.34 0 0 0 12.097,13.074 A5 5 0 1 1 5.904,13.074 A0.385 0.385 0 0 0 5.972,13.005 L6,12.955 L6,5 A3 3 0 0 1 9,2 M9,4 A1 1 0 0 0 8,5 L8,12.958 C8,13.633 7.663,14.184 7.256,14.548 L7.143,14.644 A3 3 0 1 0 11.003,14.767 L10.857,14.644 C10.401,14.284 10,13.694 10,12.958 L10,5 A1 1 0 0 0 9,4 M11,17 A2 2 0 1 1 7,17 Z M17,6 A1 1 0 0 1 17.993,6.883 L18,7 L18,8.268 L19.098,7.634 A1 1 0 0 1 20.196,9.302 L20.098,9.366 L19,10 L20.098,10.634 A1 1 0 0 1 19.202,12.418 L19.098,12.366 L18,11.732 L18,13 A1 1 0 0 1 16.007,13.117 L16,13 L16,11.732 L14.902,12.366 A1 1 0 0 1 13.804,10.698 L13.902,10.634 L15,10 L13.902,9.366 A1 1 0 0 1 14.797,7.581 L14.902,7.634 L16,8.268 L16,7 A1 1 0 0 1 17,6"/>
</svg>

