<svg xmlns="http://www.w3.org/2000/svg" width="24" height="24">
  <defs/>
  <path  d="M16.612,3.956 C13.865,2.735 10.562,4.234 10.232,7.429 A44.563 44.563 0 0 0 10,12 C10,13.73 10.097,15.269 10.231,16.57 C10.561,19.766 13.865,21.265 16.612,20.044 L16.837,19.944 A8.694 8.694 0 0 0 16.837,4.055 L16.612,3.955 Z M8.372,6.928 A1 1 0 0 0 7.629,5.072 L2.629,7.072 A1 1 0 0 0 3.371,8.928 L8.371,6.928 Z M8.928,10.628 A1 1 0 0 1 8.371,11.928 L3.371,13.928 A1 1 0 1 1 2.629,12.071 L7.629,10.071 A1 1 0 0 1 8.929,10.629 Z M8.371,16.928 A1 1 0 0 0 7.629,15.071 L2.629,17.071 A1 1 0 0 0 3.371,18.928 Z"/>
</svg>

