<svg xmlns="http://www.w3.org/2000/svg" width="24" height="24">
  <defs/>
  <path  d="M16.612,3.956 L16.612,3.955 L16.837,4.055 C19.976,5.45 22,8.564 22,12 C22,15.435 19.976,18.549 16.837,19.944 L16.612,20.044 C13.865,21.265 10.561,19.766 10.231,16.57 C10.097,15.269 10,13.73 10,12 C9.999,10.473 10.076,8.948 10.232,7.429 C10.562,4.234 13.865,2.735 16.612,3.956 Z M12.221,7.635 L12.22,7.635 C12.093,8.874 12,10.344 12,12 C11.999,13.458 12.072,14.915 12.22,16.365 C12.39,18.007 14.104,18.97 15.8,18.217 L16.025,18.117 C18.442,17.043 20,14.645 20,12 C20,9.355 18.442,6.957 16.025,5.883 L15.8,5.783 C14.104,5.03 12.391,5.993 12.221,7.635 Z M8.371,6.928 L3.371,8.928 C3.037,9.075 2.648,9.028 2.359,8.805 C2.069,8.583 1.924,8.22 1.98,7.859 C2.036,7.498 2.285,7.196 2.629,7.072 L7.629,5.072 C7.963,4.925 8.352,4.972 8.641,5.195 C8.931,5.417 9.076,5.78 9.02,6.141 C8.964,6.502 8.715,6.804 8.371,6.928 Z M8.928,10.628 C9.133,11.141 8.884,11.723 8.371,11.928 L3.371,13.928 C3.038,14.067 2.656,14.016 2.371,13.794 C2.086,13.572 1.943,13.214 1.996,12.857 C2.05,12.5 2.292,12.2 2.629,12.071 L7.629,10.071 C8.142,9.866 8.724,10.116 8.929,10.629 Z M8.371,16.928 L3.371,18.928 C2.861,19.123 2.289,18.872 2.086,18.365 C1.883,17.858 2.125,17.282 2.629,17.071 L7.629,15.071 C8.139,14.876 8.711,15.127 8.914,15.634 C9.117,16.141 8.875,16.717 8.371,16.928 Z"/>
</svg>

