<svg xmlns="http://www.w3.org/2000/svg" width="24" height="24">
  <defs/>
  <path  d="M14,2 C15.047,2 15.917,2.806 15.995,3.85 L16,4 L16,6 L17,6 C18.047,6 18.917,6.806 18.995,7.85 L19,8 L19,19 C19,20.105 18.105,21 17,21 C16.999,21.529 16.587,21.966 16.059,21.997 C15.53,22.028 15.069,21.642 15.007,21.117 L15,21 L9,21 C9,21.552 8.552,22 8,22 C7.448,22 7,21.552 7,21 C5.953,21 5.083,20.194 5.005,19.15 L5,19 L5,8 C5,6.953 5.806,6.083 6.85,6.005 L7,6 L8,6 L8,4 C8,2.953 8.806,2.083 9.85,2.005 L10,2 Z M10,10 C9.448,10 9,10.448 9,11 L9,16 C9,16.552 9.448,17 10,17 C10.552,17 11,16.552 11,16 L11,11 C11,10.448 10.552,10 10,10 Z M14,10 C13.493,10 13.066,10.38 13.007,10.883 L13,11 L13,16 C13.001,16.529 13.413,16.966 13.941,16.997 C14.47,17.028 14.931,16.642 14.993,16.117 L15,16 L15,11 C15,10.448 14.552,10 14,10 Z M14,4 L10,4 L10,6 L14,6 Z"/>
</svg>

