<svg xmlns="http://www.w3.org/2000/svg" width="24" height="24">
  <defs/>
  <path  d="M14,2 A2 2 0 0 1 15.995,3.85 L16,4 L16,6 L17,6 A2 2 0 0 1 18.995,7.85 L19,8 L19,19 A2 2 0 0 1 17,21 A1 1 0 0 1 15.007,21.117 L15,21 L9,21 A1 1 0 1 1 7,21 A2 2 0 0 1 5.005,19.15 L5,19 L5,8 A2 2 0 0 1 6.85,6.005 L7,6 L8,6 L8,4 A2 2 0 0 1 9.85,2.005 L10,2 Z M17,8 L7,8 L7,19 L17,19 Z M10,10 A1 1 0 0 1 11,11 L11,16 A1 1 0 1 1 9,16 L9,11 A1 1 0 0 1 10,10 M14,10 A1 1 0 0 1 15,11 L15,16 A1 1 0 1 1 13,16 L13,11 A1 1 0 0 1 14,10 M14,4 L10,4 L10,6 L14,6 Z"/>
</svg>

