<svg xmlns="http://www.w3.org/2000/svg" width="24" height="24">
  <defs/>
  <path  d="M10.137,6.74 L10.305,8.928 L10.555,8.762 A1 1 0 0 0 11,7.93 L11,4 A1 1 0 1 1 13,4 L13,7.93 A1 1 0 0 0 13.445,8.762 L13.695,8.928 L13.863,6.74 C13.984,5.166 15.795,4.346 17.057,5.293 L17.642,5.731 A7 7 0 0 1 20.36,10.267 L21.44,17.286 C21.798,19.613 19.458,21.427 17.293,20.5 L16.238,20.047 A5 5 0 0 1 13.223,15.068 L13.519,11.215 L12.336,10.425 A3.017 3.017 0 0 1 12,10.165 C11.895,10.26 11.783,10.347 11.664,10.425 L10.481,11.215 L10.777,15.068 A5 5 0 0 1 7.762,20.048 L6.706,20.5 C4.542,21.427 2.201,19.613 2.559,17.286 L3.639,10.267 A7 7 0 0 1 6.358,5.731 L6.942,5.293 C8.205,4.346 10.016,5.166 10.137,6.74"/>
</svg>

