<svg xmlns="http://www.w3.org/2000/svg" width="24" height="24">
  <defs/>
  <path  d="M10.137,6.74 L10.305,8.928 L10.555,8.762 C10.833,8.576 11,8.264 11,7.93 L11,4 C11,3.448 11.448,3 12,3 C12.552,3 13,3.448 13,4 L13,7.93 C13,8.264 13.167,8.576 13.445,8.762 L13.695,8.928 L13.863,6.739 C13.984,5.166 15.795,4.346 17.057,5.293 L17.642,5.731 C19.107,6.829 20.083,8.458 20.361,10.267 L21.441,17.286 C21.799,19.613 19.458,21.426 17.294,20.499 L16.238,20.047 C14.271,19.204 13.058,17.201 13.223,15.067 L13.519,11.21 C13.494,11.196 13.469,11.181 13.445,11.165 L12.336,10.425 C12.218,10.346 12.106,10.259 12,10.165 C11.895,10.26 11.783,10.347 11.664,10.425 L10.554,11.165 C10.53,11.181 10.506,11.196 10.481,11.21 L10.778,15.068 C10.942,17.202 9.73,19.205 7.762,20.048 L6.707,20.499 C4.542,21.427 2.202,19.613 2.56,17.286 L3.64,10.266 C3.918,8.457 4.894,6.829 6.358,5.731 L6.943,5.293 C8.205,4.346 10.016,5.166 10.137,6.739 Z M8.143,6.892 L7.558,7.33 C6.512,8.115 5.815,9.278 5.616,10.57 L4.536,17.589 C4.48,17.949 4.625,18.31 4.912,18.532 C5.2,18.755 5.586,18.804 5.92,18.66 L6.975,18.208 C8.156,17.702 8.884,16.501 8.785,15.22 Z M16.442,7.33 L15.857,6.892 L15.217,15.22 C15.118,16.501 15.846,17.702 17.027,18.208 L18.081,18.66 C18.415,18.803 18.801,18.754 19.088,18.532 C19.375,18.309 19.519,17.948 19.464,17.589 L18.384,10.57 C18.185,9.278 17.488,8.115 16.442,7.33 Z"/>
</svg>

