<svg xmlns="http://www.w3.org/2000/svg" width="24" height="24">
  <defs/>
  <path  d="M12,7 C14.035,7 15.925,7.352 17.344,7.96 C18.052,8.263 18.688,8.65 19.162,9.13 C19.64,9.614 20,10.248 20,11 C20,11.752 19.64,12.386 19.162,12.87 C18.688,13.35 18.051,13.737 17.344,14.04 C15.925,14.648 14.035,15 12,15 C9.965,15 8.075,14.648 6.656,14.04 C5.948,13.737 5.312,13.35 4.838,12.87 C4.36,12.386 4,11.752 4,11 C4,10.248 4.36,9.614 4.838,9.13 C5.312,8.65 5.949,8.263 6.656,7.96 C8.075,7.352 9.965,7 12,7 Z M6.946,15.223 C8.401,15.728 10.16,16 12,16 C13.84,16 15.6,15.728 17.054,15.223 C17.121,15.971 17.229,16.714 17.379,17.449 L17.496,17.996 L17.612,18.486 L17.722,18.909 C17.964,19.808 17.571,20.906 16.52,21.267 C16.411,21.304 16.292,21.343 16.165,21.383 L15.758,21.501 C14.82,21.758 13.53,22 12,22 C10.47,22 9.18,21.758 8.242,21.501 L7.835,21.383 C7.708,21.343 7.59,21.304 7.48,21.267 C6.428,20.906 6.036,19.809 6.278,18.909 L6.388,18.486 L6.504,17.996 L6.621,17.449 C6.756,16.782 6.878,16.017 6.946,15.223 Z M10.008,1.673 L10.007,1.673 C10.479,2.545 11.172,3.277 12.017,3.796 C12.305,3.974 12.332,4.011 12.017,4.204 L11.79,4.35 C10.971,4.91 10.315,5.675 9.886,6.569 L9.846,6.649 L9.78,6.777 C9.689,6.933 9.634,6.931 9.524,6.731 L9.318,6.327 C8.846,5.455 8.153,4.723 7.308,4.204 L7.178,4.119 C7.022,4.008 7.051,3.954 7.308,3.796 L7.535,3.65 C8.354,3.091 9.011,2.325 9.44,1.431 L9.48,1.351 L9.547,1.223 C9.637,1.067 9.692,1.069 9.802,1.269 Z M12,10 C10.343,10 9,10.448 9,11 C9,11.552 10.343,12 12,12 C13.657,12 15,11.552 15,11 C15,10.448 13.657,10 12,10 Z M14.161,4.903 L14.231,4.864 C14.831,4.543 15.34,4.074 15.708,3.501 L15.909,3.157 C15.986,3.042 16.027,3.051 16.097,3.165 L16.167,3.288 C16.481,3.868 16.955,4.364 17.543,4.732 L17.769,4.864 C17.961,4.969 18,5 17.839,5.096 L17.769,5.136 C17.094,5.496 16.538,6.043 16.167,6.712 L16.097,6.835 C16.027,6.949 15.987,6.958 15.909,6.843 L15.834,6.713 C15.507,6.121 15.033,5.623 14.457,5.268 L14.231,5.136 C14.039,5.031 14.001,5 14.161,4.904 Z"/>
</svg>

