<svg xmlns="http://www.w3.org/2000/svg" width="24" height="24">
  <defs/>
  <path  d="M12.762,10.646 L21.247,19.132 C21.833,19.718 21.832,20.668 21.247,21.253 C20.661,21.839 19.711,21.839 19.125,21.253 L10.64,12.768 C10.054,12.182 10.054,11.232 10.64,10.646 C11.226,10.06 12.176,10.06 12.762,10.646 Z M13.115,6.757 L14.883,4.99 C15.26,4.6 15.817,4.444 16.342,4.581 C16.866,4.718 17.276,5.128 17.413,5.652 C17.55,6.177 17.394,6.734 17.004,7.111 L15.236,8.879 C14.65,9.465 13.7,9.464 13.115,8.878 C12.529,8.293 12.529,7.343 13.115,6.757 Z M6.748,8.876 L4.983,7.11 C4.593,6.733 4.437,6.175 4.575,5.651 C4.712,5.127 5.122,4.717 5.646,4.58 C6.171,4.443 6.729,4.6 7.105,4.99 L8.87,6.755 C9.456,7.341 9.455,8.291 8.87,8.877 C8.284,9.462 7.334,9.462 6.748,8.876 Z M17.994,12.5 L15.49,12.5 C14.662,12.5 13.99,11.828 13.99,11 C13.99,10.172 14.662,9.5 15.49,9.5 L17.994,9.5 C18.822,9.5 19.494,10.172 19.494,11 C19.494,11.828 18.822,12.5 17.994,12.5 Z M10.994,8 C10.166,8 9.494,7.328 9.494,6.5 L9.494,4 C9.494,3.172 10.166,2.5 10.994,2.5 C11.822,2.5 12.494,3.172 12.494,4 L12.494,6.5 C12.494,7.328 11.822,8 10.994,8 Z M9.494,18 L9.494,15.5 C9.494,14.672 10.166,14 10.994,14 C11.822,14 12.494,14.672 12.494,15.5 L12.494,18 C12.494,18.828 11.822,19.5 10.994,19.5 C10.166,19.5 9.494,18.828 9.494,18 Z M4.984,17.01 C4.398,16.424 4.398,15.475 4.984,14.889 L6.75,13.12 C7.336,12.534 8.286,12.534 8.872,13.12 C9.457,13.705 9.458,14.655 8.872,15.241 L7.105,17.01 C6.519,17.596 5.57,17.596 4.984,17.01 Z M7.99,11 C7.99,11.828 7.318,12.5 6.49,12.5 L3.994,12.5 C3.166,12.5 2.494,11.828 2.494,11 C2.494,10.172 3.166,9.5 3.994,9.5 L6.49,9.5 C7.318,9.5 7.99,10.172 7.99,11 Z"/>
</svg>

