<svg xmlns="http://www.w3.org/2000/svg" width="24" height="24">
  <defs/>
  <path  d="M5.497,3.997 L5.497,3.996 L10.287,5.26 L14.451,2.581 C14.817,2.345 15.281,2.322 15.67,2.519 C16.058,2.717 16.312,3.106 16.337,3.541 L16.615,8.487 L20.453,11.62 C20.791,11.896 20.957,12.33 20.888,12.761 C20.82,13.191 20.528,13.553 20.122,13.711 L16.523,15.108 L21.131,19.716 C21.521,20.107 21.521,20.74 21.131,21.131 C20.74,21.521 20.106,21.521 19.716,21.13 L15.108,16.522 L13.711,20.122 C13.553,20.528 13.191,20.82 12.761,20.888 C12.33,20.957 11.896,20.791 11.62,20.453 L8.488,16.615 L3.542,16.337 C2.604,16.284 2.072,15.24 2.58,14.45 L5.264,10.284 L4,5.494 C3.889,5.072 4.01,4.624 4.318,4.315 C4.627,4.007 5.075,3.886 5.497,3.997 Z M7.285,10.104 C7.372,10.437 7.316,10.791 7.13,11.08 L4.983,14.414 L8.942,14.636 C9.285,14.656 9.605,14.818 9.822,15.085 L12.329,18.157 L13.764,14.46 C13.889,14.14 14.143,13.886 14.463,13.762 L18.159,12.327 L15.087,9.82 C14.821,9.602 14.658,9.283 14.639,8.94 L14.416,4.981 L11.083,7.128 C10.793,7.314 10.439,7.37 10.107,7.282 L6.273,6.271 Z"/>
</svg>

