<svg xmlns="http://www.w3.org/2000/svg" width="24" height="24">
  <defs/>
  <path  d="M11.701,10.293 L20.893,19.485 C21.272,19.877 21.267,20.501 20.881,20.887 C20.495,21.273 19.871,21.278 19.479,20.899 L10.287,11.707 C9.908,11.315 9.913,10.691 10.299,10.305 C10.685,9.919 11.309,9.914 11.701,10.293 Z M8.872,14.536 L6.751,16.657 C6.5,16.917 6.128,17.021 5.778,16.93 C5.429,16.838 5.156,16.565 5.064,16.216 C4.973,15.866 5.077,15.494 5.337,15.243 L7.458,13.121 C7.849,12.731 8.482,12.731 8.873,13.122 C9.263,13.512 9.263,14.146 8.872,14.536 Z M6.994,12 L3.994,12 C3.442,12 2.994,11.552 2.994,11 C2.994,10.448 3.442,10 3.994,10 L6.994,10 C7.546,10 7.994,10.448 7.994,11 C7.994,11.552 7.546,12 6.994,12 Z M9.994,7 L9.994,4 C9.994,3.448 10.442,3 10.994,3 C11.546,3 11.994,3.448 11.994,4 L11.994,7 C11.994,7.552 11.546,8 10.994,8 C10.442,8 9.994,7.552 9.994,7 Z M10.994,19 C10.442,19 9.994,18.552 9.994,18 L9.994,15 C9.994,14.448 10.442,14 10.994,14 C11.546,14 11.994,14.448 11.994,15 L11.994,18 C11.994,18.552 11.546,19 10.994,19 Z M18.994,11 C18.994,11.552 18.546,12 17.994,12 L14.994,12 C14.442,12 13.994,11.552 13.994,11 C13.994,10.448 14.442,10 14.994,10 L17.994,10 C18.546,10 18.994,10.448 18.994,11 Z M16.651,5.343 C17.041,5.734 17.041,6.367 16.651,6.757 L14.529,8.88 C14.138,9.27 13.505,9.27 13.115,8.88 C12.724,8.489 12.724,7.855 13.115,7.465 L15.236,5.345 C15.424,5.157 15.678,5.052 15.943,5.052 C16.209,5.052 16.463,5.157 16.651,5.345 Z M6.751,5.343 L6.752,5.345 L8.872,7.465 C9.263,7.855 9.263,8.489 8.873,8.88 C8.482,9.27 7.849,9.27 7.458,8.88 L5.337,6.757 C4.958,6.365 4.963,5.741 5.349,5.355 C5.735,4.969 6.359,4.964 6.751,5.343 Z"/>
</svg>

