<svg xmlns="http://www.w3.org/2000/svg" width="24" height="24">
  <defs/>
  <path  d="M15.541,4.16 A1 1 0 0 1 15.986,5.168 L15.268,9.393 A2 2 0 0 0 15.357,10.403 L17.167,15.453 C18.047,15.627 18.827,15.853 19.434,16.13 C19.8,16.297 20.158,16.506 20.438,16.776 C20.719,17.047 21,17.459 21,18 C21,18.848 20.337,19.37 19.88,19.64 C19.357,19.949 18.666,20.193 17.9,20.384 C16.352,20.771 14.266,21 12,21 C9.734,21 7.648,20.771 6.1,20.384 C5.334,20.193 4.643,19.949 4.12,19.64 C3.663,19.37 3,18.848 3,18 C3,17.46 3.28,17.047 3.562,16.776 C3.842,16.506 4.2,16.296 4.566,16.13 C5.174,15.853 5.953,15.627 6.834,15.452 L9.294,8.586 A4 4 0 0 1 10.818,6.622 L14.44,4.172 A1 1 0 0 1 15.541,4.159 Z M18.778,6.431 C18.948,6.078 19.005,6.032 19.116,6.223 L19.183,6.351 L19.222,6.431 A5.642 5.642 0 0 0 21.129,8.65 L21.355,8.797 C21.618,8.957 21.663,9.003 21.433,9.155 L21.355,9.204 A5.638 5.638 0 0 0 19.345,11.328 L19.116,11.777 C19.006,11.968 18.948,11.922 18.778,11.569 A5.642 5.642 0 0 0 16.871,9.35 L16.514,9.12 C16.375,9.02 16.384,8.967 16.567,8.846 L16.645,8.796 A5.64 5.64 0 0 0 18.778,6.431 M7.598,3.665 L7.667,3.788 C7.981,4.368 8.455,4.864 9.043,5.233 L9.269,5.364 C9.454,5.465 9.482,5.502 9.384,5.569 L9.269,5.636 A4.003 4.003 0 0 0 7.792,6.999 L7.591,7.343 C7.514,7.459 7.473,7.449 7.403,7.335 L7.333,7.213 A3.919 3.919 0 0 0 5.957,5.768 L5.731,5.636 C5.546,5.535 5.518,5.498 5.616,5.431 L5.731,5.364 A4.003 4.003 0 0 0 7.208,4.001 L7.333,3.788 C7.465,3.545 7.507,3.519 7.597,3.665 Z"/>
</svg>

