<svg xmlns="http://www.w3.org/2000/svg" width="24" height="24">
  <defs/>
  <path  d="M15.541,4.16 A1 1 0 0 1 15.999,5.036 L15.986,5.168 L15.268,9.393 A2 2 0 0 0 15.298,10.206 L15.357,10.403 L17.167,15.453 C18.047,15.627 18.827,15.853 19.434,16.13 C19.8,16.297 20.158,16.506 20.438,16.776 C20.719,17.047 21,17.459 21,18 C21,18.848 20.337,19.37 19.88,19.64 C19.357,19.949 18.666,20.193 17.9,20.384 C16.352,20.771 14.266,21 12,21 C9.734,21 7.648,20.771 6.1,20.384 C5.334,20.193 4.643,19.949 4.12,19.64 C3.663,19.37 3,18.848 3,18 C3,17.46 3.28,17.047 3.562,16.776 C3.842,16.506 4.2,16.296 4.566,16.13 C5.098,15.887 5.761,15.684 6.508,15.52 L6.834,15.452 L9.294,8.586 A4 4 0 0 1 10.612,6.771 L10.818,6.622 L14.44,4.172 A1 1 0 0 1 15.541,4.159 Z M15.423,16.516 C14.44,16.83 13.247,17 12,17 C10.753,17 9.56,16.83 8.577,16.516 L8.522,16.67 A1 1 0 0 1 7.744,17.32 C6.707,17.491 5.908,17.716 5.396,17.95 C5.296,17.995 5.45,18.079 5.678,18.166 L5.888,18.239 L6.214,18.341 L6.586,18.444 C7.933,18.781 9.848,19 12,19 C14.009,19 15.81,18.81 17.137,18.51 L17.457,18.433 L17.786,18.341 L18.002,18.275 L18.22,18.203 C18.5,18.103 18.717,18.001 18.604,17.95 C18.092,17.716 17.294,17.491 16.256,17.32 A1 1 0 0 1 15.478,16.67 Z M13.622,7.14 L11.939,8.28 A2 2 0 0 0 11.246,9.094 L11.177,9.262 L9.252,14.632 C9.972,14.853 10.922,15.002 12,15.002 C12.959,15.002 13.816,14.884 14.5,14.704 L14.748,14.633 L13.474,11.078 A4 4 0 0 1 13.261,9.313 L13.296,9.059 Z M19.222,6.431 A5.642 5.642 0 0 0 21.129,8.65 L21.355,8.797 C21.618,8.957 21.663,9.003 21.433,9.155 L21.355,9.204 A5.638 5.638 0 0 0 19.345,11.328 L19.116,11.777 C19.006,11.968 18.948,11.922 18.778,11.569 A5.642 5.642 0 0 0 16.871,9.35 L16.645,9.204 C16.359,9.028 16.355,8.982 16.573,8.842 L16.645,8.797 A5.64 5.64 0 0 0 18.778,6.431 C18.948,6.078 19.005,6.032 19.116,6.223 L19.183,6.351 Z M7.597,3.665 L7.667,3.788 C7.981,4.368 8.455,4.864 9.043,5.233 L9.269,5.364 C9.461,5.469 9.5,5.5 9.339,5.596 L9.269,5.636 A4.003 4.003 0 0 0 7.792,6.999 L7.591,7.343 C7.514,7.459 7.473,7.449 7.403,7.335 L7.333,7.213 A3.919 3.919 0 0 0 5.957,5.768 L5.617,5.569 C5.546,5.521 5.54,5.489 5.61,5.437 L5.73,5.364 A4.003 4.003 0 0 0 7.208,4.001 L7.333,3.788 C7.465,3.545 7.507,3.519 7.597,3.665"/>
</svg>

