<svg xmlns="http://www.w3.org/2000/svg" width="24" height="24">
  <defs/>
  <path  d="M8.464,4.222 L20.485,16.242 C20.871,16.635 20.871,17.264 20.485,17.657 L17.657,20.485 C17.267,20.875 16.633,20.875 16.243,20.485 L4.222,8.465 C3.441,7.684 3.441,6.417 4.222,5.636 L5.636,4.222 C6.417,3.441 7.683,3.441 8.464,4.222 Z M5,11.5 C5.444,11.5 5.758,11.769 5.95,12.132 L6.003,12.244 C6.296,12.922 6.776,13.502 7.388,13.916 L7.598,14.044 C7.956,14.246 8.218,14.569 8.218,14.999 C8.218,15.379 8.015,15.679 7.718,15.881 L7.603,15.953 C6.963,16.321 6.445,16.867 6.113,17.526 L6.008,17.746 C5.821,18.168 5.496,18.5 5,18.5 C4.548,18.5 4.239,18.226 4.046,17.859 L3.992,17.746 C3.7,17.07 3.22,16.492 2.608,16.082 L2.402,15.956 C2.043,15.754 1.781,15.43 1.781,14.999 C1.781,14.616 1.989,14.319 2.286,14.116 L2.402,14.044 C3.038,13.678 3.553,13.134 3.884,12.479 L3.997,12.243 C4.18,11.826 4.51,11.5 5,11.5 Z M10.586,9.172 L9.172,10.586 L16.95,18.364 L18.364,16.95 Z M13.5,2 C13.794,2 14.01,2.167 14.154,2.399 L14.214,2.509 C14.452,2.986 14.832,3.403 15.324,3.696 L15.52,3.803 C15.795,3.94 16,4.176 16,4.5 C16,4.783 15.843,5 15.62,5.14 L15.515,5.2 C14.995,5.46 14.583,5.854 14.31,6.315 L14.21,6.498 C14.07,6.782 13.836,7 13.5,7 C13.206,7 12.99,6.833 12.846,6.601 L12.786,6.491 C12.538,5.997 12.152,5.585 11.676,5.304 L11.48,5.197 C11.205,5.06 11,4.823 11,4.499 C11,4.217 11.157,4 11.38,3.859 L11.485,3.801 C12.005,3.539 12.417,3.147 12.69,2.685 L12.79,2.502 C12.93,2.218 13.164,2 13.5,2 Z M17.431,7.402 C17.669,6.921 18.231,6.889 18.513,7.305 L18.569,7.401 C18.785,7.836 19.143,8.205 19.612,8.441 C20.106,8.687 20.113,9.311 19.616,9.557 C19.223,9.753 18.892,10.055 18.662,10.429 L18.572,10.593 C18.332,11.079 17.768,11.111 17.487,10.695 L17.431,10.599 C17.235,10.208 16.933,9.881 16.559,9.654 L16.389,9.56 C15.923,9.328 15.892,8.77 16.292,8.497 L16.384,8.443 C16.78,8.247 17.112,7.942 17.341,7.565 L17.431,7.401 Z M5.635,7.05 L7.756,9.172 L9.171,7.757 L7.05,5.636 L5.635,7.05 Z"/>
</svg>

