<svg xmlns="http://www.w3.org/2000/svg" width="24" height="24">
  <defs/>
  <path  d="M12,7 C14.035,7 15.925,7.352 17.344,7.96 C18.051,8.263 18.688,8.65 19.162,9.13 C19.64,9.614 20,10.248 20,11 C20,11.752 19.64,12.386 19.162,12.87 C18.688,13.35 18.052,13.737 17.344,14.04 C17.231,14.089 17.116,14.135 17.001,14.179 C17.021,15.564 17.26,16.951 17.495,17.994 L17.612,18.484 L17.722,18.909 C17.964,19.809 17.572,20.906 16.52,21.267 C16.41,21.304 16.292,21.343 16.165,21.383 L15.758,21.501 C14.82,21.758 13.53,22 12,22 C10.47,22 9.18,21.758 8.242,21.501 L7.835,21.383 C7.708,21.343 7.589,21.304 7.48,21.267 C6.429,20.906 6.036,19.808 6.278,18.909 L6.388,18.485 C6.655,17.413 6.976,15.795 6.998,14.179 C6.883,14.135 6.769,14.089 6.656,14.04 C5.949,13.737 5.312,13.35 4.838,12.87 C4.36,12.386 4,11.752 4,11 C4,10.248 4.36,9.614 4.838,9.13 C5.312,8.65 5.948,8.263 6.656,7.96 C8.075,7.352 9.965,7 12,7 Z M12,9 C10.17,9 8.56,9.32 7.444,9.798 C6.884,10.038 6.496,10.298 6.262,10.535 C6.06,10.739 6.011,10.884 6.002,10.968 L6,11 C6,11.076 6.032,11.232 6.262,11.465 C6.496,11.703 6.885,11.963 7.444,12.202 C8.56,12.68 10.17,13 12,13 C13.83,13 15.44,12.68 16.556,12.202 C17.116,11.962 17.504,11.702 17.738,11.465 C17.968,11.232 18,11.076 18,11 C18,10.924 17.968,10.768 17.738,10.535 C17.504,10.297 17.115,10.037 16.556,9.798 C15.44,9.32 13.83,9 12,9 Z M15.018,14.727 C14.082,14.905 13.06,15 12,15 C10.94,15 9.918,14.905 8.983,14.727 C8.93,15.723 8.806,16.715 8.611,17.693 L8.496,18.253 L8.437,18.513 L8.323,18.991 C8.289,19.129 8.253,19.267 8.216,19.404 L8.559,19.512 C9.677,19.838 10.836,20.002 12,20 C13.444,20 14.636,19.75 15.44,19.512 L15.784,19.404 L15.732,19.207 L15.62,18.76 C15.58,18.591 15.541,18.422 15.504,18.253 L15.389,17.693 C15.195,16.714 15.071,15.723 15.018,14.727 Z M9.318,1.673 L9.515,1.281 C9.625,1.068 9.68,1.047 9.802,1.269 L9.884,1.431 C10.353,2.408 11.094,3.229 12.018,3.796 C12.28,3.957 12.326,4.003 12.095,4.155 L12.018,4.204 C11.173,4.723 10.48,5.455 10.008,6.327 L9.81,6.719 C9.7,6.932 9.645,6.953 9.523,6.731 L9.441,6.569 C9.011,5.675 8.354,4.909 7.534,4.35 L7.176,4.12 C7.038,4.02 7.046,3.967 7.23,3.845 L7.307,3.796 C8.152,3.277 8.845,2.545 9.317,1.673 Z M12,10 C13.657,10 15,10.448 15,11 C15,11.552 13.657,12 12,12 C10.343,12 9,11.552 9,11 C9,10.448 10.343,10 12,10 Z M15.909,3.157 C15.986,3.042 16.027,3.051 16.097,3.165 L16.167,3.288 C16.538,3.957 17.094,4.504 17.769,4.864 L17.884,4.931 C17.982,4.998 17.954,5.035 17.769,5.136 L17.543,5.268 C16.967,5.623 16.493,6.12 16.167,6.712 L16.097,6.835 C16.027,6.949 15.986,6.958 15.909,6.843 L15.708,6.499 C15.34,5.926 14.831,5.457 14.231,5.136 L14.116,5.069 C14.018,5.002 14.046,4.965 14.231,4.864 L14.457,4.732 C15.033,4.377 15.507,3.879 15.833,3.287 Z"/>
</svg>

