<svg xmlns="http://www.w3.org/2000/svg" width="24" height="24">
  <defs/>
  <path  d="M19.556,4.343 C22.68,7.467 22.68,12.533 19.556,15.657 L13.9,21.314 C13.119,22.095 11.853,22.095 11.072,21.314 L8.95,19.192 C8.169,18.411 8.169,17.145 8.95,16.364 L14.607,10.707 C14.997,10.316 14.997,9.683 14.606,9.292 C14.216,8.902 13.582,8.902 13.192,9.293 L7.536,14.95 C6.755,15.731 5.488,15.731 4.707,14.95 L2.586,12.828 C1.805,12.047 1.805,10.781 2.586,10 L8.243,4.343 C11.367,1.219 16.432,1.219 19.556,4.343 Z M13.192,16.364 C12.819,15.992 12.22,15.974 11.825,16.322 C11.429,16.671 11.372,17.267 11.695,17.684 L11.778,17.778 L12.485,18.485 C12.858,18.861 13.459,18.882 13.857,18.532 C14.254,18.181 14.309,17.582 13.983,17.165 L13.899,17.071 Z M5.414,10 C5.024,10.391 5.024,11.024 5.414,11.414 L6.121,12.121 C6.511,12.512 7.145,12.512 7.536,12.122 C7.926,11.731 7.926,11.098 7.536,10.707 L6.828,10 C6.438,9.61 5.804,9.61 5.414,10 Z"/>
</svg>

