<svg xmlns="http://www.w3.org/2000/svg" width="24" height="24">
  <defs/>
  <path  d="M19.556,4.343 C22.68,7.467 22.68,12.533 19.556,15.657 L13.9,21.314 C13.119,22.095 11.853,22.095 11.072,21.314 L8.95,19.192 C8.169,18.411 8.169,17.145 8.95,16.364 L14.607,10.707 C14.997,10.316 14.997,9.683 14.606,9.292 C14.216,8.902 13.582,8.902 13.192,9.293 L7.536,14.95 C6.755,15.731 5.488,15.731 4.707,14.95 L2.586,12.828 C1.805,12.047 1.805,10.781 2.586,10 L8.243,4.343 C11.367,1.219 16.432,1.219 19.556,4.343 Z M9.656,5.757 L7.537,7.88 L9.655,10 L11.777,7.879 C12.533,7.111 13.642,6.807 14.684,7.083 C15.726,7.359 16.539,8.172 16.816,9.214 C17.092,10.255 16.788,11.365 16.02,12.121 L13.898,14.243 L16.02,16.364 L18.141,14.243 C20.484,11.9 20.485,8.101 18.142,5.757 C15.798,3.414 11.999,3.414 9.656,5.757 Z M12.486,15.657 L10.364,17.778 L12.485,19.9 L14.607,17.778 Z M4,11.414 L6.121,13.536 L8.243,11.414 L6.121,9.294 L4,11.414 Z"/>
</svg>

