<svg xmlns="http://www.w3.org/2000/svg" width="24" height="24">
  <defs/>
  <path  d="M19,14 A1 1 0 0 1 19.898,14.56 L19.946,14.677 L20.076,15.055 A3 3 0 0 0 21.76,16.855 L21.945,16.925 L22.323,17.054 A1 1 0 0 1 22.441,18.898 L22.323,18.946 L21.945,19.076 A3 3 0 0 0 20.145,20.76 L20.075,20.945 L19.946,21.323 A1 1 0 0 1 18.102,21.441 L18.054,21.323 L17.924,20.945 A3 3 0 0 0 16.24,19.145 L16.055,19.075 L15.677,18.946 A1 1 0 0 1 15.559,17.102 L15.677,17.054 L16.055,16.924 A3 3 0 0 0 17.855,15.24 L17.925,15.055 L18.054,14.677 A1 1 0 0 1 19,14 M22,6.968 L22,14.49 L21.968,14.409 L21.839,14.03 A3 3 0 0 0 16.229,13.851 L16.161,14.031 L16.031,14.409 A1 1 0 0 1 15.515,14.989 L15.409,15.032 L15.03,15.161 A3 3 0 0 0 13.626,19.834 L13.764,20 L4,20 A2 2 0 0 1 2.005,18.15 L2,18 L2,6.968 L11.04,14.502 A1.5 1.5 0 0 0 12.837,14.594 L12.96,14.502 Z M20,4 C20.564,4 21.073,4.233 21.436,4.608 L21.552,4.738 L12,12.698 L2.448,4.738 C2.778,4.333 3.264,4.059 3.814,4.008 L4,4 Z"/>
</svg>

