<svg xmlns="http://www.w3.org/2000/svg" width="24" height="24">
  <defs/>
  <path  d="M20,4 A2 2 0 0 1 21.995,5.85 L22,6 L22,18 A2 2 0 0 1 20.15,19.995 L20,20 L4,20 A2 2 0 0 1 2.005,18.15 L2,18 L2,17 L4,17 L4,18 L20,18 L20,7.414 L13.06,14.354 A1.5 1.5 0 0 1 11.053,14.457 L10.939,14.354 L4,7.414 L4,8 L2,8 L2,6 A2 2 0 0 1 3.85,4.005 L4,4 Z M6,13 A1 1 0 1 1 6,15 L1,15 A1 1 0 1 1 1,13 Z M18.586,6 L5.414,6 L12,12.586 Z M5,10 A1 1 0 0 1 5.117,11.993 L5,12 L2,12 A1 1 0 0 1 1.883,10.007 L2,10 Z"/>
</svg>

