<svg xmlns="http://www.w3.org/2000/svg" width="24" height="24">
  <defs/>
  <path  d="M20,4 C21.047,4 21.917,4.806 21.995,5.85 L22,6 L22,11 C21.999,11.529 21.587,11.966 21.059,11.997 C20.53,12.028 20.069,11.642 20.007,11.117 L20,11 L20,8.635 L12.96,14.502 C12.448,14.928 11.716,14.966 11.163,14.594 L11.04,14.502 L4,8.635 L4,18 L12,18 C12.529,18.001 12.966,18.413 12.997,18.941 C13.028,19.47 12.642,19.931 12.117,19.993 L12,20 L4,20 C2.953,20 2.083,19.194 2.005,18.15 L2,18 L2,6 C2,4.953 2.806,4.083 3.85,4.005 L4,4 Z M20,6 L4,6 L4,6.032 L12,12.698 L20,6.032 Z M19,14 C19.382,14 19.73,14.217 19.898,14.56 L19.946,14.677 L20.076,15.055 C20.354,15.869 20.967,16.524 21.76,16.855 L21.945,16.925 L22.323,17.054 C22.706,17.185 22.972,17.533 22.998,17.937 C23.024,18.34 22.804,18.72 22.441,18.898 L22.323,18.946 L21.945,19.076 C21.131,19.354 20.476,19.967 20.145,20.76 L20.075,20.945 L19.946,21.323 C19.815,21.706 19.467,21.972 19.063,21.998 C18.66,22.024 18.28,21.804 18.102,21.441 L18.054,21.323 L17.924,20.945 C17.646,20.131 17.033,19.476 16.24,19.145 L16.055,19.075 L15.677,18.946 C15.294,18.815 15.028,18.467 15.002,18.063 C14.976,17.66 15.196,17.28 15.559,17.102 L15.677,17.054 L16.055,16.924 C16.869,16.646 17.524,16.033 17.855,15.24 L17.925,15.055 L18.054,14.677 C18.192,14.272 18.572,14 19,14 Z M19,17.196 C18.763,17.494 18.494,17.763 18.196,18 C18.494,18.236 18.763,18.506 19,18.804 C19.236,18.506 19.506,18.237 19.804,18 C19.506,17.763 19.237,17.494 19,17.196 Z"/>
</svg>

