<svg xmlns="http://www.w3.org/2000/svg" width="24" height="24">
  <defs/>
  <path  d="M21,9 C21,9.552 20.552,10 20,10 C19.448,10 19,9.552 19,9 L19,6.414 L15.463,9.951 C17.857,13.09 17.409,17.547 14.437,20.146 C11.466,22.744 6.988,22.595 4.197,19.803 C1.405,17.012 1.256,12.534 3.854,9.563 C6.453,6.591 10.91,6.143 14.049,8.537 L17.586,5 L15,5 C14.448,5 14,4.552 14,4 C14,3.448 14.448,3 15,3 L19.75,3 C20.44,3 21,3.56 21,4.25 Z M9.5,9 C6.462,9 4,11.462 4,14.5 C4,17.538 6.462,20 9.5,20 C12.538,20 15,17.538 15,14.5 C15,11.462 12.538,9 9.5,9 Z"/>
</svg>

