<svg xmlns="http://www.w3.org/2000/svg" width="24" height="24">
  <defs/>
  <path  d="M8.526,3.104 C8.834,3.002 9.166,3.002 9.474,3.104 L15,4.946 L20.289,3.183 C20.685,3.051 21.121,3.117 21.46,3.362 C21.799,3.606 22,3.998 22,4.416 L22,17.64 C22,18.286 21.587,18.859 20.974,19.063 L15.474,20.896 C15.166,20.999 14.834,20.999 14.526,20.896 L9,19.054 L3.711,20.817 C3.315,20.949 2.879,20.883 2.54,20.638 C2.201,20.394 2,20.002 2,19.584 L2,6.36 C2,5.714 2.413,5.141 3.026,4.937 Z M9,5.054 C8.935,6.696 9,17.027 9,17.027 C9.16,17.027 9.32,17.053 9.474,17.104 L15,18.946 L15,6.973 C14.839,6.973 14.679,6.947 14.526,6.896 Z"/>
</svg>

