<svg xmlns="http://www.w3.org/2000/svg" width="24" height="24">
  <defs/>
  <path  d="M7,7 C7.001,4.369 9.04,2.188 11.665,2.012 C14.291,1.836 16.603,3.725 16.955,6.332 C17.307,8.94 15.578,11.374 13,11.9 L13,17 C13,17.552 12.552,18 12,18 C11.448,18 11,17.552 11,17 L11,11.9 C8.672,11.424 7,9.376 7,7 Z M9.489,16.1 C9.573,16.646 9.197,17.157 8.651,17.24 C7.373,17.434 6.358,17.729 5.691,18.055 C4.49,18.643 5.854,19.068 6.606,19.302 L6.641,19.313 C7.968,19.728 9.863,20 12,20 C14.137,20 16.032,19.728 17.359,19.313 C17.372,19.309 17.385,19.305 17.399,19.301 C18.157,19.064 19.508,18.643 18.309,18.055 C17.642,17.729 16.627,17.435 15.349,17.24 C14.992,17.191 14.688,16.953 14.555,16.618 C14.422,16.282 14.48,15.901 14.707,15.621 C14.934,15.34 15.294,15.203 15.65,15.263 C17.038,15.473 18.272,15.81 19.189,16.259 C20.073,16.692 21,17.421 21,18.5 C21,19.311 20.476,19.9 19.966,20.277 C17.816,21.865 14.536,22 12,22 C9.718,22 7.613,21.712 6.045,21.222 C4.795,20.832 3,20.062 3,18.5 C3,17.42 3.927,16.692 4.811,16.26 C5.728,15.81 6.963,15.474 8.349,15.263 C8.895,15.179 9.406,15.555 9.489,16.101 Z M12,4 C10.343,4 9,5.343 9,7 C9,8.657 10.343,10 12,10 C13.657,10 15,8.657 15,7 C15,5.343 13.657,4 12,4 Z"/>
</svg>

