<svg xmlns="http://www.w3.org/2000/svg" width="24" height="24">
  <defs/>
  <path  d="M7,7 C7.001,4.369 9.04,2.188 11.665,2.012 C14.291,1.836 16.603,3.725 16.955,6.332 C17.307,8.94 15.578,11.374 13,11.9 L13,17 C13,17.552 12.552,18 12,18 C11.448,18 11,17.552 11,17 L11,11.9 C8.672,11.424 7,9.376 7,7 Z M9.489,16.1 C9.573,16.646 9.197,17.157 8.651,17.24 C7.373,17.435 6.358,17.729 5.691,18.055 C5.356,18.219 5.157,18.368 5.054,18.477 C5.047,18.485 5.04,18.492 5.033,18.5 C5.066,18.539 5.123,18.596 5.223,18.669 C5.503,18.876 5.972,19.104 6.641,19.313 C7.968,19.728 9.863,20 12,20 C14.137,20 16.032,19.728 17.359,19.313 C18.029,19.104 18.497,18.876 18.777,18.669 C18.877,18.596 18.934,18.539 18.967,18.5 C18.96,18.492 18.953,18.484 18.946,18.477 C18.843,18.368 18.644,18.219 18.309,18.055 C17.642,17.729 16.627,17.435 15.349,17.24 C14.992,17.191 14.688,16.953 14.555,16.618 C14.422,16.282 14.48,15.901 14.707,15.621 C14.934,15.34 15.294,15.203 15.65,15.263 C17.038,15.473 18.272,15.81 19.189,16.259 C19.646,16.483 20.073,16.759 20.397,17.101 C20.727,17.448 21,17.921 21,18.5 C21,19.311 20.476,19.9 19.966,20.277 C19.436,20.669 18.733,20.979 17.956,21.222 C16.386,21.712 14.282,22 12,22 C9.718,22 7.613,21.712 6.045,21.222 C5.267,20.979 4.565,20.669 4.035,20.277 C3.524,19.9 3,19.311 3,18.5 C3,17.92 3.273,17.448 3.603,17.1 C3.928,16.758 4.354,16.483 4.811,16.26 C5.728,15.81 6.963,15.474 8.349,15.263 C8.895,15.179 9.406,15.555 9.489,16.101 Z"/>
</svg>

