<svg xmlns="http://www.w3.org/2000/svg" width="24" height="24">
  <defs/>
  <path  d="M11.553,3.106 C11.834,2.965 12.166,2.965 12.447,3.106 C13.157,3.46 14.027,4.286 14.714,5.343 C15.134,5.99 15.512,6.763 15.747,7.632 C16.47,7.184 17.254,6.862 18.184,6.552 C18.456,6.461 18.754,6.492 19.002,6.635 C19.25,6.779 19.425,7.023 19.481,7.304 C19.738,8.589 19.893,9.862 19.672,11.111 C19.537,11.886 19.254,12.627 18.839,13.295 C19.446,13.511 20.023,13.805 20.555,14.168 C20.948,14.43 21.104,14.932 20.929,15.371 C20.639,16.095 19.907,16.875 18.559,17.526 C17.344,18.113 15.569,18.625 12.996,18.909 C12.999,18.939 13,18.97 13,19 L13,21 C13,21.552 12.552,22 12,22 C11.448,22 11,21.552 11,21 L11,19 C11,18.97 11.002,18.939 11.004,18.909 C8.43,18.625 6.656,18.113 5.44,17.526 C4.093,16.875 3.361,16.096 3.072,15.371 C2.896,14.932 3.052,14.43 3.445,14.168 C3.977,13.805 4.554,13.511 5.161,13.295 C4.746,12.627 4.463,11.886 4.328,11.111 C4.108,9.861 4.263,8.589 4.52,7.304 C4.576,7.023 4.75,6.779 4.998,6.635 C5.246,6.491 5.544,6.461 5.816,6.551 C6.746,6.861 7.531,7.184 8.253,7.631 C8.477,6.82 8.826,6.048 9.286,5.343 C9.973,4.286 10.844,3.46 11.553,3.106 Z M13,16.895 L13,14 C13,13.448 12.552,13 12,13 C11.448,13 11,13.448 11,14 L11,16.895 C11.318,16.933 11.65,16.966 12,16.996 C12.35,16.966 12.683,16.933 13,16.895 Z"/>
</svg>

