<svg xmlns="http://www.w3.org/2000/svg" width="24" height="24">
  <defs/>
  <path  d="M14.714,5.343 C15.174,6.048 15.523,6.82 15.747,7.632 C16.47,7.184 17.254,6.862 18.184,6.552 C18.456,6.461 18.754,6.492 19.002,6.635 C19.25,6.779 19.425,7.023 19.481,7.304 C19.738,8.589 19.892,9.861 19.672,11.111 C19.539,11.872 19.27,12.596 18.839,13.295 C19.446,13.511 20.023,13.805 20.555,14.168 C20.949,14.43 21.105,14.933 20.929,15.372 C20.639,16.096 19.907,16.876 18.56,17.526 C17.344,18.112 15.572,18.624 13,18.908 L13,21 C13,21.552 12.552,22 12,22 C11.448,22 11,21.552 11,21 L11,18.908 C8.429,18.624 6.656,18.113 5.44,17.526 C4.092,16.875 3.362,16.095 3.072,15.372 C2.896,14.933 3.052,14.431 3.445,14.168 C3.977,13.805 4.554,13.511 5.161,13.295 C4.746,12.627 4.463,11.886 4.328,11.111 C4.107,9.862 4.263,8.589 4.52,7.304 C4.576,7.023 4.751,6.78 4.999,6.636 C5.246,6.492 5.544,6.462 5.816,6.552 C6.746,6.862 7.531,7.184 8.253,7.632 C8.477,6.82 8.826,6.048 9.286,5.343 C9.969,4.292 10.833,3.47 11.54,3.112 C11.682,3.038 11.84,3 12,3 C12.16,3.001 12.318,3.04 12.46,3.113 C13.167,3.47 14.032,4.293 14.714,5.343 Z M13,16.895 C15.294,16.625 16.766,16.171 17.69,15.725 C17.954,15.6 18.207,15.453 18.446,15.285 C17.763,15 17.301,15 17.03,15 L17,15 C16.596,15 16.231,14.756 16.076,14.383 C15.922,14.009 16.007,13.579 16.293,13.293 C17.162,12.424 17.554,11.606 17.703,10.763 C17.805,10.187 17.798,9.566 17.713,8.863 C16.909,9.21 16.31,9.604 15.707,10.207 C15.421,10.493 14.991,10.578 14.617,10.424 C14.244,10.269 14,9.904 14,9.5 C14,8.339 13.584,7.275 13.036,6.432 C12.748,5.981 12.399,5.572 12,5.215 C11.601,5.572 11.252,5.981 10.964,6.432 C10.416,7.275 10,8.34 10,9.5 C10,9.904 9.756,10.269 9.383,10.424 C9.009,10.578 8.579,10.493 8.293,10.207 C7.69,9.604 7.092,9.21 6.288,8.862 C6.202,9.566 6.196,10.187 6.298,10.764 C6.446,11.606 6.838,12.424 7.708,13.294 C7.993,13.58 8.078,14.01 7.923,14.383 C7.768,14.757 7.404,15 7,15 L6.967,15 C6.697,15 6.235,15 5.554,15.285 C5.745,15.422 5.992,15.571 6.31,15.725 C7.234,16.171 8.706,16.625 11,16.895 L11,14 C11,13.448 11.448,13 12,13 C12.552,13 13,13.448 13,14 Z"/>
</svg>

