<svg xmlns="http://www.w3.org/2000/svg" width="24" height="24">
  <defs/>
  <path  d="M7,4.5 L10,4.5 C10.357,4.5 10.687,4.691 10.866,5 L15.134,5 C15.313,4.691 15.643,4.5 16,4.5 L19,4.5 C19.357,4.5 19.687,4.691 19.866,5 L21,5 C22.105,5 23,5.895 23,7 L23,8 C23,9.105 22.105,10 21,10 L21,18 C21.552,18 22,18.448 22,19 C22,19.552 21.552,20 21,20 L4,20 C3.448,20 3,19.552 3,19 C3,18.448 3.448,18 4,18 L4.544,18 C5.449,16.859 5.96,15.456 6,14 L6,9.936 C5.506,9.881 4.865,9.779 4.212,9.583 C3.516,9.374 2.735,9.038 2.112,8.478 C1.461,7.892 1,7.07 1,6 C1,5.448 1.448,5 2,5 L6.134,5 C6.313,4.691 6.643,4.5 7,4.5 Z M15,10 L12,10 L12,18 L13.544,18 C14.449,16.859 14.96,15.456 15,14 Z M10,10 L8,10 L8,13 L10,13 Z M19,10 L17,10 L17,13 L19,13 Z"/>
</svg>

