<svg xmlns="http://www.w3.org/2000/svg" width="24" height="24">
  <defs/>
  <path  d="M10,4.5 C10.317,4.5 10.614,4.65 10.803,4.904 L10.866,5 L15.134,5 C15.291,4.728 15.567,4.545 15.879,4.507 L16,4.5 L19,4.5 C19.317,4.5 19.614,4.65 19.803,4.904 L19.866,5 L21,5 C22.047,5 22.917,5.806 22.995,6.85 L23,7 L23,8 C23,9.047 22.194,9.917 21.15,9.995 L21,10 L21,18 C21.529,18.001 21.966,18.413 21.997,18.941 C22.028,19.47 21.642,19.931 21.117,19.993 L21,20 L4,20 C3.471,19.999 3.034,19.587 3.003,19.059 C2.972,18.53 3.358,18.069 3.883,18.007 L4,18 L4.544,18 C5.387,16.937 5.89,15.644 5.986,14.29 L6,14 L6,9.936 C5.395,9.872 4.797,9.754 4.213,9.583 C3.516,9.374 2.735,9.038 2.113,8.478 C1.46,7.892 1,7.07 1,6 C1,5.493 1.38,5.066 1.883,5.007 L2,5 L6.134,5 C6.291,4.728 6.567,4.545 6.879,4.507 L7,4.5 Z M15,10 L12,10 L12,18 L13.544,18 C14.449,16.859 14.96,15.456 15,14 Z M9.134,6.5 L7.866,6.5 C7.709,6.772 7.433,6.955 7.121,6.993 L7,7 L3.46,7 C4.3,7.745 5.656,7.962 6.767,7.995 L7,8 L21,8 L21,7 L19,7 C18.683,7 18.386,6.85 18.197,6.596 L18.134,6.5 L16.866,6.5 C16.709,6.772 16.433,6.955 16.121,6.993 L16,7 L10,7 C9.683,7 9.386,6.85 9.197,6.596 Z M10,15 L7.936,15 C7.796,16.054 7.456,17.072 6.936,18 L10,18 Z M19,15 L16.936,15 C16.813,15.938 16.53,16.848 16.1,17.69 L15.936,18 L19,18 Z M10,10 L8,10 L8,13 L10,13 Z M19,10 L17,10 L17,13 L19,13 Z"/>
</svg>

