<svg xmlns="http://www.w3.org/2000/svg" width="24" height="24">
  <defs/>
  <path  d="M2,12 C2,6.477 6.477,2 12,2 C17.523,2 22,6.477 22,12 C22,17.523 17.523,22 12,22 C6.477,22 2,17.523 2,12 Z M7.247,18.436 C8.622,19.454 10.289,20.003 12,20 C13.711,20.003 15.378,19.454 16.753,18.436 L16.292,15.671 C16.131,14.707 15.297,14 14.32,14 L9.68,14 C8.702,14 7.868,14.707 7.707,15.671 Z M9,12 L15,12 L15,7.21 C15,7.037 14.91,6.876 14.763,6.785 C14.615,6.693 14.431,6.685 14.276,6.763 L9.276,9.263 C9.107,9.348 9,9.521 9,9.71 Z"/>
</svg>

