<svg xmlns="http://www.w3.org/2000/svg" width="24" height="24">
  <defs/>
  <path  d="M12,2 C17.523,2 22,6.477 22,12 C22,17.523 17.523,22 12,22 C6.477,22 2,17.523 2,12 C2,6.477 6.477,2 12,2 Z M13.817,14 L10.183,14 C9.351,14 8.607,14.515 8.313,15.293 L8.26,15.451 L7.38,18.531 C8.73,19.489 10.345,20.002 12,20 C13.546,20.002 15.06,19.555 16.356,18.711 L16.62,18.531 L15.74,15.451 C15.512,14.651 14.812,14.076 13.983,14.007 Z M11.536,7.16 L10.143,10.642 C10.049,10.878 10,11.13 10,11.385 L10,11.9 C10,11.955 10.045,12 10.1,12 L13.9,12 C13.955,12 14,11.955 14,11.9 L14,11.385 C14,11.131 13.951,10.879 13.857,10.642 L12.464,7.161 C12.388,6.971 12.204,6.847 12,6.847 C11.796,6.847 11.612,6.971 11.536,7.161 Z"/>
</svg>

