<svg xmlns="http://www.w3.org/2000/svg" width="24" height="24">
  <defs/>
  <path  d="M20,5 A2 2 0 0 1 21.995,6.85 L22,7 L22,17 A2 2 0 0 1 20.15,18.995 L20,19 L4,19 A2 2 0 0 1 2.005,17.15 L2,17 L2,7 A2 2 0 0 1 3.85,5.005 L4,5 Z M20,7 L4,7 L4,17 L20,17 Z M6.833,9 A1 1 0 0 1 7.643,9.413 L7.707,9.514 L8.5,10.941 L9.293,9.514 A1 1 0 0 1 10.047,9.007 L10.167,9 L11,9 A1 1 0 0 1 11.993,9.883 L12,10 L12,14 A1 1 0 0 1 10.007,14.117 L10,14 L10,12.36 L9.374,13.486 A1 1 0 0 1 7.69,13.586 L7.626,13.486 L7,12.359 L7,14 A1 1 0 0 1 5.007,14.117 L5,14 L5,10 A1 1 0 0 1 5.883,9.007 L6,9 Z M16,9 A1 1 0 0 1 17,10 L17,11.634 A1 1 0 0 1 18.207,13.207 L16.707,14.707 A1 1 0 0 1 15.293,14.707 L13.793,13.207 A1 1 0 0 1 15,11.634 L15,10 A1 1 0 0 1 16,9"/>
</svg>

