<svg xmlns="http://www.w3.org/2000/svg" width="24" height="24">
  <defs/>
  <path  d="M12,2 C17.523,2 22,6.477 22,12 C22,17.523 17.523,22 12,22 C6.477,22 2,17.523 2,12 C2,6.477 6.477,2 12,2 Z M12,4 C8.545,3.999 5.48,6.217 4.4,9.498 C3.319,12.78 4.468,16.384 7.247,18.436 L7.874,14.671 C7.982,14.021 8.403,13.467 9,13.188 L9,10.006 C9,9.624 9.216,9.274 9.558,9.103 L13.538,7.113 C13.851,6.956 14.223,6.973 14.521,7.157 C14.819,7.341 15,7.666 15,8.016 L15,13.188 C15.597,13.467 16.018,14.021 16.126,14.671 L16.753,18.436 C19.532,16.384 20.681,12.78 19.6,9.498 C18.52,6.217 15.455,3.999 12,4 Z M14.153,15 L9.847,15 L9.104,19.46 C10.027,19.818 11.01,20.001 12,20 C12.894,20 13.753,19.853 14.556,19.583 L14.896,19.46 Z M13,9.618 L11,10.618 L11,13 L13,13 Z"/>
</svg>

