<svg xmlns="http://www.w3.org/2000/svg" width="24" height="24">
  <defs/>
  <path  d="M20,5 C21.047,5 21.917,5.806 21.995,6.85 L22,7 L22,17 C22,18.047 21.194,18.917 20.15,18.995 L20,19 L4,19 C2.953,19 2.083,18.194 2.005,17.15 L2,17 L2,7 C2,5.953 2.806,5.083 3.85,5.005 L4,5 Z M6.833,9 L6,9 C5.448,9 5,9.448 5,10 L5,14 C5,14.552 5.448,15 6,15 C6.552,15 7,14.552 7,14 L7,12.36 L7.626,13.486 C7.802,13.803 8.137,14 8.5,14 C8.863,14 9.198,13.803 9.374,13.486 L10,12.359 L10,14 C10,14.552 10.448,15 11,15 C11.552,15 12,14.552 12,14 L12,10 C12,9.448 11.552,9 11,9 L10.167,9 C9.804,9 9.469,9.197 9.293,9.514 L8.5,10.941 L7.707,9.514 C7.531,9.197 7.196,9 6.833,9 Z M16,9 C15.493,9 15.066,9.38 15.007,9.883 L15,10 L15,11.634 C14.586,11.395 14.061,11.483 13.747,11.843 C13.432,12.203 13.417,12.735 13.71,13.113 L13.793,13.207 L15.293,14.707 C15.649,15.063 16.215,15.099 16.613,14.79 L16.707,14.707 L18.207,13.207 C18.545,12.87 18.597,12.341 18.331,11.944 C18.066,11.547 17.558,11.393 17.117,11.576 L17,11.634 L17,10 C17,9.448 16.552,9 16,9 Z"/>
</svg>

