<svg xmlns="http://www.w3.org/2000/svg" width="24" height="24">
  <defs/>
  <path  d="M12,2 C17.523,2 22,6.477 22,12 C22,17.523 17.523,22 12,22 C6.477,22 2,17.523 2,12 C2,6.477 6.477,2 12,2 Z M12,4 C8.515,3.999 5.431,6.255 4.375,9.576 C3.319,12.897 4.535,16.52 7.38,18.532 L8.83,13.45 C8.999,12.859 9.431,12.379 10,12.148 L10,11.385 C10,11.131 10.049,10.879 10.143,10.642 L11.536,7.161 C11.612,6.971 11.796,6.847 12,6.847 C12.204,6.847 12.388,6.971 12.464,7.161 L13.857,10.642 C13.951,10.879 14,11.131 14,11.385 L14,12.148 C14.569,12.38 15,12.86 15.169,13.451 L16.62,18.531 C19.465,16.519 20.68,12.897 19.624,9.576 C18.568,6.255 15.484,4 12,4 Z M10.754,14 L9.185,19.49 C10.061,19.82 11.009,20 12,20 C12.867,20 13.701,19.862 14.483,19.607 L14.815,19.491 L13.245,14 L10.754,14 Z"/>
</svg>

