<svg xmlns="http://www.w3.org/2000/svg" width="24" height="24">
  <defs/>
  <path  d="M8.5,6 A6.47 6.47 0 0 1 11.958,6.995 L11.363,7.486 A6.489 6.489 0 0 0 9,12.5 A6.49 6.49 0 0 0 11.363,17.514 L11.958,18.004 A6.5 6.5 0 1 1 8.5,6 M15.5,6 A6.5 6.5 0 1 1 12.296,18.157 L12.042,18.005 L12.637,17.514 A6.49 6.49 0 0 0 15,12.5 C15,10.573 14.16,8.841 12.83,7.652 L12.637,7.486 L12.042,6.995 A6.47 6.47 0 0 1 15.5,6 M12,9.671 A4.48 4.48 0 0 1 13,12.5 A4.479 4.479 0 0 1 12,15.329 A4.479 4.479 0 0 1 11,12.5 A4.48 4.48 0 0 1 12,9.671"/>
</svg>

