<svg xmlns="http://www.w3.org/2000/svg" width="24" height="24">
  <defs/>
  <path  d="M12,17.978 C9.28,19.715 5.696,19.193 3.585,16.752 C1.473,14.311 1.473,10.689 3.585,8.248 C5.696,5.807 9.28,5.285 12,7.022 C14.72,5.285 18.304,5.807 20.415,8.248 C22.527,10.689 22.527,14.311 20.415,16.752 C18.304,19.193 14.72,19.715 12,17.978 Z M4,12.5 C4,14.043 4.79,15.479 6.094,16.304 C7.399,17.129 9.035,17.229 10.429,16.567 C9.535,15.453 9,14.04 9,12.5 C8.998,11.021 9.502,9.586 10.429,8.433 C9.035,7.771 7.399,7.871 6.094,8.696 C4.79,9.521 4,10.957 4,12.5 Z M13.571,8.433 C14.465,9.547 15,10.96 15,12.5 C15.002,13.979 14.498,15.414 13.571,16.566 C15.462,17.462 17.721,16.937 19.022,15.298 C20.323,13.659 20.323,11.34 19.022,9.701 C17.721,8.062 15.462,7.537 13.571,8.433 Z M12,9.671 C11.375,10.444 11,11.428 11,12.5 C10.998,13.53 11.351,14.529 12,15.329 C12.649,14.529 13.002,13.53 13,12.5 C13,11.428 12.625,10.444 12,9.671 Z"/>
</svg>

