<svg xmlns="http://www.w3.org/2000/svg" width="24" height="24">
  <defs/>
  <path  d="M16.432,2.415 A5.109 5.109 0 0 1 20.595,6.557 C21.026,8.918 21.123,11.239 20.635,13.665 C20.229,15.688 18.629,17.197 16.625,17.558 C15.075,17.836 13.52,17.982 11.958,17.978 C12.68,18.122 13.429,18.148 14.168,18.164 L14.8,18.176 L15.195,18.178 C15.731,18.185 16.292,18.226 16.728,18.518 C16.994,18.696 17.263,19.028 17.261,19.503 C17.261,19.932 17.03,20.235 16.897,20.381 C16.429,20.894 15.707,21.165 15.065,21.375 C14.023,21.714 12.605,21.975 11.005,21.982 C7.577,21.998 4.361,19.719 3.527,16.232 C2.778,13.099 2.784,9.584 3.382,6.451 A5.03 5.03 0 0 1 7.476,2.431 A25.859 25.859 0 0 1 16.432,2.415 M7.822,4.4 A3.03 3.03 0 0 0 5.347,6.824 C4.795,9.714 4.797,12.941 5.472,15.766 C6.074,18.28 8.423,19.993 10.995,19.981 C11.229,19.981 11.457,19.973 11.679,19.961 A5.862 5.862 0 0 1 8.72,18.463 C8.201,17.968 7.605,17.209 7.929,16.449 C8.13,15.978 8.631,15.728 9.129,15.792 C11.512,16.102 13.888,16.016 16.271,15.588 C17.494,15.368 18.436,14.461 18.675,13.27 C19.101,11.151 19.025,9.093 18.628,6.915 A3.109 3.109 0 0 0 16.091,4.385 A23.858 23.858 0 0 0 7.822,4.4 M14,6 A3 3 0 0 1 17,9 L17,13 A1 1 0 1 1 15,13 L15,9 A1 1 0 1 0 13,9 L13,12 A1 1 0 1 1 11,12 L11,9 A1 1 0 1 0 9,9 L9,13 A1 1 0 1 1 7,13 L7,9 A3 3 0 0 1 12,6.764 A2.989 2.989 0 0 1 14,6"/>
</svg>

