<svg xmlns="http://www.w3.org/2000/svg" width="24" height="24">
  <defs/>
  <path  d="M7.476,2.43 C10.438,1.904 13.468,1.898 16.432,2.414 C18.554,2.78 20.219,4.437 20.595,6.557 C21.026,8.917 21.123,11.239 20.635,13.664 C20.349,15.092 18.614,16.436 16.609,16.797 C15.059,17.075 10.125,17.219 8.499,17 C8.937,19 13.133,18.653 13.999,18.5 L14.234,18.457 L14.243,18.455 C14.815,18.35 15.686,18.19 16.111,18.276 C16.721,18.399 17.263,18.829 17.261,19.503 C17.26,20.077 16.847,20.504 16.389,20.789 C16.039,21.007 15.581,21.206 15.065,21.374 C14.023,21.714 12.605,21.974 11.005,21.982 C7.577,21.997 4.361,19.719 3.527,16.232 C2.778,13.099 2.784,9.584 3.382,6.45 C3.774,4.387 5.406,2.784 7.476,2.43 Z M14,8 C14.552,8 15,8.448 15,9 L15,13 C15,13.552 15.448,14 16,14 C16.552,14 17,13.552 17,13 L17,9 C17,7.817 16.305,6.744 15.225,6.261 C14.145,5.778 12.882,5.975 12,6.764 C11.118,5.975 9.855,5.778 8.775,6.261 C7.695,6.744 7,7.817 7,9 L7,13 C7,13.552 7.448,14 8,14 C8.552,14 9,13.552 9,13 L9,9 C9,8.448 9.448,8 10,8 C10.552,8 11,8.448 11,9 L11,12 C11,12.552 11.448,13 12,13 C12.552,13 13,12.552 13,12 L13,9 C13,8.448 13.448,8 14,8 Z"/>
</svg>

