<svg xmlns="http://www.w3.org/2000/svg" width="24" height="24">
  <defs/>
  <path  d="M14,5 C15.047,5 15.917,5.806 15.995,6.85 L16,7 L16,9.697 L21.535,18 L22,18 C22.529,18.001 22.966,18.413 22.997,18.941 C23.028,19.47 22.642,19.931 22.117,19.993 L22,20 L2,20 C1.471,19.999 1.034,19.587 1.003,19.059 C0.972,18.53 1.358,18.069 1.883,18.007 L2,18 L2.465,18 L8,9.697 L8,7 C8,5.953 8.806,5.083 9.85,5.005 L10,5 Z M13.55,15 L10.45,15 L10.117,18 L13.883,18 Z M15.248,12.174 L15.895,18 L19.131,18 Z M8.752,12.174 L4.87,18 L8.106,18 Z M14,7 L10,7 L10,9 L14,9 Z M13.105,11 L10.895,11 L10.673,13 L13.327,13 Z"/>
</svg>

