<svg xmlns="http://www.w3.org/2000/svg" width="24" height="24">
  <defs/>
  <path  d="M9.42,2 C10.138,2 10.8,2.385 11.156,3.008 L12,4.484 L12.844,3.008 C13.2,2.385 13.862,2 14.58,2 L19.138,2 C19.673,2 20.167,2.284 20.436,2.747 C20.704,3.209 20.706,3.78 20.441,4.244 L17.059,10.162 C19.703,12.927 19.638,17.302 16.913,19.986 C14.188,22.671 9.812,22.671 7.087,19.986 C4.362,17.302 4.297,12.927 6.941,10.162 L3.559,4.244 C3.294,3.78 3.296,3.209 3.564,2.747 C3.833,2.284 4.327,2 4.862,2 Z M12,10 C9.239,10 7,12.239 7,15 C7,17.761 9.239,20 12,20 C14.761,20 17,17.761 17,15 C17,12.239 14.761,10 12,10 Z M9.42,4 L5.723,4 L8.533,8.917 C9.503,8.363 10.593,8.05 11.709,8.006 Z M18.277,4 L14.58,4 L13.152,6.5 L14.212,8.357 C14.652,8.503 15.072,8.692 15.467,8.917 Z M12,13 C13.105,13 14,13.895 14,15 C14,16.105 13.105,17 12,17 C10.895,17 10,16.105 10,15 C10,13.895 10.895,13 12,13 Z"/>
</svg>

