<svg xmlns="http://www.w3.org/2000/svg" width="24" height="24">
  <defs/>
  <path  d="M8,6 A6 6 0 1 1 8,18 A6 6 0 0 1 8,6 M17,7 C18.5,7 19.5,9.239 19.5,12 C19.5,14.761 18.5,17 17,17 C15.5,17 14.5,14.761 14.5,12 C14.5,9.239 15.5,7 17,7 M21,7.5 C21.38,7.5 21.712,8.327 21.88,9.746 L21.927,10.189 L21.946,10.424 L21.976,10.918 L21.986,11.177 L21.998,11.718 L22,12 L21.998,12.282 L21.986,12.823 L21.976,13.083 L21.946,13.576 L21.926,13.811 L21.881,14.254 C21.712,15.674 21.381,16.5 21,16.5 C20.62,16.5 20.288,15.673 20.12,14.254 L20.073,13.811 A16.683 16.683 0 0 1 20.054,13.576 L20.024,13.082 A20.863 20.863 0 0 1 20.014,12.823 L20.002,12.282 L20.002,11.718 L20.014,11.177 L20.024,10.917 L20.054,10.424 L20.074,10.189 L20.119,9.746 C20.288,8.326 20.619,7.5 21,7.5"/>
</svg>

