<svg xmlns="http://www.w3.org/2000/svg" width="24" height="24">
  <defs/>
  <path  d="M8,6 C11.314,6 14,8.686 14,12 C14,15.314 11.314,18 8,18 C4.686,18 2,15.314 2,12 C2,8.686 4.686,6 8,6 Z M8,8 C5.791,8 4,9.791 4,12 C4,14.209 5.791,16 8,16 C10.209,16 12,14.209 12,12 C12,9.791 10.209,8 8,8 Z M17,7 C18.5,7 19.5,9.239 19.5,12 C19.5,14.761 18.5,17 17,17 C15.5,17 14.5,14.761 14.5,12 C14.5,9.239 15.5,7 17,7 Z M21,7.5 C21.38,7.5 21.712,8.327 21.88,9.746 L21.927,10.189 L21.946,10.424 L21.976,10.918 L21.986,11.177 L21.998,11.718 L22,12 L21.998,12.282 L21.986,12.823 L21.976,13.083 L21.946,13.576 L21.926,13.811 L21.881,14.254 C21.712,15.674 21.381,16.5 21,16.5 C20.62,16.5 20.288,15.673 20.12,14.254 L20.073,13.811 C20.066,13.733 20.06,13.654 20.054,13.576 L20.024,13.082 C20.02,12.996 20.017,12.909 20.014,12.823 L20.002,12.282 L20.002,11.718 L20.014,11.177 L20.024,10.917 L20.054,10.424 L20.074,10.189 L20.119,9.746 C20.288,8.326 20.619,7.5 21,7.5 Z M16.956,9.403 C16.593,10.203 16.5,11.134 16.5,12 C16.5,12.866 16.592,13.798 16.956,14.597 C16.974,14.635 17.026,14.635 17.044,14.597 C17.407,13.797 17.5,12.866 17.5,12 C17.5,11.134 17.408,10.202 17.044,9.403 C17.036,9.385 17.019,9.374 17,9.374 C16.981,9.374 16.964,9.385 16.956,9.403 Z"/>
</svg>

