<svg xmlns="http://www.w3.org/2000/svg" width="24" height="24">
  <defs/>
  <path  d="M19,3 C20.657,3 22,4.343 22,6 L22,16 C22,17.657 20.657,19 19,19 L7.333,19 L4,21.5 C3.176,22.118 2,21.53 2,20.5 L2,6 C2,4.343 3.343,3 5,3 Z M16,8 L8,8 C7.471,8.001 7.034,8.413 7.003,8.941 C6.972,9.47 7.358,9.931 7.883,9.993 L8,10 L16,10 C16.529,9.999 16.966,9.587 16.997,9.059 C17.028,8.53 16.642,8.069 16.117,8.007 Z M11,12 L8,12 C7.448,12 7,12.448 7,13 C7,13.552 7.448,14 8,14 L11,14 C11.552,14 12,13.552 12,13 C12,12.448 11.552,12 11,12 Z"/>
</svg>

