<svg xmlns="http://www.w3.org/2000/svg" width="24" height="24">
  <defs/>
  <path  d="M13.5,3 A8.5 8.5 0 0 1 13.5,20 L13,20 L13,20.99 A1.01 1.01 0 0 1 11.989,22 C9.529,21.998 7.037,21.177 5.146,19.496 C3.238,17.798 2.002,15.275 2,12.009 L2,11.5 A8.5 8.5 0 0 1 10.5,3 Z M13.5,5 L10.5,5 A6.5 6.5 0 0 0 4,11.5 L4.001,12.165 C4.041,14.807 5.042,16.727 6.476,18.001 C7.714,19.103 9.317,19.76 11,19.945 L11,19.01 C11,18.452 11.452,18 12.01,18 L13.5,18 A6.5 6.5 0 1 0 13.5,5 M8.5,10 A1.5 1.5 0 1 1 8.5,13 A1.5 1.5 0 0 1 8.5,10 M15.5,10 A1.5 1.5 0 1 1 15.5,13 A1.5 1.5 0 0 1 15.5,10"/>
</svg>

