<svg xmlns="http://www.w3.org/2000/svg" width="24" height="24">
  <defs/>
  <path  d="M19,3 A3 3 0 0 1 21.995,5.824 L22,6 L22,16 A3 3 0 0 1 19.176,18.995 L19,19 L15.303,19 L12.693,20.74 A1.25 1.25 0 0 1 11.436,20.815 L11.306,20.74 L8.698,19 L5,19 A3 3 0 0 1 2.005,16.176 L2,16 L2,6 A3 3 0 0 1 4.824,3.005 L5,3 Z M19,5 L5,5 A1 1 0 0 0 4.007,5.883 L4,6 L4,16 A1 1 0 0 0 4.883,16.993 L5,17 L8.697,17 A2 2 0 0 1 9.662,17.248 L9.807,17.336 L12,18.798 L14.193,17.336 A2 2 0 0 1 15.134,17.007 L15.303,17 L19,17 A1 1 0 0 0 19.993,16.117 L20,16 L20,6 A1 1 0 0 0 19.117,5.007 Z M8.5,10 A1.5 1.5 0 1 1 8.5,13 A1.5 1.5 0 0 1 8.5,10 M15.5,10 A1.5 1.5 0 1 1 15.5,13 A1.5 1.5 0 0 1 15.5,10"/>
</svg>

