<svg xmlns="http://www.w3.org/2000/svg" width="24" height="24">
  <defs/>
  <path  d="M12,2 C17.523,2 22,6.477 22,12 C22,17.523 17.523,22 12,22 A9.958 9.958 0 0 1 7.137,20.74 L6.832,20.562 L3.8,21.454 A1.01 1.01 0 0 1 2.52,20.309 L2.546,20.2 L3.438,17.168 A9.958 9.958 0 0 1 2,12 C2,6.477 6.477,2 12,2 M12,4 A8 8 0 0 0 5.241,16.282 C5.439,16.594 5.524,16.978 5.457,17.359 L5.418,17.522 L4.977,19.023 L6.478,18.582 C6.911,18.454 7.361,18.532 7.718,18.759 A8 8 0 1 0 12,4 M9.793,9.793 A1 1 0 0 1 11.113,9.71 L11.207,9.793 L13.5,12.086 L15.793,9.793 A1 1 0 0 1 17.29,11.113 L17.207,11.207 L14.207,14.207 A1 1 0 0 1 12.887,14.29 L12.793,14.207 L10.5,11.914 L8.207,14.207 A1 1 0 0 1 6.71,12.887 L6.793,12.793 Z"/>
</svg>

