<svg xmlns="http://www.w3.org/2000/svg" width="24" height="24">
  <defs/>
  <path  d="M12,2 C17.523,2 22,6.477 22,12 C22,17.523 17.523,22 12,22 C10.298,22.003 8.624,21.569 7.137,20.74 L6.832,20.562 L3.8,21.454 C3.465,21.553 3.102,21.471 2.841,21.238 C2.58,21.005 2.459,20.653 2.52,20.309 L2.546,20.2 L3.438,17.168 C2.495,15.609 1.998,13.822 2,12 C2,6.477 6.477,2 12,2 Z M9.793,9.793 L6.793,12.793 C6.533,13.044 6.429,13.416 6.52,13.766 C6.612,14.115 6.885,14.388 7.234,14.48 C7.584,14.571 7.956,14.467 8.207,14.207 L10.5,11.914 L12.793,14.207 C13.184,14.597 13.816,14.597 14.207,14.207 L17.207,11.207 C17.586,10.815 17.581,10.191 17.195,9.805 C16.809,9.419 16.185,9.414 15.793,9.793 L13.5,12.086 L11.207,9.793 C10.816,9.403 10.184,9.403 9.793,9.793 Z"/>
</svg>

