<svg xmlns="http://www.w3.org/2000/svg" width="24" height="24">
  <defs/>
  <path  d="M13.5,3 C18.194,3 22,6.806 22,11.5 C22,16.194 18.194,20 13.5,20 L13,20 L13,20.99 C13,21.548 12.547,22.001 11.989,22 C9.529,21.998 7.037,21.177 5.146,19.496 C3.238,17.798 2.002,15.275 2,12.009 L2,11.5 C2,6.806 5.806,3 10.5,3 Z M8.5,10 C7.672,10 7,10.672 7,11.5 C7,12.328 7.672,13 8.5,13 C9.328,13 10,12.328 10,11.5 C10,10.672 9.328,10 8.5,10 Z M15.5,10 C14.672,10 14,10.672 14,11.5 C14,12.328 14.672,13 15.5,13 C16.328,13 17,12.328 17,11.5 C17,10.672 16.328,10 15.5,10 Z"/>
</svg>

