<svg xmlns="http://www.w3.org/2000/svg" width="24" height="24">
  <defs/>
  <path  d="M8.07,5.002 L8.069,5.002 C9.803,5.123 11.039,6.47 11.756,7.49 C11.863,7.642 11.966,7.797 12.064,7.955 C12.162,7.797 12.265,7.642 12.371,7.49 C13.088,6.471 14.324,5.122 16.058,5.002 C17.653,4.891 18.923,5.818 19.81,6.981 C20.703,8.15 21.332,9.701 21.68,11.249 C22.026,12.796 22.114,14.438 21.834,15.813 C21.562,17.149 20.87,18.523 19.414,18.958 C18.025,19.373 16.779,18.783 15.827,17.982 C14.873,17.18 14.047,16.036 13.381,14.931 C12.86,14.064 12.414,13.18 12.064,12.427 C11.714,13.181 11.268,14.064 10.746,14.931 C10.08,16.036 9.254,17.18 8.3,17.982 C7.348,18.783 6.102,19.373 4.713,18.958 C3.257,18.523 2.565,17.149 2.293,15.813 C2.014,14.438 2.101,12.796 2.447,11.249 C2.795,9.701 3.424,8.151 4.317,6.981 C5.205,5.818 6.475,4.892 8.07,5.002 Z M10.92,10.027 L10.919,10.026 C10.762,9.692 10.487,9.163 10.119,8.64 C9.461,7.703 8.697,7.051 7.931,6.998 C7.276,6.952 6.582,7.309 5.907,8.194 C5.237,9.073 4.703,10.334 4.399,11.687 C4.096,13.04 4.045,14.388 4.253,15.415 C4.47,16.482 4.891,16.924 5.287,17.042 C5.75,17.18 6.305,17.047 7.012,16.452 C7.719,15.858 8.411,14.932 9.032,13.9 C9.95,12.375 10.637,10.742 10.92,10.027 Z M13.208,10.027 C13.49,10.742 14.178,12.375 15.095,13.9 C15.717,14.932 16.409,15.858 17.115,16.452 C17.823,17.047 18.377,17.18 18.841,17.042 C19.236,16.924 19.657,16.482 19.874,15.415 C20.083,14.388 20.032,13.04 19.728,11.687 C19.424,10.334 18.891,9.073 18.22,8.194 C17.545,7.309 16.852,6.952 16.196,6.998 C15.43,7.051 14.666,7.703 14.008,8.64 C13.703,9.079 13.436,9.543 13.208,10.026 Z"/>
</svg>

