<svg xmlns="http://www.w3.org/2000/svg" width="24" height="24">
  <defs/>
  <path  d="M16.023,4.503 C17.853,4.377 19.267,5.445 20.208,6.677 C21.156,7.92 21.809,9.543 22.168,11.139 C22.525,12.735 22.621,14.45 22.324,15.912 C22.039,17.316 21.278,18.922 19.557,19.437 C17.937,19.921 16.517,19.217 15.505,18.365 C14.489,17.51 13.629,16.312 12.953,15.189 C12.637,14.661 12.34,14.122 12.063,13.573 C11.786,14.122 11.49,14.661 11.174,15.188 C10.498,16.312 9.638,17.51 8.622,18.365 C7.609,19.217 6.19,19.921 4.57,19.437 C2.849,18.922 2.088,17.317 1.803,15.912 C1.507,14.45 1.603,12.735 1.96,11.139 C2.318,9.543 2.971,7.919 3.92,6.677 C4.86,5.445 6.274,4.377 8.104,4.503 C9.82,4.623 11.067,5.786 11.844,6.772 L12.064,7.061 L12.283,6.771 C13.06,5.786 14.307,4.622 16.023,4.503 Z M16.231,7.496 C15.707,7.533 15.061,8.011 14.417,8.927 C14.169,9.283 13.947,9.657 13.754,10.046 L13.981,10.589 L14.171,11.023 L14.278,11.257 L14.512,11.754 L14.772,12.279 C14.999,12.725 15.251,13.189 15.523,13.642 C16.134,14.656 16.793,15.527 17.436,16.069 C18.037,16.575 18.409,16.627 18.646,16.576 L18.698,16.563 C18.828,16.523 19.181,16.314 19.384,15.315 C19.574,14.375 19.533,13.101 19.24,11.795 C18.948,10.491 18.438,9.303 17.823,8.498 C17.2,7.682 16.651,7.468 16.231,7.496 Z M7.896,7.496 C7.476,7.467 6.926,7.682 6.304,8.498 C5.69,9.303 5.18,10.491 4.887,11.796 C4.595,13.101 4.552,14.375 4.743,15.316 C4.908,16.126 5.173,16.417 5.335,16.519 L5.403,16.553 L5.43,16.563 C5.662,16.633 6.044,16.613 6.69,16.069 C7.335,15.527 7.993,14.656 8.604,13.642 C8.876,13.189 9.129,12.725 9.356,12.279 L9.616,11.754 L9.849,11.257 L10.055,10.799 L10.23,10.392 L10.373,10.046 C10.18,9.657 9.958,9.283 9.71,8.927 C9.066,8.011 8.42,7.533 7.896,7.497 Z"/>
</svg>

