<svg xmlns="http://www.w3.org/2000/svg" width="24" height="24">
  <defs/>
  <path  d="M4,7 C4,4.239 6.239,2 9,2 L15,2 C17.761,2 20,4.239 20,7 L20,13 C20,15.761 17.761,18 15,18 L13,18 L13,20 L15,20 C15.552,20 16,20.448 16,21 C16,21.552 15.552,22 15,22 L9,22 C8.448,22 8,21.552 8,21 C8,20.448 8.448,20 9,20 L11,20 L11,18 L9,18 C6.239,18 4,15.761 4,13 Z M15,16 C16.657,16 18,14.657 18,13 L15,13 C14.448,13 14,12.552 14,12 C14,11.448 14.448,11 15,11 L18,11 L18,9 L15,9 C14.448,9 14,8.552 14,8 C14,7.448 14.448,7 15,7 L18,7 C18,5.343 16.657,4 15,4 L9,4 C7.343,4 6,5.343 6,7 L9,7 C9.552,7 10,7.448 10,8 C10,8.552 9.552,9 9,9 L6,9 L6,11 L9,11 C9.552,11 10,11.448 10,12 C10,12.552 9.552,13 9,13 L6,13 C6,14.657 7.343,16 9,16 L15,16 Z"/>
</svg>

