<svg xmlns="http://www.w3.org/2000/svg" width="24" height="24">
  <defs/>
  <path  d="M12,2 C12.43,2 12.848,2.055 13.25,2.158 C13.603,2.241 13.883,2.508 13.983,2.857 C14.082,3.205 13.985,3.581 13.729,3.837 C13.474,4.094 13.099,4.192 12.75,4.094 C11.851,3.862 10.896,4.059 10.162,4.627 C9.429,5.196 9,6.072 9,7 L9,12 C9,13.657 10.343,15 12,15 C13.657,15 15,13.657 15,12 L15,10 C15,9.448 15.448,9 16,9 C16.552,9 17,9.448 17,10 L17,12 C17,14.761 14.761,17 12,17 C9.239,17 7,14.761 7,12 L7,7 C7,4.239 9.239,2 12,2 Z M13,19.938 L13,21 C13,21.552 12.552,22 12,22 C11.448,22 11,21.552 11,21 L11,19.938 C7.428,19.487 4.596,16.706 4.081,13.142 C4.003,12.595 4.382,12.088 4.929,12.01 C5.476,11.932 5.983,12.311 6.061,12.858 C6.492,15.807 9.02,17.993 12,17.993 C14.98,17.993 17.508,15.807 17.939,12.858 C18.017,12.311 18.524,11.932 19.071,12.01 C19.618,12.088 19.997,12.595 19.919,13.142 C19.404,16.706 16.572,19.487 13,19.938 Z M19.946,1.677 L20.075,2.055 C20.375,2.934 21.066,3.624 21.945,3.924 L22.323,4.054 C22.727,4.193 22.999,4.573 22.999,5 C22.999,5.427 22.727,5.807 22.323,5.946 L21.945,6.075 C21.066,6.375 20.376,7.066 20.076,7.945 L19.946,8.323 C19.808,8.728 19.427,9 19,9 C18.572,9 18.191,8.728 18.053,8.323 L17.925,7.945 C17.625,7.066 16.934,6.376 16.055,6.076 L15.677,5.946 C15.273,5.807 15.001,5.427 15.001,5 C15.001,4.573 15.273,4.193 15.677,4.054 L16.054,3.925 C16.933,3.625 17.624,2.934 17.924,2.055 L18.053,1.677 C18.191,1.272 18.572,1 19,1 C19.427,1 19.808,1.272 19.946,1.677 Z M18.196,5 C18.494,5.237 18.763,5.506 19,5.804 C19.237,5.506 19.506,5.237 19.804,5 C19.506,4.764 19.236,4.494 19,4.196 C18.763,4.494 18.494,4.764 18.196,5 Z"/>
</svg>

