<svg xmlns="http://www.w3.org/2000/svg" width="24" height="24">
  <defs/>
  <path  d="M4.93,12.01 A1 1 0 0 1 6.06,12.858 A6.001 6.001 0 0 0 13.892,17.696 L14.185,17.589 L15.694,19.098 A7.94 7.94 0 0 1 13.358,19.885 L13,19.938 L13,21 A1 1 0 0 1 11.007,21.117 L11,21 L11,19.938 A8.005 8.005 0 0 1 4.081,13.142 A1 1 0 0 1 4.929,12.01 Z M12,2 A5 5 0 0 1 16.995,6.783 L17,7 L17,12 A4.98 4.98 0 0 1 16.309,14.538 L16.172,14.758 L16.891,15.477 C17.433,14.717 17.801,13.825 17.939,12.858 A1 1 0 0 1 19.919,13.142 A7.96 7.96 0 0 1 18.507,16.655 L18.32,16.905 L20.485,19.071 A1 1 0 0 1 19.165,20.568 L19.071,20.485 L3.515,4.93 A1 1 0 0 1 4.835,3.433 L4.929,3.516 L7.159,5.746 A5.002 5.002 0 0 1 12,2 M7,10.404 L13.398,16.802 A5 5 0 0 1 7,12 Z"/>
</svg>

