<svg xmlns="http://www.w3.org/2000/svg" width="24" height="24">
  <defs/>
  <path  d="M12,2 C14.677,2 16.879,4.109 16.995,6.783 L17,7 L17,12 C17.001,12.893 16.763,13.769 16.309,14.538 L16.172,14.758 L16.891,15.477 C17.445,14.7 17.804,13.802 17.939,12.858 C18.017,12.311 18.524,11.932 19.071,12.01 C19.618,12.088 19.997,12.595 19.919,13.142 C19.738,14.41 19.253,15.615 18.507,16.655 L18.32,16.905 L20.485,19.071 C20.857,19.444 20.875,20.043 20.527,20.438 C20.178,20.834 19.582,20.891 19.165,20.568 L19.071,20.485 L3.515,4.93 C3.143,4.557 3.125,3.958 3.473,3.563 C3.822,3.167 4.418,3.11 4.835,3.433 L4.929,3.516 L7.159,5.746 C7.731,3.541 9.721,2.001 11.999,2 Z M12,4 C10.343,4 9,5.343 9,7 L9,7.586 L14.708,13.293 C14.901,12.889 15.001,12.447 15,12 L15,7 C15,5.343 13.657,4 12,4 Z M4.93,12.01 C5.476,11.933 5.982,12.312 6.06,12.858 C6.314,14.617 7.334,16.172 8.846,17.106 C10.358,18.04 12.206,18.256 13.892,17.696 L14.185,17.589 L15.694,19.098 C14.961,19.48 14.173,19.746 13.358,19.885 L13,19.938 L13,21 C12.999,21.529 12.587,21.966 12.059,21.997 C11.53,22.028 11.069,21.642 11.007,21.117 L11,21 L11,19.938 C7.427,19.487 4.595,16.706 4.08,13.142 C4.042,12.879 4.111,12.612 4.27,12.4 C4.43,12.187 4.667,12.047 4.93,12.01 Z M7,10.404 L9.031,12.435 C9.224,13.746 10.254,14.776 11.565,14.969 L13.398,16.802 C11.887,17.242 10.257,16.945 8.999,16 C7.74,15.056 7,13.574 7,12 Z"/>
</svg>

