<svg xmlns="http://www.w3.org/2000/svg" width="24" height="24">
  <defs/>
  <path  d="M12,2 C14.761,2 17,4.239 17,7 L17,12 C17,14.761 14.761,17 12,17 C9.239,17 7,14.761 7,12 L7,7 C7,4.239 9.239,2 12,2 Z M12,4 C10.343,4 9,5.343 9,7 L9,12 C9,13.657 10.343,15 12,15 C13.657,15 15,13.657 15,12 L15,7 C15,5.343 13.657,4 12,4 Z M19.07,12.01 C19.333,12.047 19.57,12.187 19.73,12.4 C19.889,12.612 19.958,12.879 19.92,13.142 C19.405,16.706 16.573,19.487 13,19.938 L13,21 C13,21.552 12.552,22 12,22 C11.448,22 11,21.552 11,21 L11,19.938 C7.428,19.487 4.596,16.706 4.081,13.142 C4.003,12.595 4.382,12.088 4.929,12.01 C5.476,11.932 5.983,12.311 6.061,12.858 C6.492,15.807 9.02,17.993 12,17.993 C14.98,17.993 17.508,15.807 17.939,12.858 C18.017,12.311 18.524,11.931 19.071,12.01 Z"/>
</svg>

