<svg xmlns="http://www.w3.org/2000/svg" width="24" height="24">
  <defs/>
  <path  d="M19.07,12.01 A1 1 0 0 1 19.92,13.142 A8.004 8.004 0 0 1 13,19.938 L13,21 A1 1 0 1 1 11,21 L11,19.938 A8.005 8.005 0 0 1 4.081,13.142 A1 1 0 0 1 6.061,12.858 A6.001 6.001 0 0 0 17.939,12.858 A1 1 0 0 1 19.071,12.01 M12,2 C12.819,2 13.592,2.197 14.274,2.546 A3 3 0 0 0 15.031,7.839 L15.409,7.969 A1 1 0 0 1 16.032,8.591 L16.161,8.969 C16.331,9.469 16.625,9.901 17,10.236 L17,12 A5 5 0 0 1 7,12 L7,7 A5 5 0 0 1 12,2 M19,1 A1 1 0 0 1 19.898,1.56 L19.946,1.677 L20.076,2.055 A3 3 0 0 0 21.76,3.855 L21.945,3.925 L22.323,4.054 A1 1 0 0 1 22.441,5.898 L22.323,5.946 L21.945,6.076 A3 3 0 0 0 20.145,7.76 L20.075,7.945 L19.946,8.323 A1 1 0 0 1 18.102,8.44 L18.054,8.323 L17.924,7.945 A3 3 0 0 0 16.24,6.145 L16.055,6.075 L15.677,5.946 A1 1 0 0 1 15.559,4.102 L15.677,4.054 L16.055,3.924 A3 3 0 0 0 17.855,2.24 L17.925,2.055 L18.054,1.677 A1 1 0 0 1 19,1"/>
</svg>

