<svg xmlns="http://www.w3.org/2000/svg" width="24" height="24">
  <defs/>
  <path  d="M17.5,3 C19.76,2.998 21.67,4.673 21.965,6.914 C22.259,9.154 20.847,11.266 18.663,11.848 C19.591,14.73 18.561,17.883 16.11,19.66 C13.658,21.438 10.342,21.438 7.89,19.66 C5.439,17.883 4.409,14.73 5.337,11.848 C3.16,11.26 1.754,9.151 2.048,6.915 C2.342,4.679 4.245,3.006 6.5,3 C8.82,3 10.76,4.764 10.98,7.074 C11.656,6.975 12.344,6.975 13.02,7.074 C13.24,4.764 15.18,3 17.5,3 Z M12,9 C9.239,9 7,11.239 7,14 C7,16.761 9.239,19 12,19 C14.761,19 17,16.761 17,14 C17,11.239 14.761,9 12,9 Z M6.5,5 C5.164,4.998 4.063,6.047 3.999,7.381 C3.935,8.715 4.932,9.864 6.262,9.989 C6.958,8.996 7.899,8.199 8.994,7.677 C9.043,6.985 8.802,6.304 8.329,5.796 C7.856,5.288 7.194,5 6.5,5 Z M17.5,5 C16.806,5 16.144,5.288 15.671,5.796 C15.198,6.304 14.957,6.985 15.006,7.677 C16.101,8.199 17.042,8.996 17.738,9.989 C19.068,9.864 20.065,8.715 20.001,7.381 C19.937,6.047 18.836,4.998 17.5,5 Z"/>
</svg>

