<svg xmlns="http://www.w3.org/2000/svg" width="24" height="24">
  <defs/>
  <path  d="M3.868,4.368 A7 7 0 0 1 15.608,11.024 L15.539,11.28 L18.939,15.652 A2.7 2.7 0 0 1 19.326,18.284 C19.426,18.314 19.548,18.33 19.698,18.3 L19.816,18.269 A1 1 0 0 1 20.448,20.166 A2.765 2.765 0 0 1 17.902,19.777 A2.7 2.7 0 0 1 15.316,19.557 L15.152,19.44 L10.78,16.039 A7 7 0 0 1 3.869,4.369 Z M14.577,13.3 A7.045 7.045 0 0 1 12.8,15.077 L16.38,17.861 A0.7 0.7 0 0 0 17.36,16.88 Z M12.92,6.459 L12.717,6.795 A20.002 20.002 0 0 1 9.877,10.379 A20.002 20.002 0 0 1 6.294,13.218 L5.958,13.421 A5.001 5.001 0 0 0 12.92,6.459 M11.422,5.049 A5.002 5.002 0 0 0 4.548,11.923 L4.872,11.74 A18.004 18.004 0 0 0 8.464,8.965 A18.003 18.003 0 0 0 11.016,5.742 L11.132,5.552 L11.335,5.205 Z"/>
</svg>

