<svg xmlns="http://www.w3.org/2000/svg" width="24" height="24">
  <defs/>
  <path  d="M15.682,3.282 C16.416,2.549 17.589,2.498 18.383,3.166 L18.51,3.282 L19.217,3.99 C19.95,4.724 20.001,5.896 19.334,6.69 L19.218,6.818 L18.51,7.525 C18.449,7.586 18.384,7.643 18.316,7.695 C18.494,8.332 18.345,9.015 17.919,9.521 L17.803,9.646 L16.813,10.636 C18.206,11.869 19.002,13.64 19,15.5 C19,17.144 18.39,18.645 17.384,19.79 L17.19,20 L20,20 C20.529,20.001 20.966,20.413 20.997,20.941 C21.028,21.47 20.642,21.931 20.117,21.993 L20,22 L4,22 C3.471,21.999 3.034,21.587 3.003,21.059 C2.972,20.53 3.358,20.069 3.883,20.007 L4,20 L12.5,20 C14.347,20 16.007,18.871 16.686,17.153 C17.365,15.435 16.924,13.476 15.575,12.214 L15.395,12.054 L12.146,15.304 C11.412,16.037 10.24,16.087 9.446,15.42 L9.318,15.303 L7.197,13.182 C6.463,12.448 6.412,11.275 7.08,10.481 L7.197,10.354 L12.854,4.697 C13.364,4.187 14.109,3.991 14.804,4.184 L14.886,4.084 L14.975,3.99 Z M6.49,13.89 L8.61,16.011 C8.87,16.262 8.975,16.634 8.883,16.983 C8.792,17.333 8.519,17.606 8.17,17.698 C7.82,17.79 7.448,17.686 7.197,17.426 L5.075,15.304 C4.685,14.913 4.685,14.28 5.076,13.889 C5.466,13.499 6.1,13.499 6.49,13.89 Z M17.096,4.698 L16.389,5.405 L17.096,6.112 L17.803,5.405 Z"/>
</svg>

