<svg xmlns="http://www.w3.org/2000/svg" width="24" height="24">
  <defs/>
  <path  d="M14.011,4.624 A6.998 6.998 0 0 1 15.61,11.017 L15.539,11.279 L18.939,15.652 A2.7 2.7 0 0 1 19.326,18.284 A0.827 0.827 0 0 0 19.695,18.299 L19.815,18.269 A1 1 0 0 1 20.448,20.166 A2.765 2.765 0 0 1 18.456,20.092 A2.805 2.805 0 0 1 17.9,19.778 A2.7 2.7 0 0 1 15.316,19.558 L15.152,19.439 L10.78,16.039 A7 7 0 0 1 4.126,14.513 A21.43 21.43 0 0 0 9.89,10.395 A21.43 21.43 0 0 0 14.011,4.625 Z M12.419,3.314 A19.418 19.418 0 0 1 8.476,8.98 A19.417 19.417 0 0 1 2.814,12.92 A7.003 7.003 0 0 1 12.419,3.313 Z"/>
</svg>

