<svg xmlns="http://www.w3.org/2000/svg" width="24" height="24">
  <defs/>
  <path  d="M12.5,1 C13.881,1 15,2.119 15,3.5 L15,7.05 C15.66,6.915 16.346,7.052 16.903,7.43 C17.461,7.808 17.842,8.395 17.961,9.058 C18.701,8.895 19.475,9.076 20.066,9.55 C20.657,10.025 21,10.742 21,11.5 L21,14 C21,18.418 17.418,22 13,22 L12.326,22 C9.296,22 6.527,20.288 5.172,17.578 L2.33,11.894 C1.97,11.174 2.237,10.211 3.077,9.866 C4.12,9.44 5.11,9.36 6.13,9.878 C6.441,10.04 6.733,10.236 7,10.462 L7,9.5 C7,8.749 7.337,8.038 7.919,7.563 C8.5,7.088 9.264,6.9 10,7.05 L10,3.5 C10,2.119 11.119,1 12.5,1 Z M16,9.5 C16,9.224 15.776,9 15.5,9 C15.224,9 15,9.224 15,9.5 L15,11 C15,11.552 14.552,12 14,12 C13.448,12 13,11.552 13,11 L13,3.5 C13,3.224 12.776,3 12.5,3 C12.224,3 12,3.224 12,3.5 L12,11 C12,11.552 11.552,12 11,12 C10.448,12 10,11.552 10,11 L10,9.5 C10,9.224 9.776,9 9.5,9 C9.224,9 9,9.224 9,9.5 L9,13 C9,13.424 8.732,13.802 8.331,13.943 C7.931,14.083 7.486,13.956 7.22,13.625 C6.295,12.469 5.703,11.905 5.225,11.661 C4.97,11.523 4.673,11.482 4.39,11.544 L6.96,16.684 C7.976,18.716 10.054,20 12.326,20 L13,20 C16.314,20 19,17.314 19,14 L19,11.5 C19,11.224 18.776,11 18.5,11 C18.224,11 18,11.224 18,11.5 L18,12 C18,12.552 17.552,13 17,13 C16.448,13 16,12.552 16,12 Z"/>
</svg>

