<svg xmlns="http://www.w3.org/2000/svg" width="24" height="24">
  <defs/>
  <path  d="M11,5 C11,3.35 12.333,2.01 13.982,2.001 C15.632,1.991 16.98,3.315 17,4.965 C17.019,6.614 15.703,7.97 14.054,8 L13.836,8.653 C14.877,9.285 15.618,10.312 15.89,11.5 L17.209,11.5 C17.683,10.415 18.852,9.811 20.011,10.053 C21.17,10.295 22,11.316 22,12.5 C22,13.684 21.17,14.705 20.011,14.947 C18.852,15.189 17.683,14.585 17.209,13.5 L15.889,13.5 C15.723,14.23 15.377,14.906 14.883,15.468 L15.587,16.172 C16.689,15.74 17.943,16.139 18.592,17.13 C19.24,18.12 19.105,19.43 18.268,20.267 C17.431,21.104 16.121,21.239 15.131,20.591 C14.14,19.942 13.741,18.688 14.173,17.586 L13.239,16.652 C12.688,16.883 12.097,17.001 11.5,17 C10.813,17.001 10.135,16.843 9.518,16.54 L8.647,17.586 C9.335,18.875 8.995,20.472 7.841,21.368 C6.688,22.264 5.056,22.199 3.977,21.214 C2.899,20.229 2.687,18.61 3.475,17.38 C4.264,16.15 5.823,15.667 7.169,16.236 L7.963,15.282 C7.338,14.49 6.998,13.509 7,12.5 C7,11.765 7.176,11.071 7.489,10.459 L6.621,9.735 C5.563,10.266 4.277,9.982 3.541,9.054 C2.805,8.126 2.821,6.81 3.579,5.9 C4.337,4.99 5.629,4.737 6.675,5.294 C7.72,5.85 8.231,7.063 7.9,8.2 L8.768,8.924 C9.672,8.231 10.805,7.909 11.938,8.022 L12.156,7.368 C11.425,6.8 10.999,5.926 11,5 Z"/>
</svg>

