<svg xmlns="http://www.w3.org/2000/svg" width="24" height="24">
  <defs/>
  <path  d="M14,2 C15.657,1.985 17.012,3.316 17.027,4.973 C17.042,6.63 15.711,7.985 14.054,8 L13.836,8.653 C14.877,9.285 15.618,10.312 15.89,11.5 L17.209,11.5 C17.683,10.415 18.852,9.811 20.011,10.053 C21.17,10.295 22,11.316 22,12.5 C22,13.684 21.17,14.705 20.011,14.947 C18.852,15.189 17.683,14.585 17.209,13.5 L15.889,13.5 C15.723,14.23 15.377,14.906 14.883,15.468 L15.587,16.172 C16.689,15.74 17.943,16.139 18.592,17.13 C19.24,18.12 19.105,19.43 18.268,20.267 C17.431,21.104 16.121,21.239 15.131,20.591 C14.14,19.942 13.741,18.688 14.173,17.586 L13.239,16.652 C12.688,16.883 12.097,17.001 11.5,17 C10.813,17.001 10.135,16.843 9.518,16.54 L8.647,17.586 C9.335,18.875 8.995,20.472 7.841,21.368 C6.688,22.264 5.056,22.199 3.977,21.214 C2.899,20.229 2.687,18.61 3.475,17.38 C4.264,16.15 5.823,15.667 7.169,16.236 L7.963,15.282 C7.338,14.49 6.998,13.509 7,12.5 C7,11.765 7.176,11.072 7.488,10.459 L6.62,9.735 C5.561,10.265 4.276,9.981 3.541,9.053 C2.805,8.125 2.822,6.808 3.58,5.899 C4.338,4.99 5.63,4.737 6.675,5.293 C7.72,5.85 8.232,7.063 7.9,8.2 L8.77,8.924 C9.673,8.232 10.806,7.909 11.939,8.022 L12.157,7.368 C11.145,6.581 10.745,5.238 11.161,4.026 C11.578,2.813 12.718,2 14,2 Z M11.5,10 C10.119,10 9,11.119 9,12.5 C9,13.881 10.119,15 11.5,15 C12.881,15 14,13.881 14,12.5 C14,11.119 12.881,10 11.5,10 Z M14,4 C13.448,4 13,4.448 13,5 C13,5.552 13.448,6 14,6 C14.552,6 15,5.552 15,5 C15,4.448 14.552,4 14,4 Z M6,18 C5.448,18 5,18.448 5,19 C5,19.552 5.448,20 6,20 C6.552,20 7,19.552 7,19 C7,18.448 6.552,18 6,18 Z M5.5,7 C5.224,7 5,7.224 5,7.5 C5,7.776 5.224,8 5.5,8 C5.776,8 6,7.776 6,7.5 C6,7.224 5.776,7 5.5,7 Z M19.5,12 C19.224,12 19,12.224 19,12.5 C19,12.776 19.224,13 19.5,13 C19.776,13 20,12.776 20,12.5 C20,12.224 19.776,12 19.5,12 Z M16.5,18 C16.224,18 16,18.224 16,18.5 C16,18.776 16.224,19 16.5,19 C16.776,19 17,18.776 17,18.5 C17,18.224 16.776,18 16.5,18 Z"/>
</svg>

