<svg xmlns="http://www.w3.org/2000/svg" width="24" height="24">
  <defs/>
  <path  d="M14.116,6.817 A0.459 0.459 0 0 1 14.768,7.129 L14.778,7.209 L15.188,17.464 A0.918 0.918 0 0 1 14.895,18.174 L14.805,18.246 L12.32,20.022 A0.55 0.55 0 0 1 11.766,20.072 L11.68,20.022 L9.195,18.246 A0.917 0.917 0 0 1 8.815,17.578 L8.812,17.464 L9.222,7.209 A0.459 0.459 0 0 1 9.809,6.787 L9.885,6.817 L11.59,7.67 A0.92 0.92 0 0 0 12.297,7.717 L12.41,7.67 Z M20.418,4.124 A0.55 0.55 0 0 1 21.201,4.497 L21.213,4.586 L22.033,19.336 A0.55 0.55 0 0 1 21.334,19.897 L21.254,19.867 L16.43,17.641 A0.55 0.55 0 0 1 16.122,17.251 L16.112,17.164 L15.682,6.856 A0.55 0.55 0 0 1 15.907,6.388 L15.985,6.341 Z M3.582,4.124 L8.015,6.341 A0.55 0.55 0 0 1 8.319,6.856 L7.889,17.164 A0.55 0.55 0 0 1 7.57,17.641 L2.747,19.867 A0.55 0.55 0 0 1 1.967,19.337 L2.787,4.586 A0.55 0.55 0 0 1 3.582,4.124"/>
</svg>

