<svg xmlns="http://www.w3.org/2000/svg" width="24" height="24">
  <defs/>
  <path  d="M19.96,3.65 C20.271,3.509 20.631,3.52 20.933,3.681 C21.234,3.842 21.444,4.135 21.5,4.472 L21.513,4.592 L22.33,19.786 C22.35,20.145 22.193,20.49 21.91,20.712 C21.627,20.933 21.255,21.003 20.911,20.898 L20.804,20.858 L15.907,18.791 L12.65,20.774 C12.298,20.988 11.863,21.015 11.487,20.846 L11.35,20.774 L8.093,18.791 L3.196,20.858 C2.865,20.997 2.488,20.967 2.184,20.776 C1.88,20.585 1.688,20.258 1.67,19.9 L1.67,19.786 L2.487,4.592 C2.505,4.25 2.682,3.937 2.964,3.743 C3.247,3.55 3.603,3.499 3.928,3.606 L4.04,3.65 L9.4,6.083 L12,7.166 L14.601,6.082 Z M14.056,8.476 L12.481,9.133 C12.218,9.242 11.926,9.259 11.653,9.18 L11.519,9.133 L9.944,8.476 L9.602,17.368 L12,18.828 L14.398,17.368 Z M4.413,6.016 L3.745,18.456 L7.606,16.826 L7.974,7.632 L4.414,6.015 Z M19.586,6.016 L16.026,7.632 L16.394,16.825 L20.256,18.456 Z"/>
</svg>

