<svg xmlns="http://www.w3.org/2000/svg" width="24" height="24">
  <defs/>
  <path  d="M19,4 C20.105,4 21,4.895 21,6 L21,10 L14,10 C12.343,10 11,11.343 11,13 L11,19 L4,19 C2.895,19 2,18.105 2,17 L2,6 C2,4.895 2.895,4 4,4 Z M20,12 C21.047,12 21.917,12.806 21.995,13.85 L22,14 L22,18 C22,19.047 21.194,19.917 20.15,19.995 L20,20 L15,20 C13.953,20 13.083,19.194 13.005,18.15 L13,18 L13,14 C13,12.953 13.806,12.083 14.85,12.005 L15,12 Z M4.173,6.173 C3.783,6.563 3.783,7.197 4.173,7.587 L6.088,9.502 L5.502,9.502 C4.95,9.502 4.502,9.95 4.502,10.502 C4.502,11.054 4.95,11.502 5.502,11.502 L8.502,11.502 C9.054,11.502 9.502,11.054 9.502,10.502 L9.502,7.502 C9.502,6.95 9.054,6.502 8.502,6.502 C7.95,6.502 7.502,6.95 7.502,7.502 L7.502,8.088 L5.587,6.173 C5.197,5.783 4.563,5.783 4.173,6.173 Z M20,14 L15,14 L15,18 L20,18 Z"/>
</svg>

