<svg xmlns="http://www.w3.org/2000/svg" width="24" height="24">
  <defs/>
  <path  d="M20,12 A2 2 0 0 1 22,14 L22,18 A2 2 0 0 1 20,20 L15,20 A2 2 0 0 1 13,18 L13,14 A2 2 0 0 1 15,12 Z M19,4 A2 2 0 0 1 21,6 L21,10 A1 1 0 1 1 19,10 L19,6 L4,6 L4,17 L11,17 A1 1 0 1 1 11,19 L4,19 A2 2 0 0 1 2,17 L2,6 A2 2 0 0 1 4,4 Z M20,14 L15,14 L15,18 L20,18 Z M7.087,7.673 L9.002,9.588 L9.002,9.002 A1 1 0 1 1 11.002,9.002 L11.002,12.002 A1 1 0 0 1 10.002,13.002 L7.002,13.002 A1 1 0 1 1 7.002,11.002 L7.588,11.002 L5.673,9.087 A1 1 0 1 1 7.087,7.673"/>
</svg>

