<svg xmlns="http://www.w3.org/2000/svg" width="24" height="24">
  <defs/>
  <path  d="M3,6 C3,4.895 3.895,4 5,4 L9,4 L9,6 L5,6 L5,18 L9,18 L9,20 L5,20 C3.895,20 3,19.105 3,18 Z M13,3 L13,21 C13,21.552 12.552,22 12,22 C11.448,22 11,21.552 11,21 L11,3 C11,2.448 11.448,2 12,2 C12.552,2 13,2.448 13,3 Z M18,5 C18,4.448 18.448,4 19,4 C20.105,4 21,4.895 21,6 C21,6.552 20.552,7 20,7 C19.448,7 19,6.552 19,6 C18.448,6 18,5.552 18,5 Z M20,17 C20.552,17 21,17.448 21,18 C21,19.105 20.105,20 19,20 C18.448,20 18,19.552 18,19 C18,18.448 18.448,18 19,18 C19,17.448 19.448,17 20,17 Z M14,5 C14,4.448 14.448,4 15,4 L16,4 C16.552,4 17,4.448 17,5 C17,5.552 16.552,6 16,6 L15,6 C14.448,6 14,5.552 14,5 Z M20,8 C20.552,8 21,8.448 21,9 L21,10 C21,10.552 20.552,11 20,11 C19.448,11 19,10.552 19,10 L19,9 C19,8.448 19.448,8 20,8 Z M20,13 C20.552,13 21,13.448 21,14 L21,15 C21,15.552 20.552,16 20,16 C19.448,16 19,15.552 19,15 L19,14 C19,13.448 19.448,13 20,13 Z M14,19 C14,18.448 14.448,18 15,18 L16,18 C16.552,18 17,18.448 17,19 C17,19.552 16.552,20 16,20 L15,20 C14.448,20 14,19.552 14,19 Z"/>
</svg>

