<svg xmlns="http://www.w3.org/2000/svg" width="24" height="24">
  <defs/>
  <path  d="M13,3 A1 1 0 1 0 11,3 L11,4 L5,4 A2 2 0 0 0 3,6 L3,18 A2 2 0 0 0 5,20 L11,20 L11,21 A1 1 0 1 0 13,21 Z M14,5 A1 1 0 0 1 15,4 L16,4 A1 1 0 1 1 16,6 L15,6 A1 1 0 0 1 14,5 M18,5 A1 1 0 0 1 19,4 A2 2 0 0 1 21,6 A1 1 0 1 1 19,6 A1 1 0 0 1 18,5 M20,8 A1 1 0 0 1 21,9 L21,10 A1 1 0 1 1 19,10 L19,9 A1 1 0 0 1 20,8 M20,13 A1 1 0 0 1 21,14 L21,15 A1 1 0 1 1 19,15 L19,14 A1 1 0 0 1 20,13 M20,17 A1 1 0 0 1 21,18 A2 2 0 0 1 19,20 A1 1 0 1 1 19,18 A1 1 0 0 1 20,17 M14,19 A1 1 0 0 1 15,18 L16,18 A1 1 0 1 1 16,20 L15,20 A1 1 0 0 1 14,19"/>
</svg>

