<svg xmlns="http://www.w3.org/2000/svg" width="24" height="24">
  <defs/>
  <path  d="M21.778,3.372 C22.024,3.677 22.069,4.097 21.894,4.447 L19.894,8.447 C19.743,8.748 19.451,8.953 19.117,8.993 C18.079,9.112 17.04,9.213 16,9.299 L16,10.665 C17.272,10.492 18.539,10.277 19.797,10.021 C20.333,9.92 20.85,10.267 20.961,10.801 C21.072,11.334 20.734,11.858 20.203,11.979 C19.803,12.061 19.402,12.137 19,12.209 L19,18 C19.552,18 20,18.448 20,19 C20,19.552 19.552,20 19,20 L14,20 C13.448,20 13,19.552 13,19 C13,18.448 13.448,18 14,18 L14,12.905 C13.308,12.964 12.626,13 12,13 C11.374,13 10.692,12.963 10,12.905 L10,18 C10.552,18 11,18.448 11,19 C11,19.552 10.552,20 10,20 L5,20 C4.448,20 4,19.552 4,19 C4,18.448 4.448,18 5,18 L5,12.21 C4.598,12.138 4.197,12.062 3.797,11.98 C3.256,11.868 2.908,11.338 3.02,10.797 C3.132,10.256 3.662,9.908 4.203,10.02 C5.461,10.278 6.728,10.49 8,10.665 L8,9.299 C6.96,9.213 5.921,9.111 4.884,8.993 C4.55,8.952 4.258,8.748 4.106,8.447 L2.106,4.447 C1.931,4.097 1.977,3.677 2.223,3.372 C2.469,3.068 2.87,2.935 3.249,3.032 L3.719,3.149 L4.671,3.373 L5.527,3.564 L6.169,3.701 L6.506,3.77 C6.771,3.823 7.042,3.877 7.316,3.928 L8.146,4.078 C9.538,4.318 10.944,4.5 12,4.5 C13.057,4.5 14.462,4.319 15.853,4.079 L16.683,3.929 L17.493,3.769 L18.473,3.564 L19.329,3.374 L19.811,3.261 C20.125,3.187 20.438,3.111 20.75,3.031 C21.13,2.933 21.532,3.066 21.778,3.371 Z M14,10.897 L14,9.437 L13.173,9.477 C12.766,9.491 12.37,9.5 12,9.5 C11.63,9.5 11.234,9.491 10.827,9.476 L10,9.438 L10,10.897 C10.703,10.96 11.387,11 12,11 C12.49,11 13.026,10.975 13.581,10.932 Z"/>
</svg>

