<svg xmlns="http://www.w3.org/2000/svg" width="24" height="24">
  <defs/>
  <path  d="M13.193,2 C15.299,2 17.044,3.633 17.184,5.734 L17.269,7.002 C17.819,6.967 18.294,7.383 18.331,7.933 L18.664,12.933 C18.701,13.483 18.285,13.96 17.735,13.998 L17.855,15.8 C17.958,17.333 16.887,18.695 15.373,18.957 L15.948,20.684 C16.05,20.989 15.998,21.324 15.811,21.584 C15.623,21.845 15.321,22 15,22 L9,22 C8.679,22 8.377,21.846 8.189,21.585 C8.001,21.324 7.949,20.989 8.051,20.684 L8.627,18.957 C7.113,18.696 6.041,17.333 6.144,15.8 L6.264,13.998 C5.714,13.96 5.298,13.484 5.335,12.934 L5.669,7.934 C5.705,7.384 6.181,6.967 6.731,7.002 L6.815,5.734 C6.955,3.633 8.7,2 10.806,2 Z M11.522,10.553 L10.398,14.206 C10.305,14.509 10.361,14.839 10.55,15.094 C10.738,15.349 11.037,15.5 11.354,15.5 L12.646,15.5 C12.963,15.5 13.262,15.349 13.45,15.094 C13.639,14.839 13.695,14.509 13.602,14.206 L12.478,10.553 C12.414,10.343 12.22,10.2 12,10.2 C11.78,10.2 11.586,10.343 11.522,10.553 Z M14.5,7 L14,7 C13.448,7 13,7.448 13,8 C13,8.552 13.448,9 14,9 L14.5,9 C15.052,9 15.5,8.552 15.5,8 C15.5,7.448 15.052,7 14.5,7 Z M10,7 L9.5,7 C8.971,7.001 8.534,7.413 8.503,7.941 C8.472,8.47 8.858,8.931 9.383,8.993 L9.5,9 L10,9 C10.529,8.999 10.965,8.586 10.996,8.058 C11.027,7.53 10.641,7.069 10.116,7.007 Z"/>
</svg>

