<svg xmlns="http://www.w3.org/2000/svg" width="24" height="24">
  <defs/>
  <path  d="M13.194,2 A4 4 0 0 1 17.184,5.734 L17.269,7.002 A1 1 0 0 1 18.331,7.933 L18.665,12.933 A1 1 0 0 1 17.735,13.998 L17.855,15.8 A3.001 3.001 0 0 1 15.373,18.957 L15.949,20.684 A1 1 0 0 1 15,22 L9,22 A1 1 0 0 1 8.052,20.684 L8.627,18.957 A3 3 0 0 1 6.145,15.8 L6.265,13.998 A1 1 0 0 1 5.335,12.934 L5.669,7.934 A1 1 0 0 1 6.731,7.002 L6.816,5.734 A4 4 0 0 1 10.806,2 Z M13.279,19 L10.721,19 L10.388,20 L13.613,20 L13.28,19 Z M13.194,4 L10.807,4 A2 2 0 0 0 8.81,5.867 L8.14,15.934 A1 1 0 0 0 9.137,17 L14.861,17 A1 1 0 0 0 15.859,15.934 L15.189,5.867 A2 2 0 0 0 13.193,4 Z M11.522,10.053 C11.657,9.613 12.247,9.585 12.442,9.965 L12.478,10.053 L13.602,13.706 A1 1 0 0 1 12.762,14.993 L12.646,15 L11.354,15 A1 1 0 0 1 10.37,13.82 L10.398,13.706 Z M10.5,7 A1 1 0 1 1 10.5,9 L10,9 A1 1 0 0 1 10,7 Z M14,7 A1 1 0 0 1 14.117,8.993 L14,9 L13.5,9 A1 1 0 0 1 13.384,7.007 L13.5,7 Z"/>
</svg>

