<svg xmlns="http://www.w3.org/2000/svg" width="24" height="24">
  <defs/>
  <path  d="M9,16 A1 1 0 0 1 10,17 L10,17.268 L10.232,17.134 A1 1 0 1 1 11.232,18.866 L11,19 L11.232,19.134 A1 1 0 0 1 10.232,20.866 L10,20.732 L10,21 A1 1 0 1 1 8,21 L8,20.732 L7.768,20.866 A1 1 0 1 1 6.768,19.134 L7,19 L6.768,18.866 A1 1 0 1 1 7.768,17.134 L8,17.268 L8,17 A1 1 0 0 1 9,16 M14,11 A1 1 0 0 1 15,12 L15,12.268 L15.232,12.134 A1 1 0 1 1 16.232,13.866 L16,14 L16.232,14.134 A1 1 0 0 1 15.232,15.866 L15,15.732 L15,16 A1 1 0 1 1 13,16 L13,15.732 L12.768,15.866 A1 1 0 1 1 11.768,14.134 L12,14 L11.768,13.866 A1 1 0 1 1 12.768,12.134 L13,12.268 L13,12 A1 1 0 0 1 14,11 M11.5,2 A6.502 6.502 0 0 1 17.586,6.212 A6.002 6.002 0 0 1 19.6,16.799 A1 1 0 0 1 18.399,15.201 A4.001 4.001 0 0 0 16.649,8.053 A1 1 0 0 1 15.845,7.326 A4.5 4.5 0 0 0 7.028,9.006 A1 1 0 0 1 6.274,10.088 A3.002 3.002 0 0 0 5.014,15.25 A1 1 0 1 1 3.691,16.75 A5 5 0 0 1 5,8.416 A6.5 6.5 0 0 1 11.5,2"/>
</svg>

