<svg xmlns="http://www.w3.org/2000/svg" width="24" height="24">
  <defs/>
  <path  d="M12,2 C17.523,2 22,6.477 22,12 C22,17.523 17.523,22 12,22 C6.477,22 2,17.523 2,12 C2,6.477 6.477,2 12,2 Z M6.291,6.395 C4.82,7.889 3.997,9.903 4,12 L10,8.536 Z M10,15.464 L10,19.748 C10.653,19.916 11.325,20.001 12,20 C13.458,20 14.824,19.61 16.001,18.929 L10.001,15.464 Z M12,4 C10.542,4 9.176,4.39 7.999,5.071 L14,8.536 L14,4.252 C13.347,4.084 12.675,3.999 12,4 Z M20,12 L14,15.464 L17.708,17.605 C19.104,16.187 19.919,14.298 19.994,12.31 Z M16,5.07 L16,12 L19.71,9.858 C19.147,7.838 17.815,6.12 16,5.07 Z M8,12 L4.29,14.142 C4.826,16.063 6.058,17.716 7.747,18.777 L8,18.93 Z M11.99,9.684 L9.99,10.852 L10,13.167 L12.01,14.316 L14.01,13.148 L14,10.833 Z"/>
</svg>

