<svg xmlns="http://www.w3.org/2000/svg" width="24" height="24">
  <defs/>
  <path  d="M12,8.536 L15,10.268 L15,13.732 L12,15.464 L9,13.732 L9,10.268 Z M22,12 C22.003,14.693 20.917,17.273 18.988,19.153 L18.761,19.368 L14,16.618 Z M5.239,4.632 L10,7.382 L2,12 L2.006,11.665 C2.089,9.089 3.166,6.646 5.012,4.847 Z M9,16.042 L17.002,20.662 C15.482,21.541 13.756,22.003 12,22 C11.085,22 10.2,21.877 9.358,21.647 L9,21.542 Z M12,2 C12.915,2 13.8,2.123 14.642,2.353 L15,2.458 L15,7.958 L6.998,3.338 C8.518,2.459 10.244,1.997 12,2 Z M7,11.422 L7,20.662 C4.673,19.317 2.985,17.093 2.313,14.491 L2.237,14.173 Z M17,3.338 C19.426,4.74 21.153,7.094 21.763,9.828 L17,12.577 Z"/>
</svg>

