<svg xmlns="http://www.w3.org/2000/svg" width="24" height="24">
  <defs/>
  <path  d="M2,12 C2,6.477 6.477,2 12,2 C17.523,2 22,6.477 22,12 C22,17.523 17.523,22 12,22 C6.477,22 2,17.523 2,12 Z M12,4 C9.525,3.999 7.19,5.144 5.674,7.1 C4.158,9.056 3.633,11.604 4.252,14 L7,14 L7,8 C7,7.552 7.297,7.159 7.728,7.037 C8.158,6.915 8.618,7.095 8.852,7.476 L12,12.592 L15.148,7.476 C15.382,7.095 15.842,6.915 16.272,7.037 C16.703,7.159 17,7.552 17,8 L17,14 L19.748,14 C20.367,11.604 19.842,9.056 18.326,7.1 C16.81,5.144 14.475,3.999 12,4 Z M18.93,16 L16,16 C15.448,16 15,15.552 15,15 L15,11.533 L12.852,15.024 C12.67,15.32 12.347,15.5 12,15.5 C11.653,15.5 11.33,15.32 11.148,15.024 L9,11.533 L9,15 C9,15.552 8.552,16 8,16 L5.07,16 C6.499,18.476 9.141,20.001 12,20 C14.859,20.001 17.501,18.476 18.93,16 Z"/>
</svg>

