<svg xmlns="http://www.w3.org/2000/svg" width="24" height="24">
  <defs/>
  <path  d="M15,11.533 L15,15 A1 1 0 0 0 15.883,15.993 L16,16 L21.168,16 A10.002 10.002 0 0 1 12,22 A10.001 10.001 0 0 1 2.952,16.263 L2.832,16 L8,16 A1 1 0 0 0 8.993,15.117 L9,15 L9,11.533 L11.148,15.024 A1 1 0 0 0 12.778,15.129 L12.852,15.024 Z M12,2 C17.523,2 22,6.477 22,12 C22,12.548 21.956,13.086 21.871,13.61 L21.8,14 L17,14 L17,8 A1 1 0 0 0 15.218,7.377 L15.148,7.476 L12,12.592 L8.852,7.476 A1 1 0 0 0 7.007,7.879 L7,8 L7,14 L2.2,14 C2.069,13.354 2,12.685 2,12 C2,6.477 6.477,2 12,2"/>
</svg>

