<svg xmlns="http://www.w3.org/2000/svg" width="24" height="24">
  <defs/>
  <path  d="M19.66,4.216 C20.867,4.022 22,4.944 22,6.2 L22,15.8 C22,17.056 20.868,17.978 19.66,17.785 C17.457,17.428 15.231,17.224 13,17.173 L13,18.535 C13.713,18.584 14.38,18.675 14.914,18.764 C15.36,18.838 15.804,18.921 16.242,19.03 C16.778,19.164 17.104,19.707 16.97,20.243 C16.828,20.78 16.28,21.103 15.742,20.966 C15.359,20.876 14.973,20.801 14.586,20.736 C13.732,20.588 12.867,20.51 12,20.5 C11.076,20.5 10.135,20.616 9.414,20.736 C9.027,20.801 8.641,20.876 8.258,20.966 C7.72,21.103 7.172,20.78 7.03,20.243 C6.905,19.708 7.229,19.17 7.76,19.029 C8.198,18.924 8.641,18.835 9.086,18.764 C9.62,18.674 10.286,18.584 11,18.535 L11,17.173 C8.769,17.224 6.543,17.428 4.34,17.785 C3.133,17.978 2,17.055 2,15.8 L2,6.2 C2,4.944 3.132,4.022 4.34,4.216 C9.514,5.045 14.486,5.045 19.66,4.216 Z"/>
</svg>

