<svg xmlns="http://www.w3.org/2000/svg" width="24" height="24">
  <defs/>
  <path  d="M19.66,4.216 C20.867,4.022 22,4.944 22,6.2 L22,15.8 C22,17.056 20.868,17.978 19.66,17.785 C17.457,17.428 15.231,17.224 13,17.173 L13,18.535 C13.713,18.584 14.38,18.675 14.914,18.764 C15.356,18.837 15.798,18.921 16.234,19.028 C16.76,19.158 17.102,19.713 16.97,20.243 C16.836,20.778 16.293,21.104 15.758,20.97 C15.37,20.878 14.979,20.8 14.586,20.737 C13.732,20.589 12.867,20.51 12,20.5 C11.076,20.5 10.135,20.616 9.414,20.736 C9.022,20.802 8.629,20.875 8.243,20.97 C7.709,21.1 7.17,20.774 7.037,20.241 C6.903,19.708 7.225,19.167 7.757,19.03 C8.196,18.924 8.64,18.835 9.086,18.764 C9.62,18.674 10.286,18.584 11,18.535 L11,17.173 C8.769,17.224 6.543,17.428 4.34,17.785 C3.133,17.978 2,17.055 2,15.8 L2,6.2 C2,4.944 3.132,4.022 4.34,4.216 C9.514,5.045 14.486,5.045 19.66,4.216 Z M19.983,6.19 L19.976,6.19 C14.694,7.053 9.306,7.053 4.024,6.19 L4.013,6.19 C4.009,6.191 4.006,6.193 4.003,6.196 L4,6.2 L4,15.8 L4.003,15.804 C4.006,15.806 4.009,15.808 4.013,15.809 L4.017,15.81 L4.024,15.81 C9.306,14.947 14.694,14.947 19.976,15.81 L19.987,15.81 C19.991,15.809 19.994,15.807 19.997,15.804 L20,15.801 L20,6.2 L19.997,6.196 C19.994,6.194 19.991,6.192 19.987,6.191 Z"/>
</svg>

