<svg xmlns="http://www.w3.org/2000/svg" width="24" height="24">
  <defs/>
  <path  d="M16,17 L17.75,17 C18.44,17 19,17.56 19,18.25 L19,20 L20,20 C20.552,20 21,20.448 21,21 C21,21.552 20.552,22 20,22 L4,22 C3.448,22 3,21.552 3,21 C3,20.448 3.448,20 4,20 L5,20 L5,18.25 C5,17.56 5.56,17 6.25,17 L8,17 L8,5.236 L7.112,3.46 C6.965,3.167 6.97,2.821 7.125,2.532 C7.279,2.243 7.565,2.047 7.89,2.006 L11.845,1.512 C11.948,1.499 12.052,1.499 12.155,1.512 L16.11,2.006 C16.435,2.047 16.721,2.243 16.875,2.532 C17.03,2.821 17.035,3.167 16.888,3.46 L16,5.236 Z M12,3.508 L9.527,3.817 L9.789,4.342 C9.928,4.62 10,4.926 10,5.236 L10,17 L14,17 L14,5.236 C14,4.926 14.072,4.62 14.211,4.342 L14.473,3.817 Z M17,20 L17,19 L7,19 L7,20 Z"/>
</svg>

