<svg xmlns="http://www.w3.org/2000/svg" width="24" height="24">
  <defs/>
  <path  d="M12.477,4.546 A1.01 1.01 0 0 1 13.574,3.137 A9 9 0 1 1 3.137,13.574 A1.01 1.01 0 0 1 4.546,12.477 A6 6 0 0 0 12.477,4.546 M5.565,7.716 L5.629,7.856 A3.26 3.26 0 0 0 6.866,9.219 L6.966,9.278 A0.068 0.068 0 0 1 6.966,9.396 L6.866,9.454 A3.26 3.26 0 0 0 5.629,10.818 L5.565,10.958 A0.071 0.071 0 0 1 5.435,10.958 L5.371,10.818 A3.26 3.26 0 0 0 4.134,9.454 L4.034,9.396 A0.068 0.068 0 0 1 4.034,9.278 L4.134,9.219 A3.26 3.26 0 0 0 5.37,7.855 L5.434,7.715 A0.071 0.071 0 0 1 5.564,7.715 Z M8.397,2.857 C8.437,2.767 8.563,2.767 8.603,2.857 L8.705,3.079 A5.189 5.189 0 0 0 10.675,5.251 L10.832,5.343 A0.108 0.108 0 0 1 10.832,5.532 L10.674,5.624 A5.189 5.189 0 0 0 8.604,8.018 A0.113 0.113 0 0 1 8.397,8.018 L8.295,7.796 A5.189 5.189 0 0 0 6.325,5.624 L6.167,5.532 A0.108 0.108 0 0 1 6.167,5.343 L6.325,5.251 A5.189 5.189 0 0 0 8.295,3.079 Z"/>
</svg>

