<svg xmlns="http://www.w3.org/2000/svg" width="24" height="24">
  <defs/>
  <path  d="M14.902,4.67 L14.799,4.421 C14.464,3.675 15.105,2.876 15.894,3.015 C18.321,3.446 20.374,5.057 21.37,7.312 C22.366,9.567 22.174,12.17 20.858,14.254 C21.229,15.851 20.869,17.53 19.876,18.834 C18.882,20.138 17.359,20.93 15.721,20.996 L15.5,21 L6.5,21 C4.306,21.002 2.43,19.421 2.06,17.258 C1.69,15.095 2.934,12.981 5.005,12.254 C4.902,9.837 6.261,7.595 8.452,6.567 C10.642,5.54 13.235,5.929 15.028,7.553 C15.296,6.603 15.252,5.593 14.902,4.67 Z M11,8 C9.844,8 8.744,8.5 7.984,9.372 C7.225,10.243 6.879,11.401 7.037,12.546 L7.082,12.81 C7.139,13.088 7.077,13.376 6.911,13.606 C6.745,13.836 6.49,13.985 6.208,14.017 C4.923,14.167 3.965,15.272 3.998,16.564 C4.031,17.857 5.045,18.912 6.336,18.995 L6.5,19 L15.5,19 C17.374,19.004 18.918,17.532 19.004,15.66 C19.089,13.789 17.686,12.181 15.82,12.014 C15.375,11.973 15.01,11.645 14.922,11.207 C14.544,9.341 12.904,8 11,8 Z M17.157,5.545 C17.314,6.882 17.056,8.235 16.419,9.421 C16.528,9.651 16.623,9.888 16.703,10.132 C17.89,10.398 18.956,11.051 19.733,11.987 C19.906,11.457 20,10.891 20,10.303 C20.001,8.315 18.908,6.487 17.157,5.545 Z"/>
</svg>

