<svg xmlns="http://www.w3.org/2000/svg" width="24" height="24">
  <defs/>
  <path  d="M13.44,2.13 L13.441,2.129 C15.888,2.577 17.988,4.137 19.122,6.351 C20.257,8.565 20.297,11.181 19.231,13.429 C18.994,13.928 18.397,14.14 17.899,13.903 C17.4,13.667 17.187,13.07 17.424,12.571 C18.785,9.7 17.673,6.266 14.887,4.739 C15.304,7.015 14.57,9.35 12.925,10.977 C11.281,12.605 8.938,13.314 6.667,12.873 C6.731,13.361 6.429,13.823 5.957,13.962 C5.484,14.1 4.981,13.874 4.771,13.429 C4.471,12.797 4.255,12.128 4.13,11.44 C4.061,11.061 4.217,10.676 4.53,10.45 C4.842,10.225 5.257,10.2 5.595,10.385 C7.544,11.456 9.966,11.111 11.539,9.539 C13.111,7.966 13.456,5.544 12.385,3.595 C12.2,3.257 12.225,2.842 12.45,2.53 C12.676,2.217 13.061,2.061 13.44,2.13 Z M3,16 C3,15.448 3.448,15 4,15 L20,15 C20.552,15 21,15.448 21,16 C21,16.552 20.552,17 20,17 L4,17 C3.448,17 3,16.552 3,16 Z M6,20 C6,19.448 6.448,19 7,19 L17,19 C17.552,19 18,19.448 18,20 C18,20.552 17.552,21 17,21 L7,21 C6.448,21 6,20.552 6,20 Z"/>
</svg>

