<svg xmlns="http://www.w3.org/2000/svg" width="24" height="24">
  <defs/>
  <path  d="M13.574,3.137 C17.794,3.882 21,7.566 21,12 C21.005,16.668 17.44,20.565 12.79,20.975 C8.14,21.385 3.948,18.171 3.137,13.574 C3.072,13.205 3.216,12.831 3.511,12.601 C3.806,12.371 4.205,12.323 4.546,12.477 C6.818,13.497 9.485,13.007 11.246,11.246 C13.007,9.485 13.497,6.818 12.477,4.546 C12.323,4.205 12.371,3.806 12.601,3.511 C12.831,3.216 13.205,3.072 13.574,3.137 Z M18.841,13.472 C19.535,10.248 17.886,6.977 14.881,5.618 C15.332,8.187 14.502,10.813 12.658,12.657 C10.814,14.502 8.187,15.331 5.618,14.88 C6.751,17.388 9.248,19 12,19 C15.298,18.998 18.147,16.695 18.841,13.472 Z"/>
</svg>

