<svg xmlns="http://www.w3.org/2000/svg" width="24" height="24">
  <defs/>
  <path  d="M12.477,4.546 C12.323,4.205 12.371,3.806 12.601,3.511 C12.831,3.216 13.205,3.072 13.574,3.137 C18.171,3.948 21.385,8.14 20.975,12.79 C20.565,17.44 16.668,21.005 12,21 C7.566,21 3.882,17.794 3.137,13.574 C3.072,13.205 3.216,12.831 3.511,12.601 C3.806,12.371 4.205,12.323 4.546,12.477 C6.818,13.497 9.485,13.007 11.246,11.246 C13.007,9.485 13.497,6.818 12.477,4.546 Z M12.658,12.658 C10.814,14.503 8.187,15.332 5.618,14.881 C6.977,17.886 10.248,19.535 13.471,18.841 C16.695,18.147 18.998,15.298 19,12.001 C19.001,9.249 17.389,6.752 14.881,5.618 C15.332,8.187 14.502,10.814 12.658,12.658 Z M8.397,2.857 C8.437,2.767 8.563,2.767 8.603,2.857 L8.705,3.079 C9.139,3.977 9.823,4.731 10.675,5.251 L10.832,5.343 C10.866,5.362 10.888,5.398 10.888,5.438 C10.888,5.477 10.866,5.513 10.832,5.532 L10.674,5.624 C9.752,6.187 9.028,7.024 8.604,8.018 C8.586,8.059 8.545,8.086 8.5,8.086 C8.456,8.086 8.415,8.059 8.397,8.018 L8.295,7.796 C7.861,6.898 7.177,6.144 6.325,5.624 L6.167,5.532 C6.133,5.513 6.111,5.477 6.111,5.438 C6.111,5.398 6.133,5.362 6.167,5.343 L6.325,5.251 C7.177,4.731 7.861,3.977 8.295,3.079 Z M5.565,7.716 L5.629,7.856 C5.902,8.42 6.331,8.893 6.866,9.219 L6.966,9.278 C6.987,9.29 7,9.313 7,9.337 C7,9.361 6.987,9.384 6.966,9.396 L6.866,9.454 C6.331,9.78 5.902,10.254 5.629,10.818 L5.565,10.958 C5.554,10.984 5.528,11 5.5,11 C5.472,11 5.446,10.984 5.435,10.958 L5.371,10.818 C5.098,10.254 4.669,9.78 4.134,9.454 L4.034,9.396 C4.013,9.384 4,9.361 4,9.337 C4,9.313 4.013,9.29 4.034,9.278 L4.134,9.219 C4.668,8.893 5.098,8.419 5.37,7.855 L5.434,7.715 C5.445,7.689 5.471,7.673 5.499,7.673 C5.527,7.673 5.553,7.689 5.564,7.715 Z"/>
</svg>

