<svg xmlns="http://www.w3.org/2000/svg" width="24" height="24">
  <defs/>
  <path  d="M12,2 A1 1 0 0 1 12.993,2.883 L13,3.01 A1 1 0 0 1 11.007,3.127 L11,3 A1 1 0 0 1 12,2 M17.65,17.65 A1 1 0 0 1 18.97,17.567 L19.071,17.657 A1 1 0 0 1 17.751,19.154 L17.657,19.071 A1.002 1.002 0 0 1 17.65,17.65 M4.936,17.65 A1 1 0 0 1 6.433,18.97 L6.35,19.064 A1 1 0 0 1 4.846,17.751 Z M10.753,5.11 A1 1 0 0 1 11.743,6.676 A4 4 0 0 0 17.323,12.256 A1 1 0 0 1 18.889,13.246 A7.002 7.002 0 0 1 5,12 C5,8.56 7.482,5.7 10.753,5.111 Z M17.385,9.166 A1 1 0 0 1 18.648,9.802 C18.697,9.949 18.741,10.099 18.779,10.25 A1 1 0 1 1 16.843,10.748 A4.936 4.936 0 0 0 16.749,10.429 A1 1 0 0 1 17.385,9.166 M15.199,6.825 A1 1 0 0 1 16.609,6.731 C16.843,6.936 17.063,7.156 17.268,7.39 A1 1 0 1 1 15.763,8.707 A5.024 5.024 0 0 0 15.293,8.236 A1 1 0 0 1 15.199,6.825 M12.532,5.939 A1 1 0 0 1 13.749,5.219 C13.901,5.259 14.049,5.303 14.197,5.351 A1 1 0 1 1 13.57,7.251 A4.95 4.95 0 0 0 13.25,7.157 A1 1 0 0 1 12.532,5.939 M4.929,4.93 A1 1 0 0 1 6.249,4.846 L6.343,4.929 A1 1 0 0 1 5.03,6.433 L4.936,6.35 A1.002 1.002 0 0 1 4.929,4.93 M17.657,4.93 A1 1 0 0 1 19.154,6.25 L19.064,6.35 A1 1 0 0 1 17.567,5.03 Z M22,12 A1 1 0 0 1 21.117,12.993 L20.99,13 A1 1 0 0 1 20.873,11.007 L21,11 A1 1 0 0 1 22,12 M12,19.99 A1 1 0 0 1 12.993,20.874 L13,21 A1 1 0 0 1 11.007,21.117 L11,20.99 A1 1 0 0 1 12,19.99 M4.01,12 A1 1 0 0 1 3.127,12.993 L3,13 A1 1 0 0 1 2.883,11.007 L3.01,11 A1 1 0 0 1 4.01,12"/>
</svg>

