<svg xmlns="http://www.w3.org/2000/svg" width="24" height="24">
  <defs/>
  <path  d="M12,2 C17.523,2 22,6.477 22,12 C22,17.523 17.523,22 12,22 C6.477,22 2,17.523 2,12 C2,6.477 6.477,2 12,2 Z M7.5,10.5 C6.672,10.5 6,11.172 6,12 C6,12.828 6.672,13.5 7.5,13.5 C8.328,13.5 9,12.828 9,12 C9,11.172 8.328,10.5 7.5,10.5 Z M12,10.5 C11.172,10.5 10.5,11.172 10.5,12 C10.5,12.828 11.172,13.5 12,13.5 C12.828,13.5 13.5,12.828 13.5,12 C13.5,11.172 12.828,10.5 12,10.5 Z M16.5,10.5 C15.672,10.5 15,11.172 15,12 C15,12.828 15.672,13.5 16.5,13.5 C17.328,13.5 18,12.828 18,12 C18,11.172 17.328,10.5 16.5,10.5 Z"/>
</svg>

