<svg xmlns="http://www.w3.org/2000/svg" width="24" height="24">
  <defs/>
  <path  d="M12,2 C17.523,2 22,6.477 22,12 C22,17.523 17.523,22 12,22 C6.477,22 2,17.523 2,12 C2,6.477 6.477,2 12,2 Z M12,6 C11.172,6 10.5,6.672 10.5,7.5 C10.5,8.328 11.172,9 12,9 C12.828,9 13.5,8.328 13.5,7.5 C13.5,6.672 12.828,6 12,6 Z M12,10.5 C11.172,10.5 10.5,11.172 10.5,12 C10.5,12.828 11.172,13.5 12,13.5 C12.828,13.5 13.5,12.828 13.5,12 C13.5,11.172 12.828,10.5 12,10.5 Z M12,15 C11.172,15 10.5,15.672 10.5,16.5 C10.5,17.328 11.172,18 12,18 C12.828,18 13.5,17.328 13.5,16.5 C13.5,15.672 12.828,15 12,15 Z"/>
</svg>

