<svg xmlns="http://www.w3.org/2000/svg" width="24" height="24">
  <defs/>
  <path  d="M2.278,8.994 C1.894,8.812 1.649,8.425 1.649,8 C1.649,7.575 1.894,7.188 2.278,7.006 L11.358,2.712 C11.764,2.52 12.235,2.52 12.641,2.712 L21.721,7.006 C22.455,7.352 22.548,8.308 22,8.809 L22,13 C22,13.552 21.552,14 21,14 C20.448,14 20,13.552 20,13 L20,9.81 L19,10.283 L19,14 C19,17.866 15.866,21 12,21 C8.134,21 5,17.866 5,14 L5,10.281 Z M11.359,13.288 L7,11.228 L7,14 C7,16.761 9.239,19 12,19 C14.761,19 17,16.761 17,14 L17,11.227 L12.641,13.288 C12.235,13.48 11.765,13.48 11.359,13.288 Z M17,9 L17.031,9 L19.146,8 L12,4.62 L4.854,8 L6.969,9 L7,9 L7,9.015 L12,11.379 L17,9.015 Z"/>
</svg>

