<svg xmlns="http://www.w3.org/2000/svg" width="24" height="24">
  <defs/>
  <path  d="M3.788,17.291 L3.788,17.292 C4.336,16.255 4.865,15.208 5.375,14.152 C6.609,11.593 8.029,8.344 8.837,5.482 C9.079,4.624 9.859,4 10.781,4 C10.804,4 10.827,4 10.85,4 C10.981,3.999 11.114,3.998 11.242,4.03 L12,4.22 L12.759,4.03 C12.888,3.998 13.02,3.999 13.152,4 C13.174,4 13.197,4 13.22,4 C14.126,4.004 14.92,4.609 15.163,5.482 C15.971,8.343 17.39,11.593 18.625,14.153 C19.134,15.209 19.663,16.255 20.211,17.291 C20.361,17.572 20.488,17.811 20.591,18.001 L21,18.001 C21.552,18.001 22,18.449 22,19.001 C22,19.553 21.552,20.001 21,20.001 L3,20.001 C2.448,20.001 2,19.553 2,19.001 C2,18.449 2.448,18.001 3,18.001 L3.408,18.001 C3.512,17.811 3.64,17.572 3.788,17.291 Z M15.059,11.116 L14.893,11.447 C14.749,11.734 14.476,11.935 14.159,11.987 C13.842,12.038 13.519,11.934 13.292,11.707 L12.273,10.688 L11.893,11.448 C11.749,11.735 11.476,11.936 11.159,11.988 C10.842,12.039 10.519,11.935 10.292,11.708 L9.162,10.577 C8.546,12.079 7.884,13.561 7.176,15.022 C6.693,16.023 6.193,17.016 5.676,18 L18.324,18 C17.807,17.016 17.307,16.023 16.824,15.021 C16.202,13.735 15.613,12.433 15.06,11.116 Z M10.762,6.026 C10.521,6.872 10.249,7.709 9.949,8.536 L10.726,9.313 L11.106,8.554 C11.25,8.267 11.523,8.066 11.84,8.014 C12.157,7.963 12.48,8.067 12.707,8.294 L13.726,9.313 L14.078,8.609 C13.767,7.758 13.487,6.897 13.238,6.026 C13.236,6.015 13.229,6.006 13.22,6 L13.123,6 L12.243,6.22 C12.083,6.26 11.917,6.26 11.757,6.22 L10.877,6 L10.781,6 C10.78,6 10.766,6.008 10.761,6.025 Z"/>
</svg>

