<svg xmlns="http://www.w3.org/2000/svg" width="24" height="24">
  <defs/>
  <path  d="M8.701,5.75 C9.278,4.75 10.721,4.75 11.299,5.75 L14.799,11.812 L15.701,10.25 C16.278,9.25 17.721,9.25 18.299,10.25 L22.629,17.75 C22.897,18.214 22.897,18.786 22.629,19.25 C22.361,19.714 21.866,20 21.33,20 L17,20 L17,19.998 C16.976,19.999 16.952,20 16.928,20 L3.072,20 C2.536,20 2.04,19.715 1.772,19.25 C1.504,18.786 1.504,18.214 1.772,17.75 Z M7.791,11.326 L8.5,11.798 L9.445,11.168 C9.781,10.944 10.219,10.944 10.555,11.168 L11.5,11.798 L12.209,11.326 L10,7.5 Z"/>
</svg>

