<svg xmlns="http://www.w3.org/2000/svg" width="24" height="24">
  <defs/>
  <path  d="M11.3,5.75 L14.799,11.812 L15.701,10.25 C16.278,9.25 17.721,9.25 18.299,10.25 L22.629,17.75 C22.897,18.214 22.897,18.786 22.629,19.25 C22.361,19.714 21.866,20 21.33,20 L17,20 L17,19.998 L16.928,20 L3.072,20 C2.536,20 2.04,19.715 1.772,19.25 C1.504,18.786 1.504,18.214 1.772,17.75 L8.701,5.75 C9.278,4.75 10.721,4.75 11.299,5.75 Z M10,12.202 L9.055,12.832 L8.939,12.898 C8.662,13.033 8.338,13.033 8.061,12.898 L7.945,12.832 L7.206,12.339 L3.938,18 L16.062,18 L12.794,12.34 L12.054,12.832 L11.939,12.898 C11.662,13.033 11.338,13.033 11.061,12.898 L10.945,12.832 Z M17,12 L15.954,13.812 L18.227,17.75 L18.292,17.874 L18.343,18 L20.464,18 Z M10,7.5 L8.208,10.604 L8.5,10.798 L9.445,10.168 C9.781,9.944 10.219,9.944 10.555,10.168 L11.5,10.798 L11.792,10.604 Z"/>
</svg>

