<svg xmlns="http://www.w3.org/2000/svg" width="24" height="24">
  <defs/>
  <path  d="M3.788,17.29 L3.789,17.292 C4.337,16.255 4.866,15.208 5.376,14.152 C6.61,11.593 8.03,8.344 8.838,5.481 C9.08,4.624 9.86,4 10.781,4 C11.205,4 11.591,4.117 12.001,4.22 C12.41,4.117 12.797,4 13.22,4 C14.126,4.003 14.92,4.608 15.163,5.481 C15.971,8.343 17.39,11.592 18.625,14.151 C19.134,15.207 19.663,16.254 20.211,17.29 C20.361,17.571 20.488,17.809 20.591,17.999 L21,17.999 C21.552,17.999 22,18.447 22,18.999 C22,19.551 21.552,19.999 21,19.999 L3,19.999 C2.448,19.999 2,19.551 2,18.999 C2,18.447 2.448,17.999 3,17.999 L3.408,17.999 C3.512,17.81 3.64,17.571 3.788,17.29 Z M10.762,6.025 C10.447,7.12 10.086,8.201 9.678,9.265 C10.04,9.599 10.378,9.964 10.726,10.312 L11.106,9.552 C11.25,9.265 11.523,9.064 11.84,9.012 C12.157,8.961 12.48,9.065 12.707,9.292 L13.726,10.312 L14.106,9.552 C14.16,9.444 14.233,9.347 14.322,9.265 C13.914,8.201 13.553,7.12 13.238,6.025 C13.229,5.99 13.184,5.994 13.149,5.998 C13.139,5.999 13.13,6 13.123,6 L12.243,6.22 C12.083,6.26 11.917,6.26 11.757,6.22 L10.877,6 C10.869,6 10.859,5.999 10.848,5.997 C10.813,5.993 10.772,5.988 10.762,6.025 Z"/>
</svg>

