<svg xmlns="http://www.w3.org/2000/svg" width="24" height="24">
  <defs/>
  <path  d="M20.314,8.038 C21.206,8.65 23,9.723 23,11 C23,12.512 21.102,14.083 20.086,14.95 C18.27,16.496 15.549,18 12,18 C8.451,18 5.73,16.496 3.914,14.948 C2.937,14.116 1,12.451 1,11 C1,9.684 2.763,8.67 3.686,8.038 C5.093,7.073 7.058,6.078 9.073,6.002 C9.879,5.971 10.556,6.307 11.241,6.647 C11.432,6.744 11.626,6.837 11.821,6.927 C11.976,6.996 12.024,6.996 12.179,6.927 C12.375,6.838 12.568,6.743 12.76,6.647 C13.445,6.307 14.121,5.972 14.927,6.002 C16.942,6.078 18.907,7.073 20.314,8.038 Z M12,13 C15.153,13 18.182,12.51 21,11.609 C19.489,11.203 17.931,10.998 16.367,11 C14.855,11 13.39,11.188 12,11.54 C10.572,11.18 9.105,10.999 7.633,11 C6.024,11 4.469,11.213 3,11.609 C5.91,12.535 8.946,13.005 12,13 Z"/>
</svg>

