<svg xmlns="http://www.w3.org/2000/svg" width="24" height="24">
  <defs/>
  <path  d="M14.927,6.002 C16.83,6.074 18.689,6.965 20.075,7.877 L20.874,8.416 L21.191,8.636 L21.515,8.876 C22.274,9.457 23,10.188 23,11 C23,12.07 22.048,13.172 21.131,14.03 L20.811,14.323 L20.503,14.593 L20.086,14.948 C18.27,16.496 15.549,18 12,18 C8.578,18 5.925,16.601 4.112,15.115 L3.787,14.841 L3.359,14.469 L3.046,14.185 C2.09,13.298 1,12.09 1,11.001 C1,10.222 1.616,9.551 2.31,9 L2.634,8.755 C2.688,8.715 2.742,8.677 2.796,8.639 L3.115,8.42 L3.685,8.038 C5.093,7.073 7.058,6.078 9.073,6.002 C9.718,5.978 10.28,6.188 10.829,6.447 L11.24,6.647 C11.432,6.743 11.625,6.838 11.821,6.927 C11.976,6.996 12.024,6.996 12.179,6.927 L12.471,6.79 L13.171,6.447 C13.721,6.187 14.281,5.977 14.927,6.002 Z M14.851,8 C14.461,7.985 14.078,8.166 13.71,8.368 L13.347,8.572 C13.233,8.636 13.116,8.696 12.997,8.751 C12.755,8.859 12.395,9.001 12,9.001 C11.605,9.001 11.245,8.859 11.003,8.751 C10.882,8.695 10.764,8.635 10.649,8.569 L10.289,8.366 C9.924,8.164 9.546,7.985 9.149,8 C7.237,8.072 5.407,9.142 3.955,10.332 C5.818,11.082 8.845,11.499 12,11.499 C15.155,11.499 18.182,11.082 20.045,10.332 C18.593,9.142 16.763,8.072 14.851,8 Z M19.699,12.565 C17.537,13.205 14.723,13.5 12,13.5 C9.277,13.5 6.463,13.205 4.301,12.565 C6.301,14.673 9.067,16 12,16 C14.933,16 17.699,14.673 19.7,12.565 Z"/>
</svg>

