<svg xmlns="http://www.w3.org/2000/svg" width="24" height="24">
  <defs/>
  <path  d="M8.464,6.707 A1 1 0 0 1 8.464,5.293 L11.222,2.535 A1.1 1.1 0 0 1 12.778,2.535 L15.535,5.293 A1 1 0 1 1 14.121,6.707 L13,5.586 L13,11 L18.414,11 L17.293,9.879 A1 1 0 0 1 18.707,8.464 L21.465,11.222 A1.1 1.1 0 0 1 21.465,12.778 L18.707,15.536 A1 1 0 0 1 17.293,14.121 L18.414,13 L13,13 L13,18.414 L14.121,17.293 A1 1 0 0 1 15.535,18.707 L12.778,21.465 A1.1 1.1 0 0 1 11.222,21.465 L8.464,18.707 A1 1 0 1 1 9.879,17.293 L10.999,18.414 L10.999,13 L5.587,13 L6.708,14.121 A1 1 0 1 1 5.294,15.536 L2.536,12.778 A1.1 1.1 0 0 1 2.536,11.222 L5.294,8.464 A1 1 0 0 1 6.707,9.88 L5.586,11 L11,11 L11,5.587 L9.879,6.707 A1 1 0 0 1 8.464,6.707 Z"/>
</svg>

