<svg xmlns="http://www.w3.org/2000/svg" width="24" height="24">
  <defs/>
  <path  d="M8.11,7.06 A1.5 1.5 0 0 1 8.11,4.94 L10.868,2.182 A1.6 1.6 0 0 1 13.131,2.182 L15.889,4.939 A1.5 1.5 0 1 1 13.768,7.061 L13.5,6.793 L13.5,10.5 L17.207,10.5 L16.939,10.232 A1.5 1.5 0 0 1 19.061,8.111 L21.818,10.869 A1.6 1.6 0 0 1 21.818,13.131 L19.061,15.889 A1.5 1.5 0 0 1 16.939,13.768 L17.207,13.5 L13.5,13.5 L13.5,17.207 L13.768,16.939 A1.5 1.5 0 0 1 15.889,19.061 L13.131,21.818 A1.6 1.6 0 0 1 10.868,21.818 L8.111,19.061 A1.5 1.5 0 0 1 10.232,16.939 L10.5,17.207 L10.5,13.5 L6.793,13.5 L7.061,13.768 A1.5 1.5 0 1 1 4.939,15.889 L2.182,13.131 A1.6 1.6 0 0 1 2.182,10.869 L4.939,8.11 A1.5 1.5 0 1 1 7.061,10.231 L6.793,10.499 L10.5,10.499 L10.5,6.793 L10.232,7.061 A1.5 1.5 0 0 1 8.111,7.061 Z"/>
</svg>

