<svg xmlns="http://www.w3.org/2000/svg" width="24" height="24">
  <defs/>
  <path  d="M20,2 C21.105,2 22,2.895 22,4 L22,16 C22,17.105 21.105,18 20,18 L17,18 L17,20 C17,21.105 16.105,22 15,22 L4,22 C2.895,22 2,21.105 2,20 L2,9 C2,7.895 2.895,7 4,7 L6,7 L6,4 C6,2.895 6.895,2 8,2 Z M6,9 L4,9 L4,20 L15,20 L15,18 L8,18 C6.895,18 6,17.105 6,16 Z M17.89,7.232 C17.534,6.876 16.968,6.84 16.57,7.149 L16.475,7.232 L12.939,10.768 L11.525,9.354 C11.152,8.982 10.553,8.964 10.158,9.312 C9.762,9.661 9.705,10.257 10.028,10.674 L10.111,10.768 L12.161,12.818 C12.555,13.213 13.183,13.25 13.621,12.904 L13.717,12.819 L17.889,8.647 C18.077,8.459 18.182,8.205 18.182,7.939 C18.182,7.674 18.077,7.42 17.889,7.232 Z"/>
</svg>

