<svg xmlns="http://www.w3.org/2000/svg" width="24" height="24">
  <defs/>
  <path  d="M12,2.657 C14.506,2.657 16.892,3.952 18.845,6.296 C19.551,7.153 20.211,8.047 20.823,8.973 C21.823,10.473 21.674,12.18 20.827,13.44 C19.991,14.684 18.478,15.496 16.753,15.347 C15.962,15.278 15.169,15.22 14.376,15.175 L15.233,18.175 C15.492,19.08 15.311,20.055 14.744,20.807 C14.177,21.558 13.29,22 12.348,22 L11.651,22 C10.71,22 9.823,21.558 9.256,20.806 C8.69,20.055 8.508,19.081 8.767,18.176 L9.624,15.175 C8.844,15.218 8.039,15.278 7.247,15.347 C5.522,15.497 4.009,14.684 3.173,13.44 C2.326,12.18 2.177,10.472 3.177,8.973 C3.789,8.047 4.449,7.153 5.155,6.296 C7.108,3.952 9.495,2.657 12,2.657 Z M12,4.857 C10.307,4.857 8.495,5.724 6.845,7.704 C6.189,8.501 5.576,9.332 5.007,10.194 C4.542,10.891 4.607,11.631 4.999,12.213 C5.401,12.811 6.151,13.233 7.057,13.155 C8.723,13.011 10.492,12.9 12,12.9 C13.508,12.9 15.277,13.011 16.943,13.155 C17.849,13.234 18.599,12.811 19.001,12.213 C19.392,11.631 19.458,10.891 18.993,10.193 C18.873,10.013 18.751,9.833 18.627,9.655 C17.222,10.281 15.582,10.046 14.409,9.05 C13.236,8.054 12.739,6.473 13.13,4.985 C12.759,4.9 12.38,4.857 12,4.857 Z M13.31,18.725 L12.275,15.101 L11.725,15.101 L10.69,18.725 C10.609,19.007 10.657,19.311 10.82,19.555 C10.983,19.799 11.244,19.959 11.536,19.993 L11.651,20 L12.348,20 C12.642,20 12.92,19.871 13.11,19.647 C13.3,19.424 13.383,19.128 13.335,18.838 Z M15.012,5.781 C14.942,6.411 15.176,7.037 15.641,7.468 C16.105,7.898 16.747,8.083 17.37,7.966 L17.155,7.704 C16.462,6.873 15.741,6.238 15.012,5.781 Z"/>
</svg>

