<svg xmlns="http://www.w3.org/2000/svg" width="24" height="24">
  <defs/>
  <path  d="M12,2.657 A7.39 7.39 0 0 1 14.317,3.033 A4 4 0 1 0 20.318,8.234 C20.491,8.481 20.659,8.727 20.823,8.973 C21.823,10.473 21.674,12.18 20.827,13.44 C19.991,14.684 18.478,15.496 16.753,15.347 A85.659 85.659 0 0 0 15.163,15.224 L14.376,15.174 L15.233,18.176 A3 3 0 0 1 12.528,21.995 L12.348,22 L11.651,22 A3 3 0 0 1 8.723,18.35 L8.767,18.176 L9.624,15.175 C8.844,15.218 8.039,15.278 7.247,15.347 C5.522,15.497 4.009,14.684 3.173,13.44 C2.326,12.18 2.177,10.472 3.177,8.973 A31.607 31.607 0 0 1 5.155,6.296 C7.108,3.952 9.495,2.657 12,2.657 M16.433,4.082 C17.288,4.657 18.098,5.4 18.845,6.296 L18.955,6.428 A2 2 0 1 1 16.433,4.082"/>
</svg>

