<svg xmlns="http://www.w3.org/2000/svg" width="24" height="24">
  <defs/>
  <path  d="M10.414,3.012 A1.5 1.5 0 0 1 9.5,4.926 A7.5 7.5 0 1 0 19.5,12 C19.5,10.8 19.22,9.67 18.721,8.668 A1.5 1.5 0 0 1 21.408,7.332 A10.463 10.463 0 0 1 22.5,12 C22.5,17.799 17.799,22.5 12,22.5 C6.201,22.5 1.5,17.799 1.5,12 C1.5,7.426 4.424,3.539 8.5,2.098 A1.5 1.5 0 0 1 10.414,3.012 M12.5,3.014 A1.51 1.51 0 0 1 14.36,1.544 L14.488,1.581 L17.474,2.577 A1.5 1.5 0 0 1 16.664,5.462 L16.526,5.423 L15.5,5.081 L15.5,12 L15.495,12.192 A3.5 3.5 0 1 1 12.335,8.516 L12.5,8.536 Z"/>
</svg>

