<svg xmlns="http://www.w3.org/2000/svg" width="24" height="24">
  <defs/>
  <path  d="M18.633,9.177 L14,10.72 L14,17.5 C14,19.564 12.595,21.363 10.593,21.865 C8.591,22.366 6.504,21.441 5.531,19.621 C4.558,17.8 4.949,15.552 6.478,14.165 C8.007,12.779 10.284,12.611 12,13.758 L12,6.442 C12,5.151 12.826,4.004 14.051,3.596 L18.026,2.271 C18.483,2.119 18.986,2.195 19.377,2.477 C19.768,2.759 20,3.212 20,3.694 L20,7.279 C20,8.14 19.45,8.905 18.633,9.177 Z M12,17.5 C12,16.119 10.881,15 9.5,15 C8.119,15 7,16.119 7,17.5 C7,18.881 8.119,20 9.5,20 C10.881,20 12,18.881 12,17.5 Z M14.683,5.493 L14.684,5.492 C14.275,5.628 13.999,6.011 14,6.442 L14,8.614 L18,7.28 L18,4.387 Z"/>
</svg>

