<svg xmlns="http://www.w3.org/2000/svg" width="24" height="24">
  <defs/>
  <path  d="M18.671,3.208 C19.251,3.111 19.844,3.275 20.292,3.654 C20.741,4.034 21,4.592 21,5.18 L21,17 C21,18.81 19.783,20.395 18.035,20.863 C16.286,21.331 14.441,20.567 13.536,18.999 C12.631,17.431 12.892,15.451 14.172,14.171 C15.452,12.89 17.432,12.63 19,13.535 L19,9.18 L9,10.847 L9,18 C9,18.06 8.995,18.117 8.985,18.174 C9.133,19.755 8.197,21.238 6.706,21.785 C5.215,22.332 3.543,21.807 2.632,20.506 C1.722,19.205 1.802,17.453 2.827,16.24 C3.852,15.027 5.565,14.656 7,15.337 L7,6.847 C7,5.869 7.707,5.035 8.671,4.874 Z M9,8.82 L19,7.153 L19,5.18 L9,6.847 Z"/>
</svg>

