<svg xmlns="http://www.w3.org/2000/svg" width="24" height="24">
  <defs/>
  <path  d="M19.026,2.27 C19.461,2.125 19.939,2.187 20.323,2.439 C20.707,2.691 20.954,3.105 20.994,3.562 L21,3.694 L21,7.279 C21,8.081 20.52,8.805 19.782,9.119 L19.632,9.176 L15,10.721 L15,17.5 L14.995,17.712 C14.899,19.73 13.471,21.437 11.501,21.886 C9.531,22.336 7.504,21.417 6.542,19.64 C5.581,17.864 5.921,15.664 7.375,14.261 C8.829,12.858 11.039,12.596 12.781,13.62 L13,13.758 L13,6.44 C13,5.216 13.744,4.115 14.88,3.658 L15.051,3.594 Z M7,1 C7.428,1 7.808,1.272 7.946,1.677 L8.076,2.055 C8.376,2.934 9.066,3.625 9.945,3.925 L10.323,4.054 C10.727,4.193 10.999,4.573 10.999,5 C10.999,5.427 10.727,5.807 10.323,5.946 L9.945,6.076 C9.066,6.376 8.375,7.066 8.075,7.945 L7.946,8.323 C7.807,8.727 7.427,8.999 7,8.999 C6.573,8.999 6.193,8.727 6.054,8.323 L5.924,7.945 C5.624,7.066 4.934,6.375 4.055,6.075 L3.677,5.946 C3.273,5.807 3.001,5.427 3.001,5 C3.001,4.573 3.273,4.193 3.677,4.054 L4.055,3.924 C4.934,3.624 5.625,2.934 5.925,2.055 L6.054,1.677 C6.192,1.272 6.572,1 7,1 Z M10.5,15 C9.141,15 8.031,16.087 8.001,17.446 C7.971,18.805 9.033,19.938 10.391,19.998 C11.749,20.057 12.906,19.02 12.995,17.664 L13,17.5 C13,16.119 11.881,15 10.5,15 Z M19,4.387 L15.684,5.493 C15.316,5.616 15.052,5.94 15.007,6.325 L15,6.441 L15,8.612 L19,7.279 Z M7,4.197 C6.763,4.494 6.494,4.764 6.196,5 C6.494,5.236 6.764,5.506 7,5.804 C7.236,5.506 7.506,5.236 7.804,5 C7.506,4.763 7.237,4.494 7,4.196 Z"/>
</svg>

