<svg xmlns="http://www.w3.org/2000/svg" width="24" height="24">
  <defs/>
  <path  d="M21,3.694 L21,7.279 A2 2 0 0 1 19.633,9.176 L15,10.721 L15,17.5 A4.5 4.5 0 1 1 13,13.758 L13,6.44 A3 3 0 0 1 15.051,3.594 L19.026,2.27 A1.5 1.5 0 0 1 21,3.694 M7,1 A1 1 0 0 1 7.946,1.677 L8.076,2.055 A3 3 0 0 0 9.945,3.925 L10.323,4.054 A1 1 0 0 1 10.323,5.946 L9.945,6.076 A3 3 0 0 0 8.075,7.945 L7.946,8.323 A1 1 0 0 1 6.054,8.323 L5.924,7.945 A3 3 0 0 0 4.055,6.075 L3.677,5.946 A1 1 0 0 1 3.677,4.054 L4.055,3.924 A3 3 0 0 0 5.925,2.055 L6.054,1.677 A1 1 0 0 1 7,1"/>
</svg>

