<svg xmlns="http://www.w3.org/2000/svg" width="24" height="24">
  <defs/>
  <path  d="M1.5,6 C1.5,5.172 2.172,4.5 3,4.5 L3.5,4.5 C4.038,4.5 4.535,4.789 4.802,5.256 L6.5,8.226 L6.5,6 C6.5,5.172 7.172,4.5 8,4.5 C8.828,4.5 9.5,5.172 9.5,6 L9.5,13 C9.5,13.828 8.828,14.5 8,14.5 L7.5,14.5 C6.962,14.5 6.465,14.211 6.198,13.744 L4.5,10.774 L4.5,13 C4.5,13.828 3.828,14.5 3,14.5 C2.172,14.5 1.5,13.828 1.5,13 Z M16.087,10.495 C16.3,9.898 16.866,9.5 17.5,9.5 L18.5,9.5 C19.134,9.5 19.7,9.898 19.913,10.495 L21.865,15.963 C21.874,15.984 21.881,16.006 21.889,16.028 L22.413,17.496 C22.692,18.276 22.285,19.135 21.504,19.413 C20.724,19.692 19.866,19.285 19.587,18.505 L19.407,18 L16.593,18 L16.413,18.505 C16.134,19.285 15.275,19.692 14.495,19.413 C13.715,19.134 13.308,18.275 13.587,17.495 L14.111,16.028 C14.119,16.006 14.126,15.984 14.135,15.963 Z M15.17,6.658 C15.912,7.028 16.213,7.93 15.842,8.671 L11.842,16.671 C11.471,17.412 10.57,17.713 9.829,17.342 C9.088,16.971 8.787,16.07 9.158,15.329 L13.158,7.329 C13.529,6.588 14.43,6.288 15.171,6.659 Z M17.664,15 L18.336,15 L18,14.06 Z"/>
</svg>

