<svg xmlns="http://www.w3.org/2000/svg" width="24" height="24">
  <defs/>
  <path  d="M2,6 C2,5.448 2.448,5 3,5 L3.5,5 C3.859,5 4.19,5.192 4.368,5.504 L7,10.109 L7,6 C7,5.448 7.448,5 8,5 C8.552,5 9,5.448 9,6 L9,13 C9,13.552 8.552,14 8,14 L7.5,14 C7.141,14 6.81,13.808 6.632,13.496 L4,8.891 L4,13 C4,13.552 3.552,14 3,14 C2.448,14 2,13.552 2,13 Z M16.554,10.676 C16.692,10.272 17.073,10 17.5,10 L18.5,10 C18.927,10 19.308,10.272 19.446,10.676 L21.153,15.655 L21.931,17.635 C22.13,18.149 21.876,18.726 21.364,18.928 C20.851,19.129 20.272,18.877 20.069,18.365 L19.533,17 L16.467,17 L15.931,18.366 C15.729,18.88 15.148,19.133 14.634,18.931 C14.12,18.729 13.867,18.148 14.069,17.634 L14.847,15.654 Z M14.947,7.106 C15.441,7.353 15.641,7.953 15.394,8.447 L11.394,16.447 C11.241,16.778 10.92,17 10.556,17.025 C10.193,17.051 9.844,16.876 9.646,16.57 C9.448,16.264 9.433,15.874 9.606,15.553 L13.606,7.553 C13.853,7.059 14.453,6.859 14.947,7.106 Z M17.186,15 L18.814,15 L18,12.625 Z"/>
</svg>

