<svg xmlns="http://www.w3.org/2000/svg" width="24" height="24">
  <defs/>
  <path  d="M8.185,3.864 C8.073,3.416 8.174,2.941 8.458,2.577 C8.742,2.213 9.178,2 9.64,2 L14.36,2 C14.822,2 15.258,2.213 15.542,2.577 C15.826,2.941 15.927,3.416 15.815,3.864 L15.037,6.976 L17.764,16.066 C17.999,16.847 17.735,17.693 17.098,18.203 L12.625,21.781 C12.26,22.073 11.74,22.073 11.375,21.781 L6.902,18.203 C6.265,17.693 6.001,16.847 6.236,16.066 L8.963,6.976 Z M10.744,8 L8.152,16.64 L12,19.72 L15.848,16.64 L14.756,13 L13,13 C12.448,13 12,12.552 12,12 C12,11.448 12.448,11 13,11 L14.156,11 L13.256,8 Z M13.719,4 L10.281,4 L10.781,6 L13.219,6 Z"/>
</svg>

