<svg xmlns="http://www.w3.org/2000/svg" width="24" height="24">
  <defs/>
  <path  d="M8.185,3.864 C8.073,3.416 8.174,2.941 8.458,2.577 C8.742,2.213 9.178,2 9.64,2 L14.36,2 C14.822,2 15.258,2.213 15.542,2.577 C15.826,2.941 15.927,3.416 15.815,3.864 L15.037,6.976 L16.244,11 L14,11 C13.448,11 13,11.448 13,12 C13,12.552 13.448,13 14,13 L16.844,13 L17.764,16.066 C17.999,16.847 17.735,17.693 17.098,18.203 L12.625,21.781 C12.26,22.073 11.74,22.073 11.375,21.781 L6.902,18.203 C6.265,17.693 6.001,16.847 6.236,16.066 L8.963,6.976 Z M13.72,4 L10.282,4 L10.782,6 L13.22,6 Z"/>
</svg>

