<svg xmlns="http://www.w3.org/2000/svg" width="24" height="24">
  <defs/>
  <path  d="M12.052,3.89 C12.113,4.439 11.717,4.933 11.168,4.994 C7.585,5.39 4.707,8.624 4.707,12.73 C4.706,15.597 6.391,18.197 9.009,19.368 C11.626,20.539 14.687,20.062 16.824,18.15 C18.474,16.672 18.797,14.472 18.211,12.568 C17.816,11.284 17.071,10.298 16.194,9.771 L16.194,12.501 C16.194,14.703 14.409,16.488 12.207,16.487 L12.077,16.487 C9.947,16.486 8.221,14.76 8.221,12.63 C8.221,9.711 10.587,7.345 13.506,7.345 L14.194,7.345 L14.194,5.795 C14.195,4.564 15.002,3.479 16.18,3.122 C17.358,2.765 18.631,3.221 19.315,4.245 L19.701,4.824 C20.008,5.284 19.884,5.904 19.424,6.211 C18.964,6.518 18.344,6.394 18.037,5.934 L17.651,5.354 C17.456,5.063 17.094,4.934 16.759,5.036 C16.424,5.137 16.195,5.446 16.194,5.796 L16.194,7.576 C18.121,8.203 19.521,10.024 20.122,11.98 C20.883,14.453 20.517,17.528 18.158,19.64 C15.433,22.077 11.53,22.685 8.193,21.193 C4.856,19.7 2.708,16.386 2.708,12.73 C2.707,7.7 6.261,3.524 10.948,3.006 C11.497,2.945 11.991,3.341 12.052,3.89 Z M14.194,9.345 L13.506,9.345 C11.691,9.344 10.22,10.815 10.22,12.63 C10.22,13.655 11.052,14.487 12.077,14.487 L12.207,14.487 C13.304,14.487 14.193,13.597 14.193,12.5 Z"/>
</svg>

