<svg xmlns="http://www.w3.org/2000/svg" width="24" height="24">
  <defs/>
  <path  d="M12.55,3.835 C12.641,4.659 12.047,5.4 11.223,5.491 C7.916,5.857 5.207,8.856 5.207,12.73 C5.207,15.4 6.776,17.82 9.213,18.911 C11.65,20.001 14.5,19.557 16.49,17.777 C17.964,16.458 18.275,14.477 17.733,12.715 C17.493,11.935 17.125,11.3 16.693,10.829 L16.693,12.5 C16.693,14.978 14.685,16.986 12.207,16.987 L12.077,16.987 C9.671,16.986 7.721,15.036 7.721,12.63 C7.721,9.435 10.311,6.845 13.506,6.845 L13.694,6.845 L13.694,5.795 C13.696,4.344 14.646,3.064 16.035,2.644 C17.424,2.223 18.925,2.761 19.731,3.968 L20.117,4.546 C20.577,5.235 20.391,6.167 19.701,6.627 C19.012,7.086 18.081,6.9 17.621,6.211 L17.235,5.631 C17.162,5.524 17.028,5.476 16.904,5.514 C16.779,5.552 16.694,5.666 16.694,5.796 L16.694,7.224 C18.635,8.008 20.004,9.896 20.6,11.833 C21.405,14.448 21.027,17.743 18.491,20.012 C16.701,21.617 14.381,22.503 11.977,22.5 C6.581,22.5 2.207,18.126 2.207,12.73 C2.207,7.468 5.93,3.058 10.894,2.51 C11.717,2.419 12.457,3.012 12.549,3.835 Z M13.692,9.845 L13.505,9.845 C11.966,9.844 10.719,11.091 10.719,12.63 C10.719,13.38 11.327,13.987 12.076,13.987 L12.206,13.987 C13.027,13.987 13.692,13.321 13.692,12.5 Z"/>
</svg>

