<svg xmlns="http://www.w3.org/2000/svg" width="24" height="24">
  <defs/>
  <path  d="M2,5 C2,3.895 2.895,3 4,3 L9.52,3 C10.127,3 10.701,3.276 11.081,3.75 L12.481,5.5 L20,5.5 C21.105,5.5 22,6.395 22,7.5 L22,19 C22,20.105 21.105,21 20,21 L4,21 C2.895,21 2,20.105 2,19 Z M12,9 C11.448,9 11,9.448 11,10 L11,12 L9,12 C8.448,12 8,12.448 8,13 C8,13.552 8.448,14 9,14 L11,14 L11,16 C11,16.552 11.448,17 12,17 C12.552,17 13,16.552 13,16 L13,14 L15,14 C15.552,14 16,13.552 16,13 C16,12.448 15.552,12 15,12 L13,12 L13,10 C13,9.448 12.552,9 12,9 Z"/>
</svg>

