<svg xmlns="http://www.w3.org/2000/svg" width="24" height="24">
  <defs/>
  <path  d="M5,3 L11,3 C11.552,3 12,3.448 12,4 C12,4.552 11.552,5 11,5 L5,5 L5,19 L19,19 L19,13 C19,12.448 19.448,12 20,12 C20.552,12 21,12.448 21,13 L21,19 C21,20.105 20.105,21 19,21 L5,21 C3.895,21 3,20.105 3,19 L3,5 C3,3.895 3.895,3 5,3 Z M17.5,3 C19.433,3 21,4.567 21,6.5 C21,8.433 19.433,10 17.5,10 C15.567,10 14,8.433 14,6.5 C14,4.567 15.567,3 17.5,3 Z M16,6.5 C16,7.328 16.672,8 17.5,8 C18.328,8 19,7.328 19,6.5 C19,5.672 18.328,5 17.5,5 C16.672,5 16,5.672 16,6.5 Z"/>
</svg>

