<svg xmlns="http://www.w3.org/2000/svg" width="24" height="24">
  <defs/>
  <path  d="M6,4 C6,3.448 6.448,3 7,3 L20,3 C20.552,3 21,3.448 21,4 L21,18 C21,19.657 19.657,21 18,21 L5.5,21 C4.119,21 3,19.881 3,18.5 L3,11 C3,10.448 3.448,10 4,10 L6,10 Z M7.95,19 L18,19 C18.552,19 19,18.552 19,18 L19,5 L8,5 L8,18.5 C8,18.671 7.983,18.838 7.95,19 Z M10,8 C10,7.448 10.448,7 11,7 L16,7 C16.552,7 17,7.448 17,8 L17,11 C17,11.552 16.552,12 16,12 L11,12 C10.448,12 10,11.552 10,11 Z M10,15 C10,14.448 10.448,14 11,14 L15,14 C15.552,14 16,14.448 16,15 C16,15.552 15.552,16 15,16 L11,16 C10.448,16 10,15.552 10,15 Z M6,12 L5,12 L5,18.5 C5,18.776 5.224,19 5.5,19 C5.776,19 6,18.776 6,18.5 Z M12,9 L12,10 L15,10 L15,9 Z"/>
</svg>

