<svg xmlns="http://www.w3.org/2000/svg" width="24" height="24">
  <defs/>
  <path  d="M20,3 A1 1 0 0 1 20.993,3.883 L21,4 L21,18 A3 3 0 0 1 18.176,20.995 L18,21 L5.5,21 A2.5 2.5 0 0 1 3.005,18.664 L3,18.5 L3,11 A1 1 0 0 1 3.883,10.007 L4,10 L6,10 L6,4 A1 1 0 0 1 6.883,3.007 L7,3 Z M6,12 L5,12 L5,18.5 A0.5 0.5 0 0 0 5.992,18.59 L6,18.5 Z M15,14 L10,14 A1 1 0 1 0 10,16 L15,16 A1 1 0 1 0 15,14 M17,7 L10,7 A1 1 0 0 0 9.007,7.883 L9,8 L9,11 A1 1 0 0 0 9.883,11.993 L10,12 L17,12 A1 1 0 0 0 17.993,11.117 L18,11 L18,8 A1 1 0 0 0 17.117,7.007 Z M16,9 L16,10 L11,10 L11,9 Z"/>
</svg>

