<svg xmlns="http://www.w3.org/2000/svg" width="24" height="24">
  <defs/>
  <path  d="M3,6 C3,4.343 4.343,3 6,3 L18,3 C19.657,3 21,4.343 21,6 L21,18 C21,19.657 19.657,21 18,21 L6,21 C4.343,21 3,19.657 3,18 Z M12,19 L18,19 C18.552,19 19,18.552 19,18 L19,6 C19,5.448 18.552,5 18,5 L15.465,5 C15.805,5.588 16,6.271 16,7 L16,17 C16,17.404 15.756,17.769 15.383,17.924 C15.009,18.078 14.579,17.993 14.293,17.707 L10.793,14.207 C10.414,13.815 10.419,13.191 10.805,12.805 C11.191,12.419 11.815,12.414 12.207,12.793 L14,14.586 L14,7 C14,5.895 13.105,5 12,5 L6,5 C5.448,5 5,5.448 5,6 L5,18 C5,18.552 5.448,19 6,19 L8.535,19 C8.183,18.392 7.999,17.702 8,17 L8,7 C8,6.596 8.244,6.231 8.617,6.076 C8.991,5.922 9.421,6.007 9.707,6.293 L13.207,9.793 C13.586,10.185 13.581,10.809 13.195,11.195 C12.809,11.581 12.185,11.586 11.793,11.207 L10,9.414 L10,17 C10,18.105 10.895,19 12,19 Z"/>
</svg>

