<svg xmlns="http://www.w3.org/2000/svg" width="24" height="24">
  <defs/>
  <path  d="M10,3 A1 1 0 0 1 10.993,3.883 L11,4 L11,20 A1 1 0 0 1 10.117,20.993 L10,21 L6,21 A4 4 0 0 1 2.005,17.2 L2,17 L2,7 A4 4 0 0 1 5.8,3.005 L6,3 Z M9,5 L6,5 A2 2 0 0 0 4.005,6.85 L4,7 L4,17 A2 2 0 0 0 5.85,18.995 L6,19 L9,19 Z M6.5,7 A1.5 1.5 0 1 1 6.5,10 A1.5 1.5 0 0 1 6.5,7 M18,3 A4 4 0 0 1 21.995,6.8 L22,7 L22,17 A4 4 0 0 1 18.2,20.995 L18,21 L14,21 A1 1 0 0 1 13.007,20.117 L13,20 L13,4 A1 1 0 0 1 13.883,3.007 L14,3 Z M18,5 L15,5 L15,19 L18,19 A2 2 0 0 0 19.995,17.15 L20,17 L20,7 A2 2 0 0 0 18.15,5.005 Z M17.5,14 A1.5 1.5 0 1 1 17.5,17 A1.5 1.5 0 0 1 17.5,14"/>
</svg>

