<svg xmlns="http://www.w3.org/2000/svg" width="24" height="24">
  <defs/>
  <path  d="M10,3 C10.552,3 11,3.448 11,4 L11,20 C11,20.552 10.552,21 10,21 L6,21 C3.791,21 2,19.209 2,17 L2,7 C2,4.791 3.791,3 6,3 Z M18,3 C20.209,3 22,4.791 22,7 L22,17 C22,19.209 20.209,21 18,21 L14,21 C13.448,21 13,20.552 13,20 L13,4 C13,3.448 13.448,3 14,3 Z M6.5,7 C5.672,7 5,7.672 5,8.5 C5,9.328 5.672,10 6.5,10 C7.328,10 8,9.328 8,8.5 C8,7.672 7.328,7 6.5,7 Z M17.5,14 C16.672,14 16,14.672 16,15.5 C16,16.328 16.672,17 17.5,17 C18.328,17 19,16.328 19,15.5 C19,14.672 18.328,14 17.5,14 Z"/>
</svg>

