<svg xmlns="http://www.w3.org/2000/svg" width="24" height="24">
  <defs/>
  <path  d="M9.5,4 A1 1 0 0 0 7.5,4 C7.5,5.827 7.044,7.675 6.106,9.553 C5.654,10.455 5.018,11.153 4.316,12.122 C3.666,13.018 3,14.112 3,15.5 A3.5 3.5 0 0 0 6.5,19 C7.072,19 8.012,18.624 8.553,18.894 C8.951,19.094 9.209,19.554 9.51,19.874 C10.03,20.424 10.774,21 12,21 C13.226,21 13.97,20.424 14.49,19.874 C14.785,19.561 15.052,19.092 15.447,18.894 C15.987,18.624 16.927,19 17.5,19 A3.5 3.5 0 0 0 21,15.5 C21,14.113 20.335,13.018 19.684,12.122 C18.982,11.154 18.346,10.455 17.894,9.552 C16.956,7.676 16.5,5.828 16.5,4 A1 1 0 1 0 14.5,4 C14.5,6.173 15.044,8.325 16.106,10.447 C16.654,11.545 17.518,12.542 18.066,13.297 C18.666,14.122 19,14.777 19,15.5 A1.5 1.5 0 0 1 17.5,17 C16.484,17 15.533,16.615 14.553,17.106 C13.911,17.426 13.513,17.994 13.035,18.501 C12.729,18.826 12.475,19 12,19 C11.526,19 11.27,18.826 10.965,18.502 C10.49,17.997 10.085,17.424 9.447,17.106 C8.467,16.616 7.517,17 6.5,17 A1.5 1.5 0 0 1 5,15.5 C5,14.778 5.335,14.122 5.934,13.296 C6.482,12.541 7.346,11.545 7.894,10.447 C8.956,8.325 9.5,6.173 9.5,4"/>
</svg>

