<svg xmlns="http://www.w3.org/2000/svg" width="24" height="24">
  <defs/>
  <path  d="M7.27,7.267 C7.745,5.096 10,2 12,2 C14,2 16.255,5.096 16.73,7.267 C16.98,8.407 17.372,9.508 17.894,10.553 C18.907,12.577 21,14.043 21,16.5 A3.5 3.5 0 0 1 17.5,20 C16.924,20 15.98,19.628 15.447,19.894 C15.052,20.092 14.785,20.561 14.49,20.874 C13.97,21.424 13.226,22 12,22 C10.774,22 10.03,21.424 9.51,20.874 C9.215,20.561 8.948,20.092 8.553,19.894 C8.02,19.628 7.076,20 6.5,20 A3.5 3.5 0 0 1 3,16.5 C3,14.043 5.093,12.578 6.106,10.553 A14.056 14.056 0 0 0 7.27,7.267"/>
</svg>

