<svg xmlns="http://www.w3.org/2000/svg" width="24" height="24">
  <defs/>
  <path  d="M6,2 L17,2 C18.657,2 20,3.343 20,5 L20,19 C20,20.657 18.657,22 17,22 L6,22 C4.895,22 4,21.105 4,20 L4,4 C4,2.895 4.895,2 6,2 Z M10,4 L6,4 L6,20 L17,20 C17.552,20 18,19.552 18,19 L18,5 C18,4.448 17.552,4 17,4 L16,4 L16,12.976 C16,13.876 14.912,14.326 14.276,13.69 L13,12.414 L11.724,13.69 C11.088,14.326 10,13.876 10,12.976 Z M14,4 L12,4 L12,10.586 L12.286,10.3 C12.68,9.906 13.32,9.906 13.714,10.3 L14,10.586 Z"/>
</svg>

