<svg xmlns="http://www.w3.org/2000/svg" width="24" height="24">
  <defs/>
  <path  d="M5,9 C5,5.134 8.134,2 12,2 C15.866,2 19,5.134 19,9 L19,12.764 L20.822,16.408 C20.993,16.749 20.974,17.154 20.774,17.478 C20.573,17.803 20.219,18 19.838,18 L15.874,18 C15.416,19.765 13.824,20.998 12,20.998 C10.176,20.998 8.584,19.765 8.126,18 L4.162,18 C3.781,18 3.427,17.803 3.226,17.478 C3.026,17.154 3.007,16.749 3.178,16.408 L5,12.764 Z M12,4 C9.239,4 7,6.239 7,9 L7,12.764 C7,13.074 6.928,13.38 6.789,13.658 L5.619,16 L18.382,16 L17.212,13.658 C17.073,13.38 17,13.074 17,12.764 L17,9 C17,6.239 14.761,4 12,4 Z M10.268,18 C10.625,18.619 11.286,19 12,19 C12.714,19 13.375,18.619 13.732,18 Z"/>
</svg>

