<svg xmlns="http://www.w3.org/2000/svg" width="24" height="24">
  <defs/>
  <path  d="M17.94,2.434 L18.13,2.551 L20.11,3.871 C20.617,4.21 20.942,4.761 20.993,5.369 L21,5.535 L21,18.074 C21,19.06 20.282,19.898 19.308,20.05 L19.153,20.068 L7.624,20.955 C7.002,21.003 6.393,20.758 5.978,20.292 L5.871,20.161 L3.6,17.133 C3.255,16.673 3.049,16.123 3.008,15.549 L3,15.333 L3,4.926 C3,3.94 3.718,3.102 4.692,2.95 L4.847,2.932 L16.235,2.056 C16.828,2.01 17.421,2.142 17.939,2.434 Z M19,7.08 L8,7.926 L8,18.92 L19,18.074 Z M16,8.5 C16.552,8.5 17,8.948 17,9.5 L17,16.5 C17,17.052 16.552,17.5 16,17.5 L15.5,17.5 C15.153,17.5 14.83,17.32 14.648,17.024 L12,12.72 L12,17 C12,17.552 11.552,18 11,18 C10.448,18 10,17.552 10,17 L10,10 C10,9.448 10.448,9 11,9 L11.5,9 C11.847,9 12.17,9.18 12.352,9.476 L15,13.779 L15,9.5 C15,8.948 15.448,8.5 16,8.5 Z M16.388,4.05 L6.245,4.83 L7.382,5.967 L18.38,5.122 L17.02,4.215 C16.834,4.091 16.611,4.033 16.388,4.05 Z"/>
</svg>

