<svg xmlns="http://www.w3.org/2000/svg" width="24" height="24">
  <defs/>
  <path  d="M5,9 C5,7.042 5.82,5.174 7.26,3.848 C8.701,2.523 10.631,1.861 12.582,2.024 C12.942,2.048 13.262,2.264 13.418,2.59 C13.574,2.915 13.542,3.3 13.335,3.596 C13.128,3.891 12.777,4.052 12.418,4.017 C11.024,3.9 9.645,4.372 8.615,5.319 C7.586,6.266 7,7.601 7,9 L7,12.528 C7,12.994 6.891,13.453 6.683,13.87 L5.618,16 L18.382,16 L17.317,13.87 C17.109,13.453 17,12.994 17,12.528 L17,11 C17,10.448 17.448,10 18,10 C18.552,10 19,10.448 19,11 L19,12.528 C19,12.683 19.036,12.836 19.105,12.975 L20.822,16.408 C20.993,16.749 20.974,17.154 20.774,17.478 C20.573,17.803 20.219,18 19.838,18 L15.874,18 C15.416,19.765 13.824,20.998 12,20.998 C10.176,20.998 8.584,19.765 8.126,18 L4.162,18 C3.781,18 3.427,17.803 3.226,17.478 C3.026,17.154 3.007,16.749 3.178,16.408 L4.894,12.975 C4.964,12.836 5,12.683 5,12.528 Z M14,5.5 C14,3.567 15.567,2 17.5,2 C19.433,2 21,3.567 21,5.5 C21,7.433 19.433,9 17.5,9 C15.567,9 14,7.433 14,5.5 Z M17.5,4 C16.672,4 16,4.672 16,5.5 C16,6.328 16.672,7 17.5,7 C18.328,7 19,6.328 19,5.5 C19,4.672 18.328,4 17.5,4 Z M10.268,18 C10.625,18.619 11.286,19 12,19 C12.714,19 13.375,18.619 13.732,18 Z"/>
</svg>

