<svg xmlns="http://www.w3.org/2000/svg" width="24" height="24">
  <defs/>
  <path  d="M21,18.074 C21,19.119 20.195,19.988 19.153,20.068 L7.624,20.955 C6.942,21.007 6.281,20.708 5.871,20.161 L3.6,17.133 C3.211,16.614 3,15.982 3,15.333 L3,4.926 C3,3.881 3.805,3.012 4.847,2.932 L16.235,2.056 C16.904,2.005 17.571,2.179 18.129,2.551 L20.109,3.871 C20.666,4.242 21,4.866 21,5.535 Z M19,18.074 L19,7.08 L8,7.926 L8,18.92 Z M17,9.5 L17,16.5 C17,17.052 16.552,17.5 16,17.5 L15.5,17.5 C15.153,17.5 14.83,17.32 14.648,17.024 L12,12.72 L12,17 C12,17.552 11.552,18 11,18 C10.448,18 10,17.552 10,17 L10,10 C10,9.448 10.448,9 11,9 L11.5,9 C11.847,9 12.17,9.18 12.352,9.476 L15,13.78 L15,9.5 C15,8.948 15.448,8.5 16,8.5 C16.552,8.5 17,8.948 17,9.5 Z M16.388,4.05 L6.245,4.83 L7.382,5.967 L18.38,5.122 L17.02,4.215 C16.834,4.091 16.611,4.033 16.388,4.05 Z M5,6.414 L5,15.334 C5,15.55 5.07,15.761 5.2,15.934 L6,17 L6,7.414 Z"/>
</svg>

