<svg xmlns="http://www.w3.org/2000/svg" width="24" height="24">
  <defs/>
  <path  d="M12,2 A6.99 6.99 0 0 1 14.263,2.374 A4.5 4.5 0 0 0 18.763,9.821 L19,9.743 L19,12.527 A1 1 0 0 0 19.06,12.867 L19.106,12.974 L20.822,16.407 A1.1 1.1 0 0 1 19.953,17.993 L19.838,17.999 L4.162,17.999 A1.1 1.1 0 0 1 3.132,16.512 L3.178,16.407 L4.895,12.974 A1 1 0 0 0 4.993,12.643 L5,12.528 L5,9 A7 7 0 0 1 12,2 M17.5,3 A2.5 2.5 0 1 1 17.5,8 A2.5 2.5 0 0 1 17.5,3 M12,21 A3.001 3.001 0 0 1 9.17,19 L14.83,19 A3.001 3.001 0 0 1 12,21"/>
</svg>

