<svg xmlns="http://www.w3.org/2000/svg" width="24" height="24">
  <defs/>
  <path  d="M12.002,2 C15.868,2 19.002,5.134 19.002,9 L19.002,12.528 C19.002,12.683 19.038,12.836 19.107,12.975 L20.824,16.408 C20.995,16.749 20.976,17.154 20.776,17.478 C20.575,17.803 20.221,18 19.84,18 L19.414,18 L20.485,19.071 C20.864,19.463 20.859,20.087 20.473,20.473 C20.087,20.859 19.463,20.864 19.071,20.485 L3.515,4.93 C3.255,4.679 3.151,4.307 3.242,3.957 C3.334,3.608 3.607,3.335 3.956,3.243 C4.306,3.152 4.678,3.256 4.929,3.516 L6.322,4.909 C7.636,3.081 9.751,1.998 12.002,2 Z M12.002,4 C10.278,3.999 8.676,4.886 7.762,6.348 L17.414,16 L18.384,16 L17.319,13.87 C17.111,13.453 17.002,12.994 17.002,12.528 L17.002,9 C17.002,6.239 14.763,4 12.002,4 Z M5.025,8.429 L7.002,10.406 L7.002,12.528 C7.002,12.994 6.893,13.453 6.685,13.87 L5.62,16 L12.596,16 L15.512,18.916 C14.725,20.357 13.137,21.17 11.508,20.968 C9.878,20.766 8.538,19.589 8.126,18 L4.164,18 C3.783,18 3.429,17.803 3.228,17.478 C3.028,17.154 3.009,16.749 3.18,16.408 L4.896,12.975 C4.966,12.836 5.002,12.683 5.002,12.528 L5.002,9 C5.002,8.808 5.01,8.617 5.025,8.429 Z M13.732,18 L10.268,18 C10.625,18.619 11.286,19 12,19 C12.714,19 13.375,18.619 13.732,18 Z"/>
</svg>

