<svg xmlns="http://www.w3.org/2000/svg" width="24" height="24">
  <defs/>
  <path  d="M18.06,3.94 L20.888,6.768 C21.278,7.145 21.434,7.702 21.297,8.227 C21.16,8.751 20.75,9.161 20.226,9.298 C19.701,9.435 19.144,9.279 18.767,8.889 L18.499,8.621 L18.499,20 C18.499,20.828 17.827,21.5 16.999,21.5 C16.171,21.5 15.499,20.828 15.499,20 L15.499,8.62 L15.231,8.888 C14.854,9.278 14.297,9.434 13.772,9.297 C13.248,9.16 12.838,8.75 12.701,8.226 C12.564,7.701 12.72,7.144 13.11,6.767 L15.94,3.94 C16.526,3.355 17.474,3.355 18.06,3.94 Z M4.5,16.5 C4.5,14.567 6.067,13 8,13 C9.933,13 11.5,14.567 11.5,16.5 L11.5,18.5 C11.5,20.433 9.933,22 8,22 C6.067,22 4.5,20.433 4.5,18.5 Z M4.5,5.5 C4.497,3.602 6.007,2.048 7.904,1.996 C9.801,1.944 11.394,3.413 11.495,5.308 L11.5,5.51 C11.5,7.432 10.701,8.982 9.97,10.004 C9.736,10.33 9.482,10.641 9.21,10.935 L8.95,11.205 C8.787,11.371 8.615,11.527 8.434,11.674 C7.81,12.17 6.907,12.092 6.378,11.496 C5.849,10.899 5.879,9.993 6.446,9.433 L6.668,9.236 L6.792,9.119 L6.949,8.96 L7.037,8.866 C5.535,8.436 4.5,7.062 4.5,5.5 Z M8,16 C7.724,16 7.5,16.224 7.5,16.5 L7.5,18.5 C7.5,18.776 7.724,19 8,19 C8.276,19 8.5,18.776 8.5,18.5 L8.5,16.5 C8.5,16.224 8.276,16 8,16 Z M8,5 C7.724,5 7.5,5.224 7.5,5.5 C7.5,5.776 7.724,6 8,6 C8.276,6 8.5,5.776 8.5,5.5 C8.5,5.224 8.276,5 8,5 Z"/>
</svg>

