<svg xmlns="http://www.w3.org/2000/svg" width="24" height="24">
  <defs/>
  <path  d="M18.5,5 L18.5,16.207 L18.768,15.939 C19.357,15.371 20.292,15.379 20.871,15.957 C21.449,16.536 21.457,17.471 20.889,18.06 L18.061,20.889 C17.475,21.475 16.525,21.475 15.939,20.889 L13.111,18.06 C12.543,17.471 12.551,16.536 13.129,15.957 C13.708,15.379 14.643,15.371 15.232,15.939 L15.5,16.207 L15.5,5 C15.5,4.172 16.172,3.5 17,3.5 C17.828,3.5 18.5,4.172 18.5,5 Z M4.5,5.5 C4.5,3.567 6.067,2 8,2 C9.933,2 11.5,3.567 11.5,5.5 L11.5,7.5 C11.5,9.433 9.933,11 8,11 C6.067,11 4.5,9.433 4.5,7.5 Z M4.5,15.5 C4.497,13.602 6.007,12.048 7.904,11.996 C9.801,11.944 11.394,13.413 11.495,15.308 L11.5,15.51 C11.5,17.432 10.701,18.982 9.97,20.003 C9.736,20.329 9.482,20.64 9.21,20.935 L8.95,21.205 C8.787,21.371 8.615,21.527 8.434,21.674 C7.81,22.17 6.907,22.092 6.378,21.496 C5.849,20.899 5.879,19.993 6.446,19.433 L6.668,19.236 L6.792,19.119 L6.949,18.96 L7.037,18.866 C5.535,18.436 4.5,17.062 4.5,15.5 Z M8,5 C7.724,5 7.5,5.224 7.5,5.5 L7.5,7.5 C7.5,7.776 7.724,8 8,8 C8.276,8 8.5,7.776 8.5,7.5 L8.5,5.5 C8.5,5.224 8.276,5 8,5 Z M8,15 C7.724,15 7.5,15.224 7.5,15.5 C7.5,15.776 7.724,16 8,16 C8.276,16 8.5,15.776 8.5,15.5 C8.5,15.224 8.276,15 8,15 Z"/>
</svg>

