<svg xmlns="http://www.w3.org/2000/svg" width="24" height="24">
  <defs/>
  <path  d="M17.707,4.293 L20.536,7.121 C20.927,7.512 20.927,8.145 20.536,8.536 C20.145,8.927 19.512,8.927 19.121,8.536 L18,7.414 L18,20 C18,20.552 17.552,21 17,21 C16.448,21 16,20.552 16,20 L16,7.414 L14.879,8.535 C14.488,8.925 13.855,8.925 13.465,8.535 C13.074,8.144 13.074,7.51 13.465,7.12 L16.293,4.293 C16.684,3.903 17.316,3.903 17.707,4.293 Z M5,16 C5,14.343 6.343,13 8,13 C9.657,13 11,14.343 11,16 L11,18 C11,19.657 9.657,21 8,21 C6.343,21 5,19.657 5,18 Z M5,6 C4.998,4.376 6.289,3.046 7.912,2.998 C9.535,2.951 10.901,4.203 10.995,5.824 L11,6.01 C11,6.418 10.961,6.809 10.893,7.181 C10.629,8.614 9.929,9.761 9.323,10.533 C9.016,10.923 8.725,11.227 8.508,11.437 C8.384,11.557 8.258,11.675 8.123,11.782 C7.71,12.11 7.114,12.061 6.76,11.67 C6.406,11.28 6.416,10.682 6.783,10.303 L7.118,10 L7.342,9.772 C7.569,9.53 7.78,9.272 7.971,9 C6.325,8.984 5,7.646 5,6 Z M8,15 C7.448,15 7,15.448 7,16 L7,18 C7,18.552 7.448,19 8,19 C8.552,19 9,18.552 9,18 L9,16 C9,15.448 8.552,15 8,15 Z M8,5 C7.448,5 7,5.448 7,6 C7,6.552 7.448,7 8,7 C8.552,7 9,6.552 9,6 C9,5.448 8.552,5 8,5 Z"/>
</svg>

