<svg xmlns="http://www.w3.org/2000/svg" width="24" height="24">
  <defs/>
  <path  d="M18.5,5 L18.5,16.207 L18.768,15.939 C19.357,15.371 20.292,15.379 20.871,15.957 C21.449,16.536 21.457,17.471 20.889,18.06 L18.061,20.889 C17.475,21.475 16.525,21.475 15.939,20.889 L13.111,18.06 C12.543,17.471 12.551,16.536 13.129,15.957 C13.708,15.379 14.643,15.371 15.232,15.939 L15.5,16.207 L15.5,5 C15.5,4.172 16.172,3.5 17,3.5 C17.828,3.5 18.5,4.172 18.5,5 Z M4.5,16.5 C4.5,14.567 6.067,13 8,13 C9.933,13 11.5,14.567 11.5,16.5 L11.5,18.5 C11.5,20.433 9.933,22 8,22 C6.067,22 4.5,20.433 4.5,18.5 Z M4.5,5.5 C4.497,3.602 6.007,2.048 7.904,1.996 C9.801,1.944 11.394,3.413 11.495,5.308 L11.5,5.51 C11.5,7.432 10.701,8.982 9.97,10.004 C9.736,10.33 9.482,10.641 9.21,10.935 L8.95,11.205 C8.787,11.371 8.615,11.527 8.434,11.674 C7.81,12.17 6.907,12.092 6.378,11.496 C5.849,10.899 5.879,9.993 6.446,9.433 L6.668,9.236 L6.792,9.119 L6.949,8.96 L7.037,8.866 C5.535,8.436 4.5,7.062 4.5,5.5 Z M8,16 C7.724,16 7.5,16.224 7.5,16.5 L7.5,18.5 C7.5,18.776 7.724,19 8,19 C8.276,19 8.5,18.776 8.5,18.5 L8.5,16.5 C8.5,16.224 8.276,16 8,16 Z M8,5 C7.724,5 7.5,5.224 7.5,5.5 C7.5,5.776 7.724,6 8,6 C8.276,6 8.5,5.776 8.5,5.5 C8.5,5.224 8.276,5 8,5 Z"/>
</svg>

