<svg xmlns="http://www.w3.org/2000/svg" width="24" height="24">
  <defs/>
  <path  d="M3.139,6.743 C8.612,3.539 15.388,3.539 20.861,6.743 C21.643,7.204 22.007,8.141 21.741,9.009 L19.171,17.575 C18.917,18.42 18.14,18.999 17.257,19 L6.744,19 C5.861,19 5.082,18.421 4.828,17.575 L2.258,9.009 C1.992,8.141 2.357,7.204 3.139,6.743 Z M9,12 C9,12.552 9.448,13 10,13 L11,13 L11,14 C11,14.552 11.448,15 12,15 C12.552,15 13,14.552 13,14 L13,13 L14,13 C14.552,13 15,12.552 15,12 C15,11.448 14.552,11 14,11 L13,11 L13,10 C13,9.448 12.552,9 12,9 C11.448,9 11,9.448 11,10 L11,11 L10,11 C9.448,11 9,11.448 9,12 Z"/>
</svg>

