<svg xmlns="http://www.w3.org/2000/svg" width="24" height="24">
  <defs/>
  <path  d="M9,12 A1 1 0 0 1 10,11 L11,11 L11,10 A1 1 0 1 1 13,10 L13,11 L14,11 A1 1 0 1 1 14,13 L13,13 L13,14 A1 1 0 1 1 11,14 L11,13 L10,13 A1 1 0 0 1 9,12"/>
  <path  d="M3.139,6.742 C8.612,3.538 15.388,3.538 20.861,6.742 C21.643,7.203 22.007,8.14 21.741,9.008 L19.171,17.575 C18.917,18.42 18.14,18.999 17.257,19 L6.744,19 C5.861,19 5.082,18.421 4.828,17.575 L2.258,9.008 C1.992,8.14 2.357,7.203 3.139,6.742 Z M4.179,8.451 L6.744,17 L17.256,17 L19.821,8.45 C14.987,5.634 9.013,5.634 4.179,8.45 Z"/>
</svg>

