<svg xmlns="http://www.w3.org/2000/svg" width="24" height="24">
  <defs/>
  <path  d="M9.1,2 L14.9,2 C15.695,2 16.458,2.317 17.02,2.879 L21.121,6.979 C21.684,7.542 22,8.305 22,9.101 L22,14.899 C22,15.695 21.684,16.458 21.121,17.021 L17.021,21.121 C16.458,21.684 15.695,22 14.899,22 L9.102,22 C8.306,22 7.543,21.684 6.98,21.121 L2.88,17.021 C2.317,16.458 2,15.695 2,14.899 L2,9.102 C2,8.306 2.316,7.543 2.879,6.98 L6.979,2.88 C7.541,2.317 8.304,2 9.1,2 Z M14.9,4 L9.1,4 C8.835,4 8.58,4.105 8.393,4.293 L4.293,8.393 C4.105,8.581 4,8.835 4,9.101 L4,14.899 C4,15.165 4.105,15.419 4.293,15.607 L8.393,19.707 C8.581,19.895 8.835,20 9.101,20 L14.899,20 C15.165,20 15.419,19.895 15.607,19.707 L19.707,15.607 C19.895,15.42 20,15.165 20,14.9 L20,9.1 C20,8.835 19.895,8.58 19.707,8.393 L15.607,4.293 C15.42,4.105 15.165,4 14.9,4 Z"/>
</svg>

