<svg xmlns="http://www.w3.org/2000/svg" width="24" height="24">
  <defs/>
  <path  d="M10,4 C10,2.895 10.895,2 12,2 L15,2 C16.105,2 17,2.895 17,4 L17,5 C18.657,5 20,6.343 20,8 L20,19 C20,20.657 18.657,22 17,22 L7,22 C5.343,22 4,20.657 4,19 L4,10.667 C4,10.018 4.211,9.386 4.6,8.867 L6.6,6.2 C7.167,5.445 8.056,5 9,5 L10,5 Z M8.2,7.4 L6.2,10.067 C6.07,10.24 6,10.451 6,10.667 L6,19 C6,19.552 6.448,20 7,20 L17,20 C17.552,20 18,19.552 18,19 L18,8 C18,7.448 17.552,7 17,7 L9,7 C8.685,7 8.389,7.148 8.2,7.4 Z M10,12 L10,17 C10,17.552 9.552,18 9,18 C8.448,18 8,17.552 8,17 L8,12 C8,11.448 8.448,11 9,11 C9.552,11 10,11.448 10,12 Z M15,4 L12,4 L12,5 L15,5 Z"/>
</svg>

