<svg xmlns="http://www.w3.org/2000/svg" width="24" height="24">
  <defs/>
  <path  d="M12,4.5 C8.754,4.497 6.004,6.888 5.556,10.103 C5.107,13.317 7.099,16.37 10.222,17.254 C10.954,17.462 11.5,18.134 11.5,18.942 L11.5,20.75 C11.5,21.716 10.716,22.5 9.75,22.5 L6,22.5 C5.172,22.5 4.5,21.828 4.5,21 C4.5,20.172 5.172,19.5 6,19.5 L7.754,19.5 C4.533,17.891 2.499,14.6 2.5,11 C2.5,5.753 6.753,1.5 12,1.5 C17.247,1.5 21.5,5.753 21.5,11 C21.501,14.6 19.467,17.891 16.246,19.5 L18,19.5 C18.828,19.5 19.5,20.172 19.5,21 C19.5,21.828 18.828,22.5 18,22.5 L14.25,22.5 C13.284,22.5 12.5,21.716 12.5,20.75 L12.5,18.942 C12.5,18.134 13.046,17.462 13.778,17.254 C16.901,16.37 18.893,13.317 18.444,10.103 C17.996,6.888 15.246,4.497 12,4.5 Z"/>
</svg>

