<svg xmlns="http://www.w3.org/2000/svg" width="24" height="24">
  <defs/>
  <path  d="M12,4 C8.505,3.997 5.543,6.572 5.061,10.034 C4.578,13.495 6.723,16.782 10.086,17.735 C10.61,17.885 11,18.365 11,18.942 L11,20.75 C11,21.44 10.44,22 9.75,22 L6,22 C5.448,22 5,21.552 5,21 C5,20.448 5.448,20 6,20 L9,20 L9,19.488 C4.867,18.027 2.388,13.801 3.13,9.481 C3.871,5.161 7.617,2.003 12,2.003 C16.383,2.003 20.129,5.161 20.87,9.481 C21.612,13.801 19.133,18.027 15,19.488 L15,20 L18,20 C18.552,20 19,20.448 19,21 C19,21.552 18.552,22 18,22 L14.25,22 C13.56,22 13,21.44 13,20.75 L13,18.942 C13,18.365 13.39,17.884 13.914,17.735 C17.277,16.782 19.422,13.495 18.939,10.034 C18.457,6.572 15.495,3.997 12,4 Z"/>
</svg>

