<svg xmlns="http://www.w3.org/2000/svg" width="24" height="24">
  <defs/>
  <path  d="M12,2 C17.523,2 22,6.477 22,12 C22,17.523 17.523,22 12,22 C6.477,22 2,17.523 2,12 C2,6.477 6.477,2 12,2 M13,12 C12.141,12 11.633,12.67 11.399,13.139 C11.134,13.667 11,14.326 11,15 C11,15.674 11.134,16.333 11.399,16.861 C11.633,17.33 12.14,18 13,18 C13.86,18 14.367,17.33 14.601,16.861 C14.866,16.333 15,15.674 15,15 C15,14.326 14.866,13.667 14.601,13.139 C14.368,12.67 13.86,12 13,12 M8.5,8 A2.5 2.5 0 1 0 8.5,13 A2.5 2.5 0 0 0 8.5,8 M15.5,7 A2.5 2.5 0 1 0 15.5,12 A2.5 2.5 0 0 0 15.5,7 M8.5,10 A0.5 0.5 0 1 1 8.5,11 A0.5 0.5 0 0 1 8.5,10 M15.5,9 A0.5 0.5 0 1 1 15.5,10 A0.5 0.5 0 0 1 15.5,9"/>
</svg>

