<svg xmlns="http://www.w3.org/2000/svg" width="24" height="24">
  <defs/>
  <path  d="M14.253,2.291 A1.5 1.5 0 0 1 15.993,3.633 L16,3.771 L16,5 L18,5 A2 2 0 0 1 19.995,6.85 L20,7 L20,17 A2 2 0 0 1 18.15,18.994 L18,19 L16,19 L16,20.23 A1.5 1.5 0 0 1 14.39,21.725 L14.253,21.709 L5.671,20.279 A2 2 0 0 1 4.006,18.467 L4,18.306 L4,5.694 A2 2 0 0 1 5.513,3.754 L5.671,3.721 Z M14,4.361 L6,5.694 L6,18.306 L14,19.639 Z M18,7 L16,7 L16,17 L18,17 Z M11.5,10.5 A1.5 1.5 0 1 1 11.5,13.5 A1.5 1.5 0 0 1 11.5,10.5"/>
</svg>

