<svg xmlns="http://www.w3.org/2000/svg" width="24" height="24">
  <defs/>
  <path  d="M16,3.77 L16,20.23 C16,20.671 15.806,21.089 15.469,21.374 C15.133,21.659 14.688,21.782 14.253,21.709 L5.671,20.279 C4.707,20.118 4,19.284 4,18.306 L4,5.694 C4,4.716 4.707,3.882 5.671,3.721 L14.253,2.291 C14.688,2.218 15.133,2.341 15.47,2.626 C15.806,2.911 16,3.329 16,3.77 Z M18,5 C19.047,5 19.917,5.806 19.995,6.85 L20,7 L20,17 C20,18.047 19.194,18.917 18.15,18.995 L18,19 L17,19 L17,5 Z M11.5,10.5 C10.672,10.5 10,11.172 10,12 C10,12.828 10.672,13.5 11.5,13.5 C12.328,13.5 13,12.828 13,12 C13,11.172 12.328,10.5 11.5,10.5 Z"/>
</svg>

