<svg xmlns="http://www.w3.org/2000/svg" width="24" height="24">
  <defs/>
  <path  d="M10,2 C11.426,1.999 12.744,2.758 13.46,3.99 L13.558,4.172 L14.196,3.804 C15.761,2.9 17.737,3.158 19.018,4.432 C20.299,5.706 20.566,7.681 19.671,9.25 L19.558,9.436 L20.196,9.804 C21.76,10.707 22.525,12.547 22.062,14.293 C21.599,16.039 20.023,17.258 18.217,17.268 L18,17.264 L18,18 C18.001,19.809 16.787,21.393 15.041,21.863 C13.294,22.334 11.449,21.574 10.541,20.01 L10.441,19.828 L9.804,20.196 C8.239,21.1 6.263,20.842 4.982,19.568 C3.701,18.294 3.434,16.319 4.329,14.75 L4.442,14.564 L3.804,14.196 C2.24,13.293 1.475,11.453 1.938,9.707 C2.401,7.961 3.977,6.742 5.783,6.732 L6,6.736 L6,6 C6,3.791 7.791,2 10,2 Z M12.669,14.734 L9.119,16.704 L9.001,16.76 C8.76,16.855 8.491,16.853 8.251,16.754 L8.134,16.696 L6.178,15.566 L6.088,15.702 C5.632,16.459 5.727,17.425 6.322,18.079 C6.916,18.733 7.869,18.919 8.666,18.537 L8.804,18.464 L12.644,16.247 Z M15.357,9.319 L14.033,10.054 L17.515,12.143 L17.622,12.217 C17.825,12.378 17.958,12.613 17.992,12.87 L18,13 L18,15.26 L18.162,15.268 C19.045,15.284 19.834,14.719 20.103,13.878 C20.372,13.036 20.057,12.118 19.329,11.619 L19.196,11.536 Z M17.928,6.268 C17.406,5.364 16.276,5.013 15.334,5.463 L15.196,5.536 L11.356,7.753 L11.331,9.266 L14.881,7.296 C15.148,7.148 15.467,7.129 15.749,7.246 L15.866,7.304 L17.823,8.434 C18.265,7.814 18.333,6.969 17.928,6.268 Z M10,4 C8.953,4 8.083,4.806 8.005,5.85 L8,6 L8,10.434 L9.298,11.213 L9.366,7.153 L9.376,7.023 C9.414,6.766 9.551,6.534 9.757,6.376 L9.866,6.304 L11.823,5.174 L11.755,5.039 C11.404,4.398 10.731,4 10,4 Z M6,8.741 C5.092,8.653 4.239,9.19 3.927,10.047 C3.614,10.904 3.92,11.864 4.672,12.381 L4.804,12.464 L8.644,14.681 L9.967,13.946 L6.486,11.858 C6.224,11.701 6.049,11.433 6.009,11.13 L6,11 Z M14.702,12.787 L14.634,16.847 C14.629,17.152 14.485,17.438 14.243,17.624 L14.134,17.696 L12.178,18.826 C12.557,19.656 13.45,20.125 14.349,19.965 C15.247,19.806 15.924,19.059 15.995,18.149 L16,18 L16,13.566 Z M12.014,11.175 L11.292,11.575 L11.278,12.401 L11.986,12.826 L12.708,12.425 L12.722,11.599 Z"/>
</svg>

