<svg xmlns="http://www.w3.org/2000/svg" width="24" height="24">
  <defs/>
  <path  d="M2.172,4.44 C2.358,4.165 2.668,4 3,4 L14,4 C14.409,4 14.776,4.249 14.928,4.629 L15.679,6.505 L16.019,4.804 C16.112,4.336 16.523,4 17,4 L21,4 C21.299,4 21.583,4.135 21.773,4.366 C21.963,4.598 22.039,4.902 21.98,5.196 L21,10.1 L21,18 C21,19.105 20.105,20 19,20 L6,20 C4.895,20 4,19.105 4,18 L4,10.193 L2.072,5.37 C1.949,5.062 1.986,4.713 2.172,4.438 Z M6,11 L6,18 L15,18 L15,11 Z M14.523,9 L13.323,6 L4.477,6 L5.677,9 Z M17,11 L17,18 L19,18 L19,11 Z M19.18,9 L19.78,6 L17.82,6 L17.22,9 Z M11,16 C11,15.448 11.448,15 12,15 L13,15 C13.552,15 14,15.448 14,16 C14,16.552 13.552,17 13,17 L12,17 C11.448,17 11,16.552 11,16 Z"/>
</svg>

