<svg xmlns="http://www.w3.org/2000/svg" width="24" height="24">
  <defs/>
  <path  d="M10.75,2.567 C11.524,2.12 12.476,2.12 13.25,2.567 L19.544,6.201 C20.317,6.648 20.794,7.473 20.794,8.366 L20.794,15.634 C20.794,16.527 20.317,17.352 19.544,17.799 L13.25,21.433 C12.476,21.88 11.524,21.88 10.75,21.433 L4.456,17.799 C3.683,17.352 3.206,16.527 3.206,15.634 L3.206,8.366 C3.206,7.473 3.683,6.648 4.456,6.201 Z M11,19.268 L11,12.559 C10.914,12.522 10.831,12.48 10.75,12.433 L5.206,9.232 L5.206,15.634 C5.206,15.813 5.301,15.978 5.456,16.067 Z M18.794,9.232 L13.25,12.433 C13.169,12.48 13.086,12.522 13,12.559 L13,19.268 L18.544,16.067 C18.699,15.978 18.794,15.813 18.794,15.634 Z M15.818,6.359 L10.02,9.702 L11.75,10.701 C11.905,10.79 12.095,10.79 12.25,10.701 L17.794,7.5 L15.818,6.36 Z M12.25,4.299 C12.095,4.21 11.905,4.21 11.75,4.299 L6.206,7.5 L8.019,8.547 L13.817,5.204 Z"/>
</svg>

