<svg xmlns="http://www.w3.org/2000/svg" width="24" height="24">
  <defs/>
  <path  d="M3,4 L14,4 C14.409,4 14.777,4.249 14.929,4.629 L15.68,6.505 L16.02,4.804 C16.113,4.337 16.524,4 17,4 L21,4 C21.299,4 21.583,4.135 21.773,4.366 C21.963,4.598 22.039,4.902 21.98,5.196 L21,10.099 L21,18 C21,19.105 20.105,20 19,20 L6,20 C4.895,20 4,19.105 4,18 L4,10.193 L2.072,5.371 C1.949,5.063 1.987,4.714 2.173,4.439 C2.358,4.165 2.668,4 3,4 Z M12,15 C11.448,15 11,15.448 11,16 C11,16.552 11.448,17 12,17 L13,17 C13.552,17 14,16.552 14,16 C14,15.448 13.552,15 13,15 Z"/>
</svg>

