<svg xmlns="http://www.w3.org/2000/svg" width="24" height="24">
  <defs/>
  <path  d="M20.626,2.483 C21.021,2.347 21.459,2.449 21.755,2.744 C22.05,3.04 22.152,3.478 22.016,3.873 L21.851,4.344 L21.664,4.848 L21.427,5.455 L21.243,5.907 L21.038,6.389 L20.928,6.639 L20.695,7.152 C20.016,8.607 19.083,10.308 17.967,11.482 C16.902,12.602 15.294,13.635 14.007,14.368 C14.352,16.019 13.841,17.733 12.647,18.925 C10.377,21.195 7.84,21.195 5.953,20.635 C4.921,20.332 3.951,19.848 3.089,19.205 L2.809,18.982 L2.224,18.487 C2.13,18.408 2.079,18.291 2.084,18.168 C2.089,18.046 2.151,17.933 2.251,17.863 L2.583,17.626 C3.311,17.096 4.062,16.444 4.241,15.546 C4.274,15.38 4.296,15.212 4.314,15.044 L4.364,14.537 C4.381,14.368 4.406,14.2 4.438,14.033 C4.576,13.344 4.868,12.562 5.575,11.853 C6.767,10.659 8.481,10.148 10.132,10.493 C10.865,9.206 11.897,7.598 13.018,6.533 C14.192,5.417 15.893,4.483 17.348,3.805 L17.861,3.572 L18.355,3.357 L19.045,3.072 L19.46,2.909 L20.156,2.649 Z M11.232,13.268 C10.061,12.097 8.161,12.097 6.99,13.268 C6.637,13.62 6.484,14.002 6.399,14.425 C6.367,14.592 6.343,14.76 6.326,14.929 L6.301,15.182 C6.277,15.435 6.252,15.689 6.202,15.939 C6.022,16.843 5.493,17.589 5.052,18.087 C5.518,18.35 6.011,18.562 6.523,18.717 C7.907,19.129 9.613,19.129 11.233,17.51 C12.404,16.339 12.404,14.439 11.233,13.268 Z M6,1 C6.382,1 6.73,1.217 6.898,1.56 L6.946,1.677 L7.076,2.055 C7.354,2.869 7.967,3.524 8.76,3.855 L8.945,3.925 L9.323,4.054 C9.706,4.185 9.972,4.533 9.998,4.937 C10.023,5.341 9.803,5.72 9.44,5.898 L9.323,5.946 L8.945,6.076 C8.131,6.354 7.476,6.967 7.145,7.76 L7.075,7.945 L6.946,8.323 C6.815,8.706 6.467,8.972 6.063,8.998 C5.659,9.023 5.28,8.803 5.102,8.44 L5.054,8.323 L4.924,7.945 C4.646,7.131 4.033,6.476 3.24,6.145 L3.055,6.075 L2.677,5.946 C2.294,5.815 2.028,5.467 2.002,5.063 C1.977,4.659 2.197,4.28 2.56,4.102 L2.677,4.054 L3.055,3.924 C3.869,3.646 4.524,3.033 4.855,2.24 L4.925,2.055 L5.054,1.677 C5.192,1.272 5.572,1 6,1 Z M19.422,5.078 C19.039,5.237 18.623,5.418 18.193,5.618 C16.785,6.275 15.327,7.098 14.397,7.982 C14.24,8.132 14.083,8.297 13.927,8.475 C14.289,8.675 14.709,8.965 15.122,9.379 C15.536,9.792 15.825,10.212 16.026,10.574 C16.204,10.418 16.37,10.261 16.519,10.104 C17.403,9.174 18.226,7.716 18.883,6.307 C19.083,5.877 19.263,5.461 19.423,5.078 Z M12.712,10.103 C12.453,10.498 12.207,10.901 11.98,11.293 C12.457,11.628 12.873,12.044 13.208,12.521 C13.599,12.294 14.003,12.048 14.398,11.789 L14.368,11.722 C14.203,11.376 13.98,11.061 13.708,10.792 C13.468,10.551 13.192,10.347 12.891,10.189 Z M6,4.196 C5.763,4.494 5.494,4.763 5.196,5 C5.494,5.236 5.764,5.506 6,5.804 C6.236,5.506 6.506,5.236 6.804,5 C6.506,4.763 6.237,4.494 6,4.196 Z"/>
</svg>

