<svg xmlns="http://www.w3.org/2000/svg" width="24" height="24">
  <defs/>
  <path  d="M11.197,2.749 L11.335,2.822 L19.129,7.322 A2 2 0 0 1 19.934,9.915 L19.861,10.054 L13.861,20.446 A2 2 0 0 1 11.268,21.251 L11.129,21.178 L3.335,16.678 A2 2 0 0 1 2.53,14.084 L2.603,13.946 L7.103,6.152 L5.371,5.152 A1 1 0 0 1 6.267,3.367 L6.371,3.42 L8.103,4.42 L8.603,3.554 A2 2 0 0 1 11.048,2.684 Z M20.303,11.229 L20.5,11 L20.576,11.087 L20.774,11.322 L20.951,11.542 L21.148,11.8 L21.352,12.084 C21.69,12.573 22,13.124 22,13.5 A1.5 1.5 0 0 1 19,13.5 C19,13.048 19.446,12.345 19.852,11.8 L20.049,11.542 L20.303,11.23 Z M10.335,4.554 L9.835,5.42 L10.701,5.92 A1 1 0 0 1 9.701,7.652 L8.835,7.152 L7.191,10 L17.583,10 L18.129,9.054 Z"/>
</svg>

