<svg xmlns="http://www.w3.org/2000/svg" width="24" height="24">
  <defs/>
  <path  d="M22.017,3.874 L21.427,5.455 C21.185,6.022 20.941,6.587 20.695,7.152 C20.017,8.607 19.083,10.308 17.968,11.482 C16.902,12.602 15.294,13.635 14.006,14.368 C14.351,16.019 13.84,17.733 12.646,18.925 C10.376,21.195 7.84,21.195 5.954,20.635 C4.524,20.209 3.348,19.437 2.224,18.487 C2.13,18.408 2.079,18.291 2.084,18.168 C2.089,18.046 2.151,17.933 2.251,17.863 L2.751,17.501 C3.423,16.994 4.076,16.375 4.241,15.546 C4.356,14.621 4.421,14.116 4.438,14.033 C4.576,13.344 4.868,12.562 5.576,11.853 C6.768,10.66 8.481,10.148 10.132,10.493 C10.865,9.206 11.898,7.598 13.018,6.533 C14.192,5.417 15.893,4.483 17.348,3.805 L19.045,3.072 L20.626,2.483 C21.021,2.347 21.46,2.448 21.756,2.743 C22.052,3.039 22.153,3.477 22.017,3.873 Z M19.422,5.078 C19.039,5.237 18.622,5.418 18.192,5.618 C16.784,6.275 15.326,7.098 14.396,7.982 C14.232,8.139 14.075,8.304 13.926,8.475 C14.288,8.675 14.708,8.965 15.121,9.379 C15.535,9.792 15.825,10.212 16.025,10.574 C16.203,10.418 16.369,10.261 16.518,10.104 C17.402,9.174 18.225,7.716 18.882,6.307 C19.082,5.877 19.263,5.461 19.422,5.078 Z M11.98,11.293 C12.457,11.628 12.872,12.044 13.207,12.521 C13.599,12.294 14.002,12.048 14.397,11.789 L14.367,11.722 C14.202,11.376 13.979,11.062 13.707,10.792 C13.467,10.551 13.191,10.347 12.89,10.189 L12.711,10.103 C12.452,10.498 12.206,10.901 11.979,11.293 Z"/>
</svg>

