<svg xmlns="http://www.w3.org/2000/svg" width="24" height="24">
  <defs/>
  <path  d="M3,5 C3,3.343 4.343,2 6,2 L16,2 C17.657,2 19,3.343 19,5 L20,5 C21.105,5 22,5.895 22,7 L22,8.38 C22,10.949 20.053,13.1 17.497,13.355 L12,13.905 L12,14 C13.105,14 14,14.895 14,16 L14,20 C14,21.105 13.105,22 12,22 L10,22 C8.895,22 8,21.105 8,20 L8,16 C8,14.895 8.895,14 10,14 L10,13.905 C10,12.878 10.779,12.017 11.801,11.915 L17.299,11.365 C18.832,11.211 20,9.921 20,8.38 L20,7 L19,7 C19,8.657 17.657,10 16,10 L6,10 C4.343,10 3,8.657 3,7 Z M6,4 C5.448,4 5,4.448 5,5 L5,7 C5,7.552 5.448,8 6,8 L16,8 C16.552,8 17,7.552 17,7 L17,5 C17,4.448 16.552,4 16,4 Z M12,16 L10,16 L10,20 L12,20 Z"/>
</svg>

