<svg xmlns="http://www.w3.org/2000/svg" width="24" height="24">
  <defs/>
  <path  d="M20.626,2.483 A1.094 1.094 0 0 1 22.016,3.873 L21.851,4.344 L21.591,5.04 L21.428,5.455 L21.243,5.907 L21.038,6.389 L20.814,6.894 L20.694,7.152 C20.017,8.607 19.084,10.308 17.967,11.482 C16.902,12.602 15.294,13.635 14.007,14.368 A4.996 4.996 0 0 1 12.647,18.925 C10.377,21.195 7.84,21.195 5.953,20.635 C4.523,20.209 3.348,19.437 2.224,18.487 A0.394 0.394 0 0 1 2.251,17.863 L2.583,17.626 C3.311,17.096 4.062,16.444 4.241,15.546 C4.275,15.38 4.296,15.212 4.314,15.044 L4.364,14.537 A5.6 5.6 0 0 1 4.438,14.033 C4.576,13.344 4.868,12.562 5.575,11.853 A4.996 4.996 0 0 1 10.132,10.493 C10.865,9.206 11.897,7.598 13.018,6.533 C14.192,5.417 15.893,4.483 17.348,3.805 L17.861,3.572 L18.111,3.462 L18.593,3.257 L19.257,2.987 L19.833,2.767 L20.423,2.554 Z M12.711,10.103 C12.452,10.498 12.206,10.901 11.979,11.293 A5.028 5.028 0 0 1 13.207,12.521 C13.599,12.294 14.002,12.048 14.397,11.789 L14.367,11.722 A3.312 3.312 0 0 0 13.707,10.792 A3.353 3.353 0 0 0 12.89,10.189 Z M19.421,5.078 C19.038,5.237 18.622,5.418 18.193,5.618 C16.783,6.275 15.326,7.098 14.396,7.982 A7.63 7.63 0 0 0 13.926,8.475 C14.288,8.675 14.708,8.965 15.121,9.379 C15.535,9.792 15.825,10.212 16.025,10.574 A7.64 7.64 0 0 0 16.518,10.104 C17.402,9.174 18.225,7.716 18.882,6.307 C19.082,5.877 19.262,5.461 19.422,5.078 M6,1 A1 1 0 0 1 6.898,1.56 L6.946,1.677 L7.076,2.055 A3 3 0 0 0 8.76,3.855 L8.945,3.925 L9.323,4.054 A1 1 0 0 1 9.44,5.898 L9.323,5.946 L8.945,6.076 A3 3 0 0 0 7.145,7.76 L7.075,7.945 L6.946,8.323 A1 1 0 0 1 5.102,8.44 L5.054,8.323 L4.924,7.945 A3 3 0 0 0 3.24,6.145 L3.055,6.075 L2.677,5.946 A1 1 0 0 1 2.56,4.102 L2.677,4.054 L3.055,3.924 A3 3 0 0 0 4.855,2.24 L4.925,2.055 L5.054,1.677 A1 1 0 0 1 6,1"/>
</svg>

