<svg xmlns="http://www.w3.org/2000/svg" width="24" height="24">
  <defs/>
  <path  d="M22.017,3.874 L21.427,5.455 L20.695,7.152 C20.016,8.607 19.083,10.308 17.967,11.482 C16.902,12.602 15.294,13.635 14.007,14.368 C14.352,16.019 13.841,17.733 12.647,18.925 C10.377,21.195 7.84,21.195 5.953,20.635 C4.921,20.332 3.951,19.848 3.089,19.205 L2.224,18.487 C2.13,18.408 2.079,18.291 2.084,18.168 C2.089,18.046 2.151,17.933 2.251,17.863 L2.583,17.626 C3.311,17.096 4.062,16.444 4.241,15.546 C4.356,14.621 4.421,14.116 4.438,14.033 C4.576,13.344 4.868,12.562 5.575,11.853 C6.767,10.659 8.481,10.148 10.132,10.493 C10.865,9.206 11.897,7.598 13.018,6.533 C14.192,5.417 15.893,4.483 17.348,3.805 L19.044,3.072 L20.626,2.483 C21.021,2.347 21.459,2.449 21.755,2.744 C22.05,3.04 22.152,3.478 22.016,3.873 Z M6.99,13.268 C6.637,13.62 6.484,14.002 6.399,14.425 C6.285,15.351 6.219,15.855 6.202,15.939 C6.022,16.843 5.493,17.589 5.052,18.087 C5.518,18.35 6.011,18.562 6.523,18.717 C7.907,19.129 9.613,19.129 11.233,17.51 C12.001,16.754 12.305,15.644 12.029,14.603 C11.752,13.561 10.939,12.748 9.897,12.472 C8.855,12.196 7.746,12.5 6.99,13.268 Z M19.422,5.078 C19.038,5.237 18.622,5.418 18.192,5.618 C16.784,6.275 15.326,7.098 14.396,7.982 C14.239,8.132 14.082,8.297 13.926,8.475 C14.288,8.675 14.708,8.965 15.121,9.379 C15.535,9.792 15.824,10.212 16.025,10.574 C16.203,10.418 16.369,10.261 16.518,10.104 C17.402,9.174 18.225,7.716 18.882,6.307 C19.082,5.877 19.262,5.461 19.422,5.078 Z M11.98,11.293 C12.457,11.628 12.872,12.044 13.207,12.521 C13.598,12.294 14.002,12.048 14.397,11.789 L14.367,11.722 C14.202,11.376 13.979,11.061 13.707,10.792 C13.467,10.551 13.191,10.347 12.89,10.189 L12.71,10.103 C12.452,10.498 12.206,10.901 11.98,11.293 Z"/>
</svg>

