<svg xmlns="http://www.w3.org/2000/svg" width="24" height="24">
  <defs/>
  <path  d="M18.305,8.62 C18.206,8.676 18.104,8.727 18,8.772 L18,11 L18.559,11 C19.315,11 19.953,11.563 20.047,12.314 L20.883,19 L21,19 C21.552,19 22,19.448 22,20 C22,20.552 21.552,21 21,21 L15.078,21 C14.483,21 14,20.517 14,19.922 L14,19 C14,17.895 13.105,17 12,17 C10.895,17 10,17.895 10,19 L10,19.922 C10,20.517 9.517,21 8.922,21 L3,21 C2.448,21 2,20.552 2,20 C2,19.448 2.448,19 3,19 L3.117,19 L3.953,12.314 C4.047,11.563 4.685,11 5.441,11 L6,11 L6,8.772 C5.896,8.727 5.794,8.677 5.696,8.621 C5.017,8.234 4.351,7.509 4.034,6.258 C3.888,5.684 4.289,5.003 5.008,5 C5.785,4.997 6.742,4.605 7.05,3.688 C7.184,3.288 7.562,3 8.007,3 L15.993,3 C16.438,3 16.816,3.288 16.95,3.688 C17.258,4.605 18.215,4.997 18.992,5 C19.711,5.003 20.112,5.684 19.966,6.258 C19.649,7.509 18.983,8.234 18.304,8.621 Z M8,11 L16,11 L16,9.005 C13.975,9.015 11.95,9.01 9.926,9.005 L8,9.001 Z"/>
</svg>

