<svg xmlns="http://www.w3.org/2000/svg" width="24" height="24">
  <defs/>
  <path  d="M15.993,3 C16.397,3 16.746,3.238 16.908,3.582 L16.95,3.688 C17.258,4.605 18.215,4.997 18.992,5 C19.711,5.003 20.112,5.684 19.966,6.258 C19.649,7.509 18.983,8.234 18.304,8.621 C18.206,8.677 18.104,8.727 18,8.772 L18,11 L18.559,11 C19.315,11 19.953,11.563 20.047,12.314 L20.883,19 L21,19 C21.552,19 22,19.448 22,20 C22,20.552 21.552,21 21,21 L14.078,21 C13.483,21 13,20.517 13,19.922 L13,18 C13,17.448 12.552,17 12,17 C11.448,17 11,17.448 11,18 L11,19.922 C11,20.517 10.517,21 9.922,21 L3,21 C2.448,21 2,20.552 2,20 C2,19.448 2.448,19 3,19 L3.117,19 L3.953,12.314 C4.047,11.563 4.685,11 5.441,11 L6,11 L6,8.772 C5.896,8.727 5.794,8.677 5.696,8.621 C5.017,8.234 4.351,7.509 4.034,6.258 C3.888,5.684 4.289,5.003 5.008,5 C5.737,4.997 6.623,4.652 6.985,3.854 L7.05,3.688 C7.184,3.288 7.562,3 8.007,3 Z M18.117,13 L5.883,13 L5.133,19 L9,19 L9,18 C9,16.343 10.343,15 12,15 C13.657,15 15,16.343 15,18 L15,19 L18.867,19 Z M8.646,5 C8.125,5.921 7.3,6.458 6.49,6.74 C6.637,6.88 6.823,6.971 7.024,7 L16.978,7 C17.179,6.971 17.365,6.88 17.512,6.74 C16.702,6.458 15.876,5.921 15.355,5 L8.646,5 Z M16,9 L8,9 L8,11 L16,11 Z"/>
</svg>

