<svg xmlns="http://www.w3.org/2000/svg" width="24" height="24">
  <defs/>
  <path  d="M12,2 C17.523,2 22,6.477 22,12 C22,12.649 21.938,13.284 21.82,13.9 C21.447,15.835 19.56,16.691 17.913,16.495 L17.738,16.47 L15.998,16.18 C15.587,16.112 15.169,16.246 14.874,16.54 C14.504,16.91 14.327,17.419 14.576,17.916 C14.999,18.762 15.005,19.728 14.631,20.519 C14.131,21.58 13.11,22 12,22 C6.477,22 2,17.523 2,12 C2,6.477 6.477,2 12,2 Z M7.5,11 C6.672,11 6,11.672 6,12.5 C6,13.328 6.672,14 7.5,14 C8.328,14 9,13.328 9,12.5 C9,11.672 8.328,11 7.5,11 Z M9.5,7 C8.672,7 8,7.672 8,8.5 C8,9.328 8.672,10 9.5,10 C10.328,10 11,9.328 11,8.5 C11,7.672 10.328,7 9.5,7 Z M14.5,7 C13.672,7 13,7.672 13,8.5 C13,9.328 13.672,10 14.5,10 C15.328,10 16,9.328 16,8.5 C16,7.672 15.328,7 14.5,7 Z"/>
</svg>

