<svg xmlns="http://www.w3.org/2000/svg" width="24" height="24">
  <defs/>
  <path  d="M11,3 C11.48,3 11.922,3.17 12.267,3.452 L17.098,6.242 C17.514,6.482 17.811,6.849 17.968,7.266 L20.758,12.098 A2 2 0 0 1 20.026,14.83 L10.579,20.285 A5.074 5.074 0 0 1 8.021,21 A5.064 5.064 0 0 1 5.419,20.282 A4.966 4.966 0 0 1 4.007,19.009 A4.978 4.978 0 0 1 3,16 L3,5 A2 2 0 0 1 5,3 Z M10.947,5 L5,5 L5,16 C5,17.625 6.362,19 8,19 C9.634,19 11,17.626 11,16 L11,5.03 Z M8,14.5 A1.5 1.5 0 1 1 8,17.5 A1.5 1.5 0 0 1 8,14.5 M17.238,10 L13.66,16.196 L19.026,13.098 Z M13,6.185 L13,13.34 L16.083,8 L16.053,7.948 Z"/>
</svg>

