<svg xmlns="http://www.w3.org/2000/svg" width="24" height="24">
  <defs/>
  <path  d="M10,3 C11.105,3 12,3.895 12,5 L12,19 C12,20.105 11.105,21 10,21 L5,21 C3.895,21 3,20.105 3,19 L3,5 C3,3.895 3.895,3 5,3 Z M13.636,4 C14.37,3.266 15.543,3.215 16.337,3.883 L16.464,4 L20,7.536 C20.695,8.231 20.782,9.329 20.204,10.125 L13,17.357 L13,4.636 Z M19.66,12.111 C20.391,12.367 20.93,13.035 20.994,13.838 L21,19 C21,20.047 20.194,20.917 19.15,20.995 L19,21 L13,21 L13,18.77 Z M7.5,15 C6.672,15 6,15.672 6,16.5 C6,17.328 6.672,18 7.5,18 C8.328,18 9,17.328 9,16.5 C9,15.672 8.328,15 7.5,15 Z"/>
</svg>

