<svg xmlns="http://www.w3.org/2000/svg" width="24" height="24">
  <defs/>
  <path  d="M12.267,3.452 L17.098,6.242 C17.498,6.472 17.806,6.835 17.968,7.267 L20.758,12.098 C21.31,13.055 20.983,14.278 20.026,14.83 L10.581,20.283 C9.8,20.756 8.903,21.004 7.99,21.001 C7.112,21.001 6.249,20.767 5.49,20.325 C4.734,19.888 4.106,19.26 3.67,18.503 C3.215,17.713 2.983,16.814 2.999,15.903 L2.999,5 C2.999,3.895 3.894,3 4.999,3 L10.579,3 C10.876,2.951 11.18,2.97 11.469,3.055 C11.767,3.127 12.037,3.265 12.267,3.452 Z M13,13.34 L16.098,7.974 L13,6.185 Z M19.026,13.098 L17.238,10 L13.66,16.196 Z M9.5,16 C9.5,15.172 8.828,14.5 8,14.5 C7.172,14.5 6.5,15.172 6.5,16 C6.5,16.828 7.172,17.5 8,17.5 C8.828,17.5 9.5,16.828 9.5,16 Z"/>
</svg>

