<svg xmlns="http://www.w3.org/2000/svg" width="24" height="24">
  <defs/>
  <path  d="M12,2 C17.523,2 22,6.477 22,12 C22,12.649 21.938,13.284 21.82,13.9 C21.434,15.904 19.423,16.75 17.738,16.47 L15.998,16.18 A1.29 1.29 0 0 0 14.874,16.54 C14.504,16.91 14.327,17.419 14.576,17.916 C14.999,18.762 15.005,19.728 14.631,20.519 C14.131,21.58 13.11,22 12,22 C6.477,22 2,17.523 2,12 C2,6.477 6.477,2 12,2 M12,4 A8 8 0 1 0 12,20 L12.195,19.998 C12.453,19.988 12.695,19.938 12.823,19.666 A0.993 0.993 0 0 0 12.787,18.811 C12.157,17.549 12.485,16.101 13.46,15.126 A3.29 3.29 0 0 1 16.327,14.207 L18.067,14.497 C19.024,14.657 19.735,14.149 19.856,13.522 A8 8 0 0 0 12,4 M7.5,11 A1.5 1.5 0 1 1 7.5,14 A1.5 1.5 0 0 1 7.5,11 M14.5,7 A1.5 1.5 0 1 1 14.5,10 A1.5 1.5 0 0 1 14.5,7 M9.5,7 A1.5 1.5 0 1 1 9.5,10 A1.5 1.5 0 0 1 9.5,7"/>
</svg>

