<svg xmlns="http://www.w3.org/2000/svg" width="24" height="24">
  <defs/>
  <path  d="M2,6.809 C2,5.689 3.15,5.004 4.119,5.402 C5.437,5.945 8.465,7 12,7 C15.535,7 18.563,5.945 19.881,5.402 C20.85,5.004 22,5.69 22,6.81 L22,17.192 C22,18.312 20.85,18.997 19.881,18.599 C18.563,18.056 15.535,17 12,17 C8.465,17 5.437,18.056 4.119,18.598 C3.15,18.996 2,18.31 2,17.19 Z M4,7.504 L4,16.497 C5.653,15.879 8.599,15 12,15 C15.401,15 18.347,15.88 20,16.497 L20,7.504 C18.347,8.12 15.401,9 12,9 C8.599,9 5.653,8.121 4,7.504 Z"/>
</svg>

