<svg xmlns="http://www.w3.org/2000/svg" width="24" height="24">
  <defs/>
  <path  d="M4.626,11.514 L4.625,11.514 C6.328,8.448 5.713,5.358 5.301,4.016 C5.015,3.085 5.675,2 6.77,2 L18.35,2 C19.132,2 19.908,2.469 20.174,3.305 C20.649,4.785 21.521,8.622 19.374,12.486 C17.671,15.552 18.286,18.642 18.698,19.984 C18.984,20.915 18.325,22 17.23,22 L5.65,22 C4.868,22 4.092,21.531 3.826,20.695 C3.351,19.215 2.479,15.378 4.626,11.514 Z M5.703,20 L16.626,20 C16.176,18.216 15.759,14.874 17.626,11.514 C19.337,8.433 18.707,5.327 18.297,4 L7.374,4 C7.824,5.784 8.241,9.126 6.374,12.486 C4.663,15.567 5.293,18.673 5.703,20 Z M9,9 C9,8.448 9.448,8 10,8 L16,8 C16.552,8 17,8.448 17,9 C17,9.552 16.552,10 16,10 L10,10 C9.448,10 9,9.552 9,9 Z M9,12 L12,12 C12.552,12 13,12.448 13,13 C13,13.552 12.552,14 12,14 L9,14 C8.448,14 8,13.552 8,13 C8,12.448 8.448,12 9,12 Z"/>
</svg>

