<svg xmlns="http://www.w3.org/2000/svg" width="24" height="24">
  <defs/>
  <path  d="M18.35,2 C19.131,2 19.907,2.47 20.175,3.305 L20.251,3.551 L20.33,3.831 L20.41,4.147 L20.487,4.493 L20.56,4.869 L20.594,5.067 L20.655,5.484 C20.885,7.274 20.812,9.714 19.533,12.189 L19.374,12.486 C18.032,14.901 18.129,17.332 18.432,18.911 L18.506,19.26 L18.544,19.422 L18.621,19.722 L18.698,19.984 C18.972,20.874 18.38,21.906 17.371,21.994 L17.231,22 L5.65,22 C4.87,22 4.093,21.53 3.825,20.695 L3.75,20.449 L3.67,20.169 L3.59,19.853 L3.513,19.507 L3.44,19.131 C3.416,19.001 3.394,18.867 3.374,18.728 L3.319,18.298 L3.277,17.844 C3.15,16.14 3.342,13.989 4.467,11.811 L4.626,11.514 C5.968,9.1 5.87,6.668 5.568,5.09 L5.495,4.741 L5.456,4.579 L5.379,4.279 L5.302,4.017 C5.028,3.127 5.62,2.095 6.629,2.007 L6.77,2 Z M16,8 L10,8 C9.471,8.001 9.034,8.413 9.003,8.941 C8.972,9.47 9.358,9.931 9.883,9.993 L10,10 L16,10 C16.529,9.999 16.966,9.587 16.997,9.059 C17.028,8.53 16.642,8.069 16.117,8.007 Z M12,12 L9,12 C8.448,12 8,12.448 8,13 C8,13.552 8.448,14 9,14 L12,14 C12.552,14 13,13.552 13,13 C13,12.448 12.552,12 12,12 Z"/>
</svg>

