<svg xmlns="http://www.w3.org/2000/svg" width="24" height="24">
  <defs/>
  <path  d="M16,3 A3 3 0 0 1 18.995,5.824 L19,6 L19,16 L19.75,16 C20.397,16 20.93,16.492 20.994,17.122 L21,17.25 L21,19 A3 3 0 0 1 18.176,21.995 L18,22 L8,22 A3 3 0 0 1 5.005,19.176 L5,19 L5,9 L3.25,9 A1.25 1.25 0 0 1 2.006,7.878 L2,7.75 L2,6 A3 3 0 0 1 4.824,3.005 L5,3 Z M19,18 L10,18 L10,19 C10,19.35 9.94,19.687 9.83,20 L18,20 A1 1 0 0 0 19,19 Z M12,12 L10,12 A1 1 0 0 0 9.883,13.993 L10,14 L12,14 A1 1 0 0 0 12.117,12.007 Z M14,8 L10,8 A1 1 0 0 0 10,10 L14,10 A1 1 0 1 0 14,8 M5,5 A1 1 0 0 0 4,6 L4,7 L5,7 Z"/>
</svg>

