<svg xmlns="http://www.w3.org/2000/svg" width="24" height="24">
  <defs/>
  <path  d="M16,3 A3 3 0 0 1 18.995,5.824 L19,6 L19,16 L19.75,16 C20.397,16 20.93,16.492 20.994,17.122 L21,17.25 L21,19 A3 3 0 0 1 18.176,21.995 L18,22 L8,22 A3 3 0 0 1 5.005,19.176 L5,19 L5,9 L3.25,9 A1.25 1.25 0 0 1 2.006,7.878 L2,7.75 L2,6 A3 3 0 0 1 4.824,3.005 L5,3 Z M16,5 L7,5 L7,19 A1 1 0 1 0 9,19 L9,17.25 C9,16.56 9.56,16 10.25,16 L17,16 L17,6 A1 1 0 0 0 16,5 M19,18 L11,18 L11,19 C11,19.35 10.94,19.687 10.83,20 L18,20 A1 1 0 0 0 19,19 Z M12,12 A1 1 0 1 1 12,14 L10,14 A1 1 0 1 1 10,12 Z M14,8 A1 1 0 1 1 14,10 L10,10 A1 1 0 0 1 10,8 Z M5,5 A1 1 0 0 0 4.007,5.883 L4,6 L4,7 L5,7 Z"/>
</svg>

