<svg xmlns="http://www.w3.org/2000/svg" width="24" height="24">
  <defs/>
  <path  d="M18,3 C18.529,3.001 18.966,3.413 18.997,3.941 C19.028,4.47 18.642,4.931 18.117,4.993 L18,5 L17,5 L17,19 L18,19 C18.529,19.001 18.966,19.413 18.997,19.941 C19.028,20.47 18.642,20.931 18.117,20.993 L18,21 L10,21 C9.471,20.999 9.034,20.587 9.003,20.059 C8.972,19.53 9.358,19.069 9.883,19.007 L10,19 L11,19 L11,14 L9.5,14 C6.501,14.006 4.05,11.609 3.99,8.611 C3.929,5.612 6.282,3.118 9.279,3.004 L9.5,3 Z M11,5 L9.5,5 C7.602,4.997 6.048,6.507 5.996,8.404 C5.944,10.301 7.413,11.894 9.308,11.995 L9.5,12 L11,12 Z M15,5 L13,5 L13,19 L15,19 Z"/>
</svg>

