<svg xmlns="http://www.w3.org/2000/svg" width="24" height="24">
  <defs/>
  <path  d="M18,2.5 C18.8,2.5 19.459,3.129 19.498,3.928 C19.536,4.727 18.94,5.416 18.144,5.493 L18,5.5 L17.5,5.5 L17.5,18.5 L18,18.5 C18.8,18.5 19.459,19.129 19.498,19.928 C19.536,20.727 18.94,21.416 18.144,21.493 L18,21.5 L10,21.5 C9.2,21.5 8.541,20.871 8.502,20.072 C8.464,19.273 9.06,18.584 9.856,18.507 L10,18.5 L10.5,18.5 L10.5,14.5 L9.5,14.5 C6.228,14.503 3.556,11.884 3.495,8.613 C3.434,5.341 6.005,2.623 9.275,2.504 L9.5,2.5 Z M10.5,5.5 L9.5,5.5 C7.876,5.498 6.546,6.789 6.498,8.412 C6.451,10.035 7.703,11.401 9.324,11.495 L9.5,11.5 L10.5,11.5 Z M14.5,5.5 L13.5,5.5 L13.5,18.5 L14.5,18.5 Z"/>
</svg>

