<svg xmlns="http://www.w3.org/2000/svg" width="24" height="24">
  <defs/>
  <path  d="M10.17,19.442 C9.231,19.078 8.327,18.628 7.47,18.098 C5.353,16.775 3,14.511 3,11 C3,6.029 7.029,2 12,2 C16.971,2 21,6.029 21,11 C21,14.51 18.647,16.775 16.53,18.098 C15.673,18.628 14.769,19.078 13.83,19.442 C13.937,19.602 14,19.794 14,20 L14,21 C14,21.552 13.552,22 13,22 L11,22 C10.448,22 10,21.552 10,21 L10,20 C10,19.794 10.063,19.602 10.17,19.442 Z M18.45,13.357 C18.594,13.065 18.56,12.707 18.315,12.493 C17.792,12.036 17.069,11.884 16.406,12.09 C15.743,12.296 15.234,12.832 15.062,13.505 C14.994,13.773 14.776,14 14.5,14 C14.224,14 14.006,13.773 13.938,13.505 C13.712,12.619 12.914,11.999 12,11.999 C11.086,11.999 10.288,12.619 10.062,13.505 C9.994,13.773 9.776,14 9.5,14 C9.224,14 9.006,13.773 8.938,13.505 C8.766,12.832 8.257,12.296 7.594,12.09 C6.931,11.884 6.208,12.036 5.685,12.493 C5.44,12.707 5.405,13.065 5.551,13.357 C6.189,14.642 7.31,15.639 8.53,16.402 C9.529,17.018 10.599,17.512 11.716,17.872 C11.901,17.932 12.099,17.932 12.284,17.872 C13.401,17.512 14.471,17.018 15.47,16.402 C16.69,15.639 17.812,14.642 18.45,13.357 Z"/>
</svg>

