<svg xmlns="http://www.w3.org/2000/svg" width="24" height="24">
  <defs/>
  <path  d="M5.673,3.293 A1.5 1.5 0 1 1 8.32,4.707 A15.425 15.425 0 0 0 6.5,12 C6.5,14.64 7.159,17.121 8.32,19.293 A1.5 1.5 0 1 1 5.673,20.707 A18.425 18.425 0 0 1 3.5,12 C3.5,8.855 4.286,5.89 5.673,3.293 M18.323,3.293 A18.426 18.426 0 0 1 20.496,12 C20.496,15.145 19.71,18.11 18.323,20.707 A1.5 1.5 0 0 1 15.677,19.293 A15.425 15.425 0 0 0 17.497,12 C17.497,9.36 16.837,6.88 15.677,4.707 A1.5 1.5 0 0 1 18.323,3.293"/>
</svg>

