<svg xmlns="http://www.w3.org/2000/svg" width="24" height="24">
  <defs/>
  <path  d="M8,4 C8,2.895 8.895,2 10,2 L14,2 C15.105,2 16,2.895 16,4 L16,5 C16,6.105 15.105,7 14,7 L13,7 L13,8 L17,8 C18.657,8 20,9.343 20,11 L20,19 C20,20.657 18.657,22 17,22 L7,22 C5.343,22 4,20.657 4,19 L4,11 C4,9.343 5.343,8 7,8 L11,8 L11,7 L10,7 C8.895,7 8,6.105 8,5 Z M7,10 C6.448,10 6,10.448 6,11 L6,19 C6,19.552 6.448,20 7,20 L17,20 C17.552,20 18,19.552 18,19 L18,11 C18,10.448 17.552,10 17,10 Z M9,15 C9,13.343 10.343,12 12,12 C13.657,12 15,13.343 15,15 C15,16.657 13.657,18 12,18 C10.343,18 9,16.657 9,15 Z M14,5 L14,4 L10,4 L10,5 Z M12,14 C11.448,14 11,14.448 11,15 C11,15.552 11.448,16 12,16 C12.552,16 13,15.552 13,15 C13,14.448 12.552,14 12,14 Z"/>
</svg>

