<svg xmlns="http://www.w3.org/2000/svg" width="24" height="24">
  <defs/>
  <path  d="M4.707,16.293 A1 1 0 0 1 4.707,17.707 L3.707,18.707 A1 1 0 0 1 2.293,17.293 L3.293,16.293 A1 1 0 0 1 4.707,16.293 M8.776,7.136 A5.25 5.25 0 0 1 11.5,11.738 L11.5,12.262 A5.25 5.25 0 0 1 8.776,16.865 C7.289,17.68 5.331,16.859 5.146,15.019 L5.089,14.369 A30.988 30.988 0 0 1 5.089,9.632 L5.147,8.981 C5.33,7.14 7.289,6.32 8.776,7.136 M3,11 A1 1 0 0 1 3.117,12.993 L3,13 L2,13 A1 1 0 0 1 1.883,11.007 L2,11 Z M3.707,5.293 L4.707,6.293 A1 1 0 0 1 3.293,7.707 L2.293,6.707 A1 1 0 0 1 3.707,5.293 M21.707,5.293 A1 1 0 0 0 20.293,5.293 L19.293,6.293 A1 1 0 0 0 20.707,7.707 L21.707,6.707 A1 1 0 0 0 21.707,5.293 M19.293,16.293 A1 1 0 0 0 19.293,17.707 L20.293,18.707 A1 1 0 0 0 21.707,17.293 L20.707,16.293 A1 1 0 0 0 19.293,16.293 M22,11 A1 1 0 1 1 22,13 L21,13 A1 1 0 1 1 21,11 Z M18.853,8.98 C18.669,7.141 16.71,6.32 15.224,7.136 A5.25 5.25 0 0 0 12.5,11.738 L12.5,12.262 A5.25 5.25 0 0 0 15.224,16.865 C16.71,17.68 18.669,16.859 18.854,15.019 L18.911,14.369 A30.997 30.997 0 0 0 18.911,9.632 L18.853,8.981 Z"/>
</svg>

