<svg xmlns="http://www.w3.org/2000/svg" width="24" height="24">
  <defs/>
  <path  d="M12,2 C17.523,2 22,6.477 22,12 C22,17.523 17.523,22 12,22 C6.477,22 2,17.523 2,12 C2,6.477 6.477,2 12,2 Z M12,4 C7.582,4 4,7.582 4,12 C4,16.418 7.582,20 12,20 C16.418,20 20,16.418 20,12 C20,7.582 16.418,4 12,4 Z M13.5,7 C15.398,6.997 16.952,8.507 17.004,10.404 C17.056,12.301 15.587,13.894 13.692,13.995 L13.5,14 L11,14 L11,16 C10.999,16.529 10.587,16.966 10.059,16.997 C9.53,17.028 9.069,16.642 9.007,16.117 L9,16 L9,9 C9,7.953 9.806,7.083 10.85,7.005 L11,7 Z M13.5,9 L11,9 L11,12 L13.5,12 C14.3,12 14.959,11.371 14.998,10.572 C15.036,9.773 14.44,9.084 13.644,9.007 Z"/>
</svg>

