<svg xmlns="http://www.w3.org/2000/svg" width="24" height="24">
  <defs/>
  <path  d="M12,4 A8 8 0 1 1 12,20 A8 8 0 0 1 12,4 M3.2,5.4 A1 1 0 1 1 4.799,6.6 A8.956 8.956 0 0 0 3,12 C3,14.027 3.67,15.895 4.799,17.4 A1 1 0 0 1 3.199,18.6 A10.956 10.956 0 0 1 1,12 C1,9.525 1.819,7.238 3.2,5.4 M19.4,5.2 A1 1 0 0 1 20.8,5.4 A10.956 10.956 0 0 1 23,12 C23,14.475 22.181,16.762 20.8,18.6 A1 1 0 1 1 19.201,17.4 A8.956 8.956 0 0 0 21,12 C21,9.973 20.33,8.105 19.201,6.6 A1 1 0 0 1 19.401,5.2 Z M13,8 L10.5,8 A1.5 1.5 0 0 0 9.007,9.356 L9,9.5 L9,15 A1 1 0 0 0 10.993,15.117 L11,15 L11,14 L13,14 A3 3 0 1 0 13,8 M13,10 A1 1 0 0 1 13.117,11.993 L13,12 L11,12 L11,10 Z"/>
</svg>

