<svg xmlns="http://www.w3.org/2000/svg" width="24" height="24">
  <defs/>
  <path  d="M3.293,16.293 A1 1 0 0 1 4.79,17.613 L4.707,17.707 L3.707,18.707 A1 1 0 0 1 2.21,17.387 L2.293,17.293 Z M8.776,7.135 A5.25 5.25 0 0 1 11.5,11.738 L11.5,12.262 A5.25 5.25 0 0 1 8.776,16.864 C7.289,17.68 5.331,16.859 5.146,15.019 L5.089,14.369 A30.988 30.988 0 0 1 5.089,9.632 L5.147,8.981 C5.33,7.14 7.289,6.32 8.776,7.135 M7.136,9.18 L7.083,9.785 A28.99 28.99 0 0 0 7.083,14.215 L7.137,14.82 C7.171,15.162 7.541,15.26 7.814,15.111 A3.25 3.25 0 0 0 9.5,12.262 L9.5,11.738 A3.25 3.25 0 0 0 7.814,8.888 C7.541,8.739 7.171,8.838 7.137,9.18 Z M3,11 A1 1 0 1 1 3,13 L2,13 A1 1 0 1 1 2,11 Z M3.707,5.293 L4.707,6.293 A1 1 0 0 1 3.293,7.707 L2.293,6.707 A1 1 0 0 1 3.707,5.293 M21.707,5.293 A1 1 0 0 0 20.293,5.293 L19.293,6.293 A1 1 0 0 0 20.707,7.707 L21.707,6.707 A1 1 0 0 0 21.707,5.293 M18.853,8.98 C18.669,7.14 16.71,6.319 15.224,7.134 A5.25 5.25 0 0 0 12.5,11.737 L12.5,12.261 A5.25 5.25 0 0 0 15.224,16.863 C16.71,17.679 18.669,16.858 18.854,15.018 L18.911,14.368 A30.997 30.997 0 0 0 18.911,9.631 Z M16.863,9.179 L16.917,9.784 A28.991 28.991 0 0 1 16.917,14.214 L16.863,14.819 C16.829,15.161 16.459,15.259 16.186,15.11 A3.25 3.25 0 0 1 14.5,12.261 L14.5,11.737 A3.25 3.25 0 0 1 16.186,8.887 C16.459,8.738 16.829,8.837 16.863,9.179 M19.293,17.706 A1 1 0 0 1 20.707,16.292 L21.707,17.292 A1 1 0 0 1 20.293,18.706 Z M23,12 A1 1 0 0 0 22,11 L21,11 A1 1 0 1 0 21,13 L22,13 A1 1 0 0 0 23,12"/>
</svg>

