<svg xmlns="http://www.w3.org/2000/svg" width="24" height="24">
  <defs/>
  <path  d="M12,4 C13.569,4 15.032,4.452 16.267,5.232 C16.76,4.5 17.599,4.079 18.481,4.121 C19.362,4.162 20.158,4.661 20.58,5.436 C21.59,5.882 22.163,6.961 21.966,8.048 C21.768,9.134 20.852,9.943 19.75,10.005 C20.309,12.178 19.931,14.485 18.707,16.365 C17.483,18.245 15.526,19.525 13.313,19.893 C14.002,18.797 14.185,17.458 13.816,16.217 C13.448,14.976 12.562,13.955 11.387,13.413 C10.545,11.921 8.963,10.998 7.249,11 C6.044,10.998 4.883,11.456 4.004,12.281 L4,12 C4,7.582 7.582,4 12,4 Z M7.25,13 C8.52,13 9.59,13.862 9.906,15.033 C11.161,15.238 12.061,16.352 12,17.622 C11.938,18.892 10.933,19.913 9.664,19.995 L9.5,20 L5,20 C3.989,20 3.137,19.247 3.014,18.243 C2.891,17.24 3.536,16.303 4.517,16.059 C4.429,15.281 4.677,14.502 5.199,13.918 C5.721,13.334 6.467,13 7.25,13 Z M18.361,6.12 C18.112,6.12 17.897,6.294 17.845,6.538 C18.178,6.894 18.479,7.281 18.744,7.694 L18.934,8.009 L19.611,8.009 C19.814,8.01 19.984,7.855 20.001,7.652 C20.017,7.45 19.875,7.268 19.675,7.236 C19.334,7.18 19.045,6.952 18.913,6.632 L18.871,6.509 C18.808,6.279 18.599,6.12 18.361,6.12 Z"/>
</svg>

