<svg xmlns="http://www.w3.org/2000/svg" width="24" height="24">
  <defs/>
  <path  d="M11.95,20 C11.296,20.642 10.416,21.001 9.5,21 L5,21 C3.638,21 2.447,20.083 2.099,18.767 C1.751,17.451 2.333,16.065 3.517,15.392 C3.578,14.755 3.8,14.145 4.164,13.619 C3.514,10.477 4.804,7.25 7.441,5.422 C10.079,3.595 13.553,3.52 16.267,5.232 C16.76,4.5 17.599,4.079 18.481,4.121 C19.362,4.162 20.158,4.661 20.58,5.436 C21.591,5.881 22.165,6.962 21.967,8.049 C21.77,9.136 20.852,9.945 19.749,10.006 C20.366,12.401 19.839,14.947 18.324,16.902 C16.808,18.857 14.473,20 12,20 L11.95,19.999 Z M12,6 C10.372,6 8.814,6.662 7.683,7.833 C6.553,9.004 5.946,10.585 6.004,12.212 C7.838,11.566 9.861,12.428 10.665,14.198 C12.213,14.744 13.173,16.292 12.975,17.921 C16.05,17.404 18.217,14.62 17.963,11.513 C17.708,8.405 15.118,6.01 12,6 Z M7.25,14 C6.749,14 6.298,14.21 5.977,14.549 C5.622,14.923 5.451,15.436 5.511,15.948 C5.566,16.446 5.244,16.908 4.758,17.029 C4.266,17.15 3.943,17.619 4.005,18.122 C4.066,18.624 4.494,19.001 5,19 L9.5,19 C9.898,19.001 10.28,18.843 10.562,18.562 C10.843,18.28 11.001,17.898 11,17.5 C11,16.766 10.469,16.14 9.745,16.02 C9.357,15.957 9.042,15.672 8.94,15.293 C8.733,14.53 8.041,14 7.25,14 Z M18.935,8.009 L19.611,8.009 C19.814,8.01 19.984,7.855 20.001,7.652 C20.017,7.45 19.875,7.268 19.675,7.236 C19.288,7.173 18.973,6.889 18.871,6.51 C18.807,6.275 18.591,6.114 18.347,6.12 C18.103,6.127 17.896,6.3 17.845,6.538 C18.261,6.983 18.628,7.477 18.935,8.009 Z"/>
</svg>

