<svg xmlns="http://www.w3.org/2000/svg" width="24" height="24">
  <defs/>
  <path  d="M13.406,4.015 C14.466,4.199 15.456,4.589 16.331,5.142 C16.844,4.448 17.676,4.065 18.536,4.124 C19.397,4.184 20.167,4.678 20.58,5.436 C21.57,5.873 22.143,6.921 21.976,7.99 C21.809,9.059 20.943,9.883 19.867,9.996 C20.488,12.424 19.953,15.003 18.416,16.982 C16.879,18.961 14.513,20.119 12.007,20.119 L11.824,20.117 C11.184,20.687 10.357,21.001 9.5,21 L5,21 C3.638,21 2.447,20.083 2.099,18.767 C1.751,17.451 2.333,16.065 3.517,15.392 C3.64,14.112 4.41,12.984 5.558,12.403 C6.706,11.823 8.071,11.872 9.175,12.532 C10.588,12.073 11.739,11.034 12.339,9.675 C12.94,8.316 12.934,6.766 12.323,5.412 C12.17,5.074 12.217,4.68 12.444,4.387 C12.671,4.095 13.041,3.951 13.406,4.015 Z M14.71,6.523 C15.168,9.676 13.507,12.757 10.62,14.106 L10.665,14.199 C12.257,14.76 13.221,16.378 12.958,18.045 C15.589,17.63 17.649,15.558 18.049,12.925 C18.449,10.291 17.099,7.702 14.71,6.523 Z M7.25,14 C6.284,14 5.5,14.784 5.5,15.75 L5.503,15.85 L5.511,15.948 C5.562,16.404 5.297,16.836 4.867,16.996 L4.757,17.029 C4.265,17.15 3.942,17.62 4.004,18.122 C4.066,18.625 4.494,19.002 5,19 L9.5,19 C9.964,19 10.379,18.79 10.655,18.457 C10.982,18.062 11.085,17.526 10.927,17.038 C10.769,16.549 10.372,16.176 9.875,16.047 L9.745,16.02 C9.357,15.957 9.042,15.672 8.94,15.293 C8.733,14.53 8.041,14 7.25,14 Z M18.361,6.12 C18.159,6.12 17.974,6.235 17.886,6.417 C18.343,6.898 18.74,7.432 19.067,8.009 L19.611,8.009 C19.812,8.007 19.978,7.852 19.995,7.652 C20.011,7.452 19.873,7.272 19.675,7.237 C19.333,7.181 19.045,6.952 18.913,6.632 L18.871,6.51 C18.809,6.28 18.6,6.12 18.361,6.12 Z"/>
</svg>

