<svg xmlns="http://www.w3.org/2000/svg" width="24" height="24">
  <defs/>
  <path  d="M13.406,4.015 C14.445,4.196 15.439,4.579 16.331,5.142 C16.844,4.448 17.676,4.065 18.536,4.124 C19.397,4.184 20.167,4.678 20.58,5.436 C21.57,5.872 22.143,6.92 21.976,7.99 C21.809,9.059 20.944,9.882 19.868,9.996 C20.436,12.217 20.038,14.575 18.772,16.487 C17.506,18.398 15.491,19.685 13.224,20.029 C13.967,18.935 14.192,17.57 13.838,16.296 C13.484,15.022 12.588,13.968 11.387,13.414 C11.091,12.891 10.699,12.429 10.231,12.052 C11.815,11.111 12.786,9.405 12.785,7.562 C12.786,6.821 12.629,6.088 12.324,5.412 C12.172,5.075 12.218,4.681 12.445,4.388 C12.671,4.095 13.041,3.952 13.406,4.015 Z M7.25,13 C8.52,13 9.59,13.862 9.906,15.033 C11.161,15.238 12.061,16.352 12,17.622 C11.938,18.892 10.933,19.913 9.664,19.995 L9.5,20 L5,20 C3.989,20 3.137,19.247 3.014,18.243 C2.891,17.24 3.536,16.303 4.517,16.059 C4.429,15.281 4.677,14.502 5.199,13.918 C5.721,13.334 6.467,13 7.25,13 Z M18.361,6.12 C18.159,6.12 17.974,6.235 17.886,6.417 C18.343,6.898 18.74,7.432 19.067,8.009 L19.611,8.009 C19.814,8.01 19.984,7.855 20.001,7.652 C20.017,7.45 19.875,7.268 19.675,7.236 C19.334,7.18 19.045,6.952 18.913,6.632 L18.871,6.51 C18.809,6.28 18.6,6.12 18.361,6.12 Z"/>
</svg>

