<svg xmlns="http://www.w3.org/2000/svg" width="24" height="24">
  <defs/>
  <path  d="M6.268,3 C6.625,2.381 7.285,2 8,2 L13,2 C13.715,2 14.375,2.381 14.732,3 L16,3 C17.105,3 18,3.895 18,5 L18,9 L19,9 C20.105,9 21,9.895 21,11 L21,20 C21,21.105 20.105,22 19,22 L11,22 C9.895,22 9,21.105 9,20 L9,19 L5,19 C3.895,19 3,18.105 3,17 L3,5 C3,3.895 3.895,3 5,3 Z M11,11 L11,20 L19,20 L19,11 Z M6,5 L5,5 L5,17 L9,17 L9,11 C9,9.895 9.895,9 11,9 L16,9 L16,5 L15,5 C15,6.105 14.105,7 13,7 L8,7 C6.895,7 6,6.105 6,5 Z M13,4 L8,4 L8,5 L13,5 Z"/>
</svg>

