<svg xmlns="http://www.w3.org/2000/svg" width="24" height="24">
  <defs/>
  <path  d="M12,2 C12.242,2 12.483,2.009 12.722,2.026 C13.188,2.061 13.626,2.264 13.955,2.596 L21.404,10.045 C21.72,10.361 21.94,10.792 21.974,11.278 C21.991,11.517 22,11.758 22,12 C22,17.523 17.523,22 12,22 C6.477,22 2,17.523 2,12 C2,6.477 6.477,2 12,2 Z M11.28,4.032 C7.065,4.413 3.877,8.01 4.004,12.24 C4.131,16.47 7.531,19.869 11.761,19.996 C15.99,20.123 19.587,16.934 19.968,12.719 C17.512,13.439 14.858,12.762 13.048,10.952 C11.238,9.142 10.561,6.488 11.281,4.032 Z M13.183,4.652 C12.708,6.346 13.159,8.164 14.369,9.441 C15.579,10.717 17.37,11.264 19.087,10.881 L19.347,10.817 L13.183,4.653 Z"/>
</svg>

