<svg xmlns="http://www.w3.org/2000/svg" width="24" height="24">
  <defs/>
  <path  d="M12.903,2.57 C13.847,4.454 14.867,5.666 16.111,6.477 C17.365,7.293 18.939,7.764 21.1,8.005 C21.376,8.036 21.628,8.179 21.795,8.401 C21.962,8.623 22.031,8.904 21.984,9.178 C21.654,11.127 20.32,12.1 19.18,12.554 C19.12,12.579 19.06,12.602 19,12.624 L19,20 L20,20 C20.552,20 21,20.448 21,21 C21,21.552 20.552,22 20,22 L4,22 C3.448,22 3,21.552 3,21 C3,20.448 3.448,20 4,20 L5,20 L5,12.624 L4.82,12.555 C3.68,12.1 2.346,11.128 2.016,9.178 C1.969,8.904 2.038,8.623 2.205,8.401 C2.372,8.179 2.624,8.036 2.9,8.005 C5.061,7.764 6.635,7.293 7.888,6.477 C9.133,5.666 10.152,4.454 11.097,2.57 C11.268,2.228 11.618,2.012 12,2.012 C12.382,2.012 12.732,2.228 12.903,2.57 Z M14,13 L10,13 L10,20 L14,20 Z M8,13 L7,13 L7,20 L8,20 Z M17,13 L16,13 L16,20 L17,20 Z"/>
</svg>

