<svg xmlns="http://www.w3.org/2000/svg" width="24" height="24">
  <defs/>
  <path  d="M11.097,2.57 C11.268,2.228 11.618,2.012 12,2.012 C12.382,2.012 12.732,2.228 12.903,2.57 C13.847,4.454 14.867,5.666 16.111,6.477 C17.365,7.294 18.939,7.764 21.1,8.005 C21.69,8.071 22.079,8.619 21.984,9.178 C21.654,11.128 20.319,12.1 19.18,12.555 L19,12.624 L19,20 L20,20 C20.552,20 21,20.448 21,21 C21,21.552 20.552,22 20,22 L4,22 C3.448,22 3,21.552 3,21 C3,20.448 3.448,20 4,20 L5,20 L5,12.624 C4.94,12.602 4.88,12.579 4.82,12.555 C3.68,12.1 2.346,11.127 2.016,9.178 C1.969,8.904 2.038,8.623 2.205,8.401 C2.372,8.179 2.624,8.036 2.9,8.005 C5.06,7.764 6.635,7.294 7.888,6.477 C9.133,5.666 10.152,4.454 11.097,2.57 Z M12,5.028 C11.148,6.348 10.17,7.377 8.98,8.152 C7.665,9.01 6.15,9.52 4.376,9.82 C4.678,10.247 5.106,10.517 5.561,10.699 C6.014,10.879 6.514,10.99 7.003,11.001 L17.011,11.001 C17.501,10.984 17.983,10.882 18.438,10.699 C18.893,10.517 19.322,10.247 19.624,9.819 C17.851,9.52 16.335,9.011 15.02,8.153 C13.829,7.378 12.851,6.349 12,5.029 Z M14,13 L10,13 L10,20 L14,20 Z M8,13 L7,13 L7,20 L8,20 Z M17,13 L16,13 L16,20 L17,20 Z"/>
</svg>

