<svg xmlns="http://www.w3.org/2000/svg" width="24" height="24">
  <defs/>
  <path  d="M7.151,13.619 C8.549,12.568 10.251,12 12,12 C13.89,12 15.6,12.666 16.849,13.619 C18.062,14.544 19,15.874 19,17.278 C19,18.685 17.816,19.613 16.651,20.135 C15.406,20.692 13.76,21 12,21 C10.24,21 8.594,20.692 7.349,20.135 C6.184,19.613 5,18.685 5,17.278 C5,15.874 5.938,14.544 7.151,13.618 Z M12,3 C12.552,3 13,3.448 13,4 L13,4.19 C14.257,4.694 15,6.12 15,7.5 C15,9.213 13.854,11 12,11 C10.146,11 9,9.213 9,7.5 C9,6.12 9.743,4.694 11,4.19 L11,4 C11,3.448 11.448,3 12,3 Z M3.588,7.392 L3.587,7.392 C3.354,6.891 3.57,6.296 4.071,6.063 C4.572,5.83 5.167,6.046 5.4,6.547 C5.783,6.566 6.157,6.671 6.494,6.854 C7.101,7.179 7.608,7.732 7.924,8.409 C8.24,9.087 8.338,9.831 8.196,10.505 C8.054,11.179 7.651,11.847 6.926,12.185 C6.202,12.523 5.431,12.403 4.823,12.078 C4.216,11.752 3.709,11.2 3.393,10.522 C3.077,9.845 2.979,9.101 3.121,8.427 C3.198,8.062 3.35,7.702 3.588,7.392 Z M18.6,6.543 C18.842,6.058 19.426,5.853 19.918,6.082 C20.409,6.312 20.629,6.891 20.412,7.388 C20.643,7.694 20.803,8.047 20.879,8.423 C21.021,9.097 20.923,9.841 20.607,10.519 C20.291,11.196 19.784,11.749 19.177,12.074 C18.569,12.399 17.798,12.519 17.074,12.181 C16.349,11.843 15.946,11.176 15.804,10.501 C15.662,9.827 15.76,9.083 16.076,8.406 C16.392,7.728 16.899,7.175 17.507,6.85 C17.844,6.667 18.217,6.562 18.6,6.543 Z"/>
</svg>

