<svg xmlns="http://www.w3.org/2000/svg" width="24" height="24">
  <defs/>
  <path  d="M5.403,6.55 A1 1 0 1 0 3.59,7.396 L5.403,6.551 Z M20.41,7.392 A1 1 0 1 0 18.598,6.547 Z M13,4 A1 1 0 0 0 11,4 Z M17,17.278 C17,17.426 16.84,17.858 15.834,18.31 C14.908,18.724 13.554,19 12,19 L12,21 C13.76,21 15.406,20.692 16.651,20.135 C17.816,19.613 19,18.685 19,17.278 Z M12,19 C10.446,19 9.092,18.724 8.166,18.31 C7.159,17.859 7,17.426 7,17.278 L5,17.278 C5,18.685 6.184,19.613 7.349,20.135 C8.594,20.692 10.24,21 12,21 Z M7,17.278 C7,16.749 7.405,15.94 8.364,15.209 A6.069 6.069 0 0 1 12,14 L12,12 C10.11,12 8.4,12.666 7.151,13.619 C5.938,14.544 5,15.874 5,17.278 Z M12,14 C13.425,14 14.714,14.506 15.636,15.21 C16.595,15.94 17,16.75 17,17.278 L19,17.278 C19,15.874 18.062,14.544 16.849,13.618 A8.068 8.068 0 0 0 12,12 Z M6.112,9.255 C6.262,9.578 6.283,9.882 6.239,10.094 C6.194,10.304 6.107,10.36 6.081,10.372 L6.926,12.185 C7.651,11.847 8.054,11.179 8.196,10.505 C8.338,9.831 8.24,9.087 7.924,8.409 Z M6.081,10.372 C6.055,10.384 5.956,10.416 5.766,10.314 C5.576,10.212 5.356,10.001 5.206,9.677 L3.393,10.522 C3.709,11.2 4.216,11.752 4.823,12.078 C5.431,12.403 6.202,12.523 6.926,12.185 Z M5.205,9.677 C5.055,9.354 5.034,9.049 5.078,8.838 C5.122,8.627 5.21,8.572 5.236,8.56 L4.39,6.747 C3.665,7.085 3.262,7.752 3.12,8.427 C2.978,9.101 3.076,9.845 3.392,10.522 L5.204,9.677 Z M5.235,8.56 C5.262,8.547 5.36,8.516 5.551,8.618 C5.741,8.72 5.961,8.931 6.111,9.255 L7.924,8.409 C7.608,7.732 7.101,7.179 6.494,6.854 C5.886,6.529 5.115,6.409 4.391,6.747 Z M5.719,7.23 L5.402,6.55 L3.59,7.396 L3.907,8.076 Z M18.795,9.673 C18.644,9.997 18.425,10.208 18.234,10.31 C18.044,10.412 17.945,10.38 17.919,10.368 L17.074,12.181 C17.798,12.519 18.569,12.399 19.177,12.074 C19.784,11.749 20.291,11.196 20.607,10.519 Z M17.919,10.368 C17.893,10.356 17.806,10.301 17.761,10.09 C17.717,9.878 17.738,9.574 17.888,9.25 L16.076,8.406 C15.76,9.083 15.662,9.827 15.804,10.501 C15.946,11.176 16.349,11.843 17.074,12.181 Z M17.889,9.251 C18.039,8.927 18.259,8.716 18.449,8.614 C18.639,8.512 18.738,8.544 18.764,8.556 L19.609,6.743 C18.885,6.405 18.114,6.525 17.506,6.85 C16.899,7.175 16.392,7.728 16.076,8.406 L17.888,9.251 Z M18.764,8.556 C18.79,8.568 18.878,8.623 18.922,8.834 C18.966,9.046 18.945,9.35 18.795,9.674 L20.607,10.519 C20.923,9.841 21.021,9.097 20.879,8.423 C20.737,7.748 20.334,7.081 19.609,6.743 Z M20.094,8.072 L20.41,7.392 L18.598,6.547 L18.281,7.227 L20.093,8.072 Z M13,7.5 C13,8.548 12.356,9 12,9 L12,11 C13.854,11 15,9.213 15,7.5 Z M12,9 C11.644,9 11,8.548 11,7.5 L9,7.5 C9,9.213 10.146,11 12,11 Z M11,7.5 C11,6.452 11.644,6 12,6 L12,4 C10.146,4 9,5.787 9,7.5 Z M12,6 C12.356,6 13,6.452 13,7.5 L15,7.5 C15,5.787 13.854,4 12,4 Z M13,5 L13,4 L11,4 L11,5 Z"/>
</svg>

