<svg xmlns="http://www.w3.org/2000/svg" width="24" height="24">
  <defs/>
  <path  d="M12.541,2 C15.346,2 17.579,4.01 18.084,6.547 C19.963,7.511 21.121,9.624 20.731,11.854 L20.685,12.085 L20.637,12.302 C20.047,14.957 17.745,16.883 15.027,16.995 L14.78,17 L13.327,17 L12.81,20.309 C12.667,21.222 11.918,21.918 10.997,21.993 L10.834,22 L8.858,22 C7.81,22 6.94,21.192 6.863,20.147 L6.858,20 L5.168,20 C4.609,20 4.076,19.766 3.697,19.355 C3.319,18.944 3.129,18.393 3.175,17.836 L3.192,17.691 L5.248,4.537 C5.466,3.142 6.627,2.088 8.036,2.005 L8.212,2 L12.541,2 Z M8.21,4 C7.76,4 7.365,4.302 7.246,4.736 L7.223,4.846 L5.168,18 L7.144,18 L7.817,13.691 C7.96,12.778 8.71,12.082 9.631,12.007 L9.793,12 L11.639,12 C13.739,12 15.569,10.572 16.079,8.537 C16.345,7.478 16.123,6.356 15.474,5.479 C14.825,4.601 13.817,4.061 12.727,4.005 L12.54,4 L8.21,4 Z M18.028,8.987 L18.019,9.023 C17.285,11.948 14.656,13.999 11.64,14 L9.793,14 L9.013,19 L9.015,19 L8.858,20 L10.834,20 L11.351,16.691 C11.503,15.718 12.342,15 13.327,15 L14.78,15 C16.654,15 18.277,13.698 18.684,11.868 L18.733,11.651 C18.946,10.701 18.683,9.707 18.028,8.987 Z"/>
</svg>

