<svg xmlns="http://www.w3.org/2000/svg" width="24" height="24">
  <defs/>
  <path  d="M8.212,2 L12.54,2 C15.344,2 17.578,4.011 18.085,6.547 C20.111,7.586 21.18,9.862 20.685,12.085 L20.637,12.303 C20.026,15.048 17.592,17 14.78,17 L13.327,17 L12.81,20.309 C12.658,21.282 11.819,22 10.834,22 L8.858,22 C7.753,22 6.858,21.105 6.858,20 L5.168,20 C4.583,20 4.028,19.744 3.648,19.3 C3.268,18.856 3.101,18.268 3.192,17.69 L5.248,4.537 C5.476,3.077 6.733,2.001 8.21,2 Z M9.796,14 L8.858,20 L10.834,20 L11.351,16.691 C11.503,15.718 12.342,15 13.327,15 L14.78,15 C16.654,15 18.277,13.698 18.684,11.868 L18.733,11.651 C18.946,10.701 18.683,9.708 18.029,8.987 L18.019,9.023 C17.285,11.949 14.655,14 11.639,14 Z"/>
</svg>

