<svg xmlns="http://www.w3.org/2000/svg" width="24" height="24">
  <defs/>
  <path  d="M13.586,2 C14.056,2 14.51,2.165 14.87,2.467 L15,2.586 L19.414,7 C19.746,7.332 19.951,7.77 19.992,8.238 L20,8.414 L20,20 C20,21.047 19.194,21.917 18.15,21.995 L18,22 L6,22 C4.953,22 4.083,21.194 4.005,20.15 L4,20 L4,4 C4,2.953 4.806,2.083 5.85,2.005 L6,2 Z M12,4 L6,4 L6,20 L18,20 L18,10 L13.5,10 C12.727,10 12.081,9.413 12.007,8.644 L12,8.5 Z M12.988,11.848 C13.228,13.371 14.024,14.751 15.223,15.72 C16.11,16.437 15.299,17.841 14.235,17.432 C12.796,16.878 11.204,16.878 9.765,17.432 C8.7,17.842 7.889,16.437 8.776,15.72 C9.975,14.751 10.771,13.371 11.011,11.848 C11.189,10.721 12.811,10.722 12.988,11.848 Z M14,4.414 L14,8 L17.586,8 Z M11.998,14.152 L11.31,15.348 L12.69,15.348 Z"/>
</svg>

