<svg xmlns="http://www.w3.org/2000/svg" width="24" height="24">
  <defs/>
  <path  d="M12,2 L12,8.5 C12,9.328 12.672,10 13.5,10 L20,10 L20,20 C20,21.105 19.105,22 18,22 L6,22 C4.895,22 4,21.105 4,20 L4,4 C4,2.895 4.895,2 6,2 Z M11.011,11.848 C10.771,13.371 9.975,14.751 8.776,15.72 C7.889,16.436 8.7,17.841 9.764,17.432 C11.203,16.878 12.796,16.878 14.235,17.432 C15.299,17.842 16.11,16.437 15.223,15.72 C14.024,14.751 13.228,13.371 12.988,11.848 C12.811,10.722 11.188,10.721 11.011,11.848 Z M14,2.043 C14.379,2.123 14.726,2.312 15,2.586 L19.414,7 C19.688,7.274 19.877,7.621 19.957,8 L14,8 Z M12,14.303 L12.806,15.697 L11.196,15.697 Z"/>
</svg>

