<svg xmlns="http://www.w3.org/2000/svg" width="24" height="24">
  <defs/>
  <path  d="M16.242,3.515 C17.386,2.371 19.232,2.341 20.413,3.446 C21.595,4.552 21.686,6.396 20.62,7.613 L20.485,7.757 L19.778,8.464 L20.485,9.171 C21.219,9.905 21.27,11.078 20.602,11.873 L20.485,12 L16.242,16.243 C15.869,16.615 15.27,16.633 14.875,16.285 C14.479,15.936 14.422,15.34 14.745,14.923 L14.828,14.828 L19.071,10.586 L18.364,9.879 L8.486,19.757 C8.363,19.879 8.214,19.971 8.049,20.024 L7.923,20.057 L4.433,20.756 C4.122,20.819 3.8,20.731 3.563,20.521 C3.326,20.31 3.201,20 3.227,19.684 L3.244,19.567 L3.942,16.076 C3.976,15.906 4.05,15.747 4.157,15.611 L4.243,15.514 Z M17.657,4.929 L16.949,5.636 L18.364,7.05 L19.071,6.343 C19.461,5.952 19.461,5.319 19.07,4.929 C18.68,4.538 18.046,4.538 17.656,4.929 Z"/>
</svg>

