<svg xmlns="http://www.w3.org/2000/svg" width="24" height="24">
  <defs/>
  <path  d="M16.243,3.515 C17.389,2.378 19.229,2.351 20.407,3.454 C21.585,4.557 21.679,6.395 20.62,7.613 L20.485,7.757 L19.778,8.464 L20.485,9.172 C21.218,9.906 21.269,11.078 20.602,11.872 L20.485,12 L16.243,16.243 C15.87,16.619 15.269,16.64 14.871,16.29 C14.474,15.939 14.419,15.34 14.745,14.923 L14.828,14.828 L19.071,10.586 L18.364,9.879 L8.486,19.757 C8.363,19.88 8.214,19.971 8.049,20.025 L7.924,20.058 L4.433,20.756 C4.122,20.819 3.8,20.731 3.563,20.521 C3.326,20.31 3.201,20 3.227,19.684 L3.244,19.567 L3.942,16.077 C3.976,15.907 4.05,15.747 4.157,15.611 L4.243,15.514 Z M15.536,7.05 L7.757,14.828 L9.172,16.243 L16.95,8.464 Z M19.07,4.93 C18.714,4.574 18.148,4.538 17.75,4.847 L17.656,4.93 L16.949,5.637 L18.363,7.051 L19.07,6.344 L19.153,6.25 C19.462,5.852 19.426,5.286 19.07,4.93 Z M6.343,16.243 L5.85,16.736 L5.496,18.503 L7.264,18.15 L7.757,17.657 L6.343,16.242 Z"/>
</svg>

