<svg xmlns="http://www.w3.org/2000/svg" width="24" height="24">
  <defs/>
  <path  d="M12.138,4.538 A2 2 0 0 1 14.169,4.866 L14.295,4.981 L19.019,9.705 A2 2 0 0 1 19.519,11.702 L19.462,11.862 L17.097,17.775 A1.999 1.999 0 0 1 15.492,19.015 L10.413,19.65 C10.283,19.665 10.145,19.684 10.003,19.706 L9.559,19.778 L9.327,19.82 L8.604,19.96 L8.109,20.066 L7.364,20.233 L6.409,20.461 L4.857,20.857 L4.211,21.031 A1.01 1.01 0 0 1 2.946,19.897 L2.98,19.751 L3.275,18.639 L3.539,17.591 L3.767,16.636 L3.934,15.891 L4.039,15.395 L4.18,14.673 L4.26,14.216 L4.324,13.788 L4.984,8.508 A1.999 1.999 0 0 1 6.074,6.972 L6.225,6.903 Z M12.88,6.395 L6.968,8.76 L6.384,13.432 L6.336,13.828 A26.886 26.886 0 0 1 5.951,16.02 L5.78,16.806 L9.068,13.518 A2 2 0 1 1 10.482,14.932 L7.194,18.22 L7.586,18.133 L8.37,17.968 A27.455 27.455 0 0 1 9.843,17.708 L15.24,17.032 L17.605,11.12 Z M15.243,3.101 A1 1 0 0 1 16.563,3.017 L16.657,3.101 L20.899,7.343 A1 1 0 0 1 19.579,8.841 L19.485,8.757 L15.243,4.515 A1 1 0 0 1 15.243,3.101"/>
</svg>

