<svg xmlns="http://www.w3.org/2000/svg" width="24" height="24">
  <defs/>
  <path  d="M14.295,4.98 L19.019,9.705 A2 2 0 0 1 19.462,11.862 L17.097,17.775 A1.999 1.999 0 0 1 15.492,19.015 L10.413,19.65 C10.283,19.665 10.145,19.684 10.003,19.706 L9.559,19.778 L9.327,19.82 L8.604,19.96 L8.109,20.065 L7.364,20.233 L6.409,20.461 L4.857,20.857 L4.211,21.031 A1.01 1.01 0 0 1 2.946,19.897 L2.98,19.751 L3.275,18.639 L3.539,17.591 L3.767,16.636 L3.934,15.891 L4.039,15.395 L4.18,14.673 L4.26,14.216 L4.324,13.788 L4.984,8.508 A1.999 1.999 0 0 1 6.225,6.903 L12.138,4.538 A2 2 0 0 1 14.295,4.981 Z M10.585,10.585 A2 2 0 0 0 10.078,12.553 A1.006 1.006 0 0 0 9.878,12.707 L5.82,16.765 A0.2 0.2 0 0 0 5.767,16.863 L5.678,17.248 L5.5,17.991 L5.414,18.342 A0.201 0.201 0 0 0 5.658,18.586 L6.375,18.411 L7.138,18.233 A0.2 0.2 0 0 0 7.235,18.179 L11.293,14.121 A0.997 0.997 0 0 0 11.447,13.922 A2 2 0 1 0 10.586,10.585 Z M15.243,3.101 A1 1 0 0 1 16.563,3.017 L16.657,3.101 L20.9,7.343 A1 1 0 0 1 19.58,8.841 L19.485,8.757 L15.243,4.515 A1 1 0 0 1 15.243,3.101"/>
</svg>

