<svg xmlns="http://www.w3.org/2000/svg" width="24" height="24">
  <defs/>
  <path  d="M15.328,3.722 C16.445,2.604 18.238,2.545 19.427,3.587 L19.571,3.722 L20.278,4.429 C21.395,5.546 21.454,7.339 20.413,8.527 L20.278,8.671 L17.303,11.646 L20.485,14.828 C21.219,15.562 21.27,16.735 20.602,17.53 L20.485,17.657 L17.657,20.485 C16.923,21.219 15.75,21.27 14.956,20.602 L14.828,20.485 L11.646,17.303 L9.283,19.667 C9.09,19.86 8.848,19.996 8.583,20.062 L8.423,20.092 L4.503,20.622 C4.213,20.661 3.921,20.572 3.703,20.378 C3.485,20.183 3.362,19.903 3.368,19.611 L3.378,19.496 L3.908,15.577 C3.944,15.307 4.054,15.052 4.224,14.839 L4.333,14.717 L6.697,12.354 L3.515,9.172 C2.781,8.438 2.73,7.265 3.398,6.47 L3.515,6.343 L6.343,3.515 C7.077,2.781 8.25,2.73 9.044,3.398 L9.172,3.515 L12.354,6.697 Z M7.757,4.929 L4.93,7.757 L6.344,9.172 L7.051,8.465 C7.443,8.086 8.067,8.091 8.453,8.477 C8.839,8.863 8.844,9.487 8.465,9.879 L7.758,10.586 L8.112,10.939 L10.94,8.111 Z M15.889,13.061 L13.061,15.889 L13.414,16.243 L14.121,15.536 C14.494,15.16 15.095,15.139 15.493,15.489 C15.89,15.84 15.945,16.439 15.619,16.856 L15.536,16.95 L14.829,17.657 L16.243,19.071 L19.071,16.243 Z"/>
</svg>

