<svg xmlns="http://www.w3.org/2000/svg" width="24" height="24">
  <defs/>
  <path  d="M16.483,3.983 C17.435,3.032 18.969,3.005 19.954,3.922 C20.939,4.839 21.021,6.371 20.14,7.388 L20.018,7.519 L8.443,19.094 C8.299,19.238 8.127,19.352 7.937,19.427 L7.792,19.477 L4.955,20.284 C4.624,20.378 4.269,20.296 4.013,20.067 C3.757,19.837 3.637,19.493 3.694,19.154 L3.718,19.047 L4.525,16.209 C4.581,16.013 4.676,15.83 4.805,15.672 L4.907,15.559 Z M18.293,17.293 C18.666,16.917 19.267,16.896 19.665,17.246 C20.062,17.597 20.117,18.196 19.791,18.613 L19.707,18.707 L18.207,20.207 C16.988,21.426 15.012,21.426 13.793,20.207 C13.391,19.805 12.751,19.768 12.305,20.12 L12.207,20.207 L11.707,20.707 C11.334,21.079 10.735,21.097 10.34,20.749 C9.944,20.4 9.887,19.804 10.21,19.387 L10.293,19.293 L10.793,18.793 C12.012,17.574 13.988,17.574 15.207,18.793 C15.609,19.195 16.249,19.232 16.695,18.88 L16.793,18.793 Z M18.603,5.398 C18.432,5.228 18.165,5.203 17.966,5.34 L17.896,5.398 L6.414,16.88 L6.134,17.868 L7.121,17.588 L18.604,6.104 C18.799,5.909 18.799,5.592 18.604,5.397 Z"/>
</svg>

