<svg xmlns="http://www.w3.org/2000/svg" width="24" height="24">
  <defs/>
  <path  d="M18.293,17.293 A1 1 0 0 1 19.79,18.613 L19.707,18.707 L18.207,20.207 A3.121 3.121 0 0 1 13.793,20.207 A1.122 1.122 0 0 0 12.305,20.12 L12.207,20.207 L11.707,20.707 A1 1 0 0 1 10.21,19.387 L10.293,19.293 L10.793,18.793 A3.121 3.121 0 0 1 15.207,18.793 A1.122 1.122 0 0 0 16.695,18.88 L16.793,18.793 Z M16.483,3.983 A2.5 2.5 0 0 1 20.14,7.39 L20.018,7.52 L8.442,19.095 A1.501 1.501 0 0 1 7.937,19.428 L7.792,19.477 L4.955,20.284 A1.001 1.001 0 0 1 3.693,19.154 L3.718,19.047 L4.525,16.209 A1.5 1.5 0 0 1 4.805,15.673 L4.907,15.559 Z"/>
</svg>

