<svg xmlns="http://www.w3.org/2000/svg" width="24" height="24">
  <defs/>
  <path  d="M16.096,4.368 C17.048,3.417 18.582,3.39 19.567,4.307 C20.552,5.224 20.634,6.756 19.753,7.773 L19.631,7.903 L8.735,18.8 C8.64,18.895 8.532,18.977 8.415,19.044 L8.295,19.104 L4.491,20.834 C3.683,21.201 2.853,20.417 3.126,19.609 L3.166,19.509 L4.896,15.704 C4.951,15.582 5.023,15.467 5.109,15.364 L5.199,15.264 L16.097,4.368 Z M19,19 C19.529,19.001 19.966,19.413 19.997,19.941 C20.028,20.47 19.642,20.931 19.117,20.993 L19,21 L12,21 C11.471,20.999 11.034,20.587 11.003,20.059 C10.972,19.53 11.358,19.069 11.883,19.007 L12,19 Z M18.217,5.782 C18.046,5.611 17.778,5.587 17.579,5.725 L17.51,5.782 L6.678,16.614 L6.089,17.911 L7.385,17.321 L18.217,6.49 C18.311,6.396 18.364,6.269 18.364,6.136 C18.364,6.003 18.311,5.876 18.217,5.782 Z"/>
</svg>

