<svg xmlns="http://www.w3.org/2000/svg" width="24" height="24">
  <defs/>
  <path  d="M19,19 A1 1 0 0 1 19.117,20.993 L19,21 L12,21 A1 1 0 0 1 11.883,19.007 L12,19 Z M19.631,4.368 A2.5 2.5 0 0 1 19.631,7.904 L8.735,18.8 C8.608,18.927 8.459,19.03 8.295,19.105 L4.491,20.834 C3.649,21.217 2.783,20.35 3.166,19.508 L4.896,15.704 A1.5 1.5 0 0 1 5.2,15.264 L16.096,4.368 A2.5 2.5 0 0 1 19.631,4.368 M6,1 A1 1 0 0 1 6.946,1.677 L7.076,2.055 A3 3 0 0 0 8.945,3.925 L9.323,4.054 A1 1 0 0 1 9.323,5.946 L8.945,6.076 A3 3 0 0 0 7.075,7.945 L6.946,8.323 A1 1 0 0 1 5.054,8.323 L4.924,7.945 A3 3 0 0 0 3.055,6.075 L2.677,5.946 A1 1 0 0 1 2.677,4.054 L3.055,3.924 A3 3 0 0 0 4.925,2.055 L5.054,1.677 A1 1 0 0 1 6,1"/>
</svg>

