<svg xmlns="http://www.w3.org/2000/svg" width="24" height="24">
  <defs/>
  <path  d="M16.035,3.015 A3 3 0 0 1 20.134,2.88 L20.278,3.015 L20.985,3.722 A3 3 0 0 1 21.12,7.82 L20.985,7.964 L9.773,19.177 A1.5 1.5 0 0 1 9.211,19.531 L9.049,19.578 L4.595,20.606 A1.001 1.001 0 0 1 3.375,19.518 L3.395,19.405 L4.422,14.95 A1.5 1.5 0 0 1 4.712,14.352 L4.823,14.227 Z M15.328,6.55 L6.338,15.54 L5.702,18.298 L8.46,17.661 L17.45,8.671 L15.328,6.551 Z M18.864,4.429 A1 1 0 0 0 17.544,4.346 L17.45,4.429 L16.742,5.136 L18.864,7.257 L19.571,6.55 A1 1 0 0 0 19.654,5.23 L19.571,5.136 Z"/>
</svg>

