<svg xmlns="http://www.w3.org/2000/svg" width="24" height="24">
  <defs/>
  <path  d="M19.631,4.368 C20.608,5.344 20.608,6.928 19.631,7.904 L8.735,18.8 C8.608,18.927 8.459,19.03 8.295,19.105 L4.491,20.834 C3.649,21.217 2.783,20.35 3.166,19.508 L4.896,15.704 C4.97,15.54 5.073,15.391 5.2,15.264 L16.096,4.368 C17.072,3.392 18.655,3.392 19.631,4.368 Z M6,1 C6.428,1 6.808,1.272 6.946,1.677 L7.076,2.055 C7.376,2.934 8.066,3.625 8.945,3.925 L9.323,4.054 C9.727,4.193 9.999,4.573 9.999,5 C9.999,5.427 9.727,5.807 9.323,5.946 L8.945,6.076 C8.066,6.376 7.375,7.066 7.075,7.945 L6.946,8.323 C6.807,8.727 6.427,8.999 6,8.999 C5.573,8.999 5.193,8.727 5.054,8.323 L4.924,7.945 C4.624,7.066 3.934,6.375 3.055,6.075 L2.677,5.946 C2.273,5.807 2.001,5.427 2.001,5 C2.001,4.573 2.273,4.193 2.677,4.054 L3.055,3.924 C3.934,3.624 4.625,2.934 4.925,2.055 L5.054,1.677 C5.192,1.272 5.572,1 6,1 Z M19,19 C19.529,19.001 19.966,19.413 19.997,19.941 C20.028,20.47 19.642,20.931 19.117,20.993 L19,21 L12,21 C11.471,20.999 11.034,20.587 11.003,20.059 C10.972,19.53 11.358,19.069 11.883,19.007 L12,19 Z M17.511,5.782 L6.677,16.614 L6.088,17.911 L7.384,17.321 L18.217,6.49 C18.347,6.364 18.399,6.179 18.353,6.004 C18.308,5.829 18.171,5.692 17.996,5.647 C17.822,5.601 17.637,5.653 17.511,5.782 Z M6,4.196 C5.763,4.494 5.494,4.763 5.196,5 C5.494,5.236 5.764,5.506 6,5.804 C6.236,5.506 6.506,5.236 6.804,5 C6.506,4.763 6.237,4.494 6,4.196 Z"/>
</svg>

