<svg xmlns="http://www.w3.org/2000/svg" width="24" height="24">
  <defs/>
  <path  d="M19.571,3.722 L20.278,4.429 C21.449,5.6 21.449,7.5 20.278,8.671 L17.303,11.646 L20.485,14.828 C21.266,15.609 21.266,16.876 20.485,17.657 L17.657,20.485 C16.876,21.266 15.609,21.266 14.828,20.485 L11.646,17.303 L9.283,19.667 C9.051,19.899 8.749,20.049 8.423,20.093 L4.503,20.623 C4.193,20.665 3.882,20.56 3.661,20.339 C3.44,20.117 3.335,19.806 3.377,19.496 L3.907,15.577 C3.951,15.251 4.101,14.949 4.333,14.717 L6.697,12.354 L3.515,9.172 C2.734,8.391 2.734,7.124 3.515,6.343 L6.343,3.515 C7.124,2.734 8.391,2.734 9.172,3.515 L12.354,6.697 L15.328,3.722 C16.5,2.55 18.399,2.55 19.571,3.722 Z M14.621,7.257 L5.866,16.012 L5.535,18.465 L7.988,18.133 L16.743,9.379 Z M15.889,13.061 L13.061,15.889 L13.414,16.243 L14.121,15.536 C14.494,15.16 15.095,15.139 15.493,15.489 C15.89,15.84 15.945,16.439 15.619,16.856 L15.536,16.95 L14.829,17.657 L16.243,19.071 L19.071,16.243 Z M7.757,4.93 L4.93,7.757 L6.344,9.172 L7.051,8.465 C7.424,8.089 8.025,8.068 8.423,8.418 C8.82,8.769 8.875,9.368 8.549,9.785 L8.465,9.879 L7.758,10.586 L8.112,10.939 L10.94,8.111 Z M16.743,5.137 L16.036,5.844 L18.156,7.965 L18.864,7.258 C19.254,6.868 19.254,6.234 18.864,5.844 L18.157,5.137 C17.767,4.747 17.133,4.747 16.743,5.137 Z"/>
</svg>

