<svg xmlns="http://www.w3.org/2000/svg" width="24" height="24">
  <defs/>
  <path  d="M3,5 C3,3.895 3.895,3 5,3 L19,3 C20.105,3 21,3.895 21,5 L21,19 C21,20.105 20.105,21 19,21 L5,21 C3.895,21 3,20.105 3,19 Z M13.939,7.655 C13.586,6.772 12.321,6.822 12.037,7.729 L10.285,13.335 L9.897,12.558 C9.726,12.216 9.376,12 8.994,12 L7,12 C6.448,12 6,12.448 6,13 C6,13.552 6.448,14 7,14 L8.382,14 L9.594,16.425 C10.001,17.238 11.191,17.142 11.462,16.275 L13.116,10.982 L14.069,13.365 C14.222,13.749 14.594,14 15.007,14 L17,14 C17.552,14 18,13.552 18,13 C18,12.448 17.552,12 17,12 L15.677,12 Z"/>
</svg>

