<svg xmlns="http://www.w3.org/2000/svg" width="24" height="24">
  <defs/>
  <path  d="M19,3 A2 2 0 0 1 21,5 L21,19 A2 2 0 0 1 19,21 L5,21 A2 2 0 0 1 3,19 L3,5 A2 2 0 0 1 5,3 Z M19,5 L5,5 L5,19 L19,19 Z M12.037,7.729 C12.308,6.861 13.477,6.779 13.887,7.545 L13.939,7.655 L15.677,12 L17,12 A1 1 0 0 1 17.117,13.993 L17,14 L15.007,14 A1.01 1.01 0 0 1 14.121,13.476 L14.069,13.366 L13.116,10.982 L11.462,16.275 C11.203,17.103 10.107,17.228 9.655,16.53 L9.595,16.425 L8.381,14 L7,14 A1 1 0 0 1 6.883,12.007 L7,12 L8.994,12 C9.334,12 9.648,12.17 9.834,12.449 L9.897,12.559 L10.285,13.335 Z"/>
</svg>

