<svg xmlns="http://www.w3.org/2000/svg" width="24" height="24">
  <defs/>
  <path  d="M5.412,2.286 A1.47 1.47 0 0 1 6.857,2.445 C8,3.278 8.89,4.415 9.65,5.503 L10.092,6.147 L10.509,6.762 C10.909,7.346 10.846,8.131 10.363,8.642 L10.253,8.748 L8.302,10.197 A0.48 0.48 0 0 0 8.16,10.812 C8.602,11.616 9.388,12.812 10.288,13.712 C11.189,14.612 12.441,15.45 13.3,15.942 A0.48 0.48 0 0 0 13.885,15.854 L13.944,15.78 L15.214,13.847 A1.503 1.503 0 0 1 17.27,13.515 L17.976,14.005 C19.27,14.908 20.543,15.861 21.521,17.113 A1.47 1.47 0 0 1 21.71,18.598 C20.878,20.539 18.744,22.213 16.552,22.132 L16.252,22.116 L16.019,22.096 L15.761,22.066 L15.48,22.028 L15.175,21.977 L14.849,21.913 L14.503,21.835 L14.137,21.742 L13.752,21.631 L13.35,21.501 C11.504,20.876 9.161,19.646 6.757,17.243 C4.354,14.839 3.124,12.496 2.498,10.65 L2.368,10.248 L2.258,9.863 L2.164,9.497 L2.086,9.151 L2.023,8.825 L1.973,8.52 L1.933,8.239 L1.904,7.981 L1.884,7.748 L1.868,7.448 C1.787,5.252 3.468,3.118 5.412,2.286 M20,3 A1 1 0 0 1 21,4 L21,8 A1 1 0 0 1 19,8 L19,6.414 L15.707,9.707 A1 1 0 0 1 14.293,8.293 L17.586,5 L16,5 A1 1 0 1 1 16,3 Z"/>
</svg>

