<svg xmlns="http://www.w3.org/2000/svg" width="24" height="24">
  <defs/>
  <path  d="M16.552,22.133 C15.112,22.08 11.031,21.516 6.757,17.243 C2.484,12.969 1.921,8.889 1.867,7.448 C1.787,5.252 3.469,3.119 5.412,2.286 C5.888,2.08 6.437,2.141 6.857,2.445 C8.457,3.611 9.561,5.375 10.509,6.762 C10.941,7.393 10.831,8.247 10.253,8.748 L8.302,10.197 C8.107,10.338 8.046,10.601 8.16,10.813 C8.602,11.616 9.388,12.812 10.288,13.712 C11.189,14.612 12.441,15.45 13.3,15.942 C13.524,16.068 13.806,15.996 13.944,15.78 L15.214,13.847 C15.699,13.203 16.607,13.056 17.27,13.515 C18.677,14.489 20.319,15.574 21.521,17.113 C21.85,17.536 21.923,18.106 21.71,18.598 C20.873,20.551 18.755,22.214 16.552,22.133 Z"/>
</svg>

