<svg xmlns="http://www.w3.org/2000/svg" width="24" height="24">
  <defs/>
  <path  d="M17.27,13.515 L18.222,14.175 C19.376,14.986 20.582,15.911 21.522,17.113 A1.47 1.47 0 0 1 21.71,18.598 A5.87 5.87 0 0 1 17.99,21.912 L17.664,21.999 C17.344,22.079 16.964,22.148 16.552,22.132 L16.335,22.122 L15.949,22.088 L15.805,22.072 L15.495,22.03 L15.157,21.974 L14.791,21.901 A12.258 12.258 0 0 1 14.599,21.858 L14.197,21.758 C12.609,21.335 10.514,20.452 8.28,18.624 L11.877,15.028 C12.217,15.27 12.553,15.49 12.862,15.68 L13.3,15.941 A0.483 0.483 0 0 0 13.944,15.781 L15.214,13.847 A1.503 1.503 0 0 1 17.27,13.515 M5.412,2.285 A1.47 1.47 0 0 1 6.857,2.445 C7.967,3.254 8.837,4.35 9.584,5.408 L10.017,6.036 L10.509,6.762 C10.909,7.346 10.846,8.131 10.363,8.642 L10.253,8.748 L8.302,10.197 A0.48 0.48 0 0 0 8.16,10.812 A15.02 15.02 0 0 0 9.207,12.439 L9.397,12.689 L16.011,6.075 A1 1 0 0 1 17.508,7.395 L17.425,7.49 L3.99,20.925 A1 1 0 0 1 2.492,19.605 L2.576,19.51 L5.831,16.255 C3.871,14.025 2.872,11.902 2.368,10.244 L2.252,9.839 L2.201,9.644 L2.112,9.271 L2.041,8.92 L1.984,8.593 L1.94,8.291 L1.908,8.015 L1.886,7.766 L1.872,7.546 A3.734 3.734 0 0 1 1.955,6.535 L2.017,6.273 A5.893 5.893 0 0 1 5.412,2.286 Z"/>
</svg>

