<svg xmlns="http://www.w3.org/2000/svg" width="24" height="24">
  <defs/>
  <path  d="M6.857,2.445 C8,3.278 8.89,4.415 9.65,5.503 L10.092,6.147 L10.509,6.762 C10.941,7.393 10.831,8.247 10.253,8.748 L8.302,10.197 C8.107,10.338 8.046,10.601 8.16,10.813 C8.602,11.616 9.388,12.812 10.288,13.712 C11.189,14.612 12.441,15.45 13.3,15.942 C13.524,16.068 13.806,15.996 13.944,15.78 L15.214,13.847 C15.699,13.203 16.607,13.056 17.27,13.515 L17.933,13.974 C19.172,14.834 20.503,15.811 21.521,17.114 C21.85,17.537 21.922,18.106 21.71,18.598 C20.873,20.551 18.755,22.214 16.552,22.133 L16.252,22.116 L16.019,22.096 L15.761,22.066 L15.48,22.028 L15.175,21.978 C15.122,21.968 15.068,21.958 15.015,21.948 L14.679,21.876 C14.62,21.863 14.562,21.85 14.503,21.836 L14.137,21.742 L13.752,21.632 L13.35,21.502 C11.504,20.876 9.161,19.646 6.757,17.242 C4.354,14.839 3.124,12.496 2.498,10.65 L2.368,10.248 L2.258,9.863 L2.164,9.497 L2.086,9.151 C2.063,9.043 2.042,8.934 2.023,8.825 L1.973,8.52 L1.933,8.239 L1.904,7.981 L1.884,7.748 L1.868,7.448 C1.787,5.252 3.468,3.119 5.412,2.286 C5.888,2.08 6.437,2.141 6.857,2.445 Z M17,3 C17.507,3 17.934,3.38 17.993,3.883 L18,4 L18,6 L20,6 C20.529,6.001 20.966,6.413 20.997,6.941 C21.028,7.47 20.642,7.931 20.117,7.993 L20,8 L18,8 L18,10 C17.999,10.529 17.587,10.966 17.059,10.997 C16.53,11.028 16.069,10.642 16.007,10.117 L16,10 L16,8 L14,8 C13.471,7.999 13.034,7.587 13.003,7.059 C12.972,6.53 13.358,6.069 13.883,6.007 L14,6 L16,6 L16,4 C16,3.448 16.448,3 17,3 Z"/>
</svg>

