<svg xmlns="http://www.w3.org/2000/svg" width="24" height="24">
  <defs/>
  <path  d="M6.857,2.445 C8,3.278 8.89,4.415 9.65,5.503 L10.092,6.147 L10.509,6.762 C10.941,7.393 10.831,8.247 10.253,8.748 L8.302,10.197 C8.107,10.338 8.046,10.601 8.16,10.813 C8.602,11.616 9.388,12.812 10.288,13.712 C11.189,14.612 12.441,15.45 13.3,15.942 C13.524,16.068 13.806,15.996 13.944,15.78 L15.214,13.847 C15.699,13.203 16.607,13.056 17.27,13.515 L17.933,13.974 C19.172,14.834 20.503,15.811 21.521,17.114 C21.85,17.537 21.922,18.106 21.71,18.598 C20.873,20.551 18.755,22.214 16.552,22.133 L16.252,22.116 L16.019,22.096 L15.761,22.066 L15.48,22.028 L15.175,21.978 C15.122,21.968 15.068,21.958 15.015,21.948 L14.679,21.876 C14.62,21.863 14.562,21.85 14.503,21.836 L14.137,21.742 L13.752,21.632 L13.35,21.502 C11.504,20.876 9.161,19.646 6.757,17.242 C4.354,14.839 3.124,12.496 2.498,10.65 L2.368,10.248 L2.258,9.863 L2.164,9.497 L2.086,9.151 C2.063,9.043 2.042,8.934 2.023,8.825 L1.973,8.52 L1.933,8.239 L1.904,7.981 L1.884,7.748 L1.868,7.448 C1.787,5.252 3.468,3.119 5.412,2.286 C5.888,2.08 6.437,2.141 6.857,2.445 Z M19.293,3.293 C19.666,2.921 20.265,2.903 20.66,3.251 C21.056,3.6 21.113,4.196 20.79,4.613 L20.707,4.707 L17.414,8 L19,8 C19.529,8.001 19.966,8.413 19.997,8.941 C20.028,9.47 19.642,9.931 19.117,9.993 L19,10 L15,10 C14.493,10 14.066,9.62 14.007,9.117 L14,9 L14,5 C14.001,4.471 14.413,4.034 14.941,4.003 C15.47,3.972 15.931,4.358 15.993,4.883 L16,5 L16,6.586 Z"/>
</svg>

