<svg xmlns="http://www.w3.org/2000/svg" width="24" height="24">
  <defs/>
  <path  d="M6.857,2.445 C8,3.278 8.89,4.415 9.65,5.503 L10.092,6.147 L10.509,6.762 C10.941,7.393 10.831,8.247 10.253,8.748 L8.302,10.197 C8.107,10.338 8.046,10.601 8.16,10.813 C8.602,11.616 9.388,12.812 10.288,13.712 C11.189,14.612 12.441,15.45 13.3,15.942 C13.524,16.068 13.806,15.996 13.944,15.78 L15.214,13.847 C15.699,13.203 16.607,13.056 17.27,13.515 L17.933,13.974 C19.172,14.834 20.503,15.811 21.521,17.114 C21.85,17.537 21.922,18.106 21.71,18.598 C20.873,20.551 18.755,22.214 16.552,22.133 L16.252,22.116 L16.019,22.096 L15.761,22.066 L15.48,22.028 L15.175,21.978 C15.122,21.968 15.068,21.958 15.015,21.948 L14.679,21.876 C14.62,21.863 14.562,21.85 14.503,21.836 L14.137,21.742 L13.752,21.632 L13.35,21.502 C11.504,20.876 9.161,19.646 6.757,17.242 C4.354,14.839 3.124,12.496 2.498,10.65 L2.368,10.248 L2.258,9.863 L2.164,9.497 L2.086,9.151 C2.063,9.043 2.042,8.934 2.023,8.825 L1.973,8.52 L1.933,8.239 L1.904,7.981 L1.884,7.748 L1.868,7.448 C1.787,5.252 3.468,3.119 5.412,2.286 C5.888,2.08 6.437,2.141 6.857,2.445 Z M13.818,3.818 C14.174,3.462 14.74,3.426 15.138,3.735 L15.232,3.818 L17,5.586 L18.768,3.818 C19.141,3.446 19.74,3.428 20.135,3.776 C20.531,4.125 20.588,4.721 20.265,5.138 L20.182,5.232 L18.414,7 L20.182,8.768 C20.554,9.141 20.572,9.74 20.224,10.135 C19.875,10.531 19.279,10.588 18.862,10.265 L18.768,10.182 L17,8.414 L15.232,10.182 C14.859,10.554 14.26,10.572 13.865,10.224 C13.469,9.875 13.412,9.279 13.735,8.862 L13.818,8.768 L15.586,7 L13.818,5.232 C13.428,4.842 13.428,4.208 13.818,3.818 Z"/>
</svg>

