<svg xmlns="http://www.w3.org/2000/svg" width="24" height="24">
  <defs/>
  <path  d="M6.857,2.445 C8.12,3.366 9.076,4.66 9.89,5.849 L10.528,6.787 C10.937,7.384 10.862,8.188 10.35,8.7 L8.994,10.056 L9.137,10.36 C9.487,11.069 10.091,12.09 11,13 C11.628,13.618 12.335,14.15 13.104,14.58 L13.471,14.777 L13.798,14.939 L13.944,15.006 L15.299,13.65 C15.813,13.137 16.62,13.065 17.217,13.479 L18.231,14.182 C19.383,14.992 20.586,15.915 21.521,17.113 C21.85,17.536 21.923,18.106 21.71,18.598 C20.873,20.551 18.755,22.214 16.552,22.132 L16.252,22.116 L16.019,22.096 L15.761,22.066 L15.48,22.028 L15.175,21.977 L14.849,21.913 L14.503,21.836 L14.137,21.742 L13.752,21.632 L13.35,21.502 C11.504,20.876 9.161,19.646 6.757,17.242 C4.354,14.839 3.124,12.496 2.498,10.65 L2.368,10.248 L2.258,9.863 L2.164,9.497 L2.086,9.151 C2.063,9.043 2.042,8.934 2.023,8.825 L1.973,8.52 L1.933,8.239 L1.904,7.981 L1.884,7.748 L1.868,7.448 C1.787,5.252 3.468,3.119 5.412,2.286 C5.888,2.08 6.437,2.141 6.857,2.445 Z M5.93,4.253 C4.858,4.813 3.82,6.093 3.867,7.374 L3.887,7.702 L3.909,7.907 L3.938,8.137 L3.978,8.39 L4.029,8.667 L4.094,8.965 L4.174,9.285 L4.27,9.624 L4.384,9.982 C4.426,10.104 4.47,10.229 4.518,10.357 L4.672,10.749 L4.848,11.156 C5.476,12.538 6.5,14.156 8.173,15.828 C9.845,17.5 11.463,18.525 12.845,19.153 L13.252,19.329 L13.644,19.483 C13.772,19.531 13.897,19.575 14.019,19.617 L14.377,19.731 L14.717,19.827 L15.036,19.907 L15.334,19.972 L15.611,20.023 L15.865,20.063 L16.095,20.093 L16.299,20.113 L16.627,20.133 C17.891,20.18 19.181,19.148 19.739,18.09 C19.027,17.255 18.143,16.57 17.168,15.88 L16.42,15.359 L16.23,15.558 L15.824,16.001 L15.609,16.227 C15.023,16.824 14.339,17.331 13.519,17 L13.293,16.905 L13.017,16.781 L12.863,16.708 L12.525,16.539 L12.154,16.339 C11.215,15.817 10.352,15.169 9.587,14.414 C8.832,13.649 8.184,12.786 7.662,11.847 L7.462,11.477 L7.292,11.138 L7.096,10.708 L7,10.48 C6.689,9.711 7.117,9.062 7.664,8.5 L7.888,8.28 L8.445,7.767 L8.645,7.577 L8.172,6.884 C7.469,5.864 6.782,4.944 5.929,4.252 Z M13.819,3.818 C14.175,3.462 14.741,3.426 15.139,3.735 L15.233,3.818 L17,5.586 L18.768,3.818 C19.141,3.446 19.74,3.428 20.135,3.776 C20.531,4.125 20.588,4.721 20.265,5.138 L20.182,5.232 L18.414,7 L20.182,8.768 C20.554,9.141 20.572,9.74 20.224,10.135 C19.875,10.531 19.279,10.588 18.862,10.265 L18.768,10.182 L17,8.414 L15.232,10.182 C14.859,10.554 14.26,10.572 13.865,10.224 C13.469,9.875 13.412,9.279 13.735,8.862 L13.818,8.768 L15.586,7 L13.818,5.232 C13.428,4.842 13.428,4.208 13.818,3.818 Z"/>
</svg>

