<svg xmlns="http://www.w3.org/2000/svg" width="24" height="24">
  <defs/>
  <path  d="M5.412,2.286 C5.888,2.08 6.437,2.141 6.857,2.445 C7.967,3.254 8.838,4.351 9.585,5.411 L10.019,6.04 L10.526,6.787 C10.904,7.34 10.872,8.076 10.447,8.593 L10.35,8.7 L8.994,10.056 C9.184,10.476 9.494,11.082 9.942,11.726 L10.116,11.97 L16.01,6.075 C16.383,5.699 16.984,5.678 17.382,6.028 C17.779,6.379 17.834,6.978 17.508,7.395 L17.425,7.49 L3.99,20.925 C3.617,21.301 3.016,21.322 2.618,20.972 C2.221,20.621 2.166,20.022 2.492,19.605 L2.575,19.51 L5.83,16.255 C3.788,13.933 2.79,11.725 2.307,10.039 L2.2,9.644 L2.112,9.271 L2.04,8.92 L1.983,8.593 C1.975,8.542 1.967,8.49 1.96,8.439 L1.922,8.149 L1.895,7.887 L1.878,7.653 L1.868,7.448 C1.855,7.118 1.897,6.809 1.955,6.535 L2.016,6.273 C2.463,4.486 3.719,3.011 5.412,2.286 Z M17.217,13.479 L18.217,14.172 C19.373,14.984 20.582,15.91 21.521,17.113 C21.85,17.537 21.922,18.106 21.709,18.598 C21.023,20.2 19.66,21.414 17.989,21.912 L17.664,21.999 C17.344,22.079 16.964,22.148 16.552,22.132 L16.335,22.122 L15.949,22.088 L15.805,22.072 L15.495,22.03 L15.329,22.004 L14.977,21.94 C14.851,21.915 14.725,21.887 14.599,21.858 L14.197,21.758 C12.609,21.335 10.514,20.452 8.28,18.624 L9.702,17.202 C11.732,18.822 13.587,19.552 14.912,19.877 L15.259,19.957 L15.579,20.017 C15.629,20.027 15.679,20.035 15.727,20.042 L16.001,20.082 L16.244,20.108 L16.544,20.13 L16.626,20.134 C16.739,20.138 16.866,20.126 17.018,20.095 L17.253,20.04 C18.321,19.773 19.225,19.064 19.738,18.09 C19.026,17.255 18.142,16.57 17.167,15.88 L16.419,15.359 L15.107,16.671 C14.692,17.09 14.066,17.22 13.518,17 L13.278,16.899 L12.981,16.765 L12.638,16.598 C12.132,16.342 11.643,16.052 11.175,15.73 L12.617,14.287 C13.13,14.613 13.599,14.85 13.943,15.007 L15.3,13.65 C15.814,13.137 16.621,13.065 17.218,13.479 Z M5.928,4.253 C5.012,4.732 4.325,5.556 4.017,6.543 L3.941,6.821 C3.89,7.001 3.865,7.187 3.866,7.374 L3.881,7.631 L3.913,7.958 L3.948,8.212 L3.995,8.494 L4.024,8.645 L4.094,8.966 C4.106,9.022 4.12,9.078 4.134,9.136 L4.231,9.493 L4.347,9.871 C4.79,11.234 5.637,12.978 7.248,14.838 L8.688,13.397 C8.317,12.919 7.981,12.414 7.684,11.887 L7.475,11.505 L7.384,11.325 L7.224,10.997 L7.044,10.59 C7.029,10.554 7.014,10.517 7,10.481 C6.781,9.933 6.911,9.307 7.33,8.892 L8.644,7.577 L8.583,7.487 C7.729,6.23 6.946,5.077 5.928,4.252 Z"/>
</svg>

