<svg xmlns="http://www.w3.org/2000/svg" width="24" height="24">
  <defs/>
  <path  d="M6.857,2.445 C8,3.278 8.89,4.415 9.65,5.503 L10.092,6.147 L10.509,6.762 A1.504 1.504 0 0 1 10.253,8.748 L8.302,10.197 A0.48 0.48 0 0 0 8.16,10.813 C8.602,11.616 9.388,12.812 10.288,13.712 C11.189,14.612 12.441,15.45 13.3,15.942 A0.483 0.483 0 0 0 13.944,15.78 L15.214,13.847 A1.503 1.503 0 0 1 17.27,13.515 L17.933,13.974 C19.172,14.834 20.503,15.811 21.521,17.114 A1.47 1.47 0 0 1 21.71,18.598 C20.873,20.551 18.755,22.214 16.552,22.133 L16.252,22.116 L16.019,22.096 L15.761,22.066 L15.48,22.028 L15.175,21.978 A11.66 11.66 0 0 1 15.015,21.948 L14.679,21.876 A12.399 12.399 0 0 1 14.503,21.836 L14.137,21.742 L13.752,21.632 L13.35,21.502 C11.504,20.876 9.161,19.646 6.757,17.242 C4.354,14.839 3.124,12.496 2.498,10.65 L2.368,10.248 L2.258,9.863 L2.164,9.497 L2.086,9.151 A11.79 11.79 0 0 1 2.023,8.825 L1.973,8.52 L1.933,8.239 L1.904,7.981 L1.884,7.748 L1.868,7.448 C1.787,5.252 3.468,3.119 5.412,2.286 A1.47 1.47 0 0 1 6.857,2.445 M14.992,6.04 L15.108,6.053 A3.5 3.5 0 0 1 17.966,9.013 A1 1 0 0 1 16.008,9.406 L15.985,9.291 A1.5 1.5 0 0 0 14.915,8.058 L14.76,8.023 A1 1 0 0 1 14.992,6.04 M15,3 A6 6 0 0 1 21,9 A1 1 0 0 1 19.007,9.117 L19,9 A3.998 3.998 0 0 0 15.262,5.009 L15,5 A1 1 0 1 1 15,3"/>
</svg>

