<svg xmlns="http://www.w3.org/2000/svg" width="24" height="24">
  <defs/>
  <path  d="M6.857,2.445 C8.12,3.366 9.076,4.66 9.89,5.849 L10.528,6.787 A1.504 1.504 0 0 1 10.35,8.7 L8.994,10.056 L9.137,10.36 C9.487,11.069 10.091,12.09 11,13 A9.87 9.87 0 0 0 13.104,14.58 L13.471,14.777 L13.798,14.939 L13.944,15.006 L15.299,13.65 A1.502 1.502 0 0 1 17.217,13.479 L18.231,14.182 C19.383,14.992 20.586,15.915 21.521,17.113 A1.47 1.47 0 0 1 21.71,18.598 C20.873,20.551 18.755,22.214 16.552,22.132 L16.252,22.116 L16.019,22.096 L15.761,22.066 L15.48,22.028 L15.175,21.977 L14.849,21.913 L14.503,21.836 L14.137,21.742 L13.752,21.632 L13.35,21.502 C11.504,20.876 9.161,19.646 6.757,17.242 C4.354,14.839 3.124,12.496 2.498,10.65 L2.368,10.248 L2.258,9.863 L2.164,9.497 L2.086,9.151 A11.79 11.79 0 0 1 2.023,8.825 L1.973,8.52 L1.933,8.239 L1.904,7.981 L1.884,7.748 L1.868,7.448 C1.787,5.252 3.468,3.119 5.412,2.286 A1.47 1.47 0 0 1 6.857,2.445 M5.93,4.253 C4.858,4.813 3.82,6.093 3.867,7.374 L3.887,7.702 L3.909,7.907 L3.938,8.137 L3.978,8.39 L4.029,8.667 L4.094,8.965 L4.174,9.285 L4.27,9.624 L4.384,9.982 C4.426,10.104 4.47,10.229 4.518,10.357 L4.672,10.749 L4.848,11.156 C5.476,12.538 6.5,14.156 8.173,15.828 C9.845,17.5 11.463,18.525 12.845,19.153 L13.252,19.329 L13.644,19.483 C13.772,19.531 13.897,19.575 14.019,19.617 L14.377,19.731 L14.717,19.827 L15.036,19.907 L15.334,19.972 L15.611,20.023 L15.865,20.063 L16.095,20.093 L16.299,20.113 L16.627,20.133 C17.891,20.18 19.181,19.148 19.739,18.09 C19.027,17.255 18.143,16.57 17.168,15.88 L16.42,15.359 L16.23,15.558 L15.824,16.001 L15.609,16.227 C15.023,16.824 14.339,17.331 13.519,17 L13.293,16.905 L13.017,16.781 L12.863,16.708 L12.525,16.539 L12.154,16.339 A11.866 11.866 0 0 1 9.587,14.414 A11.867 11.867 0 0 1 7.662,11.847 L7.462,11.477 L7.292,11.138 L7.096,10.708 L7,10.48 C6.689,9.711 7.117,9.062 7.664,8.5 L7.888,8.28 L8.445,7.767 L8.645,7.577 L8.172,6.884 C7.469,5.864 6.782,4.944 5.929,4.252 Z M14.993,6.04 L15.109,6.053 A3.5 3.5 0 0 1 17.967,9.013 A1 1 0 0 1 16.009,9.406 L15.986,9.291 A1.5 1.5 0 0 0 14.916,8.058 L14.761,8.023 A1 1 0 0 1 14.993,6.04 M15,3 A6 6 0 0 1 21,9 A1 1 0 0 1 19.007,9.117 L19,9 A3.998 3.998 0 0 0 15.262,5.009 L15,5 A1 1 0 1 1 15,3"/>
</svg>

