<svg xmlns="http://www.w3.org/2000/svg" width="24" height="24">
  <defs/>
  <path  d="M16.552,22.133 C15.112,22.08 11.031,21.516 6.757,17.243 C2.484,12.969 1.921,8.889 1.867,7.448 C1.787,5.252 3.469,3.119 5.412,2.286 C5.888,2.08 6.437,2.141 6.857,2.445 C8.465,3.618 9.574,5.395 10.527,6.787 C10.936,7.384 10.862,8.188 10.35,8.7 L8.994,10.057 C9.309,10.752 9.95,11.95 11,13 C12.05,14.05 13.248,14.691 13.944,15.006 L15.299,13.65 C15.813,13.137 16.62,13.065 17.217,13.479 C18.637,14.463 20.305,15.556 21.521,17.113 C21.85,17.536 21.923,18.106 21.71,18.598 C20.873,20.551 18.755,22.214 16.552,22.133 Z M8.172,15.829 C12.017,19.674 15.58,20.095 16.626,20.134 C17.89,20.18 19.18,19.148 19.738,18.091 C18.848,17.047 17.689,16.237 16.42,15.359 C16.294,15.485 16.163,15.629 16.026,15.78 C15.351,16.522 14.541,17.413 13.519,16.999 C12.82,16.718 11.094,15.923 9.586,14.414 C8.077,12.906 7.283,11.18 7,10.482 C6.586,9.458 7.48,8.646 8.224,7.971 C8.375,7.834 8.519,7.703 8.645,7.577 C7.767,6.287 6.971,5.098 5.929,4.253 C4.857,4.813 3.819,6.093 3.866,7.374 C3.905,8.42 4.326,11.983 8.172,15.829 Z"/>
</svg>

