<svg xmlns="http://www.w3.org/2000/svg" width="24" height="24">
  <defs/>
  <path  d="M5,5 L19,5 C20.105,5 21,5.895 21,7 L21,19 C21,20.105 20.105,21 19,21 L5,21 C3.895,21 3,20.105 3,19 L3,7 C3,5.895 3.895,5 5,5 Z M19,13.686 L19,7 L5,7 L5,19 L5.929,19 L14.237,10.692 C14.725,10.204 15.517,10.204 16.005,10.692 Z M5,3 C5,2.448 5.448,2 6,2 L18,2 C18.552,2 19,2.448 19,3 C19,3.552 18.552,4 18,4 L6,4 C5.448,4 5,3.552 5,3 Z M8.5,12 C7.672,12 7,11.328 7,10.5 C7,9.672 7.672,9 8.5,9 C9.328,9 10,9.672 10,10.5 C10,11.328 9.328,12 8.5,12 Z"/>
</svg>

