<svg xmlns="http://www.w3.org/2000/svg" width="24" height="24">
  <defs/>
  <path  d="M5,8 C5,6.895 5.895,6 7,6 L20,6 C21.105,6 22,6.895 22,8 L22,19.333 C22,20.438 21.105,21.333 20,21.333 L7,21.333 C5.895,21.333 5,20.438 5,19.333 Z M20,8 L7,8 L7,15.848 L10.848,12 C11.336,11.512 12.128,11.512 12.616,12 L15.857,15.24 L16.741,14.357 C17.229,13.869 18.021,13.869 18.509,14.357 L20,15.848 Z M5,3 L17,3 C18.105,3 19,3.895 19,5 L5,5 C4.448,5 4,5.448 4,6 L4,18 C2.895,18 2,17.105 2,16 L2,6 C2,4.343 3.343,3 5,3 Z M18,11 C18,11.828 17.328,12.5 16.5,12.5 C15.672,12.5 15,11.828 15,11 C15,10.172 15.672,9.5 16.5,9.5 C17.328,9.5 18,10.172 18,11 Z"/>
</svg>

