<svg xmlns="http://www.w3.org/2000/svg" width="24" height="24">
  <defs/>
  <path  d="M20,6 A2 2 0 0 1 22,8 L22,19.333 A2 2 0 0 1 20,21.333 L7,21.333 A2 2 0 0 1 5,19.333 L5,8 A2 2 0 0 1 7,6 Z M11.732,13.944 L7.136,18.54 L7.07,18.6 L7,18.654 L7,19.334 L20,19.334 L20,18.654 L19.93,18.601 L19.864,18.541 L17.624,16.301 L17.271,16.655 L17.326,16.71 A1 1 0 0 1 16.006,18.207 L15.912,18.124 Z M17,3 A2 2 0 0 1 18.995,4.85 L19,5 L5,5 A1 1 0 0 0 4.007,5.883 L4,6 L4,18 A2 2 0 0 1 2.005,16.15 L2,16 L2,6 A3 3 0 0 1 4.824,3.005 L5,3 Z M20,8 L7,8 L7,15.848 L10.848,12 A1.25 1.25 0 0 1 12.616,12 L15.857,15.24 L16.741,14.357 A1.25 1.25 0 0 1 18.509,14.357 L20,15.848 Z M16.5,9.5 A1.5 1.5 0 1 1 16.5,12.5 A1.5 1.5 0 0 1 16.5,9.5"/>
</svg>

