<svg xmlns="http://www.w3.org/2000/svg" width="24" height="24">
  <defs/>
  <path  d="M20,3 C21.105,3 22,3.895 22,5 L22,19 C22,20.105 21.105,21 20,21 L4,21 C2.895,21 2,20.105 2,19 L2,13 C2,12.448 2.448,12 3,12 C3.552,12 4,12.448 4,13 L4,15.1 L8.995,10.106 C9.483,9.618 10.275,9.618 10.763,10.106 L14.828,14.172 L16.066,12.934 C16.554,12.446 17.346,12.446 17.834,12.934 L20,15.101 L20,5 L12,5 C11.448,5 11,4.552 11,4 C11,3.448 11.448,3 12,3 Z M9.879,12.05 L4,17.93 L4,19 L20,19 L20,17.929 L16.95,14.879 L16.243,15.586 L16.45,15.793 C16.829,16.185 16.824,16.809 16.438,17.195 C16.052,17.581 15.428,17.586 15.036,17.207 Z M5,2 C5.382,2 5.73,2.217 5.898,2.56 L5.946,2.677 L6.076,3.055 C6.354,3.869 6.967,4.524 7.76,4.855 L7.945,4.925 L8.323,5.054 C8.706,5.185 8.972,5.533 8.998,5.937 C9.023,6.341 8.803,6.72 8.44,6.898 L8.323,6.946 L7.945,7.076 C7.131,7.354 6.476,7.967 6.145,8.76 L6.075,8.945 L5.946,9.323 C5.815,9.706 5.467,9.972 5.063,9.998 C4.659,10.023 4.28,9.803 4.102,9.44 L4.054,9.323 L3.924,8.945 C3.646,8.131 3.033,7.476 2.24,7.145 L2.055,7.075 L1.677,6.946 C1.294,6.815 1.028,6.467 1.002,6.063 C0.977,5.659 1.197,5.28 1.56,5.102 L1.677,5.054 L2.055,4.924 C2.869,4.646 3.524,4.033 3.855,3.24 L3.925,3.055 L4.054,2.677 C4.192,2.272 4.572,2 5,2 Z M15.5,7 C16.328,7 17,7.672 17,8.5 C17,9.328 16.328,10 15.5,10 C14.672,10 14,9.328 14,8.5 C14,7.672 14.672,7 15.5,7 Z M5,5.196 C4.763,5.494 4.494,5.763 4.196,6 C4.494,6.236 4.764,6.506 5,6.804 C5.236,6.506 5.506,6.236 5.804,6 C5.506,5.763 5.237,5.494 5,5.196 Z"/>
</svg>

