<svg xmlns="http://www.w3.org/2000/svg" width="24" height="24">
  <defs/>
  <path  d="M20,3 A2 2 0 0 1 21.995,4.85 L22,5 L22,19 A2 2 0 0 1 20.15,20.995 L20,21 L4,21 A2 2 0 0 1 2.005,19.15 L2,19 L2,5 A2 2 0 0 1 3.85,3.005 L4,3 Z M9.879,12.05 L4.222,17.707 A1.002 1.002 0 0 1 4,17.875 L4,19 L20,19 L20,17.875 A1 1 0 0 1 19.778,17.707 L16.95,14.88 L16.243,15.587 L16.45,15.794 A1 1 0 0 1 15.035,17.208 L9.88,12.05 Z M20,5 L4,5 L4,15.1 L8.995,10.106 A1.25 1.25 0 0 1 10.661,10.015 L10.762,10.105 L14.828,14.172 L16.066,12.934 A1.25 1.25 0 0 1 17.732,12.843 L17.834,12.934 L20,15.101 Z M15.5,7 A1.5 1.5 0 1 1 15.5,10 A1.5 1.5 0 0 1 15.5,7"/>
</svg>

