<svg xmlns="http://www.w3.org/2000/svg" width="24" height="24">
  <defs/>
  <path  d="M20,3 A2 2 0 0 1 22,5 L22,19 A2 2 0 0 1 20,21 L4,21 A2 2 0 0 1 2,19 L2,13 A1 1 0 1 1 4,13 L4,15.1 L8.995,10.106 A1.25 1.25 0 0 1 10.763,10.106 L14.828,14.172 L16.066,12.934 A1.25 1.25 0 0 1 17.834,12.934 L20,15.101 L20,5 L12,5 A1 1 0 1 1 12,3 Z M5,2 A1 1 0 0 1 5.898,2.56 L5.946,2.677 L6.076,3.055 A3 3 0 0 0 7.76,4.855 L7.945,4.925 L8.323,5.054 A1 1 0 0 1 8.44,6.898 L8.323,6.946 L7.945,7.076 A3 3 0 0 0 6.145,8.76 L6.075,8.945 L5.946,9.323 A1 1 0 0 1 4.102,9.44 L4.054,9.323 L3.924,8.945 A3 3 0 0 0 2.24,7.145 L2.055,7.075 L1.677,6.946 A1 1 0 0 1 1.56,5.102 L1.677,5.054 L2.055,4.924 A3 3 0 0 0 3.855,3.24 L3.925,3.055 L4.054,2.677 A1 1 0 0 1 5,2 M15.5,7 A1.5 1.5 0 1 1 15.5,10 A1.5 1.5 0 0 1 15.5,7"/>
</svg>

