<svg xmlns="http://www.w3.org/2000/svg" width="24" height="24">
  <defs/>
  <path  d="M3.241,14.318 C2.855,11.637 3.946,9.085 5.662,7.079 L5.614,7.028 C5.235,6.636 5.24,6.012 5.626,5.626 C6.012,5.24 6.636,5.235 7.028,5.614 L7.078,5.662 C9.085,3.946 11.637,2.855 14.318,3.242 C14.698,3.319 15,3.609 15.092,3.986 C15.183,4.363 15.049,4.759 14.746,5.002 C13.826,5.772 12.916,6.552 12.057,7.389 C11.541,7.887 11.05,8.41 10.587,8.957 L18.695,16.575 C18.892,16.76 19.006,17.018 19.01,17.288 C19.014,17.559 18.908,17.82 18.717,18.011 L18.01,18.718 C17.819,18.909 17.558,19.015 17.287,19.011 C17.017,19.006 16.759,18.892 16.574,18.695 L8.957,10.587 C8.41,11.051 7.887,11.541 7.389,12.057 C6.524,12.945 5.721,13.887 4.924,14.835 C4.662,15.093 4.279,15.187 3.928,15.079 C3.576,14.97 3.312,14.678 3.241,14.317 Z M11.044,5.59 C9.809,6.075 8.689,6.813 7.757,7.757 C6.812,8.703 6.072,9.796 5.59,11.044 L5.957,10.661 C6.351,10.258 6.757,9.866 7.173,9.486 C7.687,9.023 8.005,8.751 8.453,8.453 C8.763,7.999 9.123,7.584 9.486,7.173 C9.838,6.781 10.232,6.375 10.661,5.957 Z"/>
</svg>

