<svg xmlns="http://www.w3.org/2000/svg" width="24" height="24">
  <defs/>
  <path  d="M7.079,5.662 L7.028,5.614 A1 1 0 0 0 5.614,7.028 L5.662,7.078 C3.946,9.085 2.855,11.637 3.242,14.318 A1 1 0 0 0 4.924,14.835 C5.721,13.886 6.524,12.945 7.389,12.057 A21.29 21.29 0 0 1 8.957,10.587 L16.575,18.695 A1.001 1.001 0 0 0 18.011,18.718 L18.718,18.011 A1 1 0 0 0 18.695,16.575 L10.587,8.957 A21.5 21.5 0 0 1 12.057,7.389 C12.917,6.551 13.825,5.772 14.747,5.003 A1 1 0 0 0 14.317,3.241 C11.637,2.855 9.085,3.946 7.079,5.662"/>
</svg>

