<svg xmlns="http://www.w3.org/2000/svg" width="24" height="24">
  <defs/>
  <path  d="M18.615,4.212 A1 1 0 0 1 19,5 L19,7.101 A6.996 6.996 0 0 1 20.71,10 L21,10 A1 1 0 0 1 22,11 L22,14 A1 1 0 0 1 21.447,14.894 L19.991,15.623 A7.032 7.032 0 0 1 18,17.745 L18,19 A1 1 0 0 1 17,20 L14,20 A1 1 0 0 1 13,19 L12,19 A1 1 0 0 1 11,20 L8,20 A1 1 0 0 1 7,19 L7,17.745 A7.013 7.013 0 0 1 4.264,13.909 A3.001 3.001 0 0 1 2,11 L2,10.5 A1 1 0 0 1 4,10.5 L4,11 A1 1 0 0 0 4.037,11.272 A7 7 0 0 1 11,5 L13.877,5 L17.757,4.03 A1 1 0 0 1 18.615,4.212 M16.5,9 A1.5 1.5 0 1 0 16.5,12 A1.5 1.5 0 0 0 16.5,9"/>
</svg>

