<svg xmlns="http://www.w3.org/2000/svg" width="24" height="24">
  <defs/>
  <path  d="M18.615,4.212 C18.858,4.401 19,4.692 19,5 L19,7.101 C19.797,7.914 20.384,8.909 20.71,10 L21,10 C21.552,10 22,10.448 22,11 L22,14 C22,14.379 21.786,14.725 21.447,14.894 L19.991,15.623 C19.483,16.461 18.804,17.184 18,17.745 L18,19 C18,19.552 17.552,20 17,20 L14,20 C13.448,20 13,19.552 13,19 L12,19 C12,19.552 11.552,20 11,20 L8,20 C7.448,20 7,19.552 7,19 L7,17.745 C5.673,16.82 4.706,15.465 4.264,13.909 C2.933,13.572 2,12.374 2,11 L2,10.5 C2,9.948 2.448,9.5 3,9.5 C3.552,9.5 4,9.948 4,10.5 L4,11 C4,11.092 4.012,11.183 4.037,11.272 C4.41,7.707 7.415,5 11,5 L13.877,5 L17.757,4.03 C18.056,3.955 18.372,4.022 18.615,4.212 Z M10,18 C10,17.448 10.448,17 11,17 L14,17 C14.552,17 15,17.448 15,18 L16,18 L16,17.197 C16,16.84 16.191,16.51 16.5,16.332 C17.299,15.869 17.955,15.196 18.396,14.385 C18.494,14.206 18.644,14.06 18.827,13.969 L20,13.382 L20,12 L19.917,12 C19.429,12 19.012,11.647 18.931,11.165 C18.742,10.048 18.179,9.028 17.333,8.273 C17.121,8.083 17,7.812 17,7.528 L17,6.28 L14.242,6.97 C14.163,6.99 14.082,7 14,7 L11,7 C8.736,6.999 6.753,8.519 6.167,10.706 C5.581,12.893 6.538,15.201 8.5,16.332 C8.809,16.51 9,16.84 9,17.197 L9,18 Z M16,12 C15.448,12 15,11.552 15,11 C15,10.448 15.448,10 16,10 C16.552,10 17,10.448 17,11 C17,11.552 16.552,12 16,12 Z"/>
</svg>

