<svg xmlns="http://www.w3.org/2000/svg" width="24" height="24">
  <defs/>
  <path  d="M11.5,3 C13.52,3 15.293,4.346 15.836,6.292 L15.888,6.497 L17.758,6.03 C18.034,5.961 18.327,6.014 18.563,6.174 C18.798,6.334 18.954,6.588 18.991,6.87 L19,7 L19,8.81 C19.564,9.351 20.026,9.988 20.364,10.692 L20.502,11 L21,11 C21.507,11 21.934,11.38 21.993,11.883 L22,12 L22,15 C22,15.334 21.833,15.646 21.555,15.832 L21.447,15.894 L20.279,16.479 C19.801,17.404 19.108,18.201 18.259,18.804 L18,18.978 L18,20 C18,20.507 17.62,20.934 17.117,20.993 L17,21 L14,21 C13.493,21 13.066,20.62 13.007,20.117 L13,20 L12,20 C12,20.507 11.62,20.934 11.117,20.993 L11,21 L8,21 C7.493,21 7.066,20.62 7.007,20.117 L7,20 L7,18.978 C5.541,18.045 4.514,16.569 4.146,14.877 C2.938,14.518 2.083,13.442 2.006,12.184 L2,12 L2,11.5 C2.001,10.971 2.413,10.534 2.941,10.503 C3.47,10.472 3.931,10.858 3.993,11.383 L4,11.5 L4,12 C4,12.148 4.032,12.289 4.09,12.415 C4.399,10.594 5.467,8.991 7.028,8.004 C6.884,6.731 7.291,5.457 8.144,4.501 C8.998,3.546 10.219,3 11.5,3 Z M11.5,5 C10.247,5 9.188,5.927 9.022,7.169 C9.507,7.056 10.002,7 10.5,7 L13.877,7 L13.947,6.983 C13.703,5.827 12.682,5 11.5,5 Z M16,11 C15.448,11 15,11.448 15,12 C15,12.552 15.448,13 16,13 C16.552,13 17,12.552 17,12 C17,11.448 16.552,11 16,11 Z"/>
</svg>

