<svg xmlns="http://www.w3.org/2000/svg" width="24" height="24">
  <defs/>
  <path  d="M11.5,3 A4.502 4.502 0 0 1 15.836,6.292 L15.888,6.497 L17.758,6.03 A1 1 0 0 1 18.991,6.87 L19,7 L19,8.81 A6.517 6.517 0 0 1 20.364,10.692 L20.502,11 L21,11 A1 1 0 0 1 21.993,11.883 L22,12 L22,15 A1 1 0 0 1 21.555,15.832 L21.447,15.894 L20.279,16.479 A6.525 6.525 0 0 1 18.259,18.804 L18,18.978 L18,20 A1 1 0 0 1 17.117,20.993 L17,21 L14,21 A1 1 0 0 1 13.007,20.117 L13,20 L12,20 A1 1 0 0 1 11.117,20.993 L11,21 L8,21 A1 1 0 0 1 7.007,20.117 L7,20 L7,18.978 A6.508 6.508 0 0 1 4.146,14.877 A3.002 3.002 0 0 1 2.006,12.184 L2,12 L2,11.5 A1 1 0 0 1 3.993,11.383 L4,11.5 L4,12 C4,12.148 4.032,12.289 4.09,12.415 A6.504 6.504 0 0 1 7.028,8.004 A4.5 4.5 0 0 1 11.5,3 M17,8.28 L14.242,8.97 L14.122,8.993 L14,9 L10.5,9 A4.5 4.5 0 0 0 8.455,17.51 A1 1 0 0 1 8.992,18.276 L9,18.4 L9,19 L10,19 A1 1 0 0 1 10.883,18.007 L11,18 L14,18 A1 1 0 0 1 14.993,18.883 L15,19 L16,19 L16,18.4 A1 1 0 0 1 16.545,17.51 A4.523 4.523 0 0 0 18.613,15.33 A0.999 0.999 0 0 1 18.96,14.913 L19.079,14.843 L20,14.382 L20,13 L19.793,13 A1 1 0 0 1 18.831,12.272 A4.504 4.504 0 0 0 17.363,10.028 A1 1 0 0 1 17.008,9.384 L17,9.257 Z M16,11 A1 1 0 1 1 16,13 A1 1 0 0 1 16,11 M11.5,5 A2.5 2.5 0 0 0 9.022,7.169 A6.52 6.52 0 0 1 10.5,7 L13.877,7 L13.947,6.983 A2.5 2.5 0 0 0 11.5,5"/>
</svg>

