<svg xmlns="http://www.w3.org/2000/svg" width="24" height="24">
  <defs/>
  <path  d="M16.735,2.835 L21.164,7.265 C21.868,7.969 21.948,9.084 21.35,9.88 L19.166,12.793 C18.258,14.003 17.67,15.422 17.456,16.92 L17.145,19.097 C17.041,19.827 16.254,20.362 15.484,20.01 C14.761,19.679 12.855,18.625 9.764,15.65 L5.586,19.828 C5.335,20.088 4.963,20.192 4.613,20.101 C4.264,20.009 3.991,19.736 3.899,19.387 C3.808,19.037 3.912,18.665 4.172,18.414 L8.35,14.236 C5.375,11.145 4.321,9.239 3.99,8.516 C3.638,7.745 4.173,6.959 4.903,6.854 L7.08,6.544 C8.578,6.33 9.997,5.742 11.207,4.834 L14.12,2.649 C14.916,2.051 16.031,2.131 16.735,2.835 Z M15.32,4.25 L12.407,6.435 C10.928,7.545 9.193,8.263 7.362,8.525 L6.362,8.668 C6.986,9.648 8.2,11.27 10.464,13.536 C12.73,15.802 14.353,17.015 15.333,17.639 L15.476,16.638 C15.738,14.808 16.457,13.073 17.566,11.594 L19.75,8.68 Z"/>
</svg>

