<svg xmlns="http://www.w3.org/2000/svg" width="24" height="24">
  <defs/>
  <path  d="M8.867,2 L15.133,2 C16.128,2 16.972,2.732 17.113,3.717 L17.627,7.322 C17.841,8.82 18.429,10.24 19.337,11.45 L20.656,13.208 C21.098,13.798 20.921,14.733 20.128,15.028 C19.382,15.306 17.29,15.908 13,15.99 L13,22 C13,22.552 12.552,23 12,23 C11.448,23 11,22.552 11,22 L11,15.991 C6.711,15.908 4.618,15.306 3.872,15.028 C3.079,14.733 2.901,13.798 3.344,13.208 L4.662,11.45 C5.57,10.24 6.158,8.82 6.372,7.322 L6.887,3.717 C7.028,2.732 7.872,2 8.867,2 Z"/>
</svg>

