<svg xmlns="http://www.w3.org/2000/svg" width="24" height="24">
  <defs/>
  <path  d="M16,3.34 C17.99,4.489 19.39,6.437 19.843,8.689 C20.297,10.941 19.76,13.28 18.37,15.109 C20.071,15.554 21.179,17.191 20.958,18.936 C20.738,20.68 19.258,21.991 17.5,21.999 C16.486,21.999 15.521,21.559 14.856,20.793 C14.191,20.026 13.892,19.009 14.035,18.005 C12.665,18.367 11.223,18.357 9.858,17.978 L8.232,20.794 C7.956,21.272 7.344,21.436 6.866,21.16 L5.134,20.16 C4.656,19.884 4.492,19.272 4.768,18.794 L6.394,15.978 C3.515,13.156 3.185,8.633 5.625,5.424 C8.064,2.214 12.511,1.321 16,3.34 Z M17.5,17 C16.672,17 16,17.672 16,18.5 C16,19.328 16.672,20 17.5,20 C18.328,20 19,19.328 19,18.5 C19,17.672 18.328,17 17.5,17 Z"/>
</svg>

