<svg xmlns="http://www.w3.org/2000/svg" width="24" height="24">
  <defs/>
  <path  d="M16,3.34 C17.99,4.489 19.39,6.437 19.843,8.689 C20.297,10.941 19.76,13.28 18.37,15.109 C20.074,15.551 21.186,17.19 20.965,18.937 C20.744,20.683 19.261,21.995 17.5,21.999 C16.486,21.999 15.521,21.559 14.856,20.793 C14.191,20.026 13.892,19.009 14.035,18.005 C12.665,18.367 11.223,18.357 9.858,17.978 L8.232,20.794 C7.956,21.272 7.344,21.436 6.866,21.16 L5.134,20.16 C4.656,19.884 4.492,19.272 4.768,18.794 L6.394,15.978 C3.515,13.156 3.185,8.633 5.625,5.424 C8.064,2.214 12.511,1.321 16,3.34 Z M15,5.072 C12.644,3.71 9.666,4.105 7.746,6.033 C5.825,7.962 5.444,10.942 6.816,13.292 C6.902,13.026 7.095,12.808 7.349,12.69 C7.603,12.573 7.894,12.568 8.152,12.675 L8.268,12.732 L11.732,14.732 C11.994,14.883 12.173,15.144 12.22,15.443 C12.266,15.741 12.176,16.045 11.973,16.269 C14.694,16.282 17.083,14.462 17.794,11.835 C18.504,9.208 17.357,6.432 15,5.072 Z M17.5,17 C16.672,17 16,17.672 16,18.5 C16,19.328 16.672,20 17.5,20 C18.328,20 19,19.328 19,18.5 C19,17.672 18.328,17 17.5,17 Z M8.66,15.419 C8.632,15.884 8.497,16.336 8.264,16.739 C8.458,16.404 8.714,16.109 9.02,15.871 L9.209,15.735 L9.331,15.655 L8.67,15.274 L8.66,15.419 Z"/>
</svg>

