<svg xmlns="http://www.w3.org/2000/svg" width="24" height="24">
  <defs/>
  <path  d="M12,22 C17.523,22 22,17.523 22,12 C22,6.477 17.523,2 12,2 C6.477,2 2,6.477 2,12 C2,16.006 4.356,19.462 7.758,21.058 L10.048,10.292 A1 1 0 0 1 12.004,10.708 C11.73,12 11.49,12.5 11.501,13.1 C11.518,14.04 11.774,14.542 12.022,14.802 C12.275,15.067 12.64,15.21 13.117,15.202 C13.604,15.192 14.155,15.021 14.643,14.713 C15.592,14.117 16,13.095 16,12 A4 4 0 1 0 8.332,13.6 A1 1 0 0 1 6.5,14.4 A6 6 0 1 1 17.5,14.4 C17.132,15.248 16.46,15.934 15.708,16.407 C14.953,16.882 14.051,17.186 13.153,17.202 C12.334,17.217 11.481,16.99 10.794,16.394 L9.66,21.726 C10.41,21.906 11.194,22.001 11.999,22.001 Z"/>
</svg>

