<svg xmlns="http://www.w3.org/2000/svg" width="24" height="24">
  <defs/>
  <path  d="M12,2 C17.523,2 22,6.477 22,12 C22,17.523 17.523,22 12,22 C6.477,22 2,17.523 2,12 C2,6.477 6.477,2 12,2 Z M4,12 C3.999,14.936 5.607,17.636 8.188,19.035 L10.048,10.292 C10.117,9.938 10.373,9.648 10.715,9.535 C11.058,9.422 11.435,9.502 11.702,9.745 C11.969,9.988 12.085,10.356 12.004,10.708 C11.73,12 11.501,12.5 11.501,13.1 C11.501,14.04 11.774,14.542 12.022,14.802 C12.275,15.067 12.64,15.211 13.117,15.201 C13.604,15.193 14.155,15.021 14.643,14.713 C15.59,14.117 16,13.095 16,12 C15.998,10.374 15.012,8.911 13.506,8.299 C12,7.687 10.273,8.047 9.138,9.21 C8.002,10.374 7.683,12.109 8.332,13.6 C8.488,13.929 8.453,14.318 8.239,14.613 C8.026,14.909 7.668,15.065 7.306,15.021 C6.945,14.976 6.636,14.738 6.5,14.4 C5.404,11.886 6.153,8.948 8.318,7.265 C10.484,5.582 13.515,5.582 15.681,7.265 C17.847,8.947 18.596,11.884 17.501,14.399 C17.133,15.246 16.461,15.933 15.709,16.406 C14.954,16.881 14.052,17.184 13.154,17.201 C12.335,17.216 11.482,16.989 10.795,16.393 L10.077,19.767 C13.39,20.587 16.859,19.216 18.714,16.351 C20.57,13.486 20.404,9.76 18.301,7.072 C16.197,4.384 12.62,3.326 9.394,4.438 C6.167,5.55 4.001,8.587 4,12 Z"/>
</svg>

