<svg xmlns="http://www.w3.org/2000/svg" width="24" height="24">
  <defs/>
  <path  d="M12,2 C12.507,2 12.934,2.38 12.993,2.883 L13,3 L13,7.257 C14.612,5.927 16.838,5.625 18.745,6.478 C20.653,7.331 21.912,9.191 21.996,11.279 L22,11.5 L22,12 C22,12.507 21.62,12.934 21.117,12.993 L21,13 L16.743,13 C18.073,14.612 18.375,16.838 17.522,18.745 C16.669,20.653 14.809,21.912 12.721,21.996 L12.5,22 L12,22 C11.493,22 11.066,21.62 11.007,21.117 L11,21 L11,16.743 C9.388,18.073 7.162,18.375 5.255,17.522 C3.347,16.669 2.088,14.809 2.004,12.721 L2,12.5 L2,12 C2,11.493 2.38,11.066 2.883,11.007 L3,11 L7.257,11 C5.927,9.388 5.625,7.162 6.478,5.255 C7.331,3.347 9.191,2.088 11.279,2.004 L11.5,2 Z M12,11 C11.448,11 11,11.448 11,12 C11,12.552 11.448,13 12,13 C12.552,13 13,12.552 13,12 C13,11.448 12.552,11 12,11 Z"/>
</svg>

