<svg xmlns="http://www.w3.org/2000/svg" width="24" height="24">
  <defs/>
  <path  d="M12,2 C12.507,2 12.934,2.38 12.993,2.883 L13,3 L13,7.257 C14.612,5.927 16.838,5.625 18.745,6.478 C20.653,7.331 21.912,9.191 21.996,11.279 L22,11.5 L22,12 C22,12.507 21.62,12.934 21.117,12.993 L21,13 L16.743,13 C18.073,14.612 18.375,16.838 17.522,18.745 C16.669,20.653 14.809,21.912 12.721,21.996 L12.5,22 L12,22 C11.493,22 11.066,21.62 11.007,21.117 L11,21 L11,16.743 C9.388,18.073 7.162,18.375 5.255,17.522 C3.347,16.669 2.088,14.809 2.004,12.721 L2,12.5 L2,12 C2,11.493 2.38,11.066 2.883,11.007 L3,11 L7.257,11 C5.927,9.388 5.625,7.162 6.478,5.255 C7.331,3.347 9.191,2.088 11.279,2.004 L11.5,2 Z M10.965,13 L4.035,13 C4.281,14.725 5.758,16.006 7.5,16.006 C9.242,16.006 10.719,14.725 10.965,13 Z M11,4.035 C9.31,4.277 8.041,5.702 7.997,7.408 C7.952,9.115 9.145,10.605 10.82,10.934 L11,10.964 Z M16.5,8 C14.76,8 13.284,9.278 13.035,11 L19.965,11 C19.716,9.278 18.24,8 16.5,8 Z M13,13.035 L13,19.965 C14.722,19.716 16,18.24 16,16.5 C16,14.76 14.722,13.284 13,13.035 Z"/>
</svg>

