<svg xmlns="http://www.w3.org/2000/svg" width="24" height="24">
  <defs/>
  <path  d="M12.555,2.168 A1 1 0 0 1 13,3 L13,5.807 C13.244,5.775 13.488,5.748 13.732,5.727 C14.777,5.632 16.237,5.607 17.379,6.074 C18.852,6.678 19.994,8.177 20.714,9.324 C21.174,10.054 21.59,10.817 21.923,11.614 A1.002 1.002 0 0 1 21,13 L18.193,13 C18.225,13.243 18.252,13.488 18.273,13.732 C18.368,14.777 18.393,16.237 17.925,17.379 C17.322,18.852 15.823,19.994 14.676,20.714 C13.945,21.174 13.183,21.59 12.386,21.923 A1.001 1.001 0 0 1 11,21 L11,18.193 A17.84 17.84 0 0 1 10.268,18.273 C9.223,18.368 7.763,18.393 6.621,17.925 C5.148,17.322 4.006,15.822 3.286,14.676 A15.698 15.698 0 0 1 2.077,12.385 A1.002 1.002 0 0 1 3,11 L5.807,11 A17.859 17.859 0 0 1 5.727,10.267 C5.632,9.223 5.607,7.763 6.075,6.621 C6.678,5.148 8.177,4.005 9.324,3.285 C10.055,2.825 10.817,2.41 11.614,2.077 A1 1 0 0 1 12.554,2.167 Z M12,11 A1 1 0 1 0 12,13 A1 1 0 0 0 12,11"/>
</svg>

