<svg xmlns="http://www.w3.org/2000/svg" width="24" height="24">
  <defs/>
  <path  d="M12.555,2.168 C12.833,2.354 13,2.666 13,3 L13,5.807 C13.244,5.775 13.488,5.748 13.732,5.727 C14.777,5.632 16.237,5.607 17.379,6.074 C18.852,6.678 19.994,8.177 20.714,9.324 C21.174,10.054 21.59,10.817 21.923,11.614 C22.051,11.923 22.017,12.275 21.831,12.553 C21.646,12.832 21.334,12.999 21,13 L18.193,13 C18.225,13.243 18.252,13.488 18.273,13.732 C18.368,14.777 18.393,16.237 17.925,17.379 C17.322,18.852 15.823,19.994 14.676,20.714 C13.945,21.174 13.183,21.59 12.386,21.923 C12.077,22.052 11.725,22.018 11.446,21.832 C11.168,21.647 11,21.335 11,21 L11,18.193 C10.757,18.225 10.513,18.251 10.268,18.273 C9.223,18.368 7.763,18.393 6.621,17.925 C5.148,17.322 4.006,15.822 3.286,14.676 C2.821,13.947 2.416,13.181 2.077,12.385 C1.949,12.076 1.984,11.724 2.169,11.446 C2.354,11.168 2.666,11.001 3,11 L5.807,11 C5.775,10.756 5.749,10.512 5.727,10.267 C5.632,9.223 5.607,7.763 6.075,6.621 C6.678,5.148 8.177,4.005 9.324,3.285 C10.055,2.825 10.817,2.41 11.614,2.077 C11.923,1.948 12.275,1.982 12.554,2.167 Z M13.912,7.718 C13.75,7.733 13.589,7.75 13.428,7.77 L13,7.83 L13,11 L19.385,11 C19.275,10.804 19.153,10.598 19.021,10.387 C18.32,9.271 17.461,8.27 16.621,7.925 C15.956,7.653 14.916,7.627 13.913,7.718 Z M11,4.615 L10.8,4.729 L10.387,4.979 C9.271,5.68 8.27,6.538 7.925,7.379 C7.653,8.043 7.628,9.083 7.718,10.087 C7.748,10.425 7.79,10.737 7.831,11 L11,11 Z M13,13 L13,19.385 C13.196,19.275 13.402,19.153 13.613,19.021 C14.729,18.319 15.73,17.461 16.075,16.621 C16.347,15.956 16.372,14.916 16.282,13.912 C16.267,13.75 16.249,13.589 16.229,13.428 L16.17,13 L13,13 Z M11,13 L4.615,13 C4.725,13.196 4.847,13.402 4.979,13.612 C5.681,14.729 6.539,15.73 7.379,16.075 C8.044,16.347 9.084,16.372 10.088,16.282 C10.425,16.251 10.738,16.21 11,16.169 Z"/>
</svg>

