<svg xmlns="http://www.w3.org/2000/svg" width="24" height="24">
  <defs/>
  <path  d="M9.673,3.447 C9.855,2.416 10.8,1.7 11.842,1.804 L11.99,1.824 L15.93,2.519 C16.96,2.701 17.676,3.647 17.572,4.688 L17.552,4.836 L17.378,5.82 C17.878,5.908 18.233,6.356 18.203,6.863 L18.189,6.979 L17.494,10.919 C18.011,11.015 18.365,11.495 18.305,12.018 C18.244,12.54 17.788,12.926 17.263,12.901 L17.147,12.888 L16.627,15.842 C17.149,15.934 17.508,16.417 17.446,16.943 C17.384,17.47 16.923,17.856 16.394,17.825 L16.278,17.812 L15.504,22.175 C15.427,22.608 15.076,22.94 14.639,22.993 L14.519,23 L6.397,23 C6.123,23 5.861,22.888 5.672,22.689 C5.483,22.491 5.384,22.224 5.398,21.95 L5.412,21.826 L6.431,16.076 C5.905,15.988 5.541,15.503 5.603,14.974 C5.665,14.444 6.131,14.057 6.663,14.092 L6.779,14.106 L7.299,11.151 C6.778,11.059 6.419,10.576 6.48,10.05 C6.542,9.524 7.002,9.138 7.531,9.168 L7.647,9.182 L8.342,5.242 C8.429,4.749 8.868,4.396 9.369,4.417 L9.5,4.431 L9.674,3.446 Z M8.4,16.422 L7.589,21 L9.56,21 L9.962,18.723 C10.058,18.179 10.576,17.816 11.12,17.911 C11.665,18.007 12.028,18.526 11.932,19.07 L11.59,21 L13.68,21 L14.307,17.464 Z M10.137,6.575 L9.616,9.529 L11.586,9.876 L11.759,8.891 C11.855,8.347 12.374,7.984 12.918,8.08 C13.462,8.176 13.825,8.695 13.729,9.239 L13.555,10.224 L15.525,10.571 L16.045,7.616 Z M9.269,11.499 L8.748,14.453 L10.718,14.8 L10.891,13.815 C10.983,13.294 11.466,12.935 11.992,12.996 C12.518,13.058 12.904,13.518 12.874,14.047 L12.86,14.163 L12.687,15.148 L14.657,15.495 L15.177,12.541 Z M11.642,3.794 L11.469,4.779 L15.409,5.473 L15.582,4.488 Z"/>
</svg>

