<svg xmlns="http://www.w3.org/2000/svg" width="24" height="24">
  <defs/>
  <path  d="M11.99,1.824 L15.93,2.519 C17.017,2.711 17.743,3.749 17.551,4.836 L17.378,5.82 C17.922,5.916 18.284,6.435 18.188,6.979 L17.494,10.919 C17.853,10.973 18.155,11.217 18.282,11.558 C18.41,11.898 18.342,12.281 18.106,12.557 C17.87,12.834 17.503,12.96 17.147,12.888 L16.627,15.842 C17.171,15.939 17.534,16.458 17.437,17.002 C17.34,17.546 16.821,17.909 16.277,17.812 L15.504,22.175 C15.419,22.652 15.005,23 14.52,23 L6.396,23 C6.1,23 5.82,22.869 5.63,22.643 C5.44,22.416 5.36,22.117 5.411,21.826 L6.43,16.076 C5.886,15.98 5.523,15.461 5.619,14.917 C5.715,14.373 6.234,14.01 6.778,14.106 L7.298,11.151 C6.754,11.055 6.391,10.536 6.487,9.992 C6.583,9.448 7.102,9.085 7.646,9.181 L8.341,5.242 C8.437,4.699 8.956,4.336 9.499,4.432 L9.673,3.446 C9.865,2.358 10.902,1.632 11.99,1.824 Z M9.962,18.724 L9.56,21 L11.59,21 L11.931,19.07 C12.027,18.526 11.664,18.007 11.12,17.912 C10.575,17.816 10.057,18.179 9.961,18.723 Z M11.469,4.779 L15.409,5.473 L15.582,4.488 L11.643,3.794 L11.469,4.779 Z M12.918,8.08 C12.418,7.992 11.932,8.292 11.786,8.778 L11.759,8.892 L11.585,9.876 L13.555,10.224 L13.729,9.239 C13.825,8.695 13.462,8.176 12.918,8.08 Z M12.049,13.004 C11.55,12.916 11.063,13.216 10.918,13.702 L10.891,13.816 L10.717,14.8 L12.687,15.148 L12.861,14.163 C12.907,13.902 12.848,13.633 12.695,13.415 C12.543,13.198 12.31,13.05 12.049,13.004 Z"/>
</svg>

