<svg xmlns="http://www.w3.org/2000/svg" width="24" height="24">
  <defs/>
  <path  d="M6.52,3.123 C7.004,2.858 7.611,3.035 7.877,3.519 C9.077,5.707 9.822,8.252 9.972,10.979 L14.028,10.979 C14.178,8.252 14.924,5.707 16.123,3.519 C16.389,3.035 16.997,2.857 17.481,3.123 C17.965,3.389 18.143,3.997 17.877,4.481 C16.839,6.374 16.179,8.589 16.032,10.978 L18.022,10.978 C18.574,10.978 19.022,11.426 19.022,11.978 C19.022,12.53 18.574,12.978 18.022,12.978 L16.029,12.978 C16.171,15.384 16.833,17.615 17.877,19.52 C18.128,20.003 17.947,20.597 17.47,20.858 C16.993,21.119 16.394,20.951 16.123,20.48 C14.918,18.282 14.17,15.72 14.026,12.978 L9.974,12.978 C9.83,15.721 9.083,18.282 7.877,20.481 C7.611,20.965 7.003,21.143 6.519,20.877 C6.035,20.611 5.857,20.003 6.123,19.519 C7.167,17.615 7.829,15.385 7.971,12.979 L6.022,12.979 C5.47,12.979 5.022,12.531 5.022,11.979 C5.022,11.427 5.47,10.979 6.022,10.979 L7.969,10.979 C7.82,8.588 7.16,6.373 6.123,4.48 C5.857,3.996 6.035,3.388 6.519,3.122 Z"/>
</svg>

