<svg xmlns="http://www.w3.org/2000/svg" width="24" height="24">
  <defs/>
  <path  d="M6,2 L18,2 C20.209,2 22,3.791 22,6 L22,18 C22,20.209 20.209,22 18,22 L6,22 C3.791,22 2,20.209 2,18 L2,6 C2,3.791 3.791,2 6,2 Z M7.79,16.853 C7.525,17.337 7.702,17.945 8.186,18.211 C8.671,18.476 9.279,18.298 9.544,17.814 C10.353,16.323 10.837,14.678 10.962,12.986 L13.038,12.986 C13.164,14.678 13.647,16.323 14.456,17.814 C14.721,18.298 15.329,18.476 15.814,18.211 C16.298,17.945 16.475,17.337 16.21,16.853 C15.561,15.657 15.165,14.34 15.045,12.985 L16.015,12.985 C16.567,12.985 17.015,12.537 17.015,11.985 C17.015,11.433 16.567,10.985 16.015,10.985 L15.048,10.985 C15.171,9.64 15.566,8.334 16.21,7.147 C16.475,6.663 16.298,6.055 15.814,5.789 C15.329,5.524 14.721,5.702 14.456,6.186 C13.652,7.669 13.169,9.304 13.041,10.986 L10.96,10.986 C10.831,9.304 10.349,7.668 9.544,6.186 C9.279,5.702 8.671,5.524 8.186,5.789 C7.702,6.055 7.525,6.663 7.79,7.147 C8.434,8.335 8.829,9.641 8.952,10.986 L8.015,10.986 C7.463,10.986 7.015,11.434 7.015,11.986 C7.015,12.538 7.463,12.986 8.015,12.986 L8.955,12.986 C8.835,14.341 8.438,15.657 7.79,16.853 Z"/>
</svg>

