<svg xmlns="http://www.w3.org/2000/svg" width="24" height="24">
  <defs/>
  <path  d="M11.5,3 C12.007,3 12.434,3.38 12.493,3.883 L12.5,4 L12.5,11.19 L19.44,9.298 C19.973,9.153 20.522,9.467 20.667,10 C21.739,13.93 20.186,18.106 16.807,20.381 C13.427,22.656 8.974,22.523 5.736,20.05 C2.499,17.578 1.198,13.317 2.502,9.458 C3.807,5.599 7.426,3.001 11.5,3 Z M15.294,2.044 C17.408,2.696 19.228,4.064 20.443,5.913 C20.739,6.363 20.625,6.967 20.185,7.278 L20.084,7.341 L14.476,10.379 C14.162,10.549 13.781,10.539 13.477,10.352 C13.172,10.165 12.99,9.83 13,9.473 L13.012,9.348 L14.012,2.848 C14.056,2.561 14.223,2.307 14.469,2.153 C14.715,1.998 15.016,1.959 15.294,2.044 Z M12.5,14 C11.119,14 10,15.119 10,16.5 C10,17.881 11.119,19 12.5,19 C13.881,19 15,17.881 15,16.5 C15,15.119 13.881,14 12.5,14 Z M7.5,12 C6.672,12 6,12.672 6,13.5 C6,14.328 6.672,15 7.5,15 C8.328,15 9,14.328 9,13.5 C9,12.672 8.328,12 7.5,12 Z M15.798,4.388 L15.295,7.661 L18.102,6.14 C17.455,5.412 16.672,4.818 15.798,4.388 Z M8,8 C7.493,8 7.066,8.38 7.007,8.883 L7,9.01 C7.001,9.539 7.413,9.976 7.941,10.007 C8.47,10.038 8.931,9.652 8.993,9.127 L9,9 C9,8.448 8.552,8 8,8 Z M17,13 C16.493,13 16.066,13.38 16.007,13.883 L16,14.01 C16.001,14.539 16.413,14.976 16.941,15.007 C17.47,15.038 17.931,14.652 17.993,14.127 L18,14 C18,13.448 17.552,13 17,13 Z M12.5,16 C12.776,16 13,16.224 13,16.5 C13,16.776 12.776,17 12.5,17 C12.224,17 12,16.776 12,16.5 C12,16.224 12.224,16 12.5,16 Z"/>
</svg>

