<svg xmlns="http://www.w3.org/2000/svg" width="24" height="24">
  <defs/>
  <path  d="M11.5,3 C12.007,3 12.434,3.38 12.493,3.883 L12.5,4 L12.5,11.19 L19.44,9.298 C19.973,9.153 20.522,9.467 20.667,10 C21.739,13.93 20.186,18.106 16.807,20.381 C13.427,22.656 8.974,22.523 5.736,20.05 C2.499,17.578 1.198,13.317 2.502,9.458 C3.807,5.599 7.426,3.001 11.5,3 Z M10.5,5.066 C6.591,5.596 3.76,9.064 4.023,13 C4.287,16.937 7.555,19.996 11.5,20 C13.605,20 15.613,19.116 17.034,17.563 C18.455,16.01 19.158,13.932 18.971,11.835 L18.935,11.509 L11.763,13.465 C11.482,13.542 11.181,13.492 10.94,13.328 C10.699,13.165 10.54,12.904 10.507,12.615 L10.5,12.5 Z M15.294,2.044 C17.408,2.696 19.228,4.064 20.443,5.913 C20.739,6.363 20.625,6.967 20.185,7.278 L20.084,7.341 L14.476,10.379 C14.162,10.549 13.781,10.539 13.477,10.352 C13.172,10.165 12.99,9.83 13,9.473 L13.012,9.348 L14.012,2.848 C14.056,2.561 14.223,2.307 14.469,2.153 C14.715,1.998 15.016,1.959 15.294,2.044 Z M12.5,14 C13.881,14 15,15.119 15,16.5 C15,17.881 13.881,19 12.5,19 C11.119,19 10,17.881 10,16.5 C10,15.119 11.119,14 12.5,14 Z M7.5,12 C8.328,12 9,12.672 9,13.5 C9,14.328 8.328,15 7.5,15 C6.672,15 6,14.328 6,13.5 C6,12.672 6.672,12 7.5,12 Z M15.798,4.388 L15.295,7.661 L18.102,6.14 C17.455,5.412 16.672,4.818 15.798,4.388 Z M8,8 C8.507,8 8.934,8.38 8.993,8.883 L9,9.01 C8.999,9.539 8.587,9.976 8.059,10.007 C7.53,10.038 7.069,9.652 7.007,9.127 L7,9 C7,8.448 7.448,8 8,8 Z M17,13 C17.507,13 17.934,13.38 17.993,13.883 L18,14.01 C17.999,14.539 17.587,14.976 17.059,15.007 C16.53,15.038 16.069,14.652 16.007,14.127 L16,14 C16,13.448 16.448,13 17,13 Z M12.5,16 C12.224,16 12,16.224 12,16.5 C12,16.776 12.224,17 12.5,17 C12.776,17 13,16.776 13,16.5 C13,16.224 12.776,16 12.5,16 Z"/>
</svg>

