<svg xmlns="http://www.w3.org/2000/svg" width="24" height="24">
  <defs/>
  <path  d="M12,3 C14.225,3 16.263,3.808 17.833,5.146 C18.764,4.926 19.618,4.824 20.34,4.886 C21.1,4.95 21.943,5.223 22.392,6 C22.799,6.704 22.744,7.49 22.468,8.204 C22.196,8.906 21.681,9.631 20.987,10.367 L20.873,10.487 C21.507,14.199 19.763,17.914 16.501,19.796 C13.24,21.679 9.151,21.332 6.253,18.927 L6.093,18.967 C5.108,19.2 4.223,19.284 3.478,19.167 C2.721,19.049 2.013,18.702 1.608,18 C1.158,17.223 1.344,16.356 1.668,15.666 C1.976,15.011 2.491,14.322 3.147,13.626 C2.664,10.998 3.374,8.292 5.084,6.239 C6.794,4.186 9.328,3 12,3 Z M3.345,17.009 C3.73,17.569 5.168,17.161 5.815,16.978 C5.876,16.961 5.93,16.945 5.975,16.933 L5.99,16.929 C7.674,16.472 10.008,15.46 13,13.732 C15.994,12.004 18.039,10.488 19.275,9.258 C19.278,9.255 19.282,9.251 19.285,9.248 C19.329,9.204 19.384,9.152 19.446,9.092 C19.957,8.602 20.965,7.637 20.665,7.009 C20.178,6.58 18.937,6.915 18.282,7.091 C18.208,7.111 18.141,7.129 18.084,7.144 C17.588,7.27 17.062,7.139 16.682,6.796 C14.428,4.766 11.123,4.419 8.496,5.936 C5.87,7.453 4.519,10.489 5.151,13.456 C5.258,13.956 5.107,14.476 4.751,14.842 C4.708,14.886 4.658,14.936 4.601,14.993 C4.119,15.474 3.217,16.374 3.345,17.009 Z M8.633,18.139 L8.633,18.14 C10.778,19.317 13.382,19.288 15.5,18.064 C17.619,16.841 18.945,14.6 18.998,12.154 C17.698,13.18 16.036,14.289 14,15.464 C11.963,16.64 10.171,17.525 8.633,18.139 Z"/>
</svg>

