<svg xmlns="http://www.w3.org/2000/svg" width="24" height="24">
  <defs/>
  <path  d="M11.999,3 L12,3 C14.226,3 16.262,3.808 17.833,5.146 L18.15,5.074 L18.317,5.04 L18.663,4.976 L19.022,4.922 C20.297,4.755 21.728,4.85 22.392,6 C23.154,7.32 22.334,8.784 21.435,9.862 L21.21,10.124 L20.987,10.367 C19.593,11.845 17.284,13.568 14,15.464 C10.716,17.36 8.07,18.498 6.092,18.967 L5.933,19.003 L5.602,19.072 L5.256,19.132 C3.909,19.337 2.338,19.265 1.607,18 C0.944,16.85 1.577,15.564 2.358,14.543 L2.584,14.259 L2.699,14.123 L2.926,13.865 L3.146,13.625 C2.664,10.997 3.374,8.291 5.084,6.238 C6.794,4.186 9.328,3 11.999,3 Z M20.989,12.446 C20.838,15.5 19.148,18.268 16.5,19.797 C13.852,21.326 10.609,21.406 7.889,20.009 C8.846,19.684 9.786,19.307 10.702,18.88 C12.083,18.237 13.434,17.53 14.75,16.763 C16.073,16.006 17.36,15.19 18.608,14.315 C19.435,13.736 20.23,13.112 20.989,12.446 Z M3.872,15.869 L3.718,16.082 C3.553,16.317 3.371,16.607 3.344,16.87 L3.344,16.998 C3.484,17.248 3.981,17.25 4.346,17.223 L4.65,17.193 C4.353,16.774 4.093,16.331 3.872,15.868 Z M19.823,6.857 L19.538,6.882 C19.494,6.887 19.453,6.892 19.414,6.895 C19.704,7.315 19.959,7.761 20.175,8.229 L20.336,8.004 C20.525,7.731 20.756,7.342 20.693,7.082 L20.66,7 L20.657,7.002 C20.455,6.852 20.124,6.838 19.823,6.857 Z"/>
</svg>

