<svg xmlns="http://www.w3.org/2000/svg" width="24" height="24">
  <defs/>
  <path  d="M20,5 C21.105,5 22,5.895 22,7 L22,17 C22,18.105 21.105,19 20,19 L4,19 C2.895,19 2,18.105 2,17 L2,7 C2,5.895 2.895,5 4,5 Z M11,7 L4,7 L4,8 L6,8 C7.047,8 7.917,8.806 7.995,9.85 L8,10 L8,14 C8,15.047 7.194,15.917 6.15,15.995 L6,16 L4,16 L4,17 L11,17 L11,14.83 C9.833,14.417 9.039,13.33 9.001,12.093 C8.963,10.855 9.688,9.722 10.828,9.238 L11,9.17 Z M20,7 L13,7 L13,9.17 C14.167,9.583 14.961,10.67 14.999,11.907 C15.037,13.145 14.312,14.278 13.172,14.762 L13,14.83 L13,17 L20,17 L20,16 L18,16 C16.953,16 16.083,15.194 16.005,14.15 L16,14 L16,10 C16,8.953 16.806,8.083 17.85,8.005 L18,8 L20,8 Z M6,10 L4,10 L4,14 L6,14 Z M20,10 L18,10 L18,14 L20,14 Z M12,11 C11.448,11 11,11.448 11,12 C11,12.552 11.448,13 12,13 C12.552,13 13,12.552 13,12 C13,11.448 12.552,11 12,11 Z"/>
</svg>

