<svg xmlns="http://www.w3.org/2000/svg" width="24" height="24">
  <defs/>
  <path  d="M11,5 L11,9.17 A3.001 3.001 0 0 0 10.828,14.762 L11,14.829 L11,19 L4,19 A2 2 0 0 1 2.005,17.15 L2,17 L2,16 L5,16 A2 2 0 0 0 6.995,14.15 L7,14 L7,10 A2 2 0 0 0 5.15,8.005 L5,8 L2,8 L2,7 A2 2 0 0 1 3.85,5.005 L4,5 Z M20,5 A2 2 0 0 1 22,7 L22,8 L19,8 A2 2 0 0 0 17,10 L17,14 A2 2 0 0 0 19,16 L22,16 L22,17 A2 2 0 0 1 20,19 L13,19 L13,14.83 A3.001 3.001 0 0 0 13,9.17 L13,5 Z M5,10 L5,14 L2,14 L2,10 Z M22,10 L22,14 L19,14 L19,10 Z M12,11 A1 1 0 1 1 12,13 A1 1 0 0 1 12,11"/>
</svg>

