<svg xmlns="http://www.w3.org/2000/svg" width="24" height="24">
  <defs/>
  <path  d="M5.669,4.76 C5.723,4.299 5.992,3.892 6.394,3.66 C6.795,3.428 7.283,3.4 7.709,3.583 C8.771,4.037 11.151,5.116 14.171,6.859 C17.192,8.603 19.317,10.126 20.24,10.817 C21.028,11.408 21.03,12.58 20.241,13.173 C19.327,13.86 17.228,15.363 14.171,17.129 C11.111,18.895 8.759,19.961 7.707,20.409 C6.801,20.796 5.787,20.209 5.669,19.232 C5.531,18.09 5.273,15.497 5.273,11.995 C5.273,8.495 5.53,5.903 5.669,4.76 Z"/>
</svg>

