<svg xmlns="http://www.w3.org/2000/svg" width="24" height="24">
  <defs/>
  <path  d="M5.67,4.76 C5.724,4.299 5.993,3.892 6.395,3.66 C6.796,3.428 7.284,3.4 7.71,3.583 C8.772,4.037 11.152,5.116 14.172,6.859 C17.193,8.603 19.318,10.126 20.241,10.817 C21.029,11.408 21.031,12.58 20.242,13.173 C19.328,13.86 17.229,15.363 14.172,17.129 C11.112,18.895 8.76,19.961 7.708,20.409 C6.802,20.796 5.788,20.209 5.67,19.232 C5.532,18.09 5.274,15.497 5.274,11.995 C5.274,8.495 5.531,5.903 5.67,4.76 Z M7.575,5.708 C7.369,7.797 7.268,9.896 7.273,11.995 C7.273,14.796 7.443,16.992 7.575,18.284 C9.487,17.416 11.355,16.452 13.17,15.397 C14.991,14.353 16.759,13.218 18.466,11.996 C16.759,10.773 14.992,9.637 13.171,8.591 C11.355,7.537 9.487,6.575 7.575,5.708 Z"/>
</svg>

