<svg xmlns="http://www.w3.org/2000/svg" width="24" height="24">
  <defs/>
  <path  d="M12,2 C17.523,2 22,6.477 22,12 C22,17.523 17.523,22 12,22 C6.477,22 2,17.523 2,12 C2,6.477 6.477,2 12,2 Z M12,4 C7.582,4 4,7.582 4,12 C4,16.418 7.582,20 12,20 C16.418,20 20,16.418 20,12 C20,7.582 16.418,4 12,4 Z M8.964,8.65 C9.009,8.277 9.227,7.947 9.552,7.759 C9.878,7.572 10.273,7.549 10.618,7.697 L10.943,7.84 L11.383,8.042 L11.732,8.211 L12.122,8.407 L12.552,8.63 L13.014,8.881 L13.508,9.161 L13.757,9.306 L14.226,9.588 L14.654,9.856 L15.218,10.224 L15.682,10.542 L16.137,10.87 L16.22,10.931 C16.855,11.408 16.86,12.36 16.221,12.84 L15.938,13.049 L15.545,13.325 L15.049,13.66 L14.662,13.91 L14.232,14.18 L13.759,14.463 C13.677,14.512 13.593,14.561 13.507,14.61 L13.009,14.892 L12.543,15.145 L12.113,15.369 L11.723,15.565 L11.218,15.807 L10.818,15.988 L10.616,16.076 C10.271,16.223 9.877,16.199 9.552,16.012 C9.227,15.824 9.01,15.494 8.965,15.122 L8.911,14.623 L8.881,14.289 L8.839,13.69 L8.815,13.23 L8.797,12.724 L8.787,12.175 L8.787,11.596 L8.797,11.048 L8.815,10.542 L8.839,10.082 L8.881,9.483 L8.952,8.753 Z M10.848,10.005 L10.821,10.472 L10.8,10.997 L10.788,11.577 L10.788,12.195 L10.8,12.775 L10.82,13.3 L10.848,13.767 L11.264,13.557 L11.49,13.439 L11.978,13.177 L12.508,12.878 L13.03,12.569 L13.272,12.421 L13.716,12.141 L14.106,11.886 L13.714,11.629 L13.27,11.348 L12.774,11.048 C12.512,10.893 12.248,10.742 11.981,10.595 L11.493,10.333 L11.051,10.106 Z"/>
</svg>

