<svg xmlns="http://www.w3.org/2000/svg" width="24" height="24">
  <defs/>
  <path  d="M12,2 C17.523,2 22,6.477 22,12 C22,17.523 17.523,22 12,22 C6.477,22 2,17.523 2,12 C2,6.477 6.477,2 12,2 M8.964,8.65 L8.911,9.15 L8.881,9.483 L8.839,10.083 L8.815,10.543 L8.797,11.048 L8.787,11.597 L8.787,12.175 L8.797,12.724 L8.815,13.23 L8.839,13.69 L8.881,14.29 L8.952,15.02 L8.965,15.122 A1.192 1.192 0 0 0 10.616,16.076 L11.072,15.874 L11.723,15.565 L12.113,15.369 L12.543,15.145 L13.009,14.892 L13.507,14.61 L14,14.32 L14.231,14.18 L14.661,13.91 L15.049,13.66 L15.391,13.431 L16.044,12.971 L16.221,12.84 A1.192 1.192 0 0 0 16.22,10.932 L15.814,10.635 L15.539,10.442 L15.219,10.224 L14.654,9.856 L14.226,9.588 L13.756,9.306 L13.257,9.018 L12.779,8.753 L12.332,8.515 L11.922,8.305 L11.382,8.042 L10.943,7.84 L10.713,7.738 A16.814 16.814 0 0 0 10.618,7.698 A1.192 1.192 0 0 0 8.964,8.65"/>
</svg>

