<svg xmlns="http://www.w3.org/2000/svg" width="24" height="24">
  <defs/>
  <path  d="M17.33,4.056 L20.316,5.051 C20.84,5.226 21.124,5.792 20.949,6.316 C20.774,6.84 20.208,7.124 19.684,6.949 L18,6.387 L18,17.5 C18,19.058 16.97,20.428 15.473,20.861 C13.977,21.294 12.374,20.687 11.542,19.37 C10.709,18.053 10.847,16.345 11.88,15.178 C12.913,14.012 14.592,13.669 16,14.337 L16,5.014 C16,4.324 16.675,3.837 17.33,4.056 Z M13,5 C13.529,5.001 13.966,5.413 13.997,5.941 C14.028,6.47 13.642,6.931 13.117,6.993 L13,7 L4,7 C3.471,6.999 3.034,6.587 3.003,6.059 C2.972,5.53 3.358,5.069 3.883,5.007 L4,5 Z M10,11 C10.552,11 11,11.448 11,12 C11,12.552 10.552,13 10,13 L4,13 C3.448,13 3,12.552 3,12 C3,11.448 3.448,11 4,11 Z M8,17 C8.552,17 9,17.448 9,18 C9,18.552 8.552,19 8,19 L4,19 C3.448,19 3,18.552 3,18 C3,17.448 3.448,17 4,17 Z M14.5,16 C13.672,16 13,16.672 13,17.5 C13,18.328 13.672,19 14.5,19 C15.328,19 16,18.328 16,17.5 C16,16.672 15.328,16 14.5,16 Z"/>
</svg>

