<svg xmlns="http://www.w3.org/2000/svg" width="24" height="24">
  <defs/>
  <path  d="M19.485,10.159 L17,10.782 L17,17.5 C17,19.058 15.97,20.428 14.473,20.861 C12.977,21.294 11.374,20.687 10.542,19.37 C9.709,18.053 9.847,16.345 10.88,15.178 C11.913,14.012 13.592,13.669 15,14.337 L15,6.562 C15,5.186 15.937,3.986 17.272,3.652 L19.136,3.185 C19.584,3.073 20.059,3.174 20.423,3.458 C20.787,3.742 21,4.178 21,4.64 L21,8.22 C21,9.138 20.375,9.937 19.485,10.16 Z M4,5 L12,5 C12.552,5 13,5.448 13,6 C13,6.552 12.552,7 12,7 L4,7 C3.448,7 3,6.552 3,6 C3,5.448 3.448,5 4,5 Z M3,12 C3,11.448 3.448,11 4,11 L9,11 C9.552,11 10,11.448 10,12 C10,12.552 9.552,13 9,13 L4,13 C3.448,13 3,12.552 3,12 Z M3,18 C3,17.448 3.448,17 4,17 L7,17 C7.552,17 8,17.448 8,18 C8,18.552 7.552,19 7,19 L4,19 C3.448,19 3,18.552 3,18 Z M17.758,5.591 L17.758,5.592 C17.313,5.703 17,6.103 17,6.562 L17,8.719 L19,8.219 L19,5.281 Z"/>
</svg>

