<svg xmlns="http://www.w3.org/2000/svg" width="24" height="24">
  <defs/>
  <path  d="M21,4.64 L21,8.22 C21,9.138 20.375,9.937 19.485,10.16 L17,10.78 L17,17.5 C17,19.058 15.97,20.428 14.473,20.861 C12.977,21.294 11.374,20.687 10.542,19.37 C9.709,18.053 9.847,16.345 10.88,15.178 C11.913,14.012 13.592,13.669 15,14.337 L15,6.562 C15,5.186 15.937,3.986 17.272,3.652 L19.136,3.185 C19.584,3.073 20.059,3.174 20.423,3.458 C20.787,3.742 21,4.178 21,4.64 Z M12,5 C12.529,5.001 12.966,5.413 12.997,5.941 C13.028,6.47 12.642,6.931 12.117,6.993 L12,7 L4,7 C3.471,6.999 3.034,6.587 3.003,6.059 C2.972,5.53 3.358,5.069 3.883,5.007 L4,5 Z M9,11 C9.552,11 10,11.448 10,12 C10,12.552 9.552,13 9,13 L4,13 C3.448,13 3,12.552 3,12 C3,11.448 3.448,11 4,11 Z M7,17 C7.552,17 8,17.448 8,18 C8,18.552 7.552,19 7,19 L4,19 C3.448,19 3,18.552 3,18 C3,17.448 3.448,17 4,17 Z M13.5,16 C12.672,16 12,16.672 12,17.5 C12,18.328 12.672,19 13.5,19 C14.328,19 15,18.328 15,17.5 C15,16.672 14.328,16 13.5,16 Z M19,5.28 L17.758,5.591 C17.353,5.692 17.053,6.033 17.006,6.448 L17,6.562 L17,8.719 L19,8.219 Z"/>
</svg>

