<svg xmlns="http://www.w3.org/2000/svg" width="24" height="24">
  <defs/>
  <path  d="M7.064,6 C6.748,3.983 8.294,2 10.5,2 C12.705,2 14.252,3.983 13.936,6 L15,6 C16.657,6 18,7.343 18,9 L18,10.064 C20.017,9.748 22,11.294 22,13.5 C22,15.705 20.017,17.252 18,16.936 L18,19 C18,20.657 16.657,22 15,22 L12.593,22 C12.236,22 11.903,21.821 11.706,21.523 C11.509,21.225 11.476,20.848 11.617,20.52 L11.702,20.323 C11.937,19.775 11.772,19.138 11.301,18.773 C10.829,18.408 10.171,18.408 9.699,18.773 C9.228,19.138 9.063,19.775 9.298,20.323 L9.383,20.521 C9.683,21.221 9.169,22 8.407,22 L5,22 C3.343,22 2,20.657 2,19 L2,15.593 C2,14.831 2.779,14.317 3.48,14.617 L3.677,14.702 C4.225,14.937 4.862,14.772 5.227,14.301 C5.592,13.829 5.592,13.171 5.227,12.699 C4.862,12.228 4.225,12.063 3.677,12.298 L3.479,12.383 C2.779,12.683 2,12.169 2,11.407 L2,9 C2,7.343 3.343,6 5,6 Z M10.5,4 C9.99,4 9.516,4.264 9.248,4.698 C8.979,5.132 8.955,5.674 9.183,6.13 L9.346,6.455 C9.512,6.786 9.494,7.18 9.299,7.494 C9.105,7.809 8.76,8.001 8.39,8 L5,8 C4.448,8 4,8.448 4,9 L4,10.194 C5.82,10.085 7.5,11.525 7.5,13.5 C7.5,15.475 5.82,16.915 4,16.806 L4,19 C4,19.552 4.448,20 5,20 L7.194,20 C7.085,18.18 8.525,16.5 10.5,16.5 C12.475,16.5 13.915,18.18 13.806,20 L15,20 C15.552,20 16,19.552 16,19 L16,15.61 C16,14.816 16.835,14.3 17.545,14.654 L17.869,14.817 C18.488,15.126 19.239,14.962 19.673,14.423 C20.107,13.884 20.107,13.116 19.673,12.577 C19.239,12.038 18.488,11.874 17.869,12.183 L17.545,12.346 C17.214,12.512 16.82,12.494 16.506,12.299 C16.191,12.105 15.999,11.76 16,11.39 L16,9 C16,8.448 15.552,8 15,8 L12.61,8 C11.816,8 11.3,7.165 11.654,6.455 L11.817,6.13 C12.045,5.674 12.021,5.132 11.752,4.698 C11.484,4.264 11.01,4 10.5,4 Z"/>
</svg>

