<svg xmlns="http://www.w3.org/2000/svg" width="24" height="24">
  <defs/>
  <path  d="M2,9 A3 3 0 0 1 5,6 L7.853,6 C8.15,6 8.333,5.691 8.219,5.417 A2.474 2.474 0 0 1 8.083,5 C7.752,3.513 8.875,2 10.5,2 C12.126,2 13.248,3.513 12.917,5 A2.48 2.48 0 0 1 12.781,5.417 C12.666,5.691 12.85,6 13.147,6 L15,6 A3 3 0 0 1 18,9 L18,10.853 C18,11.15 18.308,11.333 18.583,11.219 C18.718,11.163 18.856,11.115 19,11.083 C20.487,10.752 22,11.874 22,13.5 C22,15.126 20.487,16.248 19,15.917 A2.475 2.475 0 0 1 18.583,15.781 C18.309,15.666 18,15.85 18,16.147 L18,19 A3 3 0 0 1 15,22 L13.107,22 C12.819,22 12.634,21.709 12.717,21.434 C12.758,21.294 12.789,21.15 12.802,21 A2.31 2.31 0 1 0 8.198,21 C8.211,21.15 8.242,21.294 8.284,21.434 C8.366,21.709 8.181,22 7.894,22 L5,22 A3 3 0 0 1 2,19 L2,16.107 C2,15.819 2.291,15.634 2.566,15.717 C2.706,15.758 2.85,15.789 3,15.802 A2.31 2.31 0 1 0 3,11.198 C2.85,11.211 2.706,11.242 2.566,11.284 C2.291,11.366 2,11.181 2,10.894 Z"/>
</svg>

