<svg xmlns="http://www.w3.org/2000/svg" width="24" height="24">
  <defs/>
  <path  d="M15,2 C15.507,2 15.934,2.38 15.993,2.883 L16,3 L16,6 L18,6 C19.047,6 19.917,6.806 19.995,7.85 L20,8 L20,13 C20,16.226 17.449,18.875 14.225,18.996 L14,19 L10,19 C6.774,19 4.125,16.449 4.004,13.225 L4,13 L4,8 C4,6.953 4.806,6.083 5.85,6.005 L6,6 L8,6 L8,3 C8.001,2.471 8.413,2.034 8.941,2.003 C9.47,1.972 9.931,2.358 9.993,2.883 L10,3 L10,6 L14,6 L14,3 C14,2.448 14.448,2 15,2 Z M18,8 L6,8 L6,13 C6,15.131 7.671,16.888 9.8,16.995 L10,17 L14,17 C16.131,17 17.888,15.329 17.995,13.2 L18,13 Z M15,20 C15.529,20.001 15.966,20.413 15.997,20.941 C16.028,21.47 15.642,21.931 15.117,21.993 L15,22 L9,22 C8.471,21.999 8.034,21.587 8.003,21.059 C7.972,20.53 8.358,20.069 8.883,20.007 L9,20 Z"/>
</svg>

