<svg xmlns="http://www.w3.org/2000/svg" width="24" height="24">
  <defs/>
  <path  d="M9,5 C9,3.895 9.895,3 11,3 L13,3 C14.105,3 15,3.895 15,5 L15,9 L19,9 C20.105,9 21,9.895 21,11 L21,13 C21,14.105 20.105,15 19,15 L15,15 L15,19 C15,20.105 14.105,21 13,21 L11,21 C9.895,21 9,20.105 9,19 L9,15 L5,15 C3.895,15 3,14.105 3,13 L3,11 C3,9.895 3.895,9 5,9 L9,9 Z M13,5 L11,5 L11,10 C11,10.552 10.552,11 10,11 L5,11 L5,13 L10,13 C10.552,13 11,13.448 11,14 L11,19 L13,19 L13,14 C13,13.448 13.448,13 14,13 L19,13 L19,11 L14,11 C13.448,11 13,10.552 13,10 Z"/>
</svg>

