<svg xmlns="http://www.w3.org/2000/svg" width="24" height="24">
  <defs/>
  <path  d="M16.33,14.5 C16.75,13.772 17.33,13.172 17.975,12.814 C18.6,12.468 19.463,12.267 20.245,12.719 C21.028,13.171 21.286,14.018 21.298,14.733 C21.31,15.47 21.08,16.272 20.66,17 C20.24,17.728 19.66,18.328 19.015,18.686 C18.391,19.032 17.528,19.233 16.745,18.781 C15.963,18.329 15.705,17.482 15.693,16.767 C15.68,16.03 15.91,15.228 16.33,14.5 Z M17.975,11.185 C17.33,10.827 16.75,10.227 16.33,9.499 C15.91,8.771 15.68,7.969 15.693,7.232 C15.705,6.517 15.963,5.67 16.745,5.218 C17.528,4.766 18.391,4.967 19.015,5.314 C19.66,5.672 20.24,6.271 20.66,6.999 C21.08,7.727 21.31,8.529 21.298,9.267 C21.286,9.981 21.028,10.828 20.245,11.28 C19.463,11.732 18.6,11.532 17.975,11.185 Z M12,17 C12.841,17 13.65,17.202 14.282,17.582 C14.895,17.95 15.5,18.596 15.5,19.5 C15.5,20.404 14.895,21.051 14.282,21.418 C13.65,21.798 12.84,22 12,22 C11.16,22 10.35,21.798 9.718,21.418 C9.105,21.05 8.5,20.404 8.5,19.5 C8.5,18.596 9.105,17.949 9.718,17.582 C10.35,17.202 11.16,17 12,17 Z M12,2 C12.841,2 13.65,2.202 14.282,2.582 C14.895,2.95 15.5,3.597 15.5,4.5 C15.5,5.403 14.895,6.051 14.282,6.418 C13.65,6.798 12.84,7 12,7 C11.16,7 10.35,6.798 9.718,6.418 C9.105,6.05 8.5,5.403 8.5,4.5 C8.5,3.597 9.105,2.949 9.718,2.582 C10.35,2.202 11.16,2 12,2 Z M4.985,18.686 C4.34,18.328 3.76,17.728 3.34,17 C2.92,16.272 2.69,15.47 2.703,14.733 C2.715,14.018 2.973,13.171 3.755,12.719 C4.537,12.267 5.4,12.468 6.025,12.815 C6.67,13.173 7.25,13.772 7.67,14.5 C8.09,15.228 8.32,16.03 8.307,16.768 C8.295,17.482 8.037,18.329 7.255,18.781 C6.473,19.233 5.61,19.033 4.985,18.686 Z M3.34,7 C3.76,6.272 4.34,5.672 4.985,5.314 C5.61,4.968 6.473,4.767 7.255,5.219 C8.037,5.671 8.295,6.518 8.307,7.233 C8.32,7.97 8.09,8.772 7.67,9.5 C7.25,10.228 6.67,10.828 6.025,11.185 C5.4,11.532 4.537,11.733 3.755,11.281 C2.973,10.829 2.715,9.982 2.703,9.267 C2.69,8.53 2.92,7.728 3.34,7 Z M19.241,9.54 C19.261,9.503 19.295,9.415 19.298,9.233 C19.303,8.915 19.198,8.467 18.928,7.999 C18.658,7.532 18.322,7.216 18.045,7.062 C17.885,6.974 17.792,6.958 17.75,6.958 C17.729,6.995 17.696,7.083 17.692,7.265 C17.687,7.583 17.792,8.031 18.062,8.499 C18.332,8.967 18.668,9.282 18.946,9.436 C19.106,9.525 19.199,9.54 19.241,9.54 Z M17.693,16.734 C17.696,16.916 17.729,17.004 17.75,17.041 C17.792,17.041 17.885,17.026 18.045,16.937 C18.322,16.783 18.658,16.467 18.928,16 C19.198,15.532 19.303,15.084 19.298,14.766 C19.295,14.584 19.261,14.496 19.241,14.459 C19.199,14.459 19.106,14.474 18.946,14.563 C18.668,14.717 18.332,15.032 18.062,15.5 C17.792,15.968 17.687,16.416 17.692,16.734 Z M6.25,17.04 C6.271,17.003 6.304,16.915 6.308,16.733 C6.313,16.415 6.208,15.967 5.938,15.499 C5.668,15.032 5.332,14.716 5.054,14.562 C4.895,14.474 4.802,14.458 4.759,14.458 C4.739,14.495 4.705,14.583 4.702,14.765 C4.697,15.083 4.802,15.531 5.072,15.999 C5.342,16.467 5.678,16.782 5.956,16.936 C6.115,17.025 6.208,17.04 6.25,17.04 Z M4.702,9.234 C4.705,9.416 4.739,9.504 4.759,9.541 C4.802,9.541 4.895,9.525 5.054,9.437 C5.332,9.283 5.668,8.967 5.938,8.5 C6.208,8.032 6.313,7.584 6.308,7.266 C6.304,7.084 6.271,6.996 6.25,6.959 C6.208,6.959 6.115,6.974 5.956,7.063 C5.678,7.217 5.342,7.532 5.072,8 C4.802,8.468 4.697,8.916 4.702,9.234 Z M10.747,4.297 C10.59,4.391 10.531,4.464 10.509,4.5 C10.531,4.536 10.59,4.61 10.747,4.703 C11.019,4.867 11.46,5 12,5 C12.54,5 12.981,4.867 13.253,4.703 C13.41,4.609 13.469,4.536 13.491,4.5 C13.469,4.464 13.41,4.39 13.253,4.297 C12.981,4.133 12.54,4 12,4 C11.46,4 11.019,4.133 10.747,4.297 Z M10.747,19.297 C10.59,19.391 10.531,19.464 10.509,19.5 C10.531,19.536 10.59,19.61 10.747,19.703 C11.019,19.866 11.46,20 12,20 C12.54,20 12.981,19.866 13.253,19.703 C13.41,19.609 13.469,19.536 13.491,19.5 C13.469,19.464 13.41,19.39 13.253,19.297 C12.981,19.134 12.54,19 12,19 C11.46,19 11.019,19.134 10.747,19.297 Z"/>
</svg>

