<svg xmlns="http://www.w3.org/2000/svg" width="24" height="24">
  <defs/>
  <path  d="M3.34,7 C3.76,6.272 4.34,5.673 4.985,5.314 C5.609,4.968 6.472,4.767 7.255,5.219 C8.037,5.671 8.295,6.518 8.307,7.233 C8.32,7.97 8.09,8.772 7.67,9.5 C7.25,10.228 6.67,10.828 6.025,11.186 C5.4,11.532 4.537,11.733 3.755,11.281 C2.972,10.829 2.714,9.982 2.702,9.267 C2.69,8.53 2.92,7.728 3.34,7 Z M4.985,18.686 C4.34,18.328 3.76,17.728 3.34,17 C2.92,16.272 2.69,15.47 2.702,14.733 C2.714,14.018 2.972,13.171 3.755,12.719 C4.537,12.267 5.4,12.468 6.025,12.815 C6.67,13.172 7.25,13.772 7.67,14.5 C8.09,15.228 8.32,16.03 8.307,16.767 C8.295,17.482 8.037,18.329 7.255,18.781 C6.472,19.233 5.609,19.032 4.985,18.686 Z M12,17 C12.84,17 13.65,17.202 14.282,17.582 C14.895,17.95 15.5,18.596 15.5,19.5 C15.5,20.404 14.895,21.051 14.282,21.418 C13.65,21.798 12.84,22 12,22 C11.159,22 10.35,21.798 9.718,21.418 C9.105,21.05 8.5,20.404 8.5,19.5 C8.5,18.596 9.105,17.949 9.718,17.582 C10.35,17.202 11.16,17 12,17 Z M12,2 C12.84,2 13.65,2.202 14.282,2.582 C14.895,2.95 15.5,3.597 15.5,4.5 C15.5,5.403 14.895,6.051 14.282,6.418 C13.65,6.798 12.84,7 12,7 C11.159,7 10.35,6.798 9.718,6.418 C9.105,6.05 8.5,5.403 8.5,4.5 C8.5,3.597 9.105,2.949 9.718,2.582 C10.35,2.202 11.16,2 12,2 Z M17.975,11.186 C17.33,10.828 16.75,10.228 16.33,9.5 C15.91,8.772 15.68,7.97 15.693,7.233 C15.705,6.518 15.963,5.671 16.745,5.219 C17.527,4.767 18.39,4.968 19.015,5.314 C19.66,5.673 20.24,6.272 20.66,7 C21.08,7.728 21.31,8.53 21.297,9.267 C21.285,9.982 21.027,10.829 20.245,11.281 C19.463,11.733 18.6,11.532 17.975,11.186 Z M16.33,14.5 C16.75,13.772 17.33,13.172 17.975,12.815 C18.6,12.468 19.463,12.267 20.245,12.719 C21.027,13.171 21.285,14.018 21.297,14.733 C21.31,15.47 21.08,16.272 20.66,17 C20.24,17.728 19.66,18.328 19.015,18.686 C18.39,19.032 17.527,19.233 16.745,18.781 C15.963,18.329 15.705,17.482 15.693,16.767 C15.68,16.03 15.91,15.228 16.33,14.5 Z"/>
</svg>

