<svg xmlns="http://www.w3.org/2000/svg" width="24" height="24">
  <defs/>
  <path  d="M6.907,3.908 C7.115,3.532 7.502,3.289 7.931,3.265 C8.36,3.241 8.771,3.44 9.02,3.79 L9.093,3.907 L11,7.34 L11,6 C11,4.953 11.806,4.083 12.85,4.005 L13,4 L19,4 C20.047,4 20.917,4.806 20.995,5.85 L21,6 L21,12 C21,13.047 20.194,13.917 19.15,13.995 L19,14 L16.793,14 C17.416,16.207 16.604,18.569 14.755,19.927 C12.907,21.284 10.41,21.352 8.49,20.097 C6.571,18.842 5.631,16.528 6.133,14.29 L6.207,14 L3.425,14 C3.004,14 2.611,13.788 2.38,13.436 C2.149,13.084 2.111,12.639 2.278,12.253 L2.332,12.143 Z M11.5,12 C9.567,12 8,13.567 8,15.5 C8,17.433 9.567,19 11.5,19 C13.433,19 15,17.433 15,15.5 C15,13.567 13.433,12 11.5,12 Z M19,6 L13,6 L13,10.207 C14.075,10.512 15.032,11.138 15.743,12 L19,12 Z M8,6.06 L4.7,12 L7.257,12 C7.966,11.14 8.92,10.516 9.992,10.21 L10.266,10.139 Z"/>
</svg>

