<svg xmlns="http://www.w3.org/2000/svg" width="24" height="24">
  <defs/>
  <path  d="M5.902,7.438 A1 1 0 0 0 5.404,8.364 L5.471,9.48 A1 1 0 0 0 5.751,10.115 L6.619,11.013 L3.829,10.613 A1 1 0 0 0 2.722,11.344 L2.539,12.027 A1 1 0 0 0 2.954,13.121 L9.866,17.684 L10.67,19.466 A2 2 0 0 0 13.493,20.376 L19.395,16.968 A2 2 0 0 0 20.045,14.106 L18.343,11.62 A4.502 4.502 0 0 0 13.349,4.326 L13.289,4.239 A1 1 0 0 0 11.964,3.938 Z M12.162,6.133 L18.395,15.236 L12.493,18.644 L11.491,16.424 L11.52,16.38 L11.45,16.334 L8.814,10.491 A1.001 1.001 0 0 0 8.621,10.207 L7.445,8.99 L7.437,8.86 L12.162,6.132 Z M14.517,6.031 A2.501 2.501 0 0 1 17.274,9.766 L17.175,9.914 Z M8.325,14.271 L6.405,13.003 L7.846,13.209 Z"/>
</svg>

