<svg xmlns="http://www.w3.org/2000/svg" width="24" height="24">
  <defs/>
  <path  d="M5.902,7.438 L5.901,7.438 L11.963,3.938 C12.415,3.677 12.993,3.808 13.288,4.239 L13.348,4.326 C15.326,3.468 17.635,4.134 18.854,5.913 C20.072,7.692 19.857,10.086 18.342,11.62 L20.044,14.106 C20.359,14.566 20.468,15.136 20.344,15.679 C20.221,16.222 19.876,16.689 19.394,16.968 L13.492,20.376 C13.003,20.659 12.416,20.721 11.879,20.547 C11.341,20.374 10.901,19.981 10.669,19.466 L9.865,17.684 L2.953,13.12 C2.594,12.883 2.427,12.443 2.538,12.027 L2.721,11.344 C2.852,10.855 3.328,10.541 3.829,10.613 L6.617,11.013 L5.75,10.115 C5.584,9.944 5.485,9.718 5.47,9.48 L5.404,8.364 C5.381,7.986 5.574,7.627 5.902,7.438 Z M14.517,6.031 L17.175,9.914 C17.793,9.059 17.807,7.908 17.212,7.038 C16.616,6.167 15.538,5.765 14.517,6.031 Z M8.325,14.27 L7.846,13.21 L6.406,13.003 Z"/>
</svg>

