<svg xmlns="http://www.w3.org/2000/svg" width="24" height="24">
  <defs/>
  <path  d="M13.586,2 C14.056,2 14.51,2.165 14.87,2.467 L15,2.586 L19.414,7 C19.746,7.332 19.951,7.77 19.992,8.238 L20,8.414 L20,20 C20,21.047 19.194,21.917 18.15,21.995 L18,22 L6,22 C4.953,22 4.083,21.194 4.005,20.15 L4,20 L4,4 C4,2.953 4.806,2.083 5.85,2.005 L6,2 Z M12,4 L6,4 L6,20 L18,20 L18,10 L13.5,10 C12.727,10 12.081,9.413 12.007,8.644 L12,8.5 Z M12.5,11 C13.881,11 15,12.119 15,13.5 C15,14.881 13.881,16 12.5,16 L11,16 L11,17 C11,17.552 10.552,18 10,18 C9.448,18 9,17.552 9,17 L9,12.1 C9,11.492 9.492,11 10.1,11 Z M14,4.414 L14,8 L17.586,8 Z M12.5,13 L11,13 L11,14 L12.5,14 C12.759,14 12.975,13.803 12.999,13.545 C13.022,13.287 12.845,13.054 12.59,13.008 Z"/>
</svg>

