<svg xmlns="http://www.w3.org/2000/svg" width="24" height="24">
  <defs/>
  <path  d="M13.099,3 C14.038,3 14.862,3.623 15.119,4.526 L15.157,4.687 L16.608,11.942 C16.748,12.642 17.25,13.214 17.926,13.444 L18.084,13.49 L19.78,13.914 C20.505,14.095 20.986,14.782 20.908,15.525 L20.887,15.664 L20.193,19.133 C20.089,19.655 19.781,20.114 19.337,20.408 C18.894,20.702 18.351,20.807 17.83,20.7 L17.684,20.664 L14.627,19.79 C13.577,19.491 12.655,18.856 12,17.983 C11.398,18.786 10.569,19.388 9.62,19.713 L9.374,19.79 L6.317,20.664 C5.805,20.81 5.256,20.746 4.792,20.486 C4.327,20.227 3.985,19.793 3.842,19.28 L3.807,19.133 L3.113,15.663 C2.967,14.931 3.381,14.202 4.086,13.954 L4.22,13.914 L5.916,13.49 C6.608,13.317 7.156,12.788 7.353,12.102 L7.392,11.942 L8.842,4.687 C8.976,4.013 9.432,3.448 10.061,3.174 C10.691,2.899 11.415,2.95 12,3.31 C12.32,3.114 12.696,3 13.099,3 Z M13.099,5 C13.045,5.001 13.001,5.045 13,5.099 L13,14.983 C13,16.256 13.803,17.39 15.003,17.813 L15.224,17.881 L15.958,14.58 C15.283,13.999 14.822,13.208 14.647,12.335 L13.197,5.08 C13.187,5.033 13.147,5 13.099,5 Z M10.901,5 L10.9,5 C10.853,5.001 10.813,5.034 10.804,5.08 L9.353,12.335 C9.179,13.208 8.718,13.998 8.043,14.58 L8.776,17.881 L8.824,17.867 C10.112,17.499 11,16.322 11,14.983 L11,5.099 C10.999,5.044 10.955,5.001 10.901,5 Z M17.806,15.482 L17.151,18.432 L18.232,18.741 L18.832,15.739 Z M6.194,15.482 L5.168,15.739 L5.768,18.741 L6.849,18.431 Z"/>
</svg>

