<svg xmlns="http://www.w3.org/2000/svg" width="24" height="24">
  <defs/>
  <path  d="M8.843,4.687 C8.978,4.014 9.433,3.449 10.062,3.175 C10.691,2.9 11.415,2.951 12,3.31 C12.585,2.951 13.309,2.9 13.938,3.175 C14.567,3.449 15.022,4.014 15.157,4.687 L16.608,11.942 C16.76,12.7 17.334,13.303 18.084,13.49 L19.78,13.914 C20.557,14.108 21.044,14.879 20.887,15.664 L20.193,19.133 C20.083,19.68 19.75,20.157 19.273,20.448 C18.796,20.738 18.22,20.816 17.683,20.663 L14.626,19.79 C13.577,19.491 12.654,18.856 12,17.983 C11.346,18.856 10.423,19.491 9.374,19.79 L6.317,20.664 C5.78,20.817 5.203,20.739 4.727,20.448 C4.25,20.157 3.917,19.681 3.807,19.133 L3.113,15.663 C2.956,14.878 3.443,14.108 4.22,13.914 L5.916,13.49 C6.666,13.303 7.24,12.7 7.392,11.942 Z M17.806,15.482 L17.151,18.432 L18.232,18.741 L18.832,15.739 Z M6.193,15.482 L5.168,15.739 L5.768,18.741 L6.849,18.431 Z"/>
</svg>

