<svg xmlns="http://www.w3.org/2000/svg" width="24" height="24">
  <defs/>
  <path  d="M2,4 C2,3.448 2.448,3 3,3 L21,3 C21.552,3 22,3.448 22,4 C22,4.552 21.552,5 21,5 L21,16 C21,17.105 20.105,18 19,18 L13.945,18 L16.238,20.293 C16.617,20.685 16.612,21.309 16.226,21.695 C15.84,22.081 15.216,22.086 14.824,21.707 L11.996,18.879 L9.167,21.707 C8.775,22.086 8.151,22.081 7.765,21.695 C7.379,21.309 7.374,20.685 7.753,20.293 L10.046,18 L5,18 C3.895,18 3,17.105 3,16 L3,5 C2.448,5 2,4.552 2,4 Z M16.243,7.172 L12.707,10.707 L10.594,8.594 C10.2,8.2 9.56,8.2 9.166,8.594 L6.344,11.416 C5.965,11.809 5.971,12.432 6.357,12.818 C6.743,13.203 7.367,13.208 7.759,12.829 L9.88,10.709 L11.993,12.822 C12.387,13.216 13.027,13.216 13.421,12.822 L17.657,8.586 C18.036,8.194 18.031,7.57 17.645,7.184 C17.259,6.798 16.635,6.793 16.243,7.172 Z"/>
</svg>

