<svg xmlns="http://www.w3.org/2000/svg" width="24" height="24">
  <defs/>
  <path  d="M8.379,12.5 L7.5,12.5 L7.5,17 C7.5,17.828 6.828,18.5 6,18.5 C5.172,18.5 4.5,17.828 4.5,17 L4.5,5 C4.5,3.619 5.619,2.5 7,2.5 L11.5,2.5 C14.065,2.498 16.215,4.437 16.477,6.988 C16.74,9.54 15.029,11.876 12.518,12.396 L15,14.88 L16.94,12.94 C17.529,12.372 18.464,12.38 19.043,12.959 C19.621,13.538 19.629,14.474 19.06,15.062 L17.122,17 L19.062,18.94 C19.63,19.529 19.622,20.464 19.043,21.043 C18.464,21.621 17.528,21.629 16.94,21.06 L15,19.122 L13.06,21.062 C12.471,21.63 11.536,21.622 10.957,21.043 C10.379,20.464 10.371,19.528 10.94,18.94 L12.878,17 Z M7.5,9.5 L11.5,9.5 C12.605,9.5 13.5,8.605 13.5,7.5 C13.5,6.395 12.605,5.5 11.5,5.5 L7.5,5.5 Z"/>
</svg>

