<svg xmlns="http://www.w3.org/2000/svg" width="24" height="24">
  <defs/>
  <path  d="M21,3 A1 1 0 1 1 21,5 L21,16 A2 2 0 0 1 19,18 L13.945,18 L16.238,20.293 A1 1 0 0 1 14.824,21.707 L11.996,18.879 L9.167,21.707 A1 1 0 0 1 7.753,20.293 L10.046,18 L5,18 A2 2 0 0 1 3,16 L3,5 A1 1 0 0 1 3,3 Z M19,5 L5,5 L5,16 L19,16 Z M8,11 A1 1 0 0 1 8.993,11.883 L9,12 L9,13 A1 1 0 0 1 7.007,13.117 L7,13 L7,12 A1 1 0 0 1 8,11 M12,9 A1 1 0 0 1 13,10 L13,13 A1 1 0 1 1 11,13 L11,10 A1 1 0 0 1 12,9 M16,7 A1 1 0 0 1 16.993,7.883 L17,8 L17,13 A1 1 0 0 1 15.007,13.117 L15,13 L15,8 A1 1 0 0 1 16,7"/>
</svg>

