<svg xmlns="http://www.w3.org/2000/svg" width="24" height="24">
  <defs/>
  <path  d="M21,3 A1 1 0 1 1 21,5 L21,16 A2 2 0 0 1 19,18 L13.945,18 L16.238,20.293 A1 1 0 0 1 14.824,21.707 L11.996,18.879 L9.167,21.707 A1 1 0 0 1 7.753,20.293 L10.046,18 L5,18 A2 2 0 0 1 3,16 L3,5 A1 1 0 0 1 3,3 Z M16,7 A1 1 0 0 0 15.007,7.883 L15,8 L15,13 A1 1 0 0 0 16.993,13.117 L17,13 L17,8 A1 1 0 0 0 16,7 M12,9 A1 1 0 0 0 11,10 L11,13 A1 1 0 1 0 13,13 L13,10 A1 1 0 0 0 12,9 M8,11 A1 1 0 0 0 7,12 L7,13 A1 1 0 1 0 9,13 L9,12 A1 1 0 0 0 8,11"/>
</svg>

