<svg xmlns="http://www.w3.org/2000/svg" width="24" height="24">
  <defs/>
  <path  d="M4,5 C4,3.343 5.343,2 7,2 L17,2 C18.657,2 20,3.343 20,5 L20,12 C20,13.657 18.657,15 17,15 L7,15 C5.343,15 4,13.657 4,12 Z M7,4 C6.448,4 6,4.448 6,5 L6,12 C6,12.552 6.448,13 7,13 L17,13 C17.552,13 18,12.552 18,12 L18,5 C18,4.448 17.552,4 17,4 Z M7,18 L4,18 C3.448,18 3,17.552 3,17 C3,16.448 3.448,16 4,16 L20,16 C20.552,16 21,16.448 21,17 C21,17.552 20.552,18 20,18 L17,18 L18.8,20.4 C19.131,20.842 19.042,21.469 18.6,21.8 C18.158,22.131 17.531,22.042 17.2,21.6 L14.5,18 L9.5,18 L6.8,21.6 C6.469,22.042 5.842,22.131 5.4,21.8 C4.958,21.469 4.869,20.842 5.2,20.4 Z"/>
</svg>

