<svg xmlns="http://www.w3.org/2000/svg" width="24" height="24">
  <defs/>
  <path  d="M21,3 A1 1 0 1 1 21,5 L21,16 A2 2 0 0 1 19,18 L13.945,18 L16.238,20.293 A1 1 0 0 1 14.824,21.707 L11.996,18.879 L9.167,21.707 A1 1 0 0 1 7.753,20.293 L10.046,18 L5,18 A2 2 0 0 1 3,16 L3,5 A1 1 0 0 1 3,3 Z M19,5 L5,5 L5,16 L19,16 Z M17.657,7.172 A1 1 0 0 1 17.657,8.586 L13.421,12.822 A1.01 1.01 0 0 1 11.993,12.822 L9.88,10.708 L7.759,12.83 A1 1 0 0 1 6.344,11.415 L9.166,8.595 A1.01 1.01 0 0 1 10.594,8.595 L12.707,10.707 L16.243,7.172 A1 1 0 0 1 17.657,7.172"/>
</svg>

