<svg xmlns="http://www.w3.org/2000/svg" width="24" height="24">
  <defs/>
  <path  d="M5,5 C5,3.895 5.895,3 7,3 L11.5,3 C13.985,3 16,5.015 16,7.5 C16,9.985 13.985,12 11.5,12 L11.414,12 L15,15.586 L17.293,13.293 C17.685,12.914 18.309,12.919 18.695,13.305 C19.081,13.691 19.086,14.315 18.707,14.707 L16.414,17 L18.707,19.293 C19.086,19.685 19.081,20.309 18.695,20.695 C18.309,21.081 17.685,21.086 17.293,20.707 L15,18.414 L12.707,20.707 C12.315,21.086 11.691,21.081 11.305,20.695 C10.919,20.309 10.914,19.685 11.293,19.293 L13.586,17 L8.586,12 L7,12 L7,17 C7,17.552 6.552,18 6,18 C5.448,18 5,17.552 5,17 Z M7,10 L11.5,10 C12.881,10 14,8.881 14,7.5 C14,6.119 12.881,5 11.5,5 L7,5 Z"/>
</svg>

