<svg xmlns="http://www.w3.org/2000/svg" width="24" height="24">
  <defs/>
  <path  d="M16,16 A1 1 0 0 1 16.993,16.883 L17,17 L17,21 A1 1 0 0 1 16.117,21.993 L16,22 L8,22 A1 1 0 0 1 7.007,21.117 L7,21 L7,17 A1 1 0 0 1 7.883,16.007 L8,16 Z M19,7 A3 3 0 0 1 22,10 L22,17 A2 2 0 0 1 20,19 L19,19 L19,16 A2 2 0 0 0 17,14 L7,14 A2 2 0 0 0 5,16 L5,19 L4,19 A2 2 0 0 1 2,17 L2,10 A3 3 0 0 1 5,7 Z M17,9 L15,9 A1 1 0 0 0 14.883,10.993 L15,11 L17,11 A1 1 0 0 0 17.117,9.007 Z M17,2 A1 1 0 0 1 18,3 L18,5 L6,5 L6,3 A1 1 0 0 1 7,2 Z"/>
</svg>

