<svg xmlns="http://www.w3.org/2000/svg" width="24" height="24">
  <defs/>
  <path  d="M16.9,3 A1.1 1.1 0 0 1 17.994,3.98 L18,4.1 L18,7 L19,7 A3 3 0 0 1 21.995,9.824 L22,10 L22,17 A2 2 0 0 1 20.15,18.995 L20,19 L18,19 L18,20.9 A1.1 1.1 0 0 1 17.02,21.994 L16.9,22 L7.1,22 A1.1 1.1 0 0 1 6.006,21.02 L6,20.9 L6,19 L4,19 A2 2 0 0 1 2.005,17.15 L2,17 L2,10 A3 3 0 0 1 4.824,7.005 L5,7 L6,7 L6,4.1 A1.1 1.1 0 0 1 6.98,3.006 L7.1,3 Z M16,16 L8,16 L8,20 L16,20 Z M19,9 L5,9 A1 1 0 0 0 4.007,9.883 L4,10 L4,17 L6,17 L6,15.1 A1.1 1.1 0 0 1 6.98,14.006 L7.1,14 L16.9,14 A1.1 1.1 0 0 1 17.994,14.98 L18,15.1 L18,17 L20,17 L20,10 A1 1 0 0 0 19,9 M17,10 A1 1 0 0 1 17.117,11.993 L17,12 L15,12 A1 1 0 0 1 14.883,10.007 L15,10 Z M16,5 L8,5 L8,7 L16,7 Z"/>
</svg>

