<svg xmlns="http://www.w3.org/2000/svg" width="24" height="24">
  <defs/>
  <path  d="M20,3 A2 2 0 0 1 22,5 L22,19 A2 2 0 0 1 20,21 L4,21 A2 2 0 0 1 2,19 L2,5 A2 2 0 0 1 4,3 Z M17,15 L7,15 A1 1 0 1 0 7,17 L17,17 A1 1 0 1 0 17,15 M10,7 L8,7 A2 2 0 0 0 6.005,8.85 L6,9 L6,11 A2 2 0 0 0 7.85,12.995 L8,13 L10,13 A2 2 0 0 0 11.995,11.15 L12,11 L12,9 A2 2 0 0 0 10.15,7.005 Z M17,11 L14,11 A1 1 0 0 0 13.883,12.993 L14,13 L17,13 A1 1 0 0 0 17.117,11.007 Z M10,9 L10,11 L8,11 L8,9 Z M17,7 L14,7 A1 1 0 1 0 14,9 L17,9 A1 1 0 1 0 17,7"/>
</svg>

