<svg xmlns="http://www.w3.org/2000/svg" width="24" height="24">
  <defs/>
  <path  d="M20,3 C21.105,3 22,3.895 22,5 L22,19 C22,20.105 21.105,21 20,21 L4,21 C2.895,21 2,20.105 2,19 L2,5 C2,3.895 2.895,3 4,3 Z M20,5 L4,5 L4,19 L20,19 Z M10,7 C11.105,7 12,7.895 12,9 L12,11 C12,12.105 11.105,13 10,13 L8,13 C6.895,13 6,12.105 6,11 L6,9 C6,7.895 6.895,7 8,7 Z M17,15 C17.529,15.001 17.966,15.413 17.997,15.941 C18.028,16.47 17.642,16.931 17.117,16.993 L17,17 L7,17 C6.471,16.999 6.034,16.587 6.003,16.059 C5.972,15.53 6.358,15.069 6.883,15.007 L7,15 Z M17,11 C17.552,11 18,11.448 18,12 C18,12.552 17.552,13 17,13 L14,13 C13.448,13 13,12.552 13,12 C13,11.448 13.448,11 14,11 Z M17,7 C17.529,7.001 17.966,7.413 17.997,7.941 C18.028,8.47 17.642,8.931 17.117,8.993 L17,9 L14,9 C13.471,8.999 13.034,8.587 13.003,8.059 C12.972,7.53 13.358,7.069 13.883,7.007 L14,7 Z M10,9 L8,9 L8,11 L10,11 Z"/>
</svg>

