<svg xmlns="http://www.w3.org/2000/svg" width="24" height="24">
  <defs/>
  <path  d="M20,2 C20.507,2 20.934,2.38 20.993,2.883 L21,3 L21,6 C21,6.507 20.62,6.934 20.117,6.993 L20,7 L19,7 L19,14 L20,14 C20.529,14.001 20.966,14.413 20.997,14.941 C21.028,15.47 20.642,15.931 20.117,15.993 L20,16 L13,16 L13,17.208 C14.07,17.675 14.675,18.821 14.456,19.969 C14.236,21.116 13.252,21.958 12.085,21.998 C10.917,22.037 9.878,21.263 9.582,20.134 C9.285,19.004 9.811,17.82 10.847,17.281 L11,17.208 L11,16 L4,16 C3.471,15.999 3.034,15.587 3.003,15.059 C2.972,14.53 3.358,14.069 3.883,14.007 L4,14 L5,14 L5,7 L4,7 C3.493,7 3.066,6.62 3.007,6.117 L3,6 L3,3 C3,2.493 3.38,2.066 3.883,2.007 L4,2 Z M19,4 L5,4 L5,5 L19,5 Z M12,19 C11.724,19 11.5,19.224 11.5,19.5 C11.5,19.776 11.724,20 12,20 C12.276,20 12.5,19.776 12.5,19.5 C12.5,19.224 12.276,19 12,19 Z"/>
</svg>

