<svg xmlns="http://www.w3.org/2000/svg" width="24" height="24">
  <defs/>
  <path  d="M15,4 C15.552,4 16,4.448 16,5 C16,5.552 15.552,6 15,6 L13,6 L13,8 L19,8 C20.657,8 22,9.343 22,11 L22,17 C22,18.657 20.657,20 19,20 L5,20 C3.343,20 2,18.657 2,17 L2,11 C2,9.343 3.343,8 5,8 L11,8 L11,6 L9,6 C8.448,6 8,5.552 8,5 C8,4.448 8.448,4 9,4 Z M19,10 L5,10 C4.448,10 4,10.448 4,11 L4,12 L7,12 C7.552,12 8,12.448 8,13 C8,13.552 7.552,14 7,14 L4,14 L4,17 C4,17.552 4.448,18 5,18 L19,18 C19.552,18 20,17.552 20,17 L20,11 C20,10.448 19.552,10 19,10 Z M16,11 C17.657,11 19,12.343 19,14 C19,15.657 17.657,17 16,17 C14.343,17 13,15.657 13,14 C13,12.343 14.343,11 16,11 Z M16,13 C15.448,13 15,13.448 15,14 C15,14.552 15.448,15 16,15 C16.552,15 17,14.552 17,14 C17,13.448 16.552,13 16,13 Z"/>
</svg>

