<svg xmlns="http://www.w3.org/2000/svg" width="24" height="24">
  <defs/>
  <path  d="M13.483,4.64 C13.382,4.808 13.294,4.982 13.219,5.163 C13.751,5.307 14.252,5.543 14.712,5.851 C15.657,5.235 16.75,4.921 17.889,5.121 C19.562,5.416 20.754,6.712 21.416,8.291 C22.082,9.882 22.28,11.891 21.916,13.955 C21.552,16.019 20.679,17.839 19.509,19.105 C18.347,20.363 16.783,21.173 15.111,20.878 C14.741,20.813 14.383,20.695 14.046,20.529 C13.408,20.838 12.709,20.999 12,21 C11.274,21 10.585,20.83 9.955,20.53 C9.618,20.696 9.259,20.813 8.889,20.878 C7.217,21.173 5.653,20.363 4.491,19.106 C3.321,17.839 2.447,16.019 2.084,13.956 C1.72,11.891 1.918,9.882 2.584,8.292 C3.246,6.712 4.438,5.416 6.111,5.122 C7.25,4.921 8.343,5.235 9.288,5.852 C9.846,5.473 10.474,5.211 11.136,5.082 C11.274,4.572 11.504,4.05 11.768,3.611 C11.99,3.239 12.273,2.866 12.611,2.572 C12.939,2.288 13.414,2 14,2 C14.552,1.989 15.009,2.428 15.019,2.98 C15.03,3.533 14.591,3.989 14.039,4 C13.794,4.12 13.616,4.417 13.483,4.64 Z M9.549,15.912 L8.6,15.2 C8.158,14.869 7.531,14.958 7.2,15.4 C6.869,15.842 6.958,16.469 7.4,16.8 L8.349,17.512 C9.35,18.263 10.751,18.163 11.636,17.278 C11.837,17.077 12.163,17.077 12.364,17.278 C13.249,18.163 14.65,18.263 15.651,17.512 L16.601,16.8 C17.043,16.469 17.132,15.842 16.801,15.4 C16.47,14.958 15.843,14.869 15.401,15.2 L14.451,15.912 C14.246,16.066 13.959,16.045 13.778,15.864 C12.796,14.882 11.204,14.882 10.222,15.864 C10.041,16.045 9.754,16.066 9.549,15.912 Z M8.5,12.598 L10.232,11.598 C10.582,11.396 10.776,11.003 10.724,10.601 C10.671,10.2 10.382,9.871 9.991,9.766 L7.259,9.034 C6.868,8.929 6.453,9.07 6.207,9.391 C5.96,9.712 5.932,10.15 6.134,10.5 L7.134,12.232 C7.41,12.71 8.022,12.874 8.5,12.598 Z M16.866,12.232 L17.866,10.5 C18.068,10.15 18.04,9.712 17.793,9.391 C17.547,9.07 17.132,8.929 16.741,9.034 L14.009,9.766 C13.618,9.871 13.329,10.2 13.276,10.601 C13.224,11.003 13.418,11.396 13.768,11.598 L15.5,12.598 C15.978,12.874 16.59,12.71 16.866,12.232 Z"/>
</svg>

