<svg xmlns="http://www.w3.org/2000/svg" width="24" height="24">
  <defs/>
  <path  d="M14,2 C14.552,1.989 15.009,2.428 15.019,2.98 C15.03,3.533 14.591,3.989 14.039,4 L13.996,4.025 L13.921,4.084 C13.748,4.246 13.599,4.434 13.482,4.64 C13.371,4.825 13.276,5.019 13.196,5.22 C13.509,5.337 13.803,5.498 14.078,5.693 C14.216,5.791 14.35,5.897 14.478,6.013 C15.476,5.29 16.654,4.903 17.889,5.122 C19.562,5.416 20.754,6.712 21.416,8.292 C22.082,9.882 22.28,11.892 21.916,13.955 C21.552,16.019 20.679,17.839 19.509,19.105 C18.347,20.363 16.783,21.173 15.111,20.878 C14.678,20.801 14.261,20.654 13.876,20.441 C13.316,20.801 12.666,20.995 12,21 C11.312,21 10.68,20.79 10.124,20.441 C9.744,20.651 9.331,20.801 8.889,20.878 C7.217,21.173 5.653,20.363 4.491,19.106 C3.321,17.839 2.447,16.019 2.084,13.956 C1.72,11.891 1.918,9.882 2.584,8.292 C3.246,6.712 4.438,5.416 6.111,5.122 C7.346,4.904 8.524,5.29 9.521,6.012 C9.651,5.897 9.784,5.791 9.921,5.692 C10.29,5.432 10.693,5.232 11.127,5.115 C11.264,4.595 11.498,4.06 11.767,3.61 C11.993,3.223 12.278,2.872 12.611,2.572 C12.939,2.288 13.414,2 14,2 Z M12,7 C11.715,7 11.401,7.097 11.078,7.325 C10.554,7.696 10.028,8.396 9.631,9.407 C9.24,10.407 9,11.644 9,13 C9,14.356 9.24,15.594 9.631,16.593 C10.028,17.603 10.554,18.303 11.078,18.675 C11.4,18.904 11.711,19 12,19 C12.289,19 12.6,18.904 12.922,18.675 C13.446,18.304 13.972,17.604 14.369,16.593 C14.761,15.593 15,14.356 15,13 C15,11.644 14.76,10.406 14.369,9.407 C13.972,8.397 13.446,7.696 12.922,7.325 C12.6,7.096 12.285,7 12,7 Z M15.714,7.586 C15.909,7.929 16.081,8.296 16.231,8.676 C16.722,9.93 17,11.419 17,13 C17,14.582 16.722,16.07 16.23,17.323 C16.016,17.877 15.743,18.406 15.414,18.901 L15.458,18.909 C16.233,19.046 17.158,18.703 18.04,17.749 C18.913,16.803 19.64,15.351 19.947,13.608 C20.254,11.864 20.068,10.251 19.571,9.064 C19.068,7.866 18.317,7.228 17.541,7.091 C16.985,6.993 16.354,7.141 15.714,7.586 Z M6.458,7.091 C5.683,7.228 4.931,7.866 4.429,9.064 C3.932,10.252 3.746,11.864 4.053,13.608 C4.361,15.351 5.087,16.803 5.96,17.748 C6.787,18.644 7.651,19 8.395,18.928 L8.585,18.901 C8.256,18.406 7.983,17.877 7.769,17.323 C7.278,16.07 7,14.582 7,13 C7,11.418 7.278,9.93 7.77,8.677 C7.916,8.302 8.088,7.937 8.285,7.586 C7.645,7.141 7.015,6.993 6.458,7.091 Z"/>
</svg>

