<svg xmlns="http://www.w3.org/2000/svg" width="24" height="24">
  <defs/>
  <path  d="M14,2 A1 1 0 0 1 14.039,4 C13.876,4.08 13.742,4.239 13.632,4.401 L13.482,4.64 A4.044 4.044 0 0 0 13.219,5.163 C13.751,5.307 14.252,5.543 14.712,5.851 C15.657,5.235 16.75,4.921 17.889,5.121 C19.562,5.416 20.754,6.712 21.416,8.291 C22.082,9.882 22.28,11.891 21.916,13.955 C21.552,16.019 20.679,17.839 19.509,19.105 C18.347,20.363 16.783,21.173 15.111,20.878 A3.97 3.97 0 0 1 14.046,20.529 A4.714 4.714 0 0 1 12,21 C11.274,21 10.585,20.83 9.955,20.53 A3.97 3.97 0 0 1 8.889,20.878 C7.217,21.173 5.653,20.363 4.491,19.106 C3.321,17.839 2.447,16.019 2.084,13.956 C1.72,11.891 1.918,9.882 2.584,8.292 C3.246,6.712 4.438,5.416 6.111,5.122 C7.25,4.921 8.343,5.235 9.288,5.852 A4.99 4.99 0 0 1 11.136,5.082 C11.274,4.572 11.504,4.05 11.768,3.611 C11.99,3.239 12.272,2.866 12.611,2.572 C12.939,2.288 13.414,2 14,2 M12,7 C11.292,7 10.595,7.287 9.967,7.852 A1 1 0 0 1 8.642,7.865 C7.879,7.203 7.119,6.975 6.458,7.091 C5.683,7.228 4.931,7.866 4.429,9.064 C3.932,10.252 3.746,11.864 4.053,13.608 C4.361,15.351 5.087,16.803 5.96,17.748 C6.842,18.703 7.767,19.045 8.542,18.908 C8.832,18.858 9.106,18.742 9.365,18.56 A1 1 0 0 1 10.475,18.535 C10.959,18.843 11.474,19 12,19 C12.527,19 13.04,18.843 13.525,18.535 A1 1 0 0 1 14.635,18.56 C14.894,18.742 15.169,18.858 15.458,18.909 C16.233,19.046 17.158,18.703 18.04,17.749 C18.913,16.803 19.64,15.351 19.947,13.608 C20.254,11.864 20.068,10.251 19.571,9.064 C19.068,7.866 18.317,7.228 17.541,7.091 C16.881,6.974 16.121,7.203 15.358,7.865 A1 1 0 0 1 14.033,7.852 C13.405,7.287 12.708,7 12,7 M16.8,14.4 A1 1 0 0 1 16.6,15.8 L15.65,16.512 A2.515 2.515 0 0 1 12.364,16.278 A0.515 0.515 0 0 0 11.636,16.278 A2.515 2.515 0 0 1 8.349,16.512 L7.4,15.8 A1 1 0 1 1 8.6,14.2 L9.549,14.912 A0.515 0.515 0 0 0 10.222,14.864 A2.515 2.515 0 0 1 13.778,14.864 A0.515 0.515 0 0 0 14.451,14.912 L15.4,14.2 A1 1 0 0 1 16.8,14.4 M7.259,9.034 L9.991,9.766 A1 1 0 0 1 10.232,11.598 L8.5,12.598 A1 1 0 0 1 7.134,12.232 L6.134,10.5 A1 1 0 0 1 7.259,9.034 M17.793,9.391 A1 1 0 0 1 17.866,10.501 L16.866,12.232 A1 1 0 0 1 15.5,12.598 L13.768,11.598 A1 1 0 0 1 14.009,9.766 L16.741,9.034 A1 1 0 0 1 17.793,9.391"/>
</svg>

