<svg xmlns="http://www.w3.org/2000/svg" width="24" height="24">
  <defs/>
  <path  d="M13.483,4.64 C13.366,4.834 13.27,5.032 13.196,5.219 C13.669,5.403 14.103,5.672 14.478,6.013 C15.476,5.29 16.654,4.904 17.889,5.121 C19.562,5.416 20.754,6.712 21.416,8.291 C22.082,9.882 22.28,11.891 21.916,13.955 C21.552,16.019 20.679,17.839 19.509,19.106 C18.347,20.363 16.783,21.173 15.111,20.878 C14.669,20.801 14.256,20.651 13.877,20.441 C13.32,20.79 12.688,21 12,21 C11.334,20.995 10.684,20.801 10.124,20.441 C9.739,20.654 9.322,20.802 8.889,20.878 C7.217,21.173 5.653,20.363 4.491,19.105 C3.321,17.839 2.447,16.019 2.084,13.955 C1.72,11.892 1.918,9.882 2.585,8.292 C3.246,6.712 4.438,5.416 6.111,5.122 C7.346,4.903 8.524,5.29 9.522,6.013 C9.991,5.595 10.529,5.275 11.128,5.115 C11.264,4.595 11.498,4.06 11.768,3.611 C11.99,3.239 12.273,2.866 12.61,2.572 C12.939,2.288 13.414,2 14,2 C14.543,2.003 14.984,2.438 14.994,2.98 C15.005,3.523 14.581,3.975 14.039,3.999 C13.996,4.022 13.957,4.051 13.921,4.084 C13.79,4.197 13.635,4.386 13.483,4.64 Z M14.296,7.135 L14.296,7.136 C13.819,7.414 13.657,8.027 13.936,8.504 C14.572,9.595 15,11.184 15,13 C15,15.055 14.452,16.81 13.686,17.885 C13.465,18.175 13.42,18.563 13.568,18.896 C13.715,19.23 14.033,19.456 14.397,19.487 C14.76,19.518 15.112,19.349 15.314,19.045 C16.377,17.554 17,15.365 17,13 C17,10.898 16.51,8.946 15.663,7.495 C15.385,7.018 14.773,6.857 14.296,7.135 Z M9.704,7.135 L9.704,7.136 C9.227,6.858 8.615,7.019 8.337,7.496 C7.491,8.946 7,10.898 7,13 C7,15.365 7.623,17.554 8.686,19.045 C8.89,19.344 9.24,19.51 9.601,19.477 C9.962,19.445 10.277,19.22 10.425,18.89 C10.573,18.559 10.53,18.174 10.314,17.884 C9.548,16.81 9,15.056 9,13 C9,11.184 9.428,9.594 10.064,8.503 C10.343,8.026 10.181,7.413 9.704,7.135 Z"/>
</svg>

