<svg xmlns="http://www.w3.org/2000/svg" width="24" height="24">
  <defs/>
  <path  d="M12,2 C12.762,2 13.506,2.085 14.221,2.248 C14.577,2.32 14.865,2.579 14.975,2.925 C15.085,3.27 15,3.648 14.751,3.913 C14.503,4.177 14.131,4.286 13.779,4.198 C9.471,3.217 5.184,5.913 4.202,10.221 C3.221,14.528 5.917,18.816 10.224,19.798 C14.531,20.78 18.819,18.085 19.802,13.778 C19.876,13.424 20.135,13.138 20.48,13.029 C20.824,12.92 21.201,13.005 21.465,13.253 C21.728,13.5 21.838,13.87 21.752,14.221 C20.742,18.675 16.76,22 12,22 C6.477,22 2,17.523 2,12 C2,6.477 6.477,2 12,2 Z M19.5,2 C20.565,2 21.513,2.675 21.862,3.682 C22.21,4.688 21.883,5.805 21.046,6.464 L20.478,6.934 C20.151,7.196 19.812,7.422 19.5,7.422 C18.875,7.422 18.64,6.932 18.64,6.578 C18.64,6.224 18.851,5.844 19.025,5.63 C19.279,5.317 19.59,5.066 19.809,4.893 C19.993,4.749 20.052,4.496 19.951,4.285 C19.851,4.074 19.618,3.961 19.39,4.012 C19.162,4.064 19,4.266 19,4.5 C19,5.052 18.552,5.5 18,5.5 C17.448,5.5 17,5.052 17,4.5 C17,3.119 18.119,2 19.5,2 Z M15.949,13.184 C16.124,13.708 15.84,14.275 15.316,14.449 C14.907,14.585 14.463,14.775 14.003,15.006 C13.76,15.127 13.523,15.255 13.293,15.384 L12.959,15.58 C12.765,15.696 12.626,15.785 12.555,15.832 C12.095,16.139 11.475,16.015 11.168,15.555 C10.861,15.095 10.985,14.475 11.445,14.168 L11.803,13.942 L11.93,13.865 C12.298,13.645 12.695,13.424 13.108,13.217 C13.648,12.947 14.176,12.721 14.684,12.551 C15.208,12.376 15.775,12.66 15.949,13.184 Z M14.5,7 C15.328,7 16,7.672 16,8.5 C16,9.328 15.328,10 14.5,10 C13.672,10 13,9.328 13,8.5 C13,7.672 13.672,7 14.5,7 Z M9.5,9 C10.328,9 11,9.672 11,10.5 C11,11.328 10.328,12 9.5,12 C8.672,12 8,11.328 8,10.5 C8,9.672 8.672,9 9.5,9 Z M19.5,8 C20.052,8 20.5,8.448 20.5,9 C20.5,9.552 20.052,10 19.5,10 C18.948,10 18.5,9.552 18.5,9 C18.5,8.448 18.948,8 19.5,8 Z"/>
</svg>

