<svg xmlns="http://www.w3.org/2000/svg" width="24" height="24">
  <defs/>
  <path  d="M12,2 C13.89,2 15.657,2.524 17.165,3.435 C17.055,3.779 17,4.139 17,4.5 C17,5.467 17.692,6.296 18.644,6.468 L18.641,6.578 C18.641,6.924 18.741,7.329 18.997,7.681 C18.292,8.485 18.344,9.703 19.116,10.443 C19.888,11.184 21.107,11.185 21.881,10.447 C21.959,10.953 22,11.472 22,12 C22,17.523 17.523,22 12,22 C6.477,22 2,17.523 2,12 C2,6.477 6.477,2 12,2 Z M20.5,2 C21.565,2 22.513,2.675 22.862,3.682 C23.21,4.688 22.883,5.805 22.046,6.464 L21.478,6.934 C21.151,7.196 20.812,7.422 20.5,7.422 C19.875,7.422 19.64,6.932 19.64,6.578 C19.64,6.224 19.851,5.844 20.025,5.63 C20.279,5.317 20.59,5.066 20.809,4.893 C20.993,4.749 21.052,4.496 20.951,4.285 C20.851,4.074 20.618,3.961 20.39,4.012 C20.162,4.064 20,4.266 20,4.5 C20,5.052 19.552,5.5 19,5.5 C18.448,5.5 18,5.052 18,4.5 C18,3.119 19.119,2 20.5,2 Z M14.684,12.551 C14.176,12.721 13.648,12.947 13.108,13.217 C12.832,13.355 12.564,13.499 12.307,13.645 L11.93,13.865 C11.707,13.999 11.541,14.105 11.445,14.168 C10.985,14.475 10.861,15.095 11.168,15.555 C11.475,16.015 12.095,16.139 12.555,15.832 L12.849,15.646 L12.959,15.58 C13.286,15.384 13.639,15.188 14.003,15.006 C14.463,14.776 14.907,14.586 15.316,14.449 C15.84,14.274 16.124,13.708 15.949,13.184 C15.774,12.66 15.208,12.376 14.684,12.551 Z M14.5,7 C13.672,7 13,7.672 13,8.5 C13,9.328 13.672,10 14.5,10 C15.328,10 16,9.328 16,8.5 C16,7.672 15.328,7 14.5,7 Z M9.5,9 C8.672,9 8,9.672 8,10.5 C8,11.328 8.672,12 9.5,12 C10.328,12 11,11.328 11,10.5 C11,9.672 10.328,9 9.5,9 Z M20.5,8 C21.052,8 21.5,8.448 21.5,9 C21.5,9.552 21.052,10 20.5,10 C19.948,10 19.5,9.552 19.5,9 C19.5,8.448 19.948,8 20.5,8 Z"/>
</svg>

