<svg xmlns="http://www.w3.org/2000/svg" width="24" height="24">
  <defs/>
  <path  d="M5.567,10.592 C5.642,9.709 5.675,8.822 5.724,7.937 C5.912,4.608 8.666,2.005 12,2.005 C15.334,2.005 18.088,4.608 18.276,7.937 C18.326,8.847 18.366,9.755 18.46,10.661 C18.654,11.078 18.845,11.519 19.03,11.977 C20.272,15.05 20.76,17.75 20.12,18.009 C19.784,18.144 19.206,17.584 18.554,16.578 C18.535,16.686 18.513,16.793 18.487,16.9 C18.181,18.15 17.522,19.285 16.588,20.17 C17.616,20.52 18.5,20.997 18.5,21.5 C18.5,22.007 16.037,22.003 14.28,22 L14.262,22 C13.713,21.998 13.25,21.992 12.88,21.942 C12.296,22.019 11.704,22.019 11.12,21.942 C10.75,21.992 10.288,21.998 9.738,21.999 L9.734,21.999 C7.977,22.003 5.5,22.009 5.5,21.5 C5.5,20.997 6.384,20.52 7.412,20.17 C6.478,19.285 5.819,18.15 5.513,16.9 C5.485,16.795 5.459,16.69 5.436,16.584 C4.786,17.586 4.209,18.144 3.875,18.009 C3.235,17.75 3.722,15.049 4.964,11.977 C5.159,11.494 5.362,11.029 5.567,10.592 Z M7.72,8.048 L7.721,8.048 L7.557,11 L7.556,11 C7.556,11.751 6.996,12.984 6.726,13.576 C6.633,13.781 6.575,13.909 6.587,13.914 C6.957,14.056 7.365,14.454 7.332,15.056 C7.183,17.738 9.318,20 12,20 C13.286,19.998 14.515,19.467 15.398,18.532 C16.281,17.597 16.74,16.34 16.668,15.056 C16.638,14.544 16.952,14.074 17.437,13.906 C16.971,12.973 16.445,12.079 16.445,11 L16.443,11 L16.278,8.048 C16.148,5.78 14.271,4.007 11.999,4.007 C9.727,4.007 7.85,5.78 7.72,8.048 Z"/>
</svg>

