<svg xmlns="http://www.w3.org/2000/svg" width="24" height="24">
  <defs/>
  <path  d="M19,3 C20.105,3 21,3.895 21,5 L21,9 C21,10.105 20.105,11 19,11 L15,11 C13.895,11 13,10.105 13,9 L13,5 C13,3.895 13.895,3 15,3 Z M9,13 C10.105,13 11,13.895 11,15 L11,19 C11,20.105 10.105,21 9,21 L5,21 C3.895,21 3,20.105 3,19 L3,15 C3,13.895 3.895,13 5,13 Z M9,3 C10.105,3 11,3.895 11,5 L11,9 C11,10.105 10.105,11 9,11 L5,11 C3.895,11 3,10.105 3,9 L3,5 C3,3.895 3.895,3 5,3 Z M9,5 L5,5 L5,9 L9,9 Z M19,5 L15,5 L15,9 L19,9 Z M9,15 L5,15 L5,19 L9,19 Z M14,13 C14.507,13 14.934,13.38 14.993,13.883 L15,14 L15,20 C14.999,20.529 14.587,20.966 14.059,20.997 C13.53,21.028 13.069,20.642 13.007,20.117 L13,20 L13,14 C13,13.448 13.448,13 14,13 Z M20,13 C20.507,13 20.934,13.38 20.993,13.883 L21,14 L21,20 C20.999,20.529 20.587,20.966 20.059,20.997 C19.53,21.028 19.069,20.642 19.007,20.117 L19,20 L19,14 C19,13.448 19.448,13 20,13 Z M17,17.5 C17.552,17.5 18,17.948 18,18.5 L18,20 C18,20.552 17.552,21 17,21 C16.448,21 16,20.552 16,20 L16,18.5 C16,17.948 16.448,17.5 17,17.5 Z M17,13 C17.507,13 17.934,13.38 17.993,13.883 L18,14 L18,15.5 C17.999,16.029 17.587,16.466 17.059,16.497 C16.53,16.528 16.069,16.142 16.007,15.617 L16,15.5 L16,14 C16,13.448 16.448,13 17,13 Z"/>
</svg>

