<svg xmlns="http://www.w3.org/2000/svg" width="24" height="24">
  <defs/>
  <path  d="M11,3 A2 2 0 0 1 12.995,4.85 L13,5 L13,11 A2 2 0 0 1 11.15,12.995 L11,13 L5,13 A2 2 0 0 1 3.005,11.15 L3,11 L3,5 A2 2 0 0 1 4.85,3.005 L5,3 Z M11,5 L5,5 L5,11 L11,11 Z M9.5,6 A0.5 0.5 0 0 1 9.992,6.41 L10,6.5 L10,9.5 A0.5 0.5 0 0 1 9.59,9.992 L9.5,10 L6.5,10 A0.5 0.5 0 0 1 6.008,9.59 L6,9.5 L6,6.5 A0.5 0.5 0 0 1 6.41,6.008 L6.5,6 Z M21,5 A2 2 0 0 0 19,3 L17,3 A2 2 0 0 0 15,5 L15,7 A2 2 0 0 0 17,9 L19,9 A2 2 0 0 0 21,7 Z M3,17 A2 2 0 0 1 5,15 L7,15 A2 2 0 0 1 9,17 L9,19 A2 2 0 0 1 7,21 L5,21 A2 2 0 0 1 3,19 Z M19,15 A2 2 0 0 1 21,17 L21,19 A2 2 0 0 1 19,21 L17,21 A2 2 0 0 1 15,19 L15,17 A2 2 0 0 1 17,15 Z M15,12 A1 1 0 0 1 16,11 L20,11 A1 1 0 1 1 20,13 L16,13 A1 1 0 0 1 15,12 M13,16 A1 1 0 1 0 11,16 L11,20 A1 1 0 1 0 13,20 Z"/>
</svg>

