<svg xmlns="http://www.w3.org/2000/svg" width="24" height="24">
  <defs/>
  <path  d="M11,3 A2 2 0 0 1 12.995,4.85 L13,5 L13,11 A2 2 0 0 1 11.15,12.995 L11,13 L5,13 A2 2 0 0 1 3.005,11.15 L3,11 L3,5 A2 2 0 0 1 4.85,3.005 L5,3 Z M11,5 L5,5 L5,11 L11,11 Z M8.5,7 A0.5 0.5 0 0 1 8.992,7.41 L9,7.5 L9,8.5 A0.5 0.5 0 0 1 8.59,8.992 L8.5,9 L7.5,9 A0.5 0.5 0 0 1 7.008,8.59 L7,8.5 L7,7.5 A0.5 0.5 0 0 1 7.41,7.008 L7.5,7 Z M21,5 A2 2 0 0 0 19,3 L17,3 A2 2 0 0 0 15,5 L15,7 A2 2 0 0 0 17,9 L19,9 A2 2 0 0 0 21,7 Z M17,5 L19,5 L19,7 L17,7 Z M7,15 A2 2 0 0 1 9,17 L9,19 A2 2 0 0 1 7,21 L5,21 A2 2 0 0 1 3,19 L3,17 A2 2 0 0 1 5,15 Z M7,17 L5,17 L5,19 L7,19 Z M21,17 A2 2 0 0 0 19,15 L17,15 A2 2 0 0 0 15,17 L15,19 A2 2 0 0 0 17,21 L19,21 A2 2 0 0 0 21,19 Z M17,17 L19,17 L19,19 L17,19 Z M15,12 A1 1 0 0 1 16,11 L20,11 A1 1 0 1 1 20,13 L16,13 A1 1 0 0 1 15,12 M13,16 A1 1 0 1 0 11,16 L11,20 A1 1 0 1 0 13,20 Z"/>
</svg>

