<svg xmlns="http://www.w3.org/2000/svg" width="24" height="24">
  <defs/>
  <path  d="M14,13 A1 1 0 0 1 14.993,13.883 L15,14 L15,20 A1 1 0 0 1 13.007,20.117 L13,20 L13,14 A1 1 0 0 1 14,13 M17,17.5 A1 1 0 0 1 18,18.5 L18,20 A1 1 0 1 1 16,20 L16,18.5 A1 1 0 0 1 17,17.5 M20,13 A1 1 0 0 1 20.993,13.883 L21,14 L21,20 A1 1 0 0 1 19.007,20.117 L19,20 L19,14 A1 1 0 0 1 20,13 M9,13 A2 2 0 0 1 11,15 L11,19 A2 2 0 0 1 9,21 L5,21 A2 2 0 0 1 3,19 L3,15 A2 2 0 0 1 5,13 Z M17,13 A1 1 0 0 1 17.993,13.883 L18,14 L18,15.5 A1 1 0 0 1 16.007,15.617 L16,15.5 L16,14 A1 1 0 0 1 17,13 M9,3 A2 2 0 0 1 11,5 L11,9 A2 2 0 0 1 9,11 L5,11 A2 2 0 0 1 3,9 L3,5 A2 2 0 0 1 5,3 Z M19,3 A2 2 0 0 1 21,5 L21,9 A2 2 0 0 1 19,11 L15,11 A2 2 0 0 1 13,9 L13,5 A2 2 0 0 1 15,3 Z"/>
</svg>

