<svg xmlns="http://www.w3.org/2000/svg" width="24" height="24">
  <defs/>
  <path  d="M12,2 C17.523,2 22,6.477 22,12 C22,17.523 17.523,22 12,22 C6.477,22 2,17.523 2,12 C2,6.477 6.477,2 12,2 M12,4 A8 8 0 1 0 12,20 A8 8 0 0 0 12,4 M12,16 A1 1 0 1 1 12,18 A1 1 0 0 1 12,16 M12,6.5 A3.625 3.625 0 0 1 13.348,13.49 A0.837 0.837 0 0 0 13.043,13.691 C12.999,13.741 12.992,13.805 12.993,13.871 L13,14 A1 1 0 0 1 11.007,14.117 L11,14 L11,13.75 C11,12.597 11.93,11.905 12.604,11.634 A1.626 1.626 0 1 0 10.375,10.125 A1 1 0 1 1 8.375,10.125 A3.625 3.625 0 0 1 12,6.5"/>
</svg>

