<svg xmlns="http://www.w3.org/2000/svg" width="24" height="24">
  <defs/>
  <path  d="M20.262,2.434 C20.637,2.396 21.001,2.572 21.206,2.888 L21.284,3.014 L21.393,3.216 L21.474,3.39 L21.557,3.595 C21.872,4.433 22.109,5.892 21.015,7.551 C20.933,7.674 20.841,7.789 20.739,7.896 C20.752,8.019 20.742,8.144 20.709,8.264 C20.511,8.993 20.26,9.707 19.959,10.4 C19.408,11.663 18.631,12.94 17.536,14.036 C15.486,16.086 12.794,17.027 10.692,17.466 C9.867,17.639 9.116,17.737 8.506,17.793 L8.019,17.831 L7.809,17.844 L7.681,18.907 L7.583,19.813 L7.545,20.225 L7.508,20.743 C7.503,20.829 7.501,20.914 7.5,21 C7.5,21.552 7.052,22 6.5,22 C5.948,22 5.5,21.552 5.5,21 C5.5,20.896 5.504,20.775 5.51,20.64 L5.54,20.203 L5.583,19.714 L5.663,18.942 L5.721,18.44 C5.926,16.708 6.167,15.014 6.708,13.35 C7.333,11.43 8.458,8.971 10.465,6.965 C12.038,5.391 13.897,4.354 15.571,3.675 L16.023,3.498 L16.463,3.338 C16.535,3.313 16.607,3.288 16.678,3.265 L17.098,3.129 L17.5,3.009 L17.884,2.902 L18.247,2.809 L18.587,2.729 L18.902,2.659 L19.448,2.554 L20.025,2.463 Z M19.76,4.53 L19.438,4.592 L19.068,4.671 L18.653,4.769 C18.579,4.788 18.505,4.807 18.431,4.827 L17.961,4.957 C17.799,5.005 17.631,5.057 17.46,5.113 L16.933,5.293 C15.318,5.877 13.425,6.833 11.879,8.379 C10.175,10.082 9.179,12.219 8.61,13.969 C8.445,14.476 8.317,14.946 8.22,15.357 L8.116,15.819 L8.581,15.776 C9.152,15.715 9.72,15.626 10.283,15.509 C12.203,15.108 14.462,14.281 16.121,12.621 C16.971,11.772 17.605,10.764 18.075,9.716 C17.099,10.236 16.057,10.702 15.316,10.949 C14.792,11.124 14.226,10.84 14.051,10.316 C13.876,9.792 14.16,9.226 14.684,9.051 C15.358,8.827 16.442,8.338 17.438,7.786 C17.932,7.512 18.384,7.234 18.739,6.978 L18.965,6.808 L19.135,6.667 L19.2,6.607 L19.295,6.512 C19.313,6.492 19.33,6.471 19.345,6.449 C19.872,5.651 19.865,4.969 19.76,4.53 Z M5,1 C5.382,1 5.73,1.217 5.898,1.56 L5.946,1.677 L6.076,2.055 C6.354,2.869 6.967,3.524 7.76,3.855 L7.945,3.925 L8.323,4.054 C8.706,4.185 8.972,4.533 8.998,4.937 C9.023,5.341 8.803,5.72 8.44,5.898 L8.323,5.946 L7.945,6.076 C7.131,6.354 6.476,6.967 6.145,7.76 L6.075,7.945 L5.946,8.323 C5.815,8.706 5.467,8.972 5.063,8.998 C4.659,9.023 4.28,8.803 4.102,8.44 L4.054,8.323 L3.924,7.945 C3.646,7.131 3.033,6.476 2.24,6.145 L2.055,6.075 L1.677,5.946 C1.294,5.815 1.028,5.467 1.002,5.063 C0.977,4.659 1.197,4.28 1.56,4.102 L1.677,4.054 L2.055,3.924 C2.869,3.646 3.524,3.033 3.855,2.24 L3.925,2.055 L4.054,1.677 C4.192,1.272 4.572,1 5,1 Z M5,4.196 C4.763,4.494 4.494,4.763 4.196,5 C4.494,5.236 4.764,5.506 5,5.804 C5.236,5.506 5.506,5.236 5.804,5 C5.506,4.763 5.237,4.494 5,4.196 Z"/>
</svg>

