<svg xmlns="http://www.w3.org/2000/svg" width="24" height="24">
  <defs/>
  <path  d="M5.708,13.35 C6.333,11.43 7.458,8.971 9.465,6.964 C13.399,3.03 19.117,2.449 19.262,2.434 C19.637,2.396 20.001,2.572 20.206,2.888 C20.414,3.201 21.586,5.171 20.015,7.551 C19.933,7.673 19.84,7.788 19.739,7.895 C19.752,8.019 19.742,8.145 19.709,8.265 C19.519,8.954 19.275,9.677 18.959,10.4 C18.408,11.663 17.631,12.94 16.536,14.036 C14.486,16.086 11.794,17.027 9.692,17.466 C8.742,17.664 7.778,17.79 6.809,17.844 C6.778,18.09 6.5,20.57 6.5,21 C6.5,21.552 6.052,22 5.5,22 C4.948,22 4.5,21.552 4.5,21 C4.5,20.429 4.616,19.33 4.721,18.44 C4.926,16.708 5.167,15.013 5.708,13.35 Z M18.345,6.45 C18.872,5.65 18.865,4.97 18.76,4.53 C17.233,4.805 13.541,5.716 10.879,8.379 C9.175,10.082 8.179,12.219 7.61,13.969 C7.412,14.576 7.247,15.194 7.116,15.819 C7.844,15.761 8.568,15.658 9.283,15.509 C11.203,15.107 13.462,14.281 15.121,12.621 C15.971,11.771 16.605,10.764 17.075,9.716 C16.099,10.236 15.057,10.702 14.316,10.949 C13.792,11.124 13.226,10.84 13.051,10.316 C12.876,9.792 13.16,9.226 13.684,9.051 C14.358,8.826 15.442,8.338 16.438,7.786 C16.932,7.512 17.384,7.233 17.739,6.978 C18.123,6.702 18.299,6.518 18.345,6.449 Z"/>
</svg>

