<svg xmlns="http://www.w3.org/2000/svg" width="24" height="24">
  <defs/>
  <path  d="M20.262,2.434 A1.005 1.005 0 0 1 21.206,2.888 C22.197,4.378 21.953,6.598 20.739,7.895 A1 1 0 0 1 20.709,8.265 A15.73 15.73 0 0 1 19.959,10.4 C19.408,11.663 18.631,12.94 17.536,14.036 C15.486,16.086 12.794,17.027 10.692,17.466 A19.27 19.27 0 0 1 9.201,17.716 L8.681,17.776 L8.215,17.817 C8.069,17.828 7.934,17.837 7.809,17.844 L7.708,18.674 L7.644,19.267 L7.617,19.557 L7.5,21 C7.453,21.54 7.052,22 6.5,22 A1 1 0 0 1 5.5,21 C5.5,20.844 5.509,20.65 5.523,20.43 L5.56,19.963 L5.608,19.458 L5.693,18.688 L5.721,18.44 C5.926,16.708 6.167,15.013 6.708,13.35 C7.333,11.43 8.458,8.971 10.464,6.964 C12.038,5.391 13.897,4.354 15.571,3.674 L16.023,3.498 L16.463,3.338 C16.535,3.313 16.607,3.288 16.678,3.265 L17.098,3.129 L17.5,3.009 L18.068,2.854 L18.587,2.728 L18.902,2.659 L19.448,2.554 L20.025,2.463 Z M5,1 A1 1 0 0 1 5.898,1.56 L5.946,1.677 L6.076,2.055 A3 3 0 0 0 7.76,3.855 L7.945,3.925 L8.323,4.054 A1 1 0 0 1 8.44,5.898 L8.323,5.946 L7.945,6.076 A3 3 0 0 0 6.145,7.76 L6.075,7.945 L5.946,8.323 A1 1 0 0 1 4.102,8.44 L4.054,8.323 L3.924,7.945 A3 3 0 0 0 2.24,6.145 L2.055,6.075 L1.677,5.946 A1 1 0 0 1 1.56,4.102 L1.677,4.054 L2.055,3.924 A3 3 0 0 0 3.855,2.24 L3.925,2.055 L4.054,1.677 A1 1 0 0 1 5,1"/>
</svg>

