<svg xmlns="http://www.w3.org/2000/svg" width="24" height="24">
  <defs/>
  <path  d="M6.81,17.844 C6.778,18.091 6.537,20.573 6.5,21 C6.453,21.54 6.052,22 5.5,22 C4.948,22 4.5,21.552 4.5,21 C4.5,20.429 4.616,19.33 4.721,18.44 C4.926,16.708 5.167,15.013 5.708,13.35 C6.333,11.43 7.458,8.971 9.465,6.964 C13.399,3.03 19.117,2.449 19.262,2.434 C19.637,2.396 20.001,2.572 20.206,2.888 C21.197,4.378 20.953,6.598 19.739,7.895 C19.752,8.019 19.742,8.145 19.709,8.265 C19.511,8.994 19.26,9.707 18.959,10.4 C18.408,11.663 17.631,12.94 16.536,14.036 C14.486,16.086 11.794,17.027 9.692,17.466 C8.742,17.664 7.778,17.79 6.809,17.844 Z"/>
</svg>

