<svg xmlns="http://www.w3.org/2000/svg" width="24" height="24">
  <defs/>
  <path  d="M16.5,6 C18.411,6 19.968,7.532 20,9.442 C20.09,10.307 20.077,11.582 19.492,13.056 C18.895,14.562 17.728,16.204 15.6,17.8 C15.158,18.131 14.531,18.042 14.2,17.6 C13.869,17.158 13.958,16.531 14.4,16.2 C15.964,15.027 16.861,13.886 17.373,12.89 C16.325,13.159 15.212,12.928 14.357,12.265 C13.502,11.602 13.001,10.582 13,9.5 C13,7.567 14.567,6 16.5,6 Z M7.5,6 C9.411,6 10.968,7.532 11,9.442 C11.09,10.307 11.077,11.582 10.492,13.056 C9.895,14.562 8.728,16.204 6.6,17.8 C6.158,18.131 5.531,18.042 5.2,17.6 C4.869,17.158 4.958,16.531 5.4,16.2 C6.964,15.027 7.861,13.886 8.373,12.89 C7.325,13.158 6.212,12.928 5.357,12.265 C4.502,11.602 4.001,10.582 4,9.5 C4,7.567 5.567,6 7.5,6 Z M16.5,8 C15.691,8 15.028,8.641 15.001,9.449 C14.973,10.257 15.591,10.942 16.398,10.997 C17.205,11.051 17.91,10.457 17.992,9.652 L18,9.49 C17.995,8.665 17.325,8 16.5,8 Z M7.5,8 C6.691,8 6.028,8.641 6.001,9.449 C5.973,10.257 6.591,10.942 7.398,10.997 C8.205,11.051 8.91,10.457 8.992,9.652 L9,9.49 C8.995,8.665 8.325,8 7.5,8 Z"/>
</svg>

