<svg xmlns="http://www.w3.org/2000/svg" width="24" height="24">
  <defs/>
  <path  d="M9.8,6.4 C10.131,6.842 10.042,7.469 9.6,7.8 C8.036,8.973 7.139,10.114 6.627,11.11 C8.071,10.738 9.592,11.322 10.416,12.564 C11.24,13.807 11.187,15.435 10.284,16.621 C9.38,17.807 7.824,18.29 6.408,17.825 C4.991,17.36 4.025,16.049 4,14.558 C3.872,13.33 4.046,12.089 4.508,10.944 C5.105,9.438 6.272,7.796 8.4,6.2 C8.842,5.869 9.469,5.958 9.8,6.4 Z M17.4,6.2 C17.842,5.869 18.469,5.958 18.8,6.4 C19.131,6.842 19.042,7.469 18.6,7.8 C17.036,8.973 16.139,10.114 15.627,11.11 C17.071,10.738 18.592,11.322 19.416,12.564 C20.24,13.807 20.187,15.435 19.284,16.621 C18.38,17.807 16.824,18.29 15.408,17.825 C13.991,17.36 13.025,16.049 13,14.558 C12.872,13.33 13.046,12.089 13.508,10.944 C14.106,9.438 15.272,7.796 17.4,6.2 Z M16.5,13 C15.731,13 15.086,13.582 15.008,14.348 L15,14.51 C15.006,15.337 15.68,16.004 16.507,16 C17.334,15.996 18.002,15.324 18,14.497 C17.998,13.67 17.327,13 16.5,13 Z M7.5,13 C6.731,13 6.086,13.582 6.008,14.348 L6,14.51 C6.006,15.337 6.68,16.004 7.507,16 C8.334,15.996 9.002,15.324 9,14.497 C8.998,13.67 8.327,13 7.5,13 Z"/>
</svg>

