<svg xmlns="http://www.w3.org/2000/svg" width="24" height="24">
  <defs/>
  <path  d="M12,11.054 C12,7.5 13,5 13.926,3.734 C14.654,2.827 15.691,2.135 16.866,2.45 C18.04,2.764 18.592,3.882 18.769,5.032 C18.951,6.22 18.807,7.763 18.322,9.57 C18.026,10.671 17.644,11.748 17.18,12.79 C18.272,13.731 19,15.018 19,16.5 C19,18.128 18.118,19.526 16.843,20.482 C15.568,21.438 13.852,22 12,22 C10.147,22 8.432,21.438 7.157,20.482 C5.882,19.526 5,18.128 5,16.5 C5,15.02 5.728,13.731 6.821,12.789 C6.357,11.747 5.975,10.67 5.678,9.569 C5.193,7.762 5.049,6.22 5.231,5.032 C5.408,3.882 5.96,2.764 7.134,2.45 C8.309,2.135 9.346,2.827 10.074,3.734 C11,5 12,7.5 12,11.054 Z M11.11,15.294 C10.581,15.684 10.368,16.372 10.583,16.993 C10.555,16.998 10.528,17 10.5,17 C9.948,17 9.5,17.448 9.5,18 C9.5,18.552 9.948,19 10.5,19 C11.041,19.001 11.568,18.825 12,18.5 C12.432,18.825 12.959,19.001 13.5,19 C14.052,19 14.5,18.552 14.5,18 C14.5,17.448 14.052,17 13.5,17 C13.472,17 13.444,16.998 13.417,16.994 C13.633,16.373 13.419,15.684 12.89,15.294 C12.361,14.904 11.639,14.904 11.11,15.294 Z"/>
</svg>

