<svg xmlns="http://www.w3.org/2000/svg" width="24" height="24">
  <defs/>
  <path  d="M5.269,4.026 C5.826,3.398 6.732,3.398 7.313,3.878 L7.418,3.973 L12.266,8.82 L12.353,8.733 A1 1 0 0 1 13.85,10.053 L13.767,10.147 L13.68,10.234 L18.027,14.582 C18.599,15.154 18.641,16.139 17.974,16.732 A8.974 8.974 0 0 1 13.508,18.874 L13.167,18.925 L14.147,20.243 A1.1 1.1 0 0 1 13.381,21.994 L13.265,22 L6.685,22 A1.1 1.1 0 0 1 5.627,20.597 L5.667,20.482 L6.921,17.431 A8.99 8.99 0 0 1 3,10 A8.97 8.97 0 0 1 5.269,4.026 M8.695,18.374 L8.028,20 L11.474,20 L10.655,18.9 A8.935 8.935 0 0 1 9.073,18.513 L8.695,18.373 Z M6.407,5.79 A7 7 0 0 0 16.21,15.593 L12.266,11.649 L10.707,13.207 A1 1 0 0 1 9.293,11.793 L10.851,10.234 Z M14.107,5.053 A3.5 3.5 0 0 1 16.966,8.013 A1 1 0 0 1 15.008,8.406 L14.985,8.291 A1.5 1.5 0 0 0 13.915,7.058 L13.76,7.023 A1 1 0 0 1 14.108,5.053 Z M14,2 A6 6 0 0 1 20,8 A1 1 0 0 1 18.007,8.117 L18,8 A4 4 0 0 0 14,4 A1 1 0 1 1 14,2"/>
</svg>

