<svg xmlns="http://www.w3.org/2000/svg" width="24" height="24">
  <defs/>
  <path  d="M4.929,4.929 A1 1 0 0 1 6.343,6.343 A7.972 7.972 0 0 0 4,12 A7.97 7.97 0 0 0 6.343,17.657 A1 1 0 1 1 4.93,19.07 A9.972 9.972 0 0 1 2,12 A9.972 9.972 0 0 1 4.929,4.929 M17.657,4.929 A1 1 0 0 1 19.071,4.929 A9.972 9.972 0 0 1 22,12 A9.972 9.972 0 0 1 19.071,19.071 A1 1 0 0 1 17.657,17.657 A7.972 7.972 0 0 0 20,12 A7.97 7.97 0 0 0 17.657,6.343 A1 1 0 0 1 17.657,4.929 M9.172,7.757 A1 1 0 0 1 9.172,9.172 A3.984 3.984 0 0 0 8,12 C8,13.13 8.467,14.148 9.22,14.877 A1 1 0 1 1 7.83,16.314 A5.985 5.985 0 0 1 6,12 C6,10.343 6.673,8.842 7.757,7.757 A1 1 0 0 1 9.172,7.757 M16.282,7.797 A5.984 5.984 0 0 1 18,12 A5.984 5.984 0 0 1 16.243,16.243 A1 1 0 0 1 14.828,14.828 A3.984 3.984 0 0 0 16,12 C16,10.909 15.564,9.92 14.855,9.198 A1 1 0 0 1 16.282,7.797 M12,10.5 A1.5 1.5 0 1 1 12,13.5 A1.5 1.5 0 0 1 12,10.5"/>
</svg>

