<svg xmlns="http://www.w3.org/2000/svg" width="24" height="24">
  <defs/>
  <path  d="M7.418,3.973 L12.266,8.82 L12.353,8.733 A1 1 0 0 1 13.767,10.147 L13.68,10.234 L18.027,14.582 C18.599,15.154 18.641,16.139 17.974,16.732 A8.97 8.97 0 0 1 13.167,18.925 L14.147,20.243 A1.1 1.1 0 0 1 13.266,22 L6.686,22 A1.1 1.1 0 0 1 5.669,20.482 L6.922,17.431 A8.99 8.99 0 0 1 3,10 A8.97 8.97 0 0 1 5.269,4.026 C5.861,3.359 6.846,3.401 7.419,3.973 Z M8.695,18.373 L8.028,20 L11.474,20 L10.655,18.9 A8.933 8.933 0 0 1 8.695,18.374 Z M14.108,5.053 A3.5 3.5 0 0 1 16.966,8.013 A1 1 0 0 1 15.008,8.406 L14.985,8.291 A1.5 1.5 0 0 0 13.915,7.058 L13.76,7.023 A1 1 0 0 1 14.108,5.053 M14,2 A6 6 0 0 1 20,8 A1 1 0 0 1 18.007,8.117 L18,8 A4 4 0 0 0 14,4 A1 1 0 1 1 14,2"/>
</svg>

