<svg xmlns="http://www.w3.org/2000/svg" width="24" height="24">
  <defs/>
  <path  d="M4.575,4.575 A1.5 1.5 0 1 1 6.697,6.697 A7.472 7.472 0 0 0 4.5,12 A7.47 7.47 0 0 0 6.697,17.303 A1.5 1.5 0 1 1 4.575,19.425 A10.472 10.472 0 0 1 1.5,12 C1.5,9.1 2.677,6.474 4.575,4.575 M17.303,4.575 A1.5 1.5 0 0 1 19.425,4.575 A10.472 10.472 0 0 1 22.5,12 C22.5,14.9 21.323,17.526 19.425,19.425 A1.5 1.5 0 1 1 17.303,17.303 A7.472 7.472 0 0 0 19.5,12 A7.472 7.472 0 0 0 17.303,6.697 A1.5 1.5 0 0 1 17.303,4.575 M9.525,7.404 A1.5 1.5 0 0 1 9.525,9.525 A3.484 3.484 0 0 0 8.5,12 C8.5,12.912 8.847,13.741 9.42,14.365 L9.568,14.517 A1.5 1.5 0 1 1 7.483,16.674 A6.485 6.485 0 0 1 5.5,12 C5.5,10.206 6.23,8.578 7.404,7.404 A1.5 1.5 0 0 1 9.525,7.404 M16.639,7.447 A6.484 6.484 0 0 1 18.5,12 C18.5,13.794 17.77,15.422 16.596,16.596 A1.5 1.5 0 1 1 14.475,14.475 A3.484 3.484 0 0 0 15.5,12 C15.5,11.045 15.12,10.181 14.498,9.548 A1.5 1.5 0 1 1 16.638,7.447 Z M12,10 A2 2 0 1 1 12,14 A2 2 0 0 1 12,10"/>
</svg>

