<svg xmlns="http://www.w3.org/2000/svg" width="24" height="24">
  <defs/>
  <path  d="M7.422,3.61 A1 1 0 0 1 8.592,2.978 L8.704,3.012 L19.66,7 L20,7 A2 2 0 0 1 21.995,8.85 L22,9 L22,19 A2 2 0 0 1 20.15,20.995 L20,21 L4,21 A2 2 0 0 1 2.005,19.15 L2,19 L2,9 A2 2 0 0 1 3.85,7.006 L4,7 L13.813,7 L8.02,4.891 A1 1 0 0 1 7.422,3.61 M19.31,9 L4,9 L4,19 L20,19 L20,9 L19.968,9 A0.996 0.996 0 0 1 19.442,9.037 L19.308,9 Z M10,15 A1 1 0 0 1 10.117,16.993 L10,17 L7,17 A1 1 0 0 1 6.883,15.007 L7,15 Z M15,11 A3 3 0 1 1 15,17 A3 3 0 0 1 15,11 M15,13 A1 1 0 1 0 15,15 A1 1 0 0 0 15,13 M8,12 A1 1 0 1 1 8,14 L7,14 A1 1 0 0 1 7,12 Z"/>
</svg>

