<svg xmlns="http://www.w3.org/2000/svg" width="24" height="24">
  <defs/>
  <path  d="M16.868,18.983 A1 1 0 0 1 17.575,20.208 L17.316,21.174 A1 1 0 0 1 15.384,20.656 L15.644,19.69 A1 1 0 0 1 16.868,18.983 M9.868,18.983 A1 1 0 0 1 10.575,20.208 L10.316,21.174 A1 1 0 0 1 8.384,20.656 L8.644,19.69 A1 1 0 0 1 9.868,18.983 M14.018,16.568 A1 1 0 0 1 14.748,17.678 L14.725,17.793 L14.207,19.725 A1 1 0 0 1 12.252,19.321 L12.275,19.207 L12.793,17.275 A1 1 0 0 1 14.018,16.568 M7.018,16.568 A1 1 0 0 1 7.725,17.793 L7.207,19.725 A1 1 0 1 1 5.275,19.207 L5.793,17.275 A1 1 0 0 1 7.018,16.568 M10.903,15.119 A1 1 0 0 1 11.61,16.344 L11.352,17.31 A1 1 0 0 1 9.42,16.792 L9.678,15.826 A1 1 0 0 1 10.903,15.119 M17.903,15.119 A1 1 0 0 1 18.61,16.344 L18.352,17.31 A1 1 0 0 1 16.42,16.792 L16.678,15.826 A1 1 0 0 1 17.903,15.119 M11.5,2 A6.502 6.502 0 0 1 17.586,6.212 A6.002 6.002 0 0 1 20.8,15.601 A1 1 0 0 1 19.2,14.399 A4.001 4.001 0 0 0 16.655,8.053 A1.01 1.01 0 0 1 15.845,7.321 A4.5 4.5 0 0 0 7.027,9 A1.01 1.01 0 0 1 6.267,10.09 A3.002 3.002 0 0 0 4.297,14.306 L4.4,14.499 A1 1 0 1 1 2.669,15.501 A5 5 0 0 1 5,8.416 A6.5 6.5 0 0 1 11.5,2"/>
</svg>

