<svg xmlns="http://www.w3.org/2000/svg" width="24" height="24">
  <defs/>
  <path  d="M12,7.5 C7.306,7.5 3.5,11.306 3.5,16 L3.5,17 C3.5,17.828 2.828,18.5 2,18.5 C1.172,18.5 0.5,17.828 0.5,17 L0.5,16 C0.5,9.649 5.649,4.5 12,4.5 C18.351,4.5 23.5,9.649 23.5,16 L23.5,17 C23.5,17.828 22.828,18.5 22,18.5 C21.172,18.5 20.5,17.828 20.5,17 L20.5,16 C20.5,11.306 16.694,7.5 12,7.5 Z M12,11.5 C9.515,11.5 7.5,13.515 7.5,16 L7.5,17 C7.5,17.828 6.828,18.5 6,18.5 C5.172,18.5 4.5,17.828 4.5,17 L4.5,16 C4.5,11.858 7.858,8.5 12,8.5 C16.142,8.5 19.5,11.858 19.5,16 L19.5,17 C19.5,17.828 18.828,18.5 18,18.5 C17.172,18.5 16.5,17.828 16.5,17 L16.5,16 C16.5,13.515 14.485,11.5 12,11.5 Z M11.5,16 L11.5,17 C11.5,17.828 10.828,18.5 10,18.5 C9.172,18.5 8.5,17.828 8.5,17 L8.5,16 C8.5,14.067 10.067,12.5 12,12.5 C13.933,12.5 15.5,14.067 15.5,16 L15.5,17 C15.5,17.828 14.828,18.5 14,18.5 C13.172,18.5 12.5,17.828 12.5,17 L12.5,16 C12.5,15.724 12.276,15.5 12,15.5 C11.724,15.5 11.5,15.724 11.5,16 Z"/>
</svg>

