<svg xmlns="http://www.w3.org/2000/svg" width="24" height="24">
  <defs/>
  <path  d="M12,19 A1 1 0 0 1 13,20 L13,21 A1 1 0 1 1 11,21 L11,20 A1 1 0 0 1 12,19 M15,17 A1 1 0 0 1 15.993,17.883 L16,18 L16,19 A1 1 0 0 1 14.007,19.117 L14,19 L14,18 A1 1 0 0 1 15,17 M9,17 A1 1 0 0 1 10,18 L10,19 A1 1 0 1 1 8,19 L8,18 A1 1 0 0 1 9,17 M12,15 A1 1 0 0 1 13,16 L13,17 A1 1 0 1 1 11,17 L11,16 A1 1 0 0 1 12,15 M11.5,2 A6.502 6.502 0 0 1 17.586,6.212 A6.002 6.002 0 0 1 19.6,16.799 A1 1 0 1 1 18.398,15.201 A4.001 4.001 0 0 0 16.654,8.054 A1.01 1.01 0 0 1 15.844,7.321 A4.5 4.5 0 0 0 7.027,9 A1.01 1.01 0 0 1 6.267,10.09 A3.002 3.002 0 0 0 5.5,15.6 A1 1 0 1 1 4.498,17.33 A5 5 0 0 1 5,8.417 A6.5 6.5 0 0 1 11.5,2 M9,13 A1 1 0 0 1 10,14 L10,15 A1 1 0 1 1 8,15 L8,14 A1 1 0 0 1 9,13 M15,13 A1 1 0 0 1 15.993,13.883 L16,14 L16,15 A1 1 0 0 1 14.007,15.117 L14,15 L14,14 A1 1 0 0 1 15,13"/>
</svg>

