<svg xmlns="http://www.w3.org/2000/svg" width="24" height="24">
  <defs/>
  <path  d="M4.575,10.94 A1.5 1.5 0 1 0 2.454,13.06 L3.868,14.475 A3.5 3.5 0 0 0 8.818,14.475 L10.224,13.069 L10.232,13.061 L10.24,13.052 L10.586,12.707 L18.01,20.132 A1.5 1.5 0 0 0 20.132,18.01 L12.707,10.586 L13.061,10.232 L14.475,8.818 A3.5 3.5 0 0 0 14.475,3.868 L13.06,2.454 A1.5 1.5 0 1 0 10.938,4.575 L12.353,5.99 A0.5 0.5 0 0 1 12.353,6.697 L12,7.05 L10.232,5.282 A1.5 1.5 0 0 0 8.111,7.404 L9.879,9.172 L9.171,9.879 L7.404,8.11 A1.5 1.5 0 0 0 5.282,10.231 L7.05,12 L6.697,12.354 A0.5 0.5 0 0 1 5.99,12.354 Z"/>
</svg>

