<svg xmlns="http://www.w3.org/2000/svg" width="24" height="24">
  <defs/>
  <path  d="M4.222,11.293 A1 1 0 0 0 2.808,12.707 L4.222,14.121 A3 3 0 0 0 8.464,14.121 L10.586,12 L18.364,19.778 A1 1 0 0 0 19.778,18.364 L12,10.586 L12.706,9.879 L12.708,9.879 L14.121,8.464 A3 3 0 0 0 14.121,4.222 L12.707,2.808 A1 1 0 1 0 11.293,4.222 L12.707,5.636 A1 1 0 0 1 12.707,7.05 L12,7.757 L9.878,5.637 A1 1 0 1 0 8.464,7.05 L10.586,9.172 L9.172,10.585 L7.05,8.465 A1 1 0 0 0 5.636,9.878 L7.757,12 L7.05,12.707 A1 1 0 0 1 5.636,12.707 Z"/>
</svg>

