<svg xmlns="http://www.w3.org/2000/svg" width="24" height="24">
  <defs/>
  <path  d="M18,3 C19.589,3 20.902,4.238 20.995,5.824 L21,6 L21,18 C21,19.589 19.762,20.902 18.176,20.995 L18,21 L6,21 C4.411,21 3.098,19.762 3.005,18.176 L3,18 L3,6 C3,4.411 4.238,3.098 5.824,3.005 L6,3 Z M12,10.5 C11.227,10.5 10.581,11.087 10.507,11.856 L10.5,12.01 C10.5,12.81 11.129,13.469 11.928,13.508 C12.727,13.546 13.416,12.95 13.493,12.154 L13.5,12 C13.5,11.172 12.828,10.5 12,10.5 Z M15.5,7 C14.727,7 14.081,7.587 14.007,8.356 L14,8.51 C14,9.31 14.629,9.969 15.428,10.008 C16.227,10.046 16.916,9.45 16.993,8.654 L17,8.5 C17,7.672 16.328,7 15.5,7 Z M15.5,14 C14.727,14 14.081,14.587 14.007,15.356 L14,15.51 C14,16.31 14.629,16.969 15.428,17.008 C16.227,17.046 16.916,16.45 16.993,15.654 L17,15.5 C17,14.672 16.328,14 15.5,14 Z M8.5,7 C7.727,7 7.081,7.587 7.007,8.356 L7,8.5 L7.007,8.654 C7.082,9.423 7.728,10.009 8.5,10.009 C9.272,10.009 9.918,9.423 9.993,8.654 L10,8.51 L9.993,8.356 C9.919,7.587 9.273,7 8.5,7 Z M8.5,14 C7.727,14 7.081,14.587 7.007,15.356 L7,15.5 L7.007,15.654 C7.082,16.423 7.728,17.009 8.5,17.009 C9.272,17.009 9.918,16.423 9.993,15.654 L10,15.51 L9.993,15.356 C9.919,14.587 9.273,14 8.5,14 Z"/>
</svg>

