<svg xmlns="http://www.w3.org/2000/svg" width="24" height="24">
  <defs/>
  <path  d="M18,3 C19.657,3 21,4.343 21,6 L21,18 C21,19.657 19.657,21 18,21 L6,21 C4.343,21 3,19.657 3,18 L3,6 C3,4.343 4.343,3 6,3 Z M18,5 L6,5 C5.448,5 5,5.448 5,6 L5,18 C5,18.552 5.448,19 6,19 L18,19 C18.552,19 19,18.552 19,18 L19,6 C19,5.448 18.552,5 18,5 Z M12,10.5 C12.773,10.5 13.419,11.087 13.493,11.856 L13.5,12.01 C13.5,12.81 12.871,13.469 12.072,13.508 C11.273,13.546 10.584,12.95 10.507,12.154 L10.5,12 C10.5,11.172 11.172,10.5 12,10.5 Z M8.5,7 C9.273,7 9.919,7.587 9.993,8.356 L10,8.51 C10,9.31 9.371,9.969 8.572,10.008 C7.773,10.046 7.084,9.45 7.007,8.654 L7,8.5 C7,7.672 7.672,7 8.5,7 Z M15.5,7 C16.273,7 16.919,7.587 16.993,8.356 L17,8.51 C17,9.31 16.371,9.969 15.572,10.008 C14.773,10.046 14.084,9.45 14.007,8.654 L14,8.5 C14,7.672 14.672,7 15.5,7 Z M8.5,14 C9.273,14 9.919,14.587 9.993,15.356 L10,15.51 C10,16.31 9.371,16.969 8.572,17.008 C7.773,17.046 7.084,16.45 7.007,15.654 L7,15.5 C7,14.672 7.672,14 8.5,14 Z M15.5,14 C16.273,14 16.919,14.587 16.993,15.356 L17,15.51 C17,16.31 16.371,16.969 15.572,17.008 C14.773,17.046 14.084,16.45 14.007,15.654 L14,15.5 C14,14.672 14.672,14 15.5,14 Z"/>
</svg>

