<svg xmlns="http://www.w3.org/2000/svg" width="24" height="24">
  <defs/>
  <path  d="M17.22,4.625 A1 1 0 1 1 18.78,3.375 L19.318,4.047 C19.91,4.787 20.188,5.691 20.154,6.585 L21.371,7.072 A1 1 0 1 1 20.629,8.929 L19.555,8.499 A3.833 3.833 0 0 1 19.235,8.929 A1.828 1.828 0 0 0 19.133,11.176 L21.371,12.072 A1 1 0 1 1 20.629,13.929 L20.203,13.759 A3.823 3.823 0 0 1 19.368,16.27 L21.371,17.072 A1 1 0 1 1 20.629,18.929 L18.986,18.272 C19.05,18.424 19.136,18.57 19.244,18.704 L19.781,19.375 A1 1 0 1 1 18.219,20.625 L17.682,19.953 A3.82 3.82 0 0 1 16.846,17.416 L15.629,16.928 A1 1 0 1 1 16.371,15.072 L17.445,15.502 C17.541,15.352 17.647,15.209 17.765,15.072 A1.828 1.828 0 0 0 17.867,12.824 L15.629,11.928 A1 1 0 1 1 16.371,10.072 L16.797,10.242 A3.822 3.822 0 0 1 17.632,7.73 L15.629,6.929 A1 1 0 1 1 16.371,5.072 L18.014,5.729 A1.824 1.824 0 0 0 17.756,5.296 L17.219,4.625 Z M13.769,7.429 C13.439,4.234 10.135,2.735 7.388,3.956 L7.163,4.056 A8.694 8.694 0 0 0 7.163,19.945 L7.388,20.045 C10.135,21.265 13.438,19.765 13.768,16.571 C13.903,15.269 14,13.731 14,12 C14,10.27 13.903,8.731 13.769,7.43 Z M8.2,5.783 C9.896,5.03 11.61,5.993 11.78,7.635 C11.907,8.875 12,10.344 12,12 C12,13.656 11.907,15.126 11.78,16.365 C11.61,18.007 9.896,18.971 8.2,18.217 L7.975,18.117 A6.694 6.694 0 0 1 7.975,5.883 Z"/>
</svg>

