<svg xmlns="http://www.w3.org/2000/svg" width="24" height="24">
  <defs/>
  <path  d="M17.5,2.474 C19.022,3.352 19.334,5.294 19.08,7.24 C19.05,7.481 19.009,7.729 18.959,7.982 C19.203,8.066 19.439,8.155 19.662,8.248 C21.474,9.002 23,10.243 23,12 C23,13.757 21.474,14.998 19.662,15.752 C19.438,15.845 19.203,15.934 18.959,16.018 C19.009,16.271 19.049,16.518 19.08,16.76 C19.334,18.706 19.022,20.648 17.5,21.526 C15.979,22.405 14.14,21.704 12.582,20.512 C12.383,20.359 12.189,20.2 12,20.035 C11.805,20.205 11.611,20.364 11.418,20.512 C9.86,21.704 8.022,22.405 6.5,21.526 C4.979,20.648 4.667,18.706 4.92,16.76 C4.953,16.511 4.993,16.264 5.042,16.018 C4.797,15.934 4.562,15.845 4.338,15.752 C2.526,14.998 1,13.757 1,12 C1,10.243 2.526,9.002 4.338,8.248 C4.562,8.155 4.798,8.066 5.042,7.982 C4.992,7.729 4.952,7.482 4.92,7.24 C4.667,5.294 4.979,3.352 6.5,2.474 C8.022,1.595 9.86,2.296 11.418,3.489 C11.611,3.636 11.805,3.795 12,3.965 C12.195,3.795 12.39,3.636 12.582,3.489 C14.141,2.296 15.978,1.595 17.5,2.474 Z M5.56,9.92 C5.407,9.975 5.256,10.033 5.106,10.095 C3.436,10.789 3,11.548 3,12 C3,12.452 3.437,13.211 5.106,13.905 C5.251,13.965 5.403,14.024 5.56,14.08 C5.798,13.373 6.072,12.679 6.381,12 C6.072,11.321 5.799,10.627 5.561,9.92 Z M6.98,16.537 C6.95,16.702 6.925,16.863 6.904,17.018 C6.671,18.811 7.11,19.568 7.501,19.794 C7.893,20.02 8.768,20.022 10.204,18.924 C10.333,18.825 10.459,18.723 10.583,18.617 C10.09,18.058 9.625,17.474 9.192,16.867 C8.45,16.795 7.711,16.685 6.98,16.537 Z M10.203,5.077 C8.767,3.978 7.892,3.98 7.5,4.206 C7.109,4.432 6.67,5.189 6.903,6.982 C6.923,7.138 6.949,7.298 6.979,7.463 C7.668,7.323 8.407,7.211 9.191,7.133 C9.624,6.526 10.089,5.942 10.582,5.383 C10.458,5.278 10.332,5.176 10.203,5.077 Z M13.798,5.077 C13.669,5.176 13.542,5.278 13.418,5.383 C13.885,5.909 14.351,6.494 14.81,7.133 C15.593,7.211 16.333,7.323 17.022,7.463 C17.051,7.304 17.076,7.144 17.097,6.983 C17.331,5.19 16.892,4.432 16.5,4.206 C16.109,3.98 15.233,3.979 13.797,5.077 Z M17.023,16.537 C16.333,16.677 15.595,16.789 14.811,16.867 C14.351,17.507 13.886,18.091 13.42,18.617 C13.547,18.726 13.674,18.827 13.798,18.923 C15.234,20.022 16.11,20.02 16.501,19.794 C16.893,19.568 17.331,18.811 17.098,17.018 C17.077,16.857 17.052,16.697 17.023,16.537 Z M18.44,9.92 C18.202,10.627 17.929,11.321 17.62,12 C17.944,12.717 18.218,13.413 18.44,14.08 C18.593,14.026 18.744,13.967 18.894,13.905 C20.564,13.211 21,12.452 21,12 C21,11.548 20.564,10.79 18.894,10.095 C18.744,10.033 18.593,9.974 18.44,9.92 Z M12,10.5 C11.172,10.5 10.5,11.172 10.5,12 C10.5,12.828 11.172,13.5 12,13.5 C12.828,13.5 13.5,12.828 13.5,12 C13.5,11.172 12.828,10.5 12,10.5 Z"/>
</svg>

