<svg xmlns="http://www.w3.org/2000/svg" width="24" height="24">
  <defs/>
  <path  d="M2,7 A3 3 0 0 1 5,4 L19,4 A3 3 0 0 1 22,7 L22,14 A3 3 0 0 1 19,17 L15.86,17 A4.155 4.155 0 0 1 15.014,20.333 L14.781,20.625 A1 1 0 1 1 13.219,19.375 L13.452,19.084 A2.16 2.16 0 0 0 13.797,17 L15.86,17 A4.147 4.147 0 0 0 14.707,14.793 A2.16 2.16 0 0 1 14.547,11.916 L14.781,11.625 A1 1 0 1 0 13.219,10.375 L12.986,10.667 A4.16 4.16 0 0 0 13.293,16.207 C13.523,16.438 13.693,16.71 13.797,17 L11.86,17 A4.155 4.155 0 0 1 11.014,20.333 L10.781,20.625 A1 1 0 1 1 9.219,19.375 L9.452,19.084 A2.16 2.16 0 0 0 9.797,17 L11.86,17 A4.147 4.147 0 0 0 10.707,14.793 A2.16 2.16 0 0 1 10.547,11.916 L10.781,11.625 A1 1 0 1 0 9.219,10.375 L8.986,10.667 A4.16 4.16 0 0 0 9.293,16.207 C9.523,16.438 9.693,16.71 9.797,17 L5,17 A3 3 0 0 1 2,14 Z"/>
</svg>

