<svg xmlns="http://www.w3.org/2000/svg" width="24" height="24">
  <defs/>
  <path  d="M10.625,10.22 A1 1 0 0 1 10.781,11.625 L10.548,11.916 A2.16 2.16 0 0 0 10.584,14.659 L10.707,14.793 A4.16 4.16 0 0 1 11.014,20.333 L10.781,20.625 A1 1 0 1 1 9.219,19.375 L9.452,19.084 A2.16 2.16 0 0 0 9.416,16.341 L9.293,16.207 A4.16 4.16 0 0 1 8.986,10.667 L9.219,10.375 A1 1 0 0 1 10.625,10.219 Z M14.625,10.22 A1 1 0 0 1 14.781,11.625 L14.548,11.916 A2.16 2.16 0 0 0 14.584,14.659 L14.707,14.793 A4.16 4.16 0 0 1 15.014,20.333 L14.781,20.625 A1 1 0 1 1 13.219,19.375 L13.452,19.084 A2.16 2.16 0 0 0 13.416,16.341 L13.293,16.207 A4.16 4.16 0 0 1 12.986,10.667 L13.219,10.375 A1 1 0 0 1 14.625,10.219 Z M19,4 A3 3 0 0 1 21.995,6.824 L22,7 L22,14 A3 3 0 0 1 19.176,16.995 L19,17 L18,17 A1 1 0 0 1 17.883,15.007 L18,15 L19,15 A1 1 0 0 0 19.993,14.117 L20,14 L20,7 A1 1 0 0 0 19.117,6.007 L19,6 L5,6 A1 1 0 0 0 4.007,6.883 L4,7 L4,14 A1 1 0 0 0 4.883,14.993 L5,15 L6,15 A1 1 0 0 1 6.117,16.993 L6,17 L5,17 A3 3 0 0 1 2.005,14.176 L2,14 L2,7 A3 3 0 0 1 4.824,4.005 L5,4 Z"/>
</svg>

