<svg xmlns="http://www.w3.org/2000/svg" width="24" height="24">
  <defs/>
  <path  d="M4,17 L4,5 C4,3.343 5.343,2 7,2 L17,2 C18.657,2 20,3.343 20,5 L20,17 C20.483,17 20.897,17.346 20.983,17.822 C21.069,18.297 20.803,18.766 20.351,18.936 L12.351,21.936 C12.125,22.021 11.875,22.021 11.649,21.936 L3.649,18.936 C3.197,18.766 2.931,18.297 3.017,17.822 C3.103,17.346 3.517,17 4,17 Z M13,6 C13,5.448 12.552,5 12,5 C11.448,5 11,5.448 11,6 L11,7 L10,7 C8.619,7 7.5,8.119 7.5,9.5 C7.5,10.881 8.619,12 10,12 L14,12 C14.276,12 14.5,12.224 14.5,12.5 C14.5,12.776 14.276,13 14,13 L9,13 C8.448,13 8,13.448 8,14 C8,14.552 8.448,15 9,15 L11,15 L11,16 C11,16.552 11.448,17 12,17 C12.552,17 13,16.552 13,16 L13,15 L14,15 C15.381,15 16.5,13.881 16.5,12.5 C16.5,11.119 15.381,10 14,10 L10,10 C9.724,10 9.5,9.776 9.5,9.5 C9.5,9.224 9.724,9 10,9 L15,9 C15.552,9 16,8.552 16,8 C16,7.448 15.552,7 15,7 L13,7 Z"/>
</svg>

