<svg xmlns="http://www.w3.org/2000/svg" width="24" height="24">
  <defs/>
  <path  d="M17,2 A3 3 0 0 1 20,5 L20,17 A1 1 0 0 1 20.351,18.936 L12.351,21.936 A1 1 0 0 1 11.649,21.936 L3.649,18.936 A1 1 0 0 1 4,17 L4,5 A3 3 0 0 1 7,2 Z M17,4 L7,4 A1 1 0 0 0 6.007,4.883 L6,5 L6,17.682 L12,19.932 L18,17.682 L18,5 A1 1 0 0 0 17.117,4.007 Z M12,5 A1 1 0 0 1 12.993,5.883 L13,6 L13,7 L15,7 A1 1 0 0 1 15.117,8.993 L15,9 L10,9 A0.5 0.5 0 0 0 9.91,9.992 L10,10 L14,10 A2.5 2.5 0 0 1 14.164,14.995 L14,15 L13,15 L13,16 A1 1 0 0 1 11.007,16.117 L11,16 L11,15 L9,15 A1 1 0 0 1 8.883,13.007 L9,13 L14,13 A0.5 0.5 0 0 0 14.09,12.008 L14,12 L10,12 A2.5 2.5 0 0 1 9.836,7.005 L10,7 L11,7 L11,6 A1 1 0 0 1 12,5"/>
</svg>

