<svg xmlns="http://www.w3.org/2000/svg" width="24" height="24">
  <defs/>
  <path  d="M11.084,13.5 L12.916,13.5 C12.032,11.474 12.583,9.107 14.272,7.68 C15.961,6.254 18.387,6.106 20.237,7.316 C22.087,8.527 22.922,10.809 22.29,12.928 C21.659,15.047 19.711,16.499 17.5,16.5 L6.5,16.5 C4.289,16.499 2.341,15.047 1.71,12.928 C1.078,10.809 1.913,8.527 3.763,7.316 C5.613,6.106 8.039,6.254 9.728,7.68 C11.417,9.107 11.968,11.474 11.084,13.5 Z M17.5,13.5 C18.605,13.5 19.5,12.605 19.5,11.5 C19.5,10.395 18.605,9.5 17.5,9.5 C16.395,9.5 15.5,10.395 15.5,11.5 C15.5,12.605 16.395,13.5 17.5,13.5 Z M6.5,9.5 C5.395,9.5 4.5,10.395 4.5,11.5 C4.5,12.605 5.395,13.5 6.5,13.5 C7.605,13.5 8.5,12.605 8.5,11.5 C8.5,10.395 7.605,9.5 6.5,9.5 Z"/>
</svg>

