<svg xmlns="http://www.w3.org/2000/svg" width="24" height="24">
  <defs/>
  <path  d="M10.242,14 L13.758,14 C12.611,12.284 12.779,10.007 14.165,8.478 C15.552,6.949 17.8,6.558 19.621,7.531 C21.441,8.504 22.366,10.591 21.865,12.593 C21.363,14.595 19.564,16 17.5,16 L6.5,16 C4.436,16 2.637,14.595 2.135,12.593 C1.634,10.591 2.559,8.504 4.379,7.531 C6.2,6.558 8.448,6.949 9.835,8.478 C11.221,10.007 11.389,12.284 10.242,14 Z M17.5,14 C18.881,14 20,12.881 20,11.5 C20,10.119 18.881,9 17.5,9 C16.119,9 15,10.119 15,11.5 C15,12.881 16.119,14 17.5,14 Z M6.5,9 C5.119,9 4,10.119 4,11.5 C4,12.881 5.119,14 6.5,14 C7.881,14 9,12.881 9,11.5 C9,10.119 7.881,9 6.5,9 Z"/>
</svg>

