<svg xmlns="http://www.w3.org/2000/svg" width="24" height="24">
  <defs/>
  <path  d="M2.041,16.75 L4.694,12.154 C3.971,12.085 3.401,11.508 3.341,10.784 C3.281,10.06 3.749,9.397 4.451,9.211 L7.349,8.435 C8.149,8.222 8.97,8.696 9.186,9.495 L9.963,12.394 C10.151,13.095 9.811,13.83 9.155,14.14 C8.498,14.45 7.714,14.245 7.293,13.654 L5.072,17.5 L7,17.5 C7.828,17.5 8.5,18.172 8.5,19 C8.5,19.828 7.828,20.5 7,20.5 L4.206,20.5 C2.281,20.5 1.079,18.417 2.041,16.75 Z M14.165,3.25 L16.819,7.847 C17.24,7.256 18.024,7.051 18.681,7.361 C19.337,7.671 19.677,8.406 19.489,9.107 L18.713,12.004 C18.621,12.344 18.427,12.622 18.153,12.824 C17.787,13.097 17.315,13.186 16.875,13.065 L13.977,12.289 C13.275,12.103 12.807,11.44 12.867,10.716 C12.927,9.992 13.497,9.415 14.22,9.346 L12,5.5 L11.036,7.17 C10.619,7.881 9.706,8.123 8.992,7.71 C8.278,7.298 8.03,6.387 8.438,5.67 L9.835,3.25 C10.797,1.583 13.203,1.583 14.165,3.25 Z M20.562,14.33 L21.959,16.75 C22.922,18.417 21.719,20.5 19.794,20.5 L14.487,20.5 C14.788,21.16 14.573,21.941 13.976,22.354 C13.38,22.767 12.574,22.695 12.061,22.182 L9.947,20.069 C9.66,19.786 9.5,19.412 9.5,19 C9.5,18.582 9.671,18.204 9.947,17.932 L12.061,15.818 C12.574,15.303 13.381,15.23 13.978,15.644 C14.575,16.057 14.79,16.839 14.488,17.5 L18.928,17.5 L17.964,15.83 C17.556,15.113 17.804,14.202 18.518,13.79 C19.232,13.377 20.145,13.619 20.562,14.33 Z"/>
</svg>

