<svg xmlns="http://www.w3.org/2000/svg" width="24" height="24">
  <defs/>
  <path  d="M18.763,14.214 A1 1 0 0 1 20.065,14.482 L20.129,14.58 L21.526,17 C22.271,18.29 21.394,19.893 19.941,19.995 L19.794,20 L13.414,20 L13.829,20.414 A1 1 0 0 1 12.509,21.912 L12.414,21.828 L10.299,19.713 A1.017 1.017 0 0 1 10.105,19.446 A0.995 0.995 0 0 1 10.226,18.366 L10.262,18.326 L12.414,16.172 A1 1 0 0 1 13.912,17.492 L13.829,17.586 L13.414,18 L19.794,18 L18.397,15.58 A1 1 0 0 1 18.763,14.214 M8.703,9.625 L9.48,12.523 A1 1 0 1 1 7.548,13.041 L7.396,12.475 L4.206,18 L7,18 A1 1 0 1 1 7,20 L4.206,20 C2.666,20 1.704,18.333 2.474,17 L5.664,11.475 L5.098,11.626 A1 1 0 0 1 4.581,9.694 L7.478,8.918 A1 1 0 0 1 8.703,9.625 M13.645,3.362 L13.732,3.5 L16.922,9.025 L17.074,8.459 A1 1 0 0 1 19.029,8.863 L19.006,8.977 L18.229,11.875 A0.996 0.996 0 0 1 17.13,12.607 L17.005,12.582 L14.107,11.806 A1 1 0 0 1 14.51,9.85 L14.624,9.874 L15.19,10.025 L12,4.5 L10.603,6.92 A1 1 0 0 1 8.818,6.024 L8.871,5.92 L10.268,3.5 C10.983,2.262 12.693,2.173 13.55,3.235 Z"/>
</svg>

