<svg xmlns="http://www.w3.org/2000/svg" width="24" height="24">
  <defs/>
  <path  d="M4,5 C4,3.343 5.343,2 7,2 L17,2 C18.657,2 20,3.343 20,5 L20,19 C20,20.657 18.657,22 17,22 L7,22 C5.343,22 4,20.657 4,19 Z M6,19 C6,19.552 6.448,20 7,20 L17,20 C17.552,20 18,19.552 18,19 L18,8.324 C16.817,9.641 15.233,10.533 13.493,10.861 C13.546,11.428 13.273,11.976 12.789,12.276 C12.305,12.575 11.694,12.575 11.21,12.276 C10.726,11.976 10.453,11.428 10.506,10.861 C8.766,10.533 7.183,9.641 6,8.324 Z M7,4 C6.537,4 6.134,4.318 6.027,4.768 L6.8,6.056 C7.896,7.882 9.87,8.999 12,8.999 C14.13,8.999 16.104,7.882 17.2,6.056 L17.973,4.768 C17.866,4.318 17.463,4 17,4 Z"/>
</svg>

