<svg xmlns="http://www.w3.org/2000/svg" width="24" height="24">
  <defs/>
  <path  d="M12,2 C17.523,2 22,6.477 22,12 C22,17.523 17.523,22 12,22 C6.477,22 2,17.523 2,12 C2,6.477 6.477,2 12,2 M15,6 C14.7,6 14.432,6.131 14.249,6.34 L12.599,6.01 A0.5 0.5 0 0 0 12.005,6.43 L11.637,9.008 C10.214,9.071 8.898,9.501 7.891,10.206 A5.284 5.284 0 0 0 7.344,10.645 A1.5 1.5 0 0 0 6.004,13.329 L6,13.5 C6,14.882 6.802,16.032 7.891,16.794 C8.983,17.56 10.439,18 12,18 C13.56,18 15.017,17.559 16.109,16.794 C17.199,16.032 18,14.882 18,13.5 L17.996,13.33 A1.5 1.5 0 0 0 16.656,10.645 A5.287 5.287 0 0 0 16.109,10.205 C15.169,9.548 13.959,9.129 12.644,9.025 L12.92,7.094 L14.052,7.32 A1 1 0 1 0 15,6 M9.5,12 A1.5 1.5 0 1 1 9.5,15 A1.5 1.5 0 0 1 9.5,12 M14.5,12 A1.5 1.5 0 1 1 14.5,15 A1.5 1.5 0 0 1 14.5,12"/>
</svg>

