<svg xmlns="http://www.w3.org/2000/svg" width="24" height="24">
  <defs/>
  <path  d="M12,2 C17.523,2 22,6.477 22,12 C22,17.523 17.523,22 12,22 C6.477,22 2,17.523 2,12 C2,6.477 6.477,2 12,2 M12,4 A8 8 0 1 0 12,20 A8 8 0 0 0 12,4 M15,6 A1 1 0 1 1 14.052,7.32 L12.92,7.094 L12.644,9.025 C13.959,9.129 15.168,9.548 16.109,10.205 C16.301,10.341 16.484,10.487 16.656,10.645 A1.5 1.5 0 0 1 17.996,13.329 L18,13.5 C18,14.882 17.198,16.032 16.109,16.794 C15.017,17.56 13.561,18 12,18 C10.44,18 8.983,17.559 7.891,16.794 C6.801,16.032 6,14.882 6,13.5 L6.004,13.33 A1.5 1.5 0 0 1 7.344,10.645 C7.515,10.487 7.699,10.341 7.891,10.205 C8.898,9.501 10.214,9.071 11.637,9.008 L12.005,6.429 A0.5 0.5 0 0 1 12.598,6.009 L14.248,6.339 A0.998 0.998 0 0 1 15,6 M12,11 C10.8,11 9.755,11.342 9.038,11.844 C8.318,12.35 8,12.95 8,13.5 C8,14.05 8.318,14.651 9.038,15.156 C9.755,15.658 10.799,16 12,16 C13.2,16 14.245,15.658 14.962,15.156 C15.682,14.65 16,14.05 16,13.5 C16,12.95 15.682,12.349 14.962,11.844 C14.245,11.342 13.201,11 12,11 M10,12 A1 1 0 1 1 10,14 A1 1 0 0 1 10,12 M14,12 A1 1 0 1 1 14,14 A1 1 0 0 1 14,12"/>
</svg>

