<svg xmlns="http://www.w3.org/2000/svg" width="24" height="24">
  <defs/>
  <path  d="M14.07,19.727 L14.07,19.728 C17.738,18.745 20.21,15.318 19.984,11.526 C19.759,7.735 16.899,4.625 13.14,4.083 C9.381,3.541 5.759,5.716 4.472,9.289 L5.53,9.053 C6.716,8.788 7.392,10.359 6.384,11.039 L3.711,12.84 C2.993,13.323 1.991,12.824 1.998,11.921 C2.035,7.424 5.068,3.505 9.412,2.341 C14.746,0.912 20.229,4.077 21.659,9.412 C23.088,14.746 19.923,20.23 14.588,21.66 C9.99,22.891 5.284,20.71 3.154,16.67 C2.896,16.181 3.084,15.576 3.572,15.318 C4.061,15.061 4.666,15.248 4.924,15.737 C6.669,19.037 10.464,20.693 14.07,19.727 Z"/>
</svg>

