<svg xmlns="http://www.w3.org/2000/svg" width="24" height="24">
  <defs/>
  <path  d="M10.7,19.374 C13.865,19.932 17.034,18.413 18.581,15.596 C18.988,14.888 19.886,14.636 20.602,15.029 C21.318,15.421 21.589,16.314 21.211,17.038 C19.109,20.873 14.731,23.131 10.179,22.328 C4.469,21.322 0.655,15.876 1.662,10.165 C2.67,4.455 8.115,0.641 13.826,1.648 C18.476,2.468 22.007,6.291 22.457,10.991 C22.582,12.3 21.192,13.149 20.091,12.54 L17.271,10.979 C15.724,10.122 16.504,7.759 18.257,7.993 L18.359,8.006 C16.531,5.089 12.953,3.791 9.68,4.857 C6.408,5.923 4.281,9.08 4.522,12.514 C4.763,15.947 7.31,18.776 10.7,19.374 Z"/>
</svg>

