<svg xmlns="http://www.w3.org/2000/svg" width="24" height="24">
  <defs/>
  <path  d="M1.498,12.082 C1.488,10.815 2.845,10.095 3.877,10.676 L3.99,10.746 L6.668,12.55 C8.092,13.51 7.206,15.696 5.568,15.465 L5.431,15.44 L5.322,15.416 A7.504 7.504 0 0 0 18.497,15.751 A1.5 1.5 0 1 1 21.097,17.249 C18.78,21.269 13.978,23.401 9.282,22.142 A10.503 10.503 0 0 1 1.498,12.082 M2.904,6.752 C5.22,2.731 10.022,0.6 14.718,1.857 A10.503 10.503 0 0 1 22.502,11.917 C22.512,13.184 21.155,13.904 20.123,13.324 L20.01,13.254 L17.332,11.449 C15.908,10.49 16.794,8.304 18.431,8.535 L18.569,8.56 L18.677,8.583 A7.504 7.504 0 0 0 5.502,8.25 A1.5 1.5 0 1 1 2.904,6.752"/>
</svg>

