<svg xmlns="http://www.w3.org/2000/svg" width="24" height="24">
  <defs/>
  <path  d="M3,9.5 A1.5 1.5 0 0 1 4.5,11 A5.5 5.5 0 0 0 9.779,16.496 L10,16.5 L12.382,16.5 A1.5 1.5 0 0 1 14.447,14.336 L14.561,14.439 L17.086,16.965 A1.495 1.495 0 0 1 17.156,18.955 L17.059,19.063 L14.561,21.561 A1.5 1.5 0 0 1 12.289,19.614 L12.382,19.5 L10,19.5 A8.5 8.5 0 0 1 1.5,11 A1.5 1.5 0 0 1 3,9.5 M19,7 A1 1 0 0 1 19.898,7.56 L19.946,7.677 L20.076,8.055 A3 3 0 0 0 21.76,9.855 L21.945,9.925 L22.323,10.054 A1 1 0 0 1 22.441,11.898 L22.323,11.946 L21.945,12.076 A3 3 0 0 0 20.145,13.76 L20.075,13.945 L19.946,14.323 A1 1 0 0 1 18.102,14.441 L18.054,14.323 L17.924,13.945 A3 3 0 0 0 16.24,12.145 L16.055,12.075 L15.677,11.946 A1 1 0 0 1 15.559,10.102 L15.677,10.054 L16.055,9.924 A3 3 0 0 0 17.855,8.24 L17.925,8.055 L18.054,7.677 A1 1 0 0 1 19,7 M7.44,2.44 A1.5 1.5 0 0 1 9.71,4.386 L9.618,4.5 L12,4.5 A8.46 8.46 0 0 1 16.787,5.975 A2.993 2.993 0 0 0 16.236,6.835 L16.161,7.031 L16.031,7.409 A1 1 0 0 1 15.515,7.989 L15.409,8.032 L15.03,8.161 A3.03 3.03 0 0 0 14.786,8.257 A5.468 5.468 0 0 0 12.303,7.508 L12,7.5 L9.618,7.5 A1.5 1.5 0 0 1 7.553,9.664 L7.44,9.56 L4.94,7.06 A1.5 1.5 0 0 1 4.837,5.052 L4.94,4.938 Z"/>
</svg>

