<svg xmlns="http://www.w3.org/2000/svg" width="24" height="24">
  <defs/>
  <path  d="M20,9 A1 1 0 0 1 21,10 L21,11 A8 8 0 0 1 13,19 L9.414,19 L10.207,19.793 A1 1 0 0 1 8.793,21.207 L6.297,18.711 A0.997 0.997 0 0 1 6.01,18.144 L6,17.991 A0.996 0.996 0 0 1 6.237,17.353 L6.293,17.293 L8.793,14.793 A1 1 0 0 1 10.207,16.207 L9.414,17 L13,17 A6 6 0 0 0 19,11 L19,10 A1 1 0 0 1 20,9 M15.207,2.793 L17.707,5.293 A1 1 0 0 1 17.707,6.707 L15.207,9.207 A1 1 0 1 1 13.793,7.793 L14.586,7 L11,7 A6 6 0 0 0 5,13 L5,14 A1 1 0 1 1 3,14 L3,13 A8 8 0 0 1 11,5 L14.586,5 L13.793,4.207 A1 1 0 0 1 15.207,2.793"/>
</svg>

