<svg xmlns="http://www.w3.org/2000/svg" width="24" height="24">
  <defs/>
  <path  d="M4,9 A1 1 0 0 1 4.993,9.883 L5,10 L5,11 A6 6 0 0 0 10.775,16.996 L11,17 L14.586,17 L13.793,16.207 A1 1 0 0 1 15.113,14.71 L15.207,14.793 L17.707,17.293 A0.992 0.992 0 0 1 17.988,17.848 L18,18.01 A0.996 0.996 0 0 1 17.788,18.616 L17.703,18.711 L15.207,21.207 A1 1 0 0 1 13.71,19.887 L13.793,19.793 L14.586,19 L11,19 A8 8 0 0 1 3.004,11.25 L3,11 L3,10 A1 1 0 0 1 4,9 M8.793,2.793 A1 1 0 0 1 10.29,4.113 L10.207,4.207 L9.414,5 L13,5 A8 8 0 0 1 20.996,12.75 L21,13 L21,14 A1 1 0 0 1 19.007,14.117 L19,14 L19,13 A6 6 0 0 0 13.225,7.004 L13,7 L9.414,7 L10.207,7.793 A1 1 0 0 1 8.887,9.29 L8.793,9.207 L6.293,6.707 A1 1 0 0 1 6.21,5.387 L6.293,5.293 Z"/>
</svg>

