<svg xmlns="http://www.w3.org/2000/svg" width="24" height="24">
  <defs/>
  <path  d="M4,9.5 A1.5 1.5 0 0 1 5.5,11 A5.5 5.5 0 0 0 10.779,16.496 L11,16.5 L13.382,16.5 A1.5 1.5 0 0 1 15.447,14.336 L15.561,14.439 L18.061,16.939 A1.494 1.494 0 0 1 18.491,17.829 L18.5,17.986 L18.5,18.014 A1.49 1.49 0 0 1 18.152,18.961 L18.055,19.066 L15.561,21.561 A1.5 1.5 0 0 1 13.289,19.614 L13.382,19.5 L11,19.5 A8.5 8.5 0 0 1 2.5,11 A1.5 1.5 0 0 1 4,9.5 M8.44,2.44 A1.5 1.5 0 0 1 10.71,4.386 L10.618,4.5 L13,4.5 A8.5 8.5 0 0 1 21.5,13 A1.5 1.5 0 1 1 18.5,13 A5.5 5.5 0 0 0 13.221,7.504 L13,7.5 L10.618,7.5 A1.5 1.5 0 0 1 8.553,9.664 L8.44,9.56 L5.94,7.06 A1.5 1.5 0 0 1 5.837,5.052 L5.94,4.938 L8.44,2.438 Z"/>
</svg>

