<svg xmlns="http://www.w3.org/2000/svg" width="24" height="24">
  <defs/>
  <path  d="M4,9 A1 1 0 0 1 5,10 L5,11 A6 6 0 0 0 11,17 L14.586,17 L13.793,16.207 A1 1 0 0 1 15.207,14.793 L17.707,17.293 A0.992 0.992 0 0 1 17.988,17.848 L18,18.01 A0.997 0.997 0 0 1 17.703,18.711 L15.207,21.207 A1 1 0 0 1 13.793,19.793 L14.586,19 L11,19 A8 8 0 0 1 3,11 L3,10 A1 1 0 0 1 4,9 M19,7 A1 1 0 0 1 19.898,7.56 L19.946,7.677 L20.076,8.055 A3 3 0 0 0 21.76,9.855 L21.945,9.925 L22.323,10.054 A1 1 0 0 1 22.441,11.898 L22.323,11.946 L21.945,12.076 A3 3 0 0 0 20.145,13.76 L20.075,13.945 L19.946,14.323 A1 1 0 0 1 18.102,14.441 L18.054,14.323 L17.924,13.945 A3 3 0 0 0 16.24,12.145 L16.055,12.075 L15.677,11.946 A1 1 0 0 1 15.559,10.102 L15.677,10.054 L16.055,9.924 A3 3 0 0 0 17.855,8.24 L17.925,8.055 L18.054,7.677 A1 1 0 0 1 19,7 M19,10.196 A5.008 5.008 0 0 1 18.196,11 C18.494,11.236 18.763,11.506 19,11.804 C19.236,11.506 19.506,11.236 19.804,11 A5.008 5.008 0 0 1 19,10.196 M10.207,2.793 A1 1 0 0 1 10.207,4.207 L9.414,5 L13,5 C14.225,5 15.389,5.276 16.43,5.77 A1 1 0 0 1 15.57,7.577 A5.972 5.972 0 0 0 13,7 L9.414,7 L10.207,7.793 A1 1 0 0 1 8.793,9.207 L6.293,6.707 A1 1 0 0 1 6.293,5.293 L8.793,2.793 A1 1 0 0 1 10.207,2.793"/>
</svg>

