<svg xmlns="http://www.w3.org/2000/svg" width="24" height="24">
  <defs/>
  <path  d="M9.93,19.728 C13.536,20.694 17.331,19.038 19.076,15.738 C19.333,15.249 19.938,15.062 20.427,15.319 C20.916,15.576 21.103,16.181 20.846,16.67 C18.716,20.71 14.01,22.891 9.412,21.66 C4.077,20.23 0.912,14.747 2.341,9.412 C3.771,4.077 9.254,0.912 14.588,2.341 C18.932,3.505 21.965,7.424 22.002,11.921 C22.009,12.824 21.007,13.323 20.289,12.841 L17.616,11.039 C16.608,10.359 17.284,8.788 18.47,9.053 L19.528,9.289 C18.241,5.716 14.619,3.541 10.86,4.083 C7.101,4.625 4.241,7.735 4.016,11.526 C3.79,15.318 6.262,18.745 9.93,19.728 Z"/>
</svg>

