<svg xmlns="http://www.w3.org/2000/svg" width="24" height="24">
  <defs/>
  <path  d="M13.3,19.374 C16.69,18.776 19.238,15.948 19.479,12.514 C19.721,9.08 17.594,5.923 14.321,4.857 C11.048,3.791 7.47,5.089 5.642,8.006 L5.744,7.992 C7.497,7.759 8.277,10.122 6.73,10.978 L3.91,12.54 C2.808,13.15 1.418,12.3 1.542,10.991 C1.992,6.29 5.524,2.468 10.174,1.648 C15.885,0.64 21.33,4.454 22.338,10.165 C23.345,15.876 19.531,21.322 13.821,22.328 C9.269,23.131 4.891,20.873 2.789,17.038 C2.4,16.313 2.668,15.41 3.389,15.014 C4.111,14.618 5.016,14.878 5.419,15.595 C6.966,18.412 10.135,19.932 13.3,19.374 Z"/>
</svg>

