<svg xmlns="http://www.w3.org/2000/svg" width="24" height="24">
  <defs/>
  <path  d="M20,9.5 A1.5 1.5 0 0 1 21.5,11 A8.5 8.5 0 0 1 13,19.5 L10.618,19.5 A1.5 1.5 0 0 1 8.439,21.56 L5.945,19.066 A1.495 1.495 0 0 1 5.5,18.014 L5.5,17.986 C5.503,17.615 5.642,17.276 5.868,17.016 L5.939,16.939 L8.439,14.439 A1.5 1.5 0 0 1 10.619,16.5 L13,16.5 A5.5 5.5 0 0 0 18.5,11 A1.5 1.5 0 0 1 20,9.5 M15.56,2.44 L18.06,4.94 A1.5 1.5 0 0 1 18.06,7.06 L15.56,9.56 A1.5 1.5 0 0 1 13.382,7.5 L11,7.5 A5.5 5.5 0 0 0 5.5,13 A1.5 1.5 0 1 1 2.5,13 A8.5 8.5 0 0 1 11,4.5 L13.382,4.5 A1.5 1.5 0 0 1 15.561,2.44 Z"/>
</svg>

