<svg xmlns="http://www.w3.org/2000/svg" width="24" height="24">
  <defs/>
  <path  d="M22.142,9.282 C23.642,14.884 20.319,20.642 14.717,22.142 C9.889,23.436 4.947,21.145 2.712,16.902 A1.5 1.5 0 1 1 5.367,15.504 A7.5 7.5 0 1 0 5.321,8.587 L5.421,8.564 C7.147,8.179 8.13,10.465 6.663,11.453 L3.99,13.254 C2.947,13.957 1.488,13.232 1.498,11.918 A10.503 10.503 0 0 1 9.282,1.858 C14.884,0.357 20.642,3.681 22.142,9.282 M12,6 A1 1 0 0 1 13,7 L13,8 L15,8 A1 1 0 1 1 15,10 L10,10 A0.5 0.5 0 1 0 10,11 L14,11 A2.5 2.5 0 0 1 14,16 L13,16 L13,17 A1 1 0 1 1 11,17 L11,16 L9,16 A1 1 0 1 1 9,14 L14,14 A0.5 0.5 0 0 0 14,13 L10,13 A2.5 2.5 0 0 1 10,8 L11,8 L11,7 A1 1 0 0 1 12,6"/>
</svg>

