<svg xmlns="http://www.w3.org/2000/svg" width="24" height="24">
  <defs/>
  <path  d="M21.66,9.412 C23.088,14.746 19.923,20.23 14.588,21.659 C9.99,22.891 5.284,20.709 3.155,16.669 A1 1 0 0 1 4.925,15.737 A8 8 0 1 0 4.473,9.288 L5.53,9.053 C6.716,8.788 7.392,10.359 6.384,11.038 L3.711,12.84 C2.993,13.323 1.991,12.824 1.998,11.922 A10.003 10.003 0 0 1 9.412,2.342 C14.746,0.91 20.23,4.076 21.659,9.41 M15.6,7.2 A1 1 0 0 1 15.8,8.6 L14,11 L15,11 A1 1 0 0 1 15,13 L13,13 L13,14 L15,14 A1 1 0 0 1 15,16 L13,16 L13,17 A1 1 0 0 1 11,17 L11,16 L9,16 A1 1 0 0 1 9,14 L11,14 L11,13 L9,13 A1 1 0 0 1 9,11 L10,11 L8.2,8.6 A1 1 0 1 1 9.8,7.4 L12,10.333 L14.2,7.4 A1 1 0 0 1 15.6,7.2"/>
</svg>

