<svg xmlns="http://www.w3.org/2000/svg" width="24" height="24">
  <defs/>
  <path  d="M5.367,15.504 C6.981,18.56 10.475,20.118 13.827,19.275 C17.179,18.432 19.522,15.408 19.499,11.951 C19.476,8.495 17.094,5.502 13.73,4.704 C10.367,3.906 6.894,5.509 5.321,8.587 L5.421,8.564 C7.147,8.179 8.13,10.465 6.663,11.453 L3.99,13.254 C2.947,13.957 1.488,13.232 1.498,11.918 C1.536,7.196 4.721,3.08 9.282,1.858 C14.884,0.357 20.642,3.681 22.142,9.282 C23.642,14.884 20.319,20.642 14.717,22.142 C9.889,23.436 4.947,21.145 2.712,16.902 C2.326,16.169 2.607,15.262 3.341,14.875 C4.074,14.489 4.981,14.771 5.367,15.504 Z M8.4,7.2 C8.842,6.869 9.469,6.958 9.8,7.4 L12,10.333 L14.2,7.4 C14.531,6.958 15.158,6.869 15.6,7.2 C16.042,7.531 16.131,8.158 15.8,8.6 L14,11 L15,11 C15.552,11 16,11.448 16,12 C16,12.552 15.552,13 15,13 L13,13 L13,14 L15,14 C15.552,14 16,14.448 16,15 C16,15.552 15.552,16 15,16 L13,16 L13,17 C13,17.552 12.552,18 12,18 C11.448,18 11,17.552 11,17 L11,16 L9,16 C8.448,16 8,15.552 8,15 C8,14.448 8.448,14 9,14 L11,14 L11,13 L9,13 C8.448,13 8,12.552 8,12 C8,11.448 8.448,11 9,11 L10,11 L8.2,8.6 C7.869,8.158 7.958,7.531 8.4,7.2 Z"/>
</svg>

