<svg xmlns="http://www.w3.org/2000/svg" width="24" height="24">
  <defs/>
  <path  d="M21.66,9.412 C23.088,14.746 19.923,20.23 14.588,21.659 C9.99,22.891 5.284,20.709 3.155,16.669 A1 1 0 0 1 4.925,15.737 A8 8 0 1 0 4.473,9.288 L5.53,9.053 C6.716,8.788 7.392,10.359 6.384,11.038 L3.711,12.84 C2.993,13.323 1.991,12.824 1.998,11.922 A10.003 10.003 0 0 1 9.412,2.342 C14.746,0.91 20.23,4.076 21.659,9.41 M12,6 A1 1 0 0 1 13,7 L13,8 L15,8 A1 1 0 1 1 15,10 L10,10 A0.5 0.5 0 0 0 10,11 L14,11 A2.5 2.5 0 0 1 14,16 L13,16 L13,17 A1 1 0 1 1 11,17 L11,16 L9,16 A1 1 0 1 1 9,14 L14,14 A0.5 0.5 0 0 0 14,13 L10,13 A2.5 2.5 0 0 1 10,8 L11,8 L11,7 A1 1 0 0 1 12,6"/>
</svg>

