<svg xmlns="http://www.w3.org/2000/svg" width="24" height="24">
  <defs/>
  <path  d="M11,12 L12.5,12 A1.5 1.5 0 0 0 12.5,9 L11,9 Z"/>
  <path  d="M2,12 C2,6.477 6.477,2 12,2 C17.523,2 22,6.477 22,12 C22,17.523 17.523,22 12,22 C6.477,22 2,17.523 2,12 Z M9,8 L9,16 C9,16.552 9.448,17 10,17 C10.552,17 11,16.552 11,16 L11,14 L12.465,14 L14.168,16.555 C14.478,17.004 15.091,17.121 15.545,16.818 C15.999,16.516 16.127,15.905 15.832,15.446 L14.466,13.396 C15.738,12.533 16.298,10.941 15.846,9.472 C15.394,8.002 14.037,7 12.5,7 L10,7 C9.448,7 9,7.448 9,8 Z"/>
</svg>

