<svg xmlns="http://www.w3.org/2000/svg" width="24" height="24">
  <defs/>
  <path  d="M12,2 C17.523,2 22,6.477 22,12 C22,17.523 17.523,22 12,22 C6.477,22 2,17.523 2,12 C2,6.477 6.477,2 12,2 Z M12,4 C7.582,4 4,7.582 4,12 C4,16.418 7.582,20 12,20 C16.418,20 20,16.418 20,12 C20,7.582 16.418,4 12,4 Z M12.5,7 C14.037,7 15.394,8.002 15.846,9.472 C16.298,10.941 15.738,12.533 14.466,13.396 L15.832,15.446 C16.127,15.905 15.999,16.516 15.545,16.818 C15.091,17.121 14.478,17.004 14.168,16.555 L12.465,14 L11,14 L11,16 C11,16.552 10.552,17 10,17 C9.448,17 9,16.552 9,16 L9,8 C9,7.448 9.448,7 10,7 Z M12.5,9 L11,9 L11,12 L12.5,12 C13.328,12 14,11.328 14,10.5 C14,9.672 13.328,9 12.5,9 Z"/>
</svg>

