<svg xmlns="http://www.w3.org/2000/svg" width="24" height="24">
  <defs/>
  <path  d="M16,2 A3 3 0 0 1 18.995,4.824 L19,5 L19,19 A3 3 0 0 1 16.176,21.995 L16,22 L8,22 A3 3 0 0 1 5.005,19.176 L5,19 L5,5 A3 3 0 0 1 7.824,2.005 L8,2 Z M16,4 L8,4 A1 1 0 0 0 7.007,4.883 L7,5 L7,19 A1 1 0 0 0 7.883,19.993 L8,20 L16,20 A1 1 0 0 0 16.993,19.117 L17,19 L17,5 A1 1 0 0 0 16,4 M14,16 A1 1 0 0 1 14.117,17.993 L14,18 L13.5,18 A1 1 0 0 1 13.383,16.007 L13.5,16 Z M10.5,16 A1 1 0 1 1 10.5,18 L10,18 A1 1 0 1 1 10,16 Z M14,13 A1 1 0 0 1 14.117,14.993 L14,15 L13.5,15 A1 1 0 0 1 13.383,13.007 L13.5,13 Z M10.5,13 A1 1 0 1 1 10.5,15 L10,15 A1 1 0 1 1 10,13 Z M12,5 A3.5 3.5 0 1 1 12,12 A3.5 3.5 0 0 1 12,5 M12,7 A1.5 1.5 0 1 0 12,10 A1.5 1.5 0 0 0 12,7"/>
</svg>

