<svg xmlns="http://www.w3.org/2000/svg" width="24" height="24">
  <defs/>
  <path  d="M16,12 A3 3 0 0 1 19,15 L19,21 C19,21.552 18.55,22 17.997,22 L6,22 A1 1 0 0 1 5,21 L5,15 A3 3 0 0 1 8,12 Z M14,16 L10,16 A1 1 0 0 0 9.883,17.993 L10,18 L14,18 A1 1 0 0 0 14.117,16.007 Z M12,8 C13.06,8 14.047,8.331 14.857,8.896 A1 1 0 0 1 13.713,10.537 A2.982 2.982 0 0 0 12,10 C11.361,10 10.772,10.198 10.287,10.537 A1 1 0 1 1 9.143,8.897 A4.982 4.982 0 0 1 12,8 M12,5 C13.918,5 15.681,5.676 17.06,6.803 A1 1 0 0 1 15.794,8.351 A5.971 5.971 0 0 0 12,7 C10.56,7 9.242,7.506 8.208,8.35 A1 1 0 1 1 6.943,6.801 A7.971 7.971 0 0 1 12,5 M12,2 A10.96 10.96 0 0 1 19.209,4.691 A1 1 0 0 1 17.898,6.201 A8.961 8.961 0 0 0 12,4 A8.95 8.95 0 0 0 6.1,6.205 A1 1 0 0 1 4.788,4.695 A10.961 10.961 0 0 1 12,2"/>
</svg>

