<svg xmlns="http://www.w3.org/2000/svg" width="24" height="24">
  <defs/>
  <path  d="M16,2 A3 3 0 0 1 18.995,4.824 L19,5 L19,19 A3 3 0 0 1 16.176,21.995 L16,22 L8,22 A3 3 0 0 1 5.005,19.176 L5,19 L5,5 A3 3 0 0 1 7.824,2.005 L8,2 Z M14,17 L13.5,17 A1 1 0 1 0 13.5,19 L14,19 A1 1 0 1 0 14,17 M10.5,17 L10,17 A1 1 0 0 0 9.883,18.993 L10,19 L10.5,19 A1 1 0 0 0 10.617,17.007 Z M14,14 L13.5,14 A1 1 0 1 0 13.5,16 L14,16 A1 1 0 1 0 14,14 M10.5,14 L10,14 A1 1 0 0 0 9.883,15.993 L10,16 L10.5,16 A1 1 0 0 0 10.617,14.007 Z M12,5 A3.5 3.5 0 1 0 12,12 A3.5 3.5 0 0 0 12,5 M12,7 A1.5 1.5 0 1 1 12,10 A1.5 1.5 0 0 1 12,7"/>
</svg>

