<svg xmlns="http://www.w3.org/2000/svg" width="24" height="24">
  <defs/>
  <path  d="M20,9.5 A1.5 1.5 0 0 1 21.493,10.856 L21.5,11 L21.5,15 A4.5 4.5 0 0 1 17.212,19.495 L17,19.5 L8.56,19.5 L8.54,19.812 A21.64 21.64 0 0 1 8.529,19.952 C8.473,20.671 7.78,21.122 7.198,20.817 L6.884,20.649 L6.516,20.44 A19.716 19.716 0 0 1 6.313,20.321 L5.874,20.052 A21.11 21.11 0 0 1 4.952,19.435 L4.567,19.155 L4.244,18.91 A16.69 16.69 0 0 1 4.107,18.803 C3.618,18.413 3.637,17.608 4.157,17.197 L4.293,17.09 L4.613,16.848 L4.993,16.573 L5.431,16.272 A21.806 21.806 0 0 1 6.145,15.815 L6.571,15.56 L6.946,15.349 L7.262,15.179 C7.839,14.879 8.469,15.264 8.524,15.935 L8.562,16.5 L17,16.5 A1.5 1.5 0 0 0 18.493,15.144 L18.5,15 L18.5,11 A1.5 1.5 0 0 1 20,9.5 M16.802,3.183 L17.116,3.351 L17.484,3.56 C17.55,3.598 17.618,3.637 17.687,3.679 L18.126,3.948 A21.065 21.065 0 0 1 19.048,4.565 L19.433,4.845 L19.756,5.09 L19.893,5.197 C20.382,5.587 20.363,6.392 19.843,6.803 L19.707,6.91 L19.387,7.152 L19.007,7.427 A21.485 21.485 0 0 1 17.855,8.185 L17.429,8.44 L17.054,8.651 L16.738,8.821 C16.161,9.121 15.531,8.736 15.477,8.065 L15.437,7.5 L7,7.5 A1.5 1.5 0 0 0 5.5,9 L5.5,13 A1.5 1.5 0 0 1 2.5,13 L2.5,9 A4.5 4.5 0 0 1 7,4.5 L15.44,4.5 L15.471,4.048 C15.527,3.329 16.22,2.878 16.802,3.183"/>
</svg>

