<svg xmlns="http://www.w3.org/2000/svg" width="24" height="24">
  <defs/>
  <path  d="M15.947,3.066 C15.974,2.72 16.299,2.509 16.578,2.656 L16.884,2.82 L17.244,3.023 L17.442,3.14 L17.872,3.403 L18.101,3.55 L18.564,3.86 L18.774,4.007 L19.151,4.28 L19.466,4.52 L19.599,4.624 C19.835,4.812 19.824,5.19 19.576,5.386 L19.296,5.603 L18.956,5.855 L18.556,6.137 L18.1,6.442 L17.638,6.733 L17.222,6.982 L16.857,7.187 L16.55,7.352 C16.275,7.495 15.978,7.316 15.952,6.992 L15.927,6.645 L15.903,6.23 L15.893,6 L7,6 A2 2 0 0 0 5.005,7.85 L5,8 L5,16 A2 2 0 0 0 6.85,17.995 L7,18 L17,18 A2 2 0 0 0 18.995,16.15 L19,16 L19,11 A1 1 0 0 1 20.993,10.883 L21,11 L21,16 A4 4 0 0 1 17.2,19.995 L17,20 L7,20 A4 4 0 0 1 3.005,16.2 L3,16 L3,8 A4 4 0 0 1 6.8,4.005 L7,4 L15.893,4 L15.913,3.585 L15.935,3.225 Z M13,10.019 L13,15 A1 1 0 1 1 11,15 L11,11.866 A1 1 0 0 1 9.945,10.168 L11.43,9.178 A1.01 1.01 0 0 1 13,10.018 Z"/>
</svg>

