<svg xmlns="http://www.w3.org/2000/svg" width="24" height="24">
  <defs/>
  <path  d="M20,9 A1 1 0 0 1 20.993,9.883 L21,10 L21,15 A4 4 0 0 1 17.2,18.995 L17,19 L8.107,19 L8.087,19.415 L8.053,19.934 C8.026,20.28 7.701,20.491 7.422,20.344 L7.116,20.18 L6.756,19.977 L6.558,19.86 L6.128,19.597 A20.62 20.62 0 0 1 5.899,19.45 L5.436,19.14 L5.226,18.993 L4.849,18.72 L4.534,18.48 A16.254 16.254 0 0 1 4.401,18.376 C4.165,18.188 4.176,17.81 4.424,17.614 L4.704,17.397 L5.044,17.145 L5.444,16.863 L5.9,16.558 L6.362,16.267 L6.778,16.018 L7.143,15.813 L7.45,15.648 C7.725,15.505 8.021,15.684 8.048,16.008 L8.073,16.355 L8.097,16.77 L8.107,17 L17,17 A2 2 0 0 0 18.995,15.15 L19,15 L19,10 A1 1 0 0 1 20,9 M16.578,3.655 L16.884,3.82 L17.244,4.023 L17.442,4.14 L17.872,4.403 L18.101,4.55 L18.564,4.86 L18.774,5.007 L19.151,5.28 L19.466,5.52 L19.599,5.624 C19.835,5.812 19.824,6.19 19.576,6.386 L19.296,6.603 L18.956,6.855 L18.556,7.137 L18.1,7.442 L17.638,7.733 L17.222,7.982 L16.857,8.187 L16.55,8.352 C16.275,8.495 15.978,8.316 15.952,7.992 L15.927,7.645 L15.903,7.23 A24.926 24.926 0 0 1 15.893,7 L7,7 A2 2 0 0 0 5,9 L5,14 A1 1 0 1 1 3,14 L3,9 A4 4 0 0 1 7,5 L15.893,5 L15.913,4.585 L15.935,4.225 L15.947,4.066 C15.974,3.72 16.299,3.509 16.578,3.656 Z"/>
</svg>

