<svg xmlns="http://www.w3.org/2000/svg" width="24" height="24">
  <defs/>
  <path  d="M15.471,3.048 C15.527,2.329 16.22,1.878 16.802,2.183 L17.116,2.351 L17.484,2.56 C17.55,2.598 17.618,2.637 17.687,2.679 L18.126,2.948 A21.065 21.065 0 0 1 19.048,3.565 L19.433,3.845 L19.756,4.09 L19.893,4.197 C20.382,4.587 20.363,5.392 19.843,5.803 L19.707,5.91 L19.387,6.152 L19.007,6.427 A21.485 21.485 0 0 1 17.855,7.185 L17.429,7.44 L17.054,7.651 L16.738,7.821 C16.161,8.121 15.531,7.736 15.477,7.065 L15.437,6.5 L7,6.5 A1.5 1.5 0 0 0 5.507,7.856 L5.5,8 L5.5,16 A1.5 1.5 0 0 0 6.856,17.493 L7,17.5 L17,17.5 A1.5 1.5 0 0 0 18.493,16.144 L18.5,16 L18.5,11 A1.5 1.5 0 0 1 21.493,10.856 L21.5,11 L21.5,16 A4.5 4.5 0 0 1 17.212,20.495 L17,20.5 L7,20.5 A4.5 4.5 0 0 1 2.505,16.212 L2.5,16 L2.5,8 A4.5 4.5 0 0 1 6.788,3.505 L7,3.5 L15.44,3.5 Z M13.5,10.018 L13.5,15 A1.5 1.5 0 0 1 10.5,15 L10.5,12.5 A1.5 1.5 0 0 1 9.668,9.752 L11.152,8.762 C12.156,8.093 13.5,8.812 13.5,10.019 Z"/>
</svg>

