<svg xmlns="http://www.w3.org/2000/svg" width="24" height="24">
  <defs/>
  <path  d="M12,7 C15.226,7 17.875,9.551 17.996,12.775 L18,13 L18,20 L19,20 C19.529,20.001 19.966,20.413 19.997,20.941 C20.028,21.47 19.642,21.931 19.117,21.993 L19,22 L5,22 C4.471,21.999 4.034,21.587 4.003,21.059 C3.972,20.53 4.358,20.069 4.883,20.007 L5,20 L6,20 L6,13 C6,9.686 8.686,7 12,7 Z M11.143,11.986 L9.652,14.47 C9.465,14.782 9.46,15.171 9.639,15.488 C9.818,15.804 10.154,16 10.518,16 L11.734,16 L11.143,16.985 C10.871,17.457 11.027,18.061 11.494,18.342 C11.962,18.623 12.568,18.477 12.857,18.015 L14.348,15.53 C14.535,15.218 14.54,14.829 14.361,14.512 C14.182,14.196 13.846,14 13.482,14 L12.266,14 L12.857,13.015 C13.129,12.543 12.973,11.939 12.506,11.658 C12.038,11.377 11.432,11.523 11.143,11.985 Z M19.778,5.222 C20.168,5.612 20.168,6.246 19.778,6.636 L19.071,7.343 C18.82,7.603 18.448,7.707 18.098,7.616 C17.749,7.524 17.476,7.251 17.384,6.902 C17.293,6.552 17.397,6.18 17.657,5.929 L18.364,5.222 C18.754,4.832 19.388,4.832 19.778,5.222 Z M12,2 C12.552,2 13,2.448 13,3 L13,4 C13,4.552 12.552,5 12,5 C11.448,5 11,4.552 11,4 L11,3 C11,2.448 11.448,2 12,2 Z M5.542,5.139 L5.636,5.222 L6.343,5.929 C6.715,6.302 6.733,6.901 6.385,7.296 C6.036,7.692 5.44,7.749 5.023,7.426 L4.929,7.343 L4.222,6.636 C3.85,6.263 3.832,5.664 4.18,5.269 C4.529,4.873 5.125,4.816 5.542,5.139 Z"/>
</svg>

