<svg xmlns="http://www.w3.org/2000/svg" width="24" height="24">
  <defs/>
  <path  d="M12,7 A6 6 0 0 1 17.996,12.775 L18,13 L18,20 L19,20 A1 1 0 0 1 19.117,21.993 L19,22 L5,22 A1 1 0 0 1 4.883,20.007 L5,20 L6,20 L6,13 A6 6 0 0 1 12,7 M12,9 A4 4 0 0 0 8,13 L8,20 L16,20 L16,13 A4 4 0 0 0 12,9 M12.515,11.643 A1 1 0 0 1 12.857,13.014 L12.267,14 L13.482,14 C14.267,14 14.752,14.857 14.348,15.53 L12.858,18.015 A1 1 0 0 1 11.142,16.985 L11.734,16 L10.518,16 A1.01 1.01 0 0 1 9.652,14.47 L11.142,11.985 A1 1 0 0 1 12.515,11.643 M5.636,5.222 L6.343,5.929 A1 1 0 0 1 4.93,7.343 L4.223,6.636 A1 1 0 1 1 5.637,5.222 Z M19.778,5.222 A1 1 0 0 1 19.861,6.542 L19.778,6.636 L19.071,7.343 A1 1 0 0 1 17.574,6.023 L17.657,5.929 L18.364,5.222 A1 1 0 0 1 19.778,5.222 M12,2 A1 1 0 0 1 12.993,2.883 L13,3 L13,4 A1 1 0 0 1 11.007,4.117 L11,4 L11,3 A1 1 0 0 1 12,2"/>
</svg>

