<svg xmlns="http://www.w3.org/2000/svg" width="24" height="24">
  <defs/>
  <path  d="M19,2.5 C20.317,2.5 21.409,3.522 21.495,4.836 L21.5,5 L21.5,15 C21.5,16.317 20.478,17.409 19.164,17.495 L19,17.5 L17.5,17.5 L17.5,19 C17.5,20.317 16.478,21.409 15.164,21.495 L15,21.5 L5,21.5 C3.683,21.5 2.591,20.478 2.505,19.164 L2.5,19 L2.5,9 C2.5,7.683 3.522,6.591 4.836,6.505 L5,6.5 L6.5,6.5 L6.5,5 C6.5,3.683 7.522,2.591 8.836,2.505 L9,2.5 Z M14.5,9.5 L5.5,9.5 L5.5,18.5 L14.5,18.5 Z M18.5,5.5 L9.5,5.5 L9.5,6.5 L15,6.5 L15.164,6.505 C16.415,6.588 17.411,7.584 17.494,8.835 L17.5,9 L17.5,14.5 L18.5,14.5 Z"/>
</svg>

