<svg xmlns="http://www.w3.org/2000/svg" width="24" height="24">
  <defs/>
  <path  d="M19,3 C20.047,3 20.917,3.806 20.995,4.85 L21,5 L21,15 C21,16.047 20.194,16.917 19.15,16.995 L19,17 L17,17 L17,19 C17,20.047 16.194,20.917 15.15,20.995 L15,21 L5,21 C3.953,21 3.083,20.194 3.005,19.15 L3,19 L3,9 C3,7.953 3.806,7.083 4.85,7.005 L5,7 L7,7 L7,5 C7,3.953 7.806,3.083 8.85,3.005 L9,3 Z M15,9 L5,9 L5,19 L15,19 Z M19,5 L9,5 L9,7 L15,7 L15.15,7.005 C16.134,7.079 16.917,7.859 16.994,8.843 L17,9 L17,15 L19,15 Z"/>
</svg>

