<svg xmlns="http://www.w3.org/2000/svg" width="24" height="24">
  <defs/>
  <path  d="M4.103,11.181 C4.052,10.621 4.239,10.066 4.618,9.651 C4.997,9.236 5.533,9 6.095,9 L9.905,9 C10.467,9 11.003,9.236 11.382,9.651 C11.761,10.066 11.948,10.621 11.897,11.181 L10.996,21.091 C10.949,21.606 10.517,22 10,22 L6,22 C5.483,22 5.051,21.605 5.004,21.09 Z M14.82,9 L17.18,9 C18.134,9 18.955,9.673 19.142,10.608 L19.98,14.804 C20.039,15.098 19.963,15.402 19.773,15.634 C19.583,15.865 19.299,16 19,16 L19,21 C19,21.552 18.552,22 18,22 L14,22 C13.448,22 13,21.552 13,21 L13,16 C12.7,16 12.416,15.866 12.226,15.634 C12.036,15.403 11.96,15.098 12.019,14.804 L12.859,10.608 C13.046,9.673 13.867,9 14.82,9 Z M16,2 C17.657,2 19,3.343 19,5 C19,6.657 17.657,8 16,8 C14.343,8 13,6.657 13,5 C13,3.343 14.343,2 16,2 Z M8,2 C9.657,2 11,3.343 11,5 C11,6.657 9.657,8 8,8 C6.343,8 5,6.657 5,5 C5,3.343 6.343,2 8,2 Z M6.095,11 L6.913,20 L9.087,20 L9.905,11 Z M15,15 L15,20 L17,20 L17,15 C17,14.53 17.326,14.124 17.785,14.023 L17.18,11 L14.82,11 L14.215,14.023 C14.674,14.124 15,14.53 15,15 Z M7,5 C7,5.552 7.448,6 8,6 C8.552,6 9,5.552 9,5 C9,4.448 8.552,4 8,4 C7.448,4 7,4.448 7,5 Z M15,5 C15,5.552 15.448,6 16,6 C16.552,6 17,5.552 17,5 C17,4.448 16.552,4 16,4 C15.448,4 15,4.448 15,5 Z"/>
</svg>

