<svg xmlns="http://www.w3.org/2000/svg" width="24" height="24">
  <defs/>
  <path  d="M5.46,1 A1 1 0 0 1 6.452,1.694 L6.48,1.804 L6.807,3.431 A9.966 9.966 0 0 1 14.201,2.22 C19.589,3.434 22.972,8.786 21.758,14.174 C20.544,19.561 15.192,22.944 9.804,21.731 C5.16,20.684 2.007,16.565 2.001,11.998 A1 1 0 1 1 4.001,11.995 A8 8 0 1 0 5.773,6.953 A1 1 0 0 1 3.994,6.329 L4.001,6.209 L4.507,1.884 A1 1 0 0 1 5.459,1 M9.471,7.618 A1 1 0 0 1 10,8.5 L10,15.5 A1 1 0 0 1 8,15.5 L8,10.366 A1 1 0 0 1 6.946,8.668 L8.446,7.668 A1 1 0 0 1 9.472,7.618 M14,7.5 A3 3 0 0 1 16.995,10.324 L17,10.5 L17,13.5 A3 3 0 0 1 11.005,13.676 L11,13.5 L11,10.5 A3 3 0 0 1 14,7.5 M14,9.5 A1 1 0 0 0 13.007,10.384 L13,10.5 L13,13.5 A1 1 0 0 0 14.993,13.617 L15,13.5 L15,10.5 A1 1 0 0 0 14,9.5"/>
</svg>

