<svg xmlns="http://www.w3.org/2000/svg" width="24" height="24">
  <defs/>
  <path  d="M8.377,1.283 C8.974,1.713 9.171,2.513 8.842,3.171 L8.677,3.5 L18,3.5 C20.485,3.5 22.5,5.515 22.5,8 L22.5,16 C22.5,18.485 20.485,20.5 18,20.5 L6,20.5 C3.515,20.5 1.5,18.485 1.5,16 L1.5,11 C1.5,10.172 2.172,9.5 3,9.5 C3.828,9.5 4.5,10.172 4.5,11 L4.5,16 C4.5,16.828 5.172,17.5 6,17.5 L18,17.5 C18.828,17.5 19.5,16.828 19.5,16 L19.5,8 C19.5,7.172 18.828,6.5 18,6.5 L5.024,6.5 C3.679,6.5 3.005,4.874 3.956,3.922 L6.44,1.44 C6.96,0.92 7.781,0.854 8.378,1.284 Z M9.008,8.899 C9.008,7.849 9.859,6.999 10.908,6.999 L13.574,6.999 C14.402,6.999 15.074,7.671 15.074,8.499 C15.074,9.327 14.402,9.999 13.574,9.999 L12.009,9.999 L12.009,10.177 L12.041,10.177 C14.066,10.177 15.457,11.754 15.457,13.593 C15.456,15.479 13.927,17.008 12.041,17.008 C11.601,17.008 11.136,16.906 10.759,16.784 C10.398,16.667 9.923,16.469 9.546,16.158 C8.916,15.633 8.825,14.699 9.341,14.062 C9.857,13.425 10.789,13.32 11.434,13.827 C11.459,13.841 11.564,13.892 11.684,13.931 C11.854,13.986 12.034,14.008 12.041,14.009 C12.271,14.009 12.457,13.822 12.457,13.593 C12.457,13.429 12.4,13.331 12.352,13.281 C12.31,13.238 12.226,13.177 12.042,13.177 C11.53,13.177 11.019,13.181 10.509,13.181 C9.681,13.181 9.009,12.509 9.009,11.681 Z"/>
</svg>

