<svg xmlns="http://www.w3.org/2000/svg" width="24" height="24">
  <defs/>
  <path  d="M17.207,1.793 L19.69,4.276 C20.326,4.912 19.876,6 18.976,6 L6,6 A2 2 0 0 0 4,8 L4,16 A2 2 0 0 0 6,18 L18,18 A2 2 0 0 0 20,16 L20,11 A1 1 0 1 1 22,11 L22,16 A4 4 0 0 1 18,20 L6,20 A4 4 0 0 1 2,16 L2,8 A4 4 0 0 1 6,4 L16.132,4 L15.606,2.947 A1 1 0 0 1 17.207,1.793 M15.763,7.5 A1 1 0 1 1 15.763,9.5 L13.263,9.5 L13.263,10.196 A4.23 4.23 0 0 1 14.013,10.125 C15.909,10.125 17.201,11.584 17.201,13.313 A3.188 3.188 0 0 1 11.091,14.588 A1 1 0 0 1 12.871,13.683 L12.924,13.787 A1.188 1.188 0 0 0 15.201,13.312 C15.201,12.625 14.741,12.125 14.013,12.125 A2.95 2.95 0 0 0 13.126,12.292 L12.946,12.357 L12.707,12.458 A1 1 0 0 1 11.263,11.562 L11.263,9 A1.5 1.5 0 0 1 12.763,7.5 Z M8.445,7.668 A1 1 0 0 1 9.993,8.378 L10,8.5 L10,15.5 A1 1 0 0 1 8.007,15.617 L8,15.5 L8,10.366 A1 1 0 0 1 6.852,8.738 L6.945,8.668 Z"/>
</svg>

