<svg xmlns="http://www.w3.org/2000/svg" width="24" height="24">
  <defs/>
  <path  d="M18.561,0.501 A1.5 1.5 0 0 1 19.99,1.826 L20.495,6.151 A1.5 1.5 0 0 1 17.838,7.268 A7.5 7.5 0 1 0 19.498,11.995 A1.5 1.5 0 0 1 22.499,11.999 C22.492,16.794 19.182,21.119 14.306,22.219 C8.649,23.493 3.029,19.941 1.754,14.284 C0.48,8.627 4.032,3.007 9.69,1.732 A10.458 10.458 0 0 1 16.839,2.658 L17.03,1.705 A1.5 1.5 0 0 1 18.561,0.5 M9.208,7.178 A1.5 1.5 0 0 1 10,8.5 L10,15.5 A1.5 1.5 0 1 1 7,15.5 L7,11 A1.5 1.5 0 0 1 6.168,8.252 L7.668,7.252 A1.5 1.5 0 0 1 9.208,7.178 M14.5,7 A3.5 3.5 0 0 1 17.995,10.308 L18,10.5 L18,13.5 A3.5 3.5 0 0 1 11.005,13.692 L11,13.5 L11,10.5 A3.5 3.5 0 0 1 14.5,7 M14.5,10 A0.5 0.5 0 0 0 14.008,10.41 L14,10.5 L14,13.5 A0.5 0.5 0 0 0 14.992,13.59 L15,13.5 L15,10.5 A0.5 0.5 0 0 0 14.5,10"/>
</svg>

