<svg xmlns="http://www.w3.org/2000/svg" width="24" height="24">
  <defs/>
  <path  d="M5.439,0.501 A1.5 1.5 0 0 1 6.938,1.571 L6.971,1.705 L7.162,2.658 A10.458 10.458 0 0 1 14.312,1.732 C19.968,3.007 23.521,8.627 22.246,14.284 C20.971,19.941 15.351,23.494 9.694,22.218 C4.818,21.12 1.508,16.795 1.501,12 A1.5 1.5 0 0 1 4.501,11.996 A7.5 7.5 0 1 0 6.161,7.269 A1.5 1.5 0 0 1 3.495,6.294 L3.505,6.152 L4.01,1.827 A1.5 1.5 0 0 1 5.44,0.5 M15.574,6.997 A1.5 1.5 0 0 1 15.718,9.99 L15.574,9.997 L14.009,9.997 L14.009,10.175 L14.041,10.175 C16.066,10.175 17.457,11.752 17.457,13.591 A3.416 3.416 0 0 1 14.041,17.007 C13.601,17.007 13.136,16.904 12.759,16.782 C12.398,16.665 11.923,16.467 11.546,16.156 A1.5 1.5 0 0 1 13.434,13.825 L13.498,13.856 L13.615,13.904 L13.757,13.95 L13.894,13.982 L14.041,14.007 L14.125,13.998 A0.416 0.416 0 0 0 14.457,13.591 C14.457,13.427 14.4,13.33 14.352,13.279 C14.31,13.237 14.226,13.175 14.042,13.175 L12.509,13.179 A1.5 1.5 0 0 1 11.016,11.824 L11.009,11.679 L11.009,8.898 A1.9 1.9 0 0 1 12.76,7.003 L12.909,6.998 Z M9.209,7.177 A1.5 1.5 0 0 1 10,8.5 L10,15.5 A1.5 1.5 0 0 1 7,15.5 L7,11 A1.5 1.5 0 0 1 6.168,8.252 L7.668,7.252 A1.5 1.5 0 0 1 9.208,7.178"/>
</svg>

