<svg xmlns="http://www.w3.org/2000/svg" width="24" height="24">
  <defs/>
  <path  d="M8.085,1.689 C8.483,1.976 8.614,2.508 8.395,2.947 L7.867,4 L18,4 C20.209,4 22,5.791 22,8 L22,16 C22,18.209 20.209,20 18,20 L6,20 C3.791,20 2,18.209 2,16 L2,11 C2,10.448 2.448,10 3,10 C3.552,10 4,10.448 4,11 L4,16 C4,17.105 4.895,18 6,18 L18,18 C19.105,18 20,17.105 20,16 L20,8 C20,6.895 19.105,6 18,6 L5.024,6 C4.124,6 3.674,4.912 4.31,4.276 L6.793,1.793 C7.14,1.446 7.687,1.402 8.085,1.689 Z M9.263,9 C9.263,8.172 9.935,7.5 10.763,7.5 L13.763,7.5 C14.315,7.5 14.763,7.948 14.763,8.5 C14.763,9.052 14.315,9.5 13.763,9.5 L11.263,9.5 L11.263,10.196 C11.51,10.15 11.761,10.126 12.013,10.125 C13.909,10.125 15.201,11.584 15.201,13.313 C15.201,14.823 14.142,16.126 12.664,16.434 C11.186,16.742 9.695,15.972 9.091,14.588 C8.874,14.083 9.105,13.496 9.61,13.276 C10.114,13.056 10.701,13.285 10.924,13.788 C11.149,14.304 11.705,14.591 12.256,14.476 C12.807,14.361 13.202,13.875 13.201,13.312 C13.201,12.625 12.741,12.125 12.013,12.125 C11.711,12.135 11.411,12.191 11.126,12.292 C10.984,12.339 10.845,12.394 10.709,12.458 C10.399,12.613 10.031,12.596 9.736,12.413 C9.442,12.23 9.263,11.909 9.263,11.562 Z"/>
</svg>

