<svg xmlns="http://www.w3.org/2000/svg" width="24" height="24">
  <defs/>
  <path  d="M18.561,0.501 A1.5 1.5 0 0 1 19.968,1.691 L19.99,1.826 L20.495,6.151 A1.5 1.5 0 0 1 17.838,7.268 A7.5 7.5 0 1 0 19.498,11.995 A1.5 1.5 0 0 1 22.499,11.999 C22.492,16.794 19.182,21.119 14.306,22.219 C8.649,23.493 3.029,19.941 1.754,14.284 C0.48,8.627 4.032,3.007 9.69,1.732 A10.455 10.455 0 0 1 16.533,2.505 L16.839,2.658 L17.03,1.705 A1.5 1.5 0 0 1 18.561,0.5 M15.451,7 A3.25 3.25 0 0 1 18.701,10.25 L18.701,13.75 A3.25 3.25 0 0 1 12.201,13.75 L12.201,10.25 A3.25 3.25 0 0 1 15.45,7 M8.48,7 A3.22 3.22 0 0 1 11.175,11.983 A3.2 3.2 0 0 1 8.683,16.933 L8.501,16.938 L8.201,16.938 C6.873,16.938 5.774,16.061 5.329,15.014 A1.5 1.5 0 0 1 8.091,13.842 C8.104,13.868 8.131,13.897 8.161,13.917 L8.205,13.937 L8.501,13.937 A0.2 0.2 0 0 0 8.671,13.635 L8.637,13.593 L8.527,13.49 A1.5 1.5 0 0 1 8.362,10.538 L8.498,10.514 L8.635,10.377 A0.22 0.22 0 0 0 8.538,10.008 L8.48,10 L8.205,10 A0.2 0.2 0 0 0 8.091,10.096 A1.5 1.5 0 1 1 5.33,8.924 C5.753,7.929 6.766,7.088 8.004,7.007 L8.2,7 Z M15.45,10 A0.25 0.25 0 0 0 15.2,10.25 L15.2,13.75 A0.25 0.25 0 0 0 15.7,13.75 L15.7,10.25 A0.25 0.25 0 0 0 15.45,10"/>
</svg>

