<svg xmlns="http://www.w3.org/2000/svg" width="24" height="24">
  <defs/>
  <path  d="M15.915,1.689 C16.313,1.402 16.86,1.446 17.207,1.793 L19.69,4.276 C20.326,4.912 19.876,6 18.976,6 L6,6 C4.895,6 4,6.895 4,8 L4,16 C4,17.105 4.895,18 6,18 L18,18 C19.105,18 20,17.105 20,16 L20,11 C20,10.448 20.448,10 21,10 C21.552,10 22,10.448 22,11 L22,16 C22,18.209 20.209,20 18,20 L6,20 C3.791,20 2,18.209 2,16 L2,8 C2,5.791 3.791,4 6,4 L16.132,4 L15.606,2.947 C15.387,2.508 15.518,1.976 15.916,1.689 Z M11,10.5 C11,8.843 12.343,7.5 14,7.5 C15.657,7.5 17,8.843 17,10.5 L17,13.5 C17,15.157 15.657,16.5 14,16.5 C12.343,16.5 11,15.157 11,13.5 Z M9.473,7.619 C9.798,7.793 10,8.132 10,8.5 L10,15.5 C10,16.052 9.552,16.5 9,16.5 C8.448,16.5 8,16.052 8,15.5 L8,10.366 C7.533,10.637 6.934,10.488 6.649,10.029 C6.364,9.57 6.495,8.967 6.945,8.668 L8.445,7.668 C8.752,7.463 9.147,7.444 9.472,7.618 Z M14,9.5 C13.448,9.5 13,9.948 13,10.5 L13,13.5 C13,14.052 13.448,14.5 14,14.5 C14.552,14.5 15,14.052 15,13.5 L15,10.5 C15,9.948 14.552,9.5 14,9.5 Z"/>
</svg>

