<svg xmlns="http://www.w3.org/2000/svg" width="24" height="24">
  <defs/>
  <path  d="M18.561,0.501 A1.5 1.5 0 0 1 19.99,1.826 L20.495,6.151 A1.5 1.5 0 0 1 17.838,7.268 A7.5 7.5 0 1 0 19.498,11.995 A1.5 1.5 0 0 1 22.499,11.999 C22.492,16.794 19.182,21.119 14.306,22.219 C8.649,23.493 3.029,19.941 1.754,14.284 C0.48,8.627 4.032,3.007 9.69,1.732 A10.458 10.458 0 0 1 16.839,2.658 L17.03,1.705 A1.5 1.5 0 0 1 18.561,0.5 M15.573,6.997 A1.5 1.5 0 0 1 15.717,9.99 L15.573,9.997 L14.008,9.997 L14.008,10.175 L14.04,10.175 C16.065,10.175 17.456,11.752 17.456,13.591 A3.416 3.416 0 0 1 14.04,17.007 C13.6,17.007 13.135,16.904 12.758,16.782 C12.397,16.665 11.922,16.467 11.545,16.156 A1.5 1.5 0 0 1 13.434,13.825 L13.498,13.856 L13.614,13.904 L13.757,13.95 L13.893,13.982 L14.04,14.007 L14.124,13.998 A0.416 0.416 0 0 0 14.456,13.591 C14.456,13.427 14.4,13.33 14.351,13.279 C14.309,13.237 14.225,13.175 14.041,13.175 L12.508,13.179 A1.5 1.5 0 0 1 11.015,11.824 L11.008,11.679 L11.008,8.898 A1.9 1.9 0 0 1 12.759,7.003 L12.908,6.998 Z M9.208,7.177 A1.5 1.5 0 0 1 10,8.5 L10,15.5 A1.5 1.5 0 1 1 7,15.5 L7,11 A1.5 1.5 0 0 1 6.168,8.252 L7.668,7.252 A1.5 1.5 0 0 1 9.208,7.178"/>
</svg>

