<svg xmlns="http://www.w3.org/2000/svg" width="24" height="24">
  <defs/>
  <path  d="M8.377,1.283 C8.974,1.713 9.171,2.513 8.842,3.171 L8.677,3.5 L18,3.5 C20.485,3.5 22.5,5.515 22.5,8 L22.5,16 C22.5,18.485 20.485,20.5 18,20.5 L6,20.5 C3.515,20.5 1.5,18.485 1.5,16 L1.5,11 C1.5,10.172 2.172,9.5 3,9.5 C3.828,9.5 4.5,10.172 4.5,11 L4.5,16 C4.5,16.828 5.172,17.5 6,17.5 L18,17.5 C18.828,17.5 19.5,16.828 19.5,16 L19.5,8 C19.5,7.172 18.828,6.5 18,6.5 L5.024,6.5 C3.679,6.5 3.005,4.874 3.956,3.922 L6.44,1.44 C6.96,0.92 7.781,0.854 8.378,1.284 Z M11,10.5 C11,8.567 12.567,7 14.5,7 C16.433,7 18,8.567 18,10.5 L18,13.5 C18,15.433 16.433,17 14.5,17 C12.567,17 11,15.433 11,13.5 Z M9.208,7.179 C9.695,7.44 9.999,7.947 10,8.5 L10,15.5 C10,16.328 9.328,17 8.5,17 C7.672,17 7,16.328 7,15.5 L7,11 C6.338,11.001 5.754,10.569 5.562,9.935 C5.37,9.302 5.617,8.618 6.168,8.252 L7.668,7.252 C8.128,6.945 8.72,6.917 9.208,7.178 Z M14.5,10 C14.224,10 14,10.224 14,10.5 L14,13.5 C14,13.776 14.224,14 14.5,14 C14.776,14 15,13.776 15,13.5 L15,10.5 C15,10.224 14.776,10 14.5,10 Z"/>
</svg>

