<svg xmlns="http://www.w3.org/2000/svg" width="24" height="24">
  <defs/>
  <path  d="M5.439,0.501 A1.5 1.5 0 0 1 6.938,1.571 L6.971,1.705 L7.162,2.658 A10.458 10.458 0 0 1 14.312,1.732 C19.968,3.007 23.521,8.627 22.246,14.284 C20.971,19.941 15.351,23.494 9.694,22.218 C4.818,21.12 1.508,16.795 1.501,12 A1.5 1.5 0 0 1 4.501,11.996 A7.5 7.5 0 1 0 6.161,7.269 A1.5 1.5 0 0 1 3.495,6.294 L3.505,6.152 L4.01,1.827 A1.5 1.5 0 0 1 5.44,0.5 M9.209,7.177 A1.5 1.5 0 0 1 10,8.5 L10,15.5 A1.5 1.5 0 0 1 7,15.5 L7,11 A1.5 1.5 0 0 1 6.168,8.252 L7.668,7.252 A1.5 1.5 0 0 1 9.208,7.178 M14.5,7 A3.5 3.5 0 0 1 17.995,10.308 L18,10.5 L18,13.5 A3.5 3.5 0 0 1 11.005,13.692 L11,13.5 L11,10.5 A3.5 3.5 0 0 1 14.5,7 M14.5,10 A0.5 0.5 0 0 0 14.008,10.41 L14,10.5 L14,13.5 A0.5 0.5 0 0 0 14.992,13.59 L15,13.5 L15,10.5 A0.5 0.5 0 0 0 14.5,10"/>
</svg>

