<svg xmlns="http://www.w3.org/2000/svg" width="24" height="24">
  <defs/>
  <path  d="M6.793,1.793 A1 1 0 0 1 8.442,2.836 L8.394,2.947 L7.868,4 L18,4 A4 4 0 0 1 21.995,7.8 L22,8 L22,16 A4 4 0 0 1 18.2,19.995 L18,20 L6,20 A4 4 0 0 1 2.005,16.2 L2,16 L2,11 A1 1 0 0 1 3.993,10.883 L4,11 L4,16 A2 2 0 0 0 5.85,17.995 L6,18 L18,18 A2 2 0 0 0 19.995,16.15 L20,16 L20,8 A2 2 0 0 0 18.15,6.005 L18,6 L5.024,6 C4.164,6 3.714,5.005 4.234,4.361 L4.31,4.276 Z M15,7.5 A2.5 2.5 0 0 1 17.5,10 L17.5,14 A2.5 2.5 0 0 1 12.5,14 L12.5,10 A2.5 2.5 0 0 1 15,7.5 M8.78,7.5 A2.72 2.72 0 0 1 10.852,11.983 A2.7 2.7 0 0 1 8.972,16.433 L8.801,16.438 L8.5,16.438 A2.295 2.295 0 0 1 6.46,15.195 L6.387,15.039 L6.294,14.819 A1 1 0 0 1 8.083,13.932 L8.135,14.037 L8.228,14.257 C8.265,14.345 8.341,14.407 8.431,14.429 L8.5,14.437 L8.8,14.437 A0.7 0.7 0 0 0 9.355,13.313 L9.278,13.227 L9.216,13.17 A0.635 0.635 0 0 0 8.88,13.007 L8.786,13 A1 1 0 0 1 8.669,11.007 L8.786,11 A0.561 0.561 0 0 0 9.114,10.894 L9.181,10.837 L9.287,10.732 A0.72 0.72 0 0 0 8.877,9.507 L8.78,9.5 L8.5,9.5 A0.295 0.295 0 0 0 8.263,9.62 L8.229,9.68 L8.135,9.9 A1 1 0 0 1 6.255,9.23 L6.294,9.12 L6.387,8.898 A2.295 2.295 0 0 1 8.328,7.506 L8.5,7.5 Z M15,9.5 A0.5 0.5 0 0 0 14.5,10 L14.5,14 A0.5 0.5 0 1 0 15.5,14 L15.5,10 A0.5 0.5 0 0 0 15,9.5"/>
</svg>

