<svg xmlns="http://www.w3.org/2000/svg" width="24" height="24">
  <defs/>
  <path  d="M8.377,1.283 A1.5 1.5 0 0 1 8.842,3.171 L8.677,3.5 L18,3.5 A4.5 4.5 0 0 1 22.5,8 L22.5,16 A4.5 4.5 0 0 1 18,20.5 L6,20.5 A4.5 4.5 0 0 1 1.5,16 L1.5,11 A1.5 1.5 0 0 1 4.5,11 L4.5,16 A1.5 1.5 0 0 0 6,17.5 L18,17.5 A1.5 1.5 0 0 0 19.5,16 L19.5,8 A1.5 1.5 0 0 0 18,6.5 L5.024,6.5 C3.679,6.5 3.005,4.874 3.956,3.922 L6.44,1.44 A1.5 1.5 0 0 1 8.378,1.284 M15.574,6.999 A1.5 1.5 0 0 1 15.718,9.992 L15.574,9.999 L14.009,9.999 L14.009,10.177 L14.041,10.177 C16.066,10.177 17.457,11.754 17.457,13.593 A3.416 3.416 0 0 1 14.041,17.009 C13.601,17.009 13.136,16.906 12.759,16.784 C12.398,16.667 11.923,16.469 11.546,16.158 A1.5 1.5 0 0 1 13.435,13.827 L13.498,13.858 L13.615,13.906 L13.757,13.952 L13.894,13.984 L14.041,14.009 C14.271,14.009 14.457,13.823 14.457,13.593 C14.457,13.429 14.4,13.331 14.352,13.281 C14.31,13.238 14.226,13.177 14.042,13.177 L12.509,13.181 A1.5 1.5 0 0 1 11.016,11.826 L11.009,11.681 L11.009,8.898 A1.9 1.9 0 0 1 12.76,7.003 L12.909,6.998 Z M9.209,7.179 A1.5 1.5 0 0 1 10,8.5 L10,15.5 A1.5 1.5 0 0 1 7,15.5 L7,11 A1.499 1.499 0 0 1 6.168,8.252 L7.668,7.252 A1.5 1.5 0 0 1 9.208,7.178"/>
</svg>

