<svg xmlns="http://www.w3.org/2000/svg" width="24" height="24">
  <defs/>
  <path  d="M5.439,0.501 A1.5 1.5 0 0 1 6.938,1.571 L6.971,1.705 L7.162,2.658 A10.458 10.458 0 0 1 14.312,1.732 C19.968,3.007 23.521,8.627 22.246,14.284 C20.971,19.941 15.351,23.494 9.694,22.218 C4.818,21.12 1.508,16.795 1.501,12 A1.5 1.5 0 0 1 4.501,11.996 A7.5 7.5 0 1 0 6.161,7.269 A1.5 1.5 0 0 1 3.495,6.294 L3.505,6.152 L4.01,1.827 A1.5 1.5 0 0 1 5.44,0.5 M15.449,7 A3.25 3.25 0 0 1 18.695,10.066 L18.7,10.25 L18.7,13.75 A3.25 3.25 0 0 1 12.205,13.935 L12.2,13.75 L12.2,10.25 A3.25 3.25 0 0 1 15.45,7 M8.48,7 A3.22 3.22 0 0 1 11.176,11.983 A3.199 3.199 0 0 1 8.502,16.938 L8.2,16.938 C6.873,16.938 5.774,16.061 5.33,15.014 A1.5 1.5 0 0 1 8.09,13.842 A0.2 0.2 0 0 0 8.205,13.938 L8.501,13.938 A0.2 0.2 0 0 0 8.637,13.593 L8.527,13.49 A1.5 1.5 0 0 1 8.497,10.514 L8.635,10.377 A0.22 0.22 0 0 0 8.48,10 L8.205,10 A0.2 0.2 0 0 0 8.091,10.096 A1.5 1.5 0 1 1 5.329,8.924 C5.774,7.876 6.874,7 8.2,7 Z M15.45,10 A0.25 0.25 0 0 0 15.208,10.193 L15.201,10.25 L15.201,13.75 A0.25 0.25 0 0 0 15.694,13.807 L15.701,13.75 L15.701,10.25 A0.25 0.25 0 0 0 15.451,10"/>
</svg>

