<svg xmlns="http://www.w3.org/2000/svg" width="24" height="24">
  <defs/>
  <path  d="M5.46,1 A1 1 0 0 1 6.452,1.694 L6.48,1.804 L6.807,3.431 A9.966 9.966 0 0 1 14.201,2.22 C19.589,3.434 22.972,8.786 21.758,14.174 C20.544,19.561 15.192,22.944 9.804,21.731 C5.16,20.684 2.007,16.565 2.001,11.998 A1 1 0 1 1 4.001,11.995 A8 8 0 1 0 5.773,6.953 A1 1 0 0 1 3.994,6.329 L4.001,6.209 L4.507,1.884 A1 1 0 0 1 5.459,1 M15,7.5 A2.5 2.5 0 0 1 17.495,9.836 L17.5,10 L17.5,14 A2.5 2.5 0 0 1 12.505,14.165 L12.5,14 L12.5,10 A2.5 2.5 0 0 1 15,7.5 M8.78,7.5 A2.72 2.72 0 0 1 10.852,11.984 A2.7 2.7 0 0 1 8.8,16.438 L8.5,16.438 C7.579,16.438 6.747,15.888 6.387,15.039 L6.294,14.819 A1 1 0 0 1 8.134,14.037 L8.229,14.258 C8.275,14.367 8.382,14.438 8.499,14.438 L8.801,14.438 A0.7 0.7 0 0 0 9.278,13.228 L9.216,13.17 A0.635 0.635 0 0 0 8.88,13.007 L8.786,13 A1 1 0 0 1 8.669,11.007 L8.786,11 C8.934,11 9.076,10.942 9.181,10.837 L9.287,10.732 A0.72 0.72 0 0 0 8.779,9.5 L8.5,9.5 A0.295 0.295 0 0 0 8.229,9.68 L8.135,9.9 A1 1 0 0 1 6.294,9.12 L6.388,8.899 A2.295 2.295 0 0 1 8.5,7.5 Z M15,9.5 A0.5 0.5 0 0 0 14.508,9.91 L14.5,10 L14.5,14 A0.5 0.5 0 0 0 15.492,14.09 L15.5,14 L15.5,10 A0.5 0.5 0 0 0 15,9.5"/>
</svg>

