<svg xmlns="http://www.w3.org/2000/svg" width="24" height="24">
  <defs/>
  <path  d="M18.561,0.501 A1.5 1.5 0 0 1 19.968,1.691 L19.99,1.826 L20.495,6.151 A1.5 1.5 0 0 1 17.838,7.268 A7.5 7.5 0 1 0 19.498,11.995 A1.5 1.5 0 0 1 22.499,11.999 C22.492,16.794 19.182,21.119 14.306,22.219 C8.649,23.493 3.029,19.941 1.754,14.284 C0.48,8.627 4.032,3.007 9.69,1.732 A10.455 10.455 0 0 1 16.533,2.505 L16.839,2.658 L17.03,1.705 A1.5 1.5 0 0 1 18.561,0.5 M13.573,6.997 A1.5 1.5 0 0 1 13.717,9.99 L13.573,9.997 L12.008,9.997 L12.008,10.175 L12.04,10.175 C14.065,10.175 15.456,11.752 15.456,13.591 A3.416 3.416 0 0 1 12.04,17.007 C11.6,17.007 11.135,16.904 10.758,16.782 C10.397,16.665 9.922,16.467 9.545,16.156 A1.5 1.5 0 0 1 11.434,13.825 L11.498,13.856 L11.614,13.904 L11.757,13.95 L11.893,13.982 L12.04,14.007 L12.124,13.998 A0.416 0.416 0 0 0 12.456,13.591 C12.456,13.427 12.4,13.33 12.351,13.279 C12.309,13.237 12.225,13.175 12.041,13.175 L10.508,13.179 A1.5 1.5 0 0 1 9.015,11.824 L9.008,11.679 L9.008,8.898 A1.9 1.9 0 0 1 10.759,7.003 L10.908,6.998 Z"/>
</svg>

