<svg xmlns="http://www.w3.org/2000/svg" width="24" height="24">
  <defs/>
  <path  d="M15.623,1.283 C16.22,0.853 17.041,0.919 17.561,1.439 L20.044,3.922 C20.994,4.874 20.321,6.5 18.976,6.5 L6,6.5 C5.172,6.5 4.5,7.172 4.5,8 L4.5,16 C4.5,16.828 5.172,17.5 6,17.5 L18,17.5 C18.828,17.5 19.5,16.828 19.5,16 L19.5,11 C19.5,10.172 20.172,9.5 21,9.5 C21.828,9.5 22.5,10.172 22.5,11 L22.5,16 C22.5,18.485 20.485,20.5 18,20.5 L6,20.5 C3.515,20.5 1.5,18.485 1.5,16 L1.5,8 C1.5,5.515 3.515,3.5 6,3.5 L15.323,3.5 L15.158,3.17 C14.829,2.512 15.026,1.713 15.623,1.283 Z M11,10.5 C11,8.567 12.567,7 14.5,7 C16.433,7 18,8.567 18,10.5 L18,13.5 C18,15.433 16.433,17 14.5,17 C12.567,17 11,15.433 11,13.5 Z M9.208,7.178 C9.695,7.439 10,7.947 10,8.5 L10,15.5 C10,16.328 9.328,17 8.5,17 C7.672,17 7,16.328 7,15.5 L7,11 C6.338,11.001 5.754,10.569 5.562,9.935 C5.37,9.302 5.617,8.618 6.168,8.252 L7.668,7.252 C8.128,6.945 8.72,6.917 9.208,7.178 Z M14.5,10 C14.224,10 14,10.224 14,10.5 L14,13.5 C14,13.776 14.224,14 14.5,14 C14.776,14 15,13.776 15,13.5 L15,10.5 C15,10.224 14.776,10 14.5,10 Z"/>
</svg>

