<svg xmlns="http://www.w3.org/2000/svg" width="24" height="24">
  <defs/>
  <path  d="M15.623,1.283 C16.22,0.853 17.041,0.919 17.561,1.439 L20.044,3.922 C20.994,4.874 20.321,6.5 18.976,6.5 L6,6.5 C5.172,6.5 4.5,7.172 4.5,8 L4.5,16 C4.5,16.828 5.172,17.5 6,17.5 L18,17.5 C18.828,17.5 19.5,16.828 19.5,16 L19.5,11 C19.5,10.172 20.172,9.5 21,9.5 C21.828,9.5 22.5,10.172 22.5,11 L22.5,16 C22.5,18.485 20.485,20.5 18,20.5 L6,20.5 C3.515,20.5 1.5,18.485 1.5,16 L1.5,8 C1.5,5.515 3.515,3.5 6,3.5 L15.323,3.5 L15.158,3.17 C14.829,2.512 15.026,1.713 15.623,1.283 Z M9.008,8.898 C9.008,7.848 9.858,6.998 10.908,6.998 L13.573,6.998 C14.401,6.998 15.073,7.67 15.073,8.498 C15.073,9.326 14.401,9.998 13.573,9.998 L12.008,9.998 L12.008,10.176 L12.04,10.176 C14.065,10.176 15.456,11.753 15.456,13.592 C15.455,15.478 13.926,17.007 12.04,17.007 C11.6,17.007 11.135,16.905 10.758,16.783 C10.397,16.666 9.922,16.468 9.545,16.157 C8.915,15.632 8.824,14.698 9.34,14.061 C9.856,13.424 10.788,13.319 11.433,13.826 C11.458,13.84 11.563,13.891 11.683,13.93 C11.853,13.985 12,14.008 12.04,14.008 C12.27,14.008 12.456,13.821 12.456,13.592 C12.456,13.428 12.399,13.33 12.351,13.28 C12.309,13.237 12.225,13.176 12.041,13.176 C11.529,13.176 11.018,13.18 10.508,13.18 C9.68,13.18 9.008,12.508 9.008,11.68 Z"/>
</svg>

