<svg xmlns="http://www.w3.org/2000/svg" width="24" height="24">
  <defs/>
  <path  d="M5.46,1 A1 1 0 0 1 6.452,1.694 L6.48,1.804 L6.807,3.431 A9.966 9.966 0 0 1 14.201,2.22 C19.589,3.434 22.972,8.786 21.758,14.174 C20.544,19.561 15.192,22.944 9.804,21.731 C5.16,20.684 2.007,16.565 2.001,11.998 A1 1 0 1 1 4.001,11.995 A8 8 0 1 0 5.773,6.953 A1 1 0 0 1 3.994,6.329 L4.001,6.209 L4.507,1.884 A1 1 0 0 1 5.459,1 M9.471,7.618 A1 1 0 0 1 10,8.5 L10,15.5 A1 1 0 0 1 8,15.5 L8,10.366 A1 1 0 0 1 6.946,8.668 L8.446,7.668 A1 1 0 0 1 9.472,7.618 M15.763,7.5 A1 1 0 0 1 15.88,9.493 L15.763,9.5 L13.263,9.5 L13.263,10.196 A4.23 4.23 0 0 1 14.013,10.126 C15.909,10.126 17.201,11.584 17.201,13.313 A3.188 3.188 0 0 1 11.091,14.588 A1 1 0 0 1 12.871,13.683 L12.924,13.787 A1.188 1.188 0 0 0 15.201,13.313 C15.201,12.625 14.742,12.125 14.013,12.125 A2.95 2.95 0 0 0 13.126,12.293 L12.914,12.37 L12.707,12.459 A1 1 0 0 1 11.271,11.691 L11.263,11.563 L11.263,9 A1.5 1.5 0 0 1 12.619,7.507 L12.763,7.5 Z"/>
</svg>

