<svg xmlns="http://www.w3.org/2000/svg" width="24" height="24">
  <defs/>
  <path  d="M6.44,1.44 A1.5 1.5 0 0 1 8.9,3.037 L8.842,3.17 L8.677,3.499 L18,3.499 A4.5 4.5 0 0 1 22.495,7.787 L22.5,8 L22.5,16 A4.5 4.5 0 0 1 18.212,20.495 L18,20.5 L6,20.5 A4.5 4.5 0 0 1 1.505,16.212 L1.5,16 L1.5,11 A1.5 1.5 0 0 1 4.493,10.856 L4.5,11 L4.5,16 A1.5 1.5 0 0 0 5.856,17.493 L6,17.5 L18,17.5 A1.5 1.5 0 0 0 19.493,16.144 L19.5,16 L19.5,8 A1.5 1.5 0 0 0 18.144,6.507 L18,6.5 L5.024,6.5 C3.725,6.5 3.052,4.984 3.864,4.023 L3.956,3.923 Z M15.45,7 A3.25 3.25 0 0 1 18.7,10.25 L18.7,13.75 A3.25 3.25 0 0 1 12.2,13.75 L12.2,10.25 A3.25 3.25 0 0 1 15.45,7 M8.48,7 A3.22 3.22 0 0 1 11.175,11.983 A3.2 3.2 0 0 1 8.683,16.933 L8.501,16.938 L8.2,16.938 C6.873,16.938 5.774,16.061 5.33,15.013 A1.5 1.5 0 1 1 8.09,13.842 C8.104,13.868 8.13,13.897 8.16,13.917 L8.205,13.937 L8.501,13.937 A0.2 0.2 0 0 0 8.671,13.635 L8.637,13.593 L8.527,13.49 A1.5 1.5 0 0 1 8.362,10.538 L8.497,10.514 L8.635,10.377 A0.22 0.22 0 0 0 8.538,10.007 L8.48,10 L8.205,10 A0.2 0.2 0 0 0 8.091,10.096 A1.5 1.5 0 0 1 5.329,8.924 C5.752,7.929 6.765,7.088 8.003,7.007 L8.2,7 Z M15.45,10 A0.25 0.25 0 0 0 15.2,10.25 L15.2,13.75 A0.25 0.25 0 1 0 15.7,13.75 L15.7,10.25 A0.25 0.25 0 0 0 15.45,10"/>
</svg>

