<svg xmlns="http://www.w3.org/2000/svg" width="24" height="24">
  <defs/>
  <path  d="M8.085,1.689 C8.483,1.976 8.614,2.508 8.395,2.947 L7.867,4 L18,4 C20.209,4 22,5.791 22,8 L22,16 C22,18.209 20.209,20 18,20 L6,20 C3.791,20 2,18.209 2,16 L2,11 C2,10.448 2.448,10 3,10 C3.552,10 4,10.448 4,11 L4,16 C4,17.105 4.895,18 6,18 L18,18 C19.105,18 20,17.105 20,16 L20,8 C20,6.895 19.105,6 18,6 L5.024,6 C4.124,6 3.674,4.912 4.31,4.276 L6.793,1.793 C7.14,1.446 7.687,1.402 8.085,1.689 Z M11,10.5 C11,8.843 12.343,7.5 14,7.5 C15.657,7.5 17,8.843 17,10.5 L17,13.5 C17,15.157 15.657,16.5 14,16.5 C12.343,16.5 11,15.157 11,13.5 Z M9.472,7.619 C9.797,7.793 10,8.131 10,8.5 L10,15.5 C10,16.052 9.552,16.5 9,16.5 C8.448,16.5 8,16.052 8,15.5 L8,10.366 C7.533,10.637 6.934,10.488 6.649,10.029 C6.364,9.57 6.495,8.967 6.945,8.668 L8.445,7.668 C8.752,7.463 9.147,7.444 9.472,7.618 Z M14,9.5 C13.448,9.5 13,9.948 13,10.5 L13,13.5 C13,14.052 13.448,14.5 14,14.5 C14.552,14.5 15,14.052 15,13.5 L15,10.5 C15,9.948 14.552,9.5 14,9.5 Z"/>
</svg>

