<svg xmlns="http://www.w3.org/2000/svg" width="24" height="24">
  <defs/>
  <path  d="M6.97,1.705 L7.162,2.658 A10.458 10.458 0 0 1 14.312,1.732 C19.968,3.007 23.521,8.627 22.246,14.284 C20.971,19.941 15.351,23.494 9.694,22.218 C4.818,21.12 1.508,16.795 1.501,12 A1.5 1.5 0 0 1 4.501,11.996 A7.5 7.5 0 1 0 6.161,7.269 A1.5 1.5 0 0 1 3.506,6.15 L4.011,1.825 A1.5 1.5 0 0 1 6.971,1.704 M13.574,6.997 A1.5 1.5 0 0 1 13.718,9.99 L13.574,9.997 L12.009,9.997 L12.009,10.175 L12.041,10.175 C14.066,10.175 15.457,11.752 15.457,13.591 A3.416 3.416 0 0 1 12.041,17.007 C11.601,17.007 11.136,16.904 10.759,16.782 C10.398,16.665 9.923,16.467 9.546,16.156 A1.5 1.5 0 0 1 11.434,13.825 L11.498,13.856 L11.615,13.904 L11.757,13.95 L11.894,13.982 L12.041,14.007 C12.271,14.007 12.457,13.821 12.457,13.591 C12.457,13.427 12.4,13.33 12.352,13.279 C12.31,13.237 12.226,13.175 12.042,13.175 L10.509,13.179 A1.5 1.5 0 0 1 9.016,11.824 L9.009,11.679 L9.009,8.898 A1.9 1.9 0 0 1 10.76,7.003 L10.909,6.998 Z"/>
</svg>

