<svg xmlns="http://www.w3.org/2000/svg" width="24" height="24">
  <defs/>
  <path  d="M18.541,1 A1 1 0 0 1 19.474,1.773 L19.494,1.883 L19.999,6.209 A1 1 0 0 1 18.228,6.954 A8 8 0 1 0 20,11.996 A1 1 0 1 1 22,11.998 C21.993,16.565 18.84,20.684 14.196,21.731 C8.808,22.945 3.456,19.561 2.242,14.174 C1.028,8.786 4.412,3.434 9.8,2.22 A9.963 9.963 0 0 1 16.912,3.266 L17.194,3.431 L17.521,1.803 A1 1 0 0 1 18.542,1.001 M15.002,7.501 A2.5 2.5 0 0 1 17.502,10.001 L17.502,14.001 A2.5 2.5 0 0 1 12.502,14.001 L12.502,10.001 A2.5 2.5 0 0 1 15,7.5 M8.778,7.5 A2.72 2.72 0 0 1 10.851,11.984 A2.7 2.7 0 0 1 8.971,16.432 L8.8,16.438 L8.5,16.438 A2.295 2.295 0 0 1 6.46,15.195 L6.387,15.039 L6.294,14.819 A1 1 0 0 1 8.083,13.932 L8.135,14.037 L8.229,14.258 C8.266,14.345 8.341,14.408 8.431,14.429 L8.5,14.438 L8.8,14.438 A0.7 0.7 0 0 0 9.355,13.313 L9.278,13.227 L9.216,13.17 A0.635 0.635 0 0 0 8.88,13.007 L8.786,13 A1 1 0 0 1 8.669,11.007 L8.786,11 A0.561 0.561 0 0 0 9.114,10.894 L9.181,10.837 L9.287,10.732 A0.72 0.72 0 0 0 8.877,9.507 L8.78,9.5 L8.5,9.5 A0.295 0.295 0 0 0 8.263,9.62 L8.229,9.68 L8.135,9.9 A1 1 0 0 1 6.255,9.23 L6.294,9.12 L6.388,8.899 A2.295 2.295 0 0 1 8.328,7.507 L8.5,7.5 Z M15,9.5 A0.5 0.5 0 0 0 14.5,10 L14.5,14 A0.5 0.5 0 0 0 15.5,14 L15.5,10 A0.5 0.5 0 0 0 15,9.5"/>
</svg>

