<svg xmlns="http://www.w3.org/2000/svg" width="24" height="24">
  <defs/>
  <path  d="M17.56,1.44 L20.044,3.922 C20.994,4.874 20.321,6.5 18.976,6.5 L6,6.5 A1.5 1.5 0 0 0 4.5,8 L4.5,16 A1.5 1.5 0 0 0 6,17.5 L18,17.5 A1.5 1.5 0 0 0 19.5,16 L19.5,11 A1.5 1.5 0 0 1 22.5,11 L22.5,16 A4.5 4.5 0 0 1 18,20.5 L6,20.5 A4.5 4.5 0 0 1 1.5,16 L1.5,8 A4.5 4.5 0 0 1 6,3.5 L15.323,3.5 L15.158,3.17 A1.5 1.5 0 0 1 17.561,1.44 M15.574,6.998 A1.5 1.5 0 0 1 15.574,9.998 L14.009,9.998 L14.009,10.176 L14.041,10.176 C16.066,10.176 17.457,11.753 17.457,13.592 A3.416 3.416 0 0 1 14.041,17.008 C13.601,17.008 13.136,16.905 12.759,16.783 C12.398,16.666 11.923,16.468 11.546,16.157 A1.5 1.5 0 0 1 13.435,13.826 L13.498,13.857 L13.615,13.905 L13.757,13.951 L13.894,13.983 L14.041,14.008 C14.271,14.008 14.457,13.822 14.457,13.592 C14.457,13.428 14.4,13.33 14.352,13.28 C14.31,13.237 14.226,13.176 14.042,13.176 L12.509,13.18 A1.5 1.5 0 0 1 11.009,11.68 L11.009,8.898 C11.009,7.848 11.859,6.998 12.909,6.998 Z M7.669,7.252 A1.5 1.5 0 0 1 9.992,8.35 L10,8.5 L10,15.5 A1.5 1.5 0 0 1 7.007,15.644 L7,15.5 L7,11 A1.499 1.499 0 0 1 6.051,8.338 L6.168,8.252 Z"/>
</svg>

