<svg xmlns="http://www.w3.org/2000/svg" width="24" height="24">
  <defs/>
  <path  d="M18.541,1 A1 1 0 0 1 19.493,1.884 L20,6.209 A1 1 0 0 1 18.229,6.954 A8 8 0 1 0 20,11.996 A1 1 0 1 1 22,11.998 C21.993,16.565 18.84,20.684 14.196,21.731 C8.808,22.945 3.456,19.561 2.242,14.174 C1.028,8.786 4.412,3.434 9.8,2.22 A9.967 9.967 0 0 1 17.194,3.431 L17.521,1.803 A1 1 0 0 1 18.542,1.001 M13.764,7.501 A1 1 0 1 1 13.764,9.501 L11.264,9.501 L11.264,10.197 C11.499,10.154 11.753,10.127 12.014,10.127 C13.91,10.127 15.202,11.585 15.202,13.314 A3.188 3.188 0 0 1 9.092,14.589 A1 1 0 0 1 10.872,13.684 L10.925,13.788 A1.188 1.188 0 0 0 13.202,13.314 C13.202,12.626 12.743,12.126 12.014,12.126 A2.95 2.95 0 0 0 11.127,12.294 L10.919,12.369 L10.716,12.456 A1 1 0 0 1 9.264,11.564 L9.264,8.938 C9.264,8.144 9.908,7.5 10.702,7.5 Z"/>
</svg>

