<svg xmlns="http://www.w3.org/2000/svg" width="24" height="24">
  <defs/>
  <path  d="M15.915,1.689 C16.313,1.402 16.86,1.446 17.207,1.793 L19.69,4.276 C20.326,4.912 19.876,6 18.976,6 L6,6 C4.895,6 4,6.895 4,8 L4,16 C4,17.105 4.895,18 6,18 L18,18 C19.105,18 20,17.105 20,16 L20,11 C20,10.448 20.448,10 21,10 C21.552,10 22,10.448 22,11 L22,16 C22,18.209 20.209,20 18,20 L6,20 C3.791,20 2,18.209 2,16 L2,8 C2,5.791 3.791,4 6,4 L16.132,4 L15.606,2.947 C15.387,2.508 15.518,1.976 15.916,1.689 Z M9.263,9 C9.263,8.172 9.935,7.5 10.763,7.5 L13.763,7.5 C14.315,7.5 14.763,7.948 14.763,8.5 C14.763,9.052 14.315,9.5 13.763,9.5 L11.263,9.5 L11.263,10.196 C11.51,10.15 11.761,10.126 12.013,10.125 C13.909,10.125 15.201,11.584 15.201,13.313 C15.201,14.823 14.142,16.126 12.664,16.434 C11.186,16.742 9.695,15.972 9.091,14.588 C8.874,14.083 9.105,13.496 9.61,13.276 C10.114,13.056 10.701,13.285 10.924,13.788 C11.149,14.304 11.705,14.591 12.256,14.476 C12.807,14.361 13.202,13.875 13.201,13.312 C13.201,12.625 12.741,12.125 12.013,12.125 C11.711,12.135 11.411,12.191 11.126,12.292 C10.984,12.339 10.845,12.394 10.709,12.458 C10.399,12.613 10.031,12.596 9.736,12.413 C9.442,12.23 9.263,11.909 9.263,11.562 Z"/>
</svg>

