<svg xmlns="http://www.w3.org/2000/svg" width="24" height="24">
  <defs/>
  <path  d="M5.46,1 A1 1 0 0 1 6.452,1.694 L6.48,1.804 L6.807,3.431 A9.966 9.966 0 0 1 14.201,2.22 C19.589,3.434 22.972,8.786 21.758,14.174 C20.544,19.561 15.192,22.944 9.804,21.731 C5.16,20.684 2.007,16.565 2.001,11.998 A1 1 0 1 1 4.001,11.995 A8 8 0 1 0 5.773,6.953 A1 1 0 0 1 3.994,6.329 L4.001,6.209 L4.507,1.884 A1 1 0 0 1 5.459,1 M13.762,7.5 A1 1 0 1 1 13.762,9.5 L11.262,9.5 L11.262,10.196 C11.497,10.153 11.751,10.126 12.012,10.126 C13.908,10.126 15.2,11.584 15.2,13.313 A3.188 3.188 0 0 1 9.09,14.588 A1 1 0 0 1 10.87,13.683 L10.923,13.787 A1.188 1.188 0 0 0 13.2,13.313 C13.2,12.625 12.741,12.125 12.012,12.125 C11.633,12.125 11.242,12.229 10.888,12.377 L10.714,12.455 A1 1 0 0 1 9.262,11.563 L9.262,8.938 C9.262,8.144 9.906,7.5 10.7,7.5 Z"/>
</svg>

