<svg xmlns="http://www.w3.org/2000/svg" width="24" height="24">
  <defs/>
  <path  d="M18.541,1 A1 1 0 0 1 19.493,1.884 L20,6.209 A1 1 0 0 1 18.229,6.954 A8 8 0 1 0 20,11.996 A1 1 0 1 1 22,11.998 C21.993,16.565 18.84,20.684 14.196,21.731 C8.808,22.945 3.456,19.561 2.242,14.174 C1.028,8.786 4.412,3.434 9.8,2.22 A9.967 9.967 0 0 1 17.194,3.431 L17.521,1.803 A1 1 0 0 1 18.542,1.001 M9.472,7.619 A1 1 0 0 1 10,8.5 L10,15.5 A1 1 0 0 1 8,15.5 L8,10.366 A1 1 0 0 1 6.946,8.668 L8.446,7.668 A1 1 0 0 1 9.472,7.618 M15.763,7.5 A1 1 0 0 1 15.88,9.493 L15.763,9.5 L13.263,9.5 L13.263,10.196 A4.23 4.23 0 0 1 14.013,10.126 C15.909,10.126 17.201,11.584 17.201,13.313 A3.188 3.188 0 0 1 11.091,14.588 A1 1 0 0 1 12.871,13.683 L12.924,13.787 A1.188 1.188 0 0 0 15.201,13.313 C15.201,12.625 14.742,12.125 14.013,12.125 C13.632,12.125 13.24,12.23 12.883,12.38 L12.709,12.458 A1 1 0 0 1 11.272,11.691 L11.263,11.563 L11.263,9 A1.5 1.5 0 0 1 12.619,7.507 L12.763,7.5 Z"/>
</svg>

