<svg xmlns="http://www.w3.org/2000/svg" width="24" height="24">
  <defs/>
  <path  d="M18.541,1 A1 1 0 0 1 19.493,1.884 L20,6.209 A1 1 0 0 1 18.229,6.954 A8 8 0 1 0 20,11.996 A1 1 0 1 1 22,11.998 C21.993,16.565 18.84,20.684 14.196,21.731 C8.808,22.945 3.456,19.561 2.242,14.174 C1.028,8.786 4.412,3.434 9.8,2.22 A9.967 9.967 0 0 1 17.194,3.431 L17.521,1.803 A1 1 0 0 1 18.542,1.001 M9.472,7.619 A1 1 0 0 1 10,8.5 L10,15.5 A1 1 0 0 1 8,15.5 L8,10.366 A1 1 0 0 1 6.946,8.668 L8.446,7.668 A1 1 0 0 1 9.472,7.618 M14,7.5 A3 3 0 0 1 16.995,10.324 L17,10.5 L17,13.5 A3 3 0 0 1 11.005,13.676 L11,13.5 L11,10.5 A3 3 0 0 1 14,7.5 M14,9.5 A1 1 0 0 0 13.007,10.384 L13,10.5 L13,13.5 A1 1 0 0 0 14.993,13.617 L15,13.5 L15,10.5 A1 1 0 0 0 14,9.5"/>
</svg>

