<svg xmlns="http://www.w3.org/2000/svg" width="24" height="24">
  <defs/>
  <path  d="M12,16.5 A1.5 1.5 0 0 1 13.493,17.856 L13.5,18 L13.5,20 A1.5 1.5 0 0 1 10.507,20.145 L10.5,20 L10.5,18 A1.5 1.5 0 0 1 12,16.5 M8.364,2.545 A1.5 1.5 0 0 1 9.455,4.364 L5.455,20.364 A1.5 1.5 0 0 1 2.545,19.636 L6.545,3.636 A1.5 1.5 0 0 1 8.364,2.545 M17.455,3.636 L21.455,19.636 A1.5 1.5 0 1 1 18.545,20.364 L14.545,4.364 A1.5 1.5 0 0 1 17.455,3.636 M12,9.5 A1.5 1.5 0 0 1 13.5,11 L13.5,13 A1.5 1.5 0 0 1 10.5,13 L10.5,11 A1.5 1.5 0 0 1 12,9.5 M12,2.5 A1.5 1.5 0 0 1 13.493,3.856 L13.5,4 L13.5,6 A1.5 1.5 0 0 1 10.507,6.145 L10.5,6 L10.5,4 A1.5 1.5 0 0 1 12,2.5"/>
</svg>

