<svg xmlns="http://www.w3.org/2000/svg" width="24" height="24">
  <defs/>
  <path  d="M8.243,3.03 A1 1 0 0 1 8.97,4.243 L4.97,20.243 A1 1 0 1 1 3.03,19.758 L7.03,3.758 A1 1 0 0 1 8.243,3.03 M16.97,3.757 L20.97,19.757 A1 1 0 1 1 19.03,20.242 L15.03,4.242 A1 1 0 1 1 16.97,3.757 M12,17 A1 1 0 0 1 12.993,17.883 L13,18 L13,20 A1 1 0 0 1 11.007,20.117 L11,20 L11,18 A1 1 0 0 1 12,17 M12,10 A1 1 0 0 1 13,11 L13,13 A1 1 0 1 1 11,13 L11,11 A1 1 0 0 1 12,10 M12,3 A1 1 0 0 1 12.993,3.883 L13,4 L13,6 A1 1 0 0 1 11.007,6.117 L11,6 L11,4 A1 1 0 0 1 12,3"/>
</svg>

