<svg xmlns="http://www.w3.org/2000/svg" width="24" height="24">
  <defs/>
  <path  d="M18.42,2.797 L18.806,2.853 C19.406,2.948 20.078,3.107 20.491,3.52 C20.905,3.934 21.064,4.606 21.159,5.206 L21.215,5.591 C21.341,6.501 21.374,7.694 21.159,9.018 C20.735,11.631 19.344,14.748 15.851,17.163 A4.61 4.61 0 0 0 15.834,17.7 L15.851,18.243 C15.861,18.605 15.855,18.966 15.755,19.313 C15.565,19.973 14.888,20.408 14.255,20.72 L13.945,20.867 L13.545,21.043 L13.272,21.153 C12.565,21.423 11.712,21.612 11.154,21.053 C10.901,20.8 10.784,20.456 10.69,20.112 L10.644,19.94 C10.484,19.333 10.303,18.73 10.077,18.146 A3.04 3.04 0 0 1 9.879,18.364 C9.334,18.908 8.595,19.182 7.856,19.394 L7.365,19.529 L6.875,19.659 L6.397,19.779 L5.965,19.879 L5.448,19.989 L5.125,20.052 A1.009 1.009 0 0 1 3.948,18.875 L4.059,18.324 L4.188,17.746 L4.312,17.236 L4.537,16.391 C4.76,15.571 5.031,14.726 5.637,14.121 L5.736,14.026 L4.973,13.752 L4.206,13.488 C3.757,13.34 3.285,13.184 2.959,12.858 C2.363,12.262 2.616,11.332 2.913,10.601 L3.079,10.214 L3.216,9.913 C3.533,9.239 3.983,8.463 4.699,8.257 C5.046,8.157 5.406,8.151 5.769,8.16 L6.312,8.178 C6.492,8.181 6.672,8.178 6.849,8.161 C9.263,4.668 12.381,3.277 14.994,2.853 A11.693 11.693 0 0 1 18.42,2.797 M15.314,4.827 C13.116,5.184 10.445,6.361 8.361,9.496 C8.108,9.876 7.681,10.057 7.246,10.126 C7,10.166 6.752,10.176 6.503,10.176 L5.756,10.165 C5.632,10.165 5.507,10.165 5.383,10.171 C5.079,10.575 4.867,11.055 4.708,11.532 L6.208,12.077 L6.825,12.31 C7.953,12.752 9.045,13.287 9.885,14.127 C11.3,15.542 12.019,17.393 12.539,19.284 C12.995,19.124 13.453,18.92 13.841,18.629 L13.847,18.256 L13.836,17.51 C13.836,17.262 13.846,17.014 13.886,16.766 C13.954,16.331 14.136,15.904 14.516,15.651 C17.651,13.567 18.828,10.896 19.185,8.698 C19.365,7.588 19.335,6.596 19.234,5.865 A5.378 5.378 0 0 0 19.041,4.97 A5.375 5.375 0 0 0 18.146,4.778 A9.697 9.697 0 0 0 15.314,4.828 Z M7.05,15.535 C6.7,15.958 6.537,16.513 6.406,17.063 L6.298,17.531 L6.243,17.757 L6.937,17.594 C7.487,17.464 8.043,17.299 8.465,16.949 A1 1 0 1 0 7.05,15.535 M12.707,8.465 A2 2 0 1 1 15.536,11.293 A2 2 0 0 1 12.707,8.464 Z"/>
</svg>

