<svg xmlns="http://www.w3.org/2000/svg" width="24" height="24">
  <defs/>
  <path  d="M19.374,3.292 C19.749,3.198 20.145,3.308 20.419,3.581 C20.692,3.855 20.802,4.251 20.708,4.626 L19.603,9.046 C19.383,9.925 18.929,10.728 18.288,11.369 L13.707,15.949 L13.707,18.157 C13.707,18.555 13.548,18.936 13.267,19.217 L11.538,20.947 C11.257,21.228 10.858,21.36 10.465,21.3 C10.071,21.241 9.729,20.999 9.543,20.647 C9.135,19.874 8.687,19.123 8.201,18.397 C8.101,18.65 7.949,18.879 7.757,19.071 C6.977,19.852 3.691,20.662 3.515,20.485 C3.338,20.309 4.148,17.024 4.929,16.243 C5.127,16.044 5.357,15.896 5.602,15.799 C4.876,15.313 4.125,14.865 3.353,14.457 C3.001,14.271 2.759,13.929 2.7,13.535 C2.64,13.142 2.772,12.743 3.053,12.462 L4.783,10.732 C5.064,10.451 5.445,10.292 5.843,10.292 L8.05,10.292 L12.63,5.712 C13.271,5.071 14.074,4.617 14.954,4.397 Z M16.243,7.758 C15.794,7.304 15.278,6.921 14.714,6.623 C14.468,6.759 14.243,6.928 14.044,7.127 L13.059,8.113 C13.457,8.213 14.129,8.473 14.829,9.172 C15.528,9.871 15.787,10.542 15.887,10.941 L16.873,9.955 C17.073,9.755 17.242,9.53 17.377,9.285 C17.079,8.722 16.696,8.207 16.243,7.758 Z"/>
</svg>

