<svg xmlns="http://www.w3.org/2000/svg" width="24" height="24">
  <defs/>
  <path  d="M17.668,11.989 L17.667,11.989 C17.659,11.997 17.652,12.004 17.644,12.012 L13.706,15.95 L13.706,18.157 C13.706,18.555 13.548,18.936 13.267,19.217 L11.537,20.947 C11.256,21.228 10.857,21.36 10.464,21.3 C10.07,21.241 9.728,20.999 9.542,20.647 C9.287,20.165 8.784,19.258 8.2,18.398 C8.103,18.643 7.955,18.873 7.756,19.071 C6.975,19.852 3.69,20.662 3.514,20.485 C3.337,20.309 4.147,17.023 4.928,16.243 C5.12,16.051 5.349,15.9 5.602,15.799 C4.74,15.215 3.834,14.712 3.352,14.457 C3,14.271 2.758,13.929 2.699,13.535 C2.639,13.142 2.771,12.743 3.052,12.462 L4.782,10.732 C5.063,10.451 5.444,10.292 5.842,10.292 L8.051,10.292 L12.631,5.712 C13.272,5.071 14.075,4.617 14.954,4.397 L19.374,3.292 C19.749,3.198 20.145,3.308 20.419,3.581 C20.692,3.855 20.802,4.251 20.708,4.626 L19.603,9.046 C19.383,9.925 18.929,10.728 18.288,11.369 Z M15.887,10.941 C15.787,10.543 15.527,9.871 14.828,9.171 C14.129,8.472 13.457,8.213 13.058,8.113 L9.318,11.853 C9.037,12.134 8.656,12.293 8.258,12.293 L6.05,12.293 L5.168,13.175 C6.152,13.741 7.551,14.623 8.464,15.535 C9.377,16.448 10.259,17.848 10.825,18.832 L11.707,17.95 L11.707,15.743 C11.707,15.345 11.865,14.963 12.147,14.682 Z M18.404,5.596 L15.439,6.338 C15.185,6.401 14.941,6.498 14.714,6.623 C15.278,6.921 15.794,7.304 16.243,7.758 C16.697,8.207 17.079,8.722 17.377,9.286 C17.504,9.058 17.599,8.814 17.662,8.561 Z"/>
</svg>

