<svg xmlns="http://www.w3.org/2000/svg" width="24" height="24">
  <defs/>
  <path  d="M18.165,2.765 L18.42,2.797 C19.094,2.89 19.986,3.015 20.491,3.521 C20.905,3.934 21.064,4.606 21.159,5.206 L21.215,5.592 C21.341,6.502 21.374,7.694 21.159,9.018 C20.735,11.631 19.344,14.749 15.851,17.163 C15.832,17.351 15.831,17.541 15.835,17.731 L15.845,18.015 C15.861,18.452 15.877,18.889 15.755,19.313 C15.565,19.973 14.888,20.408 14.255,20.72 L13.945,20.867 L13.545,21.043 C12.797,21.361 11.787,21.687 11.154,21.053 C10.774,20.674 10.618,20.118 10.491,19.565 L10.444,19.358 C10.391,19.097 10.324,18.838 10.244,18.584 C10.194,18.438 10.14,18.289 10.082,18.139 C10.018,18.217 9.95,18.292 9.879,18.364 C9.534,18.709 9.019,18.95 8.595,19.119 C8.132,19.302 7.608,19.462 7.123,19.594 L6.874,19.66 L6.397,19.779 L5.965,19.879 L5.448,19.989 L5.125,20.052 C4.798,20.113 4.462,20.008 4.227,19.773 C3.992,19.538 3.887,19.202 3.948,18.875 L4.034,18.444 L4.188,17.746 L4.312,17.236 L4.406,16.876 C4.538,16.392 4.698,15.868 4.882,15.406 C5.05,14.981 5.291,14.466 5.636,14.121 L5.716,14.044 L5.652,14.018 C5.481,13.953 5.308,13.894 5.133,13.841 L4.856,13.756 C4.162,13.546 3.42,13.32 2.959,12.858 C2.399,12.299 2.588,11.448 2.858,10.74 L2.968,10.466 L3.145,10.066 L3.292,9.756 C3.604,9.124 4.039,8.447 4.699,8.257 C5.049,8.157 5.413,8.151 5.779,8.161 L5.999,8.168 C6.007,8.168 6.014,8.169 6.022,8.169 C6.3,8.179 6.577,8.188 6.849,8.162 C9.263,4.668 12.381,3.277 14.994,2.853 C16.042,2.681 17.109,2.651 18.165,2.765 Z M15.536,8.466 C14.755,7.685 13.489,7.685 12.707,8.465 C11.926,9.246 11.926,10.513 12.707,11.294 C13.488,12.075 14.754,12.075 15.535,11.295 C16.317,10.514 16.317,9.247 15.536,8.466 Z M8.353,15.44 C8.031,15.202 7.599,15.178 7.253,15.38 L7.143,15.454 L7.05,15.537 L6.925,15.695 C6.665,16.071 6.517,16.591 6.402,17.077 L6.294,17.545 L6.243,17.758 L6.434,17.712 L6.852,17.616 C7.43,17.481 8.071,17.306 8.465,16.951 C8.819,16.597 8.857,16.035 8.553,15.637 L8.471,15.543 L8.447,15.52 Z"/>
</svg>

