<svg xmlns="http://www.w3.org/2000/svg" width="24" height="24">
  <defs/>
  <path  d="M12,2 C12.852,2 13.505,2.519 13.953,3.088 C14.411,3.669 14.779,4.448 15.07,5.32 C15.655,7.075 16,9.437 16,12 C16,14.563 15.655,16.925 15.07,18.68 C14.78,19.553 14.41,20.331 13.953,20.912 C13.505,21.482 12.853,22 12,22 C10.803,22 10,21.002 9.514,20.077 C8.982,19.069 8.581,17.704 8.325,16.163 A1 1 0 0 1 10.299,15.837 C10.534,17.259 10.888,18.395 11.283,19.145 C11.481,19.521 11.666,19.755 11.813,19.885 C12.007,20.055 12.147,19.955 12.282,19.798 L12.382,19.674 C12.642,19.344 12.921,18.804 13.172,18.048 C13.673,16.546 14,14.408 14,12 C14,9.592 13.673,7.454 13.173,5.952 C12.921,5.196 12.643,4.656 12.383,4.326 L12.287,4.21 C12.142,4.046 11.991,3.948 11.79,4.136 C11.627,4.288 11.427,4.558 11.22,4.98 A8.55 8.55 0 0 0 10.698,6.367 A1 1 0 0 1 11.548,8.092 L11.449,8.17 L9.832,9.302 A0.997 0.997 0 0 1 8.447,9.116 L7.271,7.433 A1 1 0 0 1 8.704,6.07 C8.905,5.328 9.147,4.66 9.425,4.096 C9.696,3.546 10.025,3.048 10.425,2.674 C10.831,2.294 11.363,2 12,2 M13,11 L13,13 L5,13 A1 1 0 0 1 4.883,11.007 L5,11 Z M19,11 L17,11 L17,13 L19,13 A1 1 0 1 0 19,11"/>
</svg>

