<svg xmlns="http://www.w3.org/2000/svg" width="24" height="24">
  <defs/>
  <path  d="M3,5 A2 2 0 0 1 5,3 L11,3 A2 2 0 0 1 13,5 L13,19 A2 2 0 0 1 11,21 L5,21 A2 2 0 0 1 3,19 Z M14,20 A1 1 0 0 1 15,19 L19,19 L19,13 L15,13 A1 1 0 1 1 15,11 L19,11 A2 2 0 0 1 21,13 L21,19 A2 2 0 0 1 19,21 L15,21 A1 1 0 0 1 14,20 M18,4 A1 1 0 0 1 18.705,5.709 C19.389,6.147 20.088,6.674 20.707,7.293 A1 1 0 0 1 19.293,8.707 C18.209,7.623 16.767,6.844 15.77,6.39 L15.372,6.216 A6.62 6.62 0 0 0 15.198,6.144 C14.58,5.893 14.461,5.277 14.531,4.907 C14.601,4.535 14.941,4 15.616,4 Z"/>
</svg>

