<svg xmlns="http://www.w3.org/2000/svg" width="24" height="24">
  <defs/>
  <path  d="M5.631,7.23 A1.5 1.5 0 0 1 7.598,6.784 L7.72,6.861 L9.286,7.958 A1.497 1.497 0 0 1 9.786,10.006 L9.708,10.124 L8.58,11.736 A1.5 1.5 0 0 1 5.932,11.363 A6.86 6.86 0 0 0 5.202,11.668 A3.31 3.31 0 0 0 4.649,12 C4.919,12.209 5.395,12.46 6.11,12.698 C7.549,13.178 9.631,13.5 12,13.5 C14.369,13.5 16.451,13.178 17.89,12.698 C18.606,12.459 19.083,12.208 19.352,11.998 L19.217,11.903 A3.733 3.733 0 0 0 18.912,11.725 C18.226,11.365 17.148,11.023 15.755,10.792 A1.5 1.5 0 0 1 16.245,7.832 C17.815,8.092 19.237,8.506 20.311,9.072 C21.257,9.57 22.5,10.499 22.5,12 C22.5,13.07 21.848,13.852 21.221,14.346 C20.578,14.853 19.74,15.244 18.838,15.544 C17.019,16.151 14.602,16.5 12,16.5 C9.398,16.5 6.98,16.15 5.162,15.544 C4.26,15.244 3.422,14.853 2.779,14.346 C2.152,13.852 1.5,13.07 1.5,12 C1.5,11.2 1.871,10.552 2.308,10.084 C2.738,9.624 3.294,9.264 3.875,8.977 C4.326,8.754 4.835,8.556 5.389,8.382 A1.496 1.496 0 0 1 5.63,7.23 Z M12,3.5 A1.5 1.5 0 0 1 13.493,4.856 L13.5,5 L13.5,12 L10.5,12 L10.5,5 A1.5 1.5 0 0 1 12,3.5 M10.5,18 L10.5,19 A1.5 1.5 0 0 0 13.5,19 L13.5,18 Z"/>
</svg>

