<svg xmlns="http://www.w3.org/2000/svg" width="24" height="24">
  <defs/>
  <path  d="M3,5 A2 2 0 0 1 5,3 L11,3 A2 2 0 0 1 13,5 L13,9 A1 1 0 1 1 11,9 L11,5 L5,5 L5,9 A1 1 0 0 1 3,9 Z M18.717,4.762 A1 1 0 0 1 19.875,5.573 L20.289,7.921 C20.406,8.586 19.939,9.013 19.585,9.147 C19.232,9.281 18.605,9.27 18.25,8.705 L18.035,8.372 C17.433,7.467 16.361,6.06 15.015,5.118 A1 1 0 1 1 16.162,3.479 C16.879,3.981 17.52,4.579 18.07,5.176 A0.997 0.997 0 0 1 18.717,4.762 M3,19 A2 2 0 0 0 5,21 L19,21 A2 2 0 0 0 21,19 L21,13 A2 2 0 0 0 19,11 L5,11 A2 2 0 0 0 3,13 Z M5,19 L5,13 L19,13 L19,19 Z"/>
</svg>

