<svg xmlns="http://www.w3.org/2000/svg" width="24" height="24">
  <defs/>
  <path  d="M7.433,7.271 L9.013,8.377 A0.998 0.998 0 0 1 9.303,9.832 L8.17,11.45 A1 1 0 0 1 6.367,10.7 A8.595 8.595 0 0 0 4.98,11.22 C4.558,11.428 4.288,11.628 4.136,11.791 C3.948,11.992 4.046,12.143 4.21,12.288 L4.326,12.383 C4.656,12.643 5.196,12.922 5.952,13.173 C7.454,13.674 9.592,14 12,14 C14.408,14 16.546,13.673 18.048,13.173 C18.804,12.921 19.344,12.643 19.674,12.383 L19.798,12.282 C19.955,12.147 20.056,12.007 19.886,11.814 C19.756,11.666 19.521,11.481 19.146,11.284 C18.395,10.888 17.259,10.534 15.836,10.299 A1 1 0 1 1 16.163,8.325 C17.704,8.581 19.069,8.982 20.077,9.514 C21.002,10 22,10.803 22,12 C22,12.852 21.481,13.505 20.912,13.953 C20.331,14.411 19.552,14.779 18.68,15.07 C16.925,15.655 14.563,16 12,16 C9.437,16 7.075,15.655 5.32,15.07 C4.447,14.78 3.669,14.41 3.088,13.953 C2.518,13.505 2,12.853 2,12 C2,11.364 2.295,10.832 2.674,10.425 C3.048,10.025 3.547,9.696 4.096,9.425 C4.661,9.147 5.328,8.905 6.07,8.705 A1 1 0 0 1 7.433,7.27 Z M12,4 A1 1 0 0 1 13,5 L13,13 L11,13 L11,5 A1 1 0 0 1 12,4 M11,19 L11,17 L13,17 L13,19 A1 1 0 1 1 11,19"/>
</svg>

