<svg xmlns="http://www.w3.org/2000/svg" width="24" height="24">
  <defs/>
  <path  d="M12,1.5 C13.07,1.5 13.852,2.152 14.346,2.779 C14.853,3.422 15.244,4.26 15.544,5.162 C16.151,6.981 16.5,9.398 16.5,12 C16.5,14.602 16.15,17.02 15.544,18.838 C15.244,19.74 14.853,20.578 14.346,21.221 C13.852,21.848 13.071,22.5 12,22.5 C10.499,22.5 9.57,21.257 9.071,20.31 C8.506,19.237 8.092,17.815 7.832,16.245 A1.5 1.5 0 1 1 10.792,15.755 C11.022,17.148 11.364,18.226 11.725,18.912 C11.791,19.037 11.85,19.137 11.903,19.217 L11.999,19.353 C12.208,19.083 12.459,18.606 12.699,17.89 C13.178,16.451 13.5,14.369 13.5,12 C13.5,9.631 13.178,7.549 12.698,6.11 C12.46,5.395 12.208,4.919 12,4.649 C11.907,4.769 11.793,4.949 11.668,5.202 A6.895 6.895 0 0 0 11.363,5.932 A1.5 1.5 0 0 1 11.736,8.579 L10.125,9.709 A1.495 1.495 0 0 1 9.026,9.985 A1.495 1.495 0 0 1 8.039,9.405 L6.86,7.72 A1.5 1.5 0 0 1 8.382,5.39 C8.556,4.836 8.754,4.327 8.977,3.876 C9.263,3.296 9.624,2.739 10.084,2.309 C10.552,1.871 11.2,1.5 12,1.5 M12,10.5 L12,13.5 L5,13.5 A1.5 1.5 0 0 1 5,10.5 Z M18,10.5 L19,10.5 A1.5 1.5 0 0 1 19,13.5 L18,13.5 Z"/>
</svg>

