<svg xmlns="http://www.w3.org/2000/svg" width="24" height="24">
  <defs/>
  <path  d="M3,5 C3,3.895 3.895,3 5,3 L11,3 C12.105,3 13,3.895 13,5 L13,19 C13,20.105 12.105,21 11,21 L5,21 C3.895,21 3,20.105 3,19 Z M11,5 L5,5 L5,19 L11,19 Z M14,20 C14,19.448 14.448,19 15,19 L19,19 L19,13 L15,13 C14.448,13 14,12.552 14,12 C14,11.448 14.448,11 15,11 L19,11 C20.105,11 21,11.895 21,13 L21,19 C21,20.105 20.105,21 19,21 L15,21 C14.448,21 14,20.552 14,20 Z M18,4 C18.405,4 18.77,4.244 18.924,4.619 C19.079,4.993 18.992,5.423 18.705,5.709 C19.389,6.147 20.088,6.674 20.707,7.293 C21.086,7.685 21.081,8.309 20.695,8.695 C20.309,9.081 19.685,9.086 19.293,8.707 C18.209,7.623 16.767,6.844 15.77,6.39 L15.372,6.216 C15.314,6.191 15.256,6.167 15.198,6.144 C14.58,5.893 14.461,5.277 14.531,4.907 C14.601,4.535 14.941,4 15.616,4 Z"/>
</svg>

