<svg xmlns="http://www.w3.org/2000/svg" width="24" height="24">
  <defs/>
  <path  d="M15.5,4 C17.985,4 20,6.015 20,8.5 C20,10.985 17.985,13 15.5,13 L8.5,13 C7.119,13 6,14.119 6,15.5 C6,16.881 7.119,18 8.5,18 L13,18 C13.552,18 14,18.448 14,19 C14,19.552 13.552,20 13,20 L8.5,20 C6.015,20 4,17.985 4,15.5 C4,13.015 6.015,11 8.5,11 L15.5,11 C16.881,11 18,9.881 18,8.5 C18,7.119 16.881,6 15.5,6 L11,6 C10.448,6 10,5.552 10,5 C10,4.448 10.448,4 11,4 Z M18,16 C19.657,16 21,17.343 21,19 C21,20.657 19.657,22 18,22 C16.343,22 15,20.657 15,19 C15,17.343 16.343,16 18,16 Z M6,2 C7.657,2 9,3.343 9,5 C9,6.657 7.657,8 6,8 C4.343,8 3,6.657 3,5 C3,3.343 4.343,2 6,2 Z M6,4 C5.448,4 5,4.448 5,5 C5,5.552 5.448,6 6,6 C6.552,6 7,5.552 7,5 C7,4.448 6.552,4 6,4 Z M18,18 C17.448,18 17,18.448 17,19 C17,19.552 17.448,20 18,20 C18.552,20 19,19.552 19,19 C19,18.448 18.552,18 18,18 Z"/>
</svg>

