<svg xmlns="http://www.w3.org/2000/svg" width="24" height="24">
  <defs/>
  <path  d="M12,9 A1 1 0 0 1 13,10 L13,14 L19,14 A2 2 0 0 1 21,16 L21,19 A2 2 0 0 1 19,21 L5,21 A2 2 0 0 1 3,19 L3,16 A2 2 0 0 1 5,14 L11,14 L11,10 A1 1 0 0 1 12,9 M6.662,3.959 A1 1 0 0 1 6.75,5.37 A6.97 6.97 0 0 0 5,10 C5,10.297 5.018,10.59 5.054,10.876 A1 1 0 0 1 3.07,11.124 A9.079 9.079 0 0 1 3,10 A8.97 8.97 0 0 1 5.25,4.047 A1 1 0 0 1 6.662,3.959 M18.75,4.047 A8.97 8.97 0 0 1 21,10 C21,10.38 20.976,10.755 20.93,11.124 A1 1 0 1 1 18.946,10.876 C18.981,10.59 19,10.297 19,10 A6.97 6.97 0 0 0 17.25,5.37 A1 1 0 1 1 18.75,4.047 M9.662,6.604 A1 1 0 0 1 9.75,8.016 A2.985 2.985 0 0 0 9.023,10.376 A1 1 0 0 1 7.039,10.624 A4.985 4.985 0 0 1 8.25,6.693 A1 1 0 0 1 9.66,6.604 Z M15.75,6.692 A4.984 4.984 0 0 1 16.961,10.624 A1 1 0 0 1 14.977,10.376 A2.985 2.985 0 0 0 14.251,8.016 A1 1 0 1 1 15.75,6.692"/>
</svg>

