<svg xmlns="http://www.w3.org/2000/svg" width="24" height="24">
  <defs/>
  <path  d="M18,3 A3 3 0 0 1 20.995,5.824 L21,6 L21,18 A3 3 0 0 1 18.176,20.995 L18,21 L6,21 A3 3 0 0 1 3.005,18.176 L3,18 L3,6 A3 3 0 0 1 5.824,3.005 L6,3 Z M18,5 L6,5 A1 1 0 0 0 5.007,5.883 L5,6 L5,18 A1 1 0 0 0 5.883,18.993 L6,19 L18,19 A1 1 0 0 0 18.993,18.117 L19,18 L19,6 A1 1 0 0 0 18.117,5.007 Z M8.5,14 A1.5 1.5 0 1 1 8.5,17 A1.5 1.5 0 0 1 8.5,14 M8,10.5 A5.5 5.5 0 0 1 13.5,16 A1 1 0 1 1 11.5,16 A3.5 3.5 0 0 0 8,12.5 A1 1 0 1 1 8,10.5 M8.5,7 A8.5 8.5 0 0 1 16.981,16.066 A1 1 0 1 1 14.986,15.934 A6.5 6.5 0 0 0 8.066,9.014 A1 1 0 1 1 7.934,7.019 C8.121,7.006 8.31,7 8.5,7"/>
</svg>

