<svg xmlns="http://www.w3.org/2000/svg" width="24" height="24">
  <defs/>
  <path  d="M18,3 C19.589,3 20.902,4.238 20.995,5.824 L21,6 L21,18 C21,19.589 19.762,20.902 18.176,20.995 L18,21 L6,21 C4.411,21 3.098,19.762 3.005,18.176 L3,18 L3,6 C3,4.411 4.238,3.098 5.824,3.005 L6,3 Z M8.5,7 C8.31,7 8.121,7.006 7.934,7.019 C7.394,7.068 6.992,7.54 7.027,8.081 C7.063,8.622 7.524,9.036 8.066,9.014 C9.937,8.889 11.771,9.577 13.097,10.903 C14.423,12.229 15.111,14.063 14.986,15.934 C14.953,16.296 15.119,16.647 15.419,16.852 C15.719,17.056 16.107,17.082 16.431,16.919 C16.756,16.755 16.966,16.429 16.981,16.066 C17.138,13.719 16.314,11.411 14.707,9.693 C13.1,7.975 10.853,7 8.5,7 Z M8,10.5 C7.448,10.5 7,10.948 7,11.5 C7,12.052 7.448,12.5 8,12.5 C9.933,12.5 11.5,14.067 11.5,16 C11.5,16.552 11.948,17 12.5,17 C13.052,17 13.5,16.552 13.5,16 C13.5,12.962 11.038,10.5 8,10.5 Z M8.5,14 C7.672,14 7,14.672 7,15.5 C7,16.328 7.672,17 8.5,17 C9.328,17 10,16.328 10,15.5 C10,14.672 9.328,14 8.5,14 Z"/>
</svg>

