<svg xmlns="http://www.w3.org/2000/svg" width="24" height="24">
  <defs/>
  <path  d="M5.5,17 A1.5 1.5 0 1 1 5.5,20 A1.5 1.5 0 0 1 5.5,17 M5.5,3 C14.06,3 21,9.94 21,18.5 C21,18.679 20.997,18.857 20.991,19.034 A1 1 0 0 1 18.992,18.966 C18.997,18.811 19,18.656 19,18.5 C19,11.044 12.956,5 5.5,5 C5.344,5 5.189,5.003 5.034,5.008 A1 1 0 0 1 4.966,3.009 C5.143,3.003 5.321,3 5.5,3 M5.5,10 A8.5 8.5 0 0 1 13.982,19.066 A1 1 0 0 1 11.986,18.934 A6.5 6.5 0 0 0 5.066,12.014 A1 1 0 1 1 4.934,10.019 C5.121,10.006 5.31,10 5.5,10"/>
</svg>

