<svg xmlns="http://www.w3.org/2000/svg" width="24" height="24">
  <defs/>
  <path  d="M12,2 C12.507,2 12.934,2.38 12.993,2.883 L13,3 L13,4.062 C14.315,4.226 15.568,4.716 16.646,5.487 L16.906,5.68 L17.656,4.929 C18.029,4.553 18.63,4.532 19.028,4.882 C19.425,5.233 19.48,5.832 19.154,6.249 L19.071,6.343 L18.32,7.094 C19.131,8.136 19.671,9.363 19.89,10.665 L19.938,11 L21,11 C21.529,11.001 21.966,11.413 21.997,11.941 C22.028,12.47 21.642,12.931 21.117,12.993 L21,13 L19.938,13 C19.774,14.315 19.284,15.568 18.513,16.646 L18.32,16.906 L19.071,17.656 C19.447,18.029 19.468,18.63 19.118,19.028 C18.767,19.425 18.168,19.48 17.751,19.154 L17.657,19.071 L16.906,18.32 C15.864,19.131 14.637,19.671 13.335,19.89 L13,19.938 L13,21 C12.999,21.529 12.587,21.966 12.059,21.997 C11.53,22.028 11.069,21.642 11.007,21.117 L11,21 L11,19.938 C9.685,19.774 8.432,19.284 7.354,18.513 L7.094,18.32 L6.344,19.071 C5.971,19.447 5.37,19.468 4.972,19.118 C4.575,18.767 4.52,18.168 4.846,17.751 L4.929,17.657 L5.68,16.906 C4.869,15.864 4.329,14.637 4.11,13.335 L4.063,13 L3,13 C2.471,12.999 2.034,12.587 2.003,12.059 C1.972,11.53 2.358,11.069 2.883,11.007 L3,11 L4.062,11 C4.226,9.685 4.716,8.432 5.487,7.354 L5.68,7.094 L4.929,6.344 C4.553,5.971 4.532,5.37 4.882,4.972 C5.233,4.575 5.832,4.52 6.249,4.846 L6.343,4.929 L7.094,5.68 C8.136,4.869 9.363,4.329 10.665,4.11 L11,4.063 L11,3 C11,2.448 11.448,2 12,2 Z M7.109,8.523 C6.584,9.26 6.233,10.107 6.083,11 L9.171,11 C9.206,10.9 9.247,10.802 9.292,10.707 L7.11,8.523 Z M17.917,13 L14.829,13 C14.794,13.1 14.753,13.198 14.708,13.293 L16.891,15.477 C17.416,14.74 17.767,13.893 17.917,13 Z M13,6.083 L13,9.171 C13.1,9.206 13.198,9.247 13.293,9.292 L15.477,7.109 C14.74,6.584 13.893,6.233 13,6.083 Z M11,6.083 C10.107,6.233 9.26,6.584 8.523,7.109 L10.707,9.292 C10.802,9.247 10.9,9.206 11,9.171 Z M9.171,13 L6.083,13 C6.233,13.893 6.584,14.74 7.109,15.477 L9.292,13.293 C9.246,13.198 9.206,13.1 9.171,13 Z M10.707,14.708 L8.523,16.89 C9.26,17.416 10.107,17.767 11,17.917 L11,14.829 C10.9,14.794 10.802,14.754 10.707,14.708 Z M13.293,14.708 L13.149,14.772 L13,14.829 L13,17.917 C13.794,17.784 14.553,17.491 15.231,17.057 L15.477,16.891 Z M16.891,8.523 L14.708,10.707 L14.772,10.851 L14.829,11 L17.917,11 C17.784,10.206 17.491,9.447 17.057,8.769 Z"/>
</svg>

