<svg xmlns="http://www.w3.org/2000/svg" width="24" height="24">
  <defs/>
  <path  d="M13,3 L13,4.062 C14.424,4.239 15.774,4.798 16.906,5.68 L17.657,4.929 C18.048,4.539 18.681,4.539 19.072,4.93 C19.462,5.32 19.462,5.954 19.071,6.344 L18.32,7.094 C19.202,8.226 19.761,9.576 19.938,11 L21,11 C21.552,11 22,11.448 22,12 C22,12.552 21.552,13 21,13 L19.938,13 C19.761,14.424 19.202,15.774 18.32,16.906 L19.071,17.657 C19.45,18.049 19.445,18.673 19.059,19.059 C18.673,19.445 18.049,19.45 17.657,19.071 L16.906,18.32 C15.774,19.202 14.424,19.761 13,19.938 L13,21 C13,21.552 12.552,22 12,22 C11.448,22 11,21.552 11,21 L11,19.938 C9.576,19.761 8.226,19.202 7.094,18.32 L6.343,19.071 C6.092,19.331 5.72,19.435 5.37,19.344 C5.021,19.252 4.748,18.979 4.656,18.63 C4.565,18.28 4.669,17.908 4.929,17.657 L5.68,16.906 C4.798,15.774 4.239,14.424 4.062,13 L3,13 C2.448,13 2,12.552 2,12 C2,11.448 2.448,11 3,11 L4.062,11 C4.239,9.576 4.798,8.226 5.68,7.094 L4.929,6.343 C4.55,5.95 4.556,5.327 4.942,4.941 C5.328,4.556 5.952,4.551 6.344,4.93 L7.094,5.68 C8.226,4.798 9.576,4.239 11,4.062 L11,3 C11,2.448 11.448,2 12,2 C12.552,2 13,2.448 13,3 Z M13.404,10.576 C13.043,10.22 12.547,10 12,10 C11.454,10 10.958,10.219 10.598,10.574 L10.586,10.586 L10.574,10.598 C9.802,11.383 9.81,12.643 10.59,13.419 C11.371,14.195 12.632,14.194 13.412,13.417 C14.191,12.64 14.197,11.38 13.424,10.596 Z M17.917,13 L15.874,13 C15.779,13.367 15.634,13.714 15.446,14.032 L16.891,15.477 C17.416,14.74 17.767,13.893 17.917,13 Z M8.554,14.032 C8.363,13.71 8.219,13.362 8.126,13 L6.083,13 C6.233,13.893 6.584,14.74 7.109,15.477 Z M9.968,8.554 C10.29,8.363 10.638,8.219 11,8.126 L11,6.083 C10.107,6.233 9.26,6.584 8.523,7.109 Z M15.446,9.968 C15.637,10.29 15.781,10.638 15.874,11 L17.917,11 C17.767,10.108 17.416,9.261 16.891,8.524 Z M14.032,15.446 C13.71,15.637 13.362,15.781 13,15.874 L13,17.917 C13.892,17.767 14.739,17.416 15.476,16.891 Z M8.524,16.891 C9.261,17.416 10.108,17.767 11,17.917 L11,15.874 C10.638,15.781 10.29,15.637 9.968,15.446 Z M6.083,11 L8.126,11 C8.219,10.638 8.363,10.29 8.554,9.968 L7.109,8.524 C6.584,9.261 6.233,10.108 6.083,11 Z M13,6.082 L13,8.125 C13.367,8.219 13.714,8.365 14.032,8.553 L15.476,7.109 C14.739,6.583 13.892,6.232 13,6.082 Z"/>
</svg>

