<svg xmlns="http://www.w3.org/2000/svg" width="24" height="24">
  <defs/>
  <path  d="M19,3 C20.047,3 20.917,3.806 20.995,4.85 L21,5 L21,10 C21,11.047 20.194,11.917 19.15,11.995 L19,12 L12,12 L12,19 C12,20.047 11.194,20.917 10.15,20.995 L10,21 L5,21 C3.953,21 3.083,20.194 3.005,19.15 L3,19 L3,5 C3,3.953 3.806,3.083 4.85,3.005 L5,3 Z M16,4 C15.493,4 15.066,4.38 15.007,4.883 L15,5 L15,6 C15.001,6.529 15.413,6.966 15.941,6.997 C16.47,7.028 16.931,6.642 16.993,6.117 L17,6 L17,5 C17,4.448 16.552,4 16,4 Z M8,4 C7.493,4 7.066,4.38 7.007,4.883 L7,5 L7,6 C7.001,6.529 7.413,6.966 7.941,6.997 C8.47,7.028 8.931,6.642 8.993,6.117 L9,6 L9,5 C9,4.448 8.552,4 8,4 Z M12,4 C11.493,4 11.066,4.38 11.007,4.883 L11,5 L11,6 L11.007,6.117 C11.067,6.62 11.493,6.999 12,6.999 C12.507,6.999 12.933,6.62 12.993,6.117 L13,6 L13,5 L12.993,4.883 C12.934,4.38 12.507,4 12,4 Z M6,7 L5,7 C4.471,7.001 4.034,7.413 4.003,7.941 C3.972,8.47 4.358,8.931 4.883,8.993 L5,9 L6,9 C6.529,8.999 6.966,8.587 6.997,8.059 C7.028,7.53 6.642,7.069 6.117,7.007 Z M6,11 L5,11 C4.471,11.001 4.034,11.413 4.003,11.941 C3.972,12.47 4.358,12.931 4.883,12.993 L5,13 L6,13 C6.529,12.999 6.966,12.587 6.997,12.059 C7.028,11.53 6.642,11.069 6.117,11.007 Z M6,15 L5,15 L4.883,15.007 C4.38,15.067 4.001,15.493 4.001,16 C4.001,16.507 4.38,16.933 4.883,16.993 L5,17 L6,17 L6.117,16.993 C6.62,16.933 6.999,16.507 6.999,16 C6.999,15.493 6.62,15.067 6.117,15.007 Z"/>
</svg>

