<svg xmlns="http://www.w3.org/2000/svg" width="24" height="24">
  <defs/>
  <path  d="M5,3 L19,3 C20.105,3 21,3.895 21,5 L21,10 C21,11.105 20.105,12 19,12 L12,12 L12,19 C12,20.105 11.105,21 10,21 L5,21 C3.895,21 3,20.105 3,19 L3,5 C3,3.895 3.895,3 5,3 Z M7,5 L5,5 L5,7 L6,7 C6.552,7 7,7.448 7,8 C7,8.552 6.552,9 6,9 L5,9 L5,11 L6,11 C6.552,11 7,11.448 7,12 C7,12.552 6.552,13 6,13 L5,13 L5,15 L6,15 C6.552,15 7,15.448 7,16 C7,16.552 6.552,17 6,17 L5,17 L5,19 L10,19 L10,11.5 C10,10.672 10.672,10 11.5,10 L19,10 L19,5 L17,5 L17,6 C17,6.552 16.552,7 16,7 C15.448,7 15,6.552 15,6 L15,5 L13,5 L13,6 C13,6.552 12.552,7 12,7 C11.448,7 11,6.552 11,6 L11,5 L9,5 L9,6 C9,6.552 8.552,7 8,7 C7.448,7 7,6.552 7,6 Z"/>
</svg>

