<svg xmlns="http://www.w3.org/2000/svg" width="24" height="24">
  <defs/>
  <path  d="M13,2 A3 3 0 0 1 13.64,7.932 L13.469,7.964 L14.905,10.261 L16.629,9.571 A1 1 0 0 1 17.477,11.379 L17.371,11.429 L15.648,12.118 A2 2 0 0 1 13.305,11.461 L13.209,11.321 L13.046,11.061 L12.44,13.485 A2 2 0 0 1 12.184,14.08 L12.094,14.21 L13.747,15.438 A2 2 0 0 1 14.513,16.64 L14.542,16.822 L14.895,20 L15,20 A1 1 0 0 1 15.117,21.993 L15,22 L14.09,22 A1.1 1.1 0 0 1 13.016,21.139 L12.996,21.022 L12.554,17.043 L9.404,14.703 A1.004 1.004 0 0 1 9.25,14.563 A2.001 2.001 0 0 1 8.527,12.672 L8.56,12.515 L9.354,9.338 L7.784,9.808 L6.949,12.316 A1 1 0 0 1 5.021,11.796 L5.051,11.684 L5.887,9.176 A2 2 0 0 1 7.057,7.946 L7.21,7.893 L10.647,6.862 A3 3 0 0 1 13,2 M9.6,15.2 A1 1 0 0 1 9.8,16.6 L8.584,18.222 A1.5 1.5 0 0 1 6.552,18.57 L4.622,17.283 A1 1 0 0 1 3.292,15.793 L3.787,15.299 A1.01 1.01 0 0 1 5.062,15.172 L7.268,16.643 L8.2,15.4 A1 1 0 0 1 9.6,15.2"/>
</svg>

