<svg xmlns="http://www.w3.org/2000/svg" width="24" height="24">
  <defs/>
  <path  d="M13,2 C14.534,1.997 15.823,3.153 15.988,4.678 C16.152,6.204 15.139,7.607 13.64,7.932 L13.469,7.964 L14.905,10.261 L16.629,9.571 C17.121,9.372 17.683,9.593 17.909,10.074 C18.134,10.554 17.945,11.128 17.477,11.379 L17.371,11.429 L15.648,12.118 C14.808,12.454 13.848,12.185 13.305,11.461 L13.209,11.321 L13.046,11.061 L12.44,13.485 C12.388,13.696 12.301,13.897 12.184,14.08 L12.094,14.21 L13.747,15.438 C14.141,15.731 14.414,16.159 14.513,16.64 L14.542,16.822 L14.895,20 L15,20 C15.529,20.001 15.966,20.413 15.997,20.941 C16.028,21.47 15.642,21.931 15.117,21.993 L15,22 L14.09,22 C13.574,22 13.128,21.642 13.016,21.139 L12.996,21.022 L12.554,17.043 L9.404,14.703 C9.348,14.662 9.296,14.615 9.25,14.563 C8.684,14.11 8.408,13.387 8.527,12.672 L8.56,12.515 L9.354,9.338 L7.784,9.808 L6.949,12.316 C6.782,12.82 6.251,13.106 5.739,12.968 C5.227,12.83 4.912,12.315 5.021,11.796 L5.051,11.684 L5.887,9.176 C6.075,8.613 6.504,8.162 7.057,7.946 L7.21,7.893 L10.647,6.862 C9.933,5.96 9.798,4.729 10.299,3.693 C10.8,2.657 11.849,2 13,2 Z M8.2,15.4 C8.517,14.977 9.107,14.874 9.549,15.163 C9.991,15.453 10.131,16.036 9.869,16.495 L9.8,16.6 L8.584,18.222 C8.14,18.814 7.331,18.994 6.678,18.646 L6.552,18.57 L4.622,17.283 C4.226,17.598 3.657,17.567 3.297,17.211 C2.937,16.855 2.9,16.287 3.21,15.887 L3.293,15.793 L3.787,15.299 C4.093,14.993 4.561,14.916 4.949,15.108 L5.062,15.172 L7.268,16.643 Z M13,4 C12.448,4 12,4.448 12,5 C12,5.552 12.448,6 13,6 C13.552,6 14,5.552 14,5 C14,4.448 13.552,4 13,4 Z"/>
</svg>

