<svg xmlns="http://www.w3.org/2000/svg" width="24" height="24">
  <defs/>
  <path  d="M2,12 C2,6.477 6.477,2 12,2 C17.523,2 22,6.477 22,12 C22,17.523 17.523,22 12,22 C6.477,22 2,17.523 2,12 Z M13,4.062 L13,4.5 C13,5.052 12.552,5.5 12,5.5 C11.448,5.5 11,5.052 11,4.5 L11,4.062 C9.576,4.239 8.226,4.798 7.094,5.68 L7.404,5.99 C7.664,6.241 7.768,6.613 7.677,6.963 C7.585,7.312 7.312,7.585 6.963,7.677 C6.613,7.768 6.241,7.664 5.99,7.404 L5.68,7.094 C4.798,8.226 4.239,9.576 4.062,11 L4.5,11 C5.052,11 5.5,11.448 5.5,12 C5.5,12.552 5.052,13 4.5,13 L4.062,13 C4.52,16.625 7.375,19.48 11,19.938 L11,19.5 C11,18.948 11.448,18.5 12,18.5 C12.552,18.5 13,18.948 13,19.5 L13,19.938 C14.424,19.761 15.774,19.202 16.906,18.32 L16.596,18.01 C16.217,17.618 16.222,16.994 16.608,16.608 C16.994,16.222 17.618,16.217 18.01,16.596 L18.32,16.906 C19.202,15.774 19.761,14.424 19.938,13 L19.5,13 C18.948,13 18.5,12.552 18.5,12 C18.5,11.448 18.948,11 19.5,11 L19.938,11 C19.48,7.375 16.625,4.52 13,4.062 Z M16.466,6.844 C16.916,6.557 17.443,7.083 17.156,7.534 L13.533,13.227 C13.455,13.35 13.35,13.455 13.227,13.533 L7.534,17.156 C7.084,17.443 6.557,16.916 6.844,16.466 L10.466,10.773 C10.545,10.649 10.649,10.545 10.773,10.466 Z"/>
</svg>

