<svg xmlns="http://www.w3.org/2000/svg" width="24" height="24">
  <defs/>
  <path  d="M11,2.05 L11,2.5 C11,3.052 11.448,3.5 12,3.5 C12.552,3.5 13,3.052 13,2.5 L13,2.05 C17.731,2.527 21.473,6.268 21.95,10.999 L21.5,10.999 C20.948,10.999 20.5,11.447 20.5,11.999 C20.5,12.551 20.948,12.999 21.5,12.999 L21.952,12.999 C21.758,14.955 20.99,16.809 19.744,18.329 L19.426,18.01 C19.035,17.619 18.402,17.619 18.011,18.01 C17.62,18.401 17.62,19.034 18.011,19.425 L18.33,19.743 C16.81,20.989 14.956,21.757 13,21.95 L13,21.5 C13,20.948 12.552,20.5 12,20.5 C11.448,20.5 11,20.948 11,21.5 L11,21.95 C6.268,21.474 2.526,17.732 2.049,13 L2.499,13 C3.051,13 3.499,12.552 3.499,12 C3.499,11.448 3.051,11 2.499,11 L2.049,11 C2.243,9.045 3.011,7.19 4.257,5.671 L4.575,5.99 C4.966,6.38 5.6,6.38 5.99,5.989 C6.38,5.598 6.38,4.964 5.989,4.574 L5.67,4.256 C7.19,3.011 9.045,2.243 11,2.05 Z M16.466,6.844 L10.773,10.466 C10.649,10.545 10.545,10.649 10.466,10.773 L6.844,16.466 C6.557,16.916 7.083,17.443 7.534,17.156 L13.227,13.533 C13.35,13.455 13.455,13.35 13.533,13.227 L17.156,7.534 C17.443,7.083 16.916,6.557 16.466,6.844 Z"/>
</svg>

