<svg xmlns="http://www.w3.org/2000/svg" width="24" height="24">
  <defs/>
  <path  d="M20,3 A2 2 0 0 1 22,5 L22,18 A2 2 0 0 1 20,20 L19,20 A1 1 0 1 1 17,20 L7,20 A1 1 0 1 1 5,20 L4,20 A2 2 0 0 1 2,18 L2,5 A2 2 0 0 1 4,3 Z M12,7 A1 1 0 0 0 11.007,7.883 L11,8 L11,8.126 A4.002 4.002 0 0 0 8.082,12.812 L8.145,13.072 L8.035,13.134 A1 1 0 0 0 8.931,14.919 L9.036,14.866 L9.146,14.803 A3.988 3.988 0 0 0 12,16 A3.985 3.985 0 0 0 14.694,14.957 L14.854,14.802 L14.964,14.866 A1 1 0 0 0 16.062,13.198 L15.964,13.134 L15.855,13.071 A4.003 4.003 0 0 0 13.19,8.18 L13,8.126 L13,8 A1 1 0 0 0 12,7 M12,10 A2 2 0 0 1 13.82,12.83 L13.72,13.02 A2 2 0 0 1 10.361,13.147 L10.259,12.985 A2 2 0 0 1 12,10"/>
</svg>

