<svg xmlns="http://www.w3.org/2000/svg" width="24" height="24">
  <defs/>
  <path  d="M11.298,2.195 A2 2 0 0 1 12.53,2.14 L12.702,2.195 L19.702,4.82 A2 2 0 0 1 20.993,6.528 L21,6.693 L21,12.056 A9 9 0 0 1 16.291,19.967 L16.025,20.106 L12.671,21.783 A1.5 1.5 0 0 1 11.473,21.845 L11.329,21.783 L7.975,20.106 A9 9 0 0 1 3.005,12.356 L3,12.056 L3,6.693 A2 2 0 0 1 4.145,4.885 L4.298,4.82 Z M12,4.068 L5,6.693 L5,12.056 A7 7 0 0 0 8.635,18.194 L8.87,18.317 L12,19.882 L15.13,18.317 A7 7 0 0 0 18.995,12.32 L19,12.056 L19,6.693 Z M15.433,8.629 A1 1 0 0 1 16.93,9.949 L16.847,10.043 L11.613,15.278 A1.1 1.1 0 0 1 10.153,15.363 L10.057,15.278 L7.653,12.874 A1 1 0 0 1 8.973,11.376 L9.067,11.459 L10.835,13.227 Z"/>
</svg>

