<svg xmlns="http://www.w3.org/2000/svg" width="24" height="24">
  <defs/>
  <path  d="M11.298,2.195 C11.751,2.025 12.249,2.025 12.702,2.195 L19.702,4.82 C20.483,5.113 21,5.859 21,6.693 L21,12.056 C21,15.465 19.074,18.581 16.025,20.106 L12.671,21.782 C12.249,21.993 11.751,21.993 11.329,21.782 L7.975,20.105 C4.926,18.58 3,15.464 3,12.055 L3,6.694 C2.999,5.86 3.517,5.113 4.298,4.82 Z M13,11.732 C13.784,11.279 14.166,10.357 13.932,9.482 C13.697,8.608 12.905,8 12,8 C11.095,8 10.303,8.608 10.068,9.482 C9.834,10.357 10.216,11.279 11,11.732 L11,15 C11,15.552 11.448,16 12,16 C12.552,16 13,15.552 13,15 Z"/>
</svg>

