<svg xmlns="http://www.w3.org/2000/svg" width="24" height="24">
  <defs/>
  <path  d="M11.298,2.195 C11.693,2.047 12.124,2.028 12.53,2.14 L12.702,2.195 L19.702,4.82 C20.426,5.092 20.929,5.757 20.993,6.528 L21,6.693 L21,12.056 C21,15.357 19.193,18.393 16.291,19.967 L16.025,20.106 L12.671,21.783 C12.298,21.969 11.864,21.992 11.473,21.845 L11.329,21.783 L7.975,20.106 C5.022,18.63 3.115,15.655 3.005,12.356 L3,12.056 L3,6.693 C3,5.92 3.446,5.216 4.145,4.885 L4.298,4.82 Z M12,4.068 L5,6.693 L5,12.056 C5,14.612 6.393,16.965 8.635,18.194 L8.87,18.317 L12,19.882 L15.13,18.317 C17.417,17.174 18.898,14.875 18.995,12.32 L19,12.056 L19,6.693 Z M11.508,7.516 C11.779,7.415 12.074,7.4 12.354,7.473 L12.492,7.516 L15.292,8.566 C15.793,8.754 16.143,9.211 16.194,9.744 L16.2,9.877 L16.2,12.022 C16.2,13.535 15.386,14.932 14.069,15.677 L13.879,15.779 L12.537,16.449 C12.243,16.596 11.902,16.616 11.593,16.505 L11.463,16.45 L10.122,15.779 C8.769,15.102 7.884,13.75 7.806,12.239 L7.8,12.022 L7.8,9.877 C7.8,9.342 8.105,8.854 8.586,8.619 L8.708,8.566 Z M12,9.468 L9.8,10.293 L9.8,12.023 C9.8,12.796 10.206,13.513 10.87,13.91 L11.016,13.99 L12,14.482 L12.984,13.99 C13.676,13.644 14.136,12.96 14.194,12.188 L14.2,12.022 L14.2,10.293 Z"/>
</svg>

