<svg xmlns="http://www.w3.org/2000/svg" width="24" height="24">
  <defs/>
  <path  d="M20,3 C21.105,3 22,3.895 22,5 L22,18 C22,19.105 21.105,20 20,20 L19,20 C19,20.552 18.552,21 18,21 C17.448,21 17,20.552 17,20 L7,20 C7,20.552 6.552,21 6,21 C5.448,21 5,20.552 5,20 L4,20 C2.895,20 2,19.105 2,18 L2,5 C2,3.895 2.895,3 4,3 Z M20,5 L4,5 L4,18 L20,18 Z M12,7 C12.552,7 13,7.448 13,8 L13,8.126 C14.04,8.395 14.928,9.07 15.465,10 C16.001,10.93 16.142,12.036 15.855,13.071 L15.964,13.134 C16.276,13.311 16.469,13.642 16.47,14.001 C16.471,14.36 16.279,14.692 15.968,14.87 C15.657,15.049 15.274,15.047 14.964,14.866 L14.854,14.803 C14.103,15.57 13.074,16.001 12,16 C10.926,16.001 9.897,15.57 9.146,14.803 L9.036,14.866 C8.726,15.047 8.343,15.049 8.032,14.87 C7.721,14.692 7.529,14.36 7.53,14.001 C7.531,13.642 7.724,13.311 8.036,13.134 L8.145,13.071 C7.858,12.036 7.999,10.93 8.536,10 C9.073,9.07 9.961,8.395 11,8.126 L11,8 C11,7.448 11.448,7 12,7 Z M12,10 C11.318,10 10.683,10.347 10.315,10.921 C9.947,11.495 9.897,12.217 10.182,12.836 L10.276,13.014 C10.62,13.6 11.239,13.971 11.918,13.999 C12.597,14.027 13.244,13.708 13.635,13.152 L13.745,12.978 C14.092,12.359 14.085,11.602 13.726,10.989 C13.367,10.376 12.71,10 12,10 Z"/>
</svg>

