<svg xmlns="http://www.w3.org/2000/svg" width="24" height="24">
  <defs/>
  <path  d="M11.298,2.195 A2 2 0 0 1 12.53,2.14 L12.702,2.195 L19.702,4.82 A2 2 0 0 1 20.993,6.528 L21,6.693 L21,12.056 A9 9 0 0 1 16.291,19.967 L16.025,20.106 L12.671,21.783 A1.5 1.5 0 0 1 11.473,21.845 L11.329,21.783 L7.975,20.106 A9 9 0 0 1 3.005,12.356 L3,12.056 L3,6.693 A2 2 0 0 1 4.145,4.885 L4.298,4.82 Z M12,4.068 L5,6.693 L5,12.056 A7 7 0 0 0 8.635,18.194 L8.87,18.317 L12,19.882 L15.13,18.317 A7 7 0 0 0 18.995,12.32 L19,12.056 L19,6.693 Z M11.143,8.152 A1 1 0 0 1 12.912,9.078 L12.857,9.181 L11.767,11.001 L13.982,11.001 C14.728,11.001 15.203,11.773 14.902,12.428 L14.848,12.53 L12.858,15.848 A1 1 0 0 1 11.088,14.922 L11.143,14.819 L12.233,13 L10.018,13 A1.01 1.01 0 0 1 9.098,11.573 L9.152,11.47 Z"/>
</svg>

