<svg xmlns="http://www.w3.org/2000/svg" width="24" height="24">
  <defs/>
  <path  d="M9,9.693 L12,8.568 L15,9.693 L15,12.028 A3 3 0 0 1 13.342,14.711 L12,15.382 L10.658,14.712 A3 3 0 0 1 9,12.027 Z"/>
  <path  d="M12.702,2.195 L19.702,4.821 C20.483,5.114 21,5.86 21,6.694 L21,12.055 C21,15.464 19.074,18.58 16.025,20.105 L12.671,21.782 C12.249,21.993 11.751,21.993 11.329,21.782 L7.975,20.106 C4.926,18.581 3,15.465 3,12.056 L3,6.693 C3,5.859 3.517,5.113 4.298,4.82 L11.298,2.195 C11.751,2.025 12.249,2.025 12.702,2.195 Z M12.527,6.63 C12.187,6.503 11.813,6.503 11.473,6.63 L7.973,7.942 C7.387,8.162 7,8.722 7,9.347 L7,12.027 C7,13.921 8.07,15.653 9.764,16.5 L11.441,17.338 C11.793,17.514 12.207,17.514 12.559,17.338 L14.236,16.5 C15.93,15.653 17,13.922 17,12.028 L17,9.347 C17,8.722 16.613,8.162 16.027,7.942 Z"/>
</svg>

