<svg xmlns="http://www.w3.org/2000/svg" width="24" height="24">
  <defs/>
  <path  d="M12.702,2.195 L19.702,4.82 C20.483,5.113 21,5.859 21,6.693 L21,12.056 C21,15.465 19.074,18.581 16.025,20.106 L12.671,21.782 C12.249,21.993 11.751,21.993 11.329,21.782 L7.975,20.105 C4.926,18.58 3,15.464 3,12.055 L3,6.694 C2.999,5.86 3.517,5.113 4.298,4.82 L11.298,2.195 C11.751,2.025 12.249,2.025 12.702,2.195 Z M12,7 C11.493,7 11.066,7.38 11.007,7.883 L11,8 L11,12 C11.001,12.529 11.413,12.966 11.941,12.997 C12.47,13.028 12.931,12.642 12.993,12.117 L13,12 L13,8 C13,7.448 12.552,7 12,7 Z M12,14 C11.448,14 11,14.448 11,15 C11,15.552 11.448,16 12,16 C12.552,16 13,15.552 13,15 C13,14.448 12.552,14 12,14 Z"/>
</svg>

