<svg xmlns="http://www.w3.org/2000/svg" width="24" height="24">
  <defs/>
  <path  d="M11.298,2.195 C11.693,2.047 12.124,2.027 12.53,2.139 L12.702,2.195 L19.702,4.82 C20.426,5.092 20.929,5.756 20.993,6.527 L21,6.693 L21,12.056 C21,15.357 19.192,18.392 16.291,19.966 L16.025,20.106 L12.671,21.782 C12.298,21.969 11.864,21.992 11.473,21.845 L11.329,21.783 L7.975,20.105 C5.022,18.629 3.115,15.654 3.005,12.355 L3,12.055 L3,6.694 C3,5.921 3.446,5.217 4.145,4.886 L4.298,4.821 Z M11.143,8.152 L9.152,11.47 C8.965,11.782 8.96,12.171 9.139,12.488 C9.318,12.804 9.654,13 10.018,13 L12.234,13 L11.143,14.819 C10.878,15.291 11.036,15.888 11.5,16.166 C11.964,16.444 12.565,16.304 12.857,15.848 L14.848,12.53 C15.035,12.218 15.04,11.829 14.861,11.512 C14.682,11.196 14.346,11 13.982,11 L11.766,11 L12.858,9.181 C13.142,8.707 12.988,8.093 12.514,7.808 C12.041,7.524 11.426,7.678 11.142,8.152 Z"/>
</svg>

