<svg xmlns="http://www.w3.org/2000/svg" width="24" height="24">
  <defs/>
  <path  d="M12.702,2.195 L19.702,4.82 C20.483,5.113 21,5.859 21,6.693 L21,12.056 C21,15.465 19.074,18.581 16.025,20.106 L12.671,21.783 C12.249,21.994 11.751,21.994 11.329,21.783 L7.975,20.106 C4.926,18.581 3,15.465 3,12.056 L3,6.693 C3,5.859 3.517,5.113 4.298,4.82 L11.298,2.195 C11.751,2.025 12.249,2.025 12.702,2.195 Z M13,19.383 L15.13,18.317 C17.502,17.131 19,14.708 19,12.056 L19,6.693 L13,4.443 Z M11,4.443 L5,6.693 L5,12.056 C5,14.707 6.499,17.131 8.87,18.316 L11,19.383 Z"/>
</svg>

