<svg xmlns="http://www.w3.org/2000/svg" width="24" height="24">
  <defs/>
  <path  d="M11.298,2.195 C11.693,2.047 12.124,2.028 12.53,2.14 L12.702,2.195 L19.702,4.82 C20.426,5.092 20.929,5.757 20.993,6.528 L21,6.693 L21,12.056 C21,15.357 19.193,18.393 16.291,19.967 L16.025,20.106 L12.671,21.783 C12.298,21.969 11.864,21.992 11.473,21.845 L11.329,21.783 L7.975,20.106 C5.022,18.63 3.115,15.655 3.005,12.356 L3,12.056 L3,6.693 C3,5.92 3.446,5.216 4.145,4.885 L4.298,4.82 Z M15.433,8.629 L10.835,13.227 L9.067,11.459 C8.676,11.069 8.043,11.069 7.653,11.46 C7.262,11.85 7.262,12.484 7.653,12.874 L10.057,15.278 C10.487,15.708 11.183,15.708 11.613,15.278 L16.847,10.043 C17.107,9.792 17.211,9.42 17.12,9.07 C17.028,8.721 16.755,8.448 16.406,8.356 C16.056,8.265 15.684,8.369 15.433,8.629 Z"/>
</svg>

