<svg xmlns="http://www.w3.org/2000/svg" width="24" height="24">
  <defs/>
  <path  d="M6,2 L18,2 C20.209,2 22,3.791 22,6 L22,18 C22,20.209 20.209,22 18,22 L6,22 C3.791,22 2,20.209 2,18 L2,6 C2,3.791 3.791,2 6,2 Z M17.714,7.286 C17.714,6.734 17.266,6.286 16.714,6.286 L12,6.286 C11.448,6.286 11,6.734 11,7.286 C11,7.838 11.448,8.286 12,8.286 L14.3,8.286 L10.114,12.471 L9.407,11.764 C9.016,11.374 8.383,11.374 7.992,11.764 C7.602,12.155 7.602,12.789 7.993,13.179 L8.7,13.886 L6.579,16.006 C6.188,16.396 6.188,17.03 6.578,17.42 C6.969,17.811 7.602,17.811 7.993,17.421 L10.114,15.3 L10.821,16.007 C11.211,16.398 11.845,16.398 12.236,16.007 C12.626,15.617 12.626,14.984 12.236,14.593 L11.529,13.886 L15.714,9.7 L15.714,12 C15.714,12.552 16.162,13 16.714,13 C17.266,13 17.714,12.552 17.714,12 Z"/>
</svg>

