<svg xmlns="http://www.w3.org/2000/svg" width="24" height="24">
  <defs/>
  <path  d="M11,4.929 C11,4.377 11.448,3.929 12,3.929 L19.071,3.929 C19.623,3.929 20.071,4.377 20.071,4.929 L20.071,11.999 C20.071,12.551 19.623,12.999 19.071,12.999 C18.519,12.999 18.071,12.551 18.071,11.999 L18.071,7.344 L10.586,14.829 L12,16.242 C12.391,16.632 12.391,17.266 12,17.656 C11.61,18.047 10.977,18.047 10.586,17.657 L9.172,16.242 L5.636,19.778 C5.244,20.157 4.62,20.152 4.234,19.766 C3.848,19.38 3.843,18.756 4.222,18.364 L7.757,14.828 L6.343,13.414 C6.083,13.163 5.979,12.791 6.07,12.441 C6.162,12.092 6.435,11.819 6.784,11.727 C7.134,11.636 7.506,11.74 7.757,12 L9.172,13.414 L16.657,5.929 L12,5.929 C11.448,5.929 11,5.481 11,4.929 Z"/>
</svg>

