<svg xmlns="http://www.w3.org/2000/svg" width="24" height="24">
  <defs/>
  <path  d="M12.72,2.04 A1 1 0 0 1 13.844,2.463 L20.844,13.463 A1 1 0 0 1 20,15 L13,15 A1 1 0 0 1 12,14 L12,3 A1 1 0 0 1 12.72,2.04 M3.19,16.415 A1 1 0 0 1 4,16 L20,16 A1 1 0 0 1 20.948,17.32 C20.741,17.93 20.438,18.52 20.082,19.055 C19.542,19.865 18.531,21 17,21 L7,21 C5.47,21 4.458,19.865 3.918,19.055 A7.542 7.542 0 0 1 3.052,17.319 A1.012 1.012 0 0 1 3.189,16.415 Z M9.152,5.47 A1 1 0 0 1 11,6 L11,14 A1 1 0 0 1 10,15 L5,15 A1 1 0 0 1 4.152,13.47 Z"/>
</svg>

