<svg xmlns="http://www.w3.org/2000/svg" width="24" height="24">
  <defs/>
  <path  d="M3.19,16.415 C3.378,16.155 3.679,16 4,16 L20,16 C20.321,16 20.623,16.154 20.811,16.415 C20.999,16.676 21.051,17.011 20.949,17.316 C20.738,17.931 20.446,18.516 20.082,19.055 C19.542,19.865 18.531,21 17,21 L7,21 C5.47,21 4.458,19.865 3.918,19.055 C3.555,18.516 3.263,17.932 3.052,17.318 C2.951,17.012 3.002,16.677 3.189,16.415 Z M12.72,2.04 C13.147,1.915 13.605,2.088 13.844,2.463 L20.844,13.463 C21.04,13.771 21.053,14.161 20.877,14.481 C20.701,14.801 20.365,15 20,15 L13,15 C12.448,15 12,14.552 12,14 L12,3 C12,2.556 12.293,2.164 12.72,2.04 Z M9.152,5.47 C9.388,5.092 9.847,4.916 10.276,5.039 C10.705,5.162 11,5.554 11,6 L11,14 C11,14.552 10.552,15 10,15 L5,15 C4.636,15 4.302,14.803 4.125,14.485 C3.949,14.167 3.959,13.778 4.152,13.47 Z M14,6.434 L14,13 L18.178,13 Z M5.619,18 C6.069,18.654 6.544,19 7,19 L17,19 C17.457,19 17.932,18.654 18.381,18 Z M9,13 L9,9.487 L6.804,13 Z"/>
</svg>

