<svg xmlns="http://www.w3.org/2000/svg" width="24" height="24">
  <defs/>
  <path  d="M9.405,2.897 C10.838,1.676 12.928,1.619 14.425,2.761 L14.595,2.897 L14.971,3.217 C15.245,3.451 15.576,3.606 15.931,3.667 L16.109,3.689 L16.602,3.729 C18.484,3.879 20.005,5.325 20.25,7.197 L20.271,7.397 L20.311,7.891 C20.339,8.249 20.464,8.593 20.671,8.887 L20.781,9.029 L21.103,9.405 C22.324,10.838 22.381,12.928 21.239,14.425 L21.103,14.595 L20.782,14.971 C20.548,15.245 20.393,15.576 20.332,15.931 L20.31,16.109 L20.271,16.602 C20.121,18.484 18.675,20.005 16.803,20.25 L16.602,20.271 L16.109,20.311 C15.751,20.339 15.407,20.464 15.113,20.671 L14.971,20.782 L14.594,21.102 C13.161,22.323 11.071,22.38 9.574,21.239 L9.405,21.103 L9.029,20.782 C8.755,20.548 8.424,20.393 8.069,20.332 L7.891,20.311 L7.398,20.271 C5.516,20.121 3.995,18.675 3.75,16.803 L3.729,16.603 L3.689,16.109 C3.661,15.751 3.536,15.407 3.329,15.113 L3.218,14.971 L2.897,14.594 C1.676,13.161 1.619,11.071 2.761,9.574 L2.897,9.405 L3.217,9.029 C3.451,8.755 3.606,8.424 3.667,8.069 L3.689,7.891 L3.729,7.398 C3.879,5.516 5.325,3.995 7.197,3.75 L7.397,3.729 L7.891,3.689 C8.249,3.661 8.593,3.536 8.887,3.329 L9.029,3.218 Z M14.293,8.293 L8.293,14.293 C8.033,14.544 7.929,14.916 8.02,15.266 C8.112,15.615 8.385,15.888 8.734,15.98 C9.084,16.071 9.456,15.967 9.707,15.707 L15.707,9.707 C16.086,9.315 16.081,8.691 15.695,8.305 C15.309,7.919 14.685,7.914 14.293,8.293 Z M14.5,13 C13.672,13 13,13.672 13,14.5 C13,15.328 13.672,16 14.5,16 C15.328,16 16,15.328 16,14.5 C16,13.672 15.328,13 14.5,13 Z M9.5,8 C8.672,8 8,8.672 8,9.5 C8,10.328 8.672,11 9.5,11 C10.328,11 11,10.328 11,9.5 C11,8.672 10.328,8 9.5,8 Z"/>
</svg>

