<svg xmlns="http://www.w3.org/2000/svg" width="24" height="24">
  <defs/>
  <path  d="M14.594,2.897 L14.971,3.218 C15.291,3.491 15.69,3.656 16.109,3.689 L16.602,3.728 C18.56,3.884 20.115,5.44 20.271,7.398 L20.31,7.891 C20.344,8.311 20.509,8.709 20.782,9.029 L21.102,9.405 C22.376,10.9 22.376,13.099 21.102,14.594 L20.782,14.971 C20.509,15.291 20.344,15.689 20.31,16.109 L20.272,16.602 C20.116,18.56 18.56,20.115 16.602,20.271 L16.109,20.311 C15.69,20.344 15.291,20.509 14.971,20.782 L14.595,21.102 C13.1,22.377 10.9,22.377 9.405,21.102 L9.029,20.782 C8.709,20.509 8.31,20.344 7.891,20.311 L7.398,20.272 C5.44,20.116 3.885,18.56 3.729,16.602 L3.689,16.109 C3.655,15.689 3.49,15.291 3.217,14.971 L2.897,14.595 C1.622,13.1 1.622,10.9 2.897,9.405 L3.218,9.029 C3.491,8.709 3.656,8.31 3.689,7.891 L3.728,7.398 C3.884,5.44 5.44,3.885 7.398,3.729 L7.891,3.689 C8.311,3.655 8.709,3.49 9.029,3.217 L9.405,2.897 C10.9,1.623 13.099,1.623 14.594,2.897 Z M10.703,4.42 L10.326,4.741 C9.685,5.287 8.889,5.617 8.05,5.684 L7.557,5.723 C6.578,5.801 5.801,6.579 5.723,7.558 L5.683,8.051 C5.616,8.89 5.286,9.686 4.74,10.327 L4.42,10.704 C3.783,11.451 3.783,12.551 4.42,13.298 L4.74,13.675 C5.286,14.316 5.615,15.112 5.682,15.951 L5.722,16.444 C5.8,17.423 6.578,18.2 7.557,18.278 L8.05,18.318 C8.889,18.385 9.685,18.715 10.326,19.261 L10.703,19.581 C11.45,20.218 12.55,20.218 13.297,19.581 L13.674,19.261 C14.315,18.715 15.111,18.385 15.95,18.318 L16.443,18.278 C17.422,18.2 18.199,17.423 18.277,16.444 L18.317,15.951 C18.384,15.112 18.714,14.316 19.26,13.675 L19.58,13.298 C20.217,12.551 20.217,11.451 19.58,10.704 L19.26,10.327 C18.714,9.686 18.384,8.89 18.317,8.051 L18.277,7.558 C18.199,6.579 17.422,5.802 16.443,5.724 L15.95,5.684 C15.111,5.617 14.315,5.287 13.674,4.741 L13.297,4.42 C12.55,3.783 11.45,3.783 10.703,4.42 Z M15.707,9.708 L9.707,15.708 C9.456,15.968 9.084,16.072 8.734,15.981 C8.385,15.889 8.112,15.616 8.02,15.267 C7.929,14.917 8.033,14.545 8.293,14.294 L14.293,8.294 C14.544,8.034 14.916,7.93 15.266,8.021 C15.615,8.113 15.888,8.386 15.98,8.735 C16.071,9.085 15.967,9.457 15.707,9.708 Z M14.5,16 C13.672,16 13,15.328 13,14.5 C13,13.672 13.672,13 14.5,13 C15.328,13 16,13.672 16,14.5 C16,15.328 15.328,16 14.5,16 Z M11,9.5 C11,10.328 10.328,11 9.5,11 C8.672,11 8,10.328 8,9.5 C8,8.672 8.672,8 9.5,8 C10.328,8 11,8.672 11,9.5 Z"/>
</svg>

