<svg xmlns="http://www.w3.org/2000/svg" width="24" height="24">
  <defs/>
  <path  d="M5,4 C5,2.895 5.895,2 7,2 L17,2 C18.105,2 19,2.895 19,4 L19,5.86 C19,7.532 18.164,9.093 16.773,10.02 L13.803,12 L16.773,13.98 C18.164,14.907 19,16.468 19,18.14 L19,20 C19,21.105 18.105,22 17,22 L7,22 C5.895,22 5,21.105 5,20 L5,18.14 C5,16.468 5.835,14.907 7.226,13.98 L10.198,12 L7.228,10.02 C5.837,9.093 5,7.532 5,5.86 Z M12,10.798 L15.664,8.355 C16.498,7.799 17,6.863 17,5.86 L17,4 L7,4 L7,5.86 C7,6.863 7.502,7.799 8.336,8.355 Z M12,13.202 L8.336,15.645 C7.502,16.201 7,17.137 7,18.14 L7,20 L17,20 L17,18.14 C17,17.137 16.498,16.201 15.664,15.645 Z"/>
</svg>

