<svg xmlns="http://www.w3.org/2000/svg" width="24" height="24">
  <defs/>
  <path  d="M18.5,6 A3.5 3.5 0 1 1 18.5,13 L3,13 A1 1 0 1 1 3,11 L18.5,11 A1.5 1.5 0 1 0 17.064,9.064 L17.03,9.199 A1 1 0 1 1 15.07,8.801 A3.5 3.5 0 0 1 18.5,6 M11,3 A3 3 0 1 1 11,9 L5,9 A1 1 0 0 1 5,7 L11,7 A1 1 0 1 0 10.197,5.404 L10.133,5.501 A1 1 0 0 1 8.402,4.499 A3 3 0 0 1 11,3 M5,3 A1 1 0 1 1 5,5 A1 1 0 0 1 5,3 M17,3 A1 1 0 1 1 17,5 A1 1 0 0 1 17,3 M9,19 A1 1 0 1 1 9,21 A1 1 0 0 1 9,19 M14.5,15 A2.5 2.5 0 1 1 12.833,19.363 A1 1 0 0 1 14.068,17.795 L14.167,17.873 A0.5 0.5 0 1 0 14.5,17 L7,17 A1 1 0 1 1 7,15 Z M21,17 A1 1 0 1 1 19,17 A1 1 0 0 1 21,17"/>
</svg>

