<svg xmlns="http://www.w3.org/2000/svg" width="24" height="24">
  <defs/>
  <path  d="M5,4 C5,2.895 5.895,2 7,2 L17,2 C18.105,2 19,2.895 19,4 L19,5 C19,6.441 18.391,7.984 17.6,9.316 C17.02,10.289 16.326,11.19 15.533,12 C16.325,12.81 17.018,13.711 17.598,14.684 C18.391,16.016 19,17.56 19,19 L19,20 C19,21.105 18.105,22 17,22 L7,22 C5.895,22 5,21.105 5,20 L5,19 C5,17.559 5.609,16.016 6.4,14.684 C6.98,13.711 7.674,12.81 8.467,12 C7.711,11.233 6.987,10.3 6.402,9.316 C5.609,7.984 5,6.44 5,5 Z M17,4 L7,4 L7,5 C7,5.929 7.414,7.107 8.12,8.294 C8.816,9.464 9.729,10.53 10.578,11.227 C10.809,11.417 10.944,11.701 10.944,12 C10.944,12.299 10.809,12.583 10.578,12.773 C9.728,13.47 8.816,14.536 8.12,15.706 C7.414,16.893 7,18.071 7,19 L7,20 L17,20 L17,19 C17,18.071 16.586,16.893 15.88,15.706 C15.184,14.536 14.271,13.47 13.422,12.773 C13.191,12.583 13.056,12.299 13.056,12 C13.056,11.701 13.191,11.417 13.422,11.227 C14.272,10.53 15.184,9.464 15.88,8.294 C16.586,7.107 17,5.929 17,5 Z"/>
</svg>

