<svg xmlns="http://www.w3.org/2000/svg" width="24" height="24">
  <defs/>
  <path  d="M18.5,5.5 A4 4 0 0 1 18.5,13.5 L3,13.5 A1.5 1.5 0 0 1 3,10.5 L18.5,10.5 A1 1 0 1 0 17.773,8.813 L17.7,8.9 A1.5 1.5 0 1 1 15.302,7.098 A3.996 3.996 0 0 1 18.5,5.5 M11,2.5 A3.5 3.5 0 1 1 11,9.5 L5,9.5 A1.5 1.5 0 1 1 5,6.5 L11,6.5 A0.5 0.5 0 1 0 10.751,5.566 A1.5 1.5 0 1 1 9.25,2.969 A3.49 3.49 0 0 1 11,2.5 M5,3 A1 1 0 1 1 5,5 A1 1 0 0 1 5,3 M17,3 A1 1 0 1 1 17,5 A1 1 0 0 1 17,3 M9,19 A1 1 0 1 1 9,21 A1 1 0 0 1 9,19 M14.5,14.5 A3 3 0 1 1 13.5,20.329 A1.5 1.5 0 0 1 13.501,17.5 L7,17.5 A1.5 1.5 0 0 1 7,14.5 Z M21,17 A1 1 0 1 1 19,17 A1 1 0 0 1 21,17"/>
</svg>

