<svg xmlns="http://www.w3.org/2000/svg" width="24" height="24">
  <defs/>
  <path  d="M6,2 L15.586,2 C16.116,2 16.625,2.211 17,2.586 L19.414,5 C19.789,5.375 20,5.884 20,6.414 L20,20 C20,21.105 19.105,22 18,22 L6,22 C4.895,22 4,21.105 4,20 L4,4 C4,2.895 4.895,2 6,2 Z M16.238,10.793 C16.498,10.542 16.602,10.17 16.511,9.82 C16.419,9.471 16.146,9.198 15.797,9.106 C15.447,9.015 15.075,9.119 14.824,9.379 L10.582,13.622 L9.167,12.207 C8.775,11.828 8.151,11.833 7.765,12.219 C7.379,12.605 7.374,13.229 7.753,13.621 L9.803,15.672 C10.233,16.102 10.929,16.102 11.359,15.672 L16.239,10.793 Z"/>
</svg>

