<svg xmlns="http://www.w3.org/2000/svg" width="24" height="24">
  <defs/>
  <path  d="M15.586,3 C16.116,3 16.625,3.211 17,3.586 L19.414,6 C19.789,6.375 20,6.884 20,7.414 L20,19 C20,20.105 19.105,21 18,21 L5,21 C3.895,21 3,20.105 3,19 L3,5 C3,3.895 3.895,3 5,3 Z M8,5 L5,5 L5,19 L7,19 L7,14 C7,12.895 7.895,12 9,12 L14,12 C15.105,12 16,12.895 16,14 L16,19 L18,19 L18,7.414 L15.586,5 L15,5 L15,7.5 C15,8.328 14.328,9 13.5,9 L9.5,9 C8.672,9 8,8.328 8,7.5 Z M14,14 L9,14 L9,19 L14,19 Z M13,5 L10,5 L10,7 L13,7 Z"/>
</svg>

