<svg xmlns="http://www.w3.org/2000/svg" width="24" height="24">
  <defs/>
  <path  d="M13.17,3 A3.013 3.013 0 0 0 13.76,5.997 L11.997,7.76 A3 3 0 0 0 7,10 L7,13.749 A3.25 3.25 0 0 0 10.25,17 L14,17 A3 3 0 0 0 16.24,12.004 L18.004,10.239 A2.997 2.997 0 0 0 21.001,10.829 L20.999,19 A2 2 0 0 1 18.999,21 L5,21 A2 2 0 0 1 3,19 L3,5 A2 2 0 0 1 5,3 Z M19.75,3 C20.44,3 21,3.56 21,4.25 L21,8 A1 1 0 1 1 19,8 L19,6.414 L12.414,13 L14,13 A1 1 0 1 1 14,15 L10.25,15 C9.56,15 9,14.44 9,13.75 L9,10 A1 1 0 0 1 11,10 L11,11.586 L17.586,5 L16,5 A1 1 0 1 1 16,3 Z"/>
</svg>

