<svg xmlns="http://www.w3.org/2000/svg" width="24" height="24">
  <defs/>
  <path  d="M11,3 A1 1 0 0 1 11.117,4.993 L11,5 L5,5 L5,19 L19,19 L19,13 A1 1 0 0 1 20.993,12.883 L21,13 L21,19 A2 2 0 0 1 19.15,20.995 L19,21 L5,21 A2 2 0 0 1 3.005,19.15 L3,19 L3,5 A2 2 0 0 1 4.85,3.005 L5,3 Z M19.75,3 C20.44,3 21,3.56 21,4.25 L21,8 A1 1 0 1 1 19,8 L19,6.414 L12.414,13 L14,13 A1 1 0 1 1 14,15 L10.25,15 C9.56,15 9,14.44 9,13.75 L9,10 A1 1 0 0 1 11,10 L11,11.586 L17.586,5 L16,5 A1 1 0 1 1 16,3 Z"/>
</svg>

