<svg xmlns="http://www.w3.org/2000/svg" width="24" height="24">
  <defs/>
  <path  d="M12,4 C8.277,4 5.047,6.568 4.207,10.195 C3.367,13.822 5.14,17.548 8.483,19.185 C11.827,20.822 15.857,19.936 18.207,17.049 C20.556,14.161 20.603,10.034 18.32,7.094 L12.707,12.707 C12.315,13.086 11.691,13.081 11.305,12.695 C10.919,12.309 10.914,11.685 11.293,11.293 L17.65,4.936 C18.045,4.541 18.684,4.541 19.079,4.936 C20.952,6.809 22.003,9.351 22,12 C22,17.523 17.523,22 12,22 C6.477,22 2,17.523 2,12 C2,6.477 6.477,2 12,2 C12.962,2 13.894,2.136 14.777,2.391 C15.308,2.544 15.614,3.098 15.461,3.629 C15.308,4.16 14.754,4.466 14.223,4.313 C13.5,4.105 12.752,3.999 12,4 Z"/>
</svg>

