<svg xmlns="http://www.w3.org/2000/svg" width="24" height="24">
  <defs/>
  <path  d="M4,15 A1 1 0 0 1 4.993,15.883 L5,16 L5,19 L9,19 A1 1 0 0 1 9.117,20.993 L9,21 L5,21 A2 2 0 0 1 3.005,19.15 L3,19 L3,16 A1 1 0 0 1 4,15 M20,15 A1 1 0 0 1 21,16 L21,19 A2 2 0 0 1 19,21 L15,21 A1 1 0 1 1 15,19 L19,19 L19,16 A1 1 0 0 1 20,15 M20,11 A1 1 0 0 1 20.117,12.993 L20,13 L4,13 A1 1 0 0 1 3.883,11.007 L4,11 Z M9,3 A1 1 0 0 1 9,5 L5,5 L5,8 A1 1 0 0 1 3,8 L3,5 A2 2 0 0 1 5,3 Z M19,3 A2 2 0 0 1 21,5 L21,8 A1 1 0 1 1 19,8 L19,5 L15,5 A1 1 0 1 1 15,3 Z"/>
</svg>

