<svg xmlns="http://www.w3.org/2000/svg" width="24" height="24">
  <defs/>
  <path  d="M12,4.5 C8.563,4.501 5.567,6.837 4.728,10.17 C3.89,13.503 5.423,16.979 8.45,18.606 C11.477,20.233 15.223,19.595 17.54,17.057 C19.857,14.519 20.153,10.731 18.258,7.864 L13.06,13.06 C12.474,13.646 11.524,13.646 10.938,13.06 C10.352,12.474 10.352,11.524 10.938,10.938 L17.295,4.581 C17.579,4.298 17.963,4.139 18.364,4.139 C18.765,4.139 19.149,4.299 19.432,4.583 C21.399,6.55 22.503,9.218 22.5,12 C22.5,17.799 17.799,22.5 12,22.5 C6.201,22.5 1.5,17.799 1.5,12 C1.5,6.201 6.201,1.5 12,1.5 C13.01,1.5 13.988,1.643 14.916,1.91 C15.712,2.14 16.171,2.971 15.941,3.767 C15.712,4.564 14.88,5.023 14.084,4.793 C13.407,4.598 12.705,4.499 12,4.5 Z"/>
</svg>

