<svg xmlns="http://www.w3.org/2000/svg" width="24" height="24">
  <defs/>
  <path  d="M4,14.5 A1.5 1.5 0 0 1 5.5,16 L5.5,18.5 L9,18.5 A1.5 1.5 0 0 1 9,21.5 L5,21.5 A2.5 2.5 0 0 1 2.5,19 L2.5,16 A1.5 1.5 0 0 1 4,14.5 M20,14.5 A1.5 1.5 0 0 1 21.493,15.856 L21.5,16 L21.5,19 A2.5 2.5 0 0 1 19.164,21.495 L19,21.5 L15,21.5 A1.5 1.5 0 0 1 14.856,18.507 L15,18.5 L18.5,18.5 L18.5,16 A1.5 1.5 0 0 1 20,14.5 M20,10.5 A1.5 1.5 0 0 1 20.144,13.493 L20,13.5 L4,13.5 A1.5 1.5 0 0 1 3.856,10.507 L4,10.5 Z M9,2.5 A1.5 1.5 0 0 1 9.144,5.493 L9,5.5 L5.5,5.5 L5.5,8 A1.5 1.5 0 0 1 2.507,8.144 L2.5,8 L2.5,5 A2.5 2.5 0 0 1 4.836,2.505 L5,2.5 Z M19,2.5 A2.5 2.5 0 0 1 21.495,4.836 L21.5,5 L21.5,8 A1.5 1.5 0 0 1 18.507,8.144 L18.5,8 L18.5,5.5 L15,5.5 A1.5 1.5 0 0 1 14.856,2.507 L15,2.5 Z"/>
</svg>

