<svg xmlns="http://www.w3.org/2000/svg" width="24" height="24">
  <defs/>
  <path  d="M8.828,3 A3 3 0 0 0 6.708,3.879 L3.707,6.879 A3 3 0 0 0 3.707,11.121 L5.172,12.586 A1 1 0 0 0 6.586,12.586 L10.586,8.586 A1 1 0 0 0 10.586,7.172 L8.478,5.064 A1 1 0 0 1 8.828,5 L15.172,5 A1 1 0 0 1 15.522,5.064 L8.292,12.293 A3.817 3.817 0 0 0 7.172,15.023 A3.812 3.812 0 0 0 8.293,17.708 A3.821 3.821 0 0 0 11.394,18.808 L12.793,20.208 A1 1 0 0 0 14.207,18.793 L13.398,17.984 C13.505,17.898 13.608,17.806 13.708,17.707 L14,17.414 L15.293,18.707 A1 1 0 0 0 16.707,17.293 L15.414,16 L16,15.414 L17.793,17.207 A1 1 0 0 0 19.207,15.793 L17.414,14 L20.293,11.121 A3 3 0 0 0 20.293,6.879 L17.293,3.879 A3 3 0 0 0 15.172,3 Z"/>
</svg>

