<svg xmlns="http://www.w3.org/2000/svg" width="24" height="24">
  <defs/>
  <path  d="M8.828,3 L15.172,3 C15.968,3 16.731,3.316 17.293,3.879 L20.293,6.879 C21.464,8.05 21.464,9.95 20.293,11.121 L17.414,14 L19.207,15.793 C19.586,16.185 19.581,16.809 19.195,17.195 C18.809,17.581 18.185,17.586 17.793,17.207 L16,15.414 L15.414,16 L16.707,17.293 C17.086,17.685 17.081,18.309 16.695,18.695 C16.309,19.081 15.685,19.086 15.293,18.707 L14,17.414 L13.708,17.707 C13.608,17.806 13.505,17.898 13.398,17.984 L14.207,18.793 C14.598,19.183 14.598,19.817 14.208,20.208 C13.817,20.598 13.184,20.598 12.793,20.208 L11.394,18.808 C10.247,18.928 9.107,18.523 8.292,17.707 C7.476,16.892 7.072,15.753 7.192,14.606 L3.707,11.121 C2.536,9.95 2.536,8.05 3.707,6.879 L6.708,3.879 C7.27,3.317 8.033,3 8.828,3 Z M18.878,9.707 C19.268,9.316 19.268,8.684 18.878,8.293 L15.878,5.293 C15.691,5.106 15.437,5 15.172,5 L8.829,5 C8.564,5 8.309,5.105 8.122,5.293 L5.122,8.293 C4.732,8.684 4.732,9.316 5.122,9.707 L8.017,12.601 C8.102,12.495 8.195,12.391 8.294,12.293 L10.586,10 L9.293,8.707 C8.914,8.315 8.919,7.691 9.305,7.305 C9.691,6.919 10.315,6.914 10.707,7.293 L12,8.586 L14.293,6.293 C14.544,6.033 14.916,5.929 15.266,6.02 C15.615,6.112 15.888,6.385 15.98,6.734 C16.071,7.084 15.967,7.456 15.707,7.707 L9.707,13.707 C8.993,14.421 8.993,15.579 9.707,16.293 C10.421,17.007 11.579,17.007 12.293,16.293 Z"/>
</svg>

