<svg xmlns="http://www.w3.org/2000/svg" width="24" height="24">
  <defs/>
  <path  d="M11.063,2.469 C11.568,2.065 12.274,2.03 12.816,2.382 L12.937,2.469 L17.249,5.919 C17.674,6.259 17.942,6.757 17.992,7.299 L18,7.48 L18,19 L19,19 L19,10.5 C19,10.259 19.172,10.051 19.41,10.008 L19.5,10 L20,10 C21.047,10 21.917,10.806 21.995,11.85 L22,12 L22,19.9 C22,20.461 21.578,20.932 21.02,20.993 L20.9,21 L3.1,21 C2.539,21 2.067,20.578 2.006,20.02 L2,19.9 L2,12 C2,10.953 2.806,10.083 3.85,10.005 L4,10 L4.5,10 C4.741,10 4.949,10.172 4.992,10.41 L5,10.5 L5,19 L6,19 L6,7.48 C6,6.936 6.222,6.415 6.614,6.038 L6.751,5.918 Z M12,8.999 C10.895,8.999 10,9.894 10,10.999 C10,12.104 10.895,12.999 12,12.999 C13.105,12.999 14,12.104 14,10.999 C14,9.894 13.105,8.999 12,8.999 Z"/>
</svg>

