<svg xmlns="http://www.w3.org/2000/svg" width="24" height="24">
  <defs/>
  <path  d="M11.063,2.469 C11.568,2.065 12.274,2.03 12.816,2.382 L12.937,2.469 L17.249,5.919 C17.674,6.259 17.942,6.757 17.992,7.299 L18,7.48 L18,10 L20,10 C21.047,10 21.917,10.806 21.995,11.85 L22,12 L22,19.9 C22,20.461 21.578,20.933 21.02,20.994 L20.9,21 L3.1,21 C2.539,21 2.067,20.578 2.006,20.02 L2,19.9 L2,12 C2,10.953 2.806,10.083 3.85,10.005 L4,10 L6,10 L6,7.48 C6,6.936 6.222,6.415 6.614,6.038 L6.751,5.918 Z M12,4.28 L8,7.48 L8,19 L16,19 L16,7.48 Z M12,8 C13.657,8 15,9.343 15,11 C15,12.657 13.657,14 12,14 C10.343,14 9,12.657 9,11 C9,9.343 10.343,8 12,8 Z M6,12 L4,12 L4,19 L6,19 Z M20,12 L18,12 L18,19 L20,19 Z M12,10 C11.448,10 11,10.448 11,11 C11,11.552 11.448,12 12,12 C12.552,12 13,11.552 13,11 C13,10.448 12.552,10 12,10 Z"/>
</svg>

