<svg xmlns="http://www.w3.org/2000/svg" width="24" height="24">
  <defs/>
  <path  d="M4.222,4.222 C5.575,2.869 7.612,2.755 9.655,3.4 A12.26 12.26 0 0 1 12,4.444 C12.803,3.988 13.59,3.639 14.345,3.4 C16.389,2.754 18.425,2.869 19.778,4.222 C21.131,5.575 21.246,7.612 20.6,9.655 A12.26 12.26 0 0 1 19.556,12 C20.012,12.803 20.361,13.59 20.6,14.345 C21.246,16.388 21.131,18.425 19.778,19.778 C18.426,21.131 16.388,21.246 14.345,20.6 A12.258 12.258 0 0 1 12,19.556 C11.197,20.012 10.41,20.361 9.655,20.6 C7.612,21.245 5.575,21.13 4.222,19.778 C2.869,18.425 2.755,16.388 3.4,14.345 C3.639,13.589 3.988,12.803 4.444,12 A12.258 12.258 0 0 1 3.4,9.655 C2.755,7.612 2.87,5.575 4.222,4.222 M5.711,13.909 A9.108 9.108 0 0 0 5.307,14.948 C4.771,16.645 5.037,17.764 5.637,18.364 C6.236,18.964 7.355,19.229 9.052,18.693 C9.385,18.588 9.732,18.453 10.092,18.289 A22.771 22.771 0 0 1 7.758,16.243 A22.782 22.782 0 0 1 5.711,13.909 M18.29,13.909 A22.78 22.78 0 0 1 16.243,16.243 A22.772 22.772 0 0 1 13.909,18.29 C14.268,18.453 14.615,18.588 14.948,18.693 C16.646,19.229 17.764,18.963 18.364,18.364 C18.964,17.764 19.23,16.646 18.694,14.948 A9.1 9.1 0 0 0 18.29,13.908 Z M12,10.5 A1.5 1.5 0 1 0 12,13.5 A1.5 1.5 0 0 0 12,10.5 M14.948,5.307 A9.11 9.11 0 0 0 13.908,5.711 A22.7 22.7 0 0 1 16.243,7.757 A22.787 22.787 0 0 1 18.29,10.091 C18.454,9.732 18.588,9.385 18.693,9.052 C19.23,7.354 18.964,6.236 18.364,5.636 C17.764,5.036 16.646,4.771 14.948,5.307 M5.636,5.637 C5.036,6.236 4.771,7.354 5.307,9.052 C5.412,9.385 5.547,9.732 5.711,10.092 C6.301,9.312 6.984,8.531 7.758,7.757 A22.777 22.777 0 0 1 10.091,5.711 A9.11 9.11 0 0 0 9.052,5.307 C7.355,4.771 6.236,5.037 5.636,5.637"/>
</svg>

