<svg xmlns="http://www.w3.org/2000/svg" width="24" height="24">
  <defs/>
  <path  d="M9.655,3.4 C10.471,3.665 11.257,4.015 12,4.444 C12.743,4.015 13.529,3.665 14.345,3.4 C16.389,2.754 18.425,2.869 19.778,4.222 C21.131,5.575 21.246,7.612 20.6,9.655 C20.335,10.471 19.985,11.257 19.556,12 C20.012,12.803 20.361,13.59 20.6,14.345 C21.246,16.388 21.131,18.425 19.778,19.778 C18.426,21.131 16.388,21.246 14.345,20.6 C13.529,20.335 12.743,19.985 12,19.556 C11.257,19.985 10.471,20.335 9.655,20.6 C7.612,21.245 5.575,21.131 4.222,19.778 C2.869,18.425 2.755,16.388 3.4,14.345 C3.639,13.589 3.988,12.803 4.444,12 C4.015,11.257 3.665,10.471 3.4,9.655 C2.755,7.611 2.87,5.575 4.222,4.222 C5.575,2.869 7.612,2.754 9.655,3.4 Z M12,6.8 C10.985,7.501 10.039,8.295 9.172,9.172 C8.295,10.039 7.501,10.985 6.8,12 C7.5,13.015 8.293,13.961 9.17,14.828 C10.133,15.791 11.086,16.578 12,17.2 C13.015,16.499 13.961,15.705 14.828,14.828 C15.705,13.961 16.499,13.015 17.199,12 C16.499,10.985 15.706,10.039 14.829,9.172 C13.962,8.295 13.015,7.501 12,6.8 Z M5.71,13.909 C5.555,14.247 5.42,14.594 5.307,14.948 C4.771,16.646 5.037,17.764 5.637,18.364 C6.236,18.964 7.355,19.229 9.052,18.693 C9.386,18.588 9.732,18.453 10.092,18.289 C9.268,17.661 8.489,16.977 7.758,16.243 C7.023,15.512 6.339,14.733 5.711,13.909 Z M5.636,5.636 C5.036,6.236 4.771,7.354 5.307,9.052 C5.412,9.385 5.547,9.732 5.711,10.092 C6.301,9.312 6.984,8.531 7.758,7.757 C8.488,7.023 9.268,6.339 10.091,5.711 C9.753,5.555 9.406,5.42 9.052,5.307 C7.355,4.771 6.236,5.037 5.636,5.636 Z M18.29,13.909 C17.7,14.687 17.016,15.469 16.243,16.243 C15.512,16.977 14.733,17.661 13.909,18.289 C14.268,18.453 14.615,18.588 14.948,18.693 C16.646,19.229 17.764,18.963 18.364,18.363 C18.964,17.764 19.23,16.645 18.694,14.948 C18.581,14.593 18.446,14.246 18.29,13.908 Z M14.948,5.307 C14.615,5.412 14.268,5.547 13.909,5.711 C14.687,6.301 15.469,6.984 16.243,7.757 C16.978,8.488 17.662,9.267 18.29,10.091 C18.454,9.732 18.588,9.385 18.693,9.052 C19.23,7.354 18.964,6.236 18.364,5.636 C17.764,5.036 16.646,4.771 14.948,5.307 Z M12,10.5 C12.828,10.5 13.5,11.172 13.5,12 C13.5,12.828 12.828,13.5 12,13.5 C11.172,13.5 10.5,12.828 10.5,12 C10.5,11.172 11.172,10.5 12,10.5 Z"/>
</svg>

