<svg xmlns="http://www.w3.org/2000/svg" width="24" height="24">
  <defs/>
  <path  d="M6.238,4.659 C5.604,3.754 5.824,2.507 6.729,1.873 L12,9.401 L17.271,1.873 C18.176,2.507 18.396,3.754 17.762,4.659 L13.221,11.145 L15.441,14.315 C17.296,13.53 19.445,14.247 20.458,15.988 C21.47,17.729 21.03,19.951 19.431,21.175 C17.832,22.399 15.572,22.243 14.156,20.811 C12.739,19.379 12.609,17.117 13.851,15.532 L12.001,12.888 L10.149,15.533 C11.391,17.118 11.261,19.38 9.844,20.812 C8.428,22.244 6.168,22.4 4.569,21.176 C2.97,19.952 2.53,17.73 3.542,15.989 C4.555,14.248 6.704,13.531 8.559,14.316 L10.779,11.145 Z M17,16 C15.895,16 15,16.895 15,18 C15,19.105 15.895,20 17,20 C18.105,20 19,19.105 19,18 C19,16.895 18.105,16 17,16 Z M7,16 C5.895,16 5,16.895 5,18 C5,19.105 5.895,20 7,20 C8.105,20 9,19.105 9,18 C9,16.895 8.105,16 7,16 Z"/>
</svg>

