<svg xmlns="http://www.w3.org/2000/svg" width="24" height="24">
  <defs/>
  <path  d="M7.383,1.337 L13.383,11.731 C16.253,10.074 19.922,11.057 21.579,13.927 L21.686,14.113 C23.283,16.88 22.335,20.418 19.568,22.016 C18.031,22.903 16.066,22.377 15.178,20.84 L12,15.336 L8.822,20.84 C7.934,22.377 5.969,22.903 4.432,22.016 C1.665,20.418 0.717,16.88 2.314,14.113 L2.421,13.927 C3.876,11.408 6.928,10.295 9.663,11.286 L6.035,5.002 C5.345,3.806 5.754,2.277 6.95,1.587 Z M16.617,1.337 L17.05,1.587 C18.188,2.244 18.624,3.67 18.046,4.851 L17.966,5.002 L14.882,10.342 L13.15,7.342 Z M14.883,14.329 L17.776,19.339 C17.835,19.442 17.966,19.477 18.068,19.419 C19.401,18.65 19.857,16.946 19.088,15.613 L18.981,15.427 C18.153,13.992 16.318,13.501 14.883,14.329 Z M5.019,15.427 L4.912,15.613 C4.143,16.945 4.6,18.649 5.932,19.418 C6.034,19.478 6.165,19.442 6.224,19.34 L9.117,14.33 C7.682,13.501 5.848,13.993 5.019,15.427 Z"/>
</svg>

