<svg xmlns="http://www.w3.org/2000/svg" width="24" height="24">
  <defs/>
  <path  d="M7.2,2.02 L13.2,12.414 L13.633,12.164 C16.264,10.645 19.627,11.547 21.146,14.177 L21.253,14.363 C22.712,16.891 21.846,20.123 19.318,21.583 C18.02,22.332 16.361,21.888 15.611,20.59 L12,14.336 L8.39,20.59 C7.64,21.888 5.98,22.333 4.682,21.583 C2.154,20.123 1.288,16.891 2.747,14.363 L2.854,14.177 C4.373,11.547 7.736,10.645 10.367,12.164 L10.799,12.414 L10.845,12.334 L6.468,4.752 C5.916,3.795 6.243,2.572 7.2,2.02 Z M14.633,13.896 L14.2,14.146 L17.343,19.59 C17.54,19.931 17.977,20.048 18.318,19.851 C19.889,18.944 20.428,16.935 19.521,15.363 L19.414,15.177 C18.447,13.503 16.307,12.93 14.633,13.896 Z M4.586,15.177 L4.479,15.363 C3.572,16.935 4.111,18.944 5.682,19.851 C6.023,20.048 6.46,19.931 6.657,19.59 L9.8,14.146 L9.367,13.896 C7.693,12.93 5.553,13.504 4.587,15.177 Z M16.8,2.02 C17.704,2.542 18.055,3.672 17.605,4.614 L17.532,4.752 L14.305,10.342 L13.15,8.342 Z"/>
</svg>

