<svg xmlns="http://www.w3.org/2000/svg" width="24" height="24">
  <defs/>
  <path  d="M18.172,4.945 L13.833,11.142 L15.633,13.711 C17.721,13.045 19.985,13.979 20.995,15.924 C22.005,17.869 21.467,20.258 19.721,21.583 C17.976,22.907 15.53,22.782 13.929,21.286 C12.328,19.789 12.037,17.357 13.241,15.526 L12.001,13.758 L10.761,15.528 C11.964,17.36 11.672,19.792 10.07,21.287 C8.468,22.783 6.022,22.907 4.277,21.581 C2.532,20.255 1.996,17.865 3.007,15.921 C4.019,13.977 6.284,13.044 8.371,13.712 L10.171,11.142 L5.832,4.945 C5.04,3.814 5.315,2.256 6.445,1.464 L6.855,1.177 L12.002,8.527 L17.148,1.177 L17.558,1.464 C18.689,2.256 18.963,3.814 18.172,4.945 Z M5.5,18 C5.5,18.828 6.172,19.5 7,19.5 C7.828,19.5 8.5,18.828 8.5,18 C8.5,17.172 7.828,16.5 7,16.5 C6.172,16.5 5.5,17.172 5.5,18 Z M15.5,18 C15.5,18.828 16.172,19.5 17,19.5 C17.828,19.5 18.5,18.828 18.5,18 C18.5,17.172 17.828,16.5 17,16.5 C16.172,16.5 15.5,17.172 15.5,18 Z"/>
</svg>

