<svg xmlns="http://www.w3.org/2000/svg" width="24" height="24">
  <defs/>
  <path  d="M6,3 C7.342,2.999 8.595,3.672 9.336,4.79 C10.077,5.909 10.208,7.324 9.685,8.56 L12.855,10.78 L19.341,6.238 C20.246,5.604 21.493,5.823 22.127,6.728 L14.599,12 L22.127,17.271 C21.493,18.176 20.246,18.396 19.341,17.762 L12.855,13.221 L9.685,15.441 C10.47,17.296 9.753,19.445 8.012,20.458 C6.271,21.47 4.049,21.03 2.825,19.431 C1.601,17.832 1.757,15.572 3.189,14.156 C4.621,12.739 6.883,12.609 8.468,13.851 L11.112,12 L8.468,10.148 C7.09,11.228 5.17,11.287 3.729,10.292 C2.287,9.298 1.66,7.482 2.181,5.81 C2.702,4.139 4.249,3 6,3 Z M6,15 C4.895,15 4,15.895 4,17 C4,18.105 4.895,19 6,19 C7.105,19 8,18.105 8,17 C8,15.895 7.105,15 6,15 Z M6,5 C4.895,5 4,5.895 4,7 C4,8.105 4.895,9 6,9 C7.105,9 8,8.105 8,7 C8,5.895 7.105,5 6,5 Z M3,11 C3.552,11 4,11.448 4,12 C4,12.552 3.552,13 3,13 C2.448,13 2,12.552 2,12 C2,11.448 2.448,11 3,11 Z M7,11 C7.552,11 8,11.448 8,12 C8,12.552 7.552,13 7,13 C6.448,13 6,12.552 6,12 C6,11.448 6.448,11 7,11 Z M17,11 C17.552,11 18,11.448 18,12 C18,12.552 17.552,13 17,13 C16.448,13 16,12.552 16,12 C16,11.448 16.448,11 17,11 Z M21,11 C21.552,11 22,11.448 22,12 C22,12.552 21.552,13 21,13 C20.448,13 20,12.552 20,12 C20,11.448 20.448,11 21,11 Z"/>
</svg>

