<svg xmlns="http://www.w3.org/2000/svg" width="24" height="24">
  <defs/>
  <path  d="M6,2.5 C7.437,2.5 8.787,3.186 9.635,4.346 C10.482,5.506 10.724,7.001 10.287,8.37 L12.857,10.17 L19.055,5.832 C20.186,5.04 21.744,5.315 22.536,6.445 L22.823,6.855 L16.896,11.005 C17.263,10.968 17.62,11.136 17.826,11.442 C18.031,11.748 18.052,12.143 17.879,12.468 C17.707,12.794 17.369,12.998 17,13 L16.89,12.994 L22.823,17.148 L22.536,17.558 C21.744,18.689 20.185,18.964 19.054,18.172 L12.858,13.832 L10.288,15.632 C10.874,17.468 10.225,19.474 8.675,20.62 C7.124,21.765 5.016,21.795 3.433,20.695 C1.85,19.595 1.143,17.609 1.676,15.756 C2.209,13.904 3.862,12.596 5.788,12.505 L6,12.5 C6.045,12.5 6.09,12.5 6.135,12.502 C5.954,12.192 5.954,11.808 6.135,11.498 L6,11.5 C3.515,11.5 1.5,9.485 1.5,7 C1.5,4.515 3.515,2.5 6,2.5 Z M6,5.5 C5.172,5.5 4.5,6.172 4.5,7 C4.5,7.828 5.172,8.5 6,8.5 C6.828,8.5 7.5,7.828 7.5,7 C7.5,6.172 6.828,5.5 6,5.5 Z M6,15.5 C5.172,15.5 4.5,16.172 4.5,17 C4.5,17.828 5.172,18.5 6,18.5 C6.828,18.5 7.5,17.828 7.5,17 C7.5,16.172 6.828,15.5 6,15.5 Z M8.471,10.761 C8.2,10.94 7.91,11.089 7.606,11.205 C7.855,11.394 8.001,11.688 8.001,12 C8.001,12.312 7.855,12.606 7.606,12.795 C7.913,12.912 8.204,13.062 8.474,13.24 L10.243,12.002 L8.471,10.762 Z M3,11 C3.552,11 4,11.448 4,12 C4,12.552 3.552,13 3,13 C2.448,13 2,12.552 2,12 C2,11.448 2.448,11 3,11 Z M21,11 C21.552,11 22,11.448 22,12 C22,12.552 21.552,13 21,13 C20.448,13 20,12.552 20,12 C20,11.448 20.448,11 21,11 Z M16.1,11.562 L15.473,12.002 L16.103,12.443 C15.966,12.166 15.965,11.841 16.101,11.563 Z"/>
</svg>

