<svg xmlns="http://www.w3.org/2000/svg" width="24" height="24">
  <defs/>
  <path  d="M6,16 A3 3 0 1 1 6,22 A3 3 0 0 1 6,16 M19,16 A3 3 0 1 1 19,22 A3 3 0 0 1 19,16 M6,18 A1 1 0 1 0 6,20 A1 1 0 0 0 6,18 M19,18 A1 1 0 1 0 19,20 A1 1 0 0 0 19,18 M18,2 A1 1 0 1 1 18,4 L17.31,4 L19.961,13.724 A1.01 1.01 0 0 1 18.987,15 L18.231,15 A2.61 2.61 0 0 0 15.897,16.442 C15.726,16.784 15.377,17 14.994,17 L10.828,17 C9.685,17 8.926,16.34 8.172,15.586 A2 2 0 0 0 6.757,15 L5,15 A1 1 0 1 1 5,13 L6.757,13 A4 4 0 0 1 9.586,14.172 L9.876,14.475 C10.14,14.748 10.43,15 10.828,15 L14.431,15 A4.61 4.61 0 0 1 17.699,13.03 L15.236,4 L14,4 A1 1 0 1 1 14,2 Z"/>
</svg>

