<svg xmlns="http://www.w3.org/2000/svg" width="24" height="24">
  <defs/>
  <path  d="M2,6 C2,3.791 3.791,2 6,2 L18,2 C20.209,2 22,3.791 22,6 L22,18 C22,20.209 20.209,22 18,22 L6,22 C3.791,22 2,20.209 2,18 Z M5.667,6.667 C5.667,7.219 6.115,7.667 6.667,7.667 L7.333,7.667 C7.421,7.667 7.506,7.702 7.569,7.764 C7.632,7.827 7.667,7.912 7.667,8 L7.667,14 C7.667,14.552 8.115,15 8.667,15 C9.219,15 9.667,14.552 9.667,14 L9.667,8 C9.667,7.816 9.816,7.667 10,7.667 C10.184,7.667 10.333,7.816 10.333,8 L10.333,14 C10.333,14.552 10.781,15 11.333,15 C11.885,15 12.333,14.552 12.333,14 L12.333,8 C12.333,7.816 12.483,7.666 12.667,7.666 C12.851,7.666 13.001,7.816 13.001,8 L13.001,14.667 C13.001,16.173 14.118,17.446 15.611,17.642 C15.225,18.037 15.232,18.67 15.627,19.056 C16.021,19.443 16.655,19.436 17.041,19.041 L18.707,17.374 C19.097,16.983 19.097,16.351 18.707,15.96 L17.04,14.293 C16.682,13.936 16.113,13.903 15.716,14.216 C15.319,14.529 15.218,15.089 15.48,15.521 C15.182,15.34 15,15.016 15,14.667 L15,8 C15,7.131 14.517,6.333 13.747,5.931 C12.976,5.529 12.046,5.588 11.333,6.085 C10.956,5.822 10.496,5.667 10,5.667 C9.523,5.666 9.058,5.812 8.667,6.085 C8.289,5.822 7.829,5.667 7.333,5.667 L6.667,5.667 C6.115,5.667 5.667,6.115 5.667,6.667 Z"/>
</svg>

