<svg xmlns="http://www.w3.org/2000/svg" width="24" height="24">
  <defs/>
  <path  d="M3,4 C3,3.448 3.448,3 4,3 L5,3 C5.768,3 6.47,3.289 7,3.764 C7.549,3.271 8.262,2.999 9,3 C9.768,3 10.47,3.289 11,3.764 C11.882,2.975 13.145,2.778 14.225,3.261 C15.305,3.744 16,4.817 16,6 L16,16 C16,17.105 16.895,18 18,18 L18.586,18 L17.793,17.207 C17.414,16.815 17.419,16.191 17.805,15.805 C18.191,15.419 18.815,15.414 19.207,15.793 L21.707,18.293 C22.097,18.684 22.097,19.316 21.707,19.707 L19.207,22.207 C18.815,22.586 18.191,22.581 17.805,22.195 C17.419,21.809 17.414,21.185 17.793,20.793 L18.586,20 L18,20 C15.791,20 14,18.209 14,16 L14,6 C14,5.448 13.552,5 13,5 C12.448,5 12,5.448 12,6 L12,15 C12,15.552 11.552,16 11,16 C10.448,16 10,15.552 10,15 L10,6 C10,5.448 9.552,5 9,5 C8.448,5 8,5.448 8,6 L8,15 C8,15.552 7.552,16 7,16 C6.448,16 6,15.552 6,15 L6,6 C6,5.448 5.552,5 5,5 L4,5 C3.448,5 3,4.552 3,4 Z"/>
</svg>

