<svg xmlns="http://www.w3.org/2000/svg" width="24" height="24">
  <defs/>
  <path  d="M19.264,3.364 C19.657,3.128 20.161,3.19 20.485,3.514 L20.492,3.522 C20.817,3.848 20.878,4.353 20.64,4.747 L19.572,6.508 C19.341,6.888 18.888,7.07 18.459,6.955 L14.829,10.585 L15.242,11 C16.194,11.951 16.167,13.489 15.233,14.423 C14.787,14.869 14.183,15.12 13.553,15.121 C13.413,15.121 13.285,15.201 13.223,15.326 L12.333,17.106 C12.189,17.395 11.998,17.658 11.77,17.886 L8.464,21.192 C7.293,22.363 5.393,22.363 4.222,21.192 L2.807,19.778 C1.635,18.606 1.635,16.707 2.807,15.535 L6.113,12.229 C6.341,12.001 6.604,11.811 6.893,11.667 L8.673,10.777 C8.799,10.714 8.878,10.586 8.878,10.446 C8.878,9.813 9.135,9.208 9.576,8.766 C10.511,7.832 12.049,7.806 13,8.757 L13.414,9.171 L17.044,5.541 C16.928,5.11 17.113,4.654 17.496,4.425 Z M12.706,11.292 L11.586,10.172 C11.418,10.013 11.154,10.017 10.991,10.181 C10.921,10.251 10.88,10.346 10.879,10.446 C10.879,11.344 10.372,12.164 9.569,12.566 L7.788,13.456 C7.692,13.504 7.604,13.568 7.528,13.644 L4.222,16.95 C3.832,17.34 3.832,17.973 4.222,18.364 L5.636,19.778 C6.026,20.168 6.66,20.168 7.05,19.778 L10.356,16.472 C10.432,16.396 10.495,16.308 10.543,16.212 L11.433,14.432 C11.835,13.629 12.655,13.122 13.553,13.122 C13.648,13.122 13.747,13.082 13.819,13.009 C13.983,12.846 13.988,12.582 13.829,12.414 L12.709,11.294 Z M7.757,14.828 C8.148,14.438 8.781,14.438 9.172,14.828 C9.562,15.219 9.562,15.853 9.171,16.243 L7.05,18.363 C6.8,18.629 6.426,18.738 6.072,18.648 C5.719,18.557 5.443,18.281 5.352,17.928 C5.261,17.575 5.37,17.2 5.636,16.95 Z"/>
</svg>

