<svg xmlns="http://www.w3.org/2000/svg" width="24" height="24">
  <defs/>
  <path  d="M19.264,3.364 C19.657,3.128 20.161,3.19 20.485,3.514 L20.493,3.522 C20.818,3.848 20.879,4.353 20.641,4.747 L19.573,6.508 C19.342,6.888 18.888,7.07 18.459,6.955 L14.829,10.585 L15.243,11 C16.194,11.951 16.168,13.489 15.233,14.423 C14.788,14.869 14.184,15.12 13.554,15.121 C13.414,15.121 13.286,15.201 13.224,15.326 L12.333,17.106 C12.189,17.395 11.999,17.658 11.771,17.886 L8.465,21.192 C7.293,22.364 5.394,22.364 4.222,21.192 L2.808,19.778 C1.636,18.606 1.636,16.707 2.808,15.535 L6.114,12.229 C6.342,12.001 6.605,11.811 6.894,11.667 L8.674,10.777 C8.8,10.714 8.879,10.586 8.879,10.446 C8.879,9.813 9.135,9.208 9.577,8.766 C10.511,7.832 12.049,7.806 13,8.757 L13.414,9.171 L17.044,5.541 C16.929,5.11 17.113,4.654 17.496,4.425 Z M9.172,14.828 L9.171,14.829 C8.781,14.439 8.148,14.439 7.757,14.829 L5.635,16.949 C5.244,17.34 5.244,17.973 5.635,18.364 C6.026,18.755 6.659,18.755 7.05,18.364 L9.172,16.242 C9.562,15.852 9.562,15.219 9.172,14.828 Z"/>
</svg>

