<svg xmlns="http://www.w3.org/2000/svg" width="24" height="24">
  <defs/>
  <path  d="M6,8 C6.001,5.068 8.12,2.566 11.011,2.083 C13.903,1.6 16.72,3.277 17.674,6.049 C18.627,8.822 17.438,11.877 14.861,13.275 C14.819,13.297 14.783,13.329 14.756,13.368 C14.751,13.375 14.747,13.383 14.745,13.392 L14.86,15 L18,15 C19.657,15 21,16.343 21,18 L21,20 C21,21.105 20.105,22 19,22 L5,22 C3.895,22 3,21.105 3,20 L3,18 C3,16.343 4.343,15 6,15 L9.14,15 L9.255,13.392 C9.253,13.384 9.25,13.375 9.245,13.368 C9.218,13.329 9.182,13.297 9.139,13.275 C7.204,12.225 6,10.201 6,8 Z M12,4 C10.169,3.999 8.57,5.242 8.12,7.017 C7.67,8.792 8.483,10.646 10.094,11.518 C10.754,11.876 11.316,12.613 11.25,13.533 L11.135,15.143 C11.06,16.189 10.189,17 9.14,17 L6,17 C5.448,17 5,17.448 5,18 L5,20 L19,20 L19,18 C19,17.448 18.552,17 18,17 L14.86,17 C13.811,17 12.94,16.189 12.865,15.143 L12.75,13.533 C12.684,12.613 13.247,11.876 13.906,11.518 C15.517,10.646 16.33,8.792 15.88,7.017 C15.43,5.242 13.831,3.999 12,4 Z"/>
</svg>

