<svg xmlns="http://www.w3.org/2000/svg" width="24" height="24">
  <defs/>
  <path  d="M10.5,2 C13.757,2 16.727,3.86 18.148,6.79 C19.57,9.72 19.192,13.205 17.176,15.762 L20.828,19.414 C21.207,19.806 21.202,20.43 20.816,20.816 C20.43,21.202 19.806,21.207 19.414,20.828 L15.762,17.176 C12.838,19.481 8.754,19.614 5.686,17.505 C2.618,15.396 1.279,11.535 2.383,7.979 C3.487,4.424 6.777,2 10.5,2 Z M4,10.5 C4,14.09 6.91,17 10.5,17 C14.09,17 17,14.09 17,10.5 C17,6.91 14.09,4 10.5,4 C6.91,4 4,6.91 4,10.5 Z"/>
</svg>

