<svg xmlns="http://www.w3.org/2000/svg" width="24" height="24">
  <defs/>
  <path  d="M10.5,2 C11.751,2 12.94,2.27 14.009,2.756 A3.001 3.001 0 0 0 13.039,4.515 A6.5 6.5 0 1 0 17,10.5 L16.995,10.231 C17.531,10.711 18.234,10.996 18.986,11 A8.46 8.46 0 0 1 17.177,15.762 L20.829,19.414 A1 1 0 0 1 19.415,20.828 L15.763,17.176 A8.5 8.5 0 1 1 10.5,2 M10.5,5 C11.427,5 12.301,5.23 13.068,5.635 A3 3 0 0 0 15.031,7.839 L15.379,7.958 A5.5 5.5 0 1 1 10.5,5 M19,1 A1 1 0 0 1 19.898,1.56 L19.946,1.677 L20.076,2.055 A3 3 0 0 0 21.76,3.855 L21.945,3.925 L22.323,4.054 A1 1 0 0 1 22.441,5.898 L22.323,5.946 L21.945,6.076 A3 3 0 0 0 20.145,7.76 L20.075,7.945 L19.946,8.323 A1 1 0 0 1 18.102,8.44 L18.054,8.323 L17.924,7.945 A3 3 0 0 0 16.24,6.145 L16.055,6.075 L15.677,5.946 A1 1 0 0 1 15.559,4.102 L15.677,4.054 L16.055,3.924 A3 3 0 0 0 17.855,2.24 L17.925,2.055 L18.054,1.677 A1 1 0 0 1 19,1"/>
</svg>

