<svg xmlns="http://www.w3.org/2000/svg" width="24" height="24">
  <defs/>
  <path  d="M10.5,2 C11.08,2 11.65,2.058 12.199,2.17 C12.74,2.28 13.09,2.808 12.98,3.349 C12.87,3.89 12.342,4.24 11.801,4.13 C8.284,3.413 4.851,5.682 4.133,9.199 C3.415,12.716 5.684,16.149 9.201,16.867 C12.717,17.586 16.151,15.318 16.87,11.801 C16.98,11.26 17.508,10.91 18.049,11.02 C18.59,11.13 18.94,11.658 18.83,12.199 C18.588,13.392 18.091,14.519 17.373,15.502 L17.176,15.762 L20.828,19.414 C21.204,19.787 21.225,20.388 20.875,20.786 C20.524,21.183 19.925,21.238 19.508,20.912 L19.414,20.828 L15.762,17.176 C12.838,19.481 8.754,19.614 5.686,17.505 C2.618,15.396 1.279,11.535 2.383,7.979 C3.487,4.424 6.777,2 10.5,2 Z M19,1 C19.382,1 19.73,1.217 19.898,1.56 L19.946,1.677 L20.076,2.055 C20.354,2.869 20.967,3.524 21.76,3.855 L21.945,3.925 L22.323,4.054 C22.706,4.185 22.972,4.533 22.998,4.937 C23.024,5.34 22.804,5.72 22.441,5.898 L22.323,5.946 L21.945,6.076 C21.131,6.354 20.476,6.967 20.145,7.76 L20.075,7.945 L19.946,8.323 C19.815,8.706 19.467,8.972 19.063,8.998 C18.659,9.023 18.28,8.803 18.102,8.44 L18.054,8.323 L17.924,7.945 C17.646,7.131 17.033,6.476 16.24,6.145 L16.055,6.075 L15.677,5.946 C15.294,5.815 15.028,5.467 15.002,5.063 C14.976,4.66 15.196,4.28 15.559,4.102 L15.677,4.054 L16.055,3.924 C16.869,3.646 17.524,3.033 17.855,2.24 L17.925,2.055 L18.054,1.677 C18.192,1.272 18.572,1 19,1 Z M19,4.196 C18.763,4.494 18.494,4.763 18.196,5 C18.494,5.236 18.763,5.506 19,5.804 C19.236,5.506 19.506,5.236 19.804,5 C19.506,4.763 19.237,4.494 19,4.196 Z"/>
</svg>

