<svg xmlns="http://www.w3.org/2000/svg" width="24" height="24">
  <defs/>
  <path  d="M10,3 C12.65,2.999 15.073,4.495 16.26,6.865 C17.447,9.234 17.194,12.071 15.607,14.193 L20.707,19.293 C21.097,19.684 21.097,20.317 20.706,20.708 C20.316,21.098 19.682,21.098 19.292,20.707 L14.192,15.606 C11.754,17.429 8.417,17.467 5.938,15.701 C3.458,13.934 2.405,10.767 3.333,7.867 C4.26,4.968 6.956,3 10,3 Z M5,10 C5,12.761 7.239,15 10,15 C12.761,15 15,12.761 15,10 C15,7.239 12.761,5 10,5 C7.239,5 5,7.239 5,10 Z"/>
</svg>

