<svg xmlns="http://www.w3.org/2000/svg" width="24" height="24">
  <defs/>
  <path  d="M10,2.5 C12.761,2.5 15.299,4.016 16.606,6.448 C17.914,8.88 17.78,11.833 16.257,14.136 L21.061,18.939 C21.647,19.525 21.647,20.475 21.061,21.061 C20.475,21.647 19.525,21.647 18.939,21.061 L14.136,16.257 C11.459,18.026 7.954,17.896 5.415,15.935 C2.876,13.973 1.867,10.614 2.903,7.578 C3.939,4.541 6.792,2.5 10,2.5 Z M5.5,10 C5.5,12.485 7.515,14.5 10,14.5 C12.485,14.5 14.5,12.485 14.5,10 C14.5,7.515 12.485,5.5 10,5.5 C7.515,5.5 5.5,7.515 5.5,10 Z"/>
</svg>

