<svg xmlns="http://www.w3.org/2000/svg" width="24" height="24">
  <defs/>
  <path  d="M19,2 C19.62,2 20.074,2.338 20.36,2.704 C20.633,3.051 20.81,3.484 20.933,3.9 C21.183,4.743 21.3,5.827 21.345,6.909 C21.376,7.721 21.374,8.533 21.338,9.345 L21.303,10.019 C21.275,10.459 21.239,10.881 21.197,11.266 L21.13,11.817 C21.083,12.164 21.031,12.469 20.976,12.717 C20.443,15.115 19.51,16.564 18.468,17.354 C17.469,18.11 16.311,18.274 15.553,17.894 C15.222,17.729 14.9,17.432 14.635,17.124 C14.315,16.748 14.045,16.333 13.833,15.887 C13.368,14.912 13.081,13.594 13.551,12.184 C13.842,11.311 14.403,10.767 14.897,10.36 L15.157,10.15 C15.733,9.692 16.271,9.222 16.605,8.553 C16.818,8.128 16.823,7.573 16.804,7.05 L16.784,6.614 L16.767,5.849 C16.749,4.999 16.755,4.122 17.071,3.338 C17.396,2.528 18.117,2 19,2 Z M6.272,15.304 C7.486,15.456 8.86,15.684 10.242,16.03 C12.371,16.562 14.219,17.612 15.54,18.532 L15.96,18.833 L16.34,19.119 L16.675,19.385 L16.966,19.625 L17.314,19.927 C18.189,20.707 17.537,22 16.517,22 L7.922,22 C6.403,22 4.967,21.31 4.018,20.124 C3.236,19.146 2.857,17.929 3.468,16.745 C3.963,15.787 5.007,15.145 6.272,15.304 Z M9.22,3.375 C9.551,2.965 10.142,2.882 10.573,3.185 C11.004,3.487 11.126,4.072 10.853,4.522 L10.781,4.625 L10.548,4.916 C9.903,5.722 9.918,6.871 10.584,7.659 L10.707,7.793 C12.148,9.233 12.333,11.505 11.146,13.16 L11.014,13.333 L10.781,13.625 C10.452,14.039 9.857,14.125 9.424,13.821 C8.991,13.517 8.87,12.928 9.147,12.478 L9.219,12.375 L9.452,12.084 C10.097,11.278 10.082,10.129 9.416,9.341 L9.293,9.207 C7.852,7.767 7.667,5.495 8.854,3.84 L8.986,3.667 L9.219,3.375 Z M5.22,3.375 C5.551,2.965 6.142,2.882 6.573,3.185 C7.004,3.487 7.126,4.072 6.853,4.522 L6.781,4.625 L6.548,4.916 C5.903,5.722 5.918,6.871 6.584,7.659 L6.707,7.793 C8.148,9.233 8.333,11.505 7.146,13.16 L7.014,13.333 L6.781,13.625 C6.452,14.039 5.857,14.125 5.424,13.821 C4.991,13.517 4.87,12.928 5.147,12.478 L5.219,12.375 L5.452,12.084 C6.097,11.278 6.082,10.129 5.416,9.341 L5.293,9.207 C3.852,7.767 3.667,5.495 4.854,3.84 L4.986,3.667 L5.219,3.375 Z M18.77,5.405 C18.767,5.702 18.772,5.999 18.777,6.297 C18.783,6.666 18.789,7.036 18.78,7.406 C18.765,8.048 18.705,8.826 18.394,9.447 C17.939,10.357 17.247,11.043 16.461,11.668 L16.292,11.804 L16.007,12.044 C15.714,12.304 15.549,12.514 15.448,12.816 C15.208,13.54 15.308,14.25 15.565,14.86 L15.707,15.168 L15.809,15.367 C15.981,15.689 16.234,16.09 16.446,16.089 L16.521,16.086 C16.654,16.075 16.914,16.022 17.261,15.76 C17.343,15.697 17.42,15.63 17.494,15.558 L17.659,15.385 C18.134,14.85 18.663,13.907 19.024,12.283 C19.066,12.092 19.108,11.847 19.147,11.562 L19.203,11.105 C19.221,10.945 19.238,10.775 19.253,10.597 L19.296,10.047 L19.331,9.464 L19.354,8.858 C19.372,8.243 19.372,7.606 19.346,6.991 C19.304,5.964 19.195,5.074 19.016,4.468 C18.929,4.175 18.873,4.198 18.836,4.355 L18.816,4.477 L18.793,4.709 L18.773,5.195 Z M5.245,17.662 C5.066,18.01 5.186,18.32 5.375,18.602 L5.51,18.785 L5.58,18.875 C6.149,19.586 7.011,20 7.922,20 L14.143,20 C12.993,19.227 11.466,18.397 9.757,17.97 C8.527,17.669 7.281,17.442 6.024,17.289 C5.624,17.239 5.371,17.419 5.245,17.662 Z"/>
</svg>

