<svg xmlns="http://www.w3.org/2000/svg" width="24" height="24">
  <defs/>
  <path  d="M6.272,15.304 A33.75 33.75 0 0 1 10.242,16.03 C12.252,16.532 14.013,17.497 15.315,18.378 L15.755,18.684 L16.155,18.979 L16.513,19.255 L16.827,19.509 L17.094,19.735 L17.314,19.927 C18.157,20.678 17.584,21.905 16.629,21.995 L16.517,22 L7.923,22 C6.241,22 4.843,21.155 3.819,19.874 C3.045,18.907 2.979,17.691 3.469,16.745 C3.963,15.787 5.007,15.145 6.272,15.304 M19,2 C19.893,2 20.278,2.84 20.467,3.61 L20.527,3.878 L20.551,4.006 C20.695,4.803 20.772,5.848 20.803,6.922 C20.863,9.047 20.741,11.524 20.476,12.717 C20.014,14.799 19.336,16.246 18.524,17.118 C17.698,18.008 16.582,18.409 15.553,17.894 C14.764,17.5 14.293,16.563 14.035,15.764 A5.734 5.734 0 0 1 14.052,12.184 C14.262,11.552 14.64,11.042 15.056,10.557 L15.419,10.146 C15.861,9.651 16.304,9.156 16.606,8.553 C17.046,7.673 17.166,6.71 17.203,5.743 L17.217,5.163 L17.226,4.603 L17.232,4.465 L17.252,4.185 C17.347,3.107 17.716,2 19,2 M6.625,3.22 A1 1 0 0 1 6.781,4.625 L6.548,4.916 A2.16 2.16 0 0 0 6.584,7.659 L6.707,7.793 A4.16 4.16 0 0 1 7.014,13.333 L6.781,13.625 A1 1 0 1 1 5.219,12.375 L5.452,12.084 A2.16 2.16 0 0 0 5.416,9.341 L5.293,9.207 A4.16 4.16 0 0 1 4.986,3.667 L5.219,3.375 A1 1 0 0 1 6.625,3.219 Z M9.219,3.375 A1 1 0 0 1 10.853,4.522 L10.781,4.625 L10.548,4.916 A2.16 2.16 0 0 0 10.584,7.659 L10.707,7.793 A4.16 4.16 0 0 1 11.146,13.16 L11.014,13.333 L10.781,13.625 A1 1 0 0 1 9.147,12.478 L9.219,12.375 L9.452,12.084 A2.16 2.16 0 0 0 9.416,9.341 L9.293,9.207 A4.16 4.16 0 0 1 8.854,3.84 L8.986,3.667 Z"/>
</svg>

