<svg xmlns="http://www.w3.org/2000/svg" width="24" height="24">
  <defs/>
  <path  d="M19,2 C19.62,2 20.074,2.338 20.36,2.704 C20.633,3.051 20.81,3.484 20.933,3.9 C21.183,4.743 21.3,5.827 21.345,6.909 C21.382,7.82 21.369,8.785 21.322,9.685 L21.28,10.345 C21.21,11.313 21.1,12.16 20.976,12.717 C20.443,15.115 19.511,16.564 18.468,17.354 C17.469,18.11 16.311,18.274 15.553,17.894 C15.222,17.729 14.901,17.432 14.635,17.124 C14.315,16.748 14.046,16.333 13.834,15.887 C13.368,14.912 13.081,13.594 13.551,12.184 C13.842,11.311 14.403,10.767 14.897,10.36 L15.215,10.104 C15.778,9.656 16.246,9.272 16.605,8.553 C16.698,8.367 16.766,7.993 16.782,7.358 L16.785,7.055 L16.777,6.309 C16.772,6.009 16.767,5.692 16.77,5.385 C16.777,4.735 16.818,3.965 17.07,3.338 C17.204,3.005 17.418,2.657 17.767,2.393 C18.123,2.13 18.557,1.991 19,2 Z M3.468,16.745 C3.962,15.787 5.007,15.145 6.272,15.304 C7.486,15.456 8.86,15.684 10.242,16.03 C12.489,16.592 14.423,17.73 15.755,18.684 L16.155,18.979 L16.339,19.119 L16.675,19.385 L16.966,19.625 L17.313,19.927 C18.157,20.678 17.583,21.905 16.629,21.995 L16.517,22 L7.922,22 C6.492,22 5.13,21.387 4.181,20.317 L4.018,20.123 L3.818,19.874 C3.045,18.907 2.98,17.691 3.468,16.745 Z M18.903,4.15 C18.82,4.402 18.776,4.81 18.77,5.405 L18.77,5.687 L18.779,6.376 C18.784,6.711 18.789,7.064 18.781,7.406 C18.765,8.048 18.705,8.826 18.394,9.447 C17.959,10.319 17.401,10.884 16.904,11.307 L16.614,11.547 L16.461,11.668 C15.866,12.142 15.592,12.385 15.449,12.816 C15.185,13.606 15.329,14.379 15.639,15.024 C15.792,15.347 15.979,15.619 16.152,15.82 C16.232,15.914 16.301,15.981 16.351,16.026 L16.426,16.09 L16.521,16.086 C16.654,16.075 16.915,16.022 17.261,15.76 C17.808,15.345 18.557,14.385 19.024,12.283 C19.066,12.092 19.108,11.847 19.147,11.562 L19.203,11.105 C19.213,11.025 19.221,10.942 19.229,10.857 L19.276,10.327 L19.315,9.759 L19.331,9.464 L19.354,8.858 C19.373,8.236 19.371,7.613 19.347,6.991 C19.304,5.964 19.195,5.074 19.015,4.468 C18.984,4.36 18.947,4.253 18.903,4.149 Z M6.024,17.288 C5.624,17.238 5.371,17.419 5.245,17.662 C5.11,17.934 5.131,18.257 5.299,18.51 L5.38,18.625 L5.58,18.875 C6.107,19.533 6.887,19.939 7.728,19.994 L7.922,20 L14.143,20 C12.993,19.227 11.466,18.397 9.757,17.97 C8.527,17.669 7.281,17.442 6.024,17.289 Z"/>
</svg>

