<svg xmlns="http://www.w3.org/2000/svg" width="24" height="24">
  <defs/>
  <path  d="M13.617,15.924 C13.243,15.769 13,15.404 13,15 L13,11 C13,10.596 13.244,10.231 13.617,10.076 C13.991,9.922 14.421,10.007 14.707,10.293 L16.707,12.293 C17.097,12.684 17.097,13.316 16.707,13.707 L14.707,15.707 C14.421,15.993 13.991,16.079 13.617,15.924 Z M7.293,13.707 C6.903,13.316 6.903,12.684 7.293,12.293 L9.293,10.293 C9.579,10.007 10.009,9.922 10.383,10.076 C10.756,10.231 11,10.596 11,11 L11,15 C11,15.404 10.756,15.769 10.383,15.924 C10.009,16.078 9.579,15.993 9.293,15.707 Z"/>
</svg>

