<svg xmlns="http://www.w3.org/2000/svg" width="24" height="24">
  <defs/>
  <path  d="M9.076,13.617 C9.231,13.243 9.596,13 10,13 L14,13 C14.404,13 14.769,13.244 14.924,13.617 C15.078,13.991 14.993,14.421 14.707,14.707 L12.707,16.707 C12.316,17.097 11.684,17.097 11.293,16.707 L9.293,14.707 C9.007,14.421 8.921,13.991 9.076,13.617 Z M11.293,7.293 C11.684,6.903 12.316,6.903 12.707,7.293 L14.707,9.293 C14.993,9.579 15.078,10.009 14.924,10.383 C14.769,10.756 14.404,11 14,11 L10,11 C9.596,11 9.231,10.756 9.076,10.383 C8.922,10.009 9.007,9.579 9.293,9.293 Z"/>
</svg>

