<svg xmlns="http://www.w3.org/2000/svg" width="24" height="24">
  <defs/>
  <path  d="M16.28,3 A3 3 0 0 1 19.215,5.376 L19.246,5.551 L20.953,16.851 A4.5 4.5 0 0 1 16.711,21.995 L16.5,22 L7.5,22 A4.5 4.5 0 0 1 3.02,17.064 L3.046,16.851 L4.754,5.551 A3 3 0 0 1 7.543,3.005 L7.72,3 Z M16.5,15 L7.5,15 A2.5 2.5 0 0 0 7.336,19.995 L7.5,20 L16.5,20 A2.5 2.5 0 0 0 16.664,15.005 Z M16,16.5 A1 1 0 1 1 16,18.5 L12,18.5 A1 1 0 1 1 12,16.5 Z M8,16.5 A1 1 0 1 1 8,18.5 A1 1 0 0 1 8,16.5 M16.28,5 L7.72,5 A1 1 0 0 0 6.731,5.85 L5.583,13.428 A4.484 4.484 0 0 1 7.5,13 L16.5,13 C17.186,13 17.836,13.153 18.417,13.428 L17.27,5.85 A1 1 0 0 0 16.28,5"/>
</svg>

