<svg xmlns="http://www.w3.org/2000/svg" width="24" height="24">
  <defs/>
  <path  d="M5,9 C5,5.134 8.134,2 12,2 C15.866,2 19,5.134 19,9 L19,10.035 C20.696,10.278 22,11.737 22,13.5 L22,13.75 C22,14.626 21.646,15.465 21.019,16.076 C20.391,16.688 19.544,17.02 18.668,16.998 C17.928,19.118 16.046,20.547 14.015,20.909 C13.657,21.04 13.25,21.024 12.86,21.009 C12.738,21.005 12.617,21 12.5,21 C11.672,21 11,20.328 11,19.5 C11,18.672 11.672,18 12.5,18 L13.5,18 C13.976,18 14.424,18.226 14.707,18.609 C16.003,17.992 17,16.689 17,15 L17,9 C17,6.239 14.761,4 12,4 C9.239,4 7,6.239 7,9 L7,15.25 C7,16.216 6.216,17 5.25,17 C3.455,17 2,15.545 2,13.75 L2,13.5 C2,11.76 3.278,10.284 5,10.035 Z M5,12.085 C4.4,12.297 4,12.864 4,13.5 L4,13.75 C4,14.355 4.43,14.86 5,14.975 Z M19,12.085 L19,14.975 C19.57,14.859 20,14.355 20,13.75 L20,13.5 C20,12.864 19.6,12.297 19,12.085 Z"/>
</svg>

