<svg xmlns="http://www.w3.org/2000/svg" width="24" height="24">
  <defs/>
  <path  d="M13,3 L13,4.061 C13.724,4.152 14.432,4.341 15.104,4.625 L15.634,3.705 C15.811,3.393 16.142,3.2 16.501,3.199 C16.86,3.198 17.192,3.39 17.37,3.701 C17.549,4.012 17.547,4.395 17.366,4.705 L16.834,5.625 C17.415,6.066 17.933,6.584 18.374,7.165 L19.294,6.634 C19.604,6.453 19.987,6.451 20.298,6.63 C20.609,6.808 20.801,7.14 20.8,7.499 C20.799,7.858 20.606,8.189 20.294,8.366 L19.376,8.896 C19.659,9.568 19.848,10.276 19.938,11 L21,11 C21.552,11 22,11.448 22,12 C22,12.552 21.552,13 21,13 L19.938,13 C19.848,13.724 19.659,14.432 19.375,15.104 L20.295,15.634 C20.607,15.811 20.8,16.142 20.801,16.501 C20.802,16.86 20.61,17.192 20.299,17.37 C19.988,17.549 19.605,17.547 19.295,17.366 L18.375,16.834 C17.934,17.415 17.416,17.933 16.835,18.374 L17.366,19.294 C17.547,19.604 17.549,19.987 17.37,20.298 C17.192,20.609 16.86,20.801 16.501,20.8 C16.142,20.799 15.811,20.606 15.634,20.294 L15.104,19.376 C14.432,19.659 13.724,19.848 13,19.938 L13,21 C13,21.552 12.552,22 12,22 C11.448,22 11,21.552 11,21 L11,19.938 C10.276,19.848 9.568,19.659 8.896,19.375 L8.366,20.295 C8.189,20.607 7.858,20.8 7.499,20.801 C7.14,20.802 6.808,20.61 6.63,20.299 C6.451,19.988 6.453,19.605 6.634,19.295 L7.166,18.375 C6.585,17.933 6.066,17.415 5.626,16.835 L4.706,17.366 C4.396,17.547 4.013,17.549 3.702,17.37 C3.391,17.192 3.199,16.86 3.2,16.501 C3.201,16.142 3.394,15.811 3.706,15.634 L4.624,15.104 C4.346,14.443 4.154,13.737 4.062,13 L3,13 C2.448,13 2,12.552 2,12 C2,11.448 2.448,11 3,11 L4.061,11 C4.152,10.276 4.341,9.568 4.625,8.896 L3.705,8.366 C3.231,8.088 3.07,7.479 3.345,7.003 C3.62,6.527 4.227,6.362 4.705,6.634 L5.625,7.166 C6.067,6.585 6.585,6.066 7.165,5.626 L6.634,4.706 C6.362,4.228 6.527,3.621 7.003,3.346 C7.479,3.071 8.088,3.232 8.366,3.706 L8.896,4.624 C9.568,4.341 10.276,4.152 11,4.062 L11,3 C11,2.448 11.448,2 12,2 C12.552,2 13,2.448 13,3 Z M11,11.423 L6.375,14.093 C6.609,14.722 6.948,15.307 7.376,15.824 L12,13.154 L16.624,15.824 C17.052,15.307 17.39,14.722 17.624,14.093 L13,11.423 L13,6.083 C12.338,5.972 11.662,5.972 11,6.083 Z"/>
</svg>

