<svg xmlns="http://www.w3.org/2000/svg" width="24" height="24">
  <defs/>
  <path  d="M14.035,2.809 C14.405,2.543 14.925,2.419 15.436,2.606 C16.522,3.004 17.531,3.588 18.418,4.331 C18.835,4.681 18.988,5.192 18.942,5.644 C18.867,6.397 18.999,7.124 19.362,7.75 C19.682,8.307 20.164,8.747 20.752,9.057 L20.977,9.167 C21.391,9.354 21.759,9.743 21.852,10.28 C22.05,11.418 22.05,12.582 21.852,13.72 C21.769,14.204 21.462,14.567 21.099,14.771 L20.977,14.834 C20.287,15.144 19.723,15.624 19.361,16.25 C18.999,16.877 18.867,17.603 18.942,18.356 C18.987,18.808 18.835,19.32 18.418,19.669 C17.531,20.412 16.522,20.996 15.436,21.394 C14.965,21.563 14.44,21.487 14.036,21.191 C13.42,20.75 12.723,20.5 12,20.5 C11.277,20.5 10.58,20.749 9.965,21.191 C9.561,21.487 9.036,21.563 8.564,21.394 C7.478,20.996 6.469,20.412 5.582,19.669 C5.201,19.345 5.005,18.853 5.058,18.356 C5.133,17.603 5,16.876 4.638,16.25 C4.308,15.691 3.826,15.238 3.248,14.943 L3.023,14.833 C2.565,14.63 2.237,14.213 2.148,13.72 C1.95,12.582 1.95,11.418 2.148,10.28 C2.231,9.796 2.538,9.433 2.901,9.229 L3.023,9.167 C3.713,8.856 4.277,8.377 4.639,7.75 C5,7.124 5.133,6.397 5.058,5.644 C5.005,5.147 5.201,4.655 5.582,4.331 C6.469,3.588 7.478,3.004 8.564,2.606 C9.035,2.438 9.56,2.514 9.964,2.809 C10.579,3.251 11.276,3.5 12,3.5 C12.724,3.5 13.42,3.251 14.035,2.809 Z M14.992,4.578 C14.126,5.148 13.105,5.5 12,5.5 C10.895,5.5 9.874,5.147 9.008,4.578 C8.312,4.859 7.659,5.237 7.068,5.7 C7.128,6.733 6.923,7.793 6.371,8.75 C5.818,9.706 5.003,10.413 4.078,10.878 C3.974,11.622 3.974,12.376 4.078,13.12 C5.003,13.585 5.818,14.292 6.371,15.25 C6.923,16.205 7.128,17.265 7.068,18.298 C7.659,18.762 8.312,19.14 9.008,19.421 C9.874,18.851 10.895,18.499 12,18.499 C13.105,18.499 14.126,18.852 14.992,19.421 C15.688,19.14 16.341,18.762 16.932,18.299 C16.872,17.265 17.077,16.205 17.629,15.249 C18.181,14.292 18.997,13.585 19.922,13.119 C20.026,12.376 20.026,11.622 19.922,10.879 C18.997,10.413 18.182,9.706 17.629,8.749 C17.077,7.793 16.872,6.733 16.932,5.699 C16.341,5.236 15.688,4.858 14.992,4.577 Z M12,8 C14.209,8 16,9.791 16,12 C16,14.209 14.209,16 12,16 C9.791,16 8,14.209 8,12 C8,9.791 9.791,8 12,8 Z M12,10 C10.895,10 10,10.895 10,12 C10,13.105 10.895,14 12,14 C13.105,14 14,13.105 14,12 C14,10.895 13.105,10 12,10 Z"/>
</svg>

