<svg xmlns="http://www.w3.org/2000/svg" width="24" height="24">
  <defs/>
  <path  d="M14.41,2.293 A9.947 9.947 0 0 1 17.16,3.433 A1 1 0 0 1 17.63,4.452 C17.517,5.141 17.688,5.668 18.01,5.99 C18.332,6.312 18.86,6.483 19.548,6.37 A1 1 0 0 1 20.567,6.84 A9.945 9.945 0 0 1 21.707,9.59 A1 1 0 0 1 21.319,10.644 C20.752,11.051 20.499,11.544 20.499,12 C20.499,12.456 20.752,12.95 21.319,13.357 A1 1 0 0 1 21.707,14.41 A9.947 9.947 0 0 1 20.567,17.16 A1 1 0 0 1 19.548,17.63 C18.859,17.517 18.332,17.689 18.01,18.01 C17.688,18.332 17.517,18.86 17.63,19.548 A1 1 0 0 1 17.16,20.568 A9.948 9.948 0 0 1 14.41,21.708 A1 1 0 0 1 13.356,21.32 C12.949,20.752 12.456,20.5 12,20.5 C11.544,20.5 11.05,20.752 10.643,21.32 A1 1 0 0 1 9.59,21.708 A9.948 9.948 0 0 1 6.84,20.568 A1 1 0 0 1 6.37,19.548 C6.483,18.86 6.311,18.333 5.99,18.011 C5.667,17.689 5.14,17.517 4.452,17.631 A1 1 0 0 1 3.432,17.161 A9.948 9.948 0 0 1 2.292,14.409 A1 1 0 0 1 2.68,13.356 C3.248,12.95 3.5,12.456 3.5,12 C3.5,11.545 3.248,11.05 2.68,10.644 A1 1 0 0 1 2.292,9.591 A9.947 9.947 0 0 1 3.432,6.84 A1 1 0 0 1 4.452,6.37 C5.14,6.483 5.667,6.312 5.989,5.99 C6.311,5.668 6.483,5.14 6.369,4.452 A1 1 0 0 1 6.839,3.433 A9.946 9.946 0 0 1 9.59,2.293 A1 1 0 0 1 10.643,2.681 C11.05,3.248 11.544,3.501 12,3.501 C12.455,3.501 12.95,3.248 13.356,2.681 A1 1 0 0 1 14.409,2.293 Z M12,7 A5 5 0 1 0 12,17 A5 5 0 0 0 12,7 M12,9 A3 3 0 1 1 12,15 A3 3 0 0 1 12,9"/>
</svg>

