<svg xmlns="http://www.w3.org/2000/svg" width="24" height="24">
  <defs/>
  <path  d="M4,11 L6,11 L6,10 C6,9.448 6.448,9 7,9 C7.552,9 8,9.448 8,10 L8,11 L20,11 C20.552,11 21,11.448 21,12 C21,12.552 20.552,13 20,13 L8,13 L8,14 C8,14.552 7.552,15 7,15 C6.448,15 6,14.552 6,14 L6,13 L4,13 C3.448,13 3,12.552 3,12 C3,11.448 3.448,11 4,11 Z M18,4 L18,5 L20,5 C20.552,5 21,5.448 21,6 C21,6.552 20.552,7 20,7 L18,7 L18,8 C18,8.552 17.552,9 17,9 C16.448,9 16,8.552 16,8 L16,7 L4,7 C3.448,7 3,6.552 3,6 C3,5.448 3.448,5 4,5 L16,5 L16,4 C16,3.448 16.448,3 17,3 C17.552,3 18,3.448 18,4 Z M3,18 C3,17.448 3.448,17 4,17 L16,17 L16,16 C16,15.448 16.448,15 17,15 C17.552,15 18,15.448 18,16 L18,17 L20,17 C20.552,17 21,17.448 21,18 C21,18.552 20.552,19 20,19 L18,19 L18,20 C18,20.552 17.552,21 17,21 C16.448,21 16,20.552 16,20 L16,19 L4,19 C3.448,19 3,18.552 3,18 Z"/>
</svg>

