<svg xmlns="http://www.w3.org/2000/svg" width="24" height="24">
  <defs/>
  <path  d="M4,10.5 L5.5,10.5 L5.5,10 C5.5,9.172 6.172,8.5 7,8.5 C7.828,8.5 8.5,9.172 8.5,10 L8.5,10.5 L20,10.5 C20.828,10.5 21.5,11.172 21.5,12 C21.5,12.828 20.828,13.5 20,13.5 L8.5,13.5 L8.5,14 C8.5,14.828 7.828,15.5 7,15.5 C6.172,15.5 5.5,14.828 5.5,14 L5.5,13.5 L4,13.5 C3.172,13.5 2.5,12.828 2.5,12 C2.5,11.172 3.172,10.5 4,10.5 Z M18.5,4 L18.5,4.5 L20,4.5 C20.828,4.5 21.5,5.172 21.5,6 C21.5,6.828 20.828,7.5 20,7.5 L18.5,7.5 L18.5,8 C18.5,8.828 17.828,9.5 17,9.5 C16.172,9.5 15.5,8.828 15.5,8 L15.5,7.5 L4,7.5 C3.172,7.5 2.5,6.828 2.5,6 C2.5,5.172 3.172,4.5 4,4.5 L15.5,4.5 L15.5,4 C15.5,3.172 16.172,2.5 17,2.5 C17.828,2.5 18.5,3.172 18.5,4 Z M2.5,18 C2.5,17.172 3.172,16.5 4,16.5 L15.5,16.5 L15.5,16 C15.5,15.172 16.172,14.5 17,14.5 C17.828,14.5 18.5,15.172 18.5,16 L18.5,16.5 L20,16.5 C20.828,16.5 21.5,17.172 21.5,18 C21.5,18.828 20.828,19.5 20,19.5 L18.5,19.5 L18.5,20 C18.5,20.828 17.828,21.5 17,21.5 C16.172,21.5 15.5,20.828 15.5,20 L15.5,19.5 L4,19.5 C3.172,19.5 2.5,18.828 2.5,18 Z"/>
</svg>

