<svg xmlns="http://www.w3.org/2000/svg" width="24" height="24">
  <defs/>
  <path  d="M12,2 C12.552,2 13,2.448 13,3 L13,4.062 C13.724,4.152 14.432,4.341 15.104,4.624 L15.634,3.706 C15.811,3.394 16.142,3.201 16.501,3.2 C16.86,3.199 17.192,3.391 17.37,3.702 C17.549,4.013 17.547,4.396 17.366,4.706 L16.835,5.626 C17.415,6.066 17.933,6.585 18.375,7.166 L19.295,6.634 C19.605,6.453 19.988,6.451 20.299,6.63 C20.61,6.808 20.802,7.14 20.801,7.499 C20.8,7.858 20.607,8.189 20.295,8.366 L19.375,8.896 C19.654,9.557 19.846,10.263 19.938,11 L21,11 C21.552,11 22,11.448 22,12 C22,12.552 21.552,13 21,13 L19.938,13 C19.848,13.724 19.659,14.432 19.376,15.104 L20.294,15.634 C20.606,15.811 20.799,16.142 20.8,16.501 C20.801,16.86 20.609,17.192 20.298,17.37 C19.987,17.549 19.604,17.547 19.294,17.366 L18.374,16.835 C17.933,17.416 17.415,17.934 16.834,18.375 L17.366,19.295 C17.547,19.605 17.549,19.988 17.37,20.299 C17.192,20.61 16.86,20.802 16.501,20.801 C16.142,20.8 15.811,20.607 15.634,20.295 L15.104,19.375 C14.432,19.659 13.724,19.848 13,19.938 L13,21 C13,21.552 12.552,22 12,22 C11.448,22 11,21.552 11,21 L11,19.938 C10.276,19.848 9.568,19.659 8.896,19.376 L8.366,20.294 C8.189,20.606 7.858,20.799 7.499,20.8 C7.14,20.801 6.808,20.609 6.63,20.298 C6.451,19.987 6.453,19.604 6.634,19.294 L7.165,18.374 C6.584,17.933 6.066,17.415 5.625,16.834 L4.705,17.366 C4.395,17.547 4.012,17.549 3.701,17.37 C3.39,17.192 3.198,16.86 3.199,16.501 C3.2,16.142 3.393,15.811 3.705,15.634 L4.625,15.104 C4.341,14.432 4.152,13.724 4.061,13 L3,13 C2.448,13 2,12.552 2,12 C2,11.448 2.448,11 3,11 L4.062,11 C4.152,10.276 4.341,9.568 4.624,8.896 L3.706,8.366 C3.232,8.088 3.071,7.479 3.346,7.003 C3.621,6.527 4.228,6.362 4.706,6.634 L5.626,7.165 C6.066,6.585 6.585,6.067 7.166,5.625 L6.634,4.705 C6.362,4.227 6.527,3.62 7.003,3.345 C7.479,3.07 8.088,3.231 8.366,3.705 L8.896,4.625 C9.568,4.341 10.276,4.152 11,4.061 L11,3 C11,2.448 11.448,2 12,2 Z M13,6.083 L13,11.423 L17.625,14.093 C17.874,13.423 18.001,12.714 18,12 C18,11.03 17.77,10.114 17.361,9.303 L17.218,9.037 L17.186,8.982 L17.176,8.964 C16.709,8.17 16.066,7.493 15.296,6.986 L14.963,6.781 C14.444,6.485 13.883,6.27 13.299,6.141 Z M11,6.083 C10.407,6.182 9.833,6.371 9.297,6.642 L9.037,6.782 L8.964,6.824 C8.17,7.291 7.493,7.934 6.986,8.704 L6.824,8.964 L6.782,9.037 C6.268,9.94 5.999,10.961 6,12 C6,12.63 6.097,13.24 6.278,13.81 L6.375,14.093 L11,11.423 Z M12,13.155 L7.376,15.825 C7.823,16.364 8.361,16.821 8.964,17.176 L9.037,17.219 C9.94,17.733 10.961,18.002 12,18 C12.97,18 13.886,17.77 14.697,17.361 L15.037,17.176 C15.64,16.821 16.178,16.363 16.624,15.824 Z"/>
</svg>

