<svg xmlns="http://www.w3.org/2000/svg" width="24" height="24">
  <defs/>
  <path  d="M16,3 C17.306,3 18.418,3.835 18.83,5 L20,5 C20.552,5 21,5.448 21,6 C21,6.552 20.552,7 20,7 L18.83,7 C18.407,8.2 17.272,9.002 16,9.002 C14.728,9.002 13.593,8.2 13.17,7 L4,7 C3.448,7 3,6.552 3,6 C3,5.448 3.448,5 4,5 L13.17,5 C13.594,3.801 14.728,3 16,3 Z M16,15 C17.306,15 18.418,15.835 18.83,17 L20,17 C20.552,17 21,17.448 21,18 C21,18.552 20.552,19 20,19 L18.83,19 C18.407,20.2 17.272,21.002 16,21.002 C14.728,21.002 13.593,20.2 13.17,19 L4,19 C3.448,19 3,18.552 3,18 C3,17.448 3.448,17 4,17 L13.17,17 C13.594,15.801 14.728,15 16,15 Z M8,9 C9.204,9 10.292,9.72 10.762,10.828 L10.829,11 L20,11 C20.529,11.001 20.966,11.413 20.997,11.941 C21.028,12.47 20.642,12.931 20.117,12.993 L20,13 L10.83,13 C10.417,14.167 9.33,14.961 8.093,14.999 C6.855,15.037 5.722,14.312 5.238,13.172 L5.17,13 L4,13 C3.471,12.999 3.034,12.587 3.003,12.059 C2.972,11.53 3.358,11.069 3.883,11.007 L4,11 L5.17,11 C5.594,9.801 6.728,9 8,9 Z M8,11 C7.448,11 7,11.448 7,12 C7,12.552 7.448,13 8,13 C8.552,13 9,12.552 9,12 C9,11.448 8.552,11 8,11 Z M16,5 C15.448,5 15,5.448 15,6 C15,6.552 15.448,7 16,7 C16.552,7 17,6.552 17,6 C17,5.448 16.552,5 16,5 Z M16,17 C15.448,17 15,17.448 15,18 C15,18.552 15.448,19 16,19 C16.552,19 17,18.552 17,18 C17,17.448 16.552,17 16,17 Z"/>
</svg>

