<svg xmlns="http://www.w3.org/2000/svg" width="24" height="24">
  <defs/>
  <path  d="M9.965,2.809 C10.58,3.251 11.277,3.5 12,3.5 C12.723,3.5 13.42,3.25 14.036,2.809 C14.44,2.514 14.965,2.438 15.436,2.606 C16.522,3.004 17.531,3.588 18.418,4.331 C18.799,4.655 18.995,5.147 18.942,5.644 C18.867,6.397 18.999,7.124 19.361,7.75 C19.723,8.377 20.287,8.856 20.977,9.167 C21.435,9.37 21.763,9.787 21.852,10.28 C22.049,11.418 22.049,12.582 21.852,13.72 C21.759,14.257 21.391,14.647 20.977,14.834 C20.287,15.145 19.723,15.623 19.362,16.25 C18.999,16.876 18.867,17.603 18.942,18.356 C18.988,18.809 18.835,19.32 18.418,19.669 C17.531,20.412 16.522,20.996 15.436,21.394 C14.925,21.581 14.405,21.457 14.035,21.191 C13.42,20.749 12.724,20.5 12,20.5 C11.276,20.5 10.579,20.749 9.964,21.191 C9.56,21.487 9.035,21.563 8.564,21.394 C7.478,20.996 6.469,20.412 5.582,19.669 C5.165,19.32 5.013,18.808 5.058,18.356 C5.133,17.603 5,16.877 4.639,16.25 C4.277,15.624 3.713,15.144 3.023,14.834 C2.608,14.646 2.241,14.257 2.148,13.72 C1.95,12.582 1.95,11.418 2.148,10.28 C2.237,9.787 2.565,9.37 3.023,9.167 C3.713,8.856 4.277,8.377 4.638,7.75 C5,7.124 5.133,6.397 5.058,5.644 C5.004,5.147 5.201,4.655 5.582,4.331 C6.469,3.588 7.478,3.004 8.564,2.606 C9.036,2.437 9.561,2.513 9.965,2.809 Z M9,12 C9,13.657 10.343,15 12,15 C13.657,15 15,13.657 15,12 C15,10.343 13.657,9 12,9 C10.343,9 9,10.343 9,12 Z"/>
</svg>

