<svg xmlns="http://www.w3.org/2000/svg" width="24" height="24">
  <defs/>
  <path  d="M13.414,2.1 L15.314,4 L18,4 C19.105,4 20,4.895 20,6 L20,8.686 L21.9,10.586 C22.681,11.367 22.681,12.633 21.9,13.414 L20,15.314 L20,18 C20,19.105 19.105,20 18,20 L15.314,20 L13.414,21.9 C12.633,22.681 11.367,22.681 10.586,21.9 L8.686,20 L6,20 C4.895,20 4,19.105 4,18 L4,15.314 L2.1,13.414 C1.319,12.633 1.319,11.367 2.1,10.586 L4,8.686 L4,6 C4,4.895 4.895,4 6,4 L8.686,4 L10.586,2.1 C11.367,1.319 12.633,1.319 13.414,2.1 Z M12,3.516 L12,3.514 L10.1,5.414 C9.725,5.789 9.216,6 8.686,6 L6,6 L6,8.687 C6,9.217 5.789,9.725 5.414,10.1 L3.514,12 L5.414,13.899 C5.789,14.274 6,14.783 6,15.314 L6,18 L8.686,18 C9.216,18 9.725,18.211 10.1,18.586 L11.999,20.486 L13.899,18.586 C14.274,18.211 14.783,18 15.314,18 L18,18 L18,15.314 C18,14.784 18.211,14.275 18.586,13.9 L20.486,12.001 L18.586,10.101 C18.211,9.726 18,9.217 18,8.686 L18,6 L15.313,6 C14.783,6 14.275,5.79 13.9,5.416 Z M12,8 C14.209,8 16,9.791 16,12 C16,14.209 14.209,16 12,16 C9.791,16 8,14.209 8,12 C8,9.791 9.791,8 12,8 Z M10,12 C10,13.105 10.895,14 12,14 C13.105,14 14,13.105 14,12 C14,10.895 13.105,10 12,10 C10.895,10 10,10.895 10,12 Z"/>
</svg>

