<svg xmlns="http://www.w3.org/2000/svg" width="24" height="24">
  <defs/>
  <path  d="M16,15 C17.306,15 18.418,15.835 18.83,17 L20,17 A1 1 0 1 1 20,19 L18.83,19 A3.001 3.001 0 0 1 13.17,19 L4,19 A1 1 0 1 1 4,17 L13.17,17 A3.001 3.001 0 0 1 16,15 M8,9 A3 3 0 0 1 10.762,10.828 L10.829,11 L20,11 A1 1 0 0 1 20.117,12.993 L20,13 L10.83,13 A3.001 3.001 0 0 1 5.238,13.172 L5.17,13 L4,13 A1 1 0 0 1 3.883,11.007 L4,11 L5.17,11 A3.001 3.001 0 0 1 8,9 M16,3 C17.306,3 18.418,3.835 18.83,5 L20,5 A1 1 0 1 1 20,7 L18.83,7 A3.001 3.001 0 0 1 13.17,7 L4,7 A1 1 0 0 1 4,5 L13.17,5 A3.001 3.001 0 0 1 16,3"/>
</svg>

