<svg xmlns="http://www.w3.org/2000/svg" width="24" height="24">
  <defs/>
  <path  d="M14.41,2.293 C15.379,2.533 16.306,2.917 17.16,3.433 C17.51,3.644 17.697,4.048 17.63,4.452 C17.517,5.141 17.689,5.668 18.01,5.99 C18.332,6.312 18.86,6.483 19.548,6.37 C19.952,6.303 20.356,6.489 20.568,6.84 C21.084,7.694 21.468,8.621 21.708,9.59 C21.807,9.988 21.653,10.405 21.32,10.644 C20.752,11.051 20.5,11.544 20.5,12 C20.5,12.456 20.752,12.95 21.32,13.357 C21.653,13.596 21.806,14.013 21.708,14.41 C21.468,15.379 21.084,16.306 20.568,17.16 C20.356,17.511 19.952,17.697 19.548,17.63 C18.859,17.517 18.333,17.689 18.011,18.01 C17.689,18.332 17.517,18.86 17.631,19.548 C17.698,19.952 17.512,20.356 17.161,20.568 C16.306,21.084 15.378,21.468 14.409,21.708 C14.012,21.806 13.595,21.653 13.356,21.32 C12.95,20.752 12.456,20.5 12,20.5 C11.545,20.5 11.05,20.752 10.644,21.32 C10.405,21.653 9.988,21.806 9.591,21.708 C8.622,21.468 7.694,21.084 6.839,20.568 C6.488,20.356 6.302,19.952 6.369,19.548 C6.483,18.86 6.312,18.333 5.989,18.011 C5.668,17.689 5.141,17.517 4.452,17.631 C4.048,17.698 3.644,17.511 3.433,17.161 C2.917,16.306 2.533,15.378 2.293,14.409 C2.195,14.012 2.348,13.595 2.681,13.356 C3.248,12.95 3.501,12.456 3.501,12 C3.501,11.545 3.248,11.05 2.681,10.644 C2.348,10.405 2.195,9.988 2.293,9.591 C2.533,8.622 2.917,7.695 3.433,6.84 C3.644,6.49 4.048,6.303 4.452,6.37 C5.141,6.483 5.668,6.312 5.99,5.99 C6.312,5.668 6.483,5.14 6.37,4.452 C6.303,4.048 6.49,3.644 6.84,3.433 C7.694,2.917 8.621,2.533 9.59,2.293 C9.988,2.194 10.405,2.348 10.644,2.681 C11.051,3.248 11.544,3.501 12,3.501 C12.456,3.501 12.95,3.248 13.357,2.681 C13.596,2.348 14.013,2.195 14.41,2.293 Z M14.512,4.403 C13.855,5.06 12.992,5.5 12,5.5 C11.008,5.5 10.145,5.061 9.488,4.402 C9.116,4.525 8.754,4.675 8.404,4.852 C8.405,5.782 8.105,6.702 7.404,7.404 C6.703,8.105 5.782,8.405 4.852,8.404 C4.676,8.752 4.526,9.114 4.402,9.488 C5.061,10.145 5.5,11.008 5.5,12 C5.5,12.992 5.061,13.855 4.402,14.512 C4.526,14.886 4.677,15.249 4.852,15.597 C5.782,15.595 6.702,15.895 7.404,16.597 C8.105,17.297 8.405,18.218 8.404,19.148 C8.751,19.324 9.114,19.474 9.488,19.598 C10.145,18.939 11.008,18.5 12,18.5 C12.992,18.5 13.855,18.94 14.512,19.598 C14.884,19.475 15.247,19.325 15.597,19.148 C15.595,18.218 15.895,17.298 16.597,16.596 C17.297,15.895 18.218,15.596 19.148,15.596 C19.324,15.249 19.474,14.886 19.598,14.512 C18.939,13.855 18.5,12.992 18.5,12 C18.5,11.008 18.94,10.145 19.598,9.488 C19.475,9.116 19.325,8.754 19.148,8.404 C18.218,8.405 17.298,8.105 16.596,7.404 C15.895,6.703 15.596,5.782 15.596,4.852 C15.246,4.675 14.884,4.525 14.512,4.402 Z M12,8 C14.209,8 16,9.791 16,12 C16,14.209 14.209,16 12,16 C9.791,16 8,14.209 8,12 C8,9.791 9.791,8 12,8 Z M12,10 C10.895,10 10,10.895 10,12 C10,13.105 10.895,14 12,14 C13.105,14 14,13.105 14,12 C14,10.895 13.105,10 12,10 Z"/>
</svg>

