<svg xmlns="http://www.w3.org/2000/svg" width="24" height="24">
  <defs/>
  <path  d="M12,2 C17.523,2 22,6.477 22,12 C22,17.523 17.523,22 12,22 C6.477,22 2,17.523 2,12 C2,6.477 6.477,2 12,2 Z M20,11 L12,11 C11.448,11 11,11.448 11,12 C11,12.552 11.448,13 12,13 L20,13 C20.552,13 21,12.552 21,12 C21,11.448 20.552,11 20,11 Z M19,14 L12,14 C11.471,14.001 11.034,14.413 11.003,14.941 C10.972,15.47 11.358,15.931 11.883,15.993 L12,16 L19,16 C19.529,15.999 19.966,15.587 19.997,15.059 C20.028,14.53 19.642,14.069 19.117,14.007 Z M19,8 L12,8 C11.471,8.001 11.034,8.413 11.003,8.941 C10.972,9.47 11.358,9.931 11.883,9.993 L12,10 L19,10 C19.529,9.999 19.966,9.587 19.997,9.059 C20.028,8.53 19.642,8.069 19.117,8.007 Z M17,5 L12,5 C11.448,5 11,5.448 11,6 C11,6.552 11.448,7 12,7 L17,7 C17.552,7 18,6.552 18,6 C18,5.448 17.552,5 17,5 Z M17,17 L12,17 C11.448,17 11,17.448 11,18 C11,18.552 11.448,19 12,19 L17,19 C17.552,19 18,18.552 18,18 C18,17.448 17.552,17 17,17 Z"/>
</svg>

