<svg xmlns="http://www.w3.org/2000/svg" width="24" height="24">
  <defs/>
  <path  d="M10.114,4.491 C10.19,3.696 11.02,3.041 11.857,3.519 C13.597,4.538 15.239,5.699 16.827,6.94 C18.787,8.488 20.36,9.947 21.474,11.112 C21.957,11.619 21.912,12.42 21.45,12.904 A42.072 42.072 0 0 1 17.955,16.132 C16.017,17.719 14.01,19.257 11.825,20.49 C11.084,20.908 10.281,20.43 10.138,19.689 L10.121,19.576 L9.894,16.002 C8.078,16.04 6.32,16.664 4.914,17.825 L4.649,18.047 L4.521,18.151 L4.274,18.343 C4.234,18.373 4.194,18.403 4.154,18.431 L3.924,18.591 A4.72 4.72 0 0 1 3.706,18.726 L3.5,18.837 C2.534,19.314 2,18.892 2,17 C2,12.596 5.245,8.677 9.632,8.083 L9.891,8.052 Z M12.023,5.965 L11.831,9.437 A0.5 0.5 0 0 1 11.384,9.907 L10.023,10.049 C6.958,10.415 4.526,12.811 4.075,15.943 A9.952 9.952 0 0 1 9.21,14.031 L9.607,14.008 L11.311,13.972 A0.5 0.5 0 0 1 11.821,14.444 L12.018,18.04 C13.621,17.019 15.149,15.844 16.682,14.59 A43.717 43.717 0 0 0 19.539,11.995 L19.281,11.739 L18.725,11.206 A48.15 48.15 0 0 0 15.591,8.513 A46.172 46.172 0 0 0 12.023,5.965"/>
</svg>

