<svg xmlns="http://www.w3.org/2000/svg" width="24" height="24">
  <defs/>
  <path  d="M15,5.5 C15,3.826 16.185,2.386 17.828,2.065 C19.471,1.743 21.111,2.63 21.742,4.181 C22.373,5.731 21.817,7.511 20.417,8.428 C19.016,9.345 17.163,9.142 15.994,7.943 L11.67,10.21 C11.883,10.765 12,11.37 12,12 C12.001,12.612 11.889,13.219 11.67,13.79 L15.994,16.057 C17.208,14.813 19.15,14.649 20.556,15.671 C21.962,16.692 22.405,18.591 21.597,20.129 C20.789,21.668 18.975,22.38 17.336,21.803 C15.697,21.226 14.729,19.533 15.064,17.828 L10.589,15.482 C9.171,16.943 7.009,17.399 5.122,16.634 C3.235,15.869 2,14.037 2,12 C2,9.964 3.235,8.132 5.122,7.367 C7.009,6.602 9.171,7.058 10.589,8.519 L15.064,6.172 C15.021,5.951 15,5.726 15,5.5 Z"/>
</svg>

