<svg xmlns="http://www.w3.org/2000/svg" width="24" height="24">
  <defs/>
  <path  d="M9,3 A1 1 0 0 1 9.117,4.993 L9,5 L5,5 L5,19 L19,19 L19,10 A1 1 0 0 1 20.993,9.883 L21,10 L21,19 A2 2 0 0 1 19.15,20.995 L19,21 L5,21 A2 2 0 0 1 3.005,19.15 L3,19 L3,5 A2 2 0 0 1 4.85,3.005 L5,3 Z M19.513,3 C20.135,3 20.497,3.468 20.588,3.856 C20.679,4.245 20.563,4.827 20.003,5.103 L19.589,5.314 L19.425,5.402 L19.062,5.603 L18.657,5.839 L18.218,6.109 C17.536,6.539 16.758,7.085 15.976,7.746 C14.322,9.145 12.718,11.007 11.949,13.316 A1 1 0 0 1 10.051,12.684 C10.979,9.9 12.874,7.751 14.685,6.219 C15.116,5.854 15.547,5.521 15.963,5.219 L16.273,5 L14,5 A1 1 0 0 1 13.883,3.007 L14,3 Z"/>
</svg>

