<svg xmlns="http://www.w3.org/2000/svg" width="24" height="24">
  <defs/>
  <path  d="M10.114,4.491 L9.911,7.635 L9.891,8.052 L9.801,8.062 C5.363,8.582 2,12.366 2,17 C2,17.457 2.034,17.91 2.102,18.357 C2.381,20.202 2.591,20.381 3.874,18.855 A8.953 8.953 0 0 1 4.914,17.825 A7.958 7.958 0 0 1 9.668,16.007 L9.894,16.002 L9.955,17.231 L10.121,19.576 C10.201,20.38 11.047,20.929 11.825,20.49 C12.177,20.292 12.52,20.08 12.865,19.87 C14.652,18.752 16.325,17.467 17.955,16.132 C18.915,15.332 19.755,14.574 20.471,13.884 C20.801,13.561 21.131,13.238 21.45,12.904 C21.912,12.42 21.958,11.619 21.474,11.112 C20.36,9.947 18.786,8.488 16.827,6.94 C15.239,5.698 13.597,4.538 11.857,3.519 C11.02,3.042 10.19,3.696 10.114,4.491"/>
</svg>

