<svg xmlns="http://www.w3.org/2000/svg" width="24" height="24">
  <defs/>
  <path  d="M18.5,2 C20.09,2 21.48,3.071 21.885,4.608 C22.29,6.146 21.608,7.763 20.225,8.546 C18.841,9.329 17.104,9.081 15.994,7.943 L11.67,10.21 C11.883,10.765 12,11.37 12,12 C12.001,12.612 11.889,13.219 11.67,13.79 L15.994,16.057 C17.208,14.813 19.15,14.649 20.556,15.671 C21.962,16.692 22.405,18.591 21.597,20.129 C20.789,21.668 18.975,22.38 17.336,21.803 C15.697,21.226 14.729,19.533 15.064,17.828 L10.589,15.482 C9.171,16.943 7.009,17.399 5.122,16.634 C3.235,15.869 2,14.037 2,12 C2,9.964 3.235,8.132 5.122,7.367 C7.009,6.602 9.171,7.058 10.589,8.519 L15.064,6.172 C14.863,5.145 15.132,4.083 15.797,3.275 C16.462,2.467 17.454,2 18.5,2 Z M7,9 C5.343,9 4,10.343 4,12 C4,13.657 5.343,15 7,15 C8.657,15 10,13.657 10,12 C10,10.343 8.657,9 7,9 Z M18.5,4 C17.672,4 17,4.672 17,5.5 C17,6.328 17.672,7 18.5,7 C19.328,7 20,6.328 20,5.5 C20,4.672 19.328,4 18.5,4 Z M18.5,17 C17.672,17 17,17.672 17,18.5 C17,19.328 17.672,20 18.5,20 C19.328,20 20,19.328 20,18.5 C20,17.672 19.328,17 18.5,17 Z"/>
</svg>

