<svg xmlns="http://www.w3.org/2000/svg" width="24" height="24">
  <defs/>
  <path  d="M12.702,2.195 L19.702,4.82 A2 2 0 0 1 21,6.693 L21,12.056 A9 9 0 0 1 16.025,20.106 L12.671,21.783 A1.5 1.5 0 0 1 11.329,21.783 L7.975,20.106 A9 9 0 0 1 3,12.056 L3,6.693 A2 2 0 0 1 4.298,4.82 L11.298,2.195 A2 2 0 0 1 12.702,2.195 M12,4.068 L5,6.693 L5,12.056 A7 7 0 0 0 8.87,18.316 L12,19.883 L15.13,18.318 A7 7 0 0 0 19,12.056 L19,6.693 Z M12,8 A1 1 0 0 1 13,9 L13,11 L15,11 A1 1 0 1 1 15,13 L13,13 L13,15 A1 1 0 1 1 11,15 L11,13 L9,13 A1 1 0 1 1 9,11 L11,11 L11,9 A1 1 0 0 1 12,8"/>
</svg>

