<svg xmlns="http://www.w3.org/2000/svg" width="24" height="24">
  <defs/>
  <path  d="M12.702,2.195 L19.702,4.82 A2 2 0 0 1 21,6.693 L21,12.056 A9 9 0 0 1 16.025,20.106 L12.671,21.782 A1.5 1.5 0 0 1 11.329,21.782 L7.975,20.105 A9 9 0 0 1 3,12.055 L3,6.694 A2 2 0 0 1 4.298,4.82 L11.298,2.195 A2 2 0 0 1 12.702,2.195 M12,8 A1 1 0 0 0 11.007,8.883 L11,9 L11,11 L9,11 A1 1 0 0 0 8.883,12.993 L9,13 L11,13 L11,15 A1 1 0 0 0 12.993,15.117 L13,15 L13,13 L15,13 A1 1 0 0 0 15.117,11.007 L15,11 L13,11 L13,9 A1 1 0 0 0 12,8"/>
</svg>

