<svg xmlns="http://www.w3.org/2000/svg" width="24" height="24">
  <defs/>
  <path  d="M10,3 C10,2.448 10.448,2 11,2 L13,2 C13.552,2 14,2.448 14,3 L14,4.32 L17.329,4.874 C18.293,5.035 18.999,5.87 18.999,6.847 L18.999,10.279 L21.059,10.965 C21.391,11.076 21.661,11.32 21.804,11.639 C21.947,11.958 21.95,12.323 21.812,12.644 L19.291,18.527 L20.447,19.106 C20.778,19.259 21,19.58 21.025,19.944 C21.051,20.307 20.876,20.656 20.57,20.854 C20.264,21.052 19.874,21.067 19.553,20.894 L16.894,19.565 C16.331,19.284 15.669,19.284 15.106,19.565 L13.789,20.224 C12.663,20.787 11.337,20.787 10.211,20.224 L8.894,19.565 C8.331,19.283 7.668,19.283 7.105,19.565 L4.447,20.895 C3.953,21.142 3.352,20.941 3.105,20.447 C2.858,19.953 3.059,19.352 3.553,19.105 L5.385,18.189 L2.283,12.761 C2.097,12.436 2.067,12.045 2.201,11.695 C2.334,11.345 2.618,11.073 2.973,10.955 L5,10.279 L5,6.847 C5,5.87 5.706,5.035 6.67,4.874 L10,4.32 Z M7.25,17.425 C8.112,17.261 9.003,17.384 9.788,17.776 L11.104,18.435 C11.667,18.717 12.331,18.717 12.894,18.435 L14.21,17.776 C15.234,17.264 16.429,17.215 17.492,17.643 L19.652,12.605 L12,10.055 L4.473,12.563 Z M17,9.613 L17,6.847 L12,6.014 L7,6.847 L7,9.613 L11.367,8.157 C11.778,8.02 12.221,8.02 12.632,8.157 Z"/>
</svg>

