<svg xmlns="http://www.w3.org/2000/svg" width="24" height="24">
  <defs/>
  <path  d="M13,2 C13.552,2 14,2.448 14,3 L14,4.32 L17.329,4.874 C18.293,5.035 18.999,5.87 18.999,6.847 L18.999,10.279 L21.059,10.965 C21.391,11.076 21.661,11.32 21.804,11.639 C21.947,11.958 21.95,12.323 21.812,12.644 L19.643,17.704 L17.789,16.776 C16.663,16.213 15.337,16.213 14.211,16.776 L12.894,17.435 C12.331,17.717 11.668,17.717 11.105,17.435 L9.789,16.776 C8.663,16.213 7.337,16.213 6.211,16.776 L4.941,17.412 L2.283,12.761 C2.097,12.436 2.067,12.045 2.201,11.695 C2.334,11.345 2.618,11.073 2.973,10.955 L5,10.279 L5,6.847 C5,5.87 5.706,5.035 6.67,4.874 L10,4.32 L10,3 C10,2.448 10.448,2 11,2 Z M14.211,17.776 C15.263,17.25 16.494,17.214 17.575,17.677 L17.789,17.777 L20.447,19.105 C20.921,19.342 21.128,19.907 20.919,20.394 C20.711,20.881 20.158,21.12 19.66,20.94 L19.553,20.894 L16.894,19.565 C16.39,19.313 15.803,19.285 15.277,19.489 L15.105,19.565 L13.789,20.224 C12.736,20.75 11.505,20.786 10.424,20.322 L10.211,20.224 L8.894,19.565 C8.39,19.313 7.803,19.285 7.277,19.489 L7.105,19.565 L4.447,20.895 C3.973,21.135 3.394,20.962 3.129,20.501 C2.864,20.041 3.005,19.453 3.451,19.164 L3.553,19.105 L6.211,17.776 C7.263,17.25 8.494,17.214 9.575,17.677 L9.789,17.777 L11.105,18.435 C11.609,18.687 12.197,18.715 12.723,18.511 L12.894,18.435 Z M12,6.014 L7,6.847 L7,9.613 L11.367,8.157 C11.778,8.02 12.221,8.02 12.632,8.157 L17,9.613 L17,6.847 Z"/>
</svg>

