<svg xmlns="http://www.w3.org/2000/svg" width="24" height="24">
  <defs/>
  <path  d="M8.024,3.001 L15.847,3 C15.977,3 16.105,3.002 16.231,3.029 L16.355,3.065 A2.002 2.002 0 0 1 17.843,5.121 L17.827,5.283 L17.669,6.387 L18.728,6.651 A3 3 0 0 1 20.995,9.383 L21,9.562 L21,18 A3 3 0 0 1 18.176,20.995 L18,21 L6,21 A3 3 0 0 1 3.005,18.176 L3,18 L3,9.562 A3 3 0 0 1 5.1,6.7 L5.272,6.651 L6.331,6.387 L6.173,5.283 A2.001 2.001 0 0 1 7.497,3.11 L7.645,3.065 C7.768,3.018 7.895,3.005 8.024,3.001 M17.384,8.377 L17.088,10.455 A1.5 1.5 0 0 1 14.932,11.585 L13,10.617 L13,19 L18,19 A1 1 0 0 0 19,18 L19,9.562 A1 1 0 0 0 18.242,8.592 L17.385,8.377 Z M6.615,8.377 L5.757,8.591 A1 1 0 0 0 5.007,9.448 L5,9.562 L5,18 A1 1 0 0 0 5.883,18.993 L6,19 L11,19 L11,10.618 L9.068,11.584 A1.5 1.5 0 0 1 6.936,10.584 L6.912,10.454 Z M17,14 A1 1 0 0 1 17,16 L16,16 A1 1 0 1 1 16,14 Z M15.71,5.964 L13.553,8.66 L15.205,9.486 L15.708,5.966 Z M8.29,5.964 L8.794,9.485 L10.446,8.659 L8.291,5.964 Z M13.92,5 L10.08,5 L12,7.4 Z"/>
</svg>

