<svg xmlns="http://www.w3.org/2000/svg" width="24" height="24">
  <defs/>
  <path  d="M15.847,3 C16.019,3 16.191,3.003 16.355,3.065 C17.338,3.323 17.971,4.277 17.827,5.283 L17.669,6.387 L18.728,6.651 C20.063,6.985 21,8.185 21,9.561 L21,18 C21,19.657 19.657,21 18,21 L6,21 C4.343,21 3,19.657 3,18 L3,9.562 C3,8.186 3.937,6.986 5.272,6.652 L6.331,6.387 L6.173,5.283 C6.029,4.277 6.662,3.323 7.645,3.065 C7.81,3.003 7.981,3 8.153,3 Z M16,14 C15.448,14 15,14.448 15,15 C15,15.552 15.448,16 16,16 L17,16 C17.552,16 18,15.552 18,15 C18,14.448 17.552,14 17,14 Z M12,7.4 L13.92,5 L10.08,5 Z M8.29,5.964 L8.794,10.485 L10.446,8.659 L8.291,5.964 Z M13.553,8.66 L15.205,10.486 L15.708,5.967 L13.553,8.66 Z"/>
</svg>

