<svg xmlns="http://www.w3.org/2000/svg" width="24" height="24">
  <defs/>
  <path  d="M18.026,3.902 A1 1 0 0 0 17.309,3.413 C16.899,3.413 16.456,3.737 15.982,4.086 C15.865,4.172 15.746,4.259 15.625,4.344 C15.083,4.721 14.461,5.064 13.929,5.172 C13.099,5.342 12.146,5.103 11.382,4.762 C10.512,4.361 10.009,5.284 9.62,5.998 C9.547,6.131 9.478,6.258 9.412,6.367 C9.122,6.84 8.757,7.404 8.342,7.973 A1 1 0 0 0 7.302,9.286 C6.994,9.664 6.702,10.026 6.425,10.373 A1 1 0 0 0 5.29,11.84 C4.218,13.273 3.48,14.438 3.054,15.475 C2.694,16.355 2.54,17.178 2.607,18.017 C2.674,18.844 2.949,19.614 3.334,20.393 C3.856,21.448 5.136,21.737 6.073,21.196 L20.795,12.696 A2 2 0 0 0 21.527,9.964 L21.027,9.098 L14.965,12.598 A1 1 0 0 1 13.965,10.866 L20.027,7.366 Z"/>
</svg>

