<svg xmlns="http://www.w3.org/2000/svg" width="24" height="24">
  <defs/>
  <path  d="M7.93,19.09 A6.01 6.01 0 0 1 6.82,19 C4.75,18.63 1.76,16.68 1.94,14.61 C2.18,12 6.56,12 8,12 C9.92,12 11.89,9.93 14.62,7.06 C15.43,6.2 16.32,5.27 17.29,4.29 A1 1 0 0 1 18.45,4.11 A6.1 6.1 0 0 1 21.85,8.11 A5.39 5.39 0 0 1 20.8,12.6 A10.14 10.14 0 0 0 19,18 A1.005 1.005 0 0 1 17,18.2 A18.322 18.322 0 0 0 15.78,14.2 A21.62 21.62 0 0 0 12.19,17.26 A6 6 0 0 1 7.93,19.09 M18.17,6.25 L16.07,8.43 C13,11.67 10.78,14 8,14 C4.42,14 3.94,14.76 3.93,14.77 C3.95,14.91 4.01,15.041 4.1,15.15 A5.59 5.59 0 0 0 7.18,17 A3.91 3.91 0 0 0 10.79,15.77 C12.52,14.06 14.83,12 16,12 C16.37,12 17.08,12 17.86,13.83 A10.47 10.47 0 0 1 19.2,11.4 A3.36 3.36 0 0 0 19.9,8.54 A3.86 3.86 0 0 0 18.17,6.25"/>
</svg>

