<svg xmlns="http://www.w3.org/2000/svg" width="24" height="24">
  <defs/>
  <path  d="M18.026,3.902 L21.527,9.964 C22.079,10.921 21.752,12.144 20.795,12.696 L6.073,21.196 C5.136,21.737 3.856,21.448 3.334,20.393 C2.949,19.615 2.674,18.844 2.607,18.017 C2.54,17.178 2.694,16.355 3.054,15.475 C3.48,14.438 4.218,13.273 5.29,11.84 C5.084,11.488 5.113,11.046 5.362,10.723 C5.612,10.401 6.032,10.262 6.425,10.373 C6.702,10.025 6.994,9.664 7.302,9.287 C7.194,8.966 7.256,8.613 7.466,8.348 C7.676,8.083 8.005,7.942 8.342,7.973 C8.757,7.404 9.122,6.84 9.412,6.367 C9.483,6.25 9.556,6.113 9.633,5.968 C10.013,5.253 10.492,4.351 11.383,4.762 C11.383,4.762 12.157,5.033 12.247,5.056 C12.793,5.199 13.411,5.278 13.929,5.173 C14.629,5.029 15.281,4.616 15.84,4.181 C16.213,3.89 16.83,3.41 17.31,3.41 C17.578,3.41 17.874,3.639 18.026,3.902 Z M18.294,8.366 L16.875,5.909 C16.111,6.455 15.258,6.942 14.33,7.132 C13.376,7.327 12.411,7.166 11.743,6.992 C11.403,6.903 11.349,7 11.215,7.241 C11.187,7.291 11.156,7.348 11.118,7.41 C10.866,7.823 10.554,8.309 10.198,8.816 L10.309,8.871 C10.632,9.028 10.845,9.346 10.869,9.704 C10.893,10.062 10.724,10.405 10.425,10.603 C10.126,10.802 9.744,10.825 9.423,10.664 L8.95,10.43 C8.712,10.722 8.486,11 8.27,11.27 C8.727,11.545 8.888,12.13 8.636,12.6 C8.384,13.07 7.807,13.259 7.325,13.03 L7.013,12.876 C5.927,14.313 5.261,15.363 4.903,16.234 C4.638,16.881 4.563,17.388 4.6,17.857 C4.637,18.323 4.792,18.821 5.098,19.449 L19.794,10.964 L19.294,10.098 L14.964,12.598 C14.486,12.87 13.879,12.705 13.604,12.229 C13.329,11.753 13.49,11.144 13.964,10.866 Z"/>
</svg>

