<svg xmlns="http://www.w3.org/2000/svg" width="24" height="24">
  <defs/>
  <path  d="M6,3.586 C6.375,3.211 6.884,3 7.414,3 L16.586,3 C17.116,3 17.625,3.211 18,3.586 L20.414,6 C20.789,6.375 21,6.884 21,7.414 L21,19 C21,20.657 19.657,22 18,22 L6,22 C4.343,22 3,20.657 3,19 L3,7.414 C3,6.884 3.211,6.375 3.586,6 Z M16.586,5 L7.414,5 L5.414,7 L18.586,7 Z M10,12 C10,11.448 9.552,11 9,11 C8.448,11 8,11.448 8,12 C8,14.209 9.791,16 12,16 C14.209,16 16,14.209 16,12 C16,11.448 15.552,11 15,11 C14.448,11 14,11.448 14,12 C14,13.105 13.105,14 12,14 C10.895,14 10,13.105 10,12 Z"/>
</svg>

