<svg xmlns="http://www.w3.org/2000/svg" width="24" height="24">
  <defs/>
  <path  d="M3.138,2 C4.712,2 6.018,3.216 6.13,4.786 L6.145,5 L19.802,5 C20.395,5 20.958,5.263 21.338,5.718 C21.718,6.174 21.876,6.774 21.77,7.358 L20.133,16.358 C19.96,17.309 19.132,18 18.165,18 L6.931,18 C5.882,18 5.011,17.189 4.936,16.142 L4.136,4.929 C4.099,4.405 3.662,3.999 3.137,4 L3,4 C2.448,4 2,3.552 2,3 C2,2.448 2.448,2 3,2 Z M19.802,7 L6.288,7 L6.931,16 L18.165,16 Z M7.5,19 C8.328,19 9,19.672 9,20.5 C9,21.328 8.328,22 7.5,22 C6.672,22 6,21.328 6,20.5 C6,19.672 6.672,19 7.5,19 Z M17.5,19 C18.328,19 19,19.672 19,20.5 C19,21.328 18.328,22 17.5,22 C16.672,22 16,21.328 16,20.5 C16,19.672 16.672,19 17.5,19 Z"/>
</svg>

