<svg xmlns="http://www.w3.org/2000/svg" width="24" height="24">
  <defs/>
  <path  d="M9,20 A1 1 0 1 1 9,22 A1 1 0 0 1 9,20 M16,20 A1 1 0 1 1 16,22 A1 1 0 0 1 16,20 M2.2,2.9 A1 1 0 0 1 3.495,2.631 L3.6,2.701 L5.308,3.981 A2 2 0 0 1 5.961,4.829 L6.021,5 L18.867,5 A2 2 0 0 1 20.865,7.1 L20.852,7.248 L20.395,10.903 A5 5 0 0 1 16.075,15.243 L15.849,15.266 L8.536,15.876 L8.796,17 L17.5,17 A1 1 0 0 1 17.617,18.993 L17.5,19 L8.796,19 A2 2 0 0 1 6.89,17.607 L6.847,17.45 L4.107,5.58 L2.4,4.3 A1 1 0 0 1 2.2,2.9"/>
</svg>

