<svg xmlns="http://www.w3.org/2000/svg" width="24" height="24">
  <defs/>
  <path  d="M11,13 L11,15 L9,15 L9,13 Z"/>
  <path  d="M6.48,4 L17.52,4 C18.127,4 18.702,4.277 19.081,4.751 L22.131,8.563 C22.917,9.545 22.218,11 20.96,11 L20,11 L20,19 C20,19.552 19.552,20 19,20 C18.448,20 18,19.552 18,19 L18,11 L16,11 L16,18 C16,19.105 15.105,20 14,20 L6,20 C4.895,20 4,19.105 4,18 L4,11 L3.04,11 C1.783,11 1.083,9.545 1.869,8.563 L4.919,4.75 C5.299,4.276 5.873,4 6.48,4 Z M8,11 C7.448,11 7,11.448 7,12 L7,16 C7,16.552 7.448,17 8,17 L12,17 C12.552,17 13,16.552 13,16 L13,12 C13,11.448 12.552,11 12,11 Z"/>
</svg>

