<svg xmlns="http://www.w3.org/2000/svg" width="24" height="24">
  <defs/>
  <path  d="M17.52,4 C18.064,4 18.585,4.222 18.962,4.614 L19.082,4.751 L22.132,8.563 C22.889,9.51 22.266,10.897 21.092,10.995 L20.96,11 L20,11 L20,19 C19.999,19.529 19.587,19.966 19.059,19.997 C18.53,20.028 18.069,19.642 18.007,19.117 L18,19 L18,11 L16,11 L16,18 C16,19.047 15.194,19.917 14.15,19.995 L14,20 L6,20 C4.954,20 4.084,19.193 4.006,18.15 L4,18 L4,11 L3.04,11 C1.828,11 1.134,9.647 1.79,8.67 L1.87,8.563 L4.919,4.751 C5.259,4.326 5.757,4.058 6.299,4.008 L6.482,4 Z M17.52,6 L6.48,6 L4.08,9 L19.92,9 Z M7,11 L6,11 L6,18 L14,18 L14,11 L13,11 L13,15 C13,15.552 12.552,16 12,16 L8,16 C7.448,16 7,15.552 7,15 Z M11,11 L9,11 L9,14 L11,14 Z"/>
</svg>

