<svg xmlns="http://www.w3.org/2000/svg" width="24" height="24">
  <defs/>
  <path  d="M16.243,3.515 C16.633,3.125 17.267,3.125 17.657,3.515 L20.485,6.343 C20.745,6.594 20.849,6.966 20.758,7.316 C20.666,7.665 20.393,7.938 20.044,8.03 C19.694,8.121 19.322,8.017 19.071,7.757 L18.364,7.05 L13.414,12 L14.829,13.414 C15.61,14.195 15.61,15.462 14.829,16.243 L12.334,18.737 C10.995,20.076 9.014,20.544 7.217,19.945 L6.269,19.629 C5.372,19.33 4.669,18.627 4.37,17.73 L4.054,16.782 C3.455,14.985 3.923,13.004 5.262,11.665 L7.757,9.17 C8.538,8.389 9.804,8.389 10.585,9.17 L12,10.586 L16.95,5.636 L16.243,4.929 C15.853,4.539 15.853,3.905 16.243,3.515 Z M10.586,12 L9.172,10.586 L6.677,13.08 C5.873,13.883 5.593,15.072 5.952,16.15 L6.269,17.099 C6.369,17.397 6.603,17.631 6.901,17.731 L7.85,18.047 C8.928,18.407 10.116,18.126 10.92,17.323 L13.414,14.828 L12,13.414 L11.293,14.121 C10.901,14.5 10.277,14.495 9.891,14.109 C9.505,13.723 9.5,13.099 9.879,12.707 Z"/>
</svg>

