<svg xmlns="http://www.w3.org/2000/svg" width="24" height="24">
  <defs/>
  <path  d="M12.41,3.654 A4.304 4.304 0 0 1 17.981,2.993 L18.161,3.121 L18.484,3.363 A3.79 3.79 0 0 1 19.994,6.173 L20,6.395 L20,21 A1 1 0 0 1 18.007,21.117 L18,21 L18,6.395 A1.79 1.79 0 0 0 17.414,5.07 L17.284,4.963 L16.961,4.721 A2.304 2.304 0 0 0 14.377,4.599 L14.224,4.701 L14.982,5.139 A4 4 0 0 1 16.548,10.416 L16.446,10.603 L15.946,11.469 A1 1 0 0 1 14.685,11.888 L14.58,11.835 L5.92,6.835 A1 1 0 0 1 5.501,5.573 L5.554,5.469 L6.054,4.603 A4 4 0 0 1 11.331,3.038 L11.518,3.138 Z M6.75,15.397 A1 1 0 0 1 7.116,16.763 L6.616,17.629 A1 1 0 0 1 4.884,16.629 L5.384,15.763 A1 1 0 0 1 6.75,15.397 M8.982,15.531 A1 1 0 0 1 10.767,16.427 L10.714,16.531 L10.214,17.397 A1 1 0 0 1 8.43,16.502 L8.482,16.397 Z M5.152,12.165 A1 1 0 0 1 5.518,13.531 L5.018,14.397 A1 1 0 1 1 3.286,13.397 L3.786,12.531 A1 1 0 0 1 5.152,12.165 M8.75,11.933 A1 1 0 0 1 9.116,13.299 L8.616,14.165 A1 1 0 0 1 6.884,13.165 L7.384,12.299 A1 1 0 0 1 8.75,11.933 M10.982,12.067 A1 1 0 0 1 12.767,12.963 L12.714,13.067 L12.214,13.933 A1 1 0 0 1 10.43,13.037 L10.482,12.933 Z M7.152,8.701 A1 1 0 0 1 7.518,10.067 L7.018,10.933 A1 1 0 1 1 5.286,9.933 L5.786,9.067 A1 1 0 0 1 7.152,8.701"/>
</svg>

