<svg xmlns="http://www.w3.org/2000/svg" width="24" height="24">
  <defs/>
  <path  d="M8,3 C8,2.448 8.448,2 9,2 L13,2 C13.552,2 14,2.448 14,3 C14,3.552 13.552,4 13,4 L13,6 L14.559,6 C15.85,6 16.996,6.826 17.404,8.051 L18.641,11.761 C18.879,12.474 19,13.221 19,13.973 L19,19 C19,20.657 17.657,22 16,22 L8,22 C6.343,22 5,20.657 5,19 L5,13.974 C5,13.221 5.122,12.474 5.36,11.76 L6.595,8.051 C7.004,6.826 8.15,6 9.442,6 L11,6 L11,4 L9,4 C8.448,4 8,3.552 8,3 Z M9.442,8 C9.011,7.999 8.628,8.275 8.492,8.684 L7.722,11 L10,11 C10.552,11 11,11.448 11,12 C11,12.552 10.552,13 10,13 L7.096,13 C7.032,13.321 7,13.647 7,13.974 L7,19 C7,19.552 7.448,20 8,20 L16,20 C16.552,20 17,19.552 17,19 L17,13.974 C17,13.436 16.913,12.902 16.743,12.392 L15.507,8.684 C15.371,8.276 14.99,8.001 14.56,8 Z"/>
</svg>

