<svg xmlns="http://www.w3.org/2000/svg" width="24" height="24">
  <defs/>
  <path  d="M9,2 L13,2 C13.552,2 14,2.448 14,3 C14,3.552 13.552,4 13,4 L13,6 L14.56,6 C15.85,6.001 16.996,6.827 17.404,8.051 L18.64,11.76 C18.878,12.474 19,13.221 19,13.974 L19,19 C19,20.657 17.657,22 16,22 L8,22 C6.343,22 5,20.657 5,19 L5,13.973 C5,13.221 5.121,12.474 5.359,11.761 L6.595,8.051 C7.004,6.826 8.15,6 9.442,6 L11,6 L11,4 L9,4 C8.448,4 8,3.552 8,3 C8,2.448 8.448,2 9,2 Z M10,13 C10.552,13 11,12.552 11,12 C11,11.448 10.552,11 10,11 L7.721,11 C7.501,11.658 7.231,12.317 7.096,13 Z"/>
</svg>

