<svg xmlns="http://www.w3.org/2000/svg" width="24" height="24">
  <defs/>
  <path  d="M9.104,18.949 A1 1 0 0 1 9.811,20.173 L9.551,21.14 A1 1 0 0 1 7.62,20.622 L7.879,19.656 A1 1 0 0 1 9.104,18.949 M13.774,17.794 A1 1 0 0 1 14.48,19.018 L14.222,19.984 A1 1 0 1 1 12.29,19.467 L12.549,18.501 A1 1 0 0 1 13.773,17.794 Z M10.139,15.085 A1 1 0 0 1 10.846,16.31 L10.587,17.276 A1 1 0 0 1 8.655,16.758 L8.915,15.792 A1 1 0 0 1 10.139,15.085 M11.5,2 A6.502 6.502 0 0 1 17.586,6.212 A6.002 6.002 0 0 1 19.6,16.799 A1 1 0 1 1 18.398,15.201 A4.001 4.001 0 0 0 16.654,8.054 A1.01 1.01 0 0 1 15.844,7.321 A4.5 4.5 0 0 0 7.027,9 A1.01 1.01 0 0 1 6.267,10.09 A3.002 3.002 0 0 0 5.015,15.25 A1 1 0 1 1 3.691,16.75 A5 5 0 0 1 5,8.416 A6.5 6.5 0 0 1 11.5,2 M14.809,13.93 A1 1 0 0 1 15.516,15.155 L15.256,16.121 A1 1 0 0 1 13.325,15.603 L13.584,14.637 A1 1 0 0 1 14.809,13.93"/>
</svg>

