<svg xmlns="http://www.w3.org/2000/svg" width="24" height="24">
  <defs/>
  <path  d="M12.41,3.653 C13.849,2.087 16.216,1.806 17.981,2.993 L18.161,3.121 L18.484,3.363 C19.376,4.032 19.928,5.059 19.994,6.172 L20,6.395 L20,21 C19.999,21.529 19.587,21.966 19.059,21.997 C18.53,22.028 18.069,21.642 18.007,21.117 L18,21 L18,6.395 C18,5.89 17.787,5.409 17.414,5.07 L17.284,4.963 L16.961,4.721 C16.206,4.155 15.182,4.106 14.377,4.598 L14.224,4.701 L14.982,5.139 C16.824,6.202 17.512,8.52 16.548,10.416 L16.446,10.603 L15.946,11.469 C15.692,11.908 15.151,12.087 14.685,11.887 L14.58,11.835 L5.92,6.835 C5.481,6.581 5.301,6.039 5.502,5.573 L5.554,5.469 L6.054,4.603 C7.117,2.761 9.435,2.073 11.331,3.037 L11.518,3.139 Z M7.786,5.602 L14.714,9.602 C15.266,8.645 14.939,7.422 13.982,6.87 L10.518,4.87 C9.561,4.318 8.338,4.645 7.786,5.602 Z M8.75,11.933 C9.228,12.209 9.392,12.821 9.116,13.299 L8.616,14.165 C8.439,14.477 8.108,14.67 7.749,14.671 C7.39,14.672 7.058,14.48 6.88,14.169 C6.701,13.858 6.703,13.475 6.884,13.165 L7.384,12.299 C7.66,11.821 8.272,11.657 8.75,11.933 Z M6.75,15.397 C7.228,15.673 7.392,16.285 7.116,16.763 L6.616,17.629 C6.439,17.941 6.108,18.134 5.749,18.135 C5.39,18.136 5.058,17.944 4.88,17.633 C4.701,17.322 4.703,16.939 4.884,16.629 L5.384,15.763 C5.66,15.285 6.272,15.121 6.75,15.397 Z M8.982,15.531 C9.245,15.069 9.824,14.893 10.3,15.132 C10.775,15.371 10.98,15.94 10.767,16.427 L10.714,16.531 L10.214,17.397 C9.949,17.854 9.373,18.026 8.9,17.789 C8.428,17.551 8.222,16.987 8.43,16.501 L8.482,16.397 Z M10.982,12.067 C11.246,11.607 11.823,11.433 12.297,11.671 C12.772,11.909 12.978,12.475 12.767,12.962 L12.714,13.067 L12.214,13.933 C11.949,14.39 11.373,14.562 10.9,14.325 C10.428,14.087 10.222,13.523 10.43,13.037 L10.482,12.933 Z M5.152,12.165 C5.63,12.441 5.794,13.053 5.518,13.531 L5.018,14.397 C4.74,14.871 4.131,15.032 3.655,14.757 C3.179,14.482 3.014,13.875 3.286,13.397 L3.786,12.531 C4.062,12.053 4.674,11.889 5.152,12.165 Z M7.152,8.7 C7.63,8.976 7.794,9.588 7.518,10.066 L7.018,10.932 C6.74,11.406 6.131,11.567 5.655,11.292 C5.179,11.017 5.014,10.41 5.286,9.932 L5.786,9.066 C6.062,8.588 6.674,8.424 7.152,8.7 Z"/>
</svg>

