<svg xmlns="http://www.w3.org/2000/svg" width="24" height="24">
  <defs/>
  <path  d="M9.104,18.949 A1 1 0 0 1 9.811,20.173 L9.551,21.14 A1 1 0 0 1 7.62,20.622 L7.879,19.656 A1 1 0 0 1 9.104,18.949 M13.774,17.794 A1 1 0 0 1 14.48,19.018 L14.222,19.984 A1 1 0 1 1 12.29,19.467 L12.549,18.501 A1 1 0 0 1 13.773,17.794 Z M10.139,15.085 A1 1 0 0 1 10.846,16.31 L10.587,17.276 A1 1 0 0 1 8.655,16.758 L8.915,15.792 A1 1 0 0 1 10.139,15.085 M11.5,2 A6.502 6.502 0 0 1 17.586,6.212 A6.002 6.002 0 0 1 16.414,17.986 C16.774,17.623 17.047,17.166 17.189,16.638 L17.448,15.672 A3 3 0 0 0 11.784,13.732 A3 3 0 0 0 6.982,15.275 L6.724,16.241 A2.986 2.986 0 0 0 6.723,17.793 A2.99 2.99 0 0 0 6.551,17.98 A5 5 0 0 1 5.001,8.416 A6.5 6.5 0 0 1 11.5,2 M14.809,13.93 A1 1 0 0 1 15.516,15.155 L15.256,16.121 A1 1 0 0 1 13.325,15.603 L13.584,14.637 A1 1 0 0 1 14.809,13.93"/>
</svg>

