<svg xmlns="http://www.w3.org/2000/svg" width="24" height="24">
  <defs/>
  <path  d="M17.802,3.183 C17.22,2.878 16.528,3.329 16.472,4.048 C16.461,4.182 16.45,4.333 16.44,4.5 A5.5 5.5 0 0 0 11.553,7.54 L11,8.646 L10.447,7.54 A5.5 5.5 0 0 0 5.527,4.5 L4,4.5 A1.5 1.5 0 1 0 4,7.5 L5.528,7.5 A2.5 2.5 0 0 1 7.764,8.882 L9.323,12 L7.763,15.118 A2.5 2.5 0 0 1 5.529,16.5 L4,16.5 A1.5 1.5 0 1 0 4,19.5 L5.528,19.5 A5.5 5.5 0 0 0 10.448,16.46 L11,15.354 L11.553,16.46 A5.5 5.5 0 0 0 16.438,19.5 C16.45,19.714 16.463,19.903 16.477,20.065 C16.531,20.736 17.161,21.121 17.737,20.82 C18.117,20.622 18.67,20.314 19.328,19.886 A19.54 19.54 0 0 0 20.843,18.803 C21.363,18.392 21.382,17.587 20.893,17.197 A19.761 19.761 0 0 0 19.36,16.097 A19.341 19.341 0 0 0 17.802,15.183 C17.22,14.878 16.528,15.329 16.472,16.048 C16.461,16.182 16.45,16.333 16.44,16.5 A2.5 2.5 0 0 1 14.236,15.118 L12.677,12 L14.237,8.882 A2.5 2.5 0 0 1 16.437,7.5 C16.45,7.714 16.463,7.903 16.477,8.065 C16.531,8.736 17.161,9.121 17.737,8.82 A19.5 19.5 0 0 0 19.328,7.886 C19.988,7.458 20.501,7.074 20.843,6.803 C21.363,6.392 21.382,5.587 20.893,5.197 A19.784 19.784 0 0 0 19.36,4.097 A19.34 19.34 0 0 0 17.802,3.183"/>
</svg>

