<svg xmlns="http://www.w3.org/2000/svg" width="24" height="24">
  <defs/>
  <path  d="M6.301,5.5 A4.5 4.5 0 0 1 10.033,7.485 L10.16,7.685 L14.412,14.772 A1.5 1.5 0 0 0 15.542,15.492 L15.699,15.5 L16.44,15.5 L16.46,15.188 L16.471,15.048 C16.527,14.329 17.22,13.878 17.802,14.183 L18.116,14.351 L18.484,14.56 A20.468 20.468 0 0 1 20.048,15.565 L20.433,15.845 L20.756,16.09 L20.893,16.197 C21.382,16.587 21.363,17.392 20.843,17.803 L20.707,17.91 L20.387,18.152 L20.007,18.427 L19.569,18.728 A21.82 21.82 0 0 1 18.855,19.185 L18.429,19.44 L18.054,19.651 L17.738,19.821 C17.161,20.121 16.531,19.736 16.477,19.065 L16.437,18.5 L15.7,18.5 A4.5 4.5 0 0 1 11.968,16.515 L11.841,16.315 L7.589,9.228 A1.5 1.5 0 0 0 6.459,8.508 L6.301,8.5 L4,8.5 A1.5 1.5 0 0 1 3.856,5.507 L4,5.5 Z M7.308,15.112 L7.42,15 A1.5 1.5 0 1 1 9.657,17 A4.5 4.5 0 0 1 6.544,18.494 L6.302,18.5 L4,18.5 A1.5 1.5 0 0 1 3.856,15.507 L4,15.5 L6.301,15.5 A1.5 1.5 0 0 0 7.308,15.112 M17.802,4.182 L18.116,4.352 L18.484,4.56 C18.616,4.636 18.754,4.719 18.901,4.808 L19.36,5.098 C19.61,5.261 19.84,5.418 20.048,5.565 L20.433,5.845 L20.756,6.09 L20.893,6.197 C21.382,6.587 21.363,7.392 20.843,7.803 L20.707,7.91 L20.387,8.152 L20.007,8.427 L19.569,8.728 A21.846 21.846 0 0 1 18.855,9.185 L18.429,9.44 L18.054,9.651 L17.738,9.821 C17.161,10.121 16.531,9.736 16.477,9.065 L16.437,8.5 L15.7,8.5 A1.5 1.5 0 0 0 14.693,8.888 L14.58,9 A1.5 1.5 0 1 1 12.343,7 A4.5 4.5 0 0 1 15.456,5.506 L15.698,5.5 L16.439,5.5 L16.47,5.048 C16.526,4.329 17.219,3.878 17.801,4.183 Z"/>
</svg>

