<svg xmlns="http://www.w3.org/2000/svg" width="24" height="24">
  <defs/>
  <path  d="M17.578,3.655 C17.298,3.509 16.974,3.72 16.947,4.066 C16.927,4.318 16.907,4.633 16.893,5 L16.473,5 A5 5 0 0 0 12,7.764 L11,9.764 L10,7.764 A5 5 0 0 0 5.528,5 L4,5 A1 1 0 1 0 4,7 L5.528,7 A3 3 0 0 1 8.21,8.658 L9.882,12 L8.212,15.342 A3 3 0 0 1 5.527,17 L4,17 A1 1 0 1 0 4,19 L5.528,19 A5 5 0 0 0 10,16.236 L11,14.236 L12,16.236 A5 5 0 0 0 16.472,19 L16.893,19 C16.909,19.396 16.931,19.732 16.953,19.992 C16.979,20.316 17.275,20.495 17.55,20.352 C17.918,20.16 18.456,19.86 19.1,19.442 A19.538 19.538 0 0 0 20.576,18.386 C20.824,18.19 20.835,17.812 20.599,17.624 A19.267 19.267 0 0 0 19.101,16.55 A18.9 18.9 0 0 0 17.578,15.655 C17.298,15.509 16.974,15.72 16.947,16.066 C16.927,16.318 16.907,16.633 16.893,17 L16.473,17 A3 3 0 0 1 13.789,15.342 L12.118,12 L13.788,8.658 A3 3 0 0 1 16.473,7 L16.894,7 C16.91,7.396 16.932,7.732 16.954,7.992 C16.98,8.316 17.276,8.495 17.551,8.352 C17.919,8.16 18.457,7.86 19.101,7.442 A19.552 19.552 0 0 0 20.577,6.386 C20.825,6.19 20.836,5.812 20.6,5.624 A19.33 19.33 0 0 0 19.102,4.55 A18.908 18.908 0 0 0 17.579,3.655 Z"/>
</svg>

