<svg xmlns="http://www.w3.org/2000/svg" width="24" height="24">
  <defs/>
  <path  d="M6.301,6 A4 4 0 0 1 9.613,7.756 L9.731,7.942 L13.984,15.029 A2 2 0 0 0 15.537,15.994 L15.7,16 L16.894,16 L16.914,15.585 L16.936,15.225 L16.948,15.066 C16.975,14.72 17.3,14.509 17.579,14.656 L17.885,14.82 L18.245,15.023 L18.443,15.14 L18.873,15.403 L19.102,15.55 L19.565,15.86 L19.775,16.007 L20.152,16.28 L20.467,16.52 L20.6,16.624 C20.836,16.812 20.825,17.19 20.577,17.386 L20.297,17.603 L19.957,17.855 L19.557,18.137 L19.101,18.442 L18.639,18.733 L18.223,18.982 L17.858,19.187 L17.551,19.352 C17.276,19.495 16.979,19.316 16.953,18.992 L16.928,18.645 L16.904,18.23 L16.894,18 L15.7,18 A4 4 0 0 1 12.388,16.244 L12.27,16.058 L8.017,8.971 A2 2 0 0 0 6.464,8.006 L6.3,8 L4,8 A1 1 0 0 1 3.883,6.007 L4,6 Z M10.015,13.643 A1 1 0 0 1 10.357,15.014 L9.731,16.058 A4 4 0 0 1 6.301,18 L4,18 A1 1 0 1 1 4,16 L6.301,16 A2 2 0 0 0 8.016,15.029 L8.643,13.986 A1 1 0 0 1 10.014,13.642 Z M17.578,4.655 L17.884,4.82 L18.244,5.023 L18.442,5.14 L18.872,5.403 L19.101,5.55 L19.564,5.86 L19.774,6.007 L20.151,6.28 L20.466,6.52 L20.599,6.624 C20.835,6.812 20.824,7.19 20.576,7.386 L20.296,7.603 L19.956,7.855 C19.832,7.945 19.699,8.039 19.556,8.137 L19.1,8.442 L18.638,8.733 L18.222,8.982 L17.857,9.188 L17.55,9.352 C17.275,9.495 16.978,9.316 16.952,8.992 L16.927,8.645 L16.903,8.23 L16.893,8 L15.7,8 A2 2 0 0 0 14.073,8.836 L13.985,8.971 L13.359,10.014 A1 1 0 0 1 11.589,9.089 L11.644,8.985 L12.27,7.942 A4 4 0 0 1 15.479,6.006 L15.699,6 L16.894,6 L16.914,5.585 L16.936,5.225 L16.948,5.066 C16.975,4.72 17.3,4.509 17.579,4.656 Z"/>
</svg>

