<svg xmlns="http://www.w3.org/2000/svg" width="24" height="24">
  <defs/>
  <path  d="M12,2 C17.523,2 22,6.477 22,12 C22,17.523 17.523,22 12,22 C6.477,22 2,17.523 2,12 C2,6.477 6.477,2 12,2 Z M14.918,14.571 L14.9,14.555 C14.521,14.164 14,13.944 13.455,13.943 C12.911,13.943 12.389,14.163 12.01,14.554 C12.008,14.557 12.004,14.559 12,14.559 C11.996,14.559 11.992,14.557 11.99,14.554 C11.245,13.786 10.029,13.735 9.222,14.438 L9.1,14.555 L9.098,14.557 C9.083,14.573 9.063,14.592 9.042,14.589 L9.019,14.578 L8.676,14.263 C8.287,13.904 7.686,13.91 7.304,14.277 C6.922,14.644 6.893,15.244 7.237,15.647 L7.324,15.737 L7.668,16.052 C8.434,16.754 9.605,16.769 10.389,16.087 L10.521,15.961 L10.521,15.961 C10.53,15.95 10.543,15.934 10.555,15.946 C11.345,16.762 12.655,16.762 13.445,15.946 L13.457,15.944 L13.485,15.968 C14.215,16.72 15.385,16.793 16.2,16.163 L16.332,16.052 L16.676,15.737 C17.065,15.38 17.11,14.782 16.778,14.372 C16.447,13.961 15.853,13.879 15.422,14.184 L15.324,14.263 L14.981,14.578 C14.958,14.598 14.936,14.588 14.918,14.571 Z M8.5,8 C7.672,8 7,8.672 7,9.5 C7,10.328 7.672,11 8.5,11 C9.328,11 10,10.328 10,9.5 C10,8.672 9.328,8 8.5,8 Z M15.5,8 C14.672,8 14,8.672 14,9.5 C14,10.328 14.672,11 15.5,11 C16.328,11 17,10.328 17,9.5 C17,8.672 16.328,8 15.5,8 Z"/>
</svg>

