<svg xmlns="http://www.w3.org/2000/svg" width="24" height="24">
  <defs/>
  <path  d="M12,2 C17.523,2 22,6.477 22,12 C22,17.523 17.523,22 12,22 C6.477,22 2,17.523 2,12 C2,6.477 6.477,2 12,2 Z M12,4 C7.582,4 4,7.582 4,12 C4,16.418 7.582,20 12,20 C16.418,20 20,16.418 20,12 C20,7.582 16.418,4 12,4 Z M12.01,14.554 C12.755,13.786 13.97,13.735 14.777,14.438 L14.9,14.554 C14.921,14.576 14.95,14.606 14.98,14.578 L15.324,14.263 C15.731,13.89 16.364,13.917 16.737,14.324 C17.11,14.731 17.083,15.364 16.676,15.737 L16.332,16.052 C15.566,16.754 14.395,16.769 13.611,16.087 L13.485,15.968 C13.475,15.957 13.455,15.935 13.445,15.946 C12.655,16.762 11.345,16.762 10.555,15.946 C10.543,15.934 10.53,15.95 10.521,15.961 C10.519,15.964 10.517,15.966 10.515,15.968 C9.745,16.762 8.483,16.799 7.668,16.052 L7.324,15.737 C6.917,15.364 6.89,14.731 7.263,14.324 C7.636,13.917 8.269,13.89 8.676,14.263 L9.019,14.578 C9.042,14.599 9.064,14.588 9.083,14.571 L9.1,14.554 C9.479,14.163 10,13.942 10.545,13.942 C11.09,13.942 11.611,14.163 11.99,14.554 C11.992,14.557 11.996,14.559 12,14.559 C12.004,14.559 12.008,14.557 12.01,14.554 Z M8.5,8 C9.328,8 10,8.672 10,9.5 C10,10.328 9.328,11 8.5,11 C7.672,11 7,10.328 7,9.5 C7,8.672 7.672,8 8.5,8 Z M15.5,8 C16.328,8 17,8.672 17,9.5 C17,10.328 16.328,11 15.5,11 C14.672,11 14,10.328 14,9.5 C14,8.672 14.672,8 15.5,8 Z"/>
</svg>

