<svg xmlns="http://www.w3.org/2000/svg" width="24" height="24">
  <defs/>
  <path  d="M20,4 C20.552,4 21,4.448 21,5 L21,19 C21,19.552 20.552,20 20,20 C19.448,20 19,19.552 19,19 L19,5 C19,4.448 19.448,4 20,4 Z M16,7 C16.552,7 17,7.448 17,8 L17,19 C17,19.552 16.552,20 16,20 C15.448,20 15,19.552 15,19 L15,8 C15,7.448 15.448,7 16,7 Z M12,10 C12.552,10 13,10.448 13,11 L13,19 C13,19.552 12.552,20 12,20 C11.448,20 11,19.552 11,19 L11,11 C11,10.448 11.448,10 12,10 Z M8,13 C8.552,13 9,13.448 9,14 L9,19 C9,19.552 8.552,20 8,20 C7.448,20 7,19.552 7,19 L7,14 C7,13.448 7.448,13 8,13 Z M4,16 C4.552,16 5,16.448 5,17 L5,19 C5,19.552 4.552,20 4,20 C3.448,20 3,19.552 3,19 L3,17 C3,16.448 3.448,16 4,16 Z"/>
</svg>

