<svg xmlns="http://www.w3.org/2000/svg" width="24" height="24">
  <defs/>
  <path  d="M16.239,4.79 C15.644,4.917 14.783,5.268 13.689,5.875 C11.655,7.002 8.926,9.169 5.74,12.673 C5.368,13.082 4.736,13.112 4.327,12.74 C3.918,12.368 3.888,11.736 4.26,11.327 C7.536,7.724 10.432,5.393 12.718,4.125 C13.878,3.482 14.943,3.021 15.825,2.835 C16.603,2.669 17.767,2.624 18.366,3.603 C18.637,4.046 18.679,4.551 18.631,5.007 C18.583,5.468 18.434,5.972 18.214,6.506 C17.774,7.575 16.982,8.926 15.817,10.576 C14.455,12.506 13.714,13.817 13.38,14.666 C13.314,14.829 13.26,14.996 13.217,15.166 C13.322,15.144 13.447,15.11 13.595,15.061 C14.15,14.876 14.83,14.536 15.485,14.143 C16.125,13.759 16.705,13.481 17.207,13.403 C17.47,13.363 17.816,13.36 18.153,13.529 C18.522,13.714 18.729,14.026 18.826,14.322 C18.969,14.761 18.904,15.235 18.802,15.674 C18.637,16.387 18.359,17.069 18.181,17.778 C18.29,17.732 18.413,17.675 18.553,17.606 C19.043,17.379 19.625,17.583 19.867,18.067 C20.108,18.55 19.923,19.138 19.447,19.394 C18.797,19.719 18.182,19.946 17.637,19.944 C17.303,19.949 16.975,19.848 16.703,19.654 C16.438,19.456 16.248,19.175 16.163,18.856 C16.027,18.375 16.114,17.849 16.196,17.484 C16.326,16.892 16.533,16.322 16.71,15.744 C15.906,16.201 15.11,16.664 14.227,16.959 C13.853,17.091 13.463,17.171 13.067,17.196 C12.693,17.211 12.194,17.156 11.777,16.816 C11.325,16.45 11.174,15.924 11.175,15.44 C11.175,14.977 11.309,14.469 11.519,13.934 C11.942,12.858 12.795,11.39 14.183,9.424 C15.313,7.824 16.007,6.613 16.364,5.744 C16.494,5.428 16.628,5.084 16.647,4.738 C16.564,4.738 16.434,4.749 16.239,4.791 Z"/>
</svg>

