<svg xmlns="http://www.w3.org/2000/svg" width="24" height="24">
  <defs/>
  <path  d="M20,3.5 C20.828,3.5 21.5,4.172 21.5,5 L21.5,19 C21.5,19.828 20.828,20.5 20,20.5 C19.172,20.5 18.5,19.828 18.5,19 L18.5,5 C18.5,4.172 19.172,3.5 20,3.5 Z M16,6.5 C16.828,6.5 17.5,7.172 17.5,8 L17.5,19 C17.5,19.828 16.828,20.5 16,20.5 C15.172,20.5 14.5,19.828 14.5,19 L14.5,8 C14.5,7.172 15.172,6.5 16,6.5 Z M12,9.5 C12.828,9.5 13.5,10.172 13.5,11 L13.5,19 C13.5,19.828 12.828,20.5 12,20.5 C11.172,20.5 10.5,19.828 10.5,19 L10.5,11 C10.5,10.172 11.172,9.5 12,9.5 Z M8,12.5 C8.828,12.5 9.5,13.172 9.5,14 L9.5,19 C9.5,19.828 8.828,20.5 8,20.5 C7.172,20.5 6.5,19.828 6.5,19 L6.5,14 C6.5,13.172 7.172,12.5 8,12.5 Z M4,15.5 C4.828,15.5 5.5,16.172 5.5,17 L5.5,19 C5.5,19.828 4.828,20.5 4,20.5 C3.172,20.5 2.5,19.828 2.5,19 L2.5,17 C2.5,16.172 3.172,15.5 4,15.5 Z"/>
</svg>

