<svg xmlns="http://www.w3.org/2000/svg" width="24" height="24">
  <defs/>
  <path  d="M15.97,5.38 C15.463,5.54 14.78,5.84 13.93,6.312 C11.96,7.404 9.273,9.53 6.11,13.009 C5.553,13.622 4.604,13.667 3.991,13.11 C3.378,12.553 3.333,11.604 3.89,10.991 C7.188,7.363 10.126,4.991 12.476,3.688 C13.652,3.036 14.767,2.547 15.721,2.345 C16.52,2.175 18.009,2.061 18.793,3.342 C19.142,3.912 19.183,4.542 19.128,5.059 C19.073,5.585 18.906,6.137 18.676,6.696 C18.216,7.816 17.399,9.202 16.226,10.865 C15.135,12.411 14.46,13.536 14.076,14.329 C15.086,13.864 16.007,13.083 17.13,12.909 C17.45,12.859 17.913,12.849 18.378,13.082 C18.888,13.338 19.172,13.771 19.301,14.167 C19.58,15.019 19.279,15.944 19.008,16.776 C18.983,16.852 18.959,16.927 18.935,17.001 C19.642,16.97 20.274,17.438 20.452,18.123 C20.629,18.808 20.304,19.524 19.671,19.841 C18.682,20.336 17.401,20.787 16.407,20.057 C16.052,19.793 15.796,19.418 15.681,18.991 C15.477,18.266 15.653,17.502 15.858,16.797 C15.006,17.237 14.06,17.656 13.088,17.696 C12.655,17.713 12.013,17.652 11.462,17.205 C10.858,16.715 10.674,16.023 10.675,15.439 C10.675,14.887 10.833,14.312 11.054,13.751 C11.499,12.618 12.38,11.111 13.774,9.135 C14.601,7.965 15.463,6.73 15.971,5.38 Z"/>
</svg>

