<svg xmlns="http://www.w3.org/2000/svg" width="24" height="24">
  <defs/>
  <path  d="M12,2 C17.523,2 22,6.477 22,12 C22,17.523 17.523,22 12,22 C6.477,22 2,17.523 2,12 C2,6.477 6.477,2 12,2 Z M9.793,12.793 C9.403,13.184 9.403,13.816 9.793,14.207 L10.586,15 L9.793,15.793 C9.533,16.044 9.429,16.416 9.52,16.766 C9.612,17.115 9.885,17.388 10.234,17.48 C10.584,17.571 10.956,17.467 11.207,17.207 L12,16.414 L12.793,17.207 C13.185,17.586 13.809,17.581 14.195,17.195 C14.581,16.809 14.586,16.185 14.207,15.793 L13.414,15 L14.207,14.207 C14.586,13.815 14.581,13.191 14.195,12.805 C13.809,12.419 13.185,12.414 12.793,12.793 L12,13.586 L11.207,12.793 C10.816,12.403 10.184,12.403 9.793,12.793 Z M8.5,8 C7.672,8 7,8.672 7,9.5 C7,10.328 7.672,11 8.5,11 C9.328,11 10,10.328 10,9.5 C10,8.672 9.328,8 8.5,8 Z M15.5,8 C14.672,8 14,8.672 14,9.5 C14,10.328 14.672,11 15.5,11 C16.328,11 17,10.328 17,9.5 C17,8.672 16.328,8 15.5,8 Z"/>
</svg>

