<svg xmlns="http://www.w3.org/2000/svg" width="24" height="24">
  <defs/>
  <path  d="M12,2 C17.523,2 22,6.477 22,12 C22,17.523 17.523,22 12,22 C6.477,22 2,17.523 2,12 C2,6.477 6.477,2 12,2 Z M12,4 C7.582,4 4,7.582 4,12 C4,16.418 7.582,20 12,20 C16.418,20 20,16.418 20,12 C20,7.582 16.418,4 12,4 Z M11.207,12.793 L12,13.586 L12.793,12.793 C13.185,12.414 13.809,12.419 14.195,12.805 C14.581,13.191 14.586,13.815 14.207,14.207 L13.414,15 L14.207,15.793 C14.586,16.185 14.581,16.809 14.195,17.195 C13.809,17.581 13.185,17.586 12.793,17.207 L12,16.414 L11.207,17.207 C10.815,17.586 10.191,17.581 9.805,17.195 C9.419,16.809 9.414,16.185 9.793,15.793 L10.586,15 L9.793,14.207 C9.533,13.956 9.429,13.584 9.52,13.234 C9.612,12.885 9.885,12.612 10.234,12.52 C10.584,12.429 10.956,12.533 11.207,12.793 Z M8.5,8 C9.328,8 10,8.672 10,9.5 C10,10.328 9.328,11 8.5,11 C7.672,11 7,10.328 7,9.5 C7,8.672 7.672,8 8.5,8 Z M15.5,8 C16.328,8 17,8.672 17,9.5 C17,10.328 16.328,11 15.5,11 C14.672,11 14,10.328 14,9.5 C14,8.672 14.672,8 15.5,8 Z"/>
</svg>

