<svg xmlns="http://www.w3.org/2000/svg" width="24" height="24">
  <defs/>
  <path  d="M17,3 C19.131,3 20.888,4.671 20.995,6.8 L21,7 L21,17 C21,19.131 19.329,20.888 17.2,20.995 L17,21 L7,21 C4.869,21 3.112,19.329 3.005,17.2 L3,17 L3,7 C3,4.869 4.671,3.112 6.8,3.005 L7,3 Z M12,5 C8.134,5 5,8.134 5,12 C5,15.866 8.134,19 12,19 C15.866,19 19,15.866 19,12 C19,8.134 15.866,5 12,5 Z M8.5,9.9 C9.85,9.9 11.001,10.794 12.217,11.947 L12.754,12.467 C13.267,12.967 13.798,13.484 14.324,13.889 C14.959,14.379 15.704,14.8 16.55,14.8 C16.656,14.8 16.76,14.793 16.862,14.78 C15.865,16.524 14.009,17.601 12,17.6 C10.237,17.602 8.577,16.772 7.52,15.361 C7.831,15.451 8.16,15.5 8.5,15.5 C10.299,15.5 11.743,14.541 12.922,13.6 L12.585,13.278 L11.905,12.618 C10.824,13.463 9.753,14.1 8.5,14.1 C7.34,14.1 6.4,13.16 6.4,12 C6.4,10.84 7.34,9.9 8.5,9.9 Z M12,6.4 C14.32,6.4 16.399,7.83 17.23,9.996 C17.009,9.932 16.78,9.9 16.55,9.9 C15.72,9.9 14.962,10.268 14.287,10.724 L14.106,10.851 L14.491,11.225 L14.932,11.646 C15.003,11.712 15.072,11.776 15.142,11.837 C15.69,11.476 16.14,11.3 16.55,11.3 C17.13,11.3 17.6,11.77 17.6,12.35 C17.6,12.93 17.13,13.4 16.55,13.4 C16.171,13.4 15.734,13.209 15.178,12.78 C14.875,12.546 14.57,12.27 14.249,11.964 L13.241,10.989 L12.901,10.669 L12.544,10.347 C11.45,9.387 10.121,8.5 8.5,8.5 C8.16,8.5 7.831,8.548 7.52,8.639 C8.577,7.228 10.237,6.399 12,6.4 Z"/>
</svg>

