<svg xmlns="http://www.w3.org/2000/svg" width="24" height="24">
  <defs/>
  <path  d="M12,2 C17.523,2 22,6.477 22,12 L21.995,12.314 L22,12.5 C22,12.745 21.975,12.984 21.927,13.215 C21.327,18.165 17.112,22 12,22 C6.477,22 2,17.523 2,12 C2,6.477 6.477,2 12,2 Z M7,9 C5.343,9 4,10.343 4,12 C4,13.657 5.343,15 7,15 C8.689,15 10.148,14.188 11.608,13.081 L11.865,12.883 L12.994,13.978 L13.318,14.286 C11.633,15.63 9.57,17 7,17 C6.514,17 6.045,16.93 5.6,16.802 C7.11,18.817 9.482,20.002 12,20 C14.87,20.001 17.521,18.464 18.946,15.972 C18.798,15.991 18.649,16 18.5,16 C17.29,16 16.227,15.398 15.32,14.698 C14.694,14.216 14.063,13.623 13.447,13.025 L12.387,11.998 L11.929,11.568 C10.33,10.096 8.786,9 7,9 Z M12,4 C9.482,3.998 7.11,5.183 5.6,7.198 C6.046,7.07 6.515,7 7,7 C9.43,7 11.4,8.396 13.008,9.843 L13.42,10.221 L13.815,10.596 L15.115,11.855 C15.61,12.329 16.076,12.757 16.54,13.115 C17.335,13.727 17.96,14 18.5,14 C19.184,14 19.782,13.538 19.953,12.875 C19.972,12.702 19.985,12.526 19.993,12.349 C19.915,11.583 19.27,11 18.5,11 C17.914,11 17.27,11.251 16.488,11.767 C16.331,11.627 16.171,11.478 16.005,11.322 L15.008,10.358 C15.132,10.27 15.255,10.185 15.378,10.103 C16.297,9.497 17.339,9 18.5,9 C18.837,9 19.164,9.048 19.472,9.137 C18.285,6.043 15.314,4 12,4 Z"/>
</svg>

