<svg xmlns="http://www.w3.org/2000/svg" width="24" height="24">
  <defs/>
  <path  d="M7,9 C8.786,9 10.33,10.096 11.929,11.568 L12.387,11.998 L13.078,12.667 C13.811,13.381 14.568,14.12 15.319,14.698 C16.227,15.398 17.291,16 18.5,16 A3.501 3.501 0 0 0 21.927,13.215 C21.327,18.165 17.112,22 12,22 C6.477,22 2,17.523 2,12 A5 5 0 0 0 7,17 C9.57,17 11.633,15.63 13.318,14.286 L12.993,13.978 L11.865,12.883 C10.32,14.089 8.788,15 7,15 A3 3 0 1 1 7,9 M12,2 C17.523,2 22,6.477 22,12 L21.995,12.314 A3.5 3.5 0 0 0 18.5,9 C17.338,9 16.296,9.497 15.379,10.103 A12.47 12.47 0 0 0 15.008,10.358 L15.753,11.081 L16.25,11.551 C16.33,11.625 16.41,11.697 16.488,11.767 C17.271,11.251 17.914,11 18.5,11 A1.5 1.5 0 0 1 18.5,14 C17.96,14 17.335,13.727 16.54,13.114 C16.076,12.757 15.61,12.329 15.115,11.855 L13.815,10.595 L13.42,10.221 L13.008,9.843 C11.4,8.396 9.43,7 7,7 A5 5 0 0 0 2.005,11.783 L2,11.937 L2.003,11.72 C2.152,6.327 6.57,2 12,2"/>
</svg>

