<svg xmlns="http://www.w3.org/2000/svg" width="24" height="24">
  <defs/>
  <path  d="M17,3.25 C19.071,3.25 20.75,4.929 20.75,7 L20.75,17 C20.75,19.071 19.071,20.75 17,20.75 L7,20.75 C4.929,20.75 3.25,19.071 3.25,17 L3.25,7 C3.25,4.929 4.929,3.25 7,3.25 Z M17,4.75 L7,4.75 C5.757,4.75 4.75,5.757 4.75,7 L4.75,17 C4.75,18.243 5.757,19.25 7,19.25 L17,19.25 C18.243,19.25 19.25,18.243 19.25,17 L19.25,7 C19.25,5.757 18.243,4.75 17,4.75 Z M12,6 C15.314,6 18,8.686 18,12 C18,15.314 15.314,18 12,18 C8.686,18 6,15.314 6,12 C6,8.686 8.686,6 12,6 Z M9,10.2 C8.006,10.2 7.2,11.006 7.2,12 C7.2,12.994 8.006,13.8 9,13.8 C9.996,13.8 10.86,13.329 11.72,12.682 L11.92,12.53 L12.219,12.82 C12.403,13 12.595,13.187 12.791,13.371 C11.78,14.178 10.54,15 9,15 C8.709,15 8.427,14.959 8.16,14.88 C9.129,16.174 10.685,16.893 12.298,16.792 C13.911,16.692 15.366,15.786 16.167,14.382 C16.078,14.394 15.989,14.4 15.9,14.4 C15.174,14.4 14.536,14.039 13.992,13.619 C13.722,13.411 13.45,13.168 13.181,12.914 L12.371,12.132 C11.26,11.059 10.225,10.2 9,10.2 Z M12,7.2 C10.43,7.2 9.036,7.954 8.16,9.12 C8.427,9.041 8.71,9 9,9 C10.331,9 11.432,9.698 12.348,10.48 L12.705,10.797 L13.042,11.113 L13.503,11.559 C13.942,11.986 14.334,12.369 14.724,12.669 C15.201,13.036 15.575,13.2 15.9,13.2 C16.397,13.2 16.8,12.797 16.8,12.3 C16.8,11.803 16.397,11.4 15.9,11.4 C15.549,11.4 15.162,11.55 14.693,11.86 L14.513,11.697 L14.135,11.336 L13.805,11.015 L14.027,10.862 C14.577,10.498 15.203,10.2 15.9,10.2 C16.102,10.2 16.298,10.229 16.483,10.282 C15.771,8.426 13.988,7.2 12,7.2 Z"/>
</svg>

