<svg xmlns="http://www.w3.org/2000/svg" width="24" height="24">
  <defs/>
  <path  d="M13.457,3.604 C15.441,2.276 18.088,2.536 19.776,4.224 C21.464,5.912 21.724,8.559 20.396,10.543 C21.066,11.478 21.012,12.75 20.264,13.625 L20.132,13.768 L19.425,14.475 C18.615,15.285 17.386,15.423 16.434,14.888 L16.278,14.793 L14.793,16.278 C15.409,17.21 15.332,18.439 14.603,19.286 L14.475,19.425 L13.768,20.132 C12.903,20.998 11.538,21.109 10.543,20.396 C8.559,21.724 5.912,21.464 4.224,19.776 C2.536,18.088 2.276,15.441 3.604,13.457 C2.934,12.522 2.988,11.25 3.736,10.375 L3.868,10.232 L4.575,9.525 C5.367,8.734 6.588,8.565 7.565,9.112 L7.722,9.207 L9.207,7.722 C8.591,6.789 8.669,5.562 9.397,4.714 L9.525,4.575 L10.232,3.868 C11.097,3.002 12.462,2.891 13.457,3.604 Z M18.011,11.647 L17.303,12.354 C17.173,12.48 17.121,12.665 17.167,12.84 C17.212,13.015 17.349,13.152 17.524,13.197 C17.699,13.243 17.884,13.191 18.01,13.061 L18.717,12.354 C18.847,12.228 18.899,12.043 18.853,11.868 C18.808,11.693 18.671,11.556 18.496,11.511 C18.321,11.465 18.136,11.517 18.01,11.647 Z M6.697,10.939 C6.526,10.768 6.258,10.744 6.059,10.882 L5.989,10.939 L5.282,11.646 C5.098,11.829 5.085,12.122 5.251,12.321 C5.417,12.52 5.707,12.559 5.92,12.411 L5.99,12.354 L6.697,11.647 C6.791,11.553 6.844,11.426 6.844,11.293 C6.844,11.16 6.791,11.033 6.697,10.939 Z M13.061,17.304 C12.891,17.133 12.622,17.108 12.423,17.245 L12.353,17.303 L11.646,18.01 C11.462,18.193 11.449,18.486 11.615,18.685 C11.781,18.884 12.071,18.923 12.284,18.775 L12.354,18.718 L13.061,18.01 C13.256,17.815 13.256,17.498 13.061,17.303 Z M11.647,5.283 L10.939,5.99 C10.75,6.186 10.752,6.498 10.945,6.691 C11.138,6.884 11.45,6.886 11.646,6.697 L12.354,5.99 C12.549,5.794 12.549,5.478 12.354,5.282 C12.158,5.087 11.841,5.087 11.646,5.283 Z"/>
</svg>

