<svg xmlns="http://www.w3.org/2000/svg" width="24" height="24">
  <defs/>
  <path  d="M9.525,4.575 L10.232,3.868 C11.097,3.002 12.462,2.891 13.457,3.604 C15.441,2.276 18.088,2.536 19.776,4.224 C21.464,5.912 21.724,8.559 20.396,10.543 C21.109,11.538 20.998,12.903 20.132,13.768 L19.425,14.475 C18.585,15.315 17.269,15.448 16.278,14.793 L14.793,16.278 C15.448,17.269 15.315,18.584 14.475,19.424 L13.768,20.132 C12.903,20.997 11.539,21.11 10.544,20.397 C8.559,21.727 5.911,21.468 4.222,19.779 C2.533,18.09 2.274,15.442 3.604,13.457 C2.891,12.462 3.002,11.097 3.868,10.232 L4.575,9.525 C5.415,8.685 6.731,8.552 7.722,9.207 L9.207,7.722 C8.552,6.731 8.685,5.415 9.525,4.575 Z M13.061,15.182 L15.182,13.062 C15.095,12.456 15.233,11.839 15.571,11.328 L12.671,8.429 C12.161,8.766 11.545,8.905 10.94,8.819 L8.818,10.939 C8.905,11.545 8.766,12.161 8.429,12.672 L11.329,15.571 C11.839,15.233 12.455,15.095 13.061,15.181 Z M9.914,16.985 L7.015,14.085 C6.518,14.414 5.92,14.554 5.329,14.481 C4.461,15.675 4.591,17.322 5.634,18.366 C6.677,19.41 8.325,19.54 9.519,18.672 C9.445,18.081 9.585,17.482 9.914,16.985 Z M16.985,9.914 C17.482,9.585 18.081,9.445 18.672,9.519 C19.538,8.325 19.408,6.679 18.365,5.636 C17.322,4.593 15.676,4.463 14.482,5.329 C14.555,5.92 14.415,6.518 14.086,7.015 Z M12.354,5.99 C12.549,5.794 12.549,5.478 12.354,5.282 C12.158,5.087 11.841,5.087 11.646,5.283 L10.939,5.99 C10.809,6.116 10.757,6.301 10.803,6.476 C10.848,6.651 10.985,6.788 11.16,6.833 C11.335,6.879 11.52,6.827 11.646,6.697 Z M5.99,12.354 L6.697,11.646 C6.827,11.52 6.879,11.335 6.833,11.16 C6.788,10.985 6.651,10.848 6.476,10.803 C6.301,10.757 6.116,10.809 5.99,10.939 L5.283,11.646 C5.087,11.841 5.087,12.158 5.282,12.354 C5.478,12.549 5.794,12.549 5.99,12.354 Z M12.354,17.303 L11.646,18.01 C11.451,18.206 11.451,18.522 11.646,18.718 C11.842,18.913 12.159,18.913 12.354,18.717 L13.061,18.01 C13.191,17.884 13.243,17.699 13.197,17.524 C13.152,17.349 13.015,17.212 12.84,17.167 C12.665,17.121 12.48,17.173 12.354,17.303 Z M17.303,12.354 L17.303,12.353 C17.108,12.549 17.108,12.865 17.303,13.061 C17.499,13.256 17.816,13.256 18.011,13.06 L18.718,12.353 C18.913,12.157 18.913,11.841 18.718,11.646 C18.522,11.45 18.205,11.45 18.01,11.646 Z"/>
</svg>

