<svg xmlns="http://www.w3.org/2000/svg" width="24" height="24">
  <defs/>
  <path  d="M17.585,4.8 C17.97,4.635 18.411,4.661 18.774,4.871 C19.137,5.081 19.381,5.449 19.431,5.865 C19.545,6.777 19.772,8.985 19.772,11.995 C19.772,15.009 19.544,17.217 19.432,18.128 C19.382,18.544 19.138,18.912 18.776,19.121 C18.413,19.331 17.972,19.357 17.587,19.193 C16.747,18.837 14.74,17.938 12.108,16.418 C9.478,14.9 7.695,13.612 6.967,13.061 C6.632,12.809 6.435,12.415 6.435,11.996 C6.435,11.577 6.632,11.183 6.967,10.931 C7.703,10.377 9.509,9.072 12.107,7.571 C14.705,6.071 16.737,5.161 17.585,4.801 Z M17.772,11.996 C17.772,9.828 17.65,8.097 17.544,7.004 C16.03,7.7 14.549,8.468 13.107,9.304 C11.662,10.135 10.257,11.033 8.897,11.997 C9.786,12.63 11.217,13.595 13.108,14.687 C14.55,15.524 16.03,16.292 17.544,16.989 C17.65,15.896 17.772,14.164 17.772,11.996 Z M4,6 C4,5.448 4.448,5 5,5 C5.552,5 6,5.448 6,6 L6,18 C6,18.552 5.552,19 5,19 C4.448,19 4,18.552 4,18 Z"/>
</svg>

