<svg xmlns="http://www.w3.org/2000/svg" width="24" height="24">
  <defs/>
  <path  d="M4.569,5.865 C4.62,5.449 4.863,5.081 5.226,4.872 C5.589,4.662 6.03,4.636 6.415,4.801 L6.91,5.016 L7.572,5.316 L8.386,5.704 L8.845,5.931 L9.593,6.311 L10.128,6.593 L10.692,6.897 L11.28,7.223 L11.893,7.572 L12.526,7.942 L13.125,8.303 L13.689,8.652 L14.467,9.148 L15.161,9.606 L15.768,10.02 L16.436,10.492 L16.826,10.777 L17.032,10.931 C17.742,11.466 17.742,12.526 17.033,13.061 L16.471,13.476 L15.846,13.919 L15.477,14.173 L14.854,14.591 L14.15,15.048 L13.636,15.372 L13.089,15.71 L12.507,16.059 L11.892,16.419 L11.579,16.598 L10.679,17.101 L10.113,17.407 L9.575,17.689 L9.069,17.949 L8.594,18.186 L7.749,18.594 L7.212,18.842 L6.412,19.193 C6.027,19.357 5.587,19.33 5.225,19.12 C4.862,18.911 4.62,18.543 4.569,18.128 L4.489,17.43 L4.418,16.663 L4.365,15.974 L4.315,15.194 L4.287,14.625 L4.263,14.019 L4.244,13.379 L4.229,12.354 L4.229,11.639 L4.244,10.614 L4.274,9.666 L4.3,9.079 L4.33,8.529 L4.382,7.779 L4.436,7.123 L4.506,6.4 Z M6.456,7.004 L6.396,7.685 L6.356,8.21 L6.319,8.789 L6.286,9.419 L6.259,10.098 L6.239,10.824 L6.229,11.594 L6.228,11.996 L6.233,12.788 L6.24,13.168 L6.26,13.895 L6.286,14.575 L6.319,15.205 L6.376,16.053 L6.436,16.777 C6.442,16.848 6.449,16.918 6.456,16.989 L7.072,16.702 L7.544,16.474 L8.061,16.217 L8.623,15.93 L9.225,15.613 L9.865,15.266 L10.541,14.887 L11.241,14.483 L11.906,14.087 L12.527,13.707 L13.103,13.344 L13.632,13.001 L14.113,12.681 L14.744,12.249 L15.103,11.997 L14.741,11.742 L14.106,11.307 C14.027,11.254 13.949,11.201 13.87,11.149 L13.363,10.816 L12.518,10.279 C12.418,10.217 12.318,10.154 12.214,10.091 L11.574,9.704 L10.893,9.304 L10.206,8.914 C10.096,8.852 9.985,8.791 9.874,8.73 L9.236,8.384 L8.634,8.067 L7.806,7.647 L7.076,7.294 L6.65,7.094 Z M19,5 C19.507,5 19.934,5.38 19.993,5.883 L20,6 L20,18 C19.999,18.529 19.587,18.966 19.059,18.997 C18.53,19.028 18.069,18.642 18.007,18.117 L18,18 L18,6 C18,5.448 18.448,5 19,5 Z"/>
</svg>

