<svg xmlns="http://www.w3.org/2000/svg" width="24" height="24">
  <defs/>
  <path  d="M20.43,5.865 L20.508,6.564 L20.58,7.331 L20.616,7.779 L20.667,8.529 L20.697,9.079 L20.735,9.973 L20.754,10.614 L20.766,11.289 L20.77,11.996 L20.766,12.703 L20.754,13.378 L20.735,14.019 L20.711,14.625 L20.683,15.194 L20.633,15.974 L20.598,16.444 L20.508,17.43 L20.429,18.128 A1.332 1.332 0 0 1 18.585,19.193 L18.095,18.98 L17.249,18.594 L16.629,18.296 L16.171,18.07 L15.423,17.689 L14.885,17.406 L14.319,17.1 L13.725,16.771 L13.106,16.418 L12.491,16.058 L11.909,15.709 L11.1,15.209 L10.37,14.739 L9.927,14.447 L9.521,14.173 L8.981,13.8 L8.394,13.38 L7.964,13.061 A1.332 1.332 0 0 1 7.966,10.931 L8.291,10.689 L8.713,10.383 L9.23,10.02 L9.837,9.606 L10.531,9.148 L11.041,8.821 L11.587,8.479 L12.168,8.124 L12.785,7.758 L13.105,7.572 C13.313,7.452 13.517,7.335 13.718,7.223 L14.306,6.897 L14.869,6.593 L15.662,6.179 L16.387,5.814 L16.829,5.599 L17.426,5.316 L18.228,4.954 L18.583,4.8 A1.332 1.332 0 0 1 20.429,5.865 Z M6,5 A1 1 0 0 1 6.993,5.883 L7,6 L7,18 A1 1 0 0 1 6.117,18.993 L6,19 L5,19 A1 1 0 0 1 4.007,18.117 L4,18 L4,6 A1 1 0 0 1 4.883,5.007 L5,5 Z"/>
</svg>

