<svg xmlns="http://www.w3.org/2000/svg" width="24" height="24">
  <defs/>
  <path  d="M3.569,5.865 A1.332 1.332 0 0 1 5.415,4.8 L6.061,5.083 L6.572,5.316 L7.169,5.599 L7.845,5.93 L8.335,6.179 L9.128,6.593 L9.692,6.897 L10.28,7.223 L10.893,7.572 L11.526,7.942 L12.125,8.303 L12.689,8.652 L13.467,9.148 L14.161,9.606 L14.768,10.02 L15.285,10.383 L15.826,10.777 L16.032,10.931 C16.742,11.466 16.742,12.525 16.033,13.061 L15.603,13.38 L15.33,13.578 L14.666,14.043 L14.071,14.447 L13.628,14.739 L12.898,15.209 L12.088,15.709 L11.507,16.059 L10.892,16.419 L10.272,16.771 L9.679,17.101 L9.113,17.406 L8.575,17.689 L7.827,18.07 L7.154,18.401 L6.381,18.765 L5.637,19.097 L5.413,19.193 A1.332 1.332 0 0 1 3.569,18.128 L3.489,17.43 L3.418,16.663 L3.365,15.974 L3.315,15.194 L3.287,14.624 L3.263,14.019 L3.244,13.379 L3.229,12.353 L3.229,11.638 L3.244,10.614 L3.274,9.666 L3.3,9.079 L3.33,8.529 L3.382,7.779 L3.436,7.122 L3.506,6.4 Z M19,5 A1 1 0 0 1 19.993,5.883 L20,6 L20,18 A1 1 0 0 1 19.117,18.993 L19,19 L18,19 A1 1 0 0 1 17.007,18.117 L17,18 L17,6 A1 1 0 0 1 17.883,5.007 L18,5 Z"/>
</svg>

