<svg xmlns="http://www.w3.org/2000/svg" width="24" height="24">
  <defs/>
  <path  d="M7.493,2.138 C7.885,1.907 8.384,1.971 8.706,2.292 C9.044,2.618 9.412,2.912 9.805,3.168 C10.505,3.635 11.3,4 12,4 C12.7,4 13.495,3.635 14.195,3.168 C14.58,2.911 14.944,2.622 15.281,2.304 C15.609,1.984 16.106,1.902 16.507,2.138 C16.9,2.369 17.086,2.837 16.961,3.275 L15.147,9.625 C15.797,10.197 16.338,10.918 16.785,11.668 C17.836,13.433 18.52,15.468 18.886,17.486 C18.895,17.538 18.905,17.591 18.916,17.645 C19.024,18.219 19.156,18.924 18.894,19.447 C18.432,20.371 16.991,20.456 16.096,20.557 C14.938,20.687 13.46,20.75 12,20.75 C10.54,20.75 9.062,20.687 7.904,20.556 C7.004,20.455 5.579,20.394 5.106,19.447 C4.842,18.919 4.971,18.239 5.08,17.668 C5.092,17.606 5.103,17.545 5.114,17.486 C5.479,15.469 6.164,13.433 7.215,11.668 C7.662,10.918 8.203,10.198 8.853,9.625 L7.038,3.275 C6.913,2.837 7.1,2.369 7.493,2.138 Z M10.656,8.657 C11.096,8.551 11.547,8.499 12,8.5 C12.453,8.499 12.904,8.551 13.344,8.657 L14.266,5.428 C13.6,5.748 12.819,6 12,6 C11.18,6 10.4,5.748 9.734,5.428 Z"/>
</svg>

