<svg xmlns="http://www.w3.org/2000/svg" width="24" height="24">
  <defs/>
  <path  d="M16.507,2.138 C16.9,2.369 17.087,2.837 16.962,3.275 L15.147,9.625 C15.797,10.197 16.338,10.918 16.785,11.668 C17.755,13.297 18.413,15.157 18.796,17.02 L18.951,17.83 C19.049,18.364 19.134,18.968 18.895,19.447 C18.587,20.063 17.843,20.306 17.117,20.429 L16.757,20.482 L16.097,20.556 C14.937,20.686 13.46,20.75 12,20.75 C10.702,20.75 9.39,20.7 8.301,20.597 L7.242,20.485 C6.418,20.385 5.474,20.184 5.106,19.447 C4.897,19.03 4.939,18.499 5.019,18.01 L5.114,17.486 C5.48,15.469 6.164,13.433 7.215,11.668 C7.662,10.918 8.203,10.198 8.853,9.625 L7.039,3.275 C6.914,2.837 7.101,2.371 7.493,2.14 C7.885,1.908 8.383,1.971 8.706,2.292 C9.044,2.618 9.412,2.912 9.805,3.168 C10.505,3.635 11.3,4 12,4 C12.7,4 13.495,3.635 14.195,3.168 C14.486,2.974 14.77,2.762 15.035,2.531 L15.293,2.293 C15.615,1.971 16.114,1.907 16.507,2.138 Z M12,10.5 C11.362,10.5 10.832,10.648 10.555,10.832 C9.975,11.218 9.428,11.862 8.933,12.692 C8.004,14.252 7.405,16.06 7.082,17.842 C6.989,18.352 7.166,18.469 7.507,18.514 L7.691,18.533 L8.011,18.557 L8.128,18.569 C9.188,18.689 10.585,18.75 12,18.75 C13.258,18.75 14.502,18.701 15.507,18.606 L15.99,18.557 L16.405,18.524 C16.802,18.486 17.019,18.394 16.919,17.843 C16.595,16.06 15.996,14.251 15.067,12.692 C14.573,11.862 14.024,11.218 13.445,10.832 C13.169,10.648 12.638,10.5 12,10.5 Z M14.266,5.428 C13.6,5.748 12.82,6 12,6 C11.18,6 10.4,5.748 9.734,5.428 L10.656,8.657 C11.096,8.551 11.547,8.499 12,8.5 C12.453,8.499 12.904,8.551 13.344,8.657 Z"/>
</svg>

