<svg xmlns="http://www.w3.org/2000/svg" width="24" height="24">
  <defs/>
  <path  d="M12,2 C15.851,1.999 19.276,4.449 20.52,8.095 C21.763,11.74 20.549,15.772 17.5,18.125 C17.16,18.387 17,18.715 17,19 C17,20.105 16.105,21 15,21 L15,20 C15,19.448 14.552,19 14,19 C13.448,19 13,19.448 13,20 L13,21 L11,21 L11,20 C11,19.448 10.552,19 10,19 C9.448,19 9,19.448 9,20 L9,21 C7.895,21 7,20.105 7,19 C7,18.716 6.84,18.387 6.5,18.125 C3.451,15.772 2.237,11.74 3.48,8.095 C4.724,4.449 8.149,1.999 12,2 Z M15.5,9 C14.119,9 13,10.119 13,11.5 C13,12.881 14.119,14 15.5,14 C16.881,14 18,12.881 18,11.5 C18,10.119 16.881,9 15.5,9 Z M8.5,9 C7.119,9 6,10.119 6,11.5 C6,12.881 7.119,14 8.5,14 C9.881,14 11,12.881 11,11.5 C11,10.119 9.881,9 8.5,9 Z"/>
</svg>

