<svg xmlns="http://www.w3.org/2000/svg" width="24" height="24">
  <defs/>
  <path  d="M12,2 C15.851,1.999 19.276,4.449 20.52,8.095 C21.763,11.74 20.549,15.772 17.5,18.125 C17.16,18.387 17,18.715 17,19 C17,20.105 16.105,21 15,21 L9,21 C7.895,21 7,20.105 7,19 C7,18.716 6.84,18.387 6.5,18.125 C3.451,15.772 2.237,11.74 3.48,8.095 C4.724,4.449 8.149,1.999 12,2 Z M12,4 C9.053,4 6.422,5.846 5.419,8.618 C4.416,11.389 5.256,14.492 7.52,16.378 L7.724,16.542 C8.433,17.091 9,17.96 9,19 L9.75,19 L9.75,18 C9.75,17.448 10.198,17 10.75,17 C11.302,17 11.75,17.448 11.75,18 L11.75,19 L12.25,19 L12.25,18 C12.25,17.448 12.698,17 13.25,17 C13.802,17 14.25,17.448 14.25,18 L14.25,19 L15,19 C15,18.029 15.494,17.207 16.137,16.656 L16.277,16.542 C18.649,14.712 19.593,11.576 18.626,8.741 C17.659,5.905 14.996,4 12,4 Z M15.5,9 C16.881,9 18,10.119 18,11.5 C18,12.881 16.881,14 15.5,14 C14.119,14 13,12.881 13,11.5 C13,10.119 14.119,9 15.5,9 Z M8.5,9 C9.881,9 11,10.119 11,11.5 C11,12.881 9.881,14 8.5,14 C7.119,14 6,12.881 6,11.5 C6,10.119 7.119,9 8.5,9 Z M8.5,11 C8.224,11 8,11.224 8,11.5 C8,11.776 8.224,12 8.5,12 C8.776,12 9,11.776 9,11.5 C9,11.224 8.776,11 8.5,11 Z M15.5,11 C15.224,11 15,11.224 15,11.5 C15,11.776 15.224,12 15.5,12 C15.776,12 16,11.776 16,11.5 C16,11.224 15.776,11 15.5,11 Z"/>
</svg>

