<svg xmlns="http://www.w3.org/2000/svg" width="24" height="24">
  <defs/>
  <path  d="M12,4 C12,3.448 12.448,3 13,3 L20,3 C20.404,3 20.769,3.244 20.924,3.617 C21.078,3.991 20.993,4.421 20.707,4.707 L15.414,10 L20,10 C20.552,10 21,10.448 21,11 C21,11.552 20.552,12 20,12 L13,12 C12.596,12 12.231,11.756 12.076,11.383 C11.922,11.009 12.007,10.579 12.293,10.293 L17.586,5 L13,5 C12.448,5 12,4.552 12,4 Z M4,10 C3.448,10 3,9.552 3,9 C3,8.448 3.448,8 4,8 L9,8 C9.404,8 9.769,8.244 9.924,8.617 C10.078,8.991 9.993,9.421 9.707,9.707 L6.414,13 L9,13 C9.552,13 10,13.448 10,14 C10,14.552 9.552,15 9,15 L4,15 C3.596,15 3.231,14.756 3.076,14.383 C2.922,14.009 3.007,13.579 3.293,13.293 L6.586,10 Z M12,17 C11.448,17 11,16.552 11,16 C11,15.448 11.448,15 12,15 L16,15 C16.404,15 16.769,15.244 16.924,15.617 C17.078,15.991 16.993,16.421 16.707,16.707 L14.414,19 L16,19 C16.552,19 17,19.448 17,20 C17,20.552 16.552,21 16,21 L12,21 C11.596,21 11.231,20.756 11.076,20.383 C10.922,20.009 11.007,19.579 11.293,19.293 L13.586,17 Z"/>
</svg>

