<svg xmlns="http://www.w3.org/2000/svg" width="24" height="24">
  <defs/>
  <path  d="M11.5,4 C11.5,3.172 12.172,2.5 13,2.5 L20,2.5 C20.606,2.5 21.153,2.865 21.385,3.426 C21.618,3.986 21.49,4.631 21.061,5.06 L16.621,9.5 L20,9.5 C20.828,9.5 21.5,10.172 21.5,11 C21.5,11.828 20.828,12.5 20,12.5 L13,12.5 C12.394,12.5 11.847,12.135 11.615,11.574 C11.382,11.014 11.51,10.369 11.939,9.94 L16.379,5.5 L13,5.5 C12.172,5.5 11.5,4.828 11.5,4 Z M4,10.5 C3.172,10.5 2.5,9.828 2.5,9 C2.5,8.172 3.172,7.5 4,7.5 L9,7.5 C9.606,7.501 10.153,7.866 10.385,8.426 C10.617,8.986 10.488,9.631 10.06,10.06 L7.622,12.5 L9,12.5 C9.828,12.5 10.5,13.172 10.5,14 C10.5,14.828 9.828,15.5 9,15.5 L4,15.5 C3.394,15.499 2.847,15.134 2.615,14.574 C2.383,14.014 2.512,13.369 2.94,12.94 L5.379,10.5 Z M12,17.5 C11.172,17.5 10.5,16.828 10.5,16 C10.5,15.172 11.172,14.5 12,14.5 L16,14.5 C16.606,14.501 17.153,14.866 17.385,15.426 C17.617,15.986 17.488,16.631 17.06,17.06 L15.621,18.5 L16,18.5 C16.828,18.5 17.5,19.172 17.5,20 C17.5,20.828 16.828,21.5 16,21.5 L12,21.5 C11.394,21.499 10.847,21.134 10.615,20.574 C10.383,20.014 10.512,19.369 10.94,18.94 L12.379,17.5 Z"/>
</svg>

