<svg xmlns="http://www.w3.org/2000/svg" width="24" height="24">
  <defs/>
  <path  d="M15.15,4.649 C16.382,4.129 17.951,3.869 20.062,4.002 C20.329,4.019 20.578,4.141 20.753,4.343 C20.929,4.544 21.017,4.807 20.997,5.074 L20.981,5.196 L19.302,13.588 C19.1,14.6 18.391,15.437 17.426,15.804 L17.247,15.866 L17.781,18 L21,18 C21.529,18.001 21.966,18.413 21.997,18.941 C22.028,19.47 21.642,19.931 21.117,19.993 L21,20 L6.657,20 C5.422,20 4.231,19.543 3.313,18.717 L3.121,18.535 L2.293,17.707 C1.921,17.334 1.903,16.735 2.251,16.34 C2.6,15.944 3.196,15.887 3.613,16.21 L3.707,16.293 L4.536,17.121 C5.05,17.635 5.734,17.945 6.459,17.993 L6.657,18 L7.219,18 L7.734,15.94 C6.399,15.737 4.974,15.01 4.112,13.752 C3.01,12.141 3.006,9.938 4.668,7.445 C4.848,7.175 5.148,7.009 5.472,7 C5.797,6.991 6.105,7.14 6.3,7.4 C6.899,8.198 7.355,8.574 7.695,8.762 L7.844,8.836 C8.19,8.991 8.494,9 9,9 C9.88,9 10.409,8.745 10.857,8.376 C11.16,8.126 11.427,7.838 11.682,7.539 L12.188,6.937 C12.273,6.837 12.358,6.738 12.446,6.641 C13.092,5.927 13.91,5.172 15.15,4.649 Z M15.22,15.999 L9.78,15.999 L9.28,17.999 L15.72,17.999 Z"/>
</svg>

