<svg xmlns="http://www.w3.org/2000/svg" width="24" height="24">
  <defs/>
  <path  d="M15.15,4.649 C16.382,4.129 17.951,3.869 20.062,4.002 C20.329,4.019 20.578,4.141 20.753,4.343 C20.929,4.544 21.017,4.807 20.997,5.074 L20.981,5.196 L19.302,13.588 C19.1,14.6 18.391,15.437 17.426,15.804 L17.247,15.866 L17.781,18 L21,18 C21.529,18.001 21.966,18.413 21.997,18.941 C22.028,19.47 21.642,19.931 21.117,19.993 L21,20 L6.657,20 C5.422,20 4.231,19.544 3.313,18.718 L3.121,18.535 L2.293,17.707 C1.921,17.334 1.903,16.735 2.251,16.34 C2.6,15.944 3.196,15.887 3.613,16.21 L3.707,16.293 L4.536,17.121 C5.05,17.635 5.734,17.945 6.459,17.993 L6.657,18 L7.219,18 L7.734,15.94 C6.399,15.737 4.974,15.01 4.112,13.752 C3.01,12.141 3.006,9.938 4.668,7.445 C4.848,7.175 5.148,7.009 5.472,7 C5.797,6.991 6.105,7.14 6.3,7.4 C6.899,8.198 7.355,8.574 7.695,8.762 L7.844,8.836 C8.19,8.991 8.494,9 9,9 C9.88,9 10.409,8.745 10.857,8.376 C11.16,8.127 11.427,7.838 11.682,7.539 L12.189,6.936 C12.273,6.836 12.359,6.738 12.446,6.641 C13.092,5.927 13.91,5.172 15.15,4.649 Z M18.786,5.969 C17.522,5.992 16.613,6.202 15.928,6.491 C15.058,6.859 14.47,7.385 13.929,7.983 L13.679,8.267 L13.187,8.843 C12.858,9.225 12.519,9.598 12.127,9.921 C11.394,10.524 10.498,10.941 9.269,10.994 L8.962,11 L8.645,10.997 C8.195,10.987 7.638,10.933 7.031,10.664 C6.581,10.464 6.137,10.161 5.685,9.73 C5.11,11.084 5.35,12.02 5.763,12.623 C6.322,13.439 7.38,13.935 8.315,13.994 L8.5,14 L16.36,14 C16.793,14 17.177,13.722 17.311,13.31 L17.341,13.196 Z M15.22,15.999 L9.78,15.999 L9.28,18 L15.72,18 Z"/>
</svg>

