<svg xmlns="http://www.w3.org/2000/svg" width="24" height="24">
  <defs/>
  <path  d="M12,2 C15.314,2 18,4.686 18,8 L18,9.875 L18.9,9.2 C19.342,8.869 19.969,8.958 20.3,9.4 C20.631,9.842 20.542,10.469 20.1,10.8 L18.234,12.2 C18.678,13.368 19.761,14.59 21.514,15.643 C21.746,15.786 21.911,16.016 21.971,16.282 C22.031,16.548 21.981,16.827 21.832,17.055 C20.714,18.732 18.94,20 17,20 C16.323,20 15.797,20.429 15.275,20.809 C14.543,21.341 13.577,22 12,22 C10.423,22 9.456,21.34 8.724,20.809 C8.203,20.43 7.677,20 7,20 C5.06,20 3.286,18.732 2.168,17.055 C2.019,16.827 1.969,16.548 2.029,16.282 C2.089,16.016 2.254,15.786 2.486,15.643 C4.239,14.59 5.322,13.368 5.766,12.2 L3.9,10.8 C3.458,10.469 3.369,9.842 3.7,9.4 C4.031,8.958 4.658,8.869 5.1,9.2 L6,9.875 L6,8 C6,4.686 8.686,2 12,2 Z M8,8 L8,11 C8,13.199 6.58,15.209 4.462,16.735 C5.248,17.556 6.174,18 7,18 C8.379,18 9.265,18.728 9.9,19.191 C10.543,19.659 11.077,20 12,20 C12.923,20 13.456,19.659 14.1,19.191 C14.736,18.728 15.622,18 17,18 C17.825,18 18.752,17.556 19.538,16.735 C17.42,15.209 16,13.198 16,11 L16,8 C16,5.791 14.209,4 12,4 C9.791,4 8,5.791 8,8 Z"/>
</svg>

