<svg xmlns="http://www.w3.org/2000/svg" width="24" height="24">
  <defs/>
  <path  d="M12,2 C13.786,2 15.437,2.953 16.33,4.5 C17.223,6.047 17.223,7.953 16.33,9.5 C16.757,9.837 17.144,10.222 17.482,10.647 L17.679,10.907 L19.293,9.293 C19.666,8.921 20.265,8.903 20.66,9.251 C21.056,9.6 21.113,10.196 20.79,10.613 L20.707,10.707 L18.707,12.707 L18.637,12.771 C19.605,15.661 18.592,18.846 16.131,20.645 C13.67,22.444 10.329,22.444 7.868,20.645 C5.407,18.846 4.394,15.661 5.362,12.771 L5.292,12.707 L3.292,10.707 C2.92,10.334 2.902,9.735 3.25,9.34 C3.599,8.944 4.195,8.887 4.612,9.21 L4.707,9.293 L6.321,10.907 C6.703,10.378 7.157,9.904 7.669,9.5 C6.776,7.953 6.776,6.047 7.669,4.5 C8.563,2.953 10.214,2 12,2 Z M11.793,6.793 L11.293,7.293 C10.914,7.685 10.919,8.309 11.305,8.695 C11.691,9.081 12.315,9.086 12.707,8.707 L13.207,8.207 C13.586,7.815 13.581,7.191 13.195,6.805 C12.809,6.419 12.185,6.414 11.793,6.793 Z M12,13 C11.448,13 11,13.448 11,14 C11,14.552 11.448,15 12,15 C12.552,15 13,14.552 13,14 C13,13.448 12.552,13 12,13 Z M12,16 C11.448,16 11,16.448 11,17 C11,17.552 11.448,18 12,18 C12.552,18 13,17.552 13,17 C13,16.448 12.552,16 12,16 Z"/>
</svg>

