<svg xmlns="http://www.w3.org/2000/svg" width="24" height="24">
  <defs/>
  <path  d="M19.149,9.02 A1 1 0 0 1 19.93,10.199 A3.5 3.5 0 0 1 16.5,13 L3,13 A1 1 0 1 1 3,11 L16.5,11 A1.5 1.5 0 0 0 17.936,9.936 L17.97,9.801 A1 1 0 0 1 19.149,9.02 M9,3 A3 3 0 1 1 9,9 L5,9 A1 1 0 0 1 5,7 L9,7 A1 1 0 1 0 8.197,5.404 L8.133,5.501 A1 1 0 1 1 6.402,4.499 A3 3 0 0 1 9,3 M16.002,3 A1 1 0 0 1 17.002,4 L17.002,4.268 L17.234,4.134 A1 1 0 0 1 18.234,5.866 L18.002,6 L18.234,6.134 A1 1 0 1 1 17.234,7.866 L17.002,7.732 L17.002,8 A1 1 0 0 1 15.002,8 L15.002,7.732 L14.77,7.866 A1 1 0 1 1 13.77,6.134 L14.002,6 L13.77,5.866 A1 1 0 0 1 14.77,4.134 L15.002,4.268 L15.002,4 A1 1 0 0 1 16.002,3 M6,15 A1 1 0 1 0 6,17 L12.5,17 A0.5 0.5 0 1 1 12.238,17.926 L12.167,17.873 A1 1 0 1 0 10.833,19.363 A2.5 2.5 0 1 0 12.5,15 Z M19,14 A1 1 0 0 1 20,15 L20,15.268 L20.232,15.134 A1 1 0 1 1 21.232,16.866 L21,17 L21.232,17.134 A1 1 0 0 1 20.232,18.866 L20,18.732 L20,19 A1 1 0 1 1 18,19 L18,18.732 L17.768,18.866 A1 1 0 1 1 16.768,17.134 L17,17 L16.768,16.866 A1 1 0 1 1 17.768,15.134 L18,15.268 L18,15 A1 1 0 0 1 19,14"/>
</svg>

