<svg xmlns="http://www.w3.org/2000/svg" width="24" height="24">
  <defs/>
  <path  d="M13,3 A1 1 0 1 0 11,3 L11,6.586 L8.707,4.293 A1 1 0 0 0 7.293,5.707 L11,9.414 L11,11 L9.414,11 L5.707,7.293 A1 1 0 0 0 4.293,8.707 L6.586,11 L3,11 A1 1 0 1 0 3,13 L6.586,13 L4.293,15.293 A1 1 0 1 0 5.707,16.707 L9.414,13 L11,13 L11,14.586 L7.293,18.293 A1 1 0 1 0 8.707,19.707 L11,17.414 L11,21 A1 1 0 1 0 13,21 L13,17.414 L15.293,19.707 A1 1 0 0 0 16.707,18.293 L13,14.586 L13,13 L14.586,13 L18.293,16.707 A1 1 0 0 0 19.707,15.293 L17.414,13 L21,13 A1 1 0 1 0 21,11 L17.414,11 L19.707,8.707 A1 1 0 0 0 18.293,7.293 L14.586,11 L13,11 L13,9.414 L16.707,5.707 A1 1 0 0 0 15.293,4.293 L13,6.586 Z"/>
</svg>

