<svg xmlns="http://www.w3.org/2000/svg" width="24" height="24">
  <defs/>
  <path  d="M12,2 C12.552,2 13,2.448 13,3 L13,3.962 L13.654,3.616 C14.142,3.358 14.747,3.544 15.005,4.032 C15.264,4.521 15.077,5.126 14.589,5.384 L13,6.224 L13,8.126 C13.715,8.31 14.352,8.686 14.854,9.197 L16.502,8.246 L16.435,6.45 C16.414,5.898 16.845,5.434 17.397,5.413 C17.949,5.392 18.413,5.823 18.434,6.375 L18.461,7.115 L19.294,6.634 C19.604,6.453 19.987,6.451 20.298,6.63 C20.609,6.808 20.801,7.14 20.8,7.499 C20.799,7.858 20.606,8.189 20.294,8.366 L19.461,8.846 L20.088,9.24 C20.556,9.534 20.697,10.151 20.403,10.619 C20.109,11.087 19.492,11.228 19.024,10.934 L17.502,9.978 L15.855,10.928 C16.05,11.629 16.05,12.37 15.855,13.071 L17.502,14.022 L19.024,13.066 C19.492,12.772 20.109,12.913 20.403,13.381 C20.697,13.849 20.556,14.466 20.088,14.76 L19.462,15.153 L20.294,15.634 C20.606,15.811 20.799,16.142 20.8,16.501 C20.801,16.86 20.609,17.192 20.298,17.37 C19.987,17.549 19.604,17.547 19.294,17.366 L18.462,16.886 L18.434,17.625 C18.413,18.177 17.949,18.608 17.397,18.587 C16.845,18.566 16.414,18.102 16.435,17.55 L16.502,15.754 L14.854,14.803 C14.352,15.313 13.714,15.69 13,15.874 L13,17.776 L14.589,18.616 C15.077,18.874 15.264,19.479 15.005,19.968 C14.747,20.456 14.142,20.642 13.654,20.384 L13,20.038 L13,21 C13,21.552 12.552,22 12,22 C11.448,22 11,21.552 11,21 L11,20.038 L10.346,20.384 C9.858,20.642 9.253,20.456 8.995,19.968 C8.736,19.479 8.923,18.874 9.411,18.616 L11,17.776 L11,15.874 C10.296,15.692 9.655,15.321 9.146,14.802 L7.498,15.754 L7.565,17.55 C7.585,18.102 7.155,18.566 6.602,18.587 C6.05,18.607 5.586,18.176 5.566,17.624 L5.539,16.885 L4.706,17.365 C4.396,17.557 4.006,17.565 3.689,17.386 C3.371,17.207 3.176,16.869 3.18,16.505 C3.183,16.14 3.385,15.807 3.706,15.634 L4.539,15.153 L3.912,14.759 C3.457,14.46 3.325,13.852 3.615,13.391 C3.904,12.93 4.509,12.786 4.976,13.066 L6.498,14.022 L8.145,13.071 C7.95,12.37 7.95,11.63 8.145,10.929 L6.498,9.979 L4.976,10.934 C4.509,11.214 3.904,11.07 3.615,10.609 C3.325,10.148 3.457,9.54 3.912,9.241 L4.539,8.847 L3.706,8.367 C3.227,8.091 3.063,7.479 3.339,7.001 C3.616,6.522 4.227,6.358 4.706,6.634 L5.539,7.115 L5.566,6.375 C5.587,5.823 6.051,5.392 6.603,5.413 C7.155,5.434 7.586,5.898 7.565,6.45 L7.498,8.246 L9.146,9.198 C9.655,8.679 10.296,8.308 11,8.126 L11,6.224 L9.411,5.384 C8.923,5.126 8.736,4.521 8.995,4.032 C9.253,3.544 9.858,3.358 10.346,3.616 L11,3.962 L11,3 C11,2.448 11.448,2 12,2 Z M12,14 C13.105,14 14,13.105 14,12 C14,10.895 13.105,10 12,10 C10.895,10 10,10.895 10,12 C10,13.105 10.895,14 12,14 Z"/>
</svg>

