<svg xmlns="http://www.w3.org/2000/svg" width="24" height="24">
  <defs/>
  <path  d="M13.5,3 A1.5 1.5 0 0 0 10.5,3 L10.5,5.379 L9.06,3.939 A1.5 1.5 0 1 0 6.94,6.061 L10.5,9.621 L10.5,10.5 L9.621,10.5 L6.061,6.94 A1.5 1.5 0 1 0 3.939,9.06 L5.379,10.5 L3,10.5 A1.5 1.5 0 0 0 3,13.5 L5.379,13.5 L3.939,14.94 A1.5 1.5 0 0 0 6.061,17.06 L9.621,13.5 L10.5,13.5 L10.5,14.379 L6.94,17.939 A1.5 1.5 0 0 0 9.06,20.061 L10.5,18.621 L10.5,21 A1.5 1.5 0 0 0 13.5,21 L13.5,18.621 L14.94,20.061 A1.5 1.5 0 0 0 17.06,17.939 L13.5,14.379 L13.5,13.5 L14.379,13.5 L17.939,17.06 A1.5 1.5 0 0 0 20.061,14.94 L18.621,13.5 L21,13.5 A1.5 1.5 0 0 0 21,10.5 L18.621,10.5 L20.061,9.06 A1.5 1.5 0 0 0 17.939,6.94 L14.379,10.5 L13.5,10.5 L13.5,9.621 L17.06,6.061 A1.5 1.5 0 0 0 14.94,3.939 L13.5,5.38 Z"/>
</svg>

