<svg xmlns="http://www.w3.org/2000/svg" width="24" height="24">
  <defs/>
  <path  d="M13,3 A1 1 0 1 0 11,3 L11,3.962 L10.346,3.616 A1 1 0 1 0 9.411,5.384 L11,6.224 L11,8.126 A3.996 3.996 0 0 0 9.146,9.198 L7.498,8.246 L7.565,6.45 A1 1 0 0 0 5.566,6.376 L5.539,7.115 L4.706,6.635 A1 1 0 1 0 3.706,8.366 L4.539,8.847 L3.912,9.241 A1 1 0 0 0 4.976,10.934 L6.498,9.978 L8.145,10.929 A4.003 4.003 0 0 0 8.145,13.071 L6.498,14.021 L4.976,13.066 A1 1 0 0 0 3.912,14.759 L4.539,15.153 L3.706,15.633 A1 1 0 1 0 4.706,17.366 L5.538,16.885 L5.566,17.625 A1 1 0 1 0 7.565,17.55 L7.498,15.754 L9.146,14.802 A3.991 3.991 0 0 0 11,15.874 L11,17.776 L9.411,18.616 A1 1 0 0 0 10.346,20.384 L11,20.038 L11,21 A1 1 0 1 0 13,21 L13,20.038 L13.654,20.384 A1 1 0 0 0 14.589,18.616 L13,17.776 L13,15.874 A3.996 3.996 0 0 0 14.854,14.803 L16.502,15.754 L16.435,17.55 A1 1 0 1 0 18.434,17.625 L18.461,16.885 L19.294,17.366 A1 1 0 1 0 20.294,15.634 L19.462,15.154 L20.088,14.76 A1 1 0 0 0 19.024,13.066 L17.502,14.022 L15.855,13.072 A4.004 4.004 0 0 0 15.855,10.929 L17.502,9.978 L19.024,10.934 A1 1 0 0 0 20.088,9.24 L19.461,8.847 L20.294,8.366 A1 1 0 1 0 19.294,6.634 L18.461,7.114 L18.434,6.375 A1 1 0 1 0 16.435,6.45 L16.502,8.246 L14.854,9.197 A3.996 3.996 0 0 0 13,8.126 L13,6.224 L14.589,5.384 A1 1 0 0 0 13.654,3.616 L13,3.962 Z"/>
</svg>

