<svg xmlns="http://www.w3.org/2000/svg" width="24" height="24">
  <defs/>
  <path  d="M11.5,2 A6.502 6.502 0 0 1 17.586,6.212 A6.002 6.002 0 0 1 18.319,17.535 A3 3 0 0 0 18.868,14.5 A3 3 0 0 0 15,10.632 A3.002 3.002 0 0 0 12,11.15 A3.002 3.002 0 0 0 9,10.632 A3 3 0 0 0 5.132,14.5 A3.012 3.012 0 0 0 4.987,16.094 A2.981 2.981 0 0 0 3.993,16.656 L3.797,16.839 A5 5 0 0 1 5,8.416 A6.5 6.5 0 0 1 11.5,2 M8.646,12.732 L9,13.086 L9.354,12.732 A1 1 0 0 1 10.768,14.146 L10.414,14.5 L10.768,14.854 A1 1 0 0 1 9.354,16.268 L9,15.914 L8.646,16.268 A1 1 0 0 1 7.232,14.853 L7.586,14.5 L7.232,14.146 A1 1 0 1 1 8.646,12.732 M14.646,12.732 L15,13.086 L15.354,12.732 A1 1 0 0 1 16.768,14.146 L16.414,14.5 L16.768,14.854 A1 1 0 0 1 15.353,16.268 L15,15.914 L14.646,16.268 A1 1 0 0 1 13.232,14.853 L13.586,14.5 L13.232,14.146 A1 1 0 0 1 14.646,12.732 M8.768,18.232 A1 1 0 0 1 8.768,19.646 L8.414,20 L8.768,20.354 A1 1 0 0 1 7.354,21.768 L7,21.414 L6.646,21.768 A1 1 0 0 1 5.232,20.353 L5.586,20 L5.232,19.646 A1 1 0 1 1 6.646,18.232 L7,18.586 L7.354,18.232 A1 1 0 0 1 8.768,18.232 M14.768,19.646 A1 1 0 0 0 13.353,18.232 L13,18.586 L12.646,18.232 A1 1 0 0 0 11.232,19.646 L11.586,20 L11.232,20.354 A1 1 0 0 0 12.646,21.768 L13,21.414 L13.354,21.768 A1 1 0 0 0 14.768,20.353 L14.414,20 Z"/>
</svg>

