<svg xmlns="http://www.w3.org/2000/svg" width="24" height="24">
  <defs/>
  <path  d="M12,2 A5 5 0 0 1 16.33,9.5 C16.757,9.837 17.144,10.222 17.482,10.647 L17.679,10.907 L19.293,9.293 A1 1 0 0 1 20.79,10.613 L20.707,10.707 L18.707,12.707 L18.637,12.771 A7 7 0 1 1 5.362,12.771 L5.292,12.707 L3.292,10.707 A1 1 0 0 1 4.612,9.21 L4.707,9.293 L6.321,10.907 A7.042 7.042 0 0 1 7.669,9.5 A5 5 0 0 1 12,2 M12,4 A3 3 0 0 0 9.82,9.062 A1 1 0 0 1 9.58,10.624 A5 5 0 1 0 14.421,10.624 A1 1 0 0 1 14.179,9.062 A3 3 0 0 0 12,4 M12,16 A1 1 0 1 1 12,18 A1 1 0 0 1 12,16 M12,13 A1 1 0 1 1 12,15 A1 1 0 0 1 12,13 M13.207,6.793 A1 1 0 0 1 13.29,8.113 L13.207,8.207 L12.707,8.707 A1 1 0 0 1 11.21,7.387 L11.293,7.293 L11.793,6.793 A1 1 0 0 1 13.207,6.793"/>
</svg>

