<svg xmlns="http://www.w3.org/2000/svg" width="24" height="24">
  <defs/>
  <path  d="M17,20.662 L17,21 C17.001,21.453 16.697,21.85 16.259,21.968 C15.821,22.085 15.359,21.893 15.133,21.5 C14.122,21.832 13.064,22.001 12,22 C10.906,22 9.852,21.824 8.867,21.5 C8.641,21.893 8.179,22.085 7.741,21.968 C7.303,21.85 6.999,21.453 7,21 L7,20.662 C3.905,18.876 1.999,15.574 2,12 C2,6.477 6.477,2 12,2 C17.523,2 22,6.477 22,12 C22.002,15.574 20.095,18.876 17,20.662 Z M12,4 C8.603,4 5.577,6.145 4.451,9.35 C3.326,12.556 4.348,16.122 7,18.245 L7,13 C7,12.448 7.448,12 8,12 C8.552,12 9,12.448 9,13 L9,19.419 C9.926,19.794 10.94,20 12,20 C13.06,20 14.074,19.794 15,19.419 L15,13 C15,12.448 15.448,12 16,12 C16.552,12 17,12.448 17,13 L17,18.245 C19.652,16.122 20.674,12.556 19.549,9.35 C18.423,6.145 15.397,4 12,4 Z M6,9 C6,8.448 6.448,8 7,8 L10,8 C10.552,8 11,8.448 11,9 C11,9.552 10.552,10 10,10 L7,10 C6.448,10 6,9.552 6,9 Z M13,9 C13,8.448 13.448,8 14,8 L17,8 C17.552,8 18,8.448 18,9 C18,9.552 17.552,10 17,10 L14,10 C13.448,10 13,9.552 13,9 Z"/>
</svg>

