<svg xmlns="http://www.w3.org/2000/svg" width="24" height="24">
  <defs/>
  <path  d="M12,2 C17.523,2 22,6.477 22,12 C22.001,15.574 20.095,18.876 17,20.662 L17,13 C17,12.448 16.552,12 16,12 C15.448,12 15,12.448 15,13 L15,21 C15,21.182 15.049,21.352 15.133,21.5 C14.148,21.824 13.094,22 12,22 C10.936,22.001 9.878,21.832 8.867,21.5 C8.955,21.348 9,21.175 9,21 L9,13 C9,12.448 8.552,12 8,12 C7.448,12 7,12.448 7,13 L7,20.662 C3.905,18.876 1.999,15.574 2,12 C2,6.477 6.477,2 12,2 Z M17,8 L14,8 C13.448,8 13,8.448 13,9 C13,9.552 13.448,10 14,10 L17,10 C17.552,10 18,9.552 18,9 C18,8.448 17.552,8 17,8 Z M10,8 L7,8 C6.471,8.001 6.034,8.413 6.003,8.941 C5.972,9.47 6.358,9.931 6.883,9.993 L7,10 L10,10 C10.529,9.999 10.966,9.587 10.997,9.059 C11.028,8.53 10.642,8.069 10.117,8.007 Z"/>
</svg>

