<svg xmlns="http://www.w3.org/2000/svg" width="24" height="24">
  <defs/>
  <path  d="M19.753,4.659 L19.753,4.658 L14.363,10.818 L20.8,19.4 C21.027,19.703 21.064,20.108 20.894,20.447 C20.725,20.786 20.379,21 20,21 L16,21 C15.685,21 15.389,20.852 15.2,20.6 L10.863,14.818 L5.753,20.659 C5.389,21.075 4.757,21.117 4.341,20.753 C3.926,20.39 3.883,19.758 4.247,19.342 L9.637,13.182 L3.2,4.6 C2.973,4.297 2.936,3.892 3.106,3.553 C3.275,3.214 3.621,3 4,3 L8,3 C8.315,3 8.611,3.148 8.8,3.4 L13.137,9.182 L18.247,3.342 C18.611,2.926 19.243,2.884 19.659,3.247 C20.074,3.611 20.117,4.243 19.753,4.659 Z M16.5,19 L18,19 L7.5,5 L6,5 Z"/>
</svg>

