<svg xmlns="http://www.w3.org/2000/svg" width="24" height="24">
  <defs/>
  <path  d="M17,2 C18.105,2 19,2.895 19,4 L19,11.343 C19,12.669 18.473,13.941 17.535,14.879 L12.535,19.879 C10.583,21.831 7.417,21.831 5.465,19.879 L5.121,19.535 C3.169,17.583 3.169,14.417 5.121,12.465 L8.707,8.879 C8.895,8.692 9,8.437 9,8.172 L9,4 C9,2.895 9.895,2 11,2 Z M17,7 L11,7 L11,8.172 C11,8.967 10.683,9.73 10.121,10.292 L6.535,13.88 C5.364,15.051 5.364,16.951 6.535,18.122 L6.879,18.466 C8.05,19.637 9.95,19.637 11.121,18.466 L13.828,15.758 C12.912,14.372 12.744,12.621 13.38,11.087 C14.016,9.552 15.372,8.433 17,8.1 Z M17,4 L11,4 L11,5 L17,5 Z M17,10.17 C16.197,10.454 15.553,11.065 15.227,11.851 C14.901,12.638 14.925,13.526 15.292,14.294 L16.122,13.464 C16.684,12.902 17,12.139 17,11.344 Z"/>
</svg>

