<svg xmlns="http://www.w3.org/2000/svg" width="24" height="24">
  <defs/>
  <path  d="M10,3 L14,3 C16.761,3 19,5.239 19,8 L19,9.17 C20.199,9.594 21,10.728 21,12 L21,17 C21,18.105 20.105,19 19,19 L19,20 C19,20.552 18.552,21 18,21 C17.448,21 17,20.552 17,20 L17,19 L7,19 L7,20 C7,20.552 6.552,21 6,21 C5.448,21 5,20.552 5,20 L5,19 C3.895,19 3,18.105 3,17 L3,12 C3,10.728 3.801,9.594 5,9.17 L5,8 C5,5.239 7.239,3 10,3 Z M17,9.17 L17,8 C17,6.343 15.657,5 14,5 L10,5 C8.343,5 7,6.343 7,8 L7,9.17 C8.165,9.583 9,10.694 9,12 L9,13 L15,13 L15,12 C15,10.694 15.835,9.583 17,9.17 Z"/>
</svg>

