<svg xmlns="http://www.w3.org/2000/svg" width="24" height="24">
  <defs/>
  <path  d="M6.293,16.293 C6.48,16.105 6.735,16 7,16 L20,16 C20.404,16 20.769,16.244 20.924,16.617 C21.078,16.991 20.993,17.421 20.707,17.707 L17.707,20.707 C17.52,20.895 17.265,21 17,21 L4,21 C3.596,21 3.231,20.756 3.076,20.383 C2.922,20.009 3.007,19.579 3.293,19.293 Z M7.293,4.293 C7.48,4.105 7.735,4 8,4 L21,4 C21.404,4 21.769,4.244 21.924,4.617 C22.078,4.991 21.993,5.421 21.707,5.707 L18.707,8.707 C18.52,8.895 18.265,9 18,9 L5,9 C4.596,9 4.231,8.756 4.076,8.383 C3.922,8.009 4.007,7.579 4.293,7.293 Z M5,10 L18,10 C18.334,10 18.646,10.167 18.832,10.445 L20.832,13.445 C21.037,13.752 21.056,14.147 20.882,14.472 C20.708,14.797 20.369,15 20,15 L7,15 C6.666,15 6.354,14.833 6.168,14.555 L4.168,11.555 C3.963,11.248 3.944,10.853 4.118,10.528 C4.292,10.203 4.631,10 5,10 Z M7.535,13 L18.131,13 L17.465,12 L6.869,12 Z M7.414,18 L6.414,19 L16.586,19 L17.586,18 Z M8.414,6 L7.414,7 L17.586,7 L18.586,6 Z"/>
</svg>

