<svg xmlns="http://www.w3.org/2000/svg" width="24" height="24">
  <defs/>
  <path  d="M10.105,4 L13.895,4 L14.395,9 L9.605,9 Z M9.405,11 L14.595,11 L15.095,16 L13,16 L13,18 L15,18 A1 1 0 1 1 15,20 L9,20 A1 1 0 1 1 9,18 L11,18 L11,16 L8.905,16 Z M16.605,11 L17.105,16 L20.39,16 A1.5 1.5 0 0 0 21.861,14.206 L21.22,11 Z M15.905,4 L16.405,9 L20.82,9 L20.141,5.608 A2 2 0 0 0 18.181,4 Z M8.095,4 L5.82,4 A2 2 0 0 0 3.859,5.608 L3.18,9 L7.595,9 Z M7.395,11 L2.78,11 L2.139,14.206 A1.5 1.5 0 0 0 3.609,16 L6.895,16 Z"/>
</svg>

