<svg xmlns="http://www.w3.org/2000/svg" width="24" height="24">
  <defs/>
  <path  d="M18.18,4 C19.075,4 19.86,4.594 20.104,5.455 L20.141,5.608 L21.861,14.206 C21.944,14.624 21.846,15.057 21.591,15.398 C21.336,15.739 20.948,15.956 20.524,15.994 L20.39,16 L13,16 L13,18 L15,18 C15.529,18.001 15.966,18.413 15.997,18.941 C16.028,19.47 15.642,19.931 15.117,19.993 L15,20 L9,20 C8.471,19.999 8.034,19.587 8.003,19.059 C7.972,18.53 8.358,18.069 8.883,18.007 L9,18 L11,18 L11,16 L3.61,16 C3.184,16 2.778,15.819 2.494,15.502 C2.209,15.185 2.073,14.761 2.119,14.338 L2.139,14.206 L3.859,5.608 C4.034,4.731 4.77,4.077 5.662,4.006 L5.82,4 Z M19.18,11 L15.605,11 L15.905,14 L19.78,14 Z M8.395,11 L4.82,11 L4.22,14 L8.095,14 Z M13.595,11 L10.405,11 L10.105,14 L13.895,14 Z M8.895,6 L5.82,6 L5.22,9 L8.595,9 Z M18.18,6 L15.105,6 L15.405,9 L18.78,9 Z M13.095,6 L10.905,6 L10.605,9 L13.395,9 Z"/>
</svg>

