<svg xmlns="http://www.w3.org/2000/svg" width="24" height="24">
  <defs/>
  <path  d="M16.94,3.111 A1.5 1.5 0 0 1 18.947,3.008 L19.061,3.111 L21.889,5.94 A1.5 1.5 0 0 1 19.882,8.164 L19.768,8.061 L19.5,7.793 L19.5,19 A1.5 1.5 0 0 1 16.507,19.144 L16.5,19 L16.5,7.793 L16.232,8.061 A1.5 1.5 0 0 1 14.008,6.053 L14.111,5.94 L16.939,3.111 Z M13,17.5 A1.5 1.5 0 0 1 13.144,20.493 L13,20.5 L4,20.5 A1.5 1.5 0 0 1 3.856,17.507 L4,17.5 Z M13,10.5 A1.5 1.5 0 0 1 13,13.5 L4,13.5 A1.5 1.5 0 0 1 4,10.5 Z M11,3.5 A1.5 1.5 0 0 1 11,6.5 L4,6.5 A1.5 1.5 0 1 1 4,3.5 Z"/>
</svg>

