<svg xmlns="http://www.w3.org/2000/svg" width="24" height="24">
  <defs/>
  <path  d="M18,3.5 A1.5 1.5 0 0 1 19.5,5 L19.5,16.207 L19.768,15.939 A1.5 1.5 0 1 1 21.889,18.061 L19.061,20.889 A1.5 1.5 0 0 1 16.939,20.889 L14.111,18.061 A1.5 1.5 0 1 1 16.232,15.939 L16.5,16.207 L16.5,5 A1.5 1.5 0 0 1 18,3.5 M11,17.5 A1.5 1.5 0 0 1 11.144,20.493 L11,20.5 L4,20.5 A1.5 1.5 0 0 1 3.856,17.507 L4,17.5 Z M13,10.5 A1.5 1.5 0 0 1 13.144,13.493 L13,13.5 L4,13.5 A1.5 1.5 0 0 1 3.856,10.507 L4,10.5 Z M13,3.5 A1.5 1.5 0 0 1 13,6.5 L4,6.5 A1.5 1.5 0 1 1 4,3.5 Z"/>
</svg>

