<svg xmlns="http://www.w3.org/2000/svg" width="24" height="24">
  <defs/>
  <path  d="M9.5,8 C9.5,7.172 10.172,6.5 11,6.5 L14,6.5 C14.828,6.5 15.5,7.172 15.5,8 C15.5,8.828 14.828,9.5 14,9.5 L11,9.5 C10.172,9.5 9.5,8.828 9.5,8 Z M9.5,12 C9.5,11.172 10.172,10.5 11,10.5 L14,10.5 C14.828,10.5 15.5,11.172 15.5,12 C15.5,12.828 14.828,13.5 14,13.5 L11,13.5 C10.172,13.5 9.5,12.828 9.5,12 Z M2.5,12 C2.5,11.172 3.172,10.5 4,10.5 L7,10.5 C7.828,10.5 8.5,11.172 8.5,12 C8.5,12.828 7.828,13.5 7,13.5 L4,13.5 C3.172,13.5 2.5,12.828 2.5,12 Z M9.5,4 C9.5,3.172 10.172,2.5 11,2.5 L14,2.5 C14.828,2.5 15.5,3.172 15.5,4 C15.5,4.828 14.828,5.5 14,5.5 L11,5.5 C10.172,5.5 9.5,4.828 9.5,4 Z M9.5,16 C9.5,15.172 10.172,14.5 11,14.5 L14,14.5 C14.828,14.5 15.5,15.172 15.5,16 C15.5,16.828 14.828,17.5 14,17.5 L11,17.5 C10.172,17.5 9.5,16.828 9.5,16 Z M2.5,16 C2.5,15.172 3.172,14.5 4,14.5 L7,14.5 C7.828,14.5 8.5,15.172 8.5,16 C8.5,16.828 7.828,17.5 7,17.5 L4,17.5 C3.172,17.5 2.5,16.828 2.5,16 Z M16.5,8 C16.5,7.172 17.172,6.5 18,6.5 L21,6.5 C21.828,6.5 22.5,7.172 22.5,8 C22.5,8.828 21.828,9.5 21,9.5 L18,9.5 C17.172,9.5 16.5,8.828 16.5,8 Z M16.5,12 C16.5,11.172 17.172,10.5 18,10.5 L21,10.5 C21.828,10.5 22.5,11.172 22.5,12 C22.5,12.828 21.828,13.5 21,13.5 L18,13.5 C17.172,13.5 16.5,12.828 16.5,12 Z M9.5,20 C9.5,19.172 10.172,18.5 11,18.5 L14,18.5 C14.828,18.5 15.5,19.172 15.5,20 C15.5,20.828 14.828,21.5 14,21.5 L11,21.5 C10.172,21.5 9.5,20.828 9.5,20 Z M2.5,20 C2.5,19.172 3.172,18.5 4,18.5 L7,18.5 C7.828,18.5 8.5,19.172 8.5,20 C8.5,20.828 7.828,21.5 7,21.5 L4,21.5 C3.172,21.5 2.5,20.828 2.5,20 Z M16.5,16 C16.5,15.172 17.172,14.5 18,14.5 L21,14.5 C21.828,14.5 22.5,15.172 22.5,16 C22.5,16.828 21.828,17.5 21,17.5 L18,17.5 C17.172,17.5 16.5,16.828 16.5,16 Z M16.5,20 C16.5,19.172 17.172,18.5 18,18.5 L21,18.5 C21.828,18.5 22.5,19.172 22.5,20 C22.5,20.828 21.828,21.5 21,21.5 L18,21.5 C17.172,21.5 16.5,20.828 16.5,20 Z"/>
</svg>

