<svg xmlns="http://www.w3.org/2000/svg" width="24" height="24">
  <defs/>
  <path  d="M10,12 C10,11.448 10.448,11 11,11 L14,11 C14.552,11 15,11.448 15,12 C15,12.552 14.552,13 14,13 L11,13 C10.448,13 10,12.552 10,12 Z M10,8 C10,7.448 10.448,7 11,7 L14,7 C14.552,7 15,7.448 15,8 C15,8.552 14.552,9 14,9 L11,9 C10.448,9 10,8.552 10,8 Z M10,4 C10,3.448 10.448,3 11,3 L14,3 C14.552,3 15,3.448 15,4 C15,4.552 14.552,5 14,5 L11,5 C10.448,5 10,4.552 10,4 Z M3,12 C3,11.448 3.448,11 4,11 L7,11 C7.552,11 8,11.448 8,12 C8,12.552 7.552,13 7,13 L4,13 C3.448,13 3,12.552 3,12 Z M10,16 C10,15.448 10.448,15 11,15 L14,15 C14.552,15 15,15.448 15,16 C15,16.552 14.552,17 14,17 L11,17 C10.448,17 10,16.552 10,16 Z M3,16 C3,15.448 3.448,15 4,15 L7,15 C7.552,15 8,15.448 8,16 C8,16.552 7.552,17 7,17 L4,17 C3.448,17 3,16.552 3,16 Z M17,12 C17,11.448 17.448,11 18,11 L21,11 C21.552,11 22,11.448 22,12 C22,12.552 21.552,13 21,13 L18,13 C17.448,13 17,12.552 17,12 Z M10,20 C10,19.448 10.448,19 11,19 L14,19 C14.552,19 15,19.448 15,20 C15,20.552 14.552,21 14,21 L11,21 C10.448,21 10,20.552 10,20 Z M17,8 C17,7.448 17.448,7 18,7 L21,7 C21.552,7 22,7.448 22,8 C22,8.552 21.552,9 21,9 L18,9 C17.448,9 17,8.552 17,8 Z M3,20 C3,19.448 3.448,19 4,19 L7,19 C7.552,19 8,19.448 8,20 C8,20.552 7.552,21 7,21 L4,21 C3.448,21 3,20.552 3,20 Z M17,16 C17,15.448 17.448,15 18,15 L21,15 C21.552,15 22,15.448 22,16 C22,16.552 21.552,17 21,17 L18,17 C17.448,17 17,16.552 17,16 Z M17,20 C17,19.448 17.448,19 18,19 L21,19 C21.552,19 22,19.448 22,20 C22,20.552 21.552,21 21,21 L18,21 C17.448,21 17,20.552 17,20 Z"/>
</svg>

