<svg xmlns="http://www.w3.org/2000/svg" width="24" height="24">
  <defs/>
  <path  d="M14,3 C14.529,3.001 14.966,3.413 14.997,3.941 C15.028,4.47 14.642,4.931 14.117,4.993 L14,5 L13,5 L13,6 L14.002,6 C14.239,6.001 14.477,6.025 14.712,6.055 L15.053,6.105 C15.421,6.167 15.869,6.265 16.363,6.421 C17.503,6.778 18.565,7.347 19.493,8.099 L19.587,8 L20.294,7.293 C20.667,6.921 21.266,6.903 21.661,7.251 C22.057,7.6 22.114,8.196 21.791,8.613 L21.708,8.707 L21.001,9.414 L21.001,16 C21.001,18.677 18.892,20.879 16.218,20.995 L16,21 L8,21 C5.323,21 3.121,18.891 3.005,16.217 L3,16 L3,9.414 L2.293,8.707 C1.921,8.334 1.903,7.735 2.251,7.34 C2.6,6.944 3.196,6.887 3.613,7.21 L3.707,7.293 L4.414,8 C4.446,8.032 4.477,8.065 4.506,8.099 C5.434,7.348 6.496,6.778 7.636,6.421 C8.065,6.285 8.503,6.18 8.946,6.105 L9.287,6.055 C9.444,6.034 9.603,6.018 9.761,6.008 L9.998,6 L11,6 L11,5 L10,5 C9.471,4.999 9.034,4.587 9.003,4.059 C8.972,3.53 9.358,3.069 9.883,3.007 L10,3 Z M19,11.21 C14.504,12.01 10.187,12.05 5.708,11.33 L5,11.21 L5,16 C5,17.589 6.238,18.902 7.824,18.995 L8,19 L16,19 C17.589,19 18.902,17.762 18.995,16.176 L19,16 Z M13.996,8 L9.956,8.001 L9.776,8.014 L9.476,8.048 L9.219,8.088 C9.171,8.097 9.124,8.106 9.076,8.115 L8.763,8.183 C7.818,8.406 6.925,8.81 6.133,9.373 C10.091,9.997 13.909,9.997 17.867,9.373 C17.224,8.917 16.513,8.565 15.761,8.329 C15.196,8.15 14.593,8.013 13.997,8 Z"/>
</svg>

