<svg xmlns="http://www.w3.org/2000/svg" width="24" height="24">
  <defs/>
  <path  d="M3.707,8.293 L4.414,9 A2 2 0 0 1 4.957,10 L13.5,10 A1 1 0 1 1 13.5,12 L5,12 L5,17 A2 2 0 0 0 7,19 L17,19 A2 2 0 0 0 19,17 L19,12 L18.5,12 A1 1 0 1 1 18.5,10 L19.043,10 A2 2 0 0 1 19.586,9 L20.293,8.293 A1 1 0 1 1 21.707,9.707 L21,10.414 L21,17 A4 4 0 0 1 17,21 L7,21 A4 4 0 0 1 3,17 L3,10.414 L2.293,9.707 A1 1 0 0 1 3.707,8.293 M19.447,4.106 A1 1 0 0 1 19.894,5.447 L14.894,15.447 A0.993 0.993 0 0 1 14.844,15.537 A3.502 3.502 0 0 1 8,14.5 L8,14 A1 1 0 0 1 9,13 L13.882,13 L18.106,4.553 A1 1 0 0 1 19.447,4.106 M12.915,15 L10.085,15 A1.5 1.5 0 0 0 12.915,15 M13.555,2.168 A1 1 0 0 1 13.832,3.555 L13.616,3.878 A0.725 0.725 0 0 0 13.707,4.793 A2.725 2.725 0 0 1 14.047,8.232 L13.832,8.555 A1 1 0 0 1 12.168,7.445 L12.384,7.122 A0.725 0.725 0 0 0 12.293,6.207 A2.725 2.725 0 0 1 11.953,2.769 L12.168,2.445 A1 1 0 0 1 13.555,2.168 M8.168,2.445 A1 1 0 0 1 9.89,3.454 L9.831,3.554 L9.616,3.878 A0.725 0.725 0 0 0 9.706,4.793 A2.725 2.725 0 0 1 10.148,8.067 L10.047,8.232 L9.831,8.555 A1 1 0 0 1 8.11,7.546 L8.169,7.446 L8.384,7.122 A0.725 0.725 0 0 0 8.294,6.207 A2.725 2.725 0 0 1 7.852,2.933 L7.953,2.769 Z"/>
</svg>

