<svg xmlns="http://www.w3.org/2000/svg" width="24" height="24">
  <defs/>
  <path  d="M10,3 L14,3 C14.552,3 15,3.448 15,4 C15,4.552 14.552,5 14,5 L13,5 L13,6 L14,6 C14.238,6.007 14.476,6.026 14.713,6.055 C15.273,6.128 15.826,6.25 16.364,6.421 C17.504,6.778 18.566,7.347 19.494,8.099 C19.524,8.065 19.554,8.032 19.586,8 L20.293,7.293 C20.685,6.914 21.309,6.919 21.695,7.305 C22.081,7.691 22.086,8.315 21.707,8.707 L21,9.414 L21,16 C21,18.761 18.761,21 16,21 L8,21 C5.239,21 3,18.761 3,16 L3,9.414 L2.292,8.707 C1.913,8.315 1.918,7.691 2.304,7.305 C2.69,6.919 3.314,6.914 3.706,7.293 L4.413,8 C4.445,8.032 4.476,8.066 4.506,8.1 C5.435,7.348 6.497,6.778 7.637,6.421 C8.297,6.213 8.872,6.108 9.287,6.055 C9.524,6.025 9.762,6 10,6 L11,6 L11,5 L10,5 C9.448,5 9,4.552 9,4 C9,3.448 9.448,3 10,3 Z"/>
</svg>

