<svg xmlns="http://www.w3.org/2000/svg" width="24" height="24">
  <defs/>
  <path  d="M19.447,4.106 A1 1 0 0 1 19.941,5.34 L19.894,5.448 L17.618,10 L19.043,10 A2 2 0 0 1 19.473,9.123 L19.586,9 L20.293,8.293 A1 1 0 0 1 21.79,9.613 L21.707,9.707 L21,10.415 L21,17 A4 4 0 0 1 17.2,20.996 L17,21 L7,21 A4 4 0 0 1 3.005,17.2 L3,17 L3,10.415 L2.293,9.707 A1 1 0 0 1 3.613,8.21 L3.707,8.293 L4.414,9 A2 2 0 0 1 4.916,9.841 L4.956,10.001 L15.382,10.001 L18.106,4.553 A1 1 0 0 1 19.447,4.106 M17.118,11 L14.882,11 L13.882,13 L9,13 A1 1 0 0 0 8.007,13.884 L8,14 L8,14.5 A3.5 3.5 0 0 0 14.844,15.537 L14.87,15.493 Z M12.915,15 A1.5 1.5 0 0 1 10.139,15.132 L10.085,15 Z M9.555,2.168 A1 1 0 0 1 9.832,3.555 L9.617,3.878 A0.725 0.725 0 0 0 9.707,4.793 A2.725 2.725 0 0 1 10.047,8.232 L9.832,8.555 A1 1 0 0 1 8.168,7.445 L8.383,7.122 A0.725 0.725 0 0 0 8.293,6.207 A2.725 2.725 0 0 1 7.953,2.769 L8.168,2.445 A1 1 0 0 1 9.555,2.168 M13.555,2.168 A1 1 0 0 1 13.832,3.555 L13.616,3.878 A0.725 0.725 0 0 0 13.707,4.793 A2.725 2.725 0 0 1 14.047,8.232 L13.832,8.555 A1 1 0 0 1 12.168,7.445 L12.384,7.122 A0.725 0.725 0 0 0 12.293,6.207 A2.725 2.725 0 0 1 11.953,2.769 L12.168,2.445 A1 1 0 0 1 13.555,2.168"/>
</svg>

