<svg xmlns="http://www.w3.org/2000/svg" width="24" height="24">
  <defs/>
  <path  d="M6,2.5 A2.5 2.5 0 0 1 8.5,5 L8.5,19 A2.5 2.5 0 0 1 6,21.5 L4,21.5 A1.5 1.5 0 0 1 4,18.5 L5.5,18.5 L5.5,5.5 L4,5.5 A1.5 1.5 0 1 1 4,2.5 Z M20,2.5 A1.5 1.5 0 0 1 20.144,5.493 L20,5.5 L18.5,5.5 L18.5,18.5 L20,18.5 A1.5 1.5 0 0 1 20.144,21.493 L20,21.5 L18,21.5 A2.5 2.5 0 0 1 15.505,19.164 L15.5,19 L15.5,5 A2.5 2.5 0 0 1 17.836,2.505 L18,2.5 Z M12,6.5 A1.5 1.5 0 0 1 13.493,7.856 L13.5,8 L13.5,16 A1.5 1.5 0 0 1 10.507,16.144 L10.5,16 L10.5,8 A1.5 1.5 0 0 1 12,6.5"/>
</svg>

