<svg xmlns="http://www.w3.org/2000/svg" width="24" height="24">
  <defs/>
  <path  d="M20,2.5 C20.828,2.5 21.5,3.172 21.5,4 L21.5,6 C21.5,7.381 20.381,8.5 19,8.5 L5,8.5 C3.619,8.5 2.5,7.381 2.5,6 L2.5,4 C2.5,3.172 3.172,2.5 4,2.5 C4.828,2.5 5.5,3.172 5.5,4 L5.5,5.5 L18.5,5.5 L18.5,4 C18.5,3.172 19.172,2.5 20,2.5 Z M20,21.5 C19.172,21.5 18.5,20.828 18.5,20 L18.5,18.5 L5.5,18.5 L5.5,20 C5.5,20.828 4.828,21.5 4,21.5 C3.172,21.5 2.5,20.828 2.5,20 L2.5,18 C2.5,16.619 3.619,15.5 5,15.5 L19,15.5 C20.381,15.5 21.5,16.619 21.5,18 L21.5,20 C21.5,20.828 20.828,21.5 20,21.5 Z M16,13.5 L8,13.5 C7.172,13.5 6.5,12.828 6.5,12 C6.5,11.172 7.172,10.5 8,10.5 L16,10.5 C16.828,10.5 17.5,11.172 17.5,12 C17.5,12.828 16.828,13.5 16,13.5 Z"/>
</svg>

