<svg xmlns="http://www.w3.org/2000/svg" width="24" height="24">
  <defs/>
  <path  d="M13.219,3.304 C13.441,3.45 13.713,3.63 14.11,3.861 C18.38,6.342 20.924,9.171 20.998,12.403 C21.048,14.569 20.115,16.47 18.699,17.669 C17.721,18.497 16.491,19.002 15.201,19.001 C15.399,19.577 15.618,20.087 15.857,20.485 C16.043,20.794 16.048,21.179 15.87,21.492 C15.693,21.806 15.36,22 15,22 L9,22 C8.64,22 8.307,21.806 8.13,21.492 C7.952,21.179 7.957,20.794 8.143,20.485 C8.382,20.087 8.601,19.577 8.798,19.001 C7.508,19.002 6.278,18.497 5.301,17.669 C3.885,16.47 2.953,14.569 3.001,12.403 C3.076,9.17 5.621,6.343 9.89,3.861 C10.287,3.63 10.559,3.451 10.781,3.304 C11.153,3.058 11.535,2.806 12,2.806 C12.464,2.806 12.847,3.058 13.219,3.304 Z M10.895,5.59 C6.752,7.998 5.05,10.325 5,12.448 C4.965,14.008 5.635,15.333 6.592,16.143 C7.547,16.951 8.743,17.223 9.849,16.804 C10.197,16.672 10.589,16.744 10.867,16.991 C11.145,17.238 11.263,17.618 11.174,17.979 C11.009,18.664 10.805,19.338 10.564,20 L13.434,20 C13.193,19.338 12.989,18.664 12.824,17.979 C12.735,17.618 12.853,17.238 13.131,16.991 C13.409,16.744 13.801,16.672 14.149,16.804 C15.255,17.224 16.451,16.951 17.406,16.143 C18.363,15.333 19.033,14.009 18.998,12.448 C18.949,10.325 17.247,7.998 13.104,5.59 C12.576,5.283 12.22,5.04 11.999,4.896 C11.779,5.04 11.422,5.283 10.894,5.59 Z"/>
</svg>

