<svg xmlns="http://www.w3.org/2000/svg" width="24" height="24">
  <defs/>
  <path  d="M5.882,18.104 C4.144,16.963 2.946,14.851 3.002,12.403 C3.076,9.17 5.62,6.343 9.89,3.86 C10.287,3.629 10.559,3.45 10.781,3.303 C11.153,3.057 11.535,2.805 12,2.805 C12.464,2.805 12.847,3.057 13.219,3.303 C13.441,3.449 13.713,3.629 14.11,3.86 C18.38,6.341 20.924,9.17 20.998,12.402 C21.054,14.85 19.856,16.962 18.118,18.102 C16.958,18.864 15.555,19.188 14.164,18.888 C14.37,19.507 14.601,20.058 14.858,20.484 C15.044,20.793 15.049,21.179 14.872,21.493 C14.694,21.807 14.361,22.001 14,22 L10,22 C9.64,22 9.307,21.806 9.13,21.492 C8.952,21.179 8.957,20.794 9.143,20.485 C9.399,20.058 9.63,19.509 9.836,18.89 C8.446,19.19 7.041,18.865 5.882,18.104 Z"/>
</svg>

