<svg xmlns="http://www.w3.org/2000/svg" width="24" height="24">
  <defs/>
  <path  d="M12.948,6.14 C13.755,8.443 15.565,10.253 17.868,11.06 C18.269,11.2 18.538,11.579 18.538,12.004 C18.538,12.429 18.269,12.808 17.868,12.948 C15.565,13.755 13.755,15.565 12.948,17.868 C12.808,18.269 12.429,18.538 12.004,18.538 C11.579,18.538 11.2,18.269 11.06,17.868 C10.253,15.565 8.443,13.755 6.14,12.948 C5.739,12.808 5.47,12.429 5.47,12.004 C5.47,11.579 5.739,11.2 6.14,11.06 C8.443,10.253 10.253,8.443 11.06,6.14 C11.2,5.739 11.579,5.47 12.004,5.47 C12.429,5.47 12.808,5.739 12.948,6.14 Z M12.004,15.234 C12.818,13.924 13.924,12.818 15.234,12.004 C13.924,11.19 12.818,10.084 12.004,8.774 C11.19,10.084 10.084,11.19 8.774,12.004 C10.084,12.818 11.19,13.924 12.004,15.234 Z M7.758,16.243 C8.148,16.633 8.148,17.267 7.758,17.657 L5.635,19.78 C5.244,20.17 4.611,20.17 4.22,19.779 C3.83,19.389 3.83,18.755 4.221,18.365 L6.342,16.245 C6.733,15.855 7.365,15.855 7.756,16.245 Z M16.242,16.243 C16.632,15.853 17.266,15.853 17.656,16.243 L19.777,18.364 C20.168,18.754 20.168,19.388 19.778,19.778 C19.387,20.169 18.754,20.169 18.363,19.779 L16.242,17.657 C15.852,17.267 15.852,16.633 16.242,16.243 Z M5.635,4.222 L7.756,6.343 C8.146,6.734 8.146,7.367 7.755,7.758 C7.365,8.148 6.731,8.148 6.341,7.757 L4.221,5.636 C3.842,5.244 3.847,4.62 4.233,4.234 C4.619,3.848 5.243,3.843 5.635,4.222 Z M19.778,5.636 L17.657,7.757 C17.266,8.147 16.633,8.147 16.243,7.757 C15.852,7.366 15.852,6.732 16.243,6.342 L18.364,4.222 C18.756,3.843 19.38,3.848 19.766,4.234 C20.152,4.62 20.157,5.244 19.778,5.636 Z M13,3 L13,3.5 C13,4.052 12.552,4.5 12,4.5 C11.448,4.5 11,4.052 11,3.5 L11,3 C11,2.448 11.448,2 12,2 C12.552,2 13,2.448 13,3 Z M4.5,12 C4.5,12.552 4.052,13 3.5,13 L3,13 C2.448,13 2,12.552 2,12 C2,11.448 2.448,11 3,11 L3.5,11 C4.052,11 4.5,11.448 4.5,12 Z M12,19.5 C12.552,19.5 13,19.948 13,20.5 L13,21 C13,21.552 12.552,22 12,22 C11.448,22 11,21.552 11,21 L11,20.5 C11,19.948 11.448,19.5 12,19.5 Z M22,12 C22,12.552 21.552,13 21,13 L20.5,13 C19.948,13 19.5,12.552 19.5,12 C19.5,11.448 19.948,11 20.5,11 L21,11 C21.552,11 22,11.448 22,12 Z"/>
</svg>

