<svg xmlns="http://www.w3.org/2000/svg" width="24" height="24">
  <defs/>
  <path  d="M12,19.5 A1 1 0 0 1 13,20.5 L13,21 A1 1 0 1 1 11,21 L11,20.5 A1 1 0 0 1 12,19.5 M17.657,16.243 L19.778,18.364 A1 1 0 0 1 18.364,19.779 L16.243,17.657 A1 1 0 1 1 17.657,16.243 M7.757,16.243 A1 1 0 0 1 7.757,17.657 L5.637,19.777 A1 1 0 0 1 4.222,18.364 L6.343,16.242 A1 1 0 0 1 7.757,16.242 M12.004,5.47 A1 1 0 0 1 12.948,6.14 A8.025 8.025 0 0 0 17.868,11.06 A1 1 0 0 1 17.868,12.948 A8.025 8.025 0 0 0 12.948,17.868 A1 1 0 0 1 11.06,17.868 A8.025 8.025 0 0 0 6.14,12.948 A1 1 0 0 1 6.14,11.06 A8.024 8.024 0 0 0 11.06,6.14 A1 1 0 0 1 12.004,5.47 M21,11 A1 1 0 1 1 21,13 L20.5,13 A1 1 0 1 1 20.5,11 Z M3.5,11 A1 1 0 1 1 3.5,13 L3,13 A1 1 0 1 1 3,11 Z M19.778,4.222 A1 1 0 0 1 19.862,5.542 L19.778,5.636 L17.658,7.757 A1 1 0 0 1 16.16,6.437 L16.243,6.343 L18.364,4.222 A1 1 0 0 1 19.778,4.222 M5.542,4.138 L5.636,4.222 L7.757,6.342 A1 1 0 0 1 6.437,7.84 L6.343,7.757 L4.222,5.636 A1 1 0 0 1 5.44,4.069 Z M12,2 A1 1 0 0 1 12.993,2.883 L13,3 L13,3.5 A1 1 0 0 1 11.007,3.617 L11,3.5 L11,3 A1 1 0 0 1 12,2"/>
</svg>

