<svg xmlns="http://www.w3.org/2000/svg" width="24" height="24">
  <defs/>
  <path  d="M14,6.24 C14.335,6.24 14.588,6.381 14.777,6.582 C15.082,6.906 15.211,7.383 15.401,7.778 A11.71 11.71 0 0 0 19.83,12.688 L20.264,12.945 C20.657,13.184 20.999,13.463 21,13.998 C21.001,14.73 20.364,14.984 19.83,15.311 A11.711 11.711 0 0 0 15.401,20.221 C15.211,20.617 15.081,21.094 14.777,21.418 C14.589,21.619 14.335,21.76 14,21.76 C13.665,21.76 13.411,21.619 13.223,21.418 C13.047,21.231 12.931,20.996 12.828,20.756 L12.678,20.396 A4.365 4.365 0 0 0 12.599,20.222 A11.71 11.71 0 0 0 8.17,15.312 L7.849,15.121 C7.416,14.861 6.999,14.565 7,13.998 C7.002,13.268 7.637,13.016 8.17,12.689 A11.71 11.71 0 0 0 12.599,7.779 C12.789,7.383 12.919,6.906 13.223,6.582 C13.411,6.382 13.665,6.24 14,6.24 M13.999,9.416 C12.958,11.228 11.564,12.834 9.818,14 C11.561,15.177 12.948,16.771 14,18.583 C15.053,16.769 16.45,15.195 18.18,14 C16.442,12.814 15.051,11.228 13.999,9.416 M6.747,5.826 C6.896,6.008 6.985,6.216 7.087,6.426 C7.361,6.996 7.775,7.486 8.288,7.848 L8.486,7.978 C9.342,8.503 9.374,9.388 8.606,9.942 L8.486,10.022 A3.7 3.7 0 0 0 7.086,11.574 L6.972,11.816 C6.875,12.016 6.762,12.207 6.566,12.334 C6.251,12.536 5.749,12.536 5.434,12.334 C5.169,12.164 5.044,11.846 4.914,11.574 A3.701 3.701 0 0 0 3.514,10.022 C3.336,9.912 3.166,9.809 3.019,9.655 A1.081 1.081 0 0 1 3.02,8.343 C3.17,8.187 3.33,8.091 3.515,7.978 A3.7 3.7 0 0 0 4.914,6.426 C5.018,6.21 5.101,6.012 5.254,5.826 A1.071 1.071 0 0 1 6.747,5.826 M6,8.42 A4.789 4.789 0 0 1 5.624,8.84 L5.457,9 L5.624,9.16 C5.756,9.293 5.88,9.434 6,9.578 C6.119,9.432 6.244,9.293 6.377,9.159 L6.54,9 L6.376,8.84 A4.386 4.386 0 0 1 6,8.422 Z M10,2 A1 1 0 0 1 11,3 A1 1 0 1 1 11,5 A1 1 0 1 1 9,5 A1 1 0 1 1 9,3 A1 1 0 0 1 10,2"/>
</svg>

