<svg xmlns="http://www.w3.org/2000/svg" width="24" height="24">
  <defs/>
  <path  d="M14.473,2.73 C14.526,2.61 14.645,2.533 14.776,2.533 C14.906,2.533 15.025,2.61 15.078,2.73 L15.228,3.066 L15.376,3.38 L15.571,3.77 L15.797,4.19 L15.909,4.386 C16.905,6.105 18.228,7.613 19.804,8.823 L20.231,9.14 C20.676,9.457 21.138,9.75 21.614,10.018 C21.714,10.074 21.776,10.18 21.776,10.295 C21.776,10.409 21.714,10.515 21.614,10.571 C21.244,10.779 20.883,11.003 20.532,11.241 L20.172,11.492 C18.435,12.745 16.983,14.349 15.909,16.202 L15.778,16.434 C15.636,16.688 15.502,16.947 15.376,17.209 L15.229,17.523 L15.079,17.859 C15.026,17.979 14.907,18.057 14.776,18.057 C14.645,18.057 14.526,17.979 14.473,17.859 L14.323,17.523 L14.175,17.209 L13.979,16.819 L13.754,16.399 L13.641,16.203 C12.645,14.484 11.322,12.977 9.747,11.766 L9.319,11.45 C8.875,11.132 8.413,10.838 7.937,10.57 C7.837,10.514 7.776,10.408 7.776,10.294 C7.776,10.18 7.837,10.074 7.937,10.018 C8.307,9.81 8.668,9.587 9.019,9.349 L9.379,9.097 C11.115,7.844 12.568,6.239 13.641,4.387 L13.773,4.155 C13.914,3.901 14.048,3.643 14.175,3.38 L14.322,3.066 Z M5.827,13.004 C5.858,12.936 5.925,12.893 6,12.893 C6.075,12.893 6.142,12.936 6.173,13.004 L6.343,13.375 C7.07,14.88 8.216,16.143 9.643,17.013 L9.908,17.168 C9.965,17.2 10.001,17.26 10.001,17.326 C10.001,17.392 9.965,17.452 9.908,17.484 L9.643,17.639 C8.216,18.509 7.07,19.772 6.343,21.277 L6.173,21.649 C6.142,21.717 6.075,21.76 6,21.76 C5.925,21.76 5.858,21.717 5.827,21.649 L5.657,21.277 C4.93,19.772 3.784,18.509 2.357,17.639 L2.092,17.484 C2.035,17.452 1.999,17.392 1.999,17.326 C1.999,17.26 2.035,17.2 2.092,17.168 L2.357,17.013 C3.903,16.07 5.116,14.668 5.827,13.003 Z M14.775,6.345 C13.769,7.846 12.533,9.179 11.112,10.295 C12.533,11.411 13.769,12.744 14.775,14.245 C15.781,12.744 17.017,11.411 18.438,10.295 C17.017,9.179 15.781,7.846 14.775,6.345 Z M5.997,16.49 L5.822,16.696 C5.697,16.836 5.569,16.973 5.437,17.106 L5.237,17.304 L5.21,17.328 L5.437,17.551 L5.632,17.754 L5.822,17.962 L5.997,18.167 L6.172,17.962 C6.297,17.822 6.425,17.684 6.557,17.551 L6.784,17.328 L6.757,17.304 C6.622,17.174 6.49,17.041 6.362,16.904 L6.172,16.696 Z"/>
</svg>

