<svg xmlns="http://www.w3.org/2000/svg" width="24" height="24">
  <defs/>
  <path  d="M6.173,13.004 L6.343,13.375 A8.694 8.694 0 0 0 9.643,17.013 L9.908,17.168 A0.181 0.181 0 0 1 9.908,17.484 A8.693 8.693 0 0 0 6.343,21.277 L6.173,21.649 A0.19 0.19 0 0 1 5.827,21.649 L5.657,21.277 A8.693 8.693 0 0 0 2.092,17.484 A0.181 0.181 0 0 1 2.092,17.168 L2.357,17.013 A8.694 8.694 0 0 0 5.657,13.375 L5.827,13.004 A0.19 0.19 0 0 1 6.173,13.004 M15.078,2.73 A15.213 15.213 0 0 0 21.614,10.018 A0.317 0.317 0 0 1 21.614,10.571 A15.212 15.212 0 0 0 15.078,17.86 A0.331 0.331 0 0 1 14.473,17.86 A15.212 15.212 0 0 0 7.937,10.571 A0.317 0.317 0 0 1 7.937,10.018 A15.213 15.213 0 0 0 14.473,2.73 A0.331 0.331 0 0 1 15.078,2.73"/>
</svg>

