<svg xmlns="http://www.w3.org/2000/svg" width="24" height="24">
  <defs/>
  <path  d="M20.778,3.222 C21.755,4.198 21.755,5.782 20.778,6.758 L18.657,8.878 C17.954,9.581 16.902,9.801 15.976,9.438 L14.286,11.128 L14.842,11.96 C16.163,13.943 15.902,16.583 14.217,18.268 L10.879,21.607 C10.098,22.388 8.831,22.388 8.05,21.607 L2.393,15.95 C1.612,15.169 1.612,13.902 2.393,13.121 L5.732,9.783 C7.417,8.098 10.058,7.837 12.041,9.159 L12.873,9.713 L14.561,8.025 C14.198,7.099 14.417,6.046 15.121,5.343 L17.243,3.222 C18.219,2.246 19.802,2.246 20.778,3.222 Z M11.939,14.182 C11.583,13.826 11.017,13.79 10.619,14.099 L10.525,14.182 L8.404,16.303 C8.028,16.676 8.007,17.277 8.357,17.675 C8.708,18.072 9.307,18.127 9.724,17.801 L9.818,17.718 L11.939,15.596 C12.329,15.206 12.329,14.573 11.939,14.182 Z M9.818,12.061 C9.462,11.705 8.896,11.669 8.498,11.978 L8.404,12.061 L6.283,14.182 L6.199,14.276 C5.889,14.674 5.924,15.241 6.281,15.598 C6.638,15.955 7.205,15.99 7.603,15.679 L7.697,15.596 L9.818,13.475 L9.901,13.381 C10.21,12.983 10.174,12.417 9.818,12.061 Z"/>
</svg>

