<svg xmlns="http://www.w3.org/2000/svg" width="24" height="24">
  <defs/>
  <path  d="M17.243,3.222 C18.221,2.253 19.798,2.257 20.771,3.23 C21.744,4.204 21.747,5.781 20.778,6.758 L18.657,8.878 C17.954,9.581 16.902,9.801 15.976,9.438 L14.286,11.128 L14.842,11.96 C16.164,13.943 15.902,16.584 14.217,18.269 L10.879,21.607 C10.098,22.388 8.831,22.388 8.05,21.607 L2.393,15.95 C1.612,15.169 1.612,13.903 2.393,13.122 L5.732,9.783 C7.417,8.098 10.058,7.837 12.041,9.159 L12.873,9.713 L14.561,8.025 C14.198,7.099 14.417,6.046 15.121,5.343 Z M10.931,10.823 C9.741,10.03 8.157,10.187 7.146,11.198 L3.808,14.536 L9.464,20.192 L12.803,16.854 C13.814,15.843 13.97,14.259 13.177,13.069 L12.39,11.888 C12.317,11.778 12.223,11.683 12.113,11.61 Z M9.818,12.06 C10.208,12.45 10.208,13.083 9.818,13.474 L7.697,15.595 C7.307,15.986 6.673,15.986 6.282,15.595 C5.892,15.205 5.892,14.572 6.282,14.181 L8.404,12.06 C8.794,11.67 9.427,11.67 9.818,12.06 Z M11.939,14.181 C12.329,14.571 12.329,15.205 11.939,15.595 L9.818,17.717 C9.427,18.107 8.794,18.107 8.403,17.716 C8.013,17.326 8.013,16.692 8.404,16.302 L10.525,14.182 C10.915,13.792 11.549,13.792 11.939,14.182 Z M19.364,4.636 C19.169,4.441 18.852,4.441 18.657,4.636 L16.535,6.758 C16.34,6.954 16.34,7.27 16.535,7.465 C16.731,7.661 17.048,7.661 17.243,7.465 L19.364,5.343 C19.559,5.148 19.559,4.831 19.364,4.636 Z"/>
</svg>

