<svg xmlns="http://www.w3.org/2000/svg" width="24" height="24">
  <defs/>
  <path  d="M17,2 C18.657,2 20,3.343 20,5 L20,19 C20,20.657 18.657,22 17,22 L7,22 C5.343,22 4,20.657 4,19 L4,5 C4,3.343 5.343,2 7,2 Z M17,4 L7,4 C6.448,4 6,4.448 6,5 L6,19 C6,19.552 6.448,20 7,20 L17,20 C17.552,20 18,19.552 18,19 L18,5 C18,4.448 17.552,4 17,4 Z M12,10 C14.209,10 16,11.791 16,14 C16,16.209 14.209,18 12,18 C9.791,18 8,16.209 8,14 C8,11.791 9.791,10 12,10 Z M12,12 C10.895,12 10,12.895 10,14 C10,15.105 10.895,16 12,16 C13.105,16 14,15.105 14,14 C14,12.895 13.105,12 12,12 Z M12,6 C12.828,6 13.5,6.672 13.5,7.5 C13.5,8.328 12.828,9 12,9 C11.172,9 10.5,8.328 10.5,7.5 C10.5,6.672 11.172,6 12,6 Z"/>
</svg>

