<svg xmlns="http://www.w3.org/2000/svg" width="24" height="24">
  <defs/>
  <path  d="M17,2 C18.657,2 20,3.343 20,5 L20,19 C20,20.657 18.657,22 17,22 L7,22 C5.343,22 4,20.657 4,19 L4,5 C4,3.343 5.343,2 7,2 Z M12,11 C9.791,11 8,12.791 8,15 C8,17.209 9.791,19 12,19 C14.209,19 16,17.209 16,15 C16,12.791 14.209,11 12,11 Z M12,13 C13.105,13 14,13.895 14,15 C14,16.105 13.105,17 12,17 C10.895,17 10,16.105 10,15 C10,13.895 10.895,13 12,13 Z M12,5 C11.172,5 10.5,5.672 10.5,6.5 C10.5,7.328 11.172,8 12,8 C12.828,8 13.5,7.328 13.5,6.5 C13.5,5.672 12.828,5 12,5 Z"/>
</svg>

