<svg xmlns="http://www.w3.org/2000/svg" width="24" height="24">
  <defs/>
  <path  d="M12,9 C13.753,9 15.341,9.62 16.548,10.499 C17.401,11.12 18.117,11.911 18.551,12.765 L18.661,13 L21,13 C21.324,13 21.627,13.157 21.814,13.421 C22.002,13.684 22.05,14.022 21.944,14.328 L21.894,14.448 L18.894,20.448 C18.744,20.747 18.455,20.951 18.124,20.992 L18,21 L6,21 C5.666,21 5.354,20.833 5.168,20.555 L5.106,20.447 L2.106,14.447 C1.961,14.158 1.965,13.816 2.117,13.53 C2.269,13.244 2.55,13.05 2.871,13.008 L3,13 L5.338,13 C5.754,12.056 6.521,11.177 7.452,10.499 C8.659,9.62 10.247,9 12,9 C10.343,9 9,7.657 9,6 C9,4.343 10.343,3 12,3 C13.657,3 15,4.343 15,6 C15,7.657 13.657,9 12,9 Z M19.382,15 L4.618,15 L6.618,19 L17.382,19 Z M12,11 C10.787,11.009 9.608,11.4 8.629,12.116 C8.245,12.396 7.928,12.698 7.679,13 L16.321,13 C16.043,12.667 15.723,12.37 15.371,12.116 C14.392,11.4 13.213,11.009 12,11 Z M12,5 C11.448,5 11,5.448 11,6 C11,6.552 11.448,7 12,7 C12.552,7 13,6.552 13,6 C13,5.448 12.552,5 12,5 Z"/>
</svg>

