<svg xmlns="http://www.w3.org/2000/svg" width="24" height="24">
  <defs/>
  <path  d="M7.705,4.422 L13.739,12.03 C15.046,11.459 17.039,11.382 18.718,13.06 C19.733,14.076 20.365,15.318 20.581,16.5 C20.791,17.65 20.63,18.926 19.778,19.778 C18.927,20.63 17.65,20.791 16.501,20.581 C15.319,20.365 14.076,19.733 13.061,18.717 C11.381,17.038 11.459,15.046 12.03,13.739 L4.422,7.705 C3.717,7.146 3.395,6.233 3.594,5.356 C3.793,4.478 4.478,3.793 5.356,3.594 C6.233,3.395 7.146,3.717 7.705,4.422 Z M17.303,14.475 C16.103,13.275 14.731,13.653 14.212,14.044 L14.12,14.119 L14.091,14.154 C13.686,14.62 13.227,16.054 14.475,17.304 C15.216,18.044 16.095,18.474 16.861,18.614 C17.658,18.759 18.155,18.573 18.364,18.364 C18.574,18.154 18.76,17.658 18.614,16.86 C18.474,16.095 18.044,15.216 17.304,14.475 Z M5.636,5.635 C5.568,5.703 5.532,5.797 5.538,5.893 C5.543,5.989 5.589,6.078 5.665,6.138 L7.952,7.952 L6.138,5.665 C6.078,5.59 5.99,5.543 5.894,5.538 C5.798,5.532 5.704,5.567 5.636,5.635 Z"/>
</svg>

