<svg xmlns="http://www.w3.org/2000/svg" width="24" height="24">
  <defs/>
  <path  d="M12.03,13.739 L4.422,7.705 C3.717,7.146 3.395,6.233 3.594,5.356 C3.793,4.478 4.478,3.793 5.356,3.594 C6.233,3.395 7.146,3.717 7.705,4.422 L13.739,12.03 C15.046,11.459 17.039,11.382 18.718,13.06 C19.733,14.076 20.365,15.318 20.581,16.5 C20.791,17.65 20.63,18.926 19.778,19.778 C18.927,20.63 17.65,20.791 16.501,20.581 C15.319,20.365 14.076,19.733 13.061,18.717 C11.381,17.038 11.459,15.046 12.03,13.739 Z"/>
</svg>

