<svg xmlns="http://www.w3.org/2000/svg" width="24" height="24">
  <defs/>
  <path  d="M12,2 C17.523,2 22,6.477 22,12 C22,17.523 17.523,22 12,22 C6.477,22 2,17.523 2,12 C2,6.477 6.477,2 12,2 Z M7.269,10.44 C10.509,9.536 13.774,9.991 16.603,11.214 C17.109,11.428 17.692,11.194 17.91,10.689 C18.128,10.185 17.898,9.6 17.396,9.378 C14.226,8.008 10.49,7.465 6.731,8.514 C6.208,8.669 5.906,9.216 6.053,9.742 C6.2,10.267 6.741,10.578 7.269,10.44 Z M7.745,13.306 C10.533,12.529 13.741,13.015 15.525,14.11 C15.996,14.399 16.612,14.251 16.9,13.781 C17.189,13.31 17.042,12.694 16.571,12.405 C14.259,10.985 10.467,10.471 7.208,11.38 C6.688,11.538 6.39,12.082 6.536,12.605 C6.681,13.129 7.218,13.44 7.745,13.306 Z M8.176,16.06 C9.306,15.8 10.563,15.797 11.668,15.969 C12.808,16.145 13.63,16.483 13.986,16.775 C14.414,17.125 15.044,17.061 15.394,16.633 C15.744,16.205 15.68,15.575 15.252,15.225 C14.489,14.602 13.252,14.19 11.975,13.992 C10.663,13.789 9.146,13.785 7.728,14.112 C7.369,14.182 7.077,14.442 6.966,14.79 C6.855,15.138 6.943,15.519 7.195,15.783 C7.447,16.048 7.823,16.154 8.176,16.06 Z"/>
</svg>

