<svg xmlns="http://www.w3.org/2000/svg" width="24" height="24">
  <defs/>
  <path  d="M12,2 C17.523,2 22,6.477 22,12 C22,17.523 17.523,22 12,22 C6.477,22 2,17.523 2,12 C2,6.477 6.477,2 12,2 M12,4 A8 8 0 1 0 12,20 A8 8 0 0 0 12,4 M7.728,14.111 C9.146,13.785 10.663,13.789 11.975,13.992 C13.251,14.19 14.489,14.602 15.252,15.226 A1 1 0 0 1 14.088,16.848 L13.986,16.775 C13.63,16.483 12.808,16.145 11.668,15.969 C10.563,15.797 9.306,15.801 8.176,16.06 A1 1 0 1 1 7.728,14.111 M7.208,11.38 C10.467,10.471 14.258,10.985 16.571,12.405 A1 1 0 0 1 15.524,14.11 C13.741,13.015 10.534,12.529 7.744,13.306 A1 1 0 1 1 7.208,11.38 M6.73,8.514 C10.49,7.464 14.226,8.009 17.396,9.378 A1 1 0 0 1 16.603,11.214 C13.773,9.991 10.509,9.536 7.268,10.44 A1 1 0 1 1 6.73,8.514"/>
</svg>

