<svg xmlns="http://www.w3.org/2000/svg" width="24" height="24">
  <defs/>
  <path  d="M18,3 A3 3 0 0 1 20.995,5.824 L21,6 L21,18 A3 3 0 0 1 18.176,20.995 L18,21 L6,21 A3 3 0 0 1 3.005,18.176 L3,18 L3,6 A3 3 0 0 1 5.824,3.005 L6,3 L18,3 Z M18,5 L6,5 A1 1 0 0 0 5.007,5.883 L5,6 L5,18 A1 1 0 0 0 5.883,18.993 L6,19 L18,19 A1 1 0 0 0 18.993,18.117 L19,18 L19,6 A1 1 0 0 0 18.117,5.007 L18,5 Z M12.707,9.465 L15.536,12.293 A1 1 0 1 1 14.121,13.707 L12,11.586 L9.879,13.707 A1 1 0 0 1 8.464,12.293 L11.293,9.465 A1 1 0 0 1 12.707,9.465 Z"/>
</svg>

