<svg xmlns="http://www.w3.org/2000/svg" width="24" height="24">
  <defs/>
  <path  d="M6,3 L18,3 C19.657,3 21,4.343 21,6 L21,18 C21,19.657 19.657,21 18,21 L6,21 C4.343,21 3,19.657 3,18 L3,6 C3,4.343 4.343,3 6,3 Z M5,6 L5,18 C5,18.552 5.448,19 6,19 L18,19 C18.552,19 19,18.552 19,18 L19,6 C19,5.448 18.552,5 18,5 L6,5 C5.448,5 5,5.448 5,6 Z M13.707,9.879 L11.586,12 L13.707,14.121 C14.098,14.511 14.098,15.145 13.708,15.535 C13.317,15.926 12.684,15.926 12.293,15.536 L9.465,12.707 C9.075,12.316 9.075,11.684 9.465,11.293 L12.293,8.464 C12.684,8.074 13.317,8.074 13.708,8.465 C14.098,8.855 14.098,9.489 13.707,9.879 Z"/>
</svg>

