<svg xmlns="http://www.w3.org/2000/svg" width="24" height="24">
  <defs/>
  <path  d="M10.67,3.297 C11.312,2.194 13,2.65 13,3.926 L13,18.337 C13,18.832 12.707,19.281 12.254,19.481 L6.918,21.832 C6.511,22.011 6.039,21.96 5.68,21.699 C5.32,21.437 5.126,21.004 5.171,20.562 L5.73,15.037 L2.03,10.897 C1.733,10.565 1.635,10.101 1.773,9.678 C1.91,9.255 2.262,8.936 2.697,8.842 L8.125,7.666 L10.67,3.296 Z M11,6.704 L9.687,8.959 C9.51,9.262 9.214,9.477 8.871,9.551 L4.379,10.524 L7.442,13.951 C7.675,14.213 7.788,14.561 7.753,14.91 L7.29,19.483 L11,17.848 Z"/>
</svg>

