<svg xmlns="http://www.w3.org/2000/svg" width="24" height="24">
  <defs/>
  <path  d="M12,1 C12.356,1 12.685,1.189 12.864,1.497 L14.905,5 L18.869,5.859 C19.217,5.934 19.498,6.189 19.608,6.527 C19.718,6.865 19.64,7.237 19.403,7.502 L16.701,10.526 L17.109,14.561 C17.145,14.915 16.99,15.262 16.702,15.471 C16.414,15.68 16.037,15.72 15.711,15.577 L14.669,15.118 L15.974,20.774 C16.043,21.071 15.973,21.383 15.783,21.622 C15.593,21.861 15.305,22 15,22 L9,22 C8.695,22 8.407,21.861 8.218,21.622 C8.028,21.384 7.957,21.072 8.026,20.775 L9.33,15.12 L8.288,15.58 C7.962,15.724 7.584,15.683 7.297,15.474 C7.009,15.264 6.854,14.917 6.89,14.563 L7.298,10.528 L4.596,7.504 C4.359,7.239 4.28,6.867 4.39,6.528 C4.5,6.19 4.782,5.935 5.13,5.86 L9.095,5 L11.135,1.496 C11.314,1.188 11.644,1 12,1 Z M12,3.987 L10.6,6.389 C10.459,6.631 10.222,6.803 9.948,6.863 L7.231,7.451 L9.083,9.523 C9.271,9.732 9.361,10.011 9.333,10.291 L9.053,13.056 L11.596,11.935 C11.853,11.822 12.145,11.822 12.402,11.935 L14.946,13.055 L14.666,10.29 C14.638,10.011 14.728,9.732 14.915,9.523 L16.767,7.451 L14.05,6.863 C13.776,6.803 13.539,6.631 13.398,6.389 Z M11.616,14.112 L10.257,20 L13.743,20 L12.384,14.112 L12,13.942 Z"/>
</svg>

