<svg xmlns="http://www.w3.org/2000/svg" width="24" height="24">
  <defs/>
  <path  d="M12.633,2.108 C13.423,2.048 14.083,2.497 14.416,3.098 L15.636,5.308 C17.378,5.196 18.718,5.84 19.684,6.706 C20.743,7.656 21.336,8.85 21.614,9.53 C21.914,10.263 21.692,11.03 21.224,11.532 L19.498,13.376 C20.144,14.998 19.945,16.471 19.42,17.658 C18.844,18.958 17.891,19.891 17.33,20.366 C16.726,20.878 15.928,20.904 15.306,20.613 L13.019,19.542 C11.676,20.657 10.213,20.923 8.923,20.79 C7.508,20.645 6.326,20.027 5.701,19.64 C5.027,19.223 4.756,18.472 4.841,17.791 L5.153,15.285 C3.677,14.352 2.972,13.043 2.699,11.775 C2.401,10.385 2.623,9.07 2.798,8.355 C2.986,7.586 3.616,7.095 4.29,6.966 L6.77,6.488 C7.201,4.797 8.228,3.721 9.35,3.071 C10.58,2.357 11.9,2.162 12.633,2.108 Z M12.69,4.109 C12.09,4.163 11.168,4.329 10.354,4.8 C9.54,5.273 8.811,6.058 8.611,7.482 C8.552,7.905 8.23,8.244 7.81,8.325 L4.72,8.92 C4.585,9.507 4.457,10.435 4.655,11.355 C4.852,12.275 5.375,13.211 6.667,13.841 C7.051,14.028 7.274,14.44 7.221,14.864 L6.831,17.987 C7.348,18.297 8.191,18.704 9.127,18.801 C10.064,18.897 11.115,18.691 12.114,17.656 C12.411,17.349 12.87,17.264 13.257,17.445 L16.107,18.78 C16.562,18.384 17.21,17.709 17.591,16.848 C17.972,15.988 18.1,14.923 17.425,13.654 C17.224,13.276 17.286,12.813 17.578,12.501 L19.728,10.203 C19.492,9.649 19.05,8.823 18.348,8.195 C17.648,7.567 16.676,7.117 15.26,7.366 C14.839,7.441 14.417,7.239 14.21,6.865 Z"/>
</svg>

