<svg xmlns="http://www.w3.org/2000/svg" width="24" height="24">
  <defs/>
  <path  d="M12.864,1.497 L14.905,5 L18.87,5.861 C19.218,5.936 19.499,6.191 19.609,6.529 C19.719,6.867 19.641,7.239 19.404,7.504 L16.702,10.528 L17.11,14.563 C17.146,14.917 16.991,15.264 16.703,15.474 C16.416,15.683 16.038,15.724 15.712,15.58 L14.67,15.12 L15.974,20.775 C16.043,21.072 15.972,21.384 15.782,21.622 C15.593,21.861 15.305,22 15,22 L9,22 C8.695,22 8.407,21.861 8.217,21.623 C8.027,21.384 7.956,21.072 8.025,20.775 L9.33,15.119 L8.288,15.578 C7.962,15.721 7.585,15.681 7.297,15.472 C7.009,15.263 6.854,14.916 6.89,14.562 L7.298,10.527 L4.596,7.503 C4.359,7.238 4.281,6.866 4.391,6.528 C4.501,6.19 4.782,5.935 5.13,5.86 L9.095,5 L11.136,1.497 C11.315,1.19 11.644,1 12,1 C12.356,1 12.685,1.19 12.864,1.497 Z M11.616,14.112 L10.257,20 L13.743,20 L12.384,14.112 L12,13.942 Z"/>
</svg>

