<svg xmlns="http://www.w3.org/2000/svg" width="24" height="24">
  <defs/>
  <path  d="M12.633,2.108 C13.423,2.048 14.083,2.497 14.416,3.098 L15.636,5.308 C17.378,5.196 18.718,5.84 19.684,6.706 C20.743,7.656 21.336,8.85 21.614,9.53 C21.914,10.263 21.692,11.03 21.224,11.532 L19.498,13.376 C20.144,14.998 19.945,16.471 19.42,17.658 C18.844,18.958 17.891,19.891 17.33,20.366 C16.726,20.878 15.928,20.904 15.306,20.613 L13.019,19.542 C11.676,20.657 10.213,20.923 8.923,20.79 C7.508,20.645 6.326,20.027 5.701,19.64 C5.027,19.223 4.756,18.472 4.841,17.791 L5.153,15.285 C3.677,14.352 2.972,13.043 2.699,11.775 C2.401,10.385 2.623,9.07 2.798,8.355 C2.986,7.586 3.616,7.095 4.29,6.966 L6.77,6.488 C7.201,4.797 8.228,3.721 9.35,3.071 C10.58,2.357 11.9,2.162 12.633,2.108"/>
</svg>

