<svg xmlns="http://www.w3.org/2000/svg" width="24" height="24">
  <defs/>
  <path  d="M10.92,2.868 C11.144,2.484 11.555,2.247 12,2.247 C12.445,2.247 12.856,2.484 13.08,2.868 L15.875,7.666 L21.303,8.842 C21.737,8.936 22.089,9.255 22.226,9.677 C22.364,10.1 22.266,10.564 21.97,10.896 L18.27,15.037 L18.83,20.562 C18.875,21.005 18.681,21.438 18.321,21.7 C17.961,21.961 17.489,22.012 17.082,21.832 L12,19.592 L6.918,21.832 C6.511,22.012 6.039,21.961 5.679,21.7 C5.319,21.438 5.125,21.005 5.17,20.562 L5.73,15.037 L2.03,10.897 C1.733,10.565 1.635,10.101 1.773,9.678 C1.91,9.255 2.262,8.936 2.697,8.842 L8.125,7.666 Z M12,4.987 L9.687,8.959 C9.51,9.262 9.214,9.477 8.871,9.551 L4.379,10.524 L7.441,13.951 C7.675,14.213 7.788,14.561 7.753,14.91 L7.29,19.483 L11.496,17.629 C11.817,17.488 12.183,17.488 12.504,17.629 L16.71,19.483 L16.247,14.91 C16.211,14.561 16.324,14.213 16.558,13.951 L19.621,10.524 L15.129,9.551 C14.786,9.477 14.49,9.262 14.313,8.959 Z"/>
</svg>

