<svg xmlns="http://www.w3.org/2000/svg" width="24" height="24">
  <defs/>
  <path  d="M13.08,2.868 L15.875,7.666 L21.303,8.842 C21.738,8.936 22.09,9.255 22.227,9.678 C22.365,10.101 22.267,10.565 21.97,10.897 L18.27,15.037 L18.83,20.562 C18.875,21.005 18.681,21.438 18.321,21.7 C17.961,21.961 17.489,22.012 17.082,21.832 L12,19.592 L6.918,21.832 C6.511,22.012 6.039,21.961 5.679,21.7 C5.319,21.438 5.125,21.005 5.17,20.562 L5.73,15.037 L2.03,10.896 C1.734,10.564 1.636,10.1 1.774,9.677 C1.911,9.255 2.263,8.936 2.697,8.842 L8.126,7.665 L10.92,2.868 C11.144,2.484 11.555,2.247 12,2.247 C12.445,2.247 12.856,2.484 13.08,2.868 Z M12,17.523 C12.172,17.523 12.344,17.558 12.504,17.629 L16.71,19.483 L16.247,14.91 C16.212,14.561 16.325,14.213 16.559,13.951 L19.621,10.524 L15.129,9.551 C14.786,9.477 14.49,9.262 14.313,8.959 L12,4.987 Z"/>
</svg>

