<svg xmlns="http://www.w3.org/2000/svg" width="24" height="24">
  <defs/>
  <path  d="M12.5,3 C12.531,3 12.581,3.087 12.638,3.22 L12.727,3.448 L12.772,3.578 L12.858,3.853 L12.896,3.988 L12.959,4.238 C12.985,4.352 13,4.445 13,4.5 L12.997,4.552 C13.274,4.611 13.527,4.718 13.754,4.862 A0.5 0.5 0 0 1 13.817,4.679 A1.96 1.96 0 0 1 14.068,4.383 L14.264,4.19 L14.475,3.995 L14.679,3.823 C14.839,3.693 14.966,3.61 15,3.63 C15.04,3.653 15.02,3.868 14.972,4.132 L14.916,4.407 L14.849,4.684 L14.779,4.932 A1.41 1.41 0 0 1 14.683,5.179 A0.498 0.498 0 0 1 14.364,5.416 A2.974 2.974 0 0 1 14.782,8.377 A0.996 0.996 0 0 1 14.477,8.784 L14.374,8.855 L14.392,8.859 A2 2 0 0 1 15.994,10.662 L16,10.82 L16,12.586 L16.293,12.293 A1 1 0 0 1 17.79,13.613 L17.707,13.707 L16,15.414 L16,18 A1 1 0 0 1 16.993,18.883 L17,19 L17,21 A1 1 0 0 1 17.117,22.993 L17,23 L8,23 A1 1 0 0 1 7.883,21.007 L8,21 L8,19 A1 1 0 0 1 8.883,18.007 L9,18 L9,14.414 L7.293,12.707 A1 1 0 0 1 7.009,12.131 L7,12 L7,5.866 A1 1 0 0 1 7.383,4.006 L7.5,4 L8.5,4 A1 1 0 0 1 9.424,5.384 L9.367,5.498 L10.031,6.826 A2.96 2.96 0 0 1 10.636,5.416 A0.498 0.498 0 0 1 10.317,5.179 A1.41 1.41 0 0 1 10.221,4.932 L10.151,4.684 L10.084,4.407 L10.028,4.132 C9.98,3.868 9.959,3.653 10,3.63 C10.034,3.61 10.161,3.694 10.321,3.823 L10.525,3.995 L10.736,4.19 L10.932,4.383 C11.052,4.507 11.146,4.615 11.183,4.679 A0.5 0.5 0 0 1 11.246,4.863 C11.472,4.718 11.726,4.611 12.003,4.552 L12,4.5 C12,4.445 12.015,4.352 12.04,4.238 L12.104,3.988 L12.184,3.715 A8.31 8.31 0 0 1 12.274,3.448 L12.362,3.22 C12.419,3.087 12.469,3 12.5,3 M15,20 L10,20 L10,21 L15,21 Z M14,11.914 L11,14.914 L11,18 L14,18 Z M9,9.236 L9,11.586 L10.25,12.836 L12.555,10.531 L9.804,9.981 C9.386,9.897 9.176,9.588 9,9.236 M12.5,6.5 C12.417,6.5 12.307,6.537 12.199,6.663 A0.904 0.904 0 0 0 12,7.25 C12,7.343 12.012,7.43 12.033,7.51 L12.07,7.623 A0.997 0.997 0 0 1 12.064,8.393 L13.048,8.59 A1 1 0 0 1 12.888,7.749 L12.93,7.623 A0.99 0.99 0 0 0 13,7.25 A0.904 0.904 0 0 0 12.801,6.663 C12.693,6.537 12.583,6.5 12.5,6.5 M8,0.5 C8.156,0.5 9,1.948 9,2.5 A1 1 0 0 1 7,2.5 C7,1.948 7.844,0.5 8,0.5"/>
</svg>

