<svg xmlns="http://www.w3.org/2000/svg" width="24" height="24">
  <defs/>
  <path  d="M13,4.5 C13,4.517 13,4.535 12.997,4.552 C13.274,4.611 13.527,4.718 13.754,4.862 C13.763,4.797 13.784,4.735 13.817,4.679 C13.955,4.439 14.899,3.571 15,3.63 C15.101,3.689 14.821,4.94 14.683,5.179 C14.614,5.299 14.499,5.385 14.364,5.416 C15.025,6.256 15.185,7.387 14.782,8.377 C14.701,8.576 14.558,8.744 14.374,8.855 L14.392,8.859 C15.327,9.046 15.999,9.866 16,10.819 L16,12.586 L16.293,12.293 C16.685,11.914 17.309,11.919 17.695,12.305 C18.081,12.691 18.086,13.315 17.707,13.707 L16,15.414 L16,18 C16.552,18 17,18.448 17,19 L17,21 C17.552,21 18,21.448 18,22 C18,22.552 17.552,23 17,23 L8,23 C7.448,23 7,22.552 7,22 C7,21.448 7.448,21 8,21 L8,19 C8,18.448 8.448,18 9,18 L9,14.414 L7.293,12.707 C7.105,12.52 7,12.265 7,12 L7,5.866 C6.608,5.64 6.417,5.178 6.534,4.741 C6.651,4.304 7.047,4 7.5,4 L8.5,4 C8.857,4 9.187,4.19 9.365,4.499 C9.544,4.808 9.545,5.189 9.367,5.498 L10.031,6.826 C10.105,6.311 10.314,5.825 10.636,5.416 C10.501,5.385 10.386,5.299 10.317,5.179 C10.179,4.939 9.898,3.689 10,3.63 C10.101,3.571 11.045,4.44 11.183,4.679 C11.216,4.736 11.237,4.798 11.246,4.863 C11.472,4.718 11.726,4.611 12.003,4.552 C12.001,4.535 12,4.517 12,4.5 C12,4.224 12.383,3 12.5,3 C12.617,3 13,4.224 13,4.5 Z M9,2.5 C9,3.052 8.552,3.5 8,3.5 C7.448,3.5 7,3.052 7,2.5 C7,1.948 7.844,0.5 8,0.5 C8.156,0.5 9,1.948 9,2.5 Z"/>
</svg>

