<svg xmlns="http://www.w3.org/2000/svg" width="24" height="24">
  <defs/>
  <path  d="M12,2 C17.523,2 22,6.477 22,12 C22,17.523 17.523,22 12,22 C6.477,22 2,17.523 2,12 C2,6.477 6.477,2 12,2 Z M12,4 C8.155,4.001 4.854,6.735 4.138,10.513 L4.095,10.761 L6.305,10.319 C6.887,10.203 7.44,9.896 8.058,9.479 L8.535,9.147 C9.332,8.581 10.513,8 12,8 C13.388,8 14.509,8.506 15.3,9.034 L15.942,9.479 C16.482,9.844 16.974,10.124 17.478,10.267 L17.695,10.319 L19.905,10.761 C19.294,6.868 15.94,4 12,4 Z M4.205,13.81 C4.92,16.879 7.367,19.243 10.459,19.852 C10.266,17.227 9.403,15.652 8.313,14.781 C7.269,13.946 5.853,13.623 4.205,13.809 Z M15.687,14.78 C14.597,15.653 13.734,17.227 13.541,19.852 C16.633,19.243 19.081,16.878 19.795,13.809 C18.147,13.623 16.731,13.946 15.687,14.781 Z"/>
</svg>

