<svg xmlns="http://www.w3.org/2000/svg" width="24" height="24">
  <defs/>
  <path  d="M12,2 C17.523,2 22,6.477 22,12 C22,17.523 17.523,22 12,22 C6.477,22 2,17.523 2,12 C2,6.477 6.477,2 12,2 Z M12,4 C8.155,4.001 4.854,6.735 4.138,10.513 L4.095,10.761 L6.305,10.319 C6.887,10.203 7.44,9.896 8.058,9.479 L8.535,9.147 C9.332,8.581 10.513,8 12,8 C13.388,8 14.509,8.506 15.3,9.034 L15.942,9.479 C16.482,9.844 16.974,10.124 17.478,10.267 L17.695,10.319 L19.905,10.761 C19.294,6.868 15.94,4 12,4 Z M12,10 C11.05,10 10.268,10.37 9.694,10.778 L9.196,11.125 C8.672,11.48 8.07,11.845 7.395,12.085 C8.183,12.321 8.919,12.706 9.562,13.219 C10.686,14.119 11.515,15.406 12,17.078 C12.485,15.406 13.314,14.118 14.438,13.219 C15.081,12.706 15.817,12.322 16.605,12.086 C15.93,11.845 15.328,11.48 14.804,11.125 L14.306,10.778 C13.732,10.37 12.95,10 12,10 Z M8.313,14.781 C7.269,13.946 5.853,13.623 4.205,13.809 C4.919,16.878 7.367,19.243 10.459,19.852 C10.266,17.227 9.403,15.652 8.313,14.782 Z M15.687,14.781 C14.597,15.653 13.734,17.227 13.541,19.851 C16.632,19.242 19.079,16.877 19.794,13.809 C18.147,13.623 16.731,13.946 15.687,14.781 Z"/>
</svg>

