<svg xmlns="http://www.w3.org/2000/svg" width="24" height="24">
  <defs/>
  <path  d="M8,4 L8,6 C8,6.552 7.552,7 7,7 C6.448,7 6,6.552 6,6 C5.448,6 5,6.448 5,7 L5,9 C5,11.209 6.791,13 9,13 C11.209,13 13,11.209 13,9 L13,7 C13,6.448 12.552,6 12,6 C12,6.552 11.552,7 11,7 C10.448,7 10,6.552 10,6 L10,4 C10,3.448 10.448,3 11,3 C11.552,3 12,3.448 12,4 C13.657,4 15,5.343 15,7 L15,9 C15,11.928 12.887,14.428 10,14.917 L10,15 C10,17.209 11.791,19 14,19 C16.209,19 18,17.209 18,15 L18,13.83 C16.622,13.343 15.795,11.934 16.042,10.493 C16.289,9.053 17.538,8 19,8 C20.462,8 21.711,9.053 21.958,10.493 C22.205,11.934 21.378,13.343 20,13.83 L20,15 C20,18.314 17.314,21 14,21 C10.686,21 8,18.314 8,15 L8,14.917 C5.113,14.428 3,11.928 3,9 L3,7 C3,5.343 4.343,4 6,4 C6,3.448 6.448,3 7,3 C7.552,3 8,3.448 8,4 Z M19,12 C19.552,12 20,11.552 20,11 C20,10.448 19.552,10 19,10 C18.448,10 18,10.448 18,11 C18,11.552 18.448,12 19,12 Z"/>
</svg>

