<svg xmlns="http://www.w3.org/2000/svg" width="24" height="24">
  <defs/>
  <path  d="M18,3 C19.589,3 20.902,4.238 20.995,5.824 L21,6 L21,13.172 C21,13.899 20.736,14.601 20.257,15.148 L20.121,15.293 L15.293,20.121 C14.779,20.635 14.095,20.945 13.37,20.993 L13.172,21 L6,21 C4.411,21 3.098,19.762 3.005,18.176 L3,18 L3,6 C3,4.411 4.238,3.098 5.824,3.005 L6,3 Z M18,5 L6,5 C5.448,5 5,5.448 5,6 L5,18 C5,18.552 5.448,19 6,19 L12,19 L12,15 C12,13.343 13.343,12 15,12 L19,12 L19,6 C19,5.448 18.552,5 18,5 Z M18.586,14 L15,14 C14.493,14 14.066,14.38 14.007,14.883 L14,15 L14,18.586 Z"/>
</svg>

