<svg xmlns="http://www.w3.org/2000/svg" width="24" height="24">
  <defs/>
  <path  d="M17,2 C17.507,2 17.934,2.38 17.993,2.883 L18,3 L18,7 C19.589,7 20.902,8.238 20.995,9.824 L21,10 L21,16 C21,17.589 19.762,18.902 18.176,18.995 L18,19 L18,21 C17.999,21.529 17.587,21.966 17.059,21.997 C16.53,22.028 16.069,21.642 16.007,21.117 L16,21 L16,19 C14.411,19 13.098,17.762 13.005,16.176 L13,16 L13,10 C13,8.411 14.238,7.098 15.824,7.005 L16,7 L16,3 C16,2.448 16.448,2 17,2 Z M8,2 C8.507,2 8.934,2.38 8.993,2.883 L9,3 L9,5 C10.589,5 11.902,6.238 11.995,7.824 L12,8 L12,14 C12,15.589 10.762,16.902 9.176,16.995 L9,17 L9,21 C8.999,21.529 8.587,21.966 8.059,21.997 C7.53,22.028 7.069,21.642 7.007,21.117 L7,21 L7,17 C5.411,17 4.098,15.762 4.005,14.176 L4,14 L4,8 C4,6.411 5.238,5.098 6.824,5.005 L7,5 L7,3 C7,2.448 7.448,2 8,2 Z M9,7 L7,7 C6.493,7 6.066,7.38 6.007,7.883 L6,8 L6,14 C6,14.507 6.38,14.934 6.883,14.993 L7,15 L9,15 C9.507,15 9.934,14.62 9.993,14.117 L10,14 L10,8 C10,7.493 9.62,7.066 9.117,7.007 Z M18,9 L16,9 C15.493,9 15.066,9.38 15.007,9.883 L15,10 L15,16 C15,16.507 15.38,16.934 15.883,16.993 L16,17 L18,17 C18.507,17 18.934,16.62 18.993,16.117 L19,16 L19,10 C19,9.493 18.62,9.066 18.117,9.007 Z"/>
</svg>

