<svg xmlns="http://www.w3.org/2000/svg" width="24" height="24">
  <defs/>
  <path  d="M12,2 C12.937,2 13.85,2.108 14.726,2.311 A1 1 0 1 1 14.274,4.259 A9.982 9.982 0 0 0 12.775,4.029 L12.355,4.006 L12.695,4.026 A8.947 8.947 0 0 1 16.769,5.366 L17.042,5.544 L17.648,4.938 A1 1 0 0 1 19.146,6.258 L19.063,6.352 L18.568,6.847 A9 9 0 1 1 11.471,4.016 L11.67,4.006 L11.61,4.007 C11.093,4.027 10.587,4.087 10.094,4.181 L9.726,4.259 A1 1 0 0 1 9.274,2.311 C10.15,2.108 11.064,2 12,2 M12,8 A1 1 0 0 0 11,9 L11,13 A1 1 0 1 0 13,13 L13,9 A1 1 0 0 0 12,8"/>
</svg>

