<svg xmlns="http://www.w3.org/2000/svg" width="24" height="24">
  <defs/>
  <path  d="M12,2 C12.937,2 13.85,2.108 14.726,2.311 A1 1 0 1 1 14.274,4.259 A9.982 9.982 0 0 0 12.775,4.029 L12.701,4.027 A8.95 8.95 0 0 1 17.042,5.544 L17.648,4.938 A1 1 0 1 1 19.063,6.352 L18.568,6.847 A9 9 0 1 1 11.408,4.02 L11.272,4.026 A9.948 9.948 0 0 0 9.726,4.259 A1 1 0 0 1 9.274,2.311 C10.15,2.108 11.064,2 12,2 M12,6 A7 7 0 1 0 12,20 A7 7 0 0 0 12,6 M12,8 A1 1 0 0 1 12.993,8.883 L13,9 L13,13 A1 1 0 0 1 11.007,13.117 L11,13 L11,9 A1 1 0 0 1 12,8"/>
</svg>

