<svg xmlns="http://www.w3.org/2000/svg" width="24" height="24">
  <defs/>
  <path  d="M12,2 C17.523,2 22,6.477 22,12 C22,17.523 17.523,22 12,22 C6.477,22 2,17.523 2,12 C2,6.477 6.477,2 12,2 Z M12,4 C7.582,4 4,7.582 4,12 C4,16.418 7.582,20 12,20 C16.418,20 20,16.418 20,12 C20,7.582 16.418,4 12,4 Z M14,8 C15.047,8 15.917,8.806 15.995,9.85 L16,10 L16,14 C16,15.047 15.194,15.917 14.15,15.995 L14,16 L10,16 C8.953,16 8.083,15.194 8.005,14.15 L8,14 L8,10 C8,8.953 8.806,8.083 9.85,8.005 L10,8 Z M14,10 L10,10 L10,14 L14,14 Z"/>
</svg>

