<svg xmlns="http://www.w3.org/2000/svg" width="24" height="24">
  <defs/>
  <path  d="M17.5,3 C18.13,3 18.722,3.296 19.1,3.8 L21.788,7.384 C21.923,7.561 21.995,7.778 21.992,8 L22,8 L22,9 C22.001,9.975 21.645,10.916 21,11.646 L21,19 C21,20.105 20.105,21 19,21 L5,21 C3.895,21 3,20.105 3,19 L3,11.646 C2.354,10.916 1.999,9.975 2,9 L2,8 L2.008,8 C2.005,7.778 2.077,7.561 2.212,7.384 L4.9,3.8 C5.278,3.296 5.87,3 6.5,3 Z M20,9 L16,9 C15.995,10.079 16.847,10.967 17.925,11.008 C19.003,11.048 19.919,10.226 19.995,9.15 Z M8,9 L4,9 C3.995,10.079 4.847,10.967 5.925,11.008 C7.003,11.048 7.919,10.226 7.995,9.15 Z M14,9 L10,9 C9.995,10.079 10.847,10.967 11.925,11.008 C13.003,11.048 13.919,10.226 13.995,9.15 Z"/>
</svg>

