<svg xmlns="http://www.w3.org/2000/svg" width="24" height="24">
  <defs/>
  <path  d="M18,2 C19.657,2 21,3.343 21,5 L21,18 C21,19.657 19.657,21 18,21 L5,21 C3.343,21 2,19.657 2,18 L2,5 C2,3.343 3.343,2 5,2 Z M14.14,8.797 C13.476,9.562 12.513,10.001 11.5,10 C10.487,10.001 9.524,9.562 8.86,8.797 C8.108,9.568 7.077,10.001 6,10 C5.298,10.001 4.608,9.817 4,9.465 L4,18 C4,18.552 4.448,19 5,19 L8,19 L8,15 C8,13.343 9.343,12 11,12 L12,12 C13.657,12 15,13.343 15,15 L15,19 L18,19 C18.552,19 19,18.552 19,18 L19,9.465 C18.392,9.817 17.702,10.001 17,10 C15.88,10 14.867,9.54 14.14,8.797 Z M18,4 L5,4 C4.493,4 4.066,4.38 4.007,4.883 L4,5 L4,6 C3.995,7.079 4.847,7.967 5.925,8.008 C7.003,8.048 7.919,7.226 7.995,6.15 L8,6 C8.001,5.471 8.413,5.034 8.941,5.003 C9.47,4.972 9.931,5.358 9.993,5.883 L10,6 L10,6.5 C10,7.3 10.629,7.959 11.428,7.998 C12.227,8.036 12.916,7.44 12.993,6.644 L13,6.5 L13,6 C13,5.448 13.448,5 14,5 C14.552,5 15,5.448 15,6 C14.995,7.079 15.847,7.967 16.925,8.008 C18.003,8.048 18.919,7.226 18.995,6.15 L19,6 L19,5 C19,4.493 18.62,4.066 18.117,4.007 Z M12,14 L11,14 C10.448,14 10,14.448 10,15 L10,19 L13,19 L13,15 C13,14.448 12.552,14 12,14 Z"/>
</svg>

