<svg xmlns="http://www.w3.org/2000/svg" width="24" height="24">
  <defs/>
  <path  d="M18,2 C19.657,2 21,3.343 21,5 L21,18 C21,19.657 19.657,21 18,21 L15,21 L15,15 C15,13.343 13.657,12 12,12 L11,12 C9.343,12 8,13.343 8,15 L8,21 L5,21 C3.343,21 2,19.657 2,18 L2,5 C2,3.343 3.343,2 5,2 Z M18,4 L5,4 C4.493,4 4.066,4.38 4.007,4.883 L4,5 L4,6 C3.998,7.011 4.75,7.864 5.753,7.989 C6.756,8.113 7.694,7.47 7.94,6.49 L7.972,6.335 C8.047,5.886 8.416,5.544 8.87,5.504 L9,5.5 C9.507,5.5 9.934,5.88 9.993,6.383 L10,6.5 C10,7.3 10.629,7.959 11.428,7.998 C12.227,8.036 12.916,7.44 12.993,6.644 L13,6.5 C13,5.993 13.38,5.566 13.883,5.507 L14.018,5.5 C14.472,5.49 14.876,5.786 15.002,6.223 L15.028,6.335 C15.196,7.333 16.083,8.049 17.094,8.001 C18.105,7.954 18.921,7.158 18.995,6.149 L19,6 L19,5 C19,4.493 18.62,4.066 18.117,4.007 Z M12,14 C12.507,14 12.934,14.38 12.993,14.883 L13,15 L13,21 L10,21 L10,15 C10,14.493 10.38,14.066 10.883,14.007 L11,14 Z"/>
</svg>

