<svg xmlns="http://www.w3.org/2000/svg" width="24" height="24">
  <defs/>
  <path  d="M19,4 A2 2 0 0 1 20.995,5.85 L21,6 L21,10 A2 2 0 0 1 19.15,11.995 L19,12 L5,12 A2 2 0 0 1 3.005,10.15 L3,10 L3,6 A2 2 0 0 1 4.85,4.005 L5,4 Z M19,6 L5,6 L5,10 L19,10 Z M10,7 A1 1 0 0 1 10.117,8.993 L10,9 L8,9 A1 1 0 0 1 7.883,7.007 L8,7 Z M19,13 A2 2 0 0 1 20.995,14.85 L21,15 L21,19 A2 2 0 0 1 19.15,20.995 L19,21 L5,21 A2 2 0 0 1 3.005,19.15 L3,19 L3,15 A2 2 0 0 1 4.85,13.005 L5,13 Z M19,15 L5,15 L5,19 L19,19 Z M10,16 A1 1 0 1 1 10,18 L8,18 A1 1 0 1 1 8,16 Z"/>
</svg>

