<svg xmlns="http://www.w3.org/2000/svg" width="24" height="24">
  <defs/>
  <path  d="M5,13 L19,13 C20.105,13 21,13.895 21,15 L21,19 C21,20.105 20.105,21 19,21 L5,21 C3.895,21 3,20.105 3,19 L3,15 C3,13.895 3.895,13 5,13 Z M5,4 L19,4 C20.105,4 21,4.895 21,6 L21,10 C21,11.105 20.105,12 19,12 L5,12 C3.895,12 3,11.105 3,10 L3,6 C3,4.895 3.895,4 5,4 Z M7,7 C6.448,7 6,7.448 6,8 C6,8.552 6.448,9 7,9 L9,9 C9.552,9 10,8.552 10,8 C10,7.448 9.552,7 9,7 Z M6,17 C6,17.552 6.448,18 7,18 L9,18 C9.552,18 10,17.552 10,17 C10,16.448 9.552,16 9,16 L7,16 C6.448,16 6,16.448 6,17 Z"/>
</svg>

