<svg xmlns="http://www.w3.org/2000/svg" width="24" height="24">
  <defs/>
  <path  d="M19,11.5 A1.5 1.5 0 0 1 19.144,14.493 L19,14.5 L17.728,14.5 C17.785,14.632 17.837,14.767 17.883,14.905 C18.943,18.085 16.645,21.366 13.333,21.496 L13.13,21.5 L11.428,21.5 A6.237 6.237 0 0 1 5.966,18.276 L5.849,18.052 L5.671,17.697 A1.49 1.49 0 0 1 5.514,16.795 A1.499 1.499 0 0 1 8.239,16.155 L8.301,16.253 L8.532,16.711 A3.237 3.237 0 0 0 11.224,18.494 L11.428,18.5 L13.129,18.5 A2.01 2.01 0 0 0 14.183,14.777 L14.029,14.691 L13.646,14.5 L5,14.5 A1.5 1.5 0 0 1 4.856,11.507 L5,11.5 Z M12.572,2.5 A6.237 6.237 0 0 1 18.034,5.724 L18.151,5.948 L18.327,6.3 A1.501 1.501 0 0 1 15.745,7.822 L15.692,7.735 L15.468,7.289 A3.237 3.237 0 0 0 12.776,5.506 L12.572,5.5 L10.871,5.5 A2.01 2.01 0 0 0 9.817,9.223 L9.971,9.309 L11.354,10 L6.522,10 A5.01 5.01 0 0 1 6.117,9.095 C5.057,5.915 7.355,2.634 10.667,2.504 L10.871,2.5 Z"/>
</svg>

