<svg xmlns="http://www.w3.org/2000/svg" width="24" height="24">
  <defs/>
  <path  d="M10.729,8.36 L10.728,8.36 C10.728,10.576 18.238,9.527 18.258,15.422 C18.258,18.963 15.439,21 11.339,21 C9.832,21 8.201,20.734 6.569,20.119 C6.195,19.978 5.959,19.615 5.959,19.215 L5.959,16.517 C5.959,15.909 6.615,15.517 7.175,15.757 C8.563,16.351 10.085,16.747 11.34,16.747 C12.444,16.747 13.232,16.451 13.232,15.541 C13.232,13.187 5.742,14.058 5.742,8.598 C5.742,5.097 8.403,3 12.404,3 C13.828,3 15.236,3.195 16.656,3.676 C17.042,3.812 17.298,4.179 17.292,4.588 L17.292,7.215 C17.292,7.822 16.637,8.218 16.07,8.004 C14.846,7.543 13.516,7.292 12.404,7.292 C11.359,7.292 10.729,7.589 10.729,8.36 Z"/>
</svg>

