<svg xmlns="http://www.w3.org/2000/svg" width="24" height="24">
  <defs/>
  <path  d="M19,12 A1 1 0 0 1 19.117,13.993 L19,14 L16.89,14 C17.107,14.327 17.282,14.684 17.408,15.063 C18.361,17.922 16.299,20.872 13.325,20.996 L13.13,21 L11.428,21 A5.737 5.737 0 0 1 6.408,18.042 L6.296,17.829 L6.114,17.464 A0.992 0.992 0 0 1 6.009,16.864 A1 1 0 0 1 7.826,16.437 L7.868,16.503 L8.085,16.934 A3.737 3.737 0 0 0 11.216,18.994 L11.428,19 L13.129,19 A2.51 2.51 0 0 0 14.426,14.34 L14.252,14.244 L13.764,14 L5,14 A1 1 0 0 1 4.883,12.007 L5,12 Z M12.572,3 A5.737 5.737 0 0 1 17.704,6.171 L17.884,6.534 A1.002 1.002 0 0 1 16.479,7.854 A0.995 0.995 0 0 1 16.163,7.548 L16.128,7.49 L15.915,7.066 A3.737 3.737 0 0 0 12.572,5 L10.871,5 A2.51 2.51 0 0 0 9.748,9.756 L12.236,11 L8.013,11 A4.51 4.51 0 0 1 6.59,8.937 C5.618,6.017 7.791,3 10.871,3 Z"/>
</svg>

