<svg xmlns="http://www.w3.org/2000/svg" width="24" height="24">
  <defs/>
  <path  d="M20,4 C21.105,4 22,4.895 22,6 L22,18 C22,19.105 21.105,20 20,20 L4,20 C2.895,20 2,19.105 2,18 L2,6 C2,4.895 2.895,4 4,4 Z M8.5,8 C6.911,8 5.598,9.238 5.505,10.824 L5.5,11 L5.5,13 C5.498,14.513 6.622,15.79 8.122,15.981 C9.623,16.172 11.03,15.215 11.406,13.75 C11.543,13.235 11.252,12.704 10.745,12.541 C10.238,12.378 9.692,12.642 9.504,13.14 L9.469,13.251 C9.349,13.718 8.913,14.033 8.432,14 C7.951,13.967 7.562,13.596 7.507,13.117 L7.5,13 L7.5,11 C7.499,10.517 7.844,10.103 8.319,10.015 C8.794,9.928 9.264,10.192 9.435,10.644 L9.469,10.749 C9.557,11.096 9.824,11.369 10.169,11.466 C10.513,11.562 10.883,11.467 11.139,11.216 C11.394,10.965 11.496,10.597 11.406,10.251 C11.064,8.926 9.868,8 8.5,8.001 Z M15.5,8.001 C13.843,8.001 12.5,9.344 12.5,11.001 L12.5,13.001 C12.498,14.514 13.622,15.791 15.122,15.982 C16.623,16.173 18.03,15.216 18.406,13.751 C18.543,13.236 18.252,12.705 17.745,12.542 C17.238,12.379 16.692,12.643 16.504,13.141 L16.469,13.252 C16.344,13.741 15.875,14.061 15.374,13.997 C14.873,13.933 14.499,13.507 14.5,13.002 L14.5,11.002 C14.499,10.519 14.843,10.104 15.319,10.016 C15.794,9.929 16.264,10.193 16.435,10.645 L16.469,10.75 C16.608,11.284 17.152,11.604 17.686,11.467 C18.22,11.33 18.542,10.786 18.406,10.252 C18.064,8.927 16.868,8.001 15.5,8.002 Z"/>
</svg>

