<svg xmlns="http://www.w3.org/2000/svg" width="24" height="24">
  <defs/>
  <path  d="M15.943,8 L19,8 C20.105,8 21,8.895 21,10 L21,19 C21,20.105 20.105,21 19,21 L10,21 C8.895,21 8,20.105 8,19 L8,15.943 C7.541,15.781 7.265,15.311 7.347,14.831 C7.429,14.351 7.846,14 8.333,14 L14,14 L14,8.333 C14,7.846 14.351,7.429 14.831,7.347 C15.311,7.265 15.781,7.541 15.943,8 Z M10,16 L10,19 L19,19 L19,10 L16,10 L16,14 C16,15.105 15.105,16 14,16 Z M3,5 C3,3.895 3.895,3 5,3 L5.75,3 C6.302,3 6.75,3.448 6.75,4 C6.75,4.552 6.302,5 5.75,5 L5,5 L5,5.75 C5,6.302 4.552,6.75 4,6.75 C3.448,6.75 3,6.302 3,5.75 Z M12.25,4 C12.25,3.448 12.698,3 13.25,3 L14,3 C15.105,3 16,3.895 16,5 L16,5.667 C16,6.219 15.552,6.667 15,6.667 C14.448,6.667 14,6.219 14,5.667 L14,5 L13.25,5 C12.698,5 12.25,4.552 12.25,4 Z M4,12.25 C4.552,12.25 5,12.698 5,13.25 L5,14 L5.667,14 C6.219,14 6.667,14.448 6.667,15 C6.667,15.552 6.219,16 5.667,16 L5,16 C3.895,16 3,15.105 3,14 L3,13.25 C3,12.698 3.448,12.25 4,12.25 Z M7.75,4 C7.75,3.448 8.198,3 8.75,3 L10.25,3 C10.802,3 11.25,3.448 11.25,4 C11.25,4.552 10.802,5 10.25,5 L8.75,5 C8.198,5 7.75,4.552 7.75,4 Z M4,7.75 C4.552,7.75 5,8.198 5,8.75 L5,10.25 C5,10.802 4.552,11.25 4,11.25 C3.448,11.25 3,10.802 3,10.25 L3,8.75 C3,8.198 3.448,7.75 4,7.75 Z"/>
</svg>

