<svg xmlns="http://www.w3.org/2000/svg" width="24" height="24">
  <defs/>
  <path  d="M20,4 A2 2 0 0 1 22,6 L22,18 A2 2 0 0 1 20,20 L4,20 A2 2 0 0 1 2,18 L2,6 A2 2 0 0 1 4,4 Z M20,6 L4,6 L4,18 L20,18 Z M8.5,8 A3 3 0 0 1 11.406,10.251 A1 1 0 0 1 9.504,10.861 L9.469,10.749 A1 1 0 0 0 7.5,11 L7.5,13 A1 1 0 0 0 9.435,13.356 L9.469,13.251 A1 1 0 1 1 11.406,13.749 A3 3 0 0 1 5.5,13 L5.5,11 A3 3 0 0 1 8.5,8 M15.5,8 A3 3 0 0 1 18.406,10.251 A1 1 0 0 1 16.504,10.861 L16.469,10.749 A1.001 1.001 0 0 0 14.507,10.884 L14.5,11 L14.5,13 A1 1 0 0 0 16.435,13.356 L16.469,13.251 A1 1 0 1 1 18.406,13.749 A3 3 0 0 1 12.506,13.176 L12.5,13 L12.5,11 A3 3 0 0 1 15.5,8"/>
</svg>

