<svg xmlns="http://www.w3.org/2000/svg" width="24" height="24">
  <defs/>
  <path  d="M6.61,11.026 C4.528,10.795 2.976,8.997 3.053,6.903 C3.13,4.81 4.81,3.13 6.903,3.053 C8.997,2.976 10.795,4.528 11.026,6.61 C11.899,6.706 12.746,7.089 13.414,7.758 C14.058,8.399 14.463,9.242 14.562,10.145 C15.911,10.295 17.091,11.118 17.698,12.332 C18.306,13.545 18.256,14.984 17.568,16.153 L19.778,18.364 C20.038,18.615 20.142,18.987 20.051,19.337 C19.959,19.686 19.686,19.959 19.337,20.051 C18.987,20.142 18.615,20.038 18.364,19.778 L16.154,17.568 C14.985,18.256 13.546,18.306 12.333,17.698 C11.119,17.091 10.296,15.911 10.146,14.562 C9.242,14.463 8.4,14.058 7.758,13.414 C7.114,12.772 6.709,11.93 6.61,11.026 Z"/>
</svg>

