<svg xmlns="http://www.w3.org/2000/svg" width="24" height="24">
  <defs/>
  <path  d="M9.879,4.222 C10.522,4.864 10.927,5.707 11.026,6.61 C11.899,6.706 12.746,7.089 13.414,7.758 C14.058,8.399 14.463,9.242 14.562,10.145 C15.911,10.295 17.091,11.118 17.698,12.332 C18.306,13.545 18.256,14.984 17.568,16.153 L19.778,18.364 C20.038,18.615 20.142,18.987 20.051,19.337 C19.959,19.686 19.686,19.959 19.337,20.051 C18.987,20.142 18.615,20.038 18.364,19.778 L16.154,17.568 C14.985,18.256 13.546,18.306 12.333,17.698 C11.119,17.091 10.296,15.911 10.146,14.562 C9.242,14.463 8.4,14.058 7.758,13.414 C7.114,12.772 6.709,11.93 6.61,11.026 C4.865,10.832 3.45,9.523 3.122,7.798 C2.794,6.073 3.629,4.336 5.181,3.515 C6.733,2.694 8.638,2.981 9.88,4.222 Z M12.707,12.707 C11.926,13.488 11.926,14.755 12.707,15.535 C13.489,16.316 14.755,16.316 15.536,15.535 C16.317,14.754 16.317,13.487 15.535,12.707 C14.754,11.926 13.488,11.926 12.707,12.707 Z M8.465,5.636 C7.839,5.01 6.875,4.87 6.096,5.293 C5.318,5.715 4.91,6.6 5.094,7.466 C5.279,8.333 6.011,8.975 6.894,9.044 C7.095,8.563 7.388,8.126 7.758,7.758 C8.126,7.388 8.563,7.095 9.044,6.894 C9.008,6.419 8.802,5.972 8.464,5.636 Z M12,9.172 C11.374,8.546 10.41,8.406 9.631,8.829 C8.853,9.251 8.445,10.136 8.629,11.002 C8.814,11.869 9.546,12.511 10.429,12.58 C10.624,12.112 10.912,11.673 11.293,11.293 C11.673,10.912 12.112,10.624 12.58,10.429 C12.543,9.954 12.338,9.508 12,9.172 Z"/>
</svg>

