<svg xmlns="http://www.w3.org/2000/svg" width="24" height="24">
  <defs/>
  <path  d="M14,4 C15.657,4 17,5.343 17,7 L20,7 C21.105,7 22,7.895 22,9 L22,19 C22,20.105 21.105,21 20,21 L4,21 C2.895,21 2,20.105 2,19 L2,9 C2,7.895 2.895,7 4,7 L7,7 C7,5.343 8.343,4 10,4 Z M16,8 C15.448,8 15,8.448 15,9 L15,19 C15,19.552 15.448,20 16,20 C16.552,20 17,19.552 17,19 L17,9 C17,8.448 16.552,8 16,8 Z M8,8 C7.493,8 7.066,8.38 7.007,8.883 L7,9 L7,19 C7.001,19.529 7.413,19.966 7.941,19.997 C8.47,20.028 8.931,19.642 8.993,19.117 L9,19 L9,9 C9,8.448 8.552,8 8,8 Z M14,6 L10,6 C9.493,6 9.066,6.38 9.007,6.883 L9,7 L15,7 C15,6.493 14.62,6.066 14.117,6.007 Z"/>
</svg>

