<svg xmlns="http://www.w3.org/2000/svg" width="24" height="24">
  <defs/>
  <path  d="M12,19 A1 1 0 0 1 13,20 L13,21 A1 1 0 1 1 11,21 L11,20 A1 1 0 0 1 12,19 M18.364,16.95 L19.071,17.657 A1 1 0 0 1 17.657,19.071 L16.95,18.364 A1 1 0 0 1 18.364,16.95 M5.636,16.95 A1 1 0 0 1 7.133,18.27 L7.05,18.364 L6.343,19.071 A1 1 0 0 1 4.846,17.751 L4.929,17.657 Z M12,6 A6 6 0 1 1 12,18 A6 6 0 0 1 12,6 M12,8 A4 4 0 1 0 12,16 A4 4 0 0 0 12,8 M4,11 A1 1 0 0 1 4.117,12.993 L4,13 L3,13 A1 1 0 0 1 2.883,11.007 L3,11 Z M21,11 A1 1 0 1 1 21,13 L20,13 A1 1 0 1 1 20,11 Z M4.929,4.929 A1 1 0 0 1 6.249,4.846 L6.343,4.929 L7.05,5.636 A1 1 0 0 1 5.73,7.133 L5.636,7.05 L4.929,6.343 A1 1 0 0 1 4.929,4.929 M19.071,4.929 A1 1 0 0 1 19.071,6.343 L18.364,7.05 A1 1 0 1 1 16.95,5.636 L17.657,4.929 A1 1 0 0 1 19.071,4.929 M12,2 A1 1 0 0 1 13,3 L13,4 A1 1 0 1 1 11,4 L11,3 A1 1 0 0 1 12,2"/>
</svg>

