<svg xmlns="http://www.w3.org/2000/svg" width="24" height="24">
  <defs/>
  <path  d="M3.936,8 C5.958,3.906 10.725,1.976 15.026,3.508 C19.327,5.04 21.799,9.55 20.777,14 L21,14 C21.552,14 22,14.448 22,15 C22,15.552 21.552,16 21,16 L20.064,16 C18.042,20.094 13.275,22.024 8.974,20.492 C4.673,18.96 2.201,14.45 3.223,10 L3,10 C2.448,10 2,9.552 2,9 C2,8.448 2.448,8 3,8 Z M6.255,8 L11.5,8 C12.881,8 14,9.119 14,10.5 C14,11.881 12.881,13 11.5,13 L9.5,13 C9.224,13 9,13.224 9,13.5 C9,13.776 9.224,14 9.5,14 L18.71,14 C19.696,10.704 18.141,7.181 15.041,5.688 C11.942,4.195 8.218,5.175 6.255,8 Z M17.745,16 L9.5,16 C8.119,16 7,14.881 7,13.5 C7,12.119 8.119,11 9.5,11 L11.5,11 C11.776,11 12,10.776 12,10.5 C12,10.224 11.776,10 11.5,10 L5.29,10 C4.304,13.296 5.859,16.819 8.959,18.312 C12.058,19.805 15.782,18.825 17.745,16 Z"/>
</svg>

