<svg xmlns="http://www.w3.org/2000/svg" width="24" height="24">
  <defs/>
  <path  d="M7.05,11 A3.5 3.5 0 0 0 9.307,16.995 L9.5,17 L19.485,17 A9 9 0 0 1 3.025,11.33 L3.055,11 Z M11.5,8 A2.5 2.5 0 0 1 11.664,12.995 L11.5,13 L9.5,13 A0.5 0.5 0 0 0 9.41,13.992 L9.5,14 L21,14 A1 1 0 0 1 21.117,15.993 L21,16 L9.5,16 A2.5 2.5 0 0 1 9.336,11.005 L9.5,11 L11.5,11 A0.5 0.5 0 0 0 11.59,10.008 L11.5,10 L3,10 A1 1 0 0 1 2.883,8.007 L3,8 Z M12,3 A9 9 0 0 1 20.945,13 L13.95,13 A3.5 3.5 0 0 0 11.5,7 L4.516,7 A8.991 8.991 0 0 1 12,3"/>
</svg>

