<svg xmlns="http://www.w3.org/2000/svg" width="24" height="24">
  <defs/>
  <path  d="M12,6 A6 6 0 0 1 17.88,13.2 A1 1 0 0 1 15.92,12.801 A4 4 0 1 0 8.08,12.801 A1 1 0 1 1 6.12,13.199 A6 6 0 0 1 12,6 M21,11 A1 1 0 1 1 21,13 L20,13 A1 1 0 1 1 20,11 Z M4,11 A1 1 0 1 1 4,13 L3,13 A1 1 0 1 1 3,11 Z M19.071,4.93 A1 1 0 0 1 19.071,6.344 L18.364,7.051 A1 1 0 1 1 16.95,5.637 L17.657,4.93 A1 1 0 0 1 19.071,4.93 M6.343,4.93 L7.05,5.637 A1 1 0 0 1 5.636,7.05 L4.929,6.343 A1 1 0 1 1 6.343,4.93 M12,2 A1 1 0 0 1 13,3 L13,4 A1 1 0 1 1 11,4 L11,3 A1 1 0 0 1 12,2 M4,15 A1 1 0 1 0 4,17 L20,17 A1 1 0 1 0 20,15 Z M7,19 A1 1 0 1 0 7,21 L17,21 A1 1 0 1 0 17,19 Z"/>
</svg>

