<svg xmlns="http://www.w3.org/2000/svg" width="24" height="24">
  <defs/>
  <path  d="M16,3 C18.379,3 20.533,4.405 21.491,6.582 C22.45,8.759 22.032,11.296 20.426,13.051 C21.257,14.721 21.184,16.698 20.234,18.303 C19.284,19.908 17.585,20.922 15.721,20.996 L15.5,21 L6.5,21 C4.306,21.002 2.43,19.421 2.06,17.258 C1.69,15.095 2.934,12.981 5.005,12.254 C4.937,10.655 5.511,9.095 6.6,7.921 C7.688,6.747 9.2,6.056 10.8,6.003 C11.871,4.144 13.854,2.999 16,3 Z M11,8 C9.844,8 8.744,8.5 7.984,9.372 C7.225,10.243 6.879,11.401 7.037,12.546 L7.082,12.81 C7.139,13.088 7.077,13.376 6.911,13.606 C6.745,13.836 6.49,13.985 6.208,14.017 C4.923,14.167 3.965,15.272 3.998,16.564 C4.031,17.857 5.045,18.912 6.336,18.995 L6.5,19 L15.5,19 C17.374,19.004 18.918,17.532 19.004,15.66 C19.089,13.789 17.686,12.181 15.82,12.014 C15.375,11.973 15.01,11.645 14.922,11.207 C14.544,9.341 12.904,8 11,8 Z M16,5 C14.856,4.999 13.767,5.488 13.009,6.344 C14.759,6.968 16.123,8.367 16.703,10.132 C17.645,10.342 18.495,10.794 19.186,11.418 C20.104,10.208 20.258,8.582 19.582,7.221 C18.907,5.861 17.519,5 16,5 Z"/>
</svg>

