<svg xmlns="http://www.w3.org/2000/svg" width="24" height="24">
  <defs/>
  <path  d="M12,2 C12.62,2.017 13.268,2.543 13.693,2.947 C14.288,3.505 14.704,4.226 14.89,5.02 C15.583,4.59 16.388,4.374 17.204,4.401 C17.79,4.416 18.62,4.503 19.07,4.929 C19.496,5.379 19.582,6.209 19.597,6.795 C19.624,7.61 19.409,8.416 18.979,9.109 C19.906,9.323 20.589,9.819 21.052,10.307 C21.456,10.732 21.982,11.38 21.999,12 C21.982,12.62 21.456,13.268 21.052,13.693 C20.494,14.288 19.773,14.705 18.979,14.891 C19.483,15.698 19.615,16.531 19.598,17.205 C19.583,17.791 19.496,18.621 19.07,19.071 C18.62,19.497 17.79,19.583 17.204,19.598 C16.389,19.625 15.583,19.41 14.89,18.98 C14.704,19.774 14.287,20.495 13.692,21.053 C13.267,21.457 12.618,21.983 11.999,22 C11.379,21.983 10.731,21.457 10.306,21.053 C9.712,20.495 9.296,19.774 9.11,18.98 C8.417,19.41 7.612,19.626 6.796,19.599 C6.21,19.584 5.38,19.497 4.93,19.071 C4.504,18.621 4.418,17.791 4.403,17.205 C4.376,16.39 4.591,15.584 5.021,14.891 C4.227,14.705 3.506,14.288 2.948,13.693 C2.543,13.268 2.017,12.62 2,12 C2.017,11.38 2.543,10.732 2.947,10.307 C3.505,9.712 4.226,9.296 5.02,9.11 C4.59,8.417 4.374,7.612 4.401,6.796 C4.416,6.21 4.503,5.38 4.929,4.93 C5.379,4.504 6.209,4.417 6.795,4.403 C7.61,4.376 8.416,4.591 9.109,5.021 C9.323,4.094 9.819,3.411 10.307,2.948 C10.733,2.544 11.38,2.018 12,2.001 Z M12,10 C10.895,10 10,10.895 10,12 C10,13.105 10.895,14 12,14 C13.105,14 14,13.105 14,12 C14,10.895 13.105,10 12,10 Z M18,11 C17.256,11 16.609,11.222 15.969,11.5 C16.009,11.828 16.009,12.172 15.969,12.5 C16.609,12.778 17.256,13 18,13 C19.002,13 19.567,12.421 19.86,12 C19.567,11.579 19.002,11 18,11 Z M12.5,15.97 C12.172,16.01 11.828,16.01 11.5,15.97 C11.222,16.61 11,17.257 11,18.001 C11,19.003 11.579,19.568 12,19.861 C12.421,19.568 13,19.003 13,18.001 C13,17.257 12.778,16.61 12.5,15.97 Z M12,4.14 C11.579,4.432 11,4.997 11,5.999 C11,6.743 11.222,7.39 11.5,8.03 C11.828,7.99 12.172,7.99 12.5,8.03 C12.778,7.39 13,6.743 13,5.999 C13,4.997 12.421,4.432 12,4.139 Z M6,11 C4.998,11 4.433,11.579 4.14,12 C4.433,12.421 4.998,13 6,13 C6.744,13 7.391,12.778 8.031,12.5 C7.99,12.168 7.99,11.832 8.031,11.5 C7.391,11.222 6.744,11 6,11 Z M8.464,7.05 C7.756,6.342 6.947,6.351 6.443,6.443 C6.351,6.947 6.342,7.756 7.05,8.464 C7.576,8.99 8.191,9.291 8.84,9.547 C9.045,9.283 9.283,9.045 9.547,8.84 C9.291,8.191 8.99,7.576 8.464,7.05 Z M8.84,14.454 C8.191,14.71 7.576,15.011 7.05,15.537 C6.342,16.245 6.351,17.054 6.443,17.558 C6.947,17.649 7.756,17.659 8.464,16.951 C8.99,16.425 9.291,15.81 9.547,15.161 C9.283,14.956 9.045,14.718 8.84,14.454 Z M17.557,6.443 C17.053,6.351 16.244,6.342 15.536,7.05 C15.01,7.576 14.709,8.191 14.453,8.84 C14.717,9.045 14.955,9.283 15.16,9.547 C15.809,9.291 16.424,8.99 16.95,8.464 C17.658,7.756 17.648,6.947 17.557,6.443 Z M15.16,14.454 C14.955,14.718 14.717,14.956 14.453,15.161 C14.709,15.81 15.01,16.425 15.536,16.951 C16.244,17.659 17.053,17.649 17.557,17.558 C17.648,17.054 17.658,16.245 16.95,15.537 C16.424,15.011 15.809,14.71 15.16,14.454 Z"/>
</svg>

