<svg xmlns="http://www.w3.org/2000/svg" width="24" height="24">
  <defs/>
  <path  d="M9.109,5.02 L9.11,5.02 C9.296,4.226 9.712,3.505 10.307,2.947 C10.733,2.543 11.38,2.017 12,2 C12.62,2.017 13.268,2.543 13.693,2.948 C14.288,3.506 14.705,4.228 14.891,5.022 C15.584,4.591 16.389,4.376 17.205,4.402 C17.791,4.417 18.621,4.504 19.071,4.93 C19.497,5.38 19.584,6.21 19.599,6.796 C19.616,7.469 19.484,8.303 18.98,9.11 C19.774,9.296 20.495,9.712 21.053,10.306 C21.457,10.731 21.983,11.379 22,11.999 C21.983,12.619 21.457,13.267 21.053,13.692 C20.495,14.287 19.774,14.704 18.98,14.89 C19.41,15.583 19.625,16.389 19.598,17.204 C19.583,17.79 19.497,18.62 19.071,19.07 C18.621,19.496 17.791,19.583 17.205,19.598 C16.532,19.615 15.698,19.483 14.891,18.979 C14.705,19.773 14.288,20.494 13.693,21.052 C13.268,21.456 12.62,21.982 12,21.999 C11.381,21.982 10.732,21.456 10.307,21.052 C9.819,20.589 9.323,19.906 9.109,18.979 C8.416,19.409 7.61,19.624 6.795,19.597 C6.209,19.582 5.379,19.496 4.929,19.07 C4.502,18.62 4.417,17.791 4.402,17.204 C4.375,16.389 4.59,15.583 5.02,14.89 C4.226,14.704 3.505,14.288 2.947,13.693 C2.543,13.268 2.017,12.62 2,12 C2.017,11.38 2.543,10.732 2.947,10.307 C3.411,9.819 4.093,9.323 5.021,9.109 C4.59,8.416 4.375,7.611 4.401,6.795 C4.416,6.209 4.503,5.379 4.929,4.929 C5.379,4.503 6.209,4.416 6.795,4.402 C7.61,4.375 8.416,4.59 9.109,5.02 Z M12,14 C13.105,14 14,13.105 14,12 C14,10.895 13.105,10 12,10 C10.895,10 10,10.895 10,12 C10,13.105 10.895,14 12,14 Z"/>
</svg>

