<svg xmlns="http://www.w3.org/2000/svg" width="24" height="24">
  <defs/>
  <path  d="M12,10 A6 6 0 0 1 17.197,19 L20,19 A1 1 0 1 1 20,21 L4,21 A1 1 0 1 1 4,19 L6.803,19 A6 6 0 0 1 12,10 M12,12 A4 4 0 0 0 9.192,18.849 L9.355,18.999 L14.645,18.999 A4 4 0 0 0 12,12 M21,15 A1 1 0 1 1 21,17 L20,17 A1 1 0 1 1 20,15 Z M4,15 A1 1 0 1 1 4,17 L3,17 A1 1 0 1 1 3,15 Z M4.929,8.929 A1 1 0 0 1 6.249,8.846 L6.343,8.929 L7.05,9.636 A1 1 0 0 1 5.73,11.133 L5.636,11.05 L4.929,10.343 A1 1 0 0 1 4.929,8.929 M19.071,8.929 A1 1 0 0 1 19.071,10.343 L18.364,11.05 A1 1 0 0 1 16.95,9.636 L17.657,8.929 A1 1 0 0 1 19.071,8.929 M12.707,2.173 L14.828,4.294 A1 1 0 1 1 13.414,5.708 L13,5.294 L13,8 A1 1 0 1 1 11,8 L11,5.294 L10.586,5.708 A1 1 0 0 1 9.172,4.294 L11.292,2.173 A1 1 0 0 1 12.707,2.173"/>
</svg>

