<svg xmlns="http://www.w3.org/2000/svg" width="24" height="24">
  <defs/>
  <path  d="M12,10 A6 6 0 0 1 17.33,18.756 L17.197,19 L20,19 A1 1 0 0 1 20.117,20.993 L20,21 L4,21 A1 1 0 0 1 3.883,19.007 L4,19 L6.803,19 A6 6 0 0 1 12,10 M21,15 A1 1 0 1 1 21,17 L20,17 A1 1 0 1 1 20,15 Z M4,15 A1 1 0 1 1 4,17 L3,17 A1 1 0 1 1 3,15 Z M4.929,8.929 A1 1 0 0 1 6.249,8.846 L6.343,8.929 L7.05,9.636 A1 1 0 0 1 5.73,11.133 L5.636,11.05 L4.929,10.343 A1 1 0 0 1 4.929,8.929 M19.071,8.929 A1 1 0 0 1 19.071,10.343 L18.364,11.05 A1 1 0 0 1 16.95,9.636 L17.657,8.929 A1 1 0 0 1 19.071,8.929 M12,1.879 A1 1 0 0 1 13,2.879 L13,5.586 L13.414,5.171 A1 1 0 1 1 14.828,6.586 L12.708,8.707 A1 1 0 0 1 11.293,8.707 L9.172,6.586 A1 1 0 1 1 10.586,5.171 L11,5.586 L11,2.88 A1 1 0 0 1 12,1.88 Z"/>
</svg>

