<svg xmlns="http://www.w3.org/2000/svg" width="24" height="24">
  <defs/>
  <path  d="M12,10 A6 6 0 0 1 17.197,19 L20,19 A1 1 0 1 1 20,21 L4,21 A1 1 0 1 1 4,19 L6.803,19 A6 6 0 0 1 12,10 M12,12 A4 4 0 0 0 9.192,18.849 L9.355,18.999 L14.645,18.999 A4 4 0 0 0 12,12 M21,15 A1 1 0 0 1 21.117,16.993 L21,17 L20,17 A1 1 0 0 1 19.883,15.007 L20,15 Z M4,15 A1 1 0 0 1 4.117,16.993 L4,17 L3,17 A1 1 0 0 1 2.883,15.007 L3,15 Z M6.343,8.929 L7.05,9.636 A1 1 0 0 1 5.636,11.05 L4.929,10.343 A1 1 0 0 1 6.343,8.929 M17.657,8.929 A1 1 0 0 1 19.154,10.249 L19.071,10.343 L18.364,11.05 A1 1 0 0 1 16.867,9.73 L16.95,9.636 Z M12,1.879 A1 1 0 0 1 12.993,2.763 L13,2.88 L13,5.586 L13.414,5.171 A1 1 0 0 1 14.912,6.491 L14.828,6.586 L12.708,8.707 A1 1 0 0 1 11.388,8.79 L11.293,8.707 L9.172,6.586 A1 1 0 0 1 10.492,5.088 L10.586,5.171 L11,5.586 L11,2.88 A1 1 0 0 1 12,1.88 Z"/>
</svg>

