<svg xmlns="http://www.w3.org/2000/svg" width="24" height="24">
  <defs/>
  <path  d="M4.23,19.786 L4.23,19.787 C4.225,19.782 4.219,19.776 4.214,19.771 L2.901,18.458 C2.417,17.981 2.217,17.286 2.372,16.625 C2.964,14.158 4.468,11.048 7.05,8.465 C9.355,6.161 12.209,4.883 14.544,4.254 C15.714,3.939 16.779,3.779 17.613,3.741 C18.315,3.709 19.241,3.686 19.778,4.223 C20.315,4.759 20.292,5.686 20.26,6.387 C20.221,7.222 20.062,8.287 19.747,9.457 C19.118,11.791 17.84,14.646 15.535,16.951 C12.953,19.533 9.843,21.037 7.375,21.629 C6.714,21.784 6.02,21.583 5.543,21.1 Z M8.464,9.88 L8.464,9.879 C6.173,12.17 4.844,14.926 4.326,17.054 L4.929,17.657 L16.754,5.833 C16.251,5.905 15.68,6.019 15.064,6.185 C12.964,6.75 10.455,7.889 8.464,9.88 Z M6.344,19.072 L6.342,19.071 L6.945,19.674 C9.073,19.156 11.83,17.826 14.12,15.536 C16.111,13.544 17.249,11.036 17.815,8.936 C17.966,8.38 18.083,7.816 18.167,7.246 Z"/>
</svg>

