<svg xmlns="http://www.w3.org/2000/svg" width="24" height="24">
  <defs/>
  <path  d="M19.778,4.222 C20.315,4.758 20.292,5.685 20.26,6.387 C20.222,7.221 20.062,8.286 19.747,9.456 C19.118,11.791 17.84,14.645 15.536,16.95 C12.954,19.532 9.843,21.036 7.376,21.627 C6.715,21.782 6.02,21.582 5.543,21.099 L2.901,18.457 C2.418,17.98 2.217,17.286 2.372,16.625 C2.964,14.157 4.468,11.047 7.05,8.465 C9.355,6.159 12.21,4.882 14.544,4.253 C15.714,3.937 16.779,3.778 17.614,3.74 C18.315,3.708 19.242,3.685 19.778,4.222 Z"/>
</svg>

