<svg xmlns="http://www.w3.org/2000/svg" width="24" height="24">
  <defs/>
  <path  d="M2,12 C2,6.477 6.477,2 12,2 C17.523,2 22,6.477 22,12 C22,17.523 17.523,22 12,22 C6.477,22 2,17.523 2,12 Z M12,4 C7.582,4 4,7.582 4,12 C4,16.418 7.582,20 12,20 C16.418,20 20,16.418 20,12 C20,7.582 16.418,4 12,4 Z M9,15 C9,13.343 10.343,12 12,12 C13.657,12 15,13.343 15,15 C15,16.657 13.657,18 12,18 C10.343,18 9,16.657 9,15 Z M7,9.5 C7,8.672 7.672,8 8.5,8 C9.328,8 10,8.672 10,9.5 C10,10.328 9.328,11 8.5,11 C7.672,11 7,10.328 7,9.5 Z M14,9.5 C14,8.672 14.672,8 15.5,8 C16.328,8 17,8.672 17,9.5 C17,10.328 16.328,11 15.5,11 C14.672,11 14,10.328 14,9.5 Z M12,14 C11.448,14 11,14.448 11,15 C11,15.552 11.448,16 12,16 C12.552,16 13,15.552 13,15 C13,14.448 12.552,14 12,14 Z"/>
</svg>

