<svg xmlns="http://www.w3.org/2000/svg" width="24" height="24">
  <defs/>
  <path  d="M12,2 C17.523,2 22,6.477 22,12 C22,17.523 17.523,22 12,22 C6.477,22 2,17.523 2,12 C2,6.477 6.477,2 12,2 Z M12,12 C10.343,12 9,13.343 9,15 C9,16.657 10.343,18 12,18 C13.657,18 15,16.657 15,15 C15,13.343 13.657,12 12,12 Z M8.5,8 C7.672,8 7,8.672 7,9.5 C7,10.328 7.672,11 8.5,11 C9.328,11 10,10.328 10,9.5 C10,8.672 9.328,8 8.5,8 Z M15.5,8 C14.672,8 14,8.672 14,9.5 C14,10.328 14.672,11 15.5,11 C16.328,11 17,10.328 17,9.5 C17,8.672 16.328,8 15.5,8 Z M12,14 C12.552,14 13,14.448 13,15 C13,15.552 12.552,16 12,16 C11.448,16 11,15.552 11,15 C11,14.448 11.448,14 12,14 Z"/>
</svg>

