<svg xmlns="http://www.w3.org/2000/svg" width="24" height="24">
  <defs/>
  <path  d="M12,2 C14.173,2 16.186,2.694 17.826,3.872 L18.07,3.556 L18.18,3.423 C18.382,3.179 18.683,3.037 19,3.037 C19.317,3.037 19.618,3.179 19.82,3.423 L20.066,3.73 L20.341,4.097 L20.551,4.395 C20.588,4.448 20.624,4.502 20.661,4.558 L20.886,4.906 L20.999,5.09 C21.459,5.857 22,6.952 22,8 C22,8.486 21.878,8.963 21.655,9.388 C21.88,10.222 22,11.098 22,12 C22,17.523 17.523,22 12,22 C6.477,22 2,17.523 2,12 C2,6.477 6.477,2 12,2 Z M12,4 C8.66,4.001 5.672,6.076 4.505,9.206 C3.339,12.335 4.239,15.86 6.764,18.047 C9.289,20.234 12.906,20.622 15.837,19.021 C18.768,17.419 20.396,14.166 19.92,10.86 C19.622,10.954 19.312,11.001 19,11 C17.18,11 16,9.485 16,8 C16,7.386 16.184,6.776 16.403,6.254 C16.504,6.014 16.618,5.779 16.738,5.554 C15.366,4.542 13.705,3.997 12,4 Z M15,10 C15.552,10 16,10.448 16,11 C16,11.552 15.552,12 15,12 L12,12 C11.448,12 11,11.552 11,11 C11,10.448 11.448,10 12,10 Z M12,14 C12.552,14 13,14.448 13,15 C13,15.552 12.552,16 12,16 L9,16 C8.448,16 8,15.552 8,15 C8,14.448 8.448,14 9,14 Z M9,10 C9.552,10 10,10.448 10,11 C10,11.552 9.552,12 9,12 L6,12 C5.448,12 5,11.552 5,11 C5,10.448 5.448,10 6,10 Z M19,5.671 L18.876,5.861 C18.634,6.232 18.423,6.623 18.247,7.029 C18.077,7.433 18,7.762 18,8 C18,8.515 18.414,9 19,9 C19.305,9.005 19.595,8.866 19.78,8.623 C19.924,8.437 20,8.211 20,8 C20,7.538 19.721,6.85 19.283,6.118 C19.189,5.961 19.093,5.811 19,5.671 Z"/>
</svg>

