<svg xmlns="http://www.w3.org/2000/svg" width="24" height="24">
  <defs/>
  <path  d="M12,2 C14.106,2 16.06,2.65 17.67,3.762 C17.501,4.006 17.32,4.281 17.143,4.576 L17.047,4.74 L16.844,5.105 C16.431,5.882 16,6.927 16,8 C16,9.97 17.563,12 20,12 C20.752,12 21.421,11.807 21.987,11.481 C21.996,11.653 22,11.826 22,12 C22,17.523 17.523,22 12,22 C6.477,22 2,17.523 2,12 C2,6.477 6.477,2 12,2 Z M20.05,4.06 L20.288,4.36 L20.493,4.632 C21.085,5.44 22,6.872 22,8 C22,9 21.203,10 20,10 C18.797,10 18,9 18,8 C18,7.155 18.515,6.138 19.022,5.34 L19.237,5.014 L19.442,4.721 L19.629,4.468 L19.852,4.18 L19.95,4.06 C19.962,4.045 19.981,4.036 20,4.036 C20.019,4.036 20.038,4.045 20.05,4.06 Z M15,10 L12,10 C11.448,10 11,10.448 11,11 C11,11.552 11.448,12 12,12 L15,12 C15.552,12 16,11.552 16,11 C16,10.448 15.552,10 15,10 Z M12,14 L9,14 C8.448,14 8,14.448 8,15 C8,15.552 8.448,16 9,16 L12,16 C12.552,16 13,15.552 13,15 C13,14.448 12.552,14 12,14 Z M9,10 L6,10 C5.448,10 5,10.448 5,11 C5,11.552 5.448,12 6,12 L9,12 C9.552,12 10,11.552 10,11 C10,10.448 9.552,10 9,10 Z"/>
</svg>

