<svg xmlns="http://www.w3.org/2000/svg" width="24" height="24">
  <defs/>
  <path  d="M9.5,5 C8.672,5 8,5.672 8,6.5 L8,10 L15,10 L15,6.5 C15,4.567 16.567,3 18.5,3 C20.433,3 22,4.567 22,6.5 C21.999,7.029 21.587,7.466 21.059,7.497 C20.53,7.528 20.069,7.142 20.007,6.617 L20,6.5 C20,5.672 19.328,5 18.5,5 C17.672,5 17,5.672 17,6.5 L17,15 C17,15.144 16.97,15.28 16.915,15.403 C17.268,15.595 17.703,15.557 18.017,15.306 L19.375,14.219 C19.806,13.874 20.436,13.944 20.781,14.375 C21.126,14.806 21.056,15.436 20.625,15.781 L19.267,16.867 C18.247,17.683 16.816,17.745 15.729,17.021 L15.162,16.643 C14.8,16.401 14.322,16.422 13.982,16.694 L13.874,16.781 C12.778,17.657 11.222,17.657 10.126,16.781 L10.017,16.694 C9.677,16.422 9.199,16.402 8.837,16.644 L8.272,17.021 C7.185,17.746 5.753,17.684 4.733,16.867 L3.375,15.781 C2.944,15.436 2.874,14.806 3.219,14.375 C3.564,13.944 4.194,13.874 4.625,14.219 L6,15.32 L6,6.5 C6,4.567 7.567,3 9.5,3 C11.433,3 13,4.567 13,6.5 C12.999,7.029 12.587,7.466 12.059,7.497 C11.53,7.528 11.069,7.142 11.007,6.617 L11,6.5 C11,5.672 10.328,5 9.5,5 Z M18.017,19.306 L19.375,18.219 C19.806,17.874 20.436,17.944 20.781,18.375 C21.126,18.806 21.056,19.436 20.625,19.781 L19.267,20.867 C18.247,21.683 16.816,21.745 15.729,21.021 L15.163,20.644 C14.801,20.402 14.323,20.422 13.983,20.694 L13.874,20.781 C12.778,21.657 11.222,21.657 10.126,20.781 L10.018,20.694 C9.678,20.422 9.2,20.401 8.838,20.643 L8.272,21.021 C7.185,21.746 5.753,21.684 4.733,20.867 L3.375,19.781 C2.944,19.436 2.874,18.806 3.219,18.375 C3.564,17.944 4.194,17.874 4.625,18.219 L5.982,19.306 C6.322,19.578 6.8,19.599 7.162,19.357 L7.729,18.979 C8.816,18.255 10.247,18.317 11.267,19.133 L11.375,19.22 C11.74,19.513 12.26,19.513 12.625,19.22 L12.733,19.133 C13.753,18.316 15.185,18.254 16.272,18.979 L16.837,19.356 C17.199,19.598 17.677,19.578 18.017,19.306 Z M15,12 L8,12 L8,14.818 C9.055,14.265 10.337,14.389 11.267,15.133 L11.375,15.22 C11.74,15.513 12.26,15.513 12.625,15.22 L12.733,15.133 C13.371,14.622 14.19,14.393 15,14.5 L15,12 Z"/>
</svg>

