<svg xmlns="http://www.w3.org/2000/svg" width="24" height="24">
  <defs/>
  <path  d="M18.5,2.5 C20.709,2.5 22.5,4.291 22.5,6.5 C22.5,7.3 21.871,7.959 21.072,7.998 C20.273,8.036 19.584,7.44 19.507,6.644 L19.5,6.5 C19.5,5.948 19.052,5.5 18.5,5.5 C17.948,5.5 17.5,5.948 17.5,6.5 L17.5,15 C17.5,15.014 17.52,15.01 17.548,15 L17.642,14.954 L17.705,14.915 L19.063,13.829 C19.711,13.33 20.639,13.442 21.149,14.08 C21.66,14.719 21.566,15.648 20.937,16.171 L19.579,17.258 C18.389,18.21 16.719,18.283 15.451,17.437 L14.885,17.059 C14.704,16.938 14.465,16.949 14.295,17.085 C12.988,18.13 11.153,18.244 9.814,17.172 C9.494,16.916 9.225,16.995 8.957,17.159 L8.796,17.265 L8.632,17.38 C8.605,17.4 8.577,17.418 8.549,17.437 C7.281,18.282 5.611,18.209 4.421,17.257 L3.063,16.171 C2.633,15.84 2.415,15.303 2.494,14.766 C2.572,14.229 2.934,13.776 3.441,13.582 C3.948,13.388 4.52,13.482 4.937,13.829 L5.5,14.279 L5.5,6.5 C5.5,4.291 7.291,2.5 9.5,2.5 C11.709,2.5 13.5,4.291 13.5,6.5 C13.5,7.3 12.871,7.959 12.072,7.998 C11.273,8.036 10.584,7.44 10.507,6.644 L10.5,6.5 C10.5,5.948 10.052,5.5 9.5,5.5 C8.948,5.5 8.5,5.948 8.5,6.5 L8.5,9.5 L14.5,9.5 L14.5,6.5 C14.5,4.291 16.291,2.5 18.5,2.5 Z M19.063,17.829 C19.687,17.333 20.589,17.411 21.119,18.007 C21.648,18.603 21.618,19.508 21.052,20.069 L20.937,20.171 L19.579,21.258 C18.064,22.47 16.344,22.032 14.885,21.059 C14.704,20.938 14.465,20.949 14.295,21.085 C12.96,22.178 11.04,22.178 9.705,21.085 C9.535,20.949 9.296,20.938 9.115,21.059 C7.71,21.996 6.063,22.437 4.59,21.386 L4.421,21.258 L3.063,20.171 C2.439,19.672 2.315,18.772 2.782,18.123 C3.249,17.474 4.142,17.306 4.813,17.739 L4.937,17.829 L6.295,18.915 C6.439,19.03 6.634,19.057 6.804,18.985 L6.884,18.941 L7.451,18.563 C8.783,17.675 10.466,17.852 11.688,18.829 C11.87,18.975 12.13,18.975 12.312,18.829 C13.482,17.894 15.072,17.692 16.373,18.453 L16.549,18.563 L17.115,18.941 C17.268,19.043 17.465,19.053 17.628,18.966 L17.705,18.916 Z M14.5,12.5 L8.5,12.5 L8.5,14.09 C9.639,13.79 10.783,14.105 11.688,14.83 C11.87,14.976 12.13,14.976 12.312,14.83 C12.945,14.323 13.681,14.002 14.5,13.977 Z"/>
</svg>

