<svg xmlns="http://www.w3.org/2000/svg" width="24" height="24">
  <defs/>
  <path  d="M16.5,12 A4.5 4.5 0 0 1 16.712,20.995 L16.5,21 L7.5,21 A4.5 4.5 0 0 1 7.288,12.005 L7.5,12 Z M16.5,14 L7.5,14 A2.5 2.5 0 0 0 7.336,18.995 L7.5,19 L16.5,19 A2.5 2.5 0 0 0 16.664,14.005 Z M7.5,15 A1.5 1.5 0 1 1 7.5,18 A1.5 1.5 0 0 1 7.5,15 M16.5,2 A4.5 4.5 0 0 1 16.712,10.995 L16.5,11 L7.5,11 A4.5 4.5 0 0 1 7.288,2.005 L7.5,2 Z M16.5,4 L7.5,4 A2.5 2.5 0 0 0 7.336,8.995 L7.5,9 L16.5,9 A2.5 2.5 0 0 0 16.664,4.005 Z M16.5,5 A1.5 1.5 0 1 1 16.5,8 A1.5 1.5 0 0 1 16.5,5"/>
</svg>

