<svg xmlns="http://www.w3.org/2000/svg" width="24" height="24">
  <defs/>
  <path  d="M16.5,2 C18.944,2 20.941,3.951 20.999,6.394 C21.056,8.837 19.153,10.88 16.712,10.995 L16.5,11 L7.5,11 C5.056,11 3.059,9.049 3.001,6.606 C2.944,4.163 4.847,2.12 7.288,2.005 L7.5,2 Z M16.5,12 C18.944,12 20.941,13.951 20.999,16.394 C21.056,18.837 19.153,20.88 16.712,20.995 L16.5,21 L7.5,21 C5.056,21 3.059,19.049 3.001,16.606 C2.944,14.163 4.847,12.12 7.288,12.005 L7.5,12 Z M17,4.5 C15.895,4.5 15,5.395 15,6.5 C15,7.605 15.895,8.5 17,8.5 C18.105,8.5 19,7.605 19,6.5 C19,5.395 18.105,4.5 17,4.5 Z M7,14.5 C5.895,14.5 5,15.395 5,16.5 C5,17.605 5.895,18.5 7,18.5 C8.105,18.5 9,17.605 9,16.5 C9,15.395 8.105,14.5 7,14.5 Z"/>
</svg>

