<svg xmlns="http://www.w3.org/2000/svg" width="24" height="24">
  <defs/>
  <path  d="M19.071,3.929 C19.623,3.929 20.071,4.377 20.071,4.929 L20.071,10.586 C20.071,10.903 19.921,11.201 19.666,11.39 L12.468,16.71 L13.414,17.657 C13.804,18.048 13.804,18.681 13.414,19.071 L12,20.485 C11.696,20.789 11.231,20.864 10.846,20.672 L8.662,19.581 L7.05,21.192 C6.66,21.582 6.026,21.582 5.636,21.192 L2.808,18.364 C2.418,17.973 2.418,17.34 2.808,16.95 L4.419,15.338 L3.328,13.154 C3.136,12.769 3.211,12.304 3.515,12 L4.929,10.586 C5.319,10.196 5.953,10.196 6.343,10.586 L7.29,11.532 L12.61,4.334 C12.799,4.079 13.097,3.929 13.414,3.929 Z"/>
</svg>

