<svg xmlns="http://www.w3.org/2000/svg" width="24" height="24">
  <defs/>
  <path  d="M19.071,3.93 C19.578,3.93 20.005,4.31 20.064,4.813 L20.071,4.929 L20.071,10.586 C20.071,10.862 19.957,11.126 19.756,11.315 L19.666,11.39 L12.468,16.71 L13.414,17.657 C13.771,18.013 13.807,18.579 13.498,18.977 L13.414,19.071 L12,20.485 C11.729,20.757 11.326,20.849 10.964,20.723 L10.846,20.673 L8.662,19.581 L7.05,21.193 C6.694,21.549 6.128,21.585 5.73,21.276 L5.636,21.193 L2.808,18.364 C2.452,18.008 2.416,17.442 2.725,17.044 L2.808,16.95 L4.419,15.338 L3.328,13.155 C3.156,12.812 3.195,12.4 3.43,12.096 L3.515,12 L4.929,10.586 C5.285,10.23 5.851,10.194 6.249,10.503 L6.343,10.586 L7.29,11.533 L12.61,4.335 C12.774,4.113 13.023,3.968 13.297,3.936 L13.414,3.929 L19.071,3.929 Z M18.071,5.93 L13.92,5.93 L8.72,12.963 L11.038,15.28 L18.071,10.082 Z M5.636,12.706 L5.439,12.904 L6.531,15.088 C6.723,15.473 6.647,15.938 6.343,16.242 L4.93,17.657 L6.344,19.071 L7.759,17.657 C8.063,17.353 8.528,17.278 8.913,17.47 L11.097,18.562 L11.294,18.364 L5.637,12.707 Z"/>
</svg>

