<svg xmlns="http://www.w3.org/2000/svg" width="24" height="24">
  <defs/>
  <path  d="M2,19 A1 1 0 0 1 1.883,17.007 L3.044,17 C3.031,15.094 2.466,13.12 1.232,11.64 A1 1 0 0 1 2,10 C3.476,10 4.838,10.41 6.057,11.094 C5.77,9.494 5.217,7.907 4.211,6.613 A1 1 0 0 1 5.038,5 C10.489,5.21 13.98,7.276 15.764,10.63 C17.65,9.55 19.83,9 22,9 A1 1 0 0 1 22.8,10.6 C21.172,12.77 20.687,15.03 20.863,17 L22,17 A1 1 0 0 1 22.117,18.992 Z M4.027,12.358 C4.71,13.798 5.037,15.411 5.045,17.001 L6.142,17 C6.285,15.916 6.345,14.82 6.317,13.727 C5.613,13.146 4.883,12.689 4.027,12.358 M6.893,7.17 C7.353,8.113 7.666,9.113 7.903,10.133 C8.399,12.393 8.42,14.775 8.158,17.001 L15.096,17.001 C15.181,15.533 14.996,13.901 14.371,12.369 C13.089,9.225 10.136,7.629 6.893,7.17 M20.085,11.168 L20.075,11.17 C18.839,11.393 17.61,11.836 16.54,12.5 A12.79 12.79 0 0 1 17.1,17.001 L18.856,17.001 C18.707,14.962 19.183,12.987 20.085,11.168"/>
</svg>

