<svg xmlns="http://www.w3.org/2000/svg" width="24" height="24">
  <defs/>
  <path  d="M5.707,3.879 C6.269,3.316 7.032,3 7.828,3 C7.95,3 8.082,2.995 8.217,2.989 C8.958,2.959 9.831,2.924 10.13,3.711 C10.426,4.487 11.17,5 12,5 C12.83,5 13.574,4.487 13.87,3.711 C14.169,2.925 15.043,2.96 15.783,2.99 C15.918,2.996 16.05,3.001 16.172,3.001 C16.967,3.001 17.73,3.317 18.292,3.879 L22,7.586 C22.781,8.367 22.781,9.633 22,10.414 L20.522,11.892 C20.002,12.412 19.276,12.581 18.622,12.418 L18.894,17.85 C18.935,18.671 18.638,19.472 18.072,20.068 C17.505,20.663 16.72,21 15.898,21 L8.102,21 C7.28,21 6.495,20.663 5.928,20.068 C5.362,19.472 5.065,18.671 5.106,17.85 L5.378,12.418 C4.696,12.59 3.975,12.39 3.478,11.892 L2,10.414 C1.219,9.633 1.219,8.367 2,7.586 Z"/>
</svg>

