<svg xmlns="http://www.w3.org/2000/svg" width="24" height="24">
  <defs/>
  <path  d="M5.707,3.879 C6.269,3.316 7.032,3 7.828,3 L9.1,3 C9.572,3 9.972,3.297 10.13,3.71 C10.426,4.486 11.17,4.999 12,4.999 C12.83,4.999 13.574,4.486 13.87,3.71 C14.028,3.297 14.428,3 14.9,3 L16.172,3 C16.967,3 17.73,3.317 18.292,3.879 L22,7.586 C22.781,8.367 22.781,9.633 22,10.414 L20.522,11.892 C20.002,12.412 19.276,12.581 18.622,12.418 L18.894,17.85 C18.935,18.671 18.638,19.472 18.072,20.068 C17.505,20.663 16.72,21 15.898,21 L8.102,21 C7.28,21 6.495,20.663 5.928,20.068 C5.362,19.472 5.065,18.671 5.106,17.85 L5.378,12.418 C4.696,12.59 3.975,12.39 3.478,11.892 L2,10.414 C1.219,9.633 1.219,8.367 2,7.586 Z M7.121,5.293 L3.414,9 L4.892,10.478 L5.68,9.426 C6.278,8.629 7.547,9.087 7.497,10.083 L7.104,17.95 C7.09,18.223 7.189,18.49 7.378,18.689 C7.567,18.887 7.828,19 8.102,19 L15.898,19 C16.172,19 16.433,18.887 16.622,18.689 C16.811,18.49 16.91,18.223 16.896,17.95 L16.503,10.083 C16.453,9.087 17.722,8.629 18.32,9.426 L19.108,10.478 L20.586,9 L16.879,5.293 C16.558,4.973 16.115,4.985 15.692,4.996 C15.616,4.998 15.54,5 15.465,5 C14.751,6.238 13.429,7.001 12,7 C10.571,7.001 9.249,6.238 8.535,5 C8.46,5 8.384,4.998 8.307,4.996 C7.884,4.985 7.441,4.973 7.121,5.293 Z"/>
</svg>

