<svg xmlns="http://www.w3.org/2000/svg" width="24" height="24">
  <defs/>
  <path  d="M15,3 C18.226,3 20.875,5.551 20.996,8.775 L21,9 L21,11 C21,11.507 20.62,11.934 20.117,11.993 L20,12 L18,12 L18,19 C18,20.047 17.194,20.917 16.15,20.995 L16,21 L8,21 C6.953,21 6.083,20.194 6.005,19.15 L6,19 L6,12 L4,12 C3.493,12 3.066,11.62 3.007,11.117 L3,11 L3,9 C3,5.774 5.551,3.125 8.775,3.004 L9,3 Z M15.998,5.126 C15.93,7.285 14.16,9 12,9 C9.84,9 8.07,7.285 8.002,5.126 C6.309,5.563 5.095,7.048 5.005,8.794 L5,9 L5,10 L7,10 C7.507,10 7.934,10.38 7.993,10.883 L8,11 L8,19 L16,19 L16,11 C16,10.493 16.38,10.066 16.883,10.007 L17,10 L19,10 L19,9 C19,7.175 17.765,5.582 15.998,5.126 Z M14,5 L10,5 C10,6.105 10.895,7 12,7 C13.105,7 14,6.105 14,5 Z"/>
</svg>

