<svg xmlns="http://www.w3.org/2000/svg" width="24" height="24">
  <defs/>
  <path  d="M10.238,4.827 A3 3 0 0 1 12.36,5.705 L18.845,12.191 A3 3 0 0 1 18.845,16.433 L14.602,20.676 A3 3 0 0 1 10.36,20.676 L3.874,14.191 A3 3 0 0 1 2.996,12.069 L2.996,7.327 A2.5 2.5 0 0 1 5.496,4.827 Z M10.238,6.827 L5.496,6.827 A0.5 0.5 0 0 0 4.996,7.327 L4.996,12.069 A1 1 0 0 0 5.288,12.776 L11.774,19.262 A1 1 0 0 0 13.188,19.262 L17.431,15.019 A1 1 0 0 0 17.431,13.605 L10.945,7.12 A1 1 0 0 0 10.238,6.827 M7.531,9.362 A1.5 1.5 0 1 1 9.652,11.484 A1.5 1.5 0 0 1 7.531,9.362 M11.652,2 A3 3 0 0 1 13.774,2.878 L20.966,10.071 A1 1 0 0 1 19.552,11.485 L12.36,4.29 A1 1 0 0 0 11.652,4 L7,4 A1 1 0 0 1 7,2 Z"/>
</svg>

