<svg xmlns="http://www.w3.org/2000/svg" width="24" height="24">
  <defs/>
  <path  d="M10.238,4.827 A3 3 0 0 1 12.36,5.706 L18.845,12.191 A3 3 0 0 1 18.845,16.434 L14.602,20.676 A3 3 0 0 1 10.36,20.676 L3.874,14.191 A3 3 0 0 1 2.996,12.07 L2.996,7.327 A2.5 2.5 0 0 1 5.496,4.827 Z M9.652,9.363 A1.5 1.5 0 1 0 7.532,11.483 A1.5 1.5 0 0 0 9.652,9.363 M11.652,1.999 A3 3 0 0 1 13.629,2.742 L13.774,2.877 L20.966,10.07 A1 1 0 0 1 19.646,11.567 L19.552,11.484 L12.36,4.29 A1 1 0 0 0 11.784,4.006 L11.652,4 L7,4 A1 1 0 0 1 6.883,2.006 L7,2 Z"/>
</svg>

