<svg xmlns="http://www.w3.org/2000/svg" width="24" height="24">
  <defs/>
  <path  d="M2.467,7.17 C2.235,6.705 2.26,6.153 2.534,5.711 C2.807,5.269 3.29,5 3.81,5 L16.765,5 C17.901,5 18.94,5.642 19.448,6.658 L21.448,10.658 C21.871,11.503 21.871,12.497 21.448,13.342 L19.448,17.342 C18.94,18.358 17.9,19 16.764,19 L3.809,19 C3.289,19 2.807,18.731 2.533,18.289 C2.26,17.847 2.235,17.295 2.467,16.83 L4.658,12.447 C4.799,12.166 4.799,11.834 4.658,11.553 Z M4.618,7 L6.448,10.658 C6.871,11.503 6.871,12.497 6.448,13.342 L4.617,17 L16.763,17 C17.142,17 17.488,16.786 17.657,16.447 L19.657,12.447 C19.798,12.166 19.798,11.834 19.657,11.553 L17.657,7.553 C17.488,7.215 17.142,7.001 16.764,7 Z"/>
</svg>

