<svg xmlns="http://www.w3.org/2000/svg" width="24" height="24">
  <defs/>
  <path  d="M10.537,2.164 C11.353,2.09 12.164,2.352 12.781,2.891 L12.931,3.031 L20.753,10.854 C21.87,11.971 21.929,13.764 20.888,14.952 L20.753,15.096 L15.096,20.753 C13.979,21.87 12.186,21.929 10.998,20.888 L10.854,20.753 L3.03,12.93 C2.451,12.351 2.134,11.561 2.152,10.742 L2.163,10.537 L2.635,5.352 C2.76,3.977 3.807,2.864 5.172,2.657 L5.351,2.636 Z M8.024,8.025 C7.243,8.806 7.243,10.073 8.024,10.854 C8.805,11.635 10.072,11.635 10.853,10.854 C11.634,10.073 11.634,8.806 10.853,8.025 C10.072,7.244 8.805,7.244 8.024,8.025 Z"/>
</svg>

