<svg xmlns="http://www.w3.org/2000/svg" width="24" height="24">
  <defs/>
  <path  d="M10.537,2.164 C11.353,2.09 12.164,2.352 12.781,2.891 L12.931,3.031 L20.753,10.854 C21.87,11.971 21.929,13.764 20.888,14.952 L20.753,15.096 L15.096,20.753 C13.979,21.87 12.186,21.929 10.998,20.888 L10.854,20.753 L3.03,12.93 C2.451,12.351 2.134,11.561 2.152,10.742 L2.163,10.537 L2.635,5.352 C2.76,3.977 3.807,2.864 5.172,2.657 L5.351,2.636 Z M10.845,4.153 L10.718,4.156 L5.533,4.628 C5.097,4.667 4.737,4.986 4.645,5.415 L4.628,5.533 L4.156,10.718 C4.133,10.97 4.207,11.221 4.362,11.421 L4.445,11.516 L12.268,19.339 C12.624,19.695 13.19,19.731 13.588,19.422 L13.682,19.339 L19.339,13.682 C19.695,13.326 19.731,12.76 19.422,12.362 L19.339,12.268 L11.516,4.445 C11.337,4.266 11.098,4.162 10.845,4.153 Z M7.317,7.318 C8.489,6.146 10.388,6.146 11.56,7.318 C12.732,8.49 12.732,10.389 11.56,11.561 C10.388,12.733 8.489,12.733 7.317,11.561 C6.145,10.389 6.145,8.49 7.317,7.318 Z M10.146,8.732 C9.756,8.341 9.122,8.341 8.731,8.731 C8.341,9.122 8.341,9.755 8.731,10.146 C9.121,10.537 9.755,10.537 10.146,10.146 C10.536,9.756 10.536,9.123 10.146,8.732 Z"/>
</svg>

