<svg xmlns="http://www.w3.org/2000/svg" width="24" height="24">
  <defs/>
  <path  d="M12,1 C12.552,1 13,1.448 13,2 L13,3 L14.5,3 C15.109,3 15.586,3.564 15.486,4.164 L15.178,6.016 C15.738,6.117 16.108,6.689 15.97,7.243 L15.28,10 L15.5,10 C16.14,10 16.625,10.621 16.47,11.242 L15.53,15 L16,15 C16.64,15 17.125,15.621 16.97,16.242 L15.78,21 L16,21 C16.552,21 17,21.448 17,22 C17,22.552 16.552,23 16,23 L8,23 C7.448,23 7,22.552 7,22 C7,21.448 7.448,21 8,21 L8.22,21 L7.03,16.243 C6.959,15.945 7.028,15.63 7.216,15.389 C7.405,15.147 7.693,15.004 8,15 L8.47,15 L7.53,11.242 C7.46,10.944 7.528,10.63 7.717,10.388 C7.906,10.147 8.194,10.004 8.5,10 L8.72,10 L8.03,7.243 C7.966,6.975 8.014,6.692 8.164,6.46 C8.313,6.228 8.551,6.068 8.822,6.016 L8.514,4.164 C8.414,3.564 8.89,3 9.5,3 L11,3 L11,2 C11,1.448 11.448,1 12,1 Z M14.72,17 L9.28,17 L10.28,21 L13.72,21 Z M9.78,12 C9.833,12.208 9.897,12.423 9.966,12.644 L10.176,13.317 C10.35,13.885 10.5,14.463 10.5,15 L13.5,15 C13.5,14.463 13.65,13.885 13.823,13.317 L14.034,12.644 C14.103,12.424 14.167,12.208 14.219,12 L9.78,12 Z M13.72,8 L10.28,8 L10.78,10 L13.22,10 Z M10.68,5 L10.847,6 L13.153,6 L13.319,5 L10.68,5 Z"/>
</svg>

