<svg xmlns="http://www.w3.org/2000/svg" width="24" height="24">
  <defs/>
  <path  d="M12,2 C12.426,2 12.805,2.27 12.945,2.672 L12.976,2.783 C13.126,3.461 13.564,3.799 14.12,4.096 L14.563,4.321 C15.207,4.642 16.051,5.099 16.768,5.959 C17.559,6.893 17.996,8.076 18,9.3 C18,10.097 17.815,10.855 17.484,11.537 C17.416,11.671 17.34,11.8 17.254,11.923 L17,12.296 L17,19 L19,19 L19,14 C19,13.883 19.02,13.77 19.057,13.666 C18.705,13.382 18.5,12.953 18.5,12.5 C18.5,12.19 18.64,11.69 18.843,11.187 L18.986,10.853 C19.312,10.137 19.729,9.5 20,9.5 C20.27,9.5 20.688,10.137 21.014,10.853 L21.157,11.187 C21.359,11.69 21.5,12.189 21.5,12.5 C21.5,12.971 21.283,13.392 20.943,13.666 C20.968,13.736 20.985,13.809 20.993,13.885 L21,14 L21,19 C21.529,19.001 21.966,19.413 21.997,19.941 C22.028,20.47 21.642,20.931 21.117,20.993 L21,21 L3,21 C2.471,20.999 2.034,20.587 2.003,20.059 C1.972,19.53 2.358,19.069 2.883,19.007 L3,19 L3,14 C3,13.883 3.02,13.77 3.057,13.666 C2.705,13.382 2.5,12.953 2.5,12.5 C2.5,12.19 2.64,11.69 2.843,11.187 L2.986,10.853 C3.312,10.137 3.729,9.5 4,9.5 C4.27,9.5 4.688,10.137 5.014,10.853 L5.157,11.187 C5.359,11.69 5.5,12.189 5.5,12.5 C5.5,12.971 5.283,13.392 4.943,13.666 C4.968,13.736 4.985,13.809 4.993,13.885 L5,14 L5,19 L7,19 L7,12.296 L6.746,11.923 C6.66,11.8 6.584,11.671 6.516,11.537 C6.176,10.84 6,10.075 6,9.3 C6,8.035 6.466,6.877 7.232,5.96 C7.889,5.172 8.652,4.723 9.271,4.406 L9.592,4.245 C10.232,3.928 10.766,3.622 10.98,2.945 L11.024,2.783 C11.126,2.326 11.531,2 12,2 Z M12,5.05 C11.61,5.433 11.139,5.702 10.657,5.95 L10.415,6.072 C9.77,6.397 9.255,6.658 8.767,7.241 C8.276,7.815 8.004,8.545 8,9.3 C8,9.859 8.156,10.34 8.422,10.803 L8.543,11 L15.457,11 C15.797,10.477 16,9.939 16,9.3 C16,8.54 15.722,7.827 15.232,7.24 C14.799,6.72 14.342,6.457 13.793,6.177 L13.583,6.07 C13.02,5.787 12.455,5.496 12,5.05 Z M15,13 L9,13 L9,19 L11,19 L11,16.5 C11,16 11.75,15 12,15 C12.25,15 13,16 13,16.5 L13,19 L15,19 Z"/>
</svg>

