<svg xmlns="http://www.w3.org/2000/svg" width="24" height="24">
  <defs/>
  <path  d="M7,7 C7,5.343 8.343,4 10,4 L11.53,4 C13.518,4 15.318,5.178 16.114,7 L20,7 C20.552,7 21,7.448 21,8 C21,8.552 20.552,9 20,9 L16.582,9 L16.867,11 L17.5,11 C19.985,11 22,13.015 22,15.5 C22,17.985 19.985,20 17.5,20 L6.5,20 C4.015,20 2,17.985 2,15.5 C2,13.015 4.015,11 6.5,11 L7,11 Z M6.5,13 C5.119,13 4,14.119 4,15.5 C4,16.881 5.119,18 6.5,18 L17.5,18 C18.881,18 20,16.881 20,15.5 C20,14.119 18.881,13 17.5,13 Z M14.5,8.576 C14.289,7.098 13.023,6 11.53,6 L10,6 C9.448,6 9,6.448 9,7 L9,11 L14.848,11 Z"/>
</svg>

