<svg xmlns="http://www.w3.org/2000/svg" width="24" height="24">
  <defs/>
  <path  d="M12,2 C12.896,2 13.764,2.118 14.59,2.339 L12.464,4.464 A3 3 0 0 0 12.04,5 L12,5 A7 7 0 1 0 19,12 L19,11.96 C19.192,11.84 19.372,11.699 19.535,11.535 L21.661,9.41 C21.882,10.236 22,11.104 22,12 C22,17.523 17.523,22 12,22 C6.477,22 2,17.523 2,12 C2,6.477 6.477,2 12,2 M11.586,7.017 C11.586,7.868 11.544,8.731 11.59,9.581 L11.05,10.121 A2 2 0 1 0 13.879,12.95 L14.419,12.41 C15.269,12.456 16.131,12.414 16.983,12.414 A5 5 0 1 1 11.586,7.017 M18.504,2.127 A1 1 0 0 1 19.121,3.05 L19.121,4.88 L20.95,4.88 A1 1 0 0 1 21.657,6.587 L18.12,10.12 A1 1 0 0 1 17.413,10.413 L15,10.413 L13.172,12.242 A1 1 0 0 1 11.757,10.827 L13.586,9 L13.586,6.586 A1 1 0 0 1 13.879,5.878 L17.414,2.343 A1 1 0 0 1 18.504,2.126"/>
</svg>

