<svg xmlns="http://www.w3.org/2000/svg" width="24" height="24">
  <defs/>
  <path  d="M12,2 C12.375,2 12.745,2.02 13.11,2.061 A1 1 0 0 1 12.89,4.049 A8 8 0 1 0 19.951,11.11 A1 1 0 1 1 21.939,10.89 C21.979,11.255 22,11.625 22,12 C22,17.523 17.523,22 12,22 C6.477,22 2,17.523 2,12 C2,6.477 6.477,2 12,2 M11.968,7.877 A1 1 0 0 1 11.249,9.094 A3.002 3.002 0 0 0 12,15 A3.002 3.002 0 0 0 14.906,12.75 A1 1 0 0 1 16.842,13.25 A5.002 5.002 0 0 1 7,12 A5.002 5.002 0 0 1 10.75,7.158 A1 1 0 0 1 11.968,7.877 M18.504,2.127 A1 1 0 0 1 19.121,3.05 L19.121,4.88 L20.95,4.88 A1 1 0 0 1 21.657,6.587 L18.12,10.12 A1 1 0 0 1 17.413,10.413 L15,10.413 L13.172,12.242 A1 1 0 0 1 11.757,10.827 L13.586,9 L13.586,6.586 A1 1 0 0 1 13.879,5.879 L17.414,2.343 A1 1 0 0 1 18.504,2.126 M17.121,5.463 L15.586,7 L15.586,8.414 L17,8.414 L18.536,6.879 L18.121,6.879 A1 1 0 0 1 17.121,5.879 Z"/>
</svg>

