<svg xmlns="http://www.w3.org/2000/svg" width="24" height="24">
  <defs/>
  <path  d="M15,2 C15.715,2 16.375,2.381 16.732,3 L18,3 C19.105,3 20,3.895 20,5 L20,17 C20,19.761 17.761,22 15,22 L6,22 C4.895,22 4,21.105 4,20 L4,5 C4,3.895 4.895,3 6,3 L7.268,3 C7.625,2.381 8.285,2 9,2 Z M14.824,9.379 L10.582,13.622 L9.167,12.207 C8.775,11.828 8.151,11.833 7.765,12.219 C7.379,12.605 7.374,13.229 7.753,13.621 L9.803,15.672 C10.233,16.102 10.929,16.102 11.359,15.672 L16.239,10.793 C16.629,10.402 16.629,9.769 16.239,9.378 C15.848,8.988 15.214,8.988 14.824,9.379 Z M14.5,4 L9.5,4 C9.259,4 9.051,4.172 9.008,4.41 L9,4.5 L9,5.5 C9,5.741 9.172,5.949 9.41,5.992 L9.5,6 L14.5,6 C14.741,6 14.949,5.828 14.992,5.59 L15,5.5 L15,4.5 C15,4.259 14.828,4.051 14.59,4.008 Z"/>
</svg>

