<svg xmlns="http://www.w3.org/2000/svg" width="24" height="24">
  <defs/>
  <path  d="M9.354,3 C10.059,2.378 10.986,2 12,2 C13.014,2 13.94,2.378 14.646,3 L18,3 C19.105,3 20,3.895 20,5 L20,20 C20,21.105 19.105,22 18,22 L6,22 C4.895,22 4,21.105 4,20 L4,5 C4,3.895 4.895,3 6,3 Z M8.126,5 L6,5 L6,20 L18,20 L18,5 L15.874,5 C15.956,5.32 16,5.655 16,6 L16,7 C16,7.552 15.552,8 15,8 L9,8 C8.448,8 8,7.552 8,7 L8,6 C8,5.655 8.044,5.32 8.126,5 Z M8,11 C8,10.448 8.448,10 9,10 L15,10 C15.552,10 16,10.448 16,11 C16,11.552 15.552,12 15,12 L9,12 C8.448,12 8,11.552 8,11 Z M8,15 C8,14.448 8.448,14 9,14 L12,14 C12.552,14 13,14.448 13,15 C13,15.552 12.552,16 12,16 L9,16 C8.448,16 8,15.552 8,15 Z M12,4 C10.895,4 10,4.895 10,6 L14,6 C14,4.895 13.105,4 12,4 Z"/>
</svg>

