<svg xmlns="http://www.w3.org/2000/svg" width="24" height="24">
  <defs/>
  <path  d="M7.416,3 C7.141,3.631 6.999,4.312 7,5 C7,6.105 7.895,7 9,7 L15,7 C16.105,7 17,6.105 17,5 C17,4.289 16.852,3.612 16.584,3 L18,3 C19.105,3 20,3.895 20,5 L20,20 C20,21.105 19.105,22 18,22 L6,22 C4.895,22 4,21.105 4,20 L4,5 C4,3.895 4.895,3 6,3 Z M15,10 L9,10 C8.471,10.001 8.034,10.413 8.003,10.941 C7.972,11.47 8.358,11.931 8.883,11.993 L9,12 L15,12 C15.552,12 16,11.552 16,11 C16,10.448 15.552,10 15,10 Z M12,2 C12.854,1.999 13.668,2.363 14.236,3 C14.664,3.478 14.94,4.093 14.991,4.772 L15,5 L9,5 C9,4.275 9.257,3.61 9.685,3.092 L9.764,3 C10.314,2.386 11.112,2 12,2 Z M12,14 L9,14 C8.448,14 8,14.448 8,15 C8,15.552 8.448,16 9,16 L12,16 C12.552,16 13,15.552 13,15 C13,14.448 12.552,14 12,14 Z"/>
</svg>

