<svg xmlns="http://www.w3.org/2000/svg" width="24" height="24">
  <defs/>
  <path  d="M15,2 C15.715,2 16.375,2.381 16.732,3 L18,3 C19.105,3 20,3.895 20,5 L20,17 C20,19.761 17.761,22 15,22 L6,22 C4.895,22 4,21.105 4,20 L4,5 C4,3.895 4.895,3 6,3 L7.268,3 C7.625,2.381 8.285,2 9,2 Z M7,5 L6,5 L6,20 L15,20 C16.657,20 18,18.657 18,17 L18,5 L17,5 C17,6.105 16.105,7 15,7 L9,7 C7.895,7 7,6.105 7,5 Z M16.238,9.379 C16.628,9.769 16.628,10.403 16.238,10.793 L11.288,15.743 C10.898,16.133 10.264,16.133 9.874,15.743 L7.754,13.621 C7.384,13.227 7.394,12.612 7.776,12.23 C8.157,11.848 8.773,11.838 9.167,12.207 L10.582,13.621 L14.824,9.379 C15.214,8.989 15.847,8.989 16.238,9.379 Z M15,4 L9,4 L9,5 L15,5 Z"/>
</svg>

