<svg xmlns="http://www.w3.org/2000/svg" width="24" height="24">
  <defs/>
  <path  d="M18,2 C20.209,2 22,3.791 22,6 L22,18 C22,20.209 20.209,22 18,22 L6,22 C3.791,22 2,20.209 2,18 L2,6 C2,3.791 3.791,2 6,2 Z M18,5.667 C17.243,5.667 16.642,5.94 16.146,6.243 C15.986,6.341 15.828,6.447 15.678,6.551 L15.458,6.705 C15.231,6.866 15.023,7.013 14.799,7.155 L14.724,7.2 L14.554,7.287 C14.094,7.501 13.353,7.667 12,7.667 C10.647,7.667 9.905,7.501 9.445,7.287 L9.275,7.2 C9.25,7.185 9.225,7.17 9.201,7.154 L8.873,6.938 L8.547,6.71 C8.329,6.555 8.095,6.39 7.854,6.243 C7.358,5.94 6.757,5.667 6,5.667 C5.471,5.668 5.034,6.08 5.003,6.608 C4.972,7.137 5.358,7.598 5.883,7.66 L6,7.667 C6.243,7.667 6.476,7.744 6.812,7.95 L6.945,8.034 L7.231,8.229 L7.749,8.592 C7.87,8.675 7.999,8.761 8.133,8.845 C8.259,8.925 8.391,8.999 8.53,9.067 C7.062,10.482 6.6,12.647 7.363,14.538 C8.126,16.429 9.961,17.667 12,17.667 C14.039,17.667 15.874,16.429 16.637,14.538 C17.4,12.647 16.938,10.482 15.47,9.067 C15.609,8.999 15.74,8.925 15.867,8.845 C16.001,8.761 16.13,8.675 16.251,8.592 L16.916,8.127 C17.012,8.062 17.1,8.003 17.188,7.95 C17.476,7.774 17.688,7.691 17.896,7.672 L18,7.667 C18.552,7.667 19,7.219 19,6.667 C19,6.115 18.552,5.667 18,5.667 Z M12,9.667 C13.657,9.667 15,11.01 15,12.667 C15,14.324 13.657,15.667 12,15.667 C10.343,15.667 9,14.324 9,12.667 C9,11.01 10.343,9.667 12,9.667 Z"/>
</svg>

