<svg xmlns="http://www.w3.org/2000/svg" width="24" height="24">
  <defs/>
  <path  d="M3,3 C4.007,3 4.816,3.361 5.521,3.791 C5.865,4.006 6.201,4.233 6.53,4.471 L6.537,4.476 C6.866,4.709 7.187,4.935 7.534,5.154 C8.3,5.638 9.528,6 12,6 C14.472,6 15.7,5.638 16.466,5.154 C16.813,4.936 17.133,4.709 17.463,4.476 L17.47,4.471 C17.793,4.243 18.133,4.003 18.479,3.791 C19.184,3.36 19.993,3 21,3 C21.552,3 22,3.448 22,4 C22,4.552 21.552,5 21,5 C20.507,5 20.066,5.166 19.521,5.498 C19.242,5.669 18.957,5.869 18.624,6.105 L18.602,6.12 C18.283,6.346 17.925,6.598 17.533,6.846 C17.134,7.095 16.708,7.297 16.263,7.448 C18.641,9.274 19.592,12.412 18.628,15.251 C17.663,18.09 14.998,20 12,20 C9.001,20 6.336,18.09 5.371,15.251 C4.407,12.412 5.358,9.274 7.736,7.448 C7.262,7.284 6.843,7.084 6.466,6.846 C6.075,6.598 5.718,6.346 5.398,6.12 L5.376,6.105 C5.043,5.869 4.758,5.668 4.479,5.498 C3.934,5.166 3.493,5 3,5 C2.448,5 2,4.552 2,4 C2,3.448 2.448,3 3,3 Z M7,13 C7,15.761 9.239,18 12,18 C14.761,18 17,15.761 17,13 C17,10.239 14.761,8 12,8 C9.239,8 7,10.239 7,13 Z"/>
</svg>

