<svg xmlns="http://www.w3.org/2000/svg" width="24" height="24">
  <defs/>
  <path  d="M19.777,4.43 C20.28,4.218 20.859,4.297 21.288,4.635 C21.716,4.973 21.928,5.517 21.839,6.056 L19.571,19.813 C19.351,21.14 17.895,21.901 16.678,21.24 C15.66,20.687 14.148,19.835 12.788,18.946 C12.108,18.501 10.025,17.076 10.281,16.062 C10.501,15.195 14.001,11.937 16.001,10 C16.786,9.239 16.428,8.8 15.501,9.5 C13.199,11.238 9.503,13.881 8.281,14.625 C7.203,15.281 6.641,15.393 5.969,15.281 C4.743,15.077 3.606,14.761 2.678,14.376 C1.424,13.856 1.485,12.132 2.677,11.63 Z"/>
</svg>

