<svg xmlns="http://www.w3.org/2000/svg" width="24" height="24">
  <defs/>
  <path  d="M16.611,3.353 C17.515,2.831 18.669,3.092 19.26,3.953 L19.343,4.085 L21.843,8.415 C22.365,9.319 22.104,10.473 21.243,11.064 L21.111,11.147 L15.915,14.147 C15.43,14.427 14.875,14.481 14.375,14.341 L14.211,14.287 L16.919,20.607 C17.124,21.093 16.916,21.655 16.444,21.89 C15.972,22.126 15.398,21.954 15.133,21.498 L15.081,21.394 L13,16.539 L10.92,21.394 C10.715,21.886 10.159,22.13 9.658,21.949 C9.156,21.768 8.885,21.226 9.041,20.716 L9.081,20.606 L11.17,15.732 L9.353,16.782 C8.728,17.143 7.957,17.139 7.336,16.772 L7.231,16.846 L7.121,16.915 L5.389,17.915 C4.485,18.437 3.331,18.176 2.74,17.315 L2.657,17.183 L2.157,16.317 C1.635,15.413 1.896,14.259 2.757,13.668 L2.889,13.585 L4.621,12.585 C4.696,12.542 4.773,12.503 4.853,12.47 C4.847,11.809 5.167,11.188 5.709,10.81 L5.853,10.719 L10.183,8.219 C10.258,8.176 10.335,8.137 10.415,8.104 C10.409,7.443 10.729,6.822 11.271,6.444 L11.415,6.353 Z M17.611,5.085 L12.415,8.085 L14.915,12.415 L20.111,9.415 Z M11.183,9.951 L6.853,12.451 L8.353,15.049 L12.683,12.549 Z M5.621,14.317 L3.889,15.317 L4.389,16.183 L6.121,15.183 Z"/>
</svg>

