<svg xmlns="http://www.w3.org/2000/svg" width="24" height="24">
  <defs/>
  <path  d="M8.5,3 C9.881,3 11,4.119 11,5.5 L11,7 L13,7 L13,5.5 C13,4.183 14.022,3.091 15.336,3.005 L15.559,3 C16.85,3 17.996,3.826 18.404,5.051 L21.606,14.656 C22.357,16.331 22.016,18.294 20.743,19.617 C19.471,20.94 17.522,21.357 15.82,20.672 C14.117,19.986 13.001,18.336 13,16.5 L13,9 L11,9 L11,16.5 C10.999,18.336 9.883,19.986 8.18,20.672 C6.478,21.357 4.529,20.94 3.257,19.617 C1.984,18.294 1.643,16.331 2.394,14.656 L5.595,5.051 C5.982,3.89 7.036,3.081 8.258,3.006 Z M6.5,14 C5.545,14 4.673,14.544 4.253,15.402 C4.131,15.768 4,16.109 4,16.5 C4,17.881 5.119,19 6.5,19 C7.881,19 9,17.881 9,16.5 C9,15.119 7.881,14 6.5,14 Z M17.5,14 C16.119,14 15,15.119 15,16.5 C15,17.881 16.119,19 17.5,19 C18.881,19 20,17.881 20,16.5 C20,16.11 19.869,15.768 19.747,15.402 C19.327,14.544 18.455,14 17.5,14 Z M15.559,5 L15.558,5 C15.266,5 15,5.183 15,5.5 L15,12.758 C16.077,12.039 17.412,11.818 18.663,12.152 L16.507,5.684 C16.371,5.276 15.989,5 15.559,5 Z M8.5,5 C8.05,5 7.64,5.243 7.493,5.684 L5.337,12.152 C6.588,11.818 7.923,12.039 9,12.758 L9,5.5 C9,5.224 8.776,5 8.5,5 Z"/>
</svg>

