<svg xmlns="http://www.w3.org/2000/svg" width="24" height="24">
  <defs/>
  <path  d="M21.84,6.056 L19.57,19.813 C19.352,21.14 17.895,21.9 16.678,21.24 C15.66,20.686 14.149,19.835 12.787,18.945 C12.107,18.501 11.449,18.038 10.902,17.588 C10.544,17.294 10.193,16.972 9.914,16.638 C8.893,16.537 7.619,16.18 6.451,15.794 C5.177,15.366 3.918,14.893 2.677,14.376 C1.424,13.856 1.485,12.132 2.677,11.63 L19.777,4.43 C20.28,4.218 20.859,4.296 21.288,4.634 C21.718,4.972 21.929,5.517 21.84,6.056 Z M19.718,6.625 L4.596,12.992 C5.415,13.315 6.242,13.616 7.077,13.894 C8.199,14.264 9.221,14.536 9.955,14.63 L14.292,10.293 C14.683,9.903 15.316,9.903 15.707,10.293 C16.097,10.684 16.097,11.318 15.706,11.708 L11.745,15.668 C11.883,15.798 12.025,15.922 12.171,16.042 C12.719,16.481 13.289,16.892 13.88,17.271 C15.162,18.109 16.601,18.922 17.6,19.465 L19.718,6.625 Z"/>
</svg>

