<svg xmlns="http://www.w3.org/2000/svg" width="24" height="24">
  <defs/>
  <path  d="M14.21,14.287 A1.999 1.999 0 0 0 15.915,14.147 L21.111,11.147 A2 2 0 0 0 21.843,8.415 L19.343,4.085 A2 2 0 0 0 16.611,3.353 L11.415,6.353 A2 2 0 0 0 10.415,8.104 A2.018 2.018 0 0 0 10.183,8.219 L5.853,10.719 A2 2 0 0 0 4.853,12.47 A2.005 2.005 0 0 0 4.621,12.585 L2.889,13.585 A2 2 0 0 0 2.157,16.317 L2.657,17.183 A2 2 0 0 0 5.389,17.915 L7.121,16.915 C7.197,16.871 7.268,16.823 7.336,16.772 A2 2 0 0 0 9.353,16.782 L11.17,15.732 L9.08,20.606 A1 1 0 1 0 10.92,21.394 L13,16.539 L15.08,21.394 A1 1 0 0 0 16.92,20.606 Z"/>
</svg>

