<svg xmlns="http://www.w3.org/2000/svg" width="24" height="24">
  <defs/>
  <path  d="M12,2 C12.552,2 13,2.448 13,3 C13,4.372 14.009,5.146 15.13,5.7 L15.47,5.86 L15.81,6.008 L17.03,6.505 L17.325,6.63 L17.62,6.768 C18.349,7.13 19,7.64 19,8.5 C19,8.994 18.802,9.38 18.53,9.68 L18.98,9.808 L19.3,9.908 L19.63,10.022 C20.79,10.444 22,11.144 22,12.427 C22,13.625 20.866,14.352 19.885,14.773 L19.145,19.216 C19.008,20.036 18.535,21.008 17.457,21.366 L17.327,21.408 L17.045,21.491 L16.891,21.531 L16.555,21.61 L16.374,21.648 L15.981,21.721 L15.549,21.787 C15.322,21.819 15.079,21.848 14.82,21.874 L14.278,21.921 L13.99,21.941 L13.377,21.973 L12.714,21.993 C12.238,22.002 11.762,22.002 11.286,21.993 L10.623,21.973 L10.01,21.941 C9.914,21.935 9.818,21.928 9.722,21.921 L9.18,21.874 C8.936,21.85 8.693,21.821 8.451,21.787 L8.019,21.721 L7.626,21.648 L7.272,21.571 C7.218,21.558 7.163,21.545 7.109,21.531 L6.809,21.45 C6.72,21.424 6.631,21.396 6.543,21.367 C5.465,21.008 4.993,20.035 4.856,19.217 L4.115,14.773 C3.133,14.353 2,13.625 2,12.427 C2,11.144 3.21,10.444 4.37,10.022 L4.7,9.908 L5.02,9.808 L5.47,9.68 C5.168,9.362 4.999,8.939 5,8.5 C5,7.64 5.651,7.13 6.38,6.768 L6.675,6.63 L6.969,6.505 L8.021,6.079 L8.36,5.935 L8.53,5.859 L8.87,5.699 C9.935,5.174 10.899,4.449 10.993,3.201 L11,3 C11,2.448 11.448,2 12,2 Z M12,5.828 C11.348,6.621 10.515,7.11 9.947,7.394 C9.085,7.825 8.171,8.134 7.305,8.553 C7.701,8.73 8.319,8.891 9.143,9.01 C9.636,9.081 10.001,9.503 10.001,10.001 C10,10.499 9.634,10.92 9.141,10.99 C7.417,11.236 6.003,11.55 5.043,11.915 C4.559,12.1 4.253,12.274 4.086,12.413 C4.053,12.44 4.156,12.511 4.329,12.601 L4.564,12.718 L4.838,12.843 L5.269,13.029 L5.743,13.222 L5.911,13.285 C7.427,13.718 9.58,14 12,14 C14.268,14 16.302,13.752 17.797,13.364 L18.089,13.284 C18.706,13.109 19.465,12.9 19.941,12.436 C19.665,12.192 19.296,12.044 18.957,11.916 C17.997,11.55 16.583,11.236 14.859,10.99 C14.366,10.92 14,10.499 13.999,10.001 C13.999,9.503 14.364,9.081 14.857,9.01 C15.681,8.891 16.299,8.73 16.695,8.553 C15.829,8.134 14.915,7.825 14.053,7.394 C13.485,7.11 12.653,6.621 12,5.828 Z M17.747,15.433 C16.133,15.793 14.138,16 12,16 C10.04,16 8.2,15.826 6.664,15.52 L6.253,15.433 L6.828,18.887 C6.863,19.097 6.946,19.393 7.175,19.469 L7.383,19.534 L7.63,19.6 L7.77,19.633 L8.081,19.699 C8.137,19.71 8.194,19.721 8.254,19.731 L8.635,19.793 L9.066,19.85 C9.446,19.895 9.881,19.933 10.376,19.96 L11,19.985 L11,18 C11.001,17.471 11.413,17.034 11.941,17.003 C12.47,16.972 12.931,17.358 12.993,17.883 L13,18 L13,19.985 L13.624,19.959 C14.119,19.933 14.554,19.895 14.934,19.85 L15.364,19.793 L15.746,19.731 C15.806,19.721 15.863,19.711 15.919,19.699 L16.23,19.633 L16.499,19.567 L16.726,19.501 C16.759,19.491 16.793,19.48 16.826,19.469 C17.026,19.403 17.114,19.167 17.156,18.969 Z"/>
</svg>

