<svg xmlns="http://www.w3.org/2000/svg" width="24" height="24">
  <defs/>
  <path  d="M19.705,15.854 L19.145,19.216 C19.008,20.036 18.535,21.008 17.457,21.366 L17.173,21.455 L17.018,21.498 L16.676,21.583 C16.435,21.638 16.166,21.691 15.867,21.739 L15.395,21.809 C14.733,21.895 13.943,21.959 13,21.986 L13,20 A1 1 0 1 0 11,20 L11,21.986 A23.775 23.775 0 0 1 8.605,21.808 L8.133,21.739 C7.833,21.691 7.565,21.639 7.323,21.583 L6.983,21.498 L6.68,21.411 A7.112 7.112 0 0 1 6.543,21.367 C5.465,21.008 4.993,20.035 4.856,19.217 L4.296,15.854 C4.668,16 5.037,16.115 5.361,16.208 C7.102,16.706 9.45,17 12,17 C14.55,17 16.898,16.706 18.639,16.208 A12.16 12.16 0 0 0 19.705,15.854 M12,2 A1 1 0 0 1 13,3 C13,4.39 14.01,5.137 14.947,5.606 C15.245,5.755 15.562,5.885 15.885,6.011 L16.535,6.262 C17.184,6.518 17.822,6.798 18.345,7.227 C18.647,7.473 19,7.89 19,8.5 C19,8.994 18.802,9.38 18.53,9.68 L18.98,9.808 L19.3,9.908 L19.63,10.022 C20.79,10.444 22,11.144 22,12.427 C22,13.616 20.952,14.334 19.877,14.784 L19.554,14.911 C19.501,14.931 19.448,14.951 19.394,14.969 L19.081,15.074 L18.781,15.166 L18.639,15.208 C16.898,15.706 14.55,16 12,16 C9.619,16 7.416,15.743 5.717,15.305 L5.218,15.166 L4.918,15.074 L4.605,14.969 A9.887 9.887 0 0 1 4.445,14.911 L4.123,14.784 C3.048,14.334 2,13.616 2,12.427 C2,11.144 3.21,10.444 4.37,10.022 L4.7,9.908 L5.02,9.808 L5.47,9.68 A1.71 1.71 0 0 1 5,8.5 C5,7.89 5.353,7.473 5.654,7.227 C6.176,6.8 6.814,6.519 7.463,6.264 L8.113,6.012 C8.436,5.886 8.753,5.755 9.053,5.606 C9.943,5.161 10.899,4.463 10.993,3.204 L11,3 A1 1 0 0 1 12,2"/>
</svg>

