<svg xmlns="http://www.w3.org/2000/svg" width="24" height="24">
  <defs/>
  <path  d="M19,3 C20.105,3 21,3.895 21,5 L21,19 C21,20.105 20.105,21 19,21 L5,21 C3.895,21 3,20.105 3,19 L3,5 C3,3.895 3.895,3 5,3 Z M9.05,8.465 C8.677,8.093 8.078,8.075 7.683,8.423 C7.287,8.772 7.23,9.368 7.553,9.785 L7.636,9.879 L9.757,12 L7.637,14.121 C7.261,14.494 7.24,15.095 7.59,15.493 C7.941,15.89 8.54,15.945 8.957,15.619 L9.05,15.536 L11.879,12.707 C12.235,12.351 12.271,11.785 11.962,11.387 L11.879,11.293 Z M16,14 L14,14 C13.448,14 13,14.448 13,15 C13,15.552 13.448,16 14,16 L16,16 C16.552,16 17,15.552 17,15 C17,14.448 16.552,14 16,14 Z"/>
</svg>

