<svg xmlns="http://www.w3.org/2000/svg" width="24" height="24">
  <defs/>
  <path  d="M12,2 C17.523,2 22,6.477 22,12 C22,17.523 17.523,22 12,22 C6.477,22 2,17.523 2,12 C2,6.477 6.477,2 12,2 Z M12,4 C7.582,4 4,7.582 4,12 C4,16.418 7.582,20 12,20 C16.418,20 20,16.418 20,12 C20,7.582 16.418,4 12,4 Z M12,11 C13.657,11 15,12.343 15,14 L15,15 C15,16.657 13.657,18 12,18 C10.343,18 9,16.657 9,15 L9,14 C9,12.343 10.343,11 12,11 Z M10.005,7.656 C10.498,8.148 10.494,8.802 10.385,9.239 C10.27,9.699 10.002,10.134 9.652,10.484 C9.302,10.834 8.867,11.102 8.407,11.217 C7.97,11.326 7.316,11.33 6.823,10.837 C6.331,10.345 6.335,9.691 6.444,9.254 C6.559,8.794 6.827,8.359 7.177,8.009 C7.527,7.659 7.962,7.391 8.422,7.276 C8.859,7.167 9.512,7.163 10.005,7.656 Z M13.995,7.656 C14.487,7.163 15.141,7.167 15.578,7.276 C16.038,7.391 16.473,7.659 16.823,8.009 C17.173,8.359 17.441,8.794 17.556,9.254 C17.666,9.691 17.669,10.345 17.176,10.838 C16.684,11.33 16.03,11.326 15.593,11.217 C15.133,11.102 14.698,10.834 14.348,10.484 C13.998,10.134 13.73,9.699 13.616,9.239 C13.506,8.802 13.502,8.148 13.995,7.656 Z M12,13 C11.448,13 11,13.448 11,14 L11,15 C11,15.552 11.448,16 12,16 C12.552,16 13,15.552 13,15 L13,14 C13,13.448 12.552,13 12,13 Z"/>
</svg>

