<svg xmlns="http://www.w3.org/2000/svg" width="24" height="24">
  <defs/>
  <path  d="M12,2 C17.523,2 22,6.477 22,12 C22,17.523 17.523,22 12,22 C6.477,22 2,17.523 2,12 C2,6.477 6.477,2 12,2 M12,11 A3 3 0 0 0 9,14 L9,15 A3 3 0 1 0 15,15 L15,14 A3 3 0 0 0 12,11 M12,13 A1 1 0 0 1 13,14 L13,15 A1 1 0 1 1 11,15 L11,14 A1 1 0 0 1 12,13 M8.422,7.276 C7.962,7.391 7.527,7.659 7.177,8.009 C6.827,8.359 6.559,8.794 6.444,9.254 C6.334,9.691 6.331,10.345 6.824,10.837 C7.316,11.33 7.97,11.326 8.407,11.217 C8.867,11.102 9.301,10.834 9.652,10.484 C10.002,10.134 10.27,9.699 10.384,9.239 C10.494,8.802 10.498,8.148 10.005,7.655 C9.513,7.163 8.859,7.167 8.422,7.276 M13.995,7.656 C13.502,8.148 13.506,8.802 13.615,9.239 C13.73,9.699 13.998,10.134 14.348,10.484 C14.698,10.834 15.133,11.102 15.593,11.217 C16.03,11.326 16.684,11.33 17.177,10.837 C17.669,10.345 17.665,9.691 17.556,9.254 C17.441,8.794 17.173,8.359 16.823,8.009 C16.473,7.659 16.038,7.391 15.578,7.276 C15.141,7.167 14.488,7.163 13.995,7.656"/>
</svg>

