<svg xmlns="http://www.w3.org/2000/svg" width="24" height="24">
  <defs/>
  <path  d="M17.42,3 C18.079,3 18.696,3.325 19.069,3.868 L19.156,4.008 L22.49,9.84 C22.907,10.569 22.824,11.481 22.282,12.123 L22.168,12.246 L12.885,21.529 C12.434,21.98 11.716,22.019 11.219,21.62 L11.117,21.53 L1.834,12.246 C1.24,11.652 1.08,10.751 1.434,9.989 L1.512,9.839 L4.845,4.007 C5.172,3.435 5.76,3.06 6.417,3.006 L6.58,3 Z M17.42,5 L6.58,5 L3.247,10.833 L12,19.586 L20.753,10.833 Z M15,6 C15.552,6 16,6.448 16,7 C16,7.552 15.552,8 15,8 L13,8 L13,9.545 C13.758,9.615 14.447,9.762 15.004,9.971 C15.399,10.119 15.753,10.307 16.017,10.542 C16.281,10.776 16.5,11.099 16.5,11.5 C16.5,11.901 16.281,12.224 16.017,12.458 C15.753,12.693 15.399,12.881 15.004,13.028 C14.41,13.251 13.666,13.405 12.847,13.468 C12.947,13.627 13,13.812 13,14 L13,16 C13,16.552 12.552,17 12,17 C11.448,17 11,16.552 11,16 L11,14 C11,13.804 11.056,13.622 11.153,13.468 C10.334,13.405 9.59,13.252 8.996,13.028 C8.601,12.881 8.247,12.693 7.983,12.458 C7.719,12.224 7.5,11.901 7.5,11.5 C7.5,11.099 7.719,10.776 7.983,10.542 C8.247,10.307 8.601,10.119 8.996,9.972 C9.552,9.762 10.241,9.615 11,9.545 L11,8 L9,8 C8.448,8 8,7.552 8,7 C8,6.448 8.448,6 9,6 Z M12.999,10.55 C12.975,11.084 12.535,11.505 12,11.505 C11.465,11.505 11.025,11.084 11.001,10.55 C10.437,10.599 9.881,10.719 9.347,10.907 C9.017,11.031 8.787,11.166 8.646,11.29 C8.529,11.394 8.506,11.462 8.501,11.489 L8.5,11.5 C8.5,11.513 8.505,11.585 8.646,11.71 C8.786,11.834 9.018,11.97 9.347,12.092 C10.002,12.338 10.939,12.5 12,12.5 C13.06,12.5 13.998,12.338 14.653,12.092 C14.982,11.969 15.213,11.834 15.353,11.71 C15.414,11.663 15.462,11.602 15.493,11.532 L15.5,11.5 L15.493,11.468 C15.462,11.398 15.414,11.337 15.353,11.29 C15.213,11.166 14.982,11.03 14.653,10.908 C14.213,10.743 13.645,10.615 12.999,10.55 Z"/>
</svg>

