<svg xmlns="http://www.w3.org/2000/svg" width="24" height="24">
  <defs/>
  <path  d="M17.42,3 A2 2 0 0 1 19.156,4.008 L22.49,9.84 A2 2 0 0 1 22.168,12.246 L12.885,21.529 A1.25 1.25 0 0 1 11.117,21.529 L1.834,12.246 A2 2 0 0 1 1.512,9.84 L4.845,4.007 A2 2 0 0 1 6.58,3 Z M15,6 L9,6 A1 1 0 0 0 8.883,7.993 L9,8 L11,8 L11,9.545 C10.242,9.615 9.553,9.762 8.996,9.971 C8.601,10.119 8.247,10.307 7.983,10.542 C7.719,10.776 7.5,11.099 7.5,11.5 C7.5,11.901 7.719,12.224 7.983,12.458 C8.247,12.693 8.601,12.881 8.996,13.028 C9.59,13.251 10.334,13.405 11.153,13.468 A0.994 0.994 0 0 0 11.007,13.884 L11,14 L11,16 A1 1 0 0 0 12.993,16.117 L13,16 L13,14 A0.995 0.995 0 0 0 12.847,13.468 C13.666,13.405 14.41,13.252 15.004,13.028 C15.399,12.881 15.753,12.693 16.017,12.458 C16.281,12.224 16.5,11.901 16.5,11.5 C16.5,11.099 16.281,10.776 16.017,10.542 C15.753,10.307 15.399,10.119 15.004,9.972 A7.494 7.494 0 0 0 13.321,9.58 L13,9.545 L13,8 L15,8 A1 1 0 0 0 15.117,6.007 Z M12.999,10.55 A6.789 6.789 0 0 1 14.653,10.907 C14.982,11.031 15.213,11.166 15.353,11.29 A0.46 0.46 0 0 1 15.493,11.468 L15.5,11.5 L15.493,11.532 A0.46 0.46 0 0 1 15.353,11.71 C15.213,11.834 14.982,11.97 14.653,12.092 C13.998,12.338 13.06,12.5 12,12.5 C10.94,12.5 10.002,12.338 9.347,12.092 C9.018,11.969 8.787,11.834 8.646,11.71 A0.46 0.46 0 0 1 8.506,11.532 L8.5,11.5 C8.5,11.487 8.505,11.415 8.646,11.29 C8.786,11.166 9.018,11.03 9.347,10.908 C9.787,10.743 10.354,10.615 11.001,10.55 A1 1 0 0 0 12.999,10.55"/>
</svg>

