<svg xmlns="http://www.w3.org/2000/svg" width="24" height="24">
  <defs/>
  <path  d="M17,2 C17.552,2 18,2.448 18,3 C18,3.552 17.552,4 17,4 L16,4 L16,15 C16,15.552 15.552,16 15,16 C14.448,16 14,15.552 14,15 L14,4 L13,4 L13,15 C13,15.552 12.552,16 12,16 C11.448,16 11,15.552 11,15 L11,12 L10,12 C7.239,12 5,9.761 5,7 C5,4.239 7.239,2 10,2 Z M6.414,16.172 C6.787,15.796 7.388,15.775 7.786,16.125 C8.183,16.476 8.238,17.075 7.912,17.492 L7.828,17.586 L7.414,18 L18,18 C18.529,18.001 18.966,18.413 18.997,18.941 C19.028,19.47 18.642,19.931 18.117,19.993 L18,20 L7.414,20 L7.828,20.414 C8.204,20.787 8.225,21.388 7.875,21.786 C7.524,22.183 6.925,22.238 6.508,21.912 L6.414,21.828 L4.293,19.708 C4.103,19.522 3.998,19.266 4,19 C4,18.774 4.07,18.567 4.205,18.393 L4.293,18.293 Z M11,4 L10,4 C8.376,3.998 7.046,5.289 6.998,6.912 C6.951,8.535 8.203,9.901 9.824,9.995 L10,10 L11,10 Z"/>
</svg>

