<svg xmlns="http://www.w3.org/2000/svg" width="24" height="24">
  <defs/>
  <path  d="M5,7 C5,4.239 7.239,2 10,2 L17,2 C17.552,2 18,2.448 18,3 C18,3.552 17.552,4 17,4 L16,4 L16,15 C16,15.552 15.552,16 15,16 C14.448,16 14,15.552 14,15 L14,4 L13,4 L13,15 C13,15.552 12.552,16 12,16 C11.448,16 11,15.552 11,15 L11,12 L10,12 C7.239,12 5,9.761 5,7 Z M17.172,16.172 C17.562,15.782 18.195,15.782 18.586,16.172 L20.707,18.293 C21.097,18.684 21.097,19.316 20.707,19.707 L18.586,21.829 C18.195,22.219 17.562,22.219 17.171,21.829 C16.781,21.438 16.781,20.804 17.172,20.414 L17.586,20 L7,20 C6.448,20 6,19.552 6,19 C6,18.448 6.448,18 7,18 L17.586,18 L17.172,17.586 C16.782,17.195 16.782,16.562 17.172,16.172 Z M11,10 L11,4 L10,4 C8.343,4 7,5.343 7,7 C7,8.657 8.343,10 10,10 Z"/>
</svg>

