<svg xmlns="http://www.w3.org/2000/svg" width="24" height="24">
  <defs/>
  <path  d="M12,3 C12.768,3 13.47,3.289 14,3.764 A2.989 2.989 0 0 1 16,3 L17,3 A1 1 0 1 1 17,5 L16,5 A1 1 0 0 0 15,6 L15,18 A1 1 0 0 0 16,19 L17,19 A1 1 0 1 1 17,21 L16,21 C15.232,21 14.53,20.711 14,20.236 A2.989 2.989 0 0 1 12,21 L11,21 A1 1 0 1 1 11,19 L12,19 A1 1 0 0 0 13,18 L13,6 A1 1 0 0 0 12,5 L11,5 A1 1 0 1 1 11,3 Z M12,8 L12,17 L5,17 A2 2 0 0 1 3,15 L3,11.51 L3.032,11.591 L3.161,11.97 A3 3 0 0 0 8.839,11.97 L8.969,11.591 A1 1 0 0 1 9.591,10.968 L9.969,10.839 A3 3 0 0 0 12,8 M19,7 A2 2 0 0 1 20.995,8.85 L21,9 L21,15 A2 2 0 0 1 19.15,16.995 L19,17 L16,17 L16,7 Z M6,4 A1 1 0 0 1 6.898,4.56 L6.946,4.677 L7.076,5.055 A3 3 0 0 0 8.76,6.855 L8.945,6.925 L9.323,7.054 A1 1 0 0 1 9.44,8.898 L9.323,8.946 L8.945,9.076 A3 3 0 0 0 7.145,10.76 L7.075,10.945 L6.946,11.323 A1 1 0 0 1 5.102,11.441 L5.054,11.323 L4.924,10.945 A3 3 0 0 0 3.24,9.145 L3.055,9.075 L2.677,8.946 A1 1 0 0 1 2.56,7.102 L2.677,7.054 L3.055,6.924 A3 3 0 0 0 4.855,5.24 L4.925,5.055 L5.054,4.677 A1 1 0 0 1 6,4"/>
</svg>

