<svg xmlns="http://www.w3.org/2000/svg" width="24" height="24">
  <defs/>
  <path  d="M7,3 C7.507,3 7.934,3.38 7.993,3.883 L8,4 L16,4 C16,3.493 16.38,3.066 16.883,3.007 L17,3 L20,3 C20.507,3 20.934,3.38 20.993,3.883 L21,4 L21,7 C21,7.507 20.62,7.934 20.117,7.993 L20,8 L20,16 C20.507,16 20.934,16.38 20.993,16.883 L21,17 L21,20 C21,20.507 20.62,20.934 20.117,20.993 L20,21 L17,21 C16.493,21 16.066,20.62 16.007,20.117 L16,20 L8,20 C8,20.507 7.62,20.934 7.117,20.993 L7,21 L4,21 C3.493,21 3.066,20.62 3.007,20.117 L3,20 L3,17 C3,16.493 3.38,16.066 3.883,16.007 L4,16 L4,8 C3.493,8 3.066,7.62 3.007,7.117 L3,7 L3,4 C3,3.493 3.38,3.066 3.883,3.007 L4,3 Z M16,6 L8,6 L8,7 C8,7.552 7.552,8 7,8 L6,8 L6,16 L7,16 C7.552,16 8,16.448 8,17 L8,18 L16,18 L16,17 C16,16.448 16.448,16 17,16 L18,16 L18,8 L17,8 C16.448,8 16,7.552 16,7 Z M12,7 C12.723,7 13.367,7.455 13.61,8.135 L15.942,14.664 C16.128,15.184 15.856,15.756 15.336,15.942 C14.816,16.128 14.244,15.856 14.058,15.336 L13.581,14 L10.419,14 L9.942,15.336 C9.756,15.856 9.184,16.128 8.664,15.942 C8.144,15.756 7.872,15.184 8.058,14.664 L10.39,8.134 C10.633,7.454 11.278,7 12,7 Z M12,9.573 L11.133,12 L12.867,12 Z M6,5 L5,5 L5,6 L6,6 Z M19,5 L18,5 L18,6 L19,6 Z M6,18 L5,18 L5,19 L6,19 Z M19,18 L18,18 L18,19 L19,19 Z"/>
</svg>

