<svg xmlns="http://www.w3.org/2000/svg" width="24" height="24">
  <defs/>
  <path  d="M7.952,17.306 C7.78,17.828 7.219,18.113 6.696,17.945 C6.173,17.777 5.884,17.218 6.048,16.694 L10.395,3.17 C10.619,2.473 11.268,2 12,2 C12.732,2 13.381,2.473 13.605,3.17 L17.952,16.694 C18.065,17.035 17.986,17.41 17.745,17.677 C17.505,17.944 17.14,18.061 16.789,17.984 C16.438,17.908 16.155,17.649 16.048,17.306 L14.664,13 L9.336,13 Z M4,21 C4,20.448 4.448,20 5,20 L19,20 C19.552,20 20,20.448 20,21 C20,21.552 19.552,22 19,22 L5,22 C4.448,22 4,21.552 4,21 Z M9.979,11 L14.021,11 L12,4.712 Z"/>
</svg>

