<svg xmlns="http://www.w3.org/2000/svg" width="24" height="24">
  <defs/>
  <path  d="M7,3 A1 1 0 0 1 8,4 L16,4 A1 1 0 0 1 17,3 L20,3 A1 1 0 0 1 21,4 L21,7 A1 1 0 0 1 20,8 L20,16 A1 1 0 0 1 21,17 L21,20 A1 1 0 0 1 20,21 L17,21 A1 1 0 0 1 16,20 L8,20 A1 1 0 0 1 7,21 L4,21 A1 1 0 0 1 3,20 L3,17 A1 1 0 0 1 4,16 L4,8 A1 1 0 0 1 3,7 L3,4 A1 1 0 0 1 4,3 Z M19,18 L18,18 L18,19 L19,19 Z M6,18 L5,18 L5,19 L6,19 Z M12,7 A1.71 1.71 0 0 0 10.444,8.002 L10.39,8.135 L8.058,14.664 A1 1 0 0 0 9.896,15.444 L9.942,15.336 L10.419,14 L13.581,14 L14.058,15.336 A1 1 0 0 0 15.975,14.776 L15.942,14.664 L13.61,8.134 A1.71 1.71 0 0 0 12,7 M12,9.573 L12.867,12 L11.133,12 Z M6,5 L5,5 L5,6 L6,6 Z M19,5 L18,5 L18,6 L19,6 Z"/>
</svg>

