<svg xmlns="http://www.w3.org/2000/svg" width="24" height="24">
  <defs/>
  <path  d="M12,3 C12.768,3 13.47,3.289 14,3.764 A2.988 2.988 0 0 1 15.772,3.009 L16,3 L17,3 A1 1 0 0 1 17.117,4.993 L17,5 L16,5 A1 1 0 0 0 15.007,5.883 L15,6 L15,18 A1 1 0 0 0 15.883,18.993 L16,19 L17,19 A1 1 0 0 1 17.117,20.993 L17,21 L16,21 C15.232,21 14.53,20.711 14,20.236 A2.988 2.988 0 0 1 12.228,20.991 L12,21 L11,21 A1 1 0 0 1 10.883,19.007 L11,19 L12,19 A1 1 0 0 0 12.993,18.117 L13,18 L13,6 A1 1 0 0 0 12.117,5.007 L12,5 L11,5 A1 1 0 0 1 10.883,3.007 L11,3 Z M19,7 A2 2 0 0 1 20.995,8.85 L21,9 L21,15 A2 2 0 0 1 19.15,16.995 L19,17 L16,17 L16,15 L19,15 L19,9 L16,9 L16,7 Z M5,13 L5,15 L12,15 L12,17 L5,17 A2 2 0 0 1 3.005,15.15 L3,15 L3,13 Z M6,4 A1 1 0 0 1 6.898,4.56 L6.946,4.677 L7.076,5.055 A3 3 0 0 0 8.76,6.855 L8.945,6.925 L9.323,7.054 A1 1 0 0 1 9.44,8.898 L9.323,8.946 L8.945,9.076 A3 3 0 0 0 7.145,10.76 L7.075,10.945 L6.946,11.323 A1 1 0 0 1 5.102,11.441 L5.054,11.323 L4.924,10.945 A3 3 0 0 0 3.24,9.145 L3.055,9.075 L2.677,8.946 A1 1 0 0 1 2.56,7.102 L2.677,7.054 L3.055,6.924 A3 3 0 0 0 4.855,5.24 L4.925,5.055 L5.054,4.677 A1 1 0 0 1 6,4 M6,7.196 A5.004 5.004 0 0 1 5.196,8 C5.494,8.236 5.764,8.506 6,8.804 C6.236,8.506 6.506,8.236 6.804,8 A5.004 5.004 0 0 1 6,7.196"/>
</svg>

