<svg xmlns="http://www.w3.org/2000/svg" width="24" height="24">
  <defs/>
  <path  d="M4.5,5 C4.5,4.172 5.172,3.5 6,3.5 L18,3.5 C18.828,3.5 19.5,4.172 19.5,5 L19.5,7 C19.5,7.828 18.828,8.5 18,8.5 C17.172,8.5 16.5,7.828 16.5,7 L16.5,6.5 L13.5,6.5 L13.5,18.5 L14,18.5 C14.828,18.5 15.5,19.172 15.5,20 C15.5,20.828 14.828,21.5 14,21.5 L10,21.5 C9.172,21.5 8.5,20.828 8.5,20 C8.5,19.172 9.172,18.5 10,18.5 L10.5,18.5 L10.5,6.5 L7.5,6.5 L7.5,7 C7.5,7.828 6.828,8.5 6,8.5 C5.172,8.5 4.5,7.828 4.5,7 Z"/>
</svg>

