<svg xmlns="http://www.w3.org/2000/svg" width="24" height="24">
  <defs/>
  <path  d="M17,1.5 C17.828,1.5 18.5,2.172 18.5,3 C18.5,3.828 17.828,4.5 17,4.5 L17,15 C17,15.828 16.328,16.5 15.5,16.5 C14.672,16.5 14,15.828 14,15 L14,4.5 L13,4.5 L13,15 C13,15.828 12.328,16.5 11.5,16.5 C10.672,16.5 10,15.828 10,15 L10,12.5 C6.962,12.5 4.5,10.038 4.5,7 C4.5,3.962 6.962,1.5 10,1.5 Z M8.182,15.818 C8.624,16.26 8.746,16.931 8.487,17.5 L18,17.5 C18.828,17.5 19.5,18.172 19.5,19 C19.5,19.828 18.828,20.5 18,20.5 L8.487,20.5 C8.788,21.16 8.573,21.941 7.976,22.354 C7.38,22.767 6.574,22.695 6.061,22.182 L3.939,20.061 C3.353,19.475 3.353,18.525 3.939,17.939 L6.061,15.818 C6.647,15.232 7.596,15.232 8.182,15.818 Z M10,4.5 C8.649,4.497 7.54,5.568 7.495,6.918 C7.451,8.268 8.488,9.41 9.836,9.495 L10,9.5 Z"/>
</svg>

