<svg xmlns="http://www.w3.org/2000/svg" width="24" height="24">
  <defs/>
  <path  d="M12,3 C12.768,3 13.47,3.289 14,3.764 A2.989 2.989 0 0 1 16,3 L17,3 A1 1 0 1 1 17,5 L16,5 A1 1 0 0 0 15,6 L15,18 A1 1 0 0 0 16,19 L17,19 A1 1 0 1 1 17,21 L16,21 C15.232,21 14.53,20.711 14,20.236 A2.989 2.989 0 0 1 12,21 L11,21 A1 1 0 1 1 11,19 L12,19 A1 1 0 0 0 13,18 L13,6 A1 1 0 0 0 12,5 L11,5 A1 1 0 1 1 11,3 Z M12,7 L12,17 L5,17 A2 2 0 0 1 3.005,15.15 L3,15 L3,9 A2 2 0 0 1 4.85,7.005 L5,7 Z M19,7 A2 2 0 0 1 20.995,8.85 L21,9 L21,15 A2 2 0 0 1 19.15,16.995 L19,17 L16,17 L16,7 Z"/>
</svg>

