<svg xmlns="http://www.w3.org/2000/svg" width="24" height="24">
  <defs/>
  <path  d="M17,1.5 C17.828,1.5 18.5,2.172 18.5,3 C18.5,3.828 17.828,4.5 17,4.5 L17,15 C17,15.828 16.328,16.5 15.5,16.5 C14.672,16.5 14,15.828 14,15 L14,4.5 L13,4.5 L13,15 C13,15.828 12.328,16.5 11.5,16.5 C10.672,16.5 10,15.828 10,15 L10,12.5 C6.962,12.5 4.5,10.038 4.5,7 C4.5,3.962 6.962,1.5 10,1.5 Z M18.94,15.818 L21.06,17.939 C21.646,18.525 21.646,19.475 21.06,20.061 L18.94,22.182 C18.427,22.697 17.62,22.77 17.023,22.356 C16.426,21.943 16.211,21.161 16.513,20.5 L7,20.5 C6.172,20.5 5.5,19.828 5.5,19 C5.5,18.172 6.172,17.5 7,17.5 L16.513,17.5 C16.212,16.84 16.427,16.059 17.024,15.646 C17.62,15.233 18.426,15.305 18.939,15.818 Z M10,4.5 C8.649,4.497 7.54,5.568 7.495,6.918 C7.451,8.268 8.488,9.41 9.836,9.495 L10,9.5 Z"/>
</svg>

