<svg xmlns="http://www.w3.org/2000/svg" width="24" height="24">
  <defs/>
  <path  d="M8.428,17.459 C8.17,18.241 7.329,18.669 6.545,18.417 C5.76,18.165 5.326,17.327 5.572,16.541 L9.919,3.017 C10.21,2.113 11.051,1.5 12,1.5 C12.949,1.5 13.79,2.113 14.081,3.017 L18.428,16.541 C18.597,17.053 18.478,17.615 18.118,18.015 C17.757,18.416 17.21,18.591 16.683,18.476 C16.157,18.361 15.733,17.973 15.572,17.459 L14.299,13.5 L9.701,13.5 Z M3.5,21 C3.5,20.172 4.172,19.5 5,19.5 L19,19.5 C19.828,19.5 20.5,20.172 20.5,21 C20.5,21.828 19.828,22.5 19,22.5 L5,22.5 C4.172,22.5 3.5,21.828 3.5,21 Z M10.665,10.5 L13.335,10.5 L12,6.346 Z"/>
</svg>

