<svg xmlns="http://www.w3.org/2000/svg" width="24" height="24">
  <defs/>
  <path  d="M12,2 A3 3 0 0 1 14.995,4.824 L15,5 L15,12.956 L15.01,12.977 A0.34 0.34 0 0 0 15.097,13.074 A5 5 0 1 1 8.904,13.074 A0.385 0.385 0 0 0 8.972,13.005 L9,12.955 L9,5 A3 3 0 0 1 12,2 M12,4 A1 1 0 0 0 11.007,4.883 L11,5 L11,12.958 C11,13.633 10.663,14.184 10.256,14.548 L10.143,14.644 A3 3 0 1 0 14.003,14.767 L13.857,14.644 C13.439,14.314 13.067,13.791 13.008,13.139 L13,12.96 L13,5 A1 1 0 0 0 12,4 M14,17 A2 2 0 0 1 10.01,17.196 L10,17 Z"/>
</svg>

