<svg xmlns="http://www.w3.org/2000/svg" width="24" height="24">
  <defs/>
  <path  d="M12.923,2.885 C14.41,2.885 15.726,3.612 16.536,4.729 C18.436,4.291 20.4,5.137 21.387,6.819 C22.374,8.501 22.154,10.628 20.845,12.073 C20.808,13.568 20.024,14.945 18.758,15.74 C17.492,16.536 15.912,16.644 14.549,16.029 C13.464,16.893 12.039,17.204 10.693,16.869 C9.347,16.535 8.233,15.593 7.679,14.322 C5.867,13.533 4.79,11.647 5.032,9.686 C5.273,7.724 6.776,6.156 8.725,5.83 C9.364,4.062 11.042,2.885 12.922,2.885 Z M12.923,4.885 C11.722,4.885 10.697,5.751 10.496,6.935 C10.421,7.38 10.057,7.721 9.608,7.765 L9.462,7.769 C8.242,7.768 7.205,8.662 7.025,9.869 C6.846,11.076 7.578,12.233 8.746,12.587 C9.066,12.684 9.316,12.934 9.413,13.254 C9.674,14.113 10.383,14.762 11.262,14.947 C12.141,15.132 13.051,14.824 13.637,14.143 C13.972,13.753 14.549,13.681 14.97,13.977 C15.753,14.526 16.783,14.572 17.612,14.095 C18.441,13.619 18.918,12.705 18.837,11.752 C18.811,11.438 18.934,11.129 19.17,10.92 C20.084,10.11 20.267,8.753 19.599,7.73 C18.93,6.708 17.614,6.33 16.505,6.842 C16.262,6.954 15.984,6.965 15.734,6.871 C15.483,6.777 15.281,6.586 15.172,6.342 C14.775,5.455 13.894,4.884 12.923,4.885 Z M5,16 C5.748,16 6.463,16.226 7.014,16.64 C7.566,17.053 8,17.7 8,18.5 C8,19.3 7.566,19.947 7.014,20.36 C6.464,20.774 5.748,21 5,21 C4.252,21 3.537,20.774 2.986,20.36 C2.434,19.948 2,19.3 2,18.5 C2,17.7 2.434,17.053 2.986,16.64 C3.536,16.225 4.252,16 5,16 Z M5,18 C4.643,18 4.359,18.11 4.186,18.24 C4.063,18.332 4.021,18.41 4.006,18.458 L4,18.5 L4.007,18.542 C4.021,18.59 4.063,18.668 4.186,18.761 C4.359,18.891 4.643,19 5,19 C5.357,19 5.641,18.89 5.814,18.76 C5.937,18.668 5.979,18.59 5.994,18.542 L6,18.5 L5.993,18.458 C5.979,18.41 5.937,18.332 5.814,18.239 C5.641,18.11 5.357,18 5,18 Z"/>
</svg>

