<svg xmlns="http://www.w3.org/2000/svg" width="24" height="24">
  <defs/>
  <path  d="M5,16 C5.748,16 6.463,16.226 7.014,16.64 C7.566,17.053 8,17.7 8,18.5 C8,19.3 7.566,19.947 7.014,20.36 C6.464,20.774 5.748,21 5,21 C4.252,21 3.537,20.774 2.986,20.36 C2.434,19.948 2,19.3 2,18.5 C2,17.7 2.434,17.053 2.986,16.64 C3.536,16.225 4.252,16 5,16 M12.923,2.885 C14.41,2.885 15.726,3.612 16.536,4.729 A4.462 4.462 0 0 1 20.845,12.073 A4.462 4.462 0 0 1 14.549,16.029 A4.462 4.462 0 0 1 7.679,14.322 A4.462 4.462 0 0 1 8.725,5.83 A4.462 4.462 0 0 1 12.922,2.885 Z"/>
</svg>

