<svg xmlns="http://www.w3.org/2000/svg" width="24" height="24">
  <defs/>
  <path  d="M5.45,4.623 C6.997,2.974 9.24,2 12.017,2 C16.582,2 19.609,4.631 20.567,8.277 C20.707,8.811 20.388,9.358 19.854,9.498 C19.319,9.639 18.772,9.319 18.632,8.785 C17.905,6.022 15.676,4 12.016,4 C9.73,4 8.036,4.789 6.91,5.99 C5.774,7.202 5.141,8.913 5.141,10.875 L5.141,13.125 C5.141,15.087 5.774,16.798 6.91,18.009 C8.036,19.212 9.73,20 12.016,20 C13.671,20 14.984,19.616 15.992,18.995 C17.007,18.37 17.612,17.541 17.782,16.59 C17.977,15.494 17.737,14.742 17.324,14.199 C17.097,13.907 16.822,13.657 16.51,13.458 C16.375,14.207 16.134,14.914 15.77,15.468 C14.428,17.507 11.862,17.682 10.17,17.007 C9.254,16.642 8.469,15.643 8.225,14.572 C8.078,13.958 8.127,13.313 8.366,12.729 C8.631,12.093 9.122,11.551 9.821,11.139 C10.513,10.73 11.541,10.542 12.56,10.514 C13.174,10.497 13.84,10.538 14.51,10.647 C14.37,9.997 14.133,9.512 13.866,9.263 C13.382,8.813 12.58,8.496 11.776,8.501 C10.999,8.507 10.34,8.806 9.946,9.436 C9.653,9.904 9.036,10.047 8.568,9.754 C8.1,9.461 7.957,8.844 8.25,8.376 C9.087,7.038 10.466,6.511 11.763,6.501 C13.033,6.492 14.341,6.973 15.229,7.799 C16.127,8.635 16.513,10.006 16.613,11.253 C17.487,11.634 18.313,12.193 18.918,12.99 C19.699,14.02 20.035,15.348 19.751,16.941 C19.461,18.565 18.436,19.839 17.041,20.698 C15.673,21.54 13.985,22 12.016,22 C9.24,22 6.996,21.026 5.451,19.377 C3.915,17.739 3.141,15.513 3.141,13.125 L3.141,10.875 C3.141,8.487 3.915,6.261 5.451,4.623 Z M14.6,12.7 C13.948,12.559 13.281,12.496 12.614,12.514 C11.723,12.538 11.098,12.707 10.837,12.861 C10.453,13.088 10.287,13.319 10.213,13.498 C10.134,13.699 10.121,13.919 10.175,14.128 C10.297,14.664 10.7,15.066 10.911,15.149 C12.037,15.599 13.446,15.361 14.099,14.369 C14.334,14.011 14.521,13.409 14.599,12.7 Z"/>
</svg>

