<svg xmlns="http://www.w3.org/2000/svg" width="24" height="24">
  <defs/>
  <path  d="M5.086,4.28 C6.736,2.52 9.117,1.5 12.016,1.5 C16.808,1.5 20.033,4.284 21.049,8.15 C21.259,8.951 20.78,9.772 19.979,9.982 C19.178,10.192 18.357,9.713 18.147,8.912 C17.48,6.37 15.45,4.5 12.017,4.5 C9.853,4.5 8.297,5.242 7.275,6.332 C6.239,7.438 5.64,9.02 5.64,10.875 L5.64,13.125 C5.64,14.98 6.238,16.562 7.274,17.668 C8.296,18.758 9.852,19.5 12.015,19.5 C13.591,19.5 14.81,19.135 15.729,18.57 C16.649,18.002 17.149,17.285 17.289,16.502 C17.462,15.53 17.245,14.923 16.925,14.501 C16.888,14.453 16.85,14.406 16.809,14.361 C16.669,14.849 16.459,15.315 16.186,15.743 C14.672,18.043 11.817,18.203 9.983,17.471 C8.892,17.036 8.011,15.888 7.736,14.683 C7.566,13.967 7.625,13.216 7.904,12.536 C8.216,11.786 8.788,11.166 9.566,10.708 C10.366,10.236 11.493,10.043 12.545,10.014 C12.963,10.003 13.382,10.016 13.799,10.054 C13.709,9.854 13.612,9.711 13.525,9.629 C13.141,9.272 12.465,8.997 11.779,9.001 C11.132,9.006 10.653,9.248 10.369,9.701 C9.93,10.404 9.005,10.617 8.302,10.178 C7.599,9.739 7.386,8.814 7.825,8.111 C8.773,6.596 10.332,6.011 11.758,6.001 C13.146,5.991 14.579,6.513 15.568,7.433 C16.522,8.321 16.941,9.687 17.081,10.918 C17.917,11.321 18.711,11.892 19.315,12.688 C20.189,13.838 20.548,15.312 20.242,17.028 C19.922,18.821 18.792,20.206 17.302,21.124 C15.845,22.022 14.063,22.5 12.015,22.5 C9.116,22.5 6.735,21.48 5.085,19.72 C3.449,17.974 2.64,15.62 2.64,13.125 L2.64,10.875 C2.64,8.381 3.45,6.025 5.085,4.281 Z M14.033,13.103 C13.568,13.031 13.098,13.001 12.628,13.013 C11.768,13.037 11.244,13.201 11.091,13.292 C10.786,13.472 10.701,13.625 10.674,13.69 C10.636,13.795 10.632,13.91 10.663,14.017 C10.699,14.177 10.784,14.35 10.901,14.497 C10.955,14.569 11.02,14.632 11.095,14.683 L11.099,14.686 C11.099,14.686 11.098,14.686 11.095,14.685 C12.08,15.078 13.2,14.825 13.681,14.093 C13.818,13.886 13.946,13.54 14.033,13.103 Z"/>
</svg>

