<svg xmlns="http://www.w3.org/2000/svg" width="24" height="24">
  <defs/>
  <path  d="M8,7 C8,4.791 9.791,3 12,3 C14.209,3 16,4.791 16,7 C16,9.209 14.209,11 12,11 C9.791,11 8,9.209 8,7 Z M3,16 C3,13.791 4.791,12 7,12 C9.209,12 11,13.791 11,16 C11,18.209 9.209,20 7,20 C4.791,20 3,18.209 3,16 Z M17,12 C19.209,12 21,13.791 21,16 C21,18.209 19.209,20 17,20 C14.791,20 13,18.209 13,16 C13,13.791 14.791,12 17,12 Z M15,16 C15,17.105 15.895,18 17,18 C18.105,18 19,17.105 19,16 C19,14.895 18.105,14 17,14 C15.895,14 15,14.895 15,16 Z M7,14 C5.895,14 5,14.895 5,16 C5,17.105 5.895,18 7,18 C8.105,18 9,17.105 9,16 C9,14.895 8.105,14 7,14 Z M12,5 C10.895,5 10,5.895 10,7 C10,8.105 10.895,9 12,9 C13.105,9 14,8.105 14,7 C14,5.895 13.105,5 12,5 Z"/>
</svg>

