<svg xmlns="http://www.w3.org/2000/svg" width="24" height="24">
  <defs/>
  <path  d="M9.5,21.5 C8.016,21.5 6.835,20.046 7.007,18.601 C7.161,17.303 6.835,16.066 6.377,14.866 C6.079,14.95 5.781,15 5.5,15 C4.392,15 3.472,14.38 2.876,13.391 C2.297,12.431 2,11.106 2,9.499 C2,7.893 2.296,6.569 2.876,5.609 C3.472,4.621 4.392,3.999 5.5,3.999 C5.972,3.999 6.443,4.06 6.9,4.179 C8.215,2.784 10.049,1.995 11.967,2 L13.479,2 C17.12,2 20.153,4.791 20.455,8.419 L20.816,12.75 C20.886,13.586 20.602,14.414 20.034,15.031 C19.466,15.649 18.665,16 17.826,16 L12.992,16 C12.966,17.147 12.917,18.403 12.395,19.447 C11.794,20.648 10.856,21.5 9.5,21.5 Z M8.993,18.837 C8.96,19.107 9.2,19.5 9.5,19.5 C9.832,19.5 10.206,19.352 10.606,18.552 C10.999,17.766 10.998,16.744 10.998,15.849 C10.998,15.728 10.998,15.608 10.999,15.492 C11.005,14.673 11.669,14 12.5,14 L17.826,14 C18.106,14 18.373,13.883 18.562,13.677 C18.752,13.471 18.846,13.196 18.823,12.917 L18.462,8.585 C18.246,5.993 16.08,4 13.479,4 L11.967,4 C10.368,4 8.915,4.753 8.03,5.939 C7.222,7.022 6.919,8.604 6.998,9.941 C7.092,11.528 7.848,13.124 8.417,14.598 C8.931,15.93 9.162,17.414 8.993,18.837 Z M5.696,12.976 C5.363,11.977 5.049,10.864 5.002,10.059 C4.924,8.745 5.154,7.213 5.69,6.005 C5.627,6.002 5.564,6 5.5,6 C5.228,6 4.898,6.129 4.588,6.641 C4.263,7.181 4,8.106 4,9.5 C4,10.894 4.263,11.818 4.589,12.358 C4.831,12.76 5.211,13.076 5.696,12.976 Z"/>
</svg>

