<svg xmlns="http://www.w3.org/2000/svg" width="24" height="24">
  <defs/>
  <path  d="M9.821,3.212 C10.117,2.522 10.881,1.896 11.845,2.082 C13.319,2.365 14.884,3.483 14.994,5.296 L15,5.5 L15,8 L17.405,8 C18.557,8 19.653,8.496 20.412,9.362 C21.172,10.229 21.521,11.38 21.371,12.522 L21.341,12.716 L20.431,17.716 C20.099,19.544 18.551,20.903 16.695,20.996 L16.496,21 L6,21 C4.411,21 3.098,19.762 3.005,18.176 L3,18 L3,12 C3,10.411 4.238,9.098 5.824,9.005 L6,9 L7.34,9 Z M11.625,4.08 L9.081,10.017 C9.045,10.1 9.021,10.187 9.009,10.276 L9,10.41 L9,19 L16.496,19 C17.403,19 18.196,18.39 18.429,17.514 L18.464,17.358 L19.374,12.358 C19.476,11.8 19.336,11.225 18.988,10.776 C18.641,10.327 18.12,10.047 17.554,10.005 L17.405,10 L15,10 C13.953,10 13.083,9.194 13.005,8.15 L13,8 L13,5.5 C13,4.947 12.566,4.384 11.795,4.13 Z M7,11 L6,11 C5.448,11 5,11.448 5,12 L5,18 C5,18.552 5.448,19 6,19 L7,19 Z"/>
</svg>

