<svg xmlns="http://www.w3.org/2000/svg" width="24" height="24">
  <defs/>
  <path  d="M9.5,21.5 C8.016,21.5 6.835,20.046 7.007,18.601 C7.161,17.303 6.835,16.066 6.377,14.866 C6.079,14.95 5.781,15 5.5,15 C4.392,15 3.472,14.38 2.876,13.391 C2.297,12.431 2,11.106 2,9.499 C2,7.893 2.296,6.569 2.876,5.609 C3.472,4.621 4.392,3.999 5.5,3.999 C5.972,3.999 6.443,4.06 6.9,4.179 C8.215,2.784 10.049,1.995 11.967,2 L13.479,2 C17.12,2 20.153,4.791 20.455,8.419 L20.816,12.75 C20.886,13.586 20.602,14.414 20.034,15.031 C19.466,15.649 18.665,16 17.826,16 L12.992,16 C12.966,17.147 12.917,18.403 12.395,19.447 C11.794,20.648 10.856,21.5 9.5,21.5 Z"/>
</svg>

