<svg xmlns="http://www.w3.org/2000/svg" width="24" height="24">
  <defs/>
  <path  d="M9.5,2.5 C10.856,2.5 11.794,3.352 12.395,4.553 C12.917,5.598 12.966,6.853 12.992,8 L17.826,8 C18.665,8 19.466,8.351 20.034,8.969 C20.602,9.586 20.886,10.414 20.816,11.25 L20.455,15.581 C20.153,19.209 17.12,22 13.479,22 L11.967,22 C10.05,22.005 8.215,21.217 6.9,19.822 C6.443,19.941 5.972,20.001 5.5,20 C4.392,20 3.472,19.38 2.876,18.392 C2.296,17.432 2,16.107 2,14.5 C2,12.894 2.297,11.569 2.876,10.609 C3.472,9.62 4.392,9 5.5,9 C5.781,9 6.079,9.05 6.377,9.134 C6.835,7.934 7.161,6.697 7.007,5.399 C6.835,3.954 8.016,2.5 9.5,2.5 Z M8.993,5.163 C9.162,6.586 8.931,8.07 8.417,9.402 C7.848,10.876 7.092,12.472 6.998,14.059 C6.919,15.396 7.222,16.978 8.03,18.061 C8.915,19.247 10.368,20 11.967,20 L13.479,20 C16.08,20 18.246,18.007 18.462,15.415 L18.823,11.083 C18.846,10.804 18.752,10.529 18.562,10.323 C18.373,10.117 18.106,10 17.826,10 L12.5,10 C11.675,9.999 11.005,9.333 10.999,8.508 C10.998,8.392 10.998,8.272 10.998,8.151 C10.998,7.256 10.999,6.234 10.606,5.448 C10.206,4.648 9.832,4.5 9.5,4.5 C9.2,4.5 8.96,4.893 8.993,5.163 Z M5.696,11.024 C5.211,10.924 4.831,11.24 4.589,11.642 C4.263,12.182 4,13.106 4,14.5 C4,15.894 4.263,16.819 4.588,17.359 C4.898,17.871 5.228,18 5.5,18 C5.564,18 5.627,17.998 5.69,17.995 C5.154,16.787 4.924,15.255 5.002,13.941 C5.049,13.136 5.363,12.023 5.696,11.024 Z"/>
</svg>

