<svg xmlns="http://www.w3.org/2000/svg" width="24" height="24">
  <defs/>
  <path  d="M16.496,2.998 C18.43,2.998 20.086,4.381 20.432,6.283 L21.341,11.283 C21.553,12.45 21.236,13.651 20.476,14.561 C19.716,15.472 18.591,15.998 17.405,15.998 L15,15.998 L15,18.498 C15,20.431 13.374,21.622 11.845,21.917 C10.881,22.102 10.116,21.475 9.821,20.786 L7.341,14.998 L6,14.998 C4.343,14.998 3,13.655 3,11.998 L3,5.998 C3,4.341 4.343,2.998 6,2.998 Z M16.496,4.998 L9,4.998 L9,13.588 C9,13.723 9.027,13.857 9.08,13.982 L11.625,19.918 C12.502,19.694 13,19.09 13,18.498 L13,15.998 C13,14.893 13.895,13.998 15,13.998 L17.405,13.998 C17.998,13.998 18.561,13.735 18.941,13.28 C19.321,12.824 19.479,12.224 19.373,11.64 L18.464,6.64 C18.291,5.689 17.463,4.998 16.496,4.998 Z M7,4.998 L6,4.998 C5.493,4.998 5.066,5.378 5.007,5.881 L5,5.998 L5,11.998 C5,12.505 5.38,12.932 5.883,12.991 L6,12.998 L7,12.998 Z"/>
</svg>

