<svg xmlns="http://www.w3.org/2000/svg" width="24" height="24">
  <defs/>
  <path  d="M9.5,2.5 C10.856,2.5 11.794,3.352 12.395,4.553 C12.917,5.598 12.966,6.853 12.992,8 L17.826,8 C18.665,8 19.466,8.351 20.034,8.969 C20.602,9.586 20.886,10.414 20.816,11.25 L20.455,15.581 C20.153,19.209 17.12,22 13.479,22 L11.967,22 C10.256,22.004 8.603,21.376 7.325,20.238 C7.049,19.994 6.68,19.885 6.316,19.94 C6.046,19.98 5.773,20 5.5,20 C4.392,20 3.472,19.38 2.876,18.392 C2.296,17.432 2,16.107 2,14.5 C2,12.894 2.297,11.569 2.876,10.609 C3.472,9.62 4.392,9 5.5,9 C5.781,9 6.079,9.05 6.377,9.134 C6.835,7.934 7.161,6.697 7.007,5.399 C6.835,3.954 8.016,2.5 9.5,2.5 Z"/>
</svg>

