<svg xmlns="http://www.w3.org/2000/svg" width="24" height="24">
  <defs/>
  <path  d="M12.496,12.632 A1 1 0 0 1 12.868,13.996 L11.723,16 L12.828,16 A1.1 1.1 0 0 1 13.783,17.646 L11.868,20.996 A1 1 0 0 1 10.132,20.004 L11.277,18 L10.172,18 A1.1 1.1 0 0 1 9.217,16.354 L11.132,13.004 A1 1 0 0 1 12.496,12.632 M14.999,18.501 A1 1 0 1 1 16.93,19.018 L16.672,19.984 A1 1 0 1 1 14.74,19.467 Z M5.219,18.501 A1 1 0 1 1 7.151,19.018 L6.891,19.984 A1 1 0 0 1 4.96,19.467 Z M11.5,2 A6.502 6.502 0 0 1 17.586,6.212 A6.002 6.002 0 0 1 19.587,16.81 L19.614,16.725 L19.898,15.672 A3 3 0 0 0 14.904,12.748 A3 3 0 0 0 9.394,12.011 L9.089,12.548 A3 3 0 0 0 4.322,14.119 L4.063,15.085 A2.986 2.986 0 0 0 4.063,16.638 A2.997 2.997 0 0 0 3.846,16.88 A5 5 0 0 1 5,8.417 A6.5 6.5 0 0 1 11.5,2 M17.259,13.93 A1 1 0 0 1 17.966,15.155 L17.707,16.121 A1 1 0 0 1 15.775,15.603 L16.034,14.637 A1 1 0 0 1 17.259,13.93 M7.479,13.93 A1 1 0 0 1 8.186,15.155 L7.927,16.121 A1 1 0 0 1 5.995,15.603 L6.254,14.637 A1 1 0 0 1 7.479,13.93"/>
</svg>

