<svg xmlns="http://www.w3.org/2000/svg" width="24" height="24">
  <defs/>
  <path  d="M12.496,12.632 A1 1 0 0 1 12.868,13.996 L11.723,16 L12.828,16 A1.1 1.1 0 0 1 13.783,17.646 L11.868,20.996 A1 1 0 1 1 10.132,20.004 L11.277,18 L10.172,18 A1.1 1.1 0 0 1 9.217,16.354 L11.132,13.004 A1 1 0 0 1 12.496,12.632 M15,18.5 A1 1 0 0 1 16.931,19.017 L16.673,19.983 A1 1 0 1 1 14.741,19.466 Z M5.22,18.5 A1 1 0 0 1 7.152,19.017 L6.892,19.983 A1 1 0 1 1 4.961,19.466 Z M17.26,13.929 A1 1 0 0 1 17.967,15.154 L17.708,16.12 A1 1 0 0 1 15.776,15.602 L16.035,14.636 A1 1 0 0 1 17.26,13.929 M7.48,13.929 A1 1 0 0 1 8.187,15.154 L7.928,16.12 A1 1 0 1 1 5.996,15.602 L6.255,14.636 A1 1 0 0 1 7.48,13.929 M11.5,2 A6.502 6.502 0 0 1 17.586,6.212 A6.002 6.002 0 0 1 20.8,15.601 A1 1 0 0 1 19.2,14.399 A4.001 4.001 0 0 0 16.655,8.053 A1.01 1.01 0 0 1 15.845,7.321 A4.5 4.5 0 0 0 7.027,9 A1.01 1.01 0 0 1 6.267,10.09 A3.002 3.002 0 0 0 4.297,14.306 L4.4,14.499 A1 1 0 1 1 2.669,15.501 A5 5 0 0 1 5,8.416 A6.5 6.5 0 0 1 11.5,2"/>
</svg>

