<svg xmlns="http://www.w3.org/2000/svg" width="24" height="24">
  <defs/>
  <path  d="M2,7 C2,5.343 3.343,4 5,4 L13,4 C13.552,4 14,4.448 14,5 C14,5.552 14.448,6 15,6 C15.552,6 16,5.552 16,5 C16,4.448 16.448,4 17,4 L19,4 C20.657,4 22,5.343 22,7 L22,17 C22,18.657 20.657,20 19,20 L17,20 C16.448,20 16,19.552 16,19 C16,18.448 15.552,18 15,18 C14.448,18 14,18.448 14,19 C14,19.552 13.552,20 13,20 L5,20 C3.343,20 2,18.657 2,17 Z M5,6 C4.448,6 4,6.448 4,7 L4,17 C4,17.552 4.448,18 5,18 L12.17,18 C12.593,16.8 13.728,15.998 15,15.998 C16.272,15.998 17.407,16.8 17.83,18 L19,18 C19.552,18 20,17.552 20,17 L20,7 C20,6.448 19.552,6 19,6 L17.83,6 C17.407,7.2 16.272,8.002 15,8.002 C13.728,8.002 12.593,7.2 12.17,6 Z M15,9 C15.552,9 16,9.448 16,10 L16,10.5 C16,11.052 15.552,11.5 15,11.5 C14.448,11.5 14,11.052 14,10.5 L14,10 C14,9.448 14.448,9 15,9 Z M16,13.5 L16,14 C16,14.552 15.552,15 15,15 C14.448,15 14,14.552 14,14 L14,13.5 C14,12.948 14.448,12.5 15,12.5 C15.552,12.5 16,12.948 16,13.5 Z"/>
</svg>

