<svg xmlns="http://www.w3.org/2000/svg" width="24" height="24">
  <defs/>
  <path  d="M13,4 C13.507,4 13.934,4.38 13.993,4.883 L14,5 C14.001,5.529 14.413,5.966 14.941,5.997 C15.47,6.028 15.931,5.642 15.993,5.117 L16,5 C16,4.448 16.448,4 17,4 L19,4 C20.657,4 22,5.343 22,7 L22,17 C22,18.657 20.657,20 19,20 L17,20 C16.493,20 16.066,19.62 16.007,19.117 L16,19 C15.999,18.471 15.587,18.034 15.059,18.003 C14.53,17.972 14.069,18.358 14.007,18.883 L14,19 C14,19.552 13.552,20 13,20 L5,20 C3.343,20 2,18.657 2,17 L2,7 C2,5.343 3.343,4 5,4 Z M15,13 C14.448,13 14,13.448 14,14 L14,15 C14,15.552 14.448,16 15,16 C15.552,16 16,15.552 16,15 L16,14 C16,13.448 15.552,13 15,13 Z M15,8 C14.493,8 14.066,8.38 14.007,8.883 L14,9 L14,10 C14.001,10.529 14.413,10.966 14.941,10.997 C15.47,11.028 15.931,10.642 15.993,10.117 L16,10 L16,9 C16,8.448 15.552,8 15,8 Z"/>
</svg>

