<svg xmlns="http://www.w3.org/2000/svg" width="24" height="24">
  <defs/>
  <path  d="M14,2 C15.105,2 16,2.895 16,4 C16.001,5.425 17.003,6.653 18.398,6.94 C19.48,7.16 20.18,8.216 19.96,9.298 C19.74,10.38 18.684,11.08 17.602,10.86 C17.048,10.747 16.51,10.568 16,10.325 L16,16 C16,19.118 13.611,21.716 10.504,21.979 C7.397,22.241 4.607,20.079 4.085,17.005 C3.562,13.931 5.482,10.969 8.501,10.19 C9.563,9.934 10.634,10.577 10.907,11.635 C11.179,12.693 10.553,13.774 9.499,14.063 C8.529,14.32 7.9,15.256 8.026,16.251 C8.153,17.246 8.997,17.994 10,18 C11.105,18 12,17.105 12,16 L12,4 C12,2.895 12.895,2 14,2 Z"/>
</svg>

