<svg xmlns="http://www.w3.org/2000/svg" width="24" height="24">
  <defs/>
  <path  d="M14,3 C14.552,3 15,3.448 15,4 C15.001,5.901 16.338,7.538 18.2,7.92 C18.741,8.03 19.09,8.559 18.98,9.1 C18.87,9.641 18.341,9.99 17.8,9.88 C16.758,9.667 15.792,9.18 15,8.47 L15,17 C15,19.761 12.761,22 10,22 C7.239,22 5,19.761 5,17 C5,14.239 7.239,12 10,12 C10.552,12 11,12.448 11,13 C11,13.552 10.552,14 10,14 C8.343,14 7,15.343 7,17 C7,18.657 8.343,20 10,20 C11.657,20 13,18.657 13,17 L13,4 C13,3.448 13.448,3 14,3 Z"/>
</svg>

