<svg xmlns="http://www.w3.org/2000/svg" width="24" height="24">
  <defs/>
  <path  d="M13,4 A1 1 0 1 0 11,4 L11,21 A1 1 0 1 0 13,21 Z M7,4 L10,4 L10,9 L7,9 A2 2 0 0 1 5,7 L5,6 A2 2 0 0 1 7,4 M5,10 L10,10 L10,15 L5,15 A2 2 0 0 1 3,13 L3,12 A2 2 0 0 1 5,10 M14,10 L14,15 L16,15 A2 2 0 0 0 18,13 L18,12 A2 2 0 0 0 16,10 Z M8,16 L10,16 L10,21 L8,21 A2 2 0 0 1 6,19 L6,18 A2 2 0 0 1 8,16 M14,16 L14,21 L19,21 A2 2 0 0 0 21,19 L21,18 A2 2 0 0 0 19,16 Z M14,4 L14,9 L18,9 A2 2 0 0 0 20,7 L20,6 A2 2 0 0 0 18,4 Z"/>
</svg>

