<svg xmlns="http://www.w3.org/2000/svg" width="24" height="24">
  <defs/>
  <path  d="M12.536,2.891 C12.72,2.083 13.523,1.577 14.331,1.761 C19.008,2.82 22.5,7 22.5,12 C22.5,17.799 17.799,22.5 12,22.5 C7.001,22.5 2.821,19.008 1.76,14.332 C1.577,13.524 2.083,12.72 2.891,12.537 C3.699,12.354 4.503,12.86 4.686,13.668 C5.512,17.285 8.859,19.754 12.559,19.477 C16.258,19.199 19.199,16.258 19.477,12.559 C19.754,8.859 17.285,5.512 13.668,4.686 C12.86,4.502 12.354,3.699 12.538,2.891 Z M12,5.5 C12.828,5.5 13.5,6.172 13.5,7 L13.5,11.379 L16.06,13.939 C16.45,14.315 16.607,14.873 16.47,15.398 C16.333,15.922 15.923,16.332 15.399,16.469 C14.875,16.607 14.317,16.451 13.94,16.061 L10.94,13.061 C10.658,12.78 10.5,12.398 10.5,12 L10.5,7 C10.5,6.172 11.172,5.5 12,5.5 Z M11.463,2.891 C11.646,3.699 11.14,4.503 10.332,4.686 C10.147,4.728 9.965,4.776 9.786,4.832 C8.994,5.077 8.154,4.633 7.91,3.842 C7.665,3.05 8.108,2.21 8.9,1.965 C9.152,1.887 9.408,1.819 9.667,1.76 C10.475,1.577 11.279,2.083 11.462,2.891 Z M3.84,7.91 C4.632,8.154 5.076,8.994 4.832,9.786 C4.777,9.965 4.728,10.147 4.686,10.332 C4.503,11.14 3.699,11.646 2.891,11.463 C2.083,11.28 1.577,10.476 1.76,9.668 C1.819,9.408 1.887,9.153 1.965,8.901 C2.209,8.109 3.049,7.665 3.841,7.91 Z M6.98,4.381 C7.543,4.988 7.507,5.937 6.9,6.5 C6.762,6.628 6.628,6.762 6.5,6.9 C5.937,7.508 4.988,7.543 4.38,6.98 C3.772,6.417 3.737,5.468 4.3,4.86 C4.48,4.666 4.667,4.48 4.86,4.3 C5.467,3.737 6.417,3.772 6.98,4.38 Z"/>
</svg>

