<svg xmlns="http://www.w3.org/2000/svg" width="24" height="24">
  <defs/>
  <path  d="M13.025,3.002 C13.147,2.464 13.683,2.126 14.221,2.248 C18.675,3.258 22.001,7.24 22.001,12 C22.001,17.523 17.523,22 12.001,22 C7.24,22 3.258,18.675 2.248,14.221 C2.14,13.689 2.477,13.167 3.007,13.047 C3.537,12.927 4.066,13.252 4.198,13.779 C5.079,17.637 8.649,20.272 12.595,19.976 C16.542,19.68 19.679,16.543 19.975,12.596 C20.271,8.65 17.636,5.08 13.778,4.199 C13.24,4.076 12.902,3.54 13.025,3.002 Z M12,6 C12.552,6 13,6.448 13,7 L13,11.586 L15.707,14.293 C16.086,14.685 16.081,15.309 15.695,15.695 C15.309,16.081 14.685,16.086 14.293,15.707 L11.293,12.707 C11.105,12.52 11,12.265 11,12 L11,7 C11,6.448 11.448,6 12,6 Z M10.975,3.002 C11.097,3.54 10.759,4.076 10.221,4.198 C10.025,4.243 9.83,4.295 9.638,4.354 C9.11,4.517 8.55,4.221 8.387,3.694 C8.225,3.166 8.52,2.606 9.048,2.443 C9.288,2.369 9.532,2.303 9.778,2.248 C10.317,2.125 10.853,2.463 10.975,3.002 Z M6.614,4.72 C6.795,4.914 6.891,5.173 6.881,5.438 C6.871,5.703 6.756,5.954 6.561,6.134 C6.413,6.27 6.271,6.413 6.134,6.56 C5.756,6.953 5.133,6.971 4.733,6.6 C4.333,6.229 4.304,5.606 4.668,5.2 C4.838,5.016 5.016,4.838 5.2,4.667 C5.394,4.486 5.653,4.39 5.918,4.4 C6.183,4.41 6.434,4.525 6.614,4.72 Z M3.693,8.388 C4.221,8.551 4.517,9.11 4.354,9.638 C4.295,9.83 4.243,10.025 4.198,10.221 C4.066,10.748 3.537,11.073 3.007,10.953 C2.477,10.833 2.14,10.311 2.248,9.779 C2.304,9.532 2.369,9.289 2.443,9.049 C2.606,8.521 3.165,8.225 3.693,8.388 Z"/>
</svg>

