<svg xmlns="http://www.w3.org/2000/svg" width="24" height="24">
  <defs/>
  <path  d="M13,4 A1 1 0 1 0 11,4 L11,21 A1 1 0 1 0 13,21 Z M7,4 L10,4 L10,6 L7,6 L7,7 L10,7 L10,9 L7,9 A2 2 0 0 1 5,7 L5,6 A2 2 0 0 1 7,4 M18,7 L14,7 L14,9 L18,9 A2 2 0 0 0 20,7 L20,6 A2 2 0 0 0 18,4 L14,4 L14,6 L18,6 Z M10,10 L5,10 A2 2 0 0 0 3,12 L3,13 A2 2 0 0 0 5,15 L10,15 L10,13 L5,13 L5,12 L10,12 Z M14,10 L14,12 L16,12 L16,13 L14,13 L14,15 L16,15 A2 2 0 0 0 18,13 L18,12 A2 2 0 0 0 16,10 Z M10,16 L8,16 A2 2 0 0 0 6,18 L6,19 A2 2 0 0 0 8,21 L10,21 L10,19 L8,19 L8,18 L10,18 Z M14,16 L14,18 L19,18 L19,19 L14,19 L14,21 L19,21 A2 2 0 0 0 21,19 L21,18 A2 2 0 0 0 19,16 Z"/>
</svg>

