<svg xmlns="http://www.w3.org/2000/svg" width="24" height="24">
  <defs/>
  <path  d="M18,2 C19.105,2 20,2.895 20,4 L20,12.803 C17.447,11.328 14.201,11.927 12.342,14.215 C10.483,16.503 10.562,19.803 12.528,22 L6,22 C4.895,22 4,21.105 4,20 L4,4 C4,2.895 4.895,2 6,2 Z M17,14 C19.209,14 21,15.791 21,18 C21,20.209 19.209,22 17,22 C14.791,22 13,20.209 13,18 C13,15.791 14.791,14 17,14 Z M14,7 L8,7 C7.471,7.001 7.034,7.413 7.003,7.941 C6.972,8.47 7.358,8.931 7.883,8.993 L8,9 L14,9 C14.529,8.999 14.966,8.587 14.997,8.059 C15.028,7.53 14.642,7.069 14.117,7.007 Z M17,15.5 C16.493,15.5 16.066,15.88 16.007,16.383 L16,16.5 L16,18 C16,18.507 16.38,18.934 16.883,18.993 L17,19 L18,19 C18.529,18.999 18.966,18.587 18.997,18.059 C19.028,17.53 18.642,17.069 18.117,17.007 L18,17 L18,16.5 C18,15.948 17.552,15.5 17,15.5 Z M9,11 L8,11 C7.448,11 7,11.448 7,12 C7,12.552 7.448,13 8,13 L9,13 C9.552,13 10,12.552 10,12 C10,11.448 9.552,11 9,11 Z"/>
</svg>

