<svg xmlns="http://www.w3.org/2000/svg" width="24" height="24">
  <defs/>
  <path  d="M4,4 C4,2.895 4.895,2 6,2 L18,2 C19.105,2 20,2.895 20,4 L20,10 L18,10 L18,4 L6,4 L6,20 L11,20 L11,22 L6,22 C4.895,22 4,21.105 4,20 Z M12,17 C12,14.239 14.239,12 17,12 C19.761,12 22,14.239 22,17 C22,19.761 19.761,22 17,22 C14.239,22 12,19.761 12,17 Z M17,14 C15.343,14 14,15.343 14,17 C14,18.657 15.343,20 17,20 C18.657,20 20,18.657 20,17 C20,15.343 18.657,14 17,14 Z M8,8 C8,7.448 8.448,7 9,7 L15,7 C15.552,7 16,7.448 16,8 C16,8.552 15.552,9 15,9 L9,9 C8.448,9 8,8.552 8,8 Z M17,14.5 C17.552,14.5 18,14.948 18,15.5 L18,16 C18.552,16 19,16.448 19,17 C19,17.552 18.552,18 18,18 L17,18 C16.448,18 16,17.552 16,17 L16,15.5 C16,14.948 16.448,14.5 17,14.5 Z M8,12 C8,11.448 8.448,11 9,11 L10,11 C10.552,11 11,11.448 11,12 C11,12.552 10.552,13 10,13 L9,13 C8.448,13 8,12.552 8,12 Z"/>
</svg>

