<svg xmlns="http://www.w3.org/2000/svg" width="24" height="24">
  <defs/>
  <path  d="M16,8 C18.209,8 20,9.791 20,12 C20,14.209 18.209,16 16,16 C13.791,16 12,14.209 12,12 C12,9.791 13.791,8 16,8 Z M14,12 C14,13.105 14.895,14 16,14 C17.105,14 18,13.105 18,12 C18,10.895 17.105,10 16,10 C14.895,10 14,10.895 14,12 Z"/>
  <path  d="M8,5 L16,5 C19.866,5 23,8.134 23,12 C23,15.866 19.866,19 16,19 L8,19 C4.134,19 1,15.866 1,12 C1,8.134 4.134,5 8,5 Z M3,12 C3,14.761 5.239,17 8,17 L16,17 C18.761,17 21,14.761 21,12 C21,9.239 18.761,7 16,7 L8,7 C5.239,7 3,9.239 3,12 Z"/>
</svg>

