<svg xmlns="http://www.w3.org/2000/svg" width="24" height="24">
  <defs/>
  <path  d="M16,5 C19.866,5 23,8.134 23,12 C23,15.866 19.866,19 16,19 L8,19 C4.134,19 1,15.866 1,12 C1,8.134 4.134,5 8,5 Z M16,7 L8,7 C5.239,7 3,9.239 3,12 C3,14.761 5.239,17 8,17 L16,17 C18.761,17 21,14.761 21,12 C21,9.239 18.761,7 16,7 Z M8,8 C10.209,8 12,9.791 12,12 C12,14.209 10.209,16 8,16 C5.791,16 4,14.209 4,12 C4,9.791 5.791,8 8,8 Z M8,10 C6.895,10 6,10.895 6,12 C6,13.105 6.895,14 8,14 C9.105,14 10,13.105 10,12 C10,10.895 9.105,10 8,10 Z"/>
</svg>

