<svg xmlns="http://www.w3.org/2000/svg" width="24" height="24">
  <defs/>
  <path  d="M18,3 C19.454,3 20.452,4.235 21.03,5.485 C21.601,6.725 21.948,8.343 21.995,10.094 L22,10.5 L22,20 A1 1 0 0 1 20.96,21 L20.836,20.986 L18,20.514 L15.164,20.986 A1 1 0 0 1 14.802,20.98 L14.684,20.949 L12,20.054 L9.316,20.949 A1 1 0 0 1 8.007,20.119 L8,20 L8,17.073 C7.469,17.623 6.804,18 6,18 C4.546,18 3.548,16.765 2.97,15.515 C2.356,14.18 2,12.406 2,10.5 C2,8.594 2.355,6.82 2.97,5.485 C3.521,4.291 4.456,3.112 5.805,3.008 L6,3 Z M18,5 L8.782,5 C8.872,5.16 8.954,5.322 9.029,5.485 C9.645,6.82 10,8.594 10,10.5 L10,18.613 L11.684,18.051 A1 1 0 0 1 12.316,18.051 L15.081,18.973 L17.836,18.513 C17.944,18.495 18.056,18.495 18.164,18.513 L20,18.82 L20,10.5 C20,8.816 19.683,7.34 19.213,6.323 C18.705,5.22 18.203,5 18,5 M6,5 C5.797,5 5.295,5.22 4.787,6.323 C4.317,7.34 4,8.816 4,10.5 C4,12.184 4.317,13.66 4.787,14.677 C5.295,15.78 5.797,16 6,16 C6.203,16 6.705,15.78 7.213,14.677 C7.683,13.66 8,12.184 8,10.5 C8,8.816 7.683,7.34 7.213,6.323 C6.705,5.22 6.203,5 6,5 M6,8.5 C6.552,8.5 7,9.395 7,10.5 C7,11.605 6.552,12.5 6,12.5 C5.448,12.5 5,11.605 5,10.5 C5,9.395 5.448,8.5 6,8.5"/>
</svg>

