<svg xmlns="http://www.w3.org/2000/svg" width="24" height="24">
  <defs/>
  <path  d="M12,22 C6.477,22 2,17.523 2,12 C2,6.477 6.477,2 12,2 C17.523,2 22,6.477 22,12 C22,17.523 17.523,22 12,22 Z M9,13 C8.448,13 8,13.448 8,14 C8,14.552 8.448,15 9,15 L9,16 C9,17.657 10.343,19 12,19 C13.657,19 15,17.657 15,16 L15,15 C15.552,15 16,14.552 16,14 C16,13.448 15.552,13 15,13 Z M16.949,7.684 C16.775,7.16 16.208,6.876 15.684,7.051 C14.987,7.285 14.368,7.705 13.892,8.265 C13.524,8.68 13.239,9.162 13.052,9.684 C12.95,9.989 13.002,10.324 13.189,10.585 C13.377,10.845 13.679,11 14,11 C14.5,11.026 14.952,11.367 15.293,11.707 C15.544,11.967 15.916,12.071 16.266,11.98 C16.615,11.888 16.888,11.615 16.98,11.266 C17.071,10.916 16.967,10.544 16.707,10.293 C16.355,9.957 15.981,9.652 15.55,9.421 C15.809,9.186 16.1,9.035 16.425,8.905 C16.884,8.69 17.109,8.165 16.949,7.684 Z M8.5,11 C9.328,11 10,10.328 10,9.5 C10,8.672 9.328,8 8.5,8 C7.672,8 7,8.672 7,9.5 C7,10.328 7.672,11 8.5,11 Z"/>
</svg>

