<svg xmlns="http://www.w3.org/2000/svg" width="24" height="24">
  <defs/>
  <path  d="M2,12 C2,6.477 6.477,2 12,2 C17.523,2 22,6.477 22,12 C22,17.523 17.523,22 12,22 C6.477,22 2,17.523 2,12 Z M12,4 C7.582,4 4,7.582 4,12 C4,16.418 7.582,20 12,20 C16.418,20 20,16.418 20,12 C20,7.582 16.418,4 12,4 Z M9,13 L15,13 C15.552,13 16,13.448 16,14 C16,14.552 15.552,15 15,15 L15,16 C15,17.657 13.657,19 12,19 C10.343,19 9,17.657 9,16 L9,15 C8.448,15 8,14.552 8,14 C8,13.448 8.448,13 9,13 Z M16.949,7.684 C17.124,8.208 16.84,8.775 16.316,8.949 C16.03,9.051 15.77,9.212 15.55,9.421 C15.981,9.652 16.355,9.957 16.707,10.293 C16.967,10.544 17.071,10.916 16.98,11.266 C16.888,11.615 16.615,11.888 16.266,11.98 C15.916,12.071 15.544,11.967 15.293,11.707 C14.751,11.165 14.255,11 14,11 C13.679,11 13.377,10.845 13.189,10.585 C13.002,10.324 12.95,9.989 13.052,9.684 C13.239,9.162 13.524,8.68 13.892,8.265 C14.368,7.705 14.987,7.285 15.684,7.051 C16.208,6.876 16.775,7.16 16.949,7.684 Z M7,9.5 C7,8.672 7.672,8 8.5,8 C9.328,8 10,8.672 10,9.5 C10,10.328 9.328,11 8.5,11 C7.672,11 7,10.328 7,9.5 Z M11,16 C11,16.552 11.448,17 12,17 C12.552,17 13,16.552 13,16 L13,15 L11,15 Z"/>
</svg>

