<svg xmlns="http://www.w3.org/2000/svg" width="24" height="24">
  <defs/>
  <path  d="M6.798,2.884 C9.303,1.881 12.162,2.406 14.147,4.235 C16.131,6.064 16.888,8.87 16.092,11.449 L20.486,15.167 C21.565,16.084 22.037,17.53 21.708,18.907 C21.379,20.284 20.303,21.36 18.926,21.689 C17.549,22.018 16.103,21.546 15.186,20.467 L11.469,16.073 C8.89,16.869 6.083,16.112 4.254,14.127 C2.425,12.143 1.9,9.283 2.904,6.778 C3.262,5.884 4.384,5.771 4.967,6.405 L8.17,9.883 L9.616,9.595 L9.906,8.146 L6.426,4.948 C5.792,4.365 5.904,3.242 6.799,2.884 Z M8.805,4.42 L11.568,6.96 C11.89,7.256 12.034,7.698 11.948,8.125 L11.478,10.479 C11.379,10.974 10.991,11.361 10.496,11.46 L8.146,11.927 C7.718,12.012 7.277,11.868 6.982,11.547 L4.438,8.785 C4.227,10.535 4.953,12.266 6.348,13.343 C7.744,14.42 9.603,14.683 11.242,14.035 C11.743,13.836 12.315,13.979 12.664,14.39 L16.714,19.176 C17.142,19.684 17.82,19.908 18.467,19.754 C19.114,19.6 19.618,19.096 19.772,18.449 C19.926,17.802 19.702,17.124 19.194,16.696 L14.409,12.646 C13.998,12.297 13.855,11.725 14.054,11.224 C14.702,9.585 14.44,7.725 13.363,6.33 C12.286,4.934 10.554,4.209 8.804,4.42 Z"/>
</svg>

