<svg xmlns="http://www.w3.org/2000/svg" width="24" height="24">
  <defs/>
  <path  d="M7.527,2.657 C10.076,2 12.777,2.828 14.52,4.801 C16.263,6.773 16.752,9.556 15.787,12.004 L20.386,15.897 C21.337,16.701 21.755,17.971 21.466,19.183 C21.177,20.394 20.232,21.339 19.02,21.628 C17.809,21.916 16.538,21.498 15.735,20.547 L11.844,15.95 C9.395,16.917 6.611,16.428 4.638,14.685 C2.665,12.942 1.837,10.239 2.494,7.69 C2.587,7.332 2.867,7.053 3.226,6.963 C3.584,6.873 3.963,6.986 4.214,7.258 L7.259,10.565 L9.556,9.72 L10.403,7.42 L7.094,4.38 C6.821,4.129 6.707,3.749 6.797,3.389 C6.888,3.03 7.168,2.749 7.527,2.657 Z"/>
</svg>

