<svg xmlns="http://www.w3.org/2000/svg" width="24" height="24">
  <defs/>
  <path  d="M3,4 C3,3.448 3.448,3 4,3 L20,3 C20.552,3 21,3.448 21,4 C21,4.552 20.552,5 20,5 L4,5 C3.448,5 3,4.552 3,4 Z M4,8 C4,7.448 4.448,7 5,7 L17,7 C17.552,7 18,7.448 18,8 C18,8.552 17.552,9 17,9 L5,9 C4.448,9 4,8.552 4,8 Z M8,12 C8,11.448 8.448,11 9,11 L19,11 C19.552,11 20,11.448 20,12 C20,12.552 19.552,13 19,13 L9,13 C8.448,13 8,12.552 8,12 Z M11,16 C11,15.448 11.448,15 12,15 L17,15 C17.552,15 18,15.448 18,16 C18,16.552 17.552,17 17,17 L12,17 C11.448,17 11,16.552 11,16 Z M10,20 C10,19.448 10.448,19 11,19 L14,19 C14.552,19 15,19.448 15,20 C15,20.552 14.552,21 14,21 L11,21 C10.448,21 10,20.552 10,20 Z"/>
</svg>

