<svg xmlns="http://www.w3.org/2000/svg" width="24" height="24">
  <defs/>
  <path  d="M2.5,4 C2.5,3.172 3.172,2.5 4,2.5 L20,2.5 C20.828,2.5 21.5,3.172 21.5,4 C21.5,4.828 20.828,5.5 20,5.5 L4,5.5 C3.172,5.5 2.5,4.828 2.5,4 Z M3.5,8 C3.5,7.172 4.172,6.5 5,6.5 L17,6.5 C17.828,6.5 18.5,7.172 18.5,8 C18.5,8.828 17.828,9.5 17,9.5 L5,9.5 C4.172,9.5 3.5,8.828 3.5,8 Z M7.5,12 C7.5,11.172 8.172,10.5 9,10.5 L19,10.5 C19.828,10.5 20.5,11.172 20.5,12 C20.5,12.828 19.828,13.5 19,13.5 L9,13.5 C8.172,13.5 7.5,12.828 7.5,12 Z M10.5,16 C10.5,15.172 11.172,14.5 12,14.5 L17,14.5 C17.828,14.5 18.5,15.172 18.5,16 C18.5,16.828 17.828,17.5 17,17.5 L12,17.5 C11.172,17.5 10.5,16.828 10.5,16 Z M9.5,20 C9.5,19.172 10.172,18.5 11,18.5 L14,18.5 C14.828,18.5 15.5,19.172 15.5,20 C15.5,20.828 14.828,21.5 14,21.5 L11,21.5 C10.172,21.5 9.5,20.828 9.5,20 Z"/>
</svg>

