<svg xmlns="http://www.w3.org/2000/svg" width="24" height="24">
  <defs/>
  <path  d="M7.25,16.582 C7.577,17.26 8.187,17.783 8.832,18.142 C9.822,18.692 11.12,19 12.5,19 C13.193,19 13.865,18.922 14.488,18.775 C14.217,19.075 13.878,19.301 13.568,19.455 C12.86,19.81 11.95,20 11,20 C10.05,20 9.14,19.81 8.431,19.455 C7.782,19.131 7,18.497 7,17.5 C7,17.15 7.096,16.845 7.25,16.582 M17.968,14.099 C17.988,14.229 18,14.362 18,14.5 C18,15.718 17.123,16.611 16.168,17.142 C15.178,17.692 13.88,18 12.5,18 C11.12,18 9.821,17.691 8.832,17.142 C8.099,16.734 7.412,16.113 7.132,15.295 C8.369,15.746 9.888,16 11.5,16 C13.406,16 15.18,15.646 16.515,15.03 A5.82 5.82 0 0 0 17.968,14.099 M4.022,10.669 C4.532,11.16 5.199,11.566 5.942,11.891 C7.544,12.591 9.686,13 12,13 C14.314,13 16.456,12.592 18.058,11.891 C18.376,11.751 18.679,11.598 18.963,11.429 C18.749,12.652 17.638,13.511 16.515,14.029 C15.18,14.646 13.406,15 11.5,15 C9.594,15 7.82,14.646 6.485,14.03 C5.235,13.451 4,12.453 4,11 C4,10.887 4.007,10.777 4.022,10.67 Z M12,3 C14.314,3 16.456,3.408 18.058,4.109 C18.857,4.459 19.567,4.901 20.09,5.443 C20.619,5.989 21,6.686 21,7.5 C21,8.314 20.619,9.01 20.09,9.557 C19.567,10.099 18.857,10.541 18.058,10.891 C16.456,11.591 14.314,12 12,12 C9.686,12 7.544,11.592 5.942,10.891 C5.143,10.541 4.433,10.099 3.91,9.557 C3.38,9.011 3,8.314 3,7.5 C3,6.686 3.381,5.99 3.91,5.443 C4.433,4.901 5.143,4.459 5.942,4.109 C7.544,3.409 9.686,3 12,3"/>
</svg>

