<svg xmlns="http://www.w3.org/2000/svg" width="24" height="24">
  <defs/>
  <path  d="M12,3 C14.592,3 16.986,3.465 18.77,4.258 C19.66,4.654 20.444,5.151 21.017,5.754 C21.596,6.362 22,7.122 22,8 C22,9.365 21.06,10.421 19.85,11.175 C19.945,11.43 20,11.705 20,12 C20,12.847 19.547,13.538 18.977,14.045 C18.646,14.333 18.282,14.581 17.891,14.781 C17.961,15.007 18,15.247 18,15.5 C18,16.504 17.395,17.295 16.668,17.824 C16.158,18.184 15.593,18.459 14.995,18.637 C14.928,19.555 14.188,20.146 13.569,20.455 C12.859,20.81 11.95,21 11,21 C10.05,21 9.14,20.81 8.431,20.455 C7.782,20.131 7,19.497 7,18.5 C7,17.927 7.27,17.464 7.6,17.132 C7.237,16.679 7,16.134 7,15.5 C7,15.394 7.007,15.29 7.02,15.187 C6.371,14.942 5.79,14.641 5.316,14.285 C4.608,13.753 4,12.985 4,12 C4,11.706 4.055,11.43 4.15,11.175 C2.94,10.42 2,9.365 2,8 C2,7.122 2.404,6.362 2.983,5.754 C3.556,5.151 4.339,4.654 5.23,4.258 C7.014,3.465 9.408,3 12,3 Z M12,5 C9.621,5 7.516,5.43 6.042,6.085 C5.304,6.413 4.769,6.778 4.432,7.132 C4.099,7.482 4,7.773 4,8 C4,8.453 4.457,9.198 5.992,9.892 C7.467,10.559 9.592,11 12,11 C14.407,11 16.534,10.56 18.008,9.892 C19.543,9.198 20,8.453 20,8 C20,7.773 19.9,7.482 19.568,7.132 C19.231,6.778 18.696,6.413 17.958,6.085 C16.484,5.431 14.378,5 12,5 Z M17.995,12.052 C16.32,12.655 14.232,13 12,13 C9.768,13 7.681,12.655 6.005,12.052 C6.026,12.171 6.127,12.392 6.517,12.685 C6.963,13.02 7.664,13.345 8.587,13.589 C9.563,13.846 10.732,14 12,14 C13.601,14 15.04,13.755 16.126,13.37 C16.827,13.12 17.334,12.83 17.646,12.552 C17.906,12.322 17.978,12.152 17.996,12.052 Z M16,15.502 C14.82,15.822 13.45,16 12,16 C10.968,16 9.978,15.91 9.07,15.743 C9.164,15.921 9.37,16.151 9.795,16.389 C10.435,16.747 11.389,17 12.5,17 C12.882,17 13.25,16.97 13.594,16.915 C14.417,16.782 15.07,16.513 15.491,16.207 C15.917,15.897 15.999,15.637 16,15.502 Z M9.272,18.362 C9.197,18.401 9.127,18.448 9.062,18.502 C9.112,18.543 9.194,18.6 9.326,18.666 C9.703,18.855 10.293,19 11,19 C11.225,19 11.438,18.985 11.636,18.96 C10.821,18.889 10.023,18.687 9.272,18.361 Z"/>
</svg>

