<svg xmlns="http://www.w3.org/2000/svg" width="24" height="24">
  <defs/>
  <path  d="M8.232,2.36 C8.509,2.027 8.97,1.911 9.372,2.072 L9.479,2.122 L20.479,8.122 C20.862,8.331 21.066,8.764 20.982,9.192 C20.899,9.621 20.547,9.945 20.113,9.994 L20,10 L18,10 L18,12.994 C18.014,13.025 18.033,13.054 18.057,13.079 C18.115,13.146 18.203,13.221 18.317,13.295 L18.439,13.367 C19.724,14.07 20.314,15.597 19.835,16.981 C19.355,18.365 17.947,19.201 16.502,18.958 C15.058,18.715 14,17.465 14,16 C14.001,15.471 14.413,15.034 14.941,15.003 C15.47,14.972 15.931,15.358 15.993,15.883 L16,16 C16,16.488 16.353,16.905 16.834,16.986 C17.316,17.067 17.785,16.788 17.945,16.327 C18.105,15.865 17.908,15.356 17.479,15.122 C17.124,14.933 16.806,14.682 16.539,14.381 C16.243,14.048 16.058,13.632 16.009,13.189 L16,13 L16,10 L12,10 L12,21 C12,21.507 11.62,21.934 11.117,21.993 L11,22 L7,22 C6.493,22 6.066,21.62 6.007,21.117 L6,21 L6,10 L4,10 C3.635,10 3.299,9.801 3.123,9.481 C2.947,9.161 2.96,8.771 3.156,8.463 L3.232,8.36 Z M10,4.685 L10,8 L16.078,8 Z M10,10 L8,10 L8,12.382 L10,11.382 Z M10,17.618 L8,18.618 L8,20 L10,20 Z M10,13.618 L8,14.618 L8,16.382 L10,15.382 Z M8,5.762 L6.135,8 L8,8 Z"/>
</svg>

