<svg xmlns="http://www.w3.org/2000/svg" width="24" height="24">
  <defs/>
  <path  d="M12,2 C12.507,2 12.934,2.38 12.993,2.883 L13,3 L13,3.723 L13.166,4 L14,4 C14.465,4 14.868,4.319 14.974,4.772 C15.081,5.224 14.861,5.69 14.445,5.896 L14.332,5.943 L15.566,8 L17,8 C17.529,8.001 17.966,8.413 17.997,8.941 C18.028,9.47 17.642,9.931 17.117,9.993 L17,10 L16,10 C16.628,10.836 17,11.874 17,13 C17.001,14.574 16.26,16.057 15,17 C15.911,17.683 16.562,18.656 16.845,19.758 L16.9,20 L19,20 C19.529,20.001 19.966,20.413 19.997,20.941 C20.028,21.47 19.642,21.931 19.117,21.993 L19,22 L5,22 C4.471,21.999 4.034,21.587 4.003,21.059 C3.972,20.53 4.358,20.069 4.883,20.007 L5,20 L7.1,20 C7.345,18.801 8.021,17.734 9,17 C7.74,16.057 6.999,14.574 7,13 C7,11.968 7.313,11.01 7.848,10.213 L8,10 L7,10 C6.471,9.999 6.034,9.587 6.003,9.059 C5.972,8.53 6.358,8.069 6.883,8.007 L7,8 L8.434,8 L9.668,5.943 C9.23,5.788 8.956,5.352 9.007,4.89 C9.058,4.428 9.421,4.062 9.883,4.007 L10,4 L10.834,4 L11,3.723 L11,3 C11,2.448 11.448,2 12,2 Z M12,10 C10.343,10 9,11.343 9,13 C9,14.657 10.343,16 12,16 C13.657,16 15,14.657 15,13 C15,11.343 13.657,10 12,10 Z M12,18 C10.796,18 9.708,18.72 9.238,19.828 L9.17,20 L14.828,20 C14.404,18.802 13.271,18 12,18 Z M12.034,6 L11.966,6 L10.766,8 L13.234,8 Z"/>
</svg>

