<svg xmlns="http://www.w3.org/2000/svg" width="24" height="24">
  <defs/>
  <path  d="M11.06,1.94 L11.061,1.938 L11.956,2.833 L13.69,3.99 C14.708,4.669 15.47,5.667 15.857,6.828 L17.081,10.5 L17.586,10.5 C17.758,10.014 18.167,9.651 18.669,9.537 C19.171,9.424 19.697,9.576 20.061,9.94 L21.061,10.94 C21.646,11.526 21.646,12.474 21.061,13.06 L20.061,14.06 C19.697,14.424 19.171,14.576 18.669,14.463 C18.167,14.349 17.758,13.986 17.586,13.5 L17.081,13.5 L15.857,17.172 C15.47,18.332 14.708,19.331 13.69,20.009 L11.956,21.166 L11.061,22.061 C10.475,22.647 9.525,22.647 8.939,22.061 C8.353,21.475 8.353,20.525 8.939,19.939 L9.096,19.783 L5.169,13.5 L5,13.5 C4.172,13.5 3.5,12.828 3.5,12 C3.5,11.172 4.172,10.5 5,10.5 L5.169,10.5 L9.096,4.217 L8.94,4.06 C8.389,3.469 8.406,2.548 8.977,1.977 C9.548,1.406 10.469,1.389 11.06,1.94 Z M8.707,10.5 L13.92,10.5 L13.012,7.777 C12.836,7.249 12.49,6.795 12.027,6.487 L11.454,6.105 Z M11.454,17.895 L12.026,17.514 C12.489,17.206 12.835,16.752 13.011,16.224 L13.919,13.5 L8.706,13.5 Z"/>
</svg>

