<svg xmlns="http://www.w3.org/2000/svg" width="24" height="24">
  <defs/>
  <path  d="M10.707,2.293 L11.637,3.223 L13.413,4.406 C14.338,5.023 15.032,5.931 15.383,6.986 L16.72,11 L18,11 C18,10.596 18.244,10.231 18.617,10.076 C18.991,9.922 19.421,10.007 19.707,10.293 L20.707,11.293 C21.097,11.684 21.097,12.316 20.707,12.707 L19.707,13.707 C19.421,13.993 18.991,14.078 18.617,13.924 C18.244,13.769 18,13.404 18,13 L16.72,13 L15.383,17.014 C15.031,18.069 14.338,18.976 13.413,19.593 L11.637,20.777 L10.707,21.707 C10.456,21.967 10.084,22.071 9.734,21.98 C9.385,21.888 9.112,21.615 9.02,21.266 C8.929,20.916 9.033,20.544 9.293,20.293 L9.73,19.855 L5.446,13 L5,13 C4.448,13 4,12.552 4,12 C4,11.448 4.448,11 5,11 L5.446,11 L9.73,4.145 L9.293,3.707 C8.914,3.315 8.919,2.691 9.305,2.305 C9.691,1.919 10.315,1.914 10.707,2.293 Z M14.613,11 L13.485,7.618 C13.274,6.985 12.858,6.441 12.303,6.071 L11.303,5.403 L7.803,11 L14.613,11 Z M11.302,18.597 L12.303,17.929 C12.858,17.559 13.274,17.015 13.485,16.382 L14.613,13 L7.804,13 Z"/>
</svg>

