<svg xmlns="http://www.w3.org/2000/svg" width="24" height="24">
  <defs/>
  <path  d="M3.606,3.447 C3.47,3.176 3.465,2.858 3.592,2.582 C3.718,2.307 3.963,2.104 4.257,2.03 C4.789,1.897 5.381,1.925 5.914,2.013 C6.854,2.17 8.048,2.634 9.207,3.793 C10.322,4.908 11.01,6.152 11.419,7.106 C11.545,7.399 11.658,7.697 11.758,8 L15.36,8 C16.421,8 17.487,8.126 18.447,8.606 C19.708,9.236 20.838,10.44 21.894,12.553 C22.067,12.874 22.052,13.264 21.854,13.57 C21.656,13.876 21.307,14.051 20.944,14.025 C20.58,14 20.259,13.778 20.106,13.447 C19.51,12.257 18.945,11.501 18.422,11.012 L19.452,16.163 C19.876,15.883 20.443,15.967 20.769,16.356 C21.095,16.746 21.077,17.319 20.727,17.687 L20.728,17.687 C20.728,17.687 20.242,18.131 20.091,18.252 C19.544,18.682 18.959,19.061 18.343,19.384 C16.801,20.2 14.517,21 11.5,21 C8.483,21 6.2,20.2 4.657,19.384 C3.889,18.977 3.306,18.567 2.909,18.252 L2.273,17.687 C1.905,17.285 1.927,16.662 2.322,16.287 C2.717,15.911 3.34,15.922 3.723,16.31 C3.911,16.493 4.111,16.662 4.323,16.816 L6.393,10.19 L5.701,9.268 L4.447,9.894 C4.062,10.086 3.597,10.011 3.293,9.707 L1.793,8.207 C1.447,7.861 1.402,7.317 1.686,6.919 L3.836,3.909 Z M17.674,17.47 L16.341,10.804 C16.207,10.136 15.569,10.004 14.983,10 L11,10 C10.517,10 10.118,9.652 10.017,9.187 C9.91,8.744 9.764,8.311 9.581,7.894 C9.24,7.098 8.678,6.092 7.793,5.207 C7.14,4.554 6.509,4.236 5.997,4.082 C5.982,4.262 5.919,4.435 5.814,4.582 L3.806,7.392 L4.197,7.783 L5.553,7.106 C5.985,6.89 6.51,7.014 6.8,7.4 L8.3,9.4 C8.493,9.657 8.55,9.991 8.454,10.298 L6.09,17.863 C6.541,18.073 7.057,18.277 7.638,18.452 L9.064,14.649 C9.21,14.259 9.583,14 10,14 L14,14 C14.417,14 14.79,14.259 14.936,14.649 L16.248,18.146 C16.798,17.931 17.274,17.697 17.674,17.47 Z M14.325,18.716 L13.307,16 L10.693,16 L9.614,18.877 C10.239,18.96 10.869,19.001 11.5,19 C12.549,19 13.49,18.89 14.325,18.716 Z"/>
</svg>

