<svg xmlns="http://www.w3.org/2000/svg" width="24" height="24">
  <defs/>
  <path  d="M3.606,3.447 C3.47,3.176 3.465,2.858 3.592,2.582 C3.718,2.307 3.963,2.104 4.257,2.03 C4.323,2.013 4.66,1.964 4.773,1.956 C5.154,1.93 5.537,1.949 5.914,2.013 C6.854,2.17 8.048,2.634 9.207,3.793 C10.322,4.908 11.01,6.152 11.419,7.106 C11.545,7.399 11.658,7.697 11.758,8 L15.45,8 C16.34,8.01 17.39,8.077 18.447,8.606 C19.708,9.236 20.838,10.44 21.894,12.553 C22.067,12.874 22.052,13.264 21.854,13.57 C21.656,13.876 21.307,14.051 20.944,14.025 C20.58,14 20.259,13.778 20.106,13.447 C19.51,12.257 18.945,11.501 18.422,11.012 L19.452,16.163 C19.876,15.883 20.443,15.967 20.769,16.356 C21.095,16.746 21.077,17.319 20.727,17.687 L20.728,17.687 C20.728,17.687 20.242,18.131 20.091,18.252 C19.544,18.682 18.959,19.061 18.343,19.384 C16.801,20.2 14.517,21 11.5,21 C8.483,21 6.2,20.2 4.657,19.384 C3.889,18.977 3.306,18.567 2.909,18.252 L2.273,17.687 C1.905,17.285 1.927,16.662 2.322,16.287 C2.717,15.911 3.34,15.922 3.723,16.31 C3.859,16.444 4.002,16.569 4.153,16.686 C4.209,16.73 4.266,16.773 4.323,16.816 L6.393,10.19 L5.701,9.268 L4.447,9.894 C4.062,10.086 3.597,10.011 3.293,9.707 L1.793,8.207 C1.447,7.861 1.402,7.317 1.686,6.919 L3.836,3.909 Z M14.326,18.715 L13.306,16 L10.692,16 L9.613,18.876 C10.198,18.955 10.826,19 11.499,19 C12.548,19 13.489,18.89 14.324,18.715 Z"/>
</svg>

