<svg xmlns="http://www.w3.org/2000/svg" width="24" height="24">
  <defs/>
  <path  d="M14,2 C16.131,2 17.888,3.671 17.995,5.8 L18,6 L18,18 C18,20.131 16.329,21.888 14.2,21.995 L14,22 L10,22 C7.869,22 6.112,20.329 6.005,18.2 L6,18 L6,6 C6,3.869 7.671,2.112 9.8,2.005 L10,2 Z M12,15 C10.895,15 10,15.895 10,17 C10,18.105 10.895,19 12,19 C13.105,19 14,18.105 14,17 C14,15.895 13.105,15 12,15 Z M12,5 C10.895,5 10,5.895 10,7 C10,8.105 10.895,9 12,9 C13.105,9 14,8.105 14,7 C14,5.895 13.105,5 12,5 Z M12,10 C10.895,10 10,10.895 10,12 C10,13.105 10.895,14 12,14 C13.105,14 14,13.105 14,12 C14,10.895 13.105,10 12,10 Z"/>
</svg>

