<svg xmlns="http://www.w3.org/2000/svg" width="24" height="24">
  <defs/>
  <path  d="M17,2 A4 4 0 0 1 21,6 L21,15 A4.002 4.002 0 0 1 17.873,18.904 L19.6,20.2 A1 1 0 0 1 18.4,21.8 L14.667,19 L9.333,19 L5.6,21.8 A1 1 0 1 1 4.4,20.2 L6.127,18.904 A4.001 4.001 0 0 1 3,15 L3,6 A4 4 0 0 1 7,2 Z M8.25,13.25 A1.25 1.25 0 1 0 8.25,15.75 A1.25 1.25 0 0 0 8.25,13.25 M15.75,13.25 A1.25 1.25 0 1 0 15.75,15.75 A1.25 1.25 0 0 0 15.75,13.25 M16.5,5 L7.5,5 A1.5 1.5 0 0 0 6.007,6.356 L6,6.5 L6,9.5 A1.5 1.5 0 0 0 7.356,10.993 L7.5,11 L16.5,11 A1.5 1.5 0 0 0 17.993,9.644 L18,9.5 L18,6.5 A1.5 1.5 0 0 0 16.644,5.007 Z M16,7 L16,9 L8,9 L8,7 Z"/>
</svg>

