<svg xmlns="http://www.w3.org/2000/svg" width="24" height="24">
  <defs/>
  <path  d="M17,2 C19.131,2 20.888,3.671 20.995,5.8 L21,6 L21,15 C21,16.8 19.798,18.378 18.063,18.857 L17.873,18.904 L19.6,20.2 C20.023,20.517 20.126,21.107 19.837,21.549 C19.547,21.991 18.964,22.131 18.505,21.869 L18.4,21.8 L14.667,19 L9.333,19 L5.6,21.8 C5.178,22.117 4.582,22.05 4.24,21.649 C3.897,21.248 3.925,20.649 4.304,20.282 L4.4,20.2 L6.127,18.904 C4.374,18.511 3.097,16.998 3.005,15.204 L3,15 L3,6 C3,3.869 4.671,2.112 6.8,2.005 L7,2 Z M17,4 L7,4 C5.895,4 5,4.895 5,6 L5,15 C5,16.105 5.895,17 7,17 L17,17 C18.105,17 19,16.105 19,15 L19,6 C19,4.895 18.105,4 17,4 Z M16.5,6 C17.273,6 17.919,6.587 17.993,7.356 L18,7.5 L18,10.5 C18,11.273 17.413,11.919 16.644,11.993 L16.5,12 L7.5,12 C6.727,12 6.081,11.413 6.007,10.644 L6,10.5 L6,7.5 C6,6.727 6.587,6.081 7.356,6.007 L7.5,6 Z M16,8 L8,8 L8,10 L16,10 Z M8.25,13.25 C8.94,13.25 9.5,13.81 9.5,14.5 C9.5,15.19 8.94,15.75 8.25,15.75 C7.56,15.75 7,15.19 7,14.5 C7,13.81 7.56,13.25 8.25,13.25 Z M15.75,13.25 C16.44,13.25 17,13.81 17,14.5 C17,15.19 16.44,15.75 15.75,15.75 C15.06,15.75 14.5,15.19 14.5,14.5 C14.5,13.81 15.06,13.25 15.75,13.25 Z"/>
</svg>

