<svg xmlns="http://www.w3.org/2000/svg" width="24" height="24">
  <defs/>
  <path  d="M17,2 A4 4 0 0 1 21,6 L21,15 A4.002 4.002 0 0 1 17.873,18.904 L19.6,20.2 A1 1 0 0 1 18.4,21.8 L14.667,19 L9.333,19 L5.6,21.8 A1 1 0 1 1 4.4,20.2 L6.127,18.904 A4.001 4.001 0 0 1 3,15 L3,6 A4 4 0 0 1 7,2 Z M19,12 L5,12 L5,15 A2 2 0 0 0 6.85,16.995 L7,17 L17,17 A2 2 0 0 0 18.995,15.15 L19,15 Z M12,13 A1.5 1.5 0 1 1 12,16 A1.5 1.5 0 0 1 12,13 M19,8 L5,8 L5,10 L19,10 Z M17,4 L7,4 A2 2 0 0 0 5.005,5.85 L5,6 L19,6 A2 2 0 0 0 17.15,4.005 Z"/>
</svg>

