<svg xmlns="http://www.w3.org/2000/svg" width="24" height="24">
  <defs/>
  <path  d="M14.72,2 A5 5 0 0 1 19.575,5.802 L19.624,6.019 L21.024,13.019 C21.52,15.501 20.095,17.849 17.884,18.682 L17.674,18.755 L19.6,20.2 A1 1 0 0 1 18.505,21.869 L18.4,21.8 L14.667,19 L9.333,19 L5.6,21.8 A1 1 0 0 1 4.304,20.282 L4.4,20.2 L6.326,18.755 C4.066,18.02 2.558,15.724 2.936,13.252 L2.976,13.019 L4.376,6.019 A5 5 0 0 1 9.056,2.005 L9.28,2 L14.722,2 Z M8.25,13.25 A1.25 1.25 0 1 0 8.25,15.75 A1.25 1.25 0 0 0 8.25,13.25 M15.75,13.25 A1.25 1.25 0 1 0 15.75,15.75 A1.25 1.25 0 0 0 15.75,13.25 M14.61,5 L9.39,5 A1.5 1.5 0 0 0 7.935,6.136 L7.185,9.136 A1.5 1.5 0 0 0 8.64,11 L15.36,11 A1.5 1.5 0 0 0 16.815,9.136 L16.065,6.136 A1.5 1.5 0 0 0 14.609,5 Z M14.22,7 L14.72,9 L9.28,9 L9.78,7 Z"/>
</svg>

