<svg xmlns="http://www.w3.org/2000/svg" width="24" height="24">
  <defs/>
  <path  d="M17,2 C19.209,2 21,3.791 21,6 L21,15 C20.999,16.873 19.7,18.495 17.873,18.904 L19.6,20.2 C20.042,20.531 20.131,21.158 19.8,21.6 C19.469,22.042 18.842,22.131 18.4,21.8 L14.667,19 L9.333,19 L5.6,21.8 C5.158,22.131 4.531,22.042 4.2,21.6 C3.869,21.158 3.958,20.531 4.4,20.2 L6.127,18.904 C4.299,18.495 3,16.873 3,15 L3,6 C3,3.791 4.791,2 7,2 Z M19,8 L5,8 L5,10 L19,10 Z M17,4 L7,4 C5.953,4 5.083,4.806 5.005,5.85 L5,6 L19,6 C19,4.953 18.194,4.083 17.15,4.005 Z M12,13 C11.172,13 10.5,13.672 10.5,14.5 C10.5,15.328 11.172,16 12,16 C12.828,16 13.5,15.328 13.5,14.5 C13.5,13.672 12.828,13 12,13 Z"/>
</svg>

