<svg xmlns="http://www.w3.org/2000/svg" width="24" height="24">
  <defs/>
  <path  d="M14.72,2 L14.722,2 C17.021,2.001 19.024,3.569 19.575,5.802 L19.624,6.019 L21.024,13.019 C21.52,15.501 20.095,17.849 17.884,18.682 L17.674,18.755 L19.6,20.2 C20.023,20.517 20.126,21.107 19.837,21.549 C19.547,21.991 18.964,22.131 18.505,21.869 L18.4,21.8 L14.667,19 L9.333,19 L5.6,21.8 C5.178,22.117 4.582,22.05 4.24,21.649 C3.897,21.248 3.925,20.649 4.304,20.282 L4.4,20.2 L6.326,18.755 C4.066,18.02 2.558,15.724 2.936,13.252 L2.976,13.019 L4.376,6.019 C4.827,3.764 6.759,2.107 9.056,2.005 L9.28,2 Z M14.72,4 L9.28,4 C7.849,3.999 6.617,5.009 6.337,6.412 L4.937,13.412 C4.761,14.293 4.989,15.208 5.559,15.903 C6.129,16.598 6.981,17 7.88,17 L16.122,17 C17.021,17 17.872,16.597 18.442,15.902 C19.012,15.207 19.24,14.293 19.064,13.412 L17.664,6.412 C17.384,5.009 16.151,3.999 14.72,4 Z M14.61,6 C15.248,6 15.816,6.403 16.026,7.005 L16.065,7.136 L16.815,10.136 C16.921,10.562 16.836,11.013 16.581,11.37 C16.327,11.728 15.928,11.956 15.491,11.994 L15.36,12 L8.64,12 C8.201,12 7.784,11.808 7.5,11.474 C7.215,11.14 7.09,10.698 7.159,10.265 L7.185,10.136 L7.935,7.136 C8.09,6.517 8.619,6.064 9.254,6.006 L9.39,6 Z M14.22,8 L9.78,8 L9.28,10 L14.72,10 Z M8.25,13.25 C8.94,13.25 9.5,13.81 9.5,14.5 C9.5,15.19 8.94,15.75 8.25,15.75 C7.56,15.75 7,15.19 7,14.5 C7,13.81 7.56,13.25 8.25,13.25 Z M15.75,13.25 C16.44,13.25 17,13.81 17,14.5 C17,15.19 16.44,15.75 15.75,15.75 C15.06,15.75 14.5,15.19 14.5,14.5 C14.5,13.81 15.06,13.25 15.75,13.25 Z"/>
</svg>

