<svg xmlns="http://www.w3.org/2000/svg" width="24" height="24">
  <defs/>
  <path  d="M12,5 C15.224,5 17.942,6.075 19.868,7.589 C21.759,9.075 23,11.085 23,13 C23,13.842 22.742,14.56 22.287,15.14 C21.844,15.706 21.253,16.09 20.651,16.354 C19.465,16.872 18.054,17 17,17 L2.994,17 C2.464,17 1.956,16.789 1.582,16.414 C1.208,16.038 0.999,15.53 1,15 L1,7 C1,5.899 1.89,5 2.998,5 Z M21,18 C21.552,18 22,18.448 22,19 C22,19.552 21.552,20 21,20 L2,20 C1.448,20 1,19.552 1,19 C1,18.448 1.448,18 2,18 Z M7,7 L3,7 L3,10 L7,10 Z M12,7 L9,7 L9,10 L13,10 L13,7.04 C12.78,7.022 12.559,7.01 12.338,7.005 Z M15,7.383 L15,10 L19.551,10 C19.266,9.698 18.959,9.417 18.632,9.161 C17.67,8.405 16.442,7.766 15,7.383 Z"/>
</svg>

