<svg xmlns="http://www.w3.org/2000/svg" width="24" height="24">
  <defs/>
  <path  d="M8.207,11.757 A1 1 0 0 1 8.207,13.172 L6.38,15 L16,15 A1 1 0 1 1 16,17 L6.38,17 L8.208,18.828 A1 1 0 1 1 6.794,20.243 L3.258,16.707 A1 1 0 0 1 3.258,15.293 L6.794,11.757 A1 1 0 0 1 8.208,11.757 Z M15.793,3.757 A1 1 0 0 1 17.113,3.674 L17.207,3.757 L20.743,7.293 A1 1 0 0 1 20.826,8.613 L20.743,8.707 L17.207,12.242 A1 1 0 0 1 15.71,10.922 L15.793,10.828 L17.62,9 L8,9 A1 1 0 0 1 7.883,7.007 L8,7 L17.621,7 L15.793,5.17 A1 1 0 0 1 15.793,3.756 Z"/>
</svg>

