<svg xmlns="http://www.w3.org/2000/svg" width="24" height="24">
  <defs/>
  <path  d="M9,2.5 A1.5 1.5 0 0 1 10.5,4 L10.5,4.5 L12.5,4.5 A1.5 1.5 0 0 1 13.428,7.178 C13.191,9.12 12.375,10.98 11.099,12.62 C11.471,12.917 11.869,13.2 12.296,13.466 L14.132,9.384 A1.5 1.5 0 0 1 16.868,9.384 L21.368,19.384 A1.5 1.5 0 0 1 18.632,20.616 L17.68,18.5 L13.32,18.5 L12.368,20.616 A1.5 1.5 0 0 1 9.632,19.384 L11.055,16.222 A15.737 15.737 0 0 1 8.998,14.777 A16.566 16.566 0 0 1 4.557,17.393 A1.5 1.5 0 1 1 3.443,14.607 A13.636 13.636 0 0 0 6.902,12.621 A12.22 12.22 0 0 1 5.39,10.106 A1.5 1.5 0 1 1 8.135,8.894 A9.027 9.027 0 0 0 9,10.414 C9.656,9.479 10.101,8.489 10.327,7.5 L4,7.5 A1.5 1.5 0 1 1 4,4.5 L7.5,4.5 L7.5,4 A1.5 1.5 0 0 1 9,2.5 M15.5,13.655 L14.67,15.5 L16.33,15.5 Z M19,1 A1 1 0 0 1 19.946,1.677 L20.076,2.055 A3 3 0 0 0 21.945,3.925 L22.323,4.054 A1 1 0 0 1 22.323,5.946 L21.945,6.076 A3 3 0 0 0 20.075,7.945 L19.946,8.323 A1 1 0 0 1 18.054,8.323 L17.924,7.945 A3 3 0 0 0 16.054,6.075 L15.677,5.946 A1 1 0 0 1 15.677,4.054 L16.055,3.924 A3 3 0 0 0 17.925,2.055 L18.054,1.677 A1 1 0 0 1 19,1"/>
</svg>

