<svg xmlns="http://www.w3.org/2000/svg" width="24" height="24">
  <defs/>
  <path  d="M15,11.5 L15,8 C15,7.448 15.448,7 16,7 L17.586,7 L14,3.413 L10.413,7 L12,7 C12.552,7 13,7.448 13,8 L13,11.973 C13,11.982 13,11.991 13,12 L13,15 L14.793,15 C16.129,15 16.799,16.615 15.854,17.56 L11.061,22.354 C10.475,22.94 9.525,22.94 8.939,22.354 L4.147,17.56 C3.201,16.615 3.871,15 5.207,15 L7,15 L7,12.5 C7,11.948 7.448,11.5 8,11.5 C8.552,11.5 9,11.948 9,12.5 L9,16 C9,16.552 8.552,17 8,17 L6.414,17 L10,20.586 L13.587,17 L12,17 C11.448,17 11,16.552 11,16 L11,9 L9.206,9 C7.87,9 7.2,7.384 8.147,6.44 L12.938,1.644 C13.524,1.058 14.474,1.058 15.06,1.644 L19.853,6.44 C20.798,7.384 20.129,9 18.793,9 L17,9 L17,11.5 C17,12.052 16.552,12.5 16,12.5 C15.448,12.5 15,12.052 15,11.5 Z"/>
</svg>

