<svg xmlns="http://www.w3.org/2000/svg" width="24" height="24">
  <defs/>
  <path  d="M11.996,13 L11.996,16 A1 1 0 0 0 12.996,17 L14.996,17 L14.996,18.793 C14.996,20.129 16.612,20.799 17.556,19.853 L20.409,17.003 L20.411,17.003 L22.351,15.063 C22.644,14.77 22.791,14.385 22.79,14.001 C22.79,13.617 22.644,13.233 22.35,12.939 L20.41,11 L20.409,11 L17.557,8.149 C16.612,7.204 14.997,7.873 14.997,9.209 L14.997,11.002 L14,11.002 L14,11 L12,11 L12,8.003 A1 1 0 0 0 11,7.003 L9,7.003 L9,5.209 C9,3.873 7.384,3.204 6.44,4.149 L3.586,7 L3.584,7 L1.644,8.94 C1.351,9.232 1.205,9.617 1.205,10 C1.205,10.385 1.351,10.77 1.645,11.063 L3.585,13.003 L3.586,13.003 L6.438,15.853 C7.384,16.8 9,16.13 9,14.794 L9,13 L11.996,13 Z"/>
</svg>

