<svg xmlns="http://www.w3.org/2000/svg" width="24" height="24">
  <defs/>
  <path  d="M16.496,6.5 A1.5 1.5 0 0 1 17.996,8 L17.996,16.414 L18.97,15.439 A1.5 1.5 0 1 1 21.092,17.561 L17.556,21.096 A1.5 1.5 0 0 1 15.435,21.096 L11.899,17.561 A1.5 1.5 0 1 1 14.021,15.439 L14.996,16.414 L14.996,8 A1.5 1.5 0 0 1 16.496,6.5 Z M8.556,2.904 L12.092,6.439 A1.5 1.5 0 1 1 9.97,8.561 L8.996,7.586 L8.996,16 A1.5 1.5 0 0 1 5.996,16 L5.996,7.586 L5.021,8.561 A1.5 1.5 0 1 1 2.899,6.439 L6.435,2.904 A1.5 1.5 0 0 1 8.556,2.904 Z"/>
</svg>

