<svg xmlns="http://www.w3.org/2000/svg" width="24" height="24">
  <defs/>
  <path  d="M11.5,9 L8,9 C7.448,9 7,8.552 7,8 L7,6.414 L3.413,10 L7,13.586 L7,12 C7,11.448 7.448,11 8,11 L15,11 L15,9.206 C15,7.87 16.615,7.2 17.56,8.146 L22.354,12.939 C22.94,13.525 22.94,14.474 22.354,15.06 L17.56,19.853 C16.615,20.798 15,20.129 15,18.793 L15,17 L12.5,17 C11.948,17 11.5,16.552 11.5,16 C11.5,15.448 11.948,15 12.5,15 L16,15 C16.552,15 17,15.448 17,16 L17,17.586 L20.586,14 L17,10.413 L17,12 C17,12.552 16.552,13 16,13 L8.998,13 L8.998,14.792 C8.998,16.128 7.383,16.798 6.438,15.853 L1.644,11.06 C1.058,10.474 1.058,9.524 1.644,8.938 L6.44,4.147 C7.384,3.2 9,3.87 9,5.207 L9,7 L11.5,7 C12.052,7 12.5,7.448 12.5,8 C12.5,8.552 12.052,9 11.5,9 Z"/>
</svg>

