<svg xmlns="http://www.w3.org/2000/svg" width="24" height="24">
  <defs/>
  <path  d="M9,3 C9.552,3 10,3.448 10,4 L10,5 L13,5 C13.552,5 14,5.448 14,6 C14,6.552 13.552,7 13,7 L12.945,7 C12.722,9.032 11.829,10.99 10.4,12.688 C11.056,13.254 11.767,13.755 12.521,14.182 L14.588,9.59 C14.749,9.231 15.106,9 15.5,9 C15.894,9 16.251,9.231 16.412,9.59 L20.912,19.59 C21.13,20.092 20.904,20.676 20.405,20.901 C19.906,21.125 19.319,20.906 19.088,20.41 L18.003,18 L12.996,18 L11.912,20.41 C11.681,20.906 11.094,21.125 10.595,20.901 C10.096,20.676 9.87,20.092 10.088,19.59 L11.698,16.014 C10.7,15.461 9.797,14.824 8.998,14.119 C7.711,15.255 6.15,16.217 4.371,16.929 C3.858,17.134 3.276,16.885 3.071,16.372 C2.866,15.859 3.115,15.277 3.628,15.072 C5.185,14.449 6.515,13.631 7.6,12.69 C6.756,11.697 6.087,10.568 5.622,9.35 C5.428,8.833 5.69,8.256 6.207,8.062 C6.725,7.869 7.301,8.131 7.495,8.648 C7.855,9.588 8.363,10.465 9,11.244 C10.065,9.921 10.72,8.458 10.928,7 L4,7 C3.448,7 3,6.552 3,6 C3,5.448 3.448,5 4,5 L8,5 L8,4 C8,3.448 8.448,3 9,3 Z M19,1 C19.428,1 19.808,1.272 19.946,1.677 L20.076,2.055 C20.376,2.934 21.066,3.625 21.945,3.925 L22.323,4.054 C22.727,4.193 22.999,4.573 22.999,5 C22.999,5.427 22.727,5.807 22.323,5.946 L21.945,6.076 C21.066,6.376 20.375,7.066 20.075,7.945 L19.946,8.323 C19.807,8.727 19.427,8.999 19,8.999 C18.573,8.999 18.193,8.727 18.054,8.323 L17.924,7.945 C17.624,7.066 16.934,6.375 16.055,6.075 L15.677,5.946 C15.273,5.807 15.001,5.427 15.001,5 C15.001,4.573 15.273,4.193 15.677,4.054 L16.055,3.924 C16.934,3.624 17.625,2.934 17.925,2.055 L18.054,1.677 C18.192,1.272 18.572,1 19,1 Z M17.103,16 L15.5,12.437 L13.898,16 Z M19,4.196 C18.763,4.494 18.494,4.763 18.196,5 C18.494,5.236 18.763,5.506 19,5.804 C19.236,5.506 19.506,5.236 19.804,5 C19.506,4.763 19.237,4.494 19,4.196 Z"/>
</svg>

