<svg xmlns="http://www.w3.org/2000/svg" width="24" height="24">
  <defs/>
  <path  d="M8.56,11.9 A1.5 1.5 0 0 1 8.56,14.02 L7.586,14.996 L16,14.996 A1.5 1.5 0 0 1 16,17.996 L7.586,17.996 L8.561,18.97 A1.5 1.5 0 1 1 6.439,21.092 L2.904,17.556 A1.5 1.5 0 0 1 2.904,15.435 L6.439,11.899 A1.5 1.5 0 0 1 8.561,11.899 Z M15.44,2.9 A1.5 1.5 0 0 1 17.447,2.796 L17.561,2.899 L21.096,6.435 A1.5 1.5 0 0 1 21.199,8.442 L21.096,8.556 L17.561,12.092 A1.5 1.5 0 0 1 15.336,10.084 L15.439,9.97 L16.414,8.996 L8,8.996 A1.5 1.5 0 0 1 7.856,6.002 L8,5.996 L16.414,5.996 L15.439,5.021 A1.5 1.5 0 0 1 15.439,2.899 Z"/>
</svg>

