<svg xmlns="http://www.w3.org/2000/svg" width="24" height="24">
  <defs/>
  <path  d="M20,10.5 A1.5 1.5 0 0 1 21.493,11.856 L21.5,12 L21.5,16 A4.5 4.5 0 0 1 17.212,20.495 L17,20.5 L4,20.5 A1.5 1.5 0 0 1 2.838,18.05 L2.939,17.94 L5.939,14.94 A1.5 1.5 0 0 1 8.164,16.947 L8.061,17.061 L7.621,17.5 L17,17.5 A1.5 1.5 0 0 0 18.493,16.144 L18.5,16 L18.5,12 A1.5 1.5 0 0 1 20,10.5 M20,3.5 A1.5 1.5 0 0 1 21.162,5.95 L21.061,6.06 L18.061,9.06 A1.5 1.5 0 0 1 15.836,7.053 L15.939,6.939 L16.379,6.5 L7,6.5 A1.5 1.5 0 0 0 5.507,7.856 L5.5,8 L5.5,12 A1.5 1.5 0 0 1 2.507,12.144 L2.5,12 L2.5,8 A4.5 4.5 0 0 1 6.788,3.505 L7,3.5 Z"/>
</svg>

