<svg xmlns="http://www.w3.org/2000/svg" width="24" height="24">
  <defs/>
  <path  d="M9,2.5 C9.773,2.5 10.419,3.087 10.493,3.856 L10.5,4 L10.5,4.5 L14,4.5 C14.8,4.5 15.459,5.129 15.498,5.928 C15.536,6.727 14.94,7.416 14.144,7.493 L14,7.5 L13.383,7.5 C13.099,9.326 12.305,11.071 11.099,12.62 C11.378,12.842 11.672,13.057 11.981,13.263 L12.296,13.466 L14.132,9.384 C14.363,8.869 14.864,8.528 15.427,8.501 C15.991,8.473 16.522,8.764 16.802,9.254 L16.868,9.384 L21.368,19.384 C21.696,20.114 21.393,20.972 20.681,21.335 C19.968,21.698 19.095,21.438 18.698,20.744 L18.632,20.616 L17.68,18.5 L13.32,18.5 L12.368,20.616 C12.041,21.349 11.196,21.695 10.449,21.401 C9.702,21.107 9.319,20.278 9.579,19.519 L9.632,19.385 L11.055,16.222 C10.332,15.796 9.644,15.313 8.998,14.777 C7.663,15.875 6.165,16.758 4.557,17.393 C3.788,17.701 2.915,17.326 2.607,16.557 C2.299,15.788 2.674,14.915 3.443,14.607 C4.687,14.118 5.853,13.449 6.902,12.621 C6.299,11.846 5.791,11.002 5.39,10.106 C5.055,9.348 5.398,8.462 6.156,8.127 C6.915,7.793 7.8,8.136 8.135,8.894 C8.374,9.427 8.663,9.936 9,10.414 C9.583,9.583 10,8.708 10.244,7.83 L10.327,7.5 L4,7.5 C3.2,7.5 2.54,6.872 2.502,6.073 C2.463,5.273 3.058,4.584 3.855,4.507 L4,4.5 L7.5,4.5 L7.5,4 C7.5,3.172 8.172,2.5 9,2.5 Z M15.5,13.655 L14.67,15.5 L16.33,15.5 Z"/>
</svg>

