<svg xmlns="http://www.w3.org/2000/svg" width="24" height="24">
  <defs/>
  <path  d="M9,3 C9.507,3 9.934,3.38 9.993,3.883 L10,4 L10,5 L14,5 C14.529,5.001 14.965,5.414 14.996,5.942 C15.027,6.47 14.641,6.931 14.116,6.993 L14,7 L12.945,7 C12.722,9.032 11.829,10.99 10.4,12.688 C10.923,13.142 11.502,13.566 12.135,13.954 L12.521,14.182 L14.588,9.59 C14.74,9.252 15.066,9.026 15.435,9.002 C15.804,8.978 16.157,9.16 16.351,9.475 L16.411,9.59 L20.911,19.59 C21.129,20.073 20.932,20.642 20.462,20.887 C19.992,21.133 19.413,20.969 19.141,20.514 L19.088,20.41 L18.003,18 L12.996,18 L11.912,20.41 C11.696,20.894 11.139,21.126 10.643,20.937 C10.147,20.748 9.885,20.205 10.046,19.699 L10.088,19.589 L11.698,16.013 C10.732,15.481 9.827,14.846 8.998,14.119 C7.711,15.255 6.15,16.217 4.371,16.929 C3.858,17.134 3.276,16.885 3.071,16.372 C2.866,15.859 3.115,15.277 3.628,15.072 C5.185,14.449 6.515,13.631 7.6,12.69 C6.756,11.697 6.087,10.568 5.622,9.35 C5.428,8.833 5.69,8.256 6.207,8.062 C6.725,7.869 7.301,8.131 7.495,8.648 C7.855,9.588 8.363,10.465 9,11.244 C9.989,10.017 10.625,8.668 10.877,7.313 L10.928,7 L4,7 C3.471,6.999 3.034,6.587 3.003,6.059 C2.972,5.53 3.358,5.069 3.883,5.007 L4,5 L8,5 L8,4 C8,3.448 8.448,3 9,3 Z M17.103,16 L15.5,12.437 L13.898,16 Z"/>
</svg>

