<svg xmlns="http://www.w3.org/2000/svg" width="24" height="24">
  <defs/>
  <path  d="M20,10 A1 1 0 0 1 20.993,10.883 L21,11 L21,16 A4 4 0 0 1 17.2,19.995 L17,20 L4,20 A1 1 0 0 1 3.205,18.393 L3.293,18.293 L6.293,15.293 A1 1 0 0 1 7.79,16.613 L7.707,16.707 L6.414,18 L17,18 A2 2 0 0 0 18.995,16.15 L19,16 L19,11 A1 1 0 0 1 20,10 M20,4 A1 1 0 0 1 20.795,5.607 L20.707,5.707 L17.707,8.707 A1 1 0 0 1 16.21,7.387 L16.293,7.293 L17.586,6 L7,6 A2 2 0 0 0 5.006,7.85 L5,8 L5,13 A1 1 0 0 1 3.007,13.117 L3,13 L3,8 A4 4 0 0 1 6.8,4.005 L7,4 Z"/>
</svg>

