<svg xmlns="http://www.w3.org/2000/svg" width="24" height="24">
  <defs/>
  <path  d="M11,12 L8,12 A1 1 0 0 0 7,13 L7,15 L5.205,15 C3.869,15 3.2,16.615 4.145,17.56 L6.995,20.412 L6.995,20.414 L8.935,22.354 C9.228,22.647 9.613,22.794 9.997,22.794 C10.382,22.794 10.766,22.647 11.059,22.354 L12.999,20.414 L12.999,20.412 L15.849,17.56 C16.794,16.615 16.125,15 14.789,15 L12.996,15 L12.996,14.003 L12.998,14.003 L12.998,12.003 L15.996,12.003 A1 1 0 0 0 16.996,11.003 L16.996,9.003 L18.789,9.003 C20.125,9.003 20.794,7.388 19.849,6.443 L17,3.59 L17,3.587 L15.06,1.647 A1.496 1.496 0 0 0 13.998,1.208 C13.614,1.208 13.229,1.354 12.936,1.648 L10.996,3.588 L10.996,3.59 L8.146,6.442 C7.201,7.387 7.87,9.002 9.206,9.002 L11,9.002 L11,12 Z"/>
</svg>

