<svg xmlns="http://www.w3.org/2000/svg" width="24" height="24">
  <defs/>
  <path  d="M17,11 A1 1 0 0 1 18,12 L18,13 L19.5,13 A1.5 1.5 0 0 1 21,14.5 L21,17.5 A1.5 1.5 0 0 1 19.5,19 L18,19 L18,20 A1 1 0 1 1 16,20 L16,19 L14.5,19 A1.5 1.5 0 0 1 13,17.5 L13,14.5 A1.5 1.5 0 0 1 14.5,13 L16,13 L16,12 A1 1 0 0 1 17,11 M5,15 A1 1 0 0 1 6,16 L6,17 A1 1 0 0 0 7,18 L10,18 A1 1 0 1 1 10,20 L7,20 A3 3 0 0 1 4,17 L4,16 A1 1 0 0 1 5,15 M19,15 L18,15 L18,17 L19,17 Z M16,15 L15,15 L15,17 L16,17 Z M9.5,3 A1 1 0 1 1 9.5,5 L5,5 L5,7 L9,7 A1 1 0 0 1 9,9 L5,9 L5,11 L10,11 A1 1 0 1 1 10,13 L4.1,13 A1.1 1.1 0 0 1 3,11.9 L3,4.1 A1.1 1.1 0 0 1 4.1,3 Z M17,4 A3 3 0 0 1 20,7 L20,9 A1 1 0 1 1 18,9 L18,7 A1 1 0 0 0 17,6 L14,6 A1 1 0 1 1 14,4 Z"/>
</svg>

