<svg xmlns="http://www.w3.org/2000/svg" width="24" height="24">
  <defs/>
  <path  d="M16,7 A1 1 0 0 1 16.993,7.883 L17,8 L17,17.621 L18.828,15.793 A1 1 0 0 1 20.326,17.113 L20.242,17.207 L16.707,20.743 A1 1 0 0 1 15.387,20.826 L15.293,20.743 L11.757,17.207 A1 1 0 0 1 13.077,15.71 L13.172,15.793 L15,17.62 L15,8 A1 1 0 0 1 16,7 Z M8.707,3.257 L12.242,6.793 A1 1 0 1 1 10.828,8.207 L9,6.379 L9,15.999 A1 1 0 1 1 7,15.999 L7,6.38 L5.17,8.207 A1 1 0 0 1 3.756,6.793 L7.292,3.257 A1 1 0 0 1 8.706,3.257 Z"/>
</svg>

