<svg xmlns="http://www.w3.org/2000/svg" width="24" height="24">
  <defs/>
  <path  d="M17,10.5 A1.5 1.5 0 0 1 18.493,11.856 L18.5,12 L18.5,12.5 L19.5,12.5 A2 2 0 0 1 21.495,14.35 L21.5,14.5 L21.5,17.5 A2 2 0 0 1 19.65,19.495 L19.5,19.5 L18.5,19.5 L18.5,20 A1.5 1.5 0 0 1 15.507,20.144 L15.5,20 L15.5,19.5 L14.5,19.5 A2 2 0 0 1 12.505,17.65 L12.5,17.5 L12.5,14.5 A2 2 0 0 1 14.35,12.505 L14.5,12.5 L15.5,12.5 L15.5,12 A1.5 1.5 0 0 1 17,10.5 M5,14.5 A1.5 1.5 0 0 1 6.5,16 L6.5,17 A0.5 0.5 0 0 0 7,17.5 L10,17.5 A1.5 1.5 0 0 1 10,20.5 L7,20.5 A3.5 3.5 0 0 1 3.5,17 L3.5,16 A1.5 1.5 0 0 1 5,14.5 M15.5,15 L14.5,15 L14.5,17 L15.5,17 Z M19.5,15 L18.5,15 L18.5,17 L19.5,17 Z M9.5,2.5 A1.5 1.5 0 0 1 9.5,5.5 L5.5,5.5 L5.5,6.5 L9,6.5 A1.5 1.5 0 1 1 9,9.5 L5.5,9.5 L5.5,10.5 L10,10.5 A1.5 1.5 0 0 1 10,13.5 L4.1,13.5 A1.6 1.6 0 0 1 2.5,11.9 L2.5,4.1 A1.6 1.6 0 0 1 4.1,2.5 Z M17,3.5 A3.5 3.5 0 0 1 20.5,7 L20.5,9 A1.5 1.5 0 0 1 17.5,9 L17.5,7 A0.5 0.5 0 0 0 17,6.5 L14,6.5 A1.5 1.5 0 0 1 14,3.5 Z"/>
</svg>

