<svg xmlns="http://www.w3.org/2000/svg" width="24" height="24">
  <defs/>
  <path  d="M12.707,2.293 A1 1 0 0 0 11.293,2.293 L7.293,6.293 A1 1 0 0 0 7.118,7.471 C7.365,7.934 7.751,8.246 8.128,8.458 L5.293,11.293 A1 1 0 0 0 5.293,12.707 C5.771,13.185 6.375,13.477 6.927,13.659 L4.293,16.293 A1 1 0 0 0 4.689,17.95 C5.379,18.177 6.092,18.338 6.804,18.48 C7.584,18.637 8.55,18.792 9.649,18.892 L9.051,20.684 A1 1 0 0 0 10,22 L14,22 A1 1 0 0 0 14.949,20.684 L14.351,18.892 C15.451,18.792 16.417,18.637 17.196,18.481 C17.908,18.338 18.626,18.177 19.316,17.949 A1 1 0 0 0 19.707,16.293 L17.073,13.659 C17.625,13.478 18.229,13.185 18.707,12.707 A1 1 0 0 0 18.707,11.293 L15.872,8.458 C16.249,8.246 16.635,7.934 16.882,7.471 A1 1 0 0 0 16.707,6.293 Z"/>
</svg>

