<svg xmlns="http://www.w3.org/2000/svg" width="24" height="24">
  <defs/>
  <path  d="M12.618,5.004 C12.712,5.167 12.793,5.337 12.861,5.514 C14.246,4.777 15.777,4.68 17.109,5.192 C19.239,6.012 20.565,8.274 19.981,11.196 A1 1 0 0 1 18.629,11.929 L13.905,10.039 C14.54,12.308 14.605,14.617 14.498,16.434 A25.017 25.017 0 0 1 13.972,20.234 A1.02 1.02 0 0 1 13,21 L10.5,21 A1 1 0 0 1 9.605,19.554 C10.059,18.644 10.359,17.634 10.589,16.648 C10.969,15.019 11.185,12.948 10.697,10.868 L5.28,14.348 A1 1 0 0 1 3.75,13.645 C3.374,10.952 4.466,8.554 6.32,7.293 C6.405,7.235 6.492,7.179 6.58,7.126 L4.664,6.442 A1 1 0 0 1 4.293,4.793 C6.046,3.04 8.438,2.55 10.316,3.176 C11.262,3.492 12.103,4.102 12.618,5.004"/>
</svg>

