<svg xmlns="http://www.w3.org/2000/svg" width="24" height="24">
  <defs/>
  <path  d="M4.293,4.793 C6.046,3.04 8.438,2.55 10.316,3.176 C11.262,3.492 12.103,4.102 12.618,5.004 C12.712,5.167 12.793,5.337 12.861,5.514 C14.246,4.777 15.777,4.68 17.109,5.192 C19.239,6.012 20.565,8.274 19.981,11.196 C19.927,11.466 19.764,11.701 19.531,11.847 C19.298,11.994 19.015,12.037 18.749,11.968 L18.629,11.928 L13.905,10.039 C14.54,12.308 14.605,14.618 14.498,16.434 C14.459,17.09 14.395,17.745 14.305,18.396 L14.227,18.92 L14.189,19.153 C14.127,19.518 14.059,19.883 13.97,20.243 C13.868,20.647 13.527,20.946 13.113,20.993 L13,21 L9.5,21 C9.154,21 8.832,20.821 8.65,20.526 C8.39,20.107 8.538,19.679 8.72,19.266 L8.885,18.901 C8.903,18.861 8.919,18.821 8.935,18.781 L9.073,18.407 C9.278,17.83 9.45,17.243 9.589,16.647 C9.911,15.267 10.115,13.567 9.872,11.813 L9.813,11.436 L5.28,14.348 C4.993,14.532 4.632,14.557 4.323,14.415 C4.013,14.273 3.797,13.982 3.75,13.645 C3.374,10.952 4.466,8.554 6.32,7.293 L6.449,7.207 L6.579,7.127 L4.664,6.442 C4.341,6.327 4.1,6.054 4.024,5.72 C3.949,5.385 4.051,5.035 4.293,4.793 Z M13.255,7.626 L18.111,9.568 C18.023,8.227 17.266,7.396 16.391,7.058 C15.506,6.718 14.326,6.814 13.255,7.626 Z M11.845,10.132 L11.613,10.281 C12.237,12.811 11.964,15.269 11.536,17.102 C11.366,17.836 11.166,18.48 10.984,19 L12.185,19 L12.255,18.593 L12.325,18.114 C12.337,18.029 12.349,17.941 12.36,17.85 L12.425,17.277 C12.455,16.976 12.482,16.654 12.502,16.317 C12.609,14.485 12.519,12.233 11.845,10.132 Z M10.48,8.63 C9.347,8.18 8.273,8.382 7.443,8.946 C6.681,9.465 6.067,10.332 5.808,11.426 L5.758,11.664 Z M7.181,5.217 L11.099,6.617 C11.064,6.399 10.99,6.189 10.882,5.997 C10.647,5.585 10.238,5.258 9.684,5.074 C8.974,4.837 8.067,4.854 7.181,5.217 Z"/>
</svg>

