<svg xmlns="http://www.w3.org/2000/svg" width="24" height="24">
  <defs/>
  <path  d="M9.479,3.04 C10.259,2.479 11.167,2 12,2 C12.833,2 13.74,2.479 14.521,3.04 C15.351,3.636 16.224,4.463 17.021,5.425 C18.587,7.319 20,9.916 20,12.5 C20,14.96 18.783,16.637 17.154,17.652 C15.888,18.442 14.384,18.832 13,18.955 L13,21 C13,21.552 12.552,22 12,22 C11.448,22 11,21.552 11,21 L11,18.955 C9.616,18.831 8.112,18.441 6.846,17.652 C5.217,16.637 4,14.96 4,12.5 C4,9.916 5.412,7.32 6.98,5.425 C7.775,4.463 8.65,3.635 9.479,3.04 Z M12,17 C12.334,17 12.668,16.981 13,16.945 L13,14.32 L15.314,11.081 C15.635,10.631 15.531,10.007 15.081,9.686 C14.631,9.365 14.007,9.469 13.686,9.919 L11.872,12.459 L10.707,11.293 C10.315,10.914 9.691,10.919 9.305,11.305 C8.919,11.691 8.914,12.315 9.293,12.707 L11,14.414 L11,16.945 C11.332,16.981 11.666,17 12,17 Z"/>
</svg>

