<svg xmlns="http://www.w3.org/2000/svg" width="24" height="24">
  <defs/>
  <path  d="M4,10.5 C4,5.872 7.518,2 12,2 C16.482,2 20,5.872 20,10.5 C20,14.778 16.994,18.41 13,18.935 L13,21 C13,21.552 12.552,22 12,22 C11.448,22 11,21.552 11,21 L11,18.935 C7.006,18.41 4,14.778 4,10.5 Z M12,4 C8.75,4 6,6.844 6,10.5 C6,13.774 8.205,16.397 11,16.91 L11,14.414 L9.293,12.707 C9.033,12.456 8.929,12.084 9.02,11.734 C9.112,11.385 9.385,11.112 9.734,11.02 C10.084,10.929 10.456,11.033 10.707,11.293 L11.872,12.458 L13.686,9.918 C14.007,9.468 14.632,9.364 15.082,9.686 C15.531,10.007 15.635,10.631 15.314,11.081 L13,14.321 L13,16.909 C15.795,16.397 18,13.774 18,10.5 C18,6.844 15.25,4 12,4 Z"/>
</svg>

