<svg xmlns="http://www.w3.org/2000/svg" width="24" height="24">
  <defs/>
  <path  d="M12.707,2.293 L16.707,6.293 C17.018,6.604 17.089,7.083 16.882,7.471 C16.635,7.934 16.249,8.246 15.872,8.458 L18.707,11.293 C19.097,11.684 19.097,12.316 18.707,12.707 C18.229,13.185 17.625,13.477 17.073,13.659 L19.707,16.293 C19.952,16.538 20.053,16.893 19.973,17.23 C19.893,17.568 19.644,17.84 19.315,17.949 C18.623,18.178 17.91,18.338 17.196,18.481 C16.654,18.589 16.021,18.697 15.316,18.787 L15.949,20.684 C16.051,20.989 15.999,21.324 15.811,21.585 C15.623,21.846 15.321,22 15,22 L9,22 C8.679,22 8.377,21.846 8.189,21.585 C8.001,21.324 7.949,20.989 8.051,20.684 L8.684,18.787 C8.054,18.707 7.427,18.605 6.804,18.481 C6.269,18.374 5.739,18.248 5.213,18.103 L4.683,17.949 C4.354,17.839 4.106,17.567 4.026,17.23 C3.947,16.892 4.048,16.538 4.293,16.293 L6.927,13.659 C6.375,13.478 5.771,13.185 5.293,12.707 C4.903,12.316 4.903,11.684 5.293,11.293 L8.128,8.458 C7.751,8.246 7.365,7.934 7.118,7.471 C6.911,7.083 6.982,6.604 7.293,6.293 L11.293,2.293 C11.684,1.903 12.316,1.903 12.707,2.293 Z M12,4.414 L9.528,6.886 L9.628,6.915 L9.815,6.958 L10.091,7.004 C10.474,7.044 10.808,7.294 10.941,7.659 C11.073,8.024 10.982,8.433 10.707,8.707 L7.63,11.784 C8.053,11.914 8.535,12 9.002,12 C9.406,12.001 9.77,12.245 9.924,12.618 C10.078,12.992 9.993,13.421 9.707,13.707 L6.947,16.468 L7.461,16.571 C8.639,16.793 10.218,17 12,17 C13.428,16.997 14.854,16.871 16.26,16.622 L16.804,16.519 L17.054,16.468 L14.293,13.708 C14.022,13.437 13.93,13.036 14.055,12.674 C14.18,12.312 14.501,12.054 14.881,12.008 L14.999,12 C15.464,11.991 15.925,11.918 16.37,11.784 L13.293,8.707 C13.035,8.449 12.938,8.071 13.04,7.721 C13.141,7.371 13.425,7.104 13.781,7.024 L14.104,6.974 L14.276,6.938 C14.338,6.924 14.405,6.907 14.472,6.886 Z M13.269,18.968 C12.562,19.003 11.854,19.009 11.146,18.986 L10.731,18.968 L10.387,20 L13.613,20 Z"/>
</svg>

