<svg xmlns="http://www.w3.org/2000/svg" width="24" height="24">
  <defs/>
  <path  d="M6.846,17.652 C5.217,16.637 4,14.96 4,12.5 C4,9.916 5.413,7.319 6.979,5.425 C7.775,4.463 8.649,3.636 9.479,3.04 C10.26,2.479 11.167,2 12,2 C12.833,2 13.741,2.479 14.521,3.04 C15.35,3.635 16.224,4.463 17.02,5.425 C18.588,7.32 20,9.916 20,12.5 C20,14.96 18.783,16.637 17.154,17.652 C15.888,18.441 14.383,18.831 13,18.955 L13,21 C13,21.552 12.552,22 12,22 C11.448,22 11,21.552 11,21 L11,18.955 C9.616,18.832 8.112,18.442 6.846,17.652 Z M8.52,6.7 C7.088,8.43 6,10.584 6,12.5 C6,14.182 6.783,15.256 7.904,15.955 C8.797,16.511 9.911,16.827 11,16.945 L11,14.415 L9.293,12.707 C9.033,12.456 8.929,12.084 9.02,11.734 C9.112,11.385 9.385,11.112 9.734,11.02 C10.084,10.929 10.456,11.033 10.707,11.293 L11.872,12.458 L13.686,9.918 C14.007,9.468 14.632,9.364 15.082,9.686 C15.531,10.007 15.635,10.631 15.314,11.081 L13,14.321 L13,16.945 C14.09,16.827 15.203,16.511 16.096,15.955 C17.217,15.255 18,14.182 18,12.5 C18,10.584 16.912,8.43 15.48,6.7 C14.775,5.85 14.024,5.145 13.354,4.664 C12.634,4.146 12.167,4 12,4 C11.833,4 11.366,4.146 10.646,4.664 C9.976,5.145 9.225,5.849 8.52,6.7 Z"/>
</svg>

