<svg xmlns="http://www.w3.org/2000/svg" width="24" height="24">
  <defs/>
  <path  d="M4,10.5 C4,5.872 7.518,2 12,2 C16.482,2 20,5.872 20,10.5 C20,14.778 16.994,18.41 13,18.935 L13,21 C13,21.552 12.552,22 12,22 C11.448,22 11,21.552 11,21 L11,18.935 C7.006,18.41 4,14.778 4,10.5 Z M12,17 C12.34,17 12.674,16.969 13,16.91 L13,14.32 L15.314,11.081 C15.635,10.631 15.531,10.007 15.081,9.686 C14.631,9.365 14.007,9.469 13.686,9.919 L11.872,12.459 L10.707,11.293 C10.315,10.914 9.691,10.919 9.305,11.305 C8.919,11.691 8.914,12.315 9.293,12.707 L11,14.414 L11,16.909 C11.326,16.969 11.66,17 12,17 Z"/>
</svg>

