<svg xmlns="http://www.w3.org/2000/svg" width="24" height="24">
  <defs/>
  <path  d="M19,3 C20.105,3 21,3.895 21,5 L21,19 C21,20.105 20.105,21 19,21 L5,21 C3.895,21 3,20.105 3,19 L3,5 C3,3.895 3.895,3 5,3 Z M19,5 L5,5 L5,19 L19,19 Z M10,6 C10.828,6 11.5,6.672 11.5,7.5 L11.5,15.5 C11.5,16.328 10.828,17 10,17 L7.5,17 C6.672,17 6,16.328 6,15.5 L6,7.5 C6,6.672 6.672,6 7.5,6 Z M16.5,6 C17.273,6 17.919,6.587 17.993,7.356 L18,7.5 L18,10.5 C18,11.273 17.413,11.919 16.644,11.993 L16.5,12 L14,12 C13.227,12 12.581,11.413 12.507,10.644 L12.5,10.5 L12.5,7.5 C12.5,6.727 13.087,6.081 13.856,6.007 L14,6 Z M9.5,8 L8,8 L8,15 L9.5,15 Z M16,8 L14.5,8 L14.5,10 L16,10 Z"/>
</svg>

