<svg xmlns="http://www.w3.org/2000/svg" width="24" height="24">
  <defs/>
  <path  d="M19,3 C20.105,3 21,3.895 21,5 L21,19 C21,20.105 20.105,21 19,21 L5,21 C3.895,21 3,20.105 3,19 L3,5 C3,3.895 3.895,3 5,3 Z M9.5,6 L7.5,6 C6.727,6 6.081,6.587 6.007,7.356 L6,7.5 L6,15.5 C6,16.273 6.587,16.919 7.356,16.993 L7.5,17 L9.5,17 C10.273,17 10.919,16.413 10.993,15.644 L11,15.5 L11,7.5 C11,6.727 10.413,6.081 9.644,6.007 Z M16.5,6 L14.5,6 C13.672,6 13,6.672 13,7.5 L13,10.5 C13,11.328 13.672,12 14.5,12 L16.5,12 C17.328,12 18,11.328 18,10.5 L18,7.5 C18,6.672 17.328,6 16.5,6 Z"/>
</svg>

