<svg xmlns="http://www.w3.org/2000/svg" width="24" height="24">
  <defs/>
  <path  d="M5,4 L19,4 C19.552,4 20,4.448 20,5 L20,7 C20.552,7 21,7.448 21,8 C21,8.552 20.552,9 20,9 L20,12 C20.552,12 21,12.448 21,13 C21,13.552 20.552,14 20,14 L20,18 C20.552,18 21,18.448 21,19 C21,19.552 20.552,20 20,20 L14,20 C13.448,20 13,19.552 13,19 C13,18.448 13.448,18 14,18 L14,14 C14,12.895 13.105,12 12,12 C10.895,12 10,12.895 10,14 L10,18 C10.552,18 11,18.448 11,19 C11,19.552 10.552,20 10,20 L4,20 C3.448,20 3,19.552 3,19 C3,18.448 3.448,18 4,18 L4,14 C3.448,14 3,13.552 3,13 C3,12.448 3.448,12 4,12 L4,9 C3.448,9 3,8.552 3,8 C3,7.448 3.448,7 4,7 L4,5 C4,4.448 4.448,4 5,4 Z M18,9 L6,9 L6,12 L8.535,12 C9.249,10.762 10.571,9.999 12,10 C13.48,10 14.773,10.804 15.465,12 L18,12 Z M18,7 L18,6 L6,6 L6,7 Z M8,14 L6,14 L6,18 L8,18 Z M18,14 L16,14 L16,18 L18,18 Z"/>
</svg>

