<svg xmlns="http://www.w3.org/2000/svg" width="24" height="24">
  <defs/>
  <path  d="M15,4 A2 2 0 0 1 17,6 L17,7 L18.52,7 A2 2 0 0 1 20.081,7.75 L21.561,9.601 A2 2 0 0 1 22,10.851 L22,15 A2 2 0 0 1 20,17 A3 3 0 1 1 14,17 L10,17 A3 3 0 1 1 4,17 A2 2 0 0 1 2,15 L2,6 A2 2 0 0 1 4,4 Z M7,16 A1 1 0 1 0 7,18 A1 1 0 0 0 7,16 M17,16 A1 1 0 1 0 17,18 A1 1 0 0 0 17,16 M15,6 L4,6 L4,15 L4.764,15 A2.997 2.997 0 0 1 9.105,14.862 L9.236,15 L14.764,15 L14.879,14.879 L15,14.764 Z M18.52,9 L17,9 L17,14 C17.82,14 18.563,14.33 19.105,14.862 L19.236,15 L20,15 L20,10.85 Z"/>
</svg>

