<svg xmlns="http://www.w3.org/2000/svg" width="24" height="24">
  <defs/>
  <path  d="M19.668,7.248 L19.051,6.837 L17.231,8.202 C17.734,8.637 18.228,9.083 18.711,9.54 C18.929,9.747 19.271,9.847 19.537,9.976 C20.738,10.563 21.5,11.784 21.5,13.121 L21.5,15 C21.5,16.933 19.933,18.5 18,18.5 L16.163,18.5 C15.584,19.722 14.352,20.502 13,20.502 C11.648,20.502 10.416,19.722 9.837,18.5 L3,18.5 L3,15.5 L9.837,15.5 C10.416,14.278 11.648,13.498 13,13.498 C14.352,13.498 15.584,14.278 16.163,15.5 L18,15.5 C18.276,15.5 18.5,15.276 18.5,15 L18.5,13.12 C18.5,12.929 18.392,12.754 18.22,12.67 C17.663,12.399 17.103,12.15 16.647,11.717 C15.985,11.091 15.302,10.487 14.6,9.906 C13.73,9.191 12.855,8.299 11.726,8.023 C10.736,7.78 9.694,7.713 8.68,7.643 C6.799,7.52 4.914,7.477 3.029,7.512 L2.971,4.512 C4.853,4.476 7.025,4.522 8.888,4.651 C10.32,4.75 12.027,4.775 13.344,5.418 C13.811,5.646 14.303,5.948 14.789,6.283 L17.534,4.225 C18.382,3.589 19.539,3.557 20.421,4.145 L21.332,4.752 C21.784,5.046 22.044,5.561 22.011,6.1 C21.978,6.639 21.658,7.119 21.174,7.356 C20.689,7.594 20.114,7.552 19.668,7.248 Z M13,16.5 C12.724,16.5 12.5,16.724 12.5,17 C12.5,17.276 12.724,17.5 13,17.5 C13.276,17.5 13.5,17.276 13.5,17 C13.5,16.724 13.276,16.5 13,16.5 Z"/>
</svg>

