<svg xmlns="http://www.w3.org/2000/svg" width="24" height="24">
  <defs/>
  <path  d="M17.834,4.625 C18.463,4.153 19.311,4.093 20,4.473 L20.144,4.561 L21.054,5.168 C21.493,5.462 21.627,6.047 21.36,6.503 C21.093,6.959 20.518,7.129 20.046,6.891 L19.946,6.832 L19.034,6.225 L16.431,8.177 L16.999,8.662 L17.508,9.112 L18.177,9.725 L18.367,9.903 C18.626,10.149 19.002,10.272 19.317,10.426 C20.282,10.897 20.921,11.849 20.993,12.92 L21,13.12 L21,15 C21,16.589 19.762,17.902 18.176,17.995 L18,18 L15.83,18 C15.417,19.167 14.33,19.961 13.093,19.999 C11.855,20.037 10.722,19.312 10.238,18.172 L10.17,18 L3,18 L3,16 L10.17,16 C10.583,14.833 11.67,14.04 12.907,14.002 C14.144,13.964 15.277,14.689 15.761,15.828 L15.828,16 L18,16 C18.507,16 18.934,15.62 18.993,15.117 L19,15 L19,13.12 C19,12.739 18.782,12.391 18.44,12.223 L18.002,12.011 C17.64,11.832 17.289,11.638 16.992,11.355 L16.537,10.932 L16.237,10.659 L15.897,10.356 L15.524,10.031 L15.124,9.691 C15.055,9.634 14.986,9.577 14.917,9.52 C13.991,8.758 13.009,8.037 12.247,7.664 C11.579,7.338 10.713,7.249 9.889,7.204 L8.993,7.161 L8.715,7.145 C7.083,7.038 5.448,6.99 3.813,7.002 L3.019,7.012 L2.981,5.012 C4.67,4.982 6.359,5.011 8.045,5.1 L9.835,5.21 C10.958,5.28 12.159,5.396 13.125,5.867 C13.551,6.076 14.005,6.353 14.459,6.663 L14.799,6.901 Z M13.014,16 L12.986,16 C12.437,16.008 11.996,16.457 12,17.007 C12.004,17.556 12.45,18 13,18 C13.55,18 13.996,17.556 14,17.007 C14.004,16.457 13.563,16.008 13.014,16 Z"/>
</svg>

