<svg xmlns="http://www.w3.org/2000/svg" width="24" height="24">
  <defs/>
  <path  d="M12,2 C16.321,2 19.861,5.431 19.996,9.75 L20,10 L20,21 C20,21.402 19.76,21.764 19.39,21.921 C19.02,22.077 18.592,21.998 18.304,21.718 L18.219,21.625 L14.52,17 L12.867,17 C12.931,17.11 12.974,17.234 12.992,17.366 L13,17.5 L13,18 C12.999,18.529 12.587,18.966 12.059,18.997 C11.53,19.028 11.069,18.642 11.007,18.117 L11,18 L11,17.5 C11,17.363 11.027,17.233 11.077,17.115 L11.134,17 L9.48,17 L5.78,21.625 C5.529,21.939 5.115,22.072 4.728,21.963 C4.341,21.854 4.057,21.524 4.007,21.125 L4,21 L4,10 C4,5.582 7.582,2 12,2 Z M12,10 C10.895,10 10,10.895 10,12 L10,15 L14,15 L14,12 C14,10.895 13.105,10 12,10 Z M12,19.5 C12.507,19.5 12.934,19.88 12.993,20.383 L13,20.5 L13,21 C12.999,21.529 12.587,21.966 12.059,21.997 C11.53,22.028 11.069,21.642 11.007,21.117 L11,21 L11,20.5 C11,19.948 11.448,19.5 12,19.5 Z"/>
</svg>

