<svg xmlns="http://www.w3.org/2000/svg" width="24" height="24">
  <defs/>
  <path  d="M20,4 C21.047,4 21.917,4.806 21.995,5.85 L22,6 L22,16 C22,17.047 21.194,17.917 20.15,17.995 L20,18 L4,18 C2.953,18 2.083,17.194 2.005,16.15 L2,16 L2,6 C2,4.953 2.806,4.083 3.85,4.005 L4,4 Z M20,6 L4,6 L4,16 L20,16 Z M16,19 C16.529,19.001 16.966,19.413 16.997,19.941 C17.028,20.47 16.642,20.931 16.117,20.993 L16,21 L8,21 C7.471,20.999 7.034,20.587 7.003,20.059 C6.972,19.53 7.358,19.069 7.883,19.007 L8,19 Z"/>
</svg>

