<svg xmlns="http://www.w3.org/2000/svg" width="24" height="24">
  <defs/>
  <path  d="M16.95,4.007 L14.121,6.835 C14.065,6.892 14.007,6.947 13.947,7 L19,7 C20.105,7 21,7.895 21,9 L21,18.999 C21,20.104 20.105,20.999 19,20.999 L5,20.999 C3.895,20.999 3,20.104 3,18.999 L3,8.999 C3,7.894 3.895,6.999 5,6.999 L8.639,6.999 C8.58,6.946 8.521,6.891 8.464,6.834 L7.05,5.42 C6.681,5.026 6.691,4.41 7.073,4.029 C7.455,3.647 8.07,3.637 8.464,4.007 L10.939,6.482 C11.134,6.677 11.451,6.677 11.646,6.482 L15.536,2.593 C15.928,2.214 16.552,2.219 16.938,2.605 C17.324,2.991 17.329,3.615 16.95,4.007 Z M5,9 L5,19 L19,19 L19,9 Z"/>
</svg>

