<svg xmlns="http://www.w3.org/2000/svg" width="24" height="24">
  <defs/>
  <path  d="M12,1 C12.507,1 12.934,1.38 12.993,1.883 L13,2 L13,4.17 C13.947,4.505 14.664,5.291 14.91,6.266 C15.155,7.24 14.897,8.272 14.222,9.016 L14.085,9.157 L14.87,11.905 C16.206,12.84 17.001,14.369 17,16 C17.001,16.937 16.738,17.856 16.241,18.65 L16.105,18.855 L17.832,21.445 C18.128,21.886 18.028,22.481 17.604,22.801 C17.181,23.121 16.581,23.054 16.238,22.648 L16.168,22.555 L14.633,20.252 C14.217,20.51 13.764,20.706 13.291,20.832 L13.001,20.9 L13.001,22 C13.005,22.533 12.591,22.975 12.06,23.006 C11.528,23.037 11.065,22.646 11.007,22.117 L11,22 L11,20.9 C10.517,20.802 10.052,20.633 9.619,20.398 L9.368,20.252 L7.832,22.555 C7.538,22.996 6.952,23.132 6.494,22.864 C6.037,22.596 5.868,22.018 6.109,21.546 L6.169,21.446 L7.895,18.856 C7.311,18.018 6.998,17.021 7,16 C7,14.391 7.76,12.96 8.94,12.045 L9.13,11.905 L9.915,9.157 C9.191,8.458 8.866,7.442 9.049,6.452 C9.233,5.462 9.901,4.63 10.828,4.237 L11,4.172 L11,2 C11,1.448 11.448,1 12,1 Z M14.961,16.483 C14.171,16.739 13.101,17 12.001,17 C10.898,17 9.83,16.74 9.039,16.483 C9.275,17.935 10.529,19.001 12,19.001 C13.471,19.001 14.725,17.935 14.961,16.483 Z M12.001,13 L12,13 C10.93,13 9.94,13.57 9.404,14.496 C10.117,14.746 11.084,15 12,15 C12.916,15 13.883,14.746 14.596,14.496 C14.06,13.57 13.071,13 12.001,13 Z M12,6 C11.448,6 11,6.448 11,7 C11,7.552 11.448,8 12,8 C12.552,8 13,7.552 13,7 C13,6.448 12.552,6 12,6 Z M12.243,9.99 C12.135,9.999 12.027,10.002 11.919,9.999 L11.757,9.99 L11.461,11.029 C11.726,11 12.001,10.993 12.271,11.007 L12.54,11.029 Z"/>
</svg>

