<svg xmlns="http://www.w3.org/2000/svg" width="24" height="24">
  <defs/>
  <path  d="M12,1 C12.552,1 13,1.448 13,2 L13,4.17 C13.98,4.517 14.711,5.346 14.932,6.361 C15.153,7.377 14.832,8.435 14.085,9.157 L14.87,11.905 C16.206,12.84 17.001,14.369 17,16 C17.002,17.021 16.69,18.018 16.105,18.855 L17.832,21.445 C18.139,21.905 18.015,22.525 17.555,22.832 C17.095,23.139 16.475,23.015 16.168,22.555 L14.633,20.252 C14.131,20.563 13.579,20.783 13,20.9 L13,22 C13,22.552 12.552,23 12,23 C11.448,23 11,22.552 11,22 L11,20.9 C10.422,20.783 9.869,20.563 9.368,20.252 L7.832,22.555 C7.525,23.015 6.905,23.139 6.445,22.832 C5.985,22.525 5.861,21.905 6.168,21.445 L7.895,18.855 C7.311,18.018 6.998,17.021 7,16 C7,14.307 7.842,12.81 9.13,11.905 L9.915,9.157 C9.168,8.435 8.848,7.377 9.069,6.362 C9.29,5.347 10.02,4.518 11,4.171 L11,2 C11,1.448 11.448,1 12,1 Z M12,15 C11.084,15 10.117,14.746 9.404,14.496 C9.058,15.097 8.929,15.798 9.039,16.483 C9.829,16.739 10.899,17 12,17 C13.102,17 14.17,16.74 14.961,16.483 C15.071,15.799 14.942,15.097 14.596,14.496 C13.882,14.746 12.917,15 12,15 Z M11.757,9.99 L11.461,11.029 C11.82,10.991 12.181,10.991 12.54,11.029 L12.243,9.99 C12.081,10.003 11.919,10.003 11.757,9.99 Z"/>
</svg>

