<svg xmlns="http://www.w3.org/2000/svg" width="24" height="24">
  <defs/>
  <path  d="M4.594,4.984 A1 1 0 0 1 5.535,5.413 C7.011,7.572 8.783,8.47 10.75,8.674 C10.846,7.833 11.073,7.002 11.5,6.27 C12.126,5.196 13.144,4.406 14.598,4.114 C16.608,3.71 18.138,4.438 19.025,5.329 L20.817,4.994 A1 1 0 0 1 21.87,6.472 L20.15,9.494 C20.307,13.855 19.095,16.899 16.511,18.996 C15.141,20.108 13.179,20.739 11.026,20.934 C8.856,21.13 6.403,20.893 3.965,20.181 A1 1 0 0 1 3.972,18.259 C5.198,17.91 6.132,17.609 6.975,17.082 C5.776,16.446 4.893,15.614 4.268,14.666 C3.4,13.348 3.078,11.878 3.014,10.553 C2.95,9.228 3.141,8 3.343,7.115 C3.458,6.61 3.592,6.104 3.777,5.62 A1 1 0 0 1 4.595,4.984 Z"/>
</svg>

