<svg xmlns="http://www.w3.org/2000/svg" width="24" height="24">
  <defs/>
  <path  d="M4.594,4.984 C4.963,4.941 5.325,5.106 5.535,5.413 C7.011,7.572 8.783,8.47 10.75,8.674 C10.846,7.833 11.073,7.002 11.5,6.27 C12.126,5.196 13.144,4.406 14.598,4.114 C16.608,3.71 18.138,4.438 19.025,5.329 L20.817,4.994 C21.2,4.922 21.59,5.079 21.816,5.397 C22.042,5.714 22.063,6.134 21.87,6.472 L20.15,9.494 C20.307,13.855 19.095,16.899 16.511,18.996 C15.141,20.108 13.179,20.739 11.026,20.934 C8.856,21.13 6.403,20.893 3.965,20.181 C3.537,20.056 3.243,19.663 3.245,19.217 C3.247,18.772 3.543,18.381 3.972,18.259 C5.198,17.91 6.132,17.609 6.975,17.082 C5.776,16.446 4.893,15.614 4.268,14.666 C3.4,13.348 3.078,11.878 3.014,10.553 C2.95,9.228 3.141,8 3.343,7.115 C3.458,6.61 3.592,6.104 3.777,5.62 C3.91,5.272 4.225,5.027 4.595,4.984 Z M17.817,6.989 C17.464,6.481 16.52,5.767 14.991,6.075 C14.099,6.254 13.566,6.695 13.227,7.277 C12.866,7.897 12.691,8.74 12.691,9.721 C12.691,10.273 12.243,10.721 11.691,10.721 C9.325,10.721 7.073,10.018 5.178,8.117 C5.035,8.888 4.979,9.673 5.01,10.457 C5.063,11.543 5.322,12.632 5.937,13.565 C6.542,14.482 7.537,15.322 9.201,15.85 C9.533,15.955 9.786,16.225 9.869,16.563 C9.953,16.9 9.855,17.257 9.611,17.505 C9.078,18.052 8.474,18.524 7.815,18.91 C8.875,19.02 9.897,19.028 10.845,18.942 C12.765,18.768 14.294,18.219 15.25,17.442 C17.263,15.81 18.34,13.376 18.14,9.298 C18.115,8.797 18.469,8.267 18.78,7.802 C18.886,7.645 18.986,7.495 19.065,7.356 C18.594,7.444 18.122,7.428 17.817,6.989 Z"/>
</svg>

