<svg xmlns="http://www.w3.org/2000/svg" width="24" height="24">
  <defs/>
  <path  d="M14,2 C16.397,2 18.6,2.844 20.323,4.252 L21.308,5.056 C21.763,5.428 21.468,6.164 20.883,6.119 L19.615,6.023 C18.893,5.969 18.167,6.012 17.456,6.149 C19.081,7.661 20.003,9.781 20,12 C20,17.523 15.523,22 10,22 C7.696,22.003 5.462,21.208 3.678,19.749 L2.693,18.944 C2.238,18.572 2.533,17.836 3.118,17.881 L4.386,17.977 C5.106,18.031 5.85,17.987 6.545,17.851 C4.92,16.34 3.998,14.219 4,12 C4,6.477 8.478,2 14,2 Z M14,4 C9.582,4 6,7.582 6,12 C5.999,14.226 7.231,16.269 9.2,17.308 L9.919,17.688 C10.121,17.797 10.245,18.01 10.239,18.239 C10.233,18.468 10.098,18.675 9.891,18.773 C9.16,19.113 8.419,19.435 7.642,19.647 C10.069,20.396 12.708,19.947 14.752,18.438 C16.795,16.93 18.001,14.54 18,12 C18.001,9.774 16.769,7.731 14.801,6.692 L14.082,6.312 C13.88,6.203 13.756,5.99 13.762,5.761 C13.768,5.532 13.903,5.325 14.11,5.227 C14.841,4.887 15.582,4.565 16.359,4.353 C15.595,4.118 14.8,3.999 14,4 Z M12,9 C13.657,9 15,10.343 15,12 C15,13.657 13.657,15 12,15 C10.343,15 9,13.657 9,12 C9,10.343 10.343,9 12,9 Z M12,11 C11.448,11 11,11.448 11,12 C11,12.552 11.448,13 12,13 C12.552,13 13,12.552 13,12 C13,11.448 12.552,11 12,11 Z"/>
</svg>

