<svg xmlns="http://www.w3.org/2000/svg" width="24" height="24">
  <defs/>
  <path  d="M20,12 C20,17.523 15.523,22 10,22 C7.696,22.003 5.462,21.208 3.678,19.749 L2.693,18.944 C2.238,18.572 2.533,17.836 3.118,17.881 L4.386,17.977 C5.106,18.031 5.85,17.987 6.545,17.851 C4.92,16.34 3.998,14.219 4,12 C4,6.477 8.478,2 14,2 C16.397,2 18.6,2.844 20.323,4.252 L21.308,5.056 C21.763,5.428 21.468,6.164 20.883,6.119 L19.615,6.023 C18.893,5.969 18.167,6.012 17.456,6.149 C19.081,7.661 20.003,9.781 20,12 Z M12,15 C13.657,15 15,13.657 15,12 C15,10.343 13.657,9 12,9 C10.343,9 9,10.343 9,12 C9,13.657 10.343,15 12,15 Z"/>
</svg>

