<svg xmlns="http://www.w3.org/2000/svg" width="24" height="24">
  <defs/>
  <path  d="M15.743,2.03 C15.829,2.052 15.912,2.084 15.99,2.128 C17.437,2.508 18.603,3.698 19.41,5.15 C20.412,6.954 21,9.377 21,12 C21,14.622 20.412,17.046 19.41,18.85 C18.603,20.301 17.437,21.491 15.99,21.872 C15.912,21.916 15.829,21.949 15.742,21.97 C12.074,22.887 9.905,22.616 8.262,22.01 L7.918,21.874 C7.807,21.828 7.697,21.78 7.588,21.731 C6.191,21.098 5.05,19.757 4.266,18.093 C3.473,16.41 3,14.309 3,12 C3,9.691 3.473,7.59 4.266,5.907 C5.05,4.243 6.19,2.902 7.587,2.27 C7.695,2.221 7.805,2.173 7.917,2.127 L8.262,1.992 C9.905,1.385 12.074,1.114 15.742,2.031 Z M15,4 C14.147,4 13.165,4.634 12.339,6.122 C11.53,7.576 11,9.652 11,12 C11,14.348 11.53,16.424 12.339,17.878 C13.165,19.366 14.147,20 15,20 C15.853,20 16.835,19.366 17.661,17.878 C18.47,16.424 19,14.348 19,12 C19,9.652 18.47,7.576 17.661,6.122 C16.835,4.634 15.853,4 15,4 Z M8.413,4.09 C7.596,4.461 6.737,5.353 6.075,6.76 C5.42,8.148 5,9.955 5,12 C5,14.045 5.42,15.852 6.075,17.24 C6.737,18.647 7.595,19.539 8.413,19.91 C9.223,20.277 10.235,20.612 11.849,20.56 C11.354,20.05 10.93,19.474 10.59,18.85 C9.588,17.046 9,14.622 9,12 C9,9.377 9.588,6.954 10.59,5.15 C10.931,4.526 11.354,3.95 11.85,3.44 C10.235,3.388 9.223,3.723 8.413,4.09 Z M15,8 C15.997,8 16.63,8.782 16.955,9.431 C17.31,10.141 17.5,11.05 17.5,12 C17.5,12.95 17.31,13.86 16.955,14.569 C16.631,15.218 15.997,15.999 15,15.999 C14.003,15.999 13.37,15.218 13.045,14.569 C12.69,13.859 12.5,12.949 12.5,11.999 C12.5,11.049 12.69,10.14 13.045,9.431 C13.37,8.782 14.003,8 15,8 Z M15,10.06 C14.957,10.11 14.9,10.193 14.834,10.326 C14.645,10.703 14.5,11.293 14.5,12 C14.5,12.707 14.645,13.297 14.834,13.674 C14.9,13.807 14.957,13.89 15,13.94 C15.043,13.89 15.1,13.807 15.166,13.674 C15.355,13.297 15.5,12.707 15.5,12 C15.5,11.293 15.355,10.703 15.166,10.326 C15.121,10.231 15.066,10.142 15,10.06 Z"/>
</svg>

