<svg xmlns="http://www.w3.org/2000/svg" width="24" height="24">
  <defs/>
  <path  d="M7.587,2.27 C7.695,2.22 7.805,2.172 7.917,2.126 L8.262,1.991 C9.905,1.384 12.074,1.113 15.742,2.03 C17.381,2.44 18.612,3.714 19.41,5.15 C20.412,6.954 21,9.378 21,12 C21,14.623 20.412,17.046 19.41,18.85 C18.611,20.286 17.38,21.56 15.742,21.97 C12.074,22.887 9.905,22.616 8.262,22.01 L7.918,21.874 A10.802 10.802 0 0 1 7.588,21.731 C6.191,21.098 5.05,19.757 4.266,18.093 C3.473,16.41 3,14.309 3,12 C3,9.691 3.473,7.59 4.266,5.907 C5.05,4.243 6.19,2.902 7.587,2.27 M15,4 C14.147,4 13.165,4.634 12.339,6.122 C11.53,7.576 11,9.652 11,12 C11,14.348 11.53,16.424 12.339,17.878 C13.165,19.366 14.147,20 15,20 C15.853,20 16.835,19.366 17.661,17.878 C18.47,16.424 19,14.348 19,12 C19,9.652 18.47,7.576 17.661,6.122 C16.835,4.634 15.853,4 15,4 M15,8.5 C15.706,8.5 16.21,9.059 16.508,9.655 C16.821,10.281 17,11.111 17,12 C17,12.89 16.82,13.719 16.508,14.345 C16.21,14.941 15.706,15.5 15,15.5 C14.294,15.5 13.79,14.941 13.492,14.345 C13.18,13.719 13,12.889 13,12 C13,11.11 13.18,10.281 13.492,9.655 C13.79,9.06 14.294,8.5 15,8.5"/>
</svg>

