<svg xmlns="http://www.w3.org/2000/svg" width="24" height="24">
  <defs/>
  <path  d="M13.55,3.238 L13.863,3.315 C15.655,3.795 17.073,5.164 17.616,6.938 C18.915,7.654 20.008,8.494 20.746,9.401 C21.5,10.327 21.995,11.474 21.678,12.656 C21.451,13.504 20.863,14.134 20.148,14.571 C19.437,15.005 18.552,15.283 17.59,15.435 C15.661,15.739 13.228,15.568 10.725,14.898 C8.221,14.227 6.029,13.158 4.511,11.93 C3.753,11.318 3.125,10.635 2.727,9.904 C2.326,9.167 2.132,8.327 2.359,7.48 C2.681,6.28 3.706,5.53 4.844,5.108 C5.926,4.706 7.274,4.529 8.736,4.558 C10.027,3.355 11.826,2.862 13.55,3.238 Z M7.487,6.59 C6.72,6.651 6.062,6.788 5.54,6.982 C4.69,7.298 4.373,7.692 4.291,7.996 C4.232,8.216 4.253,8.523 4.484,8.946 C4.718,9.376 5.14,9.866 5.768,10.374 C7.022,11.388 8.944,12.349 11.242,12.964 C13.54,13.58 15.685,13.709 17.278,13.458 C18.076,13.333 18.687,13.118 19.105,12.864 C19.515,12.612 19.687,12.357 19.746,12.138 C19.826,11.838 19.753,11.348 19.195,10.662 C18.839,10.225 18.329,9.768 17.681,9.322 C17.291,10.584 16.197,11.592 14.637,11.5 C12.687,11.384 10.782,10.874 9.035,10 C7.638,9.3 7.193,7.88 7.487,6.59 Z M9.697,6.47 C9.16,7.188 9.395,7.942 9.931,8.21 C11.435,8.963 13.076,9.403 14.755,9.503 C15.353,9.539 15.934,9.003 15.828,8.112 C15.673,6.81 14.779,5.715 13.534,5.302 L13.28,5.229 C11.945,4.871 10.526,5.362 9.698,6.469 Z M7.484,14.625 C7.927,14.871 8.116,15.41 7.924,15.879 L7.874,15.984 L7.374,16.884 C7.118,17.35 6.543,17.534 6.064,17.304 C5.586,17.074 5.37,16.51 5.574,16.019 L5.625,15.913 L6.125,15.013 C6.393,14.53 7.002,14.357 7.485,14.625 Z M5.487,18.226 C5.93,18.472 6.119,19.011 5.926,19.48 L5.875,19.585 L5.375,20.485 C5.117,20.946 4.545,21.127 4.069,20.898 C3.593,20.669 3.377,20.109 3.576,19.62 L3.626,19.515 L4.126,18.615 C4.394,18.132 5.003,17.957 5.486,18.225 Z M15.277,19.208 C15.78,19.145 16.251,19.469 16.372,19.961 L16.393,20.076 L16.493,20.876 C16.557,21.401 16.202,21.885 15.682,21.981 C15.162,22.077 14.658,21.752 14.53,21.239 L14.509,21.124 L14.409,20.324 C14.341,19.777 14.729,19.277 15.276,19.208 Z M15.97,16.76 L15.991,16.875 L16.091,17.675 C16.155,18.2 15.8,18.684 15.28,18.78 C14.76,18.876 14.256,18.551 14.128,18.038 L14.107,17.923 L14.007,17.123 C13.943,16.598 14.298,16.114 14.818,16.018 C15.338,15.922 15.842,16.247 15.97,16.76 Z"/>
</svg>

