<svg xmlns="http://www.w3.org/2000/svg" width="24" height="24">
  <defs/>
  <path  d="M20.214,13.829 C21.147,14.42 22,15.329 22,16.5 C22,18.074 20.574,19.088 19.24,19.691 L18.895,19.84 L18.726,19.907 C16.956,20.596 14.577,21 12,21 C9.423,21 7.044,20.596 5.274,19.907 L5.104,19.84 L4.76,19.691 C3.426,19.088 2,18.074 2,16.5 C2,15.328 2.853,14.42 3.786,13.829 C4.081,14.011 4.42,14.203 4.803,14.394 C6.425,15.206 8.827,16 12,16 C15.173,16 17.575,15.206 19.197,14.394 C19.58,14.204 19.919,14.011 20.214,13.829 M12,3 A1.5 1.5 0 0 1 13,5.618 L13,7.071 A7.007 7.007 0 0 1 18.802,12.341 L18.446,12.533 C17.071,13.245 14.927,14 12,14 C9.073,14 6.93,13.245 5.554,12.533 L5.198,12.34 A7.007 7.007 0 0 1 11,7.07 L11,5.619 A1.5 1.5 0 0 1 12,3"/>
</svg>

