<svg xmlns="http://www.w3.org/2000/svg" width="24" height="24">
  <defs/>
  <path  d="M19.527,8.206 C20.285,8.819 20.912,9.502 21.31,10.232 C21.711,10.969 21.905,11.809 21.677,12.656 C21.451,13.504 20.863,14.134 20.147,14.572 C19.437,15.005 18.552,15.283 17.59,15.435 C15.661,15.739 13.228,15.568 10.725,14.898 C8.221,14.227 6.029,13.158 4.511,11.931 C3.753,11.318 3.125,10.634 2.727,9.904 C2.326,9.167 2.132,8.328 2.36,7.48 C2.587,6.632 3.174,6.002 3.89,5.565 C4.6,5.131 5.485,4.853 6.448,4.701 C7.205,4.587 7.971,4.539 8.736,4.559 C10.093,3.294 12.006,2.818 13.798,3.298 L13.863,3.315 C15.655,3.795 17.074,5.165 17.617,6.939 C18.29,7.305 18.929,7.729 19.527,8.206 Z M13.28,5.23 C11.945,4.872 10.526,5.363 9.698,6.47 C9.16,7.19 9.395,7.943 9.931,8.212 C11.435,8.965 13.076,9.404 14.755,9.504 C15.353,9.54 15.934,9.004 15.828,8.113 C15.664,6.74 14.681,5.605 13.345,5.247 Z M5.875,19.586 L5.375,20.485 C5.208,20.809 4.878,21.016 4.513,21.026 C4.149,21.036 3.808,20.847 3.624,20.532 C3.44,20.218 3.441,19.828 3.627,19.515 L4.127,18.615 C4.401,18.145 5.001,17.98 5.477,18.244 C5.953,18.508 6.13,19.105 5.875,19.586 Z M7.874,15.986 L7.374,16.885 C7.1,17.355 6.5,17.52 6.024,17.256 C5.548,16.992 5.371,16.395 5.626,15.914 L6.126,15.014 C6.394,14.531 7.003,14.358 7.486,14.626 C7.969,14.894 8.142,15.503 7.874,15.986 Z M16.393,20.076 L16.493,20.876 C16.561,21.424 16.173,21.924 15.625,21.993 C15.076,22.061 14.576,21.672 14.508,21.124 L14.408,20.324 C14.34,19.776 14.728,19.276 15.276,19.208 C15.825,19.139 16.325,19.528 16.393,20.076 Z M15.992,16.876 L16.092,17.676 C16.147,18.216 15.76,18.701 15.221,18.769 C14.682,18.836 14.188,18.461 14.108,17.924 L14.008,17.124 C13.953,16.584 14.34,16.099 14.879,16.031 C15.418,15.964 15.912,16.339 15.992,16.876 Z"/>
</svg>

