<svg xmlns="http://www.w3.org/2000/svg" width="24" height="24">
  <defs/>
  <path  d="M12,3 C12.594,3 13.133,3.35 13.373,3.893 C13.613,4.437 13.51,5.071 13.11,5.51 L13,5.618 L13,7.071 C16.14,7.525 18.582,10.033 18.953,13.184 C20.336,13.758 22,14.808 22,16.5 C22,18.074 20.574,19.088 19.24,19.691 L18.895,19.84 L18.726,19.907 C16.956,20.596 14.577,21 12,21 C9.423,21 7.044,20.596 5.274,19.907 L5.104,19.84 L4.76,19.691 C3.426,19.088 2,18.074 2,16.501 C2,14.808 3.664,13.758 5.047,13.184 C5.407,10.127 7.72,7.664 10.748,7.112 L11,7.07 L11,5.618 C10.536,5.203 10.377,4.546 10.599,3.965 C10.821,3.384 11.378,3 12,3 Z M12,9 C9.451,9 7.309,10.918 7.03,13.452 L7.241,13.556 L7.494,13.671 L7.636,13.731 L7.952,13.851 C8.85,14.176 10.196,14.5 12,14.5 C14.03,14.5 15.479,14.09 16.364,13.73 L16.638,13.613 L16.87,13.503 L16.97,13.452 C16.691,10.918 14.549,9 12,9 Z M18.551,15.188 L18.221,15.046 L18.027,15.154 L17.796,15.275 C17.706,15.32 17.616,15.363 17.525,15.405 L17.215,15.541 C16.118,16 14.375,16.5 12,16.5 C9.625,16.5 7.882,16 6.785,15.541 L6.475,15.406 C6.428,15.384 6.381,15.362 6.335,15.34 L6.084,15.214 L5.871,15.098 C5.841,15.081 5.81,15.064 5.78,15.046 L5.449,15.188 L5.183,15.312 C4.63,15.584 4,15.992 4,16.5 C4,17.11 4.875,17.575 5.524,17.852 L5.899,18.004 L5.999,18.043 C7.484,18.62 9.605,19 12,19 C14.244,19 16.249,18.667 17.715,18.149 L18.101,18.004 L18.476,17.852 C19.125,17.575 20,17.111 20,16.5 C20,15.992 19.37,15.584 18.817,15.312 Z"/>
</svg>

