<svg xmlns="http://www.w3.org/2000/svg" width="24" height="24">
  <defs/>
  <path  d="M17,3.34 C17.478,3.616 17.642,4.228 17.366,4.706 L17.339,4.753 C20.687,7.221 21.909,11.661 20.295,15.494 C19.813,16.634 18.485,16.899 17.562,16.366 L12.376,13.372 L9.21,19 L20,19 C20.552,19 21,19.448 21,20 C21,20.552 20.552,21 20,21 L4,21 C3.448,21 3,20.552 3,20 C3,19.448 3.448,19 4,19 L6.915,19 L10.644,12.372 L5.438,9.366 C4.514,8.833 4.08,7.55 4.827,6.563 C7.34,3.249 11.796,2.088 15.607,3.753 L15.634,3.706 C15.91,3.228 16.522,3.064 17,3.34 Z"/>
</svg>

