<svg xmlns="http://www.w3.org/2000/svg" width="24" height="24">
  <defs/>
  <path  d="M15.607,3.753 L15.634,3.706 C15.912,3.232 16.521,3.071 16.997,3.346 C17.473,3.621 17.638,4.228 17.366,4.706 L17.339,4.753 C20.687,7.221 21.909,11.661 20.295,15.494 C19.813,16.634 18.485,16.899 17.562,16.366 L12.376,13.372 L9.21,19 L20,19 C20.552,19 21,19.448 21,20 C21,20.552 20.552,21 20,21 L4,21 C3.448,21 3,20.552 3,20 C3,19.448 3.448,19 4,19 L6.915,19 L10.644,12.372 L5.438,9.366 C4.514,8.833 4.08,7.55 4.827,6.563 C7.34,3.249 11.796,2.088 15.607,3.753 Z M15.527,5.959 L15.468,5.924 C15.408,5.906 15.268,5.888 14.991,5.981 C14.635,6.1 14.169,6.366 13.627,6.813 C12.796,7.496 11.882,8.52 11.022,9.793 L10.789,10.146 L14.211,12.122 C14.992,10.601 15.486,9.156 15.679,7.998 C15.794,7.304 15.792,6.768 15.717,6.401 C15.658,6.114 15.573,6.001 15.527,5.959 Z M17.707,7.945 L17.652,8.325 C17.433,9.642 16.914,11.17 16.143,12.732 L15.945,13.123 L18.501,14.599 C19.383,12.39 19.084,9.885 17.708,7.945 Z M6.5,7.669 L9.056,9.145 C10.085,7.534 11.241,6.186 12.357,5.268 C12.457,5.186 12.557,5.106 12.659,5.029 C10.291,4.807 7.972,5.801 6.5,7.669 Z"/>
</svg>

