<svg xmlns="http://www.w3.org/2000/svg" width="24" height="24">
  <defs/>
  <path  d="M13,3 L13,3.056 C17.448,3.554 20.855,7.245 20.995,11.719 C21.018,12.441 20.432,13 19.75,13 L13,13 L13,19 C13,19.552 13.448,20 14,20 C14.552,20 15,19.552 15,19 L15,18 C15,17.448 15.448,17 16,17 C16.552,17 17,17.448 17,18 L17,19 C17,20.657 15.657,22 14,22 C12.343,22 11,20.657 11,19 L11,13 L4.25,13 C3.913,13.001 3.591,12.865 3.356,12.623 C3.121,12.382 2.994,12.056 3.004,11.719 C3.144,7.245 6.551,3.553 11,3.056 L11,3 C11,2.448 11.448,2 12,2 C12.552,2 13,2.448 13,3 Z M18.928,11 C18.43,7.557 15.479,5.001 12,5.001 C8.521,5.001 5.57,7.557 5.072,11 Z"/>
</svg>

