<svg xmlns="http://www.w3.org/2000/svg" width="24" height="24">
  <defs/>
  <path  d="M16.586,3 C17.056,3 17.51,3.165 17.87,3.467 L18,3.586 L20.414,6 C20.746,6.332 20.951,6.77 20.992,7.238 L21,7.414 L21,19 C21,20.047 20.194,20.917 19.15,20.995 L19,21 L5,21 C3.953,21 3.083,20.194 3.005,19.15 L3,19 L3,7.414 C3,6.944 3.165,6.49 3.467,6.13 L3.586,6 L6,3.586 C6.332,3.254 6.77,3.049 7.238,3.008 L7.414,3 Z M19,9 L5,9 L5,19 L19,19 Z M12,10.4 C12.22,10.4 12.433,10.472 12.608,10.606 L12.708,10.693 L14.828,12.814 C15.204,13.187 15.225,13.788 14.875,14.186 C14.524,14.583 13.925,14.638 13.508,14.312 L13.414,14.228 L13,13.814 L13,17 C12.999,17.529 12.587,17.966 12.059,17.997 C11.53,18.028 11.069,17.642 11.007,17.117 L11,17 L11,13.814 L10.586,14.228 C10.213,14.604 9.612,14.625 9.214,14.275 C8.817,13.924 8.762,13.325 9.088,12.908 L9.172,12.814 L11.292,10.693 C11.48,10.505 11.734,10.4 12,10.4 Z M16.586,5 L7.414,5 L5.414,7 L18.586,7 Z"/>
</svg>

