<svg xmlns="http://www.w3.org/2000/svg" width="24" height="24">
  <defs/>
  <path  d="M13,4 A1 1 0 0 0 11,4 L11,5 A1 1 0 1 0 13,5 Z M13,9 A1 1 0 0 0 11,9 L11,10 A1 1 0 1 0 13,10 Z M12,13 A1 1 0 0 1 13,14 L13,15 A1 1 0 0 1 11,15 L11,14 A1 1 0 0 1 12,13 M13,19 A1 1 0 0 0 11,19 L11,20 A1 1 0 1 0 13,20 Z M6.793,10.5 L7.061,10.232 A1.5 1.5 0 0 0 4.939,8.111 L2.111,10.939 A1.5 1.5 0 0 0 2.111,13.061 L4.939,15.889 A1.5 1.5 0 1 0 7.061,13.768 L6.793,13.5 L8,13.5 A1.5 1.5 0 0 0 8,10.5 Z M14.5,12 A1.5 1.5 0 0 1 16,10.5 L17.207,10.5 L16.939,10.232 A1.5 1.5 0 1 1 19.061,8.111 L21.889,10.939 A1.5 1.5 0 0 1 21.889,13.061 L19.061,15.889 A1.5 1.5 0 1 1 16.939,13.768 L17.207,13.5 L16,13.5 A1.5 1.5 0 0 1 14.5,12"/>
</svg>

