<svg xmlns="http://www.w3.org/2000/svg" width="24" height="24">
  <defs/>
  <path  d="M4,11 A1 1 0 1 0 4,13 L5,13 A1 1 0 0 0 5,11 Z M9,11 A1 1 0 1 0 9,13 L10,13 A1 1 0 0 0 10,11 Z M13,12 A1 1 0 0 1 14,11 L15,11 A1 1 0 1 1 15,13 L14,13 A1 1 0 0 1 13,12 M19,11 A1 1 0 1 0 19,13 L20,13 A1 1 0 0 0 20,11 Z M11,18.414 L9.879,17.293 A1 1 0 1 0 8.465,18.707 L11.293,21.536 A1 1 0 0 0 12.707,21.536 L15.536,18.707 A1 1 0 0 0 14.121,17.293 L13,18.414 L13,15 A1 1 0 1 0 11,15 Z M12,10 A1 1 0 0 1 11,9 L11,5.586 L9.879,6.707 A1 1 0 0 1 8.465,5.293 L11.293,2.465 A1 1 0 0 1 12.707,2.465 L15.536,5.293 A1 1 0 0 1 14.121,6.707 L13,5.586 L13,9 A1 1 0 0 1 12,10"/>
</svg>

