<svg xmlns="http://www.w3.org/2000/svg" width="24" height="24">
  <defs/>
  <path  d="M4,11 A1 1 0 1 0 4,13 L5,13 A1 1 0 0 0 5,11 Z M9,11 A1 1 0 1 0 9,13 L10,13 A1 1 0 0 0 10,11 Z M13,12 A1 1 0 0 1 14,11 L15,11 A1 1 0 1 1 15,13 L14,13 A1 1 0 0 1 13,12 M19,11 A1 1 0 1 0 19,13 L20,13 A1 1 0 0 0 20,11 Z M10.5,17.207 L10.232,16.939 A1.5 1.5 0 1 0 8.111,19.061 L10.939,21.889 A1.5 1.5 0 0 0 13.061,21.889 L15.889,19.061 A1.5 1.5 0 1 0 13.768,16.939 L13.5,17.207 L13.5,16 A1.5 1.5 0 1 0 10.5,16 Z M12,9.5 A1.5 1.5 0 0 1 10.5,8 L10.5,6.793 L10.232,7.061 A1.5 1.5 0 0 1 8.111,4.939 L10.939,2.111 A1.5 1.5 0 0 1 13.061,2.111 L15.889,4.939 A1.5 1.5 0 1 1 13.768,7.061 L13.5,6.793 L13.5,8 A1.5 1.5 0 0 1 12,9.5"/>
</svg>

