<svg xmlns="http://www.w3.org/2000/svg" width="24" height="24">
  <defs/>
  <path  d="M13,4 A1 1 0 0 0 11,4 L11,5 A1 1 0 1 0 13,5 Z M13,9 A1 1 0 0 0 11,9 L11,10 A1 1 0 1 0 13,10 Z M12,13 A1 1 0 0 1 13,14 L13,15 A1 1 0 0 1 11,15 L11,14 A1 1 0 0 1 12,13 M13,19 A1 1 0 0 0 11,19 L11,20 A1 1 0 1 0 13,20 Z M5.586,11 L6.707,9.879 A1 1 0 1 0 5.293,8.465 L2.465,11.293 A1 1 0 0 0 2.465,12.707 L5.293,15.536 A1 1 0 0 0 6.707,14.121 L5.586,13 L9,13 A1 1 0 1 0 9,11 Z M14,12 A1 1 0 0 1 15,11 L18.414,11 L17.293,9.879 A1 1 0 1 1 18.707,8.465 L21.536,11.293 A1 1 0 0 1 21.536,12.707 L18.707,15.536 A1 1 0 0 1 17.293,14.121 L18.414,13 L15,13 A1 1 0 0 1 14,12"/>
</svg>

