<svg xmlns="http://www.w3.org/2000/svg" width="24" height="24">
  <defs/>
  <path  d="M12,2 C17.523,2 22,6.477 22,12 C22,17.523 17.523,22 12,22 C6.477,22 2,17.523 2,12 C2,6.477 6.477,2 12,2 Z M12,14 C10.782,13.998 9.605,14.443 8.692,15.25 C8.278,15.616 8.238,16.248 8.604,16.662 C8.97,17.076 9.602,17.116 10.016,16.75 C10.563,16.266 11.269,15.999 12,16 C12.761,16 13.455,16.282 13.984,16.75 C14.398,17.116 15.03,17.076 15.396,16.662 C15.762,16.248 15.722,15.616 15.308,15.25 C14.395,14.443 13.218,13.998 12,14 Z M9.164,9.45 L9.106,9.552 C8.944,9.876 8.696,10 8.5,10 C8.33,10 8.118,9.905 7.959,9.664 L7.894,9.552 C7.736,9.23 7.417,9.017 7.058,8.995 C6.7,8.973 6.357,9.145 6.16,9.445 C5.963,9.745 5.943,10.128 6.106,10.448 C6.542,11.32 7.413,12 8.5,12 C9.587,12 10.457,11.32 10.894,10.448 C11.132,9.974 10.959,9.397 10.5,9.133 C10.04,8.868 9.455,9.008 9.164,9.451 Z M17.448,9.106 C16.994,8.879 16.443,9.027 16.164,9.451 L16.106,9.552 C15.944,9.876 15.696,10 15.5,10 C15.33,10 15.118,9.905 14.959,9.664 L14.894,9.552 C14.736,9.23 14.417,9.017 14.058,8.995 C13.7,8.973 13.357,9.145 13.16,9.445 C12.963,9.745 12.943,10.128 13.106,10.448 C13.543,11.32 14.413,12 15.5,12 C16.587,12 17.457,11.32 17.894,10.448 C18.141,9.954 17.942,9.353 17.448,9.106 Z"/>
</svg>

