<svg xmlns="http://www.w3.org/2000/svg" width="24" height="24">
  <defs/>
  <path  d="M2,12 C2,6.477 6.477,2 12,2 C17.523,2 22,6.477 22,12 C22,17.523 17.523,22 12,22 C6.477,22 2,17.523 2,12 Z M12,4 C7.582,4 4,7.582 4,12 C4,16.418 7.582,20 12,20 C16.418,20 20,16.418 20,12 C20,7.582 16.418,4 12,4 Z M8.693,15.25 C9.606,14.443 10.782,13.999 12,14 C13.267,14 14.427,14.473 15.308,15.25 C15.722,15.616 15.762,16.248 15.396,16.662 C15.03,17.076 14.398,17.116 13.984,16.75 C13.437,16.266 12.731,15.999 12,16 C11.239,16 10.545,16.282 10.016,16.75 C9.602,17.116 8.97,17.076 8.604,16.662 C8.238,16.248 8.278,15.616 8.692,15.25 Z M7.293,8.293 C7.683,7.903 8.316,7.903 8.707,8.293 L9,8.586 L9.293,8.293 C9.544,8.033 9.916,7.929 10.266,8.02 C10.615,8.112 10.888,8.385 10.98,8.734 C11.071,9.084 10.967,9.456 10.707,9.707 L10.414,10 L10.707,10.293 C11.086,10.685 11.081,11.309 10.695,11.695 C10.309,12.081 9.685,12.086 9.293,11.707 L9,11.414 L8.707,11.707 C8.315,12.086 7.691,12.081 7.305,11.695 C6.919,11.309 6.914,10.685 7.293,10.293 L7.586,10 L7.293,9.707 C6.903,9.316 6.903,8.684 7.293,8.293 Z M13.293,8.293 C13.684,7.903 14.316,7.903 14.707,8.293 L15,8.586 L15.293,8.293 C15.544,8.033 15.916,7.929 16.266,8.02 C16.615,8.112 16.888,8.385 16.98,8.734 C17.071,9.084 16.967,9.456 16.707,9.707 L16.414,10 L16.707,10.293 C17.086,10.685 17.081,11.309 16.695,11.695 C16.309,12.081 15.685,12.086 15.293,11.707 L15,11.414 L14.707,11.707 C14.315,12.086 13.691,12.081 13.305,11.695 C12.919,11.309 12.914,10.685 13.293,10.293 L13.586,10 L13.293,9.707 C12.903,9.316 12.903,8.684 13.293,8.293 Z"/>
</svg>

