<svg xmlns="http://www.w3.org/2000/svg" width="24" height="24">
  <defs/>
  <path  d="M12,2 C17.523,2 22,6.477 22,12 C22,17.523 17.523,22 12,22 C6.477,22 2,17.523 2,12 C2,6.477 6.477,2 12,2 M12,4 A8 8 0 1 0 12,20 A8 8 0 0 0 12,4 M12,14 C13.267,14 14.427,14.473 15.308,15.25 A1 1 0 1 1 13.984,16.75 A2.985 2.985 0 0 0 12,16 C11.239,16 10.545,16.282 10.016,16.75 A1 1 0 1 1 8.693,15.25 A4.985 4.985 0 0 1 12,14 M9.041,9.664 L9.106,9.552 A1 1 0 1 1 10.894,10.448 C10.457,11.32 9.587,12 8.5,12 C7.413,12 6.542,11.32 6.106,10.448 A1 1 0 0 1 7.836,9.451 L7.894,9.552 C8.056,9.876 8.304,10 8.5,10 C8.67,10 8.882,9.905 9.041,9.664 M17.448,9.106 A1 1 0 0 1 17.894,10.448 C17.458,11.32 16.587,12 15.5,12 C14.413,12 13.543,11.32 13.106,10.448 A1 1 0 0 1 14.836,9.451 L14.894,9.552 C15.056,9.876 15.304,10 15.5,10 C15.67,10 15.882,9.905 16.041,9.664 L16.106,9.552 A1 1 0 0 1 17.448,9.106"/>
</svg>

