<svg xmlns="http://www.w3.org/2000/svg" width="24" height="24">
  <defs/>
  <path  d="M12,2 C17.523,2 22,6.477 22,12 C22,17.523 17.523,22 12,22 C6.477,22 2,17.523 2,12 C2,6.477 6.477,2 12,2 Z M12,14 C10.782,13.998 9.605,14.443 8.692,15.25 C8.278,15.616 8.238,16.248 8.604,16.662 C8.97,17.076 9.602,17.116 10.016,16.75 C10.563,16.266 11.269,15.999 12,16 C12.761,16 13.455,16.282 13.984,16.75 C14.398,17.116 15.03,17.076 15.396,16.662 C15.762,16.248 15.722,15.616 15.308,15.25 C14.395,14.443 13.218,13.998 12,14 Z M8.707,8.293 C8.334,7.921 7.735,7.903 7.34,8.251 C6.944,8.6 6.887,9.196 7.21,9.613 L7.293,9.707 L7.586,10 L7.293,10.293 C6.921,10.666 6.903,11.265 7.251,11.66 C7.6,12.056 8.196,12.113 8.613,11.79 L8.707,11.707 L9,11.414 L9.293,11.707 C9.666,12.079 10.265,12.097 10.66,11.749 C11.056,11.4 11.113,10.804 10.79,10.387 L10.707,10.293 L10.414,10 L10.707,9.707 C11.079,9.334 11.097,8.735 10.749,8.34 C10.4,7.944 9.804,7.887 9.387,8.21 L9.293,8.293 L9,8.586 Z M13.293,8.293 C12.903,8.684 12.903,9.316 13.293,9.707 L13.586,10 L13.293,10.293 C12.914,10.685 12.919,11.309 13.305,11.695 C13.691,12.081 14.315,12.086 14.707,11.707 L15,11.414 L15.293,11.707 C15.685,12.086 16.309,12.081 16.695,11.695 C17.081,11.309 17.086,10.685 16.707,10.293 L16.414,10 L16.707,9.707 C17.086,9.315 17.081,8.691 16.695,8.305 C16.309,7.919 15.685,7.914 15.293,8.293 L15,8.586 L14.707,8.293 C14.316,7.903 13.684,7.903 13.293,8.293 Z"/>
</svg>

