<svg xmlns="http://www.w3.org/2000/svg" width="24" height="24">
  <defs/>
  <path  d="M10.232,10.231 A5 5 0 0 1 17.122,10.059 L17.303,10.231 L20.131,13.06 A5 5 0 0 1 13.241,20.303 L13.061,20.131 L10.939,18.009 A1 1 0 0 1 12.259,16.512 L12.353,16.595 L14.475,18.717 A3 3 0 0 0 18.852,14.617 L18.717,14.474 L15.889,11.646 A3 3 0 0 0 11.646,11.646 A1 1 0 0 1 10.232,10.231 M8,17 A1 1 0 0 1 8.993,17.883 L9,18 L9,20 A1 1 0 0 1 7.007,20.117 L7,20 L7,18 A1 1 0 0 1 8,17 M5,15 A1 1 0 0 1 5.117,16.993 L5,17 L4,17 A1 1 0 0 1 3.883,15.007 L4,15 Z M3.868,3.867 A5 5 0 0 1 10.758,3.695 L10.939,3.867 L13.06,5.99 A1 1 0 0 1 11.74,7.487 L11.646,7.404 L9.525,5.283 A3 3 0 0 0 5.147,9.38 L5.282,9.524 L8.111,12.353 A3 3 0 0 0 12.353,12.353 A1 1 0 1 1 13.768,13.767 A5 5 0 0 1 6.878,13.939 L6.696,13.767 L3.868,10.938 A5 5 0 0 1 3.868,3.868 Z M20,7 A1 1 0 1 1 20,9 L19,9 A1 1 0 1 1 19,7 Z M16,3 A1 1 0 0 1 16.993,3.883 L17,4 L17,6 A1 1 0 0 1 15.007,6.117 L15,6 L15,4 A1 1 0 0 1 16,3"/>
</svg>

