<svg xmlns="http://www.w3.org/2000/svg" width="24" height="24">
  <defs/>
  <path  d="M8,18 A1 1 0 0 1 8.993,18.883 L9,19 L9,21 A1 1 0 0 1 7.007,21.117 L7,21 L7,19 A1 1 0 0 1 8,18 M16.243,9.878 A1 1 0 0 1 17.563,9.795 L17.657,9.878 L19.778,12 A5.5 5.5 0 0 1 12.182,19.952 L12,19.778 L9.879,17.657 A1 1 0 0 1 11.199,16.159 L11.293,16.242 L13.414,18.364 A3.5 3.5 0 0 0 18.505,13.564 L18.364,13.414 L16.243,11.293 A1 1 0 0 1 16.243,9.878 M5,16 A1 1 0 0 1 5.117,17.993 L5,18 L4,18 A1 1 0 0 1 3.883,16.007 L4,16 Z M9.171,9.171 A1 1 0 0 1 10.491,9.088 L10.586,9.171 L14.828,13.414 A1 1 0 0 1 13.508,14.911 L13.414,14.828 L9.171,10.586 A1 1 0 0 1 9.171,9.171 M4.221,4.221 A5.5 5.5 0 0 1 11.818,4.048 L12,4.222 L14.121,6.342 A1 1 0 0 1 12.801,7.84 L12.707,7.757 L10.586,5.636 A3.5 3.5 0 0 0 5.495,10.436 L5.636,10.586 L7.757,12.706 A1 1 0 0 1 6.437,14.204 L6.343,14.121 L4.222,12 A5.5 5.5 0 0 1 4.222,4.222 Z M20,6 A1 1 0 1 1 20,8 L19,8 A1 1 0 1 1 19,6 Z M16,2 A1 1 0 0 1 16.993,2.883 L17,3 L17,5 A1 1 0 0 1 15.007,5.117 L15,5 L15,3 A1 1 0 0 1 16,2"/>
</svg>

