<svg xmlns="http://www.w3.org/2000/svg" width="24" height="24">
  <defs/>
  <path  d="M17.303,9.524 L20.485,12.706 A5.5 5.5 0 0 1 12.707,20.484 L11.647,19.424 A1.5 1.5 0 1 1 13.767,17.302 L14.828,18.363 A2.5 2.5 0 1 0 18.364,14.828 L15.182,11.646 A2.5 2.5 0 0 0 12.5,11.086 A8.26 8.26 0 0 0 12.047,11.281 L11.583,11.498 C10.963,11.778 10.485,11.898 9.878,11.292 C9.006,10.42 9.233,9.615 10.296,8.882 A5.502 5.502 0 0 1 17.303,9.524 M8,16.5 A1.5 1.5 0 0 1 9.493,17.856 L9.5,18 L9.5,20 A1.5 1.5 0 0 1 6.507,20.144 L6.5,20 L6.5,18 A1.5 1.5 0 0 1 8,16.5 M5,14.5 A1.5 1.5 0 0 1 5.144,17.493 L5,17.5 L4,17.5 A1.5 1.5 0 0 1 3.855,14.507 L4,14.5 Z M11.293,3.514 L12.353,4.574 A1.5 1.5 0 1 1 10.232,6.696 L9.172,5.636 A2.5 2.5 0 1 0 5.635,9.17 L8.817,12.352 A2.5 2.5 0 0 0 11.498,12.912 C11.659,12.849 11.81,12.782 11.952,12.716 L12.415,12.5 C13.035,12.219 13.513,12.098 14.12,12.705 C14.992,13.577 14.766,14.383 13.702,15.116 A5.502 5.502 0 0 1 6.695,14.473 L3.513,11.291 A5.5 5.5 0 1 1 11.292,3.513 Z M20,6.5 A1.5 1.5 0 0 1 20,9.5 L19,9.5 A1.5 1.5 0 0 1 19,6.5 Z M16,2.5 A1.5 1.5 0 0 1 17.493,3.856 L17.5,4 L17.5,6 A1.5 1.5 0 0 1 14.507,6.144 L14.5,6 L14.5,4 A1.5 1.5 0 0 1 16,2.5"/>
</svg>

