<svg xmlns="http://www.w3.org/2000/svg" width="24" height="24">
  <defs/>
  <path  d="M8,17.5 A1.5 1.5 0 0 1 9.493,18.856 L9.5,19 L9.5,21 A1.5 1.5 0 0 1 6.507,21.144 L6.5,21 L6.5,19 A1.5 1.5 0 0 1 8,17.5 M16.245,9.88 A1.5 1.5 0 0 1 18.252,9.778 L18.366,9.88 L20.132,11.646 A6 6 0 0 1 11.83,20.307 L11.647,20.132 L9.881,18.366 A1.5 1.5 0 0 1 11.888,16.141 L12.002,16.244 L13.768,18.01 A3 3 0 0 0 18.146,13.912 L18.011,13.768 L16.245,12.002 A1.5 1.5 0 0 1 16.245,9.88 M5,15.5 A1.5 1.5 0 0 1 5.145,18.493 L5,18.5 L4,18.5 A1.5 1.5 0 0 1 3.856,15.507 L4,15.5 Z M8.818,8.818 A1.5 1.5 0 0 1 10.825,8.715 L10.939,8.818 L15.182,13.061 A1.5 1.5 0 0 1 13.175,15.285 L13.061,15.182 L8.818,10.939 A1.5 1.5 0 0 1 8.818,8.818 M3.868,3.868 A6 6 0 0 1 12.171,3.693 L12.354,3.868 L14.124,5.638 A1.5 1.5 0 0 1 12.116,7.862 L12.002,7.759 L10.232,5.989 A3 3 0 0 0 5.855,10.089 L5.99,10.232 L7.76,12.002 A1.5 1.5 0 0 1 5.752,14.226 L5.638,14.123 L3.868,12.353 A6 6 0 0 1 3.868,3.868 M20,5.5 A1.5 1.5 0 0 1 20,8.5 L19,8.5 A1.5 1.5 0 1 1 19,5.5 Z M16,1.5 A1.5 1.5 0 0 1 17.493,2.856 L17.5,3 L17.5,5 A1.5 1.5 0 0 1 14.507,5.144 L14.5,5 L14.5,3 A1.5 1.5 0 0 1 16,1.5"/>
</svg>

