<svg xmlns="http://www.w3.org/2000/svg" width="24" height="24">
  <defs/>
  <path  d="M12,2 C13.091,2 14.117,2.292 15,2.804 C15.325,2.974 15.531,3.309 15.536,3.677 C15.541,4.044 15.345,4.384 15.024,4.563 C14.703,4.742 14.31,4.731 14,4.534 C12.762,3.819 11.237,3.819 9.999,4.534 C8.761,5.249 7.999,6.571 8,8 L19,8.001 C20.105,8.001 21,8.896 21,10.001 L21,20.001 C21,21.106 20.105,22.001 19,22.001 L5,22.001 C3.895,22.001 3,21.106 3,20.001 L3,10 C3,8.895 3.895,8 5,8 L6,8 C6,4.686 8.686,2 12,2 Z M12,12 C11.095,12 10.303,12.608 10.068,13.482 C9.834,14.357 10.216,15.279 11,15.732 L11,17 C11,17.552 11.448,18 12,18 C12.552,18 13,17.552 13,17 L13,15.732 C13.784,15.279 14.166,14.357 13.932,13.482 C13.697,12.608 12.905,12 12,12 Z M19.918,5.021 L20.884,5.281 C21.396,5.441 21.69,5.977 21.551,6.495 C21.412,7.012 20.889,7.329 20.366,7.211 L19.401,6.953 C18.87,6.808 18.556,6.261 18.698,5.73 C18.84,5.198 19.386,4.881 19.918,5.021 Z M18.633,2.09 C19.167,2.233 19.483,2.781 19.34,3.315 L19.211,3.797 C19.12,4.144 18.85,4.415 18.504,4.508 C18.158,4.602 17.789,4.503 17.536,4.249 C17.283,3.996 17.185,3.626 17.279,3.28 L17.409,2.797 C17.552,2.264 18.1,1.948 18.633,2.09 Z"/>
</svg>

