<svg xmlns="http://www.w3.org/2000/svg" width="24" height="24">
  <defs/>
  <path  d="M12,2 C13.091,2 14.117,2.292 15,2.804 A1 1 0 1 1 14,4.534 A4 4 0 0 0 8,8 L19,8.001 A2 2 0 0 1 21,10.001 L21,20.001 A2 2 0 0 1 19,22.001 L5,22.001 A2 2 0 0 1 3,20.001 L3,10 A2 2 0 0 1 5,8 L6,8 A6 6 0 0 1 12,2 M19,10 L5,10 L5,20 L19,20 Z M12,12 A2 2 0 0 1 13.134,15.647 L13,15.732 L13,17 A1 1 0 0 1 11.007,17.117 L11,17 L11,15.732 A2 2 0 0 1 12,12 M19.918,5.021 L20.884,5.281 A1 1 0 0 1 20.366,7.211 L19.401,6.953 A1 1 0 0 1 19.918,5.021 M18.633,2.09 A1 1 0 0 1 19.34,3.315 L19.211,3.797 A1 1 0 1 1 17.279,3.28 L17.409,2.797 A1 1 0 0 1 18.633,2.09"/>
</svg>

