<svg xmlns="http://www.w3.org/2000/svg" width="24" height="24">
  <defs/>
  <path  d="M11.117,9.473 A1.25 1.25 0 0 1 12.782,9.383 L12.883,9.473 L15.707,12.293 A1 1 0 0 1 14.387,13.791 L14.293,13.708 L13,12.416 L13,21 A1 1 0 0 1 11.007,21.117 L11,21 L11,12.416 L9.707,13.708 A1 1 0 0 1 8.21,12.387 L8.293,12.292 Z M11.5,2 C14.284,2 16.66,3.75 17.586,6.212 A6 6 0 0 1 16.226,17.996 L16,18 L15,18 L15,16 A3 3 0 0 0 17.255,11.021 L17.12,10.877 L14.296,8.058 A3.25 3.25 0 0 0 9.848,7.923 L9.704,8.058 L6.88,10.878 A3 3 0 0 0 8.79,15.993 L9,16 L9,18 L7,18 A5 5 0 0 1 5,8.416 A6.5 6.5 0 0 1 11.5,2"/>
</svg>

