<svg xmlns="http://www.w3.org/2000/svg" width="24" height="24">
  <defs/>
  <path  d="M11.5,4 C8.851,4 6.739,6.38 7.027,9 C7.082,9.502 6.759,9.967 6.269,10.09 C4.806,10.465 3.85,11.868 4.035,13.367 C4.22,14.865 5.49,15.993 7,16 L8,16 C8.552,16 9,16.448 9,17 C9,17.552 8.552,18 8,18 L7,18 C4.631,18.002 2.586,16.34 2.102,14.021 C1.618,11.702 2.828,9.362 5,8.416 C5.037,5.288 7.297,2.63 10.378,2.091 C13.46,1.551 16.488,3.283 17.586,6.212 C20.48,7.01 22.339,9.823 21.939,12.798 C21.538,15.773 19.002,17.995 16,18 C15.448,18 15,17.552 15,17 C15,16.448 15.448,16 16,16 C18.084,16.003 19.821,14.406 19.993,12.329 C20.164,10.252 18.711,8.391 16.655,8.053 C16.265,7.989 15.949,7.702 15.845,7.321 C15.312,5.36 13.532,4 11.5,4 Z M13,12.416 L13,21 C13,21.552 12.552,22 12,22 C11.448,22 11,21.552 11,21 L11,12.416 L9.707,13.708 C9.316,14.098 8.683,14.098 8.292,13.708 C7.902,13.317 7.902,12.683 8.293,12.293 L11.117,9.473 C11.605,8.986 12.395,8.986 12.883,9.473 L15.707,12.292 C16.098,12.682 16.098,13.316 15.708,13.707 C15.318,14.098 14.684,14.098 14.293,13.708 Z"/>
</svg>

