<svg xmlns="http://www.w3.org/2000/svg" width="24" height="24">
  <defs/>
  <path  d="M9.882,3.122 A1.5 1.5 0 0 1 9.084,5.087 A7.503 7.503 0 0 0 9.084,18.912 A1.5 1.5 0 1 1 7.916,21.676 A10.502 10.502 0 0 1 1.5,12 C1.5,7.647 4.149,3.916 7.916,2.324 A1.5 1.5 0 0 1 9.882,3.122 M16.084,2.324 A10.503 10.503 0 0 1 22.5,12 C22.5,16.353 19.851,20.084 16.084,21.676 A1.5 1.5 0 0 1 14.916,18.912 A7.503 7.503 0 0 0 14.916,5.087 A1.5 1.5 0 1 1 16.084,2.324 M12,5.5 A1.5 1.5 0 0 1 13.5,7 L15,7 A1.5 1.5 0 0 1 15,10 L13.5,10 L13.5,10.5 L13.75,10.5 A3.25 3.25 0 0 1 13.75,17 L13.5,17 A1.5 1.5 0 0 1 10.5,17 L9,17 A1.5 1.5 0 0 1 9,14 L10.5,14 L10.5,13.5 L10.25,13.5 A3.25 3.25 0 0 1 10.25,7 L10.5,7 A1.5 1.5 0 0 1 12,5.5 M13.75,13.5 L13.5,13.5 L13.5,14 L13.75,14 A0.25 0.25 0 1 0 13.75,13.5 M10.5,10 L10.25,10 A0.25 0.25 0 1 0 10.25,10.5 L10.5,10.5 Z"/>
</svg>

