<svg xmlns="http://www.w3.org/2000/svg" width="24" height="24">
  <defs/>
  <path  d="M9.421,3.317 A1 1 0 0 1 8.889,4.627 A8.003 8.003 0 0 0 8.889,19.373 A1 1 0 1 1 8.111,21.215 A10.003 10.003 0 0 1 2,12 C2,7.855 4.522,4.3 8.11,2.785 A1 1 0 0 1 9.421,3.317 M15.889,2.785 A10.002 10.002 0 0 1 22,12 C22,16.145 19.478,19.699 15.89,21.215 A1 1 0 0 1 15.11,19.373 A8.003 8.003 0 0 0 15.11,4.627 A1 1 0 0 1 15.89,2.785 Z M12,6 A1 1 0 0 1 13,7 L13,8 L15,8 A1 1 0 1 1 15,10 L13,10 L13,11 L14,11 A2.5 2.5 0 0 1 14,16 L13,16 L13,17 A1 1 0 1 1 11,17 L11,16 L9,16 A1 1 0 1 1 9,14 L11,14 L11,13 L10,13 A2.5 2.5 0 0 1 10,8 L11,8 L11,7 A1 1 0 0 1 12,6 M14,13 L13,13 L13,14 L14,14 A0.5 0.5 0 1 0 14,13 M11,10 L10,10 A0.5 0.5 0 0 0 10,11 L11,11 Z"/>
</svg>

