<svg xmlns="http://www.w3.org/2000/svg" width="24" height="24">
  <defs/>
  <path  d="M11,2 C13.761,2 16,4.239 16,7 C16,9.761 13.761,12 11,12 C8.239,12 6,9.761 6,7 C6,4.239 8.239,2 11,2 Z M11,13 C11.447,13 11.887,13.024 12.316,13.07 C12.865,13.128 13.263,13.621 13.205,14.17 C13.147,14.719 12.654,15.117 12.105,15.059 C11.745,15.02 11.375,15 11,15 C8.977,15 7.157,15.59 5.864,16.379 C5.217,16.773 4.729,17.201 4.414,17.601 C4.09,18.011 4,18.321 4,18.5 C4,18.622 4.037,18.751 4.255,18.926 C4.504,19.126 4.937,19.333 5.599,19.508 C6.917,19.858 8.811,20 11,20 L11.658,19.995 C12.21,19.988 12.664,20.429 12.672,20.982 C12.679,21.534 12.237,21.988 11.685,21.995 L11,22 C8.771,22 6.665,21.86 5.087,21.442 C4.302,21.234 3.563,20.936 3.003,20.486 C2.41,20.01 2,19.345 2,18.5 C2,17.713 2.358,16.977 2.844,16.361 C3.338,15.736 4.021,15.161 4.822,14.671 C6.425,13.695 8.605,13 11,13 Z M18.884,14.469 C19.149,14.012 19.725,13.84 20.198,14.077 C20.67,14.315 20.876,14.879 20.668,15.365 L20.616,15.469 L20.281,16.049 C20.481,16.284 20.643,16.547 20.763,16.831 L20.829,17 L21.5,17 C22.029,17.001 22.466,17.413 22.497,17.941 C22.528,18.47 22.142,18.931 21.617,18.993 L21.5,19 L20.829,19 C20.731,19.277 20.593,19.539 20.419,19.776 L20.281,19.95 L20.616,20.531 C20.883,20.99 20.745,21.577 20.302,21.869 C19.858,22.161 19.264,22.056 18.948,21.629 L18.884,21.531 L18.549,20.951 C18.256,21.005 17.959,21.014 17.669,20.981 L17.452,20.949 L17.116,21.531 C16.851,21.988 16.275,22.16 15.802,21.923 C15.33,21.685 15.124,21.121 15.332,20.635 L15.384,20.531 L15.719,19.95 C15.52,19.716 15.357,19.453 15.237,19.17 L15.171,19 L14.5,19 C13.971,18.999 13.534,18.587 13.503,18.059 C13.472,17.53 13.858,17.069 14.383,17.007 L14.5,17 L15.172,17 C15.27,16.723 15.408,16.461 15.582,16.224 L15.719,16.05 L15.384,15.469 C15.117,15.01 15.255,14.423 15.698,14.131 C16.142,13.839 16.736,13.944 17.052,14.371 L17.116,14.469 L17.451,15.049 C17.744,14.995 18.041,14.986 18.331,15.019 L18.548,15.05 Z M11,4 C9.343,4 8,5.343 8,7 C8,8.657 9.343,10 11,10 C12.657,10 14,8.657 14,7 C14,5.343 12.657,4 11,4 Z M18,17 C17.448,17 17,17.448 17,18 C17,18.552 17.448,19 18,19 C18.552,19 19,18.552 19,18 C19,17.448 18.552,17 18,17 Z"/>
</svg>

