<svg xmlns="http://www.w3.org/2000/svg" width="24" height="24">
  <defs/>
  <path  d="M11,2 A5 5 0 1 0 11,12 A5 5 0 0 0 11,2 M11,13 C8.605,13 6.425,13.694 4.822,14.672 C4.022,15.16 3.338,15.736 2.844,16.362 C2.358,16.976 2,17.713 2,18.5 C2,19.345 2.411,20.011 3.003,20.486 C3.563,20.936 4.302,21.234 5.087,21.442 C6.665,21.859 8.771,22 11,22 L11.685,21.995 A1 1 0 0 0 12.575,20.567 A5.973 5.973 0 0 1 12,18 C12,16.748 12.383,15.588 13.037,14.627 A1 1 0 0 0 12.317,13.07 C11.887,13.024 11.447,13 11,13 M20.616,15.469 A1 1 0 1 0 18.884,14.469 L18.548,15.051 A2.995 2.995 0 0 0 17.451,15.05 L17.116,14.469 A1 1 0 1 0 15.384,15.469 L15.719,16.049 A2.997 2.997 0 0 0 15.172,17 L14.5,17 A1 1 0 0 0 14.5,19 L15.171,19 A3.021 3.021 0 0 0 15.72,19.95 L15.384,20.531 A1 1 0 1 0 17.116,21.531 L17.452,20.95 C17.811,21.016 18.182,21.018 18.549,20.95 L18.884,21.531 A1 1 0 1 0 20.616,20.531 L20.281,19.951 C20.523,19.667 20.707,19.344 20.828,19 L21.5,19 A1 1 0 1 0 21.5,17 L20.829,17 A3.029 3.029 0 0 0 20.28,16.05 Z"/>
</svg>

