<svg xmlns="http://www.w3.org/2000/svg" width="24" height="24">
  <defs/>
  <path  d="M11,2 C13.761,2 16,4.239 16,7 C16,9.761 13.761,12 11,12 C8.239,12 6,9.761 6,7 C6,4.239 8.239,2 11,2 Z M4,18.5 C4,18.622 4.037,18.751 4.255,18.926 C4.504,19.126 4.937,19.333 5.6,19.508 C6.917,19.857 8.81,20 11,20 L11.658,19.995 C12.21,19.988 12.664,20.429 12.672,20.982 C12.679,21.534 12.237,21.988 11.685,21.995 L11,22 C8.771,22 6.665,21.859 5.087,21.442 C4.302,21.234 3.563,20.936 3.003,20.486 C2.411,20.011 2,19.345 2,18.5 C2,17.713 2.358,16.976 2.844,16.362 C3.338,15.736 4.022,15.16 4.822,14.672 C6.425,13.694 8.605,13 11,13 C11.44,13.001 11.879,13.024 12.316,13.069 C12.866,13.127 13.264,13.62 13.205,14.17 C13.147,14.719 12.655,15.117 12.105,15.059 C11.744,15.02 11.375,15 11,15 C8.977,15 7.157,15.589 5.864,16.379 C5.217,16.773 4.729,17.201 4.413,17.601 C4.09,18.011 4,18.32 4,18.5 Z M8,7 C8,8.657 9.343,10 11,10 C12.657,10 14,8.657 14,7 C14,5.343 12.657,4 11,4 C9.343,4 8,5.343 8,7 Z M16,18 C16,17.448 16.448,17 17,17 L17.99,17 C18.548,17 19,17.452 19,18.01 L19,20.134 C19.392,20.36 19.583,20.822 19.466,21.259 C19.349,21.696 18.953,22 18.5,22 L18.01,22 C17.452,22 17,21.548 17,20.99 L17,19 C16.448,19 16,18.552 16,18 Z M18,14 L18.119,14.007 C18.644,14.069 19.03,14.53 18.999,15.059 C18.968,15.587 18.531,15.999 18.002,16 L17.883,15.993 C17.358,15.931 16.972,15.47 17.003,14.941 C17.034,14.413 17.471,14.001 18,14 Z"/>
</svg>

