<svg xmlns="http://www.w3.org/2000/svg" width="24" height="24">
  <defs/>
  <path  d="M11,2 C13.761,2 16,4.239 16,7 C16,9.761 13.761,12 11,12 C8.239,12 6,9.761 6,7 C6,4.239 8.239,2 11,2 Z M14,18 C14,15.791 15.791,14 18,14 C20.209,14 22,15.791 22,18 C22,20.209 20.209,22 18,22 C15.791,22 14,20.209 14,18 Z M4,18.5 C4,18.622 4.037,18.751 4.255,18.926 C4.504,19.126 4.937,19.333 5.6,19.508 C6.917,19.857 8.81,20 11,20 C11.222,20 11.441,19.998 11.658,19.995 C12.21,19.988 12.664,20.429 12.672,20.982 C12.679,21.534 12.237,21.988 11.685,21.995 C11.46,21.998 11.23,22 11,22 C8.771,22 6.665,21.859 5.087,21.442 C4.302,21.234 3.563,20.936 3.003,20.486 C2.411,20.011 2,19.345 2,18.5 C2,17.713 2.358,16.976 2.844,16.362 C3.338,15.736 4.022,15.16 4.822,14.672 C6.425,13.694 8.605,13 11,13 C11.44,13.001 11.879,13.024 12.316,13.069 C12.866,13.127 13.264,13.62 13.205,14.17 C13.147,14.719 12.655,15.117 12.105,15.059 C11.744,15.02 11.375,15 11,15 C8.977,15 7.157,15.589 5.864,16.379 C5.217,16.773 4.729,17.201 4.413,17.601 C4.09,18.011 4,18.32 4,18.5 Z M8,7 C8,8.657 9.343,10 11,10 C12.657,10 14,8.657 14,7 C14,5.343 12.657,4 11,4 C9.343,4 8,5.343 8,7 Z M17.482,16.068 L19.932,18.518 C20.117,17.828 19.92,17.091 19.415,16.585 C18.909,16.08 18.172,15.883 17.482,16.068 Z M16.068,17.482 C15.883,18.172 16.08,18.909 16.585,19.415 C17.091,19.92 17.828,20.117 18.518,19.932 Z"/>
</svg>

