<svg xmlns="http://www.w3.org/2000/svg" width="24" height="24">
  <defs/>
  <path  d="M12,13 C14.396,13 16.575,13.694 18.178,14.672 C18.978,15.16 19.662,15.736 20.156,16.362 C20.642,16.977 21,17.713 21,18.5 C21,19.345 20.589,20.011 19.997,20.486 C19.437,20.936 18.698,21.234 17.913,21.442 C16.335,21.859 14.229,22 12,22 C9.771,22 7.665,21.86 6.087,21.442 C5.302,21.234 4.563,20.936 4.003,20.486 C3.41,20.01 3,19.345 3,18.5 C3,17.713 3.358,16.977 3.844,16.361 C4.338,15.736 5.021,15.161 5.822,14.671 C7.425,13.695 9.605,13 12,13 Z M12,2 C14.761,2 17,4.239 17,7 C17,9.761 14.761,12 12,12 C9.239,12 7,9.761 7,7 C7,4.239 9.239,2 12,2 Z M12,15 C9.977,15 8.157,15.59 6.864,16.379 C6.217,16.773 5.729,17.201 5.414,17.601 C5.09,18.011 5,18.321 5,18.5 C5,18.622 5.037,18.751 5.255,18.926 C5.504,19.126 5.937,19.333 6.599,19.508 C7.917,19.858 9.811,20 12,20 C14.19,20 16.083,19.857 17.4,19.508 C18.063,19.333 18.496,19.126 18.745,18.926 C18.963,18.751 19,18.622 19,18.5 C19,18.32 18.91,18.011 18.587,17.601 C18.271,17.201 17.783,16.773 17.136,16.379 C15.843,15.589 14.023,15 12,15 Z M12,4 C10.343,4 9,5.343 9,7 C9,8.657 10.343,10 12,10 C13.657,10 15,8.657 15,7 C15,5.343 13.657,4 12,4 Z"/>
</svg>

