<svg xmlns="http://www.w3.org/2000/svg" width="24" height="24">
  <defs/>
  <path  d="M11,2 C13.761,2 16,4.239 16,7 C16,9.761 13.761,12 11,12 C8.239,12 6,9.761 6,7 C6,4.239 8.239,2 11,2 Z M11,13 C11.447,13 11.887,13.024 12.317,13.07 C12.666,13.107 12.97,13.326 13.118,13.645 C13.265,13.964 13.235,14.337 13.037,14.627 C12.383,15.588 12,16.748 12,18 C11.999,18.888 12.195,19.765 12.575,20.567 C12.721,20.875 12.7,21.235 12.52,21.524 C12.34,21.813 12.025,21.99 11.685,21.995 C11.46,21.998 11.23,22 11,22 C8.771,22 6.665,21.859 5.087,21.442 C4.302,21.234 3.563,20.936 3.003,20.486 C2.411,20.011 2,19.345 2,18.5 C2,17.713 2.358,16.976 2.844,16.362 C3.338,15.736 4.022,15.16 4.822,14.672 C6.425,13.694 8.605,13 11,13 Z M18.864,13.997 L19.774,15.559 L21.54,15.941 C21.888,16.016 22.17,16.271 22.28,16.609 C22.39,16.948 22.311,17.32 22.074,17.585 L20.87,18.932 L21.052,20.731 C21.088,21.085 20.933,21.432 20.645,21.641 C20.357,21.85 19.98,21.89 19.654,21.747 L18,21.017 L16.346,21.747 C16.02,21.89 15.643,21.85 15.355,21.641 C15.067,21.432 14.912,21.085 14.948,20.731 L15.13,18.933 L13.926,17.585 C13.689,17.32 13.61,16.948 13.72,16.609 C13.83,16.271 14.112,16.016 14.46,15.941 L16.226,15.559 L17.136,13.997 C17.315,13.69 17.644,13.5 18,13.5 C18.356,13.5 18.685,13.69 18.864,13.997 Z"/>
</svg>

