<svg xmlns="http://www.w3.org/2000/svg" width="24" height="24">
  <defs/>
  <path  d="M9.586,15 A2 2 0 0 1 10.87,15.467 L11,15.586 L12,16.586 L13,15.586 A2 2 0 0 1 14.238,15.008 L14.414,15 L18.438,15 A3 3 0 0 1 21.3,17.1 L21.349,17.272 L21.815,19.136 A1.5 1.5 0 0 1 20.491,20.994 L20.36,21 L3.64,21 A1.5 1.5 0 0 1 2.159,19.265 L2.185,19.136 L2.651,17.272 A3 3 0 0 1 5.383,15.005 L5.562,15 Z M12,2 C12.784,2 13.661,2.19 14.38,2.391 C15.976,2.836 16.922,4.287 16.995,5.806 L17,5.996 L17,10.003 C17,11.591 16.043,13.146 14.38,13.609 C13.661,13.809 12.784,14 12,14 C11.216,14 10.339,13.81 9.62,13.609 C8.024,13.164 7.078,11.713 7.005,10.194 L7,10.004 L7,5.996 C7,4.409 7.957,2.853 9.62,2.39 C10.339,2.191 11.216,2 12,2"/>
</svg>

