<svg xmlns="http://www.w3.org/2000/svg" width="24" height="24">
  <defs/>
  <path  d="M11,2 A5 5 0 1 0 11,12 A5 5 0 0 0 11,2 M11,13 C11.59,13 12.167,13.042 12.724,13.12 A1 1 0 0 1 13.263,14.846 A6.979 6.979 0 0 0 11.053,20.868 A1 1 0 0 1 10.041,21.991 C8.031,21.951 6.151,21.775 4.747,21.345 C4.045,21.13 3.383,20.828 2.881,20.383 C2.35,19.913 2,19.28 2,18.5 C2,17.713 2.358,16.977 2.844,16.361 C3.338,15.736 4.021,15.161 4.822,14.671 C6.425,13.695 8.605,13 11,13 M21.212,14.034 A2.5 2.5 0 0 1 21.212,17.569 L17.794,20.987 A1.5 1.5 0 0 1 16.946,21.411 L14.637,21.741 A1.001 1.001 0 0 1 13.505,20.608 L13.835,18.3 A1.5 1.5 0 0 1 14.259,17.451 L17.677,14.033 A2.5 2.5 0 0 1 21.212,14.033 Z"/>
</svg>

