<svg xmlns="http://www.w3.org/2000/svg" width="24" height="24">
  <defs/>
  <path  d="M6,7 C6,4.239 8.239,2 11,2 C13.761,2 16,4.239 16,7 C16,9.761 13.761,12 11,12 C8.239,12 6,9.761 6,7 Z M11.271,13.96 C11.306,14.511 10.888,14.986 10.337,15.021 C8.467,15.141 6.817,15.749 5.656,16.511 C5.076,16.891 4.642,17.294 4.363,17.666 C4.079,18.046 4,18.332 4,18.5 L4.005,18.562 C4.034,18.737 4.212,19.052 5.144,19.372 C6.139,19.712 7.611,19.904 9.402,19.972 C9.765,19.977 10.097,20.178 10.269,20.498 C10.441,20.817 10.427,21.205 10.231,21.511 C10.035,21.817 9.689,21.992 9.327,21.97 C7.485,21.901 5.775,21.702 4.495,21.263 C3.278,20.846 2,20.034 2,18.5 C2,17.756 2.32,17.057 2.763,16.467 C3.211,15.869 3.831,15.316 4.559,14.838 C6.015,13.883 8.001,13.166 10.209,13.025 C10.474,13.008 10.735,13.097 10.934,13.272 C11.133,13.448 11.254,13.695 11.271,13.96 Z M17.411,20.782 C17.137,20.803 16.863,20.803 16.589,20.782 L16.502,21.107 C16.359,21.641 15.811,21.957 15.277,21.814 C14.743,21.671 14.427,21.123 14.57,20.589 L14.66,20.252 C14.42,20.132 14.187,19.992 13.967,19.832 L13.707,20.091 C13.315,20.47 12.691,20.465 12.305,20.079 C11.919,19.693 11.914,19.069 12.293,18.677 L12.623,18.346 C12.403,17.968 12.229,17.564 12.106,17.144 C11.949,16.614 12.251,16.058 12.781,15.901 C13.311,15.744 13.867,16.046 14.024,16.576 C14.902,19.539 19.098,19.539 19.976,16.576 C20.133,16.046 20.689,15.744 21.219,15.901 C21.749,16.058 22.051,16.614 21.894,17.144 C21.764,17.584 21.588,17.985 21.376,18.346 L21.707,18.676 C22.098,19.066 22.098,19.7 21.708,20.09 C21.317,20.481 20.684,20.481 20.293,20.091 L20.033,19.831 C19.813,19.991 19.58,20.131 19.34,20.252 L19.43,20.589 C19.573,21.123 19.257,21.671 18.723,21.814 C18.189,21.957 17.641,21.641 17.498,21.107 Z M11,4 C9.343,4 8,5.343 8,7 C8,8.657 9.343,10 11,10 C12.657,10 14,8.657 14,7 C14,5.343 12.657,4 11,4 Z"/>
</svg>

