<svg xmlns="http://www.w3.org/2000/svg" width="24" height="24">
  <defs/>
  <path  d="M12,2 C17.523,2 22,6.477 22,12 C22.004,14.308 21.205,16.545 19.742,18.33 L19.762,18.352 L19.63,18.464 C17.732,20.709 14.94,22.003 12,22 C9.05,22 6.4,20.723 4.57,18.693 L4.37,18.463 L4.238,18.353 L4.258,18.329 C2.795,16.545 1.997,14.308 2,12 C2,6.477 6.477,2 12,2 Z M12,4 C8.928,4 6.127,5.759 4.793,8.527 C3.459,11.294 3.828,14.581 5.742,16.984 C7.363,15.821 9.575,15 12,15 C14.425,15 16.637,15.821 18.258,16.984 C20.172,14.581 20.541,11.294 19.207,8.527 C17.873,5.759 15.072,4 12,4 Z M12,6 C14.209,6 16,7.791 16,10 C16,12.209 14.209,14 12,14 C9.791,14 8,12.209 8,10 C8,7.791 9.791,6 12,6 Z M12,17 C10.14,17 8.459,17.592 7.207,18.406 C8.589,19.443 10.272,20.003 12,20 C13.728,20.003 15.411,19.443 16.793,18.406 C15.362,17.489 13.699,17.001 12,17 Z M12,8 C10.895,8 10,8.895 10,10 C10,11.105 10.895,12 12,12 C13.105,12 14,11.105 14,10 C14,8.895 13.105,8 12,8 Z"/>
</svg>

