<svg xmlns="http://www.w3.org/2000/svg" width="24" height="24">
  <defs/>
  <path  d="M6,7 A5 5 0 1 1 16,7 A5 5 0 0 1 6,7 M4.822,14.672 C6.425,13.694 8.605,13 11,13 C11.447,13 11.887,13.024 12.316,13.07 A1 1 0 0 1 13.036,14.627 A5.968 5.968 0 0 0 12,18 C12,18.92 12.207,19.79 12.575,20.567 A1 1 0 0 1 11.685,21.995 L11,22 C8.771,22 6.665,21.86 5.087,21.442 C4.302,21.234 3.563,20.936 3.003,20.486 C2.41,20.01 2,19.345 2,18.5 C2,17.713 2.358,16.977 2.844,16.361 C3.338,15.736 4.021,15.161 4.822,14.671 Z M17,21 A1 1 0 0 1 17.883,20.007 L18.002,20 A1 1 0 0 1 18.119,21.993 L18,22 A1 1 0 0 1 17,21 M17.567,16.25 A0.5 0.5 0 0 1 18.5,16.5 C18.5,16.635 18.452,16.755 18.179,16.98 L18.034,17.094 L17.924,17.176 C17.85,17.231 17.762,17.296 17.681,17.362 L17.542,17.478 A1.7 1.7 0 0 0 17.054,18.175 A1 1 0 0 0 18.889,18.957 L18.986,18.88 L19.343,18.61 L19.45,18.524 L19.631,18.366 C20.037,17.992 20.5,17.398 20.5,16.5 A2.5 2.5 0 0 0 15.838,15.243 A1 1 0 0 0 17.567,16.25"/>
</svg>

