<svg xmlns="http://www.w3.org/2000/svg" width="24" height="24">
  <defs/>
  <path  d="M16,14 C18.677,14 20.879,16.109 20.995,18.783 L21,19 L21,20 C21,21.047 20.194,21.917 19.15,21.995 L19,22 L5,22 C3.953,22 3.083,21.194 3.005,20.15 L3,20 L3,19 C3,16.323 5.109,14.121 7.783,14.005 L8,14 Z M12,2 C14.761,2 17,4.239 17,7 C17,9.761 14.761,12 12,12 C9.239,12 7,9.761 7,7 C7,4.239 9.239,2 12,2 Z M16,16 L8,16 C6.411,16 5.098,17.238 5.005,18.824 L5,19 L5,20 L19,20 L19,19 C19,17.411 17.762,16.098 16.176,16.005 Z M12,4 C10.343,4 9,5.343 9,7 C9,8.657 10.343,10 12,10 C13.657,10 15,8.657 15,7 C15,5.343 13.657,4 12,4 Z"/>
</svg>

