<svg xmlns="http://www.w3.org/2000/svg" width="24" height="24">
  <defs/>
  <path  d="M12,2 C14.761,2 17,4.239 17,7 C17,9.761 14.761,12 12,12 C9.239,12 7,9.761 7,7 C7,4.239 9.239,2 12,2 Z M16,14 C18.761,14 21,16.239 21,19 L21,21 C21,21.552 20.552,22 20,22 C19.448,22 19,21.552 19,21 L19,19 C19,17.343 17.657,16 16,16 L8,16 C6.343,16 5,17.343 5,19 L5,21 C5,21.552 4.552,22 4,22 C3.448,22 3,21.552 3,21 L3,19 C3,16.239 5.239,14 8,14 Z M12,4 C10.343,4 9,5.343 9,7 C9,8.657 10.343,10 12,10 C13.657,10 15,8.657 15,7 C15,5.343 13.657,4 12,4 Z M20,8 C20.552,8 21,8.448 21,9 L21,10 L22,10 C22.552,10 23,10.448 23,11 C23,11.552 22.552,12 22,12 L21,12 L21,13 C21,13.552 20.552,14 20,14 C19.448,14 19,13.552 19,13 L19,12 L18,12 C17.448,12 17,11.552 17,11 C17,10.448 17.448,10 18,10 L19,10 L19,9 C19,8.448 19.448,8 20,8 Z"/>
</svg>

