<svg xmlns="http://www.w3.org/2000/svg" width="24" height="24">
  <defs/>
  <path  d="M11,2 C13.761,2 16,4.239 16,7 C16,9.761 13.761,12 11,12 C8.239,12 6,9.761 6,7 C6,4.239 8.239,2 11,2 Z M11,13 C11.447,13 11.887,13.024 12.317,13.07 C12.666,13.107 12.97,13.326 13.118,13.645 C13.265,13.964 13.235,14.337 13.037,14.627 C12.383,15.588 12,16.748 12,18 C11.999,18.888 12.195,19.765 12.575,20.567 C12.721,20.875 12.7,21.235 12.52,21.524 C12.34,21.813 12.025,21.99 11.685,21.995 C11.46,21.998 11.23,22 11,22 C8.771,22 6.665,21.859 5.087,21.442 C4.302,21.234 3.563,20.936 3.003,20.486 C2.411,20.011 2,19.345 2,18.5 C2,17.713 2.358,16.976 2.844,16.362 C3.338,15.736 4.022,15.16 4.822,14.672 C6.425,13.694 8.605,13 11,13 Z M21.708,16.068 L17.89,19.886 C17.46,20.316 16.764,20.316 16.334,19.886 L14.284,17.836 C13.905,17.444 13.91,16.82 14.296,16.434 C14.682,16.048 15.306,16.043 15.698,16.422 L17.112,17.836 L20.294,14.654 C20.686,14.275 21.31,14.28 21.696,14.666 C22.082,15.052 22.087,15.676 21.708,16.068 Z"/>
</svg>

