<svg xmlns="http://www.w3.org/2000/svg" width="24" height="24">
  <defs/>
  <path  d="M11,2 C13.761,2 16,4.239 16,7 C16,9.761 13.761,12 11,12 C8.239,12 6,9.761 6,7 C6,4.239 8.239,2 11,2 Z M20.5,14.691 C21.416,15.225 22.026,16.281 22,17.479 C21.964,19.049 20.752,20.277 19.114,21.25 C18.772,21.454 18.41,21.667 18,21.667 C17.59,21.667 17.228,21.454 16.886,21.25 C15.248,20.277 14.036,19.048 14.001,17.48 C13.974,16.282 14.584,15.225 15.5,14.691 C16.253,14.252 17.179,14.195 18,14.645 C18.821,14.195 19.747,14.252 20.5,14.691 Z M11,13 C11.447,13 11.887,13.024 12.316,13.07 C12.865,13.128 13.263,13.621 13.205,14.17 C13.147,14.719 12.654,15.117 12.105,15.059 C11.745,15.02 11.375,15 11,15 C8.977,15 7.157,15.59 5.864,16.379 C5.217,16.773 4.729,17.201 4.414,17.601 C4.09,18.011 4,18.321 4,18.5 C4,18.622 4.037,18.751 4.255,18.926 C4.504,19.126 4.937,19.333 5.599,19.508 C6.917,19.858 8.811,20 11,20 L11.658,19.995 C12.21,19.988 12.664,20.429 12.672,20.982 C12.679,21.534 12.237,21.988 11.685,21.995 L11,22 C8.771,22 6.665,21.86 5.087,21.442 C4.302,21.234 3.563,20.936 3.003,20.486 C2.41,20.01 2,19.345 2,18.5 C2,17.713 2.358,16.977 2.844,16.361 C3.338,15.736 4.021,15.161 4.822,14.671 C6.425,13.695 8.605,13 11,13 Z M11,4 C9.343,4 8,5.343 8,7 C8,8.657 9.343,10 11,10 C12.657,10 14,8.657 14,7 C14,5.343 12.657,4 11,4 Z M19.227,16.334 L19.149,16.337 C19.032,16.355 18.922,16.407 18.834,16.487 L18.754,16.559 C18.369,16.949 17.756,16.977 17.338,16.643 L17.245,16.559 C17.082,16.394 16.945,16.348 16.851,16.337 C16.73,16.326 16.61,16.355 16.507,16.419 C16.242,16.573 15.989,16.939 16,17.434 C16.01,17.884 16.36,18.564 17.7,19.404 L18,19.586 L18.092,19.531 C19.604,18.633 19.989,17.906 20,17.435 C20.01,16.938 19.758,16.573 19.493,16.419 C19.412,16.37 19.321,16.341 19.227,16.334 Z"/>
</svg>

