<svg xmlns="http://www.w3.org/2000/svg" width="24" height="24">
  <defs/>
  <path  d="M12,13 C14.396,13 16.575,13.694 18.178,14.672 C18.978,15.16 19.662,15.736 20.156,16.362 C20.642,16.977 21,17.713 21,18.5 C21,19.345 20.589,20.011 19.997,20.486 C19.437,20.936 18.698,21.234 17.913,21.442 C16.335,21.859 14.229,22 12,22 C9.771,22 7.665,21.86 6.087,21.442 C5.302,21.234 4.563,20.936 4.003,20.486 C3.41,20.01 3,19.345 3,18.5 C3,17.713 3.358,16.977 3.844,16.361 C4.338,15.736 5.021,15.161 5.822,14.671 C7.425,13.695 9.605,13 12,13 M12,2 A5 5 0 1 1 12,12 A5 5 0 0 1 12,2"/>
</svg>

