<svg xmlns="http://www.w3.org/2000/svg" width="24" height="24">
  <defs/>
  <path  d="M6,7 C6,4.239 8.239,2 11,2 C13.761,2 16,4.239 16,7 C16,9.761 13.761,12 11,12 C8.239,12 6,9.761 6,7 Z M4.822,14.672 C6.425,13.694 8.605,13 11,13 C11.447,13 11.887,13.024 12.316,13.07 C12.665,13.107 12.969,13.326 13.117,13.645 C13.264,13.964 13.234,14.337 13.036,14.627 C12.359,15.621 11.997,16.797 12,18 C12,18.92 12.207,19.79 12.575,20.567 C12.721,20.875 12.7,21.235 12.52,21.524 C12.34,21.813 12.025,21.99 11.685,21.995 C11.459,21.998 11.23,22 11,22 C8.771,22 6.665,21.86 5.087,21.442 C4.302,21.234 3.563,20.936 3.003,20.486 C2.41,20.01 2,19.345 2,18.5 C2,17.713 2.358,16.977 2.844,16.361 C3.338,15.736 4.021,15.161 4.822,14.671 Z M14,18 C14,15.791 15.791,14 18,14 C20.209,14 22,15.791 22,18 C22,20.209 20.209,22 18,22 C15.791,22 14,20.209 14,18 Z M17.482,16.068 L19.932,18.518 C20.117,17.828 19.92,17.091 19.415,16.585 C18.909,16.08 18.172,15.883 17.482,16.068 Z M16.068,17.482 C15.883,18.172 16.08,18.909 16.585,19.415 C17.091,19.92 17.828,20.117 18.518,19.932 Z"/>
</svg>

