<svg xmlns="http://www.w3.org/2000/svg" width="24" height="24">
  <defs/>
  <path  d="M6,7 A5 5 0 1 1 16,7 A5 5 0 0 1 6,7 M4.822,14.672 C6.425,13.694 8.605,13 11,13 C11.447,13 11.887,13.024 12.316,13.07 A1 1 0 0 1 13.036,14.627 A5.968 5.968 0 0 0 12,18 C12,18.92 12.207,19.79 12.575,20.567 A1 1 0 0 1 11.685,21.995 L11,22 C8.771,22 6.665,21.86 5.087,21.442 C4.302,21.234 3.563,20.936 3.003,20.486 C2.41,20.01 2,19.345 2,18.5 C2,17.713 2.358,16.977 2.844,16.361 C3.338,15.736 4.021,15.161 4.822,14.671 Z M18,14 A1 1 0 0 1 19,15 L19,18 A1 1 0 1 1 17,18 L17,15 A1 1 0 0 1 18,14 M18,20 A1 1 0 0 0 17.883,21.993 L18.002,22 A1 1 0 0 0 18.119,20.007 Z"/>
</svg>

