<svg xmlns="http://www.w3.org/2000/svg" width="24" height="24">
  <defs/>
  <path  d="M6,7 C6,4.239 8.239,2 11,2 C13.761,2 16,4.239 16,7 C16,9.761 13.761,12 11,12 C8.239,12 6,9.761 6,7 Z M18.864,13.997 L19.774,15.559 L21.54,15.941 C21.888,16.016 22.17,16.271 22.28,16.609 C22.39,16.948 22.311,17.32 22.074,17.585 L20.87,18.932 L21.052,20.731 C21.088,21.085 20.933,21.432 20.645,21.641 C20.357,21.85 19.98,21.89 19.654,21.747 L18,21.017 L16.346,21.747 C16.02,21.89 15.643,21.85 15.355,21.641 C15.067,21.432 14.912,21.085 14.948,20.731 L15.13,18.933 L13.926,17.585 C13.689,17.32 13.61,16.948 13.72,16.609 C13.83,16.271 14.112,16.016 14.46,15.941 L16.226,15.559 L17.136,13.997 C17.315,13.69 17.644,13.5 18,13.5 C18.356,13.5 18.685,13.69 18.864,13.997 Z M4.413,17.601 C4.09,18.011 4,18.321 4,18.5 C4,18.622 4.037,18.751 4.255,18.926 C4.504,19.126 4.937,19.333 5.599,19.508 C6.917,19.858 8.811,20 11,20 C11.222,20 11.441,19.998 11.658,19.995 C12.21,19.988 12.664,20.429 12.672,20.982 C12.679,21.534 12.237,21.988 11.685,21.995 C11.459,21.998 11.23,22 11,22 C8.771,22 6.665,21.86 5.087,21.442 C4.302,21.234 3.563,20.936 3.003,20.486 C2.41,20.01 2,19.345 2,18.5 C2,17.713 2.358,16.977 2.844,16.361 C3.338,15.736 4.021,15.161 4.822,14.671 C6.425,13.695 8.605,13 11,13 C11.447,13 11.887,13.024 12.316,13.07 C12.865,13.128 13.263,13.621 13.205,14.17 C13.147,14.719 12.654,15.117 12.105,15.059 C11.745,15.02 11.375,15 11,15 C8.977,15 7.157,15.59 5.864,16.379 C5.217,16.773 4.729,17.201 4.414,17.601 Z M11,4 C9.343,4 8,5.343 8,7 C8,8.657 9.343,10 11,10 C12.657,10 14,8.657 14,7 C14,5.343 12.657,4 11,4 Z M17.733,16.946 C17.592,17.188 17.355,17.36 17.081,17.42 L16.561,17.532 L16.914,17.929 C17.101,18.138 17.192,18.417 17.164,18.696 L17.111,19.224 L17.597,19.01 C17.854,18.897 18.146,18.897 18.403,19.01 L18.889,19.224 L18.835,18.696 C18.807,18.417 18.898,18.138 19.085,17.929 L19.44,17.532 L18.92,17.42 C18.645,17.361 18.408,17.189 18.267,16.946 L18,16.486 Z"/>
</svg>

