<svg xmlns="http://www.w3.org/2000/svg" width="24" height="24">
  <defs/>
  <path  d="M11,2 C13.761,2 16,4.239 16,7 C16,9.761 13.761,12 11,12 C8.239,12 6,9.761 6,7 C6,4.239 8.239,2 11,2 Z M4,18.5 C4,18.622 4.037,18.751 4.255,18.926 C4.504,19.126 4.937,19.333 5.6,19.508 C6.917,19.857 8.81,20 11,20 C11.222,20 11.441,19.998 11.658,19.995 C12.21,19.988 12.664,20.429 12.672,20.982 C12.679,21.534 12.237,21.988 11.685,21.995 C11.46,21.998 11.23,22 11,22 C8.771,22 6.665,21.859 5.087,21.442 C4.302,21.234 3.563,20.936 3.003,20.486 C2.411,20.011 2,19.345 2,18.5 C2,17.713 2.358,16.976 2.844,16.362 C3.338,15.736 4.022,15.16 4.822,14.672 C6.425,13.694 8.605,13 11,13 C11.44,13.001 11.879,13.024 12.316,13.069 C12.866,13.127 13.264,13.62 13.205,14.17 C13.147,14.719 12.655,15.117 12.105,15.059 C11.744,15.02 11.375,15 11,15 C8.977,15 7.157,15.589 5.864,16.379 C5.217,16.773 4.729,17.201 4.413,17.601 C4.09,18.011 4,18.32 4,18.5 Z M14,17.5 C14.001,16.041 14.907,14.736 16.273,14.225 C17.639,13.713 19.18,14.103 20.138,15.203 C21.097,16.302 21.273,17.881 20.58,19.165 L21.414,20 C21.674,20.251 21.778,20.623 21.687,20.973 C21.595,21.322 21.322,21.595 20.973,21.687 C20.623,21.778 20.251,21.674 20,21.414 L19.165,20.579 C18.08,21.166 16.767,21.138 15.708,20.507 C14.649,19.875 14,18.733 14,17.5 Z M8,7 C8,8.657 9.343,10 11,10 C12.657,10 14,8.657 14,7 C14,5.343 12.657,4 11,4 C9.343,4 8,5.343 8,7 Z M17.5,16 C16.672,16 16,16.672 16,17.5 C16,18.328 16.672,19 17.5,19 C18.328,19 19,18.328 19,17.5 C19,16.672 18.328,16 17.5,16 Z"/>
</svg>

