<svg xmlns="http://www.w3.org/2000/svg" width="24" height="24">
  <defs/>
  <path  d="M6,7 C6,4.239 8.239,2 11,2 C13.761,2 16,4.239 16,7 C16,9.761 13.761,12 11,12 C8.239,12 6,9.761 6,7 Z M4.822,14.672 C6.425,13.694 8.605,13 11,13 C11.447,13 11.887,13.024 12.316,13.07 C12.665,13.107 12.969,13.326 13.117,13.645 C13.264,13.964 13.234,14.337 13.036,14.627 C12.359,15.621 11.997,16.797 12,18 C12,18.92 12.207,19.79 12.575,20.567 C12.721,20.875 12.7,21.235 12.52,21.524 C12.34,21.813 12.025,21.99 11.685,21.995 C11.459,21.998 11.23,22 11,22 C8.771,22 6.665,21.86 5.087,21.442 C4.302,21.234 3.563,20.936 3.003,20.486 C2.41,20.01 2,19.345 2,18.5 C2,17.713 2.358,16.977 2.844,16.361 C3.338,15.736 4.021,15.161 4.822,14.671 Z M14,17.5 C14.001,16.041 14.907,14.736 16.273,14.225 C17.639,13.713 19.18,14.103 20.138,15.203 C21.097,16.302 21.273,17.881 20.58,19.165 L21.414,20 C21.674,20.251 21.778,20.623 21.687,20.973 C21.595,21.322 21.322,21.595 20.973,21.687 C20.623,21.778 20.251,21.674 20,21.414 L19.165,20.579 C18.08,21.166 16.767,21.138 15.708,20.507 C14.649,19.875 14,18.733 14,17.5 Z M17.5,16 C16.672,16 16,16.672 16,17.5 C16,18.328 16.672,19 17.5,19 C18.328,19 19,18.328 19,17.5 C19,16.672 18.328,16 17.5,16 Z"/>
</svg>

