<svg xmlns="http://www.w3.org/2000/svg" width="24" height="24">
  <defs/>
  <path  d="M11,2 A5 5 0 1 0 11,12 A5 5 0 0 0 11,2 M11.123,14.55 A1 1 0 0 0 10.21,13.025 C8,13.165 6.015,13.883 4.559,14.838 C3.831,15.316 3.211,15.869 2.763,16.468 C2.32,17.057 2,17.755 2,18.5 C2,20.035 3.278,20.846 4.495,21.263 C5.775,21.702 7.485,21.901 9.327,21.97 A1 1 0 0 0 10.322,20.68 A7.498 7.498 0 0 1 10,18.5 A7.46 7.46 0 0 1 11.123,14.55 M17.411,20.782 A5.348 5.348 0 0 1 16.589,20.782 L16.502,21.107 A1 1 0 0 1 14.57,20.589 L14.66,20.252 C14.42,20.132 14.187,19.992 13.967,19.832 L13.707,20.091 A1 1 0 0 1 12.293,18.677 L12.623,18.346 A5.405 5.405 0 0 1 12.106,17.144 A1 1 0 0 1 14.024,16.576 C14.902,19.539 19.098,19.539 19.976,16.576 A1 1 0 1 1 21.894,17.144 C21.764,17.584 21.588,17.985 21.376,18.346 L21.707,18.676 A1 1 0 0 1 20.293,20.091 L20.033,19.831 C19.813,19.991 19.58,20.131 19.34,20.252 L19.43,20.589 A1 1 0 1 1 17.498,21.107 Z"/>
</svg>

