<svg xmlns="http://www.w3.org/2000/svg" width="24" height="24">
  <defs/>
  <path  d="M11,2 A5 5 0 1 0 11,12 A5 5 0 0 0 11,2 M11,13 C8.605,13 6.425,13.694 4.822,14.672 C4.022,15.16 3.338,15.736 2.844,16.362 C2.358,16.976 2,17.713 2,18.5 C2,19.345 2.411,20.011 3.003,20.486 C3.563,20.936 4.302,21.234 5.087,21.442 C6.665,21.859 8.771,22 11,22 L11.685,21.995 A1 1 0 0 0 12.575,20.567 A5.973 5.973 0 0 1 12,18 C12,16.748 12.383,15.588 13.037,14.627 A1 1 0 0 0 12.317,13.07 C11.887,13.024 11.447,13 11,13 M15.5,14.691 C16.253,14.252 17.179,14.195 18,14.645 C18.821,14.195 19.747,14.252 20.5,14.691 C21.416,15.225 22.026,16.281 22,17.479 C21.964,19.049 20.752,20.277 19.114,21.25 C18.771,21.453 18.411,21.667 18,21.667 C17.59,21.667 17.229,21.453 16.886,21.25 C15.248,20.277 14.036,19.048 14.001,17.48 C13.974,16.282 14.584,15.225 15.5,14.691"/>
</svg>

