<svg xmlns="http://www.w3.org/2000/svg" width="24" height="24">
  <defs/>
  <path  d="M11,13 C11.447,13 11.887,13.024 12.316,13.07 A1 1 0 0 1 13.036,14.627 A5.968 5.968 0 0 0 12,18 C12,18.92 12.207,19.79 12.575,20.567 A1 1 0 0 1 11.812,21.986 L11.685,21.996 L11,22 C8.771,22 6.665,21.86 5.087,21.442 C4.302,21.234 3.563,20.936 3.003,20.486 C2.41,20.01 2,19.345 2,18.5 C2,17.713 2.358,16.977 2.844,16.361 C3.338,15.736 4.021,15.161 4.822,14.671 C6.425,13.695 8.605,13 11,13 M18,13 A4 4 0 0 1 22,17 C22,18.387 21.245,19.48 20.531,20.21 C20.085,20.666 19.611,21.027 19.23,21.283 L18.847,21.527 L18.655,21.64 A1.33 1.33 0 0 1 17.345,21.64 L17.153,21.527 L16.908,21.375 C16.508,21.115 15.97,20.723 15.468,20.21 C14.756,19.48 14,18.387 14,17 A4 4 0 0 1 18,13 M18,16 A1 1 0 1 0 18,18 A1 1 0 0 0 18,16 M11,2 A5 5 0 1 1 11,12 A5 5 0 0 1 11,2"/>
</svg>

