<svg xmlns="http://www.w3.org/2000/svg" width="24" height="24">
  <defs/>
  <path  d="M11,2 C13.761,2 16,4.239 16,7 C16,9.761 13.761,12 11,12 C8.239,12 6,9.761 6,7 C6,4.239 8.239,2 11,2 Z M18,13 C20.209,13 22,14.791 22,17 C22,18.387 21.245,19.48 20.531,20.21 C20.085,20.666 19.611,21.027 19.23,21.283 L18.964,21.456 C18.923,21.481 18.884,21.506 18.847,21.527 L18.655,21.64 C18.249,21.87 17.751,21.87 17.345,21.64 L17.153,21.527 L16.908,21.375 C16.508,21.115 15.97,20.723 15.468,20.21 C14.756,19.48 14,18.387 14,17 C14,14.791 15.791,13 18,13 Z M4,18.5 C4,18.622 4.037,18.751 4.255,18.926 C4.504,19.126 4.937,19.333 5.6,19.508 C6.917,19.857 8.81,20 11,20 L11.658,19.995 C12.21,19.988 12.664,20.429 12.672,20.982 C12.679,21.534 12.237,21.988 11.685,21.995 L11,22 C8.771,22 6.665,21.859 5.087,21.442 C4.302,21.234 3.563,20.936 3.003,20.486 C2.411,20.011 2,19.345 2,18.5 C2,17.713 2.358,16.976 2.844,16.362 C3.338,15.736 4.022,15.16 4.822,14.672 C6.425,13.694 8.605,13 11,13 C11.44,13.001 11.879,13.024 12.316,13.069 C12.866,13.127 13.264,13.62 13.205,14.17 C13.147,14.719 12.655,15.117 12.105,15.059 C11.744,15.02 11.375,15 11,15 C8.977,15 7.157,15.589 5.864,16.379 C5.217,16.773 4.729,17.201 4.413,17.601 C4.09,18.011 4,18.32 4,18.5 Z M8,7 C8,8.657 9.343,10 11,10 C12.657,10 14,8.657 14,7 C14,5.343 12.657,4 11,4 C9.343,4 8,5.343 8,7 Z M18,15 C16.895,15 16,15.895 16,17 C16,17.636 16.35,18.251 16.899,18.811 C17.232,19.146 17.602,19.444 18,19.699 C18.31,19.499 18.725,19.196 19.101,18.811 C19.649,18.251 20,17.636 20,17 C20,15.895 19.105,15 18,15 Z M18,16 C18.552,16 19,16.448 19,17 C19,17.552 18.552,18 18,18 C17.448,18 17,17.552 17,17 C17,16.448 17.448,16 18,16 Z"/>
</svg>

