<svg xmlns="http://www.w3.org/2000/svg" width="24" height="24">
  <defs/>
  <path  d="M11,2 C13.761,2 16,4.239 16,7 C16,9.761 13.761,12 11,12 C8.239,12 6,9.761 6,7 C6,4.239 8.239,2 11,2 Z M4,18.5 C4,18.622 4.037,18.751 4.255,18.926 C4.504,19.126 4.937,19.333 5.6,19.508 C6.917,19.857 8.81,20 11,20 L11.658,19.995 C12.21,19.988 12.664,20.429 12.672,20.982 C12.679,21.534 12.237,21.988 11.685,21.995 L11,22 C8.771,22 6.665,21.859 5.087,21.442 C4.302,21.234 3.563,20.936 3.003,20.486 C2.411,20.011 2,19.345 2,18.5 C2,17.713 2.358,16.976 2.844,16.362 C3.338,15.736 4.022,15.16 4.822,14.672 C6.425,13.694 8.605,13 11,13 C11.44,13.001 11.879,13.024 12.316,13.069 C12.866,13.127 13.264,13.62 13.205,14.17 C13.147,14.719 12.655,15.117 12.105,15.059 C11.744,15.02 11.375,15 11,15 C8.977,15 7.157,15.589 5.864,16.379 C5.217,16.773 4.729,17.201 4.413,17.601 C4.09,18.011 4,18.32 4,18.5 Z M8,7 C8,8.657 9.343,10 11,10 C12.657,10 14,8.657 14,7 C14,5.343 12.657,4 11,4 C9.343,4 8,5.343 8,7 Z M17.567,16.25 C17.289,16.727 16.676,16.889 16.199,16.611 C15.722,16.333 15.56,15.72 15.838,15.243 C16.406,14.265 17.559,13.79 18.651,14.084 C19.743,14.379 20.501,15.369 20.5,16.5 C20.5,17.398 20.037,17.992 19.631,18.366 L19.45,18.524 L19.343,18.61 L18.986,18.88 L18.889,18.957 C18.649,19.423 18.09,19.624 17.608,19.419 C17.126,19.213 16.884,18.671 17.054,18.175 C17.155,17.905 17.323,17.665 17.542,17.478 L17.681,17.362 C17.762,17.296 17.85,17.231 17.924,17.176 L18.034,17.094 L18.179,16.98 C18.452,16.755 18.5,16.635 18.5,16.5 C18.5,16.274 18.348,16.076 18.129,16.017 C17.911,15.958 17.68,16.054 17.567,16.25 Z M17,21 C17,20.493 17.38,20.066 17.883,20.007 L18.002,20 C18.531,20.001 18.968,20.413 18.999,20.941 C19.03,21.47 18.644,21.931 18.119,21.993 L18,22 C17.448,22 17,21.552 17,21 Z"/>
</svg>

