<svg xmlns="http://www.w3.org/2000/svg" width="24" height="24">
  <defs/>
  <path  d="M12,1.5 C15.038,1.5 17.5,3.962 17.5,7 C17.5,10.038 15.038,12.5 12,12.5 C8.962,12.5 6.5,10.038 6.5,7 C6.5,3.962 8.962,1.5 12,1.5 Z M16,13.5 C19.038,13.5 21.5,15.962 21.5,19 L21.5,20.5 C21.5,21.328 20.828,22 20,22 C19.172,22 18.5,21.328 18.5,20.5 L18.5,19 C18.5,17.619 17.381,16.5 16,16.5 L8,16.5 C6.619,16.5 5.5,17.619 5.5,19 L5.5,20.5 C5.5,21.328 4.828,22 4,22 C3.172,22 2.5,21.328 2.5,20.5 L2.5,19 C2.5,15.962 4.962,13.5 8,13.5 Z M12,4.5 C10.619,4.5 9.5,5.619 9.5,7 C9.5,8.381 10.619,9.5 12,9.5 C13.381,9.5 14.5,8.381 14.5,7 C14.5,5.619 13.381,4.5 12,4.5 Z"/>
</svg>

