<svg xmlns="http://www.w3.org/2000/svg" width="24" height="24">
  <defs/>
  <path  d="M11,2 C13.761,2 16,4.239 16,7 C16,9.761 13.761,12 11,12 C8.239,12 6,9.761 6,7 C6,4.239 8.239,2 11,2 Z M11,13 C11.447,13 11.887,13.024 12.317,13.07 C12.666,13.107 12.97,13.326 13.118,13.645 C13.265,13.964 13.235,14.337 13.037,14.627 C12.383,15.588 12,16.748 12,18 C11.999,18.888 12.195,19.765 12.575,20.567 C12.721,20.875 12.7,21.235 12.52,21.524 C12.34,21.813 12.025,21.99 11.685,21.995 C11.46,21.998 11.23,22 11,22 C8.771,22 6.665,21.859 5.087,21.442 C4.302,21.234 3.563,20.936 3.003,20.486 C2.411,20.011 2,19.345 2,18.5 C2,17.713 2.358,16.976 2.844,16.362 C3.338,15.736 4.022,15.16 4.822,14.672 C6.425,13.694 8.605,13 11,13 Z M16.586,15.172 L18,16.586 L19.414,15.172 C19.806,14.793 20.43,14.798 20.816,15.184 C21.202,15.57 21.207,16.194 20.828,16.586 L19.414,18 L20.828,19.414 C21.088,19.665 21.192,20.037 21.101,20.387 C21.009,20.736 20.736,21.009 20.387,21.101 C20.037,21.192 19.665,21.088 19.414,20.828 L18,19.414 L16.586,20.828 C16.335,21.088 15.963,21.192 15.613,21.101 C15.264,21.009 14.991,20.736 14.899,20.387 C14.808,20.037 14.912,19.665 15.172,19.414 L16.586,18 L15.172,16.586 C14.793,16.194 14.798,15.57 15.184,15.184 C15.57,14.798 16.194,14.793 16.586,15.172 Z"/>
</svg>

