<svg xmlns="http://www.w3.org/2000/svg" width="24" height="24">
  <defs/>
  <path  d="M11,2 A5 5 0 1 0 11,12 A5 5 0 0 0 11,2 M11.123,14.55 A1 1 0 0 0 10.21,13.025 C8,13.165 6.015,13.883 4.559,14.838 C3.831,15.316 3.211,15.869 2.763,16.468 C2.32,17.057 2,17.755 2,18.5 C2,20.035 3.278,20.846 4.495,21.263 C5.775,21.702 7.485,21.901 9.327,21.97 A1 1 0 0 0 10.322,20.68 A7.498 7.498 0 0 1 10,18.5 A7.46 7.46 0 0 1 11.123,14.55 M13.51,15.278 C14.368,14.521 15.594,13.888 17,13.888 C18.406,13.888 19.632,14.521 20.49,15.278 A5.3 5.3 0 0 1 21.547,16.538 C21.799,16.965 22,17.478 22,18 C22,18.523 21.8,19.035 21.547,19.462 A5.3 5.3 0 0 1 20.49,20.722 C19.632,21.479 18.406,22.112 17,22.112 C15.594,22.112 14.368,21.479 13.51,20.722 A5.3 5.3 0 0 1 12.453,19.462 C12.2,19.035 12,18.522 12,18 C12,17.477 12.2,16.965 12.453,16.538 A5.3 5.3 0 0 1 13.51,15.278 M17.996,17.913 A0.667 0.667 0 0 1 17.086,17.003 L17.001,17 A1 1 0 1 0 18.001,18 L17.997,17.913 Z"/>
</svg>

