<svg xmlns="http://www.w3.org/2000/svg" width="24" height="24">
  <defs/>
  <path  d="M6,7 C6,4.239 8.239,2 11,2 C13.761,2 16,4.239 16,7 C16,9.761 13.761,12 11,12 C8.239,12 6,9.761 6,7 Z M18.316,14.051 L21.316,15.051 C21.725,15.187 22,15.569 22,16 L22,17.671 C22,19.886 20.335,21.746 18.134,21.991 C18.045,22.001 17.956,22.001 17.866,21.991 C15.665,21.746 14,19.886 14,17.671 L14,16 C14,15.569 14.275,15.187 14.684,15.051 L17.684,14.051 C17.889,13.983 18.111,13.983 18.316,14.051 Z M4.413,17.601 C4.09,18.011 4,18.321 4,18.5 C4,18.622 4.037,18.751 4.255,18.926 C4.504,19.126 4.937,19.333 5.599,19.508 C6.917,19.858 8.811,20 11,20 C11.222,20 11.441,19.998 11.658,19.995 C12.21,19.988 12.664,20.429 12.672,20.982 C12.679,21.534 12.237,21.988 11.685,21.995 C11.459,21.998 11.23,22 11,22 C8.771,22 6.665,21.86 5.087,21.442 C4.302,21.234 3.563,20.936 3.003,20.486 C2.41,20.01 2,19.345 2,18.5 C2,17.713 2.358,16.977 2.844,16.361 C3.338,15.736 4.021,15.161 4.822,14.671 C6.425,13.695 8.605,13 11,13 C11.447,13 11.887,13.024 12.316,13.07 C12.865,13.128 13.263,13.621 13.205,14.17 C13.147,14.719 12.654,15.117 12.105,15.059 C11.745,15.02 11.375,15 11,15 C8.977,15 7.157,15.59 5.864,16.379 C5.217,16.773 4.729,17.201 4.414,17.601 Z M11,4 C9.343,4 8,5.343 8,7 C8,8.657 9.343,10 11,10 C12.657,10 14,8.657 14,7 C14,5.343 12.657,4 11,4 Z M16,16.721 L16,17.672 C16,18.834 16.851,19.821 18,19.992 C19.145,19.821 20,18.838 20,17.671 L20,16.721 L18,16.054 L16,16.721 Z"/>
</svg>

