<svg xmlns="http://www.w3.org/2000/svg" width="24" height="24">
  <defs/>
  <path  d="M11,2 C13.761,2 16,4.239 16,7 C16,9.761 13.761,12 11,12 C8.239,12 6,9.761 6,7 C6,4.239 8.239,2 11,2 Z M18.5,13 C19.817,13 20.909,14.022 20.995,15.336 L21,15.5 L21,16.085 C21.538,16.275 21.935,16.763 21.993,17.351 L22,17.5 L22,20.5 C22,21.273 21.413,21.919 20.644,21.993 L20.5,22 L16.5,22 C15.727,22 15.081,21.413 15.007,20.644 L15,20.5 L15,17.5 C15,16.916 15.339,16.385 15.869,16.139 L16,16.085 L16,15.5 C16,14.119 17.119,13 18.5,13 Z M11,13 C11.447,13 11.887,13.024 12.316,13.07 C12.865,13.128 13.263,13.621 13.205,14.17 C13.147,14.719 12.654,15.117 12.105,15.059 C11.745,15.02 11.375,15 11,15 C8.977,15 7.157,15.59 5.864,16.379 C5.217,16.773 4.729,17.201 4.414,17.601 C4.09,18.011 4,18.321 4,18.5 C4,18.622 4.037,18.751 4.255,18.926 C4.504,19.126 4.937,19.333 5.599,19.508 C6.917,19.858 8.811,20 11,20 L11.658,19.995 C12.21,19.988 12.664,20.429 12.672,20.982 C12.679,21.534 12.237,21.988 11.685,21.995 L11,22 C8.771,22 6.665,21.86 5.087,21.442 C4.302,21.234 3.563,20.936 3.003,20.486 C2.41,20.01 2,19.345 2,18.5 C2,17.713 2.358,16.977 2.844,16.361 C3.338,15.736 4.021,15.161 4.822,14.671 C6.425,13.695 8.605,13 11,13 Z M11,4 C9.343,4 8,5.343 8,7 C8,8.657 9.343,10 11,10 C12.657,10 14,8.657 14,7 C14,5.343 12.657,4 11,4 Z M20,18 L17,18 L17,20 L20,20 Z M18.5,15 C18.224,15 18,15.224 18,15.5 L18,16 L19,16 L19,15.5 C19,15.224 18.776,15 18.5,15 Z"/>
</svg>

