<svg xmlns="http://www.w3.org/2000/svg" width="24" height="24">
  <defs/>
  <path  d="M12,2 C14.761,2 17,4.239 17,7 C17,9.761 14.761,12 12,12 C9.239,12 7,9.761 7,7 C7,4.239 9.239,2 12,2 Z M16,14 C18.677,14 20.879,16.109 20.995,18.783 L21,19 L21,21 C20.999,21.529 20.587,21.966 20.059,21.997 C19.53,22.028 19.069,21.642 19.007,21.117 L19,21 L19,19 C19,17.411 17.762,16.098 16.176,16.005 L16,16 L8,16 C6.411,16 5.098,17.238 5.005,18.824 L5,19 L5,21 C4.999,21.529 4.587,21.966 4.059,21.997 C3.53,22.028 3.069,21.642 3.007,21.117 L3,21 L3,19 C3,16.323 5.109,14.121 7.783,14.005 L8,14 Z M12,4 C10.343,4 9,5.343 9,7 C9,8.657 10.343,10 12,10 C13.657,10 15,8.657 15,7 C15,5.343 13.657,4 12,4 Z"/>
</svg>

