<svg xmlns="http://www.w3.org/2000/svg" width="24" height="24">
  <defs/>
  <path  d="M12,2 C14.761,2 17,4.239 17,7 C17,9.761 14.761,12 12,12 C9.239,12 7,9.761 7,7 C7,4.239 9.239,2 12,2 Z M16,14 C18.761,14 21,16.239 21,19 L21,21 C21,21.552 20.552,22 20,22 C19.448,22 19,21.552 19,21 L19,19 C19,17.343 17.657,16 16,16 L8,16 C6.343,16 5,17.343 5,19 L5,21 C5,21.552 4.552,22 4,22 C3.448,22 3,21.552 3,21 L3,19 C3,16.239 5.239,14 8,14 Z M12,4 C10.343,4 9,5.343 9,7 C9,8.657 10.343,10 12,10 C13.657,10 15,8.657 15,7 C15,5.343 13.657,4 12,4 Z M21.414,9.081 C21.787,8.705 22.388,8.684 22.786,9.034 C23.183,9.385 23.238,9.984 22.912,10.401 L22.828,10.496 L20,13.324 C19.644,13.68 19.078,13.716 18.68,13.407 L18.586,13.324 L17.172,11.91 C16.796,11.537 16.775,10.936 17.125,10.538 C17.476,10.141 18.075,10.086 18.492,10.412 L18.586,10.495 L19.293,11.203 Z"/>
</svg>

