<svg xmlns="http://www.w3.org/2000/svg" width="24" height="24">
  <defs/>
  <path  d="M11,2 C13.761,2 16,4.239 16,7 C16,9.761 13.761,12 11,12 C8.239,12 6,9.761 6,7 C6,4.239 8.239,2 11,2 Z M17,13.89 C18.406,13.89 19.632,14.522 20.49,15.28 C20.906,15.642 21.262,16.067 21.547,16.539 C21.799,16.966 22,17.479 22,18.001 C22,18.524 21.8,19.036 21.547,19.463 C21.262,19.935 20.906,20.361 20.49,20.723 C19.632,21.48 18.406,22.113 17,22.113 C15.594,22.113 14.368,21.48 13.51,20.723 C13.094,20.361 12.738,19.935 12.453,19.463 C12.2,19.035 12,18.522 12,18 C12,17.477 12.2,16.965 12.453,16.538 C12.738,16.066 13.094,15.64 13.51,15.278 C14.368,14.521 15.594,13.888 17,13.888 Z M10.337,15.021 L10.336,15.021 C8.468,15.14 6.817,15.749 5.656,16.51 C5.075,16.892 4.642,17.294 4.363,17.666 C4.079,18.046 4,18.332 4,18.5 L4.005,18.562 C4.034,18.737 4.212,19.052 5.144,19.372 C6.139,19.712 7.611,19.904 9.402,19.972 C9.944,20.006 10.36,20.465 10.339,21.008 C10.319,21.55 9.87,21.977 9.327,21.97 C7.485,21.901 5.775,21.702 4.495,21.263 C3.278,20.846 2,20.035 2,18.5 C2,17.755 2.32,17.057 2.763,16.468 C3.211,15.869 3.831,15.316 4.559,14.838 C6.015,13.883 8,13.165 10.21,13.025 C10.761,12.99 11.236,13.408 11.271,13.96 C11.307,14.511 10.888,14.986 10.337,15.021 Z M8,7 C8,8.657 9.343,10 11,10 C12.657,10 14,8.657 14,7 C14,5.343 12.657,4 11,4 C9.343,4 8,5.343 8,7 Z M17,15.89 C16.197,15.89 15.423,16.258 14.833,16.779 C14.575,17.002 14.354,17.263 14.176,17.554 C14.111,17.66 14.059,17.774 14.021,17.893 L14.001,17.98 L14.001,18.022 L14.021,18.109 C14.044,18.186 14.089,18.299 14.176,18.449 C14.32,18.692 14.542,18.966 14.833,19.223 C15.423,19.743 16.197,20.113 17,20.113 C17.803,20.113 18.577,19.743 19.167,19.223 C19.425,19 19.646,18.739 19.824,18.448 C19.911,18.3 19.956,18.186 19.979,18.109 L19.999,18.022 C20,18.015 20,18.007 20,18 L19.992,17.942 C19.957,17.804 19.9,17.673 19.824,17.552 C19.646,17.262 19.424,17.001 19.167,16.778 C18.577,16.258 17.803,15.888 17,15.888 Z M17.087,17.005 C16.938,17.266 16.982,17.595 17.195,17.807 C17.407,18.02 17.736,18.064 17.997,17.915 L18,18.001 C18,18.413 17.747,18.784 17.363,18.933 C16.978,19.083 16.542,18.981 16.263,18.677 C15.984,18.373 15.921,17.929 16.103,17.559 C16.285,17.189 16.676,16.969 17.087,17.005 Z"/>
</svg>

