<svg xmlns="http://www.w3.org/2000/svg" width="24" height="24">
  <defs/>
  <path  d="M11,2 C13.761,2 16,4.239 16,7 C16,9.761 13.761,12 11,12 C8.239,12 6,9.761 6,7 C6,4.239 8.239,2 11,2 Z M11,13 C11.447,13 11.887,13.024 12.316,13.07 C12.665,13.107 12.969,13.326 13.117,13.645 C13.264,13.964 13.234,14.337 13.036,14.627 C12.359,15.621 11.997,16.797 12,18 C12,18.92 12.207,19.79 12.575,20.567 C12.721,20.875 12.7,21.235 12.52,21.524 C12.34,21.813 12.025,21.99 11.685,21.995 L11,22 C8.771,22 6.665,21.86 5.087,21.442 C4.302,21.234 3.563,20.936 3.003,20.486 C2.41,20.01 2,19.345 2,18.5 C2,17.713 2.358,16.977 2.844,16.361 C3.338,15.736 4.021,15.161 4.822,14.671 C6.425,13.695 8.605,13 11,13 Z M18.5,13 C19.881,13 21,14.119 21,15.5 L21,16.085 C21.6,16.297 22,16.864 22,17.5 L22,20.5 C22,21.328 21.328,22 20.5,22 L16.5,22 C15.672,22 15,21.328 15,20.5 L15,17.5 C15,16.864 15.4,16.297 16,16.085 L16,15.5 C16,14.119 17.119,13 18.5,13 Z M18.5,15 C18.259,15 18.051,15.172 18.008,15.41 L18,15.5 L18,16 L19,16 L19,15.5 C19,15.224 18.776,15 18.5,15 Z"/>
</svg>

