<svg xmlns="http://www.w3.org/2000/svg" width="24" height="24">
  <defs/>
  <path  d="M12,2 C12.784,2 13.661,2.19 14.38,2.391 C16.043,2.854 17,4.41 17,5.997 L17,10.003 C17,11.591 16.043,13.146 14.38,13.609 C13.661,13.809 12.784,14 12,14 C11.216,14 10.339,13.81 9.62,13.609 C7.957,13.146 7,11.591 7,10.003 L7,5.997 C7,4.41 7.957,2.854 9.62,2.391 C10.339,2.191 11.216,2 12,2 Z M9.586,15 C10.116,15 10.625,15.211 11,15.586 L12,16.586 L13,15.586 C13.375,15.211 13.884,15 14.414,15 L18.438,15 C19.814,15 21.014,15.937 21.348,17.272 L21.97,19.758 C22.064,20.107 21.962,20.479 21.703,20.732 C21.445,20.985 21.07,21.078 20.724,20.977 C20.377,20.876 20.112,20.595 20.03,20.243 L19.409,17.758 C19.298,17.313 18.898,17 18.439,17 L14.414,17 L13.414,18 C12.633,18.781 11.367,18.781 10.586,18 L9.586,17 L5.562,17 C5.103,17 4.703,17.313 4.592,17.758 L3.97,20.243 C3.888,20.595 3.623,20.876 3.276,20.977 C2.93,21.078 2.555,20.985 2.297,20.732 C2.038,20.479 1.936,20.107 2.03,19.758 L2.651,17.272 C2.985,15.937 4.185,15 5.561,15 Z M12,4 C11.491,4 10.823,4.132 10.157,4.318 C9.489,4.504 9,5.165 9,5.997 L9,10.003 C9,10.835 9.489,11.496 10.157,11.683 C10.823,11.868 11.491,12 12,12 C12.509,12 13.177,11.868 13.843,11.682 C14.511,11.496 15,10.835 15,10.003 L15,5.997 C15,5.165 14.511,4.504 13.843,4.317 C13.177,4.133 12.51,4 12,4 Z"/>
</svg>

