<svg xmlns="http://www.w3.org/2000/svg" width="24" height="24">
  <defs/>
  <path  d="M6,7 C6,4.239 8.239,2 11,2 C13.761,2 16,4.239 16,7 C16,9.761 13.761,12 11,12 C8.239,12 6,9.761 6,7 Z M21.213,14.034 L21.212,14.034 C22.188,15.01 22.188,16.593 21.212,17.569 L17.795,20.987 C17.565,21.216 17.267,21.365 16.946,21.411 L14.638,21.741 C14.326,21.786 14.011,21.681 13.788,21.458 C13.565,21.235 13.46,20.92 13.505,20.608 L13.835,18.3 C13.881,17.979 14.03,17.681 14.259,17.451 L17.677,14.034 C18.653,13.057 20.237,13.057 21.213,14.034 Z M4.413,17.601 C4.09,18.011 4,18.321 4,18.5 C4,18.618 4.035,18.732 4.205,18.884 C4.402,19.06 4.755,19.254 5.315,19.427 C6.435,19.773 8.071,19.948 10.021,19.99 C10.573,20.002 11.012,20.459 11,21.011 C10.988,21.563 10.531,22.002 9.979,21.99 C7.982,21.947 6.119,21.769 4.725,21.338 C4.029,21.122 3.371,20.821 2.873,20.376 C2.347,19.906 2,19.274 2,18.5 C2,17.713 2.358,16.977 2.844,16.361 C3.338,15.736 4.021,15.161 4.822,14.671 C6.425,13.695 8.605,13 11,13 C11.447,13 11.887,13.024 12.316,13.07 C12.865,13.128 13.263,13.621 13.205,14.17 C13.147,14.719 12.654,15.117 12.105,15.059 C11.745,15.02 11.375,15 11,15 C8.977,15 7.157,15.59 5.864,16.379 C5.217,16.773 4.729,17.201 4.414,17.601 Z M11,4 C9.343,4 8,5.343 8,7 C8,8.657 9.343,10 11,10 C12.657,10 14,8.657 14,7 C14,5.343 12.657,4 11,4 Z M19.091,15.448 L15.791,18.748 L15.673,19.573 L16.498,19.455 L19.798,16.155 C19.987,15.959 19.985,15.647 19.792,15.454 C19.599,15.261 19.287,15.259 19.091,15.448 Z"/>
</svg>

