<svg xmlns="http://www.w3.org/2000/svg" width="24" height="24">
  <defs/>
  <path  d="M18.5,3 C19.576,3 20.531,3.689 20.872,4.709 C21.212,5.73 20.861,6.854 20,7.5 L20,11.5 C20.783,12.087 21.151,13.076 20.943,14.032 C20.734,14.988 19.988,15.734 19.032,15.943 C18.076,16.151 17.087,15.783 16.5,15 L15,15 L15,16.5 C15.783,17.087 16.151,18.076 15.943,19.032 C15.734,19.988 14.988,20.734 14.032,20.943 C13.076,21.151 12.087,20.783 11.5,20 L7.5,20 C6.913,20.783 5.924,21.151 4.968,20.943 C4.012,20.734 3.266,19.988 3.057,19.032 C2.849,18.076 3.217,17.087 4,16.5 L4,12.5 C3.217,11.913 2.849,10.924 3.057,9.968 C3.266,9.012 4.012,8.266 4.968,8.057 C5.924,7.849 6.913,8.217 7.5,9 L9,9 L9,7.5 C8.217,6.913 7.849,5.924 8.057,4.968 C8.266,4.012 9.012,3.266 9.968,3.057 C10.924,2.849 11.913,3.217 12.5,4 L16.5,4 C16.956,3.393 17.682,3 18.5,3 Z M16.05,6 L12.95,6 L12.909,6.17 C12.674,7.014 12.015,7.673 11.171,7.909 L11,7.95 L11,11.05 L11.17,11.091 C12.014,11.326 12.673,11.985 12.909,12.829 L12.95,13 L16.05,13 L16.091,12.83 C16.326,11.986 16.985,11.327 17.829,11.091 L18,11.05 L18,7.95 L17.83,7.909 C16.986,7.674 16.327,7.015 16.091,6.171 Z M9,11 L7.95,11 L7.909,11.17 C7.674,12.014 7.015,12.673 6.171,12.909 L6,12.95 L6,16.05 L6.17,16.091 C7.014,16.326 7.673,16.985 7.909,17.829 L7.95,18 L11.05,18 L11.091,17.83 C11.326,16.986 11.985,16.327 12.829,16.091 L13,16.05 L13,15 L12.5,15 L12.39,15.136 C11.778,15.845 10.82,16.153 9.91,15.933 C8.999,15.712 8.288,15.001 8.067,14.09 C7.847,13.18 8.155,12.222 8.864,11.61 L9,11.5 Z M10.5,5 C10.224,5 10,5.224 10,5.5 C10,5.776 10.224,6 10.5,6 C10.776,6 11,5.776 11,5.5 C11,5.224 10.776,5 10.5,5 Z M18.5,5 C18.224,5 18,5.224 18,5.5 C18,5.776 18.224,6 18.5,6 C18.776,6 19,5.776 19,5.5 C19,5.224 18.776,5 18.5,5 Z M5.5,10 C5.224,10 5,10.224 5,10.5 C5,10.776 5.224,11 5.5,11 C5.776,11 6,10.776 6,10.5 C6,10.224 5.776,10 5.5,10 Z M5.5,18 C5.224,18 5,18.224 5,18.5 C5,18.776 5.224,19 5.5,19 C5.776,19 6,18.776 6,18.5 C6,18.224 5.776,18 5.5,18 Z M10.5,13 C10.224,13 10,13.224 10,13.5 C10,13.776 10.224,14 10.5,14 C10.776,14 11,13.776 11,13.5 C11,13.224 10.776,13 10.5,13 Z M18.5,13 C18.224,13 18,13.224 18,13.5 C18,13.776 18.224,14 18.5,14 C18.776,14 19,13.776 19,13.5 C19,13.224 18.776,13 18.5,13 Z M13.5,18 C13.224,18 13,18.224 13,18.5 C13,18.776 13.224,19 13.5,19 C13.776,19 14,18.776 14,18.5 C14,18.224 13.776,18 13.5,18 Z"/>
</svg>

