<svg xmlns="http://www.w3.org/2000/svg" width="24" height="24">
  <defs/>
  <path  d="M7,2 C8.105,2 9,2.895 9,4 L14.268,4 C14.721,3.216 15.643,2.834 16.518,3.068 C17.392,3.303 18,4.095 18,5 C18,5.905 17.392,6.697 16.518,6.932 C15.643,7.166 14.721,6.784 14.268,6 L10.899,6 C12.245,7.315 13.002,9.118 13,11 L13,13 C13,14.722 13.87,16.24 15.194,17.14 C15.526,16.443 16.229,16 17,16 L19,16 C20.105,16 21,16.895 21,18 L21,20 C21,21.105 20.105,22 19,22 L17,22 C15.895,22 15,21.105 15,20 L9.732,20 C9.279,20.784 8.357,21.166 7.482,20.932 C6.608,20.698 6,19.905 6,19 C6,18.095 6.608,17.302 7.482,17.068 C8.357,16.834 9.279,17.216 9.732,18 L13.101,18 C11.755,16.685 10.998,14.882 11,13 L11,11 C11,9.279 10.13,7.76 8.806,6.86 C8.474,7.557 7.771,8 7,8 L5,8 C3.895,8 3,7.105 3,6 L3,4 C3,2.895 3.895,2 5,2 Z M7,4 L5,4 L5,6 L7,6 Z M19,18 L17,18 L17,20 L19,20 Z"/>
</svg>

