<svg xmlns="http://www.w3.org/2000/svg" width="24" height="24">
  <defs/>
  <path  d="M17,3 L19,3 C20.105,3 21,3.895 21,5 L21,7 C21,8.105 20.105,9 19,9 L19,15 C20.105,15 21,15.895 21,17 L21,19 C21,20.105 20.105,21 19,21 L17,21 C15.895,21 15,20.105 15,19 L9,19 C9,20.105 8.105,21 7,21 L5,21 C3.895,21 3,20.105 3,19 L3,17 C3,15.895 3.895,15 5,15 L5,9 C3.895,9 3,8.105 3,7 L3,5 C3,3.895 3.895,3 5,3 L7,3 C8.105,3 9,3.895 9,5 L15,5 C15,3.895 15.895,3 17,3 Z M17,15 L17,9 C15.895,9 15,8.105 15,7 L9,7 C9,8.105 8.105,9 7,9 L7,15 C8.105,15 9,15.895 9,17 L15,17 C15,15.895 15.895,15 17,15 Z"/>
</svg>

