<svg xmlns="http://www.w3.org/2000/svg" width="24" height="24">
  <defs/>
  <path  d="M10.5,3 C11.287,2.999 12.028,3.37 12.5,4 L16.5,4 C17.087,3.217 18.076,2.849 19.032,3.057 C19.988,3.266 20.734,4.012 20.943,4.968 C21.151,5.924 20.783,6.913 20,7.5 L20,11.5 C20.783,12.087 21.151,13.076 20.943,14.032 C20.734,14.988 19.988,15.734 19.032,15.943 C18.076,16.151 17.087,15.783 16.5,15 L15,15 L15,16.5 C15.783,17.087 16.151,18.076 15.943,19.032 C15.734,19.988 14.988,20.734 14.032,20.943 C13.076,21.151 12.087,20.783 11.5,20 L7.5,20 C6.913,20.783 5.924,21.151 4.968,20.943 C4.012,20.734 3.266,19.988 3.057,19.032 C2.849,18.076 3.217,17.087 4,16.5 L4,12.5 C3.217,11.913 2.849,10.924 3.057,9.968 C3.266,9.012 4.012,8.266 4.968,8.057 C5.924,7.849 6.913,8.217 7.5,9 L9,9 L9,7.5 C8.139,6.854 7.788,5.73 8.128,4.709 C8.469,3.689 9.424,3 10.5,3 Z M16.05,6 L12.95,6 C12.749,6.982 11.982,7.749 11,7.95 L11,11.05 C11.98,11.249 12.751,12.02 12.95,13 L16.05,13 C16.249,12.02 17.02,11.249 18,11.05 L18,7.95 C17.018,7.749 16.251,6.982 16.05,6 Z M8,13.5 C8,12.682 8.393,11.956 9,11.5 L9,11 L7.95,11 C7.749,11.982 6.982,12.749 6,12.95 L6,16.05 C6.98,16.249 7.751,17.02 7.95,18 L11.05,18 C11.249,17.02 12.02,16.249 13,16.05 L13,15 L12.5,15 C11.854,15.861 10.73,16.212 9.709,15.872 C8.689,15.531 8,14.576 8,13.5 Z"/>
</svg>

