<svg xmlns="http://www.w3.org/2000/svg" width="24" height="24">
  <defs/>
  <path  d="M13,4 A2 2 0 0 1 15,6 L19.268,6 A2 2 0 0 1 23,7 A2 2 0 0 1 19.268,8 L15.876,8 A8.004 8.004 0 0 1 19.938,14 L20,14 A2 2 0 0 1 22,16 L22,18 A2 2 0 0 1 20,20 L18,20 A2 2 0 0 1 16,18 L16,16 A2 2 0 0 1 17.917,14.002 A6.008 6.008 0 0 0 14.348,9.477 A1.993 1.993 0 0 1 13,10 L11,10 C10.48,10 10.007,9.802 9.652,9.477 A6.008 6.008 0 0 0 6.082,14.002 A2 2 0 0 1 8,16 L8,18 A2 2 0 0 1 6,20 L4,20 A2 2 0 0 1 2,18 L2,16 A2 2 0 0 1 4,14 L4.062,14 A8.004 8.004 0 0 1 8.124,8 L4.732,8 A2 2 0 1 1 4.732,6 L9,6 A2 2 0 0 1 11,4 Z M20,16 L18,16 L18,18 L20,18 Z M6,16 L4,16 L4,18 L6,18 Z M13,6 L11,6 L11,8 L13,8 Z"/>
</svg>

