<svg xmlns="http://www.w3.org/2000/svg" width="24" height="24">
  <defs/>
  <path  d="M7,3 C8.047,3 8.917,3.806 8.995,4.85 L9,5 L15,5 C15,3.953 15.806,3.083 16.85,3.005 L17,3 L19,3 C20.047,3 20.917,3.806 20.995,4.85 L21,5 L21,7 C21,8.047 20.194,8.917 19.15,8.995 L19,9 L19,15 C20.047,15 20.917,15.806 20.995,16.85 L21,17 L21,19 C21,20.047 20.194,20.917 19.15,20.995 L19,21 L17,21 C15.953,21 15.083,20.194 15.005,19.15 L15,19 L9,19 C9,20.047 8.194,20.917 7.15,20.995 L7,21 L5,21 C3.953,21 3.083,20.194 3.005,19.15 L3,19 L3,17 C3,15.953 3.806,15.083 4.85,15.005 L5,15 L5,9 C3.953,9 3.083,8.194 3.005,7.15 L3,7 L3,5 C3,3.953 3.806,3.083 4.85,3.005 L5,3 Z M15,7 L9,7 C9,8.047 8.194,8.917 7.15,8.995 L7,9 L7,15 C8.047,15 8.917,15.806 8.995,16.85 L9,17 L15,17 C15,15.953 15.806,15.083 16.85,15.005 L17,15 L17,9 C15.953,9 15.083,8.194 15.005,7.15 Z M7,5 L5,5 L5,7 L7,7 Z M19,5 L17,5 L17,7 L19,7 Z M7,17 L5,17 L5,19 L7,19 Z M19,17 L17,17 L17,19 L19,19 Z"/>
</svg>

