<svg xmlns="http://www.w3.org/2000/svg" width="24" height="24">
  <defs/>
  <path  d="M12.935,2.878 L20.116,6.674 C21.182,7.237 21.182,8.764 20.116,9.326 L18.842,10 L20.116,10.674 C21.182,11.237 21.182,12.764 20.116,13.326 L18.842,14 L20.116,14.674 C21.182,15.237 21.182,16.764 20.116,17.326 L12.935,21.122 A2 2 0 0 1 11.065,21.122 L3.884,17.326 C2.818,16.763 2.818,15.237 3.884,14.674 L5.159,14 L3.884,13.326 C2.818,12.763 2.818,11.237 3.884,10.674 L5.159,10 L3.884,9.326 C2.818,8.763 2.818,7.237 3.884,6.674 L11.065,2.878 A2 2 0 0 1 12.935,2.878 M16.702,15.131 L12.935,17.122 A2 2 0 0 1 11.065,17.122 L7.298,15.132 L5.655,16 L12,19.354 L18.346,16 Z M16.702,11.131 L12.935,13.123 A2 2 0 0 1 11.228,13.199 L11.065,13.123 L7.298,11.131 L5.655,12.001 L12,15.353 L18.346,12 Z M12,4.646 L5.655,8 L12,11.354 L18.346,8 Z"/>
</svg>

