<svg xmlns="http://www.w3.org/2000/svg" width="24" height="24">
  <defs/>
  <path  d="M20.245,14.75 C21.18,15.364 21.137,16.787 20.116,17.326 L12.935,21.122 A2 2 0 0 1 11.065,21.122 L3.884,17.326 C2.864,16.786 2.82,15.364 3.755,14.75 L3.818,14.79 L11.065,18.622 A2 2 0 0 0 12.935,18.622 L20.116,14.826 A1.59 1.59 0 0 0 20.246,14.75 Z M20.245,10.75 A1.5 1.5 0 0 1 20.245,13.251 L20.116,13.326 L12.935,17.122 A2 2 0 0 1 11.228,17.199 L11.066,17.122 L3.884,13.326 C2.864,12.786 2.82,11.364 3.755,10.75 L3.818,10.79 L11.065,14.622 A2 2 0 0 0 12.773,14.699 L12.935,14.622 L20.116,10.826 A1.59 1.59 0 0 0 20.246,10.75 Z M12.935,2.878 L20.116,6.674 C21.182,7.237 21.182,8.764 20.116,9.326 L12.935,13.123 A2 2 0 0 1 11.065,13.123 L3.884,9.326 C2.818,8.763 2.818,7.237 3.884,6.674 L11.065,2.878 A2 2 0 0 1 12.935,2.878"/>
</svg>

