<svg xmlns="http://www.w3.org/2000/svg" width="24" height="24">
  <defs/>
  <path  d="M5.963,4.919 C6.045,3.902 6.876,3 8,3 L16,3 C17.124,3 17.955,3.902 18.037,4.919 C18.21,7.038 18.981,9.064 20.261,10.762 C20.685,11.316 21,12.032 21,12.828 L21,18 C21,19.657 19.657,21 18,21 L6,21 C4.343,21 3,19.657 3,18 L3,12.828 C3,12.031 3.315,11.316 3.74,10.762 C4.45,9.832 5.73,7.792 5.963,4.919 Z M13,19 L18,19 C18.552,19 19,18.552 19,18 L19,12.828 C19,12.565 18.893,12.266 18.672,11.978 C17.159,9.975 16.248,7.583 16.044,5.081 C16.04,5.039 15.954,4.957 15.95,5.021 C15.818,6.606 15.51,8.361 14.534,9.663 C14.154,10.17 13.646,10.606 13,10.833 Z M11,10.833 L10.999,10.833 C10.353,10.606 9.845,10.17 9.465,9.663 C8.469,8.335 8.181,6.613 8.048,5 C7.992,5 7.96,5.018 7.957,5.081 C7.753,7.583 6.84,9.975 5.327,11.978 C5.107,12.266 5,12.565 5,12.828 L5,18 C5,18.552 5.448,19 6,19 L11,19 Z M12,9 C12.357,9 12.649,8.843 12.934,8.463 C13.648,7.511 13.836,6.153 13.944,5 L10.056,5 C10.164,6.153 10.352,7.51 11.066,8.463 C11.351,8.843 11.643,9 12,9 Z"/>
</svg>

