<svg xmlns="http://www.w3.org/2000/svg" width="24" height="24">
  <defs/>
  <path  d="M5.963,4.919 C6.045,3.902 6.876,3 8,3 L16,3 C17.124,3 17.955,3.902 18.037,4.919 A11.228 11.228 0 0 0 20.261,10.762 C20.685,11.316 21,12.032 21,12.828 L21,18 A3 3 0 0 1 18,21 L14,21 A1 1 0 0 1 13,20 L13,11.285 C13,10.427 13.592,9.688 14.202,9.085 C14.735,8.557 15.13,7.867 15.406,7.197 A9.299 9.299 0 0 0 15.896,5.574 A0.48 0.48 0 0 0 15.417,5 L8.583,5 A0.48 0.48 0 0 0 8.104,5.574 A9.29 9.29 0 0 0 8.594,7.197 C8.87,7.867 9.264,8.557 9.798,9.084 C10.408,9.688 11,10.427 11,11.285 L11,20 A1 1 0 0 1 10,21 L6,21 A3 3 0 0 1 3,18 L3,12.828 C3,12.031 3.315,11.316 3.74,10.762 C4.45,9.832 5.73,7.792 5.963,4.919"/>
</svg>

