<svg xmlns="http://www.w3.org/2000/svg" width="24" height="24">
  <defs/>
  <path  d="M9.365,3.108 C11.453,2.991 13.547,2.991 15.635,3.108 L16.267,3.144 L16.849,3.186 C17.781,3.266 18.531,3.405 19.233,3.783 C20.086,4.262 20.791,4.968 21.268,5.823 C21.683,6.597 21.806,7.416 21.878,8.462 L21.931,9.372 C22.006,10.79 22.006,12.21 21.931,13.628 L21.878,14.538 C21.806,15.585 21.683,16.403 21.268,17.177 C20.791,18.032 20.086,18.738 19.233,19.217 C18.39,19.671 17.479,19.78 16.267,19.856 L15.635,19.893 C14.591,19.958 13.546,19.993 12.5,20 L10.866,20.005 C10.701,20.005 10.534,20.003 10.367,20 L9.866,19.988 L7.625,21.781 C7.343,22.007 6.96,22.063 6.625,21.927 C6.29,21.792 6.054,21.486 6.008,21.127 L6,21 L6,19.334 C5.921,19.297 5.843,19.258 5.767,19.217 C4.914,18.738 4.209,18.032 3.732,17.177 C3.318,16.403 3.194,15.585 3.122,14.539 L3.086,13.944 L3.069,13.628 C2.994,12.21 2.994,10.79 3.069,9.372 L3.122,8.462 C3.194,7.416 3.318,6.597 3.732,5.824 C4.209,4.969 4.914,4.263 5.767,3.784 C6.539,3.367 7.37,3.24 8.437,3.164 L9.042,3.126 Z M8.965,6.885 C7.988,7.304 7.152,8.363 7.193,9.465 L7.202,9.627 L7.221,9.822 C7.225,9.857 7.229,9.892 7.235,9.93 L7.273,10.17 C7.452,11.144 7.999,12.725 9.638,14.363 C11.276,16.002 12.858,16.549 13.831,16.728 L14.071,16.766 L14.281,16.791 L14.535,16.808 C15.636,16.848 16.695,16.018 17.114,15.041 C17.22,14.795 17.184,14.511 17.019,14.299 C16.586,13.743 16.037,13.306 15.467,12.899 L14.894,12.499 C14.562,12.269 14.108,12.343 13.866,12.665 L13.231,13.632 C13.162,13.74 13.021,13.775 12.909,13.712 C12.479,13.467 11.853,13.049 11.403,12.598 C10.953,12.148 10.56,11.55 10.339,11.148 C10.282,11.042 10.312,10.911 10.409,10.84 L11.385,10.116 C11.674,9.866 11.729,9.438 11.513,9.123 L11.183,8.638 C10.782,8.052 10.309,7.418 9.688,6.964 C9.478,6.812 9.203,6.782 8.965,6.885 Z M13.317,6.667 C13.133,7.188 13.406,7.759 13.927,7.943 C14.923,8.297 15.707,9.081 16.061,10.077 C16.245,10.598 16.816,10.871 17.337,10.687 C17.858,10.503 18.131,9.932 17.947,9.411 C17.392,7.845 16.159,6.612 14.593,6.057 C14.072,5.873 13.501,6.146 13.317,6.667 Z M13.593,8.887 C13.072,8.703 12.501,8.976 12.317,9.497 C12.133,10.018 12.406,10.589 12.927,10.773 C13.04,10.813 13.135,10.893 13.195,10.997 L13.232,11.078 C13.416,11.599 13.987,11.872 14.508,11.688 C15.029,11.504 15.302,10.933 15.118,10.412 C14.866,9.7 14.305,9.139 13.593,8.887 Z"/>
</svg>

