<svg xmlns="http://www.w3.org/2000/svg" width="24" height="24">
  <defs/>
  <path  d="M9.365,3.108 A56.096 56.096 0 0 1 15.635,3.108 L16.267,3.144 C17.479,3.22 18.39,3.329 19.233,3.784 A5.311 5.311 0 0 1 21.268,5.824 C21.796,6.808 21.851,7.865 21.931,9.372 A40.073 40.073 0 0 1 21.931,13.628 L21.878,14.538 C21.806,15.585 21.683,16.403 21.268,17.177 A5.31 5.31 0 0 1 19.233,19.217 C18.25,19.747 17.173,19.807 15.635,19.893 A56.56 56.56 0 0 1 12.5,20 L10.954,20.005 C10.595,20.005 10.23,20 9.866,19.988 L7.625,21.781 A1 1 0 0 1 6,21.001 L6,19.334 A4.24 4.24 0 0 1 5.767,19.217 A5.31 5.31 0 0 1 3.732,17.177 C3.205,16.192 3.149,15.135 3.069,13.628 A40.052 40.052 0 0 1 3.069,9.372 L3.122,8.462 C3.194,7.416 3.318,6.597 3.732,5.824 A5.31 5.31 0 0 1 5.767,3.784 C6.75,3.254 7.827,3.194 9.365,3.108 M15.329,5.094 A50.348 50.348 0 0 0 9.671,5.094 L8.721,5.151 C7.623,5.227 7.151,5.309 6.716,5.544 A3.325 3.325 0 0 0 5.496,6.768 C5.203,7.314 5.151,7.898 5.056,9.665 A34.357 34.357 0 0 0 5.056,13.335 L5.099,14.088 C5.173,15.286 5.249,15.772 5.495,16.232 C5.745,16.699 6.25,17.205 6.715,17.456 C7.272,17.756 8,17.809 8,18.63 L8,18.92 L8.908,18.193 A1 1 0 0 1 9.58,17.975 C10.066,17.999 10.55,18.005 11.037,18.005 L12.5,18 C13.348,18 14.337,17.962 15.33,17.907 L16.066,17.863 C17.318,17.783 17.821,17.706 18.284,17.456 A3.325 3.325 0 0 0 19.505,16.232 C19.798,15.686 19.85,15.102 19.944,13.335 A34.351 34.351 0 0 0 19.944,9.665 L19.901,8.912 C19.827,7.715 19.751,7.228 19.505,6.768 A3.325 3.325 0 0 0 18.285,5.544 C17.74,5.25 17.139,5.195 15.329,5.094 M8.965,6.884 A0.735 0.735 0 0 1 9.687,6.964 C10.487,7.547 11.039,8.429 11.513,9.123 A0.752 0.752 0 0 1 11.385,10.116 L10.41,10.84 A0.24 0.24 0 0 0 10.339,11.148 C10.559,11.55 10.953,12.148 11.403,12.598 C11.853,13.048 12.479,13.467 12.909,13.712 A0.242 0.242 0 0 0 13.231,13.632 L13.865,12.665 A0.751 0.751 0 0 1 14.894,12.499 C15.658,13.027 16.441,13.558 17.019,14.299 A0.734 0.734 0 0 1 17.114,15.041 C16.698,16.011 15.631,16.848 14.535,16.808 L14.374,16.798 C13.542,16.736 11.632,16.358 9.637,14.363 C7.501,12.226 7.219,10.186 7.193,9.466 C7.152,8.363 7.988,7.304 8.965,6.885 Z M13.593,8.887 A2.504 2.504 0 0 1 15.118,10.412 A1 1 0 0 1 13.278,11.186 L13.232,11.078 A0.505 0.505 0 0 0 13.008,10.81 L12.927,10.773 A1 1 0 0 1 13.593,8.887 M13.317,6.667 A1 1 0 0 1 14.593,6.057 A5.513 5.513 0 0 1 17.947,9.411 A1 1 0 0 1 16.061,10.077 A3.513 3.513 0 0 0 13.927,7.943 A1 1 0 0 1 13.317,6.667"/>
</svg>

