<svg xmlns="http://www.w3.org/2000/svg" width="24" height="24">
  <defs/>
  <path  d="M4,3 L20,3 C21.105,3 22,3.895 22,5 L22,19 C22,20.105 21.105,21 20,21 L4,21 C2.895,21 2,20.105 2,19 L2,5 C2,3.895 2.895,3 4,3 Z M8.625,8.63 C8.561,9.175 8.449,10.343 8.449,11.894 C8.445,12.984 8.504,14.074 8.625,15.158 C8.67,15.546 8.895,15.89 9.233,16.085 C9.571,16.281 9.982,16.305 10.34,16.15 C11.34,15.713 12.313,15.218 13.256,14.668 C14.203,14.127 15.118,13.531 15.996,12.884 C16.309,12.651 16.493,12.284 16.493,11.894 C16.493,11.504 16.309,11.137 15.996,10.904 C15.118,10.256 14.203,9.66 13.256,9.118 C11.908,8.34 10.844,7.854 10.34,7.638 C9.982,7.484 9.571,7.508 9.233,7.703 C8.896,7.899 8.67,8.242 8.625,8.63 Z"/>
</svg>

