<svg xmlns="http://www.w3.org/2000/svg" width="24" height="24">
  <defs/>
  <path  d="M20,3 C21.047,3 21.917,3.806 21.995,4.85 L22,5 L22,19 C22,20.047 21.194,20.917 20.15,20.995 L20,21 L4,21 C2.953,21 2.083,20.194 2.005,19.15 L2,19 L2,5 C2,3.953 2.806,3.083 3.85,3.005 L4,3 Z M20,5 L4,5 L4,19 L20,19 Z M10.34,7.638 L10.858,7.868 L11.196,8.028 L11.583,8.218 L12.013,8.436 L12.483,8.686 L12.99,8.966 L13.256,9.118 L13.774,9.423 L14.248,9.715 L14.678,9.988 L15.058,10.241 L15.538,10.571 L15.902,10.834 L15.997,10.904 C16.31,11.137 16.494,11.504 16.494,11.894 C16.494,12.284 16.31,12.651 15.997,12.884 L15.674,13.119 L15.234,13.427 L14.878,13.666 L14.473,13.929 L14.02,14.212 L13.521,14.512 L12.987,14.821 L12.478,15.103 L12.007,15.353 L11.577,15.573 L11.191,15.761 L10.569,16.049 L10.339,16.149 C9.981,16.303 9.571,16.279 9.233,16.084 C8.896,15.889 8.67,15.546 8.625,15.159 L8.567,14.594 L8.535,14.22 L8.493,13.556 L8.47,13.048 L8.455,12.493 C8.453,12.395 8.452,12.297 8.451,12.199 L8.449,11.894 C8.449,11.687 8.451,11.487 8.455,11.294 L8.47,10.739 L8.493,10.232 L8.52,9.775 L8.55,9.374 L8.625,8.63 C8.67,8.242 8.896,7.899 9.233,7.703 C9.571,7.508 9.982,7.484 10.34,7.638 Z M10.951,10.139 L10.515,9.921 L10.486,10.408 L10.464,10.959 L10.451,11.569 L10.449,11.894 L10.451,12.219 L10.464,12.828 L10.474,13.111 L10.5,13.631 L10.515,13.866 L10.949,13.648 L11.436,13.392 L11.971,13.098 L12.255,12.936 L12.806,12.61 L13.3,12.304 L13.736,12.024 L13.932,11.894 L13.525,11.624 L13.059,11.33 C12.794,11.166 12.526,11.006 12.256,10.85 L11.973,10.689 L11.439,10.395 Z"/>
</svg>

