<svg xmlns="http://www.w3.org/2000/svg" width="24" height="24">
  <defs/>
  <path  d="M12,3 C13.436,3 14.762,3.769 15.474,5.016 C16.187,6.263 16.176,7.796 15.446,9.033 C16.847,9.244 17.91,10.406 17.995,11.821 L18,12 L18,12.21 L19.713,11.154 C20.156,10.881 20.709,10.857 21.175,11.091 C21.64,11.325 21.95,11.783 21.995,12.302 L22,12.431 L22,17.569 C22,18.09 21.73,18.573 21.287,18.847 C20.843,19.12 20.29,19.143 19.825,18.909 L19.713,18.846 L18,17.79 L18,18 C18,19.589 16.762,20.902 15.176,20.995 L15,21 L5,21 C3.411,21 2.098,19.762 2.005,18.176 L2,18 L2,12 C2,10.91 2.591,9.905 3.545,9.376 C2.628,7.932 2.888,6.037 4.161,4.895 C5.434,3.752 7.346,3.697 8.683,4.764 C9.426,3.661 10.67,2.999 12,3 Z M15,11 L5,11 C4.448,11 4,11.448 4,12 L4,18 C4,18.552 4.448,19 5,19 L15,19 C15.552,19 16,18.552 16,18 L16,12 C16,11.448 15.552,11 15,11 Z M12,5 C10.895,5 10,5.895 10,7 C10,8.105 10.895,9 12,9 C13.105,9 14,8.105 14,7 C14,5.895 13.105,5 12,5 Z M6.5,6 C5.672,6 5,6.672 5,7.5 C5,8.328 5.672,9 6.5,9 C7.328,9 8,8.328 8,7.5 C8,6.672 7.328,6 6.5,6 Z M20,13.326 L18,14.558 L18,15.441 L20,16.673 Z"/>
</svg>

