<svg xmlns="http://www.w3.org/2000/svg" width="24" height="24">
  <defs/>
  <path  d="M16,7 C16.001,7.715 15.81,8.417 15.446,9.033 C16.914,9.254 18,10.515 18,12 L18,12.21 L19.713,11.154 C20.176,10.869 20.756,10.856 21.231,11.121 C21.705,11.386 22,11.887 22,12.43 L22,17.568 C22,18.112 21.706,18.613 21.231,18.878 C20.757,19.143 20.176,19.13 19.713,18.845 L18,17.79 L18,18 C18,19.657 16.657,21 15,21 L5,21 C3.343,21 2,19.657 2,18 L2,12 C2,10.91 2.591,9.905 3.545,9.376 C2.628,7.932 2.888,6.037 4.161,4.895 C5.434,3.752 7.346,3.697 8.683,4.764 C9.666,3.305 11.487,2.66 13.169,3.174 C14.851,3.688 16,5.241 16,7 Z M12,5 C10.895,5 10,5.895 10,7 C10,8.105 10.895,9 12,9 C13.105,9 14,8.105 14,7 C14,5.895 13.105,5 12,5 Z M6.5,9 C7.328,9 8,8.328 8,7.5 C8,6.672 7.328,6 6.5,6 C5.672,6 5,6.672 5,7.5 C5,8.328 5.672,9 6.5,9 Z"/>
</svg>

