<svg xmlns="http://www.w3.org/2000/svg" width="24" height="24">
  <defs/>
  <path  d="M11.762,7.445 C11.576,7.167 11.264,7 10.93,7 L6,7 C5.448,7 5,6.552 5,6 C5,5.448 5.448,5 6,5 L10.93,5 C11.933,5 12.87,5.501 13.426,6.336 L14.536,8 L15,8 C16.657,8 18,9.343 18,11 L18,11.21 L19.713,10.154 C20.176,9.869 20.756,9.856 21.231,10.121 C21.705,10.386 22,10.887 22,11.43 L22,16.568 C22,17.112 21.706,17.613 21.231,17.878 C20.757,18.143 20.176,18.13 19.713,17.845 L18,16.79 L18,17 C18,18.657 16.657,20 15,20 L5,20 C3.343,20 2,18.657 2,17 L2,11 C2,9.343 3.343,8 5,8 L12.132,8 Z"/>
</svg>

