<svg xmlns="http://www.w3.org/2000/svg" width="24" height="24">
  <defs/>
  <path  d="M11.2,1.401 C11.375,1.167 11.644,1.022 11.935,1.003 C12.226,0.983 12.512,1.092 12.716,1.301 L12.801,1.401 L15.5,5 L20.145,5 C20.655,5 21.13,5.258 21.406,5.687 C21.683,6.115 21.722,6.655 21.512,7.119 L21.452,7.235 L13.089,22.103 C12.879,22.475 12.494,22.714 12.068,22.738 C11.642,22.761 11.233,22.565 10.984,22.218 L10.911,22.103 L2.548,7.235 C2.298,6.791 2.291,6.25 2.529,5.799 C2.767,5.348 3.217,5.049 3.725,5.005 L3.855,5 L8.5,5 Z M8.433,7 L4.71,7 L12,19.96 L19.29,7 L15.566,7 L12.943,11.371 C12.744,11.702 12.386,11.905 12,11.905 C11.614,11.905 11.256,11.702 11.057,11.371 Z M12,3.667 L10.204,6.062 L12,9.056 L13.797,6.062 Z"/>
</svg>

