<svg xmlns="http://www.w3.org/2000/svg" width="24" height="24">
  <defs/>
  <path  d="M17.42,3 A2 2 0 0 1 19.069,3.868 L19.156,4.008 L22.49,9.84 A2 2 0 0 1 22.282,12.123 L22.168,12.246 L12.885,21.529 A1.25 1.25 0 0 1 11.219,21.62 L11.117,21.53 L1.834,12.246 A2 2 0 0 1 1.434,9.989 L1.512,9.839 L4.845,4.007 A2 2 0 0 1 6.417,3.006 L6.58,3 Z M17.42,5 L6.58,5 L3.247,10.833 L12,19.586 L20.753,10.833 Z M7.293,9.293 A1 1 0 0 1 8.613,9.21 L8.707,9.293 L12,12.586 L15.293,9.293 A1 1 0 0 1 16.79,10.613 L16.707,10.707 L12.884,14.53 A1.25 1.25 0 0 1 11.218,14.621 L11.116,14.531 L7.293,10.707 A1 1 0 0 1 7.293,9.293"/>
</svg>

