<svg xmlns="http://www.w3.org/2000/svg" width="24" height="24">
  <defs/>
  <path  d="M17.42,3 C18.079,3 18.696,3.325 19.069,3.868 L19.156,4.008 L22.49,9.84 C22.907,10.569 22.824,11.481 22.282,12.123 L22.168,12.246 L12.885,21.529 C12.434,21.98 11.716,22.019 11.219,21.62 L11.117,21.53 L1.834,12.246 C1.24,11.652 1.08,10.751 1.434,9.989 L1.512,9.839 L4.845,4.007 C5.172,3.435 5.76,3.06 6.417,3.006 L6.58,3 Z M7.293,9.293 C6.903,9.684 6.903,10.316 7.293,10.707 L11.116,14.53 C11.604,15.018 12.396,15.018 12.884,14.53 L16.707,10.707 C16.967,10.456 17.071,10.084 16.98,9.734 C16.888,9.385 16.615,9.112 16.266,9.02 C15.916,8.929 15.544,9.033 15.293,9.293 L12,12.586 L8.707,9.293 C8.316,8.903 7.683,8.903 7.293,9.293 Z"/>
</svg>

