<svg xmlns="http://www.w3.org/2000/svg" width="24" height="24">
  <defs/>
  <path  d="M11.2,1.401 C11.389,1.15 11.685,1.002 12,1.002 C12.315,1.002 12.611,1.15 12.8,1.401 L15.5,5 L20.145,5 C20.678,5 21.171,5.282 21.44,5.742 C21.709,6.202 21.714,6.77 21.453,7.235 L13.09,22.103 C12.869,22.497 12.452,22.741 12,22.741 C11.548,22.741 11.131,22.497 10.91,22.103 L2.549,7.235 C2.288,6.771 2.293,6.203 2.561,5.743 C2.83,5.283 3.322,5.001 3.855,5 L8.5,5 Z M11.997,3.667 L9.33,7.222 L11.997,11.667 L14.663,7.222 Z"/>
</svg>

