<svg xmlns="http://www.w3.org/2000/svg" width="24" height="24">
  <defs/>
  <path  d="M2.338,4.863 C2.12,4.476 2.124,4.002 2.348,3.619 C2.573,3.235 2.984,3 3.428,3 L9.708,3 C10.248,3 10.748,3.29 11.014,3.761 L13,7.27 L14.986,3.761 C15.252,3.291 15.751,3 16.291,3 L20.572,3 C21.016,3 21.427,3.235 21.652,3.619 C21.876,4.002 21.88,4.476 21.662,4.863 L13.089,20.103 C12.868,20.497 12.451,20.74 12,20.74 C11.548,20.74 11.131,20.497 10.91,20.103 Z M4.71,5 L12,17.96 L19.29,5 L16.583,5 L13,11.33 L9.417,5 Z"/>
</svg>

