<svg xmlns="http://www.w3.org/2000/svg" width="24" height="24">
  <defs/>
  <path  d="M12.987,5.74 C13.663,7.071 14.586,8.894 15.963,9.614 C17.125,10.221 18.748,10.013 20.007,9.85 C20.084,9.08 20.734,8.495 21.507,8.499 C22.281,8.503 22.924,9.095 22.994,9.865 C23.063,10.636 22.534,11.332 21.774,11.474 L18.827,19.084 C18.38,20.239 17.268,21 16.03,21 L7.97,21 C6.732,21 5.62,20.239 5.173,19.084 L2.225,11.474 C1.459,11.331 0.931,10.625 1.008,9.85 C1.086,9.075 1.744,8.488 2.523,8.5 C3.302,8.511 3.942,9.117 3.997,9.894 C5.227,10.12 6.883,10.423 8.037,9.82 C9.442,9.085 10.352,7.127 11.007,5.76 L11.017,5.742 C10.226,5.295 9.835,4.372 10.066,3.493 C10.296,2.614 11.09,2.001 11.998,2 C12.907,1.999 13.702,2.611 13.934,3.489 C14.166,4.367 13.777,5.292 12.987,5.74 Z M12.025,8.107 C11.263,9.42 10.341,10.872 8.963,11.592 C7.644,12.282 6.016,12.192 4.577,12.008 L7.038,18.361 C7.187,18.746 7.557,19 7.97,19 L16.03,19 C16.443,19 16.813,18.746 16.962,18.361 L19.457,11.92 C17.997,12.045 16.364,12.08 15.037,11.387 C13.714,10.694 12.793,9.353 12.025,8.107 Z"/>
</svg>

