<svg xmlns="http://www.w3.org/2000/svg" width="24" height="24">
  <defs/>
  <path  d="M18,2 C20.209,2 22,3.791 22,6 L22,18 C22,20.209 20.209,22 18,22 L6,22 C3.791,22 2,20.209 2,18 L2,6 C2,3.791 3.791,2 6,2 Z M7.333,5.667 L6.667,5.667 C6.138,5.668 5.701,6.08 5.67,6.608 C5.639,7.137 6.025,7.598 6.55,7.66 L6.667,7.667 L7.333,7.667 C7.494,7.667 7.629,7.781 7.66,7.933 L7.667,8 L7.667,14 C7.668,14.529 8.08,14.966 8.608,14.997 C9.137,15.028 9.598,14.642 9.66,14.117 L9.667,14 L9.667,8 C9.665,7.829 9.794,7.684 9.964,7.666 C10.135,7.647 10.291,7.761 10.326,7.929 L10.333,7.995 L10.333,14 C10.329,14.533 10.743,14.975 11.274,15.006 C11.806,15.037 12.269,14.646 12.327,14.117 L12.333,14 L12.333,7.995 C12.333,7.824 12.464,7.68 12.635,7.664 C12.806,7.648 12.961,7.765 12.993,7.933 L13,8 L13,14 C13,14.518 13.09,15.015 13.257,15.475 C12.96,15.561 12.677,15.633 12.424,15.697 C12.072,15.779 11.791,16.044 11.69,16.391 C11.589,16.737 11.682,17.112 11.935,17.37 C12.188,17.629 12.56,17.731 12.909,17.637 L13.351,17.524 C13.671,17.44 14.036,17.336 14.42,17.208 C15.19,17.908 16.212,18.333 17.333,18.333 C17.885,18.333 18.333,17.885 18.333,17.333 C18.333,16.781 17.885,16.333 17.333,16.333 C17.069,16.333 16.814,16.289 16.577,16.208 C17.233,15.779 17.847,15.21 18.227,14.448 C18.657,13.59 18.776,12.598 18.387,11.749 C17.97,10.842 17.078,10.333 16,10.333 C15.704,10.333 15.431,10.381 15.182,10.463 L15,10.532 L15,8 C15,7.131 14.517,6.333 13.747,5.931 C12.976,5.529 12.046,5.588 11.333,6.085 C10.942,5.812 10.477,5.666 10,5.667 C9.504,5.667 9.045,5.821 8.667,6.085 C8.327,5.848 7.93,5.706 7.517,5.674 Z M16,12.333 C16.225,12.333 16.356,12.383 16.425,12.423 C16.492,12.463 16.537,12.513 16.569,12.584 C16.639,12.736 16.677,13.077 16.439,13.553 C16.213,14.005 15.757,14.404 15.122,14.748 C15.062,14.571 15.024,14.387 15.008,14.2 L15,14.008 C15,13.62 15.122,13.141 15.346,12.786 C15.562,12.444 15.784,12.333 16,12.333 Z"/>
</svg>

