<svg xmlns="http://www.w3.org/2000/svg" width="24" height="24">
  <defs/>
  <path  d="M3,4 C3,3.448 3.448,3 4,3 L5,3 C5.768,3 6.47,3.289 7,3.764 C7.549,3.271 8.262,2.999 9,3 C9.768,3 10.47,3.289 11,3.764 C11.882,2.975 13.145,2.778 14.225,3.261 C15.305,3.744 16,4.817 16,6 L16,10.652 C16.579,10.225 17.281,9.997 18,10 C19.453,10 20.594,10.676 21.126,11.833 C21.63,12.931 21.49,14.257 20.894,15.447 C20.23,16.776 19.036,17.699 17.816,18.351 C18.444,18.761 19.194,19 20,19 C20.552,19 21,19.448 21,20 C21,20.552 20.552,21 20,21 C18.407,21.002 16.879,20.369 15.755,19.24 C14.806,19.573 13.909,19.803 13.242,19.97 C12.893,20.064 12.521,19.962 12.268,19.703 C12.015,19.445 11.922,19.07 12.023,18.724 C12.124,18.377 12.405,18.112 12.757,18.03 C13.363,17.882 13.964,17.716 14.559,17.531 C14.19,16.738 13.999,15.874 14,15 L14,6 C14,5.448 13.552,5 13,5 C12.448,5 12,5.448 12,6 L12,15 C12,15.552 11.552,16 11,16 C10.448,16 10,15.552 10,15 L10,6 C10,5.448 9.552,5 9,5 C8.448,5 8,5.448 8,6 L8,15 C8,15.552 7.552,16 7,16 C6.448,16 6,15.552 6,15 L6,6 C6,5.448 5.552,5 5,5 L4,5 C3.448,5 3,4.552 3,4 Z M16,15 C16,15.651 16.156,16.266 16.432,16.81 C17.666,16.225 18.64,15.484 19.106,14.553 C19.51,13.743 19.493,13.069 19.308,12.667 C19.151,12.324 18.792,12 18,12 C17.45,12 16.978,12.306 16.596,12.912 C16.215,13.543 16.009,14.263 16,15 Z"/>
</svg>

