<svg xmlns="http://www.w3.org/2000/svg" width="24" height="24">
  <defs/>
  <path  d="M10,3 C10,2.448 10.448,2 11,2 L13,2 C13.552,2 14,2.448 14,3 C14,3.552 13.552,4 13,4 L13,6.083 C13.892,6.233 14.739,6.584 15.476,7.109 L16.95,5.636 C16.571,5.244 16.576,4.62 16.962,4.234 C17.348,3.848 17.972,3.843 18.364,4.222 L19.778,5.636 C20.157,6.028 20.152,6.652 19.766,7.038 C19.38,7.424 18.756,7.429 18.364,7.05 L16.891,8.523 C17.416,9.26 17.767,10.107 17.917,11 L20,11 C20,10.448 20.448,10 21,10 C21.552,10 22,10.448 22,11 L22,13 C22,13.552 21.552,14 21,14 C20.448,14 20,13.552 20,13 L17.917,13 C17.767,13.892 17.416,14.739 16.891,15.476 L18.364,16.95 C18.756,16.571 19.38,16.576 19.766,16.962 C20.152,17.348 20.157,17.972 19.778,18.364 L18.364,19.778 C17.972,20.157 17.348,20.152 16.962,19.766 C16.576,19.38 16.571,18.756 16.95,18.364 L15.477,16.891 C14.74,17.416 13.893,17.767 13,17.917 L13,20 C13.552,20 14,20.448 14,21 C14,21.552 13.552,22 13,22 L11,22 C10.448,22 10,21.552 10,21 C10,20.448 10.448,20 11,20 L11,17.917 C10.107,17.767 9.26,17.416 8.523,16.891 L7.05,18.364 C7.31,18.615 7.414,18.987 7.323,19.337 C7.231,19.686 6.958,19.959 6.609,20.051 C6.259,20.142 5.887,20.038 5.636,19.778 L4.222,18.364 C3.843,17.972 3.848,17.348 4.234,16.962 C4.62,16.576 5.244,16.571 5.636,16.95 L7.109,15.477 C6.584,14.74 6.233,13.893 6.083,13 L4,13 C4,13.552 3.552,14 3,14 C2.448,14 2,13.552 2,13 L2,11 C2,10.448 2.448,10 3,10 C3.552,10 4,10.448 4,11 L6.083,11 C6.233,10.107 6.584,9.26 7.109,8.523 L5.636,7.05 C5.385,7.31 5.013,7.414 4.663,7.323 C4.314,7.231 4.041,6.958 3.949,6.609 C3.858,6.259 3.962,5.887 4.222,5.636 L5.636,4.222 C5.887,3.962 6.259,3.858 6.609,3.949 C6.958,4.041 7.231,4.314 7.323,4.663 C7.414,5.013 7.31,5.385 7.05,5.636 L8.523,7.109 C9.26,6.584 10.107,6.233 11,6.083 L11,4 C10.448,4 10,3.552 10,3 Z M8,12 C8,14.209 9.791,16 12,16 C14.209,16 16,14.209 16,12 C16,9.791 14.209,8 12,8 C9.791,8 8,9.791 8,12 Z"/>
</svg>

