<svg xmlns="http://www.w3.org/2000/svg" width="24" height="24">
  <defs/>
  <path  d="M10,3 A1 1 0 0 1 11,2 L13,2 A1 1 0 1 1 13,4 L13,6.083 A5.967 5.967 0 0 1 15.476,7.109 L16.95,5.636 A1 1 0 0 1 18.364,4.222 L19.071,4.929 L19.778,5.636 A1 1 0 0 1 18.364,7.05 L16.891,8.523 A5.966 5.966 0 0 1 17.917,11 L20,11 A1 1 0 1 1 22,11 L22,13 A1 1 0 1 1 20,13 L17.917,13 A5.966 5.966 0 0 1 16.891,15.476 L18.364,16.95 A1 1 0 0 1 19.778,18.364 L18.364,19.778 A1 1 0 0 1 16.95,18.364 L15.477,16.891 A5.966 5.966 0 0 1 13,17.917 L13,20 A1 1 0 1 1 13,22 L11,22 A1 1 0 1 1 11,20 L11,17.917 A5.966 5.966 0 0 1 8.523,16.891 L7.05,18.364 A1 1 0 1 1 5.636,19.778 L4.222,18.364 A1 1 0 0 1 5.636,16.95 L7.109,15.477 A5.967 5.967 0 0 1 6.083,13 L4,13 A1 1 0 1 1 2,13 L2,11 A1 1 0 1 1 4,11 L6.083,11 A5.968 5.968 0 0 1 7.109,8.523 L5.636,7.05 A1 1 0 1 1 4.222,5.636 L5.636,4.222 A1 1 0 1 1 7.05,5.636 L8.523,7.109 A5.968 5.968 0 0 1 11,6.083 L11,4 A1 1 0 0 1 10,3"/>
</svg>

