<svg xmlns="http://www.w3.org/2000/svg" width="24" height="24">
  <defs/>
  <path  d="M10.124,7.008 A1 1 0 0 1 10.992,8.124 L9.992,16.124 A1 1 0 0 1 8.008,15.876 L9.008,7.876 A1 1 0 0 1 10.124,7.008 M4,7 A1 1 0 0 1 5,8 L5,10.485 L6.064,7.65 A1 1 0 1 1 7.936,8.352 L4.936,16.352 A1 1 0 0 1 3,16 L3,9 A1 1 0 0 1 3,7 Z M14.5,7 C15.096,7 15.663,7.222 16.034,7.696 A1.79 1.79 0 0 1 16.343,9.246 A1 1 0 0 1 14.379,9.111 L14.373,9 L14.324,9 A0.5 0.5 0 0 0 13.845,9.357 L13.828,9.438 L13.715,10.345 A0.701 0.701 0 0 0 14.139,11.078 A2.701 2.701 0 0 1 15.788,13.725 L15.771,13.905 L15.657,14.812 A2.5 2.5 0 0 1 13.34,16.995 L13.177,17 L13,17 C12.528,17 11.875,16.915 11.447,16.37 C11.114,15.945 11.087,15.442 11.114,15.076 L11.134,14.874 A1 1 0 0 1 13.12,14.887 L13.127,15 L13.177,15 A0.5 0.5 0 0 0 13.656,14.643 L13.673,14.563 L13.787,13.655 A0.701 0.701 0 0 0 13.363,12.922 A2.701 2.701 0 0 1 11.713,10.277 L11.73,10.097 L11.844,9.19 A2.5 2.5 0 0 1 14.161,7.005 L14.324,7 Z M20.117,7.007 A1 1 0 0 1 20.992,7.876 L21.992,15.876 A1 1 0 0 1 20.008,16.124 L19.868,15 L18.443,15 L17.936,16.351 A1 1 0 1 1 16.064,15.649 L19.064,7.649 A1 1 0 0 1 20.117,7.007 M19.511,12.152 L19.193,13 L19.617,13 Z"/>
</svg>

