<svg xmlns="http://www.w3.org/2000/svg" width="24" height="24">
  <defs/>
  <path  d="M7.527,6.595 C8.085,6.804 8.466,7.325 8.498,7.92 L8.512,7.814 C8.632,7.008 9.373,6.446 10.182,6.547 C10.99,6.648 11.57,7.376 11.488,8.186 L11.417,8.76 C11.755,7.431 12.952,6.5 14.324,6.5 L14.5,6.5 C15.22,6.5 15.945,6.77 16.428,7.388 C16.898,7.99 16.988,8.732 16.828,9.368 C16.692,9.904 16.272,10.322 15.736,10.456 C15.199,10.589 14.632,10.416 14.261,10.006 L14.211,10.406 C14.199,10.496 14.249,10.582 14.332,10.617 C15.536,11.123 16.312,12.31 16.292,13.616 L18.595,7.473 C18.837,6.827 19.489,6.429 20.175,6.51 C20.86,6.59 21.402,7.128 21.488,7.813 L22.488,15.813 C22.567,16.351 22.349,16.89 21.918,17.221 C21.487,17.553 20.911,17.625 20.411,17.41 C19.912,17.195 19.568,16.727 19.512,16.186 L19.426,15.5 L18.79,15.5 L18.404,16.527 C18.172,17.144 17.564,17.537 16.906,17.496 C16.248,17.455 15.694,16.988 15.541,16.347 C14.973,17.075 14.101,17.5 13.177,17.5 L13,17.5 C12.49,17.5 11.63,17.413 11.054,16.68 C10.677,16.198 10.601,15.655 10.606,15.244 L10.488,16.186 C10.433,16.728 10.089,17.197 9.59,17.413 C9.09,17.628 8.512,17.556 8.081,17.224 C7.649,16.892 7.432,16.352 7.512,15.814 L8.432,8.444 C8.423,8.472 8.414,8.5 8.404,8.527 L5.404,16.527 C5.149,17.205 4.445,17.604 3.732,17.475 C3.019,17.345 2.5,16.725 2.5,16 L2.5,9.415 C1.81,9.172 1.396,8.467 1.519,7.746 C1.643,7.026 2.269,6.499 3,6.5 L4,6.5 C4.741,6.5 5.371,7.041 5.483,7.773 L5.596,7.473 C5.887,6.698 6.751,6.305 7.526,6.595 Z M10.691,14.564 C10.848,14.046 11.271,13.652 11.8,13.534 C12.328,13.416 12.879,13.592 13.241,13.994 L13.291,13.593 C13.302,13.504 13.252,13.418 13.169,13.383 C11.977,12.882 11.204,11.713 11.209,10.42 Z"/>
</svg>

