<svg xmlns="http://www.w3.org/2000/svg" width="24" height="24">
  <defs/>
  <path  d="M5.303,6.641 C7.083,6.283 9.333,6 12,6 C14.667,6 16.917,6.283 18.697,6.641 C22.087,7.323 23.599,10.727 22.826,13.819 L22.706,14.299 C22.164,16.469 20.47,18.163 18.3,18.706 C17.409,18.929 16.47,18.865 15.617,18.524 L12.743,17.374 C12.266,17.183 11.734,17.183 11.257,17.374 L8.383,18.524 C7.53,18.865 6.591,18.929 5.7,18.706 C3.53,18.164 1.836,16.47 1.294,14.3 L1.174,13.82 C0.401,10.727 1.914,7.323 5.303,6.641 Z"/>
</svg>

