<svg xmlns="http://www.w3.org/2000/svg" width="24" height="24">
  <defs/>
  <path  d="M17,3 A4 4 0 0 1 20.995,6.8 L21,7 L21,17 A4 4 0 0 1 17.2,20.995 L17,21 L7,21 A4 4 0 0 1 3.005,17.2 L3,17 L3,7 A4 4 0 0 1 6.8,3.005 L7,3 Z M17,5 L7,5 A2 2 0 0 0 5.005,6.85 L5,7 L5,17 A2 2 0 0 0 6.85,18.995 L7,19 L17,19 A2 2 0 0 0 18.995,17.15 L19,17 L19,7 A2 2 0 0 0 17.15,5.005 Z M15.453,9.225 L15.668,8.945 A1 1 0 0 1 17.332,10.055 A9.803 9.803 0 0 1 15.866,11.735 A9.429 9.429 0 0 1 15.426,12.117 C16.524,12.701 17.416,13.597 17.894,14.553 A1 1 0 1 1 16.106,15.447 C15.649,14.535 14.466,13.643 13.21,13.46 L13,13.437 L13,15 A1 1 0 0 1 12,16 C8.51,16 6,13.132 6,9.5 A1 1 0 1 1 8,9.5 C8,11.374 8.978,13.199 10.795,13.81 L11,13.873 L11,9.5 C11,8.931 11.458,8.531 12,8.5 A1 1 0 0 1 12.974,9.27 L12.994,9.383 L13.001,11.283 C13.497,11.077 14.006,10.73 14.509,10.265 C14.857,9.945 15.163,9.593 15.453,9.225"/>
</svg>

