<svg xmlns="http://www.w3.org/2000/svg" width="24" height="24">
  <defs/>
  <path  d="M7,3 L17,3 C19.209,3 21,4.791 21,7 L21,17 C21,19.209 19.209,21 17,21 L7,21 C4.791,21 3,19.209 3,17 L3,7 C3,4.791 4.791,3 7,3 Z M17.332,10.055 C17.639,9.595 17.515,8.975 17.055,8.668 C16.595,8.361 15.975,8.485 15.668,8.945 C15.314,9.415 14.943,9.865 14.509,10.265 C14.006,10.729 13.497,11.077 13.001,11.283 L12.993,9.383 C12.934,8.88 12.507,8.5 12,8.5 C11.458,8.531 11,8.931 11,9.5 L11,13.873 C9.052,13.333 8,11.443 8,9.5 C8,8.948 7.552,8.5 7,8.5 C6.448,8.5 6,8.948 6,9.5 C6,13.132 8.51,16 12,16 C12.552,16 13,15.552 13,15 L13,13.437 C14.332,13.543 15.624,14.484 16.106,15.447 C16.259,15.778 16.58,16 16.944,16.025 C17.307,16.051 17.656,15.876 17.854,15.57 C18.052,15.264 18.067,14.874 17.894,14.553 C17.416,13.596 16.524,12.701 15.426,12.117 C15.574,11.996 15.721,11.868 15.866,11.735 C16.417,11.233 16.909,10.669 17.332,10.055 Z"/>
</svg>

