<svg xmlns="http://www.w3.org/2000/svg" width="24" height="24">
  <defs/>
  <path  d="M20,4 C20.552,4 21,4.448 21,5 L21,19 C21,19.552 20.552,20 20,20 C19.448,20 19,19.552 19,19 L19,5 C19,4.448 19.448,4 20,4 Z M10,7 C10.552,7 11,7.448 11,8 L11,19 C11,19.552 10.552,20 10,20 C9.448,20 9,19.552 9,19 L9,8 C9,7.448 9.448,7 10,7 Z M15,10 C15.552,10 16,10.448 16,11 L16,19 C16,19.552 15.552,20 15,20 C14.448,20 14,19.552 14,19 L14,11 C14,10.448 14.448,10 15,10 Z M5,13 C5.552,13 6,13.448 6,14 L6,19 C6,19.552 5.552,20 5,20 C4.448,20 4,19.552 4,19 L4,14 C4,13.448 4.448,13 5,13 Z"/>
</svg>

