<svg xmlns="http://www.w3.org/2000/svg" width="24" height="24">
  <defs/>
  <path  d="M12,2.5 A1.5 1.5 0 0 1 13.493,3.856 L13.5,4 L13.5,20 A1.5 1.5 0 0 1 10.507,20.144 L10.5,20 L10.5,4 A1.5 1.5 0 0 1 12,2.5 M8,5.5 A1.5 1.5 0 0 1 9.5,7 L9.5,17 A1.5 1.5 0 0 1 6.5,17 L6.5,7 A1.5 1.5 0 0 1 8,5.5 M16,5.5 A1.5 1.5 0 0 1 17.5,7 L17.5,17 A1.5 1.5 0 0 1 14.5,17 L14.5,7 A1.5 1.5 0 0 1 16,5.5 M4,8.5 A1.5 1.5 0 0 1 5.5,10 L5.5,14 A1.5 1.5 0 0 1 2.5,14 L2.5,10 A1.5 1.5 0 0 1 4,8.5 M20,8.5 A1.5 1.5 0 0 1 21.493,9.856 L21.5,10 L21.5,14 A1.5 1.5 0 0 1 18.507,14.144 L18.5,14 L18.5,10 A1.5 1.5 0 0 1 20,8.5"/>
</svg>

