<svg xmlns="http://www.w3.org/2000/svg" width="24" height="24">
  <defs/>
  <path  d="M20,3.5 C20.828,3.5 21.5,4.172 21.5,5 L21.5,19 C21.5,19.828 20.828,20.5 20,20.5 C19.172,20.5 18.5,19.828 18.5,19 L18.5,5 C18.5,4.172 19.172,3.5 20,3.5 Z M10,6.5 C10.828,6.5 11.5,7.172 11.5,8 L11.5,19 C11.5,19.828 10.828,20.5 10,20.5 C9.172,20.5 8.5,19.828 8.5,19 L8.5,8 C8.5,7.172 9.172,6.5 10,6.5 Z M15,9.5 C15.828,9.5 16.5,10.172 16.5,11 L16.5,19 C16.5,19.828 15.828,20.5 15,20.5 C14.172,20.5 13.5,19.828 13.5,19 L13.5,11 C13.5,10.172 14.172,9.5 15,9.5 Z M5,12.5 C5.828,12.5 6.5,13.172 6.5,14 L6.5,19 C6.5,19.828 5.828,20.5 5,20.5 C4.172,20.5 3.5,19.828 3.5,19 L3.5,14 C3.5,13.172 4.172,12.5 5,12.5 Z"/>
</svg>

