<svg xmlns="http://www.w3.org/2000/svg" width="24" height="24">
  <defs/>
  <path  d="M12,2 C17.523,2 22,6.477 22,12 C22,17.523 17.523,22 12,22 C6.477,22 2,17.523 2,12 C2,6.477 6.477,2 12,2 Z M12.782,12.85 C12.149,14.65 10.892,16.164 9.238,17.116 C8.469,17.561 7.631,17.875 6.759,18.044 C7.333,18.542 7.979,18.96 8.679,19.28 C9.506,19.076 10.299,18.756 11.036,18.33 C13.087,17.15 14.588,15.208 15.213,12.926 C14.417,12.735 13.59,12.709 12.783,12.851 Z M11.196,8.756 C11.429,9.541 11.82,10.27 12.346,10.898 C14.222,10.546 16.162,10.878 17.813,11.835 C18.583,12.279 19.274,12.848 19.857,13.519 C20.002,12.767 20.038,11.998 19.965,11.236 C19.376,10.622 18.702,10.096 17.965,9.671 C15.918,8.485 13.485,8.156 11.197,8.756 Z M7.357,5.487 C7.12,6.304 7,7.15 7,8 C7,10.463 7.988,12.694 9.592,14.32 C10.156,13.726 10.591,13.022 10.872,12.252 C9.629,10.804 8.947,8.958 8.95,7.05 C8.95,6.136 9.104,5.257 9.386,4.438 C8.663,4.688 7.98,5.042 7.357,5.487 Z M4,12 C4,13.536 4.433,14.97 5.183,16.19 C6.155,16.2 7.114,15.972 7.978,15.526 C6.092,13.52 5.029,10.879 5.001,8.126 C4.343,9.311 3.999,10.644 4,12 Z M17.065,13.72 C16.272,16.357 14.515,18.599 12.145,20 C15.03,19.949 17.664,18.347 19.037,15.81 C18.56,14.963 17.883,14.246 17.065,13.721 Z M12,4 L11.78,4.003 C11.286,4.839 11.003,5.783 10.957,6.753 C13.638,6.122 16.458,6.523 18.857,7.877 C17.411,5.47 14.808,3.999 12,4 Z"/>
</svg>

