<svg xmlns="http://www.w3.org/2000/svg" width="24" height="24">
  <defs/>
  <path  d="M17.68,14.175 A6 6 0 0 1 19.792,18.268 A9.981 9.981 0 0 1 12,22 C11.459,22 10.927,21.957 10.41,21.874 A11.03 11.03 0 0 0 12.536,20.928 A10.97 10.97 0 0 0 17.681,14.174 Z M15.87,13.125 A8.977 8.977 0 0 1 11.536,19.196 A8.955 8.955 0 0 1 6.557,20.39 A10.054 10.054 0 0 1 4.078,18.104 A7.966 7.966 0 0 0 9.238,17.116 A7.972 7.972 0 0 0 12.782,12.851 A5.971 5.971 0 0 1 15.87,13.125 M4.244,5.688 C4.084,6.433 4,7.207 4,8 A10.97 10.97 0 0 0 7.277,15.832 A6 6 0 0 1 2.672,15.612 A9.975 9.975 0 0 1 2,12 C2,9.606 2.841,7.41 4.244,5.688 M18.464,8.804 A8.955 8.955 0 0 1 21.987,12.517 A9.95 9.95 0 0 1 21.248,15.811 A7.966 7.966 0 0 0 17.812,11.834 A7.972 7.972 0 0 0 12.345,10.897 A5.97 5.97 0 0 1 11.039,8.087 A8.977 8.977 0 0 1 18.464,8.804 M10.675,2.087 A7.966 7.966 0 0 0 8.95,7.05 C8.95,9.036 9.675,10.854 10.872,12.252 A5.971 5.971 0 0 1 9.092,14.789 A8.977 8.977 0 0 1 6,7.999 A8.96 8.96 0 0 1 7.456,3.089 A9.931 9.931 0 0 1 10.676,2.087 Z M13.534,2.117 A10.013 10.013 0 0 1 21.349,8.442 A11.037 11.037 0 0 0 19.464,7.072 A10.969 10.969 0 0 0 11.043,5.993 A6 6 0 0 1 13.533,2.117 Z"/>
</svg>

