<svg xmlns="http://www.w3.org/2000/svg" width="24" height="24">
  <defs/>
  <path  d="M4.596,8 L15,18.404 L15,19.806 A1.1 1.1 0 0 1 13.26,20.701 L6.68,16 L4,16 A2 2 0 0 1 2,14 L2,10 A2 2 0 0 1 4,8 Z M15,4.194 L15,13.586 L16.113,14.699 A1 1 0 0 1 16.245,13.58 L16.333,13.491 C16.743,13.123 17,12.592 17,12 A1.99 1.99 0 0 0 16.452,10.624 L16.333,10.509 A1 1 0 0 1 17.667,9.019 A3.993 3.993 0 0 1 19,12 A3.99 3.99 0 0 1 17.667,14.981 A1 1 0 0 1 16.537,15.123 L18.007,16.593 A0.999 0.999 0 0 1 18.333,15.727 A4.985 4.985 0 0 0 20,12 C20,10.52 19.358,9.19 18.333,8.273 A1 1 0 1 1 19.667,6.783 A6.985 6.985 0 0 1 22,12 A6.985 6.985 0 0 1 19.667,17.217 A0.998 0.998 0 0 1 18.879,17.465 L20.485,19.071 A1 1 0 0 1 19.071,20.485 L3.515,4.93 A1 1 0 1 1 4.929,3.516 L8.275,6.86 L13.261,3.298 A1.1 1.1 0 0 1 15,4.194"/>
</svg>

