<svg xmlns="http://www.w3.org/2000/svg" width="24" height="24">
  <defs/>
  <path  d="M15,4.194 L15,19.806 C15,20.218 14.77,20.596 14.403,20.785 C14.037,20.973 13.595,20.941 13.26,20.701 L6.68,16 L4,16 C2.895,16 2,15.105 2,14 L2,10 C2,8.895 2.895,8 4,8 L6.68,8 L13.26,3.3 C13.595,3.06 14.036,3.028 14.403,3.216 C14.769,3.405 15,3.782 15,4.194 Z M13,5.944 L7.842,9.626 C7.503,9.869 7.097,9.999 6.68,10 L4,10 L4,14 L6.68,14 C7.097,14 7.503,14.13 7.842,14.372 L13,18.057 Z M18.255,6.861 C18.623,6.45 19.256,6.415 19.667,6.783 C21.153,8.11 22.002,10.008 22,12 C22.002,13.992 21.153,15.89 19.667,17.217 C19.401,17.459 19.026,17.54 18.684,17.429 C18.342,17.318 18.086,17.032 18.014,16.68 C17.941,16.328 18.063,15.964 18.333,15.727 C19.395,14.78 20.002,13.423 20,12 C20,10.52 19.358,9.19 18.333,8.273 C17.922,7.905 17.887,7.272 18.255,6.861 Z M17.667,9.019 C18.516,9.777 19.001,10.862 19,12 C19.001,13.138 18.516,14.223 17.667,14.981 C17.273,15.33 16.676,15.315 16.301,14.946 C15.926,14.577 15.902,13.98 16.245,13.581 L16.333,13.491 C16.743,13.123 17,12.592 17,12 C17.001,11.488 16.805,10.995 16.452,10.624 L16.333,10.509 C15.928,10.139 15.896,9.512 16.262,9.103 C16.628,8.694 17.255,8.657 17.667,9.019 Z"/>
</svg>

