<svg xmlns="http://www.w3.org/2000/svg" width="24" height="24">
  <defs/>
  <path  d="M15,4.194 L15,19.806 C15,20.218 14.77,20.596 14.403,20.785 C14.037,20.973 13.595,20.941 13.26,20.701 L6.68,16 L4,16 C2.895,16 2,15.105 2,14 L2,10 C2,8.895 2.895,8 4,8 L6.68,8 L13.26,3.3 C13.595,3.06 14.036,3.028 14.403,3.216 C14.769,3.405 15,3.782 15,4.194 Z M13,5.944 L7.842,9.626 C7.503,9.869 7.097,9.999 6.68,10 L4,10 L4,14 L6.68,14 C7.097,14 7.503,14.131 7.842,14.373 L13,18.057 Z M16.172,9.172 C16.528,8.815 17.094,8.779 17.492,9.088 L17.586,9.172 L19,10.586 L20.414,9.172 C20.787,8.796 21.388,8.775 21.786,9.125 C22.183,9.476 22.238,10.075 21.912,10.492 L21.828,10.586 L20.414,12 L21.828,13.414 C22.204,13.787 22.225,14.388 21.875,14.786 C21.524,15.183 20.925,15.238 20.508,14.912 L20.414,14.828 L19,13.415 L17.586,14.83 C17.213,15.206 16.612,15.227 16.214,14.877 C15.817,14.526 15.762,13.927 16.088,13.51 L16.172,13.415 L17.586,12 L16.172,10.586 C15.782,10.196 15.782,9.562 16.172,9.172 Z"/>
</svg>

