<svg xmlns="http://www.w3.org/2000/svg" width="24" height="24">
  <defs/>
  <path  d="M13.26,3.3 A1.1 1.1 0 0 1 14.994,4.08 L15,4.194 L15,19.806 A1.1 1.1 0 0 1 13.357,20.763 L13.261,20.701 L6.68,16 L4,16 A2 2 0 0 1 2.005,14.15 L2,14 L2,10 A2 2 0 0 1 3.85,8.006 L4,8 L6.68,8 Z M17.586,9.172 L19,10.586 L20.414,9.172 A1 1 0 1 1 21.828,10.586 L20.414,12 L21.828,13.414 A1 1 0 0 1 20.414,14.829 L19,13.414 L17.586,14.829 A1 1 0 0 1 16.172,13.414 L17.586,12 L16.172,10.586 A1 1 0 1 1 17.586,9.172"/>
</svg>

