<svg xmlns="http://www.w3.org/2000/svg" width="24" height="24">
  <defs/>
  <path  d="M13.261,3.3 C13.579,3.073 13.995,3.032 14.352,3.192 C14.708,3.353 14.953,3.691 14.994,4.08 L15,4.194 L15,13.586 L16.113,14.699 C15.923,14.334 15.975,13.89 16.245,13.58 L16.333,13.491 C16.743,13.123 17,12.592 17,12 C17.001,11.488 16.805,10.995 16.452,10.624 L16.333,10.509 C16.063,10.272 15.941,9.908 16.014,9.556 C16.086,9.204 16.342,8.918 16.684,8.807 C17.026,8.696 17.401,8.777 17.667,9.019 C18.516,9.777 19.001,10.862 19,12 C19.001,13.138 18.516,14.223 17.667,14.981 C17.393,15.227 17.006,15.302 16.66,15.177 L16.537,15.123 L18.007,16.593 C17.967,16.268 18.089,15.945 18.333,15.727 C19.395,14.78 20.002,13.423 20,12 C20,10.52 19.358,9.19 18.333,8.273 C18.063,8.036 17.941,7.672 18.014,7.32 C18.086,6.968 18.342,6.682 18.684,6.571 C19.026,6.46 19.401,6.541 19.667,6.783 C21.153,8.11 22.002,10.008 22,12 C22.002,13.992 21.153,15.89 19.667,17.217 C19.483,17.382 19.245,17.473 18.998,17.472 L18.879,17.465 L20.485,19.071 C20.857,19.444 20.875,20.043 20.527,20.438 C20.178,20.834 19.582,20.891 19.165,20.568 L19.071,20.485 L3.515,4.93 C3.143,4.557 3.125,3.958 3.473,3.563 C3.822,3.167 4.418,3.11 4.835,3.433 L4.929,3.516 L8.275,6.86 L13.261,3.298 Z M4.596,8 L6.596,10 L4,10 L4,14 L6.68,14 C7.097,14 7.503,14.131 7.842,14.373 L13,18.057 L13,16.404 L15,18.404 L15,19.806 C15,20.218 14.77,20.596 14.403,20.785 C14.037,20.973 13.595,20.941 13.26,20.701 L6.68,16 L4,16 C2.895,16 2,15.105 2,14 L2,10 C2,8.895 2.895,8 4,8 Z M13,5.942 L9.709,8.294 L13,11.586 Z"/>
</svg>

