<svg xmlns="http://www.w3.org/2000/svg" width="24" height="24">
  <defs/>
  <path  d="M13.26,3.3 A1.1 1.1 0 0 1 14.994,4.08 L15,4.194 L15,19.806 A1.1 1.1 0 0 1 13.357,20.763 L13.261,20.701 L6.68,16 L4,16 A2 2 0 0 1 2.005,14.15 L2,14 L2,10 A2 2 0 0 1 3.85,8.005 L4,8 L6.68,8 Z M19.667,6.783 A6.985 6.985 0 0 1 22,12 A6.985 6.985 0 0 1 19.667,17.217 A1 1 0 1 1 18.333,15.727 A4.985 4.985 0 0 0 20,12 C20,10.52 19.358,9.19 18.333,8.273 A1 1 0 1 1 19.667,6.783 M17.667,9.019 A3.992 3.992 0 0 1 19,11.999 A3.991 3.991 0 0 1 17.667,14.981 A1 1 0 0 1 16.245,13.581 L16.333,13.491 C16.743,13.123 17,12.592 17,12 A1.99 1.99 0 0 0 16.452,10.624 L16.333,10.509 A1 1 0 1 1 17.667,9.019"/>
</svg>

