<svg xmlns="http://www.w3.org/2000/svg" width="24" height="24">
  <defs/>
  <path  d="M15.28,2.307 C15.63,1.943 16.196,1.897 16.6,2.2 L20.6,5.2 C20.852,5.389 21,5.685 21,6 L21,18 C21,18.315 20.852,18.611 20.6,18.8 L16.6,21.8 C16.196,22.103 15.63,22.057 15.28,21.693 L8.923,15.083 L5.633,17.774 C5.293,18.052 4.811,18.076 4.445,17.832 L2.945,16.832 C2.699,16.668 2.538,16.403 2.506,16.108 C2.474,15.814 2.574,15.52 2.779,15.307 L5.96,12 L2.78,8.693 C2.575,8.48 2.475,8.186 2.507,7.892 C2.539,7.597 2.7,7.332 2.946,7.168 L4.446,6.168 C4.812,5.924 5.294,5.948 5.634,6.226 L8.924,8.918 Z M17,5 L17,19 L19,17.5 L19,6.5 Z M15,18.517 L15,16.474 L5.788,8.937 Z M10.476,10.188 L11.111,10.708 L15,7.526 L15,5.483 Z M15,13.89 L15,10.11 L12.69,12 Z M7.346,13.443 L5.788,15.063 L7.532,13.636 Z"/>
</svg>

