<svg xmlns="http://www.w3.org/2000/svg" width="24" height="24">
  <defs/>
  <path  d="M12,2 A3 3 0 0 1 12.866,7.873 L12.696,7.919 L15.123,10.694 L16.947,11.605 A1 1 0 0 1 16.16,13.441 L16.053,13.394 L14.229,12.482 A2 2 0 0 1 13.753,12.15 L13.618,12.01 L12.6,10.847 L11.94,13.485 A1.995 1.995 0 0 1 11.634,14.154 L11.524,14.296 L13.452,16.059 A2 2 0 0 1 13.996,16.889 L14.043,17.049 L14.781,20 L15,20 A1 1 0 0 1 15.117,21.993 L15,22 L14.078,22 A1.1 1.1 0 0 1 13.048,21.286 L13.011,21.166 L12.103,17.535 L9.093,14.783 A2.001 2.001 0 0 1 8.026,12.678 L8.06,12.515 L8.573,10.463 L8.25,10.693 L6.857,13.015 A1 1 0 0 1 5.088,12.089 L5.142,11.985 L6.535,9.664 A2 2 0 0 1 6.958,9.166 L7.088,9.066 L9.85,7.091 A3 3 0 0 1 12,2 M9.316,15.551 A1 1 0 0 1 9.949,16.816 L9.523,18.092 A2 2 0 0 1 9.04,18.874 L7.383,20.531 A1 1 0 0 1 5.793,21.707 L5.3,21.214 A1.01 1.01 0 0 1 5.3,19.786 L7.626,17.46 L8.051,16.184 A1 1 0 0 1 9.316,15.551"/>
</svg>

