<svg xmlns="http://www.w3.org/2000/svg" width="24" height="24">
  <defs/>
  <path  d="M12,2 C13.489,1.999 14.753,3.09 14.97,4.562 C15.187,6.035 14.292,7.444 12.866,7.873 L12.696,7.919 L15.123,10.694 L16.947,11.606 C17.421,11.843 17.628,12.408 17.419,12.895 C17.211,13.382 16.658,13.621 16.16,13.441 L16.053,13.394 L14.229,12.482 C14.055,12.395 13.895,12.283 13.753,12.15 L13.618,12.01 L12.6,10.847 L11.94,13.485 C11.88,13.725 11.777,13.952 11.634,14.154 L11.524,14.296 L13.452,16.059 C13.7,16.286 13.887,16.571 13.996,16.889 L14.043,17.049 L14.781,20 L15,20 C15.529,20.001 15.966,20.413 15.997,20.941 C16.028,21.47 15.642,21.931 15.117,21.993 L15,22 L14.078,22 C13.619,22 13.209,21.715 13.048,21.286 L13.011,21.166 L12.103,17.535 L9.093,14.783 C8.317,14.388 7.886,13.537 8.026,12.678 L8.06,12.515 L8.573,10.463 L8.25,10.693 L6.857,13.015 C6.585,13.47 6.005,13.633 5.535,13.387 C5.066,13.141 4.87,12.572 5.088,12.089 L5.142,11.985 L6.535,9.664 C6.648,9.476 6.791,9.308 6.958,9.166 L7.088,9.066 L9.85,7.091 C9.01,6.227 8.769,4.943 9.238,3.833 C9.707,2.722 10.795,2 12,2 Z M8.05,16.184 C8.217,15.68 8.748,15.394 9.26,15.532 C9.772,15.67 10.087,16.185 9.978,16.704 L9.948,16.816 L9.522,18.092 C9.444,18.327 9.322,18.546 9.164,18.737 L9.039,18.874 L7.382,20.531 C7.604,20.947 7.505,21.462 7.144,21.766 C6.783,22.07 6.259,22.08 5.886,21.791 L5.792,21.707 L5.299,21.214 C4.939,20.854 4.903,20.283 5.215,19.881 L5.299,19.786 L7.625,17.46 Z M12,4 C11.448,4 11,4.448 11,5 C11,5.552 11.448,6 12,6 C12.552,6 13,5.552 13,5 C13,4.448 12.552,4 12,4 Z"/>
</svg>

