<svg xmlns="http://www.w3.org/2000/svg" width="24" height="24">
  <defs/>
  <path  d="M2,7 C2,5.343 3.343,4 5,4 L19,4 C20.657,4 22,5.343 22,7 L22,17 C22,18.657 20.657,20 19,20 L5,20 C3.343,20 2,18.657 2,17 Z M4,13 C4,13.552 4.448,14 5,14 L8.535,14 C9.249,15.238 10.571,16.001 12,16 C13.429,16 14.75,15.238 15.464,14 L19,14 C19.552,14 20,13.552 20,13 C20,12.448 19.552,12 19,12 L15,12 C14.972,12 14.943,12 14.916,12.004 C14.462,11.964 14.038,12.237 13.886,12.667 C13.603,13.466 12.847,13.999 12,13.999 C11.153,13.999 10.397,13.466 10.114,12.667 C9.962,12.237 9.538,11.964 9.084,12.004 C9.056,12.001 9.028,12 9,12 L5,12 C4.448,12 4,12.448 4,13 Z M5,7 C4.448,7 4,7.448 4,8 C4,8.552 4.448,9 5,9 L19,9 C19.552,9 20,8.552 20,8 C20,7.448 19.552,7 19,7 Z"/>
</svg>

