<svg xmlns="http://www.w3.org/2000/svg" width="24" height="24">
  <defs/>
  <path  d="M17,13 A1.5 1.5 0 1 1 14,13 A1.5 1.5 0 0 1 17,13"/>
  <path  d="M4.813,5.728 L15.813,2.585 C16.567,2.369 17.379,2.52 18.006,2.993 C18.632,3.465 19,4.204 19,4.989 L19,6 C20.105,6 21,6.895 21,8 L21,18 C21,19.105 20.105,20 19,20 L5,20 C3.895,20 3,19.105 3,18 L3,8 C3,6.955 3.835,6.007 4.813,5.728 Z M5,8 L5,18 L19,18 L19,8 Z M16.363,4.508 L11.14,6 L17,6 L17,4.988 C17,4.831 16.926,4.684 16.801,4.59 C16.676,4.495 16.514,4.465 16.363,4.508 Z"/>
</svg>

