<svg xmlns="http://www.w3.org/2000/svg" width="24" height="24">
  <defs/>
  <path  d="M5,4 L19,4 C20.657,4 22,5.343 22,7 L22,17 C22,18.657 20.657,20 19,20 L5,20 C3.343,20 2,18.657 2,17 L2,7 C2,5.343 3.343,4 5,4 Z M15.465,14 C14.751,15.238 13.429,16.001 12,16 C10.571,16.001 9.249,15.238 8.535,14 L4,14 L4,17 C4,17.552 4.448,18 5,18 L19,18 C19.552,18 20,17.552 20,17 L20,14 Z M4,11 L4,12 L9,12 C9.028,12 9.056,12.001 9.084,12.004 C9.538,11.964 9.962,12.237 10.114,12.667 C10.397,13.466 11.153,13.999 12,13.999 C12.847,13.999 13.603,13.466 13.886,12.667 C14.038,12.237 14.462,11.964 14.916,12.004 C14.943,12 14.972,12 15,12 L20,12 L20,11 C20,10.448 19.552,10 19,10 L5,10 C4.448,10 4,10.448 4,11 Z M20,8.17 L20,7 C20,6.448 19.552,6 19,6 L5,6 C4.448,6 4,6.448 4,7 L4,8.17 C4.313,8.06 4.65,8 5,8 L19,8 C19.35,8 19.687,8.06 20,8.17 Z"/>
</svg>

