<svg xmlns="http://www.w3.org/2000/svg" width="24" height="24">
  <defs/>
  <path  d="M15.69,6.861 C18.675,8.284 21,11.335 21,15 C21,17.555 19.98,19.386 18.234,20.525 C16.56,21.617 14.33,22 12,22 C9.67,22 7.441,21.617 5.766,20.525 C4.02,19.386 3,17.556 3,15 C3,11.335 5.325,8.284 8.31,6.861 C8.067,6.694 7.845,6.499 7.647,6.28 C7.294,5.886 7,5.356 7,4.714 C7,4.048 7.317,3.526 7.723,3.161 C8.109,2.813 8.595,2.584 9.059,2.428 C9.99,2.113 11.108,2 12,2 C12.892,2 14.01,2.113 14.941,2.428 C15.405,2.584 15.891,2.813 16.277,3.161 C16.683,3.526 17,4.048 17,4.714 C17,5.356 16.706,5.886 16.353,6.281 C16.159,6.498 15.932,6.691 15.69,6.861 Z M11.395,11.053 C11.242,10.722 10.921,10.5 10.557,10.475 C10.194,10.449 9.845,10.624 9.647,10.93 C9.449,11.236 9.434,11.626 9.607,11.947 L10.132,13 L10,13 C9.448,13 9,13.448 9,14 C9,14.552 9.448,15 10,15 L11,15 L11,15.5 L10,15.5 C9.448,15.5 9,15.948 9,16.5 C9,17.052 9.448,17.5 10,17.5 L11,17.5 L11,18 C11,18.552 11.448,19 12,19 C12.552,19 13,18.552 13,18 L13,17.5 L14,17.5 C14.552,17.5 15,17.052 15,16.5 C15,15.948 14.552,15.5 14,15.5 L13,15.5 L13,15 L14,15 C14.552,15 15,14.552 15,14 C15,13.448 14.552,13 14,13 L13.868,13 L14.394,11.947 C14.567,11.626 14.552,11.236 14.354,10.93 C14.156,10.624 13.807,10.449 13.444,10.475 C13.08,10.5 12.759,10.722 12.606,11.053 L12,12.263 Z M9.06,4.647 C9.037,4.667 9.016,4.69 9,4.716 C9,4.726 9.008,4.802 9.137,4.947 C9.277,5.104 9.512,5.282 9.839,5.451 C10.499,5.793 11.342,6 12,6 C12.658,6 13.502,5.793 14.161,5.451 C14.488,5.282 14.722,5.104 14.863,4.947 C14.992,4.802 14.999,4.727 15,4.716 C14.984,4.69 14.963,4.667 14.94,4.647 C14.834,4.553 14.63,4.434 14.301,4.322 C13.647,4.102 12.765,4 12,4 C11.235,4 10.353,4.101 9.699,4.322 C9.369,4.434 9.166,4.552 9.061,4.647 Z"/>
</svg>

