<svg xmlns="http://www.w3.org/2000/svg" width="24" height="24">
  <defs/>
  <path  d="M19,4.989 L19,6 C20.105,6 21,6.895 21,8 L21,18 C21,19.105 20.105,20 19,20 L5,20 C3.895,20 3,19.105 3,18 L3,8 C3,6.955 3.835,6.007 4.813,5.728 L15.813,2.585 C16.567,2.369 17.379,2.52 18.006,2.993 C18.632,3.465 19,4.204 19,4.989 Z M15.5,11.5 C14.672,11.5 14,12.172 14,13 C14,13.828 14.672,14.5 15.5,14.5 C16.328,14.5 17,13.828 17,13 C17,12.172 16.328,11.5 15.5,11.5 Z M17,4.989 C17,4.846 16.939,4.71 16.833,4.615 C16.726,4.52 16.584,4.475 16.442,4.492 L16.362,4.508 L11.14,6 L17,6 Z"/>
</svg>

