<svg xmlns="http://www.w3.org/2000/svg" width="24" height="24">
  <defs/>
  <path  d="M12,2 C12.892,2 14.01,2.113 14.941,2.428 C15.405,2.584 15.891,2.813 16.277,3.161 C16.683,3.526 17,4.048 17,4.714 C17,5.356 16.706,5.886 16.353,6.28 A3.86 3.86 0 0 1 15.69,6.861 C18.675,8.284 21,11.335 21,15 C21,17.556 19.98,19.386 18.234,20.525 C16.559,21.617 14.33,22 12,22 C9.67,22 7.44,21.617 5.766,20.525 C4.02,19.386 3,17.555 3,15 C3,11.335 5.325,8.284 8.31,6.861 A3.857 3.857 0 0 1 7.647,6.281 C7.294,5.885 7,5.355 7,4.713 C7,4.047 7.317,3.525 7.723,3.16 C8.109,2.812 8.595,2.583 9.059,2.427 C9.99,2.113 11.108,2 12,2 M12,8 C8.512,8 5,11.092 5,15 C5,16.944 5.73,18.114 6.859,18.85 C8.059,19.633 9.83,20 12,20 C14.17,20 15.94,19.633 17.141,18.85 C18.27,18.114 19,16.944 19,15 C19,11.092 15.488,8 12,8 M13.947,10.606 A1 1 0 0 1 14.394,11.947 L13.868,13 L14,13 A1 1 0 1 1 14,15 L13,15 L13,15.5 L14,15.5 A1 1 0 1 1 14,17.5 L13,17.5 L13,18 A1 1 0 1 1 11,18 L11,17.5 L10,17.5 A1 1 0 1 1 10,15.5 L11,15.5 L11,15 L10,15 A1 1 0 1 1 10,13 L10.132,13 L9.606,11.947 A1 1 0 1 1 11.394,11.053 L12,12.263 L12.606,11.053 A1 1 0 0 1 13.947,10.606 M12,4 C11.235,4 10.353,4.101 9.699,4.322 C9.369,4.434 9.166,4.552 9.061,4.647 L9.009,4.702 A0.14 0.14 0 0 0 9,4.716 L9.007,4.748 A0.597 0.597 0 0 0 9.137,4.948 C9.277,5.104 9.512,5.282 9.839,5.451 C10.499,5.793 11.342,6 12,6 C12.658,6 13.502,5.793 14.161,5.451 C14.488,5.282 14.722,5.104 14.863,4.947 A0.597 0.597 0 0 0 14.993,4.748 L15,4.716 L14.972,4.68 A0.498 0.498 0 0 0 14.939,4.647 C14.834,4.553 14.631,4.434 14.301,4.322 C13.647,4.102 12.765,4 12,4"/>
</svg>

