<svg xmlns="http://www.w3.org/2000/svg" width="24" height="24">
  <defs/>
  <path  d="M12,3 C14.281,3 16.387,3.288 17.955,3.778 C19.51,4.264 21.284,5.232 20.988,7.152 L19.453,17.134 C19.114,19.333 17.549,21.295 15.206,21.701 C14.148,21.891 13.075,21.991 12,22 C10.871,22 9.756,21.868 8.794,21.701 C6.451,21.294 4.885,19.333 4.547,17.134 L3.012,7.152 C2.716,5.232 4.49,4.264 6.045,3.778 C7.613,3.288 9.718,3 12,3 Z M6.641,7.313 C7.968,7.728 9.863,8 12,8 C14.137,8 16.031,7.728 17.358,7.313 C19.001,6.8 19.144,6.245 17.358,5.687 C16.032,5.272 14.138,5 12,5 C9.863,5 7.968,5.272 6.641,5.687 C4.863,6.242 5.023,6.807 6.641,7.313 Z"/>
</svg>

