<svg xmlns="http://www.w3.org/2000/svg" width="24" height="24">
  <defs/>
  <path  d="M12,3 C14.281,3 16.385,3.288 17.956,3.778 C18.733,4.021 19.436,4.332 19.966,4.722 C20.75,5.302 21.137,6.188 20.988,7.152 L19.453,17.134 C19.115,19.333 17.549,21.295 15.206,21.701 C14.244,21.868 13.13,22 12,22 C10.871,22 9.756,21.868 8.794,21.701 C6.451,21.294 4.886,19.333 4.547,17.134 L3.012,7.153 C2.863,6.188 3.25,5.303 4.035,4.723 C4.565,4.331 5.267,4.021 6.045,3.778 C7.613,3.288 9.719,3 12,3 Z M18.686,8.963 C16.594,9.804 14.232,10 12,10 C9.768,10 7.406,9.803 5.314,8.964 L6.524,16.83 C6.756,18.337 7.786,19.496 9.136,19.73 C10.024,19.885 11.019,20 12,20 C12.981,20 13.977,19.885 14.864,19.73 C16.214,19.496 17.244,18.337 17.476,16.83 Z M6.641,7.313 C7.97,7.728 9.863,8 12.001,8 C14.137,8 16.031,7.728 17.359,7.313 C19.001,6.8 19.144,6.245 17.359,5.687 C16.032,5.272 14.137,5 12,5 C9.863,5 7.969,5.272 6.641,5.687 C4.856,6.245 5,6.8 6.641,7.313 Z"/>
</svg>

