<svg xmlns="http://www.w3.org/2000/svg" width="24" height="24">
  <defs/>
  <path  d="M14,2 A2 2 0 0 1 16,4 L16,5.416 C17.766,6.188 19,7.95 19,10 L19,14 A5.001 5.001 0 0 1 16,18.584 L16,20 A2 2 0 0 1 14,22 L10,22 A2 2 0 0 1 8,20 L8,18.584 A5.001 5.001 0 0 1 5,14 L5,10 A5.001 5.001 0 0 1 8,5.416 L8,4 A2 2 0 0 1 10,2 Z M14,19 L10,19 L10,20 L14,20 Z M14,7 L10,7 A3 3 0 0 0 7.005,9.824 L7,10 L7,14 A3 3 0 0 0 9.824,16.995 L10,17 L14,17 A3 3 0 0 0 16.995,14.176 L17,14 L17,10 A3 3 0 0 0 14,7 M12,8 A1 1 0 0 1 13,9 L13,11.586 L14.156,12.742 A1 1 0 0 1 12.742,14.156 L11.292,12.707 A0.997 0.997 0 0 1 11,11.987 L11,9 A1 1 0 0 1 12,8 M14,4 L10,4 L10,5 L14,5 Z"/>
</svg>

