<svg xmlns="http://www.w3.org/2000/svg" width="24" height="24">
  <defs/>
  <path  d="M10,2 L14,2 C15.105,2 16,2.895 16,4 L16,5.416 C17.822,6.212 19,8.011 19,10 L19,14 C19,15.989 17.822,17.788 16,18.584 L16,20 C16,21.105 15.105,22 14,22 L10,22 C8.895,22 8,21.105 8,20 L8,18.584 C6.178,17.788 5,15.989 5,14 L5,10 C5,8.011 6.178,6.212 8,5.416 L8,4 C8,2.895 8.895,2 10,2 Z M11,9 L11,11.987 C10.996,12.257 11.101,12.516 11.292,12.707 L12.742,14.156 C13.134,14.535 13.758,14.53 14.144,14.144 C14.53,13.758 14.535,13.134 14.156,12.742 L13,11.586 L13,9 C13,8.448 12.552,8 12,8 C11.448,8 11,8.448 11,9 Z"/>
</svg>

