<svg xmlns="http://www.w3.org/2000/svg" width="24" height="24">
  <defs/>
  <path  d="M10.754,2 L13.246,2 C14.139,2 14.924,2.592 15.169,3.451 L15.961,6.225 L15.963,6.229 C17.865,7.534 19.002,9.693 19,12 C19.002,14.307 17.865,16.466 15.963,17.771 L15.961,17.775 L15.169,20.55 C14.923,21.408 14.139,22 13.246,22 L10.754,22 C9.861,22 9.076,21.408 8.831,20.549 L8.038,17.775 L8.037,17.771 C6.135,16.466 4.998,14.307 5,12 C4.999,9.693 6.135,7.534 8.038,6.229 L8.038,6.225 L8.831,3.45 C9.077,2.592 9.861,2 10.754,2 Z M13,9 C13,8.448 12.552,8 12,8 C11.448,8 11,8.448 11,9 L11,12 C11,12.265 11.105,12.52 11.293,12.707 L12.793,14.207 C13.185,14.586 13.809,14.581 14.195,14.195 C14.581,13.809 14.586,13.185 14.207,12.793 L13,11.586 Z"/>
</svg>

