<svg xmlns="http://www.w3.org/2000/svg" width="24" height="24">
  <defs/>
  <path  d="M8.831,3.45 C9.077,2.592 9.861,2 10.754,2 L13.246,2 C14.139,2 14.923,2.592 15.169,3.45 L15.961,6.225 L15.963,6.229 C17.865,7.534 19.002,9.693 19,12 C19.002,14.307 17.865,16.466 15.963,17.771 L15.961,17.775 L15.169,20.549 C14.924,21.408 14.139,22 13.246,22 L10.754,22 C9.861,22 9.077,21.408 8.831,20.55 L8.038,17.775 L8.038,17.771 C6.135,16.466 4.999,14.307 5,12 C4.997,9.692 6.134,7.53 8.038,6.225 Z M12,7 C9.239,7 7,9.239 7,12 C7,14.761 9.239,17 12,17 C14.761,17 17,14.761 17,12 C17,9.239 14.761,7 12,7 Z M12,8 C12.552,8 13,8.448 13,9 L13,11.586 L14.207,12.793 C14.586,13.185 14.581,13.809 14.195,14.195 C13.809,14.581 13.185,14.586 12.793,14.207 L11.293,12.707 C11.105,12.52 11,12.265 11,12 L11,9 C11,8.448 11.448,8 12,8 Z M10.417,5.18 C11.459,4.939 12.541,4.939 13.583,5.18 L13.246,4 L10.754,4 Z M10.417,18.82 L10.754,20 L13.246,20 L13.583,18.82 C12.541,19.061 11.459,19.061 10.417,18.82 Z"/>
</svg>

