<svg xmlns="http://www.w3.org/2000/svg" width="24" height="24">
  <defs/>
  <path  d="M18,2 C18.507,2 18.934,2.38 18.993,2.884 L19,3 L19,5.5 C19,6.007 18.62,6.434 18.117,6.493 L18,6.5 L16.37,6.5 C16.61,7.19 16.946,7.729 17.37,8.045 L17.515,8.143 C17.989,8.427 18.142,9.042 17.858,9.516 C17.573,9.989 16.959,10.142 16.485,9.858 C15.592,9.322 15.015,8.468 14.644,7.582 L14.554,7.359 L14,7.914 L14,9.593 C14,9.839 14.09,10.076 14.254,10.259 L14.342,10.345 L16.975,12.65 C17.574,13.174 17.94,13.915 17.993,14.709 L18,14.908 L18,19 C18,20.589 16.762,21.902 15.176,21.995 L15,22 L8,22 C6.411,22 5.098,20.762 5.005,19.176 L5,19 L5,14.908 C5,14.112 5.317,13.349 5.88,12.786 L6.024,12.65 L8.659,10.345 C8.844,10.183 8.962,9.959 8.992,9.715 L9,9.593 L9,8.054 L8.028,7.447 C6.213,6.312 6.174,3.682 7.955,2.495 C8.378,2.213 8.867,2.045 9.372,2.008 L9.59,2 Z M12,8.5 L11,8.5 L11,9.593 C11,10.458 10.627,11.28 9.976,11.85 L7.34,14.155 C7.135,14.335 7.012,14.591 7,14.863 C7.961,14.793 8.779,14.876 9.511,15.063 C10.275,15.257 10.917,15.558 11.481,15.854 L11.978,16.122 C12.674,16.502 13.258,16.816 13.98,17 C14.519,17.137 15.164,17.207 15.999,17.13 L15.999,14.908 C15.999,14.62 15.875,14.345 15.658,14.155 L13.023,11.85 C12.373,11.28 12,10.458 12,9.593 Z M17,4 L15.953,4 L15.966,4.327 L15.977,4.5 L17,4.5 Z"/>
</svg>

