<svg xmlns="http://www.w3.org/2000/svg" width="24" height="24">
  <defs/>
  <path  d="M18,2 C18.507,2 18.934,2.38 18.993,2.884 L19,3 L19,5.5 C19,6.007 18.62,6.434 18.117,6.493 L18,6.5 L16.37,6.5 C16.61,7.19 16.946,7.729 17.37,8.045 L17.514,8.143 C17.988,8.427 18.141,9.041 17.857,9.515 C17.573,9.989 16.959,10.142 16.485,9.858 C15.592,9.322 15.015,8.468 14.644,7.582 L14.554,7.359 L14,7.914 L14,9.593 C14,9.839 14.09,10.076 14.254,10.259 L14.341,10.345 L16.975,12.65 C17.574,13.174 17.94,13.915 17.993,14.709 L18,14.908 L18,19 C18,20.589 16.762,21.902 15.176,21.995 L15,22 L8,22 C6.411,22 5.098,20.762 5.005,19.176 L5,19 L5,14.908 C5,14.112 5.317,13.349 5.88,12.786 L6.024,12.65 L8.658,10.345 C8.843,10.183 8.962,9.959 8.992,9.715 L9,9.593 L9,8.054 L8.027,7.447 C6.212,6.312 6.174,3.682 7.955,2.495 C8.378,2.213 8.867,2.045 9.372,2.008 L9.59,2 Z M7,15.87 L7,19 C7,19.552 7.448,20 8,20 L15,20 C15.552,20 16,19.552 16,19 L16,18.137 C15.038,18.207 14.22,18.125 13.488,17.938 C12.724,17.744 12.082,17.443 11.518,17.146 L11.021,16.878 C10.325,16.498 9.741,16.184 9.019,16 C8.479,15.863 7.835,15.793 6.999,15.87 Z M11.999,8.5 L10.999,8.5 L10.999,9.593 C10.999,10.458 10.625,11.281 9.974,11.85 L7.702,13.838 C8.312,13.838 8.92,13.913 9.512,14.062 C10.262,14.254 10.958,14.579 11.639,14.94 L11.978,15.122 C12.674,15.502 13.258,15.816 13.98,16 C14.519,16.137 15.164,16.207 15.999,16.13 L15.999,14.908 C15.999,14.619 15.874,14.345 15.657,14.155 L13.023,11.85 C12.373,11.28 12,10.458 12,9.593 Z M13.953,4 L9.59,4 C9.167,4 8.796,4.279 8.679,4.685 C8.562,5.092 8.729,5.526 9.087,5.75 L10.287,6.5 L12.586,6.5 L13.707,5.379 C13.807,5.279 13.914,5.186 14.026,5.102 C13.981,4.713 13.958,4.34 13.953,4 Z M17,4 L15.953,4 L15.965,4.327 L15.977,4.5 L17,4.5 Z"/>
</svg>

