<svg xmlns="http://www.w3.org/2000/svg" width="24" height="24">
  <defs/>
  <path  d="M18.223,6.239 A11.08 11.08 0 0 0 12.715,6.797 L12.371,6.929 A13.106 13.106 0 0 1 5.473,7.739 C4.471,7.584 3.466,7.349 2.553,6.895 A1 1 0 0 1 3.337,5.059 L3.444,5.104 C4.165,5.455 4.991,5.641 5.777,5.762 A11.08 11.08 0 0 0 11.285,5.202 L11.629,5.072 A13.106 13.106 0 0 1 18.527,4.262 C19.514,4.414 20.545,4.657 21.447,5.105 A1 1 0 0 1 21.895,6.447 A1.01 1.01 0 0 1 20.555,6.895 C19.827,6.553 19.013,6.36 18.223,6.239 M18.223,12.239 A11.08 11.08 0 0 0 12.715,12.797 L12.371,12.929 A13.105 13.105 0 0 1 5.473,13.739 C4.471,13.584 3.466,13.349 2.553,12.895 A1 1 0 0 1 3.337,11.059 L3.444,11.104 C4.165,11.455 4.991,11.641 5.777,11.762 A11.08 11.08 0 0 0 11.285,11.202 L11.629,11.072 A13.106 13.106 0 0 1 18.527,10.262 C19.514,10.414 20.545,10.657 21.447,11.105 A1 1 0 0 1 21.895,12.447 A1.01 1.01 0 0 1 20.555,12.895 C19.827,12.553 19.013,12.36 18.223,12.239 M12.005,19.069 L12.371,18.929 C14.672,18.009 16.736,18.009 18.223,18.239 C19.013,18.36 19.827,18.553 20.554,18.895 A1.01 1.01 0 0 0 21.894,18.447 A1 1 0 0 0 21.446,17.105 C20.545,16.657 19.514,16.414 18.527,16.262 A13.08 13.08 0 0 0 11.995,16.932 L11.629,17.072 A11.11 11.11 0 0 1 5.777,17.762 C5.103,17.658 4.401,17.507 3.759,17.245 L3.444,17.105 A1 1 0 0 0 2.554,18.895 C3.466,19.35 4.471,19.585 5.473,19.738 C7.156,19.998 9.453,20.008 12.005,19.069"/>
</svg>

