<svg xmlns="http://www.w3.org/2000/svg" width="24" height="24">
  <defs/>
  <path  d="M18.147,6.733 A10.578 10.578 0 0 0 12.903,7.261 L12.557,7.393 A13.606 13.606 0 0 1 5.397,8.233 C4.359,8.073 3.277,7.815 2.329,7.342 A1.5 1.5 0 0 1 3.531,4.597 L3.663,4.655 C4.345,4.975 5.113,5.154 5.853,5.268 C7.197,5.474 9.036,5.488 11.097,4.739 L11.443,4.607 A13.606 13.606 0 0 1 18.603,3.767 C19.641,3.927 20.722,4.186 21.669,4.657 A1.514 1.514 0 0 1 22.341,6.671 C21.972,7.409 21.219,7.578 20.336,7.345 L18.146,6.733 Z M18.147,12.733 A10.578 10.578 0 0 0 12.903,13.261 L12.557,13.393 A13.606 13.606 0 0 1 5.397,14.233 C4.359,14.073 3.277,13.815 2.329,13.342 A1.5 1.5 0 0 1 3.531,10.597 L3.663,10.655 C4.345,10.975 5.113,11.154 5.853,11.268 C7.197,11.474 9.036,11.488 11.097,10.739 L11.443,10.607 A13.606 13.606 0 0 1 18.603,9.767 C19.641,9.927 20.722,10.186 21.669,10.657 A1.514 1.514 0 0 1 22.341,12.671 C21.972,13.41 21.219,13.578 20.336,13.345 L18.146,12.733 Z M12.193,19.533 L12.557,19.393 A10.607 10.607 0 0 1 18.147,18.733 L20.337,19.345 C21.219,19.578 21.972,19.41 22.342,18.671 A1.514 1.514 0 0 0 21.669,16.658 C20.722,16.186 19.641,15.928 18.603,15.768 A13.583 13.583 0 0 0 11.806,16.468 L11.443,16.608 C9.241,17.488 7.271,17.486 5.853,17.268 C5.219,17.17 4.563,17.025 3.96,16.784 L3.663,16.654 A1.5 1.5 0 0 0 2.329,19.342 C3.276,19.815 4.359,20.073 5.397,20.232 C7.149,20.502 9.54,20.512 12.193,19.532 Z"/>
</svg>

