<svg xmlns="http://www.w3.org/2000/svg" width="24" height="24" viewBox="0 0 24 24">
  <defs/>
  <path  d="M15.153,9.461 L17.238,13.073 C17.485,13.025 17.739,13 18,13 C20.209,13 22,14.791 22,17 C22,19.209 20.209,21 18,21 C16.519,21 15.227,20.196 14.535,19 L9.465,19 C8.773,20.196 7.481,21 6,21 C3.791,21 2,19.209 2,17 C2,14.791 3.791,13 6,13 C6.261,13 6.515,13.025 6.762,13.073 L8.847,9.461 C8.316,8.783 8,7.928 8,7 C8,4.791 9.791,3 12,3 C14.209,3 16,4.791 16,7 C16,7.928 15.684,8.783 15.153,9.461 Z M15.428,13.937 L13.552,10.688 C13.075,10.889 12.55,11 12,11 C11.45,11 10.925,10.889 10.448,10.688 L8.572,13.937 C9.445,14.67 10,15.771 10,17 L14,17 C14,15.771 14.555,14.67 15.428,13.937 Z"/>
</svg>

