<svg xmlns="http://www.w3.org/2000/svg" width="24" height="24">
  <defs/>
  <path  d="M12,3 C13.529,3 14.924,3.872 15.594,5.246 C16.265,6.62 16.094,8.256 15.153,9.461 L17.238,13.073 C19.239,12.685 21.211,13.864 21.818,15.81 C22.424,17.755 21.471,19.846 19.604,20.664 C17.737,21.482 15.554,20.765 14.535,19 L9.465,19 C8.446,20.765 6.263,21.482 4.396,20.664 C2.529,19.846 1.576,17.755 2.182,15.81 C2.789,13.864 4.761,12.685 6.762,13.073 L8.847,9.46 C7.907,8.255 7.736,6.619 8.406,5.246 C9.077,3.872 10.471,3 12,3 Z M13.552,10.688 C13.061,10.895 12.533,11.001 12,11 C11.45,11 10.926,10.889 10.448,10.688 L8.572,13.937 C9.478,14.696 10.001,15.818 10,17 L14,17 C14,15.77 14.556,14.67 15.428,13.937 Z M18,15 C16.895,15 16,15.896 16,17 C16.001,18.105 16.896,19 18.001,19 C19.106,19 20.001,18.104 20,17 C20,15.895 19.105,15 18,15 Z M6,15 C4.895,15 4,15.895 4,17 C4,18.105 4.895,19 6,19 C7.105,19 8,18.105 8,17 C8,15.895 7.105,15 6,15 Z M12,5 C10.895,5 10,5.895 10,7 C10,8.105 10.895,9 12,9 C13.105,9 14,8.105 14,7 C14,5.895 13.105,5 12,5 Z"/>
</svg>

