<svg xmlns="http://www.w3.org/2000/svg" width="24" height="24">
  <defs/>
  <path  d="M10,3 C14.071,3 17.7,5.67 17.982,9.368 C20.286,10.23 22,12.178 22,14.628 C22,16.495 20.974,18.1 19.48,19.121 A2.28 2.28 0 0 0 19.458,19.56 L19.472,20 A1 1 0 0 1 18.472,21 C17.714,21 17.012,20.753 16.418,20.29 A7.84 7.84 0 0 1 15.313,20.368 C12.546,20.368 9.991,18.877 9.029,16.617 A9.231 9.231 0 0 1 8.575,16.559 C7.859,17.126 7.035,17.444 6.111,17.444 A1 1 0 0 1 5.111,16.444 L5.116,16.241 L5.134,15.831 A2.1 2.1 0 0 0 5.076,15.223 C3.248,14.004 2,12.073 2,9.833 C2,5.896 5.76,3 10,3 M15.313,10.889 C12.545,10.889 10.625,12.726 10.625,14.629 C10.625,16.531 12.545,18.369 15.313,18.369 A5.8 5.8 0 0 0 16.391,18.268 C16.825,18.186 17.21,18.368 17.541,18.628 C17.64,18.195 17.865,17.786 18.247,17.54 C19.363,16.82 20,15.753 20,14.629 C20,12.726 18.08,10.889 15.313,10.889 M10,5 C6.508,5 4,7.327 4,9.833 C4,11.31 4.837,12.691 6.264,13.61 C6.795,13.953 7.024,14.567 7.094,15.169 L7.576,14.827 C7.884,14.619 8.206,14.461 8.626,14.539 C8.682,11.253 11.829,8.889 15.313,8.889 C15.505,8.889 15.696,8.896 15.886,8.91 C15.362,6.784 13.059,5 10,5 M13.62,13 A1 1 0 1 1 13.62,15 A1 1 0 0 1 13.62,13 M17,13 A1 1 0 1 1 17,15 A1 1 0 0 1 17,13 M8,7 A1 1 0 1 1 8,9 A1 1 0 0 1 8,7 M12,7 A1 1 0 1 1 12,9 A1 1 0 0 1 12,7"/>
</svg>

