<svg xmlns="http://www.w3.org/2000/svg" width="24" height="24">
  <defs/>
  <path  d="M12,2 C17.523,2 22,6.477 22,12 C22,17.523 17.523,22 12,22 C6.477,22 2,17.523 2,12 C2,6.477 6.477,2 12,2 M12,4 A8 8 0 1 0 12,20 A8 8 0 0 0 12,4 M13.741,6.99 A3.092 3.092 0 0 1 16.534,7.836 C18.059,9.36 17.586,11.917 15.669,12.818 L15.496,12.893 L15.406,12.929 A1 1 0 0 1 14.558,11.121 L14.664,11.071 L14.754,11.036 A1.092 1.092 0 0 0 14.268,8.933 L14.133,8.951 L14.033,8.971 C13.475,9.083 13.063,9.545 13.007,10.101 L13,10.231 L13,13.77 A3.284 3.284 0 0 1 10.542,16.948 L10.259,17.01 A3.092 3.092 0 0 1 7.466,16.165 C5.942,14.64 6.414,12.083 8.331,11.182 L8.504,11.107 L8.594,11.072 A1 1 0 0 1 9.442,12.879 L9.336,12.929 L9.247,12.964 A1.092 1.092 0 0 0 9.732,15.067 L9.867,15.049 L9.967,15.029 C10.525,14.917 10.937,14.455 10.994,13.899 L11,13.769 L11,10.231 A3.284 3.284 0 0 1 13.458,7.052 L13.64,7.01 Z"/>
</svg>

