<svg xmlns="http://www.w3.org/2000/svg" width="24" height="24">
  <defs/>
  <path  d="M12,22 C6.477,22 2,17.523 2,12 C2,6.477 6.477,2 12,2 C17.523,2 22,6.477 22,12 C22,17.523 17.523,22 12,22 Z M17.165,7.265 C16.353,6.453 15.188,6.1 14.061,6.325 L13.943,6.349 C12.232,6.691 11,8.194 11,9.939 L11,14.061 C11.001,14.853 10.442,15.535 9.665,15.69 L9.547,15.713 C8.819,15.857 8.102,15.424 7.89,14.713 C7.679,14.002 8.044,13.247 8.732,12.97 L8.836,12.928 C9.349,12.723 9.598,12.141 9.393,11.628 C9.188,11.115 8.606,10.866 8.093,11.071 L7.989,11.113 C5.698,12.03 5.09,14.99 6.835,16.735 C7.647,17.547 8.812,17.9 9.939,17.675 L10.057,17.651 C11.768,17.309 13,15.806 13,14.061 L13,9.94 C12.999,9.148 13.558,8.466 14.335,8.311 L14.453,8.288 C15.181,8.144 15.898,8.577 16.11,9.288 C16.321,9.999 15.956,10.754 15.268,11.031 L15.164,11.073 C14.651,11.278 14.402,11.86 14.607,12.373 C14.812,12.886 15.394,13.135 15.907,12.93 L16.011,12.888 C18.302,11.971 18.91,9.011 17.165,7.266 Z"/>
</svg>

