<svg xmlns="http://www.w3.org/2000/svg" width="24" height="24">
  <defs/>
  <path  d="M2,11.5 C2,6.643 6.656,3 12,3 C15.454,3 18.552,4.49 20.362,6.83 C21.389,8.16 22,9.764 22,11.5 C22,16.357 17.344,20 12,20 C11.347,20 10.708,19.947 10.089,19.845 C9.996,19.918 9.836,20.05 9.639,20.189 C9.07,20.59 8.249,21 7,21 C6.448,21 6,20.552 6,20 C6,19.864 6.006,19.733 6.011,19.599 C6.022,19.348 6.033,19.088 6.009,18.771 C5.995,18.597 5.979,18.405 5.906,18.244 C3.577,16.723 2,14.298 2,11.5 Z M12,5 C7.403,5 4,8.073 4,11.5 C4,13.514 5.141,15.372 7.042,16.596 C7.469,16.872 7.69,17.284 7.808,17.618 C7.945,18.002 7.998,18.412 8.014,18.818 C8.394,18.662 8.688,18.385 9.018,18.148 L9.018,18.147 C9.168,18.039 9.609,17.723 10.186,17.832 C10.768,17.942 11.375,18 12,18 C16.597,18 20,14.927 20,11.5 C20,10.59 19.769,9.718 19.343,8.922 L10.037,14.844 C9.806,14.991 9.525,15.037 9.26,14.971 C8.995,14.905 8.768,14.733 8.632,14.496 L6.632,10.996 C6.407,10.601 6.476,10.104 6.801,9.786 C7.126,9.468 7.625,9.409 8.015,9.643 L9.595,10.59 C9.882,10.762 10.236,10.78 10.539,10.636 L17.91,7.126 C16.463,5.836 14.37,5 12,5 Z"/>
</svg>

