<svg xmlns="http://www.w3.org/2000/svg" width="24" height="24">
  <defs/>
  <path  d="M12,3 C6.656,3 2,6.643 2,11.5 C2,14.298 3.577,16.723 5.906,18.244 C6.08,18.627 6.049,19.096 6.021,19.537 C6.011,19.697 6,19.853 6,20 A1 1 0 0 0 7,21 C8.25,21 9.071,20.589 9.639,20.19 C9.836,20.05 9.996,19.918 10.089,19.845 C10.708,19.947 11.347,20 12,20 C17.344,20 22,16.357 22,11.5 A7.434 7.434 0 0 0 21.04,7.842 L21.037,7.844 L10.037,14.844 A1 1 0 0 1 8.632,14.496 L6.632,10.996 A1 1 0 0 1 8.015,9.643 L9.595,10.59 A1 1 0 0 0 10.539,10.636 L19.836,6.209 C17.974,4.228 15.103,3 12,3"/>
</svg>

