<svg xmlns="http://www.w3.org/2000/svg" width="24" height="24">
  <defs/>
  <path  d="M9.5,3 C13.277,3 16.649,5.535 16.974,9.062 C16.651,9.021 16.326,9 16,9 C12.467,9 9,11.473 9,15.209 C9,15.563 9.031,15.906 9.09,16.236 C8.78,16.222 8.471,16.19 8.164,16.142 C7.494,16.691 6.721,17 5.854,17 C5.336,17 4.917,16.566 4.917,16.03 L4.921,15.833 L4.938,15.436 C4.948,15.238 4.929,15.039 4.883,14.846 C3.17,13.667 2,11.794 2,9.624 C2,5.807 5.525,3 9.5,3 Z M16,10 C19.154,10 22,12.186 22,15.213 C22,16.909 21.08,18.366 19.74,19.293 C19.71,19.476 19.717,19.659 19.725,19.843 C19.729,19.926 19.732,20.009 19.732,20.092 C19.735,20.59 19.333,20.997 18.835,21 C18.155,21 17.525,20.776 16.992,20.355 C16.663,20.403 16.332,20.426 16,20.426 C12.846,20.426 10,18.24 10,15.213 C10,12.186 12.846,10 16,10 Z M14,13 C13.448,13 13,13.448 13,14 C13,14.552 13.448,15 14,15 C14.552,15 15,14.552 15,14 C15,13.448 14.552,13 14,13 Z M12,6 C11.448,6 11,6.448 11,7 C11,7.552 11.448,8 12,8 C12.552,8 13,7.552 13,7 C13,6.448 12.552,6 12,6 Z M18,13 C17.448,13 17,13.448 17,14 C17,14.552 17.448,15 18,15 C18.552,15 19,14.552 19,14 C19,13.448 18.552,13 18,13 Z M7,6 C6.448,6 6,6.448 6,7 C6,7.552 6.448,8 7,8 C7.552,8 8,7.552 8,7 C8,6.448 7.552,6 7,6 Z"/>
</svg>

