<svg xmlns="http://www.w3.org/2000/svg" width="24" height="24">
  <defs/>
  <path  d="M13.12,5.815 C13.67,6.352 13.946,7.055 13.983,7.807 C15.658,7.305 17.028,7.445 17.92,8.307 C18.768,9.127 18.857,10.274 18.537,11.271 C19.9,11.961 21,13.058 21,14.715 C21,16.645 19.744,18.241 18.038,19.301 C16.318,20.371 14.004,21 11.5,21 C8.996,21 6.682,20.37 4.962,19.301 C3.256,18.241 2,16.646 2,14.715 C2,12.953 2.842,11.126 4.05,9.559 A14.557 14.557 0 0 1 8.773,5.605 C10.408,4.758 12.059,4.777 13.12,5.815 M11.721,7.245 C11.508,7.035 10.892,6.76 9.693,7.381 A12.558 12.558 0 0 0 5.633,10.781 C4.576,12.154 4,13.558 4,14.715 C4,15.703 4.647,16.75 6.018,17.603 C7.374,18.446 9.309,19 11.5,19 C13.69,19 15.627,18.446 16.982,17.603 C18.353,16.75 19,15.703 19,14.715 C19,14.004 18.44,13.276 16.84,12.724 A1 1 0 0 1 16.367,11.178 C16.862,10.518 16.722,9.93 16.53,9.745 L16.482,9.705 L16.415,9.663 C16.078,9.477 15.141,9.295 13.08,10.324 A1 1 0 0 1 11.733,8.994 C12.177,8.074 11.958,7.477 11.721,7.244 Z M17,3 C18.576,3 20.128,3.643 21.243,4.757 A6.054 6.054 0 0 1 23,9 A1 1 0 1 1 21,9 C21,7.95 20.571,6.914 19.828,6.172 A4.036 4.036 0 0 0 17,5 A1 1 0 1 1 17,3"/>
</svg>

