<svg xmlns="http://www.w3.org/2000/svg" width="24" height="24">
  <defs/>
  <path  d="M8.773,5.605 C10.408,4.758 12.059,4.777 13.12,5.815 C13.67,6.352 13.946,7.055 13.983,7.807 C15.658,7.305 17.028,7.445 17.92,8.307 C18.768,9.127 18.857,10.274 18.537,11.271 C19.9,11.961 21,13.058 21,14.715 C21,16.645 19.744,18.241 18.038,19.301 C16.318,20.371 14.004,21 11.5,21 C8.996,21 6.682,20.37 4.962,19.301 C3.256,18.241 2,16.646 2,14.715 C2,12.953 2.842,11.126 4.05,9.559 A14.557 14.557 0 0 1 8.773,5.605 M17,3 A6 6 0 0 1 23,9 A1 1 0 0 1 21.007,9.117 L21,9 A4 4 0 0 0 17,5 A1 1 0 1 1 17,3"/>
</svg>

