<svg xmlns="http://www.w3.org/2000/svg" width="24" height="24">
  <defs/>
  <path  d="M10.211,9.361 C10.66,8.959 11.34,8.959 11.789,9.361 C12.153,9.685 13.179,10.639 14.121,11.921 C15.044,13.175 16,14.894 16,16.722 C16,19.572 13.824,22 11,22 C8.176,22 6,19.573 6,16.722 C6,14.894 6.956,13.175 7.879,11.921 C8.569,10.992 9.351,10.135 10.211,9.361 Z M16.696,2.378 C17.15,1.958 17.85,1.958 18.304,2.378 C18.584,2.636 19.234,3.27 19.821,4.102 C20.39,4.91 21,6.042 21,7.278 C21,9.252 19.512,11 17.5,11 C15.489,11 14,9.252 14,7.278 C14,6.043 14.61,4.91 15.18,4.102 C15.626,3.478 16.134,2.9 16.696,2.378 Z M4.708,5.363 C5.158,4.956 5.842,4.956 6.292,5.363 C6.498,5.549 6.9,5.936 7.258,6.436 C7.6,6.913 8,7.627 8,8.444 C8,9.821 6.915,11 5.5,11 C4.085,11 3,9.82 3,8.444 C3,7.627 3.4,6.913 3.742,6.436 C4.1,5.936 4.502,5.549 4.708,5.363 Z"/>
</svg>

