<svg xmlns="http://www.w3.org/2000/svg" width="24" height="24">
  <defs/>
  <path  d="M10.21,9.361 C10.66,8.958 11.34,8.958 11.79,9.361 C12.65,10.135 13.431,10.992 14.121,11.921 C15.044,13.175 16,14.894 16,16.722 C16,19.572 13.824,22 11,22 C8.176,22 6,19.573 6,16.722 C6,14.894 6.956,13.175 7.879,11.921 C8.569,10.992 9.351,10.135 10.211,9.361 Z M16.696,2.378 C17.15,1.958 17.85,1.958 18.304,2.378 C18.584,2.636 19.234,3.27 19.821,4.102 C20.39,4.91 21,6.042 21,7.278 C21,9.252 19.512,11 17.5,11 C15.489,11 14,9.252 14,7.278 C14,6.043 14.61,4.91 15.18,4.102 C15.626,3.478 16.134,2.9 16.696,2.378 Z M11,11.366 C10.58,11.782 10.018,12.388 9.49,13.106 C8.643,14.256 8,15.544 8,16.722 C8,18.597 9.405,20 11,20 C12.595,20 14,18.597 14,16.722 C14,15.544 13.357,14.257 12.51,13.106 C12.051,12.489 11.547,11.907 11,11.366 Z M4.708,5.363 C5.158,4.956 5.842,4.956 6.292,5.363 C6.498,5.549 6.9,5.936 7.258,6.436 C7.6,6.913 8,7.627 8,8.444 C8,9.821 6.915,11 5.5,11 C4.085,11 3,9.82 3,8.444 C3,7.627 3.4,6.913 3.742,6.436 C4.1,5.936 4.502,5.549 4.708,5.363 Z M17.5,4.406 C17.254,4.674 17.025,4.957 16.814,5.254 C16.324,5.949 16,6.664 16,7.278 C16,8.31 16.75,9 17.5,9 C18.25,9 19,8.31 19,7.278 C19,6.664 18.676,5.949 18.186,5.254 C17.975,4.957 17.746,4.674 17.5,4.406 Z M5.5,7.427 C5.454,7.484 5.41,7.542 5.368,7.601 C5.11,7.96 5,8.254 5,8.444 C5,8.786 5.258,9 5.5,9 C5.742,9 6,8.786 6,8.444 C6,8.254 5.89,7.961 5.632,7.601 C5.59,7.542 5.546,7.484 5.5,7.427 Z"/>
</svg>

