<svg xmlns="http://www.w3.org/2000/svg" width="24" height="24">
  <defs/>
  <path  d="M12,2 C17.523,2 22,6.477 22,12 C22,17.523 17.523,22 12,22 A9.958 9.958 0 0 1 7.137,20.74 L6.832,20.562 L3.8,21.454 A1.01 1.01 0 0 1 2.52,20.309 L2.546,20.2 L3.438,17.168 A9.958 9.958 0 0 1 2,12 C2,6.477 6.477,2 12,2 M12,4 A8 8 0 0 0 5.241,16.282 C5.439,16.594 5.524,16.978 5.457,17.359 L5.418,17.522 L4.977,19.023 L6.478,18.582 C6.911,18.454 7.361,18.532 7.718,18.759 A8 8 0 1 0 12,4 M9.102,7.184 A0.695 0.695 0 0 1 9.786,7.259 C10.29,7.627 10.69,8.121 11.034,8.603 L11.361,9.077 L11.514,9.302 A0.712 0.712 0 0 1 11.468,10.166 L11.393,10.242 L10.469,10.928 A0.227 0.227 0 0 0 10.402,11.219 C10.612,11.599 10.983,12.166 11.409,12.592 C11.836,13.018 12.429,13.414 12.835,13.647 C12.923,13.697 13.029,13.681 13.101,13.616 L13.139,13.571 L13.74,12.656 A0.711 0.711 0 0 1 14.713,12.498 L15.256,12.877 C15.796,13.262 16.315,13.676 16.726,14.201 A0.696 0.696 0 0 1 16.815,14.904 C16.419,15.828 15.416,16.615 14.374,16.577 L14.215,16.567 L14.024,16.549 A4.966 4.966 0 0 1 13.916,16.535 L13.678,16.495 C12.754,16.321 11.273,15.797 9.738,14.263 C8.204,12.728 7.68,11.247 7.506,10.323 L7.466,10.085 L7.441,9.877 L7.428,9.702 A3.76 3.76 0 0 1 7.424,9.627 C7.386,8.583 8.177,7.58 9.102,7.184"/>
</svg>

