<svg xmlns="http://www.w3.org/2000/svg" width="24" height="24">
  <defs/>
  <path  d="M12,2 C17.523,2 22,6.477 22,12 C22,17.523 17.523,22 12,22 C10.178,22.002 8.391,21.505 6.832,20.562 L3.8,21.454 C3.445,21.558 3.062,21.461 2.801,21.199 C2.539,20.938 2.442,20.555 2.546,20.2 L3.438,17.168 C2.525,15.66 2,13.89 2,12 C2,6.477 6.477,2 12,2 Z M9.738,14.263 C11.761,16.285 13.692,16.552 14.374,16.577 C15.411,16.615 16.421,15.823 16.814,14.904 C16.915,14.671 16.881,14.402 16.726,14.201 C16.178,13.501 15.437,12.998 14.713,12.498 C14.399,12.281 13.969,12.351 13.74,12.656 L13.14,13.571 C13.075,13.673 12.941,13.706 12.835,13.647 C12.428,13.414 11.835,13.018 11.409,12.592 C10.983,12.166 10.611,11.6 10.402,11.219 C10.348,11.119 10.377,10.995 10.469,10.928 L11.393,10.242 C11.666,10.005 11.718,9.6 11.513,9.302 C11.065,8.646 10.543,7.812 9.786,7.259 C9.587,7.115 9.327,7.086 9.102,7.184 C8.182,7.578 7.386,8.588 7.424,9.627 C7.449,10.309 7.716,12.24 9.738,14.263 Z"/>
</svg>

