<svg xmlns="http://www.w3.org/2000/svg" width="24" height="24">
  <defs/>
  <path  d="M2,3 C2,2.448 2.448,2 3,2 L4.165,2 C5.132,2 5.96,2.691 6.133,3.642 L6.562,6 L15.174,6 C16.725,6 18.02,7.183 18.161,8.728 L18.565,13.175 C18.615,13.21 18.663,13.249 18.707,13.293 L20.414,15 L21,15 C21.552,15 22,15.448 22,16 C22,16.552 21.552,17 21,17 L20,17 C19.735,17 19.48,16.895 19.293,16.707 L18.846,16.26 L18.929,17.178 C20.028,17.618 20.668,18.768 20.462,19.933 C20.256,21.099 19.262,21.961 18.079,21.998 C16.896,22.035 15.849,21.238 15.57,20.087 C15.292,18.937 15.858,17.749 16.927,17.241 L16.723,15 L13.917,15 C14.432,18.048 12.546,20.989 9.561,21.793 C6.575,22.596 3.468,21 2.383,18.106 C1.297,15.211 2.589,11.965 5.367,10.608 L4.165,4 L3,4 C2.448,4 2,3.552 2,3 Z M8,12 C5.84,12.068 4.125,13.839 4.125,16 C4.125,18.161 5.84,19.932 8,20 C10.209,20 12,18.209 12,16 C12,13.791 10.209,12 8,12 Z M7.297,10.04 C9.679,9.758 11.999,10.922 13.197,13 L16.541,13 L16.169,8.91 C16.122,8.395 15.691,8 15.174,8 L6.925,8 Z M18,19 C17.724,19 17.5,19.224 17.5,19.5 C17.5,19.776 17.724,20 18,20 C18.276,20 18.5,19.776 18.5,19.5 C18.5,19.224 18.276,19 18,19 Z"/>
</svg>

