<svg xmlns="http://www.w3.org/2000/svg" width="24" height="24">
  <defs/>
  <path  d="M12,2 C17.523,2 22,6.477 22,12 C22,17.523 17.523,22 12,22 C6.477,22 2,17.523 2,12 C2,6.477 6.477,2 12,2 Z M12,4 C7.582,4 4,7.582 4,12 C4,16.418 7.582,20 12,20 C16.418,20 20,16.418 20,12 C20,7.582 16.418,4 12,4 Z M13.792,5.642 C14.414,5.586 15.249,5.707 16.115,6.337 C16.982,6.967 17.355,7.723 17.495,8.332 C17.715,9.298 17.048,9.968 16.463,10.228 L16.361,10.27 L14.931,10.8 C14.328,11.024 13.654,10.943 13.12,10.584 C12.586,10.226 12.258,9.632 12.237,8.989 L12.237,8.843 L12.299,7.319 C12.325,6.673 12.747,5.736 13.792,5.642 Z M13.569,14.562 L13.664,14.693 L14.51,15.963 C14.869,16.5 15.079,17.506 14.288,18.196 C13.818,18.608 13.071,19 12,19 C10.929,19 10.182,18.608 9.712,18.196 C8.965,17.544 9.111,16.611 9.432,16.056 L9.49,15.962 L10.336,14.693 C10.675,14.183 11.229,13.857 11.84,13.808 C12.45,13.759 13.049,13.991 13.466,14.44 Z M7.35,10.811 L7.457,10.837 L8.925,11.249 C9.543,11.422 10.041,11.882 10.262,12.485 C10.484,13.088 10.402,13.761 10.043,14.293 L9.953,14.415 L9.008,15.612 C8.608,16.119 7.716,16.629 6.815,16.091 C6.279,15.771 5.675,15.181 5.344,14.163 C5.013,13.144 5.155,12.313 5.401,11.738 C5.768,10.881 6.615,10.698 7.236,10.79 L7.35,10.81 Z M18.6,11.738 C18.846,12.313 18.988,13.144 18.657,14.163 C18.327,15.182 17.723,15.771 17.186,16.091 C16.286,16.629 15.394,16.119 14.993,15.611 L14.047,14.415 C13.633,13.89 13.508,13.193 13.715,12.557 C13.921,11.921 14.432,11.431 15.076,11.25 L16.544,10.837 C17.167,10.662 18.188,10.774 18.6,11.738 Z M10.21,5.642 C11.255,5.736 11.677,6.673 11.703,7.319 L11.764,8.843 C11.791,9.511 11.482,10.148 10.941,10.541 C10.4,10.934 9.699,11.031 9.072,10.799 L7.642,10.269 C7.035,10.046 6.274,9.355 6.508,8.332 C6.647,7.723 7.02,6.967 7.886,6.337 C8.753,5.707 9.588,5.587 10.21,5.642 Z M9.714,7.652 C9.477,7.704 9.255,7.808 9.062,7.955 C8.862,8.093 8.695,8.273 8.572,8.482 L9.766,8.924 Z M14.287,7.652 L14.237,8.924 L15.43,8.482 C15.307,8.273 15.14,8.093 14.94,7.955 C14.772,7.828 14.582,7.733 14.38,7.674 Z M16.843,12.831 L15.618,13.175 L16.407,14.174 C16.568,13.992 16.688,13.778 16.757,13.545 C16.853,13.247 16.865,13.011 16.843,12.831 Z M12,15.802 L11.294,16.862 C11.458,16.938 11.687,17 12,17 C12.26,17 12.463,16.957 12.618,16.898 L12.706,16.862 Z M7.159,12.831 C7.137,13.011 7.149,13.247 7.246,13.545 C7.326,13.793 7.43,13.972 7.533,14.102 L7.595,14.174 L8.385,13.175 Z"/>
</svg>

