<svg xmlns="http://www.w3.org/2000/svg" width="24" height="24">
  <defs/>
  <path  d="M12,2 C17.523,2 22,6.477 22,12 C22,17.523 17.523,22 12,22 C6.477,22 2,17.523 2,12 C2,6.477 6.477,2 12,2 Z M7.208,11.226 C6.658,11.071 5.756,11.169 5.392,12.022 C5.175,12.529 5.049,13.263 5.342,14.164 C5.634,15.064 6.167,15.584 6.642,15.867 C7.39,16.314 8.132,15.941 8.512,15.522 L8.579,15.443 L9.414,14.386 C9.764,13.942 9.881,13.358 9.729,12.813 C9.576,12.269 9.172,11.831 8.642,11.634 L8.505,11.59 L7.208,11.225 Z M16.792,11.226 L15.495,11.59 C14.926,11.75 14.475,12.183 14.293,12.745 C14.11,13.307 14.22,13.922 14.586,14.386 L15.421,15.443 C15.775,15.891 16.563,16.343 17.359,15.867 C17.832,15.584 18.366,15.064 18.659,14.164 C18.951,13.264 18.825,12.529 18.608,12.022 C18.244,11.169 17.341,11.071 16.792,11.226 Z M7.885,6.336 C7.119,6.892 6.79,7.56 6.667,8.099 C6.461,9.002 7.133,9.612 7.668,9.81 L8.932,10.278 C9.486,10.483 10.105,10.397 10.583,10.05 C11.061,9.703 11.334,9.14 11.31,8.55 L11.256,7.203 C11.233,6.633 10.861,5.805 9.938,5.723 C9.388,5.673 8.65,5.78 7.885,6.336 Z M16.115,6.336 C15.35,5.78 14.612,5.673 14.063,5.722 C13.193,5.8 12.813,6.538 12.752,7.1 L12.744,7.203 L12.69,8.55 C12.668,9.116 12.918,9.658 13.362,10.008 C13.807,10.358 14.392,10.474 14.937,10.32 L15.068,10.278 L16.332,9.81 C16.867,9.612 17.539,9.002 17.333,8.098 C17.211,7.56 16.881,6.892 16.115,6.336 Z M10.53,15.197 L9.783,16.317 C9.466,16.793 9.281,17.681 9.979,18.291 C10.394,18.654 11.054,19.001 12,19.001 C12.946,19.001 13.606,18.654 14.021,18.291 C14.719,17.681 14.534,16.793 14.217,16.318 L13.47,15.197 C13.142,14.706 12.591,14.411 12,14.411 C11.409,14.411 10.858,14.706 10.53,15.197 Z"/>
</svg>

