<svg xmlns="http://www.w3.org/2000/svg" width="24" height="24">
  <defs/>
  <path  d="M2.638,4.929 C3.243,4.324 4.116,4.07 4.951,4.257 C5.787,4.444 6.468,5.046 6.758,5.851 C9.261,4.852 12.116,5.379 14.098,7.205 L14.305,7.403 L22.083,15.182 C22.439,15.538 22.475,16.104 22.166,16.502 L22.083,16.596 L19.962,18.717 C19.655,19.025 19.184,19.098 18.797,18.899 L18.686,18.832 L15.102,16.352 C12.974,19.437 8.793,20.298 5.619,18.306 C2.445,16.314 1.402,12.175 3.255,8.917 C2.547,8.55 2.057,7.868 1.935,7.08 C1.813,6.292 2.074,5.493 2.638,4.929 Z M5.82,8.818 C4.413,10.228 3.977,12.339 4.71,14.191 C5.444,16.043 7.206,17.283 9.197,17.347 C11.188,17.412 13.027,16.289 13.879,14.488 C14.004,14.222 14.24,14.025 14.524,13.949 C14.807,13.873 15.11,13.925 15.352,14.092 L19.138,16.712 L19.962,15.889 L12.891,8.818 C10.938,6.865 7.773,6.865 5.82,8.818 Z M11.476,10.232 C12.244,10.988 12.548,12.097 12.272,13.139 C11.996,14.181 11.183,14.994 10.141,15.271 C9.1,15.547 7.99,15.243 7.234,14.475 C6.062,13.303 6.062,11.404 7.234,10.232 C8.406,9.06 10.305,9.06 11.477,10.232 Z M8.649,11.647 C8.389,11.898 8.285,12.27 8.376,12.62 C8.468,12.969 8.741,13.242 9.09,13.334 C9.44,13.425 9.812,13.321 10.063,13.061 C10.454,12.671 10.454,12.037 10.064,11.646 C9.673,11.256 9.04,11.256 8.649,11.646 Z M4.76,6.342 C4.634,6.212 4.449,6.16 4.274,6.206 C4.099,6.251 3.962,6.388 3.917,6.563 C3.871,6.738 3.923,6.923 4.053,7.049 C4.249,7.238 4.561,7.236 4.754,7.043 C4.947,6.85 4.949,6.538 4.76,6.342 Z"/>
</svg>

