<svg xmlns="http://www.w3.org/2000/svg" width="24" height="24">
  <defs/>
  <path  d="M2.638,4.929 A2.5 2.5 0 0 1 6.758,5.851 A7.003 7.003 0 0 1 14.098,7.205 L14.305,7.404 L22.083,15.182 C22.439,15.537 22.466,16.113 22.165,16.503 L22.083,16.596 L19.962,18.718 A1 1 0 0 1 18.797,18.9 L18.686,18.833 L15.102,16.352 A7 7 0 0 1 3.255,8.917 A2.5 2.5 0 0 1 2.638,4.929 M11.83,9.886 A3.5 3.5 0 1 0 6.88,14.836 A3.5 3.5 0 0 0 11.83,9.886 M8.295,11.3 A1.5 1.5 0 1 1 10.415,13.421 A1.5 1.5 0 0 1 8.295,11.3 M4.759,6.343 A0.5 0.5 0 1 0 4.052,7.05 A0.5 0.5 0 0 0 4.759,6.343"/>
</svg>

