<svg xmlns="http://www.w3.org/2000/svg" width="24" height="24">
  <defs/>
  <path  d="M12,16.5 A1.5 1.5 0 1 1 12,19.5 A1.5 1.5 0 0 1 12,16.5 M12,12.5 A5.49 5.49 0 0 1 15.889,14.11 A1.5 1.5 0 0 1 13.882,16.335 L13.768,16.232 A2.488 2.488 0 0 0 12,15.5 C11.378,15.5 10.811,15.725 10.373,16.101 L10.233,16.232 A1.5 1.5 0 0 1 8.111,14.111 A5.488 5.488 0 0 1 12,12.5 M12,8.5 C14.623,8.5 17,9.565 18.717,11.283 A1.5 1.5 0 1 1 16.597,13.403 A6.475 6.475 0 0 0 12,11.5 A6.475 6.475 0 0 0 7.404,13.404 A1.5 1.5 0 1 1 5.282,11.283 A9.475 9.475 0 0 1 12,8.5 M12,4.5 C15.727,4.5 19.105,6.013 21.546,8.454 A1.5 1.5 0 1 1 19.424,10.575 A10.462 10.462 0 0 0 12,7.5 C9.1,7.5 6.477,8.674 4.575,10.575 A1.5 1.5 0 1 1 2.454,8.455 A13.462 13.462 0 0 1 12,4.5"/>
</svg>

