<svg xmlns="http://www.w3.org/2000/svg" width="24" height="24">
  <defs/>
  <path  d="M3.868,2.868 A1.5 1.5 0 0 1 5.876,2.765 L5.99,2.868 L8.172,5.051 A13.5 13.5 0 0 1 12,4.5 C15.727,4.5 19.105,6.013 21.546,8.454 A1.5 1.5 0 1 1 19.424,10.575 A10.462 10.462 0 0 0 11.129,7.535 L10.701,7.579 L11.629,8.507 A9.475 9.475 0 0 1 18.718,11.282 A1.5 1.5 0 1 1 16.596,13.404 A6.553 6.553 0 0 0 16.198,13.037 L15.988,12.867 L20.132,17.01 A1.5 1.5 0 0 1 18.124,19.235 L18.01,19.132 L3.868,4.99 A1.5 1.5 0 0 1 3.868,2.868 M12,16.5 L12.144,16.507 A1.5 1.5 0 1 1 11.856,16.507 Z M10.034,12.862 L12.803,15.632 A2.499 2.499 0 0 0 12,15.5 C11.378,15.5 10.811,15.725 10.373,16.101 L10.233,16.232 A1.5 1.5 0 0 1 8.111,14.111 A5.512 5.512 0 0 1 9.764,12.974 Z M7.057,9.886 L9.27,12.099 A6.514 6.514 0 0 0 7.404,13.404 A1.5 1.5 0 1 1 5.282,11.283 A9.533 9.533 0 0 1 7.057,9.886 M4.172,7 L6.332,9.16 C5.696,9.568 5.107,10.043 4.575,10.575 A1.5 1.5 0 1 1 2.454,8.455 A13.338 13.338 0 0 1 4.172,7"/>
</svg>

