<svg xmlns="http://www.w3.org/2000/svg" width="24" height="24">
  <defs/>
  <path  d="M4.222,3.222 A1 1 0 0 1 5.542,3.139 L5.636,3.222 L8.031,5.617 A12.99 12.99 0 0 1 12,5 C15.59,5 18.84,6.456 21.192,8.808 A1 1 0 0 1 19.778,10.222 A10.962 10.962 0 0 0 12,7 C11.358,7 10.73,7.055 10.118,7.16 L9.663,7.249 L11.432,9.018 A8.975 8.975 0 0 1 18.364,11.636 A1 1 0 0 1 16.95,13.05 A6.991 6.991 0 0 0 13.893,11.259 L13.597,11.183 L19.778,17.364 A1 1 0 0 1 18.458,18.861 L18.364,18.778 L4.222,4.636 A1 1 0 0 1 4.222,3.222 M12,17 L12.117,17.007 A1 1 0 1 1 11.883,17.007 Z M10.753,13.157 L12.671,15.075 A2.987 2.987 0 0 0 9.879,15.878 A1 1 0 0 1 8.464,14.464 A5.002 5.002 0 0 1 10.492,13.232 L10.752,13.157 Z M7.693,10.097 L9.185,11.589 A7.01 7.01 0 0 0 7.05,13.05 A1 1 0 0 1 5.636,11.636 A9.028 9.028 0 0 1 7.692,10.096 Z M4.783,7.187 L6.229,8.633 A11.06 11.06 0 0 0 4.222,10.222 A1 1 0 0 1 2.808,8.808 A13.059 13.059 0 0 1 4.782,7.186 Z"/>
</svg>

