<svg xmlns="http://www.w3.org/2000/svg" width="24" height="24">
  <defs/>
  <path  d="M12,17 A1 1 0 1 1 12,19 A1 1 0 0 1 12,17 M12,13 C13.38,13 14.632,13.56 15.536,14.464 A1 1 0 0 1 14.121,15.879 A2.988 2.988 0 0 0 12,15 C11.171,15 10.423,15.335 9.879,15.879 A1 1 0 0 1 8.464,14.464 A4.987 4.987 0 0 1 12,13 M12,9 A8.975 8.975 0 0 1 18.364,11.636 A1 1 0 0 1 16.95,13.05 A6.975 6.975 0 0 0 12,11 A6.975 6.975 0 0 0 7.05,13.05 A1 1 0 0 1 5.636,11.636 A8.975 8.975 0 0 1 12,9 M12,5 C15.59,5 18.84,6.456 21.192,8.808 A1 1 0 0 1 19.778,10.222 A10.962 10.962 0 0 0 12,7 A10.96 10.96 0 0 0 4.222,10.222 A1 1 0 0 1 2.808,8.808 A12.962 12.962 0 0 1 12,5"/>
</svg>

