<svg xmlns="http://www.w3.org/2000/svg" width="24" height="24">
  <defs/>
  <path  d="M18.5,8 C17.787,8 17.173,8.501 17.03,9.199 C16.92,9.74 16.392,10.09 15.851,9.98 C15.31,9.87 14.96,9.342 15.07,8.801 C15.438,6.996 17.142,5.785 18.967,6.031 C20.793,6.277 22.115,7.896 21.992,9.734 C21.868,11.572 20.342,13 18.5,13 L3,13 C2.448,13 2,12.552 2,12 C2,11.448 2.448,11 3,11 L18.5,11 C19.328,11 20,10.328 20,9.5 C20,8.672 19.328,8 18.5,8 Z M13.03,18.801 C13.188,19.574 13.919,20.092 14.701,19.986 C15.483,19.881 16.049,19.187 15.996,18.399 C15.943,17.612 15.289,17 14.5,17 L8,17 C7.448,17 7,16.552 7,16 C7,15.448 7.448,15 8,15 L14.5,15 C16.342,15 17.868,16.428 17.992,18.266 C18.115,20.104 16.793,21.723 14.967,21.969 C13.142,22.215 11.438,21.004 11.07,19.199 C10.96,18.658 11.31,18.13 11.851,18.02 C12.392,17.91 12.92,18.26 13.03,18.801 Z M10.5,4 C9.787,4 9.173,4.501 9.03,5.199 C8.92,5.74 8.392,6.09 7.851,5.979 C7.309,5.869 6.96,5.341 7.07,4.8 C7.438,2.995 9.142,1.785 10.967,2.031 C12.793,2.278 14.115,3.897 13.991,5.734 C13.868,7.572 12.342,9 10.5,9 L5,9 C4.448,9 4,8.552 4,8 C4,7.448 4.448,7 5,7 L10.5,7 C11.328,7 12,6.328 12,5.5 C12,4.672 11.328,4 10.5,4 Z"/>
</svg>

