<svg xmlns="http://www.w3.org/2000/svg" width="24" height="24">
  <defs/>
  <path  d="M3,5.882 C3,4.874 3.751,4.023 4.752,3.898 L19.314,2.078 C19.741,2.025 20.17,2.157 20.493,2.442 C20.815,2.726 21,3.136 21,3.566 L21,20.434 C21,20.864 20.815,21.274 20.493,21.558 C20.17,21.843 19.741,21.975 19.314,21.922 L4.752,20.102 C3.751,19.977 3,19.126 3,18.117 Z M12,5.008 L12,11 L19,11 L19,4.133 Z M12,18.992 L19,19.867 L19,13 L12,13 Z M10,13 L5,13 L5,18.117 L10,18.742 Z M10,5.258 L5,5.883 L5,11 L10,11 Z"/>
</svg>

