<svg xmlns="http://www.w3.org/2000/svg" width="24" height="24">
  <defs/>
  <path  d="M18.5,8.5 C18.102,8.5 17.742,8.735 17.583,9.1 C17.252,9.859 16.367,10.206 15.608,9.875 C14.849,9.544 14.502,8.659 14.833,7.9 C15.632,6.069 17.659,5.108 19.582,5.65 C21.505,6.191 22.734,8.067 22.462,10.046 C22.189,12.025 20.498,13.5 18.5,13.5 L3,13.5 C2.172,13.5 1.5,12.828 1.5,12 C1.5,11.172 2.172,10.5 3,10.5 L18.5,10.5 C19.052,10.5 19.5,10.052 19.5,9.5 C19.5,8.948 19.052,8.5 18.5,8.5 Z M13.583,18.9 C13.783,19.358 14.29,19.598 14.77,19.463 C15.251,19.327 15.558,18.858 15.49,18.364 C15.422,17.869 14.999,17.5 14.5,17.5 L8,17.5 C7.172,17.5 6.5,16.828 6.5,16 C6.5,15.172 7.172,14.5 8,14.5 L14.5,14.5 C16.498,14.5 18.189,15.974 18.462,17.953 C18.736,19.932 17.507,21.809 15.584,22.35 C13.661,22.892 11.633,21.931 10.834,20.1 C10.608,19.607 10.666,19.03 10.985,18.592 C11.304,18.153 11.836,17.921 12.374,17.985 C12.913,18.049 13.375,18.399 13.583,18.9 Z M10.5,4.5 C10.102,4.5 9.742,4.735 9.583,5.1 C9.252,5.859 8.367,6.206 7.608,5.875 C6.849,5.544 6.502,4.659 6.833,3.9 C7.632,2.069 9.659,1.108 11.582,1.65 C13.505,2.191 14.734,4.067 14.462,6.046 C14.189,8.025 12.498,9.5 10.5,9.5 L5,9.5 C4.172,9.5 3.5,8.828 3.5,8 C3.5,7.172 4.172,6.5 5,6.5 L10.5,6.5 C11.052,6.5 11.5,6.052 11.5,5.5 C11.5,4.948 11.052,4.5 10.5,4.5 Z"/>
</svg>

