<svg xmlns="http://www.w3.org/2000/svg" width="24" height="24">
  <defs/>
  <path  d="M11.42,2 L12.58,2 C13.62,2 14.487,2.797 14.573,3.834 L14.956,8.436 L16.664,9.574 C17.499,10.13 18,11.067 18,12.07 L18,19 C18,20.657 16.657,22 15,22 L9,22 C7.343,22 6,20.657 6,19 L6,12.07 C6,11.067 6.501,10.13 7.336,9.574 L9.044,8.436 L9.427,3.834 C9.513,2.797 10.38,2 11.42,2 Z M16,14 L16,12.07 C16,11.736 15.833,11.424 15.555,11.238 L13.847,10.1 C13.339,9.762 13.014,9.21 12.963,8.602 L12.58,4 L11.42,4 L11.037,8.602 C10.986,9.21 10.661,9.762 10.153,10.1 L8.445,11.238 C8.167,11.424 8,11.736 8,12.07 L8,19 C8,19.552 8.448,20 9,20 L15,20 C15.552,20 16,19.552 16,19 L16,16 L12,16 C11.448,16 11,15.552 11,15 C11,14.448 11.448,14 12,14 Z"/>
</svg>

