<svg xmlns="http://www.w3.org/2000/svg" width="24" height="24">
  <defs/>
  <path  d="M12.58,2 C13.561,2 14.397,2.712 14.554,3.68 L14.573,3.834 L14.956,8.436 L16.664,9.574 C17.44,10.091 17.932,10.94 17.994,11.871 L18,12.071 L18,19 C18,20.589 16.762,21.902 15.176,21.995 L15,22 L9,22 C7.411,22 6.098,20.762 6.005,19.176 L6,19 L6,12.07 C6,11.137 6.433,10.258 7.173,9.69 L7.336,9.574 L9.044,8.436 L9.427,3.834 C9.508,2.856 10.287,2.082 11.265,2.006 L11.42,2 Z M16,14 L12,14 C11.448,14 11,14.448 11,15 C11,15.552 11.448,16 12,16 L16,16 C16.552,16 17,15.552 17,15 C17,14.448 16.552,14 16,14 Z"/>
</svg>

