<svg xmlns="http://www.w3.org/2000/svg" width="24" height="24">
  <defs/>
  <path  d="M4.734,5.056 C6.284,4.516 8.646,4 12,4 C15.354,4 17.716,4.516 19.266,5.056 C20.074,5.336 20.945,5.678 21.624,6.218 C21.958,6.486 22.087,6.95 21.936,7.351 L18.936,15.351 C18.747,15.855 18.194,16.119 17.684,15.949 C17.1,15.762 16.507,15.604 15.908,15.476 C14.881,15.248 13.555,15.026 12.232,15.002 L12.677,16.661 C13.232,16.941 13.556,17.535 13.493,18.154 C13.429,18.773 12.99,19.288 12.389,19.449 C11.788,19.61 11.151,19.383 10.786,18.88 C10.421,18.376 10.405,17.7 10.745,17.179 L10.192,15.114 C9.428,15.205 8.707,15.34 8.092,15.476 C7.496,15.609 6.902,15.758 6.32,15.947 L6.316,15.949 C5.806,16.119 5.253,15.855 5.064,15.351 L2.064,7.351 C1.912,6.946 2.037,6.489 2.375,6.219 L2.376,6.219 C3.055,5.678 3.926,5.336 4.734,5.056 Z M12,13 C13.601,13 15.179,13.266 16.342,13.524 C16.693,13.602 17.043,13.687 17.39,13.78 L19.771,7.429 C19.489,7.287 19.106,7.117 18.609,6.944 C17.284,6.484 15.146,6 12.001,6 C8.854,6 6.716,6.485 5.391,6.944 C4.994,7.08 4.605,7.242 4.229,7.429 L6.611,13.78 C7.617,13.512 8.638,13.306 9.669,13.165 L8.705,9.565 C8.611,9.219 8.709,8.849 8.962,8.596 C9.215,8.342 9.584,8.243 9.93,8.337 C10.276,8.43 10.546,8.701 10.637,9.048 L11.697,13.003 C11.797,13.001 11.899,13 12,13 Z"/>
</svg>

