<svg xmlns="http://www.w3.org/2000/svg" width="24" height="24">
  <defs/>
  <path  d="M12.232,15.002 L12.677,16.661 A1.5 1.5 0 1 1 10.745,17.179 L10.189,15.103 C10.642,15.053 11.096,15.02 11.549,15.007 L12,15 C12.077,15 12.155,15 12.232,15.002 M12,4 C14.48,4 16.416,4.282 17.884,4.647 L18.383,4.779 C18.543,4.824 18.696,4.869 18.843,4.916 L19.266,5.056 L19.698,5.21 L19.891,5.283 L20.233,5.419 L20.523,5.543 L20.65,5.601 L20.871,5.709 L21.053,5.806 L21.13,5.851 L21.262,5.934 L21.452,6.073 L21.625,6.219 A1 1 0 0 1 21.936,7.351 L18.936,15.351 A1.01 1.01 0 0 1 17.68,15.947 C15.939,15.382 14.065,15.029 12.232,15.002 L10.637,9.048 A1 1 0 0 0 8.705,9.565 L10.188,15.103 C9.068,15.228 7.95,15.461 6.875,15.776 L6.316,15.949 A1 1 0 0 1 5.064,15.351 L2.064,7.351 A1 1 0 0 1 2.375,6.219 C3.052,5.678 3.928,5.336 4.734,5.056 C5.004,4.962 5.298,4.869 5.617,4.779 L6.117,4.647 C7.583,4.282 9.52,4 12,4"/>
</svg>

