<svg xmlns="http://www.w3.org/2000/svg" width="24" height="24">
  <defs/>
  <path  d="M12,2 C17.523,2 22,6.477 22,12 C22,17.523 17.523,22 12,22 C6.477,22 2,17.523 2,12 C2,6.477 6.477,2 12,2 M14,13.4 L12.436,14.651 A0.5 0.5 0 0 0 12.395,15.395 L13.634,16.634 A2 2 0 0 1 14.142,17.498 L14.317,18.111 A1.8 1.8 0 0 0 15.334,19.274 A8.021 8.021 0 0 0 17.867,17.439 L17.633,15.562 A2 2 0 0 0 16.543,14.022 L15.073,13.286 A1 1 0 0 0 14,13.4 M12,4 A7.987 7.987 0 0 0 5.665,7.114 L5.5,7.335 L5.5,9.02 A3 3 0 0 0 7.445,11.829 L7.623,11.889 L8.913,12.284 C10.286,12.704 11.623,11.587 11.49,10.188 L11.471,10.043 L11.296,8.994 A1 1 0 0 1 11.952,7.886 L12.06,7.856 L12.672,7.716 A2.667 2.667 0 0 0 14.661,4.453 A7.987 7.987 0 0 0 12,4"/>
</svg>

