<svg xmlns="http://www.w3.org/2000/svg" width="24" height="24">
  <defs/>
  <path  d="M12,2 C17.523,2 22,6.477 22,12 C22,17.523 17.523,22 12,22 C6.477,22 2,17.523 2,12 C2,6.477 6.477,2 12,2 M19.194,15.505 A17.942 17.942 0 0 1 12,17 C9.444,17 7.01,16.466 4.807,15.505 A8 8 0 0 0 12,20 A8 8 0 0 0 19.194,15.505 M19.432,9.032 A14.936 14.936 0 0 1 12,11 C9.297,11 6.76,10.284 4.568,9.032 A7.979 7.979 0 0 0 4.048,12.888 A15.922 15.922 0 0 0 12,15 C14.896,15 17.61,14.231 19.951,12.888 A7.978 7.978 0 0 0 19.431,9.033 Z M12,4 A7.989 7.989 0 0 0 5.538,7.283 A12.936 12.936 0 0 0 12,9 A12.94 12.94 0 0 0 18.462,7.283 A7.989 7.989 0 0 0 12,4"/>
</svg>

