<svg xmlns="http://www.w3.org/2000/svg" width="24" height="24">
  <defs/>
  <path  d="M12,2 C17.523,2 22,6.477 22,12 C22,16.3 19.286,19.966 15.478,21.378 C15.414,21.413 15.346,21.442 15.275,21.462 L15.18,21.484 C14.155,21.827 13.081,22.001 12,22 C6.477,22 2,17.523 2,12 C2,6.477 6.477,2 12,2 Z M14.91,4.546 L14.734,5.427 C14.502,6.585 13.612,7.5 12.461,7.763 L12.06,7.855 C11.544,7.973 11.209,8.473 11.296,8.995 L11.471,10.043 C11.584,10.726 11.336,11.419 10.816,11.875 C10.295,12.331 9.575,12.486 8.913,12.283 L7.623,11.889 C6.362,11.503 5.5,10.339 5.5,9.02 L5.5,7.335 C3.561,10.034 3.493,13.65 5.329,16.421 C7.164,19.191 10.521,20.538 13.762,19.805 L13.181,17.773 C13.134,17.61 13.046,17.461 12.926,17.341 L11.688,16.102 C11.386,15.8 11.227,15.385 11.251,14.959 C11.274,14.532 11.478,14.137 11.811,13.87 L13.376,12.619 C13.985,12.132 14.822,12.043 15.52,12.392 L16.99,13.127 C17.887,13.576 18.501,14.443 18.625,15.438 L18.735,16.319 C20.029,14.3 20.35,11.808 19.609,9.527 C18.868,7.247 17.143,5.419 14.91,4.546 Z M12,4 C10.392,3.997 8.821,4.482 7.494,5.389 C7.498,5.425 7.5,5.462 7.5,5.5 L7.5,9.02 C7.5,9.46 7.787,9.848 8.207,9.977 L9.498,10.371 L9.323,9.323 C9.062,7.757 10.066,6.259 11.614,5.905 L12.015,5.814 C12.399,5.726 12.696,5.421 12.773,5.034 L12.969,4.058 C12.647,4.019 12.324,4 12,4 Z M14.625,14.181 L13.497,15.083 L14.341,15.926 C14.649,16.235 14.886,16.606 15.036,17.016 L15.104,17.224 L15.647,19.122 C15.997,18.942 16.333,18.737 16.651,18.51 L16.964,18.274 L16.641,15.686 C16.605,15.398 16.445,15.139 16.203,14.978 L16.095,14.916 Z"/>
</svg>

