<svg xmlns="http://www.w3.org/2000/svg" width="24" height="24">
  <defs/>
  <path  d="M21.43,15.335 A10.003 10.003 0 0 1 12,22 C7.647,22 3.943,19.218 2.57,15.335 A17.916 17.916 0 0 0 12,18 C15.458,18 18.688,17.025 21.43,15.335 M21.126,7.905 A9.964 9.964 0 0 1 21.988,12.501 A15.933 15.933 0 0 1 12,16 C8.222,16 4.75,14.69 2.012,12.5 A9.964 9.964 0 0 1 2.874,7.905 A14.935 14.935 0 0 0 12,11 C15.434,11 18.598,9.846 21.126,7.905 M12,2 A9.99 9.99 0 0 1 20.116,6.156 A12.945 12.945 0 0 1 12,9 C8.93,9 6.108,7.936 3.884,6.156 A9.987 9.987 0 0 1 12,2"/>
</svg>

