<svg xmlns="http://www.w3.org/2000/svg" width="24" height="24">
  <defs/>
  <path  d="M14.426,2.76 L14.594,2.897 C14.924,3.177 15.297,3.35 15.714,3.414 L15.895,3.436 C17.777,3.586 19.298,5.032 19.543,6.904 L19.564,7.104 C19.599,7.536 19.741,7.922 19.99,8.262 L20.103,8.405 C21.378,9.9 21.378,12.1 20.103,13.595 C19.823,13.923 19.65,14.297 19.585,14.714 L19.565,14.894 C19.415,16.777 17.969,18.298 16.096,18.543 L15.896,18.564 C15.436,18.591 14.997,18.765 14.643,19.061 L14.513,19.171 C14.557,19.446 14.705,19.641 14.89,19.794 C15,19.886 15.12,19.955 15.207,20 L15.327,20.055 C15.845,20.234 16.122,20.796 15.949,21.316 C15.77,21.837 15.206,22.118 14.682,21.948 C14.29,21.809 13.927,21.6 13.61,21.331 C13.182,20.981 12.857,20.522 12.668,20.002 C12.226,20.077 11.774,20.077 11.332,20.002 C11.143,20.522 10.818,20.981 10.39,21.331 C10.063,21.603 9.704,21.784 9.316,21.949 C8.815,22.117 8.27,21.866 8.071,21.377 C7.872,20.887 8.089,20.327 8.566,20.099 L8.736,20.028 C8.819,19.988 8.972,19.908 9.11,19.794 C9.295,19.64 9.444,19.446 9.487,19.17 L9.357,19.061 C9.05,18.802 8.675,18.636 8.277,18.583 L8.105,18.564 C6.223,18.414 4.702,16.968 4.457,15.096 L4.436,14.895 C4.406,14.477 4.258,14.076 4.01,13.738 L3.897,13.594 C2.623,12.099 2.623,9.9 3.897,8.405 C4.177,8.076 4.35,7.703 4.415,7.286 L4.435,7.105 C4.585,5.223 6.032,3.702 7.904,3.457 L8.105,3.436 C8.523,3.406 8.924,3.258 9.262,3.01 L9.406,2.897 C10.839,1.676 12.929,1.619 14.426,2.761 Z M13.002,7.843 L12.887,7.756 C12.417,7.355 11.736,7.319 11.226,7.669 L11.113,7.756 C10.93,7.912 10.71,8.016 10.476,8.06 L10.334,8.079 C9.709,8.129 9.204,8.595 9.096,9.202 L9.079,9.334 C9.059,9.573 8.979,9.802 8.844,9.999 L8.756,10.112 C8.355,10.583 8.32,11.264 8.67,11.774 L8.756,11.887 C8.912,12.07 9.016,12.29 9.06,12.524 L9.079,12.666 C9.129,13.291 9.595,13.796 10.202,13.904 L10.334,13.921 C10.574,13.941 10.802,14.021 10.999,14.156 L11.113,14.244 C11.584,14.645 12.264,14.68 12.774,14.33 L12.888,14.244 C13.07,14.088 13.29,13.984 13.524,13.94 L13.666,13.921 C14.286,13.872 14.795,13.41 14.904,12.798 L14.921,12.666 C14.941,12.426 15.021,12.198 15.157,12.001 L15.244,11.887 C15.645,11.416 15.681,10.735 15.331,10.225 L15.244,10.112 C15.089,9.93 14.984,9.711 14.94,9.476 L14.921,9.334 C14.872,8.714 14.41,8.205 13.798,8.096 L13.666,8.079 C13.427,8.059 13.198,7.979 13.001,7.843 Z M16.243,13.828 C15.87,13.452 15.269,13.431 14.871,13.781 C14.474,14.132 14.419,14.731 14.745,15.148 L14.829,15.243 L15.793,16.207 C16.166,16.579 16.765,16.597 17.16,16.249 C17.556,15.9 17.613,15.304 17.29,14.887 L17.207,14.793 Z M8.207,5.793 C7.834,5.421 7.235,5.403 6.84,5.751 C6.444,6.1 6.387,6.696 6.71,7.113 L6.793,7.207 L7.757,8.171 C8.13,8.547 8.731,8.568 9.129,8.218 C9.526,7.867 9.581,7.268 9.255,6.851 L9.172,6.757 Z M15.793,5.793 L14.829,6.757 C14.569,7.008 14.465,7.38 14.556,7.73 C14.648,8.079 14.921,8.352 15.27,8.444 C15.62,8.535 15.992,8.431 16.243,8.171 L17.207,7.207 C17.586,6.815 17.581,6.191 17.195,5.805 C16.809,5.419 16.185,5.414 15.793,5.793 Z M9.172,13.828 C8.816,13.472 8.25,13.436 7.852,13.745 L7.757,13.828 L6.793,14.793 C6.421,15.166 6.403,15.765 6.751,16.16 C7.1,16.556 7.696,16.613 8.113,16.29 L8.207,16.207 L9.172,15.242 C9.562,14.852 9.562,14.219 9.172,13.828 Z"/>
</svg>

