<svg xmlns="http://www.w3.org/2000/svg" width="24" height="24">
  <defs/>
  <path  d="M14.595,2.897 C14.959,3.212 15.415,3.4 15.895,3.435 C17.853,3.591 19.408,5.147 19.564,7.105 C19.603,7.597 19.783,8.031 20.103,8.405 C21.377,9.9 21.377,12.099 20.103,13.594 C19.784,13.969 19.603,14.402 19.565,14.894 C19.409,16.853 17.854,18.408 15.895,18.564 C15.441,18.6 15.016,18.743 14.665,19.043 C14.614,19.086 14.565,19.129 14.513,19.17 C14.555,19.418 14.691,19.641 14.891,19.794 C15.018,19.898 15.16,19.984 15.311,20.049 C15.82,20.248 16.129,20.776 15.949,21.316 C15.774,21.84 15.208,22.123 14.684,21.948 L14.682,21.948 C14.292,21.817 13.924,21.592 13.61,21.331 C13.256,21.036 12.878,20.598 12.668,20.002 C12.226,20.077 11.774,20.077 11.332,20.002 C11.121,20.598 10.744,21.035 10.39,21.331 C10.076,21.592 9.708,21.817 9.318,21.948 C8.801,22.121 8.224,21.834 8.051,21.316 C7.877,20.796 8.155,20.233 8.674,20.054 C8.83,19.994 8.98,19.902 9.11,19.794 C9.295,19.64 9.444,19.446 9.487,19.17 C9.435,19.129 9.385,19.086 9.335,19.043 C8.984,18.744 8.559,18.6 8.105,18.564 C6.147,18.408 4.592,16.853 4.436,14.895 C4.397,14.402 4.217,13.969 3.897,13.595 C2.622,12.1 2.622,9.9 3.897,8.405 C4.212,8.041 4.401,7.585 4.435,7.105 C4.591,5.147 6.147,3.592 8.105,3.436 C8.598,3.397 9.031,3.217 9.405,2.897 C10.9,1.622 13.1,1.622 14.595,2.897 Z M11.761,8.517 C11.382,8.84 10.91,9.035 10.414,9.075 C10.234,9.089 10.09,9.233 10.076,9.413 C10.037,9.91 9.841,10.381 9.517,10.761 C9.399,10.899 9.399,11.101 9.517,11.239 C9.84,11.618 10.036,12.089 10.076,12.586 C10.09,12.766 10.234,12.91 10.414,12.924 C10.911,12.964 11.382,13.159 11.761,13.482 C11.899,13.6 12.101,13.6 12.239,13.482 C12.618,13.159 13.09,12.964 13.587,12.924 C13.767,12.909 13.91,12.766 13.924,12.586 C13.964,12.089 14.159,11.618 14.483,11.239 C14.601,11.101 14.601,10.899 14.483,10.761 C14.159,10.382 13.964,9.91 13.924,9.413 C13.91,9.233 13.767,9.09 13.587,9.075 C13.089,9.036 12.619,8.84 12.239,8.517 C12.101,8.399 11.899,8.399 11.761,8.517 Z M14.368,14.782 C14.168,14.855 13.959,14.901 13.746,14.918 C13.669,14.924 13.595,14.955 13.536,15.005 C12.651,15.759 11.349,15.759 10.464,15.005 C10.405,14.955 10.331,14.924 10.254,14.918 C10.041,14.901 9.832,14.855 9.632,14.782 L8.207,16.207 C8.084,16.33 7.931,16.419 7.763,16.465 C7.956,16.532 8.153,16.561 8.356,16.578 C9.235,16.648 10.036,17.013 10.703,17.581 C11.45,18.218 12.55,18.218 13.297,17.581 C13.964,17.013 14.766,16.648 15.644,16.578 C15.846,16.565 16.045,16.527 16.237,16.465 C16.069,16.419 15.916,16.33 15.793,16.207 Z M17.208,7.207 L15.783,8.631 C15.856,8.832 15.901,9.041 15.918,9.254 C15.924,9.331 15.955,9.405 16.005,9.464 C16.759,10.349 16.759,11.65 16.005,12.535 C15.955,12.594 15.924,12.668 15.918,12.745 C15.901,12.963 15.854,13.172 15.783,13.368 L17.207,14.793 C17.33,14.916 17.419,15.069 17.465,15.237 C17.532,15.044 17.562,14.846 17.578,14.644 C17.645,13.805 17.975,13.008 18.521,12.367 C19.173,11.602 19.253,10.492 18.581,9.703 C18.013,9.036 17.648,8.234 17.578,7.356 C17.562,7.153 17.532,6.955 17.465,6.763 C17.42,6.931 17.331,7.084 17.208,7.207 Z M13.368,4.479 C12.586,3.792 11.415,3.792 10.633,4.479 C9.992,5.025 9.195,5.355 8.356,5.422 C8.153,5.438 7.956,5.467 7.763,5.535 C7.931,5.581 8.084,5.67 8.207,5.793 L9.632,7.217 C9.832,7.144 10.042,7.099 10.254,7.082 C10.331,7.076 10.405,7.045 10.464,6.995 C11.349,6.241 12.651,6.241 13.536,6.995 C13.595,7.045 13.669,7.076 13.746,7.082 C13.959,7.099 14.168,7.144 14.369,7.217 L15.793,5.793 C15.916,5.67 16.069,5.581 16.237,5.535 C16.044,5.467 15.846,5.438 15.644,5.422 C14.805,5.355 14.009,5.025 13.368,4.479 Z M6.535,15.237 L6.535,15.236 C6.581,15.068 6.67,14.915 6.793,14.792 L8.217,13.367 C8.146,13.171 8.099,12.962 8.082,12.745 C8.075,12.667 8.045,12.594 7.995,12.535 C7.241,11.65 7.241,10.348 7.995,9.463 C8.045,9.404 8.076,9.33 8.082,9.253 C8.099,9.04 8.144,8.831 8.217,8.63 L6.793,7.207 C6.665,7.079 6.579,6.925 6.535,6.763 C6.468,6.956 6.438,7.154 6.422,7.356 C6.355,8.195 6.025,8.991 5.479,9.632 C4.792,10.414 4.792,11.585 5.479,12.367 C6.025,13.008 6.355,13.805 6.422,14.644 C6.434,14.846 6.472,15.045 6.535,15.237 Z"/>
</svg>

