<svg xmlns="http://www.w3.org/2000/svg" width="24" height="24">
  <defs/>
  <path  d="M12,9.235 C14.907,12.181 16.956,15.635 18.668,19.452 A9.963 9.963 0 0 1 12,22 A9.963 9.963 0 0 1 5.332,19.452 C7.044,15.635 9.092,12.181 12,9.235 M5.509,4.393 A27.892 27.892 0 0 1 10.542,7.865 C7.656,10.799 5.582,14.179 3.875,17.831 A9.954 9.954 0 0 1 2,12 A9.978 9.978 0 0 1 5.509,4.393 M18.491,4.393 A9.978 9.978 0 0 1 22,12 C22,14.176 21.305,16.19 20.125,17.83 C18.418,14.179 16.344,10.8 13.458,7.865 A27.895 27.895 0 0 1 18.491,4.393 M12,2 C13.675,2 15.254,2.412 16.641,3.14 A29.47 29.47 0 0 0 12,6.483 A29.472 29.472 0 0 0 7.359,3.14 A9.957 9.957 0 0 1 12,2"/>
</svg>

