<svg xmlns="http://www.w3.org/2000/svg" width="24" height="24">
  <defs/>
  <path  d="M12,2 C17.523,2 22,6.477 22,12 C22,17.523 17.523,22 12,22 C6.477,22 2,17.523 2,12 C2,6.477 6.477,2 12,2 Z M12,9.235 C9.586,11.681 7.763,14.479 6.233,17.545 C7.74,19.116 9.823,20.003 12,20 C14.177,20.003 16.26,19.116 17.767,17.545 C16.237,14.478 14.414,11.681 12,9.235 Z M16.642,5.485 C15.524,6.199 14.46,6.995 13.458,7.865 C15.781,10.227 17.578,12.878 19.081,15.726 C19.686,14.577 20.002,13.298 20,12 C20.002,9.412 18.75,6.984 16.642,5.484 Z M7.358,5.485 C5.25,6.985 3.998,9.413 4,12 C4,13.345 4.332,14.613 4.919,15.726 C6.421,12.878 8.219,10.227 10.542,7.866 C9.54,6.995 8.476,6.199 7.358,5.484 Z M12,4 C11.086,4 10.207,4.153 9.389,4.436 C10.322,5.086 11.19,5.769 12,6.484 C12.83,5.752 13.702,5.068 14.611,4.436 C13.771,4.146 12.889,3.999 12,4 Z"/>
</svg>

