<svg xmlns="http://www.w3.org/2000/svg" width="24" height="24">
  <defs/>
  <path  d="M12,2 L12,8.5 C12,9.273 12.587,9.919 13.356,9.993 L13.5,10 L20,10 L20,20 C20,21.047 19.194,21.917 18.15,21.995 L18,22 L6,22 C4.953,22 4.083,21.194 4.005,20.15 L4,20 L4,4 C4,2.953 4.806,2.083 5.85,2.005 L6,2 Z M10.94,12.525 C10.567,12.149 9.966,12.128 9.568,12.478 C9.171,12.829 9.116,13.428 9.442,13.845 L9.525,13.939 L10.585,15 L9.525,16.06 C9.149,16.433 9.128,17.034 9.478,17.432 C9.829,17.829 10.428,17.884 10.845,17.558 L10.939,17.475 L12,16.415 L13.06,17.475 C13.433,17.851 14.034,17.872 14.432,17.522 C14.829,17.171 14.884,16.572 14.558,16.155 L14.475,16.061 L13.415,15.001 L14.475,13.939 C14.847,13.566 14.865,12.967 14.517,12.572 C14.168,12.176 13.572,12.119 13.155,12.442 L13.061,12.525 L12,13.585 Z M14,2.043 C14.323,2.112 14.625,2.259 14.877,2.473 L15,2.586 L19.414,7 C19.648,7.234 19.821,7.523 19.916,7.84 L19.956,8 L14,8 Z"/>
</svg>

