<svg xmlns="http://www.w3.org/2000/svg" width="24" height="24">
  <defs/>
  <path  d="M13.586,2 A2 2 0 0 1 15,2.586 L19.414,7 A2 2 0 0 1 20,8.414 L20,20 A2 2 0 0 1 18,22 L6,22 A2 2 0 0 1 4,20 L4,4 A2 2 0 0 1 6,2 Z M12,4 L6,4 L6,20 L18,20 L18,10 L13.5,10 A1.5 1.5 0 0 1 12,8.5 Z M10.94,12.525 L12,13.585 L13.06,12.525 A1 1 0 0 1 14.475,13.939 L13.415,15 L14.475,16.06 A1 1 0 0 1 13.061,17.475 L12,16.415 L10.94,17.475 A1 1 0 0 1 9.525,16.061 L10.585,15.001 L9.525,13.939 A1 1 0 1 1 10.939,12.525 Z M14,4.415 L14,8 L17.586,8 L14,4.414 Z"/>
</svg>

