<svg xmlns="http://www.w3.org/2000/svg" width="24" height="24">
  <defs/>
  <path  d="M12,2 C17.523,2 22,6.477 22,12 C22,17.523 17.523,22 12,22 C6.477,22 2,17.523 2,12 C2,6.477 6.477,2 12,2 M8.441,4.833 A8.003 8.003 0 0 0 9.93,19.73 L9.93,19.728 A3.5 3.5 0 0 0 11.926,13.022 L11.742,12.967 A5.5 5.5 0 0 1 8.442,4.834 Z M9.784,6.747 A3.5 3.5 0 0 0 12.074,10.979 L12.259,11.034 A5.5 5.5 0 0 1 15.559,19.167 A8.003 8.003 0 0 0 14.071,4.27 L14.071,4.272 A3.5 3.5 0 0 0 9.784,6.746 Z M10.741,14.768 A1.5 1.5 0 1 1 9.964,17.666 A1.5 1.5 0 0 1 10.741,14.768 M14.036,6.334 A1.5 1.5 0 1 1 13.259,9.232 A1.5 1.5 0 0 1 14.036,6.334"/>
</svg>

