<svg xmlns="http://www.w3.org/2000/svg" width="24" height="24">
  <defs/>
  <path  d="M12,4 C12.855,4 13.732,4.022 14.582,4.058 L15.586,4.106 L16.547,4.163 L17.447,4.224 L18.269,4.288 A3.802 3.802 0 0 1 21.763,7.711 L21.803,8.136 L21.878,9.046 C21.948,9.989 22,11.017 22,12 C22,12.983 21.948,14.011 21.878,14.954 L21.803,15.864 C21.79,16.01 21.777,16.151 21.763,16.289 A3.802 3.802 0 0 1 18.268,19.712 L17.448,19.775 L16.548,19.837 L15.586,19.894 L14.582,19.942 A61.59 61.59 0 0 1 12,20 A61.59 61.59 0 0 1 9.418,19.942 L8.414,19.894 L7.453,19.837 L6.553,19.775 L5.731,19.712 A3.802 3.802 0 0 1 2.237,16.289 L2.197,15.864 L2.122,14.954 A40.662 40.662 0 0 1 2,12 C2,11.017 2.052,9.989 2.122,9.046 L2.197,8.136 C2.21,7.99 2.223,7.849 2.237,7.711 A3.802 3.802 0 0 1 5.73,4.288 L6.551,4.224 L7.451,4.163 L8.413,4.106 L9.417,4.058 A61.676 61.676 0 0 1 12,4 M12,6 C11.175,6 10.326,6.022 9.5,6.056 L8.522,6.103 L7.583,6.158 L6.701,6.218 L5.893,6.281 A1.802 1.802 0 0 0 4.227,7.904 C4.11,9.113 4,10.618 4,12 C4,13.382 4.11,14.887 4.227,16.096 C4.312,16.968 5.004,17.646 5.893,17.719 L6.701,17.781 L7.583,17.841 L8.522,17.897 L9.5,17.944 C10.326,17.978 11.175,18 12,18 C12.825,18 13.674,17.978 14.5,17.944 L15.478,17.897 L16.417,17.842 L17.299,17.782 L18.107,17.719 A1.802 1.802 0 0 0 19.773,16.096 C19.89,14.887 20,13.382 20,12 C20,10.618 19.89,9.113 19.773,7.904 A1.802 1.802 0 0 0 18.107,6.281 L17.299,6.219 L16.417,6.159 L15.478,6.103 L14.5,6.056 A60.693 60.693 0 0 0 12,6 M10,9.575 A0.6 0.6 0 0 1 10.819,9.016 L10.9,9.056 L15.1,11.48 A0.6 0.6 0 0 1 15.185,12.46 L15.1,12.52 L10.9,14.945 A0.6 0.6 0 0 1 10.006,14.515 L10,14.425 Z"/>
</svg>

