<svg xmlns="http://www.w3.org/2000/svg" width="24" height="24">
  <defs/>
  <path  d="M12,4 C12.855,4 13.732,4.022 14.582,4.058 L15.586,4.106 L16.547,4.163 L17.447,4.224 L18.269,4.288 C20.11,4.429 21.584,5.873 21.763,7.711 L21.803,8.136 L21.878,9.046 C21.948,9.989 22,11.017 22,12 C22,12.983 21.948,14.011 21.878,14.954 L21.803,15.864 C21.79,16.01 21.777,16.151 21.763,16.289 C21.584,18.128 20.11,19.572 18.268,19.712 L17.448,19.775 L16.548,19.837 L15.586,19.894 L14.582,19.942 C13.722,19.979 12.861,19.999 12,20 C11.139,19.999 10.278,19.979 9.418,19.942 L8.414,19.894 L7.453,19.837 L6.553,19.775 L5.731,19.712 C3.89,19.571 2.416,18.127 2.237,16.289 L2.197,15.864 L2.122,14.954 C2.046,13.971 2.005,12.986 2,12 C2,11.017 2.052,9.989 2.122,9.046 L2.197,8.136 C2.21,7.99 2.223,7.849 2.237,7.711 C2.416,5.873 3.889,4.429 5.73,4.288 L6.551,4.224 L7.451,4.163 L8.413,4.106 L9.417,4.058 C10.278,4.021 11.139,4.001 12,4 Z M10,9.575 L10,14.425 C10,14.887 10.5,15.175 10.9,14.945 L15.1,12.52 C15.286,12.413 15.401,12.215 15.401,12 C15.401,11.785 15.286,11.587 15.1,11.48 L10.9,9.056 C10.714,8.949 10.485,8.949 10.3,9.056 C10.114,9.163 10,9.361 10,9.575 Z"/>
</svg>

