<svg xmlns="http://www.w3.org/2000/svg" width="24" height="24">
  <defs/>
  <path  d="M12,5 C13.921,4.999 15.672,6.099 16.506,7.83 C17.004,7.458 17.553,7.077 18.106,6.862 C18.501,6.7 18.928,6.636 19.353,6.675 C19.819,6.725 20.244,6.915 20.624,7.219 C21.498,7.919 21.753,9.153 21.718,10.269 C21.682,11.449 21.322,12.802 20.628,14.078 C19.226,16.66 16.41,19 12,19 C7.59,19 4.775,16.66 3.371,14.078 C2.678,12.802 2.318,11.45 2.281,10.268 C2.247,9.153 2.501,7.918 3.375,7.219 C3.755,6.915 4.181,6.726 4.647,6.675 C5.103,6.626 5.524,6.719 5.893,6.862 C6.446,7.076 6.995,7.458 7.493,7.831 C8.327,6.1 10.078,4.999 12,5 Z M12,7 C10.713,7 9.569,7.821 9.157,9.04 C10.022,9.597 10.929,10 12,10 C13.07,10 13.978,9.597 14.843,9.04 C14.431,7.821 13.287,7 12,7 Z"/>
</svg>

