<svg xmlns="http://www.w3.org/2000/svg" width="24" height="24">
  <defs/>
  <path  d="M7.494,7.83 C8.327,6.098 10.078,4.997 12,4.997 C13.922,4.997 15.673,6.098 16.506,7.83 C17.005,7.458 17.553,7.076 18.106,6.862 C18.501,6.7 18.928,6.636 19.353,6.675 C19.819,6.725 20.244,6.915 20.624,7.219 C21.498,7.919 21.753,9.153 21.718,10.269 C21.682,11.449 21.322,12.802 20.628,14.078 C19.226,16.66 16.41,19 12,19 C7.59,19 4.775,16.66 3.371,14.078 C2.678,12.802 2.318,11.45 2.281,10.268 C2.247,9.153 2.501,7.918 3.375,7.219 C3.755,6.915 4.181,6.726 4.647,6.675 C5.103,6.626 5.524,6.719 5.893,6.862 C6.446,7.076 6.995,7.458 7.493,7.831 Z M7.045,10 C6.444,9.547 5.882,9.003 5.169,8.726 C4.96,8.645 4.803,8.638 4.625,8.781 C4.498,8.882 4.253,9.297 4.281,10.207 C4.307,11.05 4.572,12.098 5.129,13.123 C6.225,15.14 8.41,17 12,17 C15.59,17 17.775,15.14 18.871,13.123 C19.428,12.098 19.693,11.05 19.719,10.207 C19.747,9.297 19.501,8.882 19.375,8.781 C19.197,8.638 19.039,8.645 18.831,8.726 C18.118,9.003 17.556,9.547 16.954,10 C15.767,10.893 14.134,12 12,12 C9.865,12 8.233,10.893 7.045,10 Z M9.156,9.041 C10.021,9.598 10.929,10.001 11.999,10.001 C13.07,10.001 13.977,9.598 14.842,9.041 C14.43,7.822 13.286,7.001 11.999,7.001 C10.712,7.001 9.568,7.822 9.156,9.041 Z"/>
</svg>

