<svg xmlns="http://www.w3.org/2000/svg" width="24" height="24">
  <defs/>
  <path  d="M8,12 A2.21 2.21 0 0 1 10.016,13.305 L10.081,13.466 L12.413,19.996 A1.5 1.5 0 0 1 9.643,21.138 L9.587,21.004 L9.407,20.5 L6.593,20.5 L6.413,21.005 A1.5 1.5 0 0 1 3.545,20.134 L3.587,19.995 L5.919,13.466 A2.21 2.21 0 0 1 8,12 M17,3 A1.5 1.5 0 0 1 18.5,4.5 L18.5,16.207 L18.768,15.939 A1.5 1.5 0 1 1 20.889,18.061 L18.061,20.889 A1.5 1.5 0 0 1 15.939,20.889 L13.111,18.061 A1.5 1.5 0 1 1 15.232,15.939 L15.5,16.207 L15.5,4.5 A1.5 1.5 0 0 1 17,3 M8,16.56 L7.664,17.5 L8.336,17.5 Z M10.758,2 C12.136,2 12.849,3.61 11.985,4.628 L11.89,4.731 L8.62,8 L11,8 A1.5 1.5 0 0 1 11.144,10.993 L11,11 L5.24,11 C3.862,11 3.15,9.39 4.014,8.372 L4.109,8.269 L7.379,5 L4.999,5 A1.5 1.5 0 0 1 4.855,2.007 L5,2 L10.759,2 Z"/>
</svg>

