<svg xmlns="http://www.w3.org/2000/svg" width="24" height="24">
  <defs/>
  <path  d="M17.707,4.293 L20.536,7.121 A1 1 0 0 1 19.121,8.536 L18,7.414 L18,20 A1 1 0 1 1 16,20 L16,7.414 L14.879,8.536 A1 1 0 1 1 13.464,7.121 L16.293,4.293 A1 1 0 0 1 17.707,4.293 M8,12 C8.674,12 9.28,12.396 9.556,13.002 L9.61,13.134 L11.942,19.664 A1 1 0 0 1 10.104,20.444 L10.058,20.336 L9.581,19 L6.419,19 L5.942,20.336 A1 1 0 0 1 4.025,19.776 L4.058,19.664 L6.39,13.134 A1.71 1.71 0 0 1 8,12 M8,14.573 L7.133,17 L8.867,17 Z M10.759,3 C11.699,3 12.189,4.092 11.614,4.792 L11.536,4.878 L7.414,9 L11,9 A1 1 0 0 1 11.117,10.993 L11,11 L5.241,11 C4.301,11 3.811,9.908 4.386,9.208 L4.464,9.122 L8.586,5 L5,5 A1 1 0 0 1 4.883,3.007 L5,3 Z"/>
</svg>

