<svg xmlns="http://www.w3.org/2000/svg" width="24" height="24">
  <defs/>
  <path  d="M2,10.5 C2,6.777 4.424,3.487 7.979,2.383 C11.535,1.279 15.396,2.618 17.505,5.686 C19.614,8.754 19.481,12.838 17.176,15.762 L20.828,19.414 C21.207,19.806 21.202,20.43 20.816,20.816 C20.43,21.202 19.806,21.207 19.414,20.828 L15.762,17.176 C13.205,19.192 9.72,19.57 6.79,18.148 C3.86,16.727 2,13.757 2,10.5 Z M7,9.5 C6.448,9.5 6,9.948 6,10.5 C6,11.052 6.448,11.5 7,11.5 L14,11.5 C14.552,11.5 15,11.052 15,10.5 C15,9.948 14.552,9.5 14,9.5 Z"/>
</svg>

