<svg xmlns="http://www.w3.org/2000/svg" width="24" height="24">
  <defs/>
  <path  d="M10.5,2 A8.5 8.5 0 0 1 17.373,15.502 L17.176,15.762 L20.828,19.414 A1 1 0 0 1 19.508,20.912 L19.414,20.828 L15.762,17.176 A8.5 8.5 0 1 1 10.5,2 M10.5,4 A6.5 6.5 0 1 0 10.5,17 A6.5 6.5 0 0 0 10.5,4 M10.5,6 A1 1 0 0 1 11.493,6.883 L11.5,7 L11.5,9.5 L14,9.5 A1 1 0 0 1 14.117,11.493 L14,11.5 L11.5,11.5 L11.5,14 A1 1 0 0 1 9.507,14.117 L9.5,14 L9.5,11.5 L7,11.5 A1 1 0 0 1 6.883,9.507 L7,9.5 L9.5,9.5 L9.5,7 A1 1 0 0 1 10.5,6"/>
</svg>

