<svg xmlns="http://www.w3.org/2000/svg" width="24" height="24">
  <defs/>
  <path  d="M10.5,2 C13.757,2 16.727,3.86 18.148,6.79 C19.57,9.72 19.192,13.205 17.176,15.762 L20.828,19.414 C21.207,19.806 21.202,20.43 20.816,20.816 C20.43,21.202 19.806,21.207 19.414,20.828 L15.762,17.176 C12.838,19.481 8.754,19.614 5.686,17.505 C2.618,15.396 1.279,11.535 2.383,7.979 C3.487,4.424 6.777,2 10.5,2 Z M6,10.5 C6,11.052 6.448,11.5 7,11.5 L9.5,11.5 L9.5,14 C9.5,14.552 9.948,15 10.5,15 C11.052,15 11.5,14.552 11.5,14 L11.5,11.5 L14,11.5 C14.552,11.5 15,11.052 15,10.5 C15,9.948 14.552,9.5 14,9.5 L11.5,9.5 L11.5,7 C11.5,6.448 11.052,6 10.5,6 C9.948,6 9.5,6.448 9.5,7 L9.5,9.5 L7,9.5 C6.448,9.5 6,9.948 6,10.5 Z"/>
</svg>

