<svg xmlns="http://www.w3.org/2000/svg" width="516" viewBox="0 0 386.88 218.25" height="291" version="1.0">
    <path
        d="M81.714 148.117q-6.41 0-11.719-2.047-5.298-2.044-9.172-6.015-3.877-3.985-6.031-9.563-2.156-5.59-2.156-12.562-.002-8.842 3.593-15.297 3.592-6.469 9.844-10 6.248-3.546 13.985-3.547c2.875 0 5.617.48 8.234 1.437q3.92 1.442 7.016 3.985c2.062 1.687 3.687 3.68 4.875 5.968h.218v-34.39h10.172v52.187q0 9.393-3.828 16.078-3.814 6.691-10.281 10.235c-4.305 2.351-9.219 3.531-14.75 3.531m0-8.734q5.203 0 9.39-2.532 4.203-2.544 6.688-7.187 2.498-4.654 2.5-10.953-.002-6.405-2.5-11.11-2.486-4.7-6.687-7.234c-2.793-1.695-5.961-2.547-9.5-2.547q-5.206.001-9.454 2.657-4.254 2.643-6.75 7.296-2.484 4.64-2.484 10.828 0 6.41 2.547 11.063 2.542 4.642 6.797 7.188 4.263 2.53 9.453 2.53m44.647 7.407V90.414h10.28v56.375Zm5.203-65.344q-2.767 0-4.813-2.031-2.049-2.046-2.047-4.812-.002-2.764 2.047-4.813 2.046-2.046 4.813-2.047 2.763.001 4.812 2.047 2.046 2.049 2.047 4.813-.001 2.766-2.047 4.812-2.049 2.032-4.812 2.031m49.635 66.672c-5.461 0-10.367-1.18-14.719-3.531-4.344-2.363-7.79-5.774-10.328-10.234q-3.814-6.686-3.813-16.079V66.086h10.172v34.39h.219a20.7 20.7 0 0 1 4.922-5.968c2.031-1.696 4.351-3.024 6.969-3.985q3.92-1.436 8.234-1.437 7.842 0 14.031 3.547 6.2 3.531 9.797 10 3.593 6.455 3.594 15.297 0 6.973-2.156 12.562-2.158 5.578-6.032 9.563-3.879 3.971-9.187 6.015-5.298 2.047-11.703 2.047m0-8.734q5.184 0 9.437-2.532 4.265-2.544 6.813-7.187c1.695-3.102 2.547-6.79 2.547-11.062q-.002-6.188-2.5-10.829-2.486-4.653-6.688-7.297-4.206-2.655-9.5-2.656c-3.469 0-6.621.852-9.453 2.547q-4.254 2.534-6.75 7.234-2.484 4.705-2.484 11.11 0 6.3 2.484 10.953 2.496 4.642 6.75 7.188 4.247 2.53 9.344 2.53m65.537 8.735q-8.175 0-14.14-3.922-5.972-3.92-9.188-10.672-3.204-6.749-3.203-14.921c0-5.532 1.176-10.524 3.531-14.985q3.545-6.684 10.172-10.61 6.64-3.92 15.922-3.921 8.964.001 15.375 3.875 6.404 3.861 9.89 10.5c2.32 4.418 3.485 9.355 3.485 14.812v28.516h-10.282v-11.5h-.218q-1.66 3.206-4.485 6.14-2.813 2.926-7.015 4.813-4.207 1.875-9.844 1.875m2.656-8.734q5.53.002 9.782-2.703 4.263-2.719 6.64-7.516 2.374-4.81 2.375-10.781-.002-5.86-2.266-10.5-2.267-4.653-6.468-7.36-4.207-2.701-9.844-2.703-5.969 0-10.234 2.766-4.254 2.768-6.516 7.469c-1.512 3.125-2.266 6.68-2.266 10.656q0 5.754 2.204 10.453 2.215 4.688 6.421 7.453 4.202 2.766 10.172 2.766m0 0"
        fill="#fff" />
    <g transform="translate(286.641 146.789)" fill="#fff" />
    <path
        d="M327.44 147.899q-2.986 0-5.14-2.157-2.158-2.153-2.158-5.14t2.156-5.141q2.155-2.157 5.141-2.156 2.983 0 5.14 2.156t2.157 5.14q-.002 1.989-.953 3.641a7.2 7.2 0 0 1-2.593 2.657c-1.105.664-2.355 1-3.75 1m0 0"
        fill="red" />
    <path
        d="M59.611 159.574q5.531 0 8.672 2.626 3.154 2.613 3.156 7.265-.002 4.627-3.156 7.25-3.14 2.611-8.672 2.61h-8.39v9.609H49.08v-29.36Zm0 17.829q4.686 0 7.156-2.063 2.485-2.062 2.485-5.875 0-3.81-2.485-5.89c-1.648-1.383-4.03-2.078-7.156-2.078h-8.39v15.906Zm0 0"
        fill="#fff" />
    <g transform="translate(73.949 188.934)" fill="#fff" />
    <path
        d="m110.23 188.934-7-9.812q-1.547.203-2.844.203h-8.39v9.609h-2.141v-29.36h10.531q5.531 0 8.672 2.626 3.154 2.613 3.156 7.265-.002 3.486-1.797 5.86-1.782 2.36-5.093 3.328l7.343 10.281Zm-9.844-11.5q4.686.001 7.156-2.078 2.485-2.076 2.485-5.89 0-3.811-2.485-5.891c-1.648-1.383-4.03-2.078-7.156-2.078h-8.39v15.937Zm0 0"
        fill="#fff" />
    <g transform="translate(114.933 188.934)" fill="#fff" />
    <path
        d="M143.292 189.137q-4.331.001-7.812-1.937-3.47-1.951-5.47-5.344-1.984-3.404-1.984-7.61-.001-4.184 1.985-7.578 1.999-3.403 5.469-5.359 3.48-1.951 7.812-1.953c2.883 0 5.485.648 7.797 1.937q3.482 1.924 5.469 5.328 1.999 3.394 2 7.625-.001 4.237-2 7.641-1.988 3.395-5.469 5.328c-2.312 1.282-4.914 1.922-7.797 1.922m0-1.969c2.457 0 4.68-.554 6.672-1.671a12.45 12.45 0 0 0 4.703-4.641q1.718-2.953 1.719-6.61 0-3.639-1.719-6.593a12.34 12.34 0 0 0-4.703-4.64q-2.987-1.688-6.672-1.688-3.689 0-6.687 1.687a12.27 12.27 0 0 0-4.72 4.64q-1.72 2.956-1.718 6.595c0 2.437.57 4.64 1.719 6.609a12.4 12.4 0 0 0 4.719 4.64c2 1.118 4.226 1.672 6.687 1.672m0 0"
        fill="#fff" />
    <g transform="translate(160.868 188.934)" fill="#fff" />
    <path
        d="M179.415 189.137a9.3 9.3 0 0 1-4.47-1.11 8.86 8.86 0 0 1-3.342-3.076l1.313-1.422q1.2 1.8 2.859 2.75a7.3 7.3 0 0 0 3.64.937q2.936.001 4.376-1.703 1.452-1.701 1.453-5.219v-18.796h-10.829v-1.922h12.968v20.718q0 4.409-2.015 6.625-2.016 2.219-5.953 2.219m0 0"
        fill="#fff" />
    <g transform="translate(192.246 188.934)" fill="#fff" />
    <path d="M228.402 186.997v1.937h-20.25v-29.36h19.625v1.922h-17.484v11.579h15.64v1.89h-15.64v12.032Zm0 0"
        fill="#fff" />
    <g transform="translate(231.09 188.934)" fill="#fff" />
    <path
        d="M259.403 189.137q-4.312 0-7.781-1.922a14.34 14.34 0 0 1-5.453-5.328q-1.985-3.404-1.984-7.64-.001-4.231 1.984-7.626a14.23 14.23 0 0 1 5.453-5.327q3.469-1.935 7.781-1.937 3.187 0 5.875 1.031 2.686 1.031 4.578 3.047l-1.343 1.375q-3.533-3.482-9.016-3.484-3.704 0-6.719 1.687a12.23 12.23 0 0 0-4.734 4.64c-1.149 1.97-1.719 4.169-1.719 6.595 0 2.437.57 4.64 1.719 6.609q1.717 2.953 4.734 4.64c2.008 1.118 4.25 1.672 6.719 1.672q5.45 0 9.016-3.515l1.343 1.375q-1.892 2.018-4.593 3.062-2.707 1.048-5.861 1.046m0 0"
        fill="#fff" />
    <g transform="translate(271.907 188.934)" fill="#fff" />
    <path d="M293.422 161.497H282.86v-1.922h23.281v1.922h-10.578v27.437h-2.14Zm0 0" fill="#fff" />
    <g transform="translate(306.306 188.934)" fill="#fff" />
    <path
        d="M329.931 189.137c-2.156 0-4.211-.367-6.156-1.11q-2.908-1.105-4.548-2.873l.968-1.594q1.548 1.64 4.172 2.672a14.9 14.9 0 0 0 5.516 1.031q4.183 0 6.328-1.594 2.14-1.591 2.14-4.156-.002-1.969-1.14-3.14-1.126-1.185-2.797-1.813-1.674-.622-4.531-1.297-3.235-.797-5.188-1.547a8.3 8.3 0 0 1-3.312-2.328q-1.36-1.574-1.36-4.234c0-1.414.376-2.719 1.126-3.907q1.137-1.793 3.468-2.843 2.327-1.046 5.813-1.047 2.438.002 4.781.719c1.563.468 2.914 1.109 4.063 1.922l-.797 1.718a13.4 13.4 0 0 0-3.875-1.843q-2.127-.624-4.172-.625-4.08 0-6.172 1.64c-1.399 1.086-2.094 2.496-2.094 4.235q0 1.968 1.125 3.14 1.136 1.173 2.813 1.813c1.125.418 2.648.867 4.578 1.343q3.234.798 5.156 1.547 1.936.751 3.297 2.281 1.36 1.535 1.36 4.141-.001 2.143-1.157 3.906-1.143 1.753-3.547 2.797-2.39 1.049-5.86 1.047m0 0"
        fill="#fff" />
</svg>