<svg xmlns="http://www.w3.org/2000/svg" xmlns:xlink="http://www.w3.org/1999/xlink" width="500" zoomAndPan="magnify" viewBox="0 0 375 374.999991" height="500" preserveAspectRatio="xMidYMid meet" version="1.0"><defs><g/><clipPath id="79bdfc281e"><path d="M 75 0 L 300 0 C 341.421875 0 375 33.578125 375 75 L 375 300 C 375 341.421875 341.421875 375 300 375 L 75 375 C 33.578125 375 0 341.421875 0 300 L 0 75 C 0 33.578125 33.578125 0 75 0 Z M 75 0 " clip-rule="nonzero"/></clipPath><clipPath id="fa5b67cb92"><path d="M 179.714844 173.078125 L 302.441406 173.078125 L 302.441406 295.804688 L 179.714844 295.804688 Z M 179.714844 173.078125 " clip-rule="nonzero"/></clipPath><clipPath id="042b1fa0ea"><path d="M 241.078125 173.078125 C 207.1875 173.078125 179.714844 200.550781 179.714844 234.441406 C 179.714844 268.332031 207.1875 295.804688 241.078125 295.804688 C 274.96875 295.804688 302.441406 268.332031 302.441406 234.441406 C 302.441406 200.550781 274.96875 173.078125 241.078125 173.078125 Z M 241.078125 173.078125 " clip-rule="nonzero"/></clipPath><clipPath id="9a1b92e42f"><path d="M 184.828125 178.191406 L 297.328125 178.191406 L 297.328125 290.691406 L 184.828125 290.691406 Z M 184.828125 178.191406 " clip-rule="nonzero"/></clipPath><clipPath id="fdaf4b7835"><path d="M 241.078125 178.191406 C 210.011719 178.191406 184.828125 203.375 184.828125 234.441406 C 184.828125 265.507812 210.011719 290.691406 241.078125 290.691406 C 272.144531 290.691406 297.328125 265.507812 297.328125 234.441406 C 297.328125 203.375 272.144531 178.191406 241.078125 178.191406 Z M 241.078125 178.191406 " clip-rule="nonzero"/></clipPath></defs><g clip-path="url(#79bdfc281e)"><rect x="-37.5" width="450" fill="#000000" y="-37.499999" height="449.999989" fill-opacity="1"/></g><g fill="#ffffff" fill-opacity="1"><g transform="translate(91.660655, 292.124981)"><g><path d="M 92.390625 3.59375 C 80.785156 3.59375 70.179688 1.742188 60.578125 -1.953125 C 50.984375 -5.648438 42.6875 -11.097656 35.6875 -18.296875 C 28.695312 -25.492188 23.25 -34.140625 19.34375 -44.234375 C 15.445312 -54.335938 13.5 -65.6875 13.5 -78.28125 C 13.5 -94.28125 16.75 -108.128906 23.25 -119.828125 C 29.75 -131.523438 38.644531 -140.570312 49.9375 -146.96875 C 61.238281 -153.375 73.890625 -156.578125 87.890625 -156.578125 C 95.679688 -156.578125 103.125 -155.273438 110.21875 -152.671875 C 117.320312 -150.078125 123.671875 -146.476562 129.265625 -141.875 C 134.867188 -137.28125 139.273438 -131.882812 142.484375 -125.6875 L 143.078125 -125.6875 L 143.078125 -218.96875 L 170.671875 -218.96875 L 170.671875 -77.390625 C 170.671875 -60.390625 167.222656 -45.835938 160.328125 -33.734375 C 153.429688 -21.640625 144.128906 -12.394531 132.421875 -6 C 120.722656 0.394531 107.378906 3.59375 92.390625 3.59375 Z M 92.390625 -20.09375 C 101.785156 -20.09375 110.28125 -22.390625 117.875 -26.984375 C 125.476562 -31.585938 131.53125 -38.085938 136.03125 -46.484375 C 140.53125 -54.890625 142.78125 -64.789062 142.78125 -76.1875 C 142.78125 -87.78125 140.53125 -97.828125 136.03125 -106.328125 C 131.53125 -114.828125 125.476562 -121.375 117.875 -125.96875 C 110.28125 -130.570312 101.679688 -132.875 92.078125 -132.875 C 82.679688 -132.875 74.132812 -130.472656 66.4375 -125.671875 C 58.738281 -120.878906 52.640625 -114.28125 48.140625 -105.875 C 43.640625 -97.476562 41.390625 -87.679688 41.390625 -76.484375 C 41.390625 -64.890625 43.6875 -54.890625 48.28125 -46.484375 C 52.882812 -38.085938 59.035156 -31.585938 66.734375 -26.984375 C 74.429688 -22.390625 82.984375 -20.09375 92.390625 -20.09375 Z M 92.390625 -20.09375 "/></g></g></g><g clip-path="url(#fa5b67cb92)"><g clip-path="url(#042b1fa0ea)"><path fill="#000000" d="M 179.714844 173.078125 L 302.441406 173.078125 L 302.441406 295.804688 L 179.714844 295.804688 Z M 179.714844 173.078125 " fill-opacity="1" fill-rule="nonzero"/></g></g><g clip-path="url(#9a1b92e42f)"><g clip-path="url(#fdaf4b7835)"><path fill="#ff0000" d="M 184.828125 178.191406 L 297.328125 178.191406 L 297.328125 290.691406 L 184.828125 290.691406 Z M 184.828125 178.191406 " fill-opacity="1" fill-rule="nonzero"/></g></g></svg>